  0
SECTION
  2
HEADER
  9
$ANGBASE
  50
0.0
  9
$ANGDIR
  70
1
  9
$MEASUREMENT
  70
0
  0
ENDSEC
  0
SECTION
  2
TABLES
  0
TABLE
  2
LTYPE
  70
4
  0
LTYPE
  5
40F
  2
CONTINUOUS
  70
0
  3
Solid line
  72
65
  73
0
  40
0.0
  0
LTYPE
  5
410
  2
DASHDOT
 70
0
  3
Dash Dot ____ _ ____ _
 72
65
 73
4
 40
2.0
 49
1.25
 49
-0.25
 49
0.25
 49
-0.25
  0
LTYPE
  5
411
  2
DASHED
 70
0
  3
Dashed __ __ __ __ __
 72
65
 73
2
 40
0.75
 49
0.5
 49
-0.25
  0
LTYPE
  5
43B
  2
DOTTED
 70
0
  3
Dotted .  .  .  .
 72
65
 73
2
 40
0.2
 49
0.0
 49
-0.2
  0
ENDTAB
  0
TABLE
  2
STYLE
  70
4
  0
STYLE
  2
KICAD
  70
0
  40
0
  41
1
  42
1
  50
0
  71
0
  3
isocp.shx
  0
STYLE
  2
KICADB
  70
0
  40
0
  41
1
  42
1
  50
0
  71
0
  3
isocp.shx
  0
STYLE
  2
KICADI
  70
0
  40
0
  41
1
  42
1
  50
15
  71
0
  3
isocp.shx
  0
STYLE
  2
KICADBI
  70
0
  40
0
  41
1
  42
1
  50
15
  71
0
  3
isocp.shx
  0
ENDTAB
  0
TABLE
  2
LAYER
  70
1
  0
LAYER
  2
BLACK
  70
0
  62
7
  6
CONTINUOUS
  0
ENDTAB
  0
ENDSEC
  0
SECTION
  2
ENTITIES
0
LINE
8
BLACK
6
CONTINUOUS
10
6.6985
20
-4.30528
11
6.60008
21
-4.30528
0
LINE
8
BLACK
6
CONTINUOUS
10
6.60008
20
-4.30528
11
6.60008
21
-4.21472
0
LINE
8
BLACK
6
CONTINUOUS
10
6.60008
20
-4.21472
11
6.6985
21
-4.21472
0
LINE
8
BLACK
6
CONTINUOUS
10
6.6985
20
-4.21472
11
6.6985
21
-4.30528
0
LINE
8
BLACK
6
CONTINUOUS
10
6.52921
20
-4.30528
11
6.43079
21
-4.30528
0
LINE
8
BLACK
6
CONTINUOUS
10
6.43079
20
-4.30528
11
6.43079
21
-4.21472
0
LINE
8
BLACK
6
CONTINUOUS
10
6.43079
20
-4.21472
11
6.52921
21
-4.21472
0
LINE
8
BLACK
6
CONTINUOUS
10
6.52921
20
-4.21472
11
6.52921
21
-4.30528
0
LINE
8
BLACK
6
CONTINUOUS
10
6.79964
20
-4.15755
11
6.80148
21
-4.15811
0
LINE
8
BLACK
6
CONTINUOUS
10
6.80148
20
-4.15811
11
6.80318
21
-4.15902
0
LINE
8
BLACK
6
CONTINUOUS
10
6.80318
20
-4.15902
11
6.80468
21
-4.16024
0
LINE
8
BLACK
6
CONTINUOUS
10
6.80468
20
-4.16024
11
6.8059
21
-4.16174
0
LINE
8
BLACK
6
CONTINUOUS
10
6.8059
20
-4.16174
11
6.80681
21
-4.16344
0
LINE
8
BLACK
6
CONTINUOUS
10
6.80681
20
-4.16344
11
6.80737
21
-4.16528
0
LINE
8
BLACK
6
CONTINUOUS
10
6.80737
20
-4.16528
11
6.80756
21
-4.1672
0
LINE
8
BLACK
6
CONTINUOUS
10
6.80756
20
-4.1672
11
6.80756
21
-4.1928
0
LINE
8
BLACK
6
CONTINUOUS
10
6.80756
20
-4.1928
11
6.80737
21
-4.19472
0
LINE
8
BLACK
6
CONTINUOUS
10
6.80737
20
-4.19472
11
6.80681
21
-4.19656
0
LINE
8
BLACK
6
CONTINUOUS
10
6.80681
20
-4.19656
11
6.8059
21
-4.19826
0
LINE
8
BLACK
6
CONTINUOUS
10
6.8059
20
-4.19826
11
6.80468
21
-4.19975
0
LINE
8
BLACK
6
CONTINUOUS
10
6.80468
20
-4.19975
11
6.80318
21
-4.20098
0
LINE
8
BLACK
6
CONTINUOUS
10
6.80318
20
-4.20098
11
6.80148
21
-4.20189
0
LINE
8
BLACK
6
CONTINUOUS
10
6.80148
20
-4.20189
11
6.79964
21
-4.20245
0
LINE
8
BLACK
6
CONTINUOUS
10
6.79964
20
-4.20245
11
6.79772
21
-4.20264
0
LINE
8
BLACK
6
CONTINUOUS
10
6.79772
20
-4.20264
11
6.76228
21
-4.20264
0
LINE
8
BLACK
6
CONTINUOUS
10
6.76228
20
-4.20264
11
6.76036
21
-4.20245
0
LINE
8
BLACK
6
CONTINUOUS
10
6.76036
20
-4.20245
11
6.75852
21
-4.20189
0
LINE
8
BLACK
6
CONTINUOUS
10
6.75852
20
-4.20189
11
6.75682
21
-4.20098
0
LINE
8
BLACK
6
CONTINUOUS
10
6.75682
20
-4.20098
11
6.75532
21
-4.19975
0
LINE
8
BLACK
6
CONTINUOUS
10
6.75532
20
-4.19975
11
6.7541
21
-4.19826
0
LINE
8
BLACK
6
CONTINUOUS
10
6.7541
20
-4.19826
11
6.75319
21
-4.19656
0
LINE
8
BLACK
6
CONTINUOUS
10
6.75319
20
-4.19656
11
6.75263
21
-4.19472
0
LINE
8
BLACK
6
CONTINUOUS
10
6.75263
20
-4.19472
11
6.75244
21
-4.1928
0
LINE
8
BLACK
6
CONTINUOUS
10
6.75244
20
-4.1928
11
6.75244
21
-4.1672
0
LINE
8
BLACK
6
CONTINUOUS
10
6.75244
20
-4.1672
11
6.75263
21
-4.16528
0
LINE
8
BLACK
6
CONTINUOUS
10
6.75263
20
-4.16528
11
6.75319
21
-4.16344
0
LINE
8
BLACK
6
CONTINUOUS
10
6.75319
20
-4.16344
11
6.7541
21
-4.16174
0
LINE
8
BLACK
6
CONTINUOUS
10
6.7541
20
-4.16174
11
6.75532
21
-4.16024
0
LINE
8
BLACK
6
CONTINUOUS
10
6.75532
20
-4.16024
11
6.75682
21
-4.15902
0
LINE
8
BLACK
6
CONTINUOUS
10
6.75682
20
-4.15902
11
6.75852
21
-4.15811
0
LINE
8
BLACK
6
CONTINUOUS
10
6.75852
20
-4.15811
11
6.76036
21
-4.15755
0
LINE
8
BLACK
6
CONTINUOUS
10
6.76036
20
-4.15755
11
6.76228
21
-4.15736
0
LINE
8
BLACK
6
CONTINUOUS
10
6.76228
20
-4.15736
11
6.79772
21
-4.15736
0
LINE
8
BLACK
6
CONTINUOUS
10
6.79772
20
-4.15736
11
6.79964
21
-4.15755
0
LINE
8
BLACK
6
CONTINUOUS
10
6.54818
20
-4.09263
11
6.55003
21
-4.09319
0
LINE
8
BLACK
6
CONTINUOUS
10
6.55003
20
-4.09319
11
6.55173
21
-4.0941
0
LINE
8
BLACK
6
CONTINUOUS
10
6.55173
20
-4.0941
11
6.55322
21
-4.09532
0
LINE
8
BLACK
6
CONTINUOUS
10
6.55322
20
-4.09532
11
6.55444
21
-4.09682
0
LINE
8
BLACK
6
CONTINUOUS
10
6.55444
20
-4.09682
11
6.55535
21
-4.09852
0
LINE
8
BLACK
6
CONTINUOUS
10
6.55535
20
-4.09852
11
6.55591
21
-4.10036
0
LINE
8
BLACK
6
CONTINUOUS
10
6.55591
20
-4.10036
11
6.5561
21
-4.10228
0
LINE
8
BLACK
6
CONTINUOUS
10
6.5561
20
-4.10228
11
6.5561
21
-4.13772
0
LINE
8
BLACK
6
CONTINUOUS
10
6.5561
20
-4.13772
11
6.55591
21
-4.13964
0
LINE
8
BLACK
6
CONTINUOUS
10
6.55591
20
-4.13964
11
6.55535
21
-4.14148
0
LINE
8
BLACK
6
CONTINUOUS
10
6.55535
20
-4.14148
11
6.55444
21
-4.14318
0
LINE
8
BLACK
6
CONTINUOUS
10
6.55444
20
-4.14318
11
6.55322
21
-4.14468
0
LINE
8
BLACK
6
CONTINUOUS
10
6.55322
20
-4.14468
11
6.55173
21
-4.1459
0
LINE
8
BLACK
6
CONTINUOUS
10
6.55173
20
-4.1459
11
6.55003
21
-4.14681
0
LINE
8
BLACK
6
CONTINUOUS
10
6.55003
20
-4.14681
11
6.54818
21
-4.14737
0
LINE
8
BLACK
6
CONTINUOUS
10
6.54818
20
-4.14737
11
6.54626
21
-4.14756
0
LINE
8
BLACK
6
CONTINUOUS
10
6.54626
20
-4.14756
11
6.52067
21
-4.14756
0
LINE
8
BLACK
6
CONTINUOUS
10
6.52067
20
-4.14756
11
6.51875
21
-4.14737
0
LINE
8
BLACK
6
CONTINUOUS
10
6.51875
20
-4.14737
11
6.5169
21
-4.14681
0
LINE
8
BLACK
6
CONTINUOUS
10
6.5169
20
-4.14681
11
6.5152
21
-4.1459
0
LINE
8
BLACK
6
CONTINUOUS
10
6.5152
20
-4.1459
11
6.51371
21
-4.14468
0
LINE
8
BLACK
6
CONTINUOUS
10
6.51371
20
-4.14468
11
6.51249
21
-4.14318
0
LINE
8
BLACK
6
CONTINUOUS
10
6.51249
20
-4.14318
11
6.51158
21
-4.14148
0
LINE
8
BLACK
6
CONTINUOUS
10
6.51158
20
-4.14148
11
6.51102
21
-4.13964
0
LINE
8
BLACK
6
CONTINUOUS
10
6.51102
20
-4.13964
11
6.51083
21
-4.13772
0
LINE
8
BLACK
6
CONTINUOUS
10
6.51083
20
-4.13772
11
6.51083
21
-4.10228
0
LINE
8
BLACK
6
CONTINUOUS
10
6.51083
20
-4.10228
11
6.51102
21
-4.10036
0
LINE
8
BLACK
6
CONTINUOUS
10
6.51102
20
-4.10036
11
6.51158
21
-4.09852
0
LINE
8
BLACK
6
CONTINUOUS
10
6.51158
20
-4.09852
11
6.51249
21
-4.09682
0
LINE
8
BLACK
6
CONTINUOUS
10
6.51249
20
-4.09682
11
6.51371
21
-4.09532
0
LINE
8
BLACK
6
CONTINUOUS
10
6.51371
20
-4.09532
11
6.5152
21
-4.0941
0
LINE
8
BLACK
6
CONTINUOUS
10
6.5152
20
-4.0941
11
6.5169
21
-4.09319
0
LINE
8
BLACK
6
CONTINUOUS
10
6.5169
20
-4.09319
11
6.51875
21
-4.09263
0
LINE
8
BLACK
6
CONTINUOUS
10
6.51875
20
-4.09263
11
6.52067
21
-4.09244
0
LINE
8
BLACK
6
CONTINUOUS
10
6.52067
20
-4.09244
11
6.54626
21
-4.09244
0
LINE
8
BLACK
6
CONTINUOUS
10
6.54626
20
-4.09244
11
6.54818
21
-4.09263
0
LINE
8
BLACK
6
CONTINUOUS
10
6.62889
20
-4.09263
11
6.63074
21
-4.09319
0
LINE
8
BLACK
6
CONTINUOUS
10
6.63074
20
-4.09319
11
6.63244
21
-4.0941
0
LINE
8
BLACK
6
CONTINUOUS
10
6.63244
20
-4.0941
11
6.63393
21
-4.09532
0
LINE
8
BLACK
6
CONTINUOUS
10
6.63393
20
-4.09532
11
6.63515
21
-4.09682
0
LINE
8
BLACK
6
CONTINUOUS
10
6.63515
20
-4.09682
11
6.63606
21
-4.09852
0
LINE
8
BLACK
6
CONTINUOUS
10
6.63606
20
-4.09852
11
6.63662
21
-4.10036
0
LINE
8
BLACK
6
CONTINUOUS
10
6.63662
20
-4.10036
11
6.63681
21
-4.10228
0
LINE
8
BLACK
6
CONTINUOUS
10
6.63681
20
-4.10228
11
6.63681
21
-4.13772
0
LINE
8
BLACK
6
CONTINUOUS
10
6.63681
20
-4.13772
11
6.63662
21
-4.13964
0
LINE
8
BLACK
6
CONTINUOUS
10
6.63662
20
-4.13964
11
6.63606
21
-4.14148
0
LINE
8
BLACK
6
CONTINUOUS
10
6.63606
20
-4.14148
11
6.63515
21
-4.14318
0
LINE
8
BLACK
6
CONTINUOUS
10
6.63515
20
-4.14318
11
6.63393
21
-4.14468
0
LINE
8
BLACK
6
CONTINUOUS
10
6.63393
20
-4.14468
11
6.63244
21
-4.1459
0
LINE
8
BLACK
6
CONTINUOUS
10
6.63244
20
-4.1459
11
6.63074
21
-4.14681
0
LINE
8
BLACK
6
CONTINUOUS
10
6.63074
20
-4.14681
11
6.62889
21
-4.14737
0
LINE
8
BLACK
6
CONTINUOUS
10
6.62889
20
-4.14737
11
6.62697
21
-4.14756
0
LINE
8
BLACK
6
CONTINUOUS
10
6.62697
20
-4.14756
11
6.60138
21
-4.14756
0
LINE
8
BLACK
6
CONTINUOUS
10
6.60138
20
-4.14756
11
6.59946
21
-4.14737
0
LINE
8
BLACK
6
CONTINUOUS
10
6.59946
20
-4.14737
11
6.59761
21
-4.14681
0
LINE
8
BLACK
6
CONTINUOUS
10
6.59761
20
-4.14681
11
6.59591
21
-4.1459
0
LINE
8
BLACK
6
CONTINUOUS
10
6.59591
20
-4.1459
11
6.59442
21
-4.14468
0
LINE
8
BLACK
6
CONTINUOUS
10
6.59442
20
-4.14468
11
6.59319
21
-4.14318
0
LINE
8
BLACK
6
CONTINUOUS
10
6.59319
20
-4.14318
11
6.59228
21
-4.14148
0
LINE
8
BLACK
6
CONTINUOUS
10
6.59228
20
-4.14148
11
6.59172
21
-4.13964
0
LINE
8
BLACK
6
CONTINUOUS
10
6.59172
20
-4.13964
11
6.59154
21
-4.13772
0
LINE
8
BLACK
6
CONTINUOUS
10
6.59154
20
-4.13772
11
6.59154
21
-4.10228
0
LINE
8
BLACK
6
CONTINUOUS
10
6.59154
20
-4.10228
11
6.59172
21
-4.10036
0
LINE
8
BLACK
6
CONTINUOUS
10
6.59172
20
-4.10036
11
6.59228
21
-4.09852
0
LINE
8
BLACK
6
CONTINUOUS
10
6.59228
20
-4.09852
11
6.59319
21
-4.09682
0
LINE
8
BLACK
6
CONTINUOUS
10
6.59319
20
-4.09682
11
6.59442
21
-4.09532
0
LINE
8
BLACK
6
CONTINUOUS
10
6.59442
20
-4.09532
11
6.59591
21
-4.0941
0
LINE
8
BLACK
6
CONTINUOUS
10
6.59591
20
-4.0941
11
6.59761
21
-4.09319
0
LINE
8
BLACK
6
CONTINUOUS
10
6.59761
20
-4.09319
11
6.59946
21
-4.09263
0
LINE
8
BLACK
6
CONTINUOUS
10
6.59946
20
-4.09263
11
6.60138
21
-4.09244
0
LINE
8
BLACK
6
CONTINUOUS
10
6.60138
20
-4.09244
11
6.62697
21
-4.09244
0
LINE
8
BLACK
6
CONTINUOUS
10
6.62697
20
-4.09244
11
6.62889
21
-4.09263
0
LINE
8
BLACK
6
CONTINUOUS
10
6.79964
20
-4.07684
11
6.80148
21
-4.0774
0
LINE
8
BLACK
6
CONTINUOUS
10
6.80148
20
-4.0774
11
6.80318
21
-4.07831
0
LINE
8
BLACK
6
CONTINUOUS
10
6.80318
20
-4.07831
11
6.80468
21
-4.07954
0
LINE
8
BLACK
6
CONTINUOUS
10
6.80468
20
-4.07954
11
6.8059
21
-4.08103
0
LINE
8
BLACK
6
CONTINUOUS
10
6.8059
20
-4.08103
11
6.80681
21
-4.08273
0
LINE
8
BLACK
6
CONTINUOUS
10
6.80681
20
-4.08273
11
6.80737
21
-4.08458
0
LINE
8
BLACK
6
CONTINUOUS
10
6.80737
20
-4.08458
11
6.80756
21
-4.0865
0
LINE
8
BLACK
6
CONTINUOUS
10
6.80756
20
-4.0865
11
6.80756
21
-4.11209
0
LINE
8
BLACK
6
CONTINUOUS
10
6.80756
20
-4.11209
11
6.80737
21
-4.11401
0
LINE
8
BLACK
6
CONTINUOUS
10
6.80737
20
-4.11401
11
6.80681
21
-4.11585
0
LINE
8
BLACK
6
CONTINUOUS
10
6.80681
20
-4.11585
11
6.8059
21
-4.11755
0
LINE
8
BLACK
6
CONTINUOUS
10
6.8059
20
-4.11755
11
6.80468
21
-4.11905
0
LINE
8
BLACK
6
CONTINUOUS
10
6.80468
20
-4.11905
11
6.80318
21
-4.12027
0
LINE
8
BLACK
6
CONTINUOUS
10
6.80318
20
-4.12027
11
6.80148
21
-4.12118
0
LINE
8
BLACK
6
CONTINUOUS
10
6.80148
20
-4.12118
11
6.79964
21
-4.12174
0
LINE
8
BLACK
6
CONTINUOUS
10
6.79964
20
-4.12174
11
6.79772
21
-4.12193
0
LINE
8
BLACK
6
CONTINUOUS
10
6.79772
20
-4.12193
11
6.76228
21
-4.12193
0
LINE
8
BLACK
6
CONTINUOUS
10
6.76228
20
-4.12193
11
6.76036
21
-4.12174
0
LINE
8
BLACK
6
CONTINUOUS
10
6.76036
20
-4.12174
11
6.75852
21
-4.12118
0
LINE
8
BLACK
6
CONTINUOUS
10
6.75852
20
-4.12118
11
6.75682
21
-4.12027
0
LINE
8
BLACK
6
CONTINUOUS
10
6.75682
20
-4.12027
11
6.75532
21
-4.11905
0
LINE
8
BLACK
6
CONTINUOUS
10
6.75532
20
-4.11905
11
6.7541
21
-4.11755
0
LINE
8
BLACK
6
CONTINUOUS
10
6.7541
20
-4.11755
11
6.75319
21
-4.11585
0
LINE
8
BLACK
6
CONTINUOUS
10
6.75319
20
-4.11585
11
6.75263
21
-4.11401
0
LINE
8
BLACK
6
CONTINUOUS
10
6.75263
20
-4.11401
11
6.75244
21
-4.11209
0
LINE
8
BLACK
6
CONTINUOUS
10
6.75244
20
-4.11209
11
6.75244
21
-4.0865
0
LINE
8
BLACK
6
CONTINUOUS
10
6.75244
20
-4.0865
11
6.75263
21
-4.08458
0
LINE
8
BLACK
6
CONTINUOUS
10
6.75263
20
-4.08458
11
6.75319
21
-4.08273
0
LINE
8
BLACK
6
CONTINUOUS
10
6.75319
20
-4.08273
11
6.7541
21
-4.08103
0
LINE
8
BLACK
6
CONTINUOUS
10
6.7541
20
-4.08103
11
6.75532
21
-4.07954
0
LINE
8
BLACK
6
CONTINUOUS
10
6.75532
20
-4.07954
11
6.75682
21
-4.07831
0
LINE
8
BLACK
6
CONTINUOUS
10
6.75682
20
-4.07831
11
6.75852
21
-4.0774
0
LINE
8
BLACK
6
CONTINUOUS
10
6.75852
20
-4.0774
11
6.76036
21
-4.07684
0
LINE
8
BLACK
6
CONTINUOUS
10
6.76036
20
-4.07684
11
6.76228
21
-4.07665
0
LINE
8
BLACK
6
CONTINUOUS
10
6.76228
20
-4.07665
11
6.79772
21
-4.07665
0
LINE
8
BLACK
6
CONTINUOUS
10
6.79772
20
-4.07665
11
6.79964
21
-4.07684
0
LINE
8
BLACK
6
CONTINUOUS
10
6.73706
20
-3.97661
11
6.73817
21
-3.97695
0
LINE
8
BLACK
6
CONTINUOUS
10
6.73817
20
-3.97695
11
6.73919
21
-3.97749
0
LINE
8
BLACK
6
CONTINUOUS
10
6.73919
20
-3.97749
11
6.74008
21
-3.97823
0
LINE
8
BLACK
6
CONTINUOUS
10
6.74008
20
-3.97823
11
6.74082
21
-3.97912
0
LINE
8
BLACK
6
CONTINUOUS
10
6.74082
20
-3.97912
11
6.74136
21
-3.98014
0
LINE
8
BLACK
6
CONTINUOUS
10
6.74136
20
-3.98014
11
6.7417
21
-3.98125
0
LINE
8
BLACK
6
CONTINUOUS
10
6.7417
20
-3.98125
11
6.74181
21
-3.9824
0
LINE
8
BLACK
6
CONTINUOUS
10
6.74181
20
-3.9824
11
6.74181
21
-4.04736
0
LINE
8
BLACK
6
CONTINUOUS
10
6.74181
20
-4.04736
11
6.7417
21
-4.04851
0
LINE
8
BLACK
6
CONTINUOUS
10
6.7417
20
-4.04851
11
6.74136
21
-4.04962
0
LINE
8
BLACK
6
CONTINUOUS
10
6.74136
20
-4.04962
11
6.74082
21
-4.05064
0
LINE
8
BLACK
6
CONTINUOUS
10
6.74082
20
-4.05064
11
6.74008
21
-4.05154
0
LINE
8
BLACK
6
CONTINUOUS
10
6.74008
20
-4.05154
11
6.73919
21
-4.05227
0
LINE
8
BLACK
6
CONTINUOUS
10
6.73919
20
-4.05227
11
6.73817
21
-4.05282
0
LINE
8
BLACK
6
CONTINUOUS
10
6.73817
20
-4.05282
11
6.73706
21
-4.05315
0
LINE
8
BLACK
6
CONTINUOUS
10
6.73706
20
-4.05315
11
6.73591
21
-4.05327
0
LINE
8
BLACK
6
CONTINUOUS
10
6.73591
20
-4.05327
11
6.72409
21
-4.05327
0
LINE
8
BLACK
6
CONTINUOUS
10
6.72409
20
-4.05327
11
6.72294
21
-4.05315
0
LINE
8
BLACK
6
CONTINUOUS
10
6.72294
20
-4.05315
11
6.72183
21
-4.05282
0
LINE
8
BLACK
6
CONTINUOUS
10
6.72183
20
-4.05282
11
6.72081
21
-4.05227
0
LINE
8
BLACK
6
CONTINUOUS
10
6.72081
20
-4.05227
11
6.71992
21
-4.05154
0
LINE
8
BLACK
6
CONTINUOUS
10
6.71992
20
-4.05154
11
6.71918
21
-4.05064
0
LINE
8
BLACK
6
CONTINUOUS
10
6.71918
20
-4.05064
11
6.71864
21
-4.04962
0
LINE
8
BLACK
6
CONTINUOUS
10
6.71864
20
-4.04962
11
6.7183
21
-4.04851
0
LINE
8
BLACK
6
CONTINUOUS
10
6.7183
20
-4.04851
11
6.71819
21
-4.04736
0
LINE
8
BLACK
6
CONTINUOUS
10
6.71819
20
-4.04736
11
6.71819
21
-3.9824
0
LINE
8
BLACK
6
CONTINUOUS
10
6.71819
20
-3.9824
11
6.7183
21
-3.98125
0
LINE
8
BLACK
6
CONTINUOUS
10
6.7183
20
-3.98125
11
6.71864
21
-3.98014
0
LINE
8
BLACK
6
CONTINUOUS
10
6.71864
20
-3.98014
11
6.71918
21
-3.97912
0
LINE
8
BLACK
6
CONTINUOUS
10
6.71918
20
-3.97912
11
6.71992
21
-3.97823
0
LINE
8
BLACK
6
CONTINUOUS
10
6.71992
20
-3.97823
11
6.72081
21
-3.97749
0
LINE
8
BLACK
6
CONTINUOUS
10
6.72081
20
-3.97749
11
6.72183
21
-3.97695
0
LINE
8
BLACK
6
CONTINUOUS
10
6.72183
20
-3.97695
11
6.72294
21
-3.97661
0
LINE
8
BLACK
6
CONTINUOUS
10
6.72294
20
-3.97661
11
6.72409
21
-3.9765
0
LINE
8
BLACK
6
CONTINUOUS
10
6.72409
20
-3.9765
11
6.73591
21
-3.9765
0
LINE
8
BLACK
6
CONTINUOUS
10
6.73591
20
-3.9765
11
6.73706
21
-3.97661
0
LINE
8
BLACK
6
CONTINUOUS
10
6.78706
20
-3.97661
11
6.78817
21
-3.97695
0
LINE
8
BLACK
6
CONTINUOUS
10
6.78817
20
-3.97695
11
6.78919
21
-3.97749
0
LINE
8
BLACK
6
CONTINUOUS
10
6.78919
20
-3.97749
11
6.79008
21
-3.97823
0
LINE
8
BLACK
6
CONTINUOUS
10
6.79008
20
-3.97823
11
6.79082
21
-3.97912
0
LINE
8
BLACK
6
CONTINUOUS
10
6.79082
20
-3.97912
11
6.79136
21
-3.98014
0
LINE
8
BLACK
6
CONTINUOUS
10
6.79136
20
-3.98014
11
6.7917
21
-3.98125
0
LINE
8
BLACK
6
CONTINUOUS
10
6.7917
20
-3.98125
11
6.79181
21
-3.9824
0
LINE
8
BLACK
6
CONTINUOUS
10
6.79181
20
-3.9824
11
6.79181
21
-4.04736
0
LINE
8
BLACK
6
CONTINUOUS
10
6.79181
20
-4.04736
11
6.7917
21
-4.04851
0
LINE
8
BLACK
6
CONTINUOUS
10
6.7917
20
-4.04851
11
6.79136
21
-4.04962
0
LINE
8
BLACK
6
CONTINUOUS
10
6.79136
20
-4.04962
11
6.79082
21
-4.05064
0
LINE
8
BLACK
6
CONTINUOUS
10
6.79082
20
-4.05064
11
6.79008
21
-4.05154
0
LINE
8
BLACK
6
CONTINUOUS
10
6.79008
20
-4.05154
11
6.78919
21
-4.05227
0
LINE
8
BLACK
6
CONTINUOUS
10
6.78919
20
-4.05227
11
6.78817
21
-4.05282
0
LINE
8
BLACK
6
CONTINUOUS
10
6.78817
20
-4.05282
11
6.78706
21
-4.05315
0
LINE
8
BLACK
6
CONTINUOUS
10
6.78706
20
-4.05315
11
6.78591
21
-4.05327
0
LINE
8
BLACK
6
CONTINUOUS
10
6.78591
20
-4.05327
11
6.77409
21
-4.05327
0
LINE
8
BLACK
6
CONTINUOUS
10
6.77409
20
-4.05327
11
6.77294
21
-4.05315
0
LINE
8
BLACK
6
CONTINUOUS
10
6.77294
20
-4.05315
11
6.77183
21
-4.05282
0
LINE
8
BLACK
6
CONTINUOUS
10
6.77183
20
-4.05282
11
6.77081
21
-4.05227
0
LINE
8
BLACK
6
CONTINUOUS
10
6.77081
20
-4.05227
11
6.76992
21
-4.05154
0
LINE
8
BLACK
6
CONTINUOUS
10
6.76992
20
-4.05154
11
6.76918
21
-4.05064
0
LINE
8
BLACK
6
CONTINUOUS
10
6.76918
20
-4.05064
11
6.76864
21
-4.04962
0
LINE
8
BLACK
6
CONTINUOUS
10
6.76864
20
-4.04962
11
6.7683
21
-4.04851
0
LINE
8
BLACK
6
CONTINUOUS
10
6.7683
20
-4.04851
11
6.76819
21
-4.04736
0
LINE
8
BLACK
6
CONTINUOUS
10
6.76819
20
-4.04736
11
6.76819
21
-3.9824
0
LINE
8
BLACK
6
CONTINUOUS
10
6.76819
20
-3.9824
11
6.7683
21
-3.98125
0
LINE
8
BLACK
6
CONTINUOUS
10
6.7683
20
-3.98125
11
6.76864
21
-3.98014
0
LINE
8
BLACK
6
CONTINUOUS
10
6.76864
20
-3.98014
11
6.76918
21
-3.97912
0
LINE
8
BLACK
6
CONTINUOUS
10
6.76918
20
-3.97912
11
6.76992
21
-3.97823
0
LINE
8
BLACK
6
CONTINUOUS
10
6.76992
20
-3.97823
11
6.77081
21
-3.97749
0
LINE
8
BLACK
6
CONTINUOUS
10
6.77081
20
-3.97749
11
6.77183
21
-3.97695
0
LINE
8
BLACK
6
CONTINUOUS
10
6.77183
20
-3.97695
11
6.77294
21
-3.97661
0
LINE
8
BLACK
6
CONTINUOUS
10
6.77294
20
-3.97661
11
6.77409
21
-3.9765
0
LINE
8
BLACK
6
CONTINUOUS
10
6.77409
20
-3.9765
11
6.78591
21
-3.9765
0
LINE
8
BLACK
6
CONTINUOUS
10
6.78591
20
-3.9765
11
6.78706
21
-3.97661
0
LINE
8
BLACK
6
CONTINUOUS
10
6.68706
20
-3.97661
11
6.68817
21
-3.97695
0
LINE
8
BLACK
6
CONTINUOUS
10
6.68817
20
-3.97695
11
6.68919
21
-3.97749
0
LINE
8
BLACK
6
CONTINUOUS
10
6.68919
20
-3.97749
11
6.69008
21
-3.97823
0
LINE
8
BLACK
6
CONTINUOUS
10
6.69008
20
-3.97823
11
6.69082
21
-3.97912
0
LINE
8
BLACK
6
CONTINUOUS
10
6.69082
20
-3.97912
11
6.69136
21
-3.98014
0
LINE
8
BLACK
6
CONTINUOUS
10
6.69136
20
-3.98014
11
6.6917
21
-3.98125
0
LINE
8
BLACK
6
CONTINUOUS
10
6.6917
20
-3.98125
11
6.69181
21
-3.9824
0
LINE
8
BLACK
6
CONTINUOUS
10
6.69181
20
-3.9824
11
6.69181
21
-4.04736
0
LINE
8
BLACK
6
CONTINUOUS
10
6.69181
20
-4.04736
11
6.6917
21
-4.04851
0
LINE
8
BLACK
6
CONTINUOUS
10
6.6917
20
-4.04851
11
6.69136
21
-4.04962
0
LINE
8
BLACK
6
CONTINUOUS
10
6.69136
20
-4.04962
11
6.69082
21
-4.05064
0
LINE
8
BLACK
6
CONTINUOUS
10
6.69082
20
-4.05064
11
6.69008
21
-4.05154
0
LINE
8
BLACK
6
CONTINUOUS
10
6.69008
20
-4.05154
11
6.68919
21
-4.05227
0
LINE
8
BLACK
6
CONTINUOUS
10
6.68919
20
-4.05227
11
6.68817
21
-4.05282
0
LINE
8
BLACK
6
CONTINUOUS
10
6.68817
20
-4.05282
11
6.68706
21
-4.05315
0
LINE
8
BLACK
6
CONTINUOUS
10
6.68706
20
-4.05315
11
6.68591
21
-4.05327
0
LINE
8
BLACK
6
CONTINUOUS
10
6.68591
20
-4.05327
11
6.67409
21
-4.05327
0
LINE
8
BLACK
6
CONTINUOUS
10
6.67409
20
-4.05327
11
6.67294
21
-4.05315
0
LINE
8
BLACK
6
CONTINUOUS
10
6.67294
20
-4.05315
11
6.67183
21
-4.05282
0
LINE
8
BLACK
6
CONTINUOUS
10
6.67183
20
-4.05282
11
6.67081
21
-4.05227
0
LINE
8
BLACK
6
CONTINUOUS
10
6.67081
20
-4.05227
11
6.66992
21
-4.05154
0
LINE
8
BLACK
6
CONTINUOUS
10
6.66992
20
-4.05154
11
6.66918
21
-4.05064
0
LINE
8
BLACK
6
CONTINUOUS
10
6.66918
20
-4.05064
11
6.66864
21
-4.04962
0
LINE
8
BLACK
6
CONTINUOUS
10
6.66864
20
-4.04962
11
6.6683
21
-4.04851
0
LINE
8
BLACK
6
CONTINUOUS
10
6.6683
20
-4.04851
11
6.66819
21
-4.04736
0
LINE
8
BLACK
6
CONTINUOUS
10
6.66819
20
-4.04736
11
6.66819
21
-3.9824
0
LINE
8
BLACK
6
CONTINUOUS
10
6.66819
20
-3.9824
11
6.6683
21
-3.98125
0
LINE
8
BLACK
6
CONTINUOUS
10
6.6683
20
-3.98125
11
6.66864
21
-3.98014
0
LINE
8
BLACK
6
CONTINUOUS
10
6.66864
20
-3.98014
11
6.66918
21
-3.97912
0
LINE
8
BLACK
6
CONTINUOUS
10
6.66918
20
-3.97912
11
6.66992
21
-3.97823
0
LINE
8
BLACK
6
CONTINUOUS
10
6.66992
20
-3.97823
11
6.67081
21
-3.97749
0
LINE
8
BLACK
6
CONTINUOUS
10
6.67081
20
-3.97749
11
6.67183
21
-3.97695
0
LINE
8
BLACK
6
CONTINUOUS
10
6.67183
20
-3.97695
11
6.67294
21
-3.97661
0
LINE
8
BLACK
6
CONTINUOUS
10
6.67294
20
-3.97661
11
6.67409
21
-3.9765
0
LINE
8
BLACK
6
CONTINUOUS
10
6.67409
20
-3.9765
11
6.68591
21
-3.9765
0
LINE
8
BLACK
6
CONTINUOUS
10
6.68591
20
-3.9765
11
6.68706
21
-3.97661
0
LINE
8
BLACK
6
CONTINUOUS
10
6.63706
20
-3.97661
11
6.63817
21
-3.97695
0
LINE
8
BLACK
6
CONTINUOUS
10
6.63817
20
-3.97695
11
6.63919
21
-3.97749
0
LINE
8
BLACK
6
CONTINUOUS
10
6.63919
20
-3.97749
11
6.64008
21
-3.97823
0
LINE
8
BLACK
6
CONTINUOUS
10
6.64008
20
-3.97823
11
6.64082
21
-3.97912
0
LINE
8
BLACK
6
CONTINUOUS
10
6.64082
20
-3.97912
11
6.64136
21
-3.98014
0
LINE
8
BLACK
6
CONTINUOUS
10
6.64136
20
-3.98014
11
6.6417
21
-3.98125
0
LINE
8
BLACK
6
CONTINUOUS
10
6.6417
20
-3.98125
11
6.64181
21
-3.9824
0
LINE
8
BLACK
6
CONTINUOUS
10
6.64181
20
-3.9824
11
6.64181
21
-4.04736
0
LINE
8
BLACK
6
CONTINUOUS
10
6.64181
20
-4.04736
11
6.6417
21
-4.04851
0
LINE
8
BLACK
6
CONTINUOUS
10
6.6417
20
-4.04851
11
6.64136
21
-4.04962
0
LINE
8
BLACK
6
CONTINUOUS
10
6.64136
20
-4.04962
11
6.64082
21
-4.05064
0
LINE
8
BLACK
6
CONTINUOUS
10
6.64082
20
-4.05064
11
6.64008
21
-4.05154
0
LINE
8
BLACK
6
CONTINUOUS
10
6.64008
20
-4.05154
11
6.63919
21
-4.05227
0
LINE
8
BLACK
6
CONTINUOUS
10
6.63919
20
-4.05227
11
6.63817
21
-4.05282
0
LINE
8
BLACK
6
CONTINUOUS
10
6.63817
20
-4.05282
11
6.63706
21
-4.05315
0
LINE
8
BLACK
6
CONTINUOUS
10
6.63706
20
-4.05315
11
6.63591
21
-4.05327
0
LINE
8
BLACK
6
CONTINUOUS
10
6.63591
20
-4.05327
11
6.62409
21
-4.05327
0
LINE
8
BLACK
6
CONTINUOUS
10
6.62409
20
-4.05327
11
6.62294
21
-4.05315
0
LINE
8
BLACK
6
CONTINUOUS
10
6.62294
20
-4.05315
11
6.62183
21
-4.05282
0
LINE
8
BLACK
6
CONTINUOUS
10
6.62183
20
-4.05282
11
6.62081
21
-4.05227
0
LINE
8
BLACK
6
CONTINUOUS
10
6.62081
20
-4.05227
11
6.61992
21
-4.05154
0
LINE
8
BLACK
6
CONTINUOUS
10
6.61992
20
-4.05154
11
6.61918
21
-4.05064
0
LINE
8
BLACK
6
CONTINUOUS
10
6.61918
20
-4.05064
11
6.61864
21
-4.04962
0
LINE
8
BLACK
6
CONTINUOUS
10
6.61864
20
-4.04962
11
6.6183
21
-4.04851
0
LINE
8
BLACK
6
CONTINUOUS
10
6.6183
20
-4.04851
11
6.61819
21
-4.04736
0
LINE
8
BLACK
6
CONTINUOUS
10
6.61819
20
-4.04736
11
6.61819
21
-3.9824
0
LINE
8
BLACK
6
CONTINUOUS
10
6.61819
20
-3.9824
11
6.6183
21
-3.98125
0
LINE
8
BLACK
6
CONTINUOUS
10
6.6183
20
-3.98125
11
6.61864
21
-3.98014
0
LINE
8
BLACK
6
CONTINUOUS
10
6.61864
20
-3.98014
11
6.61918
21
-3.97912
0
LINE
8
BLACK
6
CONTINUOUS
10
6.61918
20
-3.97912
11
6.61992
21
-3.97823
0
LINE
8
BLACK
6
CONTINUOUS
10
6.61992
20
-3.97823
11
6.62081
21
-3.97749
0
LINE
8
BLACK
6
CONTINUOUS
10
6.62081
20
-3.97749
11
6.62183
21
-3.97695
0
LINE
8
BLACK
6
CONTINUOUS
10
6.62183
20
-3.97695
11
6.62294
21
-3.97661
0
LINE
8
BLACK
6
CONTINUOUS
10
6.62294
20
-3.97661
11
6.62409
21
-3.9765
0
LINE
8
BLACK
6
CONTINUOUS
10
6.62409
20
-3.9765
11
6.63591
21
-3.9765
0
LINE
8
BLACK
6
CONTINUOUS
10
6.63591
20
-3.9765
11
6.63706
21
-3.97661
0
LINE
8
BLACK
6
CONTINUOUS
10
6.89401
20
-3.89263
11
6.89585
21
-3.89319
0
LINE
8
BLACK
6
CONTINUOUS
10
6.89585
20
-3.89319
11
6.89755
21
-3.8941
0
LINE
8
BLACK
6
CONTINUOUS
10
6.89755
20
-3.8941
11
6.89905
21
-3.89532
0
LINE
8
BLACK
6
CONTINUOUS
10
6.89905
20
-3.89532
11
6.90027
21
-3.89682
0
LINE
8
BLACK
6
CONTINUOUS
10
6.90027
20
-3.89682
11
6.90118
21
-3.89852
0
LINE
8
BLACK
6
CONTINUOUS
10
6.90118
20
-3.89852
11
6.90174
21
-3.90036
0
LINE
8
BLACK
6
CONTINUOUS
10
6.90174
20
-3.90036
11
6.90193
21
-3.90228
0
LINE
8
BLACK
6
CONTINUOUS
10
6.90193
20
-3.90228
11
6.90193
21
-3.93772
0
LINE
8
BLACK
6
CONTINUOUS
10
6.90193
20
-3.93772
11
6.90174
21
-3.93964
0
LINE
8
BLACK
6
CONTINUOUS
10
6.90174
20
-3.93964
11
6.90118
21
-3.94148
0
LINE
8
BLACK
6
CONTINUOUS
10
6.90118
20
-3.94148
11
6.90027
21
-3.94318
0
LINE
8
BLACK
6
CONTINUOUS
10
6.90027
20
-3.94318
11
6.89905
21
-3.94468
0
LINE
8
BLACK
6
CONTINUOUS
10
6.89905
20
-3.94468
11
6.89755
21
-3.9459
0
LINE
8
BLACK
6
CONTINUOUS
10
6.89755
20
-3.9459
11
6.89585
21
-3.94681
0
LINE
8
BLACK
6
CONTINUOUS
10
6.89585
20
-3.94681
11
6.89401
21
-3.94737
0
LINE
8
BLACK
6
CONTINUOUS
10
6.89401
20
-3.94737
11
6.89209
21
-3.94756
0
LINE
8
BLACK
6
CONTINUOUS
10
6.89209
20
-3.94756
11
6.8665
21
-3.94756
0
LINE
8
BLACK
6
CONTINUOUS
10
6.8665
20
-3.94756
11
6.86458
21
-3.94737
0
LINE
8
BLACK
6
CONTINUOUS
10
6.86458
20
-3.94737
11
6.86273
21
-3.94681
0
LINE
8
BLACK
6
CONTINUOUS
10
6.86273
20
-3.94681
11
6.86103
21
-3.9459
0
LINE
8
BLACK
6
CONTINUOUS
10
6.86103
20
-3.9459
11
6.85954
21
-3.94468
0
LINE
8
BLACK
6
CONTINUOUS
10
6.85954
20
-3.94468
11
6.85831
21
-3.94318
0
LINE
8
BLACK
6
CONTINUOUS
10
6.85831
20
-3.94318
11
6.8574
21
-3.94148
0
LINE
8
BLACK
6
CONTINUOUS
10
6.8574
20
-3.94148
11
6.85684
21
-3.93964
0
LINE
8
BLACK
6
CONTINUOUS
10
6.85684
20
-3.93964
11
6.85665
21
-3.93772
0
LINE
8
BLACK
6
CONTINUOUS
10
6.85665
20
-3.93772
11
6.85665
21
-3.90228
0
LINE
8
BLACK
6
CONTINUOUS
10
6.85665
20
-3.90228
11
6.85684
21
-3.90036
0
LINE
8
BLACK
6
CONTINUOUS
10
6.85684
20
-3.90036
11
6.8574
21
-3.89852
0
LINE
8
BLACK
6
CONTINUOUS
10
6.8574
20
-3.89852
11
6.85831
21
-3.89682
0
LINE
8
BLACK
6
CONTINUOUS
10
6.85831
20
-3.89682
11
6.85954
21
-3.89532
0
LINE
8
BLACK
6
CONTINUOUS
10
6.85954
20
-3.89532
11
6.86103
21
-3.8941
0
LINE
8
BLACK
6
CONTINUOUS
10
6.86103
20
-3.8941
11
6.86273
21
-3.89319
0
LINE
8
BLACK
6
CONTINUOUS
10
6.86273
20
-3.89319
11
6.86458
21
-3.89263
0
LINE
8
BLACK
6
CONTINUOUS
10
6.86458
20
-3.89263
11
6.8665
21
-3.89244
0
LINE
8
BLACK
6
CONTINUOUS
10
6.8665
20
-3.89244
11
6.89209
21
-3.89244
0
LINE
8
BLACK
6
CONTINUOUS
10
6.89209
20
-3.89244
11
6.89401
21
-3.89263
0
LINE
8
BLACK
6
CONTINUOUS
10
6.97472
20
-3.89263
11
6.97656
21
-3.89319
0
LINE
8
BLACK
6
CONTINUOUS
10
6.97656
20
-3.89319
11
6.97826
21
-3.8941
0
LINE
8
BLACK
6
CONTINUOUS
10
6.97826
20
-3.8941
11
6.97975
21
-3.89532
0
LINE
8
BLACK
6
CONTINUOUS
10
6.97975
20
-3.89532
11
6.98098
21
-3.89682
0
LINE
8
BLACK
6
CONTINUOUS
10
6.98098
20
-3.89682
11
6.98189
21
-3.89852
0
LINE
8
BLACK
6
CONTINUOUS
10
6.98189
20
-3.89852
11
6.98245
21
-3.90036
0
LINE
8
BLACK
6
CONTINUOUS
10
6.98245
20
-3.90036
11
6.98264
21
-3.90228
0
LINE
8
BLACK
6
CONTINUOUS
10
6.98264
20
-3.90228
11
6.98264
21
-3.93772
0
LINE
8
BLACK
6
CONTINUOUS
10
6.98264
20
-3.93772
11
6.98245
21
-3.93964
0
LINE
8
BLACK
6
CONTINUOUS
10
6.98245
20
-3.93964
11
6.98189
21
-3.94148
0
LINE
8
BLACK
6
CONTINUOUS
10
6.98189
20
-3.94148
11
6.98098
21
-3.94318
0
LINE
8
BLACK
6
CONTINUOUS
10
6.98098
20
-3.94318
11
6.97975
21
-3.94468
0
LINE
8
BLACK
6
CONTINUOUS
10
6.97975
20
-3.94468
11
6.97826
21
-3.9459
0
LINE
8
BLACK
6
CONTINUOUS
10
6.97826
20
-3.9459
11
6.97656
21
-3.94681
0
LINE
8
BLACK
6
CONTINUOUS
10
6.97656
20
-3.94681
11
6.97472
21
-3.94737
0
LINE
8
BLACK
6
CONTINUOUS
10
6.97472
20
-3.94737
11
6.9728
21
-3.94756
0
LINE
8
BLACK
6
CONTINUOUS
10
6.9728
20
-3.94756
11
6.9472
21
-3.94756
0
LINE
8
BLACK
6
CONTINUOUS
10
6.9472
20
-3.94756
11
6.94528
21
-3.94737
0
LINE
8
BLACK
6
CONTINUOUS
10
6.94528
20
-3.94737
11
6.94344
21
-3.94681
0
LINE
8
BLACK
6
CONTINUOUS
10
6.94344
20
-3.94681
11
6.94174
21
-3.9459
0
LINE
8
BLACK
6
CONTINUOUS
10
6.94174
20
-3.9459
11
6.94024
21
-3.94468
0
LINE
8
BLACK
6
CONTINUOUS
10
6.94024
20
-3.94468
11
6.93902
21
-3.94318
0
LINE
8
BLACK
6
CONTINUOUS
10
6.93902
20
-3.94318
11
6.93811
21
-3.94148
0
LINE
8
BLACK
6
CONTINUOUS
10
6.93811
20
-3.94148
11
6.93755
21
-3.93964
0
LINE
8
BLACK
6
CONTINUOUS
10
6.93755
20
-3.93964
11
6.93736
21
-3.93772
0
LINE
8
BLACK
6
CONTINUOUS
10
6.93736
20
-3.93772
11
6.93736
21
-3.90228
0
LINE
8
BLACK
6
CONTINUOUS
10
6.93736
20
-3.90228
11
6.93755
21
-3.90036
0
LINE
8
BLACK
6
CONTINUOUS
10
6.93755
20
-3.90036
11
6.93811
21
-3.89852
0
LINE
8
BLACK
6
CONTINUOUS
10
6.93811
20
-3.89852
11
6.93902
21
-3.89682
0
LINE
8
BLACK
6
CONTINUOUS
10
6.93902
20
-3.89682
11
6.94024
21
-3.89532
0
LINE
8
BLACK
6
CONTINUOUS
10
6.94024
20
-3.89532
11
6.94174
21
-3.8941
0
LINE
8
BLACK
6
CONTINUOUS
10
6.94174
20
-3.8941
11
6.94344
21
-3.89319
0
LINE
8
BLACK
6
CONTINUOUS
10
6.94344
20
-3.89319
11
6.94528
21
-3.89263
0
LINE
8
BLACK
6
CONTINUOUS
10
6.94528
20
-3.89263
11
6.9472
21
-3.89244
0
LINE
8
BLACK
6
CONTINUOUS
10
6.9472
20
-3.89244
11
6.9728
21
-3.89244
0
LINE
8
BLACK
6
CONTINUOUS
10
6.9728
20
-3.89244
11
6.97472
21
-3.89263
0
LINE
8
BLACK
6
CONTINUOUS
10
6.20472
20
-3.88465
11
6.15748
21
-3.88465
0
LINE
8
BLACK
6
CONTINUOUS
10
6.15748
20
-3.88465
11
6.15748
21
-3.84921
0
LINE
8
BLACK
6
CONTINUOUS
10
6.15748
20
-3.84921
11
6.20472
21
-3.84921
0
LINE
8
BLACK
6
CONTINUOUS
10
6.20472
20
-3.84921
11
6.20472
21
-3.88465
0
LINE
8
BLACK
6
CONTINUOUS
10
6.122
20
-3.83267
11
6.12385
21
-3.83323
0
LINE
8
BLACK
6
CONTINUOUS
10
6.12385
20
-3.83323
11
6.12555
21
-3.83414
0
LINE
8
BLACK
6
CONTINUOUS
10
6.12555
20
-3.83414
11
6.12704
21
-3.83536
0
LINE
8
BLACK
6
CONTINUOUS
10
6.12704
20
-3.83536
11
6.12826
21
-3.83685
0
LINE
8
BLACK
6
CONTINUOUS
10
6.12826
20
-3.83685
11
6.12917
21
-3.83856
0
LINE
8
BLACK
6
CONTINUOUS
10
6.12917
20
-3.83856
11
6.12973
21
-3.8404
0
LINE
8
BLACK
6
CONTINUOUS
10
6.12973
20
-3.8404
11
6.12992
21
-3.84232
0
LINE
8
BLACK
6
CONTINUOUS
10
6.12992
20
-3.84232
11
6.12992
21
-3.86791
0
LINE
8
BLACK
6
CONTINUOUS
10
6.12992
20
-3.86791
11
6.12973
21
-3.86983
0
LINE
8
BLACK
6
CONTINUOUS
10
6.12973
20
-3.86983
11
6.12917
21
-3.87168
0
LINE
8
BLACK
6
CONTINUOUS
10
6.12917
20
-3.87168
11
6.12826
21
-3.87338
0
LINE
8
BLACK
6
CONTINUOUS
10
6.12826
20
-3.87338
11
6.12704
21
-3.87487
0
LINE
8
BLACK
6
CONTINUOUS
10
6.12704
20
-3.87487
11
6.12555
21
-3.8761
0
LINE
8
BLACK
6
CONTINUOUS
10
6.12555
20
-3.8761
11
6.12385
21
-3.87701
0
LINE
8
BLACK
6
CONTINUOUS
10
6.12385
20
-3.87701
11
6.122
21
-3.87757
0
LINE
8
BLACK
6
CONTINUOUS
10
6.122
20
-3.87757
11
6.12008
21
-3.87776
0
LINE
8
BLACK
6
CONTINUOUS
10
6.12008
20
-3.87776
11
6.08465
21
-3.87776
0
LINE
8
BLACK
6
CONTINUOUS
10
6.08465
20
-3.87776
11
6.08273
21
-3.87757
0
LINE
8
BLACK
6
CONTINUOUS
10
6.08273
20
-3.87757
11
6.08088
21
-3.87701
0
LINE
8
BLACK
6
CONTINUOUS
10
6.08088
20
-3.87701
11
6.07918
21
-3.8761
0
LINE
8
BLACK
6
CONTINUOUS
10
6.07918
20
-3.8761
11
6.07769
21
-3.87487
0
LINE
8
BLACK
6
CONTINUOUS
10
6.07769
20
-3.87487
11
6.07646
21
-3.87338
0
LINE
8
BLACK
6
CONTINUOUS
10
6.07646
20
-3.87338
11
6.07555
21
-3.87168
0
LINE
8
BLACK
6
CONTINUOUS
10
6.07555
20
-3.87168
11
6.07499
21
-3.86983
0
LINE
8
BLACK
6
CONTINUOUS
10
6.07499
20
-3.86983
11
6.0748
21
-3.86791
0
LINE
8
BLACK
6
CONTINUOUS
10
6.0748
20
-3.86791
11
6.0748
21
-3.84232
0
LINE
8
BLACK
6
CONTINUOUS
10
6.0748
20
-3.84232
11
6.07499
21
-3.8404
0
LINE
8
BLACK
6
CONTINUOUS
10
6.07499
20
-3.8404
11
6.07555
21
-3.83856
0
LINE
8
BLACK
6
CONTINUOUS
10
6.07555
20
-3.83856
11
6.07646
21
-3.83685
0
LINE
8
BLACK
6
CONTINUOUS
10
6.07646
20
-3.83685
11
6.07769
21
-3.83536
0
LINE
8
BLACK
6
CONTINUOUS
10
6.07769
20
-3.83536
11
6.07918
21
-3.83414
0
LINE
8
BLACK
6
CONTINUOUS
10
6.07918
20
-3.83414
11
6.08088
21
-3.83323
0
LINE
8
BLACK
6
CONTINUOUS
10
6.08088
20
-3.83323
11
6.08273
21
-3.83267
0
LINE
8
BLACK
6
CONTINUOUS
10
6.08273
20
-3.83267
11
6.08465
21
-3.83248
0
LINE
8
BLACK
6
CONTINUOUS
10
6.08465
20
-3.83248
11
6.12008
21
-3.83248
0
LINE
8
BLACK
6
CONTINUOUS
10
6.12008
20
-3.83248
11
6.122
21
-3.83267
0
LINE
8
BLACK
6
CONTINUOUS
10
6.04326
20
-3.83267
11
6.04511
21
-3.83323
0
LINE
8
BLACK
6
CONTINUOUS
10
6.04511
20
-3.83323
11
6.04681
21
-3.83414
0
LINE
8
BLACK
6
CONTINUOUS
10
6.04681
20
-3.83414
11
6.0483
21
-3.83536
0
LINE
8
BLACK
6
CONTINUOUS
10
6.0483
20
-3.83536
11
6.04952
21
-3.83685
0
LINE
8
BLACK
6
CONTINUOUS
10
6.04952
20
-3.83685
11
6.05043
21
-3.83856
0
LINE
8
BLACK
6
CONTINUOUS
10
6.05043
20
-3.83856
11
6.05099
21
-3.8404
0
LINE
8
BLACK
6
CONTINUOUS
10
6.05099
20
-3.8404
11
6.05118
21
-3.84232
0
LINE
8
BLACK
6
CONTINUOUS
10
6.05118
20
-3.84232
11
6.05118
21
-3.86791
0
LINE
8
BLACK
6
CONTINUOUS
10
6.05118
20
-3.86791
11
6.05099
21
-3.86983
0
LINE
8
BLACK
6
CONTINUOUS
10
6.05099
20
-3.86983
11
6.05043
21
-3.87168
0
LINE
8
BLACK
6
CONTINUOUS
10
6.05043
20
-3.87168
11
6.04952
21
-3.87338
0
LINE
8
BLACK
6
CONTINUOUS
10
6.04952
20
-3.87338
11
6.0483
21
-3.87487
0
LINE
8
BLACK
6
CONTINUOUS
10
6.0483
20
-3.87487
11
6.04681
21
-3.8761
0
LINE
8
BLACK
6
CONTINUOUS
10
6.04681
20
-3.8761
11
6.04511
21
-3.87701
0
LINE
8
BLACK
6
CONTINUOUS
10
6.04511
20
-3.87701
11
6.04326
21
-3.87757
0
LINE
8
BLACK
6
CONTINUOUS
10
6.04326
20
-3.87757
11
6.04134
21
-3.87776
0
LINE
8
BLACK
6
CONTINUOUS
10
6.04134
20
-3.87776
11
6.00591
21
-3.87776
0
LINE
8
BLACK
6
CONTINUOUS
10
6.00591
20
-3.87776
11
6.00399
21
-3.87757
0
LINE
8
BLACK
6
CONTINUOUS
10
6.00399
20
-3.87757
11
6.00214
21
-3.87701
0
LINE
8
BLACK
6
CONTINUOUS
10
6.00214
20
-3.87701
11
6.00044
21
-3.8761
0
LINE
8
BLACK
6
CONTINUOUS
10
6.00044
20
-3.8761
11
5.99895
21
-3.87487
0
LINE
8
BLACK
6
CONTINUOUS
10
5.99895
20
-3.87487
11
5.99772
21
-3.87338
0
LINE
8
BLACK
6
CONTINUOUS
10
5.99772
20
-3.87338
11
5.99681
21
-3.87168
0
LINE
8
BLACK
6
CONTINUOUS
10
5.99681
20
-3.87168
11
5.99625
21
-3.86983
0
LINE
8
BLACK
6
CONTINUOUS
10
5.99625
20
-3.86983
11
5.99606
21
-3.86791
0
LINE
8
BLACK
6
CONTINUOUS
10
5.99606
20
-3.86791
11
5.99606
21
-3.84232
0
LINE
8
BLACK
6
CONTINUOUS
10
5.99606
20
-3.84232
11
5.99625
21
-3.8404
0
LINE
8
BLACK
6
CONTINUOUS
10
5.99625
20
-3.8404
11
5.99681
21
-3.83856
0
LINE
8
BLACK
6
CONTINUOUS
10
5.99681
20
-3.83856
11
5.99772
21
-3.83685
0
LINE
8
BLACK
6
CONTINUOUS
10
5.99772
20
-3.83685
11
5.99895
21
-3.83536
0
LINE
8
BLACK
6
CONTINUOUS
10
5.99895
20
-3.83536
11
6.00044
21
-3.83414
0
LINE
8
BLACK
6
CONTINUOUS
10
6.00044
20
-3.83414
11
6.00214
21
-3.83323
0
LINE
8
BLACK
6
CONTINUOUS
10
6.00214
20
-3.83323
11
6.00399
21
-3.83267
0
LINE
8
BLACK
6
CONTINUOUS
10
6.00399
20
-3.83267
11
6.00591
21
-3.83248
0
LINE
8
BLACK
6
CONTINUOUS
10
6.00591
20
-3.83248
11
6.04134
21
-3.83248
0
LINE
8
BLACK
6
CONTINUOUS
10
6.04134
20
-3.83248
11
6.04326
21
-3.83267
0
LINE
8
BLACK
6
CONTINUOUS
10
6.9685
20
-3.86496
11
6.88976
21
-3.86496
0
LINE
8
BLACK
6
CONTINUOUS
10
6.88976
20
-3.86496
11
6.88976
21
-3.6878
0
LINE
8
BLACK
6
CONTINUOUS
10
6.88976
20
-3.6878
11
6.9685
21
-3.6878
0
LINE
8
BLACK
6
CONTINUOUS
10
6.9685
20
-3.6878
11
6.9685
21
-3.86496
0
LINE
8
BLACK
6
CONTINUOUS
10
6.63706
20
-3.78173
11
6.63817
21
-3.78206
0
LINE
8
BLACK
6
CONTINUOUS
10
6.63817
20
-3.78206
11
6.63919
21
-3.78261
0
LINE
8
BLACK
6
CONTINUOUS
10
6.63919
20
-3.78261
11
6.64008
21
-3.78334
0
LINE
8
BLACK
6
CONTINUOUS
10
6.64008
20
-3.78334
11
6.64082
21
-3.78424
0
LINE
8
BLACK
6
CONTINUOUS
10
6.64082
20
-3.78424
11
6.64136
21
-3.78526
0
LINE
8
BLACK
6
CONTINUOUS
10
6.64136
20
-3.78526
11
6.6417
21
-3.78637
0
LINE
8
BLACK
6
CONTINUOUS
10
6.6417
20
-3.78637
11
6.64181
21
-3.78752
0
LINE
8
BLACK
6
CONTINUOUS
10
6.64181
20
-3.78752
11
6.64181
21
-3.85248
0
LINE
8
BLACK
6
CONTINUOUS
10
6.64181
20
-3.85248
11
6.6417
21
-3.85363
0
LINE
8
BLACK
6
CONTINUOUS
10
6.6417
20
-3.85363
11
6.64136
21
-3.85474
0
LINE
8
BLACK
6
CONTINUOUS
10
6.64136
20
-3.85474
11
6.64082
21
-3.85576
0
LINE
8
BLACK
6
CONTINUOUS
10
6.64082
20
-3.85576
11
6.64008
21
-3.85666
0
LINE
8
BLACK
6
CONTINUOUS
10
6.64008
20
-3.85666
11
6.63919
21
-3.85739
0
LINE
8
BLACK
6
CONTINUOUS
10
6.63919
20
-3.85739
11
6.63817
21
-3.85794
0
LINE
8
BLACK
6
CONTINUOUS
10
6.63817
20
-3.85794
11
6.63706
21
-3.85827
0
LINE
8
BLACK
6
CONTINUOUS
10
6.63706
20
-3.85827
11
6.63591
21
-3.85839
0
LINE
8
BLACK
6
CONTINUOUS
10
6.63591
20
-3.85839
11
6.62409
21
-3.85839
0
LINE
8
BLACK
6
CONTINUOUS
10
6.62409
20
-3.85839
11
6.62294
21
-3.85827
0
LINE
8
BLACK
6
CONTINUOUS
10
6.62294
20
-3.85827
11
6.62183
21
-3.85794
0
LINE
8
BLACK
6
CONTINUOUS
10
6.62183
20
-3.85794
11
6.62081
21
-3.85739
0
LINE
8
BLACK
6
CONTINUOUS
10
6.62081
20
-3.85739
11
6.61992
21
-3.85666
0
LINE
8
BLACK
6
CONTINUOUS
10
6.61992
20
-3.85666
11
6.61918
21
-3.85576
0
LINE
8
BLACK
6
CONTINUOUS
10
6.61918
20
-3.85576
11
6.61864
21
-3.85474
0
LINE
8
BLACK
6
CONTINUOUS
10
6.61864
20
-3.85474
11
6.6183
21
-3.85363
0
LINE
8
BLACK
6
CONTINUOUS
10
6.6183
20
-3.85363
11
6.61819
21
-3.85248
0
LINE
8
BLACK
6
CONTINUOUS
10
6.61819
20
-3.85248
11
6.61819
21
-3.78752
0
LINE
8
BLACK
6
CONTINUOUS
10
6.61819
20
-3.78752
11
6.6183
21
-3.78637
0
LINE
8
BLACK
6
CONTINUOUS
10
6.6183
20
-3.78637
11
6.61864
21
-3.78526
0
LINE
8
BLACK
6
CONTINUOUS
10
6.61864
20
-3.78526
11
6.61918
21
-3.78424
0
LINE
8
BLACK
6
CONTINUOUS
10
6.61918
20
-3.78424
11
6.61992
21
-3.78334
0
LINE
8
BLACK
6
CONTINUOUS
10
6.61992
20
-3.78334
11
6.62081
21
-3.78261
0
LINE
8
BLACK
6
CONTINUOUS
10
6.62081
20
-3.78261
11
6.62183
21
-3.78206
0
LINE
8
BLACK
6
CONTINUOUS
10
6.62183
20
-3.78206
11
6.62294
21
-3.78173
0
LINE
8
BLACK
6
CONTINUOUS
10
6.62294
20
-3.78173
11
6.62409
21
-3.78161
0
LINE
8
BLACK
6
CONTINUOUS
10
6.62409
20
-3.78161
11
6.63591
21
-3.78161
0
LINE
8
BLACK
6
CONTINUOUS
10
6.63591
20
-3.78161
11
6.63706
21
-3.78173
0
LINE
8
BLACK
6
CONTINUOUS
10
6.68706
20
-3.78173
11
6.68817
21
-3.78206
0
LINE
8
BLACK
6
CONTINUOUS
10
6.68817
20
-3.78206
11
6.68919
21
-3.78261
0
LINE
8
BLACK
6
CONTINUOUS
10
6.68919
20
-3.78261
11
6.69008
21
-3.78334
0
LINE
8
BLACK
6
CONTINUOUS
10
6.69008
20
-3.78334
11
6.69082
21
-3.78424
0
LINE
8
BLACK
6
CONTINUOUS
10
6.69082
20
-3.78424
11
6.69136
21
-3.78526
0
LINE
8
BLACK
6
CONTINUOUS
10
6.69136
20
-3.78526
11
6.6917
21
-3.78637
0
LINE
8
BLACK
6
CONTINUOUS
10
6.6917
20
-3.78637
11
6.69181
21
-3.78752
0
LINE
8
BLACK
6
CONTINUOUS
10
6.69181
20
-3.78752
11
6.69181
21
-3.85248
0
LINE
8
BLACK
6
CONTINUOUS
10
6.69181
20
-3.85248
11
6.6917
21
-3.85363
0
LINE
8
BLACK
6
CONTINUOUS
10
6.6917
20
-3.85363
11
6.69136
21
-3.85474
0
LINE
8
BLACK
6
CONTINUOUS
10
6.69136
20
-3.85474
11
6.69082
21
-3.85576
0
LINE
8
BLACK
6
CONTINUOUS
10
6.69082
20
-3.85576
11
6.69008
21
-3.85666
0
LINE
8
BLACK
6
CONTINUOUS
10
6.69008
20
-3.85666
11
6.68919
21
-3.85739
0
LINE
8
BLACK
6
CONTINUOUS
10
6.68919
20
-3.85739
11
6.68817
21
-3.85794
0
LINE
8
BLACK
6
CONTINUOUS
10
6.68817
20
-3.85794
11
6.68706
21
-3.85827
0
LINE
8
BLACK
6
CONTINUOUS
10
6.68706
20
-3.85827
11
6.68591
21
-3.85839
0
LINE
8
BLACK
6
CONTINUOUS
10
6.68591
20
-3.85839
11
6.67409
21
-3.85839
0
LINE
8
BLACK
6
CONTINUOUS
10
6.67409
20
-3.85839
11
6.67294
21
-3.85827
0
LINE
8
BLACK
6
CONTINUOUS
10
6.67294
20
-3.85827
11
6.67183
21
-3.85794
0
LINE
8
BLACK
6
CONTINUOUS
10
6.67183
20
-3.85794
11
6.67081
21
-3.85739
0
LINE
8
BLACK
6
CONTINUOUS
10
6.67081
20
-3.85739
11
6.66992
21
-3.85666
0
LINE
8
BLACK
6
CONTINUOUS
10
6.66992
20
-3.85666
11
6.66918
21
-3.85576
0
LINE
8
BLACK
6
CONTINUOUS
10
6.66918
20
-3.85576
11
6.66864
21
-3.85474
0
LINE
8
BLACK
6
CONTINUOUS
10
6.66864
20
-3.85474
11
6.6683
21
-3.85363
0
LINE
8
BLACK
6
CONTINUOUS
10
6.6683
20
-3.85363
11
6.66819
21
-3.85248
0
LINE
8
BLACK
6
CONTINUOUS
10
6.66819
20
-3.85248
11
6.66819
21
-3.78752
0
LINE
8
BLACK
6
CONTINUOUS
10
6.66819
20
-3.78752
11
6.6683
21
-3.78637
0
LINE
8
BLACK
6
CONTINUOUS
10
6.6683
20
-3.78637
11
6.66864
21
-3.78526
0
LINE
8
BLACK
6
CONTINUOUS
10
6.66864
20
-3.78526
11
6.66918
21
-3.78424
0
LINE
8
BLACK
6
CONTINUOUS
10
6.66918
20
-3.78424
11
6.66992
21
-3.78334
0
LINE
8
BLACK
6
CONTINUOUS
10
6.66992
20
-3.78334
11
6.67081
21
-3.78261
0
LINE
8
BLACK
6
CONTINUOUS
10
6.67081
20
-3.78261
11
6.67183
21
-3.78206
0
LINE
8
BLACK
6
CONTINUOUS
10
6.67183
20
-3.78206
11
6.67294
21
-3.78173
0
LINE
8
BLACK
6
CONTINUOUS
10
6.67294
20
-3.78173
11
6.67409
21
-3.78161
0
LINE
8
BLACK
6
CONTINUOUS
10
6.67409
20
-3.78161
11
6.68591
21
-3.78161
0
LINE
8
BLACK
6
CONTINUOUS
10
6.68591
20
-3.78161
11
6.68706
21
-3.78173
0
LINE
8
BLACK
6
CONTINUOUS
10
6.73706
20
-3.78173
11
6.73817
21
-3.78206
0
LINE
8
BLACK
6
CONTINUOUS
10
6.73817
20
-3.78206
11
6.73919
21
-3.78261
0
LINE
8
BLACK
6
CONTINUOUS
10
6.73919
20
-3.78261
11
6.74008
21
-3.78334
0
LINE
8
BLACK
6
CONTINUOUS
10
6.74008
20
-3.78334
11
6.74082
21
-3.78424
0
LINE
8
BLACK
6
CONTINUOUS
10
6.74082
20
-3.78424
11
6.74136
21
-3.78526
0
LINE
8
BLACK
6
CONTINUOUS
10
6.74136
20
-3.78526
11
6.7417
21
-3.78637
0
LINE
8
BLACK
6
CONTINUOUS
10
6.7417
20
-3.78637
11
6.74181
21
-3.78752
0
LINE
8
BLACK
6
CONTINUOUS
10
6.74181
20
-3.78752
11
6.74181
21
-3.85248
0
LINE
8
BLACK
6
CONTINUOUS
10
6.74181
20
-3.85248
11
6.7417
21
-3.85363
0
LINE
8
BLACK
6
CONTINUOUS
10
6.7417
20
-3.85363
11
6.74136
21
-3.85474
0
LINE
8
BLACK
6
CONTINUOUS
10
6.74136
20
-3.85474
11
6.74082
21
-3.85576
0
LINE
8
BLACK
6
CONTINUOUS
10
6.74082
20
-3.85576
11
6.74008
21
-3.85666
0
LINE
8
BLACK
6
CONTINUOUS
10
6.74008
20
-3.85666
11
6.73919
21
-3.85739
0
LINE
8
BLACK
6
CONTINUOUS
10
6.73919
20
-3.85739
11
6.73817
21
-3.85794
0
LINE
8
BLACK
6
CONTINUOUS
10
6.73817
20
-3.85794
11
6.73706
21
-3.85827
0
LINE
8
BLACK
6
CONTINUOUS
10
6.73706
20
-3.85827
11
6.73591
21
-3.85839
0
LINE
8
BLACK
6
CONTINUOUS
10
6.73591
20
-3.85839
11
6.72409
21
-3.85839
0
LINE
8
BLACK
6
CONTINUOUS
10
6.72409
20
-3.85839
11
6.72294
21
-3.85827
0
LINE
8
BLACK
6
CONTINUOUS
10
6.72294
20
-3.85827
11
6.72183
21
-3.85794
0
LINE
8
BLACK
6
CONTINUOUS
10
6.72183
20
-3.85794
11
6.72081
21
-3.85739
0
LINE
8
BLACK
6
CONTINUOUS
10
6.72081
20
-3.85739
11
6.71992
21
-3.85666
0
LINE
8
BLACK
6
CONTINUOUS
10
6.71992
20
-3.85666
11
6.71918
21
-3.85576
0
LINE
8
BLACK
6
CONTINUOUS
10
6.71918
20
-3.85576
11
6.71864
21
-3.85474
0
LINE
8
BLACK
6
CONTINUOUS
10
6.71864
20
-3.85474
11
6.7183
21
-3.85363
0
LINE
8
BLACK
6
CONTINUOUS
10
6.7183
20
-3.85363
11
6.71819
21
-3.85248
0
LINE
8
BLACK
6
CONTINUOUS
10
6.71819
20
-3.85248
11
6.71819
21
-3.78752
0
LINE
8
BLACK
6
CONTINUOUS
10
6.71819
20
-3.78752
11
6.7183
21
-3.78637
0
LINE
8
BLACK
6
CONTINUOUS
10
6.7183
20
-3.78637
11
6.71864
21
-3.78526
0
LINE
8
BLACK
6
CONTINUOUS
10
6.71864
20
-3.78526
11
6.71918
21
-3.78424
0
LINE
8
BLACK
6
CONTINUOUS
10
6.71918
20
-3.78424
11
6.71992
21
-3.78334
0
LINE
8
BLACK
6
CONTINUOUS
10
6.71992
20
-3.78334
11
6.72081
21
-3.78261
0
LINE
8
BLACK
6
CONTINUOUS
10
6.72081
20
-3.78261
11
6.72183
21
-3.78206
0
LINE
8
BLACK
6
CONTINUOUS
10
6.72183
20
-3.78206
11
6.72294
21
-3.78173
0
LINE
8
BLACK
6
CONTINUOUS
10
6.72294
20
-3.78173
11
6.72409
21
-3.78161
0
LINE
8
BLACK
6
CONTINUOUS
10
6.72409
20
-3.78161
11
6.73591
21
-3.78161
0
LINE
8
BLACK
6
CONTINUOUS
10
6.73591
20
-3.78161
11
6.73706
21
-3.78173
0
LINE
8
BLACK
6
CONTINUOUS
10
6.78706
20
-3.78173
11
6.78817
21
-3.78206
0
LINE
8
BLACK
6
CONTINUOUS
10
6.78817
20
-3.78206
11
6.78919
21
-3.78261
0
LINE
8
BLACK
6
CONTINUOUS
10
6.78919
20
-3.78261
11
6.79008
21
-3.78334
0
LINE
8
BLACK
6
CONTINUOUS
10
6.79008
20
-3.78334
11
6.79082
21
-3.78424
0
LINE
8
BLACK
6
CONTINUOUS
10
6.79082
20
-3.78424
11
6.79136
21
-3.78526
0
LINE
8
BLACK
6
CONTINUOUS
10
6.79136
20
-3.78526
11
6.7917
21
-3.78637
0
LINE
8
BLACK
6
CONTINUOUS
10
6.7917
20
-3.78637
11
6.79181
21
-3.78752
0
LINE
8
BLACK
6
CONTINUOUS
10
6.79181
20
-3.78752
11
6.79181
21
-3.85248
0
LINE
8
BLACK
6
CONTINUOUS
10
6.79181
20
-3.85248
11
6.7917
21
-3.85363
0
LINE
8
BLACK
6
CONTINUOUS
10
6.7917
20
-3.85363
11
6.79136
21
-3.85474
0
LINE
8
BLACK
6
CONTINUOUS
10
6.79136
20
-3.85474
11
6.79082
21
-3.85576
0
LINE
8
BLACK
6
CONTINUOUS
10
6.79082
20
-3.85576
11
6.79008
21
-3.85666
0
LINE
8
BLACK
6
CONTINUOUS
10
6.79008
20
-3.85666
11
6.78919
21
-3.85739
0
LINE
8
BLACK
6
CONTINUOUS
10
6.78919
20
-3.85739
11
6.78817
21
-3.85794
0
LINE
8
BLACK
6
CONTINUOUS
10
6.78817
20
-3.85794
11
6.78706
21
-3.85827
0
LINE
8
BLACK
6
CONTINUOUS
10
6.78706
20
-3.85827
11
6.78591
21
-3.85839
0
LINE
8
BLACK
6
CONTINUOUS
10
6.78591
20
-3.85839
11
6.77409
21
-3.85839
0
LINE
8
BLACK
6
CONTINUOUS
10
6.77409
20
-3.85839
11
6.77294
21
-3.85827
0
LINE
8
BLACK
6
CONTINUOUS
10
6.77294
20
-3.85827
11
6.77183
21
-3.85794
0
LINE
8
BLACK
6
CONTINUOUS
10
6.77183
20
-3.85794
11
6.77081
21
-3.85739
0
LINE
8
BLACK
6
CONTINUOUS
10
6.77081
20
-3.85739
11
6.76992
21
-3.85666
0
LINE
8
BLACK
6
CONTINUOUS
10
6.76992
20
-3.85666
11
6.76918
21
-3.85576
0
LINE
8
BLACK
6
CONTINUOUS
10
6.76918
20
-3.85576
11
6.76864
21
-3.85474
0
LINE
8
BLACK
6
CONTINUOUS
10
6.76864
20
-3.85474
11
6.7683
21
-3.85363
0
LINE
8
BLACK
6
CONTINUOUS
10
6.7683
20
-3.85363
11
6.76819
21
-3.85248
0
LINE
8
BLACK
6
CONTINUOUS
10
6.76819
20
-3.85248
11
6.76819
21
-3.78752
0
LINE
8
BLACK
6
CONTINUOUS
10
6.76819
20
-3.78752
11
6.7683
21
-3.78637
0
LINE
8
BLACK
6
CONTINUOUS
10
6.7683
20
-3.78637
11
6.76864
21
-3.78526
0
LINE
8
BLACK
6
CONTINUOUS
10
6.76864
20
-3.78526
11
6.76918
21
-3.78424
0
LINE
8
BLACK
6
CONTINUOUS
10
6.76918
20
-3.78424
11
6.76992
21
-3.78334
0
LINE
8
BLACK
6
CONTINUOUS
10
6.76992
20
-3.78334
11
6.77081
21
-3.78261
0
LINE
8
BLACK
6
CONTINUOUS
10
6.77081
20
-3.78261
11
6.77183
21
-3.78206
0
LINE
8
BLACK
6
CONTINUOUS
10
6.77183
20
-3.78206
11
6.77294
21
-3.78173
0
LINE
8
BLACK
6
CONTINUOUS
10
6.77294
20
-3.78173
11
6.77409
21
-3.78161
0
LINE
8
BLACK
6
CONTINUOUS
10
6.77409
20
-3.78161
11
6.78591
21
-3.78161
0
LINE
8
BLACK
6
CONTINUOUS
10
6.78591
20
-3.78161
11
6.78706
21
-3.78173
0
LINE
8
BLACK
6
CONTINUOUS
10
6.41964
20
-3.79755
11
6.42148
21
-3.79811
0
LINE
8
BLACK
6
CONTINUOUS
10
6.42148
20
-3.79811
11
6.42318
21
-3.79902
0
LINE
8
BLACK
6
CONTINUOUS
10
6.42318
20
-3.79902
11
6.42468
21
-3.80024
0
LINE
8
BLACK
6
CONTINUOUS
10
6.42468
20
-3.80024
11
6.4259
21
-3.80174
0
LINE
8
BLACK
6
CONTINUOUS
10
6.4259
20
-3.80174
11
6.42681
21
-3.80344
0
LINE
8
BLACK
6
CONTINUOUS
10
6.42681
20
-3.80344
11
6.42737
21
-3.80528
0
LINE
8
BLACK
6
CONTINUOUS
10
6.42737
20
-3.80528
11
6.42756
21
-3.8072
0
LINE
8
BLACK
6
CONTINUOUS
10
6.42756
20
-3.8072
11
6.42756
21
-3.8328
0
LINE
8
BLACK
6
CONTINUOUS
10
6.42756
20
-3.8328
11
6.42737
21
-3.83472
0
LINE
8
BLACK
6
CONTINUOUS
10
6.42737
20
-3.83472
11
6.42681
21
-3.83656
0
LINE
8
BLACK
6
CONTINUOUS
10
6.42681
20
-3.83656
11
6.4259
21
-3.83826
0
LINE
8
BLACK
6
CONTINUOUS
10
6.4259
20
-3.83826
11
6.42468
21
-3.83975
0
LINE
8
BLACK
6
CONTINUOUS
10
6.42468
20
-3.83975
11
6.42318
21
-3.84098
0
LINE
8
BLACK
6
CONTINUOUS
10
6.42318
20
-3.84098
11
6.42148
21
-3.84189
0
LINE
8
BLACK
6
CONTINUOUS
10
6.42148
20
-3.84189
11
6.41964
21
-3.84245
0
LINE
8
BLACK
6
CONTINUOUS
10
6.41964
20
-3.84245
11
6.41772
21
-3.84264
0
LINE
8
BLACK
6
CONTINUOUS
10
6.41772
20
-3.84264
11
6.38228
21
-3.84264
0
LINE
8
BLACK
6
CONTINUOUS
10
6.38228
20
-3.84264
11
6.38036
21
-3.84245
0
LINE
8
BLACK
6
CONTINUOUS
10
6.38036
20
-3.84245
11
6.37852
21
-3.84189
0
LINE
8
BLACK
6
CONTINUOUS
10
6.37852
20
-3.84189
11
6.37682
21
-3.84098
0
LINE
8
BLACK
6
CONTINUOUS
10
6.37682
20
-3.84098
11
6.37532
21
-3.83975
0
LINE
8
BLACK
6
CONTINUOUS
10
6.37532
20
-3.83975
11
6.3741
21
-3.83826
0
LINE
8
BLACK
6
CONTINUOUS
10
6.3741
20
-3.83826
11
6.37319
21
-3.83656
0
LINE
8
BLACK
6
CONTINUOUS
10
6.37319
20
-3.83656
11
6.37263
21
-3.83472
0
LINE
8
BLACK
6
CONTINUOUS
10
6.37263
20
-3.83472
11
6.37244
21
-3.8328
0
LINE
8
BLACK
6
CONTINUOUS
10
6.37244
20
-3.8328
11
6.37244
21
-3.8072
0
LINE
8
BLACK
6
CONTINUOUS
10
6.37244
20
-3.8072
11
6.37263
21
-3.80528
0
LINE
8
BLACK
6
CONTINUOUS
10
6.37263
20
-3.80528
11
6.37319
21
-3.80344
0
LINE
8
BLACK
6
CONTINUOUS
10
6.37319
20
-3.80344
11
6.3741
21
-3.80174
0
LINE
8
BLACK
6
CONTINUOUS
10
6.3741
20
-3.80174
11
6.37532
21
-3.80024
0
LINE
8
BLACK
6
CONTINUOUS
10
6.37532
20
-3.80024
11
6.37682
21
-3.79902
0
LINE
8
BLACK
6
CONTINUOUS
10
6.37682
20
-3.79902
11
6.37852
21
-3.79811
0
LINE
8
BLACK
6
CONTINUOUS
10
6.37852
20
-3.79811
11
6.38036
21
-3.79755
0
LINE
8
BLACK
6
CONTINUOUS
10
6.38036
20
-3.79755
11
6.38228
21
-3.79736
0
LINE
8
BLACK
6
CONTINUOUS
10
6.38228
20
-3.79736
11
6.41772
21
-3.79736
0
LINE
8
BLACK
6
CONTINUOUS
10
6.41772
20
-3.79736
11
6.41964
21
-3.79755
0
LINE
8
BLACK
6
CONTINUOUS
10
5.87472
20
-3.77263
11
5.87656
21
-3.77319
0
LINE
8
BLACK
6
CONTINUOUS
10
5.87656
20
-3.77319
11
5.87826
21
-3.7741
0
LINE
8
BLACK
6
CONTINUOUS
10
5.87826
20
-3.7741
11
5.87976
21
-3.77532
0
LINE
8
BLACK
6
CONTINUOUS
10
5.87976
20
-3.77532
11
5.88098
21
-3.77682
0
LINE
8
BLACK
6
CONTINUOUS
10
5.88098
20
-3.77682
11
5.88189
21
-3.77852
0
LINE
8
BLACK
6
CONTINUOUS
10
5.88189
20
-3.77852
11
5.88245
21
-3.78036
0
LINE
8
BLACK
6
CONTINUOUS
10
5.88245
20
-3.78036
11
5.88264
21
-3.78228
0
LINE
8
BLACK
6
CONTINUOUS
10
5.88264
20
-3.78228
11
5.88264
21
-3.81772
0
LINE
8
BLACK
6
CONTINUOUS
10
5.88264
20
-3.81772
11
5.88245
21
-3.81964
0
LINE
8
BLACK
6
CONTINUOUS
10
5.88245
20
-3.81964
11
5.88189
21
-3.82148
0
LINE
8
BLACK
6
CONTINUOUS
10
5.88189
20
-3.82148
11
5.88098
21
-3.82318
0
LINE
8
BLACK
6
CONTINUOUS
10
5.88098
20
-3.82318
11
5.87976
21
-3.82468
0
LINE
8
BLACK
6
CONTINUOUS
10
5.87976
20
-3.82468
11
5.87826
21
-3.8259
0
LINE
8
BLACK
6
CONTINUOUS
10
5.87826
20
-3.8259
11
5.87656
21
-3.82681
0
LINE
8
BLACK
6
CONTINUOUS
10
5.87656
20
-3.82681
11
5.87472
21
-3.82737
0
LINE
8
BLACK
6
CONTINUOUS
10
5.87472
20
-3.82737
11
5.8728
21
-3.82756
0
LINE
8
BLACK
6
CONTINUOUS
10
5.8728
20
-3.82756
11
5.8472
21
-3.82756
0
LINE
8
BLACK
6
CONTINUOUS
10
5.8472
20
-3.82756
11
5.84528
21
-3.82737
0
LINE
8
BLACK
6
CONTINUOUS
10
5.84528
20
-3.82737
11
5.84344
21
-3.82681
0
LINE
8
BLACK
6
CONTINUOUS
10
5.84344
20
-3.82681
11
5.84174
21
-3.8259
0
LINE
8
BLACK
6
CONTINUOUS
10
5.84174
20
-3.8259
11
5.84024
21
-3.82468
0
LINE
8
BLACK
6
CONTINUOUS
10
5.84024
20
-3.82468
11
5.83902
21
-3.82318
0
LINE
8
BLACK
6
CONTINUOUS
10
5.83902
20
-3.82318
11
5.83811
21
-3.82148
0
LINE
8
BLACK
6
CONTINUOUS
10
5.83811
20
-3.82148
11
5.83755
21
-3.81964
0
LINE
8
BLACK
6
CONTINUOUS
10
5.83755
20
-3.81964
11
5.83736
21
-3.81772
0
LINE
8
BLACK
6
CONTINUOUS
10
5.83736
20
-3.81772
11
5.83736
21
-3.78228
0
LINE
8
BLACK
6
CONTINUOUS
10
5.83736
20
-3.78228
11
5.83755
21
-3.78036
0
LINE
8
BLACK
6
CONTINUOUS
10
5.83755
20
-3.78036
11
5.83811
21
-3.77852
0
LINE
8
BLACK
6
CONTINUOUS
10
5.83811
20
-3.77852
11
5.83902
21
-3.77682
0
LINE
8
BLACK
6
CONTINUOUS
10
5.83902
20
-3.77682
11
5.84024
21
-3.77532
0
LINE
8
BLACK
6
CONTINUOUS
10
5.84024
20
-3.77532
11
5.84174
21
-3.7741
0
LINE
8
BLACK
6
CONTINUOUS
10
5.84174
20
-3.7741
11
5.84344
21
-3.77319
0
LINE
8
BLACK
6
CONTINUOUS
10
5.84344
20
-3.77319
11
5.84528
21
-3.77263
0
LINE
8
BLACK
6
CONTINUOUS
10
5.84528
20
-3.77263
11
5.8472
21
-3.77244
0
LINE
8
BLACK
6
CONTINUOUS
10
5.8472
20
-3.77244
11
5.8728
21
-3.77244
0
LINE
8
BLACK
6
CONTINUOUS
10
5.8728
20
-3.77244
11
5.87472
21
-3.77263
0
LINE
8
BLACK
6
CONTINUOUS
10
5.79401
20
-3.77263
11
5.79585
21
-3.77319
0
LINE
8
BLACK
6
CONTINUOUS
10
5.79585
20
-3.77319
11
5.79755
21
-3.7741
0
LINE
8
BLACK
6
CONTINUOUS
10
5.79755
20
-3.7741
11
5.79905
21
-3.77532
0
LINE
8
BLACK
6
CONTINUOUS
10
5.79905
20
-3.77532
11
5.80027
21
-3.77682
0
LINE
8
BLACK
6
CONTINUOUS
10
5.80027
20
-3.77682
11
5.80118
21
-3.77852
0
LINE
8
BLACK
6
CONTINUOUS
10
5.80118
20
-3.77852
11
5.80174
21
-3.78036
0
LINE
8
BLACK
6
CONTINUOUS
10
5.80174
20
-3.78036
11
5.80193
21
-3.78228
0
LINE
8
BLACK
6
CONTINUOUS
10
5.80193
20
-3.78228
11
5.80193
21
-3.81772
0
LINE
8
BLACK
6
CONTINUOUS
10
5.80193
20
-3.81772
11
5.80174
21
-3.81964
0
LINE
8
BLACK
6
CONTINUOUS
10
5.80174
20
-3.81964
11
5.80118
21
-3.82148
0
LINE
8
BLACK
6
CONTINUOUS
10
5.80118
20
-3.82148
11
5.80027
21
-3.82318
0
LINE
8
BLACK
6
CONTINUOUS
10
5.80027
20
-3.82318
11
5.79905
21
-3.82468
0
LINE
8
BLACK
6
CONTINUOUS
10
5.79905
20
-3.82468
11
5.79755
21
-3.8259
0
LINE
8
BLACK
6
CONTINUOUS
10
5.79755
20
-3.8259
11
5.79585
21
-3.82681
0
LINE
8
BLACK
6
CONTINUOUS
10
5.79585
20
-3.82681
11
5.79401
21
-3.82737
0
LINE
8
BLACK
6
CONTINUOUS
10
5.79401
20
-3.82737
11
5.79209
21
-3.82756
0
LINE
8
BLACK
6
CONTINUOUS
10
5.79209
20
-3.82756
11
5.7665
21
-3.82756
0
LINE
8
BLACK
6
CONTINUOUS
10
5.7665
20
-3.82756
11
5.76458
21
-3.82737
0
LINE
8
BLACK
6
CONTINUOUS
10
5.76458
20
-3.82737
11
5.76273
21
-3.82681
0
LINE
8
BLACK
6
CONTINUOUS
10
5.76273
20
-3.82681
11
5.76103
21
-3.8259
0
LINE
8
BLACK
6
CONTINUOUS
10
5.76103
20
-3.8259
11
5.75954
21
-3.82468
0
LINE
8
BLACK
6
CONTINUOUS
10
5.75954
20
-3.82468
11
5.75831
21
-3.82318
0
LINE
8
BLACK
6
CONTINUOUS
10
5.75831
20
-3.82318
11
5.7574
21
-3.82148
0
LINE
8
BLACK
6
CONTINUOUS
10
5.7574
20
-3.82148
11
5.75684
21
-3.81964
0
LINE
8
BLACK
6
CONTINUOUS
10
5.75684
20
-3.81964
11
5.75665
21
-3.81772
0
LINE
8
BLACK
6
CONTINUOUS
10
5.75665
20
-3.81772
11
5.75665
21
-3.78228
0
LINE
8
BLACK
6
CONTINUOUS
10
5.75665
20
-3.78228
11
5.75684
21
-3.78036
0
LINE
8
BLACK
6
CONTINUOUS
10
5.75684
20
-3.78036
11
5.7574
21
-3.77852
0
LINE
8
BLACK
6
CONTINUOUS
10
5.7574
20
-3.77852
11
5.75831
21
-3.77682
0
LINE
8
BLACK
6
CONTINUOUS
10
5.75831
20
-3.77682
11
5.75954
21
-3.77532
0
LINE
8
BLACK
6
CONTINUOUS
10
5.75954
20
-3.77532
11
5.76103
21
-3.7741
0
LINE
8
BLACK
6
CONTINUOUS
10
5.76103
20
-3.7741
11
5.76273
21
-3.77319
0
LINE
8
BLACK
6
CONTINUOUS
10
5.76273
20
-3.77319
11
5.76458
21
-3.77263
0
LINE
8
BLACK
6
CONTINUOUS
10
5.76458
20
-3.77263
11
5.7665
21
-3.77244
0
LINE
8
BLACK
6
CONTINUOUS
10
5.7665
20
-3.77244
11
5.79209
21
-3.77244
0
LINE
8
BLACK
6
CONTINUOUS
10
5.79209
20
-3.77244
11
5.79401
21
-3.77263
0
LINE
8
BLACK
6
CONTINUOUS
10
6.122
20
-3.75196
11
6.12385
21
-3.75252
0
LINE
8
BLACK
6
CONTINUOUS
10
6.12385
20
-3.75252
11
6.12555
21
-3.75343
0
LINE
8
BLACK
6
CONTINUOUS
10
6.12555
20
-3.75343
11
6.12704
21
-3.75465
0
LINE
8
BLACK
6
CONTINUOUS
10
6.12704
20
-3.75465
11
6.12826
21
-3.75615
0
LINE
8
BLACK
6
CONTINUOUS
10
6.12826
20
-3.75615
11
6.12917
21
-3.75785
0
LINE
8
BLACK
6
CONTINUOUS
10
6.12917
20
-3.75785
11
6.12973
21
-3.75969
0
LINE
8
BLACK
6
CONTINUOUS
10
6.12973
20
-3.75969
11
6.12992
21
-3.76161
0
LINE
8
BLACK
6
CONTINUOUS
10
6.12992
20
-3.76161
11
6.12992
21
-3.7872
0
LINE
8
BLACK
6
CONTINUOUS
10
6.12992
20
-3.7872
11
6.12973
21
-3.78912
0
LINE
8
BLACK
6
CONTINUOUS
10
6.12973
20
-3.78912
11
6.12917
21
-3.79097
0
LINE
8
BLACK
6
CONTINUOUS
10
6.12917
20
-3.79097
11
6.12826
21
-3.79267
0
LINE
8
BLACK
6
CONTINUOUS
10
6.12826
20
-3.79267
11
6.12704
21
-3.79416
0
LINE
8
BLACK
6
CONTINUOUS
10
6.12704
20
-3.79416
11
6.12555
21
-3.79539
0
LINE
8
BLACK
6
CONTINUOUS
10
6.12555
20
-3.79539
11
6.12385
21
-3.7963
0
LINE
8
BLACK
6
CONTINUOUS
10
6.12385
20
-3.7963
11
6.122
21
-3.79686
0
LINE
8
BLACK
6
CONTINUOUS
10
6.122
20
-3.79686
11
6.12008
21
-3.79705
0
LINE
8
BLACK
6
CONTINUOUS
10
6.12008
20
-3.79705
11
6.08465
21
-3.79705
0
LINE
8
BLACK
6
CONTINUOUS
10
6.08465
20
-3.79705
11
6.08273
21
-3.79686
0
LINE
8
BLACK
6
CONTINUOUS
10
6.08273
20
-3.79686
11
6.08088
21
-3.7963
0
LINE
8
BLACK
6
CONTINUOUS
10
6.08088
20
-3.7963
11
6.07918
21
-3.79539
0
LINE
8
BLACK
6
CONTINUOUS
10
6.07918
20
-3.79539
11
6.07769
21
-3.79416
0
LINE
8
BLACK
6
CONTINUOUS
10
6.07769
20
-3.79416
11
6.07646
21
-3.79267
0
LINE
8
BLACK
6
CONTINUOUS
10
6.07646
20
-3.79267
11
6.07555
21
-3.79097
0
LINE
8
BLACK
6
CONTINUOUS
10
6.07555
20
-3.79097
11
6.07499
21
-3.78912
0
LINE
8
BLACK
6
CONTINUOUS
10
6.07499
20
-3.78912
11
6.0748
21
-3.7872
0
LINE
8
BLACK
6
CONTINUOUS
10
6.0748
20
-3.7872
11
6.0748
21
-3.76161
0
LINE
8
BLACK
6
CONTINUOUS
10
6.0748
20
-3.76161
11
6.07499
21
-3.75969
0
LINE
8
BLACK
6
CONTINUOUS
10
6.07499
20
-3.75969
11
6.07555
21
-3.75785
0
LINE
8
BLACK
6
CONTINUOUS
10
6.07555
20
-3.75785
11
6.07646
21
-3.75615
0
LINE
8
BLACK
6
CONTINUOUS
10
6.07646
20
-3.75615
11
6.07769
21
-3.75465
0
LINE
8
BLACK
6
CONTINUOUS
10
6.07769
20
-3.75465
11
6.07918
21
-3.75343
0
LINE
8
BLACK
6
CONTINUOUS
10
6.07918
20
-3.75343
11
6.08088
21
-3.75252
0
LINE
8
BLACK
6
CONTINUOUS
10
6.08088
20
-3.75252
11
6.08273
21
-3.75196
0
LINE
8
BLACK
6
CONTINUOUS
10
6.08273
20
-3.75196
11
6.08465
21
-3.75177
0
LINE
8
BLACK
6
CONTINUOUS
10
6.08465
20
-3.75177
11
6.12008
21
-3.75177
0
LINE
8
BLACK
6
CONTINUOUS
10
6.12008
20
-3.75177
11
6.122
21
-3.75196
0
LINE
8
BLACK
6
CONTINUOUS
10
6.04326
20
-3.75196
11
6.04511
21
-3.75252
0
LINE
8
BLACK
6
CONTINUOUS
10
6.04511
20
-3.75252
11
6.04681
21
-3.75343
0
LINE
8
BLACK
6
CONTINUOUS
10
6.04681
20
-3.75343
11
6.0483
21
-3.75465
0
LINE
8
BLACK
6
CONTINUOUS
10
6.0483
20
-3.75465
11
6.04952
21
-3.75615
0
LINE
8
BLACK
6
CONTINUOUS
10
6.04952
20
-3.75615
11
6.05043
21
-3.75785
0
LINE
8
BLACK
6
CONTINUOUS
10
6.05043
20
-3.75785
11
6.05099
21
-3.75969
0
LINE
8
BLACK
6
CONTINUOUS
10
6.05099
20
-3.75969
11
6.05118
21
-3.76161
0
LINE
8
BLACK
6
CONTINUOUS
10
6.05118
20
-3.76161
11
6.05118
21
-3.7872
0
LINE
8
BLACK
6
CONTINUOUS
10
6.05118
20
-3.7872
11
6.05099
21
-3.78912
0
LINE
8
BLACK
6
CONTINUOUS
10
6.05099
20
-3.78912
11
6.05043
21
-3.79097
0
LINE
8
BLACK
6
CONTINUOUS
10
6.05043
20
-3.79097
11
6.04952
21
-3.79267
0
LINE
8
BLACK
6
CONTINUOUS
10
6.04952
20
-3.79267
11
6.0483
21
-3.79416
0
LINE
8
BLACK
6
CONTINUOUS
10
6.0483
20
-3.79416
11
6.04681
21
-3.79539
0
LINE
8
BLACK
6
CONTINUOUS
10
6.04681
20
-3.79539
11
6.04511
21
-3.7963
0
LINE
8
BLACK
6
CONTINUOUS
10
6.04511
20
-3.7963
11
6.04326
21
-3.79686
0
LINE
8
BLACK
6
CONTINUOUS
10
6.04326
20
-3.79686
11
6.04134
21
-3.79705
0
LINE
8
BLACK
6
CONTINUOUS
10
6.04134
20
-3.79705
11
6.00591
21
-3.79705
0
LINE
8
BLACK
6
CONTINUOUS
10
6.00591
20
-3.79705
11
6.00399
21
-3.79686
0
LINE
8
BLACK
6
CONTINUOUS
10
6.00399
20
-3.79686
11
6.00214
21
-3.7963
0
LINE
8
BLACK
6
CONTINUOUS
10
6.00214
20
-3.7963
11
6.00044
21
-3.79539
0
LINE
8
BLACK
6
CONTINUOUS
10
6.00044
20
-3.79539
11
5.99895
21
-3.79416
0
LINE
8
BLACK
6
CONTINUOUS
10
5.99895
20
-3.79416
11
5.99772
21
-3.79267
0
LINE
8
BLACK
6
CONTINUOUS
10
5.99772
20
-3.79267
11
5.99681
21
-3.79097
0
LINE
8
BLACK
6
CONTINUOUS
10
5.99681
20
-3.79097
11
5.99625
21
-3.78912
0
LINE
8
BLACK
6
CONTINUOUS
10
5.99625
20
-3.78912
11
5.99606
21
-3.7872
0
LINE
8
BLACK
6
CONTINUOUS
10
5.99606
20
-3.7872
11
5.99606
21
-3.76161
0
LINE
8
BLACK
6
CONTINUOUS
10
5.99606
20
-3.76161
11
5.99625
21
-3.75969
0
LINE
8
BLACK
6
CONTINUOUS
10
5.99625
20
-3.75969
11
5.99681
21
-3.75785
0
LINE
8
BLACK
6
CONTINUOUS
10
5.99681
20
-3.75785
11
5.99772
21
-3.75615
0
LINE
8
BLACK
6
CONTINUOUS
10
5.99772
20
-3.75615
11
5.99895
21
-3.75465
0
LINE
8
BLACK
6
CONTINUOUS
10
5.99895
20
-3.75465
11
6.00044
21
-3.75343
0
LINE
8
BLACK
6
CONTINUOUS
10
6.00044
20
-3.75343
11
6.00214
21
-3.75252
0
LINE
8
BLACK
6
CONTINUOUS
10
6.00214
20
-3.75252
11
6.00399
21
-3.75196
0
LINE
8
BLACK
6
CONTINUOUS
10
6.00399
20
-3.75196
11
6.00591
21
-3.75177
0
LINE
8
BLACK
6
CONTINUOUS
10
6.00591
20
-3.75177
11
6.04134
21
-3.75177
0
LINE
8
BLACK
6
CONTINUOUS
10
6.04134
20
-3.75177
11
6.04326
21
-3.75196
0
LINE
8
BLACK
6
CONTINUOUS
10
6.41964
20
-3.71684
11
6.42148
21
-3.7174
0
LINE
8
BLACK
6
CONTINUOUS
10
6.42148
20
-3.7174
11
6.42318
21
-3.71831
0
LINE
8
BLACK
6
CONTINUOUS
10
6.42318
20
-3.71831
11
6.42468
21
-3.71954
0
LINE
8
BLACK
6
CONTINUOUS
10
6.42468
20
-3.71954
11
6.4259
21
-3.72103
0
LINE
8
BLACK
6
CONTINUOUS
10
6.4259
20
-3.72103
11
6.42681
21
-3.72273
0
LINE
8
BLACK
6
CONTINUOUS
10
6.42681
20
-3.72273
11
6.42737
21
-3.72458
0
LINE
8
BLACK
6
CONTINUOUS
10
6.42737
20
-3.72458
11
6.42756
21
-3.7265
0
LINE
8
BLACK
6
CONTINUOUS
10
6.42756
20
-3.7265
11
6.42756
21
-3.75209
0
LINE
8
BLACK
6
CONTINUOUS
10
6.42756
20
-3.75209
11
6.42737
21
-3.75401
0
LINE
8
BLACK
6
CONTINUOUS
10
6.42737
20
-3.75401
11
6.42681
21
-3.75585
0
LINE
8
BLACK
6
CONTINUOUS
10
6.42681
20
-3.75585
11
6.4259
21
-3.75755
0
LINE
8
BLACK
6
CONTINUOUS
10
6.4259
20
-3.75755
11
6.42468
21
-3.75905
0
LINE
8
BLACK
6
CONTINUOUS
10
6.42468
20
-3.75905
11
6.42318
21
-3.76027
0
LINE
8
BLACK
6
CONTINUOUS
10
6.42318
20
-3.76027
11
6.42148
21
-3.76118
0
LINE
8
BLACK
6
CONTINUOUS
10
6.42148
20
-3.76118
11
6.41964
21
-3.76174
0
LINE
8
BLACK
6
CONTINUOUS
10
6.41964
20
-3.76174
11
6.41772
21
-3.76193
0
LINE
8
BLACK
6
CONTINUOUS
10
6.41772
20
-3.76193
11
6.38228
21
-3.76193
0
LINE
8
BLACK
6
CONTINUOUS
10
6.38228
20
-3.76193
11
6.38036
21
-3.76174
0
LINE
8
BLACK
6
CONTINUOUS
10
6.38036
20
-3.76174
11
6.37852
21
-3.76118
0
LINE
8
BLACK
6
CONTINUOUS
10
6.37852
20
-3.76118
11
6.37682
21
-3.76027
0
LINE
8
BLACK
6
CONTINUOUS
10
6.37682
20
-3.76027
11
6.37532
21
-3.75905
0
LINE
8
BLACK
6
CONTINUOUS
10
6.37532
20
-3.75905
11
6.3741
21
-3.75755
0
LINE
8
BLACK
6
CONTINUOUS
10
6.3741
20
-3.75755
11
6.37319
21
-3.75585
0
LINE
8
BLACK
6
CONTINUOUS
10
6.37319
20
-3.75585
11
6.37263
21
-3.75401
0
LINE
8
BLACK
6
CONTINUOUS
10
6.37263
20
-3.75401
11
6.37244
21
-3.75209
0
LINE
8
BLACK
6
CONTINUOUS
10
6.37244
20
-3.75209
11
6.37244
21
-3.7265
0
LINE
8
BLACK
6
CONTINUOUS
10
6.37244
20
-3.7265
11
6.37263
21
-3.72458
0
LINE
8
BLACK
6
CONTINUOUS
10
6.37263
20
-3.72458
11
6.37319
21
-3.72273
0
LINE
8
BLACK
6
CONTINUOUS
10
6.37319
20
-3.72273
11
6.3741
21
-3.72103
0
LINE
8
BLACK
6
CONTINUOUS
10
6.3741
20
-3.72103
11
6.37532
21
-3.71954
0
LINE
8
BLACK
6
CONTINUOUS
10
6.37532
20
-3.71954
11
6.37682
21
-3.71831
0
LINE
8
BLACK
6
CONTINUOUS
10
6.37682
20
-3.71831
11
6.37852
21
-3.7174
0
LINE
8
BLACK
6
CONTINUOUS
10
6.37852
20
-3.7174
11
6.38036
21
-3.71684
0
LINE
8
BLACK
6
CONTINUOUS
10
6.38036
20
-3.71684
11
6.38228
21
-3.71665
0
LINE
8
BLACK
6
CONTINUOUS
10
6.38228
20
-3.71665
11
6.41772
21
-3.71665
0
LINE
8
BLACK
6
CONTINUOUS
10
6.41772
20
-3.71665
11
6.41964
21
-3.71684
0
LINE
8
BLACK
6
CONTINUOUS
10
6.20472
20
-3.75472
11
6.15748
21
-3.75472
0
LINE
8
BLACK
6
CONTINUOUS
10
6.15748
20
-3.75472
11
6.15748
21
-3.71929
0
LINE
8
BLACK
6
CONTINUOUS
10
6.15748
20
-3.71929
11
6.20472
21
-3.71929
0
LINE
8
BLACK
6
CONTINUOUS
10
6.20472
20
-3.71929
11
6.20472
21
-3.75472
0
LINE
8
BLACK
6
CONTINUOUS
10
5.82677
20
-3.72717
11
5.74803
21
-3.72717
0
LINE
8
BLACK
6
CONTINUOUS
10
5.74803
20
-3.72717
11
5.74803
21
-3.55
0
LINE
8
BLACK
6
CONTINUOUS
10
5.74803
20
-3.55
11
5.82677
21
-3.55
0
LINE
8
BLACK
6
CONTINUOUS
10
5.82677
20
-3.55
11
5.82677
21
-3.72717
0
LINE
8
BLACK
6
CONTINUOUS
10
6.80725
20
-3.6483
11
6.80836
21
-3.64864
0
LINE
8
BLACK
6
CONTINUOUS
10
6.80836
20
-3.64864
11
6.80938
21
-3.64918
0
LINE
8
BLACK
6
CONTINUOUS
10
6.80938
20
-3.64918
11
6.81028
21
-3.64992
0
LINE
8
BLACK
6
CONTINUOUS
10
6.81028
20
-3.64992
11
6.81101
21
-3.65081
0
LINE
8
BLACK
6
CONTINUOUS
10
6.81101
20
-3.65081
11
6.81156
21
-3.65183
0
LINE
8
BLACK
6
CONTINUOUS
10
6.81156
20
-3.65183
11
6.81189
21
-3.65294
0
LINE
8
BLACK
6
CONTINUOUS
10
6.81189
20
-3.65294
11
6.81201
21
-3.65409
0
LINE
8
BLACK
6
CONTINUOUS
10
6.81201
20
-3.65409
11
6.81201
21
-3.66591
0
LINE
8
BLACK
6
CONTINUOUS
10
6.81201
20
-3.66591
11
6.81189
21
-3.66706
0
LINE
8
BLACK
6
CONTINUOUS
10
6.81189
20
-3.66706
11
6.81156
21
-3.66817
0
LINE
8
BLACK
6
CONTINUOUS
10
6.81156
20
-3.66817
11
6.81101
21
-3.66919
0
LINE
8
BLACK
6
CONTINUOUS
10
6.81101
20
-3.66919
11
6.81028
21
-3.67008
0
LINE
8
BLACK
6
CONTINUOUS
10
6.81028
20
-3.67008
11
6.80938
21
-3.67082
0
LINE
8
BLACK
6
CONTINUOUS
10
6.80938
20
-3.67082
11
6.80836
21
-3.67136
0
LINE
8
BLACK
6
CONTINUOUS
10
6.80836
20
-3.67136
11
6.80725
21
-3.6717
0
LINE
8
BLACK
6
CONTINUOUS
10
6.80725
20
-3.6717
11
6.8061
21
-3.67181
0
LINE
8
BLACK
6
CONTINUOUS
10
6.8061
20
-3.67181
11
6.7372
21
-3.67181
0
LINE
8
BLACK
6
CONTINUOUS
10
6.7372
20
-3.67181
11
6.73605
21
-3.6717
0
LINE
8
BLACK
6
CONTINUOUS
10
6.73605
20
-3.6717
11
6.73494
21
-3.67136
0
LINE
8
BLACK
6
CONTINUOUS
10
6.73494
20
-3.67136
11
6.73392
21
-3.67082
0
LINE
8
BLACK
6
CONTINUOUS
10
6.73392
20
-3.67082
11
6.73303
21
-3.67008
0
LINE
8
BLACK
6
CONTINUOUS
10
6.73303
20
-3.67008
11
6.73229
21
-3.66919
0
LINE
8
BLACK
6
CONTINUOUS
10
6.73229
20
-3.66919
11
6.73175
21
-3.66817
0
LINE
8
BLACK
6
CONTINUOUS
10
6.73175
20
-3.66817
11
6.73141
21
-3.66706
0
LINE
8
BLACK
6
CONTINUOUS
10
6.73141
20
-3.66706
11
6.7313
21
-3.66591
0
LINE
8
BLACK
6
CONTINUOUS
10
6.7313
20
-3.66591
11
6.7313
21
-3.65409
0
LINE
8
BLACK
6
CONTINUOUS
10
6.7313
20
-3.65409
11
6.73141
21
-3.65294
0
LINE
8
BLACK
6
CONTINUOUS
10
6.73141
20
-3.65294
11
6.73175
21
-3.65183
0
LINE
8
BLACK
6
CONTINUOUS
10
6.73175
20
-3.65183
11
6.73229
21
-3.65081
0
LINE
8
BLACK
6
CONTINUOUS
10
6.73229
20
-3.65081
11
6.73303
21
-3.64992
0
LINE
8
BLACK
6
CONTINUOUS
10
6.73303
20
-3.64992
11
6.73392
21
-3.64918
0
LINE
8
BLACK
6
CONTINUOUS
10
6.73392
20
-3.64918
11
6.73494
21
-3.64864
0
LINE
8
BLACK
6
CONTINUOUS
10
6.73494
20
-3.64864
11
6.73605
21
-3.6483
0
LINE
8
BLACK
6
CONTINUOUS
10
6.73605
20
-3.6483
11
6.7372
21
-3.64819
0
LINE
8
BLACK
6
CONTINUOUS
10
6.7372
20
-3.64819
11
6.8061
21
-3.64819
0
LINE
8
BLACK
6
CONTINUOUS
10
6.8061
20
-3.64819
11
6.80725
21
-3.6483
0
LINE
8
BLACK
6
CONTINUOUS
10
6.44111
20
-3.6483
11
6.44222
21
-3.64864
0
LINE
8
BLACK
6
CONTINUOUS
10
6.44222
20
-3.64864
11
6.44324
21
-3.64918
0
LINE
8
BLACK
6
CONTINUOUS
10
6.44324
20
-3.64918
11
6.44414
21
-3.64992
0
LINE
8
BLACK
6
CONTINUOUS
10
6.44414
20
-3.64992
11
6.44487
21
-3.65081
0
LINE
8
BLACK
6
CONTINUOUS
10
6.44487
20
-3.65081
11
6.44542
21
-3.65183
0
LINE
8
BLACK
6
CONTINUOUS
10
6.44542
20
-3.65183
11
6.44575
21
-3.65294
0
LINE
8
BLACK
6
CONTINUOUS
10
6.44575
20
-3.65294
11
6.44587
21
-3.65409
0
LINE
8
BLACK
6
CONTINUOUS
10
6.44587
20
-3.65409
11
6.44587
21
-3.66591
0
LINE
8
BLACK
6
CONTINUOUS
10
6.44587
20
-3.66591
11
6.44575
21
-3.66706
0
LINE
8
BLACK
6
CONTINUOUS
10
6.44575
20
-3.66706
11
6.44542
21
-3.66817
0
LINE
8
BLACK
6
CONTINUOUS
10
6.44542
20
-3.66817
11
6.44487
21
-3.66919
0
LINE
8
BLACK
6
CONTINUOUS
10
6.44487
20
-3.66919
11
6.44414
21
-3.67008
0
LINE
8
BLACK
6
CONTINUOUS
10
6.44414
20
-3.67008
11
6.44324
21
-3.67082
0
LINE
8
BLACK
6
CONTINUOUS
10
6.44324
20
-3.67082
11
6.44222
21
-3.67136
0
LINE
8
BLACK
6
CONTINUOUS
10
6.44222
20
-3.67136
11
6.44111
21
-3.6717
0
LINE
8
BLACK
6
CONTINUOUS
10
6.44111
20
-3.6717
11
6.43996
21
-3.67181
0
LINE
8
BLACK
6
CONTINUOUS
10
6.43996
20
-3.67181
11
6.37106
21
-3.67181
0
LINE
8
BLACK
6
CONTINUOUS
10
6.37106
20
-3.67181
11
6.36991
21
-3.6717
0
LINE
8
BLACK
6
CONTINUOUS
10
6.36991
20
-3.6717
11
6.3688
21
-3.67136
0
LINE
8
BLACK
6
CONTINUOUS
10
6.3688
20
-3.67136
11
6.36778
21
-3.67082
0
LINE
8
BLACK
6
CONTINUOUS
10
6.36778
20
-3.67082
11
6.36689
21
-3.67008
0
LINE
8
BLACK
6
CONTINUOUS
10
6.36689
20
-3.67008
11
6.36615
21
-3.66919
0
LINE
8
BLACK
6
CONTINUOUS
10
6.36615
20
-3.66919
11
6.36561
21
-3.66817
0
LINE
8
BLACK
6
CONTINUOUS
10
6.36561
20
-3.66817
11
6.36527
21
-3.66706
0
LINE
8
BLACK
6
CONTINUOUS
10
6.36527
20
-3.66706
11
6.36516
21
-3.66591
0
LINE
8
BLACK
6
CONTINUOUS
10
6.36516
20
-3.66591
11
6.36516
21
-3.65409
0
LINE
8
BLACK
6
CONTINUOUS
10
6.36516
20
-3.65409
11
6.36527
21
-3.65294
0
LINE
8
BLACK
6
CONTINUOUS
10
6.36527
20
-3.65294
11
6.36561
21
-3.65183
0
LINE
8
BLACK
6
CONTINUOUS
10
6.36561
20
-3.65183
11
6.36615
21
-3.65081
0
LINE
8
BLACK
6
CONTINUOUS
10
6.36615
20
-3.65081
11
6.36689
21
-3.64992
0
LINE
8
BLACK
6
CONTINUOUS
10
6.36689
20
-3.64992
11
6.36778
21
-3.64918
0
LINE
8
BLACK
6
CONTINUOUS
10
6.36778
20
-3.64918
11
6.3688
21
-3.64864
0
LINE
8
BLACK
6
CONTINUOUS
10
6.3688
20
-3.64864
11
6.36991
21
-3.6483
0
LINE
8
BLACK
6
CONTINUOUS
10
6.36991
20
-3.6483
11
6.37106
21
-3.64819
0
LINE
8
BLACK
6
CONTINUOUS
10
6.37106
20
-3.64819
11
6.43996
21
-3.64819
0
LINE
8
BLACK
6
CONTINUOUS
10
6.43996
20
-3.64819
11
6.44111
21
-3.6483
0
LINE
8
BLACK
6
CONTINUOUS
10
6.44111
20
-3.5983
11
6.44222
21
-3.59864
0
LINE
8
BLACK
6
CONTINUOUS
10
6.44222
20
-3.59864
11
6.44324
21
-3.59918
0
LINE
8
BLACK
6
CONTINUOUS
10
6.44324
20
-3.59918
11
6.44414
21
-3.59992
0
LINE
8
BLACK
6
CONTINUOUS
10
6.44414
20
-3.59992
11
6.44487
21
-3.60081
0
LINE
8
BLACK
6
CONTINUOUS
10
6.44487
20
-3.60081
11
6.44542
21
-3.60183
0
LINE
8
BLACK
6
CONTINUOUS
10
6.44542
20
-3.60183
11
6.44575
21
-3.60294
0
LINE
8
BLACK
6
CONTINUOUS
10
6.44575
20
-3.60294
11
6.44587
21
-3.60409
0
LINE
8
BLACK
6
CONTINUOUS
10
6.44587
20
-3.60409
11
6.44587
21
-3.61591
0
LINE
8
BLACK
6
CONTINUOUS
10
6.44587
20
-3.61591
11
6.44575
21
-3.61706
0
LINE
8
BLACK
6
CONTINUOUS
10
6.44575
20
-3.61706
11
6.44542
21
-3.61817
0
LINE
8
BLACK
6
CONTINUOUS
10
6.44542
20
-3.61817
11
6.44487
21
-3.61919
0
LINE
8
BLACK
6
CONTINUOUS
10
6.44487
20
-3.61919
11
6.44414
21
-3.62008
0
LINE
8
BLACK
6
CONTINUOUS
10
6.44414
20
-3.62008
11
6.44324
21
-3.62082
0
LINE
8
BLACK
6
CONTINUOUS
10
6.44324
20
-3.62082
11
6.44222
21
-3.62136
0
LINE
8
BLACK
6
CONTINUOUS
10
6.44222
20
-3.62136
11
6.44111
21
-3.6217
0
LINE
8
BLACK
6
CONTINUOUS
10
6.44111
20
-3.6217
11
6.43996
21
-3.62181
0
LINE
8
BLACK
6
CONTINUOUS
10
6.43996
20
-3.62181
11
6.37106
21
-3.62181
0
LINE
8
BLACK
6
CONTINUOUS
10
6.37106
20
-3.62181
11
6.36991
21
-3.6217
0
LINE
8
BLACK
6
CONTINUOUS
10
6.36991
20
-3.6217
11
6.3688
21
-3.62136
0
LINE
8
BLACK
6
CONTINUOUS
10
6.3688
20
-3.62136
11
6.36778
21
-3.62082
0
LINE
8
BLACK
6
CONTINUOUS
10
6.36778
20
-3.62082
11
6.36689
21
-3.62008
0
LINE
8
BLACK
6
CONTINUOUS
10
6.36689
20
-3.62008
11
6.36615
21
-3.61919
0
LINE
8
BLACK
6
CONTINUOUS
10
6.36615
20
-3.61919
11
6.36561
21
-3.61817
0
LINE
8
BLACK
6
CONTINUOUS
10
6.36561
20
-3.61817
11
6.36527
21
-3.61706
0
LINE
8
BLACK
6
CONTINUOUS
10
6.36527
20
-3.61706
11
6.36516
21
-3.61591
0
LINE
8
BLACK
6
CONTINUOUS
10
6.36516
20
-3.61591
11
6.36516
21
-3.60409
0
LINE
8
BLACK
6
CONTINUOUS
10
6.36516
20
-3.60409
11
6.36527
21
-3.60294
0
LINE
8
BLACK
6
CONTINUOUS
10
6.36527
20
-3.60294
11
6.36561
21
-3.60183
0
LINE
8
BLACK
6
CONTINUOUS
10
6.36561
20
-3.60183
11
6.36615
21
-3.60081
0
LINE
8
BLACK
6
CONTINUOUS
10
6.36615
20
-3.60081
11
6.36689
21
-3.59992
0
LINE
8
BLACK
6
CONTINUOUS
10
6.36689
20
-3.59992
11
6.36778
21
-3.59918
0
LINE
8
BLACK
6
CONTINUOUS
10
6.36778
20
-3.59918
11
6.3688
21
-3.59864
0
LINE
8
BLACK
6
CONTINUOUS
10
6.3688
20
-3.59864
11
6.36991
21
-3.5983
0
LINE
8
BLACK
6
CONTINUOUS
10
6.36991
20
-3.5983
11
6.37106
21
-3.59819
0
LINE
8
BLACK
6
CONTINUOUS
10
6.37106
20
-3.59819
11
6.43996
21
-3.59819
0
LINE
8
BLACK
6
CONTINUOUS
10
6.43996
20
-3.59819
11
6.44111
21
-3.5983
0
LINE
8
BLACK
6
CONTINUOUS
10
6.80725
20
-3.5983
11
6.80836
21
-3.59864
0
LINE
8
BLACK
6
CONTINUOUS
10
6.80836
20
-3.59864
11
6.80938
21
-3.59918
0
LINE
8
BLACK
6
CONTINUOUS
10
6.80938
20
-3.59918
11
6.81028
21
-3.59992
0
LINE
8
BLACK
6
CONTINUOUS
10
6.81028
20
-3.59992
11
6.81101
21
-3.60081
0
LINE
8
BLACK
6
CONTINUOUS
10
6.81101
20
-3.60081
11
6.81156
21
-3.60183
0
LINE
8
BLACK
6
CONTINUOUS
10
6.81156
20
-3.60183
11
6.81189
21
-3.60294
0
LINE
8
BLACK
6
CONTINUOUS
10
6.81189
20
-3.60294
11
6.81201
21
-3.60409
0
LINE
8
BLACK
6
CONTINUOUS
10
6.81201
20
-3.60409
11
6.81201
21
-3.61591
0
LINE
8
BLACK
6
CONTINUOUS
10
6.81201
20
-3.61591
11
6.81189
21
-3.61706
0
LINE
8
BLACK
6
CONTINUOUS
10
6.81189
20
-3.61706
11
6.81156
21
-3.61817
0
LINE
8
BLACK
6
CONTINUOUS
10
6.81156
20
-3.61817
11
6.81101
21
-3.61919
0
LINE
8
BLACK
6
CONTINUOUS
10
6.81101
20
-3.61919
11
6.81028
21
-3.62008
0
LINE
8
BLACK
6
CONTINUOUS
10
6.81028
20
-3.62008
11
6.80938
21
-3.62082
0
LINE
8
BLACK
6
CONTINUOUS
10
6.80938
20
-3.62082
11
6.80836
21
-3.62136
0
LINE
8
BLACK
6
CONTINUOUS
10
6.80836
20
-3.62136
11
6.80725
21
-3.6217
0
LINE
8
BLACK
6
CONTINUOUS
10
6.80725
20
-3.6217
11
6.8061
21
-3.62181
0
LINE
8
BLACK
6
CONTINUOUS
10
6.8061
20
-3.62181
11
6.7372
21
-3.62181
0
LINE
8
BLACK
6
CONTINUOUS
10
6.7372
20
-3.62181
11
6.73605
21
-3.6217
0
LINE
8
BLACK
6
CONTINUOUS
10
6.73605
20
-3.6217
11
6.73494
21
-3.62136
0
LINE
8
BLACK
6
CONTINUOUS
10
6.73494
20
-3.62136
11
6.73392
21
-3.62082
0
LINE
8
BLACK
6
CONTINUOUS
10
6.73392
20
-3.62082
11
6.73303
21
-3.62008
0
LINE
8
BLACK
6
CONTINUOUS
10
6.73303
20
-3.62008
11
6.73229
21
-3.61919
0
LINE
8
BLACK
6
CONTINUOUS
10
6.73229
20
-3.61919
11
6.73175
21
-3.61817
0
LINE
8
BLACK
6
CONTINUOUS
10
6.73175
20
-3.61817
11
6.73141
21
-3.61706
0
LINE
8
BLACK
6
CONTINUOUS
10
6.73141
20
-3.61706
11
6.7313
21
-3.61591
0
LINE
8
BLACK
6
CONTINUOUS
10
6.7313
20
-3.61591
11
6.7313
21
-3.60409
0
LINE
8
BLACK
6
CONTINUOUS
10
6.7313
20
-3.60409
11
6.73141
21
-3.60294
0
LINE
8
BLACK
6
CONTINUOUS
10
6.73141
20
-3.60294
11
6.73175
21
-3.60183
0
LINE
8
BLACK
6
CONTINUOUS
10
6.73175
20
-3.60183
11
6.73229
21
-3.60081
0
LINE
8
BLACK
6
CONTINUOUS
10
6.73229
20
-3.60081
11
6.73303
21
-3.59992
0
LINE
8
BLACK
6
CONTINUOUS
10
6.73303
20
-3.59992
11
6.73392
21
-3.59918
0
LINE
8
BLACK
6
CONTINUOUS
10
6.73392
20
-3.59918
11
6.73494
21
-3.59864
0
LINE
8
BLACK
6
CONTINUOUS
10
6.73494
20
-3.59864
11
6.73605
21
-3.5983
0
LINE
8
BLACK
6
CONTINUOUS
10
6.73605
20
-3.5983
11
6.7372
21
-3.59819
0
LINE
8
BLACK
6
CONTINUOUS
10
6.7372
20
-3.59819
11
6.8061
21
-3.59819
0
LINE
8
BLACK
6
CONTINUOUS
10
6.8061
20
-3.59819
11
6.80725
21
-3.5983
0
LINE
8
BLACK
6
CONTINUOUS
10
6.44111
20
-3.5483
11
6.44222
21
-3.54864
0
LINE
8
BLACK
6
CONTINUOUS
10
6.44222
20
-3.54864
11
6.44324
21
-3.54918
0
LINE
8
BLACK
6
CONTINUOUS
10
6.44324
20
-3.54918
11
6.44414
21
-3.54992
0
LINE
8
BLACK
6
CONTINUOUS
10
6.44414
20
-3.54992
11
6.44487
21
-3.55081
0
LINE
8
BLACK
6
CONTINUOUS
10
6.44487
20
-3.55081
11
6.44542
21
-3.55183
0
LINE
8
BLACK
6
CONTINUOUS
10
6.44542
20
-3.55183
11
6.44575
21
-3.55294
0
LINE
8
BLACK
6
CONTINUOUS
10
6.44575
20
-3.55294
11
6.44587
21
-3.55409
0
LINE
8
BLACK
6
CONTINUOUS
10
6.44587
20
-3.55409
11
6.44587
21
-3.56591
0
LINE
8
BLACK
6
CONTINUOUS
10
6.44587
20
-3.56591
11
6.44575
21
-3.56706
0
LINE
8
BLACK
6
CONTINUOUS
10
6.44575
20
-3.56706
11
6.44542
21
-3.56817
0
LINE
8
BLACK
6
CONTINUOUS
10
6.44542
20
-3.56817
11
6.44487
21
-3.56919
0
LINE
8
BLACK
6
CONTINUOUS
10
6.44487
20
-3.56919
11
6.44414
21
-3.57008
0
LINE
8
BLACK
6
CONTINUOUS
10
6.44414
20
-3.57008
11
6.44324
21
-3.57082
0
LINE
8
BLACK
6
CONTINUOUS
10
6.44324
20
-3.57082
11
6.44222
21
-3.57136
0
LINE
8
BLACK
6
CONTINUOUS
10
6.44222
20
-3.57136
11
6.44111
21
-3.5717
0
LINE
8
BLACK
6
CONTINUOUS
10
6.44111
20
-3.5717
11
6.43996
21
-3.57181
0
LINE
8
BLACK
6
CONTINUOUS
10
6.43996
20
-3.57181
11
6.37106
21
-3.57181
0
LINE
8
BLACK
6
CONTINUOUS
10
6.37106
20
-3.57181
11
6.36991
21
-3.5717
0
LINE
8
BLACK
6
CONTINUOUS
10
6.36991
20
-3.5717
11
6.3688
21
-3.57136
0
LINE
8
BLACK
6
CONTINUOUS
10
6.3688
20
-3.57136
11
6.36778
21
-3.57082
0
LINE
8
BLACK
6
CONTINUOUS
10
6.36778
20
-3.57082
11
6.36689
21
-3.57008
0
LINE
8
BLACK
6
CONTINUOUS
10
6.36689
20
-3.57008
11
6.36615
21
-3.56919
0
LINE
8
BLACK
6
CONTINUOUS
10
6.36615
20
-3.56919
11
6.36561
21
-3.56817
0
LINE
8
BLACK
6
CONTINUOUS
10
6.36561
20
-3.56817
11
6.36527
21
-3.56706
0
LINE
8
BLACK
6
CONTINUOUS
10
6.36527
20
-3.56706
11
6.36516
21
-3.56591
0
LINE
8
BLACK
6
CONTINUOUS
10
6.36516
20
-3.56591
11
6.36516
21
-3.55409
0
LINE
8
BLACK
6
CONTINUOUS
10
6.36516
20
-3.55409
11
6.36527
21
-3.55294
0
LINE
8
BLACK
6
CONTINUOUS
10
6.36527
20
-3.55294
11
6.36561
21
-3.55183
0
LINE
8
BLACK
6
CONTINUOUS
10
6.36561
20
-3.55183
11
6.36615
21
-3.55081
0
LINE
8
BLACK
6
CONTINUOUS
10
6.36615
20
-3.55081
11
6.36689
21
-3.54992
0
LINE
8
BLACK
6
CONTINUOUS
10
6.36689
20
-3.54992
11
6.36778
21
-3.54918
0
LINE
8
BLACK
6
CONTINUOUS
10
6.36778
20
-3.54918
11
6.3688
21
-3.54864
0
LINE
8
BLACK
6
CONTINUOUS
10
6.3688
20
-3.54864
11
6.36991
21
-3.5483
0
LINE
8
BLACK
6
CONTINUOUS
10
6.36991
20
-3.5483
11
6.37106
21
-3.54819
0
LINE
8
BLACK
6
CONTINUOUS
10
6.37106
20
-3.54819
11
6.43996
21
-3.54819
0
LINE
8
BLACK
6
CONTINUOUS
10
6.43996
20
-3.54819
11
6.44111
21
-3.5483
0
LINE
8
BLACK
6
CONTINUOUS
10
6.80725
20
-3.5483
11
6.80836
21
-3.54864
0
LINE
8
BLACK
6
CONTINUOUS
10
6.80836
20
-3.54864
11
6.80938
21
-3.54918
0
LINE
8
BLACK
6
CONTINUOUS
10
6.80938
20
-3.54918
11
6.81028
21
-3.54992
0
LINE
8
BLACK
6
CONTINUOUS
10
6.81028
20
-3.54992
11
6.81101
21
-3.55081
0
LINE
8
BLACK
6
CONTINUOUS
10
6.81101
20
-3.55081
11
6.81156
21
-3.55183
0
LINE
8
BLACK
6
CONTINUOUS
10
6.81156
20
-3.55183
11
6.81189
21
-3.55294
0
LINE
8
BLACK
6
CONTINUOUS
10
6.81189
20
-3.55294
11
6.81201
21
-3.55409
0
LINE
8
BLACK
6
CONTINUOUS
10
6.81201
20
-3.55409
11
6.81201
21
-3.56591
0
LINE
8
BLACK
6
CONTINUOUS
10
6.81201
20
-3.56591
11
6.81189
21
-3.56706
0
LINE
8
BLACK
6
CONTINUOUS
10
6.81189
20
-3.56706
11
6.81156
21
-3.56817
0
LINE
8
BLACK
6
CONTINUOUS
10
6.81156
20
-3.56817
11
6.81101
21
-3.56919
0
LINE
8
BLACK
6
CONTINUOUS
10
6.81101
20
-3.56919
11
6.81028
21
-3.57008
0
LINE
8
BLACK
6
CONTINUOUS
10
6.81028
20
-3.57008
11
6.80938
21
-3.57082
0
LINE
8
BLACK
6
CONTINUOUS
10
6.80938
20
-3.57082
11
6.80836
21
-3.57136
0
LINE
8
BLACK
6
CONTINUOUS
10
6.80836
20
-3.57136
11
6.80725
21
-3.5717
0
LINE
8
BLACK
6
CONTINUOUS
10
6.80725
20
-3.5717
11
6.8061
21
-3.57181
0
LINE
8
BLACK
6
CONTINUOUS
10
6.8061
20
-3.57181
11
6.7372
21
-3.57181
0
LINE
8
BLACK
6
CONTINUOUS
10
6.7372
20
-3.57181
11
6.73605
21
-3.5717
0
LINE
8
BLACK
6
CONTINUOUS
10
6.73605
20
-3.5717
11
6.73494
21
-3.57136
0
LINE
8
BLACK
6
CONTINUOUS
10
6.73494
20
-3.57136
11
6.73392
21
-3.57082
0
LINE
8
BLACK
6
CONTINUOUS
10
6.73392
20
-3.57082
11
6.73303
21
-3.57008
0
LINE
8
BLACK
6
CONTINUOUS
10
6.73303
20
-3.57008
11
6.73229
21
-3.56919
0
LINE
8
BLACK
6
CONTINUOUS
10
6.73229
20
-3.56919
11
6.73175
21
-3.56817
0
LINE
8
BLACK
6
CONTINUOUS
10
6.73175
20
-3.56817
11
6.73141
21
-3.56706
0
LINE
8
BLACK
6
CONTINUOUS
10
6.73141
20
-3.56706
11
6.7313
21
-3.56591
0
LINE
8
BLACK
6
CONTINUOUS
10
6.7313
20
-3.56591
11
6.7313
21
-3.55409
0
LINE
8
BLACK
6
CONTINUOUS
10
6.7313
20
-3.55409
11
6.73141
21
-3.55294
0
LINE
8
BLACK
6
CONTINUOUS
10
6.73141
20
-3.55294
11
6.73175
21
-3.55183
0
LINE
8
BLACK
6
CONTINUOUS
10
6.73175
20
-3.55183
11
6.73229
21
-3.55081
0
LINE
8
BLACK
6
CONTINUOUS
10
6.73229
20
-3.55081
11
6.73303
21
-3.54992
0
LINE
8
BLACK
6
CONTINUOUS
10
6.73303
20
-3.54992
11
6.73392
21
-3.54918
0
LINE
8
BLACK
6
CONTINUOUS
10
6.73392
20
-3.54918
11
6.73494
21
-3.54864
0
LINE
8
BLACK
6
CONTINUOUS
10
6.73494
20
-3.54864
11
6.73605
21
-3.5483
0
LINE
8
BLACK
6
CONTINUOUS
10
6.73605
20
-3.5483
11
6.7372
21
-3.54819
0
LINE
8
BLACK
6
CONTINUOUS
10
6.7372
20
-3.54819
11
6.8061
21
-3.54819
0
LINE
8
BLACK
6
CONTINUOUS
10
6.8061
20
-3.54819
11
6.80725
21
-3.5483
0
LINE
8
BLACK
6
CONTINUOUS
10
6.08783
20
-3.5315
11
6.06618
21
-3.5315
0
LINE
8
BLACK
6
CONTINUOUS
10
6.06618
20
-3.5315
11
6.06618
21
-3.4685
0
LINE
8
BLACK
6
CONTINUOUS
10
6.06618
20
-3.4685
11
6.08783
21
-3.4685
0
LINE
8
BLACK
6
CONTINUOUS
10
6.08783
20
-3.4685
11
6.08783
21
-3.5315
0
LINE
8
BLACK
6
CONTINUOUS
10
6.24531
20
-3.5315
11
6.22366
21
-3.5315
0
LINE
8
BLACK
6
CONTINUOUS
10
6.22366
20
-3.5315
11
6.22366
21
-3.4685
0
LINE
8
BLACK
6
CONTINUOUS
10
6.22366
20
-3.4685
11
6.24531
21
-3.4685
0
LINE
8
BLACK
6
CONTINUOUS
10
6.24531
20
-3.4685
11
6.24531
21
-3.5315
0
LINE
8
BLACK
6
CONTINUOUS
10
6.21382
20
-3.5315
11
6.19217
21
-3.5315
0
LINE
8
BLACK
6
CONTINUOUS
10
6.19217
20
-3.5315
11
6.19217
21
-3.4685
0
LINE
8
BLACK
6
CONTINUOUS
10
6.19217
20
-3.4685
11
6.21382
21
-3.4685
0
LINE
8
BLACK
6
CONTINUOUS
10
6.21382
20
-3.4685
11
6.21382
21
-3.5315
0
LINE
8
BLACK
6
CONTINUOUS
10
6.18232
20
-3.5315
11
6.16067
21
-3.5315
0
LINE
8
BLACK
6
CONTINUOUS
10
6.16067
20
-3.5315
11
6.16067
21
-3.4685
0
LINE
8
BLACK
6
CONTINUOUS
10
6.16067
20
-3.4685
11
6.18232
21
-3.4685
0
LINE
8
BLACK
6
CONTINUOUS
10
6.18232
20
-3.4685
11
6.18232
21
-3.5315
0
LINE
8
BLACK
6
CONTINUOUS
10
6.15083
20
-3.5315
11
6.12917
21
-3.5315
0
LINE
8
BLACK
6
CONTINUOUS
10
6.12917
20
-3.5315
11
6.12917
21
-3.4685
0
LINE
8
BLACK
6
CONTINUOUS
10
6.12917
20
-3.4685
11
6.15083
21
-3.4685
0
LINE
8
BLACK
6
CONTINUOUS
10
6.15083
20
-3.4685
11
6.15083
21
-3.5315
0
LINE
8
BLACK
6
CONTINUOUS
10
6.02484
20
-3.5315
11
6.00319
21
-3.5315
0
LINE
8
BLACK
6
CONTINUOUS
10
6.00319
20
-3.5315
11
6.00319
21
-3.4685
0
LINE
8
BLACK
6
CONTINUOUS
10
6.00319
20
-3.4685
11
6.02484
21
-3.4685
0
LINE
8
BLACK
6
CONTINUOUS
10
6.02484
20
-3.4685
11
6.02484
21
-3.5315
0
LINE
8
BLACK
6
CONTINUOUS
10
6.05634
20
-3.5315
11
6.03469
21
-3.5315
0
LINE
8
BLACK
6
CONTINUOUS
10
6.03469
20
-3.5315
11
6.03469
21
-3.4685
0
LINE
8
BLACK
6
CONTINUOUS
10
6.03469
20
-3.4685
11
6.05634
21
-3.4685
0
LINE
8
BLACK
6
CONTINUOUS
10
6.05634
20
-3.4685
11
6.05634
21
-3.5315
0
LINE
8
BLACK
6
CONTINUOUS
10
6.11933
20
-3.5315
11
6.09768
21
-3.5315
0
LINE
8
BLACK
6
CONTINUOUS
10
6.09768
20
-3.5315
11
6.09768
21
-3.4685
0
LINE
8
BLACK
6
CONTINUOUS
10
6.09768
20
-3.4685
11
6.11933
21
-3.4685
0
LINE
8
BLACK
6
CONTINUOUS
10
6.11933
20
-3.4685
11
6.11933
21
-3.5315
0
LINE
8
BLACK
6
CONTINUOUS
10
6.9685
20
-3.53031
11
6.88976
21
-3.53031
0
LINE
8
BLACK
6
CONTINUOUS
10
6.88976
20
-3.53031
11
6.88976
21
-3.35315
0
LINE
8
BLACK
6
CONTINUOUS
10
6.88976
20
-3.35315
11
6.9685
21
-3.35315
0
LINE
8
BLACK
6
CONTINUOUS
10
6.9685
20
-3.35315
11
6.9685
21
-3.53031
0
LINE
8
BLACK
6
CONTINUOUS
10
6.44111
20
-3.4983
11
6.44222
21
-3.49864
0
LINE
8
BLACK
6
CONTINUOUS
10
6.44222
20
-3.49864
11
6.44324
21
-3.49918
0
LINE
8
BLACK
6
CONTINUOUS
10
6.44324
20
-3.49918
11
6.44414
21
-3.49992
0
LINE
8
BLACK
6
CONTINUOUS
10
6.44414
20
-3.49992
11
6.44487
21
-3.50081
0
LINE
8
BLACK
6
CONTINUOUS
10
6.44487
20
-3.50081
11
6.44542
21
-3.50183
0
LINE
8
BLACK
6
CONTINUOUS
10
6.44542
20
-3.50183
11
6.44575
21
-3.50294
0
LINE
8
BLACK
6
CONTINUOUS
10
6.44575
20
-3.50294
11
6.44587
21
-3.50409
0
LINE
8
BLACK
6
CONTINUOUS
10
6.44587
20
-3.50409
11
6.44587
21
-3.51591
0
LINE
8
BLACK
6
CONTINUOUS
10
6.44587
20
-3.51591
11
6.44575
21
-3.51706
0
LINE
8
BLACK
6
CONTINUOUS
10
6.44575
20
-3.51706
11
6.44542
21
-3.51817
0
LINE
8
BLACK
6
CONTINUOUS
10
6.44542
20
-3.51817
11
6.44487
21
-3.51919
0
LINE
8
BLACK
6
CONTINUOUS
10
6.44487
20
-3.51919
11
6.44414
21
-3.52008
0
LINE
8
BLACK
6
CONTINUOUS
10
6.44414
20
-3.52008
11
6.44324
21
-3.52082
0
LINE
8
BLACK
6
CONTINUOUS
10
6.44324
20
-3.52082
11
6.44222
21
-3.52136
0
LINE
8
BLACK
6
CONTINUOUS
10
6.44222
20
-3.52136
11
6.44111
21
-3.5217
0
LINE
8
BLACK
6
CONTINUOUS
10
6.44111
20
-3.5217
11
6.43996
21
-3.52181
0
LINE
8
BLACK
6
CONTINUOUS
10
6.43996
20
-3.52181
11
6.37106
21
-3.52181
0
LINE
8
BLACK
6
CONTINUOUS
10
6.37106
20
-3.52181
11
6.36991
21
-3.5217
0
LINE
8
BLACK
6
CONTINUOUS
10
6.36991
20
-3.5217
11
6.3688
21
-3.52136
0
LINE
8
BLACK
6
CONTINUOUS
10
6.3688
20
-3.52136
11
6.36778
21
-3.52082
0
LINE
8
BLACK
6
CONTINUOUS
10
6.36778
20
-3.52082
11
6.36689
21
-3.52008
0
LINE
8
BLACK
6
CONTINUOUS
10
6.36689
20
-3.52008
11
6.36615
21
-3.51919
0
LINE
8
BLACK
6
CONTINUOUS
10
6.36615
20
-3.51919
11
6.36561
21
-3.51817
0
LINE
8
BLACK
6
CONTINUOUS
10
6.36561
20
-3.51817
11
6.36527
21
-3.51706
0
LINE
8
BLACK
6
CONTINUOUS
10
6.36527
20
-3.51706
11
6.36516
21
-3.51591
0
LINE
8
BLACK
6
CONTINUOUS
10
6.36516
20
-3.51591
11
6.36516
21
-3.50409
0
LINE
8
BLACK
6
CONTINUOUS
10
6.36516
20
-3.50409
11
6.36527
21
-3.50294
0
LINE
8
BLACK
6
CONTINUOUS
10
6.36527
20
-3.50294
11
6.36561
21
-3.50183
0
LINE
8
BLACK
6
CONTINUOUS
10
6.36561
20
-3.50183
11
6.36615
21
-3.50081
0
LINE
8
BLACK
6
CONTINUOUS
10
6.36615
20
-3.50081
11
6.36689
21
-3.49992
0
LINE
8
BLACK
6
CONTINUOUS
10
6.36689
20
-3.49992
11
6.36778
21
-3.49918
0
LINE
8
BLACK
6
CONTINUOUS
10
6.36778
20
-3.49918
11
6.3688
21
-3.49864
0
LINE
8
BLACK
6
CONTINUOUS
10
6.3688
20
-3.49864
11
6.36991
21
-3.4983
0
LINE
8
BLACK
6
CONTINUOUS
10
6.36991
20
-3.4983
11
6.37106
21
-3.49819
0
LINE
8
BLACK
6
CONTINUOUS
10
6.37106
20
-3.49819
11
6.43996
21
-3.49819
0
LINE
8
BLACK
6
CONTINUOUS
10
6.43996
20
-3.49819
11
6.44111
21
-3.4983
0
LINE
8
BLACK
6
CONTINUOUS
10
6.80725
20
-3.4983
11
6.80836
21
-3.49864
0
LINE
8
BLACK
6
CONTINUOUS
10
6.80836
20
-3.49864
11
6.80938
21
-3.49918
0
LINE
8
BLACK
6
CONTINUOUS
10
6.80938
20
-3.49918
11
6.81028
21
-3.49992
0
LINE
8
BLACK
6
CONTINUOUS
10
6.81028
20
-3.49992
11
6.81101
21
-3.50081
0
LINE
8
BLACK
6
CONTINUOUS
10
6.81101
20
-3.50081
11
6.81156
21
-3.50183
0
LINE
8
BLACK
6
CONTINUOUS
10
6.81156
20
-3.50183
11
6.81189
21
-3.50294
0
LINE
8
BLACK
6
CONTINUOUS
10
6.81189
20
-3.50294
11
6.81201
21
-3.50409
0
LINE
8
BLACK
6
CONTINUOUS
10
6.81201
20
-3.50409
11
6.81201
21
-3.51591
0
LINE
8
BLACK
6
CONTINUOUS
10
6.81201
20
-3.51591
11
6.81189
21
-3.51706
0
LINE
8
BLACK
6
CONTINUOUS
10
6.81189
20
-3.51706
11
6.81156
21
-3.51817
0
LINE
8
BLACK
6
CONTINUOUS
10
6.81156
20
-3.51817
11
6.81101
21
-3.51919
0
LINE
8
BLACK
6
CONTINUOUS
10
6.81101
20
-3.51919
11
6.81028
21
-3.52008
0
LINE
8
BLACK
6
CONTINUOUS
10
6.81028
20
-3.52008
11
6.80938
21
-3.52082
0
LINE
8
BLACK
6
CONTINUOUS
10
6.80938
20
-3.52082
11
6.80836
21
-3.52136
0
LINE
8
BLACK
6
CONTINUOUS
10
6.80836
20
-3.52136
11
6.80725
21
-3.5217
0
LINE
8
BLACK
6
CONTINUOUS
10
6.80725
20
-3.5217
11
6.8061
21
-3.52181
0
LINE
8
BLACK
6
CONTINUOUS
10
6.8061
20
-3.52181
11
6.7372
21
-3.52181
0
LINE
8
BLACK
6
CONTINUOUS
10
6.7372
20
-3.52181
11
6.73605
21
-3.5217
0
LINE
8
BLACK
6
CONTINUOUS
10
6.73605
20
-3.5217
11
6.73494
21
-3.52136
0
LINE
8
BLACK
6
CONTINUOUS
10
6.73494
20
-3.52136
11
6.73392
21
-3.52082
0
LINE
8
BLACK
6
CONTINUOUS
10
6.73392
20
-3.52082
11
6.73303
21
-3.52008
0
LINE
8
BLACK
6
CONTINUOUS
10
6.73303
20
-3.52008
11
6.73229
21
-3.51919
0
LINE
8
BLACK
6
CONTINUOUS
10
6.73229
20
-3.51919
11
6.73175
21
-3.51817
0
LINE
8
BLACK
6
CONTINUOUS
10
6.73175
20
-3.51817
11
6.73141
21
-3.51706
0
LINE
8
BLACK
6
CONTINUOUS
10
6.73141
20
-3.51706
11
6.7313
21
-3.51591
0
LINE
8
BLACK
6
CONTINUOUS
10
6.7313
20
-3.51591
11
6.7313
21
-3.50409
0
LINE
8
BLACK
6
CONTINUOUS
10
6.7313
20
-3.50409
11
6.73141
21
-3.50294
0
LINE
8
BLACK
6
CONTINUOUS
10
6.73141
20
-3.50294
11
6.73175
21
-3.50183
0
LINE
8
BLACK
6
CONTINUOUS
10
6.73175
20
-3.50183
11
6.73229
21
-3.50081
0
LINE
8
BLACK
6
CONTINUOUS
10
6.73229
20
-3.50081
11
6.73303
21
-3.49992
0
LINE
8
BLACK
6
CONTINUOUS
10
6.73303
20
-3.49992
11
6.73392
21
-3.49918
0
LINE
8
BLACK
6
CONTINUOUS
10
6.73392
20
-3.49918
11
6.73494
21
-3.49864
0
LINE
8
BLACK
6
CONTINUOUS
10
6.73494
20
-3.49864
11
6.73605
21
-3.4983
0
LINE
8
BLACK
6
CONTINUOUS
10
6.73605
20
-3.4983
11
6.7372
21
-3.49819
0
LINE
8
BLACK
6
CONTINUOUS
10
6.7372
20
-3.49819
11
6.8061
21
-3.49819
0
LINE
8
BLACK
6
CONTINUOUS
10
6.8061
20
-3.49819
11
6.80725
21
-3.4983
0
LINE
8
BLACK
6
CONTINUOUS
10
6.44111
20
-3.4483
11
6.44222
21
-3.44864
0
LINE
8
BLACK
6
CONTINUOUS
10
6.44222
20
-3.44864
11
6.44324
21
-3.44918
0
LINE
8
BLACK
6
CONTINUOUS
10
6.44324
20
-3.44918
11
6.44414
21
-3.44992
0
LINE
8
BLACK
6
CONTINUOUS
10
6.44414
20
-3.44992
11
6.44487
21
-3.45081
0
LINE
8
BLACK
6
CONTINUOUS
10
6.44487
20
-3.45081
11
6.44542
21
-3.45183
0
LINE
8
BLACK
6
CONTINUOUS
10
6.44542
20
-3.45183
11
6.44575
21
-3.45294
0
LINE
8
BLACK
6
CONTINUOUS
10
6.44575
20
-3.45294
11
6.44587
21
-3.45409
0
LINE
8
BLACK
6
CONTINUOUS
10
6.44587
20
-3.45409
11
6.44587
21
-3.46591
0
LINE
8
BLACK
6
CONTINUOUS
10
6.44587
20
-3.46591
11
6.44575
21
-3.46706
0
LINE
8
BLACK
6
CONTINUOUS
10
6.44575
20
-3.46706
11
6.44542
21
-3.46817
0
LINE
8
BLACK
6
CONTINUOUS
10
6.44542
20
-3.46817
11
6.44487
21
-3.46919
0
LINE
8
BLACK
6
CONTINUOUS
10
6.44487
20
-3.46919
11
6.44414
21
-3.47008
0
LINE
8
BLACK
6
CONTINUOUS
10
6.44414
20
-3.47008
11
6.44324
21
-3.47082
0
LINE
8
BLACK
6
CONTINUOUS
10
6.44324
20
-3.47082
11
6.44222
21
-3.47136
0
LINE
8
BLACK
6
CONTINUOUS
10
6.44222
20
-3.47136
11
6.44111
21
-3.4717
0
LINE
8
BLACK
6
CONTINUOUS
10
6.44111
20
-3.4717
11
6.43996
21
-3.47181
0
LINE
8
BLACK
6
CONTINUOUS
10
6.43996
20
-3.47181
11
6.37106
21
-3.47181
0
LINE
8
BLACK
6
CONTINUOUS
10
6.37106
20
-3.47181
11
6.36991
21
-3.4717
0
LINE
8
BLACK
6
CONTINUOUS
10
6.36991
20
-3.4717
11
6.3688
21
-3.47136
0
LINE
8
BLACK
6
CONTINUOUS
10
6.3688
20
-3.47136
11
6.36778
21
-3.47082
0
LINE
8
BLACK
6
CONTINUOUS
10
6.36778
20
-3.47082
11
6.36689
21
-3.47008
0
LINE
8
BLACK
6
CONTINUOUS
10
6.36689
20
-3.47008
11
6.36615
21
-3.46919
0
LINE
8
BLACK
6
CONTINUOUS
10
6.36615
20
-3.46919
11
6.36561
21
-3.46817
0
LINE
8
BLACK
6
CONTINUOUS
10
6.36561
20
-3.46817
11
6.36527
21
-3.46706
0
LINE
8
BLACK
6
CONTINUOUS
10
6.36527
20
-3.46706
11
6.36516
21
-3.46591
0
LINE
8
BLACK
6
CONTINUOUS
10
6.36516
20
-3.46591
11
6.36516
21
-3.45409
0
LINE
8
BLACK
6
CONTINUOUS
10
6.36516
20
-3.45409
11
6.36527
21
-3.45294
0
LINE
8
BLACK
6
CONTINUOUS
10
6.36527
20
-3.45294
11
6.36561
21
-3.45183
0
LINE
8
BLACK
6
CONTINUOUS
10
6.36561
20
-3.45183
11
6.36615
21
-3.45081
0
LINE
8
BLACK
6
CONTINUOUS
10
6.36615
20
-3.45081
11
6.36689
21
-3.44992
0
LINE
8
BLACK
6
CONTINUOUS
10
6.36689
20
-3.44992
11
6.36778
21
-3.44918
0
LINE
8
BLACK
6
CONTINUOUS
10
6.36778
20
-3.44918
11
6.3688
21
-3.44864
0
LINE
8
BLACK
6
CONTINUOUS
10
6.3688
20
-3.44864
11
6.36991
21
-3.4483
0
LINE
8
BLACK
6
CONTINUOUS
10
6.36991
20
-3.4483
11
6.37106
21
-3.44819
0
LINE
8
BLACK
6
CONTINUOUS
10
6.37106
20
-3.44819
11
6.43996
21
-3.44819
0
LINE
8
BLACK
6
CONTINUOUS
10
6.43996
20
-3.44819
11
6.44111
21
-3.4483
0
LINE
8
BLACK
6
CONTINUOUS
10
6.80725
20
-3.4483
11
6.80836
21
-3.44864
0
LINE
8
BLACK
6
CONTINUOUS
10
6.80836
20
-3.44864
11
6.80938
21
-3.44918
0
LINE
8
BLACK
6
CONTINUOUS
10
6.80938
20
-3.44918
11
6.81028
21
-3.44992
0
LINE
8
BLACK
6
CONTINUOUS
10
6.81028
20
-3.44992
11
6.81101
21
-3.45081
0
LINE
8
BLACK
6
CONTINUOUS
10
6.81101
20
-3.45081
11
6.81156
21
-3.45183
0
LINE
8
BLACK
6
CONTINUOUS
10
6.81156
20
-3.45183
11
6.81189
21
-3.45294
0
LINE
8
BLACK
6
CONTINUOUS
10
6.81189
20
-3.45294
11
6.81201
21
-3.45409
0
LINE
8
BLACK
6
CONTINUOUS
10
6.81201
20
-3.45409
11
6.81201
21
-3.46591
0
LINE
8
BLACK
6
CONTINUOUS
10
6.81201
20
-3.46591
11
6.81189
21
-3.46706
0
LINE
8
BLACK
6
CONTINUOUS
10
6.81189
20
-3.46706
11
6.81156
21
-3.46817
0
LINE
8
BLACK
6
CONTINUOUS
10
6.81156
20
-3.46817
11
6.81101
21
-3.46919
0
LINE
8
BLACK
6
CONTINUOUS
10
6.81101
20
-3.46919
11
6.81028
21
-3.47008
0
LINE
8
BLACK
6
CONTINUOUS
10
6.81028
20
-3.47008
11
6.80938
21
-3.47082
0
LINE
8
BLACK
6
CONTINUOUS
10
6.80938
20
-3.47082
11
6.80836
21
-3.47136
0
LINE
8
BLACK
6
CONTINUOUS
10
6.80836
20
-3.47136
11
6.80725
21
-3.4717
0
LINE
8
BLACK
6
CONTINUOUS
10
6.80725
20
-3.4717
11
6.8061
21
-3.47181
0
LINE
8
BLACK
6
CONTINUOUS
10
6.8061
20
-3.47181
11
6.7372
21
-3.47181
0
LINE
8
BLACK
6
CONTINUOUS
10
6.7372
20
-3.47181
11
6.73605
21
-3.4717
0
LINE
8
BLACK
6
CONTINUOUS
10
6.73605
20
-3.4717
11
6.73494
21
-3.47136
0
LINE
8
BLACK
6
CONTINUOUS
10
6.73494
20
-3.47136
11
6.73392
21
-3.47082
0
LINE
8
BLACK
6
CONTINUOUS
10
6.73392
20
-3.47082
11
6.73303
21
-3.47008
0
LINE
8
BLACK
6
CONTINUOUS
10
6.73303
20
-3.47008
11
6.73229
21
-3.46919
0
LINE
8
BLACK
6
CONTINUOUS
10
6.73229
20
-3.46919
11
6.73175
21
-3.46817
0
LINE
8
BLACK
6
CONTINUOUS
10
6.73175
20
-3.46817
11
6.73141
21
-3.46706
0
LINE
8
BLACK
6
CONTINUOUS
10
6.73141
20
-3.46706
11
6.7313
21
-3.46591
0
LINE
8
BLACK
6
CONTINUOUS
10
6.7313
20
-3.46591
11
6.7313
21
-3.45409
0
LINE
8
BLACK
6
CONTINUOUS
10
6.7313
20
-3.45409
11
6.73141
21
-3.45294
0
LINE
8
BLACK
6
CONTINUOUS
10
6.73141
20
-3.45294
11
6.73175
21
-3.45183
0
LINE
8
BLACK
6
CONTINUOUS
10
6.73175
20
-3.45183
11
6.73229
21
-3.45081
0
LINE
8
BLACK
6
CONTINUOUS
10
6.73229
20
-3.45081
11
6.73303
21
-3.44992
0
LINE
8
BLACK
6
CONTINUOUS
10
6.73303
20
-3.44992
11
6.73392
21
-3.44918
0
LINE
8
BLACK
6
CONTINUOUS
10
6.73392
20
-3.44918
11
6.73494
21
-3.44864
0
LINE
8
BLACK
6
CONTINUOUS
10
6.73494
20
-3.44864
11
6.73605
21
-3.4483
0
LINE
8
BLACK
6
CONTINUOUS
10
6.73605
20
-3.4483
11
6.7372
21
-3.44819
0
LINE
8
BLACK
6
CONTINUOUS
10
6.7372
20
-3.44819
11
6.8061
21
-3.44819
0
LINE
8
BLACK
6
CONTINUOUS
10
6.8061
20
-3.44819
11
6.80725
21
-3.4483
0
LINE
8
BLACK
6
CONTINUOUS
10
6.32307
20
-3.45374
11
6.26008
21
-3.45374
0
LINE
8
BLACK
6
CONTINUOUS
10
6.26008
20
-3.45374
11
6.26008
21
-3.43209
0
LINE
8
BLACK
6
CONTINUOUS
10
6.26008
20
-3.43209
11
6.32307
21
-3.43209
0
LINE
8
BLACK
6
CONTINUOUS
10
6.32307
20
-3.43209
11
6.32307
21
-3.45374
0
LINE
8
BLACK
6
CONTINUOUS
10
5.98843
20
-3.45374
11
5.92543
21
-3.45374
0
LINE
8
BLACK
6
CONTINUOUS
10
5.92543
20
-3.45374
11
5.92543
21
-3.43209
0
LINE
8
BLACK
6
CONTINUOUS
10
5.92543
20
-3.43209
11
5.98843
21
-3.43209
0
LINE
8
BLACK
6
CONTINUOUS
10
5.98843
20
-3.43209
11
5.98843
21
-3.45374
0
LINE
8
BLACK
6
CONTINUOUS
10
6.32307
20
-3.42224
11
6.26008
21
-3.42224
0
LINE
8
BLACK
6
CONTINUOUS
10
6.26008
20
-3.42224
11
6.26008
21
-3.40059
0
LINE
8
BLACK
6
CONTINUOUS
10
6.26008
20
-3.40059
11
6.32307
21
-3.40059
0
LINE
8
BLACK
6
CONTINUOUS
10
6.32307
20
-3.40059
11
6.32307
21
-3.42224
0
LINE
8
BLACK
6
CONTINUOUS
10
5.98843
20
-3.42224
11
5.92543
21
-3.42224
0
LINE
8
BLACK
6
CONTINUOUS
10
5.92543
20
-3.42224
11
5.92543
21
-3.40059
0
LINE
8
BLACK
6
CONTINUOUS
10
5.92543
20
-3.40059
11
5.98843
21
-3.40059
0
LINE
8
BLACK
6
CONTINUOUS
10
5.98843
20
-3.40059
11
5.98843
21
-3.42224
0
LINE
8
BLACK
6
CONTINUOUS
10
6.44111
20
-3.3983
11
6.44222
21
-3.39864
0
LINE
8
BLACK
6
CONTINUOUS
10
6.44222
20
-3.39864
11
6.44324
21
-3.39918
0
LINE
8
BLACK
6
CONTINUOUS
10
6.44324
20
-3.39918
11
6.44414
21
-3.39992
0
LINE
8
BLACK
6
CONTINUOUS
10
6.44414
20
-3.39992
11
6.44487
21
-3.40081
0
LINE
8
BLACK
6
CONTINUOUS
10
6.44487
20
-3.40081
11
6.44542
21
-3.40183
0
LINE
8
BLACK
6
CONTINUOUS
10
6.44542
20
-3.40183
11
6.44575
21
-3.40294
0
LINE
8
BLACK
6
CONTINUOUS
10
6.44575
20
-3.40294
11
6.44587
21
-3.40409
0
LINE
8
BLACK
6
CONTINUOUS
10
6.44587
20
-3.40409
11
6.44587
21
-3.41591
0
LINE
8
BLACK
6
CONTINUOUS
10
6.44587
20
-3.41591
11
6.44575
21
-3.41706
0
LINE
8
BLACK
6
CONTINUOUS
10
6.44575
20
-3.41706
11
6.44542
21
-3.41817
0
LINE
8
BLACK
6
CONTINUOUS
10
6.44542
20
-3.41817
11
6.44487
21
-3.41919
0
LINE
8
BLACK
6
CONTINUOUS
10
6.44487
20
-3.41919
11
6.44414
21
-3.42008
0
LINE
8
BLACK
6
CONTINUOUS
10
6.44414
20
-3.42008
11
6.44324
21
-3.42082
0
LINE
8
BLACK
6
CONTINUOUS
10
6.44324
20
-3.42082
11
6.44222
21
-3.42136
0
LINE
8
BLACK
6
CONTINUOUS
10
6.44222
20
-3.42136
11
6.44111
21
-3.4217
0
LINE
8
BLACK
6
CONTINUOUS
10
6.44111
20
-3.4217
11
6.43996
21
-3.42181
0
LINE
8
BLACK
6
CONTINUOUS
10
6.43996
20
-3.42181
11
6.37106
21
-3.42181
0
LINE
8
BLACK
6
CONTINUOUS
10
6.37106
20
-3.42181
11
6.36991
21
-3.4217
0
LINE
8
BLACK
6
CONTINUOUS
10
6.36991
20
-3.4217
11
6.3688
21
-3.42136
0
LINE
8
BLACK
6
CONTINUOUS
10
6.3688
20
-3.42136
11
6.36778
21
-3.42082
0
LINE
8
BLACK
6
CONTINUOUS
10
6.36778
20
-3.42082
11
6.36689
21
-3.42008
0
LINE
8
BLACK
6
CONTINUOUS
10
6.36689
20
-3.42008
11
6.36615
21
-3.41919
0
LINE
8
BLACK
6
CONTINUOUS
10
6.36615
20
-3.41919
11
6.36561
21
-3.41817
0
LINE
8
BLACK
6
CONTINUOUS
10
6.36561
20
-3.41817
11
6.36527
21
-3.41706
0
LINE
8
BLACK
6
CONTINUOUS
10
6.36527
20
-3.41706
11
6.36516
21
-3.41591
0
LINE
8
BLACK
6
CONTINUOUS
10
6.36516
20
-3.41591
11
6.36516
21
-3.40409
0
LINE
8
BLACK
6
CONTINUOUS
10
6.36516
20
-3.40409
11
6.36527
21
-3.40294
0
LINE
8
BLACK
6
CONTINUOUS
10
6.36527
20
-3.40294
11
6.36561
21
-3.40183
0
LINE
8
BLACK
6
CONTINUOUS
10
6.36561
20
-3.40183
11
6.36615
21
-3.40081
0
LINE
8
BLACK
6
CONTINUOUS
10
6.36615
20
-3.40081
11
6.36689
21
-3.39992
0
LINE
8
BLACK
6
CONTINUOUS
10
6.36689
20
-3.39992
11
6.36778
21
-3.39918
0
LINE
8
BLACK
6
CONTINUOUS
10
6.36778
20
-3.39918
11
6.3688
21
-3.39864
0
LINE
8
BLACK
6
CONTINUOUS
10
6.3688
20
-3.39864
11
6.36991
21
-3.3983
0
LINE
8
BLACK
6
CONTINUOUS
10
6.36991
20
-3.3983
11
6.37106
21
-3.39819
0
LINE
8
BLACK
6
CONTINUOUS
10
6.37106
20
-3.39819
11
6.43996
21
-3.39819
0
LINE
8
BLACK
6
CONTINUOUS
10
6.43996
20
-3.39819
11
6.44111
21
-3.3983
0
LINE
8
BLACK
6
CONTINUOUS
10
6.80725
20
-3.3983
11
6.80836
21
-3.39864
0
LINE
8
BLACK
6
CONTINUOUS
10
6.80836
20
-3.39864
11
6.80938
21
-3.39918
0
LINE
8
BLACK
6
CONTINUOUS
10
6.80938
20
-3.39918
11
6.81028
21
-3.39992
0
LINE
8
BLACK
6
CONTINUOUS
10
6.81028
20
-3.39992
11
6.81101
21
-3.40081
0
LINE
8
BLACK
6
CONTINUOUS
10
6.81101
20
-3.40081
11
6.81156
21
-3.40183
0
LINE
8
BLACK
6
CONTINUOUS
10
6.81156
20
-3.40183
11
6.81189
21
-3.40294
0
LINE
8
BLACK
6
CONTINUOUS
10
6.81189
20
-3.40294
11
6.81201
21
-3.40409
0
LINE
8
BLACK
6
CONTINUOUS
10
6.81201
20
-3.40409
11
6.81201
21
-3.41591
0
LINE
8
BLACK
6
CONTINUOUS
10
6.81201
20
-3.41591
11
6.81189
21
-3.41706
0
LINE
8
BLACK
6
CONTINUOUS
10
6.81189
20
-3.41706
11
6.81156
21
-3.41817
0
LINE
8
BLACK
6
CONTINUOUS
10
6.81156
20
-3.41817
11
6.81101
21
-3.41919
0
LINE
8
BLACK
6
CONTINUOUS
10
6.81101
20
-3.41919
11
6.81028
21
-3.42008
0
LINE
8
BLACK
6
CONTINUOUS
10
6.81028
20
-3.42008
11
6.80938
21
-3.42082
0
LINE
8
BLACK
6
CONTINUOUS
10
6.80938
20
-3.42082
11
6.80836
21
-3.42136
0
LINE
8
BLACK
6
CONTINUOUS
10
6.80836
20
-3.42136
11
6.80725
21
-3.4217
0
LINE
8
BLACK
6
CONTINUOUS
10
6.80725
20
-3.4217
11
6.8061
21
-3.42181
0
LINE
8
BLACK
6
CONTINUOUS
10
6.8061
20
-3.42181
11
6.7372
21
-3.42181
0
LINE
8
BLACK
6
CONTINUOUS
10
6.7372
20
-3.42181
11
6.73605
21
-3.4217
0
LINE
8
BLACK
6
CONTINUOUS
10
6.73605
20
-3.4217
11
6.73494
21
-3.42136
0
LINE
8
BLACK
6
CONTINUOUS
10
6.73494
20
-3.42136
11
6.73392
21
-3.42082
0
LINE
8
BLACK
6
CONTINUOUS
10
6.73392
20
-3.42082
11
6.73303
21
-3.42008
0
LINE
8
BLACK
6
CONTINUOUS
10
6.73303
20
-3.42008
11
6.73229
21
-3.41919
0
LINE
8
BLACK
6
CONTINUOUS
10
6.73229
20
-3.41919
11
6.73175
21
-3.41817
0
LINE
8
BLACK
6
CONTINUOUS
10
6.73175
20
-3.41817
11
6.73141
21
-3.41706
0
LINE
8
BLACK
6
CONTINUOUS
10
6.73141
20
-3.41706
11
6.7313
21
-3.41591
0
LINE
8
BLACK
6
CONTINUOUS
10
6.7313
20
-3.41591
11
6.7313
21
-3.40409
0
LINE
8
BLACK
6
CONTINUOUS
10
6.7313
20
-3.40409
11
6.73141
21
-3.40294
0
LINE
8
BLACK
6
CONTINUOUS
10
6.73141
20
-3.40294
11
6.73175
21
-3.40183
0
LINE
8
BLACK
6
CONTINUOUS
10
6.73175
20
-3.40183
11
6.73229
21
-3.40081
0
LINE
8
BLACK
6
CONTINUOUS
10
6.73229
20
-3.40081
11
6.73303
21
-3.39992
0
LINE
8
BLACK
6
CONTINUOUS
10
6.73303
20
-3.39992
11
6.73392
21
-3.39918
0
LINE
8
BLACK
6
CONTINUOUS
10
6.73392
20
-3.39918
11
6.73494
21
-3.39864
0
LINE
8
BLACK
6
CONTINUOUS
10
6.73494
20
-3.39864
11
6.73605
21
-3.3983
0
LINE
8
BLACK
6
CONTINUOUS
10
6.73605
20
-3.3983
11
6.7372
21
-3.39819
0
LINE
8
BLACK
6
CONTINUOUS
10
6.7372
20
-3.39819
11
6.8061
21
-3.39819
0
LINE
8
BLACK
6
CONTINUOUS
10
6.8061
20
-3.39819
11
6.80725
21
-3.3983
0
LINE
8
BLACK
6
CONTINUOUS
10
5.82677
20
-3.39252
11
5.74803
21
-3.39252
0
LINE
8
BLACK
6
CONTINUOUS
10
5.74803
20
-3.39252
11
5.74803
21
-3.21535
0
LINE
8
BLACK
6
CONTINUOUS
10
5.74803
20
-3.21535
11
5.82677
21
-3.21535
0
LINE
8
BLACK
6
CONTINUOUS
10
5.82677
20
-3.21535
11
5.82677
21
-3.39252
0
LINE
8
BLACK
6
CONTINUOUS
10
6.32307
20
-3.39075
11
6.26008
21
-3.39075
0
LINE
8
BLACK
6
CONTINUOUS
10
6.26008
20
-3.39075
11
6.26008
21
-3.36909
0
LINE
8
BLACK
6
CONTINUOUS
10
6.26008
20
-3.36909
11
6.32307
21
-3.36909
0
LINE
8
BLACK
6
CONTINUOUS
10
6.32307
20
-3.36909
11
6.32307
21
-3.39075
0
LINE
8
BLACK
6
CONTINUOUS
10
5.98843
20
-3.39075
11
5.92543
21
-3.39075
0
LINE
8
BLACK
6
CONTINUOUS
10
5.92543
20
-3.39075
11
5.92543
21
-3.36909
0
LINE
8
BLACK
6
CONTINUOUS
10
5.92543
20
-3.36909
11
5.98843
21
-3.36909
0
LINE
8
BLACK
6
CONTINUOUS
10
5.98843
20
-3.36909
11
5.98843
21
-3.39075
0
LINE
8
BLACK
6
CONTINUOUS
10
6.80725
20
-3.3483
11
6.80836
21
-3.34864
0
LINE
8
BLACK
6
CONTINUOUS
10
6.80836
20
-3.34864
11
6.80938
21
-3.34918
0
LINE
8
BLACK
6
CONTINUOUS
10
6.80938
20
-3.34918
11
6.81028
21
-3.34992
0
LINE
8
BLACK
6
CONTINUOUS
10
6.81028
20
-3.34992
11
6.81101
21
-3.35081
0
LINE
8
BLACK
6
CONTINUOUS
10
6.81101
20
-3.35081
11
6.81156
21
-3.35183
0
LINE
8
BLACK
6
CONTINUOUS
10
6.81156
20
-3.35183
11
6.81189
21
-3.35294
0
LINE
8
BLACK
6
CONTINUOUS
10
6.81189
20
-3.35294
11
6.81201
21
-3.35409
0
LINE
8
BLACK
6
CONTINUOUS
10
6.81201
20
-3.35409
11
6.81201
21
-3.36591
0
LINE
8
BLACK
6
CONTINUOUS
10
6.81201
20
-3.36591
11
6.81189
21
-3.36706
0
LINE
8
BLACK
6
CONTINUOUS
10
6.81189
20
-3.36706
11
6.81156
21
-3.36817
0
LINE
8
BLACK
6
CONTINUOUS
10
6.81156
20
-3.36817
11
6.81101
21
-3.36919
0
LINE
8
BLACK
6
CONTINUOUS
10
6.81101
20
-3.36919
11
6.81028
21
-3.37008
0
LINE
8
BLACK
6
CONTINUOUS
10
6.81028
20
-3.37008
11
6.80938
21
-3.37082
0
LINE
8
BLACK
6
CONTINUOUS
10
6.80938
20
-3.37082
11
6.80836
21
-3.37136
0
LINE
8
BLACK
6
CONTINUOUS
10
6.80836
20
-3.37136
11
6.80725
21
-3.3717
0
LINE
8
BLACK
6
CONTINUOUS
10
6.80725
20
-3.3717
11
6.8061
21
-3.37181
0
LINE
8
BLACK
6
CONTINUOUS
10
6.8061
20
-3.37181
11
6.7372
21
-3.37181
0
LINE
8
BLACK
6
CONTINUOUS
10
6.7372
20
-3.37181
11
6.73605
21
-3.3717
0
LINE
8
BLACK
6
CONTINUOUS
10
6.73605
20
-3.3717
11
6.73494
21
-3.37136
0
LINE
8
BLACK
6
CONTINUOUS
10
6.73494
20
-3.37136
11
6.73392
21
-3.37082
0
LINE
8
BLACK
6
CONTINUOUS
10
6.73392
20
-3.37082
11
6.73303
21
-3.37008
0
LINE
8
BLACK
6
CONTINUOUS
10
6.73303
20
-3.37008
11
6.73229
21
-3.36919
0
LINE
8
BLACK
6
CONTINUOUS
10
6.73229
20
-3.36919
11
6.73175
21
-3.36817
0
LINE
8
BLACK
6
CONTINUOUS
10
6.73175
20
-3.36817
11
6.73141
21
-3.36706
0
LINE
8
BLACK
6
CONTINUOUS
10
6.73141
20
-3.36706
11
6.7313
21
-3.36591
0
LINE
8
BLACK
6
CONTINUOUS
10
6.7313
20
-3.36591
11
6.7313
21
-3.35409
0
LINE
8
BLACK
6
CONTINUOUS
10
6.7313
20
-3.35409
11
6.73141
21
-3.35294
0
LINE
8
BLACK
6
CONTINUOUS
10
6.73141
20
-3.35294
11
6.73175
21
-3.35183
0
LINE
8
BLACK
6
CONTINUOUS
10
6.73175
20
-3.35183
11
6.73229
21
-3.35081
0
LINE
8
BLACK
6
CONTINUOUS
10
6.73229
20
-3.35081
11
6.73303
21
-3.34992
0
LINE
8
BLACK
6
CONTINUOUS
10
6.73303
20
-3.34992
11
6.73392
21
-3.34918
0
LINE
8
BLACK
6
CONTINUOUS
10
6.73392
20
-3.34918
11
6.73494
21
-3.34864
0
LINE
8
BLACK
6
CONTINUOUS
10
6.73494
20
-3.34864
11
6.73605
21
-3.3483
0
LINE
8
BLACK
6
CONTINUOUS
10
6.73605
20
-3.3483
11
6.7372
21
-3.34819
0
LINE
8
BLACK
6
CONTINUOUS
10
6.7372
20
-3.34819
11
6.8061
21
-3.34819
0
LINE
8
BLACK
6
CONTINUOUS
10
6.8061
20
-3.34819
11
6.80725
21
-3.3483
0
LINE
8
BLACK
6
CONTINUOUS
10
6.44111
20
-3.3483
11
6.44222
21
-3.34864
0
LINE
8
BLACK
6
CONTINUOUS
10
6.44222
20
-3.34864
11
6.44324
21
-3.34918
0
LINE
8
BLACK
6
CONTINUOUS
10
6.44324
20
-3.34918
11
6.44414
21
-3.34992
0
LINE
8
BLACK
6
CONTINUOUS
10
6.44414
20
-3.34992
11
6.44487
21
-3.35081
0
LINE
8
BLACK
6
CONTINUOUS
10
6.44487
20
-3.35081
11
6.44542
21
-3.35183
0
LINE
8
BLACK
6
CONTINUOUS
10
6.44542
20
-3.35183
11
6.44575
21
-3.35294
0
LINE
8
BLACK
6
CONTINUOUS
10
6.44575
20
-3.35294
11
6.44587
21
-3.35409
0
LINE
8
BLACK
6
CONTINUOUS
10
6.44587
20
-3.35409
11
6.44587
21
-3.36591
0
LINE
8
BLACK
6
CONTINUOUS
10
6.44587
20
-3.36591
11
6.44575
21
-3.36706
0
LINE
8
BLACK
6
CONTINUOUS
10
6.44575
20
-3.36706
11
6.44542
21
-3.36817
0
LINE
8
BLACK
6
CONTINUOUS
10
6.44542
20
-3.36817
11
6.44487
21
-3.36919
0
LINE
8
BLACK
6
CONTINUOUS
10
6.44487
20
-3.36919
11
6.44414
21
-3.37008
0
LINE
8
BLACK
6
CONTINUOUS
10
6.44414
20
-3.37008
11
6.44324
21
-3.37082
0
LINE
8
BLACK
6
CONTINUOUS
10
6.44324
20
-3.37082
11
6.44222
21
-3.37136
0
LINE
8
BLACK
6
CONTINUOUS
10
6.44222
20
-3.37136
11
6.44111
21
-3.3717
0
LINE
8
BLACK
6
CONTINUOUS
10
6.44111
20
-3.3717
11
6.43996
21
-3.37181
0
LINE
8
BLACK
6
CONTINUOUS
10
6.43996
20
-3.37181
11
6.37106
21
-3.37181
0
LINE
8
BLACK
6
CONTINUOUS
10
6.37106
20
-3.37181
11
6.36991
21
-3.3717
0
LINE
8
BLACK
6
CONTINUOUS
10
6.36991
20
-3.3717
11
6.3688
21
-3.37136
0
LINE
8
BLACK
6
CONTINUOUS
10
6.3688
20
-3.37136
11
6.36778
21
-3.37082
0
LINE
8
BLACK
6
CONTINUOUS
10
6.36778
20
-3.37082
11
6.36689
21
-3.37008
0
LINE
8
BLACK
6
CONTINUOUS
10
6.36689
20
-3.37008
11
6.36615
21
-3.36919
0
LINE
8
BLACK
6
CONTINUOUS
10
6.36615
20
-3.36919
11
6.36561
21
-3.36817
0
LINE
8
BLACK
6
CONTINUOUS
10
6.36561
20
-3.36817
11
6.36527
21
-3.36706
0
LINE
8
BLACK
6
CONTINUOUS
10
6.36527
20
-3.36706
11
6.36516
21
-3.36591
0
LINE
8
BLACK
6
CONTINUOUS
10
6.36516
20
-3.36591
11
6.36516
21
-3.35409
0
LINE
8
BLACK
6
CONTINUOUS
10
6.36516
20
-3.35409
11
6.36527
21
-3.35294
0
LINE
8
BLACK
6
CONTINUOUS
10
6.36527
20
-3.35294
11
6.36561
21
-3.35183
0
LINE
8
BLACK
6
CONTINUOUS
10
6.36561
20
-3.35183
11
6.36615
21
-3.35081
0
LINE
8
BLACK
6
CONTINUOUS
10
6.36615
20
-3.35081
11
6.36689
21
-3.34992
0
LINE
8
BLACK
6
CONTINUOUS
10
6.36689
20
-3.34992
11
6.36778
21
-3.34918
0
LINE
8
BLACK
6
CONTINUOUS
10
6.36778
20
-3.34918
11
6.3688
21
-3.34864
0
LINE
8
BLACK
6
CONTINUOUS
10
6.3688
20
-3.34864
11
6.36991
21
-3.3483
0
LINE
8
BLACK
6
CONTINUOUS
10
6.36991
20
-3.3483
11
6.37106
21
-3.34819
0
LINE
8
BLACK
6
CONTINUOUS
10
6.37106
20
-3.34819
11
6.43996
21
-3.34819
0
LINE
8
BLACK
6
CONTINUOUS
10
6.43996
20
-3.34819
11
6.44111
21
-3.3483
0
LINE
8
BLACK
6
CONTINUOUS
10
5.98843
20
-3.35925
11
5.92543
21
-3.35925
0
LINE
8
BLACK
6
CONTINUOUS
10
5.92543
20
-3.35925
11
5.92543
21
-3.3376
0
LINE
8
BLACK
6
CONTINUOUS
10
5.92543
20
-3.3376
11
5.98843
21
-3.3376
0
LINE
8
BLACK
6
CONTINUOUS
10
5.98843
20
-3.3376
11
5.98843
21
-3.35925
0
LINE
8
BLACK
6
CONTINUOUS
10
6.32307
20
-3.35925
11
6.26008
21
-3.35925
0
LINE
8
BLACK
6
CONTINUOUS
10
6.26008
20
-3.35925
11
6.26008
21
-3.3376
0
LINE
8
BLACK
6
CONTINUOUS
10
6.26008
20
-3.3376
11
6.32307
21
-3.3376
0
LINE
8
BLACK
6
CONTINUOUS
10
6.32307
20
-3.3376
11
6.32307
21
-3.35925
0
LINE
8
BLACK
6
CONTINUOUS
10
5.98843
20
-3.32776
11
5.92543
21
-3.32776
0
LINE
8
BLACK
6
CONTINUOUS
10
5.92543
20
-3.32776
11
5.92543
21
-3.3061
0
LINE
8
BLACK
6
CONTINUOUS
10
5.92543
20
-3.3061
11
5.98843
21
-3.3061
0
LINE
8
BLACK
6
CONTINUOUS
10
5.98843
20
-3.3061
11
5.98843
21
-3.32776
0
LINE
8
BLACK
6
CONTINUOUS
10
6.32307
20
-3.32776
11
6.26008
21
-3.32776
0
LINE
8
BLACK
6
CONTINUOUS
10
6.26008
20
-3.32776
11
6.26008
21
-3.3061
0
LINE
8
BLACK
6
CONTINUOUS
10
6.26008
20
-3.3061
11
6.32307
21
-3.3061
0
LINE
8
BLACK
6
CONTINUOUS
10
6.32307
20
-3.3061
11
6.32307
21
-3.32776
0
LINE
8
BLACK
6
CONTINUOUS
10
6.91964
20
-3.27755
11
6.92148
21
-3.27811
0
LINE
8
BLACK
6
CONTINUOUS
10
6.92148
20
-3.27811
11
6.92318
21
-3.27902
0
LINE
8
BLACK
6
CONTINUOUS
10
6.92318
20
-3.27902
11
6.92468
21
-3.28024
0
LINE
8
BLACK
6
CONTINUOUS
10
6.92468
20
-3.28024
11
6.9259
21
-3.28174
0
LINE
8
BLACK
6
CONTINUOUS
10
6.9259
20
-3.28174
11
6.92681
21
-3.28344
0
LINE
8
BLACK
6
CONTINUOUS
10
6.92681
20
-3.28344
11
6.92737
21
-3.28528
0
LINE
8
BLACK
6
CONTINUOUS
10
6.92737
20
-3.28528
11
6.92756
21
-3.2872
0
LINE
8
BLACK
6
CONTINUOUS
10
6.92756
20
-3.2872
11
6.92756
21
-3.3128
0
LINE
8
BLACK
6
CONTINUOUS
10
6.92756
20
-3.3128
11
6.92737
21
-3.31472
0
LINE
8
BLACK
6
CONTINUOUS
10
6.92737
20
-3.31472
11
6.92681
21
-3.31656
0
LINE
8
BLACK
6
CONTINUOUS
10
6.92681
20
-3.31656
11
6.9259
21
-3.31826
0
LINE
8
BLACK
6
CONTINUOUS
10
6.9259
20
-3.31826
11
6.92468
21
-3.31975
0
LINE
8
BLACK
6
CONTINUOUS
10
6.92468
20
-3.31975
11
6.92318
21
-3.32098
0
LINE
8
BLACK
6
CONTINUOUS
10
6.92318
20
-3.32098
11
6.92148
21
-3.32189
0
LINE
8
BLACK
6
CONTINUOUS
10
6.92148
20
-3.32189
11
6.91964
21
-3.32245
0
LINE
8
BLACK
6
CONTINUOUS
10
6.91964
20
-3.32245
11
6.91772
21
-3.32264
0
LINE
8
BLACK
6
CONTINUOUS
10
6.91772
20
-3.32264
11
6.88228
21
-3.32264
0
LINE
8
BLACK
6
CONTINUOUS
10
6.88228
20
-3.32264
11
6.88036
21
-3.32245
0
LINE
8
BLACK
6
CONTINUOUS
10
6.88036
20
-3.32245
11
6.87852
21
-3.32189
0
LINE
8
BLACK
6
CONTINUOUS
10
6.87852
20
-3.32189
11
6.87682
21
-3.32098
0
LINE
8
BLACK
6
CONTINUOUS
10
6.87682
20
-3.32098
11
6.87532
21
-3.31975
0
LINE
8
BLACK
6
CONTINUOUS
10
6.87532
20
-3.31975
11
6.8741
21
-3.31826
0
LINE
8
BLACK
6
CONTINUOUS
10
6.8741
20
-3.31826
11
6.87319
21
-3.31656
0
LINE
8
BLACK
6
CONTINUOUS
10
6.87319
20
-3.31656
11
6.87263
21
-3.31472
0
LINE
8
BLACK
6
CONTINUOUS
10
6.87263
20
-3.31472
11
6.87244
21
-3.3128
0
LINE
8
BLACK
6
CONTINUOUS
10
6.87244
20
-3.3128
11
6.87244
21
-3.2872
0
LINE
8
BLACK
6
CONTINUOUS
10
6.87244
20
-3.2872
11
6.87263
21
-3.28528
0
LINE
8
BLACK
6
CONTINUOUS
10
6.87263
20
-3.28528
11
6.87319
21
-3.28344
0
LINE
8
BLACK
6
CONTINUOUS
10
6.87319
20
-3.28344
11
6.8741
21
-3.28174
0
LINE
8
BLACK
6
CONTINUOUS
10
6.8741
20
-3.28174
11
6.87532
21
-3.28024
0
LINE
8
BLACK
6
CONTINUOUS
10
6.87532
20
-3.28024
11
6.87682
21
-3.27902
0
LINE
8
BLACK
6
CONTINUOUS
10
6.87682
20
-3.27902
11
6.87852
21
-3.27811
0
LINE
8
BLACK
6
CONTINUOUS
10
6.87852
20
-3.27811
11
6.88036
21
-3.27755
0
LINE
8
BLACK
6
CONTINUOUS
10
6.88036
20
-3.27755
11
6.88228
21
-3.27736
0
LINE
8
BLACK
6
CONTINUOUS
10
6.88228
20
-3.27736
11
6.91772
21
-3.27736
0
LINE
8
BLACK
6
CONTINUOUS
10
6.91772
20
-3.27736
11
6.91964
21
-3.27755
0
LINE
8
BLACK
6
CONTINUOUS
10
6.80725
20
-3.2983
11
6.80836
21
-3.29864
0
LINE
8
BLACK
6
CONTINUOUS
10
6.80836
20
-3.29864
11
6.80938
21
-3.29918
0
LINE
8
BLACK
6
CONTINUOUS
10
6.80938
20
-3.29918
11
6.81028
21
-3.29992
0
LINE
8
BLACK
6
CONTINUOUS
10
6.81028
20
-3.29992
11
6.81101
21
-3.30081
0
LINE
8
BLACK
6
CONTINUOUS
10
6.81101
20
-3.30081
11
6.81156
21
-3.30183
0
LINE
8
BLACK
6
CONTINUOUS
10
6.81156
20
-3.30183
11
6.81189
21
-3.30294
0
LINE
8
BLACK
6
CONTINUOUS
10
6.81189
20
-3.30294
11
6.81201
21
-3.30409
0
LINE
8
BLACK
6
CONTINUOUS
10
6.81201
20
-3.30409
11
6.81201
21
-3.31591
0
LINE
8
BLACK
6
CONTINUOUS
10
6.81201
20
-3.31591
11
6.81189
21
-3.31706
0
LINE
8
BLACK
6
CONTINUOUS
10
6.81189
20
-3.31706
11
6.81156
21
-3.31817
0
LINE
8
BLACK
6
CONTINUOUS
10
6.81156
20
-3.31817
11
6.81101
21
-3.31919
0
LINE
8
BLACK
6
CONTINUOUS
10
6.81101
20
-3.31919
11
6.81028
21
-3.32008
0
LINE
8
BLACK
6
CONTINUOUS
10
6.81028
20
-3.32008
11
6.80938
21
-3.32082
0
LINE
8
BLACK
6
CONTINUOUS
10
6.80938
20
-3.32082
11
6.80836
21
-3.32136
0
LINE
8
BLACK
6
CONTINUOUS
10
6.80836
20
-3.32136
11
6.80725
21
-3.3217
0
LINE
8
BLACK
6
CONTINUOUS
10
6.80725
20
-3.3217
11
6.8061
21
-3.32181
0
LINE
8
BLACK
6
CONTINUOUS
10
6.8061
20
-3.32181
11
6.7372
21
-3.32181
0
LINE
8
BLACK
6
CONTINUOUS
10
6.7372
20
-3.32181
11
6.73605
21
-3.3217
0
LINE
8
BLACK
6
CONTINUOUS
10
6.73605
20
-3.3217
11
6.73494
21
-3.32136
0
LINE
8
BLACK
6
CONTINUOUS
10
6.73494
20
-3.32136
11
6.73392
21
-3.32082
0
LINE
8
BLACK
6
CONTINUOUS
10
6.73392
20
-3.32082
11
6.73303
21
-3.32008
0
LINE
8
BLACK
6
CONTINUOUS
10
6.73303
20
-3.32008
11
6.73229
21
-3.31919
0
LINE
8
BLACK
6
CONTINUOUS
10
6.73229
20
-3.31919
11
6.73175
21
-3.31817
0
LINE
8
BLACK
6
CONTINUOUS
10
6.73175
20
-3.31817
11
6.73141
21
-3.31706
0
LINE
8
BLACK
6
CONTINUOUS
10
6.73141
20
-3.31706
11
6.7313
21
-3.31591
0
LINE
8
BLACK
6
CONTINUOUS
10
6.7313
20
-3.31591
11
6.7313
21
-3.30409
0
LINE
8
BLACK
6
CONTINUOUS
10
6.7313
20
-3.30409
11
6.73141
21
-3.30294
0
LINE
8
BLACK
6
CONTINUOUS
10
6.73141
20
-3.30294
11
6.73175
21
-3.30183
0
LINE
8
BLACK
6
CONTINUOUS
10
6.73175
20
-3.30183
11
6.73229
21
-3.30081
0
LINE
8
BLACK
6
CONTINUOUS
10
6.73229
20
-3.30081
11
6.73303
21
-3.29992
0
LINE
8
BLACK
6
CONTINUOUS
10
6.73303
20
-3.29992
11
6.73392
21
-3.29918
0
LINE
8
BLACK
6
CONTINUOUS
10
6.73392
20
-3.29918
11
6.73494
21
-3.29864
0
LINE
8
BLACK
6
CONTINUOUS
10
6.73494
20
-3.29864
11
6.73605
21
-3.2983
0
LINE
8
BLACK
6
CONTINUOUS
10
6.73605
20
-3.2983
11
6.7372
21
-3.29819
0
LINE
8
BLACK
6
CONTINUOUS
10
6.7372
20
-3.29819
11
6.8061
21
-3.29819
0
LINE
8
BLACK
6
CONTINUOUS
10
6.8061
20
-3.29819
11
6.80725
21
-3.2983
0
LINE
8
BLACK
6
CONTINUOUS
10
6.44111
20
-3.2983
11
6.44222
21
-3.29864
0
LINE
8
BLACK
6
CONTINUOUS
10
6.44222
20
-3.29864
11
6.44324
21
-3.29918
0
LINE
8
BLACK
6
CONTINUOUS
10
6.44324
20
-3.29918
11
6.44414
21
-3.29992
0
LINE
8
BLACK
6
CONTINUOUS
10
6.44414
20
-3.29992
11
6.44487
21
-3.30081
0
LINE
8
BLACK
6
CONTINUOUS
10
6.44487
20
-3.30081
11
6.44542
21
-3.30183
0
LINE
8
BLACK
6
CONTINUOUS
10
6.44542
20
-3.30183
11
6.44575
21
-3.30294
0
LINE
8
BLACK
6
CONTINUOUS
10
6.44575
20
-3.30294
11
6.44587
21
-3.30409
0
LINE
8
BLACK
6
CONTINUOUS
10
6.44587
20
-3.30409
11
6.44587
21
-3.31591
0
LINE
8
BLACK
6
CONTINUOUS
10
6.44587
20
-3.31591
11
6.44575
21
-3.31706
0
LINE
8
BLACK
6
CONTINUOUS
10
6.44575
20
-3.31706
11
6.44542
21
-3.31817
0
LINE
8
BLACK
6
CONTINUOUS
10
6.44542
20
-3.31817
11
6.44487
21
-3.31919
0
LINE
8
BLACK
6
CONTINUOUS
10
6.44487
20
-3.31919
11
6.44414
21
-3.32008
0
LINE
8
BLACK
6
CONTINUOUS
10
6.44414
20
-3.32008
11
6.44324
21
-3.32082
0
LINE
8
BLACK
6
CONTINUOUS
10
6.44324
20
-3.32082
11
6.44222
21
-3.32136
0
LINE
8
BLACK
6
CONTINUOUS
10
6.44222
20
-3.32136
11
6.44111
21
-3.3217
0
LINE
8
BLACK
6
CONTINUOUS
10
6.44111
20
-3.3217
11
6.43996
21
-3.32181
0
LINE
8
BLACK
6
CONTINUOUS
10
6.43996
20
-3.32181
11
6.37106
21
-3.32181
0
LINE
8
BLACK
6
CONTINUOUS
10
6.37106
20
-3.32181
11
6.36991
21
-3.3217
0
LINE
8
BLACK
6
CONTINUOUS
10
6.36991
20
-3.3217
11
6.3688
21
-3.32136
0
LINE
8
BLACK
6
CONTINUOUS
10
6.3688
20
-3.32136
11
6.36778
21
-3.32082
0
LINE
8
BLACK
6
CONTINUOUS
10
6.36778
20
-3.32082
11
6.36689
21
-3.32008
0
LINE
8
BLACK
6
CONTINUOUS
10
6.36689
20
-3.32008
11
6.36615
21
-3.31919
0
LINE
8
BLACK
6
CONTINUOUS
10
6.36615
20
-3.31919
11
6.36561
21
-3.31817
0
LINE
8
BLACK
6
CONTINUOUS
10
6.36561
20
-3.31817
11
6.36527
21
-3.31706
0
LINE
8
BLACK
6
CONTINUOUS
10
6.36527
20
-3.31706
11
6.36516
21
-3.31591
0
LINE
8
BLACK
6
CONTINUOUS
10
6.36516
20
-3.31591
11
6.36516
21
-3.30409
0
LINE
8
BLACK
6
CONTINUOUS
10
6.36516
20
-3.30409
11
6.36527
21
-3.30294
0
LINE
8
BLACK
6
CONTINUOUS
10
6.36527
20
-3.30294
11
6.36561
21
-3.30183
0
LINE
8
BLACK
6
CONTINUOUS
10
6.36561
20
-3.30183
11
6.36615
21
-3.30081
0
LINE
8
BLACK
6
CONTINUOUS
10
6.36615
20
-3.30081
11
6.36689
21
-3.29992
0
LINE
8
BLACK
6
CONTINUOUS
10
6.36689
20
-3.29992
11
6.36778
21
-3.29918
0
LINE
8
BLACK
6
CONTINUOUS
10
6.36778
20
-3.29918
11
6.3688
21
-3.29864
0
LINE
8
BLACK
6
CONTINUOUS
10
6.3688
20
-3.29864
11
6.36991
21
-3.2983
0
LINE
8
BLACK
6
CONTINUOUS
10
6.36991
20
-3.2983
11
6.37106
21
-3.29819
0
LINE
8
BLACK
6
CONTINUOUS
10
6.37106
20
-3.29819
11
6.43996
21
-3.29819
0
LINE
8
BLACK
6
CONTINUOUS
10
6.43996
20
-3.29819
11
6.44111
21
-3.2983
0
LINE
8
BLACK
6
CONTINUOUS
10
5.98843
20
-3.29626
11
5.92543
21
-3.29626
0
LINE
8
BLACK
6
CONTINUOUS
10
5.92543
20
-3.29626
11
5.92543
21
-3.27461
0
LINE
8
BLACK
6
CONTINUOUS
10
5.92543
20
-3.27461
11
5.98843
21
-3.27461
0
LINE
8
BLACK
6
CONTINUOUS
10
5.98843
20
-3.27461
11
5.98843
21
-3.29626
0
LINE
8
BLACK
6
CONTINUOUS
10
6.32307
20
-3.29626
11
6.26008
21
-3.29626
0
LINE
8
BLACK
6
CONTINUOUS
10
6.26008
20
-3.29626
11
6.26008
21
-3.27461
0
LINE
8
BLACK
6
CONTINUOUS
10
6.26008
20
-3.27461
11
6.32307
21
-3.27461
0
LINE
8
BLACK
6
CONTINUOUS
10
6.32307
20
-3.27461
11
6.32307
21
-3.29626
0
LINE
8
BLACK
6
CONTINUOUS
10
6.80725
20
-3.2483
11
6.80836
21
-3.24864
0
LINE
8
BLACK
6
CONTINUOUS
10
6.80836
20
-3.24864
11
6.80938
21
-3.24918
0
LINE
8
BLACK
6
CONTINUOUS
10
6.80938
20
-3.24918
11
6.81028
21
-3.24992
0
LINE
8
BLACK
6
CONTINUOUS
10
6.81028
20
-3.24992
11
6.81101
21
-3.25081
0
LINE
8
BLACK
6
CONTINUOUS
10
6.81101
20
-3.25081
11
6.81156
21
-3.25183
0
LINE
8
BLACK
6
CONTINUOUS
10
6.81156
20
-3.25183
11
6.81189
21
-3.25294
0
LINE
8
BLACK
6
CONTINUOUS
10
6.81189
20
-3.25294
11
6.81201
21
-3.25409
0
LINE
8
BLACK
6
CONTINUOUS
10
6.81201
20
-3.25409
11
6.81201
21
-3.26591
0
LINE
8
BLACK
6
CONTINUOUS
10
6.81201
20
-3.26591
11
6.81189
21
-3.26706
0
LINE
8
BLACK
6
CONTINUOUS
10
6.81189
20
-3.26706
11
6.81156
21
-3.26817
0
LINE
8
BLACK
6
CONTINUOUS
10
6.81156
20
-3.26817
11
6.81101
21
-3.26919
0
LINE
8
BLACK
6
CONTINUOUS
10
6.81101
20
-3.26919
11
6.81028
21
-3.27008
0
LINE
8
BLACK
6
CONTINUOUS
10
6.81028
20
-3.27008
11
6.80938
21
-3.27082
0
LINE
8
BLACK
6
CONTINUOUS
10
6.80938
20
-3.27082
11
6.80836
21
-3.27136
0
LINE
8
BLACK
6
CONTINUOUS
10
6.80836
20
-3.27136
11
6.80725
21
-3.2717
0
LINE
8
BLACK
6
CONTINUOUS
10
6.80725
20
-3.2717
11
6.8061
21
-3.27181
0
LINE
8
BLACK
6
CONTINUOUS
10
6.8061
20
-3.27181
11
6.7372
21
-3.27181
0
LINE
8
BLACK
6
CONTINUOUS
10
6.7372
20
-3.27181
11
6.73605
21
-3.2717
0
LINE
8
BLACK
6
CONTINUOUS
10
6.73605
20
-3.2717
11
6.73494
21
-3.27136
0
LINE
8
BLACK
6
CONTINUOUS
10
6.73494
20
-3.27136
11
6.73392
21
-3.27082
0
LINE
8
BLACK
6
CONTINUOUS
10
6.73392
20
-3.27082
11
6.73303
21
-3.27008
0
LINE
8
BLACK
6
CONTINUOUS
10
6.73303
20
-3.27008
11
6.73229
21
-3.26919
0
LINE
8
BLACK
6
CONTINUOUS
10
6.73229
20
-3.26919
11
6.73175
21
-3.26817
0
LINE
8
BLACK
6
CONTINUOUS
10
6.73175
20
-3.26817
11
6.73141
21
-3.26706
0
LINE
8
BLACK
6
CONTINUOUS
10
6.73141
20
-3.26706
11
6.7313
21
-3.26591
0
LINE
8
BLACK
6
CONTINUOUS
10
6.7313
20
-3.26591
11
6.7313
21
-3.25409
0
LINE
8
BLACK
6
CONTINUOUS
10
6.7313
20
-3.25409
11
6.73141
21
-3.25294
0
LINE
8
BLACK
6
CONTINUOUS
10
6.73141
20
-3.25294
11
6.73175
21
-3.25183
0
LINE
8
BLACK
6
CONTINUOUS
10
6.73175
20
-3.25183
11
6.73229
21
-3.25081
0
LINE
8
BLACK
6
CONTINUOUS
10
6.73229
20
-3.25081
11
6.73303
21
-3.24992
0
LINE
8
BLACK
6
CONTINUOUS
10
6.73303
20
-3.24992
11
6.73392
21
-3.24918
0
LINE
8
BLACK
6
CONTINUOUS
10
6.73392
20
-3.24918
11
6.73494
21
-3.24864
0
LINE
8
BLACK
6
CONTINUOUS
10
6.73494
20
-3.24864
11
6.73605
21
-3.2483
0
LINE
8
BLACK
6
CONTINUOUS
10
6.73605
20
-3.2483
11
6.7372
21
-3.24819
0
LINE
8
BLACK
6
CONTINUOUS
10
6.7372
20
-3.24819
11
6.8061
21
-3.24819
0
LINE
8
BLACK
6
CONTINUOUS
10
6.8061
20
-3.24819
11
6.80725
21
-3.2483
0
LINE
8
BLACK
6
CONTINUOUS
10
6.44111
20
-3.2483
11
6.44222
21
-3.24864
0
LINE
8
BLACK
6
CONTINUOUS
10
6.44222
20
-3.24864
11
6.44324
21
-3.24918
0
LINE
8
BLACK
6
CONTINUOUS
10
6.44324
20
-3.24918
11
6.44414
21
-3.24992
0
LINE
8
BLACK
6
CONTINUOUS
10
6.44414
20
-3.24992
11
6.44487
21
-3.25081
0
LINE
8
BLACK
6
CONTINUOUS
10
6.44487
20
-3.25081
11
6.44542
21
-3.25183
0
LINE
8
BLACK
6
CONTINUOUS
10
6.44542
20
-3.25183
11
6.44575
21
-3.25294
0
LINE
8
BLACK
6
CONTINUOUS
10
6.44575
20
-3.25294
11
6.44587
21
-3.25409
0
LINE
8
BLACK
6
CONTINUOUS
10
6.44587
20
-3.25409
11
6.44587
21
-3.26591
0
LINE
8
BLACK
6
CONTINUOUS
10
6.44587
20
-3.26591
11
6.44575
21
-3.26706
0
LINE
8
BLACK
6
CONTINUOUS
10
6.44575
20
-3.26706
11
6.44542
21
-3.26817
0
LINE
8
BLACK
6
CONTINUOUS
10
6.44542
20
-3.26817
11
6.44487
21
-3.26919
0
LINE
8
BLACK
6
CONTINUOUS
10
6.44487
20
-3.26919
11
6.44414
21
-3.27008
0
LINE
8
BLACK
6
CONTINUOUS
10
6.44414
20
-3.27008
11
6.44324
21
-3.27082
0
LINE
8
BLACK
6
CONTINUOUS
10
6.44324
20
-3.27082
11
6.44222
21
-3.27136
0
LINE
8
BLACK
6
CONTINUOUS
10
6.44222
20
-3.27136
11
6.44111
21
-3.2717
0
LINE
8
BLACK
6
CONTINUOUS
10
6.44111
20
-3.2717
11
6.43996
21
-3.27181
0
LINE
8
BLACK
6
CONTINUOUS
10
6.43996
20
-3.27181
11
6.37106
21
-3.27181
0
LINE
8
BLACK
6
CONTINUOUS
10
6.37106
20
-3.27181
11
6.36991
21
-3.2717
0
LINE
8
BLACK
6
CONTINUOUS
10
6.36991
20
-3.2717
11
6.3688
21
-3.27136
0
LINE
8
BLACK
6
CONTINUOUS
10
6.3688
20
-3.27136
11
6.36778
21
-3.27082
0
LINE
8
BLACK
6
CONTINUOUS
10
6.36778
20
-3.27082
11
6.36689
21
-3.27008
0
LINE
8
BLACK
6
CONTINUOUS
10
6.36689
20
-3.27008
11
6.36615
21
-3.26919
0
LINE
8
BLACK
6
CONTINUOUS
10
6.36615
20
-3.26919
11
6.36561
21
-3.26817
0
LINE
8
BLACK
6
CONTINUOUS
10
6.36561
20
-3.26817
11
6.36527
21
-3.26706
0
LINE
8
BLACK
6
CONTINUOUS
10
6.36527
20
-3.26706
11
6.36516
21
-3.26591
0
LINE
8
BLACK
6
CONTINUOUS
10
6.36516
20
-3.26591
11
6.36516
21
-3.25409
0
LINE
8
BLACK
6
CONTINUOUS
10
6.36516
20
-3.25409
11
6.36527
21
-3.25294
0
LINE
8
BLACK
6
CONTINUOUS
10
6.36527
20
-3.25294
11
6.36561
21
-3.25183
0
LINE
8
BLACK
6
CONTINUOUS
10
6.36561
20
-3.25183
11
6.36615
21
-3.25081
0
LINE
8
BLACK
6
CONTINUOUS
10
6.36615
20
-3.25081
11
6.36689
21
-3.24992
0
LINE
8
BLACK
6
CONTINUOUS
10
6.36689
20
-3.24992
11
6.36778
21
-3.24918
0
LINE
8
BLACK
6
CONTINUOUS
10
6.36778
20
-3.24918
11
6.3688
21
-3.24864
0
LINE
8
BLACK
6
CONTINUOUS
10
6.3688
20
-3.24864
11
6.36991
21
-3.2483
0
LINE
8
BLACK
6
CONTINUOUS
10
6.36991
20
-3.2483
11
6.37106
21
-3.24819
0
LINE
8
BLACK
6
CONTINUOUS
10
6.37106
20
-3.24819
11
6.43996
21
-3.24819
0
LINE
8
BLACK
6
CONTINUOUS
10
6.43996
20
-3.24819
11
6.44111
21
-3.2483
0
LINE
8
BLACK
6
CONTINUOUS
10
5.98843
20
-3.26476
11
5.92543
21
-3.26476
0
LINE
8
BLACK
6
CONTINUOUS
10
5.92543
20
-3.26476
11
5.92543
21
-3.24311
0
LINE
8
BLACK
6
CONTINUOUS
10
5.92543
20
-3.24311
11
5.98843
21
-3.24311
0
LINE
8
BLACK
6
CONTINUOUS
10
5.98843
20
-3.24311
11
5.98843
21
-3.26476
0
LINE
8
BLACK
6
CONTINUOUS
10
6.32307
20
-3.26476
11
6.26008
21
-3.26476
0
LINE
8
BLACK
6
CONTINUOUS
10
6.26008
20
-3.26476
11
6.26008
21
-3.24311
0
LINE
8
BLACK
6
CONTINUOUS
10
6.26008
20
-3.24311
11
6.32307
21
-3.24311
0
LINE
8
BLACK
6
CONTINUOUS
10
6.32307
20
-3.24311
11
6.32307
21
-3.26476
0
LINE
8
BLACK
6
CONTINUOUS
10
6.91964
20
-3.19684
11
6.92148
21
-3.1974
0
LINE
8
BLACK
6
CONTINUOUS
10
6.92148
20
-3.1974
11
6.92318
21
-3.19831
0
LINE
8
BLACK
6
CONTINUOUS
10
6.92318
20
-3.19831
11
6.92468
21
-3.19954
0
LINE
8
BLACK
6
CONTINUOUS
10
6.92468
20
-3.19954
11
6.9259
21
-3.20103
0
LINE
8
BLACK
6
CONTINUOUS
10
6.9259
20
-3.20103
11
6.92681
21
-3.20273
0
LINE
8
BLACK
6
CONTINUOUS
10
6.92681
20
-3.20273
11
6.92737
21
-3.20458
0
LINE
8
BLACK
6
CONTINUOUS
10
6.92737
20
-3.20458
11
6.92756
21
-3.2065
0
LINE
8
BLACK
6
CONTINUOUS
10
6.92756
20
-3.2065
11
6.92756
21
-3.23209
0
LINE
8
BLACK
6
CONTINUOUS
10
6.92756
20
-3.23209
11
6.92737
21
-3.23401
0
LINE
8
BLACK
6
CONTINUOUS
10
6.92737
20
-3.23401
11
6.92681
21
-3.23585
0
LINE
8
BLACK
6
CONTINUOUS
10
6.92681
20
-3.23585
11
6.9259
21
-3.23755
0
LINE
8
BLACK
6
CONTINUOUS
10
6.9259
20
-3.23755
11
6.92468
21
-3.23905
0
LINE
8
BLACK
6
CONTINUOUS
10
6.92468
20
-3.23905
11
6.92318
21
-3.24027
0
LINE
8
BLACK
6
CONTINUOUS
10
6.92318
20
-3.24027
11
6.92148
21
-3.24118
0
LINE
8
BLACK
6
CONTINUOUS
10
6.92148
20
-3.24118
11
6.91964
21
-3.24174
0
LINE
8
BLACK
6
CONTINUOUS
10
6.91964
20
-3.24174
11
6.91772
21
-3.24193
0
LINE
8
BLACK
6
CONTINUOUS
10
6.91772
20
-3.24193
11
6.88228
21
-3.24193
0
LINE
8
BLACK
6
CONTINUOUS
10
6.88228
20
-3.24193
11
6.88036
21
-3.24174
0
LINE
8
BLACK
6
CONTINUOUS
10
6.88036
20
-3.24174
11
6.87852
21
-3.24118
0
LINE
8
BLACK
6
CONTINUOUS
10
6.87852
20
-3.24118
11
6.87682
21
-3.24027
0
LINE
8
BLACK
6
CONTINUOUS
10
6.87682
20
-3.24027
11
6.87532
21
-3.23905
0
LINE
8
BLACK
6
CONTINUOUS
10
6.87532
20
-3.23905
11
6.8741
21
-3.23755
0
LINE
8
BLACK
6
CONTINUOUS
10
6.8741
20
-3.23755
11
6.87319
21
-3.23585
0
LINE
8
BLACK
6
CONTINUOUS
10
6.87319
20
-3.23585
11
6.87263
21
-3.23401
0
LINE
8
BLACK
6
CONTINUOUS
10
6.87263
20
-3.23401
11
6.87244
21
-3.23209
0
LINE
8
BLACK
6
CONTINUOUS
10
6.87244
20
-3.23209
11
6.87244
21
-3.2065
0
LINE
8
BLACK
6
CONTINUOUS
10
6.87244
20
-3.2065
11
6.87263
21
-3.20458
0
LINE
8
BLACK
6
CONTINUOUS
10
6.87263
20
-3.20458
11
6.87319
21
-3.20273
0
LINE
8
BLACK
6
CONTINUOUS
10
6.87319
20
-3.20273
11
6.8741
21
-3.20103
0
LINE
8
BLACK
6
CONTINUOUS
10
6.8741
20
-3.20103
11
6.87532
21
-3.19954
0
LINE
8
BLACK
6
CONTINUOUS
10
6.87532
20
-3.19954
11
6.87682
21
-3.19831
0
LINE
8
BLACK
6
CONTINUOUS
10
6.87682
20
-3.19831
11
6.87852
21
-3.1974
0
LINE
8
BLACK
6
CONTINUOUS
10
6.87852
20
-3.1974
11
6.88036
21
-3.19684
0
LINE
8
BLACK
6
CONTINUOUS
10
6.88036
20
-3.19684
11
6.88228
21
-3.19665
0
LINE
8
BLACK
6
CONTINUOUS
10
6.88228
20
-3.19665
11
6.91772
21
-3.19665
0
LINE
8
BLACK
6
CONTINUOUS
10
6.91772
20
-3.19665
11
6.91964
21
-3.19684
0
LINE
8
BLACK
6
CONTINUOUS
10
5.98843
20
-3.23327
11
5.92543
21
-3.23327
0
LINE
8
BLACK
6
CONTINUOUS
10
5.92543
20
-3.23327
11
5.92543
21
-3.21161
0
LINE
8
BLACK
6
CONTINUOUS
10
5.92543
20
-3.21161
11
5.98843
21
-3.21161
0
LINE
8
BLACK
6
CONTINUOUS
10
5.98843
20
-3.21161
11
5.98843
21
-3.23327
0
LINE
8
BLACK
6
CONTINUOUS
10
6.32307
20
-3.23327
11
6.26008
21
-3.23327
0
LINE
8
BLACK
6
CONTINUOUS
10
6.26008
20
-3.23327
11
6.26008
21
-3.21161
0
LINE
8
BLACK
6
CONTINUOUS
10
6.26008
20
-3.21161
11
6.32307
21
-3.21161
0
LINE
8
BLACK
6
CONTINUOUS
10
6.32307
20
-3.21161
11
6.32307
21
-3.23327
0
LINE
8
BLACK
6
CONTINUOUS
10
6.68357
20
-3.08113
11
6.68542
21
-3.08169
0
LINE
8
BLACK
6
CONTINUOUS
10
6.68542
20
-3.08169
11
6.68712
21
-3.0826
0
LINE
8
BLACK
6
CONTINUOUS
10
6.68712
20
-3.0826
11
6.68861
21
-3.08383
0
LINE
8
BLACK
6
CONTINUOUS
10
6.68861
20
-3.08383
11
6.68984
21
-3.08532
0
LINE
8
BLACK
6
CONTINUOUS
10
6.68984
20
-3.08532
11
6.69075
21
-3.08702
0
LINE
8
BLACK
6
CONTINUOUS
10
6.69075
20
-3.08702
11
6.69131
21
-3.08887
0
LINE
8
BLACK
6
CONTINUOUS
10
6.69131
20
-3.08887
11
6.6915
21
-3.09079
0
LINE
8
BLACK
6
CONTINUOUS
10
6.6915
20
-3.09079
11
6.6915
21
-3.18921
0
LINE
8
BLACK
6
CONTINUOUS
10
6.6915
20
-3.18921
11
6.69131
21
-3.19113
0
LINE
8
BLACK
6
CONTINUOUS
10
6.69131
20
-3.19113
11
6.69075
21
-3.19298
0
LINE
8
BLACK
6
CONTINUOUS
10
6.69075
20
-3.19298
11
6.68984
21
-3.19468
0
LINE
8
BLACK
6
CONTINUOUS
10
6.68984
20
-3.19468
11
6.68861
21
-3.19617
0
LINE
8
BLACK
6
CONTINUOUS
10
6.68861
20
-3.19617
11
6.68712
21
-3.1974
0
LINE
8
BLACK
6
CONTINUOUS
10
6.68712
20
-3.1974
11
6.68542
21
-3.19831
0
LINE
8
BLACK
6
CONTINUOUS
10
6.68542
20
-3.19831
11
6.68357
21
-3.19887
0
LINE
8
BLACK
6
CONTINUOUS
10
6.68357
20
-3.19887
11
6.68165
21
-3.19906
0
LINE
8
BLACK
6
CONTINUOUS
10
6.68165
20
-3.19906
11
6.63835
21
-3.19906
0
LINE
8
BLACK
6
CONTINUOUS
10
6.63835
20
-3.19906
11
6.63643
21
-3.19887
0
LINE
8
BLACK
6
CONTINUOUS
10
6.63643
20
-3.19887
11
6.63458
21
-3.19831
0
LINE
8
BLACK
6
CONTINUOUS
10
6.63458
20
-3.19831
11
6.63288
21
-3.1974
0
LINE
8
BLACK
6
CONTINUOUS
10
6.63288
20
-3.1974
11
6.63139
21
-3.19617
0
LINE
8
BLACK
6
CONTINUOUS
10
6.63139
20
-3.19617
11
6.63016
21
-3.19468
0
LINE
8
BLACK
6
CONTINUOUS
10
6.63016
20
-3.19468
11
6.62925
21
-3.19298
0
LINE
8
BLACK
6
CONTINUOUS
10
6.62925
20
-3.19298
11
6.62869
21
-3.19113
0
LINE
8
BLACK
6
CONTINUOUS
10
6.62869
20
-3.19113
11
6.6285
21
-3.18921
0
LINE
8
BLACK
6
CONTINUOUS
10
6.6285
20
-3.18921
11
6.6285
21
-3.09079
0
LINE
8
BLACK
6
CONTINUOUS
10
6.6285
20
-3.09079
11
6.62869
21
-3.08887
0
LINE
8
BLACK
6
CONTINUOUS
10
6.62869
20
-3.08887
11
6.62925
21
-3.08702
0
LINE
8
BLACK
6
CONTINUOUS
10
6.62925
20
-3.08702
11
6.63016
21
-3.08532
0
LINE
8
BLACK
6
CONTINUOUS
10
6.63016
20
-3.08532
11
6.63139
21
-3.08383
0
LINE
8
BLACK
6
CONTINUOUS
10
6.63139
20
-3.08383
11
6.63288
21
-3.0826
0
LINE
8
BLACK
6
CONTINUOUS
10
6.63288
20
-3.0826
11
6.63458
21
-3.08169
0
LINE
8
BLACK
6
CONTINUOUS
10
6.63458
20
-3.08169
11
6.63643
21
-3.08113
0
LINE
8
BLACK
6
CONTINUOUS
10
6.63643
20
-3.08113
11
6.63835
21
-3.08094
0
LINE
8
BLACK
6
CONTINUOUS
10
6.63835
20
-3.08094
11
6.68165
21
-3.08094
0
LINE
8
BLACK
6
CONTINUOUS
10
6.68165
20
-3.08094
11
6.68357
21
-3.08113
0
LINE
8
BLACK
6
CONTINUOUS
10
6.24531
20
-3.19685
11
6.22366
21
-3.19685
0
LINE
8
BLACK
6
CONTINUOUS
10
6.22366
20
-3.19685
11
6.22366
21
-3.13386
0
LINE
8
BLACK
6
CONTINUOUS
10
6.22366
20
-3.13386
11
6.24531
21
-3.13386
0
LINE
8
BLACK
6
CONTINUOUS
10
6.24531
20
-3.13386
11
6.24531
21
-3.19685
0
LINE
8
BLACK
6
CONTINUOUS
10
6.21382
20
-3.19685
11
6.19217
21
-3.19685
0
LINE
8
BLACK
6
CONTINUOUS
10
6.19217
20
-3.19685
11
6.19217
21
-3.13386
0
LINE
8
BLACK
6
CONTINUOUS
10
6.19217
20
-3.13386
11
6.21382
21
-3.13386
0
LINE
8
BLACK
6
CONTINUOUS
10
6.21382
20
-3.13386
11
6.21382
21
-3.19685
0
LINE
8
BLACK
6
CONTINUOUS
10
6.18232
20
-3.19685
11
6.16067
21
-3.19685
0
LINE
8
BLACK
6
CONTINUOUS
10
6.16067
20
-3.19685
11
6.16067
21
-3.13386
0
LINE
8
BLACK
6
CONTINUOUS
10
6.16067
20
-3.13386
11
6.18232
21
-3.13386
0
LINE
8
BLACK
6
CONTINUOUS
10
6.18232
20
-3.13386
11
6.18232
21
-3.19685
0
LINE
8
BLACK
6
CONTINUOUS
10
6.15083
20
-3.19685
11
6.12917
21
-3.19685
0
LINE
8
BLACK
6
CONTINUOUS
10
6.12917
20
-3.19685
11
6.12917
21
-3.13386
0
LINE
8
BLACK
6
CONTINUOUS
10
6.12917
20
-3.13386
11
6.15083
21
-3.13386
0
LINE
8
BLACK
6
CONTINUOUS
10
6.15083
20
-3.13386
11
6.15083
21
-3.19685
0
LINE
8
BLACK
6
CONTINUOUS
10
6.11933
20
-3.19685
11
6.09768
21
-3.19685
0
LINE
8
BLACK
6
CONTINUOUS
10
6.09768
20
-3.19685
11
6.09768
21
-3.13386
0
LINE
8
BLACK
6
CONTINUOUS
10
6.09768
20
-3.13386
11
6.11933
21
-3.13386
0
LINE
8
BLACK
6
CONTINUOUS
10
6.11933
20
-3.13386
11
6.11933
21
-3.19685
0
LINE
8
BLACK
6
CONTINUOUS
10
6.08783
20
-3.19685
11
6.06618
21
-3.19685
0
LINE
8
BLACK
6
CONTINUOUS
10
6.06618
20
-3.19685
11
6.06618
21
-3.13386
0
LINE
8
BLACK
6
CONTINUOUS
10
6.06618
20
-3.13386
11
6.08783
21
-3.13386
0
LINE
8
BLACK
6
CONTINUOUS
10
6.08783
20
-3.13386
11
6.08783
21
-3.19685
0
LINE
8
BLACK
6
CONTINUOUS
10
6.05634
20
-3.19685
11
6.03469
21
-3.19685
0
LINE
8
BLACK
6
CONTINUOUS
10
6.03469
20
-3.19685
11
6.03469
21
-3.13386
0
LINE
8
BLACK
6
CONTINUOUS
10
6.03469
20
-3.13386
11
6.05634
21
-3.13386
0
LINE
8
BLACK
6
CONTINUOUS
10
6.05634
20
-3.13386
11
6.05634
21
-3.19685
0
LINE
8
BLACK
6
CONTINUOUS
10
6.02484
20
-3.19685
11
6.00319
21
-3.19685
0
LINE
8
BLACK
6
CONTINUOUS
10
6.00319
20
-3.19685
11
6.00319
21
-3.13386
0
LINE
8
BLACK
6
CONTINUOUS
10
6.00319
20
-3.13386
11
6.02484
21
-3.13386
0
LINE
8
BLACK
6
CONTINUOUS
10
6.02484
20
-3.13386
11
6.02484
21
-3.19685
0
LINE
8
BLACK
6
CONTINUOUS
10
6.51542
20
-3.13263
11
6.51727
21
-3.13319
0
LINE
8
BLACK
6
CONTINUOUS
10
6.51727
20
-3.13319
11
6.51897
21
-3.1341
0
LINE
8
BLACK
6
CONTINUOUS
10
6.51897
20
-3.1341
11
6.52046
21
-3.13532
0
LINE
8
BLACK
6
CONTINUOUS
10
6.52046
20
-3.13532
11
6.52169
21
-3.13682
0
LINE
8
BLACK
6
CONTINUOUS
10
6.52169
20
-3.13682
11
6.5226
21
-3.13852
0
LINE
8
BLACK
6
CONTINUOUS
10
6.5226
20
-3.13852
11
6.52316
21
-3.14036
0
LINE
8
BLACK
6
CONTINUOUS
10
6.52316
20
-3.14036
11
6.52335
21
-3.14228
0
LINE
8
BLACK
6
CONTINUOUS
10
6.52335
20
-3.14228
11
6.52335
21
-3.17772
0
LINE
8
BLACK
6
CONTINUOUS
10
6.52335
20
-3.17772
11
6.52316
21
-3.17964
0
LINE
8
BLACK
6
CONTINUOUS
10
6.52316
20
-3.17964
11
6.5226
21
-3.18148
0
LINE
8
BLACK
6
CONTINUOUS
10
6.5226
20
-3.18148
11
6.52169
21
-3.18318
0
LINE
8
BLACK
6
CONTINUOUS
10
6.52169
20
-3.18318
11
6.52046
21
-3.18468
0
LINE
8
BLACK
6
CONTINUOUS
10
6.52046
20
-3.18468
11
6.51897
21
-3.1859
0
LINE
8
BLACK
6
CONTINUOUS
10
6.51897
20
-3.1859
11
6.51727
21
-3.18681
0
LINE
8
BLACK
6
CONTINUOUS
10
6.51727
20
-3.18681
11
6.51542
21
-3.18737
0
LINE
8
BLACK
6
CONTINUOUS
10
6.51542
20
-3.18737
11
6.5135
21
-3.18756
0
LINE
8
BLACK
6
CONTINUOUS
10
6.5135
20
-3.18756
11
6.48791
21
-3.18756
0
LINE
8
BLACK
6
CONTINUOUS
10
6.48791
20
-3.18756
11
6.48599
21
-3.18737
0
LINE
8
BLACK
6
CONTINUOUS
10
6.48599
20
-3.18737
11
6.48415
21
-3.18681
0
LINE
8
BLACK
6
CONTINUOUS
10
6.48415
20
-3.18681
11
6.48245
21
-3.1859
0
LINE
8
BLACK
6
CONTINUOUS
10
6.48245
20
-3.1859
11
6.48095
21
-3.18468
0
LINE
8
BLACK
6
CONTINUOUS
10
6.48095
20
-3.18468
11
6.47973
21
-3.18318
0
LINE
8
BLACK
6
CONTINUOUS
10
6.47973
20
-3.18318
11
6.47882
21
-3.18148
0
LINE
8
BLACK
6
CONTINUOUS
10
6.47882
20
-3.18148
11
6.47826
21
-3.17964
0
LINE
8
BLACK
6
CONTINUOUS
10
6.47826
20
-3.17964
11
6.47807
21
-3.17772
0
LINE
8
BLACK
6
CONTINUOUS
10
6.47807
20
-3.17772
11
6.47807
21
-3.14228
0
LINE
8
BLACK
6
CONTINUOUS
10
6.47807
20
-3.14228
11
6.47826
21
-3.14036
0
LINE
8
BLACK
6
CONTINUOUS
10
6.47826
20
-3.14036
11
6.47882
21
-3.13852
0
LINE
8
BLACK
6
CONTINUOUS
10
6.47882
20
-3.13852
11
6.47973
21
-3.13682
0
LINE
8
BLACK
6
CONTINUOUS
10
6.47973
20
-3.13682
11
6.48095
21
-3.13532
0
LINE
8
BLACK
6
CONTINUOUS
10
6.48095
20
-3.13532
11
6.48245
21
-3.1341
0
LINE
8
BLACK
6
CONTINUOUS
10
6.48245
20
-3.1341
11
6.48415
21
-3.13319
0
LINE
8
BLACK
6
CONTINUOUS
10
6.48415
20
-3.13319
11
6.48599
21
-3.13263
0
LINE
8
BLACK
6
CONTINUOUS
10
6.48599
20
-3.13263
11
6.48791
21
-3.13244
0
LINE
8
BLACK
6
CONTINUOUS
10
6.48791
20
-3.13244
11
6.5135
21
-3.13244
0
LINE
8
BLACK
6
CONTINUOUS
10
6.5135
20
-3.13244
11
6.51542
21
-3.13263
0
LINE
8
BLACK
6
CONTINUOUS
10
5.79472
20
-3.13263
11
5.79656
21
-3.13319
0
LINE
8
BLACK
6
CONTINUOUS
10
5.79656
20
-3.13319
11
5.79826
21
-3.1341
0
LINE
8
BLACK
6
CONTINUOUS
10
5.79826
20
-3.1341
11
5.79976
21
-3.13532
0
LINE
8
BLACK
6
CONTINUOUS
10
5.79976
20
-3.13532
11
5.80098
21
-3.13682
0
LINE
8
BLACK
6
CONTINUOUS
10
5.80098
20
-3.13682
11
5.80189
21
-3.13852
0
LINE
8
BLACK
6
CONTINUOUS
10
5.80189
20
-3.13852
11
5.80245
21
-3.14036
0
LINE
8
BLACK
6
CONTINUOUS
10
5.80245
20
-3.14036
11
5.80264
21
-3.14228
0
LINE
8
BLACK
6
CONTINUOUS
10
5.80264
20
-3.14228
11
5.80264
21
-3.17772
0
LINE
8
BLACK
6
CONTINUOUS
10
5.80264
20
-3.17772
11
5.80245
21
-3.17964
0
LINE
8
BLACK
6
CONTINUOUS
10
5.80245
20
-3.17964
11
5.80189
21
-3.18148
0
LINE
8
BLACK
6
CONTINUOUS
10
5.80189
20
-3.18148
11
5.80098
21
-3.18318
0
LINE
8
BLACK
6
CONTINUOUS
10
5.80098
20
-3.18318
11
5.79976
21
-3.18468
0
LINE
8
BLACK
6
CONTINUOUS
10
5.79976
20
-3.18468
11
5.79826
21
-3.1859
0
LINE
8
BLACK
6
CONTINUOUS
10
5.79826
20
-3.1859
11
5.79656
21
-3.18681
0
LINE
8
BLACK
6
CONTINUOUS
10
5.79656
20
-3.18681
11
5.79472
21
-3.18737
0
LINE
8
BLACK
6
CONTINUOUS
10
5.79472
20
-3.18737
11
5.7928
21
-3.18756
0
LINE
8
BLACK
6
CONTINUOUS
10
5.7928
20
-3.18756
11
5.7672
21
-3.18756
0
LINE
8
BLACK
6
CONTINUOUS
10
5.7672
20
-3.18756
11
5.76528
21
-3.18737
0
LINE
8
BLACK
6
CONTINUOUS
10
5.76528
20
-3.18737
11
5.76344
21
-3.18681
0
LINE
8
BLACK
6
CONTINUOUS
10
5.76344
20
-3.18681
11
5.76174
21
-3.1859
0
LINE
8
BLACK
6
CONTINUOUS
10
5.76174
20
-3.1859
11
5.76025
21
-3.18468
0
LINE
8
BLACK
6
CONTINUOUS
10
5.76025
20
-3.18468
11
5.75902
21
-3.18318
0
LINE
8
BLACK
6
CONTINUOUS
10
5.75902
20
-3.18318
11
5.75811
21
-3.18148
0
LINE
8
BLACK
6
CONTINUOUS
10
5.75811
20
-3.18148
11
5.75755
21
-3.17964
0
LINE
8
BLACK
6
CONTINUOUS
10
5.75755
20
-3.17964
11
5.75736
21
-3.17772
0
LINE
8
BLACK
6
CONTINUOUS
10
5.75736
20
-3.17772
11
5.75736
21
-3.14228
0
LINE
8
BLACK
6
CONTINUOUS
10
5.75736
20
-3.14228
11
5.75755
21
-3.14036
0
LINE
8
BLACK
6
CONTINUOUS
10
5.75755
20
-3.14036
11
5.75811
21
-3.13852
0
LINE
8
BLACK
6
CONTINUOUS
10
5.75811
20
-3.13852
11
5.75902
21
-3.13682
0
LINE
8
BLACK
6
CONTINUOUS
10
5.75902
20
-3.13682
11
5.76025
21
-3.13532
0
LINE
8
BLACK
6
CONTINUOUS
10
5.76025
20
-3.13532
11
5.76174
21
-3.1341
0
LINE
8
BLACK
6
CONTINUOUS
10
5.76174
20
-3.1341
11
5.76344
21
-3.13319
0
LINE
8
BLACK
6
CONTINUOUS
10
5.76344
20
-3.13319
11
5.76528
21
-3.13263
0
LINE
8
BLACK
6
CONTINUOUS
10
5.76528
20
-3.13263
11
5.7672
21
-3.13244
0
LINE
8
BLACK
6
CONTINUOUS
10
5.7672
20
-3.13244
11
5.7928
21
-3.13244
0
LINE
8
BLACK
6
CONTINUOUS
10
5.7928
20
-3.13244
11
5.79472
21
-3.13263
0
LINE
8
BLACK
6
CONTINUOUS
10
6.43472
20
-3.13263
11
6.43656
21
-3.13319
0
LINE
8
BLACK
6
CONTINUOUS
10
6.43656
20
-3.13319
11
6.43826
21
-3.1341
0
LINE
8
BLACK
6
CONTINUOUS
10
6.43826
20
-3.1341
11
6.43975
21
-3.13532
0
LINE
8
BLACK
6
CONTINUOUS
10
6.43975
20
-3.13532
11
6.44098
21
-3.13682
0
LINE
8
BLACK
6
CONTINUOUS
10
6.44098
20
-3.13682
11
6.44189
21
-3.13852
0
LINE
8
BLACK
6
CONTINUOUS
10
6.44189
20
-3.13852
11
6.44245
21
-3.14036
0
LINE
8
BLACK
6
CONTINUOUS
10
6.44245
20
-3.14036
11
6.44264
21
-3.14228
0
LINE
8
BLACK
6
CONTINUOUS
10
6.44264
20
-3.14228
11
6.44264
21
-3.17772
0
LINE
8
BLACK
6
CONTINUOUS
10
6.44264
20
-3.17772
11
6.44245
21
-3.17964
0
LINE
8
BLACK
6
CONTINUOUS
10
6.44245
20
-3.17964
11
6.44189
21
-3.18148
0
LINE
8
BLACK
6
CONTINUOUS
10
6.44189
20
-3.18148
11
6.44098
21
-3.18318
0
LINE
8
BLACK
6
CONTINUOUS
10
6.44098
20
-3.18318
11
6.43975
21
-3.18468
0
LINE
8
BLACK
6
CONTINUOUS
10
6.43975
20
-3.18468
11
6.43826
21
-3.1859
0
LINE
8
BLACK
6
CONTINUOUS
10
6.43826
20
-3.1859
11
6.43656
21
-3.18681
0
LINE
8
BLACK
6
CONTINUOUS
10
6.43656
20
-3.18681
11
6.43472
21
-3.18737
0
LINE
8
BLACK
6
CONTINUOUS
10
6.43472
20
-3.18737
11
6.4328
21
-3.18756
0
LINE
8
BLACK
6
CONTINUOUS
10
6.4328
20
-3.18756
11
6.4072
21
-3.18756
0
LINE
8
BLACK
6
CONTINUOUS
10
6.4072
20
-3.18756
11
6.40528
21
-3.18737
0
LINE
8
BLACK
6
CONTINUOUS
10
6.40528
20
-3.18737
11
6.40344
21
-3.18681
0
LINE
8
BLACK
6
CONTINUOUS
10
6.40344
20
-3.18681
11
6.40174
21
-3.1859
0
LINE
8
BLACK
6
CONTINUOUS
10
6.40174
20
-3.1859
11
6.40024
21
-3.18468
0
LINE
8
BLACK
6
CONTINUOUS
10
6.40024
20
-3.18468
11
6.39902
21
-3.18318
0
LINE
8
BLACK
6
CONTINUOUS
10
6.39902
20
-3.18318
11
6.39811
21
-3.18148
0
LINE
8
BLACK
6
CONTINUOUS
10
6.39811
20
-3.18148
11
6.39755
21
-3.17964
0
LINE
8
BLACK
6
CONTINUOUS
10
6.39755
20
-3.17964
11
6.39736
21
-3.17772
0
LINE
8
BLACK
6
CONTINUOUS
10
6.39736
20
-3.17772
11
6.39736
21
-3.14228
0
LINE
8
BLACK
6
CONTINUOUS
10
6.39736
20
-3.14228
11
6.39755
21
-3.14036
0
LINE
8
BLACK
6
CONTINUOUS
10
6.39755
20
-3.14036
11
6.39811
21
-3.13852
0
LINE
8
BLACK
6
CONTINUOUS
10
6.39811
20
-3.13852
11
6.39902
21
-3.13682
0
LINE
8
BLACK
6
CONTINUOUS
10
6.39902
20
-3.13682
11
6.40024
21
-3.13532
0
LINE
8
BLACK
6
CONTINUOUS
10
6.40024
20
-3.13532
11
6.40174
21
-3.1341
0
LINE
8
BLACK
6
CONTINUOUS
10
6.40174
20
-3.1341
11
6.40344
21
-3.13319
0
LINE
8
BLACK
6
CONTINUOUS
10
6.40344
20
-3.13319
11
6.40528
21
-3.13263
0
LINE
8
BLACK
6
CONTINUOUS
10
6.40528
20
-3.13263
11
6.4072
21
-3.13244
0
LINE
8
BLACK
6
CONTINUOUS
10
6.4072
20
-3.13244
11
6.4328
21
-3.13244
0
LINE
8
BLACK
6
CONTINUOUS
10
6.4328
20
-3.13244
11
6.43472
21
-3.13263
0
LINE
8
BLACK
6
CONTINUOUS
10
5.71401
20
-3.13263
11
5.71585
21
-3.13319
0
LINE
8
BLACK
6
CONTINUOUS
10
5.71585
20
-3.13319
11
5.71755
21
-3.1341
0
LINE
8
BLACK
6
CONTINUOUS
10
5.71755
20
-3.1341
11
5.71905
21
-3.13532
0
LINE
8
BLACK
6
CONTINUOUS
10
5.71905
20
-3.13532
11
5.72027
21
-3.13682
0
LINE
8
BLACK
6
CONTINUOUS
10
5.72027
20
-3.13682
11
5.72118
21
-3.13852
0
LINE
8
BLACK
6
CONTINUOUS
10
5.72118
20
-3.13852
11
5.72174
21
-3.14036
0
LINE
8
BLACK
6
CONTINUOUS
10
5.72174
20
-3.14036
11
5.72193
21
-3.14228
0
LINE
8
BLACK
6
CONTINUOUS
10
5.72193
20
-3.14228
11
5.72193
21
-3.17772
0
LINE
8
BLACK
6
CONTINUOUS
10
5.72193
20
-3.17772
11
5.72174
21
-3.17964
0
LINE
8
BLACK
6
CONTINUOUS
10
5.72174
20
-3.17964
11
5.72118
21
-3.18148
0
LINE
8
BLACK
6
CONTINUOUS
10
5.72118
20
-3.18148
11
5.72027
21
-3.18318
0
LINE
8
BLACK
6
CONTINUOUS
10
5.72027
20
-3.18318
11
5.71905
21
-3.18468
0
LINE
8
BLACK
6
CONTINUOUS
10
5.71905
20
-3.18468
11
5.71755
21
-3.1859
0
LINE
8
BLACK
6
CONTINUOUS
10
5.71755
20
-3.1859
11
5.71585
21
-3.18681
0
LINE
8
BLACK
6
CONTINUOUS
10
5.71585
20
-3.18681
11
5.71401
21
-3.18737
0
LINE
8
BLACK
6
CONTINUOUS
10
5.71401
20
-3.18737
11
5.71209
21
-3.18756
0
LINE
8
BLACK
6
CONTINUOUS
10
5.71209
20
-3.18756
11
5.6865
21
-3.18756
0
LINE
8
BLACK
6
CONTINUOUS
10
5.6865
20
-3.18756
11
5.68458
21
-3.18737
0
LINE
8
BLACK
6
CONTINUOUS
10
5.68458
20
-3.18737
11
5.68273
21
-3.18681
0
LINE
8
BLACK
6
CONTINUOUS
10
5.68273
20
-3.18681
11
5.68103
21
-3.1859
0
LINE
8
BLACK
6
CONTINUOUS
10
5.68103
20
-3.1859
11
5.67954
21
-3.18468
0
LINE
8
BLACK
6
CONTINUOUS
10
5.67954
20
-3.18468
11
5.67831
21
-3.18318
0
LINE
8
BLACK
6
CONTINUOUS
10
5.67831
20
-3.18318
11
5.6774
21
-3.18148
0
LINE
8
BLACK
6
CONTINUOUS
10
5.6774
20
-3.18148
11
5.67684
21
-3.17964
0
LINE
8
BLACK
6
CONTINUOUS
10
5.67684
20
-3.17964
11
5.67665
21
-3.17772
0
LINE
8
BLACK
6
CONTINUOUS
10
5.67665
20
-3.17772
11
5.67665
21
-3.14228
0
LINE
8
BLACK
6
CONTINUOUS
10
5.67665
20
-3.14228
11
5.67684
21
-3.14036
0
LINE
8
BLACK
6
CONTINUOUS
10
5.67684
20
-3.14036
11
5.6774
21
-3.13852
0
LINE
8
BLACK
6
CONTINUOUS
10
5.6774
20
-3.13852
11
5.67831
21
-3.13682
0
LINE
8
BLACK
6
CONTINUOUS
10
5.67831
20
-3.13682
11
5.67954
21
-3.13532
0
LINE
8
BLACK
6
CONTINUOUS
10
5.67954
20
-3.13532
11
5.68103
21
-3.1341
0
LINE
8
BLACK
6
CONTINUOUS
10
5.68103
20
-3.1341
11
5.68273
21
-3.13319
0
LINE
8
BLACK
6
CONTINUOUS
10
5.68273
20
-3.13319
11
5.68458
21
-3.13263
0
LINE
8
BLACK
6
CONTINUOUS
10
5.68458
20
-3.13263
11
5.6865
21
-3.13244
0
LINE
8
BLACK
6
CONTINUOUS
10
5.6865
20
-3.13244
11
5.71209
21
-3.13244
0
LINE
8
BLACK
6
CONTINUOUS
10
5.71209
20
-3.13244
11
5.71401
21
-3.13263
0
LINE
8
BLACK
6
CONTINUOUS
10
5.87964
20
-3.13755
11
5.88148
21
-3.13811
0
LINE
8
BLACK
6
CONTINUOUS
10
5.88148
20
-3.13811
11
5.88318
21
-3.13902
0
LINE
8
BLACK
6
CONTINUOUS
10
5.88318
20
-3.13902
11
5.88468
21
-3.14024
0
LINE
8
BLACK
6
CONTINUOUS
10
5.88468
20
-3.14024
11
5.8859
21
-3.14174
0
LINE
8
BLACK
6
CONTINUOUS
10
5.8859
20
-3.14174
11
5.88681
21
-3.14344
0
LINE
8
BLACK
6
CONTINUOUS
10
5.88681
20
-3.14344
11
5.88737
21
-3.14528
0
LINE
8
BLACK
6
CONTINUOUS
10
5.88737
20
-3.14528
11
5.88756
21
-3.1472
0
LINE
8
BLACK
6
CONTINUOUS
10
5.88756
20
-3.1472
11
5.88756
21
-3.1728
0
LINE
8
BLACK
6
CONTINUOUS
10
5.88756
20
-3.1728
11
5.88737
21
-3.17472
0
LINE
8
BLACK
6
CONTINUOUS
10
5.88737
20
-3.17472
11
5.88681
21
-3.17656
0
LINE
8
BLACK
6
CONTINUOUS
10
5.88681
20
-3.17656
11
5.8859
21
-3.17826
0
LINE
8
BLACK
6
CONTINUOUS
10
5.8859
20
-3.17826
11
5.88468
21
-3.17976
0
LINE
8
BLACK
6
CONTINUOUS
10
5.88468
20
-3.17976
11
5.88318
21
-3.18098
0
LINE
8
BLACK
6
CONTINUOUS
10
5.88318
20
-3.18098
11
5.88148
21
-3.18189
0
LINE
8
BLACK
6
CONTINUOUS
10
5.88148
20
-3.18189
11
5.87964
21
-3.18245
0
LINE
8
BLACK
6
CONTINUOUS
10
5.87964
20
-3.18245
11
5.87772
21
-3.18264
0
LINE
8
BLACK
6
CONTINUOUS
10
5.87772
20
-3.18264
11
5.84228
21
-3.18264
0
LINE
8
BLACK
6
CONTINUOUS
10
5.84228
20
-3.18264
11
5.84036
21
-3.18245
0
LINE
8
BLACK
6
CONTINUOUS
10
5.84036
20
-3.18245
11
5.83852
21
-3.18189
0
LINE
8
BLACK
6
CONTINUOUS
10
5.83852
20
-3.18189
11
5.83682
21
-3.18098
0
LINE
8
BLACK
6
CONTINUOUS
10
5.83682
20
-3.18098
11
5.83532
21
-3.17976
0
LINE
8
BLACK
6
CONTINUOUS
10
5.83532
20
-3.17976
11
5.8341
21
-3.17826
0
LINE
8
BLACK
6
CONTINUOUS
10
5.8341
20
-3.17826
11
5.83319
21
-3.17656
0
LINE
8
BLACK
6
CONTINUOUS
10
5.83319
20
-3.17656
11
5.83263
21
-3.17472
0
LINE
8
BLACK
6
CONTINUOUS
10
5.83263
20
-3.17472
11
5.83244
21
-3.1728
0
LINE
8
BLACK
6
CONTINUOUS
10
5.83244
20
-3.1728
11
5.83244
21
-3.1472
0
LINE
8
BLACK
6
CONTINUOUS
10
5.83244
20
-3.1472
11
5.83263
21
-3.14528
0
LINE
8
BLACK
6
CONTINUOUS
10
5.83263
20
-3.14528
11
5.83319
21
-3.14344
0
LINE
8
BLACK
6
CONTINUOUS
10
5.83319
20
-3.14344
11
5.8341
21
-3.14174
0
LINE
8
BLACK
6
CONTINUOUS
10
5.8341
20
-3.14174
11
5.83532
21
-3.14024
0
LINE
8
BLACK
6
CONTINUOUS
10
5.83532
20
-3.14024
11
5.83682
21
-3.13902
0
LINE
8
BLACK
6
CONTINUOUS
10
5.83682
20
-3.13902
11
5.83852
21
-3.13811
0
LINE
8
BLACK
6
CONTINUOUS
10
5.83852
20
-3.13811
11
5.84036
21
-3.13755
0
LINE
8
BLACK
6
CONTINUOUS
10
5.84036
20
-3.13755
11
5.84228
21
-3.13736
0
LINE
8
BLACK
6
CONTINUOUS
10
5.84228
20
-3.13736
11
5.87772
21
-3.13736
0
LINE
8
BLACK
6
CONTINUOUS
10
5.87772
20
-3.13736
11
5.87964
21
-3.13755
0
LINE
8
BLACK
6
CONTINUOUS
10
6.11542
20
-3.05263
11
6.11727
21
-3.05319
0
LINE
8
BLACK
6
CONTINUOUS
10
6.11727
20
-3.05319
11
6.11897
21
-3.0541
0
LINE
8
BLACK
6
CONTINUOUS
10
6.11897
20
-3.0541
11
6.12046
21
-3.05532
0
LINE
8
BLACK
6
CONTINUOUS
10
6.12046
20
-3.05532
11
6.12169
21
-3.05682
0
LINE
8
BLACK
6
CONTINUOUS
10
6.12169
20
-3.05682
11
6.1226
21
-3.05852
0
LINE
8
BLACK
6
CONTINUOUS
10
6.1226
20
-3.05852
11
6.12316
21
-3.06036
0
LINE
8
BLACK
6
CONTINUOUS
10
6.12316
20
-3.06036
11
6.12335
21
-3.06228
0
LINE
8
BLACK
6
CONTINUOUS
10
6.12335
20
-3.06228
11
6.12335
21
-3.09772
0
LINE
8
BLACK
6
CONTINUOUS
10
6.12335
20
-3.09772
11
6.12316
21
-3.09964
0
LINE
8
BLACK
6
CONTINUOUS
10
6.12316
20
-3.09964
11
6.1226
21
-3.10148
0
LINE
8
BLACK
6
CONTINUOUS
10
6.1226
20
-3.10148
11
6.12169
21
-3.10318
0
LINE
8
BLACK
6
CONTINUOUS
10
6.12169
20
-3.10318
11
6.12046
21
-3.10468
0
LINE
8
BLACK
6
CONTINUOUS
10
6.12046
20
-3.10468
11
6.11897
21
-3.1059
0
LINE
8
BLACK
6
CONTINUOUS
10
6.11897
20
-3.1059
11
6.11727
21
-3.10681
0
LINE
8
BLACK
6
CONTINUOUS
10
6.11727
20
-3.10681
11
6.11542
21
-3.10737
0
LINE
8
BLACK
6
CONTINUOUS
10
6.11542
20
-3.10737
11
6.1135
21
-3.10756
0
LINE
8
BLACK
6
CONTINUOUS
10
6.1135
20
-3.10756
11
6.08791
21
-3.10756
0
LINE
8
BLACK
6
CONTINUOUS
10
6.08791
20
-3.10756
11
6.08599
21
-3.10737
0
LINE
8
BLACK
6
CONTINUOUS
10
6.08599
20
-3.10737
11
6.08415
21
-3.10681
0
LINE
8
BLACK
6
CONTINUOUS
10
6.08415
20
-3.10681
11
6.08245
21
-3.1059
0
LINE
8
BLACK
6
CONTINUOUS
10
6.08245
20
-3.1059
11
6.08095
21
-3.10468
0
LINE
8
BLACK
6
CONTINUOUS
10
6.08095
20
-3.10468
11
6.07973
21
-3.10318
0
LINE
8
BLACK
6
CONTINUOUS
10
6.07973
20
-3.10318
11
6.07882
21
-3.10148
0
LINE
8
BLACK
6
CONTINUOUS
10
6.07882
20
-3.10148
11
6.07826
21
-3.09964
0
LINE
8
BLACK
6
CONTINUOUS
10
6.07826
20
-3.09964
11
6.07807
21
-3.09772
0
LINE
8
BLACK
6
CONTINUOUS
10
6.07807
20
-3.09772
11
6.07807
21
-3.06228
0
LINE
8
BLACK
6
CONTINUOUS
10
6.07807
20
-3.06228
11
6.07826
21
-3.06036
0
LINE
8
BLACK
6
CONTINUOUS
10
6.07826
20
-3.06036
11
6.07882
21
-3.05852
0
LINE
8
BLACK
6
CONTINUOUS
10
6.07882
20
-3.05852
11
6.07973
21
-3.05682
0
LINE
8
BLACK
6
CONTINUOUS
10
6.07973
20
-3.05682
11
6.08095
21
-3.05532
0
LINE
8
BLACK
6
CONTINUOUS
10
6.08095
20
-3.05532
11
6.08245
21
-3.0541
0
LINE
8
BLACK
6
CONTINUOUS
10
6.08245
20
-3.0541
11
6.08415
21
-3.05319
0
LINE
8
BLACK
6
CONTINUOUS
10
6.08415
20
-3.05319
11
6.08599
21
-3.05263
0
LINE
8
BLACK
6
CONTINUOUS
10
6.08599
20
-3.05263
11
6.08791
21
-3.05244
0
LINE
8
BLACK
6
CONTINUOUS
10
6.08791
20
-3.05244
11
6.1135
21
-3.05244
0
LINE
8
BLACK
6
CONTINUOUS
10
6.1135
20
-3.05244
11
6.11542
21
-3.05263
0
LINE
8
BLACK
6
CONTINUOUS
10
6.03472
20
-3.05263
11
6.03656
21
-3.05319
0
LINE
8
BLACK
6
CONTINUOUS
10
6.03656
20
-3.05319
11
6.03826
21
-3.0541
0
LINE
8
BLACK
6
CONTINUOUS
10
6.03826
20
-3.0541
11
6.03975
21
-3.05532
0
LINE
8
BLACK
6
CONTINUOUS
10
6.03975
20
-3.05532
11
6.04098
21
-3.05682
0
LINE
8
BLACK
6
CONTINUOUS
10
6.04098
20
-3.05682
11
6.04189
21
-3.05852
0
LINE
8
BLACK
6
CONTINUOUS
10
6.04189
20
-3.05852
11
6.04245
21
-3.06036
0
LINE
8
BLACK
6
CONTINUOUS
10
6.04245
20
-3.06036
11
6.04264
21
-3.06228
0
LINE
8
BLACK
6
CONTINUOUS
10
6.04264
20
-3.06228
11
6.04264
21
-3.09772
0
LINE
8
BLACK
6
CONTINUOUS
10
6.04264
20
-3.09772
11
6.04245
21
-3.09964
0
LINE
8
BLACK
6
CONTINUOUS
10
6.04245
20
-3.09964
11
6.04189
21
-3.10148
0
LINE
8
BLACK
6
CONTINUOUS
10
6.04189
20
-3.10148
11
6.04098
21
-3.10318
0
LINE
8
BLACK
6
CONTINUOUS
10
6.04098
20
-3.10318
11
6.03975
21
-3.10468
0
LINE
8
BLACK
6
CONTINUOUS
10
6.03975
20
-3.10468
11
6.03826
21
-3.1059
0
LINE
8
BLACK
6
CONTINUOUS
10
6.03826
20
-3.1059
11
6.03656
21
-3.10681
0
LINE
8
BLACK
6
CONTINUOUS
10
6.03656
20
-3.10681
11
6.03472
21
-3.10737
0
LINE
8
BLACK
6
CONTINUOUS
10
6.03472
20
-3.10737
11
6.0328
21
-3.10756
0
LINE
8
BLACK
6
CONTINUOUS
10
6.0328
20
-3.10756
11
6.0072
21
-3.10756
0
LINE
8
BLACK
6
CONTINUOUS
10
6.0072
20
-3.10756
11
6.00528
21
-3.10737
0
LINE
8
BLACK
6
CONTINUOUS
10
6.00528
20
-3.10737
11
6.00344
21
-3.10681
0
LINE
8
BLACK
6
CONTINUOUS
10
6.00344
20
-3.10681
11
6.00174
21
-3.1059
0
LINE
8
BLACK
6
CONTINUOUS
10
6.00174
20
-3.1059
11
6.00024
21
-3.10468
0
LINE
8
BLACK
6
CONTINUOUS
10
6.00024
20
-3.10468
11
5.99902
21
-3.10318
0
LINE
8
BLACK
6
CONTINUOUS
10
5.99902
20
-3.10318
11
5.99811
21
-3.10148
0
LINE
8
BLACK
6
CONTINUOUS
10
5.99811
20
-3.10148
11
5.99755
21
-3.09964
0
LINE
8
BLACK
6
CONTINUOUS
10
5.99755
20
-3.09964
11
5.99736
21
-3.09772
0
LINE
8
BLACK
6
CONTINUOUS
10
5.99736
20
-3.09772
11
5.99736
21
-3.06228
0
LINE
8
BLACK
6
CONTINUOUS
10
5.99736
20
-3.06228
11
5.99755
21
-3.06036
0
LINE
8
BLACK
6
CONTINUOUS
10
5.99755
20
-3.06036
11
5.99811
21
-3.05852
0
LINE
8
BLACK
6
CONTINUOUS
10
5.99811
20
-3.05852
11
5.99902
21
-3.05682
0
LINE
8
BLACK
6
CONTINUOUS
10
5.99902
20
-3.05682
11
6.00024
21
-3.05532
0
LINE
8
BLACK
6
CONTINUOUS
10
6.00024
20
-3.05532
11
6.00174
21
-3.0541
0
LINE
8
BLACK
6
CONTINUOUS
10
6.00174
20
-3.0541
11
6.00344
21
-3.05319
0
LINE
8
BLACK
6
CONTINUOUS
10
6.00344
20
-3.05319
11
6.00528
21
-3.05263
0
LINE
8
BLACK
6
CONTINUOUS
10
6.00528
20
-3.05263
11
6.0072
21
-3.05244
0
LINE
8
BLACK
6
CONTINUOUS
10
6.0072
20
-3.05244
11
6.0328
21
-3.05244
0
LINE
8
BLACK
6
CONTINUOUS
10
6.0328
20
-3.05244
11
6.03472
21
-3.05263
0
LINE
8
BLACK
6
CONTINUOUS
10
5.87964
20
-3.05684
11
5.88148
21
-3.0574
0
LINE
8
BLACK
6
CONTINUOUS
10
5.88148
20
-3.0574
11
5.88318
21
-3.05831
0
LINE
8
BLACK
6
CONTINUOUS
10
5.88318
20
-3.05831
11
5.88468
21
-3.05954
0
LINE
8
BLACK
6
CONTINUOUS
10
5.88468
20
-3.05954
11
5.8859
21
-3.06103
0
LINE
8
BLACK
6
CONTINUOUS
10
5.8859
20
-3.06103
11
5.88681
21
-3.06273
0
LINE
8
BLACK
6
CONTINUOUS
10
5.88681
20
-3.06273
11
5.88737
21
-3.06458
0
LINE
8
BLACK
6
CONTINUOUS
10
5.88737
20
-3.06458
11
5.88756
21
-3.0665
0
LINE
8
BLACK
6
CONTINUOUS
10
5.88756
20
-3.0665
11
5.88756
21
-3.09209
0
LINE
8
BLACK
6
CONTINUOUS
10
5.88756
20
-3.09209
11
5.88737
21
-3.09401
0
LINE
8
BLACK
6
CONTINUOUS
10
5.88737
20
-3.09401
11
5.88681
21
-3.09585
0
LINE
8
BLACK
6
CONTINUOUS
10
5.88681
20
-3.09585
11
5.8859
21
-3.09755
0
LINE
8
BLACK
6
CONTINUOUS
10
5.8859
20
-3.09755
11
5.88468
21
-3.09905
0
LINE
8
BLACK
6
CONTINUOUS
10
5.88468
20
-3.09905
11
5.88318
21
-3.10027
0
LINE
8
BLACK
6
CONTINUOUS
10
5.88318
20
-3.10027
11
5.88148
21
-3.10118
0
LINE
8
BLACK
6
CONTINUOUS
10
5.88148
20
-3.10118
11
5.87964
21
-3.10174
0
LINE
8
BLACK
6
CONTINUOUS
10
5.87964
20
-3.10174
11
5.87772
21
-3.10193
0
LINE
8
BLACK
6
CONTINUOUS
10
5.87772
20
-3.10193
11
5.84228
21
-3.10193
0
LINE
8
BLACK
6
CONTINUOUS
10
5.84228
20
-3.10193
11
5.84036
21
-3.10174
0
LINE
8
BLACK
6
CONTINUOUS
10
5.84036
20
-3.10174
11
5.83852
21
-3.10118
0
LINE
8
BLACK
6
CONTINUOUS
10
5.83852
20
-3.10118
11
5.83682
21
-3.10027
0
LINE
8
BLACK
6
CONTINUOUS
10
5.83682
20
-3.10027
11
5.83532
21
-3.09905
0
LINE
8
BLACK
6
CONTINUOUS
10
5.83532
20
-3.09905
11
5.8341
21
-3.09755
0
LINE
8
BLACK
6
CONTINUOUS
10
5.8341
20
-3.09755
11
5.83319
21
-3.09585
0
LINE
8
BLACK
6
CONTINUOUS
10
5.83319
20
-3.09585
11
5.83263
21
-3.09401
0
LINE
8
BLACK
6
CONTINUOUS
10
5.83263
20
-3.09401
11
5.83244
21
-3.09209
0
LINE
8
BLACK
6
CONTINUOUS
10
5.83244
20
-3.09209
11
5.83244
21
-3.0665
0
LINE
8
BLACK
6
CONTINUOUS
10
5.83244
20
-3.0665
11
5.83263
21
-3.06458
0
LINE
8
BLACK
6
CONTINUOUS
10
5.83263
20
-3.06458
11
5.83319
21
-3.06273
0
LINE
8
BLACK
6
CONTINUOUS
10
5.83319
20
-3.06273
11
5.8341
21
-3.06103
0
LINE
8
BLACK
6
CONTINUOUS
10
5.8341
20
-3.06103
11
5.83532
21
-3.05954
0
LINE
8
BLACK
6
CONTINUOUS
10
5.83532
20
-3.05954
11
5.83682
21
-3.05831
0
LINE
8
BLACK
6
CONTINUOUS
10
5.83682
20
-3.05831
11
5.83852
21
-3.0574
0
LINE
8
BLACK
6
CONTINUOUS
10
5.83852
20
-3.0574
11
5.84036
21
-3.05684
0
LINE
8
BLACK
6
CONTINUOUS
10
5.84036
20
-3.05684
11
5.84228
21
-3.05665
0
LINE
8
BLACK
6
CONTINUOUS
10
5.84228
20
-3.05665
11
5.87772
21
-3.05665
0
LINE
8
BLACK
6
CONTINUOUS
10
5.87772
20
-3.05665
11
5.87964
21
-3.05684
0
LINE
8
BLACK
6
CONTINUOUS
10
6.51964
20
-3.03755
11
6.52148
21
-3.03811
0
LINE
8
BLACK
6
CONTINUOUS
10
6.52148
20
-3.03811
11
6.52318
21
-3.03902
0
LINE
8
BLACK
6
CONTINUOUS
10
6.52318
20
-3.03902
11
6.52468
21
-3.04025
0
LINE
8
BLACK
6
CONTINUOUS
10
6.52468
20
-3.04025
11
6.5259
21
-3.04174
0
LINE
8
BLACK
6
CONTINUOUS
10
6.5259
20
-3.04174
11
6.52681
21
-3.04344
0
LINE
8
BLACK
6
CONTINUOUS
10
6.52681
20
-3.04344
11
6.52737
21
-3.04528
0
LINE
8
BLACK
6
CONTINUOUS
10
6.52737
20
-3.04528
11
6.52756
21
-3.0472
0
LINE
8
BLACK
6
CONTINUOUS
10
6.52756
20
-3.0472
11
6.52756
21
-3.0728
0
LINE
8
BLACK
6
CONTINUOUS
10
6.52756
20
-3.0728
11
6.52737
21
-3.07472
0
LINE
8
BLACK
6
CONTINUOUS
10
6.52737
20
-3.07472
11
6.52681
21
-3.07656
0
LINE
8
BLACK
6
CONTINUOUS
10
6.52681
20
-3.07656
11
6.5259
21
-3.07826
0
LINE
8
BLACK
6
CONTINUOUS
10
6.5259
20
-3.07826
11
6.52468
21
-3.07976
0
LINE
8
BLACK
6
CONTINUOUS
10
6.52468
20
-3.07976
11
6.52318
21
-3.08098
0
LINE
8
BLACK
6
CONTINUOUS
10
6.52318
20
-3.08098
11
6.52148
21
-3.08189
0
LINE
8
BLACK
6
CONTINUOUS
10
6.52148
20
-3.08189
11
6.51964
21
-3.08245
0
LINE
8
BLACK
6
CONTINUOUS
10
6.51964
20
-3.08245
11
6.51772
21
-3.08264
0
LINE
8
BLACK
6
CONTINUOUS
10
6.51772
20
-3.08264
11
6.48228
21
-3.08264
0
LINE
8
BLACK
6
CONTINUOUS
10
6.48228
20
-3.08264
11
6.48036
21
-3.08245
0
LINE
8
BLACK
6
CONTINUOUS
10
6.48036
20
-3.08245
11
6.47852
21
-3.08189
0
LINE
8
BLACK
6
CONTINUOUS
10
6.47852
20
-3.08189
11
6.47682
21
-3.08098
0
LINE
8
BLACK
6
CONTINUOUS
10
6.47682
20
-3.08098
11
6.47532
21
-3.07976
0
LINE
8
BLACK
6
CONTINUOUS
10
6.47532
20
-3.07976
11
6.4741
21
-3.07826
0
LINE
8
BLACK
6
CONTINUOUS
10
6.4741
20
-3.07826
11
6.47319
21
-3.07656
0
LINE
8
BLACK
6
CONTINUOUS
10
6.47319
20
-3.07656
11
6.47263
21
-3.07472
0
LINE
8
BLACK
6
CONTINUOUS
10
6.47263
20
-3.07472
11
6.47244
21
-3.0728
0
LINE
8
BLACK
6
CONTINUOUS
10
6.47244
20
-3.0728
11
6.47244
21
-3.0472
0
LINE
8
BLACK
6
CONTINUOUS
10
6.47244
20
-3.0472
11
6.47263
21
-3.04528
0
LINE
8
BLACK
6
CONTINUOUS
10
6.47263
20
-3.04528
11
6.47319
21
-3.04344
0
LINE
8
BLACK
6
CONTINUOUS
10
6.47319
20
-3.04344
11
6.4741
21
-3.04174
0
LINE
8
BLACK
6
CONTINUOUS
10
6.4741
20
-3.04174
11
6.47532
21
-3.04025
0
LINE
8
BLACK
6
CONTINUOUS
10
6.47532
20
-3.04025
11
6.47682
21
-3.03902
0
LINE
8
BLACK
6
CONTINUOUS
10
6.47682
20
-3.03902
11
6.47852
21
-3.03811
0
LINE
8
BLACK
6
CONTINUOUS
10
6.47852
20
-3.03811
11
6.48036
21
-3.03755
0
LINE
8
BLACK
6
CONTINUOUS
10
6.48036
20
-3.03755
11
6.48228
21
-3.03736
0
LINE
8
BLACK
6
CONTINUOUS
10
6.48228
20
-3.03736
11
6.51772
21
-3.03736
0
LINE
8
BLACK
6
CONTINUOUS
10
6.51772
20
-3.03736
11
6.51964
21
-3.03755
0
LINE
8
BLACK
6
CONTINUOUS
10
6.43964
20
-3.03755
11
6.44148
21
-3.03811
0
LINE
8
BLACK
6
CONTINUOUS
10
6.44148
20
-3.03811
11
6.44318
21
-3.03902
0
LINE
8
BLACK
6
CONTINUOUS
10
6.44318
20
-3.03902
11
6.44468
21
-3.04025
0
LINE
8
BLACK
6
CONTINUOUS
10
6.44468
20
-3.04025
11
6.4459
21
-3.04174
0
LINE
8
BLACK
6
CONTINUOUS
10
6.4459
20
-3.04174
11
6.44681
21
-3.04344
0
LINE
8
BLACK
6
CONTINUOUS
10
6.44681
20
-3.04344
11
6.44737
21
-3.04528
0
LINE
8
BLACK
6
CONTINUOUS
10
6.44737
20
-3.04528
11
6.44756
21
-3.0472
0
LINE
8
BLACK
6
CONTINUOUS
10
6.44756
20
-3.0472
11
6.44756
21
-3.0728
0
LINE
8
BLACK
6
CONTINUOUS
10
6.44756
20
-3.0728
11
6.44737
21
-3.07472
0
LINE
8
BLACK
6
CONTINUOUS
10
6.44737
20
-3.07472
11
6.44681
21
-3.07656
0
LINE
8
BLACK
6
CONTINUOUS
10
6.44681
20
-3.07656
11
6.4459
21
-3.07826
0
LINE
8
BLACK
6
CONTINUOUS
10
6.4459
20
-3.07826
11
6.44468
21
-3.07976
0
LINE
8
BLACK
6
CONTINUOUS
10
6.44468
20
-3.07976
11
6.44318
21
-3.08098
0
LINE
8
BLACK
6
CONTINUOUS
10
6.44318
20
-3.08098
11
6.44148
21
-3.08189
0
LINE
8
BLACK
6
CONTINUOUS
10
6.44148
20
-3.08189
11
6.43964
21
-3.08245
0
LINE
8
BLACK
6
CONTINUOUS
10
6.43964
20
-3.08245
11
6.43772
21
-3.08264
0
LINE
8
BLACK
6
CONTINUOUS
10
6.43772
20
-3.08264
11
6.40228
21
-3.08264
0
LINE
8
BLACK
6
CONTINUOUS
10
6.40228
20
-3.08264
11
6.40036
21
-3.08245
0
LINE
8
BLACK
6
CONTINUOUS
10
6.40036
20
-3.08245
11
6.39852
21
-3.08189
0
LINE
8
BLACK
6
CONTINUOUS
10
6.39852
20
-3.08189
11
6.39682
21
-3.08098
0
LINE
8
BLACK
6
CONTINUOUS
10
6.39682
20
-3.08098
11
6.39532
21
-3.07976
0
LINE
8
BLACK
6
CONTINUOUS
10
6.39532
20
-3.07976
11
6.3941
21
-3.07826
0
LINE
8
BLACK
6
CONTINUOUS
10
6.3941
20
-3.07826
11
6.39319
21
-3.07656
0
LINE
8
BLACK
6
CONTINUOUS
10
6.39319
20
-3.07656
11
6.39263
21
-3.07472
0
LINE
8
BLACK
6
CONTINUOUS
10
6.39263
20
-3.07472
11
6.39244
21
-3.0728
0
LINE
8
BLACK
6
CONTINUOUS
10
6.39244
20
-3.0728
11
6.39244
21
-3.0472
0
LINE
8
BLACK
6
CONTINUOUS
10
6.39244
20
-3.0472
11
6.39263
21
-3.04528
0
LINE
8
BLACK
6
CONTINUOUS
10
6.39263
20
-3.04528
11
6.39319
21
-3.04344
0
LINE
8
BLACK
6
CONTINUOUS
10
6.39319
20
-3.04344
11
6.3941
21
-3.04174
0
LINE
8
BLACK
6
CONTINUOUS
10
6.3941
20
-3.04174
11
6.39532
21
-3.04025
0
LINE
8
BLACK
6
CONTINUOUS
10
6.39532
20
-3.04025
11
6.39682
21
-3.03902
0
LINE
8
BLACK
6
CONTINUOUS
10
6.39682
20
-3.03902
11
6.39852
21
-3.03811
0
LINE
8
BLACK
6
CONTINUOUS
10
6.39852
20
-3.03811
11
6.40036
21
-3.03755
0
LINE
8
BLACK
6
CONTINUOUS
10
6.40036
20
-3.03755
11
6.40228
21
-3.03736
0
LINE
8
BLACK
6
CONTINUOUS
10
6.40228
20
-3.03736
11
6.43772
21
-3.03736
0
LINE
8
BLACK
6
CONTINUOUS
10
6.43772
20
-3.03736
11
6.43964
21
-3.03755
0
LINE
8
BLACK
6
CONTINUOUS
10
6.03472
20
-2.97263
11
6.03656
21
-2.97319
0
LINE
8
BLACK
6
CONTINUOUS
10
6.03656
20
-2.97319
11
6.03826
21
-2.9741
0
LINE
8
BLACK
6
CONTINUOUS
10
6.03826
20
-2.9741
11
6.03975
21
-2.97532
0
LINE
8
BLACK
6
CONTINUOUS
10
6.03975
20
-2.97532
11
6.04098
21
-2.97682
0
LINE
8
BLACK
6
CONTINUOUS
10
6.04098
20
-2.97682
11
6.04189
21
-2.97852
0
LINE
8
BLACK
6
CONTINUOUS
10
6.04189
20
-2.97852
11
6.04245
21
-2.98036
0
LINE
8
BLACK
6
CONTINUOUS
10
6.04245
20
-2.98036
11
6.04264
21
-2.98228
0
LINE
8
BLACK
6
CONTINUOUS
10
6.04264
20
-2.98228
11
6.04264
21
-3.01772
0
LINE
8
BLACK
6
CONTINUOUS
10
6.04264
20
-3.01772
11
6.04245
21
-3.01964
0
LINE
8
BLACK
6
CONTINUOUS
10
6.04245
20
-3.01964
11
6.04189
21
-3.02148
0
LINE
8
BLACK
6
CONTINUOUS
10
6.04189
20
-3.02148
11
6.04098
21
-3.02318
0
LINE
8
BLACK
6
CONTINUOUS
10
6.04098
20
-3.02318
11
6.03975
21
-3.02468
0
LINE
8
BLACK
6
CONTINUOUS
10
6.03975
20
-3.02468
11
6.03826
21
-3.0259
0
LINE
8
BLACK
6
CONTINUOUS
10
6.03826
20
-3.0259
11
6.03656
21
-3.02681
0
LINE
8
BLACK
6
CONTINUOUS
10
6.03656
20
-3.02681
11
6.03472
21
-3.02737
0
LINE
8
BLACK
6
CONTINUOUS
10
6.03472
20
-3.02737
11
6.0328
21
-3.02756
0
LINE
8
BLACK
6
CONTINUOUS
10
6.0328
20
-3.02756
11
6.0072
21
-3.02756
0
LINE
8
BLACK
6
CONTINUOUS
10
6.0072
20
-3.02756
11
6.00528
21
-3.02737
0
LINE
8
BLACK
6
CONTINUOUS
10
6.00528
20
-3.02737
11
6.00344
21
-3.02681
0
LINE
8
BLACK
6
CONTINUOUS
10
6.00344
20
-3.02681
11
6.00174
21
-3.0259
0
LINE
8
BLACK
6
CONTINUOUS
10
6.00174
20
-3.0259
11
6.00024
21
-3.02468
0
LINE
8
BLACK
6
CONTINUOUS
10
6.00024
20
-3.02468
11
5.99902
21
-3.02318
0
LINE
8
BLACK
6
CONTINUOUS
10
5.99902
20
-3.02318
11
5.99811
21
-3.02148
0
LINE
8
BLACK
6
CONTINUOUS
10
5.99811
20
-3.02148
11
5.99755
21
-3.01964
0
LINE
8
BLACK
6
CONTINUOUS
10
5.99755
20
-3.01964
11
5.99736
21
-3.01772
0
LINE
8
BLACK
6
CONTINUOUS
10
5.99736
20
-3.01772
11
5.99736
21
-2.98228
0
LINE
8
BLACK
6
CONTINUOUS
10
5.99736
20
-2.98228
11
5.99755
21
-2.98036
0
LINE
8
BLACK
6
CONTINUOUS
10
5.99755
20
-2.98036
11
5.99811
21
-2.97852
0
LINE
8
BLACK
6
CONTINUOUS
10
5.99811
20
-2.97852
11
5.99902
21
-2.97682
0
LINE
8
BLACK
6
CONTINUOUS
10
5.99902
20
-2.97682
11
6.00024
21
-2.97532
0
LINE
8
BLACK
6
CONTINUOUS
10
6.00024
20
-2.97532
11
6.00174
21
-2.9741
0
LINE
8
BLACK
6
CONTINUOUS
10
6.00174
20
-2.9741
11
6.00344
21
-2.97319
0
LINE
8
BLACK
6
CONTINUOUS
10
6.00344
20
-2.97319
11
6.00528
21
-2.97263
0
LINE
8
BLACK
6
CONTINUOUS
10
6.00528
20
-2.97263
11
6.0072
21
-2.97244
0
LINE
8
BLACK
6
CONTINUOUS
10
6.0072
20
-2.97244
11
6.0328
21
-2.97244
0
LINE
8
BLACK
6
CONTINUOUS
10
6.0328
20
-2.97244
11
6.03472
21
-2.97263
0
LINE
8
BLACK
6
CONTINUOUS
10
6.11542
20
-2.97263
11
6.11727
21
-2.97319
0
LINE
8
BLACK
6
CONTINUOUS
10
6.11727
20
-2.97319
11
6.11897
21
-2.9741
0
LINE
8
BLACK
6
CONTINUOUS
10
6.11897
20
-2.9741
11
6.12046
21
-2.97532
0
LINE
8
BLACK
6
CONTINUOUS
10
6.12046
20
-2.97532
11
6.12169
21
-2.97682
0
LINE
8
BLACK
6
CONTINUOUS
10
6.12169
20
-2.97682
11
6.1226
21
-2.97852
0
LINE
8
BLACK
6
CONTINUOUS
10
6.1226
20
-2.97852
11
6.12316
21
-2.98036
0
LINE
8
BLACK
6
CONTINUOUS
10
6.12316
20
-2.98036
11
6.12335
21
-2.98228
0
LINE
8
BLACK
6
CONTINUOUS
10
6.12335
20
-2.98228
11
6.12335
21
-3.01772
0
LINE
8
BLACK
6
CONTINUOUS
10
6.12335
20
-3.01772
11
6.12316
21
-3.01964
0
LINE
8
BLACK
6
CONTINUOUS
10
6.12316
20
-3.01964
11
6.1226
21
-3.02148
0
LINE
8
BLACK
6
CONTINUOUS
10
6.1226
20
-3.02148
11
6.12169
21
-3.02318
0
LINE
8
BLACK
6
CONTINUOUS
10
6.12169
20
-3.02318
11
6.12046
21
-3.02468
0
LINE
8
BLACK
6
CONTINUOUS
10
6.12046
20
-3.02468
11
6.11897
21
-3.0259
0
LINE
8
BLACK
6
CONTINUOUS
10
6.11897
20
-3.0259
11
6.11727
21
-3.02681
0
LINE
8
BLACK
6
CONTINUOUS
10
6.11727
20
-3.02681
11
6.11542
21
-3.02737
0
LINE
8
BLACK
6
CONTINUOUS
10
6.11542
20
-3.02737
11
6.1135
21
-3.02756
0
LINE
8
BLACK
6
CONTINUOUS
10
6.1135
20
-3.02756
11
6.08791
21
-3.02756
0
LINE
8
BLACK
6
CONTINUOUS
10
6.08791
20
-3.02756
11
6.08599
21
-3.02737
0
LINE
8
BLACK
6
CONTINUOUS
10
6.08599
20
-3.02737
11
6.08415
21
-3.02681
0
LINE
8
BLACK
6
CONTINUOUS
10
6.08415
20
-3.02681
11
6.08245
21
-3.0259
0
LINE
8
BLACK
6
CONTINUOUS
10
6.08245
20
-3.0259
11
6.08095
21
-3.02468
0
LINE
8
BLACK
6
CONTINUOUS
10
6.08095
20
-3.02468
11
6.07973
21
-3.02318
0
LINE
8
BLACK
6
CONTINUOUS
10
6.07973
20
-3.02318
11
6.07882
21
-3.02148
0
LINE
8
BLACK
6
CONTINUOUS
10
6.07882
20
-3.02148
11
6.07826
21
-3.01964
0
LINE
8
BLACK
6
CONTINUOUS
10
6.07826
20
-3.01964
11
6.07807
21
-3.01772
0
LINE
8
BLACK
6
CONTINUOUS
10
6.07807
20
-3.01772
11
6.07807
21
-2.98228
0
LINE
8
BLACK
6
CONTINUOUS
10
6.07807
20
-2.98228
11
6.07826
21
-2.98036
0
LINE
8
BLACK
6
CONTINUOUS
10
6.07826
20
-2.98036
11
6.07882
21
-2.97852
0
LINE
8
BLACK
6
CONTINUOUS
10
6.07882
20
-2.97852
11
6.07973
21
-2.97682
0
LINE
8
BLACK
6
CONTINUOUS
10
6.07973
20
-2.97682
11
6.08095
21
-2.97532
0
LINE
8
BLACK
6
CONTINUOUS
10
6.08095
20
-2.97532
11
6.08245
21
-2.9741
0
LINE
8
BLACK
6
CONTINUOUS
10
6.08245
20
-2.9741
11
6.08415
21
-2.97319
0
LINE
8
BLACK
6
CONTINUOUS
10
6.08415
20
-2.97319
11
6.08599
21
-2.97263
0
LINE
8
BLACK
6
CONTINUOUS
10
6.08599
20
-2.97263
11
6.08791
21
-2.97244
0
LINE
8
BLACK
6
CONTINUOUS
10
6.08791
20
-2.97244
11
6.1135
21
-2.97244
0
LINE
8
BLACK
6
CONTINUOUS
10
6.1135
20
-2.97244
11
6.11542
21
-2.97263
0
LINE
8
BLACK
6
CONTINUOUS
10
5.79472
20
-2.97263
11
5.79656
21
-2.97319
0
LINE
8
BLACK
6
CONTINUOUS
10
5.79656
20
-2.97319
11
5.79826
21
-2.9741
0
LINE
8
BLACK
6
CONTINUOUS
10
5.79826
20
-2.9741
11
5.79976
21
-2.97532
0
LINE
8
BLACK
6
CONTINUOUS
10
5.79976
20
-2.97532
11
5.80098
21
-2.97682
0
LINE
8
BLACK
6
CONTINUOUS
10
5.80098
20
-2.97682
11
5.80189
21
-2.97852
0
LINE
8
BLACK
6
CONTINUOUS
10
5.80189
20
-2.97852
11
5.80245
21
-2.98036
0
LINE
8
BLACK
6
CONTINUOUS
10
5.80245
20
-2.98036
11
5.80264
21
-2.98228
0
LINE
8
BLACK
6
CONTINUOUS
10
5.80264
20
-2.98228
11
5.80264
21
-3.01772
0
LINE
8
BLACK
6
CONTINUOUS
10
5.80264
20
-3.01772
11
5.80245
21
-3.01964
0
LINE
8
BLACK
6
CONTINUOUS
10
5.80245
20
-3.01964
11
5.80189
21
-3.02148
0
LINE
8
BLACK
6
CONTINUOUS
10
5.80189
20
-3.02148
11
5.80098
21
-3.02318
0
LINE
8
BLACK
6
CONTINUOUS
10
5.80098
20
-3.02318
11
5.79976
21
-3.02468
0
LINE
8
BLACK
6
CONTINUOUS
10
5.79976
20
-3.02468
11
5.79826
21
-3.0259
0
LINE
8
BLACK
6
CONTINUOUS
10
5.79826
20
-3.0259
11
5.79656
21
-3.02681
0
LINE
8
BLACK
6
CONTINUOUS
10
5.79656
20
-3.02681
11
5.79472
21
-3.02737
0
LINE
8
BLACK
6
CONTINUOUS
10
5.79472
20
-3.02737
11
5.7928
21
-3.02756
0
LINE
8
BLACK
6
CONTINUOUS
10
5.7928
20
-3.02756
11
5.7672
21
-3.02756
0
LINE
8
BLACK
6
CONTINUOUS
10
5.7672
20
-3.02756
11
5.76528
21
-3.02737
0
LINE
8
BLACK
6
CONTINUOUS
10
5.76528
20
-3.02737
11
5.76344
21
-3.02681
0
LINE
8
BLACK
6
CONTINUOUS
10
5.76344
20
-3.02681
11
5.76174
21
-3.0259
0
LINE
8
BLACK
6
CONTINUOUS
10
5.76174
20
-3.0259
11
5.76025
21
-3.02468
0
LINE
8
BLACK
6
CONTINUOUS
10
5.76025
20
-3.02468
11
5.75902
21
-3.02318
0
LINE
8
BLACK
6
CONTINUOUS
10
5.75902
20
-3.02318
11
5.75811
21
-3.02148
0
LINE
8
BLACK
6
CONTINUOUS
10
5.75811
20
-3.02148
11
5.75755
21
-3.01964
0
LINE
8
BLACK
6
CONTINUOUS
10
5.75755
20
-3.01964
11
5.75736
21
-3.01772
0
LINE
8
BLACK
6
CONTINUOUS
10
5.75736
20
-3.01772
11
5.75736
21
-2.98228
0
LINE
8
BLACK
6
CONTINUOUS
10
5.75736
20
-2.98228
11
5.75755
21
-2.98036
0
LINE
8
BLACK
6
CONTINUOUS
10
5.75755
20
-2.98036
11
5.75811
21
-2.97852
0
LINE
8
BLACK
6
CONTINUOUS
10
5.75811
20
-2.97852
11
5.75902
21
-2.97682
0
LINE
8
BLACK
6
CONTINUOUS
10
5.75902
20
-2.97682
11
5.76025
21
-2.97532
0
LINE
8
BLACK
6
CONTINUOUS
10
5.76025
20
-2.97532
11
5.76174
21
-2.9741
0
LINE
8
BLACK
6
CONTINUOUS
10
5.76174
20
-2.9741
11
5.76344
21
-2.97319
0
LINE
8
BLACK
6
CONTINUOUS
10
5.76344
20
-2.97319
11
5.76528
21
-2.97263
0
LINE
8
BLACK
6
CONTINUOUS
10
5.76528
20
-2.97263
11
5.7672
21
-2.97244
0
LINE
8
BLACK
6
CONTINUOUS
10
5.7672
20
-2.97244
11
5.7928
21
-2.97244
0
LINE
8
BLACK
6
CONTINUOUS
10
5.7928
20
-2.97244
11
5.79472
21
-2.97263
0
LINE
8
BLACK
6
CONTINUOUS
10
5.71401
20
-2.97263
11
5.71585
21
-2.97319
0
LINE
8
BLACK
6
CONTINUOUS
10
5.71585
20
-2.97319
11
5.71755
21
-2.9741
0
LINE
8
BLACK
6
CONTINUOUS
10
5.71755
20
-2.9741
11
5.71905
21
-2.97532
0
LINE
8
BLACK
6
CONTINUOUS
10
5.71905
20
-2.97532
11
5.72027
21
-2.97682
0
LINE
8
BLACK
6
CONTINUOUS
10
5.72027
20
-2.97682
11
5.72118
21
-2.97852
0
LINE
8
BLACK
6
CONTINUOUS
10
5.72118
20
-2.97852
11
5.72174
21
-2.98036
0
LINE
8
BLACK
6
CONTINUOUS
10
5.72174
20
-2.98036
11
5.72193
21
-2.98228
0
LINE
8
BLACK
6
CONTINUOUS
10
5.72193
20
-2.98228
11
5.72193
21
-3.01772
0
LINE
8
BLACK
6
CONTINUOUS
10
5.72193
20
-3.01772
11
5.72174
21
-3.01964
0
LINE
8
BLACK
6
CONTINUOUS
10
5.72174
20
-3.01964
11
5.72118
21
-3.02148
0
LINE
8
BLACK
6
CONTINUOUS
10
5.72118
20
-3.02148
11
5.72027
21
-3.02318
0
LINE
8
BLACK
6
CONTINUOUS
10
5.72027
20
-3.02318
11
5.71905
21
-3.02468
0
LINE
8
BLACK
6
CONTINUOUS
10
5.71905
20
-3.02468
11
5.71755
21
-3.0259
0
LINE
8
BLACK
6
CONTINUOUS
10
5.71755
20
-3.0259
11
5.71585
21
-3.02681
0
LINE
8
BLACK
6
CONTINUOUS
10
5.71585
20
-3.02681
11
5.71401
21
-3.02737
0
LINE
8
BLACK
6
CONTINUOUS
10
5.71401
20
-3.02737
11
5.71209
21
-3.02756
0
LINE
8
BLACK
6
CONTINUOUS
10
5.71209
20
-3.02756
11
5.6865
21
-3.02756
0
LINE
8
BLACK
6
CONTINUOUS
10
5.6865
20
-3.02756
11
5.68458
21
-3.02737
0
LINE
8
BLACK
6
CONTINUOUS
10
5.68458
20
-3.02737
11
5.68273
21
-3.02681
0
LINE
8
BLACK
6
CONTINUOUS
10
5.68273
20
-3.02681
11
5.68103
21
-3.0259
0
LINE
8
BLACK
6
CONTINUOUS
10
5.68103
20
-3.0259
11
5.67954
21
-3.02468
0
LINE
8
BLACK
6
CONTINUOUS
10
5.67954
20
-3.02468
11
5.67831
21
-3.02318
0
LINE
8
BLACK
6
CONTINUOUS
10
5.67831
20
-3.02318
11
5.6774
21
-3.02148
0
LINE
8
BLACK
6
CONTINUOUS
10
5.6774
20
-3.02148
11
5.67684
21
-3.01964
0
LINE
8
BLACK
6
CONTINUOUS
10
5.67684
20
-3.01964
11
5.67665
21
-3.01772
0
LINE
8
BLACK
6
CONTINUOUS
10
5.67665
20
-3.01772
11
5.67665
21
-2.98228
0
LINE
8
BLACK
6
CONTINUOUS
10
5.67665
20
-2.98228
11
5.67684
21
-2.98036
0
LINE
8
BLACK
6
CONTINUOUS
10
5.67684
20
-2.98036
11
5.6774
21
-2.97852
0
LINE
8
BLACK
6
CONTINUOUS
10
5.6774
20
-2.97852
11
5.67831
21
-2.97682
0
LINE
8
BLACK
6
CONTINUOUS
10
5.67831
20
-2.97682
11
5.67954
21
-2.97532
0
LINE
8
BLACK
6
CONTINUOUS
10
5.67954
20
-2.97532
11
5.68103
21
-2.9741
0
LINE
8
BLACK
6
CONTINUOUS
10
5.68103
20
-2.9741
11
5.68273
21
-2.97319
0
LINE
8
BLACK
6
CONTINUOUS
10
5.68273
20
-2.97319
11
5.68458
21
-2.97263
0
LINE
8
BLACK
6
CONTINUOUS
10
5.68458
20
-2.97263
11
5.6865
21
-2.97244
0
LINE
8
BLACK
6
CONTINUOUS
10
5.6865
20
-2.97244
11
5.71209
21
-2.97244
0
LINE
8
BLACK
6
CONTINUOUS
10
5.71209
20
-2.97244
11
5.71401
21
-2.97263
0
LINE
8
BLACK
6
CONTINUOUS
10
6.68357
20
-2.90791
11
6.68542
21
-2.90847
0
LINE
8
BLACK
6
CONTINUOUS
10
6.68542
20
-2.90847
11
6.68712
21
-2.90938
0
LINE
8
BLACK
6
CONTINUOUS
10
6.68712
20
-2.90938
11
6.68861
21
-2.9106
0
LINE
8
BLACK
6
CONTINUOUS
10
6.68861
20
-2.9106
11
6.68984
21
-2.91209
0
LINE
8
BLACK
6
CONTINUOUS
10
6.68984
20
-2.91209
11
6.69075
21
-2.91379
0
LINE
8
BLACK
6
CONTINUOUS
10
6.69075
20
-2.91379
11
6.69131
21
-2.91564
0
LINE
8
BLACK
6
CONTINUOUS
10
6.69131
20
-2.91564
11
6.6915
21
-2.91756
0
LINE
8
BLACK
6
CONTINUOUS
10
6.6915
20
-2.91756
11
6.6915
21
-3.01598
0
LINE
8
BLACK
6
CONTINUOUS
10
6.6915
20
-3.01598
11
6.69131
21
-3.0179
0
LINE
8
BLACK
6
CONTINUOUS
10
6.69131
20
-3.0179
11
6.69075
21
-3.01975
0
LINE
8
BLACK
6
CONTINUOUS
10
6.69075
20
-3.01975
11
6.68984
21
-3.02145
0
LINE
8
BLACK
6
CONTINUOUS
10
6.68984
20
-3.02145
11
6.68861
21
-3.02294
0
LINE
8
BLACK
6
CONTINUOUS
10
6.68861
20
-3.02294
11
6.68712
21
-3.02417
0
LINE
8
BLACK
6
CONTINUOUS
10
6.68712
20
-3.02417
11
6.68542
21
-3.02508
0
LINE
8
BLACK
6
CONTINUOUS
10
6.68542
20
-3.02508
11
6.68357
21
-3.02564
0
LINE
8
BLACK
6
CONTINUOUS
10
6.68357
20
-3.02564
11
6.68165
21
-3.02583
0
LINE
8
BLACK
6
CONTINUOUS
10
6.68165
20
-3.02583
11
6.63835
21
-3.02583
0
LINE
8
BLACK
6
CONTINUOUS
10
6.63835
20
-3.02583
11
6.63643
21
-3.02564
0
LINE
8
BLACK
6
CONTINUOUS
10
6.63643
20
-3.02564
11
6.63458
21
-3.02508
0
LINE
8
BLACK
6
CONTINUOUS
10
6.63458
20
-3.02508
11
6.63288
21
-3.02417
0
LINE
8
BLACK
6
CONTINUOUS
10
6.63288
20
-3.02417
11
6.63139
21
-3.02294
0
LINE
8
BLACK
6
CONTINUOUS
10
6.63139
20
-3.02294
11
6.63016
21
-3.02145
0
LINE
8
BLACK
6
CONTINUOUS
10
6.63016
20
-3.02145
11
6.62925
21
-3.01975
0
LINE
8
BLACK
6
CONTINUOUS
10
6.62925
20
-3.01975
11
6.62869
21
-3.0179
0
LINE
8
BLACK
6
CONTINUOUS
10
6.62869
20
-3.0179
11
6.6285
21
-3.01598
0
LINE
8
BLACK
6
CONTINUOUS
10
6.6285
20
-3.01598
11
6.6285
21
-2.91756
0
LINE
8
BLACK
6
CONTINUOUS
10
6.6285
20
-2.91756
11
6.62869
21
-2.91564
0
LINE
8
BLACK
6
CONTINUOUS
10
6.62869
20
-2.91564
11
6.62925
21
-2.91379
0
LINE
8
BLACK
6
CONTINUOUS
10
6.62925
20
-2.91379
11
6.63016
21
-2.91209
0
LINE
8
BLACK
6
CONTINUOUS
10
6.63016
20
-2.91209
11
6.63139
21
-2.9106
0
LINE
8
BLACK
6
CONTINUOUS
10
6.63139
20
-2.9106
11
6.63288
21
-2.90938
0
LINE
8
BLACK
6
CONTINUOUS
10
6.63288
20
-2.90938
11
6.63458
21
-2.90847
0
LINE
8
BLACK
6
CONTINUOUS
10
6.63458
20
-2.90847
11
6.63643
21
-2.90791
0
LINE
8
BLACK
6
CONTINUOUS
10
6.63643
20
-2.90791
11
6.63835
21
-2.90772
0
LINE
8
BLACK
6
CONTINUOUS
10
6.63835
20
-2.90772
11
6.68165
21
-2.90772
0
LINE
8
BLACK
6
CONTINUOUS
10
6.68165
20
-2.90772
11
6.68357
21
-2.90791
0
LINE
8
BLACK
6
CONTINUOUS
10
6.34764
20
-3.02362
11
6.3122
21
-3.02362
0
LINE
8
BLACK
6
CONTINUOUS
10
6.3122
20
-3.02362
11
6.3122
21
-2.97638
0
LINE
8
BLACK
6
CONTINUOUS
10
6.3122
20
-2.97638
11
6.34764
21
-2.97638
0
LINE
8
BLACK
6
CONTINUOUS
10
6.34764
20
-2.97638
11
6.34764
21
-3.02362
0
LINE
8
BLACK
6
CONTINUOUS
10
6.21772
20
-3.02362
11
6.18228
21
-3.02362
0
LINE
8
BLACK
6
CONTINUOUS
10
6.18228
20
-3.02362
11
6.18228
21
-2.97638
0
LINE
8
BLACK
6
CONTINUOUS
10
6.18228
20
-2.97638
11
6.21772
21
-2.97638
0
LINE
8
BLACK
6
CONTINUOUS
10
6.21772
20
-2.97638
11
6.21772
21
-3.02362
0
LINE
8
BLACK
6
CONTINUOUS
10
6.51964
20
-2.95684
11
6.52148
21
-2.9574
0
LINE
8
BLACK
6
CONTINUOUS
10
6.52148
20
-2.9574
11
6.52318
21
-2.95831
0
LINE
8
BLACK
6
CONTINUOUS
10
6.52318
20
-2.95831
11
6.52468
21
-2.95954
0
LINE
8
BLACK
6
CONTINUOUS
10
6.52468
20
-2.95954
11
6.5259
21
-2.96103
0
LINE
8
BLACK
6
CONTINUOUS
10
6.5259
20
-2.96103
11
6.52681
21
-2.96273
0
LINE
8
BLACK
6
CONTINUOUS
10
6.52681
20
-2.96273
11
6.52737
21
-2.96458
0
LINE
8
BLACK
6
CONTINUOUS
10
6.52737
20
-2.96458
11
6.52756
21
-2.9665
0
LINE
8
BLACK
6
CONTINUOUS
10
6.52756
20
-2.9665
11
6.52756
21
-2.99209
0
LINE
8
BLACK
6
CONTINUOUS
10
6.52756
20
-2.99209
11
6.52737
21
-2.99401
0
LINE
8
BLACK
6
CONTINUOUS
10
6.52737
20
-2.99401
11
6.52681
21
-2.99585
0
LINE
8
BLACK
6
CONTINUOUS
10
6.52681
20
-2.99585
11
6.5259
21
-2.99755
0
LINE
8
BLACK
6
CONTINUOUS
10
6.5259
20
-2.99755
11
6.52468
21
-2.99905
0
LINE
8
BLACK
6
CONTINUOUS
10
6.52468
20
-2.99905
11
6.52318
21
-3.00027
0
LINE
8
BLACK
6
CONTINUOUS
10
6.52318
20
-3.00027
11
6.52148
21
-3.00118
0
LINE
8
BLACK
6
CONTINUOUS
10
6.52148
20
-3.00118
11
6.51964
21
-3.00174
0
LINE
8
BLACK
6
CONTINUOUS
10
6.51964
20
-3.00174
11
6.51772
21
-3.00193
0
LINE
8
BLACK
6
CONTINUOUS
10
6.51772
20
-3.00193
11
6.48228
21
-3.00193
0
LINE
8
BLACK
6
CONTINUOUS
10
6.48228
20
-3.00193
11
6.48036
21
-3.00174
0
LINE
8
BLACK
6
CONTINUOUS
10
6.48036
20
-3.00174
11
6.47852
21
-3.00118
0
LINE
8
BLACK
6
CONTINUOUS
10
6.47852
20
-3.00118
11
6.47682
21
-3.00027
0
LINE
8
BLACK
6
CONTINUOUS
10
6.47682
20
-3.00027
11
6.47532
21
-2.99905
0
LINE
8
BLACK
6
CONTINUOUS
10
6.47532
20
-2.99905
11
6.4741
21
-2.99755
0
LINE
8
BLACK
6
CONTINUOUS
10
6.4741
20
-2.99755
11
6.47319
21
-2.99585
0
LINE
8
BLACK
6
CONTINUOUS
10
6.47319
20
-2.99585
11
6.47263
21
-2.99401
0
LINE
8
BLACK
6
CONTINUOUS
10
6.47263
20
-2.99401
11
6.47244
21
-2.99209
0
LINE
8
BLACK
6
CONTINUOUS
10
6.47244
20
-2.99209
11
6.47244
21
-2.9665
0
LINE
8
BLACK
6
CONTINUOUS
10
6.47244
20
-2.9665
11
6.47263
21
-2.96458
0
LINE
8
BLACK
6
CONTINUOUS
10
6.47263
20
-2.96458
11
6.47319
21
-2.96273
0
LINE
8
BLACK
6
CONTINUOUS
10
6.47319
20
-2.96273
11
6.4741
21
-2.96103
0
LINE
8
BLACK
6
CONTINUOUS
10
6.4741
20
-2.96103
11
6.47532
21
-2.95954
0
LINE
8
BLACK
6
CONTINUOUS
10
6.47532
20
-2.95954
11
6.47682
21
-2.95831
0
LINE
8
BLACK
6
CONTINUOUS
10
6.47682
20
-2.95831
11
6.47852
21
-2.9574
0
LINE
8
BLACK
6
CONTINUOUS
10
6.47852
20
-2.9574
11
6.48036
21
-2.95684
0
LINE
8
BLACK
6
CONTINUOUS
10
6.48036
20
-2.95684
11
6.48228
21
-2.95665
0
LINE
8
BLACK
6
CONTINUOUS
10
6.48228
20
-2.95665
11
6.51772
21
-2.95665
0
LINE
8
BLACK
6
CONTINUOUS
10
6.51772
20
-2.95665
11
6.51964
21
-2.95684
0
LINE
8
BLACK
6
CONTINUOUS
10
6.43964
20
-2.95684
11
6.44148
21
-2.9574
0
LINE
8
BLACK
6
CONTINUOUS
10
6.44148
20
-2.9574
11
6.44318
21
-2.95831
0
LINE
8
BLACK
6
CONTINUOUS
10
6.44318
20
-2.95831
11
6.44468
21
-2.95954
0
LINE
8
BLACK
6
CONTINUOUS
10
6.44468
20
-2.95954
11
6.4459
21
-2.96103
0
LINE
8
BLACK
6
CONTINUOUS
10
6.4459
20
-2.96103
11
6.44681
21
-2.96273
0
LINE
8
BLACK
6
CONTINUOUS
10
6.44681
20
-2.96273
11
6.44737
21
-2.96458
0
LINE
8
BLACK
6
CONTINUOUS
10
6.44737
20
-2.96458
11
6.44756
21
-2.9665
0
LINE
8
BLACK
6
CONTINUOUS
10
6.44756
20
-2.9665
11
6.44756
21
-2.99209
0
LINE
8
BLACK
6
CONTINUOUS
10
6.44756
20
-2.99209
11
6.44737
21
-2.99401
0
LINE
8
BLACK
6
CONTINUOUS
10
6.44737
20
-2.99401
11
6.44681
21
-2.99585
0
LINE
8
BLACK
6
CONTINUOUS
10
6.44681
20
-2.99585
11
6.4459
21
-2.99755
0
LINE
8
BLACK
6
CONTINUOUS
10
6.4459
20
-2.99755
11
6.44468
21
-2.99905
0
LINE
8
BLACK
6
CONTINUOUS
10
6.44468
20
-2.99905
11
6.44318
21
-3.00027
0
LINE
8
BLACK
6
CONTINUOUS
10
6.44318
20
-3.00027
11
6.44148
21
-3.00118
0
LINE
8
BLACK
6
CONTINUOUS
10
6.44148
20
-3.00118
11
6.43964
21
-3.00174
0
LINE
8
BLACK
6
CONTINUOUS
10
6.43964
20
-3.00174
11
6.43772
21
-3.00193
0
LINE
8
BLACK
6
CONTINUOUS
10
6.43772
20
-3.00193
11
6.40228
21
-3.00193
0
LINE
8
BLACK
6
CONTINUOUS
10
6.40228
20
-3.00193
11
6.40036
21
-3.00174
0
LINE
8
BLACK
6
CONTINUOUS
10
6.40036
20
-3.00174
11
6.39852
21
-3.00118
0
LINE
8
BLACK
6
CONTINUOUS
10
6.39852
20
-3.00118
11
6.39682
21
-3.00027
0
LINE
8
BLACK
6
CONTINUOUS
10
6.39682
20
-3.00027
11
6.39532
21
-2.99905
0
LINE
8
BLACK
6
CONTINUOUS
10
6.39532
20
-2.99905
11
6.3941
21
-2.99755
0
LINE
8
BLACK
6
CONTINUOUS
10
6.3941
20
-2.99755
11
6.39319
21
-2.99585
0
LINE
8
BLACK
6
CONTINUOUS
10
6.39319
20
-2.99585
11
6.39263
21
-2.99401
0
LINE
8
BLACK
6
CONTINUOUS
10
6.39263
20
-2.99401
11
6.39244
21
-2.99209
0
LINE
8
BLACK
6
CONTINUOUS
10
6.39244
20
-2.99209
11
6.39244
21
-2.9665
0
LINE
8
BLACK
6
CONTINUOUS
10
6.39244
20
-2.9665
11
6.39263
21
-2.96458
0
LINE
8
BLACK
6
CONTINUOUS
10
6.39263
20
-2.96458
11
6.39319
21
-2.96273
0
LINE
8
BLACK
6
CONTINUOUS
10
6.39319
20
-2.96273
11
6.3941
21
-2.96103
0
LINE
8
BLACK
6
CONTINUOUS
10
6.3941
20
-2.96103
11
6.39532
21
-2.95954
0
LINE
8
BLACK
6
CONTINUOUS
10
6.39532
20
-2.95954
11
6.39682
21
-2.95831
0
LINE
8
BLACK
6
CONTINUOUS
10
6.39682
20
-2.95831
11
6.39852
21
-2.9574
0
LINE
8
BLACK
6
CONTINUOUS
10
6.39852
20
-2.9574
11
6.40036
21
-2.95684
0
LINE
8
BLACK
6
CONTINUOUS
10
6.40036
20
-2.95684
11
6.40228
21
-2.95665
0
LINE
8
BLACK
6
CONTINUOUS
10
6.40228
20
-2.95665
11
6.43772
21
-2.95665
0
LINE
8
BLACK
6
CONTINUOUS
10
6.43772
20
-2.95665
11
6.43964
21
-2.95684
  0
ENDSEC
  0
EOF
