%TF.GenerationSoftware,KiCad,Pcbnew,(5.1.6-0-10_14)*%
%TF.CreationDate,2021-01-24T21:36:40+01:00*%
%TF.ProjectId,CAN_Display,43414e5f-4469-4737-906c-61792e6b6963,rev?*%
%TF.SameCoordinates,Original*%
%TF.FileFunction,Soldermask,Top*%
%TF.FilePolarity,Negative*%
%FSLAX46Y46*%
G04 Gerber Fmt 4.6, Leading zero omitted, Abs format (unit mm)*
G04 Created by KiCad (PCBNEW (5.1.6-0-10_14)) date 2021-01-24 21:36:40*
%MOMM*%
%LPD*%
G01*
G04 APERTURE LIST*
%ADD10R,2.600000X2.400000*%
%ADD11O,1.800000X1.800000*%
%ADD12R,1.800000X1.800000*%
%ADD13C,0.100000*%
%ADD14R,1.300000X1.000000*%
%ADD15R,1.000000X1.300000*%
%ADD16C,1.600000*%
%ADD17C,1.100000*%
%ADD18O,2.120000X1.600000*%
%ADD19C,1.370000*%
%ADD20R,0.650000X1.700000*%
%ADD21R,1.700000X0.650000*%
%ADD22R,2.100000X4.600000*%
G04 APERTURE END LIST*
D10*
%TO.C,D1*%
X168892000Y-108204000D03*
X164592000Y-108204000D03*
%TD*%
%TO.C,C9*%
G36*
G01*
X168579625Y-78206000D02*
X169748375Y-78206000D01*
G75*
G02*
X170014000Y-78471625I0J-265625D01*
G01*
X170014000Y-81040375D01*
G75*
G02*
X169748375Y-81306000I-265625J0D01*
G01*
X168579625Y-81306000D01*
G75*
G02*
X168314000Y-81040375I0J265625D01*
G01*
X168314000Y-78471625D01*
G75*
G02*
X168579625Y-78206000I265625J0D01*
G01*
G37*
G36*
G01*
X168579625Y-73806000D02*
X169748375Y-73806000D01*
G75*
G02*
X170014000Y-74071625I0J-265625D01*
G01*
X170014000Y-76640375D01*
G75*
G02*
X169748375Y-76906000I-265625J0D01*
G01*
X168579625Y-76906000D01*
G75*
G02*
X168314000Y-76640375I0J265625D01*
G01*
X168314000Y-74071625D01*
G75*
G02*
X168579625Y-73806000I265625J0D01*
G01*
G37*
%TD*%
D11*
%TO.C,J5*%
X143764000Y-107188000D03*
X143764000Y-104648000D03*
X146304000Y-107188000D03*
X146304000Y-104648000D03*
X148844000Y-107188000D03*
D12*
X148844000Y-104648000D03*
%TD*%
D11*
%TO.C,J4*%
X163576000Y-72644000D03*
X161036000Y-72644000D03*
X158496000Y-72644000D03*
X155956000Y-72644000D03*
X153416000Y-72644000D03*
D12*
X150876000Y-72644000D03*
%TD*%
D11*
%TO.C,J1*%
X145680000Y-100920000D03*
X148220000Y-100920000D03*
X150760000Y-100920000D03*
X153300000Y-100920000D03*
X155840000Y-100920000D03*
X158380000Y-100920000D03*
X160920000Y-100920000D03*
X163460000Y-100920000D03*
D12*
X166000000Y-100920000D03*
%TD*%
%TO.C,R6*%
G36*
G01*
X162589738Y-77099000D02*
X163546262Y-77099000D01*
G75*
G02*
X163818000Y-77370738I0J-271738D01*
G01*
X163818000Y-78077262D01*
G75*
G02*
X163546262Y-78349000I-271738J0D01*
G01*
X162589738Y-78349000D01*
G75*
G02*
X162318000Y-78077262I0J271738D01*
G01*
X162318000Y-77370738D01*
G75*
G02*
X162589738Y-77099000I271738J0D01*
G01*
G37*
G36*
G01*
X162589738Y-75049000D02*
X163546262Y-75049000D01*
G75*
G02*
X163818000Y-75320738I0J-271738D01*
G01*
X163818000Y-76027262D01*
G75*
G02*
X163546262Y-76299000I-271738J0D01*
G01*
X162589738Y-76299000D01*
G75*
G02*
X162318000Y-76027262I0J271738D01*
G01*
X162318000Y-75320738D01*
G75*
G02*
X162589738Y-75049000I271738J0D01*
G01*
G37*
%TD*%
%TO.C,R5*%
G36*
G01*
X164621738Y-77099000D02*
X165578262Y-77099000D01*
G75*
G02*
X165850000Y-77370738I0J-271738D01*
G01*
X165850000Y-78077262D01*
G75*
G02*
X165578262Y-78349000I-271738J0D01*
G01*
X164621738Y-78349000D01*
G75*
G02*
X164350000Y-78077262I0J271738D01*
G01*
X164350000Y-77370738D01*
G75*
G02*
X164621738Y-77099000I271738J0D01*
G01*
G37*
G36*
G01*
X164621738Y-75049000D02*
X165578262Y-75049000D01*
G75*
G02*
X165850000Y-75320738I0J-271738D01*
G01*
X165850000Y-76027262D01*
G75*
G02*
X165578262Y-76299000I-271738J0D01*
G01*
X164621738Y-76299000D01*
G75*
G02*
X164350000Y-76027262I0J271738D01*
G01*
X164350000Y-75320738D01*
G75*
G02*
X164621738Y-75049000I271738J0D01*
G01*
G37*
%TD*%
%TO.C,R4*%
G36*
G01*
X154521738Y-97295000D02*
X155478262Y-97295000D01*
G75*
G02*
X155750000Y-97566738I0J-271738D01*
G01*
X155750000Y-98273262D01*
G75*
G02*
X155478262Y-98545000I-271738J0D01*
G01*
X154521738Y-98545000D01*
G75*
G02*
X154250000Y-98273262I0J271738D01*
G01*
X154250000Y-97566738D01*
G75*
G02*
X154521738Y-97295000I271738J0D01*
G01*
G37*
G36*
G01*
X154521738Y-95245000D02*
X155478262Y-95245000D01*
G75*
G02*
X155750000Y-95516738I0J-271738D01*
G01*
X155750000Y-96223262D01*
G75*
G02*
X155478262Y-96495000I-271738J0D01*
G01*
X154521738Y-96495000D01*
G75*
G02*
X154250000Y-96223262I0J271738D01*
G01*
X154250000Y-95516738D01*
G75*
G02*
X154521738Y-95245000I271738J0D01*
G01*
G37*
%TD*%
%TO.C,R2*%
G36*
G01*
X171733738Y-105547000D02*
X172690262Y-105547000D01*
G75*
G02*
X172962000Y-105818738I0J-271738D01*
G01*
X172962000Y-106525262D01*
G75*
G02*
X172690262Y-106797000I-271738J0D01*
G01*
X171733738Y-106797000D01*
G75*
G02*
X171462000Y-106525262I0J271738D01*
G01*
X171462000Y-105818738D01*
G75*
G02*
X171733738Y-105547000I271738J0D01*
G01*
G37*
G36*
G01*
X171733738Y-103497000D02*
X172690262Y-103497000D01*
G75*
G02*
X172962000Y-103768738I0J-271738D01*
G01*
X172962000Y-104475262D01*
G75*
G02*
X172690262Y-104747000I-271738J0D01*
G01*
X171733738Y-104747000D01*
G75*
G02*
X171462000Y-104475262I0J271738D01*
G01*
X171462000Y-103768738D01*
G75*
G02*
X171733738Y-103497000I271738J0D01*
G01*
G37*
%TD*%
%TO.C,R1*%
G36*
G01*
X154333000Y-76678262D02*
X154333000Y-75721738D01*
G75*
G02*
X154604738Y-75450000I271738J0D01*
G01*
X155311262Y-75450000D01*
G75*
G02*
X155583000Y-75721738I0J-271738D01*
G01*
X155583000Y-76678262D01*
G75*
G02*
X155311262Y-76950000I-271738J0D01*
G01*
X154604738Y-76950000D01*
G75*
G02*
X154333000Y-76678262I0J271738D01*
G01*
G37*
G36*
G01*
X152283000Y-76678262D02*
X152283000Y-75721738D01*
G75*
G02*
X152554738Y-75450000I271738J0D01*
G01*
X153261262Y-75450000D01*
G75*
G02*
X153533000Y-75721738I0J-271738D01*
G01*
X153533000Y-76678262D01*
G75*
G02*
X153261262Y-76950000I-271738J0D01*
G01*
X152554738Y-76950000D01*
G75*
G02*
X152283000Y-76678262I0J271738D01*
G01*
G37*
%TD*%
D13*
%TO.C,JP1*%
G36*
X173952602Y-101817889D02*
G01*
X173952602Y-101799466D01*
X173952843Y-101794565D01*
X173957653Y-101745734D01*
X173958373Y-101740881D01*
X173967945Y-101692756D01*
X173969137Y-101687995D01*
X173983381Y-101641040D01*
X173985034Y-101636421D01*
X174003811Y-101591088D01*
X174005909Y-101586651D01*
X174029040Y-101543378D01*
X174031562Y-101539171D01*
X174058822Y-101498372D01*
X174061746Y-101494430D01*
X174092874Y-101456501D01*
X174096169Y-101452866D01*
X174130866Y-101418169D01*
X174134501Y-101414874D01*
X174172430Y-101383746D01*
X174176372Y-101380822D01*
X174217171Y-101353562D01*
X174221378Y-101351040D01*
X174264651Y-101327909D01*
X174269088Y-101325811D01*
X174314421Y-101307034D01*
X174319040Y-101305381D01*
X174365995Y-101291137D01*
X174370756Y-101289945D01*
X174418881Y-101280373D01*
X174423734Y-101279653D01*
X174472565Y-101274843D01*
X174477466Y-101274602D01*
X174495889Y-101274602D01*
X174502000Y-101274000D01*
X175002000Y-101274000D01*
X175008111Y-101274602D01*
X175026534Y-101274602D01*
X175031435Y-101274843D01*
X175080266Y-101279653D01*
X175085119Y-101280373D01*
X175133244Y-101289945D01*
X175138005Y-101291137D01*
X175184960Y-101305381D01*
X175189579Y-101307034D01*
X175234912Y-101325811D01*
X175239349Y-101327909D01*
X175282622Y-101351040D01*
X175286829Y-101353562D01*
X175327628Y-101380822D01*
X175331570Y-101383746D01*
X175369499Y-101414874D01*
X175373134Y-101418169D01*
X175407831Y-101452866D01*
X175411126Y-101456501D01*
X175442254Y-101494430D01*
X175445178Y-101498372D01*
X175472438Y-101539171D01*
X175474960Y-101543378D01*
X175498091Y-101586651D01*
X175500189Y-101591088D01*
X175518966Y-101636421D01*
X175520619Y-101641040D01*
X175534863Y-101687995D01*
X175536055Y-101692756D01*
X175545627Y-101740881D01*
X175546347Y-101745734D01*
X175551157Y-101794565D01*
X175551398Y-101799466D01*
X175551398Y-101817889D01*
X175552000Y-101824000D01*
X175552000Y-102324000D01*
X175551039Y-102333755D01*
X175548194Y-102343134D01*
X175543573Y-102351779D01*
X175537355Y-102359355D01*
X175529779Y-102365573D01*
X175521134Y-102370194D01*
X175511755Y-102373039D01*
X175502000Y-102374000D01*
X174002000Y-102374000D01*
X173992245Y-102373039D01*
X173982866Y-102370194D01*
X173974221Y-102365573D01*
X173966645Y-102359355D01*
X173960427Y-102351779D01*
X173955806Y-102343134D01*
X173952961Y-102333755D01*
X173952000Y-102324000D01*
X173952000Y-101824000D01*
X173952602Y-101817889D01*
G37*
G36*
X173952961Y-102614245D02*
G01*
X173955806Y-102604866D01*
X173960427Y-102596221D01*
X173966645Y-102588645D01*
X173974221Y-102582427D01*
X173982866Y-102577806D01*
X173992245Y-102574961D01*
X174002000Y-102574000D01*
X175502000Y-102574000D01*
X175511755Y-102574961D01*
X175521134Y-102577806D01*
X175529779Y-102582427D01*
X175537355Y-102588645D01*
X175543573Y-102596221D01*
X175548194Y-102604866D01*
X175551039Y-102614245D01*
X175552000Y-102624000D01*
X175552000Y-103124000D01*
X175551398Y-103130111D01*
X175551398Y-103148534D01*
X175551157Y-103153435D01*
X175546347Y-103202266D01*
X175545627Y-103207119D01*
X175536055Y-103255244D01*
X175534863Y-103260005D01*
X175520619Y-103306960D01*
X175518966Y-103311579D01*
X175500189Y-103356912D01*
X175498091Y-103361349D01*
X175474960Y-103404622D01*
X175472438Y-103408829D01*
X175445178Y-103449628D01*
X175442254Y-103453570D01*
X175411126Y-103491499D01*
X175407831Y-103495134D01*
X175373134Y-103529831D01*
X175369499Y-103533126D01*
X175331570Y-103564254D01*
X175327628Y-103567178D01*
X175286829Y-103594438D01*
X175282622Y-103596960D01*
X175239349Y-103620091D01*
X175234912Y-103622189D01*
X175189579Y-103640966D01*
X175184960Y-103642619D01*
X175138005Y-103656863D01*
X175133244Y-103658055D01*
X175085119Y-103667627D01*
X175080266Y-103668347D01*
X175031435Y-103673157D01*
X175026534Y-103673398D01*
X175008111Y-103673398D01*
X175002000Y-103674000D01*
X174502000Y-103674000D01*
X174495889Y-103673398D01*
X174477466Y-103673398D01*
X174472565Y-103673157D01*
X174423734Y-103668347D01*
X174418881Y-103667627D01*
X174370756Y-103658055D01*
X174365995Y-103656863D01*
X174319040Y-103642619D01*
X174314421Y-103640966D01*
X174269088Y-103622189D01*
X174264651Y-103620091D01*
X174221378Y-103596960D01*
X174217171Y-103594438D01*
X174176372Y-103567178D01*
X174172430Y-103564254D01*
X174134501Y-103533126D01*
X174130866Y-103529831D01*
X174096169Y-103495134D01*
X174092874Y-103491499D01*
X174061746Y-103453570D01*
X174058822Y-103449628D01*
X174031562Y-103408829D01*
X174029040Y-103404622D01*
X174005909Y-103361349D01*
X174003811Y-103356912D01*
X173985034Y-103311579D01*
X173983381Y-103306960D01*
X173969137Y-103260005D01*
X173967945Y-103255244D01*
X173958373Y-103207119D01*
X173957653Y-103202266D01*
X173952843Y-103153435D01*
X173952602Y-103148534D01*
X173952602Y-103130111D01*
X173952000Y-103124000D01*
X173952000Y-102624000D01*
X173952961Y-102614245D01*
G37*
%TD*%
D14*
%TO.C,D4*%
X157000000Y-94920000D03*
X157000000Y-98220000D03*
%TD*%
D15*
%TO.C,D3*%
X157480000Y-76200000D03*
X160780000Y-76200000D03*
%TD*%
%TO.C,C14*%
G36*
G01*
X152521738Y-97295000D02*
X153478262Y-97295000D01*
G75*
G02*
X153750000Y-97566738I0J-271738D01*
G01*
X153750000Y-98273262D01*
G75*
G02*
X153478262Y-98545000I-271738J0D01*
G01*
X152521738Y-98545000D01*
G75*
G02*
X152250000Y-98273262I0J271738D01*
G01*
X152250000Y-97566738D01*
G75*
G02*
X152521738Y-97295000I271738J0D01*
G01*
G37*
G36*
G01*
X152521738Y-95245000D02*
X153478262Y-95245000D01*
G75*
G02*
X153750000Y-95516738I0J-271738D01*
G01*
X153750000Y-96223262D01*
G75*
G02*
X153478262Y-96495000I-271738J0D01*
G01*
X152521738Y-96495000D01*
G75*
G02*
X152250000Y-96223262I0J271738D01*
G01*
X152250000Y-95516738D01*
G75*
G02*
X152521738Y-95245000I271738J0D01*
G01*
G37*
%TD*%
%TO.C,C12*%
G36*
G01*
X154333000Y-78710262D02*
X154333000Y-77753738D01*
G75*
G02*
X154604738Y-77482000I271738J0D01*
G01*
X155311262Y-77482000D01*
G75*
G02*
X155583000Y-77753738I0J-271738D01*
G01*
X155583000Y-78710262D01*
G75*
G02*
X155311262Y-78982000I-271738J0D01*
G01*
X154604738Y-78982000D01*
G75*
G02*
X154333000Y-78710262I0J271738D01*
G01*
G37*
G36*
G01*
X152283000Y-78710262D02*
X152283000Y-77753738D01*
G75*
G02*
X152554738Y-77482000I271738J0D01*
G01*
X153261262Y-77482000D01*
G75*
G02*
X153533000Y-77753738I0J-271738D01*
G01*
X153533000Y-78710262D01*
G75*
G02*
X153261262Y-78982000I-271738J0D01*
G01*
X152554738Y-78982000D01*
G75*
G02*
X152283000Y-78710262I0J271738D01*
G01*
G37*
%TD*%
%TO.C,C11*%
G36*
G01*
X164493000Y-80742262D02*
X164493000Y-79785738D01*
G75*
G02*
X164764738Y-79514000I271738J0D01*
G01*
X165471262Y-79514000D01*
G75*
G02*
X165743000Y-79785738I0J-271738D01*
G01*
X165743000Y-80742262D01*
G75*
G02*
X165471262Y-81014000I-271738J0D01*
G01*
X164764738Y-81014000D01*
G75*
G02*
X164493000Y-80742262I0J271738D01*
G01*
G37*
G36*
G01*
X162443000Y-80742262D02*
X162443000Y-79785738D01*
G75*
G02*
X162714738Y-79514000I271738J0D01*
G01*
X163421262Y-79514000D01*
G75*
G02*
X163693000Y-79785738I0J-271738D01*
G01*
X163693000Y-80742262D01*
G75*
G02*
X163421262Y-81014000I-271738J0D01*
G01*
X162714738Y-81014000D01*
G75*
G02*
X162443000Y-80742262I0J271738D01*
G01*
G37*
%TD*%
%TO.C,C8*%
G36*
G01*
X167375000Y-105126262D02*
X167375000Y-104169738D01*
G75*
G02*
X167646738Y-103898000I271738J0D01*
G01*
X168353262Y-103898000D01*
G75*
G02*
X168625000Y-104169738I0J-271738D01*
G01*
X168625000Y-105126262D01*
G75*
G02*
X168353262Y-105398000I-271738J0D01*
G01*
X167646738Y-105398000D01*
G75*
G02*
X167375000Y-105126262I0J271738D01*
G01*
G37*
G36*
G01*
X165325000Y-105126262D02*
X165325000Y-104169738D01*
G75*
G02*
X165596738Y-103898000I271738J0D01*
G01*
X166303262Y-103898000D01*
G75*
G02*
X166575000Y-104169738I0J-271738D01*
G01*
X166575000Y-105126262D01*
G75*
G02*
X166303262Y-105398000I-271738J0D01*
G01*
X165596738Y-105398000D01*
G75*
G02*
X165325000Y-105126262I0J271738D01*
G01*
G37*
%TD*%
%TO.C,C7*%
G36*
G01*
X163038262Y-95603000D02*
X162081738Y-95603000D01*
G75*
G02*
X161810000Y-95331262I0J271738D01*
G01*
X161810000Y-94624738D01*
G75*
G02*
X162081738Y-94353000I271738J0D01*
G01*
X163038262Y-94353000D01*
G75*
G02*
X163310000Y-94624738I0J-271738D01*
G01*
X163310000Y-95331262D01*
G75*
G02*
X163038262Y-95603000I-271738J0D01*
G01*
G37*
G36*
G01*
X163038262Y-97653000D02*
X162081738Y-97653000D01*
G75*
G02*
X161810000Y-97381262I0J271738D01*
G01*
X161810000Y-96674738D01*
G75*
G02*
X162081738Y-96403000I271738J0D01*
G01*
X163038262Y-96403000D01*
G75*
G02*
X163310000Y-96674738I0J-271738D01*
G01*
X163310000Y-97381262D01*
G75*
G02*
X163038262Y-97653000I-271738J0D01*
G01*
G37*
%TD*%
%TO.C,C6*%
G36*
G01*
X149322262Y-78839000D02*
X148365738Y-78839000D01*
G75*
G02*
X148094000Y-78567262I0J271738D01*
G01*
X148094000Y-77860738D01*
G75*
G02*
X148365738Y-77589000I271738J0D01*
G01*
X149322262Y-77589000D01*
G75*
G02*
X149594000Y-77860738I0J-271738D01*
G01*
X149594000Y-78567262D01*
G75*
G02*
X149322262Y-78839000I-271738J0D01*
G01*
G37*
G36*
G01*
X149322262Y-80889000D02*
X148365738Y-80889000D01*
G75*
G02*
X148094000Y-80617262I0J271738D01*
G01*
X148094000Y-79910738D01*
G75*
G02*
X148365738Y-79639000I271738J0D01*
G01*
X149322262Y-79639000D01*
G75*
G02*
X149594000Y-79910738I0J-271738D01*
G01*
X149594000Y-80617262D01*
G75*
G02*
X149322262Y-80889000I-271738J0D01*
G01*
G37*
%TD*%
%TO.C,C5*%
G36*
G01*
X146187000Y-76678262D02*
X146187000Y-75721738D01*
G75*
G02*
X146458738Y-75450000I271738J0D01*
G01*
X147165262Y-75450000D01*
G75*
G02*
X147437000Y-75721738I0J-271738D01*
G01*
X147437000Y-76678262D01*
G75*
G02*
X147165262Y-76950000I-271738J0D01*
G01*
X146458738Y-76950000D01*
G75*
G02*
X146187000Y-76678262I0J271738D01*
G01*
G37*
G36*
G01*
X144137000Y-76678262D02*
X144137000Y-75721738D01*
G75*
G02*
X144408738Y-75450000I271738J0D01*
G01*
X145115262Y-75450000D01*
G75*
G02*
X145387000Y-75721738I0J-271738D01*
G01*
X145387000Y-76678262D01*
G75*
G02*
X145115262Y-76950000I-271738J0D01*
G01*
X144408738Y-76950000D01*
G75*
G02*
X144137000Y-76678262I0J271738D01*
G01*
G37*
%TD*%
%TO.C,C4*%
G36*
G01*
X176159000Y-100046262D02*
X176159000Y-99089738D01*
G75*
G02*
X176430738Y-98818000I271738J0D01*
G01*
X177137262Y-98818000D01*
G75*
G02*
X177409000Y-99089738I0J-271738D01*
G01*
X177409000Y-100046262D01*
G75*
G02*
X177137262Y-100318000I-271738J0D01*
G01*
X176430738Y-100318000D01*
G75*
G02*
X176159000Y-100046262I0J271738D01*
G01*
G37*
G36*
G01*
X174109000Y-100046262D02*
X174109000Y-99089738D01*
G75*
G02*
X174380738Y-98818000I271738J0D01*
G01*
X175087262Y-98818000D01*
G75*
G02*
X175359000Y-99089738I0J-271738D01*
G01*
X175359000Y-100046262D01*
G75*
G02*
X175087262Y-100318000I-271738J0D01*
G01*
X174380738Y-100318000D01*
G75*
G02*
X174109000Y-100046262I0J271738D01*
G01*
G37*
%TD*%
%TO.C,C3*%
G36*
G01*
X175738262Y-82395000D02*
X174781738Y-82395000D01*
G75*
G02*
X174510000Y-82123262I0J271738D01*
G01*
X174510000Y-81416738D01*
G75*
G02*
X174781738Y-81145000I271738J0D01*
G01*
X175738262Y-81145000D01*
G75*
G02*
X176010000Y-81416738I0J-271738D01*
G01*
X176010000Y-82123262D01*
G75*
G02*
X175738262Y-82395000I-271738J0D01*
G01*
G37*
G36*
G01*
X175738262Y-84445000D02*
X174781738Y-84445000D01*
G75*
G02*
X174510000Y-84173262I0J271738D01*
G01*
X174510000Y-83466738D01*
G75*
G02*
X174781738Y-83195000I271738J0D01*
G01*
X175738262Y-83195000D01*
G75*
G02*
X176010000Y-83466738I0J-271738D01*
G01*
X176010000Y-84173262D01*
G75*
G02*
X175738262Y-84445000I-271738J0D01*
G01*
G37*
%TD*%
%TO.C,C2*%
G36*
G01*
X147419000Y-96041738D02*
X147419000Y-96998262D01*
G75*
G02*
X147147262Y-97270000I-271738J0D01*
G01*
X146440738Y-97270000D01*
G75*
G02*
X146169000Y-96998262I0J271738D01*
G01*
X146169000Y-96041738D01*
G75*
G02*
X146440738Y-95770000I271738J0D01*
G01*
X147147262Y-95770000D01*
G75*
G02*
X147419000Y-96041738I0J-271738D01*
G01*
G37*
G36*
G01*
X149469000Y-96041738D02*
X149469000Y-96998262D01*
G75*
G02*
X149197262Y-97270000I-271738J0D01*
G01*
X148490738Y-97270000D01*
G75*
G02*
X148219000Y-96998262I0J271738D01*
G01*
X148219000Y-96041738D01*
G75*
G02*
X148490738Y-95770000I271738J0D01*
G01*
X149197262Y-95770000D01*
G75*
G02*
X149469000Y-96041738I0J-271738D01*
G01*
G37*
%TD*%
%TO.C,C1*%
G36*
G01*
X145387000Y-79785738D02*
X145387000Y-80742262D01*
G75*
G02*
X145115262Y-81014000I-271738J0D01*
G01*
X144408738Y-81014000D01*
G75*
G02*
X144137000Y-80742262I0J271738D01*
G01*
X144137000Y-79785738D01*
G75*
G02*
X144408738Y-79514000I271738J0D01*
G01*
X145115262Y-79514000D01*
G75*
G02*
X145387000Y-79785738I0J-271738D01*
G01*
G37*
G36*
G01*
X147437000Y-79785738D02*
X147437000Y-80742262D01*
G75*
G02*
X147165262Y-81014000I-271738J0D01*
G01*
X146458738Y-81014000D01*
G75*
G02*
X146187000Y-80742262I0J271738D01*
G01*
X146187000Y-79785738D01*
G75*
G02*
X146458738Y-79514000I271738J0D01*
G01*
X147165262Y-79514000D01*
G75*
G02*
X147437000Y-79785738I0J-271738D01*
G01*
G37*
%TD*%
%TO.C,U3*%
G36*
G01*
X172037000Y-100953000D02*
X172387000Y-100953000D01*
G75*
G02*
X172562000Y-101128000I0J-175000D01*
G01*
X172562000Y-102828000D01*
G75*
G02*
X172387000Y-103003000I-175000J0D01*
G01*
X172037000Y-103003000D01*
G75*
G02*
X171862000Y-102828000I0J175000D01*
G01*
X171862000Y-101128000D01*
G75*
G02*
X172037000Y-100953000I175000J0D01*
G01*
G37*
G36*
G01*
X170767000Y-100953000D02*
X171117000Y-100953000D01*
G75*
G02*
X171292000Y-101128000I0J-175000D01*
G01*
X171292000Y-102828000D01*
G75*
G02*
X171117000Y-103003000I-175000J0D01*
G01*
X170767000Y-103003000D01*
G75*
G02*
X170592000Y-102828000I0J175000D01*
G01*
X170592000Y-101128000D01*
G75*
G02*
X170767000Y-100953000I175000J0D01*
G01*
G37*
G36*
G01*
X169497000Y-100953000D02*
X169847000Y-100953000D01*
G75*
G02*
X170022000Y-101128000I0J-175000D01*
G01*
X170022000Y-102828000D01*
G75*
G02*
X169847000Y-103003000I-175000J0D01*
G01*
X169497000Y-103003000D01*
G75*
G02*
X169322000Y-102828000I0J175000D01*
G01*
X169322000Y-101128000D01*
G75*
G02*
X169497000Y-100953000I175000J0D01*
G01*
G37*
G36*
G01*
X168227000Y-100953000D02*
X168577000Y-100953000D01*
G75*
G02*
X168752000Y-101128000I0J-175000D01*
G01*
X168752000Y-102828000D01*
G75*
G02*
X168577000Y-103003000I-175000J0D01*
G01*
X168227000Y-103003000D01*
G75*
G02*
X168052000Y-102828000I0J175000D01*
G01*
X168052000Y-101128000D01*
G75*
G02*
X168227000Y-100953000I175000J0D01*
G01*
G37*
G36*
G01*
X168227000Y-96003000D02*
X168577000Y-96003000D01*
G75*
G02*
X168752000Y-96178000I0J-175000D01*
G01*
X168752000Y-97878000D01*
G75*
G02*
X168577000Y-98053000I-175000J0D01*
G01*
X168227000Y-98053000D01*
G75*
G02*
X168052000Y-97878000I0J175000D01*
G01*
X168052000Y-96178000D01*
G75*
G02*
X168227000Y-96003000I175000J0D01*
G01*
G37*
G36*
G01*
X169497000Y-96003000D02*
X169847000Y-96003000D01*
G75*
G02*
X170022000Y-96178000I0J-175000D01*
G01*
X170022000Y-97878000D01*
G75*
G02*
X169847000Y-98053000I-175000J0D01*
G01*
X169497000Y-98053000D01*
G75*
G02*
X169322000Y-97878000I0J175000D01*
G01*
X169322000Y-96178000D01*
G75*
G02*
X169497000Y-96003000I175000J0D01*
G01*
G37*
G36*
G01*
X170767000Y-96003000D02*
X171117000Y-96003000D01*
G75*
G02*
X171292000Y-96178000I0J-175000D01*
G01*
X171292000Y-97878000D01*
G75*
G02*
X171117000Y-98053000I-175000J0D01*
G01*
X170767000Y-98053000D01*
G75*
G02*
X170592000Y-97878000I0J175000D01*
G01*
X170592000Y-96178000D01*
G75*
G02*
X170767000Y-96003000I175000J0D01*
G01*
G37*
G36*
G01*
X172037000Y-96003000D02*
X172387000Y-96003000D01*
G75*
G02*
X172562000Y-96178000I0J-175000D01*
G01*
X172562000Y-97878000D01*
G75*
G02*
X172387000Y-98053000I-175000J0D01*
G01*
X172037000Y-98053000D01*
G75*
G02*
X171862000Y-97878000I0J175000D01*
G01*
X171862000Y-96178000D01*
G75*
G02*
X172037000Y-96003000I175000J0D01*
G01*
G37*
%TD*%
%TO.C,U2*%
G36*
G01*
X163775000Y-92789000D02*
X163775000Y-93139000D01*
G75*
G02*
X163600000Y-93314000I-175000J0D01*
G01*
X161800000Y-93314000D01*
G75*
G02*
X161625000Y-93139000I0J175000D01*
G01*
X161625000Y-92789000D01*
G75*
G02*
X161800000Y-92614000I175000J0D01*
G01*
X163600000Y-92614000D01*
G75*
G02*
X163775000Y-92789000I0J-175000D01*
G01*
G37*
G36*
G01*
X163775000Y-91519000D02*
X163775000Y-91869000D01*
G75*
G02*
X163600000Y-92044000I-175000J0D01*
G01*
X161800000Y-92044000D01*
G75*
G02*
X161625000Y-91869000I0J175000D01*
G01*
X161625000Y-91519000D01*
G75*
G02*
X161800000Y-91344000I175000J0D01*
G01*
X163600000Y-91344000D01*
G75*
G02*
X163775000Y-91519000I0J-175000D01*
G01*
G37*
G36*
G01*
X163775000Y-90249000D02*
X163775000Y-90599000D01*
G75*
G02*
X163600000Y-90774000I-175000J0D01*
G01*
X161800000Y-90774000D01*
G75*
G02*
X161625000Y-90599000I0J175000D01*
G01*
X161625000Y-90249000D01*
G75*
G02*
X161800000Y-90074000I175000J0D01*
G01*
X163600000Y-90074000D01*
G75*
G02*
X163775000Y-90249000I0J-175000D01*
G01*
G37*
G36*
G01*
X163775000Y-88979000D02*
X163775000Y-89329000D01*
G75*
G02*
X163600000Y-89504000I-175000J0D01*
G01*
X161800000Y-89504000D01*
G75*
G02*
X161625000Y-89329000I0J175000D01*
G01*
X161625000Y-88979000D01*
G75*
G02*
X161800000Y-88804000I175000J0D01*
G01*
X163600000Y-88804000D01*
G75*
G02*
X163775000Y-88979000I0J-175000D01*
G01*
G37*
G36*
G01*
X163775000Y-87709000D02*
X163775000Y-88059000D01*
G75*
G02*
X163600000Y-88234000I-175000J0D01*
G01*
X161800000Y-88234000D01*
G75*
G02*
X161625000Y-88059000I0J175000D01*
G01*
X161625000Y-87709000D01*
G75*
G02*
X161800000Y-87534000I175000J0D01*
G01*
X163600000Y-87534000D01*
G75*
G02*
X163775000Y-87709000I0J-175000D01*
G01*
G37*
G36*
G01*
X163775000Y-86439000D02*
X163775000Y-86789000D01*
G75*
G02*
X163600000Y-86964000I-175000J0D01*
G01*
X161800000Y-86964000D01*
G75*
G02*
X161625000Y-86789000I0J175000D01*
G01*
X161625000Y-86439000D01*
G75*
G02*
X161800000Y-86264000I175000J0D01*
G01*
X163600000Y-86264000D01*
G75*
G02*
X163775000Y-86439000I0J-175000D01*
G01*
G37*
G36*
G01*
X163775000Y-85169000D02*
X163775000Y-85519000D01*
G75*
G02*
X163600000Y-85694000I-175000J0D01*
G01*
X161800000Y-85694000D01*
G75*
G02*
X161625000Y-85519000I0J175000D01*
G01*
X161625000Y-85169000D01*
G75*
G02*
X161800000Y-84994000I175000J0D01*
G01*
X163600000Y-84994000D01*
G75*
G02*
X163775000Y-85169000I0J-175000D01*
G01*
G37*
G36*
G01*
X163775000Y-83899000D02*
X163775000Y-84249000D01*
G75*
G02*
X163600000Y-84424000I-175000J0D01*
G01*
X161800000Y-84424000D01*
G75*
G02*
X161625000Y-84249000I0J175000D01*
G01*
X161625000Y-83899000D01*
G75*
G02*
X161800000Y-83724000I175000J0D01*
G01*
X163600000Y-83724000D01*
G75*
G02*
X163775000Y-83899000I0J-175000D01*
G01*
G37*
G36*
G01*
X163775000Y-82629000D02*
X163775000Y-82979000D01*
G75*
G02*
X163600000Y-83154000I-175000J0D01*
G01*
X161800000Y-83154000D01*
G75*
G02*
X161625000Y-82979000I0J175000D01*
G01*
X161625000Y-82629000D01*
G75*
G02*
X161800000Y-82454000I175000J0D01*
G01*
X163600000Y-82454000D01*
G75*
G02*
X163775000Y-82629000I0J-175000D01*
G01*
G37*
G36*
G01*
X173075000Y-82629000D02*
X173075000Y-82979000D01*
G75*
G02*
X172900000Y-83154000I-175000J0D01*
G01*
X171100000Y-83154000D01*
G75*
G02*
X170925000Y-82979000I0J175000D01*
G01*
X170925000Y-82629000D01*
G75*
G02*
X171100000Y-82454000I175000J0D01*
G01*
X172900000Y-82454000D01*
G75*
G02*
X173075000Y-82629000I0J-175000D01*
G01*
G37*
G36*
G01*
X173075000Y-83899000D02*
X173075000Y-84249000D01*
G75*
G02*
X172900000Y-84424000I-175000J0D01*
G01*
X171100000Y-84424000D01*
G75*
G02*
X170925000Y-84249000I0J175000D01*
G01*
X170925000Y-83899000D01*
G75*
G02*
X171100000Y-83724000I175000J0D01*
G01*
X172900000Y-83724000D01*
G75*
G02*
X173075000Y-83899000I0J-175000D01*
G01*
G37*
G36*
G01*
X173075000Y-85169000D02*
X173075000Y-85519000D01*
G75*
G02*
X172900000Y-85694000I-175000J0D01*
G01*
X171100000Y-85694000D01*
G75*
G02*
X170925000Y-85519000I0J175000D01*
G01*
X170925000Y-85169000D01*
G75*
G02*
X171100000Y-84994000I175000J0D01*
G01*
X172900000Y-84994000D01*
G75*
G02*
X173075000Y-85169000I0J-175000D01*
G01*
G37*
G36*
G01*
X173075000Y-86439000D02*
X173075000Y-86789000D01*
G75*
G02*
X172900000Y-86964000I-175000J0D01*
G01*
X171100000Y-86964000D01*
G75*
G02*
X170925000Y-86789000I0J175000D01*
G01*
X170925000Y-86439000D01*
G75*
G02*
X171100000Y-86264000I175000J0D01*
G01*
X172900000Y-86264000D01*
G75*
G02*
X173075000Y-86439000I0J-175000D01*
G01*
G37*
G36*
G01*
X173075000Y-87709000D02*
X173075000Y-88059000D01*
G75*
G02*
X172900000Y-88234000I-175000J0D01*
G01*
X171100000Y-88234000D01*
G75*
G02*
X170925000Y-88059000I0J175000D01*
G01*
X170925000Y-87709000D01*
G75*
G02*
X171100000Y-87534000I175000J0D01*
G01*
X172900000Y-87534000D01*
G75*
G02*
X173075000Y-87709000I0J-175000D01*
G01*
G37*
G36*
G01*
X173075000Y-88979000D02*
X173075000Y-89329000D01*
G75*
G02*
X172900000Y-89504000I-175000J0D01*
G01*
X171100000Y-89504000D01*
G75*
G02*
X170925000Y-89329000I0J175000D01*
G01*
X170925000Y-88979000D01*
G75*
G02*
X171100000Y-88804000I175000J0D01*
G01*
X172900000Y-88804000D01*
G75*
G02*
X173075000Y-88979000I0J-175000D01*
G01*
G37*
G36*
G01*
X173075000Y-90249000D02*
X173075000Y-90599000D01*
G75*
G02*
X172900000Y-90774000I-175000J0D01*
G01*
X171100000Y-90774000D01*
G75*
G02*
X170925000Y-90599000I0J175000D01*
G01*
X170925000Y-90249000D01*
G75*
G02*
X171100000Y-90074000I175000J0D01*
G01*
X172900000Y-90074000D01*
G75*
G02*
X173075000Y-90249000I0J-175000D01*
G01*
G37*
G36*
G01*
X173075000Y-91519000D02*
X173075000Y-91869000D01*
G75*
G02*
X172900000Y-92044000I-175000J0D01*
G01*
X171100000Y-92044000D01*
G75*
G02*
X170925000Y-91869000I0J175000D01*
G01*
X170925000Y-91519000D01*
G75*
G02*
X171100000Y-91344000I175000J0D01*
G01*
X172900000Y-91344000D01*
G75*
G02*
X173075000Y-91519000I0J-175000D01*
G01*
G37*
G36*
G01*
X173075000Y-92789000D02*
X173075000Y-93139000D01*
G75*
G02*
X172900000Y-93314000I-175000J0D01*
G01*
X171100000Y-93314000D01*
G75*
G02*
X170925000Y-93139000I0J175000D01*
G01*
X170925000Y-92789000D01*
G75*
G02*
X171100000Y-92614000I175000J0D01*
G01*
X172900000Y-92614000D01*
G75*
G02*
X173075000Y-92789000I0J-175000D01*
G01*
G37*
%TD*%
D16*
%TO.C,J3*%
X156000000Y-107920000D03*
X159000000Y-107920000D03*
X156000000Y-110920000D03*
G36*
G01*
X159800000Y-110386667D02*
X159800000Y-111453333D01*
G75*
G02*
X159533333Y-111720000I-266667J0D01*
G01*
X158466667Y-111720000D01*
G75*
G02*
X158200000Y-111453333I0J266667D01*
G01*
X158200000Y-110386667D01*
G75*
G02*
X158466667Y-110120000I266667J0D01*
G01*
X159533333Y-110120000D01*
G75*
G02*
X159800000Y-110386667I0J-266667D01*
G01*
G37*
D17*
X153000000Y-106980000D03*
X162000000Y-106980000D03*
%TD*%
D18*
%TO.C,J2*%
X140000000Y-85920000D03*
X140000000Y-88920000D03*
X140000000Y-91920000D03*
X140000000Y-94920000D03*
G36*
G01*
X140793333Y-98720000D02*
X139206667Y-98720000D01*
G75*
G02*
X138940000Y-98453333I0J266667D01*
G01*
X138940000Y-97386667D01*
G75*
G02*
X139206667Y-97120000I266667J0D01*
G01*
X140793333Y-97120000D01*
G75*
G02*
X141060000Y-97386667I0J-266667D01*
G01*
X141060000Y-98453333D01*
G75*
G02*
X140793333Y-98720000I-266667J0D01*
G01*
G37*
D19*
X138040000Y-82920000D03*
X138040000Y-100920000D03*
%TD*%
D20*
%TO.C,U1*%
X152756000Y-80400000D03*
X153556000Y-80400000D03*
X154356000Y-80400000D03*
X155156000Y-80400000D03*
X155956000Y-80400000D03*
X156756000Y-80400000D03*
X157556000Y-80400000D03*
X158356000Y-80400000D03*
D21*
X159806000Y-81850000D03*
X159806000Y-82650000D03*
X159806000Y-83450000D03*
X159806000Y-84250000D03*
X159806000Y-85050000D03*
X159806000Y-85850000D03*
X159806000Y-86650000D03*
X159806000Y-87450000D03*
D20*
X158356000Y-88900000D03*
X157556000Y-88900000D03*
X156756000Y-88900000D03*
X155956000Y-88900000D03*
X155156000Y-88900000D03*
X154356000Y-88900000D03*
X153556000Y-88900000D03*
X152756000Y-88900000D03*
D21*
X151306000Y-87450000D03*
X151306000Y-86650000D03*
X151306000Y-85850000D03*
X151306000Y-85050000D03*
X151306000Y-84250000D03*
X151306000Y-83450000D03*
X151306000Y-82650000D03*
X151306000Y-81850000D03*
%TD*%
D22*
%TO.C,Y1*%
X147000000Y-92420000D03*
X147000000Y-83920000D03*
%TD*%
%TO.C,Y2*%
X176000000Y-95920000D03*
X176000000Y-87420000D03*
%TD*%
M02*
