%TF.GenerationSoftware,KiCad,Pcbnew,(5.1.6-0-10_14)*%
%TF.CreationDate,2021-01-24T21:36:40+01:00*%
%TF.ProjectId,CAN_Display,43414e5f-4469-4737-906c-61792e6b6963,rev?*%
%TF.SameCoordinates,Original*%
%TF.FileFunction,Soldermask,Bot*%
%TF.FilePolarity,Negative*%
%FSLAX46Y46*%
G04 Gerber Fmt 4.6, Leading zero omitted, Abs format (unit mm)*
G04 Created by KiCad (PCBNEW (5.1.6-0-10_14)) date 2021-01-24 21:36:40*
%MOMM*%
%LPD*%
G01*
G04 APERTURE LIST*
%ADD10O,1.800000X1.800000*%
%ADD11R,1.800000X1.800000*%
%ADD12C,1.600000*%
%ADD13C,1.100000*%
%ADD14O,2.120000X1.600000*%
%ADD15C,1.370000*%
G04 APERTURE END LIST*
D10*
%TO.C,J5*%
X143764000Y-107188000D03*
X143764000Y-104648000D03*
X146304000Y-107188000D03*
X146304000Y-104648000D03*
X148844000Y-107188000D03*
D11*
X148844000Y-104648000D03*
%TD*%
D10*
%TO.C,J4*%
X163576000Y-72644000D03*
X161036000Y-72644000D03*
X158496000Y-72644000D03*
X155956000Y-72644000D03*
X153416000Y-72644000D03*
D11*
X150876000Y-72644000D03*
%TD*%
D10*
%TO.C,J1*%
X145680000Y-100920000D03*
X148220000Y-100920000D03*
X150760000Y-100920000D03*
X153300000Y-100920000D03*
X155840000Y-100920000D03*
X158380000Y-100920000D03*
X160920000Y-100920000D03*
X163460000Y-100920000D03*
D11*
X166000000Y-100920000D03*
%TD*%
D12*
%TO.C,J3*%
X156000000Y-107920000D03*
X159000000Y-107920000D03*
X156000000Y-110920000D03*
G36*
G01*
X159800000Y-110386667D02*
X159800000Y-111453333D01*
G75*
G02*
X159533333Y-111720000I-266667J0D01*
G01*
X158466667Y-111720000D01*
G75*
G02*
X158200000Y-111453333I0J266667D01*
G01*
X158200000Y-110386667D01*
G75*
G02*
X158466667Y-110120000I266667J0D01*
G01*
X159533333Y-110120000D01*
G75*
G02*
X159800000Y-110386667I0J-266667D01*
G01*
G37*
D13*
X153000000Y-106980000D03*
X162000000Y-106980000D03*
%TD*%
D14*
%TO.C,J2*%
X140000000Y-85920000D03*
X140000000Y-88920000D03*
X140000000Y-91920000D03*
X140000000Y-94920000D03*
G36*
G01*
X140793333Y-98720000D02*
X139206667Y-98720000D01*
G75*
G02*
X138940000Y-98453333I0J266667D01*
G01*
X138940000Y-97386667D01*
G75*
G02*
X139206667Y-97120000I266667J0D01*
G01*
X140793333Y-97120000D01*
G75*
G02*
X141060000Y-97386667I0J-266667D01*
G01*
X141060000Y-98453333D01*
G75*
G02*
X140793333Y-98720000I-266667J0D01*
G01*
G37*
D15*
X138040000Y-82920000D03*
X138040000Y-100920000D03*
%TD*%
M02*
