M48
; DRILL file {KiCad (5.1.6-0-10_14)} date Sunday, January 24, 2021 at 09:36:42 PM
; FORMAT={3:3/ absolute / metric / suppress leading zeros}
; #@! TF.CreationDate,2021-01-24T21:36:42+01:00
; #@! TF.GenerationSoftware,Kicad,Pcbnew,(5.1.6-0-10_14)
FMAT,2
METRIC,TZ
T1C0.400
T2C1.000
T3C1.020
T4C1.000
T5C1.270
%
G90
G05
T1
X144272Y-86868
X149352Y-76200
X149352Y-85344
X150876Y-89408
X151384Y-79248
X151384Y-80772
X152908Y-83312
X152908Y-91948
X153416Y-82296
X153924Y-84328
X154233Y-91241
X154940Y-83312
X154940Y-91948
X155956Y-91440
X156464Y-76200
X156972Y-78740
X156972Y-87376
X157988Y-77724
X157988Y-86725
X157988Y-90932
X159004Y-78232
X160020Y-92456
X161544Y-79756
X164592Y-87884
X165100Y-85344
X165608Y-89408
X169672Y-103632
X170688Y-104140
X173736Y-104140
X174244Y-91948
T2
X145680Y-100920
X148220Y-100920
X150760Y-100920
X153300Y-100920
X155840Y-100920
X158380Y-100920
X160920Y-100920
X163460Y-100920
X166000Y-100920
X156000Y-107920
X156000Y-110920
X159000Y-107920
X159000Y-110920
X143764Y-104648
X143764Y-107188
X146304Y-104648
X146304Y-107188
X148844Y-104648
X148844Y-107188
X150876Y-72644
X153416Y-72644
X155956Y-72644
X158496Y-72644
X161036Y-72644
X163576Y-72644
T3
X140000Y-85920
X140000Y-88920
X140000Y-91920
X140000Y-94920
X140000Y-97920
T4
X153000Y-106980
X162000Y-106980
T5
X138040Y-82920
X138040Y-100920
T0
M30
