  0
SECTION
  2
HEADER
  9
$ANGBASE
  50
0.0
  9
$ANGDIR
  70
1
  9
$MEASUREMENT
  70
0
  0
ENDSEC
  0
SECTION
  2
TABLES
  0
TABLE
  2
LTYPE
  70
4
  0
LTYPE
  5
40F
  2
CONTINUOUS
  70
0
  3
Solid line
  72
65
  73
0
  40
0.0
  0
LTYPE
  5
410
  2
DASHDOT
 70
0
  3
Dash Dot ____ _ ____ _
 72
65
 73
4
 40
2.0
 49
1.25
 49
-0.25
 49
0.25
 49
-0.25
  0
LTYPE
  5
411
  2
DASHED
 70
0
  3
Dashed __ __ __ __ __
 72
65
 73
2
 40
0.75
 49
0.5
 49
-0.25
  0
LTYPE
  5
43B
  2
DOTTED
 70
0
  3
Dotted .  .  .  .
 72
65
 73
2
 40
0.2
 49
0.0
 49
-0.2
  0
ENDTAB
  0
TABLE
  2
STYLE
  70
4
  0
STYLE
  2
KICAD
  70
0
  40
0
  41
1
  42
1
  50
0
  71
0
  3
isocp.shx
  0
STYLE
  2
KICADB
  70
0
  40
0
  41
1
  42
1
  50
0
  71
0
  3
isocp.shx
  0
STYLE
  2
KICADI
  70
0
  40
0
  41
1
  42
1
  50
15
  71
0
  3
isocp.shx
  0
STYLE
  2
KICADBI
  70
0
  40
0
  41
1
  42
1
  50
15
  71
0
  3
isocp.shx
  0
ENDTAB
  0
TABLE
  2
LAYER
  70
1
  0
LAYER
  2
BLACK
  70
0
  62
7
  6
CONTINUOUS
  0
ENDTAB
  0
ENDSEC
  0
SECTION
  2
ENTITIES
0
LINE
8
BLACK
6
CONTINUOUS
10
5.28652
20
-3.46759
11
5.30232
21
-3.39327
0
LINE
8
BLACK
6
CONTINUOUS
10
5.30232
20
-3.39327
11
5.32429
21
-3.32052
0
LINE
8
BLACK
6
CONTINUOUS
10
5.32429
20
-3.32052
11
5.35226
21
-3.24987
0
LINE
8
BLACK
6
CONTINUOUS
10
5.35226
20
-3.24987
11
5.38604
21
-3.18181
0
LINE
8
BLACK
6
CONTINUOUS
10
5.38604
20
-3.18181
11
5.42541
21
-3.11681
0
LINE
8
BLACK
6
CONTINUOUS
10
5.42541
20
-3.11681
11
5.47007
21
-3.05534
0
LINE
8
BLACK
6
CONTINUOUS
10
5.47007
20
-3.05534
11
5.51972
21
-2.99782
0
LINE
8
BLACK
6
CONTINUOUS
10
5.51972
20
-2.99782
11
5.57401
21
-2.94465
0
LINE
8
BLACK
6
CONTINUOUS
10
5.57401
20
-2.94465
11
5.63256
21
-2.89622
0
LINE
8
BLACK
6
CONTINUOUS
10
5.63256
20
-2.89622
11
5.69496
21
-2.85285
0
LINE
8
BLACK
6
CONTINUOUS
10
5.69496
20
-2.85285
11
5.76076
21
-2.81486
0
LINE
8
BLACK
6
CONTINUOUS
10
5.76076
20
-2.81486
11
5.82952
21
-2.78251
0
LINE
8
BLACK
6
CONTINUOUS
10
5.82952
20
-2.78251
11
5.90074
21
-2.75602
0
LINE
8
BLACK
6
CONTINUOUS
10
5.90074
20
-2.75602
11
5.97392
21
-2.73559
0
LINE
8
BLACK
6
CONTINUOUS
10
5.97392
20
-2.73559
11
6.04856
21
-2.72135
0
LINE
8
BLACK
6
CONTINUOUS
10
6.04856
20
-2.72135
11
6.12413
21
-2.7134
0
LINE
8
BLACK
6
CONTINUOUS
10
6.12413
20
-2.7134
11
6.2001
21
-2.71181
0
LINE
8
BLACK
6
CONTINUOUS
10
6.2001
20
-2.71181
11
6.27594
21
-2.71658
0
LINE
8
BLACK
6
CONTINUOUS
10
6.27594
20
-2.71658
11
6.35111
21
-2.72768
0
LINE
8
BLACK
6
CONTINUOUS
10
6.35111
20
-2.72768
11
6.42509
21
-2.74504
0
LINE
8
BLACK
6
CONTINUOUS
10
6.42509
20
-2.74504
11
6.49736
21
-2.76852
0
LINE
8
BLACK
6
CONTINUOUS
10
6.49736
20
-2.76852
11
6.5674
21
-2.79796
0
LINE
8
BLACK
6
CONTINUOUS
10
6.5674
20
-2.79796
11
6.63474
21
-2.83317
0
LINE
8
BLACK
6
CONTINUOUS
10
6.63474
20
-2.83317
11
6.6989
21
-2.87388
0
LINE
8
BLACK
6
CONTINUOUS
10
6.6989
20
-2.87388
11
6.75943
21
-2.91982
0
LINE
8
BLACK
6
CONTINUOUS
10
6.75943
20
-2.91982
11
6.8159
21
-2.97067
0
LINE
8
BLACK
6
CONTINUOUS
10
6.8159
20
-2.97067
11
6.86791
21
-3.02606
0
LINE
8
BLACK
6
CONTINUOUS
10
6.86791
20
-3.02606
11
6.91511
21
-3.08561
0
LINE
8
BLACK
6
CONTINUOUS
10
6.91511
20
-3.08561
11
6.95716
21
-3.1489
0
LINE
8
BLACK
6
CONTINUOUS
10
6.95716
20
-3.1489
11
6.99377
21
-3.21549
0
LINE
8
BLACK
6
CONTINUOUS
10
6.99377
20
-3.21549
11
7.02467
21
-3.2849
0
LINE
8
BLACK
6
CONTINUOUS
10
7.02467
20
-3.2849
11
7.04966
21
-3.35666
0
LINE
8
BLACK
6
CONTINUOUS
10
7.04966
20
-3.35666
11
7.06856
21
-3.43026
0
LINE
8
BLACK
6
CONTINUOUS
10
7.06856
20
-3.43026
11
7.08123
21
-3.50518
0
LINE
8
BLACK
6
CONTINUOUS
10
7.08123
20
-3.50518
11
7.08759
21
-3.5809
0
LINE
8
BLACK
6
CONTINUOUS
10
7.08759
20
-3.5809
11
7.08759
21
-3.65689
0
LINE
8
BLACK
6
CONTINUOUS
10
7.08759
20
-3.65689
11
7.08123
21
-3.73261
0
LINE
8
BLACK
6
CONTINUOUS
10
7.08123
20
-3.73261
11
7.06856
21
-3.80753
0
LINE
8
BLACK
6
CONTINUOUS
10
7.06856
20
-3.80753
11
7.04966
21
-3.88113
0
LINE
8
BLACK
6
CONTINUOUS
10
7.04966
20
-3.88113
11
7.02467
21
-3.95289
0
LINE
8
BLACK
6
CONTINUOUS
10
7.02467
20
-3.95289
11
6.99377
21
-4.02231
0
LINE
8
BLACK
6
CONTINUOUS
10
6.99377
20
-4.02231
11
6.95716
21
-4.08889
0
LINE
8
BLACK
6
CONTINUOUS
10
6.95716
20
-4.08889
11
6.91511
21
-4.15219
0
LINE
8
BLACK
6
CONTINUOUS
10
6.91511
20
-4.15219
11
6.86791
21
-4.21174
0
LINE
8
BLACK
6
CONTINUOUS
10
6.86791
20
-4.21174
11
6.8159
21
-4.26713
0
LINE
8
BLACK
6
CONTINUOUS
10
6.8159
20
-4.26713
11
6.75943
21
-4.31797
0
LINE
8
BLACK
6
CONTINUOUS
10
6.75943
20
-4.31797
11
6.6989
21
-4.36391
0
LINE
8
BLACK
6
CONTINUOUS
10
6.6989
20
-4.36391
11
6.63474
21
-4.40463
0
LINE
8
BLACK
6
CONTINUOUS
10
6.63474
20
-4.40463
11
6.5674
21
-4.43983
0
LINE
8
BLACK
6
CONTINUOUS
10
6.5674
20
-4.43983
11
6.49736
21
-4.46928
0
LINE
8
BLACK
6
CONTINUOUS
10
6.49736
20
-4.46928
11
6.42509
21
-4.49276
0
LINE
8
BLACK
6
CONTINUOUS
10
6.42509
20
-4.49276
11
6.35111
21
-4.51011
0
LINE
8
BLACK
6
CONTINUOUS
10
6.35111
20
-4.51011
11
6.27594
21
-4.52121
0
LINE
8
BLACK
6
CONTINUOUS
10
6.27594
20
-4.52121
11
6.2001
21
-4.52598
0
LINE
8
BLACK
6
CONTINUOUS
10
6.2001
20
-4.52598
11
6.12413
21
-4.52439
0
LINE
8
BLACK
6
CONTINUOUS
10
6.12413
20
-4.52439
11
6.04856
21
-4.51645
0
LINE
8
BLACK
6
CONTINUOUS
10
6.04856
20
-4.51645
11
5.97392
21
-4.50221
0
LINE
8
BLACK
6
CONTINUOUS
10
5.97392
20
-4.50221
11
5.90074
21
-4.48178
0
LINE
8
BLACK
6
CONTINUOUS
10
5.90074
20
-4.48178
11
5.82952
21
-4.45529
0
LINE
8
BLACK
6
CONTINUOUS
10
5.82952
20
-4.45529
11
5.76076
21
-4.42294
0
LINE
8
BLACK
6
CONTINUOUS
10
5.76076
20
-4.42294
11
5.69496
21
-4.38494
0
LINE
8
BLACK
6
CONTINUOUS
10
5.69496
20
-4.38494
11
5.63256
21
-4.34158
0
LINE
8
BLACK
6
CONTINUOUS
10
5.63256
20
-4.34158
11
5.57401
21
-4.29314
0
LINE
8
BLACK
6
CONTINUOUS
10
5.57401
20
-4.29314
11
5.51972
21
-4.23998
0
LINE
8
BLACK
6
CONTINUOUS
10
5.51972
20
-4.23998
11
5.47007
21
-4.18245
0
LINE
8
BLACK
6
CONTINUOUS
10
5.47007
20
-4.18245
11
5.42541
21
-4.12098
0
LINE
8
BLACK
6
CONTINUOUS
10
5.42541
20
-4.12098
11
5.38604
21
-4.05598
0
LINE
8
BLACK
6
CONTINUOUS
10
5.38604
20
-4.05598
11
5.35226
21
-3.98792
0
LINE
8
BLACK
6
CONTINUOUS
10
5.35226
20
-3.98792
11
5.32429
21
-3.91727
0
LINE
8
BLACK
6
CONTINUOUS
10
5.32429
20
-3.91727
11
5.30232
21
-3.84453
0
LINE
8
BLACK
6
CONTINUOUS
10
5.30232
20
-3.84453
11
5.28652
21
-3.7702
0
LINE
8
BLACK
6
CONTINUOUS
10
5.28652
20
-3.7702
11
5.277
21
-3.69482
0
LINE
8
BLACK
6
CONTINUOUS
10
5.277
20
-3.69482
11
5.27382
21
-3.6189
0
LINE
8
BLACK
6
CONTINUOUS
10
5.27382
20
-3.6189
11
5.277
21
-3.54298
0
LINE
8
BLACK
6
CONTINUOUS
10
5.277
20
-3.54298
11
5.28652
21
-3.46759
0
LINE
8
BLACK
6
CONTINUOUS
10
5.28924
20
-3.76974
11
5.30499
21
-3.84384
0
LINE
8
BLACK
6
CONTINUOUS
10
5.30499
20
-3.84384
11
5.32689
21
-3.91637
0
LINE
8
BLACK
6
CONTINUOUS
10
5.32689
20
-3.91637
11
5.35478
21
-3.9868
0
LINE
8
BLACK
6
CONTINUOUS
10
5.35478
20
-3.9868
11
5.38846
21
-4.05466
0
LINE
8
BLACK
6
CONTINUOUS
10
5.38846
20
-4.05466
11
5.4277
21
-4.11946
0
LINE
8
BLACK
6
CONTINUOUS
10
5.4277
20
-4.11946
11
5.47223
21
-4.18074
0
LINE
8
BLACK
6
CONTINUOUS
10
5.47223
20
-4.18074
11
5.52173
21
-4.23809
0
LINE
8
BLACK
6
CONTINUOUS
10
5.52173
20
-4.23809
11
5.57586
21
-4.29109
0
LINE
8
BLACK
6
CONTINUOUS
10
5.57586
20
-4.29109
11
5.63423
21
-4.33938
0
LINE
8
BLACK
6
CONTINUOUS
10
5.63423
20
-4.33938
11
5.69643
21
-4.38262
0
LINE
8
BLACK
6
CONTINUOUS
10
5.69643
20
-4.38262
11
5.76204
21
-4.42049
0
LINE
8
BLACK
6
CONTINUOUS
10
5.76204
20
-4.42049
11
5.83058
21
-4.45275
0
LINE
8
BLACK
6
CONTINUOUS
10
5.83058
20
-4.45275
11
5.90159
21
-4.47915
0
LINE
8
BLACK
6
CONTINUOUS
10
5.90159
20
-4.47915
11
5.97455
21
-4.49953
0
LINE
8
BLACK
6
CONTINUOUS
10
5.97455
20
-4.49953
11
6.04897
21
-4.51372
0
LINE
8
BLACK
6
CONTINUOUS
10
6.04897
20
-4.51372
11
6.12431
21
-4.52164
0
LINE
8
BLACK
6
CONTINUOUS
10
6.12431
20
-4.52164
11
6.20005
21
-4.52323
0
LINE
8
BLACK
6
CONTINUOUS
10
6.20005
20
-4.52323
11
6.27565
21
-4.51847
0
LINE
8
BLACK
6
CONTINUOUS
10
6.27565
20
-4.51847
11
6.35059
21
-4.5074
0
LINE
8
BLACK
6
CONTINUOUS
10
6.35059
20
-4.5074
11
6.42435
21
-4.4901
0
LINE
8
BLACK
6
CONTINUOUS
10
6.42435
20
-4.4901
11
6.4964
21
-4.4667
0
LINE
8
BLACK
6
CONTINUOUS
10
6.4964
20
-4.4667
11
6.56623
21
-4.43734
0
LINE
8
BLACK
6
CONTINUOUS
10
6.56623
20
-4.43734
11
6.63337
21
-4.40224
0
LINE
8
BLACK
6
CONTINUOUS
10
6.63337
20
-4.40224
11
6.69733
21
-4.36165
0
LINE
8
BLACK
6
CONTINUOUS
10
6.69733
20
-4.36165
11
6.75767
21
-4.31585
0
LINE
8
BLACK
6
CONTINUOUS
10
6.75767
20
-4.31585
11
6.81397
21
-4.26516
0
LINE
8
BLACK
6
CONTINUOUS
10
6.81397
20
-4.26516
11
6.86583
21
-4.20993
0
LINE
8
BLACK
6
CONTINUOUS
10
6.86583
20
-4.20993
11
6.91288
21
-4.15057
0
LINE
8
BLACK
6
CONTINUOUS
10
6.91288
20
-4.15057
11
6.9548
21
-4.08747
0
LINE
8
BLACK
6
CONTINUOUS
10
6.9548
20
-4.08747
11
6.9913
21
-4.02108
0
LINE
8
BLACK
6
CONTINUOUS
10
6.9913
20
-4.02108
11
7.02211
21
-3.95188
0
LINE
8
BLACK
6
CONTINUOUS
10
7.02211
20
-3.95188
11
7.04702
21
-3.88033
0
LINE
8
BLACK
6
CONTINUOUS
10
7.04702
20
-3.88033
11
7.06586
21
-3.80696
0
LINE
8
BLACK
6
CONTINUOUS
10
7.06586
20
-3.80696
11
7.0785
21
-3.73226
0
LINE
8
BLACK
6
CONTINUOUS
10
7.0785
20
-3.73226
11
7.08484
21
-3.65678
0
LINE
8
BLACK
6
CONTINUOUS
10
7.08484
20
-3.65678
11
7.08484
21
-3.58102
0
LINE
8
BLACK
6
CONTINUOUS
10
7.08484
20
-3.58102
11
7.0785
21
-3.50553
0
LINE
8
BLACK
6
CONTINUOUS
10
7.0785
20
-3.50553
11
7.06586
21
-3.43084
0
LINE
8
BLACK
6
CONTINUOUS
10
7.06586
20
-3.43084
11
7.04702
21
-3.35746
0
LINE
8
BLACK
6
CONTINUOUS
10
7.04702
20
-3.35746
11
7.02211
21
-3.28592
0
LINE
8
BLACK
6
CONTINUOUS
10
7.02211
20
-3.28592
11
6.9913
21
-3.21671
0
LINE
8
BLACK
6
CONTINUOUS
10
6.9913
20
-3.21671
11
6.9548
21
-3.15033
0
LINE
8
BLACK
6
CONTINUOUS
10
6.9548
20
-3.15033
11
6.91288
21
-3.08723
0
LINE
8
BLACK
6
CONTINUOUS
10
6.91288
20
-3.08723
11
6.86583
21
-3.02786
0
LINE
8
BLACK
6
CONTINUOUS
10
6.86583
20
-3.02786
11
6.81397
21
-2.97264
0
LINE
8
BLACK
6
CONTINUOUS
10
6.81397
20
-2.97264
11
6.75767
21
-2.92195
0
LINE
8
BLACK
6
CONTINUOUS
10
6.75767
20
-2.92195
11
6.69733
21
-2.87615
0
LINE
8
BLACK
6
CONTINUOUS
10
6.69733
20
-2.87615
11
6.63337
21
-2.83555
0
LINE
8
BLACK
6
CONTINUOUS
10
6.63337
20
-2.83555
11
6.56623
21
-2.80046
0
LINE
8
BLACK
6
CONTINUOUS
10
6.56623
20
-2.80046
11
6.4964
21
-2.7711
0
LINE
8
BLACK
6
CONTINUOUS
10
6.4964
20
-2.7711
11
6.42435
21
-2.74769
0
LINE
8
BLACK
6
CONTINUOUS
10
6.42435
20
-2.74769
11
6.35059
21
-2.73039
0
LINE
8
BLACK
6
CONTINUOUS
10
6.35059
20
-2.73039
11
6.27565
21
-2.71933
0
LINE
8
BLACK
6
CONTINUOUS
10
6.27565
20
-2.71933
11
6.20005
21
-2.71457
0
LINE
8
BLACK
6
CONTINUOUS
10
6.20005
20
-2.71457
11
6.12431
21
-2.71615
0
LINE
8
BLACK
6
CONTINUOUS
10
6.12431
20
-2.71615
11
6.04897
21
-2.72407
0
LINE
8
BLACK
6
CONTINUOUS
10
6.04897
20
-2.72407
11
5.97455
21
-2.73827
0
LINE
8
BLACK
6
CONTINUOUS
10
5.97455
20
-2.73827
11
5.90159
21
-2.75864
0
LINE
8
BLACK
6
CONTINUOUS
10
5.90159
20
-2.75864
11
5.83058
21
-2.78505
0
LINE
8
BLACK
6
CONTINUOUS
10
5.83058
20
-2.78505
11
5.76204
21
-2.8173
0
LINE
8
BLACK
6
CONTINUOUS
10
5.76204
20
-2.8173
11
5.69643
21
-2.85518
0
LINE
8
BLACK
6
CONTINUOUS
10
5.69643
20
-2.85518
11
5.63423
21
-2.89841
0
LINE
8
BLACK
6
CONTINUOUS
10
5.63423
20
-2.89841
11
5.57586
21
-2.9467
0
LINE
8
BLACK
6
CONTINUOUS
10
5.57586
20
-2.9467
11
5.52173
21
-2.99971
0
LINE
8
BLACK
6
CONTINUOUS
10
5.52173
20
-2.99971
11
5.47223
21
-3.05705
0
LINE
8
BLACK
6
CONTINUOUS
10
5.47223
20
-3.05705
11
5.4277
21
-3.11834
0
LINE
8
BLACK
6
CONTINUOUS
10
5.4277
20
-3.11834
11
5.38846
21
-3.18314
0
LINE
8
BLACK
6
CONTINUOUS
10
5.38846
20
-3.18314
11
5.35478
21
-3.25099
0
LINE
8
BLACK
6
CONTINUOUS
10
5.35478
20
-3.25099
11
5.32689
21
-3.32143
0
LINE
8
BLACK
6
CONTINUOUS
10
5.32689
20
-3.32143
11
5.30499
21
-3.39395
0
LINE
8
BLACK
6
CONTINUOUS
10
5.30499
20
-3.39395
11
5.28924
21
-3.46805
0
LINE
8
BLACK
6
CONTINUOUS
10
5.28924
20
-3.46805
11
5.27975
21
-3.54321
0
LINE
8
BLACK
6
CONTINUOUS
10
5.27975
20
-3.54321
11
5.27657
21
-3.6189
0
LINE
8
BLACK
6
CONTINUOUS
10
5.27657
20
-3.6189
11
5.27975
21
-3.69459
0
LINE
8
BLACK
6
CONTINUOUS
10
5.27975
20
-3.69459
11
5.28924
21
-3.76974
  0
ENDSEC
  0
EOF
