  0
SECTION
  2
HEADER
  9
$ANGBASE
  50
0.0
  9
$ANGDIR
  70
1
  9
$MEASUREMENT
  70
0
  0
ENDSEC
  0
SECTION
  2
TABLES
  0
TABLE
  2
LTYPE
  70
4
  0
LTYPE
  5
40F
  2
CONTINUOUS
  70
0
  3
Solid line
  72
65
  73
0
  40
0.0
  0
LTYPE
  5
410
  2
DASHDOT
 70
0
  3
Dash Dot ____ _ ____ _
 72
65
 73
4
 40
2.0
 49
1.25
 49
-0.25
 49
0.25
 49
-0.25
  0
LTYPE
  5
411
  2
DASHED
 70
0
  3
Dashed __ __ __ __ __
 72
65
 73
2
 40
0.75
 49
0.5
 49
-0.25
  0
LTYPE
  5
43B
  2
DOTTED
 70
0
  3
Dotted .  .  .  .
 72
65
 73
2
 40
0.2
 49
0.0
 49
-0.2
  0
ENDTAB
  0
TABLE
  2
STYLE
  70
4
  0
STYLE
  2
KICAD
  70
0
  40
0
  41
1
  42
1
  50
0
  71
0
  3
isocp.shx
  0
STYLE
  2
KICADB
  70
0
  40
0
  41
1
  42
1
  50
0
  71
0
  3
isocp.shx
  0
STYLE
  2
KICADI
  70
0
  40
0
  41
1
  42
1
  50
15
  71
0
  3
isocp.shx
  0
STYLE
  2
KICADBI
  70
0
  40
0
  41
1
  42
1
  50
15
  71
0
  3
isocp.shx
  0
ENDTAB
  0
TABLE
  2
LAYER
  70
1
  0
LAYER
  2
BLACK
  70
0
  62
7
  6
CONTINUOUS
  0
ENDTAB
  0
ENDSEC
  0
SECTION
  2
ENTITIES
0
LINE
8
BLACK
6
CONTINUOUS
10
6.28289
20
-4.33563
11
6.28486
21
-4.33623
0
LINE
8
BLACK
6
CONTINUOUS
10
6.28486
20
-4.33623
11
6.28667
21
-4.3372
0
LINE
8
BLACK
6
CONTINUOUS
10
6.28667
20
-4.3372
11
6.28826
21
-4.33851
0
LINE
8
BLACK
6
CONTINUOUS
10
6.28826
20
-4.33851
11
6.28957
21
-4.3401
0
LINE
8
BLACK
6
CONTINUOUS
10
6.28957
20
-4.3401
11
6.29054
21
-4.34191
0
LINE
8
BLACK
6
CONTINUOUS
10
6.29054
20
-4.34191
11
6.29114
21
-4.34388
0
LINE
8
BLACK
6
CONTINUOUS
10
6.29114
20
-4.34388
11
6.29134
21
-4.34593
0
LINE
8
BLACK
6
CONTINUOUS
10
6.29134
20
-4.34593
11
6.29134
21
-4.38793
0
LINE
8
BLACK
6
CONTINUOUS
10
6.29134
20
-4.38793
11
6.29114
21
-4.38997
0
LINE
8
BLACK
6
CONTINUOUS
10
6.29114
20
-4.38997
11
6.29054
21
-4.39194
0
LINE
8
BLACK
6
CONTINUOUS
10
6.29054
20
-4.39194
11
6.28957
21
-4.39376
0
LINE
8
BLACK
6
CONTINUOUS
10
6.28957
20
-4.39376
11
6.28826
21
-4.39535
0
LINE
8
BLACK
6
CONTINUOUS
10
6.28826
20
-4.39535
11
6.28667
21
-4.39666
0
LINE
8
BLACK
6
CONTINUOUS
10
6.28667
20
-4.39666
11
6.28486
21
-4.39763
0
LINE
8
BLACK
6
CONTINUOUS
10
6.28486
20
-4.39763
11
6.28289
21
-4.39822
0
LINE
8
BLACK
6
CONTINUOUS
10
6.28289
20
-4.39822
11
6.28084
21
-4.39843
0
LINE
8
BLACK
6
CONTINUOUS
10
6.28084
20
-4.39843
11
6.23885
21
-4.39843
0
LINE
8
BLACK
6
CONTINUOUS
10
6.23885
20
-4.39843
11
6.2368
21
-4.39822
0
LINE
8
BLACK
6
CONTINUOUS
10
6.2368
20
-4.39822
11
6.23483
21
-4.39763
0
LINE
8
BLACK
6
CONTINUOUS
10
6.23483
20
-4.39763
11
6.23301
21
-4.39666
0
LINE
8
BLACK
6
CONTINUOUS
10
6.23301
20
-4.39666
11
6.23142
21
-4.39535
0
LINE
8
BLACK
6
CONTINUOUS
10
6.23142
20
-4.39535
11
6.23012
21
-4.39376
0
LINE
8
BLACK
6
CONTINUOUS
10
6.23012
20
-4.39376
11
6.22915
21
-4.39194
0
LINE
8
BLACK
6
CONTINUOUS
10
6.22915
20
-4.39194
11
6.22855
21
-4.38997
0
LINE
8
BLACK
6
CONTINUOUS
10
6.22855
20
-4.38997
11
6.22835
21
-4.38793
0
LINE
8
BLACK
6
CONTINUOUS
10
6.22835
20
-4.38793
11
6.22835
21
-4.34593
0
LINE
8
BLACK
6
CONTINUOUS
10
6.22835
20
-4.34593
11
6.22855
21
-4.34388
0
LINE
8
BLACK
6
CONTINUOUS
10
6.22855
20
-4.34388
11
6.22915
21
-4.34191
0
LINE
8
BLACK
6
CONTINUOUS
10
6.22915
20
-4.34191
11
6.23012
21
-4.3401
0
LINE
8
BLACK
6
CONTINUOUS
10
6.23012
20
-4.3401
11
6.23142
21
-4.33851
0
LINE
8
BLACK
6
CONTINUOUS
10
6.23142
20
-4.33851
11
6.23301
21
-4.3372
0
LINE
8
BLACK
6
CONTINUOUS
10
6.23301
20
-4.3372
11
6.23483
21
-4.33623
0
LINE
8
BLACK
6
CONTINUOUS
10
6.23483
20
-4.33623
11
6.2368
21
-4.33563
0
LINE
8
BLACK
6
CONTINUOUS
10
6.2368
20
-4.33563
11
6.23885
21
-4.33543
0
LINE
8
BLACK
6
CONTINUOUS
10
6.23885
20
-4.33543
11
6.28084
21
-4.33543
0
LINE
8
BLACK
6
CONTINUOUS
10
6.28084
20
-4.33543
11
6.28289
21
-4.33563
0
LINE
8
BLACK
6
CONTINUOUS
10
6.15092
20
-4.33664
11
6.15665
21
-4.33902
0
LINE
8
BLACK
6
CONTINUOUS
10
6.15665
20
-4.33902
11
6.16181
21
-4.34246
0
LINE
8
BLACK
6
CONTINUOUS
10
6.16181
20
-4.34246
11
6.1662
21
-4.34685
0
LINE
8
BLACK
6
CONTINUOUS
10
6.1662
20
-4.34685
11
6.16964
21
-4.35201
0
LINE
8
BLACK
6
CONTINUOUS
10
6.16964
20
-4.35201
11
6.17202
21
-4.35774
0
LINE
8
BLACK
6
CONTINUOUS
10
6.17202
20
-4.35774
11
6.17323
21
-4.36383
0
LINE
8
BLACK
6
CONTINUOUS
10
6.17323
20
-4.36383
11
6.17323
21
-4.37003
0
LINE
8
BLACK
6
CONTINUOUS
10
6.17323
20
-4.37003
11
6.17202
21
-4.37612
0
LINE
8
BLACK
6
CONTINUOUS
10
6.17202
20
-4.37612
11
6.16964
21
-4.38185
0
LINE
8
BLACK
6
CONTINUOUS
10
6.16964
20
-4.38185
11
6.1662
21
-4.38701
0
LINE
8
BLACK
6
CONTINUOUS
10
6.1662
20
-4.38701
11
6.16181
21
-4.39139
0
LINE
8
BLACK
6
CONTINUOUS
10
6.16181
20
-4.39139
11
6.15665
21
-4.39484
0
LINE
8
BLACK
6
CONTINUOUS
10
6.15665
20
-4.39484
11
6.15092
21
-4.39721
0
LINE
8
BLACK
6
CONTINUOUS
10
6.15092
20
-4.39721
11
6.14483
21
-4.39843
0
LINE
8
BLACK
6
CONTINUOUS
10
6.14483
20
-4.39843
11
6.13863
21
-4.39843
0
LINE
8
BLACK
6
CONTINUOUS
10
6.13863
20
-4.39843
11
6.13255
21
-4.39721
0
LINE
8
BLACK
6
CONTINUOUS
10
6.13255
20
-4.39721
11
6.12681
21
-4.39484
0
LINE
8
BLACK
6
CONTINUOUS
10
6.12681
20
-4.39484
11
6.12165
21
-4.39139
0
LINE
8
BLACK
6
CONTINUOUS
10
6.12165
20
-4.39139
11
6.11727
21
-4.38701
0
LINE
8
BLACK
6
CONTINUOUS
10
6.11727
20
-4.38701
11
6.11382
21
-4.38185
0
LINE
8
BLACK
6
CONTINUOUS
10
6.11382
20
-4.38185
11
6.11145
21
-4.37612
0
LINE
8
BLACK
6
CONTINUOUS
10
6.11145
20
-4.37612
11
6.11024
21
-4.37003
0
LINE
8
BLACK
6
CONTINUOUS
10
6.11024
20
-4.37003
11
6.11024
21
-4.36383
0
LINE
8
BLACK
6
CONTINUOUS
10
6.11024
20
-4.36383
11
6.11145
21
-4.35774
0
LINE
8
BLACK
6
CONTINUOUS
10
6.11145
20
-4.35774
11
6.11382
21
-4.35201
0
LINE
8
BLACK
6
CONTINUOUS
10
6.11382
20
-4.35201
11
6.11727
21
-4.34685
0
LINE
8
BLACK
6
CONTINUOUS
10
6.11727
20
-4.34685
11
6.12165
21
-4.34246
0
LINE
8
BLACK
6
CONTINUOUS
10
6.12165
20
-4.34246
11
6.12681
21
-4.33902
0
LINE
8
BLACK
6
CONTINUOUS
10
6.12681
20
-4.33902
11
6.13255
21
-4.33664
0
LINE
8
BLACK
6
CONTINUOUS
10
6.13255
20
-4.33664
11
6.13863
21
-4.33543
0
LINE
8
BLACK
6
CONTINUOUS
10
6.13863
20
-4.33543
11
6.14483
21
-4.33543
0
LINE
8
BLACK
6
CONTINUOUS
10
6.14483
20
-4.33543
11
6.15092
21
-4.33664
0
LINE
8
BLACK
6
CONTINUOUS
10
6.26903
20
-4.21853
11
6.27476
21
-4.22091
0
LINE
8
BLACK
6
CONTINUOUS
10
6.27476
20
-4.22091
11
6.27992
21
-4.22435
0
LINE
8
BLACK
6
CONTINUOUS
10
6.27992
20
-4.22435
11
6.28431
21
-4.22874
0
LINE
8
BLACK
6
CONTINUOUS
10
6.28431
20
-4.22874
11
6.28775
21
-4.2339
0
LINE
8
BLACK
6
CONTINUOUS
10
6.28775
20
-4.2339
11
6.29013
21
-4.23963
0
LINE
8
BLACK
6
CONTINUOUS
10
6.29013
20
-4.23963
11
6.29134
21
-4.24572
0
LINE
8
BLACK
6
CONTINUOUS
10
6.29134
20
-4.24572
11
6.29134
21
-4.25192
0
LINE
8
BLACK
6
CONTINUOUS
10
6.29134
20
-4.25192
11
6.29013
21
-4.25801
0
LINE
8
BLACK
6
CONTINUOUS
10
6.29013
20
-4.25801
11
6.28775
21
-4.26374
0
LINE
8
BLACK
6
CONTINUOUS
10
6.28775
20
-4.26374
11
6.28431
21
-4.2689
0
LINE
8
BLACK
6
CONTINUOUS
10
6.28431
20
-4.2689
11
6.27992
21
-4.27328
0
LINE
8
BLACK
6
CONTINUOUS
10
6.27992
20
-4.27328
11
6.27476
21
-4.27673
0
LINE
8
BLACK
6
CONTINUOUS
10
6.27476
20
-4.27673
11
6.26903
21
-4.2791
0
LINE
8
BLACK
6
CONTINUOUS
10
6.26903
20
-4.2791
11
6.26294
21
-4.28031
0
LINE
8
BLACK
6
CONTINUOUS
10
6.26294
20
-4.28031
11
6.25674
21
-4.28031
0
LINE
8
BLACK
6
CONTINUOUS
10
6.25674
20
-4.28031
11
6.25066
21
-4.2791
0
LINE
8
BLACK
6
CONTINUOUS
10
6.25066
20
-4.2791
11
6.24492
21
-4.27673
0
LINE
8
BLACK
6
CONTINUOUS
10
6.24492
20
-4.27673
11
6.23976
21
-4.27328
0
LINE
8
BLACK
6
CONTINUOUS
10
6.23976
20
-4.27328
11
6.23538
21
-4.2689
0
LINE
8
BLACK
6
CONTINUOUS
10
6.23538
20
-4.2689
11
6.23193
21
-4.26374
0
LINE
8
BLACK
6
CONTINUOUS
10
6.23193
20
-4.26374
11
6.22956
21
-4.25801
0
LINE
8
BLACK
6
CONTINUOUS
10
6.22956
20
-4.25801
11
6.22835
21
-4.25192
0
LINE
8
BLACK
6
CONTINUOUS
10
6.22835
20
-4.25192
11
6.22835
21
-4.24572
0
LINE
8
BLACK
6
CONTINUOUS
10
6.22835
20
-4.24572
11
6.22956
21
-4.23963
0
LINE
8
BLACK
6
CONTINUOUS
10
6.22956
20
-4.23963
11
6.23193
21
-4.2339
0
LINE
8
BLACK
6
CONTINUOUS
10
6.23193
20
-4.2339
11
6.23538
21
-4.22874
0
LINE
8
BLACK
6
CONTINUOUS
10
6.23538
20
-4.22874
11
6.23976
21
-4.22435
0
LINE
8
BLACK
6
CONTINUOUS
10
6.23976
20
-4.22435
11
6.24492
21
-4.22091
0
LINE
8
BLACK
6
CONTINUOUS
10
6.24492
20
-4.22091
11
6.25066
21
-4.21853
0
LINE
8
BLACK
6
CONTINUOUS
10
6.25066
20
-4.21853
11
6.25674
21
-4.21732
0
LINE
8
BLACK
6
CONTINUOUS
10
6.25674
20
-4.21732
11
6.26294
21
-4.21732
0
LINE
8
BLACK
6
CONTINUOUS
10
6.26294
20
-4.21732
11
6.26903
21
-4.21853
0
LINE
8
BLACK
6
CONTINUOUS
10
6.15092
20
-4.21853
11
6.15665
21
-4.22091
0
LINE
8
BLACK
6
CONTINUOUS
10
6.15665
20
-4.22091
11
6.16181
21
-4.22435
0
LINE
8
BLACK
6
CONTINUOUS
10
6.16181
20
-4.22435
11
6.1662
21
-4.22874
0
LINE
8
BLACK
6
CONTINUOUS
10
6.1662
20
-4.22874
11
6.16964
21
-4.2339
0
LINE
8
BLACK
6
CONTINUOUS
10
6.16964
20
-4.2339
11
6.17202
21
-4.23963
0
LINE
8
BLACK
6
CONTINUOUS
10
6.17202
20
-4.23963
11
6.17323
21
-4.24572
0
LINE
8
BLACK
6
CONTINUOUS
10
6.17323
20
-4.24572
11
6.17323
21
-4.25192
0
LINE
8
BLACK
6
CONTINUOUS
10
6.17323
20
-4.25192
11
6.17202
21
-4.25801
0
LINE
8
BLACK
6
CONTINUOUS
10
6.17202
20
-4.25801
11
6.16964
21
-4.26374
0
LINE
8
BLACK
6
CONTINUOUS
10
6.16964
20
-4.26374
11
6.1662
21
-4.2689
0
LINE
8
BLACK
6
CONTINUOUS
10
6.1662
20
-4.2689
11
6.16181
21
-4.27328
0
LINE
8
BLACK
6
CONTINUOUS
10
6.16181
20
-4.27328
11
6.15665
21
-4.27673
0
LINE
8
BLACK
6
CONTINUOUS
10
6.15665
20
-4.27673
11
6.15092
21
-4.2791
0
LINE
8
BLACK
6
CONTINUOUS
10
6.15092
20
-4.2791
11
6.14483
21
-4.28031
0
LINE
8
BLACK
6
CONTINUOUS
10
6.14483
20
-4.28031
11
6.13863
21
-4.28031
0
LINE
8
BLACK
6
CONTINUOUS
10
6.13863
20
-4.28031
11
6.13255
21
-4.2791
0
LINE
8
BLACK
6
CONTINUOUS
10
6.13255
20
-4.2791
11
6.12681
21
-4.27673
0
LINE
8
BLACK
6
CONTINUOUS
10
6.12681
20
-4.27673
11
6.12165
21
-4.27328
0
LINE
8
BLACK
6
CONTINUOUS
10
6.12165
20
-4.27328
11
6.11727
21
-4.2689
0
LINE
8
BLACK
6
CONTINUOUS
10
6.11727
20
-4.2689
11
6.11382
21
-4.26374
0
LINE
8
BLACK
6
CONTINUOUS
10
6.11382
20
-4.26374
11
6.11145
21
-4.25801
0
LINE
8
BLACK
6
CONTINUOUS
10
6.11145
20
-4.25801
11
6.11024
21
-4.25192
0
LINE
8
BLACK
6
CONTINUOUS
10
6.11024
20
-4.25192
11
6.11024
21
-4.24572
0
LINE
8
BLACK
6
CONTINUOUS
10
6.11024
20
-4.24572
11
6.11145
21
-4.23963
0
LINE
8
BLACK
6
CONTINUOUS
10
6.11145
20
-4.23963
11
6.11382
21
-4.2339
0
LINE
8
BLACK
6
CONTINUOUS
10
6.11382
20
-4.2339
11
6.11727
21
-4.22874
0
LINE
8
BLACK
6
CONTINUOUS
10
6.11727
20
-4.22874
11
6.12165
21
-4.22435
0
LINE
8
BLACK
6
CONTINUOUS
10
6.12165
20
-4.22435
11
6.12681
21
-4.22091
0
LINE
8
BLACK
6
CONTINUOUS
10
6.12681
20
-4.22091
11
6.13255
21
-4.21853
0
LINE
8
BLACK
6
CONTINUOUS
10
6.13255
20
-4.21853
11
6.13863
21
-4.21732
0
LINE
8
BLACK
6
CONTINUOUS
10
6.13863
20
-4.21732
11
6.14483
21
-4.21732
0
LINE
8
BLACK
6
CONTINUOUS
10
6.14483
20
-4.21732
11
6.15092
21
-4.21853
0
LINE
8
BLACK
6
CONTINUOUS
10
5.67034
20
-4.18593
11
5.67678
21
-4.1886
0
LINE
8
BLACK
6
CONTINUOUS
10
5.67678
20
-4.1886
11
5.68259
21
-4.19248
0
LINE
8
BLACK
6
CONTINUOUS
10
5.68259
20
-4.19248
11
5.68752
21
-4.19741
0
LINE
8
BLACK
6
CONTINUOUS
10
5.68752
20
-4.19741
11
5.6914
21
-4.20322
0
LINE
8
BLACK
6
CONTINUOUS
10
5.6914
20
-4.20322
11
5.69407
21
-4.20966
0
LINE
8
BLACK
6
CONTINUOUS
10
5.69407
20
-4.20966
11
5.69543
21
-4.21651
0
LINE
8
BLACK
6
CONTINUOUS
10
5.69543
20
-4.21651
11
5.69543
21
-4.22349
0
LINE
8
BLACK
6
CONTINUOUS
10
5.69543
20
-4.22349
11
5.69407
21
-4.23034
0
LINE
8
BLACK
6
CONTINUOUS
10
5.69407
20
-4.23034
11
5.6914
21
-4.23678
0
LINE
8
BLACK
6
CONTINUOUS
10
5.6914
20
-4.23678
11
5.68752
21
-4.24259
0
LINE
8
BLACK
6
CONTINUOUS
10
5.68752
20
-4.24259
11
5.68259
21
-4.24752
0
LINE
8
BLACK
6
CONTINUOUS
10
5.68259
20
-4.24752
11
5.67678
21
-4.2514
0
LINE
8
BLACK
6
CONTINUOUS
10
5.67678
20
-4.2514
11
5.67034
21
-4.25407
0
LINE
8
BLACK
6
CONTINUOUS
10
5.67034
20
-4.25407
11
5.66349
21
-4.25543
0
LINE
8
BLACK
6
CONTINUOUS
10
5.66349
20
-4.25543
11
5.65651
21
-4.25543
0
LINE
8
BLACK
6
CONTINUOUS
10
5.65651
20
-4.25543
11
5.64966
21
-4.25407
0
LINE
8
BLACK
6
CONTINUOUS
10
5.64966
20
-4.25407
11
5.64322
21
-4.2514
0
LINE
8
BLACK
6
CONTINUOUS
10
5.64322
20
-4.2514
11
5.63741
21
-4.24752
0
LINE
8
BLACK
6
CONTINUOUS
10
5.63741
20
-4.24752
11
5.63248
21
-4.24259
0
LINE
8
BLACK
6
CONTINUOUS
10
5.63248
20
-4.24259
11
5.6286
21
-4.23678
0
LINE
8
BLACK
6
CONTINUOUS
10
5.6286
20
-4.23678
11
5.62593
21
-4.23034
0
LINE
8
BLACK
6
CONTINUOUS
10
5.62593
20
-4.23034
11
5.62457
21
-4.22349
0
LINE
8
BLACK
6
CONTINUOUS
10
5.62457
20
-4.22349
11
5.62457
21
-4.21651
0
LINE
8
BLACK
6
CONTINUOUS
10
5.62457
20
-4.21651
11
5.62593
21
-4.20966
0
LINE
8
BLACK
6
CONTINUOUS
10
5.62593
20
-4.20966
11
5.6286
21
-4.20322
0
LINE
8
BLACK
6
CONTINUOUS
10
5.6286
20
-4.20322
11
5.63248
21
-4.19741
0
LINE
8
BLACK
6
CONTINUOUS
10
5.63248
20
-4.19741
11
5.63741
21
-4.19248
0
LINE
8
BLACK
6
CONTINUOUS
10
5.63741
20
-4.19248
11
5.64322
21
-4.1886
0
LINE
8
BLACK
6
CONTINUOUS
10
5.64322
20
-4.1886
11
5.64966
21
-4.18593
0
LINE
8
BLACK
6
CONTINUOUS
10
5.64966
20
-4.18593
11
5.65651
21
-4.18457
0
LINE
8
BLACK
6
CONTINUOUS
10
5.65651
20
-4.18457
11
5.66349
21
-4.18457
0
LINE
8
BLACK
6
CONTINUOUS
10
5.66349
20
-4.18457
11
5.67034
21
-4.18593
0
LINE
8
BLACK
6
CONTINUOUS
10
5.77034
20
-4.18593
11
5.77678
21
-4.1886
0
LINE
8
BLACK
6
CONTINUOUS
10
5.77678
20
-4.1886
11
5.78259
21
-4.19248
0
LINE
8
BLACK
6
CONTINUOUS
10
5.78259
20
-4.19248
11
5.78752
21
-4.19741
0
LINE
8
BLACK
6
CONTINUOUS
10
5.78752
20
-4.19741
11
5.7914
21
-4.20322
0
LINE
8
BLACK
6
CONTINUOUS
10
5.7914
20
-4.20322
11
5.79407
21
-4.20966
0
LINE
8
BLACK
6
CONTINUOUS
10
5.79407
20
-4.20966
11
5.79543
21
-4.21651
0
LINE
8
BLACK
6
CONTINUOUS
10
5.79543
20
-4.21651
11
5.79543
21
-4.22349
0
LINE
8
BLACK
6
CONTINUOUS
10
5.79543
20
-4.22349
11
5.79407
21
-4.23034
0
LINE
8
BLACK
6
CONTINUOUS
10
5.79407
20
-4.23034
11
5.7914
21
-4.23678
0
LINE
8
BLACK
6
CONTINUOUS
10
5.7914
20
-4.23678
11
5.78752
21
-4.24259
0
LINE
8
BLACK
6
CONTINUOUS
10
5.78752
20
-4.24259
11
5.78259
21
-4.24752
0
LINE
8
BLACK
6
CONTINUOUS
10
5.78259
20
-4.24752
11
5.77678
21
-4.2514
0
LINE
8
BLACK
6
CONTINUOUS
10
5.77678
20
-4.2514
11
5.77034
21
-4.25407
0
LINE
8
BLACK
6
CONTINUOUS
10
5.77034
20
-4.25407
11
5.76349
21
-4.25543
0
LINE
8
BLACK
6
CONTINUOUS
10
5.76349
20
-4.25543
11
5.75651
21
-4.25543
0
LINE
8
BLACK
6
CONTINUOUS
10
5.75651
20
-4.25543
11
5.74966
21
-4.25407
0
LINE
8
BLACK
6
CONTINUOUS
10
5.74966
20
-4.25407
11
5.74322
21
-4.2514
0
LINE
8
BLACK
6
CONTINUOUS
10
5.74322
20
-4.2514
11
5.73741
21
-4.24752
0
LINE
8
BLACK
6
CONTINUOUS
10
5.73741
20
-4.24752
11
5.73248
21
-4.24259
0
LINE
8
BLACK
6
CONTINUOUS
10
5.73248
20
-4.24259
11
5.7286
21
-4.23678
0
LINE
8
BLACK
6
CONTINUOUS
10
5.7286
20
-4.23678
11
5.72593
21
-4.23034
0
LINE
8
BLACK
6
CONTINUOUS
10
5.72593
20
-4.23034
11
5.72457
21
-4.22349
0
LINE
8
BLACK
6
CONTINUOUS
10
5.72457
20
-4.22349
11
5.72457
21
-4.21651
0
LINE
8
BLACK
6
CONTINUOUS
10
5.72457
20
-4.21651
11
5.72593
21
-4.20966
0
LINE
8
BLACK
6
CONTINUOUS
10
5.72593
20
-4.20966
11
5.7286
21
-4.20322
0
LINE
8
BLACK
6
CONTINUOUS
10
5.7286
20
-4.20322
11
5.73248
21
-4.19741
0
LINE
8
BLACK
6
CONTINUOUS
10
5.73248
20
-4.19741
11
5.73741
21
-4.19248
0
LINE
8
BLACK
6
CONTINUOUS
10
5.73741
20
-4.19248
11
5.74322
21
-4.1886
0
LINE
8
BLACK
6
CONTINUOUS
10
5.74322
20
-4.1886
11
5.74966
21
-4.18593
0
LINE
8
BLACK
6
CONTINUOUS
10
5.74966
20
-4.18593
11
5.75651
21
-4.18457
0
LINE
8
BLACK
6
CONTINUOUS
10
5.75651
20
-4.18457
11
5.76349
21
-4.18457
0
LINE
8
BLACK
6
CONTINUOUS
10
5.76349
20
-4.18457
11
5.77034
21
-4.18593
0
LINE
8
BLACK
6
CONTINUOUS
10
5.87034
20
-4.18593
11
5.87678
21
-4.1886
0
LINE
8
BLACK
6
CONTINUOUS
10
5.87678
20
-4.1886
11
5.88259
21
-4.19248
0
LINE
8
BLACK
6
CONTINUOUS
10
5.88259
20
-4.19248
11
5.88752
21
-4.19741
0
LINE
8
BLACK
6
CONTINUOUS
10
5.88752
20
-4.19741
11
5.8914
21
-4.20322
0
LINE
8
BLACK
6
CONTINUOUS
10
5.8914
20
-4.20322
11
5.89407
21
-4.20966
0
LINE
8
BLACK
6
CONTINUOUS
10
5.89407
20
-4.20966
11
5.89543
21
-4.21651
0
LINE
8
BLACK
6
CONTINUOUS
10
5.89543
20
-4.21651
11
5.89543
21
-4.22349
0
LINE
8
BLACK
6
CONTINUOUS
10
5.89543
20
-4.22349
11
5.89407
21
-4.23034
0
LINE
8
BLACK
6
CONTINUOUS
10
5.89407
20
-4.23034
11
5.8914
21
-4.23678
0
LINE
8
BLACK
6
CONTINUOUS
10
5.8914
20
-4.23678
11
5.88752
21
-4.24259
0
LINE
8
BLACK
6
CONTINUOUS
10
5.88752
20
-4.24259
11
5.88259
21
-4.24752
0
LINE
8
BLACK
6
CONTINUOUS
10
5.88259
20
-4.24752
11
5.87678
21
-4.2514
0
LINE
8
BLACK
6
CONTINUOUS
10
5.87678
20
-4.2514
11
5.87034
21
-4.25407
0
LINE
8
BLACK
6
CONTINUOUS
10
5.87034
20
-4.25407
11
5.86349
21
-4.25543
0
LINE
8
BLACK
6
CONTINUOUS
10
5.86349
20
-4.25543
11
5.85651
21
-4.25543
0
LINE
8
BLACK
6
CONTINUOUS
10
5.85651
20
-4.25543
11
5.84966
21
-4.25407
0
LINE
8
BLACK
6
CONTINUOUS
10
5.84966
20
-4.25407
11
5.84322
21
-4.2514
0
LINE
8
BLACK
6
CONTINUOUS
10
5.84322
20
-4.2514
11
5.83741
21
-4.24752
0
LINE
8
BLACK
6
CONTINUOUS
10
5.83741
20
-4.24752
11
5.83248
21
-4.24259
0
LINE
8
BLACK
6
CONTINUOUS
10
5.83248
20
-4.24259
11
5.8286
21
-4.23678
0
LINE
8
BLACK
6
CONTINUOUS
10
5.8286
20
-4.23678
11
5.82593
21
-4.23034
0
LINE
8
BLACK
6
CONTINUOUS
10
5.82593
20
-4.23034
11
5.82457
21
-4.22349
0
LINE
8
BLACK
6
CONTINUOUS
10
5.82457
20
-4.22349
11
5.82457
21
-4.21651
0
LINE
8
BLACK
6
CONTINUOUS
10
5.82457
20
-4.21651
11
5.82593
21
-4.20966
0
LINE
8
BLACK
6
CONTINUOUS
10
5.82593
20
-4.20966
11
5.8286
21
-4.20322
0
LINE
8
BLACK
6
CONTINUOUS
10
5.8286
20
-4.20322
11
5.83248
21
-4.19741
0
LINE
8
BLACK
6
CONTINUOUS
10
5.83248
20
-4.19741
11
5.83741
21
-4.19248
0
LINE
8
BLACK
6
CONTINUOUS
10
5.83741
20
-4.19248
11
5.84322
21
-4.1886
0
LINE
8
BLACK
6
CONTINUOUS
10
5.84322
20
-4.1886
11
5.84966
21
-4.18593
0
LINE
8
BLACK
6
CONTINUOUS
10
5.84966
20
-4.18593
11
5.85651
21
-4.18457
0
LINE
8
BLACK
6
CONTINUOUS
10
5.85651
20
-4.18457
11
5.86349
21
-4.18457
0
LINE
8
BLACK
6
CONTINUOUS
10
5.86349
20
-4.18457
11
5.87034
21
-4.18593
0
LINE
8
BLACK
6
CONTINUOUS
10
6.38427
20
-4.19099
11
6.38821
21
-4.19262
0
LINE
8
BLACK
6
CONTINUOUS
10
6.38821
20
-4.19262
11
6.39176
21
-4.19499
0
LINE
8
BLACK
6
CONTINUOUS
10
6.39176
20
-4.19499
11
6.39477
21
-4.19801
0
LINE
8
BLACK
6
CONTINUOUS
10
6.39477
20
-4.19801
11
6.39714
21
-4.20155
0
LINE
8
BLACK
6
CONTINUOUS
10
6.39714
20
-4.20155
11
6.39877
21
-4.20549
0
LINE
8
BLACK
6
CONTINUOUS
10
6.39877
20
-4.20549
11
6.39961
21
-4.20968
0
LINE
8
BLACK
6
CONTINUOUS
10
6.39961
20
-4.20968
11
6.39961
21
-4.21394
0
LINE
8
BLACK
6
CONTINUOUS
10
6.39961
20
-4.21394
11
6.39877
21
-4.21813
0
LINE
8
BLACK
6
CONTINUOUS
10
6.39877
20
-4.21813
11
6.39714
21
-4.22207
0
LINE
8
BLACK
6
CONTINUOUS
10
6.39714
20
-4.22207
11
6.39477
21
-4.22561
0
LINE
8
BLACK
6
CONTINUOUS
10
6.39477
20
-4.22561
11
6.39176
21
-4.22863
0
LINE
8
BLACK
6
CONTINUOUS
10
6.39176
20
-4.22863
11
6.38821
21
-4.231
0
LINE
8
BLACK
6
CONTINUOUS
10
6.38821
20
-4.231
11
6.38427
21
-4.23263
0
LINE
8
BLACK
6
CONTINUOUS
10
6.38427
20
-4.23263
11
6.38009
21
-4.23346
0
LINE
8
BLACK
6
CONTINUOUS
10
6.38009
20
-4.23346
11
6.37582
21
-4.23346
0
LINE
8
BLACK
6
CONTINUOUS
10
6.37582
20
-4.23346
11
6.37164
21
-4.23263
0
LINE
8
BLACK
6
CONTINUOUS
10
6.37164
20
-4.23263
11
6.3677
21
-4.231
0
LINE
8
BLACK
6
CONTINUOUS
10
6.3677
20
-4.231
11
6.36415
21
-4.22863
0
LINE
8
BLACK
6
CONTINUOUS
10
6.36415
20
-4.22863
11
6.36113
21
-4.22561
0
LINE
8
BLACK
6
CONTINUOUS
10
6.36113
20
-4.22561
11
6.35876
21
-4.22207
0
LINE
8
BLACK
6
CONTINUOUS
10
6.35876
20
-4.22207
11
6.35713
21
-4.21813
0
LINE
8
BLACK
6
CONTINUOUS
10
6.35713
20
-4.21813
11
6.3563
21
-4.21394
0
LINE
8
BLACK
6
CONTINUOUS
10
6.3563
20
-4.21394
11
6.3563
21
-4.20968
0
LINE
8
BLACK
6
CONTINUOUS
10
6.3563
20
-4.20968
11
6.35713
21
-4.20549
0
LINE
8
BLACK
6
CONTINUOUS
10
6.35713
20
-4.20549
11
6.35876
21
-4.20155
0
LINE
8
BLACK
6
CONTINUOUS
10
6.35876
20
-4.20155
11
6.36113
21
-4.19801
0
LINE
8
BLACK
6
CONTINUOUS
10
6.36113
20
-4.19801
11
6.36415
21
-4.19499
0
LINE
8
BLACK
6
CONTINUOUS
10
6.36415
20
-4.19499
11
6.3677
21
-4.19262
0
LINE
8
BLACK
6
CONTINUOUS
10
6.3677
20
-4.19262
11
6.37164
21
-4.19099
0
LINE
8
BLACK
6
CONTINUOUS
10
6.37164
20
-4.19099
11
6.37582
21
-4.19016
0
LINE
8
BLACK
6
CONTINUOUS
10
6.37582
20
-4.19016
11
6.38009
21
-4.19016
0
LINE
8
BLACK
6
CONTINUOUS
10
6.38009
20
-4.19016
11
6.38427
21
-4.19099
0
LINE
8
BLACK
6
CONTINUOUS
10
6.02994
20
-4.19099
11
6.03388
21
-4.19262
0
LINE
8
BLACK
6
CONTINUOUS
10
6.03388
20
-4.19262
11
6.03743
21
-4.19499
0
LINE
8
BLACK
6
CONTINUOUS
10
6.03743
20
-4.19499
11
6.04044
21
-4.19801
0
LINE
8
BLACK
6
CONTINUOUS
10
6.04044
20
-4.19801
11
6.04281
21
-4.20155
0
LINE
8
BLACK
6
CONTINUOUS
10
6.04281
20
-4.20155
11
6.04444
21
-4.20549
0
LINE
8
BLACK
6
CONTINUOUS
10
6.04444
20
-4.20549
11
6.04528
21
-4.20968
0
LINE
8
BLACK
6
CONTINUOUS
10
6.04528
20
-4.20968
11
6.04528
21
-4.21394
0
LINE
8
BLACK
6
CONTINUOUS
10
6.04528
20
-4.21394
11
6.04444
21
-4.21813
0
LINE
8
BLACK
6
CONTINUOUS
10
6.04444
20
-4.21813
11
6.04281
21
-4.22207
0
LINE
8
BLACK
6
CONTINUOUS
10
6.04281
20
-4.22207
11
6.04044
21
-4.22561
0
LINE
8
BLACK
6
CONTINUOUS
10
6.04044
20
-4.22561
11
6.03743
21
-4.22863
0
LINE
8
BLACK
6
CONTINUOUS
10
6.03743
20
-4.22863
11
6.03388
21
-4.231
0
LINE
8
BLACK
6
CONTINUOUS
10
6.03388
20
-4.231
11
6.02994
21
-4.23263
0
LINE
8
BLACK
6
CONTINUOUS
10
6.02994
20
-4.23263
11
6.02575
21
-4.23346
0
LINE
8
BLACK
6
CONTINUOUS
10
6.02575
20
-4.23346
11
6.02149
21
-4.23346
0
LINE
8
BLACK
6
CONTINUOUS
10
6.02149
20
-4.23346
11
6.01731
21
-4.23263
0
LINE
8
BLACK
6
CONTINUOUS
10
6.01731
20
-4.23263
11
6.01337
21
-4.231
0
LINE
8
BLACK
6
CONTINUOUS
10
6.01337
20
-4.231
11
6.00982
21
-4.22863
0
LINE
8
BLACK
6
CONTINUOUS
10
6.00982
20
-4.22863
11
6.0068
21
-4.22561
0
LINE
8
BLACK
6
CONTINUOUS
10
6.0068
20
-4.22561
11
6.00443
21
-4.22207
0
LINE
8
BLACK
6
CONTINUOUS
10
6.00443
20
-4.22207
11
6.0028
21
-4.21813
0
LINE
8
BLACK
6
CONTINUOUS
10
6.0028
20
-4.21813
11
6.00197
21
-4.21394
0
LINE
8
BLACK
6
CONTINUOUS
10
6.00197
20
-4.21394
11
6.00197
21
-4.20968
0
LINE
8
BLACK
6
CONTINUOUS
10
6.00197
20
-4.20968
11
6.0028
21
-4.20549
0
LINE
8
BLACK
6
CONTINUOUS
10
6.0028
20
-4.20549
11
6.00443
21
-4.20155
0
LINE
8
BLACK
6
CONTINUOUS
10
6.00443
20
-4.20155
11
6.0068
21
-4.19801
0
LINE
8
BLACK
6
CONTINUOUS
10
6.0068
20
-4.19801
11
6.00982
21
-4.19499
0
LINE
8
BLACK
6
CONTINUOUS
10
6.00982
20
-4.19499
11
6.01337
21
-4.19262
0
LINE
8
BLACK
6
CONTINUOUS
10
6.01337
20
-4.19262
11
6.01731
21
-4.19099
0
LINE
8
BLACK
6
CONTINUOUS
10
6.01731
20
-4.19099
11
6.02149
21
-4.19016
0
LINE
8
BLACK
6
CONTINUOUS
10
6.02149
20
-4.19016
11
6.02575
21
-4.19016
0
LINE
8
BLACK
6
CONTINUOUS
10
6.02575
20
-4.19016
11
6.02994
21
-4.19099
0
LINE
8
BLACK
6
CONTINUOUS
10
5.67034
20
-4.08593
11
5.67678
21
-4.0886
0
LINE
8
BLACK
6
CONTINUOUS
10
5.67678
20
-4.0886
11
5.68259
21
-4.09248
0
LINE
8
BLACK
6
CONTINUOUS
10
5.68259
20
-4.09248
11
5.68752
21
-4.09741
0
LINE
8
BLACK
6
CONTINUOUS
10
5.68752
20
-4.09741
11
5.6914
21
-4.10322
0
LINE
8
BLACK
6
CONTINUOUS
10
5.6914
20
-4.10322
11
5.69407
21
-4.10966
0
LINE
8
BLACK
6
CONTINUOUS
10
5.69407
20
-4.10966
11
5.69543
21
-4.11651
0
LINE
8
BLACK
6
CONTINUOUS
10
5.69543
20
-4.11651
11
5.69543
21
-4.12349
0
LINE
8
BLACK
6
CONTINUOUS
10
5.69543
20
-4.12349
11
5.69407
21
-4.13034
0
LINE
8
BLACK
6
CONTINUOUS
10
5.69407
20
-4.13034
11
5.6914
21
-4.13678
0
LINE
8
BLACK
6
CONTINUOUS
10
5.6914
20
-4.13678
11
5.68752
21
-4.14259
0
LINE
8
BLACK
6
CONTINUOUS
10
5.68752
20
-4.14259
11
5.68259
21
-4.14752
0
LINE
8
BLACK
6
CONTINUOUS
10
5.68259
20
-4.14752
11
5.67678
21
-4.1514
0
LINE
8
BLACK
6
CONTINUOUS
10
5.67678
20
-4.1514
11
5.67034
21
-4.15407
0
LINE
8
BLACK
6
CONTINUOUS
10
5.67034
20
-4.15407
11
5.66349
21
-4.15543
0
LINE
8
BLACK
6
CONTINUOUS
10
5.66349
20
-4.15543
11
5.65651
21
-4.15543
0
LINE
8
BLACK
6
CONTINUOUS
10
5.65651
20
-4.15543
11
5.64966
21
-4.15407
0
LINE
8
BLACK
6
CONTINUOUS
10
5.64966
20
-4.15407
11
5.64322
21
-4.1514
0
LINE
8
BLACK
6
CONTINUOUS
10
5.64322
20
-4.1514
11
5.63741
21
-4.14752
0
LINE
8
BLACK
6
CONTINUOUS
10
5.63741
20
-4.14752
11
5.63248
21
-4.14259
0
LINE
8
BLACK
6
CONTINUOUS
10
5.63248
20
-4.14259
11
5.6286
21
-4.13678
0
LINE
8
BLACK
6
CONTINUOUS
10
5.6286
20
-4.13678
11
5.62593
21
-4.13034
0
LINE
8
BLACK
6
CONTINUOUS
10
5.62593
20
-4.13034
11
5.62457
21
-4.12349
0
LINE
8
BLACK
6
CONTINUOUS
10
5.62457
20
-4.12349
11
5.62457
21
-4.11651
0
LINE
8
BLACK
6
CONTINUOUS
10
5.62457
20
-4.11651
11
5.62593
21
-4.10966
0
LINE
8
BLACK
6
CONTINUOUS
10
5.62593
20
-4.10966
11
5.6286
21
-4.10322
0
LINE
8
BLACK
6
CONTINUOUS
10
5.6286
20
-4.10322
11
5.63248
21
-4.09741
0
LINE
8
BLACK
6
CONTINUOUS
10
5.63248
20
-4.09741
11
5.63741
21
-4.09248
0
LINE
8
BLACK
6
CONTINUOUS
10
5.63741
20
-4.09248
11
5.64322
21
-4.0886
0
LINE
8
BLACK
6
CONTINUOUS
10
5.64322
20
-4.0886
11
5.64966
21
-4.08593
0
LINE
8
BLACK
6
CONTINUOUS
10
5.64966
20
-4.08593
11
5.65651
21
-4.08457
0
LINE
8
BLACK
6
CONTINUOUS
10
5.65651
20
-4.08457
11
5.66349
21
-4.08457
0
LINE
8
BLACK
6
CONTINUOUS
10
5.66349
20
-4.08457
11
5.67034
21
-4.08593
0
LINE
8
BLACK
6
CONTINUOUS
10
5.77034
20
-4.08593
11
5.77678
21
-4.0886
0
LINE
8
BLACK
6
CONTINUOUS
10
5.77678
20
-4.0886
11
5.78259
21
-4.09248
0
LINE
8
BLACK
6
CONTINUOUS
10
5.78259
20
-4.09248
11
5.78752
21
-4.09741
0
LINE
8
BLACK
6
CONTINUOUS
10
5.78752
20
-4.09741
11
5.7914
21
-4.10322
0
LINE
8
BLACK
6
CONTINUOUS
10
5.7914
20
-4.10322
11
5.79407
21
-4.10966
0
LINE
8
BLACK
6
CONTINUOUS
10
5.79407
20
-4.10966
11
5.79543
21
-4.11651
0
LINE
8
BLACK
6
CONTINUOUS
10
5.79543
20
-4.11651
11
5.79543
21
-4.12349
0
LINE
8
BLACK
6
CONTINUOUS
10
5.79543
20
-4.12349
11
5.79407
21
-4.13034
0
LINE
8
BLACK
6
CONTINUOUS
10
5.79407
20
-4.13034
11
5.7914
21
-4.13678
0
LINE
8
BLACK
6
CONTINUOUS
10
5.7914
20
-4.13678
11
5.78752
21
-4.14259
0
LINE
8
BLACK
6
CONTINUOUS
10
5.78752
20
-4.14259
11
5.78259
21
-4.14752
0
LINE
8
BLACK
6
CONTINUOUS
10
5.78259
20
-4.14752
11
5.77678
21
-4.1514
0
LINE
8
BLACK
6
CONTINUOUS
10
5.77678
20
-4.1514
11
5.77034
21
-4.15407
0
LINE
8
BLACK
6
CONTINUOUS
10
5.77034
20
-4.15407
11
5.76349
21
-4.15543
0
LINE
8
BLACK
6
CONTINUOUS
10
5.76349
20
-4.15543
11
5.75651
21
-4.15543
0
LINE
8
BLACK
6
CONTINUOUS
10
5.75651
20
-4.15543
11
5.74966
21
-4.15407
0
LINE
8
BLACK
6
CONTINUOUS
10
5.74966
20
-4.15407
11
5.74322
21
-4.1514
0
LINE
8
BLACK
6
CONTINUOUS
10
5.74322
20
-4.1514
11
5.73741
21
-4.14752
0
LINE
8
BLACK
6
CONTINUOUS
10
5.73741
20
-4.14752
11
5.73248
21
-4.14259
0
LINE
8
BLACK
6
CONTINUOUS
10
5.73248
20
-4.14259
11
5.7286
21
-4.13678
0
LINE
8
BLACK
6
CONTINUOUS
10
5.7286
20
-4.13678
11
5.72593
21
-4.13034
0
LINE
8
BLACK
6
CONTINUOUS
10
5.72593
20
-4.13034
11
5.72457
21
-4.12349
0
LINE
8
BLACK
6
CONTINUOUS
10
5.72457
20
-4.12349
11
5.72457
21
-4.11651
0
LINE
8
BLACK
6
CONTINUOUS
10
5.72457
20
-4.11651
11
5.72593
21
-4.10966
0
LINE
8
BLACK
6
CONTINUOUS
10
5.72593
20
-4.10966
11
5.7286
21
-4.10322
0
LINE
8
BLACK
6
CONTINUOUS
10
5.7286
20
-4.10322
11
5.73248
21
-4.09741
0
LINE
8
BLACK
6
CONTINUOUS
10
5.73248
20
-4.09741
11
5.73741
21
-4.09248
0
LINE
8
BLACK
6
CONTINUOUS
10
5.73741
20
-4.09248
11
5.74322
21
-4.0886
0
LINE
8
BLACK
6
CONTINUOUS
10
5.74322
20
-4.0886
11
5.74966
21
-4.08593
0
LINE
8
BLACK
6
CONTINUOUS
10
5.74966
20
-4.08593
11
5.75651
21
-4.08457
0
LINE
8
BLACK
6
CONTINUOUS
10
5.75651
20
-4.08457
11
5.76349
21
-4.08457
0
LINE
8
BLACK
6
CONTINUOUS
10
5.76349
20
-4.08457
11
5.77034
21
-4.08593
0
LINE
8
BLACK
6
CONTINUOUS
10
5.89543
20
-4.15543
11
5.82457
21
-4.15543
0
LINE
8
BLACK
6
CONTINUOUS
10
5.82457
20
-4.15543
11
5.82457
21
-4.08457
0
LINE
8
BLACK
6
CONTINUOUS
10
5.82457
20
-4.08457
11
5.89543
21
-4.08457
0
LINE
8
BLACK
6
CONTINUOUS
10
5.89543
20
-4.08457
11
5.89543
21
-4.15543
0
LINE
8
BLACK
6
CONTINUOUS
10
5.74577
20
-3.93916
11
5.75222
21
-3.94183
0
LINE
8
BLACK
6
CONTINUOUS
10
5.75222
20
-3.94183
11
5.75802
21
-3.94571
0
LINE
8
BLACK
6
CONTINUOUS
10
5.75802
20
-3.94571
11
5.76296
21
-3.95064
0
LINE
8
BLACK
6
CONTINUOUS
10
5.76296
20
-3.95064
11
5.76683
21
-3.95644
0
LINE
8
BLACK
6
CONTINUOUS
10
5.76683
20
-3.95644
11
5.7695
21
-3.96289
0
LINE
8
BLACK
6
CONTINUOUS
10
5.7695
20
-3.96289
11
5.77087
21
-3.96974
0
LINE
8
BLACK
6
CONTINUOUS
10
5.77087
20
-3.96974
11
5.77087
21
-3.97672
0
LINE
8
BLACK
6
CONTINUOUS
10
5.77087
20
-3.97672
11
5.7695
21
-3.98356
0
LINE
8
BLACK
6
CONTINUOUS
10
5.7695
20
-3.98356
11
5.76683
21
-3.99001
0
LINE
8
BLACK
6
CONTINUOUS
10
5.76683
20
-3.99001
11
5.76296
21
-3.99582
0
LINE
8
BLACK
6
CONTINUOUS
10
5.76296
20
-3.99582
11
5.75802
21
-4.00075
0
LINE
8
BLACK
6
CONTINUOUS
10
5.75802
20
-4.00075
11
5.75222
21
-4.00463
0
LINE
8
BLACK
6
CONTINUOUS
10
5.75222
20
-4.00463
11
5.74577
21
-4.0073
0
LINE
8
BLACK
6
CONTINUOUS
10
5.74577
20
-4.0073
11
5.73892
21
-4.00866
0
LINE
8
BLACK
6
CONTINUOUS
10
5.73892
20
-4.00866
11
5.73194
21
-4.00866
0
LINE
8
BLACK
6
CONTINUOUS
10
5.73194
20
-4.00866
11
5.7251
21
-4.0073
0
LINE
8
BLACK
6
CONTINUOUS
10
5.7251
20
-4.0073
11
5.71865
21
-4.00463
0
LINE
8
BLACK
6
CONTINUOUS
10
5.71865
20
-4.00463
11
5.71285
21
-4.00075
0
LINE
8
BLACK
6
CONTINUOUS
10
5.71285
20
-4.00075
11
5.70791
21
-3.99582
0
LINE
8
BLACK
6
CONTINUOUS
10
5.70791
20
-3.99582
11
5.70403
21
-3.99001
0
LINE
8
BLACK
6
CONTINUOUS
10
5.70403
20
-3.99001
11
5.70136
21
-3.98356
0
LINE
8
BLACK
6
CONTINUOUS
10
5.70136
20
-3.98356
11
5.7
21
-3.97672
0
LINE
8
BLACK
6
CONTINUOUS
10
5.7
20
-3.97672
11
5.7
21
-3.96974
0
LINE
8
BLACK
6
CONTINUOUS
10
5.7
20
-3.96974
11
5.70136
21
-3.96289
0
LINE
8
BLACK
6
CONTINUOUS
10
5.70136
20
-3.96289
11
5.70403
21
-3.95644
0
LINE
8
BLACK
6
CONTINUOUS
10
5.70403
20
-3.95644
11
5.70791
21
-3.95064
0
LINE
8
BLACK
6
CONTINUOUS
10
5.70791
20
-3.95064
11
5.71285
21
-3.94571
0
LINE
8
BLACK
6
CONTINUOUS
10
5.71285
20
-3.94571
11
5.71865
21
-3.94183
0
LINE
8
BLACK
6
CONTINUOUS
10
5.71865
20
-3.94183
11
5.7251
21
-3.93916
0
LINE
8
BLACK
6
CONTINUOUS
10
5.7251
20
-3.93916
11
5.73194
21
-3.9378
0
LINE
8
BLACK
6
CONTINUOUS
10
5.73194
20
-3.9378
11
5.73892
21
-3.9378
0
LINE
8
BLACK
6
CONTINUOUS
10
5.73892
20
-3.9378
11
5.74577
21
-3.93916
0
LINE
8
BLACK
6
CONTINUOUS
10
5.84577
20
-3.93916
11
5.85222
21
-3.94183
0
LINE
8
BLACK
6
CONTINUOUS
10
5.85222
20
-3.94183
11
5.85802
21
-3.94571
0
LINE
8
BLACK
6
CONTINUOUS
10
5.85802
20
-3.94571
11
5.86296
21
-3.95064
0
LINE
8
BLACK
6
CONTINUOUS
10
5.86296
20
-3.95064
11
5.86683
21
-3.95644
0
LINE
8
BLACK
6
CONTINUOUS
10
5.86683
20
-3.95644
11
5.8695
21
-3.96289
0
LINE
8
BLACK
6
CONTINUOUS
10
5.8695
20
-3.96289
11
5.87087
21
-3.96974
0
LINE
8
BLACK
6
CONTINUOUS
10
5.87087
20
-3.96974
11
5.87087
21
-3.97672
0
LINE
8
BLACK
6
CONTINUOUS
10
5.87087
20
-3.97672
11
5.8695
21
-3.98356
0
LINE
8
BLACK
6
CONTINUOUS
10
5.8695
20
-3.98356
11
5.86683
21
-3.99001
0
LINE
8
BLACK
6
CONTINUOUS
10
5.86683
20
-3.99001
11
5.86296
21
-3.99582
0
LINE
8
BLACK
6
CONTINUOUS
10
5.86296
20
-3.99582
11
5.85802
21
-4.00075
0
LINE
8
BLACK
6
CONTINUOUS
10
5.85802
20
-4.00075
11
5.85222
21
-4.00463
0
LINE
8
BLACK
6
CONTINUOUS
10
5.85222
20
-4.00463
11
5.84577
21
-4.0073
0
LINE
8
BLACK
6
CONTINUOUS
10
5.84577
20
-4.0073
11
5.83892
21
-4.00866
0
LINE
8
BLACK
6
CONTINUOUS
10
5.83892
20
-4.00866
11
5.83194
21
-4.00866
0
LINE
8
BLACK
6
CONTINUOUS
10
5.83194
20
-4.00866
11
5.8251
21
-4.0073
0
LINE
8
BLACK
6
CONTINUOUS
10
5.8251
20
-4.0073
11
5.81865
21
-4.00463
0
LINE
8
BLACK
6
CONTINUOUS
10
5.81865
20
-4.00463
11
5.81285
21
-4.00075
0
LINE
8
BLACK
6
CONTINUOUS
10
5.81285
20
-4.00075
11
5.80791
21
-3.99582
0
LINE
8
BLACK
6
CONTINUOUS
10
5.80791
20
-3.99582
11
5.80403
21
-3.99001
0
LINE
8
BLACK
6
CONTINUOUS
10
5.80403
20
-3.99001
11
5.80136
21
-3.98356
0
LINE
8
BLACK
6
CONTINUOUS
10
5.80136
20
-3.98356
11
5.8
21
-3.97672
0
LINE
8
BLACK
6
CONTINUOUS
10
5.8
20
-3.97672
11
5.8
21
-3.96974
0
LINE
8
BLACK
6
CONTINUOUS
10
5.8
20
-3.96974
11
5.80136
21
-3.96289
0
LINE
8
BLACK
6
CONTINUOUS
10
5.80136
20
-3.96289
11
5.80403
21
-3.95644
0
LINE
8
BLACK
6
CONTINUOUS
10
5.80403
20
-3.95644
11
5.80791
21
-3.95064
0
LINE
8
BLACK
6
CONTINUOUS
10
5.80791
20
-3.95064
11
5.81285
21
-3.94571
0
LINE
8
BLACK
6
CONTINUOUS
10
5.81285
20
-3.94571
11
5.81865
21
-3.94183
0
LINE
8
BLACK
6
CONTINUOUS
10
5.81865
20
-3.94183
11
5.8251
21
-3.93916
0
LINE
8
BLACK
6
CONTINUOUS
10
5.8251
20
-3.93916
11
5.83194
21
-3.9378
0
LINE
8
BLACK
6
CONTINUOUS
10
5.83194
20
-3.9378
11
5.83892
21
-3.9378
0
LINE
8
BLACK
6
CONTINUOUS
10
5.83892
20
-3.9378
11
5.84577
21
-3.93916
0
LINE
8
BLACK
6
CONTINUOUS
10
5.94577
20
-3.93916
11
5.95222
21
-3.94183
0
LINE
8
BLACK
6
CONTINUOUS
10
5.95222
20
-3.94183
11
5.95802
21
-3.94571
0
LINE
8
BLACK
6
CONTINUOUS
10
5.95802
20
-3.94571
11
5.96296
21
-3.95064
0
LINE
8
BLACK
6
CONTINUOUS
10
5.96296
20
-3.95064
11
5.96683
21
-3.95644
0
LINE
8
BLACK
6
CONTINUOUS
10
5.96683
20
-3.95644
11
5.9695
21
-3.96289
0
LINE
8
BLACK
6
CONTINUOUS
10
5.9695
20
-3.96289
11
5.97087
21
-3.96974
0
LINE
8
BLACK
6
CONTINUOUS
10
5.97087
20
-3.96974
11
5.97087
21
-3.97672
0
LINE
8
BLACK
6
CONTINUOUS
10
5.97087
20
-3.97672
11
5.9695
21
-3.98356
0
LINE
8
BLACK
6
CONTINUOUS
10
5.9695
20
-3.98356
11
5.96683
21
-3.99001
0
LINE
8
BLACK
6
CONTINUOUS
10
5.96683
20
-3.99001
11
5.96296
21
-3.99582
0
LINE
8
BLACK
6
CONTINUOUS
10
5.96296
20
-3.99582
11
5.95802
21
-4.00075
0
LINE
8
BLACK
6
CONTINUOUS
10
5.95802
20
-4.00075
11
5.95222
21
-4.00463
0
LINE
8
BLACK
6
CONTINUOUS
10
5.95222
20
-4.00463
11
5.94577
21
-4.0073
0
LINE
8
BLACK
6
CONTINUOUS
10
5.94577
20
-4.0073
11
5.93892
21
-4.00866
0
LINE
8
BLACK
6
CONTINUOUS
10
5.93892
20
-4.00866
11
5.93194
21
-4.00866
0
LINE
8
BLACK
6
CONTINUOUS
10
5.93194
20
-4.00866
11
5.9251
21
-4.0073
0
LINE
8
BLACK
6
CONTINUOUS
10
5.9251
20
-4.0073
11
5.91865
21
-4.00463
0
LINE
8
BLACK
6
CONTINUOUS
10
5.91865
20
-4.00463
11
5.91285
21
-4.00075
0
LINE
8
BLACK
6
CONTINUOUS
10
5.91285
20
-4.00075
11
5.90791
21
-3.99582
0
LINE
8
BLACK
6
CONTINUOUS
10
5.90791
20
-3.99582
11
5.90403
21
-3.99001
0
LINE
8
BLACK
6
CONTINUOUS
10
5.90403
20
-3.99001
11
5.90136
21
-3.98356
0
LINE
8
BLACK
6
CONTINUOUS
10
5.90136
20
-3.98356
11
5.9
21
-3.97672
0
LINE
8
BLACK
6
CONTINUOUS
10
5.9
20
-3.97672
11
5.9
21
-3.96974
0
LINE
8
BLACK
6
CONTINUOUS
10
5.9
20
-3.96974
11
5.90136
21
-3.96289
0
LINE
8
BLACK
6
CONTINUOUS
10
5.90136
20
-3.96289
11
5.90403
21
-3.95644
0
LINE
8
BLACK
6
CONTINUOUS
10
5.90403
20
-3.95644
11
5.90791
21
-3.95064
0
LINE
8
BLACK
6
CONTINUOUS
10
5.90791
20
-3.95064
11
5.91285
21
-3.94571
0
LINE
8
BLACK
6
CONTINUOUS
10
5.91285
20
-3.94571
11
5.91865
21
-3.94183
0
LINE
8
BLACK
6
CONTINUOUS
10
5.91865
20
-3.94183
11
5.9251
21
-3.93916
0
LINE
8
BLACK
6
CONTINUOUS
10
5.9251
20
-3.93916
11
5.93194
21
-3.9378
0
LINE
8
BLACK
6
CONTINUOUS
10
5.93194
20
-3.9378
11
5.93892
21
-3.9378
0
LINE
8
BLACK
6
CONTINUOUS
10
5.93892
20
-3.9378
11
5.94577
21
-3.93916
0
LINE
8
BLACK
6
CONTINUOUS
10
6.04577
20
-3.93916
11
6.05222
21
-3.94183
0
LINE
8
BLACK
6
CONTINUOUS
10
6.05222
20
-3.94183
11
6.05802
21
-3.94571
0
LINE
8
BLACK
6
CONTINUOUS
10
6.05802
20
-3.94571
11
6.06296
21
-3.95064
0
LINE
8
BLACK
6
CONTINUOUS
10
6.06296
20
-3.95064
11
6.06683
21
-3.95644
0
LINE
8
BLACK
6
CONTINUOUS
10
6.06683
20
-3.95644
11
6.0695
21
-3.96289
0
LINE
8
BLACK
6
CONTINUOUS
10
6.0695
20
-3.96289
11
6.07087
21
-3.96974
0
LINE
8
BLACK
6
CONTINUOUS
10
6.07087
20
-3.96974
11
6.07087
21
-3.97672
0
LINE
8
BLACK
6
CONTINUOUS
10
6.07087
20
-3.97672
11
6.0695
21
-3.98356
0
LINE
8
BLACK
6
CONTINUOUS
10
6.0695
20
-3.98356
11
6.06683
21
-3.99001
0
LINE
8
BLACK
6
CONTINUOUS
10
6.06683
20
-3.99001
11
6.06296
21
-3.99582
0
LINE
8
BLACK
6
CONTINUOUS
10
6.06296
20
-3.99582
11
6.05802
21
-4.00075
0
LINE
8
BLACK
6
CONTINUOUS
10
6.05802
20
-4.00075
11
6.05222
21
-4.00463
0
LINE
8
BLACK
6
CONTINUOUS
10
6.05222
20
-4.00463
11
6.04577
21
-4.0073
0
LINE
8
BLACK
6
CONTINUOUS
10
6.04577
20
-4.0073
11
6.03892
21
-4.00866
0
LINE
8
BLACK
6
CONTINUOUS
10
6.03892
20
-4.00866
11
6.03194
21
-4.00866
0
LINE
8
BLACK
6
CONTINUOUS
10
6.03194
20
-4.00866
11
6.0251
21
-4.0073
0
LINE
8
BLACK
6
CONTINUOUS
10
6.0251
20
-4.0073
11
6.01865
21
-4.00463
0
LINE
8
BLACK
6
CONTINUOUS
10
6.01865
20
-4.00463
11
6.01285
21
-4.00075
0
LINE
8
BLACK
6
CONTINUOUS
10
6.01285
20
-4.00075
11
6.00791
21
-3.99582
0
LINE
8
BLACK
6
CONTINUOUS
10
6.00791
20
-3.99582
11
6.00403
21
-3.99001
0
LINE
8
BLACK
6
CONTINUOUS
10
6.00403
20
-3.99001
11
6.00136
21
-3.98356
0
LINE
8
BLACK
6
CONTINUOUS
10
6.00136
20
-3.98356
11
6
21
-3.97672
0
LINE
8
BLACK
6
CONTINUOUS
10
6
20
-3.97672
11
6
21
-3.96974
0
LINE
8
BLACK
6
CONTINUOUS
10
6
20
-3.96974
11
6.00136
21
-3.96289
0
LINE
8
BLACK
6
CONTINUOUS
10
6.00136
20
-3.96289
11
6.00403
21
-3.95644
0
LINE
8
BLACK
6
CONTINUOUS
10
6.00403
20
-3.95644
11
6.00791
21
-3.95064
0
LINE
8
BLACK
6
CONTINUOUS
10
6.00791
20
-3.95064
11
6.01285
21
-3.94571
0
LINE
8
BLACK
6
CONTINUOUS
10
6.01285
20
-3.94571
11
6.01865
21
-3.94183
0
LINE
8
BLACK
6
CONTINUOUS
10
6.01865
20
-3.94183
11
6.0251
21
-3.93916
0
LINE
8
BLACK
6
CONTINUOUS
10
6.0251
20
-3.93916
11
6.03194
21
-3.9378
0
LINE
8
BLACK
6
CONTINUOUS
10
6.03194
20
-3.9378
11
6.03892
21
-3.9378
0
LINE
8
BLACK
6
CONTINUOUS
10
6.03892
20
-3.9378
11
6.04577
21
-3.93916
0
LINE
8
BLACK
6
CONTINUOUS
10
6.14577
20
-3.93916
11
6.15222
21
-3.94183
0
LINE
8
BLACK
6
CONTINUOUS
10
6.15222
20
-3.94183
11
6.15802
21
-3.94571
0
LINE
8
BLACK
6
CONTINUOUS
10
6.15802
20
-3.94571
11
6.16296
21
-3.95064
0
LINE
8
BLACK
6
CONTINUOUS
10
6.16296
20
-3.95064
11
6.16683
21
-3.95644
0
LINE
8
BLACK
6
CONTINUOUS
10
6.16683
20
-3.95644
11
6.1695
21
-3.96289
0
LINE
8
BLACK
6
CONTINUOUS
10
6.1695
20
-3.96289
11
6.17087
21
-3.96974
0
LINE
8
BLACK
6
CONTINUOUS
10
6.17087
20
-3.96974
11
6.17087
21
-3.97672
0
LINE
8
BLACK
6
CONTINUOUS
10
6.17087
20
-3.97672
11
6.1695
21
-3.98356
0
LINE
8
BLACK
6
CONTINUOUS
10
6.1695
20
-3.98356
11
6.16683
21
-3.99001
0
LINE
8
BLACK
6
CONTINUOUS
10
6.16683
20
-3.99001
11
6.16296
21
-3.99582
0
LINE
8
BLACK
6
CONTINUOUS
10
6.16296
20
-3.99582
11
6.15802
21
-4.00075
0
LINE
8
BLACK
6
CONTINUOUS
10
6.15802
20
-4.00075
11
6.15222
21
-4.00463
0
LINE
8
BLACK
6
CONTINUOUS
10
6.15222
20
-4.00463
11
6.14577
21
-4.0073
0
LINE
8
BLACK
6
CONTINUOUS
10
6.14577
20
-4.0073
11
6.13892
21
-4.00866
0
LINE
8
BLACK
6
CONTINUOUS
10
6.13892
20
-4.00866
11
6.13194
21
-4.00866
0
LINE
8
BLACK
6
CONTINUOUS
10
6.13194
20
-4.00866
11
6.1251
21
-4.0073
0
LINE
8
BLACK
6
CONTINUOUS
10
6.1251
20
-4.0073
11
6.11865
21
-4.00463
0
LINE
8
BLACK
6
CONTINUOUS
10
6.11865
20
-4.00463
11
6.11285
21
-4.00075
0
LINE
8
BLACK
6
CONTINUOUS
10
6.11285
20
-4.00075
11
6.10791
21
-3.99582
0
LINE
8
BLACK
6
CONTINUOUS
10
6.10791
20
-3.99582
11
6.10403
21
-3.99001
0
LINE
8
BLACK
6
CONTINUOUS
10
6.10403
20
-3.99001
11
6.10136
21
-3.98356
0
LINE
8
BLACK
6
CONTINUOUS
10
6.10136
20
-3.98356
11
6.1
21
-3.97672
0
LINE
8
BLACK
6
CONTINUOUS
10
6.1
20
-3.97672
11
6.1
21
-3.96974
0
LINE
8
BLACK
6
CONTINUOUS
10
6.1
20
-3.96974
11
6.10136
21
-3.96289
0
LINE
8
BLACK
6
CONTINUOUS
10
6.10136
20
-3.96289
11
6.10403
21
-3.95644
0
LINE
8
BLACK
6
CONTINUOUS
10
6.10403
20
-3.95644
11
6.10791
21
-3.95064
0
LINE
8
BLACK
6
CONTINUOUS
10
6.10791
20
-3.95064
11
6.11285
21
-3.94571
0
LINE
8
BLACK
6
CONTINUOUS
10
6.11285
20
-3.94571
11
6.11865
21
-3.94183
0
LINE
8
BLACK
6
CONTINUOUS
10
6.11865
20
-3.94183
11
6.1251
21
-3.93916
0
LINE
8
BLACK
6
CONTINUOUS
10
6.1251
20
-3.93916
11
6.13194
21
-3.9378
0
LINE
8
BLACK
6
CONTINUOUS
10
6.13194
20
-3.9378
11
6.13892
21
-3.9378
0
LINE
8
BLACK
6
CONTINUOUS
10
6.13892
20
-3.9378
11
6.14577
21
-3.93916
0
LINE
8
BLACK
6
CONTINUOUS
10
6.24577
20
-3.93916
11
6.25222
21
-3.94183
0
LINE
8
BLACK
6
CONTINUOUS
10
6.25222
20
-3.94183
11
6.25802
21
-3.94571
0
LINE
8
BLACK
6
CONTINUOUS
10
6.25802
20
-3.94571
11
6.26296
21
-3.95064
0
LINE
8
BLACK
6
CONTINUOUS
10
6.26296
20
-3.95064
11
6.26683
21
-3.95644
0
LINE
8
BLACK
6
CONTINUOUS
10
6.26683
20
-3.95644
11
6.2695
21
-3.96289
0
LINE
8
BLACK
6
CONTINUOUS
10
6.2695
20
-3.96289
11
6.27087
21
-3.96974
0
LINE
8
BLACK
6
CONTINUOUS
10
6.27087
20
-3.96974
11
6.27087
21
-3.97672
0
LINE
8
BLACK
6
CONTINUOUS
10
6.27087
20
-3.97672
11
6.2695
21
-3.98356
0
LINE
8
BLACK
6
CONTINUOUS
10
6.2695
20
-3.98356
11
6.26683
21
-3.99001
0
LINE
8
BLACK
6
CONTINUOUS
10
6.26683
20
-3.99001
11
6.26296
21
-3.99582
0
LINE
8
BLACK
6
CONTINUOUS
10
6.26296
20
-3.99582
11
6.25802
21
-4.00075
0
LINE
8
BLACK
6
CONTINUOUS
10
6.25802
20
-4.00075
11
6.25222
21
-4.00463
0
LINE
8
BLACK
6
CONTINUOUS
10
6.25222
20
-4.00463
11
6.24577
21
-4.0073
0
LINE
8
BLACK
6
CONTINUOUS
10
6.24577
20
-4.0073
11
6.23892
21
-4.00866
0
LINE
8
BLACK
6
CONTINUOUS
10
6.23892
20
-4.00866
11
6.23194
21
-4.00866
0
LINE
8
BLACK
6
CONTINUOUS
10
6.23194
20
-4.00866
11
6.2251
21
-4.0073
0
LINE
8
BLACK
6
CONTINUOUS
10
6.2251
20
-4.0073
11
6.21865
21
-4.00463
0
LINE
8
BLACK
6
CONTINUOUS
10
6.21865
20
-4.00463
11
6.21285
21
-4.00075
0
LINE
8
BLACK
6
CONTINUOUS
10
6.21285
20
-4.00075
11
6.20791
21
-3.99582
0
LINE
8
BLACK
6
CONTINUOUS
10
6.20791
20
-3.99582
11
6.20403
21
-3.99001
0
LINE
8
BLACK
6
CONTINUOUS
10
6.20403
20
-3.99001
11
6.20136
21
-3.98356
0
LINE
8
BLACK
6
CONTINUOUS
10
6.20136
20
-3.98356
11
6.2
21
-3.97672
0
LINE
8
BLACK
6
CONTINUOUS
10
6.2
20
-3.97672
11
6.2
21
-3.96974
0
LINE
8
BLACK
6
CONTINUOUS
10
6.2
20
-3.96974
11
6.20136
21
-3.96289
0
LINE
8
BLACK
6
CONTINUOUS
10
6.20136
20
-3.96289
11
6.20403
21
-3.95644
0
LINE
8
BLACK
6
CONTINUOUS
10
6.20403
20
-3.95644
11
6.20791
21
-3.95064
0
LINE
8
BLACK
6
CONTINUOUS
10
6.20791
20
-3.95064
11
6.21285
21
-3.94571
0
LINE
8
BLACK
6
CONTINUOUS
10
6.21285
20
-3.94571
11
6.21865
21
-3.94183
0
LINE
8
BLACK
6
CONTINUOUS
10
6.21865
20
-3.94183
11
6.2251
21
-3.93916
0
LINE
8
BLACK
6
CONTINUOUS
10
6.2251
20
-3.93916
11
6.23194
21
-3.9378
0
LINE
8
BLACK
6
CONTINUOUS
10
6.23194
20
-3.9378
11
6.23892
21
-3.9378
0
LINE
8
BLACK
6
CONTINUOUS
10
6.23892
20
-3.9378
11
6.24577
21
-3.93916
0
LINE
8
BLACK
6
CONTINUOUS
10
6.34577
20
-3.93916
11
6.35222
21
-3.94183
0
LINE
8
BLACK
6
CONTINUOUS
10
6.35222
20
-3.94183
11
6.35802
21
-3.94571
0
LINE
8
BLACK
6
CONTINUOUS
10
6.35802
20
-3.94571
11
6.36296
21
-3.95064
0
LINE
8
BLACK
6
CONTINUOUS
10
6.36296
20
-3.95064
11
6.36683
21
-3.95644
0
LINE
8
BLACK
6
CONTINUOUS
10
6.36683
20
-3.95644
11
6.3695
21
-3.96289
0
LINE
8
BLACK
6
CONTINUOUS
10
6.3695
20
-3.96289
11
6.37087
21
-3.96974
0
LINE
8
BLACK
6
CONTINUOUS
10
6.37087
20
-3.96974
11
6.37087
21
-3.97672
0
LINE
8
BLACK
6
CONTINUOUS
10
6.37087
20
-3.97672
11
6.3695
21
-3.98356
0
LINE
8
BLACK
6
CONTINUOUS
10
6.3695
20
-3.98356
11
6.36683
21
-3.99001
0
LINE
8
BLACK
6
CONTINUOUS
10
6.36683
20
-3.99001
11
6.36296
21
-3.99582
0
LINE
8
BLACK
6
CONTINUOUS
10
6.36296
20
-3.99582
11
6.35802
21
-4.00075
0
LINE
8
BLACK
6
CONTINUOUS
10
6.35802
20
-4.00075
11
6.35222
21
-4.00463
0
LINE
8
BLACK
6
CONTINUOUS
10
6.35222
20
-4.00463
11
6.34577
21
-4.0073
0
LINE
8
BLACK
6
CONTINUOUS
10
6.34577
20
-4.0073
11
6.33892
21
-4.00866
0
LINE
8
BLACK
6
CONTINUOUS
10
6.33892
20
-4.00866
11
6.33194
21
-4.00866
0
LINE
8
BLACK
6
CONTINUOUS
10
6.33194
20
-4.00866
11
6.3251
21
-4.0073
0
LINE
8
BLACK
6
CONTINUOUS
10
6.3251
20
-4.0073
11
6.31865
21
-4.00463
0
LINE
8
BLACK
6
CONTINUOUS
10
6.31865
20
-4.00463
11
6.31285
21
-4.00075
0
LINE
8
BLACK
6
CONTINUOUS
10
6.31285
20
-4.00075
11
6.30791
21
-3.99582
0
LINE
8
BLACK
6
CONTINUOUS
10
6.30791
20
-3.99582
11
6.30403
21
-3.99001
0
LINE
8
BLACK
6
CONTINUOUS
10
6.30403
20
-3.99001
11
6.30136
21
-3.98356
0
LINE
8
BLACK
6
CONTINUOUS
10
6.30136
20
-3.98356
11
6.3
21
-3.97672
0
LINE
8
BLACK
6
CONTINUOUS
10
6.3
20
-3.97672
11
6.3
21
-3.96974
0
LINE
8
BLACK
6
CONTINUOUS
10
6.3
20
-3.96974
11
6.30136
21
-3.96289
0
LINE
8
BLACK
6
CONTINUOUS
10
6.30136
20
-3.96289
11
6.30403
21
-3.95644
0
LINE
8
BLACK
6
CONTINUOUS
10
6.30403
20
-3.95644
11
6.30791
21
-3.95064
0
LINE
8
BLACK
6
CONTINUOUS
10
6.30791
20
-3.95064
11
6.31285
21
-3.94571
0
LINE
8
BLACK
6
CONTINUOUS
10
6.31285
20
-3.94571
11
6.31865
21
-3.94183
0
LINE
8
BLACK
6
CONTINUOUS
10
6.31865
20
-3.94183
11
6.3251
21
-3.93916
0
LINE
8
BLACK
6
CONTINUOUS
10
6.3251
20
-3.93916
11
6.33194
21
-3.9378
0
LINE
8
BLACK
6
CONTINUOUS
10
6.33194
20
-3.9378
11
6.33892
21
-3.9378
0
LINE
8
BLACK
6
CONTINUOUS
10
6.33892
20
-3.9378
11
6.34577
21
-3.93916
0
LINE
8
BLACK
6
CONTINUOUS
10
6.44577
20
-3.93916
11
6.45222
21
-3.94183
0
LINE
8
BLACK
6
CONTINUOUS
10
6.45222
20
-3.94183
11
6.45802
21
-3.94571
0
LINE
8
BLACK
6
CONTINUOUS
10
6.45802
20
-3.94571
11
6.46296
21
-3.95064
0
LINE
8
BLACK
6
CONTINUOUS
10
6.46296
20
-3.95064
11
6.46683
21
-3.95644
0
LINE
8
BLACK
6
CONTINUOUS
10
6.46683
20
-3.95644
11
6.4695
21
-3.96289
0
LINE
8
BLACK
6
CONTINUOUS
10
6.4695
20
-3.96289
11
6.47087
21
-3.96974
0
LINE
8
BLACK
6
CONTINUOUS
10
6.47087
20
-3.96974
11
6.47087
21
-3.97672
0
LINE
8
BLACK
6
CONTINUOUS
10
6.47087
20
-3.97672
11
6.4695
21
-3.98356
0
LINE
8
BLACK
6
CONTINUOUS
10
6.4695
20
-3.98356
11
6.46683
21
-3.99001
0
LINE
8
BLACK
6
CONTINUOUS
10
6.46683
20
-3.99001
11
6.46296
21
-3.99582
0
LINE
8
BLACK
6
CONTINUOUS
10
6.46296
20
-3.99582
11
6.45802
21
-4.00075
0
LINE
8
BLACK
6
CONTINUOUS
10
6.45802
20
-4.00075
11
6.45222
21
-4.00463
0
LINE
8
BLACK
6
CONTINUOUS
10
6.45222
20
-4.00463
11
6.44577
21
-4.0073
0
LINE
8
BLACK
6
CONTINUOUS
10
6.44577
20
-4.0073
11
6.43892
21
-4.00866
0
LINE
8
BLACK
6
CONTINUOUS
10
6.43892
20
-4.00866
11
6.43194
21
-4.00866
0
LINE
8
BLACK
6
CONTINUOUS
10
6.43194
20
-4.00866
11
6.4251
21
-4.0073
0
LINE
8
BLACK
6
CONTINUOUS
10
6.4251
20
-4.0073
11
6.41865
21
-4.00463
0
LINE
8
BLACK
6
CONTINUOUS
10
6.41865
20
-4.00463
11
6.41285
21
-4.00075
0
LINE
8
BLACK
6
CONTINUOUS
10
6.41285
20
-4.00075
11
6.40791
21
-3.99582
0
LINE
8
BLACK
6
CONTINUOUS
10
6.40791
20
-3.99582
11
6.40403
21
-3.99001
0
LINE
8
BLACK
6
CONTINUOUS
10
6.40403
20
-3.99001
11
6.40136
21
-3.98356
0
LINE
8
BLACK
6
CONTINUOUS
10
6.40136
20
-3.98356
11
6.4
21
-3.97672
0
LINE
8
BLACK
6
CONTINUOUS
10
6.4
20
-3.97672
11
6.4
21
-3.96974
0
LINE
8
BLACK
6
CONTINUOUS
10
6.4
20
-3.96974
11
6.40136
21
-3.96289
0
LINE
8
BLACK
6
CONTINUOUS
10
6.40136
20
-3.96289
11
6.40403
21
-3.95644
0
LINE
8
BLACK
6
CONTINUOUS
10
6.40403
20
-3.95644
11
6.40791
21
-3.95064
0
LINE
8
BLACK
6
CONTINUOUS
10
6.40791
20
-3.95064
11
6.41285
21
-3.94571
0
LINE
8
BLACK
6
CONTINUOUS
10
6.41285
20
-3.94571
11
6.41865
21
-3.94183
0
LINE
8
BLACK
6
CONTINUOUS
10
6.41865
20
-3.94183
11
6.4251
21
-3.93916
0
LINE
8
BLACK
6
CONTINUOUS
10
6.4251
20
-3.93916
11
6.43194
21
-3.9378
0
LINE
8
BLACK
6
CONTINUOUS
10
6.43194
20
-3.9378
11
6.43892
21
-3.9378
0
LINE
8
BLACK
6
CONTINUOUS
10
6.43892
20
-3.9378
11
6.44577
21
-3.93916
0
LINE
8
BLACK
6
CONTINUOUS
10
6.57087
20
-4.00866
11
6.5
21
-4.00866
0
LINE
8
BLACK
6
CONTINUOUS
10
6.5
20
-4.00866
11
6.5
21
-3.9378
0
LINE
8
BLACK
6
CONTINUOUS
10
6.5
20
-3.9378
11
6.57087
21
-3.9378
0
LINE
8
BLACK
6
CONTINUOUS
10
6.57087
20
-3.9378
11
6.57087
21
-4.00866
0
LINE
8
BLACK
6
CONTINUOUS
10
5.44251
20
-3.9473
11
5.44742
21
-3.94933
0
LINE
8
BLACK
6
CONTINUOUS
10
5.44742
20
-3.94933
11
5.45184
21
-3.95228
0
LINE
8
BLACK
6
CONTINUOUS
10
5.45184
20
-3.95228
11
5.45559
21
-3.95604
0
LINE
8
BLACK
6
CONTINUOUS
10
5.45559
20
-3.95604
11
5.45854
21
-3.96045
0
LINE
8
BLACK
6
CONTINUOUS
10
5.45854
20
-3.96045
11
5.46058
21
-3.96536
0
LINE
8
BLACK
6
CONTINUOUS
10
5.46058
20
-3.96536
11
5.46161
21
-3.97057
0
LINE
8
BLACK
6
CONTINUOUS
10
5.46161
20
-3.97057
11
5.46161
21
-3.97588
0
LINE
8
BLACK
6
CONTINUOUS
10
5.46161
20
-3.97588
11
5.46058
21
-3.98109
0
LINE
8
BLACK
6
CONTINUOUS
10
5.46058
20
-3.98109
11
5.45854
21
-3.986
0
LINE
8
BLACK
6
CONTINUOUS
10
5.45854
20
-3.986
11
5.45559
21
-3.99042
0
LINE
8
BLACK
6
CONTINUOUS
10
5.45559
20
-3.99042
11
5.45184
21
-3.99418
0
LINE
8
BLACK
6
CONTINUOUS
10
5.45184
20
-3.99418
11
5.44742
21
-3.99713
0
LINE
8
BLACK
6
CONTINUOUS
10
5.44742
20
-3.99713
11
5.44251
21
-3.99916
0
LINE
8
BLACK
6
CONTINUOUS
10
5.44251
20
-3.99916
11
5.4373
21
-4.0002
0
LINE
8
BLACK
6
CONTINUOUS
10
5.4373
20
-4.0002
11
5.43199
21
-4.0002
0
LINE
8
BLACK
6
CONTINUOUS
10
5.43199
20
-4.0002
11
5.42678
21
-3.99916
0
LINE
8
BLACK
6
CONTINUOUS
10
5.42678
20
-3.99916
11
5.42187
21
-3.99713
0
LINE
8
BLACK
6
CONTINUOUS
10
5.42187
20
-3.99713
11
5.41745
21
-3.99418
0
LINE
8
BLACK
6
CONTINUOUS
10
5.41745
20
-3.99418
11
5.4137
21
-3.99042
0
LINE
8
BLACK
6
CONTINUOUS
10
5.4137
20
-3.99042
11
5.41075
21
-3.986
0
LINE
8
BLACK
6
CONTINUOUS
10
5.41075
20
-3.986
11
5.40871
21
-3.98109
0
LINE
8
BLACK
6
CONTINUOUS
10
5.40871
20
-3.98109
11
5.40768
21
-3.97588
0
LINE
8
BLACK
6
CONTINUOUS
10
5.40768
20
-3.97588
11
5.40768
21
-3.97057
0
LINE
8
BLACK
6
CONTINUOUS
10
5.40768
20
-3.97057
11
5.40871
21
-3.96536
0
LINE
8
BLACK
6
CONTINUOUS
10
5.40871
20
-3.96536
11
5.41075
21
-3.96045
0
LINE
8
BLACK
6
CONTINUOUS
10
5.41075
20
-3.96045
11
5.4137
21
-3.95604
0
LINE
8
BLACK
6
CONTINUOUS
10
5.4137
20
-3.95604
11
5.41745
21
-3.95228
0
LINE
8
BLACK
6
CONTINUOUS
10
5.41745
20
-3.95228
11
5.42187
21
-3.94933
0
LINE
8
BLACK
6
CONTINUOUS
10
5.42187
20
-3.94933
11
5.42678
21
-3.9473
0
LINE
8
BLACK
6
CONTINUOUS
10
5.42678
20
-3.9473
11
5.43199
21
-3.94626
0
LINE
8
BLACK
6
CONTINUOUS
10
5.43199
20
-3.94626
11
5.4373
21
-3.94626
0
LINE
8
BLACK
6
CONTINUOUS
10
5.4373
20
-3.94626
11
5.44251
21
-3.9473
0
LINE
8
BLACK
6
CONTINUOUS
10
5.54509
20
-3.82382
11
5.54706
21
-3.82442
0
LINE
8
BLACK
6
CONTINUOUS
10
5.54706
20
-3.82442
11
5.54888
21
-3.82539
0
LINE
8
BLACK
6
CONTINUOUS
10
5.54888
20
-3.82539
11
5.55047
21
-3.8267
0
LINE
8
BLACK
6
CONTINUOUS
10
5.55047
20
-3.8267
11
5.55177
21
-3.82829
0
LINE
8
BLACK
6
CONTINUOUS
10
5.55177
20
-3.82829
11
5.55274
21
-3.8301
0
LINE
8
BLACK
6
CONTINUOUS
10
5.55274
20
-3.8301
11
5.55334
21
-3.83207
0
LINE
8
BLACK
6
CONTINUOUS
10
5.55334
20
-3.83207
11
5.55354
21
-3.83412
0
LINE
8
BLACK
6
CONTINUOUS
10
5.55354
20
-3.83412
11
5.55354
21
-3.87612
0
LINE
8
BLACK
6
CONTINUOUS
10
5.55354
20
-3.87612
11
5.55334
21
-3.87816
0
LINE
8
BLACK
6
CONTINUOUS
10
5.55334
20
-3.87816
11
5.55274
21
-3.88013
0
LINE
8
BLACK
6
CONTINUOUS
10
5.55274
20
-3.88013
11
5.55177
21
-3.88195
0
LINE
8
BLACK
6
CONTINUOUS
10
5.55177
20
-3.88195
11
5.55047
21
-3.88354
0
LINE
8
BLACK
6
CONTINUOUS
10
5.55047
20
-3.88354
11
5.54888
21
-3.88484
0
LINE
8
BLACK
6
CONTINUOUS
10
5.54888
20
-3.88484
11
5.54706
21
-3.88582
0
LINE
8
BLACK
6
CONTINUOUS
10
5.54706
20
-3.88582
11
5.54509
21
-3.88641
0
LINE
8
BLACK
6
CONTINUOUS
10
5.54509
20
-3.88641
11
5.54304
21
-3.88661
0
LINE
8
BLACK
6
CONTINUOUS
10
5.54304
20
-3.88661
11
5.48058
21
-3.88661
0
LINE
8
BLACK
6
CONTINUOUS
10
5.48058
20
-3.88661
11
5.47853
21
-3.88641
0
LINE
8
BLACK
6
CONTINUOUS
10
5.47853
20
-3.88641
11
5.47656
21
-3.88582
0
LINE
8
BLACK
6
CONTINUOUS
10
5.47656
20
-3.88582
11
5.47474
21
-3.88484
0
LINE
8
BLACK
6
CONTINUOUS
10
5.47474
20
-3.88484
11
5.47315
21
-3.88354
0
LINE
8
BLACK
6
CONTINUOUS
10
5.47315
20
-3.88354
11
5.47185
21
-3.88195
0
LINE
8
BLACK
6
CONTINUOUS
10
5.47185
20
-3.88195
11
5.47088
21
-3.88013
0
LINE
8
BLACK
6
CONTINUOUS
10
5.47088
20
-3.88013
11
5.47028
21
-3.87816
0
LINE
8
BLACK
6
CONTINUOUS
10
5.47028
20
-3.87816
11
5.47008
21
-3.87612
0
LINE
8
BLACK
6
CONTINUOUS
10
5.47008
20
-3.87612
11
5.47008
21
-3.83412
0
LINE
8
BLACK
6
CONTINUOUS
10
5.47008
20
-3.83412
11
5.47028
21
-3.83207
0
LINE
8
BLACK
6
CONTINUOUS
10
5.47028
20
-3.83207
11
5.47088
21
-3.8301
0
LINE
8
BLACK
6
CONTINUOUS
10
5.47088
20
-3.8301
11
5.47185
21
-3.82829
0
LINE
8
BLACK
6
CONTINUOUS
10
5.47185
20
-3.82829
11
5.47315
21
-3.8267
0
LINE
8
BLACK
6
CONTINUOUS
10
5.47315
20
-3.8267
11
5.47474
21
-3.82539
0
LINE
8
BLACK
6
CONTINUOUS
10
5.47474
20
-3.82539
11
5.47656
21
-3.82442
0
LINE
8
BLACK
6
CONTINUOUS
10
5.47656
20
-3.82442
11
5.47853
21
-3.82382
0
LINE
8
BLACK
6
CONTINUOUS
10
5.47853
20
-3.82382
11
5.48058
21
-3.82362
0
LINE
8
BLACK
6
CONTINUOUS
10
5.48058
20
-3.82362
11
5.54304
21
-3.82362
0
LINE
8
BLACK
6
CONTINUOUS
10
5.54304
20
-3.82362
11
5.54509
21
-3.82382
0
LINE
8
BLACK
6
CONTINUOUS
10
5.52822
20
-3.70597
11
5.53416
21
-3.70777
0
LINE
8
BLACK
6
CONTINUOUS
10
5.53416
20
-3.70777
11
5.53963
21
-3.71069
0
LINE
8
BLACK
6
CONTINUOUS
10
5.53963
20
-3.71069
11
5.54443
21
-3.71463
0
LINE
8
BLACK
6
CONTINUOUS
10
5.54443
20
-3.71463
11
5.54836
21
-3.71942
0
LINE
8
BLACK
6
CONTINUOUS
10
5.54836
20
-3.71942
11
5.55129
21
-3.7249
0
LINE
8
BLACK
6
CONTINUOUS
10
5.55129
20
-3.7249
11
5.55309
21
-3.73083
0
LINE
8
BLACK
6
CONTINUOUS
10
5.55309
20
-3.73083
11
5.5537
21
-3.73701
0
LINE
8
BLACK
6
CONTINUOUS
10
5.5537
20
-3.73701
11
5.55309
21
-3.74318
0
LINE
8
BLACK
6
CONTINUOUS
10
5.55309
20
-3.74318
11
5.55129
21
-3.74912
0
LINE
8
BLACK
6
CONTINUOUS
10
5.55129
20
-3.74912
11
5.54836
21
-3.75459
0
LINE
8
BLACK
6
CONTINUOUS
10
5.54836
20
-3.75459
11
5.54443
21
-3.75939
0
LINE
8
BLACK
6
CONTINUOUS
10
5.54443
20
-3.75939
11
5.53963
21
-3.76332
0
LINE
8
BLACK
6
CONTINUOUS
10
5.53963
20
-3.76332
11
5.53416
21
-3.76625
0
LINE
8
BLACK
6
CONTINUOUS
10
5.53416
20
-3.76625
11
5.52822
21
-3.76805
0
LINE
8
BLACK
6
CONTINUOUS
10
5.52822
20
-3.76805
11
5.52359
21
-3.7685
0
LINE
8
BLACK
6
CONTINUOUS
10
5.52359
20
-3.7685
11
5.50003
21
-3.7685
0
LINE
8
BLACK
6
CONTINUOUS
10
5.50003
20
-3.7685
11
5.4954
21
-3.76805
0
LINE
8
BLACK
6
CONTINUOUS
10
5.4954
20
-3.76805
11
5.48946
21
-3.76625
0
LINE
8
BLACK
6
CONTINUOUS
10
5.48946
20
-3.76625
11
5.48399
21
-3.76332
0
LINE
8
BLACK
6
CONTINUOUS
10
5.48399
20
-3.76332
11
5.4792
21
-3.75939
0
LINE
8
BLACK
6
CONTINUOUS
10
5.4792
20
-3.75939
11
5.47526
21
-3.75459
0
LINE
8
BLACK
6
CONTINUOUS
10
5.47526
20
-3.75459
11
5.47234
21
-3.74912
0
LINE
8
BLACK
6
CONTINUOUS
10
5.47234
20
-3.74912
11
5.47053
21
-3.74318
0
LINE
8
BLACK
6
CONTINUOUS
10
5.47053
20
-3.74318
11
5.46993
21
-3.73701
0
LINE
8
BLACK
6
CONTINUOUS
10
5.46993
20
-3.73701
11
5.47053
21
-3.73083
0
LINE
8
BLACK
6
CONTINUOUS
10
5.47053
20
-3.73083
11
5.47234
21
-3.7249
0
LINE
8
BLACK
6
CONTINUOUS
10
5.47234
20
-3.7249
11
5.47526
21
-3.71942
0
LINE
8
BLACK
6
CONTINUOUS
10
5.47526
20
-3.71942
11
5.4792
21
-3.71463
0
LINE
8
BLACK
6
CONTINUOUS
10
5.4792
20
-3.71463
11
5.48399
21
-3.71069
0
LINE
8
BLACK
6
CONTINUOUS
10
5.48399
20
-3.71069
11
5.48946
21
-3.70777
0
LINE
8
BLACK
6
CONTINUOUS
10
5.48946
20
-3.70777
11
5.4954
21
-3.70597
0
LINE
8
BLACK
6
CONTINUOUS
10
5.4954
20
-3.70597
11
5.50003
21
-3.70551
0
LINE
8
BLACK
6
CONTINUOUS
10
5.50003
20
-3.70551
11
5.52359
21
-3.70551
0
LINE
8
BLACK
6
CONTINUOUS
10
5.52359
20
-3.70551
11
5.52822
21
-3.70597
0
LINE
8
BLACK
6
CONTINUOUS
10
5.52822
20
-3.58786
11
5.53416
21
-3.58966
0
LINE
8
BLACK
6
CONTINUOUS
10
5.53416
20
-3.58966
11
5.53963
21
-3.59258
0
LINE
8
BLACK
6
CONTINUOUS
10
5.53963
20
-3.59258
11
5.54443
21
-3.59652
0
LINE
8
BLACK
6
CONTINUOUS
10
5.54443
20
-3.59652
11
5.54836
21
-3.60131
0
LINE
8
BLACK
6
CONTINUOUS
10
5.54836
20
-3.60131
11
5.55129
21
-3.60679
0
LINE
8
BLACK
6
CONTINUOUS
10
5.55129
20
-3.60679
11
5.55309
21
-3.61272
0
LINE
8
BLACK
6
CONTINUOUS
10
5.55309
20
-3.61272
11
5.5537
21
-3.6189
0
LINE
8
BLACK
6
CONTINUOUS
10
5.5537
20
-3.6189
11
5.55309
21
-3.62507
0
LINE
8
BLACK
6
CONTINUOUS
10
5.55309
20
-3.62507
11
5.55129
21
-3.63101
0
LINE
8
BLACK
6
CONTINUOUS
10
5.55129
20
-3.63101
11
5.54836
21
-3.63648
0
LINE
8
BLACK
6
CONTINUOUS
10
5.54836
20
-3.63648
11
5.54443
21
-3.64128
0
LINE
8
BLACK
6
CONTINUOUS
10
5.54443
20
-3.64128
11
5.53963
21
-3.64521
0
LINE
8
BLACK
6
CONTINUOUS
10
5.53963
20
-3.64521
11
5.53416
21
-3.64814
0
LINE
8
BLACK
6
CONTINUOUS
10
5.53416
20
-3.64814
11
5.52822
21
-3.64994
0
LINE
8
BLACK
6
CONTINUOUS
10
5.52822
20
-3.64994
11
5.52359
21
-3.65039
0
LINE
8
BLACK
6
CONTINUOUS
10
5.52359
20
-3.65039
11
5.50003
21
-3.65039
0
LINE
8
BLACK
6
CONTINUOUS
10
5.50003
20
-3.65039
11
5.4954
21
-3.64994
0
LINE
8
BLACK
6
CONTINUOUS
10
5.4954
20
-3.64994
11
5.48946
21
-3.64814
0
LINE
8
BLACK
6
CONTINUOUS
10
5.48946
20
-3.64814
11
5.48399
21
-3.64521
0
LINE
8
BLACK
6
CONTINUOUS
10
5.48399
20
-3.64521
11
5.4792
21
-3.64128
0
LINE
8
BLACK
6
CONTINUOUS
10
5.4792
20
-3.64128
11
5.47526
21
-3.63648
0
LINE
8
BLACK
6
CONTINUOUS
10
5.47526
20
-3.63648
11
5.47234
21
-3.63101
0
LINE
8
BLACK
6
CONTINUOUS
10
5.47234
20
-3.63101
11
5.47053
21
-3.62507
0
LINE
8
BLACK
6
CONTINUOUS
10
5.47053
20
-3.62507
11
5.46993
21
-3.6189
0
LINE
8
BLACK
6
CONTINUOUS
10
5.46993
20
-3.6189
11
5.47053
21
-3.61272
0
LINE
8
BLACK
6
CONTINUOUS
10
5.47053
20
-3.61272
11
5.47234
21
-3.60679
0
LINE
8
BLACK
6
CONTINUOUS
10
5.47234
20
-3.60679
11
5.47526
21
-3.60131
0
LINE
8
BLACK
6
CONTINUOUS
10
5.47526
20
-3.60131
11
5.4792
21
-3.59652
0
LINE
8
BLACK
6
CONTINUOUS
10
5.4792
20
-3.59652
11
5.48399
21
-3.59258
0
LINE
8
BLACK
6
CONTINUOUS
10
5.48399
20
-3.59258
11
5.48946
21
-3.58966
0
LINE
8
BLACK
6
CONTINUOUS
10
5.48946
20
-3.58966
11
5.4954
21
-3.58786
0
LINE
8
BLACK
6
CONTINUOUS
10
5.4954
20
-3.58786
11
5.50003
21
-3.5874
0
LINE
8
BLACK
6
CONTINUOUS
10
5.50003
20
-3.5874
11
5.52359
21
-3.5874
0
LINE
8
BLACK
6
CONTINUOUS
10
5.52359
20
-3.5874
11
5.52822
21
-3.58786
0
LINE
8
BLACK
6
CONTINUOUS
10
5.52822
20
-3.46975
11
5.53416
21
-3.47155
0
LINE
8
BLACK
6
CONTINUOUS
10
5.53416
20
-3.47155
11
5.53963
21
-3.47447
0
LINE
8
BLACK
6
CONTINUOUS
10
5.53963
20
-3.47447
11
5.54443
21
-3.47841
0
LINE
8
BLACK
6
CONTINUOUS
10
5.54443
20
-3.47841
11
5.54836
21
-3.4832
0
LINE
8
BLACK
6
CONTINUOUS
10
5.54836
20
-3.4832
11
5.55129
21
-3.48868
0
LINE
8
BLACK
6
CONTINUOUS
10
5.55129
20
-3.48868
11
5.55309
21
-3.49461
0
LINE
8
BLACK
6
CONTINUOUS
10
5.55309
20
-3.49461
11
5.5537
21
-3.50079
0
LINE
8
BLACK
6
CONTINUOUS
10
5.5537
20
-3.50079
11
5.55309
21
-3.50696
0
LINE
8
BLACK
6
CONTINUOUS
10
5.55309
20
-3.50696
11
5.55129
21
-3.5129
0
LINE
8
BLACK
6
CONTINUOUS
10
5.55129
20
-3.5129
11
5.54836
21
-3.51837
0
LINE
8
BLACK
6
CONTINUOUS
10
5.54836
20
-3.51837
11
5.54443
21
-3.52317
0
LINE
8
BLACK
6
CONTINUOUS
10
5.54443
20
-3.52317
11
5.53963
21
-3.5271
0
LINE
8
BLACK
6
CONTINUOUS
10
5.53963
20
-3.5271
11
5.53416
21
-3.53003
0
LINE
8
BLACK
6
CONTINUOUS
10
5.53416
20
-3.53003
11
5.52822
21
-3.53183
0
LINE
8
BLACK
6
CONTINUOUS
10
5.52822
20
-3.53183
11
5.52359
21
-3.53228
0
LINE
8
BLACK
6
CONTINUOUS
10
5.52359
20
-3.53228
11
5.50003
21
-3.53228
0
LINE
8
BLACK
6
CONTINUOUS
10
5.50003
20
-3.53228
11
5.4954
21
-3.53183
0
LINE
8
BLACK
6
CONTINUOUS
10
5.4954
20
-3.53183
11
5.48946
21
-3.53003
0
LINE
8
BLACK
6
CONTINUOUS
10
5.48946
20
-3.53003
11
5.48399
21
-3.5271
0
LINE
8
BLACK
6
CONTINUOUS
10
5.48399
20
-3.5271
11
5.4792
21
-3.52317
0
LINE
8
BLACK
6
CONTINUOUS
10
5.4792
20
-3.52317
11
5.47526
21
-3.51837
0
LINE
8
BLACK
6
CONTINUOUS
10
5.47526
20
-3.51837
11
5.47234
21
-3.5129
0
LINE
8
BLACK
6
CONTINUOUS
10
5.47234
20
-3.5129
11
5.47053
21
-3.50696
0
LINE
8
BLACK
6
CONTINUOUS
10
5.47053
20
-3.50696
11
5.46993
21
-3.50079
0
LINE
8
BLACK
6
CONTINUOUS
10
5.46993
20
-3.50079
11
5.47053
21
-3.49461
0
LINE
8
BLACK
6
CONTINUOUS
10
5.47053
20
-3.49461
11
5.47234
21
-3.48868
0
LINE
8
BLACK
6
CONTINUOUS
10
5.47234
20
-3.48868
11
5.47526
21
-3.4832
0
LINE
8
BLACK
6
CONTINUOUS
10
5.47526
20
-3.4832
11
5.4792
21
-3.47841
0
LINE
8
BLACK
6
CONTINUOUS
10
5.4792
20
-3.47841
11
5.48399
21
-3.47447
0
LINE
8
BLACK
6
CONTINUOUS
10
5.48399
20
-3.47447
11
5.48946
21
-3.47155
0
LINE
8
BLACK
6
CONTINUOUS
10
5.48946
20
-3.47155
11
5.4954
21
-3.46975
0
LINE
8
BLACK
6
CONTINUOUS
10
5.4954
20
-3.46975
11
5.50003
21
-3.46929
0
LINE
8
BLACK
6
CONTINUOUS
10
5.50003
20
-3.46929
11
5.52359
21
-3.46929
0
LINE
8
BLACK
6
CONTINUOUS
10
5.52359
20
-3.46929
11
5.52822
21
-3.46975
0
LINE
8
BLACK
6
CONTINUOUS
10
5.52822
20
-3.35164
11
5.53416
21
-3.35344
0
LINE
8
BLACK
6
CONTINUOUS
10
5.53416
20
-3.35344
11
5.53963
21
-3.35636
0
LINE
8
BLACK
6
CONTINUOUS
10
5.53963
20
-3.35636
11
5.54443
21
-3.3603
0
LINE
8
BLACK
6
CONTINUOUS
10
5.54443
20
-3.3603
11
5.54836
21
-3.36509
0
LINE
8
BLACK
6
CONTINUOUS
10
5.54836
20
-3.36509
11
5.55129
21
-3.37057
0
LINE
8
BLACK
6
CONTINUOUS
10
5.55129
20
-3.37057
11
5.55309
21
-3.3765
0
LINE
8
BLACK
6
CONTINUOUS
10
5.55309
20
-3.3765
11
5.5537
21
-3.38268
0
LINE
8
BLACK
6
CONTINUOUS
10
5.5537
20
-3.38268
11
5.55309
21
-3.38885
0
LINE
8
BLACK
6
CONTINUOUS
10
5.55309
20
-3.38885
11
5.55129
21
-3.39479
0
LINE
8
BLACK
6
CONTINUOUS
10
5.55129
20
-3.39479
11
5.54836
21
-3.40026
0
LINE
8
BLACK
6
CONTINUOUS
10
5.54836
20
-3.40026
11
5.54443
21
-3.40506
0
LINE
8
BLACK
6
CONTINUOUS
10
5.54443
20
-3.40506
11
5.53963
21
-3.40899
0
LINE
8
BLACK
6
CONTINUOUS
10
5.53963
20
-3.40899
11
5.53416
21
-3.41192
0
LINE
8
BLACK
6
CONTINUOUS
10
5.53416
20
-3.41192
11
5.52822
21
-3.41372
0
LINE
8
BLACK
6
CONTINUOUS
10
5.52822
20
-3.41372
11
5.52359
21
-3.41417
0
LINE
8
BLACK
6
CONTINUOUS
10
5.52359
20
-3.41417
11
5.50003
21
-3.41417
0
LINE
8
BLACK
6
CONTINUOUS
10
5.50003
20
-3.41417
11
5.4954
21
-3.41372
0
LINE
8
BLACK
6
CONTINUOUS
10
5.4954
20
-3.41372
11
5.48946
21
-3.41192
0
LINE
8
BLACK
6
CONTINUOUS
10
5.48946
20
-3.41192
11
5.48399
21
-3.40899
0
LINE
8
BLACK
6
CONTINUOUS
10
5.48399
20
-3.40899
11
5.4792
21
-3.40506
0
LINE
8
BLACK
6
CONTINUOUS
10
5.4792
20
-3.40506
11
5.47526
21
-3.40026
0
LINE
8
BLACK
6
CONTINUOUS
10
5.47526
20
-3.40026
11
5.47234
21
-3.39479
0
LINE
8
BLACK
6
CONTINUOUS
10
5.47234
20
-3.39479
11
5.47053
21
-3.38885
0
LINE
8
BLACK
6
CONTINUOUS
10
5.47053
20
-3.38885
11
5.46993
21
-3.38268
0
LINE
8
BLACK
6
CONTINUOUS
10
5.46993
20
-3.38268
11
5.47053
21
-3.3765
0
LINE
8
BLACK
6
CONTINUOUS
10
5.47053
20
-3.3765
11
5.47234
21
-3.37057
0
LINE
8
BLACK
6
CONTINUOUS
10
5.47234
20
-3.37057
11
5.47526
21
-3.36509
0
LINE
8
BLACK
6
CONTINUOUS
10
5.47526
20
-3.36509
11
5.4792
21
-3.3603
0
LINE
8
BLACK
6
CONTINUOUS
10
5.4792
20
-3.3603
11
5.48399
21
-3.35636
0
LINE
8
BLACK
6
CONTINUOUS
10
5.48399
20
-3.35636
11
5.48946
21
-3.35344
0
LINE
8
BLACK
6
CONTINUOUS
10
5.48946
20
-3.35344
11
5.4954
21
-3.35164
0
LINE
8
BLACK
6
CONTINUOUS
10
5.4954
20
-3.35164
11
5.50003
21
-3.35118
0
LINE
8
BLACK
6
CONTINUOUS
10
5.50003
20
-3.35118
11
5.52359
21
-3.35118
0
LINE
8
BLACK
6
CONTINUOUS
10
5.52359
20
-3.35118
11
5.52822
21
-3.35164
0
LINE
8
BLACK
6
CONTINUOUS
10
5.44251
20
-3.23863
11
5.44742
21
-3.24067
0
LINE
8
BLACK
6
CONTINUOUS
10
5.44742
20
-3.24067
11
5.45184
21
-3.24362
0
LINE
8
BLACK
6
CONTINUOUS
10
5.45184
20
-3.24362
11
5.45559
21
-3.24738
0
LINE
8
BLACK
6
CONTINUOUS
10
5.45559
20
-3.24738
11
5.45854
21
-3.25179
0
LINE
8
BLACK
6
CONTINUOUS
10
5.45854
20
-3.25179
11
5.46058
21
-3.2567
0
LINE
8
BLACK
6
CONTINUOUS
10
5.46058
20
-3.2567
11
5.46161
21
-3.26191
0
LINE
8
BLACK
6
CONTINUOUS
10
5.46161
20
-3.26191
11
5.46161
21
-3.26722
0
LINE
8
BLACK
6
CONTINUOUS
10
5.46161
20
-3.26722
11
5.46058
21
-3.27243
0
LINE
8
BLACK
6
CONTINUOUS
10
5.46058
20
-3.27243
11
5.45854
21
-3.27734
0
LINE
8
BLACK
6
CONTINUOUS
10
5.45854
20
-3.27734
11
5.45559
21
-3.28176
0
LINE
8
BLACK
6
CONTINUOUS
10
5.45559
20
-3.28176
11
5.45184
21
-3.28551
0
LINE
8
BLACK
6
CONTINUOUS
10
5.45184
20
-3.28551
11
5.44742
21
-3.28847
0
LINE
8
BLACK
6
CONTINUOUS
10
5.44742
20
-3.28847
11
5.44251
21
-3.2905
0
LINE
8
BLACK
6
CONTINUOUS
10
5.44251
20
-3.2905
11
5.4373
21
-3.29154
0
LINE
8
BLACK
6
CONTINUOUS
10
5.4373
20
-3.29154
11
5.43199
21
-3.29154
0
LINE
8
BLACK
6
CONTINUOUS
10
5.43199
20
-3.29154
11
5.42678
21
-3.2905
0
LINE
8
BLACK
6
CONTINUOUS
10
5.42678
20
-3.2905
11
5.42187
21
-3.28847
0
LINE
8
BLACK
6
CONTINUOUS
10
5.42187
20
-3.28847
11
5.41745
21
-3.28551
0
LINE
8
BLACK
6
CONTINUOUS
10
5.41745
20
-3.28551
11
5.4137
21
-3.28176
0
LINE
8
BLACK
6
CONTINUOUS
10
5.4137
20
-3.28176
11
5.41075
21
-3.27734
0
LINE
8
BLACK
6
CONTINUOUS
10
5.41075
20
-3.27734
11
5.40871
21
-3.27243
0
LINE
8
BLACK
6
CONTINUOUS
10
5.40871
20
-3.27243
11
5.40768
21
-3.26722
0
LINE
8
BLACK
6
CONTINUOUS
10
5.40768
20
-3.26722
11
5.40768
21
-3.26191
0
LINE
8
BLACK
6
CONTINUOUS
10
5.40768
20
-3.26191
11
5.40871
21
-3.2567
0
LINE
8
BLACK
6
CONTINUOUS
10
5.40871
20
-3.2567
11
5.41075
21
-3.25179
0
LINE
8
BLACK
6
CONTINUOUS
10
5.41075
20
-3.25179
11
5.4137
21
-3.24738
0
LINE
8
BLACK
6
CONTINUOUS
10
5.4137
20
-3.24738
11
5.41745
21
-3.24362
0
LINE
8
BLACK
6
CONTINUOUS
10
5.41745
20
-3.24362
11
5.42187
21
-3.24067
0
LINE
8
BLACK
6
CONTINUOUS
10
5.42187
20
-3.24067
11
5.42678
21
-3.23863
0
LINE
8
BLACK
6
CONTINUOUS
10
5.42678
20
-3.23863
11
5.43199
21
-3.2376
0
LINE
8
BLACK
6
CONTINUOUS
10
5.43199
20
-3.2376
11
5.4373
21
-3.2376
0
LINE
8
BLACK
6
CONTINUOUS
10
5.4373
20
-3.2376
11
5.44251
21
-3.23863
0
LINE
8
BLACK
6
CONTINUOUS
10
5.97543
20
-2.89543
11
5.90457
21
-2.89543
0
LINE
8
BLACK
6
CONTINUOUS
10
5.90457
20
-2.89543
11
5.90457
21
-2.82457
0
LINE
8
BLACK
6
CONTINUOUS
10
5.90457
20
-2.82457
11
5.97543
21
-2.82457
0
LINE
8
BLACK
6
CONTINUOUS
10
5.97543
20
-2.82457
11
5.97543
21
-2.89543
0
LINE
8
BLACK
6
CONTINUOUS
10
6.05034
20
-2.82593
11
6.05678
21
-2.8286
0
LINE
8
BLACK
6
CONTINUOUS
10
6.05678
20
-2.8286
11
6.06259
21
-2.83248
0
LINE
8
BLACK
6
CONTINUOUS
10
6.06259
20
-2.83248
11
6.06752
21
-2.83741
0
LINE
8
BLACK
6
CONTINUOUS
10
6.06752
20
-2.83741
11
6.0714
21
-2.84322
0
LINE
8
BLACK
6
CONTINUOUS
10
6.0714
20
-2.84322
11
6.07407
21
-2.84966
0
LINE
8
BLACK
6
CONTINUOUS
10
6.07407
20
-2.84966
11
6.07543
21
-2.85651
0
LINE
8
BLACK
6
CONTINUOUS
10
6.07543
20
-2.85651
11
6.07543
21
-2.86349
0
LINE
8
BLACK
6
CONTINUOUS
10
6.07543
20
-2.86349
11
6.07407
21
-2.87034
0
LINE
8
BLACK
6
CONTINUOUS
10
6.07407
20
-2.87034
11
6.0714
21
-2.87678
0
LINE
8
BLACK
6
CONTINUOUS
10
6.0714
20
-2.87678
11
6.06752
21
-2.88259
0
LINE
8
BLACK
6
CONTINUOUS
10
6.06752
20
-2.88259
11
6.06259
21
-2.88752
0
LINE
8
BLACK
6
CONTINUOUS
10
6.06259
20
-2.88752
11
6.05678
21
-2.8914
0
LINE
8
BLACK
6
CONTINUOUS
10
6.05678
20
-2.8914
11
6.05034
21
-2.89407
0
LINE
8
BLACK
6
CONTINUOUS
10
6.05034
20
-2.89407
11
6.04349
21
-2.89543
0
LINE
8
BLACK
6
CONTINUOUS
10
6.04349
20
-2.89543
11
6.03651
21
-2.89543
0
LINE
8
BLACK
6
CONTINUOUS
10
6.03651
20
-2.89543
11
6.02966
21
-2.89407
0
LINE
8
BLACK
6
CONTINUOUS
10
6.02966
20
-2.89407
11
6.02322
21
-2.8914
0
LINE
8
BLACK
6
CONTINUOUS
10
6.02322
20
-2.8914
11
6.01741
21
-2.88752
0
LINE
8
BLACK
6
CONTINUOUS
10
6.01741
20
-2.88752
11
6.01248
21
-2.88259
0
LINE
8
BLACK
6
CONTINUOUS
10
6.01248
20
-2.88259
11
6.0086
21
-2.87678
0
LINE
8
BLACK
6
CONTINUOUS
10
6.0086
20
-2.87678
11
6.00593
21
-2.87034
0
LINE
8
BLACK
6
CONTINUOUS
10
6.00593
20
-2.87034
11
6.00457
21
-2.86349
0
LINE
8
BLACK
6
CONTINUOUS
10
6.00457
20
-2.86349
11
6.00457
21
-2.85651
0
LINE
8
BLACK
6
CONTINUOUS
10
6.00457
20
-2.85651
11
6.00593
21
-2.84966
0
LINE
8
BLACK
6
CONTINUOUS
10
6.00593
20
-2.84966
11
6.0086
21
-2.84322
0
LINE
8
BLACK
6
CONTINUOUS
10
6.0086
20
-2.84322
11
6.01248
21
-2.83741
0
LINE
8
BLACK
6
CONTINUOUS
10
6.01248
20
-2.83741
11
6.01741
21
-2.83248
0
LINE
8
BLACK
6
CONTINUOUS
10
6.01741
20
-2.83248
11
6.02322
21
-2.8286
0
LINE
8
BLACK
6
CONTINUOUS
10
6.02322
20
-2.8286
11
6.02966
21
-2.82593
0
LINE
8
BLACK
6
CONTINUOUS
10
6.02966
20
-2.82593
11
6.03651
21
-2.82457
0
LINE
8
BLACK
6
CONTINUOUS
10
6.03651
20
-2.82457
11
6.04349
21
-2.82457
0
LINE
8
BLACK
6
CONTINUOUS
10
6.04349
20
-2.82457
11
6.05034
21
-2.82593
0
LINE
8
BLACK
6
CONTINUOUS
10
6.15034
20
-2.82593
11
6.15678
21
-2.8286
0
LINE
8
BLACK
6
CONTINUOUS
10
6.15678
20
-2.8286
11
6.16259
21
-2.83248
0
LINE
8
BLACK
6
CONTINUOUS
10
6.16259
20
-2.83248
11
6.16752
21
-2.83741
0
LINE
8
BLACK
6
CONTINUOUS
10
6.16752
20
-2.83741
11
6.1714
21
-2.84322
0
LINE
8
BLACK
6
CONTINUOUS
10
6.1714
20
-2.84322
11
6.17407
21
-2.84966
0
LINE
8
BLACK
6
CONTINUOUS
10
6.17407
20
-2.84966
11
6.17543
21
-2.85651
0
LINE
8
BLACK
6
CONTINUOUS
10
6.17543
20
-2.85651
11
6.17543
21
-2.86349
0
LINE
8
BLACK
6
CONTINUOUS
10
6.17543
20
-2.86349
11
6.17407
21
-2.87034
0
LINE
8
BLACK
6
CONTINUOUS
10
6.17407
20
-2.87034
11
6.1714
21
-2.87678
0
LINE
8
BLACK
6
CONTINUOUS
10
6.1714
20
-2.87678
11
6.16752
21
-2.88259
0
LINE
8
BLACK
6
CONTINUOUS
10
6.16752
20
-2.88259
11
6.16259
21
-2.88752
0
LINE
8
BLACK
6
CONTINUOUS
10
6.16259
20
-2.88752
11
6.15678
21
-2.8914
0
LINE
8
BLACK
6
CONTINUOUS
10
6.15678
20
-2.8914
11
6.15034
21
-2.89407
0
LINE
8
BLACK
6
CONTINUOUS
10
6.15034
20
-2.89407
11
6.14349
21
-2.89543
0
LINE
8
BLACK
6
CONTINUOUS
10
6.14349
20
-2.89543
11
6.13651
21
-2.89543
0
LINE
8
BLACK
6
CONTINUOUS
10
6.13651
20
-2.89543
11
6.12966
21
-2.89407
0
LINE
8
BLACK
6
CONTINUOUS
10
6.12966
20
-2.89407
11
6.12322
21
-2.8914
0
LINE
8
BLACK
6
CONTINUOUS
10
6.12322
20
-2.8914
11
6.11741
21
-2.88752
0
LINE
8
BLACK
6
CONTINUOUS
10
6.11741
20
-2.88752
11
6.11248
21
-2.88259
0
LINE
8
BLACK
6
CONTINUOUS
10
6.11248
20
-2.88259
11
6.1086
21
-2.87678
0
LINE
8
BLACK
6
CONTINUOUS
10
6.1086
20
-2.87678
11
6.10593
21
-2.87034
0
LINE
8
BLACK
6
CONTINUOUS
10
6.10593
20
-2.87034
11
6.10457
21
-2.86349
0
LINE
8
BLACK
6
CONTINUOUS
10
6.10457
20
-2.86349
11
6.10457
21
-2.85651
0
LINE
8
BLACK
6
CONTINUOUS
10
6.10457
20
-2.85651
11
6.10593
21
-2.84966
0
LINE
8
BLACK
6
CONTINUOUS
10
6.10593
20
-2.84966
11
6.1086
21
-2.84322
0
LINE
8
BLACK
6
CONTINUOUS
10
6.1086
20
-2.84322
11
6.11248
21
-2.83741
0
LINE
8
BLACK
6
CONTINUOUS
10
6.11248
20
-2.83741
11
6.11741
21
-2.83248
0
LINE
8
BLACK
6
CONTINUOUS
10
6.11741
20
-2.83248
11
6.12322
21
-2.8286
0
LINE
8
BLACK
6
CONTINUOUS
10
6.12322
20
-2.8286
11
6.12966
21
-2.82593
0
LINE
8
BLACK
6
CONTINUOUS
10
6.12966
20
-2.82593
11
6.13651
21
-2.82457
0
LINE
8
BLACK
6
CONTINUOUS
10
6.13651
20
-2.82457
11
6.14349
21
-2.82457
0
LINE
8
BLACK
6
CONTINUOUS
10
6.14349
20
-2.82457
11
6.15034
21
-2.82593
0
LINE
8
BLACK
6
CONTINUOUS
10
6.25034
20
-2.82593
11
6.25678
21
-2.8286
0
LINE
8
BLACK
6
CONTINUOUS
10
6.25678
20
-2.8286
11
6.26259
21
-2.83248
0
LINE
8
BLACK
6
CONTINUOUS
10
6.26259
20
-2.83248
11
6.26752
21
-2.83741
0
LINE
8
BLACK
6
CONTINUOUS
10
6.26752
20
-2.83741
11
6.2714
21
-2.84322
0
LINE
8
BLACK
6
CONTINUOUS
10
6.2714
20
-2.84322
11
6.27407
21
-2.84966
0
LINE
8
BLACK
6
CONTINUOUS
10
6.27407
20
-2.84966
11
6.27543
21
-2.85651
0
LINE
8
BLACK
6
CONTINUOUS
10
6.27543
20
-2.85651
11
6.27543
21
-2.86349
0
LINE
8
BLACK
6
CONTINUOUS
10
6.27543
20
-2.86349
11
6.27407
21
-2.87034
0
LINE
8
BLACK
6
CONTINUOUS
10
6.27407
20
-2.87034
11
6.2714
21
-2.87678
0
LINE
8
BLACK
6
CONTINUOUS
10
6.2714
20
-2.87678
11
6.26752
21
-2.88259
0
LINE
8
BLACK
6
CONTINUOUS
10
6.26752
20
-2.88259
11
6.26259
21
-2.88752
0
LINE
8
BLACK
6
CONTINUOUS
10
6.26259
20
-2.88752
11
6.25678
21
-2.8914
0
LINE
8
BLACK
6
CONTINUOUS
10
6.25678
20
-2.8914
11
6.25034
21
-2.89407
0
LINE
8
BLACK
6
CONTINUOUS
10
6.25034
20
-2.89407
11
6.24349
21
-2.89543
0
LINE
8
BLACK
6
CONTINUOUS
10
6.24349
20
-2.89543
11
6.23651
21
-2.89543
0
LINE
8
BLACK
6
CONTINUOUS
10
6.23651
20
-2.89543
11
6.22966
21
-2.89407
0
LINE
8
BLACK
6
CONTINUOUS
10
6.22966
20
-2.89407
11
6.22322
21
-2.8914
0
LINE
8
BLACK
6
CONTINUOUS
10
6.22322
20
-2.8914
11
6.21741
21
-2.88752
0
LINE
8
BLACK
6
CONTINUOUS
10
6.21741
20
-2.88752
11
6.21248
21
-2.88259
0
LINE
8
BLACK
6
CONTINUOUS
10
6.21248
20
-2.88259
11
6.2086
21
-2.87678
0
LINE
8
BLACK
6
CONTINUOUS
10
6.2086
20
-2.87678
11
6.20593
21
-2.87034
0
LINE
8
BLACK
6
CONTINUOUS
10
6.20593
20
-2.87034
11
6.20457
21
-2.86349
0
LINE
8
BLACK
6
CONTINUOUS
10
6.20457
20
-2.86349
11
6.20457
21
-2.85651
0
LINE
8
BLACK
6
CONTINUOUS
10
6.20457
20
-2.85651
11
6.20593
21
-2.84966
0
LINE
8
BLACK
6
CONTINUOUS
10
6.20593
20
-2.84966
11
6.2086
21
-2.84322
0
LINE
8
BLACK
6
CONTINUOUS
10
6.2086
20
-2.84322
11
6.21248
21
-2.83741
0
LINE
8
BLACK
6
CONTINUOUS
10
6.21248
20
-2.83741
11
6.21741
21
-2.83248
0
LINE
8
BLACK
6
CONTINUOUS
10
6.21741
20
-2.83248
11
6.22322
21
-2.8286
0
LINE
8
BLACK
6
CONTINUOUS
10
6.22322
20
-2.8286
11
6.22966
21
-2.82593
0
LINE
8
BLACK
6
CONTINUOUS
10
6.22966
20
-2.82593
11
6.23651
21
-2.82457
0
LINE
8
BLACK
6
CONTINUOUS
10
6.23651
20
-2.82457
11
6.24349
21
-2.82457
0
LINE
8
BLACK
6
CONTINUOUS
10
6.24349
20
-2.82457
11
6.25034
21
-2.82593
0
LINE
8
BLACK
6
CONTINUOUS
10
6.35034
20
-2.82593
11
6.35678
21
-2.8286
0
LINE
8
BLACK
6
CONTINUOUS
10
6.35678
20
-2.8286
11
6.36259
21
-2.83248
0
LINE
8
BLACK
6
CONTINUOUS
10
6.36259
20
-2.83248
11
6.36752
21
-2.83741
0
LINE
8
BLACK
6
CONTINUOUS
10
6.36752
20
-2.83741
11
6.3714
21
-2.84322
0
LINE
8
BLACK
6
CONTINUOUS
10
6.3714
20
-2.84322
11
6.37407
21
-2.84966
0
LINE
8
BLACK
6
CONTINUOUS
10
6.37407
20
-2.84966
11
6.37543
21
-2.85651
0
LINE
8
BLACK
6
CONTINUOUS
10
6.37543
20
-2.85651
11
6.37543
21
-2.86349
0
LINE
8
BLACK
6
CONTINUOUS
10
6.37543
20
-2.86349
11
6.37407
21
-2.87034
0
LINE
8
BLACK
6
CONTINUOUS
10
6.37407
20
-2.87034
11
6.3714
21
-2.87678
0
LINE
8
BLACK
6
CONTINUOUS
10
6.3714
20
-2.87678
11
6.36752
21
-2.88259
0
LINE
8
BLACK
6
CONTINUOUS
10
6.36752
20
-2.88259
11
6.36259
21
-2.88752
0
LINE
8
BLACK
6
CONTINUOUS
10
6.36259
20
-2.88752
11
6.35678
21
-2.8914
0
LINE
8
BLACK
6
CONTINUOUS
10
6.35678
20
-2.8914
11
6.35034
21
-2.89407
0
LINE
8
BLACK
6
CONTINUOUS
10
6.35034
20
-2.89407
11
6.34349
21
-2.89543
0
LINE
8
BLACK
6
CONTINUOUS
10
6.34349
20
-2.89543
11
6.33651
21
-2.89543
0
LINE
8
BLACK
6
CONTINUOUS
10
6.33651
20
-2.89543
11
6.32966
21
-2.89407
0
LINE
8
BLACK
6
CONTINUOUS
10
6.32966
20
-2.89407
11
6.32322
21
-2.8914
0
LINE
8
BLACK
6
CONTINUOUS
10
6.32322
20
-2.8914
11
6.31741
21
-2.88752
0
LINE
8
BLACK
6
CONTINUOUS
10
6.31741
20
-2.88752
11
6.31248
21
-2.88259
0
LINE
8
BLACK
6
CONTINUOUS
10
6.31248
20
-2.88259
11
6.3086
21
-2.87678
0
LINE
8
BLACK
6
CONTINUOUS
10
6.3086
20
-2.87678
11
6.30593
21
-2.87034
0
LINE
8
BLACK
6
CONTINUOUS
10
6.30593
20
-2.87034
11
6.30457
21
-2.86349
0
LINE
8
BLACK
6
CONTINUOUS
10
6.30457
20
-2.86349
11
6.30457
21
-2.85651
0
LINE
8
BLACK
6
CONTINUOUS
10
6.30457
20
-2.85651
11
6.30593
21
-2.84966
0
LINE
8
BLACK
6
CONTINUOUS
10
6.30593
20
-2.84966
11
6.3086
21
-2.84322
0
LINE
8
BLACK
6
CONTINUOUS
10
6.3086
20
-2.84322
11
6.31248
21
-2.83741
0
LINE
8
BLACK
6
CONTINUOUS
10
6.31248
20
-2.83741
11
6.31741
21
-2.83248
0
LINE
8
BLACK
6
CONTINUOUS
10
6.31741
20
-2.83248
11
6.32322
21
-2.8286
0
LINE
8
BLACK
6
CONTINUOUS
10
6.32322
20
-2.8286
11
6.32966
21
-2.82593
0
LINE
8
BLACK
6
CONTINUOUS
10
6.32966
20
-2.82593
11
6.33651
21
-2.82457
0
LINE
8
BLACK
6
CONTINUOUS
10
6.33651
20
-2.82457
11
6.34349
21
-2.82457
0
LINE
8
BLACK
6
CONTINUOUS
10
6.34349
20
-2.82457
11
6.35034
21
-2.82593
0
LINE
8
BLACK
6
CONTINUOUS
10
6.45034
20
-2.82593
11
6.45678
21
-2.8286
0
LINE
8
BLACK
6
CONTINUOUS
10
6.45678
20
-2.8286
11
6.46259
21
-2.83248
0
LINE
8
BLACK
6
CONTINUOUS
10
6.46259
20
-2.83248
11
6.46752
21
-2.83741
0
LINE
8
BLACK
6
CONTINUOUS
10
6.46752
20
-2.83741
11
6.4714
21
-2.84322
0
LINE
8
BLACK
6
CONTINUOUS
10
6.4714
20
-2.84322
11
6.47407
21
-2.84966
0
LINE
8
BLACK
6
CONTINUOUS
10
6.47407
20
-2.84966
11
6.47543
21
-2.85651
0
LINE
8
BLACK
6
CONTINUOUS
10
6.47543
20
-2.85651
11
6.47543
21
-2.86349
0
LINE
8
BLACK
6
CONTINUOUS
10
6.47543
20
-2.86349
11
6.47407
21
-2.87034
0
LINE
8
BLACK
6
CONTINUOUS
10
6.47407
20
-2.87034
11
6.4714
21
-2.87678
0
LINE
8
BLACK
6
CONTINUOUS
10
6.4714
20
-2.87678
11
6.46752
21
-2.88259
0
LINE
8
BLACK
6
CONTINUOUS
10
6.46752
20
-2.88259
11
6.46259
21
-2.88752
0
LINE
8
BLACK
6
CONTINUOUS
10
6.46259
20
-2.88752
11
6.45678
21
-2.8914
0
LINE
8
BLACK
6
CONTINUOUS
10
6.45678
20
-2.8914
11
6.45034
21
-2.89407
0
LINE
8
BLACK
6
CONTINUOUS
10
6.45034
20
-2.89407
11
6.44349
21
-2.89543
0
LINE
8
BLACK
6
CONTINUOUS
10
6.44349
20
-2.89543
11
6.43651
21
-2.89543
0
LINE
8
BLACK
6
CONTINUOUS
10
6.43651
20
-2.89543
11
6.42966
21
-2.89407
0
LINE
8
BLACK
6
CONTINUOUS
10
6.42966
20
-2.89407
11
6.42322
21
-2.8914
0
LINE
8
BLACK
6
CONTINUOUS
10
6.42322
20
-2.8914
11
6.41741
21
-2.88752
0
LINE
8
BLACK
6
CONTINUOUS
10
6.41741
20
-2.88752
11
6.41248
21
-2.88259
0
LINE
8
BLACK
6
CONTINUOUS
10
6.41248
20
-2.88259
11
6.4086
21
-2.87678
0
LINE
8
BLACK
6
CONTINUOUS
10
6.4086
20
-2.87678
11
6.40593
21
-2.87034
0
LINE
8
BLACK
6
CONTINUOUS
10
6.40593
20
-2.87034
11
6.40457
21
-2.86349
0
LINE
8
BLACK
6
CONTINUOUS
10
6.40457
20
-2.86349
11
6.40457
21
-2.85651
0
LINE
8
BLACK
6
CONTINUOUS
10
6.40457
20
-2.85651
11
6.40593
21
-2.84966
0
LINE
8
BLACK
6
CONTINUOUS
10
6.40593
20
-2.84966
11
6.4086
21
-2.84322
0
LINE
8
BLACK
6
CONTINUOUS
10
6.4086
20
-2.84322
11
6.41248
21
-2.83741
0
LINE
8
BLACK
6
CONTINUOUS
10
6.41248
20
-2.83741
11
6.41741
21
-2.83248
0
LINE
8
BLACK
6
CONTINUOUS
10
6.41741
20
-2.83248
11
6.42322
21
-2.8286
0
LINE
8
BLACK
6
CONTINUOUS
10
6.42322
20
-2.8286
11
6.42966
21
-2.82593
0
LINE
8
BLACK
6
CONTINUOUS
10
6.42966
20
-2.82593
11
6.43651
21
-2.82457
0
LINE
8
BLACK
6
CONTINUOUS
10
6.43651
20
-2.82457
11
6.44349
21
-2.82457
0
LINE
8
BLACK
6
CONTINUOUS
10
6.44349
20
-2.82457
11
6.45034
21
-2.82593
  0
ENDSEC
  0
EOF
