%TF.GenerationSoftware,KiCad,Pcbnew,(5.1.6-0-10_14)*%
%TF.CreationDate,2021-01-24T21:36:40+01:00*%
%TF.ProjectId,CAN_Display,43414e5f-4469-4737-906c-61792e6b6963,rev?*%
%TF.SameCoordinates,Original*%
%TF.FileFunction,Legend,Top*%
%TF.FilePolarity,Positive*%
%FSLAX46Y46*%
G04 Gerber Fmt 4.6, Leading zero omitted, Abs format (unit mm)*
G04 Created by KiCad (PCBNEW (5.1.6-0-10_14)) date 2021-01-24 21:36:40*
%MOMM*%
%LPD*%
G01*
G04 APERTURE LIST*
%ADD10C,0.120000*%
%ADD11C,0.150000*%
G04 APERTURE END LIST*
D10*
%TO.C,D1*%
X163192000Y-106054000D02*
X168892000Y-106054000D01*
X163192000Y-110354000D02*
X168892000Y-110354000D01*
X163192000Y-106054000D02*
X163192000Y-110354000D01*
%TO.C,C9*%
X171161500Y-74243500D02*
X170536500Y-74243500D01*
X170849000Y-73931000D02*
X170849000Y-74556000D01*
X167468437Y-74796000D02*
X166404000Y-75860437D01*
X170859563Y-74796000D02*
X171924000Y-75860437D01*
X170859563Y-74796000D02*
X170224000Y-74796000D01*
X167468437Y-74796000D02*
X168104000Y-74796000D01*
X166404000Y-75860437D02*
X166404000Y-80316000D01*
X171924000Y-75860437D02*
X171924000Y-80316000D01*
X171924000Y-80316000D02*
X170224000Y-80316000D01*
X166404000Y-80316000D02*
X168104000Y-80316000D01*
%TO.C,J5*%
X150174000Y-103318000D02*
X150174000Y-104648000D01*
X148844000Y-103318000D02*
X150174000Y-103318000D01*
X150174000Y-105918000D02*
X150174000Y-108518000D01*
X147574000Y-105918000D02*
X150174000Y-105918000D01*
X147574000Y-103318000D02*
X147574000Y-105918000D01*
X150174000Y-108518000D02*
X142434000Y-108518000D01*
X147574000Y-103318000D02*
X142434000Y-103318000D01*
X142434000Y-103318000D02*
X142434000Y-108518000D01*
%TO.C,J4*%
X149546000Y-73974000D02*
X149546000Y-72644000D01*
X150876000Y-73974000D02*
X149546000Y-73974000D01*
X152146000Y-73974000D02*
X152146000Y-71314000D01*
X152146000Y-71314000D02*
X164906000Y-71314000D01*
X152146000Y-73974000D02*
X164906000Y-73974000D01*
X164906000Y-73974000D02*
X164906000Y-71314000D01*
%TO.C,J1*%
X167330000Y-99590000D02*
X167330000Y-100920000D01*
X166000000Y-99590000D02*
X167330000Y-99590000D01*
X164730000Y-99590000D02*
X164730000Y-102250000D01*
X164730000Y-102250000D02*
X144350000Y-102250000D01*
X164730000Y-99590000D02*
X144350000Y-99590000D01*
X144350000Y-99590000D02*
X144350000Y-102250000D01*
%TO.C,R6*%
X162358000Y-76437748D02*
X162358000Y-76960252D01*
X163778000Y-76437748D02*
X163778000Y-76960252D01*
%TO.C,R5*%
X164390000Y-76437748D02*
X164390000Y-76960252D01*
X165810000Y-76437748D02*
X165810000Y-76960252D01*
%TO.C,R4*%
X154290000Y-96633748D02*
X154290000Y-97156252D01*
X155710000Y-96633748D02*
X155710000Y-97156252D01*
%TO.C,R2*%
X171502000Y-104885748D02*
X171502000Y-105408252D01*
X172922000Y-104885748D02*
X172922000Y-105408252D01*
%TO.C,R1*%
X153671748Y-76910000D02*
X154194252Y-76910000D01*
X153671748Y-75490000D02*
X154194252Y-75490000D01*
%TO.C,JP1*%
X173752000Y-103174000D02*
X173752000Y-101774000D01*
X174452000Y-101074000D02*
X175052000Y-101074000D01*
X175752000Y-101774000D02*
X175752000Y-103174000D01*
X175052000Y-103874000D02*
X174452000Y-103874000D01*
X174452000Y-103874000D02*
G75*
G02*
X173752000Y-103174000I0J700000D01*
G01*
X175752000Y-103174000D02*
G75*
G02*
X175052000Y-103874000I-700000J0D01*
G01*
X175052000Y-101074000D02*
G75*
G02*
X175752000Y-101774000I0J-700000D01*
G01*
X173752000Y-101774000D02*
G75*
G02*
X174452000Y-101074000I700000J0D01*
G01*
%TO.C,D4*%
X156000000Y-98820000D02*
X156000000Y-94920000D01*
X158000000Y-98820000D02*
X158000000Y-94920000D01*
X156000000Y-98820000D02*
X158000000Y-98820000D01*
%TO.C,D3*%
X161380000Y-77200000D02*
X157480000Y-77200000D01*
X161380000Y-75200000D02*
X157480000Y-75200000D01*
X161380000Y-77200000D02*
X161380000Y-75200000D01*
%TO.C,C14*%
X152290000Y-96633748D02*
X152290000Y-97156252D01*
X153710000Y-96633748D02*
X153710000Y-97156252D01*
%TO.C,C12*%
X153671748Y-78942000D02*
X154194252Y-78942000D01*
X153671748Y-77522000D02*
X154194252Y-77522000D01*
%TO.C,C11*%
X163831748Y-80974000D02*
X164354252Y-80974000D01*
X163831748Y-79554000D02*
X164354252Y-79554000D01*
%TO.C,C8*%
X166713748Y-105358000D02*
X167236252Y-105358000D01*
X166713748Y-103938000D02*
X167236252Y-103938000D01*
%TO.C,C7*%
X163270000Y-96264252D02*
X163270000Y-95741748D01*
X161850000Y-96264252D02*
X161850000Y-95741748D01*
%TO.C,C6*%
X149554000Y-79500252D02*
X149554000Y-78977748D01*
X148134000Y-79500252D02*
X148134000Y-78977748D01*
%TO.C,C5*%
X145525748Y-76910000D02*
X146048252Y-76910000D01*
X145525748Y-75490000D02*
X146048252Y-75490000D01*
%TO.C,C4*%
X175497748Y-100278000D02*
X176020252Y-100278000D01*
X175497748Y-98858000D02*
X176020252Y-98858000D01*
%TO.C,C3*%
X175970000Y-83056252D02*
X175970000Y-82533748D01*
X174550000Y-83056252D02*
X174550000Y-82533748D01*
%TO.C,C2*%
X148080252Y-95810000D02*
X147557748Y-95810000D01*
X148080252Y-97230000D02*
X147557748Y-97230000D01*
%TO.C,C1*%
X146048252Y-79554000D02*
X145525748Y-79554000D01*
X146048252Y-80974000D02*
X145525748Y-80974000D01*
%TO.C,U3*%
X172867000Y-99503000D02*
X172867000Y-96053000D01*
X172867000Y-99503000D02*
X172867000Y-101453000D01*
X167747000Y-99503000D02*
X167747000Y-97553000D01*
X167747000Y-99503000D02*
X167747000Y-101453000D01*
%TO.C,U2*%
X167350000Y-81999000D02*
X163490000Y-81999000D01*
X163490000Y-81999000D02*
X163490000Y-82244000D01*
X167350000Y-81999000D02*
X171210000Y-81999000D01*
X171210000Y-81999000D02*
X171210000Y-82244000D01*
X167350000Y-93769000D02*
X163490000Y-93769000D01*
X163490000Y-93769000D02*
X163490000Y-93524000D01*
X167350000Y-93769000D02*
X171210000Y-93769000D01*
X171210000Y-93769000D02*
X171210000Y-93524000D01*
X171210000Y-93524000D02*
X173025000Y-93524000D01*
%TO.C,J3*%
X162435000Y-106220000D02*
X162435000Y-105910000D01*
X162435000Y-105910000D02*
X152565000Y-105910000D01*
X152565000Y-105910000D02*
X152565000Y-106220000D01*
X162435000Y-107740000D02*
X162435000Y-113500000D01*
X162435000Y-113500000D02*
X161015000Y-113500000D01*
X161015000Y-113500000D02*
X161015000Y-113000000D01*
X161015000Y-113000000D02*
X153985000Y-113000000D01*
X153985000Y-113000000D02*
X153985000Y-113500000D01*
X153985000Y-113500000D02*
X152565000Y-113500000D01*
X152565000Y-113500000D02*
X152565000Y-107740000D01*
%TO.C,J2*%
X138935000Y-101355000D02*
X142010000Y-101355000D01*
X142010000Y-101355000D02*
X142010000Y-82485000D01*
X142010000Y-82485000D02*
X138935000Y-82485000D01*
X137420000Y-99915000D02*
X137420000Y-99935000D01*
X137420000Y-99935000D02*
X137920000Y-99935000D01*
X137920000Y-99935000D02*
X137920000Y-83905000D01*
X137920000Y-83905000D02*
X137420000Y-83905000D01*
X137420000Y-83905000D02*
X137420000Y-83925000D01*
D11*
%TO.C,U1*%
X151931000Y-81025000D02*
X151931000Y-81250000D01*
X159181000Y-81025000D02*
X159181000Y-81350000D01*
X159181000Y-88275000D02*
X159181000Y-87950000D01*
X151931000Y-88275000D02*
X151931000Y-87950000D01*
X151931000Y-81025000D02*
X152256000Y-81025000D01*
X151931000Y-88275000D02*
X152256000Y-88275000D01*
X159181000Y-88275000D02*
X158856000Y-88275000D01*
X159181000Y-81025000D02*
X158856000Y-81025000D01*
X151931000Y-81250000D02*
X150506000Y-81250000D01*
D10*
%TO.C,Y1*%
X144450000Y-81470000D02*
X144450000Y-94070000D01*
X149550000Y-81470000D02*
X144450000Y-81470000D01*
X149550000Y-94070000D02*
X149550000Y-81470000D01*
%TO.C,Y2*%
X173450000Y-84970000D02*
X173450000Y-97570000D01*
X178550000Y-84970000D02*
X173450000Y-84970000D01*
X178550000Y-97570000D02*
X178550000Y-84970000D01*
%TO.C,D1*%
D11*
X166003904Y-105656380D02*
X166003904Y-104656380D01*
X166242000Y-104656380D01*
X166384857Y-104704000D01*
X166480095Y-104799238D01*
X166527714Y-104894476D01*
X166575333Y-105084952D01*
X166575333Y-105227809D01*
X166527714Y-105418285D01*
X166480095Y-105513523D01*
X166384857Y-105608761D01*
X166242000Y-105656380D01*
X166003904Y-105656380D01*
X167527714Y-105656380D02*
X166956285Y-105656380D01*
X167242000Y-105656380D02*
X167242000Y-104656380D01*
X167146761Y-104799238D01*
X167051523Y-104894476D01*
X166956285Y-104942095D01*
%TO.C,C9*%
X173221142Y-77722666D02*
X173268761Y-77770285D01*
X173316380Y-77913142D01*
X173316380Y-78008380D01*
X173268761Y-78151238D01*
X173173523Y-78246476D01*
X173078285Y-78294095D01*
X172887809Y-78341714D01*
X172744952Y-78341714D01*
X172554476Y-78294095D01*
X172459238Y-78246476D01*
X172364000Y-78151238D01*
X172316380Y-78008380D01*
X172316380Y-77913142D01*
X172364000Y-77770285D01*
X172411619Y-77722666D01*
X173316380Y-77246476D02*
X173316380Y-77056000D01*
X173268761Y-76960761D01*
X173221142Y-76913142D01*
X173078285Y-76817904D01*
X172887809Y-76770285D01*
X172506857Y-76770285D01*
X172411619Y-76817904D01*
X172364000Y-76865523D01*
X172316380Y-76960761D01*
X172316380Y-77151238D01*
X172364000Y-77246476D01*
X172411619Y-77294095D01*
X172506857Y-77341714D01*
X172744952Y-77341714D01*
X172840190Y-77294095D01*
X172887809Y-77246476D01*
X172935428Y-77151238D01*
X172935428Y-76960761D01*
X172887809Y-76865523D01*
X172840190Y-76817904D01*
X172744952Y-76770285D01*
%TO.C,J5*%
X150626380Y-106251333D02*
X151340666Y-106251333D01*
X151483523Y-106298952D01*
X151578761Y-106394190D01*
X151626380Y-106537047D01*
X151626380Y-106632285D01*
X150626380Y-105298952D02*
X150626380Y-105775142D01*
X151102571Y-105822761D01*
X151054952Y-105775142D01*
X151007333Y-105679904D01*
X151007333Y-105441809D01*
X151054952Y-105346571D01*
X151102571Y-105298952D01*
X151197809Y-105251333D01*
X151435904Y-105251333D01*
X151531142Y-105298952D01*
X151578761Y-105346571D01*
X151626380Y-105441809D01*
X151626380Y-105679904D01*
X151578761Y-105775142D01*
X151531142Y-105822761D01*
%TO.C,J4*%
X147998380Y-72977333D02*
X148712666Y-72977333D01*
X148855523Y-73024952D01*
X148950761Y-73120190D01*
X148998380Y-73263047D01*
X148998380Y-73358285D01*
X148331714Y-72072571D02*
X148998380Y-72072571D01*
X147950761Y-72310666D02*
X148665047Y-72548761D01*
X148665047Y-71929714D01*
%TO.C,J1*%
X167782380Y-101253333D02*
X168496666Y-101253333D01*
X168639523Y-101300952D01*
X168734761Y-101396190D01*
X168782380Y-101539047D01*
X168782380Y-101634285D01*
X168782380Y-100253333D02*
X168782380Y-100824761D01*
X168782380Y-100539047D02*
X167782380Y-100539047D01*
X167925238Y-100634285D01*
X168020476Y-100729523D01*
X168068095Y-100824761D01*
%TO.C,R6*%
X165170380Y-76865666D02*
X164694190Y-77199000D01*
X165170380Y-77437095D02*
X164170380Y-77437095D01*
X164170380Y-77056142D01*
X164218000Y-76960904D01*
X164265619Y-76913285D01*
X164360857Y-76865666D01*
X164503714Y-76865666D01*
X164598952Y-76913285D01*
X164646571Y-76960904D01*
X164694190Y-77056142D01*
X164694190Y-77437095D01*
X164170380Y-76008523D02*
X164170380Y-76199000D01*
X164218000Y-76294238D01*
X164265619Y-76341857D01*
X164408476Y-76437095D01*
X164598952Y-76484714D01*
X164979904Y-76484714D01*
X165075142Y-76437095D01*
X165122761Y-76389476D01*
X165170380Y-76294238D01*
X165170380Y-76103761D01*
X165122761Y-76008523D01*
X165075142Y-75960904D01*
X164979904Y-75913285D01*
X164741809Y-75913285D01*
X164646571Y-75960904D01*
X164598952Y-76008523D01*
X164551333Y-76103761D01*
X164551333Y-76294238D01*
X164598952Y-76389476D01*
X164646571Y-76437095D01*
X164741809Y-76484714D01*
%TO.C,R5*%
X167202380Y-76865666D02*
X166726190Y-77199000D01*
X167202380Y-77437095D02*
X166202380Y-77437095D01*
X166202380Y-77056142D01*
X166250000Y-76960904D01*
X166297619Y-76913285D01*
X166392857Y-76865666D01*
X166535714Y-76865666D01*
X166630952Y-76913285D01*
X166678571Y-76960904D01*
X166726190Y-77056142D01*
X166726190Y-77437095D01*
X166202380Y-75960904D02*
X166202380Y-76437095D01*
X166678571Y-76484714D01*
X166630952Y-76437095D01*
X166583333Y-76341857D01*
X166583333Y-76103761D01*
X166630952Y-76008523D01*
X166678571Y-75960904D01*
X166773809Y-75913285D01*
X167011904Y-75913285D01*
X167107142Y-75960904D01*
X167154761Y-76008523D01*
X167202380Y-76103761D01*
X167202380Y-76341857D01*
X167154761Y-76437095D01*
X167107142Y-76484714D01*
%TO.C,R4*%
X157102380Y-97061666D02*
X156626190Y-97395000D01*
X157102380Y-97633095D02*
X156102380Y-97633095D01*
X156102380Y-97252142D01*
X156150000Y-97156904D01*
X156197619Y-97109285D01*
X156292857Y-97061666D01*
X156435714Y-97061666D01*
X156530952Y-97109285D01*
X156578571Y-97156904D01*
X156626190Y-97252142D01*
X156626190Y-97633095D01*
X156435714Y-96204523D02*
X157102380Y-96204523D01*
X156054761Y-96442619D02*
X156769047Y-96680714D01*
X156769047Y-96061666D01*
%TO.C,R2*%
X174314380Y-105313666D02*
X173838190Y-105647000D01*
X174314380Y-105885095D02*
X173314380Y-105885095D01*
X173314380Y-105504142D01*
X173362000Y-105408904D01*
X173409619Y-105361285D01*
X173504857Y-105313666D01*
X173647714Y-105313666D01*
X173742952Y-105361285D01*
X173790571Y-105408904D01*
X173838190Y-105504142D01*
X173838190Y-105885095D01*
X173409619Y-104932714D02*
X173362000Y-104885095D01*
X173314380Y-104789857D01*
X173314380Y-104551761D01*
X173362000Y-104456523D01*
X173409619Y-104408904D01*
X173504857Y-104361285D01*
X173600095Y-104361285D01*
X173742952Y-104408904D01*
X174314380Y-104980333D01*
X174314380Y-104361285D01*
%TO.C,R1*%
X156823333Y-76652380D02*
X156490000Y-76176190D01*
X156251904Y-76652380D02*
X156251904Y-75652380D01*
X156632857Y-75652380D01*
X156728095Y-75700000D01*
X156775714Y-75747619D01*
X156823333Y-75842857D01*
X156823333Y-75985714D01*
X156775714Y-76080952D01*
X156728095Y-76128571D01*
X156632857Y-76176190D01*
X156251904Y-76176190D01*
X157775714Y-76652380D02*
X157204285Y-76652380D01*
X157490000Y-76652380D02*
X157490000Y-75652380D01*
X157394761Y-75795238D01*
X157299523Y-75890476D01*
X157204285Y-75938095D01*
%TO.C,JP1*%
X172404380Y-103307333D02*
X173118666Y-103307333D01*
X173261523Y-103354952D01*
X173356761Y-103450190D01*
X173404380Y-103593047D01*
X173404380Y-103688285D01*
X173404380Y-102831142D02*
X172404380Y-102831142D01*
X172404380Y-102450190D01*
X172452000Y-102354952D01*
X172499619Y-102307333D01*
X172594857Y-102259714D01*
X172737714Y-102259714D01*
X172832952Y-102307333D01*
X172880571Y-102354952D01*
X172928190Y-102450190D01*
X172928190Y-102831142D01*
X173404380Y-101307333D02*
X173404380Y-101878761D01*
X173404380Y-101593047D02*
X172404380Y-101593047D01*
X172547238Y-101688285D01*
X172642476Y-101783523D01*
X172690095Y-101878761D01*
%TO.C,D4*%
X155452380Y-97308095D02*
X154452380Y-97308095D01*
X154452380Y-97070000D01*
X154500000Y-96927142D01*
X154595238Y-96831904D01*
X154690476Y-96784285D01*
X154880952Y-96736666D01*
X155023809Y-96736666D01*
X155214285Y-96784285D01*
X155309523Y-96831904D01*
X155404761Y-96927142D01*
X155452380Y-97070000D01*
X155452380Y-97308095D01*
X154785714Y-95879523D02*
X155452380Y-95879523D01*
X154404761Y-96117619D02*
X155119047Y-96355714D01*
X155119047Y-95736666D01*
%TO.C,D3*%
X158391904Y-78652380D02*
X158391904Y-77652380D01*
X158630000Y-77652380D01*
X158772857Y-77700000D01*
X158868095Y-77795238D01*
X158915714Y-77890476D01*
X158963333Y-78080952D01*
X158963333Y-78223809D01*
X158915714Y-78414285D01*
X158868095Y-78509523D01*
X158772857Y-78604761D01*
X158630000Y-78652380D01*
X158391904Y-78652380D01*
X159296666Y-77652380D02*
X159915714Y-77652380D01*
X159582380Y-78033333D01*
X159725238Y-78033333D01*
X159820476Y-78080952D01*
X159868095Y-78128571D01*
X159915714Y-78223809D01*
X159915714Y-78461904D01*
X159868095Y-78557142D01*
X159820476Y-78604761D01*
X159725238Y-78652380D01*
X159439523Y-78652380D01*
X159344285Y-78604761D01*
X159296666Y-78557142D01*
%TO.C,C14*%
X155007142Y-97537857D02*
X155054761Y-97585476D01*
X155102380Y-97728333D01*
X155102380Y-97823571D01*
X155054761Y-97966428D01*
X154959523Y-98061666D01*
X154864285Y-98109285D01*
X154673809Y-98156904D01*
X154530952Y-98156904D01*
X154340476Y-98109285D01*
X154245238Y-98061666D01*
X154150000Y-97966428D01*
X154102380Y-97823571D01*
X154102380Y-97728333D01*
X154150000Y-97585476D01*
X154197619Y-97537857D01*
X155102380Y-96585476D02*
X155102380Y-97156904D01*
X155102380Y-96871190D02*
X154102380Y-96871190D01*
X154245238Y-96966428D01*
X154340476Y-97061666D01*
X154388095Y-97156904D01*
X154435714Y-95728333D02*
X155102380Y-95728333D01*
X154054761Y-95966428D02*
X154769047Y-96204523D01*
X154769047Y-95585476D01*
%TO.C,C12*%
X156347142Y-78589142D02*
X156299523Y-78636761D01*
X156156666Y-78684380D01*
X156061428Y-78684380D01*
X155918571Y-78636761D01*
X155823333Y-78541523D01*
X155775714Y-78446285D01*
X155728095Y-78255809D01*
X155728095Y-78112952D01*
X155775714Y-77922476D01*
X155823333Y-77827238D01*
X155918571Y-77732000D01*
X156061428Y-77684380D01*
X156156666Y-77684380D01*
X156299523Y-77732000D01*
X156347142Y-77779619D01*
X157299523Y-78684380D02*
X156728095Y-78684380D01*
X157013809Y-78684380D02*
X157013809Y-77684380D01*
X156918571Y-77827238D01*
X156823333Y-77922476D01*
X156728095Y-77970095D01*
X157680476Y-77779619D02*
X157728095Y-77732000D01*
X157823333Y-77684380D01*
X158061428Y-77684380D01*
X158156666Y-77732000D01*
X158204285Y-77779619D01*
X158251904Y-77874857D01*
X158251904Y-77970095D01*
X158204285Y-78112952D01*
X157632857Y-78684380D01*
X158251904Y-78684380D01*
%TO.C,C11*%
X163450142Y-78971142D02*
X163402523Y-79018761D01*
X163259666Y-79066380D01*
X163164428Y-79066380D01*
X163021571Y-79018761D01*
X162926333Y-78923523D01*
X162878714Y-78828285D01*
X162831095Y-78637809D01*
X162831095Y-78494952D01*
X162878714Y-78304476D01*
X162926333Y-78209238D01*
X163021571Y-78114000D01*
X163164428Y-78066380D01*
X163259666Y-78066380D01*
X163402523Y-78114000D01*
X163450142Y-78161619D01*
X164402523Y-79066380D02*
X163831095Y-79066380D01*
X164116809Y-79066380D02*
X164116809Y-78066380D01*
X164021571Y-78209238D01*
X163926333Y-78304476D01*
X163831095Y-78352095D01*
X165354904Y-79066380D02*
X164783476Y-79066380D01*
X165069190Y-79066380D02*
X165069190Y-78066380D01*
X164973952Y-78209238D01*
X164878714Y-78304476D01*
X164783476Y-78352095D01*
%TO.C,C8*%
X166808333Y-103355142D02*
X166760714Y-103402761D01*
X166617857Y-103450380D01*
X166522619Y-103450380D01*
X166379761Y-103402761D01*
X166284523Y-103307523D01*
X166236904Y-103212285D01*
X166189285Y-103021809D01*
X166189285Y-102878952D01*
X166236904Y-102688476D01*
X166284523Y-102593238D01*
X166379761Y-102498000D01*
X166522619Y-102450380D01*
X166617857Y-102450380D01*
X166760714Y-102498000D01*
X166808333Y-102545619D01*
X167379761Y-102878952D02*
X167284523Y-102831333D01*
X167236904Y-102783714D01*
X167189285Y-102688476D01*
X167189285Y-102640857D01*
X167236904Y-102545619D01*
X167284523Y-102498000D01*
X167379761Y-102450380D01*
X167570238Y-102450380D01*
X167665476Y-102498000D01*
X167713095Y-102545619D01*
X167760714Y-102640857D01*
X167760714Y-102688476D01*
X167713095Y-102783714D01*
X167665476Y-102831333D01*
X167570238Y-102878952D01*
X167379761Y-102878952D01*
X167284523Y-102926571D01*
X167236904Y-102974190D01*
X167189285Y-103069428D01*
X167189285Y-103259904D01*
X167236904Y-103355142D01*
X167284523Y-103402761D01*
X167379761Y-103450380D01*
X167570238Y-103450380D01*
X167665476Y-103402761D01*
X167713095Y-103355142D01*
X167760714Y-103259904D01*
X167760714Y-103069428D01*
X167713095Y-102974190D01*
X167665476Y-102926571D01*
X167570238Y-102878952D01*
%TO.C,C7*%
X161267142Y-96169666D02*
X161314761Y-96217285D01*
X161362380Y-96360142D01*
X161362380Y-96455380D01*
X161314761Y-96598238D01*
X161219523Y-96693476D01*
X161124285Y-96741095D01*
X160933809Y-96788714D01*
X160790952Y-96788714D01*
X160600476Y-96741095D01*
X160505238Y-96693476D01*
X160410000Y-96598238D01*
X160362380Y-96455380D01*
X160362380Y-96360142D01*
X160410000Y-96217285D01*
X160457619Y-96169666D01*
X160362380Y-95836333D02*
X160362380Y-95169666D01*
X161362380Y-95598238D01*
%TO.C,C6*%
X147551142Y-79405666D02*
X147598761Y-79453285D01*
X147646380Y-79596142D01*
X147646380Y-79691380D01*
X147598761Y-79834238D01*
X147503523Y-79929476D01*
X147408285Y-79977095D01*
X147217809Y-80024714D01*
X147074952Y-80024714D01*
X146884476Y-79977095D01*
X146789238Y-79929476D01*
X146694000Y-79834238D01*
X146646380Y-79691380D01*
X146646380Y-79596142D01*
X146694000Y-79453285D01*
X146741619Y-79405666D01*
X146646380Y-78548523D02*
X146646380Y-78739000D01*
X146694000Y-78834238D01*
X146741619Y-78881857D01*
X146884476Y-78977095D01*
X147074952Y-79024714D01*
X147455904Y-79024714D01*
X147551142Y-78977095D01*
X147598761Y-78929476D01*
X147646380Y-78834238D01*
X147646380Y-78643761D01*
X147598761Y-78548523D01*
X147551142Y-78500904D01*
X147455904Y-78453285D01*
X147217809Y-78453285D01*
X147122571Y-78500904D01*
X147074952Y-78548523D01*
X147027333Y-78643761D01*
X147027333Y-78834238D01*
X147074952Y-78929476D01*
X147122571Y-78977095D01*
X147217809Y-79024714D01*
%TO.C,C5*%
X145103333Y-75033142D02*
X145055714Y-75080761D01*
X144912857Y-75128380D01*
X144817619Y-75128380D01*
X144674761Y-75080761D01*
X144579523Y-74985523D01*
X144531904Y-74890285D01*
X144484285Y-74699809D01*
X144484285Y-74556952D01*
X144531904Y-74366476D01*
X144579523Y-74271238D01*
X144674761Y-74176000D01*
X144817619Y-74128380D01*
X144912857Y-74128380D01*
X145055714Y-74176000D01*
X145103333Y-74223619D01*
X146008095Y-74128380D02*
X145531904Y-74128380D01*
X145484285Y-74604571D01*
X145531904Y-74556952D01*
X145627142Y-74509333D01*
X145865238Y-74509333D01*
X145960476Y-74556952D01*
X146008095Y-74604571D01*
X146055714Y-74699809D01*
X146055714Y-74937904D01*
X146008095Y-75033142D01*
X145960476Y-75080761D01*
X145865238Y-75128380D01*
X145627142Y-75128380D01*
X145531904Y-75080761D01*
X145484285Y-75033142D01*
%TO.C,C4*%
X175592333Y-98275142D02*
X175544714Y-98322761D01*
X175401857Y-98370380D01*
X175306619Y-98370380D01*
X175163761Y-98322761D01*
X175068523Y-98227523D01*
X175020904Y-98132285D01*
X174973285Y-97941809D01*
X174973285Y-97798952D01*
X175020904Y-97608476D01*
X175068523Y-97513238D01*
X175163761Y-97418000D01*
X175306619Y-97370380D01*
X175401857Y-97370380D01*
X175544714Y-97418000D01*
X175592333Y-97465619D01*
X176449476Y-97703714D02*
X176449476Y-98370380D01*
X176211380Y-97322761D02*
X175973285Y-98037047D01*
X176592333Y-98037047D01*
%TO.C,C3*%
X173967142Y-82961666D02*
X174014761Y-83009285D01*
X174062380Y-83152142D01*
X174062380Y-83247380D01*
X174014761Y-83390238D01*
X173919523Y-83485476D01*
X173824285Y-83533095D01*
X173633809Y-83580714D01*
X173490952Y-83580714D01*
X173300476Y-83533095D01*
X173205238Y-83485476D01*
X173110000Y-83390238D01*
X173062380Y-83247380D01*
X173062380Y-83152142D01*
X173110000Y-83009285D01*
X173157619Y-82961666D01*
X173062380Y-82628333D02*
X173062380Y-82009285D01*
X173443333Y-82342619D01*
X173443333Y-82199761D01*
X173490952Y-82104523D01*
X173538571Y-82056904D01*
X173633809Y-82009285D01*
X173871904Y-82009285D01*
X173967142Y-82056904D01*
X174014761Y-82104523D01*
X174062380Y-82199761D01*
X174062380Y-82485476D01*
X174014761Y-82580714D01*
X173967142Y-82628333D01*
%TO.C,C2*%
X147652333Y-98527142D02*
X147604714Y-98574761D01*
X147461857Y-98622380D01*
X147366619Y-98622380D01*
X147223761Y-98574761D01*
X147128523Y-98479523D01*
X147080904Y-98384285D01*
X147033285Y-98193809D01*
X147033285Y-98050952D01*
X147080904Y-97860476D01*
X147128523Y-97765238D01*
X147223761Y-97670000D01*
X147366619Y-97622380D01*
X147461857Y-97622380D01*
X147604714Y-97670000D01*
X147652333Y-97717619D01*
X148033285Y-97717619D02*
X148080904Y-97670000D01*
X148176142Y-97622380D01*
X148414238Y-97622380D01*
X148509476Y-97670000D01*
X148557095Y-97717619D01*
X148604714Y-97812857D01*
X148604714Y-97908095D01*
X148557095Y-98050952D01*
X147985666Y-98622380D01*
X148604714Y-98622380D01*
%TO.C,C1*%
X145620333Y-82271142D02*
X145572714Y-82318761D01*
X145429857Y-82366380D01*
X145334619Y-82366380D01*
X145191761Y-82318761D01*
X145096523Y-82223523D01*
X145048904Y-82128285D01*
X145001285Y-81937809D01*
X145001285Y-81794952D01*
X145048904Y-81604476D01*
X145096523Y-81509238D01*
X145191761Y-81414000D01*
X145334619Y-81366380D01*
X145429857Y-81366380D01*
X145572714Y-81414000D01*
X145620333Y-81461619D01*
X146572714Y-82366380D02*
X146001285Y-82366380D01*
X146287000Y-82366380D02*
X146287000Y-81366380D01*
X146191761Y-81509238D01*
X146096523Y-81604476D01*
X146001285Y-81652095D01*
%TO.C,U3*%
X173159380Y-100264904D02*
X173968904Y-100264904D01*
X174064142Y-100217285D01*
X174111761Y-100169666D01*
X174159380Y-100074428D01*
X174159380Y-99883952D01*
X174111761Y-99788714D01*
X174064142Y-99741095D01*
X173968904Y-99693476D01*
X173159380Y-99693476D01*
X173159380Y-99312523D02*
X173159380Y-98693476D01*
X173540333Y-99026809D01*
X173540333Y-98883952D01*
X173587952Y-98788714D01*
X173635571Y-98741095D01*
X173730809Y-98693476D01*
X173968904Y-98693476D01*
X174064142Y-98741095D01*
X174111761Y-98788714D01*
X174159380Y-98883952D01*
X174159380Y-99169666D01*
X174111761Y-99264904D01*
X174064142Y-99312523D01*
%TO.C,U2*%
X166588095Y-94056380D02*
X166588095Y-94865904D01*
X166635714Y-94961142D01*
X166683333Y-95008761D01*
X166778571Y-95056380D01*
X166969047Y-95056380D01*
X167064285Y-95008761D01*
X167111904Y-94961142D01*
X167159523Y-94865904D01*
X167159523Y-94056380D01*
X167588095Y-94151619D02*
X167635714Y-94104000D01*
X167730952Y-94056380D01*
X167969047Y-94056380D01*
X168064285Y-94104000D01*
X168111904Y-94151619D01*
X168159523Y-94246857D01*
X168159523Y-94342095D01*
X168111904Y-94484952D01*
X167540476Y-95056380D01*
X168159523Y-95056380D01*
%TO.C,J3*%
X157571666Y-113293380D02*
X157571666Y-114007666D01*
X157524047Y-114150523D01*
X157428809Y-114245761D01*
X157285952Y-114293380D01*
X157190714Y-114293380D01*
X157952619Y-113293380D02*
X158571666Y-113293380D01*
X158238333Y-113674333D01*
X158381190Y-113674333D01*
X158476428Y-113721952D01*
X158524047Y-113769571D01*
X158571666Y-113864809D01*
X158571666Y-114102904D01*
X158524047Y-114198142D01*
X158476428Y-114245761D01*
X158381190Y-114293380D01*
X158095476Y-114293380D01*
X158000238Y-114245761D01*
X157952619Y-114198142D01*
%TO.C,J2*%
X142373380Y-94254333D02*
X143087666Y-94254333D01*
X143230523Y-94301952D01*
X143325761Y-94397190D01*
X143373380Y-94540047D01*
X143373380Y-94635285D01*
X142468619Y-93825761D02*
X142421000Y-93778142D01*
X142373380Y-93682904D01*
X142373380Y-93444809D01*
X142421000Y-93349571D01*
X142468619Y-93301952D01*
X142563857Y-93254333D01*
X142659095Y-93254333D01*
X142801952Y-93301952D01*
X143373380Y-93873380D01*
X143373380Y-93254333D01*
%TO.C,U1*%
X158985095Y-78387380D02*
X158985095Y-79196904D01*
X159032714Y-79292142D01*
X159080333Y-79339761D01*
X159175571Y-79387380D01*
X159366047Y-79387380D01*
X159461285Y-79339761D01*
X159508904Y-79292142D01*
X159556523Y-79196904D01*
X159556523Y-78387380D01*
X160556523Y-79387380D02*
X159985095Y-79387380D01*
X160270809Y-79387380D02*
X160270809Y-78387380D01*
X160175571Y-78530238D01*
X160080333Y-78625476D01*
X159985095Y-78673095D01*
%TO.C,Y1*%
X150526190Y-88646190D02*
X151002380Y-88646190D01*
X150002380Y-88979523D02*
X150526190Y-88646190D01*
X150002380Y-88312857D01*
X151002380Y-87455714D02*
X151002380Y-88027142D01*
X151002380Y-87741428D02*
X150002380Y-87741428D01*
X150145238Y-87836666D01*
X150240476Y-87931904D01*
X150288095Y-88027142D01*
%TO.C,Y2*%
X179526190Y-92146190D02*
X180002380Y-92146190D01*
X179002380Y-92479523D02*
X179526190Y-92146190D01*
X179002380Y-91812857D01*
X179097619Y-91527142D02*
X179050000Y-91479523D01*
X179002380Y-91384285D01*
X179002380Y-91146190D01*
X179050000Y-91050952D01*
X179097619Y-91003333D01*
X179192857Y-90955714D01*
X179288095Y-90955714D01*
X179430952Y-91003333D01*
X180002380Y-91574761D01*
X180002380Y-90955714D01*
%TD*%
M02*
