G04 #@! TF.GenerationSoftware,KiCad,Pcbnew,(5.1.12-1-10_14)*
G04 #@! TF.CreationDate,2023-01-20T22:26:28+01:00*
G04 #@! TF.ProjectId,dogs102,646f6773-3130-4322-9e6b-696361645f70,rev?*
G04 #@! TF.SameCoordinates,Original*
G04 #@! TF.FileFunction,Soldermask,Top*
G04 #@! TF.FilePolarity,Negative*
%FSLAX46Y46*%
G04 Gerber Fmt 4.6, Leading zero omitted, Abs format (unit mm)*
G04 Created by KiCad (PCBNEW (5.1.12-1-10_14)) date 2023-01-20 22:26:28*
%MOMM*%
%LPD*%
G01*
G04 APERTURE LIST*
%ADD10C,1.680000*%
%ADD11C,2.020000*%
%ADD12C,0.100000*%
%ADD13O,2.100000X2.100000*%
%ADD14C,1.200000*%
%ADD15C,6.800000*%
G04 APERTURE END LIST*
D10*
X163576000Y-86360000D03*
X161036000Y-86360000D03*
X158496000Y-86360000D03*
X155956000Y-86360000D03*
X153416000Y-86360000D03*
X150876000Y-86360000D03*
X148336000Y-86360000D03*
X145796000Y-86360000D03*
X143256000Y-86360000D03*
X140716000Y-86360000D03*
X138176000Y-86360000D03*
X135636000Y-86360000D03*
X133096000Y-86360000D03*
X130556000Y-86360000D03*
X161036000Y-124460000D03*
X163576000Y-124460000D03*
X133096000Y-124460000D03*
X130556000Y-124460000D03*
D11*
X125460000Y-112800000D03*
X122960000Y-107800000D03*
X120460000Y-112800000D03*
D12*
G36*
X129370982Y-113946157D02*
G01*
X129333463Y-113934776D01*
X129298886Y-113916294D01*
X129268579Y-113891421D01*
X129243706Y-113861114D01*
X129225224Y-113826537D01*
X129213843Y-113789018D01*
X129210000Y-113750000D01*
X129210000Y-112250000D01*
X129213843Y-112210982D01*
X129225224Y-112173463D01*
X129243706Y-112138886D01*
X129268579Y-112108579D01*
X129298886Y-112083706D01*
X129333463Y-112065224D01*
X129370982Y-112053843D01*
X129410000Y-112050000D01*
X129910000Y-112050000D01*
X129916112Y-112050602D01*
X129934534Y-112050602D01*
X129954140Y-112051565D01*
X130002971Y-112056375D01*
X130022380Y-112059254D01*
X130070505Y-112068826D01*
X130089548Y-112073596D01*
X130136503Y-112087840D01*
X130154980Y-112094451D01*
X130200313Y-112113228D01*
X130218061Y-112121623D01*
X130261334Y-112144754D01*
X130278162Y-112154840D01*
X130318961Y-112182100D01*
X130334730Y-112193795D01*
X130372659Y-112224923D01*
X130387200Y-112238103D01*
X130421897Y-112272800D01*
X130435077Y-112287341D01*
X130466205Y-112325270D01*
X130477900Y-112341039D01*
X130505160Y-112381838D01*
X130515246Y-112398666D01*
X130538377Y-112441939D01*
X130546772Y-112459687D01*
X130565549Y-112505020D01*
X130572160Y-112523497D01*
X130586404Y-112570452D01*
X130591174Y-112589495D01*
X130600746Y-112637620D01*
X130603625Y-112657029D01*
X130608435Y-112705860D01*
X130609398Y-112725466D01*
X130609398Y-112743888D01*
X130610000Y-112750000D01*
X130610000Y-113250000D01*
X130609398Y-113256112D01*
X130609398Y-113274534D01*
X130608435Y-113294140D01*
X130603625Y-113342971D01*
X130600746Y-113362380D01*
X130591174Y-113410505D01*
X130586404Y-113429548D01*
X130572160Y-113476503D01*
X130565549Y-113494980D01*
X130546772Y-113540313D01*
X130538377Y-113558061D01*
X130515246Y-113601334D01*
X130505160Y-113618162D01*
X130477900Y-113658961D01*
X130466205Y-113674730D01*
X130435077Y-113712659D01*
X130421897Y-113727200D01*
X130387200Y-113761897D01*
X130372659Y-113775077D01*
X130334730Y-113806205D01*
X130318961Y-113817900D01*
X130278162Y-113845160D01*
X130261334Y-113855246D01*
X130218061Y-113878377D01*
X130200313Y-113886772D01*
X130154980Y-113905549D01*
X130136503Y-113912160D01*
X130089548Y-113926404D01*
X130070505Y-113931174D01*
X130022380Y-113940746D01*
X130002971Y-113943625D01*
X129954140Y-113948435D01*
X129934534Y-113949398D01*
X129916112Y-113949398D01*
X129910000Y-113950000D01*
X129410000Y-113950000D01*
X129370982Y-113946157D01*
G37*
G36*
X128603888Y-113949398D02*
G01*
X128585466Y-113949398D01*
X128565860Y-113948435D01*
X128517029Y-113943625D01*
X128497620Y-113940746D01*
X128449495Y-113931174D01*
X128430452Y-113926404D01*
X128383497Y-113912160D01*
X128365020Y-113905549D01*
X128319687Y-113886772D01*
X128301939Y-113878377D01*
X128258666Y-113855246D01*
X128241838Y-113845160D01*
X128201039Y-113817900D01*
X128185270Y-113806205D01*
X128147341Y-113775077D01*
X128132800Y-113761897D01*
X128098103Y-113727200D01*
X128084923Y-113712659D01*
X128053795Y-113674730D01*
X128042100Y-113658961D01*
X128014840Y-113618162D01*
X128004754Y-113601334D01*
X127981623Y-113558061D01*
X127973228Y-113540313D01*
X127954451Y-113494980D01*
X127947840Y-113476503D01*
X127933596Y-113429548D01*
X127928826Y-113410505D01*
X127919254Y-113362380D01*
X127916375Y-113342971D01*
X127911565Y-113294140D01*
X127910602Y-113274534D01*
X127910602Y-113256112D01*
X127910000Y-113250000D01*
X127910000Y-112750000D01*
X127910602Y-112743888D01*
X127910602Y-112725466D01*
X127911565Y-112705860D01*
X127916375Y-112657029D01*
X127919254Y-112637620D01*
X127928826Y-112589495D01*
X127933596Y-112570452D01*
X127947840Y-112523497D01*
X127954451Y-112505020D01*
X127973228Y-112459687D01*
X127981623Y-112441939D01*
X128004754Y-112398666D01*
X128014840Y-112381838D01*
X128042100Y-112341039D01*
X128053795Y-112325270D01*
X128084923Y-112287341D01*
X128098103Y-112272800D01*
X128132800Y-112238103D01*
X128147341Y-112224923D01*
X128185270Y-112193795D01*
X128201039Y-112182100D01*
X128241838Y-112154840D01*
X128258666Y-112144754D01*
X128301939Y-112121623D01*
X128319687Y-112113228D01*
X128365020Y-112094451D01*
X128383497Y-112087840D01*
X128430452Y-112073596D01*
X128449495Y-112068826D01*
X128497620Y-112059254D01*
X128517029Y-112056375D01*
X128565860Y-112051565D01*
X128585466Y-112050602D01*
X128603888Y-112050602D01*
X128610000Y-112050000D01*
X129110000Y-112050000D01*
X129149018Y-112053843D01*
X129186537Y-112065224D01*
X129221114Y-112083706D01*
X129251421Y-112108579D01*
X129276294Y-112138886D01*
X129294776Y-112173463D01*
X129306157Y-112210982D01*
X129310000Y-112250000D01*
X129310000Y-113750000D01*
X129306157Y-113789018D01*
X129294776Y-113826537D01*
X129276294Y-113861114D01*
X129251421Y-113891421D01*
X129221114Y-113916294D01*
X129186537Y-113934776D01*
X129149018Y-113946157D01*
X129110000Y-113950000D01*
X128610000Y-113950000D01*
X128603888Y-113949398D01*
G37*
G36*
G01*
X164546530Y-90108000D02*
X162097470Y-90108000D01*
G75*
G02*
X161772000Y-89782530I0J325470D01*
G01*
X161772000Y-88708470D01*
G75*
G02*
X162097470Y-88383000I325470J0D01*
G01*
X164546530Y-88383000D01*
G75*
G02*
X164872000Y-88708470I0J-325470D01*
G01*
X164872000Y-89782530D01*
G75*
G02*
X164546530Y-90108000I-325470J0D01*
G01*
G37*
G36*
G01*
X164546530Y-93233000D02*
X162097470Y-93233000D01*
G75*
G02*
X161772000Y-92907530I0J325470D01*
G01*
X161772000Y-91833470D01*
G75*
G02*
X162097470Y-91508000I325470J0D01*
G01*
X164546530Y-91508000D01*
G75*
G02*
X164872000Y-91833470I0J-325470D01*
G01*
X164872000Y-92907530D01*
G75*
G02*
X164546530Y-93233000I-325470J0D01*
G01*
G37*
G36*
G01*
X159934530Y-90337500D02*
X157485470Y-90337500D01*
G75*
G02*
X157160000Y-90012030I0J325470D01*
G01*
X157160000Y-88937970D01*
G75*
G02*
X157485470Y-88612500I325470J0D01*
G01*
X159934530Y-88612500D01*
G75*
G02*
X160260000Y-88937970I0J-325470D01*
G01*
X160260000Y-90012030D01*
G75*
G02*
X159934530Y-90337500I-325470J0D01*
G01*
G37*
G36*
G01*
X159934530Y-93462500D02*
X157485470Y-93462500D01*
G75*
G02*
X157160000Y-93137030I0J325470D01*
G01*
X157160000Y-92062970D01*
G75*
G02*
X157485470Y-91737500I325470J0D01*
G01*
X159934530Y-91737500D01*
G75*
G02*
X160260000Y-92062970I0J-325470D01*
G01*
X160260000Y-93137030D01*
G75*
G02*
X159934530Y-93462500I-325470J0D01*
G01*
G37*
G36*
G01*
X154534530Y-90337500D02*
X152085470Y-90337500D01*
G75*
G02*
X151760000Y-90012030I0J325470D01*
G01*
X151760000Y-88937970D01*
G75*
G02*
X152085470Y-88612500I325470J0D01*
G01*
X154534530Y-88612500D01*
G75*
G02*
X154860000Y-88937970I0J-325470D01*
G01*
X154860000Y-90012030D01*
G75*
G02*
X154534530Y-90337500I-325470J0D01*
G01*
G37*
G36*
G01*
X154534530Y-93462500D02*
X152085470Y-93462500D01*
G75*
G02*
X151760000Y-93137030I0J325470D01*
G01*
X151760000Y-92062970D01*
G75*
G02*
X152085470Y-91737500I325470J0D01*
G01*
X154534530Y-91737500D01*
G75*
G02*
X154860000Y-92062970I0J-325470D01*
G01*
X154860000Y-93137030D01*
G75*
G02*
X154534530Y-93462500I-325470J0D01*
G01*
G37*
D13*
X148590000Y-116586000D03*
X148590000Y-119126000D03*
X151130000Y-116586000D03*
X151130000Y-119126000D03*
X153670000Y-116586000D03*
X153670000Y-119126000D03*
X156210000Y-116586000D03*
X156210000Y-119126000D03*
X158750000Y-116586000D03*
X158750000Y-119126000D03*
X161290000Y-116586000D03*
X161290000Y-119126000D03*
X163830000Y-116586000D03*
X163830000Y-119126000D03*
X166370000Y-116586000D03*
X166370000Y-119126000D03*
X168910000Y-116586000D03*
X168910000Y-119126000D03*
X171450000Y-116586000D03*
G36*
G01*
X172300000Y-120176000D02*
X170600000Y-120176000D01*
G75*
G02*
X170400000Y-119976000I0J200000D01*
G01*
X170400000Y-118276000D01*
G75*
G02*
X170600000Y-118076000I200000J0D01*
G01*
X172300000Y-118076000D01*
G75*
G02*
X172500000Y-118276000I0J-200000D01*
G01*
X172500000Y-119976000D01*
G75*
G02*
X172300000Y-120176000I-200000J0D01*
G01*
G37*
D14*
X174163056Y-84154944D03*
X172466000Y-83452000D03*
X170768944Y-84154944D03*
X170066000Y-85852000D03*
X170768944Y-87549056D03*
X172466000Y-88252000D03*
X174163056Y-87549056D03*
X174866000Y-85852000D03*
D15*
X172466000Y-85852000D03*
D14*
X123363056Y-121746944D03*
X121666000Y-121044000D03*
X119968944Y-121746944D03*
X119266000Y-123444000D03*
X119968944Y-125141056D03*
X121666000Y-125844000D03*
X123363056Y-125141056D03*
X124066000Y-123444000D03*
D15*
X121666000Y-123444000D03*
G36*
G01*
X134166250Y-120687500D02*
X133053750Y-120687500D01*
G75*
G02*
X132710000Y-120343750I0J343750D01*
G01*
X132710000Y-119656250D01*
G75*
G02*
X133053750Y-119312500I343750J0D01*
G01*
X134166250Y-119312500D01*
G75*
G02*
X134510000Y-119656250I0J-343750D01*
G01*
X134510000Y-120343750D01*
G75*
G02*
X134166250Y-120687500I-343750J0D01*
G01*
G37*
G36*
G01*
X134166250Y-122562500D02*
X133053750Y-122562500D01*
G75*
G02*
X132710000Y-122218750I0J343750D01*
G01*
X132710000Y-121531250D01*
G75*
G02*
X133053750Y-121187500I343750J0D01*
G01*
X134166250Y-121187500D01*
G75*
G02*
X134510000Y-121531250I0J-343750D01*
G01*
X134510000Y-122218750D01*
G75*
G02*
X134166250Y-122562500I-343750J0D01*
G01*
G37*
G36*
G01*
X131112250Y-120687500D02*
X129999750Y-120687500D01*
G75*
G02*
X129656000Y-120343750I0J343750D01*
G01*
X129656000Y-119656250D01*
G75*
G02*
X129999750Y-119312500I343750J0D01*
G01*
X131112250Y-119312500D01*
G75*
G02*
X131456000Y-119656250I0J-343750D01*
G01*
X131456000Y-120343750D01*
G75*
G02*
X131112250Y-120687500I-343750J0D01*
G01*
G37*
G36*
G01*
X131112250Y-122562500D02*
X129999750Y-122562500D01*
G75*
G02*
X129656000Y-122218750I0J343750D01*
G01*
X129656000Y-121531250D01*
G75*
G02*
X129999750Y-121187500I343750J0D01*
G01*
X131112250Y-121187500D01*
G75*
G02*
X131456000Y-121531250I0J-343750D01*
G01*
X131456000Y-122218750D01*
G75*
G02*
X131112250Y-122562500I-343750J0D01*
G01*
G37*
G36*
G01*
X172268000Y-100972000D02*
X172268000Y-98672000D01*
G75*
G02*
X172468000Y-98472000I200000J0D01*
G01*
X174968000Y-98472000D01*
G75*
G02*
X175168000Y-98672000I0J-200000D01*
G01*
X175168000Y-100972000D01*
G75*
G02*
X174968000Y-101172000I-200000J0D01*
G01*
X172468000Y-101172000D01*
G75*
G02*
X172268000Y-100972000I0J200000D01*
G01*
G37*
G36*
G01*
X167968000Y-100972000D02*
X167968000Y-98672000D01*
G75*
G02*
X168168000Y-98472000I200000J0D01*
G01*
X170668000Y-98472000D01*
G75*
G02*
X170868000Y-98672000I0J-200000D01*
G01*
X170868000Y-100972000D01*
G75*
G02*
X170668000Y-101172000I-200000J0D01*
G01*
X168168000Y-101172000D01*
G75*
G02*
X167968000Y-100972000I0J200000D01*
G01*
G37*
G36*
G01*
X170605500Y-104696250D02*
X170605500Y-103583750D01*
G75*
G02*
X170949250Y-103240000I343750J0D01*
G01*
X171636750Y-103240000D01*
G75*
G02*
X171980500Y-103583750I0J-343750D01*
G01*
X171980500Y-104696250D01*
G75*
G02*
X171636750Y-105040000I-343750J0D01*
G01*
X170949250Y-105040000D01*
G75*
G02*
X170605500Y-104696250I0J343750D01*
G01*
G37*
G36*
G01*
X168730500Y-104696250D02*
X168730500Y-103583750D01*
G75*
G02*
X169074250Y-103240000I343750J0D01*
G01*
X169761750Y-103240000D01*
G75*
G02*
X170105500Y-103583750I0J-343750D01*
G01*
X170105500Y-104696250D01*
G75*
G02*
X169761750Y-105040000I-343750J0D01*
G01*
X169074250Y-105040000D01*
G75*
G02*
X168730500Y-104696250I0J343750D01*
G01*
G37*
G36*
G01*
X172118000Y-94921500D02*
X172118000Y-93546500D01*
G75*
G02*
X172430500Y-93234000I312500J0D01*
G01*
X175205500Y-93234000D01*
G75*
G02*
X175518000Y-93546500I0J-312500D01*
G01*
X175518000Y-94921500D01*
G75*
G02*
X175205500Y-95234000I-312500J0D01*
G01*
X172430500Y-95234000D01*
G75*
G02*
X172118000Y-94921500I0J312500D01*
G01*
G37*
G36*
G01*
X167718000Y-94921500D02*
X167718000Y-93546500D01*
G75*
G02*
X168030500Y-93234000I312500J0D01*
G01*
X170805500Y-93234000D01*
G75*
G02*
X171118000Y-93546500I0J-312500D01*
G01*
X171118000Y-94921500D01*
G75*
G02*
X170805500Y-95234000I-312500J0D01*
G01*
X168030500Y-95234000D01*
G75*
G02*
X167718000Y-94921500I0J312500D01*
G01*
G37*
G36*
G01*
X146360000Y-88443750D02*
X146360000Y-89556250D01*
G75*
G02*
X146016250Y-89900000I-343750J0D01*
G01*
X145328750Y-89900000D01*
G75*
G02*
X144985000Y-89556250I0J343750D01*
G01*
X144985000Y-88443750D01*
G75*
G02*
X145328750Y-88100000I343750J0D01*
G01*
X146016250Y-88100000D01*
G75*
G02*
X146360000Y-88443750I0J-343750D01*
G01*
G37*
G36*
G01*
X148235000Y-88443750D02*
X148235000Y-89556250D01*
G75*
G02*
X147891250Y-89900000I-343750J0D01*
G01*
X147203750Y-89900000D01*
G75*
G02*
X146860000Y-89556250I0J343750D01*
G01*
X146860000Y-88443750D01*
G75*
G02*
X147203750Y-88100000I343750J0D01*
G01*
X147891250Y-88100000D01*
G75*
G02*
X148235000Y-88443750I0J-343750D01*
G01*
G37*
M02*
