%TF.GenerationSoftware,KiCad,Pcbnew,(5.1.12-1-10_14)*%
%TF.CreationDate,2022-01-19T19:17:41+01:00*%
%TF.ProjectId,CAN_Display,43414e5f-4469-4737-906c-61792e6b6963,rev?*%
%TF.SameCoordinates,Original*%
%TF.FileFunction,Soldermask,Top*%
%TF.FilePolarity,Negative*%
%FSLAX46Y46*%
G04 Gerber Fmt 4.6, Leading zero omitted, Abs format (unit mm)*
G04 Created by KiCad (PCBNEW (5.1.12-1-10_14)) date 2022-01-19 19:17:41*
%MOMM*%
%LPD*%
G01*
G04 APERTURE LIST*
%ADD10R,1.650000X2.850000*%
%ADD11O,1.700000X1.700000*%
%ADD12R,1.700000X1.700000*%
%ADD13R,0.550000X1.600000*%
%ADD14R,1.600000X0.550000*%
%ADD15R,2.500000X2.300000*%
%ADD16C,0.100000*%
%ADD17R,1.200000X0.900000*%
%ADD18R,0.900000X1.200000*%
%ADD19C,1.500000*%
%ADD20C,1.000000*%
%ADD21O,2.020000X1.500000*%
%ADD22C,1.270000*%
G04 APERTURE END LIST*
D10*
%TO.C,Y1*%
X177856000Y-88392000D03*
X177856000Y-93042000D03*
X175006000Y-93042000D03*
X175006000Y-88392000D03*
%TD*%
%TO.C,U2*%
G36*
G01*
X163725000Y-92814000D02*
X163725000Y-93114000D01*
G75*
G02*
X163575000Y-93264000I-150000J0D01*
G01*
X161825000Y-93264000D01*
G75*
G02*
X161675000Y-93114000I0J150000D01*
G01*
X161675000Y-92814000D01*
G75*
G02*
X161825000Y-92664000I150000J0D01*
G01*
X163575000Y-92664000D01*
G75*
G02*
X163725000Y-92814000I0J-150000D01*
G01*
G37*
G36*
G01*
X163725000Y-91544000D02*
X163725000Y-91844000D01*
G75*
G02*
X163575000Y-91994000I-150000J0D01*
G01*
X161825000Y-91994000D01*
G75*
G02*
X161675000Y-91844000I0J150000D01*
G01*
X161675000Y-91544000D01*
G75*
G02*
X161825000Y-91394000I150000J0D01*
G01*
X163575000Y-91394000D01*
G75*
G02*
X163725000Y-91544000I0J-150000D01*
G01*
G37*
G36*
G01*
X163725000Y-90274000D02*
X163725000Y-90574000D01*
G75*
G02*
X163575000Y-90724000I-150000J0D01*
G01*
X161825000Y-90724000D01*
G75*
G02*
X161675000Y-90574000I0J150000D01*
G01*
X161675000Y-90274000D01*
G75*
G02*
X161825000Y-90124000I150000J0D01*
G01*
X163575000Y-90124000D01*
G75*
G02*
X163725000Y-90274000I0J-150000D01*
G01*
G37*
G36*
G01*
X163725000Y-89004000D02*
X163725000Y-89304000D01*
G75*
G02*
X163575000Y-89454000I-150000J0D01*
G01*
X161825000Y-89454000D01*
G75*
G02*
X161675000Y-89304000I0J150000D01*
G01*
X161675000Y-89004000D01*
G75*
G02*
X161825000Y-88854000I150000J0D01*
G01*
X163575000Y-88854000D01*
G75*
G02*
X163725000Y-89004000I0J-150000D01*
G01*
G37*
G36*
G01*
X163725000Y-87734000D02*
X163725000Y-88034000D01*
G75*
G02*
X163575000Y-88184000I-150000J0D01*
G01*
X161825000Y-88184000D01*
G75*
G02*
X161675000Y-88034000I0J150000D01*
G01*
X161675000Y-87734000D01*
G75*
G02*
X161825000Y-87584000I150000J0D01*
G01*
X163575000Y-87584000D01*
G75*
G02*
X163725000Y-87734000I0J-150000D01*
G01*
G37*
G36*
G01*
X163725000Y-86464000D02*
X163725000Y-86764000D01*
G75*
G02*
X163575000Y-86914000I-150000J0D01*
G01*
X161825000Y-86914000D01*
G75*
G02*
X161675000Y-86764000I0J150000D01*
G01*
X161675000Y-86464000D01*
G75*
G02*
X161825000Y-86314000I150000J0D01*
G01*
X163575000Y-86314000D01*
G75*
G02*
X163725000Y-86464000I0J-150000D01*
G01*
G37*
G36*
G01*
X163725000Y-85194000D02*
X163725000Y-85494000D01*
G75*
G02*
X163575000Y-85644000I-150000J0D01*
G01*
X161825000Y-85644000D01*
G75*
G02*
X161675000Y-85494000I0J150000D01*
G01*
X161675000Y-85194000D01*
G75*
G02*
X161825000Y-85044000I150000J0D01*
G01*
X163575000Y-85044000D01*
G75*
G02*
X163725000Y-85194000I0J-150000D01*
G01*
G37*
G36*
G01*
X163725000Y-83924000D02*
X163725000Y-84224000D01*
G75*
G02*
X163575000Y-84374000I-150000J0D01*
G01*
X161825000Y-84374000D01*
G75*
G02*
X161675000Y-84224000I0J150000D01*
G01*
X161675000Y-83924000D01*
G75*
G02*
X161825000Y-83774000I150000J0D01*
G01*
X163575000Y-83774000D01*
G75*
G02*
X163725000Y-83924000I0J-150000D01*
G01*
G37*
G36*
G01*
X163725000Y-82654000D02*
X163725000Y-82954000D01*
G75*
G02*
X163575000Y-83104000I-150000J0D01*
G01*
X161825000Y-83104000D01*
G75*
G02*
X161675000Y-82954000I0J150000D01*
G01*
X161675000Y-82654000D01*
G75*
G02*
X161825000Y-82504000I150000J0D01*
G01*
X163575000Y-82504000D01*
G75*
G02*
X163725000Y-82654000I0J-150000D01*
G01*
G37*
G36*
G01*
X173025000Y-82654000D02*
X173025000Y-82954000D01*
G75*
G02*
X172875000Y-83104000I-150000J0D01*
G01*
X171125000Y-83104000D01*
G75*
G02*
X170975000Y-82954000I0J150000D01*
G01*
X170975000Y-82654000D01*
G75*
G02*
X171125000Y-82504000I150000J0D01*
G01*
X172875000Y-82504000D01*
G75*
G02*
X173025000Y-82654000I0J-150000D01*
G01*
G37*
G36*
G01*
X173025000Y-83924000D02*
X173025000Y-84224000D01*
G75*
G02*
X172875000Y-84374000I-150000J0D01*
G01*
X171125000Y-84374000D01*
G75*
G02*
X170975000Y-84224000I0J150000D01*
G01*
X170975000Y-83924000D01*
G75*
G02*
X171125000Y-83774000I150000J0D01*
G01*
X172875000Y-83774000D01*
G75*
G02*
X173025000Y-83924000I0J-150000D01*
G01*
G37*
G36*
G01*
X173025000Y-85194000D02*
X173025000Y-85494000D01*
G75*
G02*
X172875000Y-85644000I-150000J0D01*
G01*
X171125000Y-85644000D01*
G75*
G02*
X170975000Y-85494000I0J150000D01*
G01*
X170975000Y-85194000D01*
G75*
G02*
X171125000Y-85044000I150000J0D01*
G01*
X172875000Y-85044000D01*
G75*
G02*
X173025000Y-85194000I0J-150000D01*
G01*
G37*
G36*
G01*
X173025000Y-86464000D02*
X173025000Y-86764000D01*
G75*
G02*
X172875000Y-86914000I-150000J0D01*
G01*
X171125000Y-86914000D01*
G75*
G02*
X170975000Y-86764000I0J150000D01*
G01*
X170975000Y-86464000D01*
G75*
G02*
X171125000Y-86314000I150000J0D01*
G01*
X172875000Y-86314000D01*
G75*
G02*
X173025000Y-86464000I0J-150000D01*
G01*
G37*
G36*
G01*
X173025000Y-87734000D02*
X173025000Y-88034000D01*
G75*
G02*
X172875000Y-88184000I-150000J0D01*
G01*
X171125000Y-88184000D01*
G75*
G02*
X170975000Y-88034000I0J150000D01*
G01*
X170975000Y-87734000D01*
G75*
G02*
X171125000Y-87584000I150000J0D01*
G01*
X172875000Y-87584000D01*
G75*
G02*
X173025000Y-87734000I0J-150000D01*
G01*
G37*
G36*
G01*
X173025000Y-89004000D02*
X173025000Y-89304000D01*
G75*
G02*
X172875000Y-89454000I-150000J0D01*
G01*
X171125000Y-89454000D01*
G75*
G02*
X170975000Y-89304000I0J150000D01*
G01*
X170975000Y-89004000D01*
G75*
G02*
X171125000Y-88854000I150000J0D01*
G01*
X172875000Y-88854000D01*
G75*
G02*
X173025000Y-89004000I0J-150000D01*
G01*
G37*
G36*
G01*
X173025000Y-90274000D02*
X173025000Y-90574000D01*
G75*
G02*
X172875000Y-90724000I-150000J0D01*
G01*
X171125000Y-90724000D01*
G75*
G02*
X170975000Y-90574000I0J150000D01*
G01*
X170975000Y-90274000D01*
G75*
G02*
X171125000Y-90124000I150000J0D01*
G01*
X172875000Y-90124000D01*
G75*
G02*
X173025000Y-90274000I0J-150000D01*
G01*
G37*
G36*
G01*
X173025000Y-91544000D02*
X173025000Y-91844000D01*
G75*
G02*
X172875000Y-91994000I-150000J0D01*
G01*
X171125000Y-91994000D01*
G75*
G02*
X170975000Y-91844000I0J150000D01*
G01*
X170975000Y-91544000D01*
G75*
G02*
X171125000Y-91394000I150000J0D01*
G01*
X172875000Y-91394000D01*
G75*
G02*
X173025000Y-91544000I0J-150000D01*
G01*
G37*
G36*
G01*
X173025000Y-92814000D02*
X173025000Y-93114000D01*
G75*
G02*
X172875000Y-93264000I-150000J0D01*
G01*
X171125000Y-93264000D01*
G75*
G02*
X170975000Y-93114000I0J150000D01*
G01*
X170975000Y-92814000D01*
G75*
G02*
X171125000Y-92664000I150000J0D01*
G01*
X172875000Y-92664000D01*
G75*
G02*
X173025000Y-92814000I0J-150000D01*
G01*
G37*
%TD*%
D11*
%TO.C,J5*%
X148336000Y-105664000D03*
X145796000Y-105664000D03*
D12*
X143256000Y-105664000D03*
%TD*%
D13*
%TO.C,U1*%
X151886000Y-83380000D03*
X152686000Y-83380000D03*
X153486000Y-83380000D03*
X154286000Y-83380000D03*
X155086000Y-83380000D03*
X155886000Y-83380000D03*
X156686000Y-83380000D03*
X157486000Y-83380000D03*
D14*
X158936000Y-84830000D03*
X158936000Y-85630000D03*
X158936000Y-86430000D03*
X158936000Y-87230000D03*
X158936000Y-88030000D03*
X158936000Y-88830000D03*
X158936000Y-89630000D03*
X158936000Y-90430000D03*
D13*
X157486000Y-91880000D03*
X156686000Y-91880000D03*
X155886000Y-91880000D03*
X155086000Y-91880000D03*
X154286000Y-91880000D03*
X153486000Y-91880000D03*
X152686000Y-91880000D03*
X151886000Y-91880000D03*
D14*
X150436000Y-90430000D03*
X150436000Y-89630000D03*
X150436000Y-88830000D03*
X150436000Y-88030000D03*
X150436000Y-87230000D03*
X150436000Y-86430000D03*
X150436000Y-85630000D03*
X150436000Y-84830000D03*
%TD*%
D15*
%TO.C,D1*%
X168892000Y-108204000D03*
X164592000Y-108204000D03*
%TD*%
%TO.C,C9*%
G36*
G01*
X168614000Y-78256000D02*
X169714000Y-78256000D01*
G75*
G02*
X169964000Y-78506000I0J-250000D01*
G01*
X169964000Y-81006000D01*
G75*
G02*
X169714000Y-81256000I-250000J0D01*
G01*
X168614000Y-81256000D01*
G75*
G02*
X168364000Y-81006000I0J250000D01*
G01*
X168364000Y-78506000D01*
G75*
G02*
X168614000Y-78256000I250000J0D01*
G01*
G37*
G36*
G01*
X168614000Y-73856000D02*
X169714000Y-73856000D01*
G75*
G02*
X169964000Y-74106000I0J-250000D01*
G01*
X169964000Y-76606000D01*
G75*
G02*
X169714000Y-76856000I-250000J0D01*
G01*
X168614000Y-76856000D01*
G75*
G02*
X168364000Y-76606000I0J250000D01*
G01*
X168364000Y-74106000D01*
G75*
G02*
X168614000Y-73856000I250000J0D01*
G01*
G37*
%TD*%
D11*
%TO.C,J4*%
X163576000Y-72644000D03*
X161036000Y-72644000D03*
X158496000Y-72644000D03*
X155956000Y-72644000D03*
X153416000Y-72644000D03*
D12*
X150876000Y-72644000D03*
%TD*%
D11*
%TO.C,J1*%
X145680000Y-100920000D03*
X148220000Y-100920000D03*
X150760000Y-100920000D03*
X153300000Y-100920000D03*
X155840000Y-100920000D03*
X158380000Y-100920000D03*
X160920000Y-100920000D03*
X163460000Y-100920000D03*
D12*
X166000000Y-100920000D03*
%TD*%
%TO.C,R6*%
G36*
G01*
X162617999Y-77149000D02*
X163518001Y-77149000D01*
G75*
G02*
X163768000Y-77398999I0J-249999D01*
G01*
X163768000Y-78049001D01*
G75*
G02*
X163518001Y-78299000I-249999J0D01*
G01*
X162617999Y-78299000D01*
G75*
G02*
X162368000Y-78049001I0J249999D01*
G01*
X162368000Y-77398999D01*
G75*
G02*
X162617999Y-77149000I249999J0D01*
G01*
G37*
G36*
G01*
X162617999Y-75099000D02*
X163518001Y-75099000D01*
G75*
G02*
X163768000Y-75348999I0J-249999D01*
G01*
X163768000Y-75999001D01*
G75*
G02*
X163518001Y-76249000I-249999J0D01*
G01*
X162617999Y-76249000D01*
G75*
G02*
X162368000Y-75999001I0J249999D01*
G01*
X162368000Y-75348999D01*
G75*
G02*
X162617999Y-75099000I249999J0D01*
G01*
G37*
%TD*%
%TO.C,R5*%
G36*
G01*
X164649999Y-77149000D02*
X165550001Y-77149000D01*
G75*
G02*
X165800000Y-77398999I0J-249999D01*
G01*
X165800000Y-78049001D01*
G75*
G02*
X165550001Y-78299000I-249999J0D01*
G01*
X164649999Y-78299000D01*
G75*
G02*
X164400000Y-78049001I0J249999D01*
G01*
X164400000Y-77398999D01*
G75*
G02*
X164649999Y-77149000I249999J0D01*
G01*
G37*
G36*
G01*
X164649999Y-75099000D02*
X165550001Y-75099000D01*
G75*
G02*
X165800000Y-75348999I0J-249999D01*
G01*
X165800000Y-75999001D01*
G75*
G02*
X165550001Y-76249000I-249999J0D01*
G01*
X164649999Y-76249000D01*
G75*
G02*
X164400000Y-75999001I0J249999D01*
G01*
X164400000Y-75348999D01*
G75*
G02*
X164649999Y-75099000I249999J0D01*
G01*
G37*
%TD*%
%TO.C,R4*%
G36*
G01*
X154549999Y-97345000D02*
X155450001Y-97345000D01*
G75*
G02*
X155700000Y-97594999I0J-249999D01*
G01*
X155700000Y-98245001D01*
G75*
G02*
X155450001Y-98495000I-249999J0D01*
G01*
X154549999Y-98495000D01*
G75*
G02*
X154300000Y-98245001I0J249999D01*
G01*
X154300000Y-97594999D01*
G75*
G02*
X154549999Y-97345000I249999J0D01*
G01*
G37*
G36*
G01*
X154549999Y-95295000D02*
X155450001Y-95295000D01*
G75*
G02*
X155700000Y-95544999I0J-249999D01*
G01*
X155700000Y-96195001D01*
G75*
G02*
X155450001Y-96445000I-249999J0D01*
G01*
X154549999Y-96445000D01*
G75*
G02*
X154300000Y-96195001I0J249999D01*
G01*
X154300000Y-95544999D01*
G75*
G02*
X154549999Y-95295000I249999J0D01*
G01*
G37*
%TD*%
%TO.C,R2*%
G36*
G01*
X171761999Y-105597000D02*
X172662001Y-105597000D01*
G75*
G02*
X172912000Y-105846999I0J-249999D01*
G01*
X172912000Y-106497001D01*
G75*
G02*
X172662001Y-106747000I-249999J0D01*
G01*
X171761999Y-106747000D01*
G75*
G02*
X171512000Y-106497001I0J249999D01*
G01*
X171512000Y-105846999D01*
G75*
G02*
X171761999Y-105597000I249999J0D01*
G01*
G37*
G36*
G01*
X171761999Y-103547000D02*
X172662001Y-103547000D01*
G75*
G02*
X172912000Y-103796999I0J-249999D01*
G01*
X172912000Y-104447001D01*
G75*
G02*
X172662001Y-104697000I-249999J0D01*
G01*
X171761999Y-104697000D01*
G75*
G02*
X171512000Y-104447001I0J249999D01*
G01*
X171512000Y-103796999D01*
G75*
G02*
X171761999Y-103547000I249999J0D01*
G01*
G37*
%TD*%
%TO.C,R1*%
G36*
G01*
X154383000Y-76650001D02*
X154383000Y-75749999D01*
G75*
G02*
X154632999Y-75500000I249999J0D01*
G01*
X155283001Y-75500000D01*
G75*
G02*
X155533000Y-75749999I0J-249999D01*
G01*
X155533000Y-76650001D01*
G75*
G02*
X155283001Y-76900000I-249999J0D01*
G01*
X154632999Y-76900000D01*
G75*
G02*
X154383000Y-76650001I0J249999D01*
G01*
G37*
G36*
G01*
X152333000Y-76650001D02*
X152333000Y-75749999D01*
G75*
G02*
X152582999Y-75500000I249999J0D01*
G01*
X153233001Y-75500000D01*
G75*
G02*
X153483000Y-75749999I0J-249999D01*
G01*
X153483000Y-76650001D01*
G75*
G02*
X153233001Y-76900000I-249999J0D01*
G01*
X152582999Y-76900000D01*
G75*
G02*
X152333000Y-76650001I0J249999D01*
G01*
G37*
%TD*%
D16*
%TO.C,JP1*%
G36*
X174002602Y-101824000D02*
G01*
X174002602Y-101799466D01*
X174007412Y-101750635D01*
X174016984Y-101702510D01*
X174031228Y-101655555D01*
X174050005Y-101610222D01*
X174073136Y-101566949D01*
X174100396Y-101526150D01*
X174131524Y-101488221D01*
X174166221Y-101453524D01*
X174204150Y-101422396D01*
X174244949Y-101395136D01*
X174288222Y-101372005D01*
X174333555Y-101353228D01*
X174380510Y-101338984D01*
X174428635Y-101329412D01*
X174477466Y-101324602D01*
X174502000Y-101324602D01*
X174502000Y-101324000D01*
X175002000Y-101324000D01*
X175002000Y-101324602D01*
X175026534Y-101324602D01*
X175075365Y-101329412D01*
X175123490Y-101338984D01*
X175170445Y-101353228D01*
X175215778Y-101372005D01*
X175259051Y-101395136D01*
X175299850Y-101422396D01*
X175337779Y-101453524D01*
X175372476Y-101488221D01*
X175403604Y-101526150D01*
X175430864Y-101566949D01*
X175453995Y-101610222D01*
X175472772Y-101655555D01*
X175487016Y-101702510D01*
X175496588Y-101750635D01*
X175501398Y-101799466D01*
X175501398Y-101824000D01*
X175502000Y-101824000D01*
X175502000Y-102324000D01*
X174002000Y-102324000D01*
X174002000Y-101824000D01*
X174002602Y-101824000D01*
G37*
G36*
X175502000Y-102624000D02*
G01*
X175502000Y-103124000D01*
X175501398Y-103124000D01*
X175501398Y-103148534D01*
X175496588Y-103197365D01*
X175487016Y-103245490D01*
X175472772Y-103292445D01*
X175453995Y-103337778D01*
X175430864Y-103381051D01*
X175403604Y-103421850D01*
X175372476Y-103459779D01*
X175337779Y-103494476D01*
X175299850Y-103525604D01*
X175259051Y-103552864D01*
X175215778Y-103575995D01*
X175170445Y-103594772D01*
X175123490Y-103609016D01*
X175075365Y-103618588D01*
X175026534Y-103623398D01*
X175002000Y-103623398D01*
X175002000Y-103624000D01*
X174502000Y-103624000D01*
X174502000Y-103623398D01*
X174477466Y-103623398D01*
X174428635Y-103618588D01*
X174380510Y-103609016D01*
X174333555Y-103594772D01*
X174288222Y-103575995D01*
X174244949Y-103552864D01*
X174204150Y-103525604D01*
X174166221Y-103494476D01*
X174131524Y-103459779D01*
X174100396Y-103421850D01*
X174073136Y-103381051D01*
X174050005Y-103337778D01*
X174031228Y-103292445D01*
X174016984Y-103245490D01*
X174007412Y-103197365D01*
X174002602Y-103148534D01*
X174002602Y-103124000D01*
X174002000Y-103124000D01*
X174002000Y-102624000D01*
X175502000Y-102624000D01*
G37*
%TD*%
D17*
%TO.C,D4*%
X157000000Y-94920000D03*
X157000000Y-98220000D03*
%TD*%
D18*
%TO.C,D3*%
X157480000Y-76200000D03*
X160780000Y-76200000D03*
%TD*%
%TO.C,C14*%
G36*
G01*
X152549999Y-97345000D02*
X153450001Y-97345000D01*
G75*
G02*
X153700000Y-97594999I0J-249999D01*
G01*
X153700000Y-98245001D01*
G75*
G02*
X153450001Y-98495000I-249999J0D01*
G01*
X152549999Y-98495000D01*
G75*
G02*
X152300000Y-98245001I0J249999D01*
G01*
X152300000Y-97594999D01*
G75*
G02*
X152549999Y-97345000I249999J0D01*
G01*
G37*
G36*
G01*
X152549999Y-95295000D02*
X153450001Y-95295000D01*
G75*
G02*
X153700000Y-95544999I0J-249999D01*
G01*
X153700000Y-96195001D01*
G75*
G02*
X153450001Y-96445000I-249999J0D01*
G01*
X152549999Y-96445000D01*
G75*
G02*
X152300000Y-96195001I0J249999D01*
G01*
X152300000Y-95544999D01*
G75*
G02*
X152549999Y-95295000I249999J0D01*
G01*
G37*
%TD*%
%TO.C,C12*%
G36*
G01*
X154383000Y-78682001D02*
X154383000Y-77781999D01*
G75*
G02*
X154632999Y-77532000I249999J0D01*
G01*
X155283001Y-77532000D01*
G75*
G02*
X155533000Y-77781999I0J-249999D01*
G01*
X155533000Y-78682001D01*
G75*
G02*
X155283001Y-78932000I-249999J0D01*
G01*
X154632999Y-78932000D01*
G75*
G02*
X154383000Y-78682001I0J249999D01*
G01*
G37*
G36*
G01*
X152333000Y-78682001D02*
X152333000Y-77781999D01*
G75*
G02*
X152582999Y-77532000I249999J0D01*
G01*
X153233001Y-77532000D01*
G75*
G02*
X153483000Y-77781999I0J-249999D01*
G01*
X153483000Y-78682001D01*
G75*
G02*
X153233001Y-78932000I-249999J0D01*
G01*
X152582999Y-78932000D01*
G75*
G02*
X152333000Y-78682001I0J249999D01*
G01*
G37*
%TD*%
%TO.C,C11*%
G36*
G01*
X164543000Y-80714001D02*
X164543000Y-79813999D01*
G75*
G02*
X164792999Y-79564000I249999J0D01*
G01*
X165443001Y-79564000D01*
G75*
G02*
X165693000Y-79813999I0J-249999D01*
G01*
X165693000Y-80714001D01*
G75*
G02*
X165443001Y-80964000I-249999J0D01*
G01*
X164792999Y-80964000D01*
G75*
G02*
X164543000Y-80714001I0J249999D01*
G01*
G37*
G36*
G01*
X162493000Y-80714001D02*
X162493000Y-79813999D01*
G75*
G02*
X162742999Y-79564000I249999J0D01*
G01*
X163393001Y-79564000D01*
G75*
G02*
X163643000Y-79813999I0J-249999D01*
G01*
X163643000Y-80714001D01*
G75*
G02*
X163393001Y-80964000I-249999J0D01*
G01*
X162742999Y-80964000D01*
G75*
G02*
X162493000Y-80714001I0J249999D01*
G01*
G37*
%TD*%
%TO.C,C8*%
G36*
G01*
X167425000Y-105098001D02*
X167425000Y-104197999D01*
G75*
G02*
X167674999Y-103948000I249999J0D01*
G01*
X168325001Y-103948000D01*
G75*
G02*
X168575000Y-104197999I0J-249999D01*
G01*
X168575000Y-105098001D01*
G75*
G02*
X168325001Y-105348000I-249999J0D01*
G01*
X167674999Y-105348000D01*
G75*
G02*
X167425000Y-105098001I0J249999D01*
G01*
G37*
G36*
G01*
X165375000Y-105098001D02*
X165375000Y-104197999D01*
G75*
G02*
X165624999Y-103948000I249999J0D01*
G01*
X166275001Y-103948000D01*
G75*
G02*
X166525000Y-104197999I0J-249999D01*
G01*
X166525000Y-105098001D01*
G75*
G02*
X166275001Y-105348000I-249999J0D01*
G01*
X165624999Y-105348000D01*
G75*
G02*
X165375000Y-105098001I0J249999D01*
G01*
G37*
%TD*%
%TO.C,C7*%
G36*
G01*
X163010001Y-95553000D02*
X162109999Y-95553000D01*
G75*
G02*
X161860000Y-95303001I0J249999D01*
G01*
X161860000Y-94652999D01*
G75*
G02*
X162109999Y-94403000I249999J0D01*
G01*
X163010001Y-94403000D01*
G75*
G02*
X163260000Y-94652999I0J-249999D01*
G01*
X163260000Y-95303001D01*
G75*
G02*
X163010001Y-95553000I-249999J0D01*
G01*
G37*
G36*
G01*
X163010001Y-97603000D02*
X162109999Y-97603000D01*
G75*
G02*
X161860000Y-97353001I0J249999D01*
G01*
X161860000Y-96702999D01*
G75*
G02*
X162109999Y-96453000I249999J0D01*
G01*
X163010001Y-96453000D01*
G75*
G02*
X163260000Y-96702999I0J-249999D01*
G01*
X163260000Y-97353001D01*
G75*
G02*
X163010001Y-97603000I-249999J0D01*
G01*
G37*
%TD*%
%TO.C,C6*%
G36*
G01*
X149294001Y-78789000D02*
X148393999Y-78789000D01*
G75*
G02*
X148144000Y-78539001I0J249999D01*
G01*
X148144000Y-77888999D01*
G75*
G02*
X148393999Y-77639000I249999J0D01*
G01*
X149294001Y-77639000D01*
G75*
G02*
X149544000Y-77888999I0J-249999D01*
G01*
X149544000Y-78539001D01*
G75*
G02*
X149294001Y-78789000I-249999J0D01*
G01*
G37*
G36*
G01*
X149294001Y-80839000D02*
X148393999Y-80839000D01*
G75*
G02*
X148144000Y-80589001I0J249999D01*
G01*
X148144000Y-79938999D01*
G75*
G02*
X148393999Y-79689000I249999J0D01*
G01*
X149294001Y-79689000D01*
G75*
G02*
X149544000Y-79938999I0J-249999D01*
G01*
X149544000Y-80589001D01*
G75*
G02*
X149294001Y-80839000I-249999J0D01*
G01*
G37*
%TD*%
%TO.C,C5*%
G36*
G01*
X146237000Y-76650001D02*
X146237000Y-75749999D01*
G75*
G02*
X146486999Y-75500000I249999J0D01*
G01*
X147137001Y-75500000D01*
G75*
G02*
X147387000Y-75749999I0J-249999D01*
G01*
X147387000Y-76650001D01*
G75*
G02*
X147137001Y-76900000I-249999J0D01*
G01*
X146486999Y-76900000D01*
G75*
G02*
X146237000Y-76650001I0J249999D01*
G01*
G37*
G36*
G01*
X144187000Y-76650001D02*
X144187000Y-75749999D01*
G75*
G02*
X144436999Y-75500000I249999J0D01*
G01*
X145087001Y-75500000D01*
G75*
G02*
X145337000Y-75749999I0J-249999D01*
G01*
X145337000Y-76650001D01*
G75*
G02*
X145087001Y-76900000I-249999J0D01*
G01*
X144436999Y-76900000D01*
G75*
G02*
X144187000Y-76650001I0J249999D01*
G01*
G37*
%TD*%
%TO.C,C4*%
G36*
G01*
X175563000Y-95815999D02*
X175563000Y-96716001D01*
G75*
G02*
X175313001Y-96966000I-249999J0D01*
G01*
X174662999Y-96966000D01*
G75*
G02*
X174413000Y-96716001I0J249999D01*
G01*
X174413000Y-95815999D01*
G75*
G02*
X174662999Y-95566000I249999J0D01*
G01*
X175313001Y-95566000D01*
G75*
G02*
X175563000Y-95815999I0J-249999D01*
G01*
G37*
G36*
G01*
X177613000Y-95815999D02*
X177613000Y-96716001D01*
G75*
G02*
X177363001Y-96966000I-249999J0D01*
G01*
X176712999Y-96966000D01*
G75*
G02*
X176463000Y-96716001I0J249999D01*
G01*
X176463000Y-95815999D01*
G75*
G02*
X176712999Y-95566000I249999J0D01*
G01*
X177363001Y-95566000D01*
G75*
G02*
X177613000Y-95815999I0J-249999D01*
G01*
G37*
%TD*%
%TO.C,C3*%
G36*
G01*
X175456001Y-84123000D02*
X174555999Y-84123000D01*
G75*
G02*
X174306000Y-83873001I0J249999D01*
G01*
X174306000Y-83222999D01*
G75*
G02*
X174555999Y-82973000I249999J0D01*
G01*
X175456001Y-82973000D01*
G75*
G02*
X175706000Y-83222999I0J-249999D01*
G01*
X175706000Y-83873001D01*
G75*
G02*
X175456001Y-84123000I-249999J0D01*
G01*
G37*
G36*
G01*
X175456001Y-86173000D02*
X174555999Y-86173000D01*
G75*
G02*
X174306000Y-85923001I0J249999D01*
G01*
X174306000Y-85272999D01*
G75*
G02*
X174555999Y-85023000I249999J0D01*
G01*
X175456001Y-85023000D01*
G75*
G02*
X175706000Y-85272999I0J-249999D01*
G01*
X175706000Y-85923001D01*
G75*
G02*
X175456001Y-86173000I-249999J0D01*
G01*
G37*
%TD*%
%TO.C,U3*%
G36*
G01*
X172062000Y-101003000D02*
X172362000Y-101003000D01*
G75*
G02*
X172512000Y-101153000I0J-150000D01*
G01*
X172512000Y-102803000D01*
G75*
G02*
X172362000Y-102953000I-150000J0D01*
G01*
X172062000Y-102953000D01*
G75*
G02*
X171912000Y-102803000I0J150000D01*
G01*
X171912000Y-101153000D01*
G75*
G02*
X172062000Y-101003000I150000J0D01*
G01*
G37*
G36*
G01*
X170792000Y-101003000D02*
X171092000Y-101003000D01*
G75*
G02*
X171242000Y-101153000I0J-150000D01*
G01*
X171242000Y-102803000D01*
G75*
G02*
X171092000Y-102953000I-150000J0D01*
G01*
X170792000Y-102953000D01*
G75*
G02*
X170642000Y-102803000I0J150000D01*
G01*
X170642000Y-101153000D01*
G75*
G02*
X170792000Y-101003000I150000J0D01*
G01*
G37*
G36*
G01*
X169522000Y-101003000D02*
X169822000Y-101003000D01*
G75*
G02*
X169972000Y-101153000I0J-150000D01*
G01*
X169972000Y-102803000D01*
G75*
G02*
X169822000Y-102953000I-150000J0D01*
G01*
X169522000Y-102953000D01*
G75*
G02*
X169372000Y-102803000I0J150000D01*
G01*
X169372000Y-101153000D01*
G75*
G02*
X169522000Y-101003000I150000J0D01*
G01*
G37*
G36*
G01*
X168252000Y-101003000D02*
X168552000Y-101003000D01*
G75*
G02*
X168702000Y-101153000I0J-150000D01*
G01*
X168702000Y-102803000D01*
G75*
G02*
X168552000Y-102953000I-150000J0D01*
G01*
X168252000Y-102953000D01*
G75*
G02*
X168102000Y-102803000I0J150000D01*
G01*
X168102000Y-101153000D01*
G75*
G02*
X168252000Y-101003000I150000J0D01*
G01*
G37*
G36*
G01*
X168252000Y-96053000D02*
X168552000Y-96053000D01*
G75*
G02*
X168702000Y-96203000I0J-150000D01*
G01*
X168702000Y-97853000D01*
G75*
G02*
X168552000Y-98003000I-150000J0D01*
G01*
X168252000Y-98003000D01*
G75*
G02*
X168102000Y-97853000I0J150000D01*
G01*
X168102000Y-96203000D01*
G75*
G02*
X168252000Y-96053000I150000J0D01*
G01*
G37*
G36*
G01*
X169522000Y-96053000D02*
X169822000Y-96053000D01*
G75*
G02*
X169972000Y-96203000I0J-150000D01*
G01*
X169972000Y-97853000D01*
G75*
G02*
X169822000Y-98003000I-150000J0D01*
G01*
X169522000Y-98003000D01*
G75*
G02*
X169372000Y-97853000I0J150000D01*
G01*
X169372000Y-96203000D01*
G75*
G02*
X169522000Y-96053000I150000J0D01*
G01*
G37*
G36*
G01*
X170792000Y-96053000D02*
X171092000Y-96053000D01*
G75*
G02*
X171242000Y-96203000I0J-150000D01*
G01*
X171242000Y-97853000D01*
G75*
G02*
X171092000Y-98003000I-150000J0D01*
G01*
X170792000Y-98003000D01*
G75*
G02*
X170642000Y-97853000I0J150000D01*
G01*
X170642000Y-96203000D01*
G75*
G02*
X170792000Y-96053000I150000J0D01*
G01*
G37*
G36*
G01*
X172062000Y-96053000D02*
X172362000Y-96053000D01*
G75*
G02*
X172512000Y-96203000I0J-150000D01*
G01*
X172512000Y-97853000D01*
G75*
G02*
X172362000Y-98003000I-150000J0D01*
G01*
X172062000Y-98003000D01*
G75*
G02*
X171912000Y-97853000I0J150000D01*
G01*
X171912000Y-96203000D01*
G75*
G02*
X172062000Y-96053000I150000J0D01*
G01*
G37*
%TD*%
D19*
%TO.C,J3*%
X155702000Y-107920000D03*
X158702000Y-107920000D03*
X155702000Y-110920000D03*
G36*
G01*
X159452000Y-110420000D02*
X159452000Y-111420000D01*
G75*
G02*
X159202000Y-111670000I-250000J0D01*
G01*
X158202000Y-111670000D01*
G75*
G02*
X157952000Y-111420000I0J250000D01*
G01*
X157952000Y-110420000D01*
G75*
G02*
X158202000Y-110170000I250000J0D01*
G01*
X159202000Y-110170000D01*
G75*
G02*
X159452000Y-110420000I0J-250000D01*
G01*
G37*
D20*
X152702000Y-106980000D03*
X161702000Y-106980000D03*
%TD*%
D21*
%TO.C,J2*%
X140000000Y-85920000D03*
X140000000Y-88920000D03*
X140000000Y-91920000D03*
X140000000Y-94920000D03*
G36*
G01*
X140760000Y-98670000D02*
X139240000Y-98670000D01*
G75*
G02*
X138990000Y-98420000I0J250000D01*
G01*
X138990000Y-97420000D01*
G75*
G02*
X139240000Y-97170000I250000J0D01*
G01*
X140760000Y-97170000D01*
G75*
G02*
X141010000Y-97420000I0J-250000D01*
G01*
X141010000Y-98420000D01*
G75*
G02*
X140760000Y-98670000I-250000J0D01*
G01*
G37*
D22*
X138040000Y-82920000D03*
X138040000Y-100920000D03*
%TD*%
M02*
