%TF.GenerationSoftware,KiCad,Pcbnew,(5.1.12-1-10_14)*%
%TF.CreationDate,2022-01-19T19:17:41+01:00*%
%TF.ProjectId,CAN_Display,43414e5f-4469-4737-906c-61792e6b6963,rev?*%
%TF.SameCoordinates,Original*%
%TF.FileFunction,Copper,L2,Bot*%
%TF.FilePolarity,Positive*%
%FSLAX46Y46*%
G04 Gerber Fmt 4.6, Leading zero omitted, Abs format (unit mm)*
G04 Created by KiCad (PCBNEW (5.1.12-1-10_14)) date 2022-01-19 19:17:41*
%MOMM*%
%LPD*%
G01*
G04 APERTURE LIST*
%TA.AperFunction,ComponentPad*%
%ADD10O,1.700000X1.700000*%
%TD*%
%TA.AperFunction,ComponentPad*%
%ADD11R,1.700000X1.700000*%
%TD*%
%TA.AperFunction,ComponentPad*%
%ADD12C,1.500000*%
%TD*%
%TA.AperFunction,ComponentPad*%
%ADD13O,2.020000X1.500000*%
%TD*%
%TA.AperFunction,ViaPad*%
%ADD14C,0.800000*%
%TD*%
%TA.AperFunction,Conductor*%
%ADD15C,0.250000*%
%TD*%
%TA.AperFunction,Conductor*%
%ADD16C,0.500000*%
%TD*%
%TA.AperFunction,Conductor*%
%ADD17C,0.254000*%
%TD*%
%TA.AperFunction,Conductor*%
%ADD18C,0.100000*%
%TD*%
G04 APERTURE END LIST*
D10*
%TO.P,J5,3*%
%TO.N,GND*%
X148336000Y-105664000D03*
%TO.P,J5,2*%
%TO.N,UPDI*%
X145796000Y-105664000D03*
D11*
%TO.P,J5,1*%
%TO.N,+5V*%
X143256000Y-105664000D03*
%TD*%
D10*
%TO.P,J4,6*%
%TO.N,N/C*%
X163576000Y-72644000D03*
%TO.P,J4,5*%
%TO.N,SCL*%
X161036000Y-72644000D03*
%TO.P,J4,4*%
%TO.N,SDA*%
X158496000Y-72644000D03*
%TO.P,J4,3*%
%TO.N,KEY*%
X155956000Y-72644000D03*
%TO.P,J4,2*%
%TO.N,GND*%
X153416000Y-72644000D03*
D11*
%TO.P,J4,1*%
%TO.N,+5V*%
X150876000Y-72644000D03*
%TD*%
D10*
%TO.P,J1,9*%
%TO.N,D6*%
X145680000Y-100920000D03*
%TO.P,J1,8*%
%TO.N,D7*%
X148220000Y-100920000D03*
%TO.P,J1,7*%
%TO.N,D8*%
X150760000Y-100920000D03*
%TO.P,J1,6*%
%TO.N,D9*%
X153300000Y-100920000D03*
%TO.P,J1,5*%
%TO.N,SCK*%
X155840000Y-100920000D03*
%TO.P,J1,4*%
%TO.N,MOSI*%
X158380000Y-100920000D03*
%TO.P,J1,3*%
%TO.N,MISO*%
X160920000Y-100920000D03*
%TO.P,J1,2*%
%TO.N,GND*%
X163460000Y-100920000D03*
D11*
%TO.P,J1,1*%
%TO.N,+5V*%
X166000000Y-100920000D03*
%TD*%
D12*
%TO.P,J3,4*%
%TO.N,CAN_H*%
X155702000Y-107920000D03*
%TO.P,J3,3*%
%TO.N,CAN_L*%
X158702000Y-107920000D03*
%TO.P,J3,2*%
%TO.N,GND*%
X155702000Y-110920000D03*
%TO.P,J3,1*%
%TO.N,+5V*%
%TA.AperFunction,ComponentPad*%
G36*
G01*
X159452000Y-110420000D02*
X159452000Y-111420000D01*
G75*
G02*
X159202000Y-111670000I-250000J0D01*
G01*
X158202000Y-111670000D01*
G75*
G02*
X157952000Y-111420000I0J250000D01*
G01*
X157952000Y-110420000D01*
G75*
G02*
X158202000Y-110170000I250000J0D01*
G01*
X159202000Y-110170000D01*
G75*
G02*
X159452000Y-110420000I0J-250000D01*
G01*
G37*
%TD.AperFunction*%
%TD*%
D13*
%TO.P,J2,5*%
%TO.N,Net-(C5-Pad1)*%
X140000000Y-85920000D03*
%TO.P,J2,4*%
%TO.N,RXD*%
X140000000Y-88920000D03*
%TO.P,J2,3*%
%TO.N,TXD*%
X140000000Y-91920000D03*
%TO.P,J2,2*%
%TO.N,GND*%
X140000000Y-94920000D03*
%TO.P,J2,1*%
%TO.N,+5V*%
%TA.AperFunction,ComponentPad*%
G36*
G01*
X140760000Y-98670000D02*
X139240000Y-98670000D01*
G75*
G02*
X138990000Y-98420000I0J250000D01*
G01*
X138990000Y-97420000D01*
G75*
G02*
X139240000Y-97170000I250000J0D01*
G01*
X140760000Y-97170000D01*
G75*
G02*
X141010000Y-97420000I0J-250000D01*
G01*
X141010000Y-98420000D01*
G75*
G02*
X140760000Y-98670000I-250000J0D01*
G01*
G37*
%TD.AperFunction*%
%TD*%
D14*
%TO.N,GND*%
X173736000Y-104140000D03*
X154686000Y-89408000D03*
X147320000Y-89154000D03*
%TO.N,D6*%
X153416000Y-94234000D03*
%TO.N,D7*%
X154361000Y-93425299D03*
%TO.N,SCK*%
X148336000Y-87376000D03*
X166370000Y-86868000D03*
%TO.N,MOSI*%
X148336000Y-85344000D03*
X165100000Y-87630000D03*
X164587347Y-93213347D03*
%TO.N,MISO*%
X148336000Y-86360000D03*
X164846000Y-88900000D03*
X167132000Y-91694000D03*
%TO.N,+5V*%
X154178000Y-81280000D03*
X160782000Y-80785034D03*
X157734000Y-80772000D03*
X168432011Y-83027989D03*
%TO.N,CAN_H*%
X170688000Y-104140000D03*
%TO.N,CAN_L*%
X169672000Y-103632000D03*
%TO.N,D2*%
X148336000Y-90170000D03*
X166878000Y-85344000D03*
%TO.N,SCL*%
X150114000Y-84074000D03*
%TO.N,SDA*%
X150876000Y-83058000D03*
%TO.N,SS*%
X148336000Y-88392000D03*
X164592000Y-91186000D03*
%TO.N,D9*%
X156210000Y-93726000D03*
%TO.N,D8*%
X155194000Y-93980000D03*
%TO.N,D3*%
X162052000Y-81280000D03*
X151638000Y-93726000D03*
%TO.N,UPDI*%
X155194000Y-80430000D03*
%TD*%
D15*
%TO.N,D6*%
X153416000Y-94234000D02*
X148590000Y-99060000D01*
X147540000Y-99060000D02*
X145680000Y-100920000D01*
X148590000Y-99060000D02*
X147540000Y-99060000D01*
%TO.N,D7*%
X154361000Y-93425299D02*
X154361000Y-94671000D01*
X148220000Y-100812000D02*
X148220000Y-100920000D01*
X154361000Y-94671000D02*
X148220000Y-100812000D01*
%TO.N,SCK*%
X148336000Y-87376000D02*
X161290000Y-87376000D01*
X161290000Y-87376000D02*
X161544000Y-87376000D01*
X161544000Y-87376000D02*
X164338000Y-90170000D01*
X164338000Y-90170000D02*
X165354000Y-90170000D01*
X165354000Y-90170000D02*
X166370000Y-89154000D01*
X166370000Y-89154000D02*
X166370000Y-86868000D01*
X147320000Y-87376000D02*
X147770315Y-87376000D01*
X147770315Y-87376000D02*
X148336000Y-87376000D01*
X146050000Y-90424000D02*
X146050000Y-88646000D01*
X155505002Y-91948000D02*
X147574000Y-91948000D01*
X156935001Y-93377999D02*
X155505002Y-91948000D01*
X147574000Y-91948000D02*
X146050000Y-90424000D01*
X156935001Y-99824999D02*
X156935001Y-93377999D01*
X146050000Y-88646000D02*
X147320000Y-87376000D01*
X155840000Y-100920000D02*
X156935001Y-99824999D01*
%TO.N,MOSI*%
X148336000Y-85344000D02*
X164592000Y-85344000D01*
X164592000Y-85344000D02*
X165100000Y-85852000D01*
X165100000Y-85852000D02*
X165100000Y-87630000D01*
X158380000Y-100920000D02*
X158380000Y-99430000D01*
X164587347Y-93222653D02*
X164587347Y-93213347D01*
X158380000Y-99430000D02*
X164587347Y-93222653D01*
%TO.N,MISO*%
X148336000Y-86360000D02*
X163322000Y-86360000D01*
X163322000Y-86360000D02*
X164338000Y-87376000D01*
X164338000Y-87376000D02*
X164338000Y-88392000D01*
X164338000Y-88392000D02*
X164846000Y-88900000D01*
X160920000Y-100920000D02*
X160920000Y-97906000D01*
X160920000Y-97906000D02*
X167132000Y-91694000D01*
D16*
%TO.N,+5V*%
X154178000Y-81280000D02*
X157226000Y-81280000D01*
X157226000Y-81280000D02*
X157734000Y-80772000D01*
X141460010Y-96459990D02*
X140000000Y-97920000D01*
X141460010Y-87393990D02*
X141460010Y-96459990D01*
X147574000Y-81280000D02*
X141460010Y-87393990D01*
X154178000Y-81280000D02*
X147574000Y-81280000D01*
X161181999Y-80385035D02*
X165729035Y-80385035D01*
X160782000Y-80785034D02*
X161181999Y-80385035D01*
X168371989Y-83027989D02*
X168432011Y-83027989D01*
X165729035Y-80385035D02*
X168371989Y-83027989D01*
D15*
%TO.N,CAN_H*%
X165832999Y-108995001D02*
X170688000Y-104140000D01*
X156777001Y-108995001D02*
X165832999Y-108995001D01*
X155702000Y-107920000D02*
X156777001Y-108995001D01*
%TO.N,CAN_L*%
X163288000Y-103632000D02*
X159000000Y-107920000D01*
X169672000Y-103632000D02*
X163288000Y-103632000D01*
%TO.N,D2*%
X148336000Y-90170000D02*
X155194000Y-90170000D01*
X155194000Y-90170000D02*
X161544000Y-90170000D01*
X161544000Y-90170000D02*
X163576000Y-92202000D01*
X163576000Y-92202000D02*
X165100000Y-92202000D01*
X167095001Y-90206999D02*
X167095001Y-85561001D01*
X165100000Y-92202000D02*
X167095001Y-90206999D01*
X167095001Y-85561001D02*
X166878000Y-85344000D01*
%TO.N,SCL*%
X161036000Y-72644000D02*
X161036000Y-74422000D01*
X161036000Y-74422000D02*
X159004000Y-76454000D01*
X156338410Y-84074000D02*
X150114000Y-84074000D01*
X159004000Y-81408410D02*
X156338410Y-84074000D01*
X159004000Y-76454000D02*
X159004000Y-81408410D01*
%TO.N,SDA*%
X158496000Y-81280000D02*
X156718000Y-83058000D01*
X158496000Y-72644000D02*
X158496000Y-81280000D01*
X150876000Y-83058000D02*
X156718000Y-83058000D01*
%TO.N,SS*%
X148336000Y-88392000D02*
X160528000Y-88392000D01*
X160528000Y-88392000D02*
X161798000Y-88392000D01*
X161798000Y-88392000D02*
X164592000Y-91186000D01*
%TO.N,D9*%
X156210000Y-98010000D02*
X153300000Y-100920000D01*
X156210000Y-93726000D02*
X156210000Y-98010000D01*
%TO.N,D8*%
X155160000Y-96520000D02*
X155194000Y-96520000D01*
X150760000Y-100920000D02*
X155160000Y-96520000D01*
X155194000Y-93980000D02*
X155194000Y-96520000D01*
%TO.N,D3*%
X158532999Y-84799001D02*
X149315001Y-84799001D01*
X162052000Y-81280000D02*
X158532999Y-84799001D01*
X149134999Y-84618999D02*
X147987999Y-84618999D01*
X149315001Y-84799001D02*
X149134999Y-84618999D01*
X150182588Y-93726000D02*
X151638000Y-93726000D01*
X145599990Y-87007008D02*
X147987999Y-84618999D01*
X145599990Y-90610400D02*
X145599990Y-87007008D01*
X148715590Y-93726000D02*
X145599990Y-90610400D01*
X150182588Y-93726000D02*
X148715590Y-93726000D01*
%TO.N,UPDI*%
X138664990Y-98658180D02*
X143638810Y-103632000D01*
X138664990Y-88474717D02*
X138664990Y-98658180D01*
X139294717Y-87844990D02*
X138664990Y-88474717D01*
X140195824Y-87844990D02*
X139294717Y-87844990D01*
X147610814Y-80430000D02*
X140195824Y-87844990D01*
X155194000Y-80430000D02*
X147610814Y-80430000D01*
X143638810Y-103632000D02*
X145034000Y-103632000D01*
X145796000Y-104394000D02*
X145796000Y-105664000D01*
X145034000Y-103632000D02*
X145796000Y-104394000D01*
%TD*%
D17*
%TO.N,GND*%
X158968219Y-69475653D02*
X160839421Y-69719067D01*
X162683666Y-70118199D01*
X164488071Y-70670262D01*
X166239932Y-71371369D01*
X167927002Y-72216619D01*
X169537416Y-73200070D01*
X171059884Y-74314823D01*
X172483740Y-75553070D01*
X173798986Y-76906117D01*
X174996399Y-78364477D01*
X176067578Y-79917915D01*
X177005017Y-81555547D01*
X177802129Y-83265866D01*
X178453333Y-85036898D01*
X178954058Y-86856214D01*
X179300788Y-88711035D01*
X179491094Y-90588368D01*
X179523644Y-92475052D01*
X179398204Y-94357830D01*
X179115658Y-96223517D01*
X178677987Y-98059014D01*
X178088261Y-99851446D01*
X177350610Y-101588260D01*
X176470223Y-103257241D01*
X175453264Y-104846701D01*
X174306867Y-106345496D01*
X173039073Y-107743107D01*
X171658778Y-109029729D01*
X170175663Y-110196337D01*
X168600125Y-111234753D01*
X166943229Y-112137685D01*
X165216581Y-112898808D01*
X163432307Y-113512777D01*
X161602913Y-113975289D01*
X159738509Y-114283550D01*
X158496921Y-114400127D01*
X158496000Y-114400036D01*
X158416411Y-114407875D01*
X158339880Y-114431090D01*
X158269348Y-114468790D01*
X158207527Y-114519526D01*
X158156791Y-114581347D01*
X158119091Y-114651879D01*
X158095876Y-114728410D01*
X158090001Y-114788059D01*
X158090000Y-116434000D01*
X156362000Y-116434000D01*
X156362000Y-114788059D01*
X156356125Y-114728410D01*
X156332910Y-114651879D01*
X156295210Y-114581347D01*
X156244474Y-114519526D01*
X156182652Y-114468790D01*
X156112120Y-114431090D01*
X156035589Y-114407875D01*
X155956000Y-114400036D01*
X155876410Y-114407875D01*
X155849043Y-114416177D01*
X154093636Y-114262239D01*
X152234268Y-113940681D01*
X150408345Y-113464667D01*
X148628653Y-112837532D01*
X146907671Y-112063671D01*
X146571057Y-111876993D01*
X154924612Y-111876993D01*
X154990137Y-112115860D01*
X155237116Y-112231760D01*
X155501960Y-112297250D01*
X155774492Y-112309812D01*
X156044238Y-112268965D01*
X156300832Y-112176277D01*
X156413863Y-112115860D01*
X156479388Y-111876993D01*
X155702000Y-111099605D01*
X154924612Y-111876993D01*
X146571057Y-111876993D01*
X145257492Y-111148523D01*
X145024519Y-110992492D01*
X154312188Y-110992492D01*
X154353035Y-111262238D01*
X154445723Y-111518832D01*
X154506140Y-111631863D01*
X154745007Y-111697388D01*
X155522395Y-110920000D01*
X155881605Y-110920000D01*
X156658993Y-111697388D01*
X156897860Y-111631863D01*
X157013760Y-111384884D01*
X157079250Y-111120040D01*
X157091812Y-110847508D01*
X157050965Y-110577762D01*
X156993978Y-110420000D01*
X157569157Y-110420000D01*
X157569157Y-111420000D01*
X157581317Y-111543462D01*
X157617329Y-111662179D01*
X157675810Y-111771589D01*
X157754512Y-111867488D01*
X157850411Y-111946190D01*
X157959821Y-112004671D01*
X158078538Y-112040683D01*
X158202000Y-112052843D01*
X159202000Y-112052843D01*
X159325462Y-112040683D01*
X159444179Y-112004671D01*
X159553589Y-111946190D01*
X159649488Y-111867488D01*
X159728190Y-111771589D01*
X159786671Y-111662179D01*
X159822683Y-111543462D01*
X159834843Y-111420000D01*
X159834843Y-110420000D01*
X159822683Y-110296538D01*
X159786671Y-110177821D01*
X159728190Y-110068411D01*
X159649488Y-109972512D01*
X159553589Y-109893810D01*
X159444179Y-109835329D01*
X159325462Y-109799317D01*
X159202000Y-109787157D01*
X158202000Y-109787157D01*
X158078538Y-109799317D01*
X157959821Y-109835329D01*
X157850411Y-109893810D01*
X157754512Y-109972512D01*
X157675810Y-110068411D01*
X157617329Y-110177821D01*
X157581317Y-110296538D01*
X157569157Y-110420000D01*
X156993978Y-110420000D01*
X156958277Y-110321168D01*
X156897860Y-110208137D01*
X156658993Y-110142612D01*
X155881605Y-110920000D01*
X155522395Y-110920000D01*
X154745007Y-110142612D01*
X154506140Y-110208137D01*
X154390240Y-110455116D01*
X154324750Y-110719960D01*
X154312188Y-110992492D01*
X145024519Y-110992492D01*
X143689668Y-110098494D01*
X143520017Y-109963007D01*
X154924612Y-109963007D01*
X155702000Y-110740395D01*
X156479388Y-109963007D01*
X156413863Y-109724140D01*
X156166884Y-109608240D01*
X155902040Y-109542750D01*
X155629508Y-109530188D01*
X155359762Y-109571035D01*
X155103168Y-109663723D01*
X154990137Y-109724140D01*
X154924612Y-109963007D01*
X143520017Y-109963007D01*
X142215219Y-108920967D01*
X140844467Y-107624182D01*
X139587029Y-106217239D01*
X138530061Y-104814000D01*
X142023157Y-104814000D01*
X142023157Y-106514000D01*
X142030513Y-106588689D01*
X142052299Y-106660508D01*
X142087678Y-106726696D01*
X142135289Y-106784711D01*
X142193304Y-106832322D01*
X142259492Y-106867701D01*
X142331311Y-106889487D01*
X142406000Y-106896843D01*
X144106000Y-106896843D01*
X144180689Y-106889487D01*
X144252508Y-106867701D01*
X144318696Y-106832322D01*
X144376711Y-106784711D01*
X144424322Y-106726696D01*
X144459701Y-106660508D01*
X144481487Y-106588689D01*
X144488843Y-106514000D01*
X144488843Y-104814000D01*
X144481487Y-104739311D01*
X144459701Y-104667492D01*
X144424322Y-104601304D01*
X144376711Y-104543289D01*
X144318696Y-104495678D01*
X144252508Y-104460299D01*
X144180689Y-104438513D01*
X144106000Y-104431157D01*
X142406000Y-104431157D01*
X142331311Y-104438513D01*
X142259492Y-104460299D01*
X142193304Y-104495678D01*
X142135289Y-104543289D01*
X142087678Y-104601304D01*
X142052299Y-104667492D01*
X142030513Y-104739311D01*
X142023157Y-104814000D01*
X138530061Y-104814000D01*
X138451743Y-104710025D01*
X137446549Y-103113086D01*
X136578514Y-101437641D01*
X136321535Y-100819933D01*
X137024000Y-100819933D01*
X137024000Y-101020067D01*
X137063044Y-101216356D01*
X137139632Y-101401256D01*
X137250821Y-101567662D01*
X137392338Y-101709179D01*
X137558744Y-101820368D01*
X137743644Y-101896956D01*
X137939933Y-101936000D01*
X138140067Y-101936000D01*
X138336356Y-101896956D01*
X138521256Y-101820368D01*
X138687662Y-101709179D01*
X138829179Y-101567662D01*
X138940368Y-101401256D01*
X139016956Y-101216356D01*
X139056000Y-101020067D01*
X139056000Y-100819933D01*
X139016956Y-100623644D01*
X138940368Y-100438744D01*
X138829179Y-100272338D01*
X138687662Y-100130821D01*
X138521256Y-100019632D01*
X138336356Y-99943044D01*
X138140067Y-99904000D01*
X137939933Y-99904000D01*
X137743644Y-99943044D01*
X137558744Y-100019632D01*
X137392338Y-100130821D01*
X137250821Y-100272338D01*
X137139632Y-100438744D01*
X137063044Y-100623644D01*
X137024000Y-100819933D01*
X136321535Y-100819933D01*
X135853719Y-99695435D01*
X135277250Y-97898690D01*
X134853151Y-96060008D01*
X134584396Y-94192285D01*
X134472871Y-92308636D01*
X134519357Y-90422239D01*
X134723527Y-88546374D01*
X134737470Y-88474717D01*
X138156543Y-88474717D01*
X138158990Y-88499563D01*
X138158991Y-98633324D01*
X138156543Y-98658180D01*
X138166312Y-98757372D01*
X138195245Y-98852754D01*
X138195246Y-98852755D01*
X138242232Y-98940659D01*
X138305464Y-99017707D01*
X138324771Y-99033552D01*
X143263438Y-103972220D01*
X143279283Y-103991527D01*
X143356331Y-104054759D01*
X143444235Y-104101745D01*
X143539617Y-104130678D01*
X143638810Y-104140448D01*
X143663664Y-104138000D01*
X144824409Y-104138000D01*
X145245859Y-104559451D01*
X145212903Y-104573102D01*
X145011283Y-104707820D01*
X144839820Y-104879283D01*
X144705102Y-105080903D01*
X144612307Y-105304931D01*
X144565000Y-105542757D01*
X144565000Y-105785243D01*
X144612307Y-106023069D01*
X144705102Y-106247097D01*
X144839820Y-106448717D01*
X145011283Y-106620180D01*
X145212903Y-106754898D01*
X145436931Y-106847693D01*
X145674757Y-106895000D01*
X145917243Y-106895000D01*
X146155069Y-106847693D01*
X146379097Y-106754898D01*
X146580717Y-106620180D01*
X146752180Y-106448717D01*
X146886898Y-106247097D01*
X146934228Y-106132832D01*
X146991843Y-106295252D01*
X147140822Y-106545355D01*
X147335731Y-106761588D01*
X147569080Y-106935641D01*
X147831901Y-107060825D01*
X147979110Y-107105476D01*
X148209000Y-106984155D01*
X148209000Y-105791000D01*
X148463000Y-105791000D01*
X148463000Y-106984155D01*
X148692890Y-107105476D01*
X148840099Y-107060825D01*
X149102920Y-106935641D01*
X149159780Y-106893229D01*
X151821000Y-106893229D01*
X151821000Y-107066771D01*
X151854856Y-107236978D01*
X151921268Y-107397310D01*
X152017682Y-107541605D01*
X152140395Y-107664318D01*
X152284690Y-107760732D01*
X152445022Y-107827144D01*
X152615229Y-107861000D01*
X152788771Y-107861000D01*
X152958978Y-107827144D01*
X153003732Y-107808606D01*
X154571000Y-107808606D01*
X154571000Y-108031394D01*
X154614464Y-108249900D01*
X154699721Y-108455729D01*
X154823495Y-108640970D01*
X154981030Y-108798505D01*
X155166271Y-108922279D01*
X155372100Y-109007536D01*
X155590606Y-109051000D01*
X155813394Y-109051000D01*
X156031900Y-109007536D01*
X156061630Y-108995222D01*
X156401629Y-109335221D01*
X156417474Y-109354528D01*
X156494522Y-109417760D01*
X156582426Y-109464746D01*
X156677808Y-109493679D01*
X156752147Y-109501001D01*
X156752155Y-109501001D01*
X156777001Y-109503448D01*
X156801847Y-109501001D01*
X165808153Y-109501001D01*
X165832999Y-109503448D01*
X165857845Y-109501001D01*
X165857853Y-109501001D01*
X165932192Y-109493679D01*
X166027574Y-109464746D01*
X166115478Y-109417760D01*
X166192526Y-109354528D01*
X166208375Y-109335216D01*
X170622592Y-104921000D01*
X170764922Y-104921000D01*
X170915809Y-104890987D01*
X171057942Y-104832113D01*
X171185859Y-104746642D01*
X171294642Y-104637859D01*
X171380113Y-104509942D01*
X171438987Y-104367809D01*
X171469000Y-104216922D01*
X171469000Y-104063078D01*
X171438987Y-103912191D01*
X171380113Y-103770058D01*
X171294642Y-103642141D01*
X171185859Y-103533358D01*
X171057942Y-103447887D01*
X170915809Y-103389013D01*
X170764922Y-103359000D01*
X170611078Y-103359000D01*
X170460191Y-103389013D01*
X170423030Y-103404406D01*
X170422987Y-103404191D01*
X170364113Y-103262058D01*
X170278642Y-103134141D01*
X170169859Y-103025358D01*
X170041942Y-102939887D01*
X169899809Y-102881013D01*
X169748922Y-102851000D01*
X169595078Y-102851000D01*
X169444191Y-102881013D01*
X169302058Y-102939887D01*
X169174141Y-103025358D01*
X169073499Y-103126000D01*
X163312854Y-103126000D01*
X163288000Y-103123552D01*
X163263146Y-103126000D01*
X163188807Y-103133322D01*
X163093425Y-103162255D01*
X163005521Y-103209241D01*
X162928473Y-103272473D01*
X162912630Y-103291778D01*
X159267078Y-106937331D01*
X159237729Y-106917721D01*
X159031900Y-106832464D01*
X158813394Y-106789000D01*
X158590606Y-106789000D01*
X158372100Y-106832464D01*
X158166271Y-106917721D01*
X157981030Y-107041495D01*
X157823495Y-107199030D01*
X157699721Y-107384271D01*
X157614464Y-107590100D01*
X157571000Y-107808606D01*
X157571000Y-108031394D01*
X157614464Y-108249900D01*
X157699721Y-108455729D01*
X157721953Y-108489001D01*
X156986593Y-108489001D01*
X156777222Y-108279630D01*
X156789536Y-108249900D01*
X156833000Y-108031394D01*
X156833000Y-107808606D01*
X156789536Y-107590100D01*
X156704279Y-107384271D01*
X156580505Y-107199030D01*
X156422970Y-107041495D01*
X156237729Y-106917721D01*
X156031900Y-106832464D01*
X155813394Y-106789000D01*
X155590606Y-106789000D01*
X155372100Y-106832464D01*
X155166271Y-106917721D01*
X154981030Y-107041495D01*
X154823495Y-107199030D01*
X154699721Y-107384271D01*
X154614464Y-107590100D01*
X154571000Y-107808606D01*
X153003732Y-107808606D01*
X153119310Y-107760732D01*
X153263605Y-107664318D01*
X153386318Y-107541605D01*
X153482732Y-107397310D01*
X153549144Y-107236978D01*
X153583000Y-107066771D01*
X153583000Y-106893229D01*
X153549144Y-106723022D01*
X153482732Y-106562690D01*
X153386318Y-106418395D01*
X153263605Y-106295682D01*
X153119310Y-106199268D01*
X152958978Y-106132856D01*
X152788771Y-106099000D01*
X152615229Y-106099000D01*
X152445022Y-106132856D01*
X152284690Y-106199268D01*
X152140395Y-106295682D01*
X152017682Y-106418395D01*
X151921268Y-106562690D01*
X151854856Y-106723022D01*
X151821000Y-106893229D01*
X149159780Y-106893229D01*
X149336269Y-106761588D01*
X149531178Y-106545355D01*
X149680157Y-106295252D01*
X149777481Y-106020891D01*
X149656814Y-105791000D01*
X148463000Y-105791000D01*
X148209000Y-105791000D01*
X148189000Y-105791000D01*
X148189000Y-105537000D01*
X148209000Y-105537000D01*
X148209000Y-104343845D01*
X148463000Y-104343845D01*
X148463000Y-105537000D01*
X149656814Y-105537000D01*
X149777481Y-105307109D01*
X149680157Y-105032748D01*
X149531178Y-104782645D01*
X149336269Y-104566412D01*
X149102920Y-104392359D01*
X148840099Y-104267175D01*
X148692890Y-104222524D01*
X148463000Y-104343845D01*
X148209000Y-104343845D01*
X147979110Y-104222524D01*
X147831901Y-104267175D01*
X147569080Y-104392359D01*
X147335731Y-104566412D01*
X147140822Y-104782645D01*
X146991843Y-105032748D01*
X146934228Y-105195168D01*
X146886898Y-105080903D01*
X146752180Y-104879283D01*
X146580717Y-104707820D01*
X146379097Y-104573102D01*
X146302000Y-104541168D01*
X146302000Y-104418854D01*
X146304448Y-104394000D01*
X146294678Y-104294807D01*
X146265745Y-104199425D01*
X146218759Y-104111521D01*
X146155527Y-104034473D01*
X146136220Y-104018628D01*
X145409376Y-103291785D01*
X145393527Y-103272473D01*
X145316479Y-103209241D01*
X145228575Y-103162255D01*
X145133193Y-103133322D01*
X145058854Y-103126000D01*
X145058846Y-103126000D01*
X145034000Y-103123553D01*
X145009154Y-103126000D01*
X143848402Y-103126000D01*
X139775244Y-99052843D01*
X140760000Y-99052843D01*
X140883462Y-99040683D01*
X141002179Y-99004671D01*
X141111589Y-98946190D01*
X141207488Y-98867488D01*
X141286190Y-98771589D01*
X141344671Y-98662179D01*
X141380683Y-98543462D01*
X141392843Y-98420000D01*
X141392843Y-97420000D01*
X141392800Y-97419568D01*
X141884278Y-96928091D01*
X141908353Y-96908333D01*
X141987206Y-96812251D01*
X142045799Y-96702632D01*
X142081880Y-96583688D01*
X142091010Y-96490988D01*
X142091010Y-96490981D01*
X142094062Y-96459990D01*
X142091010Y-96429000D01*
X142091010Y-87655358D01*
X147835369Y-81911000D01*
X153716595Y-81911000D01*
X153808058Y-81972113D01*
X153950191Y-82030987D01*
X154101078Y-82061000D01*
X154254922Y-82061000D01*
X154405809Y-82030987D01*
X154547942Y-81972113D01*
X154639405Y-81911000D01*
X157149409Y-81911000D01*
X156508409Y-82552000D01*
X151474501Y-82552000D01*
X151373859Y-82451358D01*
X151245942Y-82365887D01*
X151103809Y-82307013D01*
X150952922Y-82277000D01*
X150799078Y-82277000D01*
X150648191Y-82307013D01*
X150506058Y-82365887D01*
X150378141Y-82451358D01*
X150269358Y-82560141D01*
X150183887Y-82688058D01*
X150125013Y-82830191D01*
X150095000Y-82981078D01*
X150095000Y-83134922D01*
X150125013Y-83285809D01*
X150127992Y-83293000D01*
X150037078Y-83293000D01*
X149886191Y-83323013D01*
X149744058Y-83381887D01*
X149616141Y-83467358D01*
X149507358Y-83576141D01*
X149421887Y-83704058D01*
X149363013Y-83846191D01*
X149333000Y-83997078D01*
X149333000Y-84150922D01*
X149333036Y-84151105D01*
X149329574Y-84149254D01*
X149234192Y-84120321D01*
X149159853Y-84112999D01*
X149159845Y-84112999D01*
X149134999Y-84110552D01*
X149110153Y-84112999D01*
X148012853Y-84112999D01*
X147987999Y-84110551D01*
X147963145Y-84112999D01*
X147888806Y-84120321D01*
X147793424Y-84149254D01*
X147705520Y-84196240D01*
X147628472Y-84259472D01*
X147612627Y-84278779D01*
X145259771Y-86631636D01*
X145240464Y-86647481D01*
X145177232Y-86724529D01*
X145174339Y-86729942D01*
X145130245Y-86812434D01*
X145101312Y-86907816D01*
X145091543Y-87007008D01*
X145093991Y-87031864D01*
X145093990Y-90585554D01*
X145091543Y-90610400D01*
X145093990Y-90635246D01*
X145093990Y-90635253D01*
X145101312Y-90709592D01*
X145130245Y-90804974D01*
X145177231Y-90892879D01*
X145240463Y-90969927D01*
X145259775Y-90985776D01*
X148340218Y-94066220D01*
X148356063Y-94085527D01*
X148433111Y-94148759D01*
X148521015Y-94195745D01*
X148616397Y-94224678D01*
X148715590Y-94234448D01*
X148740444Y-94232000D01*
X151039499Y-94232000D01*
X151140141Y-94332642D01*
X151268058Y-94418113D01*
X151410191Y-94476987D01*
X151561078Y-94507000D01*
X151714922Y-94507000D01*
X151865809Y-94476987D01*
X152007942Y-94418113D01*
X152135859Y-94332642D01*
X152244642Y-94223859D01*
X152330113Y-94095942D01*
X152388987Y-93953809D01*
X152419000Y-93802922D01*
X152419000Y-93649078D01*
X152388987Y-93498191D01*
X152330113Y-93356058D01*
X152244642Y-93228141D01*
X152135859Y-93119358D01*
X152007942Y-93033887D01*
X151865809Y-92975013D01*
X151714922Y-92945000D01*
X151561078Y-92945000D01*
X151410191Y-92975013D01*
X151268058Y-93033887D01*
X151140141Y-93119358D01*
X151039499Y-93220000D01*
X148925182Y-93220000D01*
X148159182Y-92454000D01*
X155295411Y-92454000D01*
X155864976Y-93023566D01*
X155840058Y-93033887D01*
X155712141Y-93119358D01*
X155603358Y-93228141D01*
X155563547Y-93287723D01*
X155421809Y-93229013D01*
X155270922Y-93199000D01*
X155117078Y-93199000D01*
X155112470Y-93199917D01*
X155111987Y-93197490D01*
X155053113Y-93055357D01*
X154967642Y-92927440D01*
X154858859Y-92818657D01*
X154730942Y-92733186D01*
X154588809Y-92674312D01*
X154437922Y-92644299D01*
X154284078Y-92644299D01*
X154133191Y-92674312D01*
X153991058Y-92733186D01*
X153863141Y-92818657D01*
X153754358Y-92927440D01*
X153668887Y-93055357D01*
X153610013Y-93197490D01*
X153580000Y-93348377D01*
X153580000Y-93470321D01*
X153492922Y-93453000D01*
X153339078Y-93453000D01*
X153188191Y-93483013D01*
X153046058Y-93541887D01*
X152918141Y-93627358D01*
X152809358Y-93736141D01*
X152723887Y-93864058D01*
X152665013Y-94006191D01*
X152635000Y-94157078D01*
X152635000Y-94299408D01*
X148380409Y-98554000D01*
X147564845Y-98554000D01*
X147539999Y-98551553D01*
X147515153Y-98554000D01*
X147515146Y-98554000D01*
X147450694Y-98560348D01*
X147440806Y-98561322D01*
X147403238Y-98572718D01*
X147345425Y-98590255D01*
X147257521Y-98637241D01*
X147180473Y-98700473D01*
X147164629Y-98719779D01*
X146116167Y-99768242D01*
X146039069Y-99736307D01*
X145801243Y-99689000D01*
X145558757Y-99689000D01*
X145320931Y-99736307D01*
X145096903Y-99829102D01*
X144895283Y-99963820D01*
X144723820Y-100135283D01*
X144589102Y-100336903D01*
X144496307Y-100560931D01*
X144449000Y-100798757D01*
X144449000Y-101041243D01*
X144496307Y-101279069D01*
X144589102Y-101503097D01*
X144723820Y-101704717D01*
X144895283Y-101876180D01*
X145096903Y-102010898D01*
X145320931Y-102103693D01*
X145558757Y-102151000D01*
X145801243Y-102151000D01*
X146039069Y-102103693D01*
X146263097Y-102010898D01*
X146464717Y-101876180D01*
X146636180Y-101704717D01*
X146770898Y-101503097D01*
X146863693Y-101279069D01*
X146911000Y-101041243D01*
X146911000Y-100798757D01*
X146863693Y-100560931D01*
X146831758Y-100483833D01*
X147749592Y-99566000D01*
X148565154Y-99566000D01*
X148590000Y-99568447D01*
X148614846Y-99566000D01*
X148614854Y-99566000D01*
X148689193Y-99558678D01*
X148784575Y-99529745D01*
X148789062Y-99527346D01*
X148579799Y-99736610D01*
X148579069Y-99736307D01*
X148341243Y-99689000D01*
X148098757Y-99689000D01*
X147860931Y-99736307D01*
X147636903Y-99829102D01*
X147435283Y-99963820D01*
X147263820Y-100135283D01*
X147129102Y-100336903D01*
X147036307Y-100560931D01*
X146989000Y-100798757D01*
X146989000Y-101041243D01*
X147036307Y-101279069D01*
X147129102Y-101503097D01*
X147263820Y-101704717D01*
X147435283Y-101876180D01*
X147636903Y-102010898D01*
X147860931Y-102103693D01*
X148098757Y-102151000D01*
X148341243Y-102151000D01*
X148579069Y-102103693D01*
X148803097Y-102010898D01*
X149004717Y-101876180D01*
X149176180Y-101704717D01*
X149310898Y-101503097D01*
X149403693Y-101279069D01*
X149451000Y-101041243D01*
X149451000Y-100798757D01*
X149403693Y-100560931D01*
X149340126Y-100407465D01*
X154688000Y-95059592D01*
X154688001Y-96276407D01*
X151196167Y-99768242D01*
X151119069Y-99736307D01*
X150881243Y-99689000D01*
X150638757Y-99689000D01*
X150400931Y-99736307D01*
X150176903Y-99829102D01*
X149975283Y-99963820D01*
X149803820Y-100135283D01*
X149669102Y-100336903D01*
X149576307Y-100560931D01*
X149529000Y-100798757D01*
X149529000Y-101041243D01*
X149576307Y-101279069D01*
X149669102Y-101503097D01*
X149803820Y-101704717D01*
X149975283Y-101876180D01*
X150176903Y-102010898D01*
X150400931Y-102103693D01*
X150638757Y-102151000D01*
X150881243Y-102151000D01*
X151119069Y-102103693D01*
X151343097Y-102010898D01*
X151544717Y-101876180D01*
X151716180Y-101704717D01*
X151850898Y-101503097D01*
X151943693Y-101279069D01*
X151991000Y-101041243D01*
X151991000Y-100798757D01*
X151943693Y-100560931D01*
X151911758Y-100483833D01*
X155425680Y-96969912D01*
X155476479Y-96942759D01*
X155553527Y-96879527D01*
X155616759Y-96802479D01*
X155663745Y-96714575D01*
X155692678Y-96619193D01*
X155702448Y-96520000D01*
X155700000Y-96495146D01*
X155700000Y-94578501D01*
X155704000Y-94574501D01*
X155704001Y-97800407D01*
X153736167Y-99768242D01*
X153659069Y-99736307D01*
X153421243Y-99689000D01*
X153178757Y-99689000D01*
X152940931Y-99736307D01*
X152716903Y-99829102D01*
X152515283Y-99963820D01*
X152343820Y-100135283D01*
X152209102Y-100336903D01*
X152116307Y-100560931D01*
X152069000Y-100798757D01*
X152069000Y-101041243D01*
X152116307Y-101279069D01*
X152209102Y-101503097D01*
X152343820Y-101704717D01*
X152515283Y-101876180D01*
X152716903Y-102010898D01*
X152940931Y-102103693D01*
X153178757Y-102151000D01*
X153421243Y-102151000D01*
X153659069Y-102103693D01*
X153883097Y-102010898D01*
X154084717Y-101876180D01*
X154256180Y-101704717D01*
X154390898Y-101503097D01*
X154483693Y-101279069D01*
X154531000Y-101041243D01*
X154531000Y-100798757D01*
X154483693Y-100560931D01*
X154451758Y-100483833D01*
X156429001Y-98506591D01*
X156429001Y-99615407D01*
X156276167Y-99768242D01*
X156199069Y-99736307D01*
X155961243Y-99689000D01*
X155718757Y-99689000D01*
X155480931Y-99736307D01*
X155256903Y-99829102D01*
X155055283Y-99963820D01*
X154883820Y-100135283D01*
X154749102Y-100336903D01*
X154656307Y-100560931D01*
X154609000Y-100798757D01*
X154609000Y-101041243D01*
X154656307Y-101279069D01*
X154749102Y-101503097D01*
X154883820Y-101704717D01*
X155055283Y-101876180D01*
X155256903Y-102010898D01*
X155480931Y-102103693D01*
X155718757Y-102151000D01*
X155961243Y-102151000D01*
X156199069Y-102103693D01*
X156423097Y-102010898D01*
X156624717Y-101876180D01*
X156796180Y-101704717D01*
X156930898Y-101503097D01*
X157023693Y-101279069D01*
X157071000Y-101041243D01*
X157071000Y-100798757D01*
X157023693Y-100560931D01*
X156991758Y-100483833D01*
X157275221Y-100200371D01*
X157294528Y-100184526D01*
X157357760Y-100107478D01*
X157404746Y-100019574D01*
X157427850Y-99943409D01*
X157433679Y-99924193D01*
X157437365Y-99886764D01*
X157441001Y-99849853D01*
X157441001Y-99849846D01*
X157443448Y-99825000D01*
X157441001Y-99800154D01*
X157441001Y-93402845D01*
X157443448Y-93377999D01*
X157441001Y-93353153D01*
X157441001Y-93353145D01*
X157433679Y-93278806D01*
X157404746Y-93183424D01*
X157357760Y-93095520D01*
X157294528Y-93018472D01*
X157275221Y-93002627D01*
X155880378Y-91607785D01*
X155864529Y-91588473D01*
X155787481Y-91525241D01*
X155699577Y-91478255D01*
X155604195Y-91449322D01*
X155529856Y-91442000D01*
X155529848Y-91442000D01*
X155505002Y-91439553D01*
X155480156Y-91442000D01*
X147783592Y-91442000D01*
X146556000Y-90214409D01*
X146556000Y-88855591D01*
X147529592Y-87882000D01*
X147737499Y-87882000D01*
X147739499Y-87884000D01*
X147729358Y-87894141D01*
X147643887Y-88022058D01*
X147585013Y-88164191D01*
X147555000Y-88315078D01*
X147555000Y-88468922D01*
X147585013Y-88619809D01*
X147643887Y-88761942D01*
X147729358Y-88889859D01*
X147838141Y-88998642D01*
X147966058Y-89084113D01*
X148108191Y-89142987D01*
X148259078Y-89173000D01*
X148412922Y-89173000D01*
X148563809Y-89142987D01*
X148705942Y-89084113D01*
X148833859Y-88998642D01*
X148934501Y-88898000D01*
X161588409Y-88898000D01*
X163811000Y-91120592D01*
X163811000Y-91262922D01*
X163841013Y-91413809D01*
X163899887Y-91555942D01*
X163985358Y-91683859D01*
X163997499Y-91696000D01*
X163785592Y-91696000D01*
X161919376Y-89829785D01*
X161903527Y-89810473D01*
X161826479Y-89747241D01*
X161738575Y-89700255D01*
X161643193Y-89671322D01*
X161568854Y-89664000D01*
X161568846Y-89664000D01*
X161544000Y-89661553D01*
X161519154Y-89664000D01*
X148934501Y-89664000D01*
X148833859Y-89563358D01*
X148705942Y-89477887D01*
X148563809Y-89419013D01*
X148412922Y-89389000D01*
X148259078Y-89389000D01*
X148108191Y-89419013D01*
X147966058Y-89477887D01*
X147838141Y-89563358D01*
X147729358Y-89672141D01*
X147643887Y-89800058D01*
X147585013Y-89942191D01*
X147555000Y-90093078D01*
X147555000Y-90246922D01*
X147585013Y-90397809D01*
X147643887Y-90539942D01*
X147729358Y-90667859D01*
X147838141Y-90776642D01*
X147966058Y-90862113D01*
X148108191Y-90920987D01*
X148259078Y-90951000D01*
X148412922Y-90951000D01*
X148563809Y-90920987D01*
X148705942Y-90862113D01*
X148833859Y-90776642D01*
X148934501Y-90676000D01*
X161334409Y-90676000D01*
X163200628Y-92542220D01*
X163216473Y-92561527D01*
X163293521Y-92624759D01*
X163381425Y-92671745D01*
X163476807Y-92700678D01*
X163551146Y-92708000D01*
X163551154Y-92708000D01*
X163576000Y-92710447D01*
X163600846Y-92708000D01*
X163988193Y-92708000D01*
X163980705Y-92715488D01*
X163895234Y-92843405D01*
X163836360Y-92985538D01*
X163806347Y-93136425D01*
X163806347Y-93288061D01*
X158039781Y-99054628D01*
X158020474Y-99070473D01*
X157957242Y-99147521D01*
X157951003Y-99159194D01*
X157910255Y-99235426D01*
X157881322Y-99330808D01*
X157871553Y-99430000D01*
X157874001Y-99454856D01*
X157874001Y-99797167D01*
X157796903Y-99829102D01*
X157595283Y-99963820D01*
X157423820Y-100135283D01*
X157289102Y-100336903D01*
X157196307Y-100560931D01*
X157149000Y-100798757D01*
X157149000Y-101041243D01*
X157196307Y-101279069D01*
X157289102Y-101503097D01*
X157423820Y-101704717D01*
X157595283Y-101876180D01*
X157796903Y-102010898D01*
X158020931Y-102103693D01*
X158258757Y-102151000D01*
X158501243Y-102151000D01*
X158739069Y-102103693D01*
X158963097Y-102010898D01*
X159164717Y-101876180D01*
X159336180Y-101704717D01*
X159470898Y-101503097D01*
X159563693Y-101279069D01*
X159611000Y-101041243D01*
X159611000Y-100798757D01*
X159563693Y-100560931D01*
X159470898Y-100336903D01*
X159336180Y-100135283D01*
X159164717Y-99963820D01*
X158963097Y-99829102D01*
X158886000Y-99797168D01*
X158886000Y-99639591D01*
X160414001Y-98111590D01*
X160414000Y-99797167D01*
X160336903Y-99829102D01*
X160135283Y-99963820D01*
X159963820Y-100135283D01*
X159829102Y-100336903D01*
X159736307Y-100560931D01*
X159689000Y-100798757D01*
X159689000Y-101041243D01*
X159736307Y-101279069D01*
X159829102Y-101503097D01*
X159963820Y-101704717D01*
X160135283Y-101876180D01*
X160336903Y-102010898D01*
X160560931Y-102103693D01*
X160798757Y-102151000D01*
X161041243Y-102151000D01*
X161279069Y-102103693D01*
X161503097Y-102010898D01*
X161704717Y-101876180D01*
X161876180Y-101704717D01*
X162010898Y-101503097D01*
X162058228Y-101388832D01*
X162115843Y-101551252D01*
X162264822Y-101801355D01*
X162459731Y-102017588D01*
X162693080Y-102191641D01*
X162955901Y-102316825D01*
X163103110Y-102361476D01*
X163333000Y-102240155D01*
X163333000Y-101047000D01*
X163313000Y-101047000D01*
X163313000Y-100793000D01*
X163333000Y-100793000D01*
X163333000Y-99599845D01*
X163587000Y-99599845D01*
X163587000Y-100793000D01*
X163607000Y-100793000D01*
X163607000Y-101047000D01*
X163587000Y-101047000D01*
X163587000Y-102240155D01*
X163816890Y-102361476D01*
X163964099Y-102316825D01*
X164226920Y-102191641D01*
X164460269Y-102017588D01*
X164655178Y-101801355D01*
X164767157Y-101613367D01*
X164767157Y-101770000D01*
X164774513Y-101844689D01*
X164796299Y-101916508D01*
X164831678Y-101982696D01*
X164879289Y-102040711D01*
X164937304Y-102088322D01*
X165003492Y-102123701D01*
X165075311Y-102145487D01*
X165150000Y-102152843D01*
X166850000Y-102152843D01*
X166924689Y-102145487D01*
X166996508Y-102123701D01*
X167062696Y-102088322D01*
X167120711Y-102040711D01*
X167168322Y-101982696D01*
X167203701Y-101916508D01*
X167225487Y-101844689D01*
X167232843Y-101770000D01*
X167232843Y-100070000D01*
X167225487Y-99995311D01*
X167203701Y-99923492D01*
X167168322Y-99857304D01*
X167120711Y-99799289D01*
X167062696Y-99751678D01*
X166996508Y-99716299D01*
X166924689Y-99694513D01*
X166850000Y-99687157D01*
X165150000Y-99687157D01*
X165075311Y-99694513D01*
X165003492Y-99716299D01*
X164937304Y-99751678D01*
X164879289Y-99799289D01*
X164831678Y-99857304D01*
X164796299Y-99923492D01*
X164774513Y-99995311D01*
X164767157Y-100070000D01*
X164767157Y-100226633D01*
X164655178Y-100038645D01*
X164460269Y-99822412D01*
X164226920Y-99648359D01*
X163964099Y-99523175D01*
X163816890Y-99478524D01*
X163587000Y-99599845D01*
X163333000Y-99599845D01*
X163103110Y-99478524D01*
X162955901Y-99523175D01*
X162693080Y-99648359D01*
X162459731Y-99822412D01*
X162264822Y-100038645D01*
X162115843Y-100288748D01*
X162058228Y-100451168D01*
X162010898Y-100336903D01*
X161876180Y-100135283D01*
X161704717Y-99963820D01*
X161503097Y-99829102D01*
X161426000Y-99797168D01*
X161426000Y-98115591D01*
X167066592Y-92475000D01*
X167208922Y-92475000D01*
X167359809Y-92444987D01*
X167501942Y-92386113D01*
X167629859Y-92300642D01*
X167738642Y-92191859D01*
X167824113Y-92063942D01*
X167882987Y-91921809D01*
X167913000Y-91770922D01*
X167913000Y-91617078D01*
X167882987Y-91466191D01*
X167824113Y-91324058D01*
X167738642Y-91196141D01*
X167629859Y-91087358D01*
X167501942Y-91001887D01*
X167359809Y-90943013D01*
X167208922Y-90913000D01*
X167104592Y-90913000D01*
X167435221Y-90582371D01*
X167454528Y-90566526D01*
X167517760Y-90489478D01*
X167564746Y-90401574D01*
X167593679Y-90306192D01*
X167601001Y-90231853D01*
X167601001Y-90231846D01*
X167603448Y-90207000D01*
X167601001Y-90182154D01*
X167601001Y-85639373D01*
X167628987Y-85571809D01*
X167659000Y-85420922D01*
X167659000Y-85267078D01*
X167628987Y-85116191D01*
X167570113Y-84974058D01*
X167484642Y-84846141D01*
X167375859Y-84737358D01*
X167247942Y-84651887D01*
X167105809Y-84593013D01*
X166954922Y-84563000D01*
X166801078Y-84563000D01*
X166650191Y-84593013D01*
X166508058Y-84651887D01*
X166380141Y-84737358D01*
X166271358Y-84846141D01*
X166185887Y-84974058D01*
X166127013Y-85116191D01*
X166097000Y-85267078D01*
X166097000Y-85420922D01*
X166127013Y-85571809D01*
X166185887Y-85713942D01*
X166271358Y-85841859D01*
X166380141Y-85950642D01*
X166508058Y-86036113D01*
X166589002Y-86069641D01*
X166589002Y-86115261D01*
X166446922Y-86087000D01*
X166293078Y-86087000D01*
X166142191Y-86117013D01*
X166000058Y-86175887D01*
X165872141Y-86261358D01*
X165763358Y-86370141D01*
X165677887Y-86498058D01*
X165619013Y-86640191D01*
X165606000Y-86705612D01*
X165606000Y-85876845D01*
X165608447Y-85851999D01*
X165606000Y-85827153D01*
X165606000Y-85827146D01*
X165598678Y-85752807D01*
X165569745Y-85657425D01*
X165522759Y-85569521D01*
X165459527Y-85492473D01*
X165440220Y-85476628D01*
X164967376Y-85003785D01*
X164951527Y-84984473D01*
X164874479Y-84921241D01*
X164786575Y-84874255D01*
X164691193Y-84845322D01*
X164616854Y-84838000D01*
X164616846Y-84838000D01*
X164592000Y-84835553D01*
X164567154Y-84838000D01*
X159209591Y-84838000D01*
X161986592Y-82061000D01*
X162128922Y-82061000D01*
X162279809Y-82030987D01*
X162421942Y-81972113D01*
X162549859Y-81886642D01*
X162658642Y-81777859D01*
X162744113Y-81649942D01*
X162802987Y-81507809D01*
X162833000Y-81356922D01*
X162833000Y-81203078D01*
X162802987Y-81052191D01*
X162788011Y-81016035D01*
X165467667Y-81016035D01*
X167674467Y-83222835D01*
X167681024Y-83255798D01*
X167739898Y-83397931D01*
X167825369Y-83525848D01*
X167934152Y-83634631D01*
X168062069Y-83720102D01*
X168204202Y-83778976D01*
X168355089Y-83808989D01*
X168508933Y-83808989D01*
X168659820Y-83778976D01*
X168801953Y-83720102D01*
X168929870Y-83634631D01*
X169038653Y-83525848D01*
X169124124Y-83397931D01*
X169182998Y-83255798D01*
X169213011Y-83104911D01*
X169213011Y-82951067D01*
X169182998Y-82800180D01*
X169124124Y-82658047D01*
X169038653Y-82530130D01*
X168929870Y-82421347D01*
X168801953Y-82335876D01*
X168659820Y-82277002D01*
X168508933Y-82246989D01*
X168483357Y-82246989D01*
X166197140Y-79960772D01*
X166177378Y-79936692D01*
X166081296Y-79857839D01*
X165971677Y-79799246D01*
X165852733Y-79763165D01*
X165760033Y-79754035D01*
X165760025Y-79754035D01*
X165729035Y-79750983D01*
X165698045Y-79754035D01*
X161212989Y-79754035D01*
X161181998Y-79750983D01*
X161151008Y-79754035D01*
X161151001Y-79754035D01*
X161058301Y-79763165D01*
X160939357Y-79799246D01*
X160829738Y-79857839D01*
X160733656Y-79936692D01*
X160713894Y-79960772D01*
X160662079Y-80012587D01*
X160554191Y-80034047D01*
X160412058Y-80092921D01*
X160284141Y-80178392D01*
X160175358Y-80287175D01*
X160089887Y-80415092D01*
X160031013Y-80557225D01*
X160001000Y-80708112D01*
X160001000Y-80861956D01*
X160031013Y-81012843D01*
X160089887Y-81154976D01*
X160175358Y-81282893D01*
X160284141Y-81391676D01*
X160412058Y-81477147D01*
X160554191Y-81536021D01*
X160705078Y-81566034D01*
X160858922Y-81566034D01*
X161009809Y-81536021D01*
X161130294Y-81486114D01*
X158323408Y-84293001D01*
X156835000Y-84293001D01*
X159344220Y-81783782D01*
X159363527Y-81767937D01*
X159426759Y-81690889D01*
X159473745Y-81602985D01*
X159502678Y-81507603D01*
X159510000Y-81433264D01*
X159512448Y-81408410D01*
X159510000Y-81383556D01*
X159510000Y-76663591D01*
X161376220Y-74797372D01*
X161395527Y-74781527D01*
X161458759Y-74704479D01*
X161505745Y-74616575D01*
X161534678Y-74521193D01*
X161542000Y-74446854D01*
X161542000Y-74446846D01*
X161544447Y-74422000D01*
X161542000Y-74397154D01*
X161542000Y-73766832D01*
X161619097Y-73734898D01*
X161820717Y-73600180D01*
X161992180Y-73428717D01*
X162126898Y-73227097D01*
X162219693Y-73003069D01*
X162267000Y-72765243D01*
X162267000Y-72522757D01*
X162345000Y-72522757D01*
X162345000Y-72765243D01*
X162392307Y-73003069D01*
X162485102Y-73227097D01*
X162619820Y-73428717D01*
X162791283Y-73600180D01*
X162992903Y-73734898D01*
X163216931Y-73827693D01*
X163454757Y-73875000D01*
X163697243Y-73875000D01*
X163935069Y-73827693D01*
X164159097Y-73734898D01*
X164360717Y-73600180D01*
X164532180Y-73428717D01*
X164666898Y-73227097D01*
X164759693Y-73003069D01*
X164807000Y-72765243D01*
X164807000Y-72522757D01*
X164759693Y-72284931D01*
X164666898Y-72060903D01*
X164532180Y-71859283D01*
X164360717Y-71687820D01*
X164159097Y-71553102D01*
X163935069Y-71460307D01*
X163697243Y-71413000D01*
X163454757Y-71413000D01*
X163216931Y-71460307D01*
X162992903Y-71553102D01*
X162791283Y-71687820D01*
X162619820Y-71859283D01*
X162485102Y-72060903D01*
X162392307Y-72284931D01*
X162345000Y-72522757D01*
X162267000Y-72522757D01*
X162219693Y-72284931D01*
X162126898Y-72060903D01*
X161992180Y-71859283D01*
X161820717Y-71687820D01*
X161619097Y-71553102D01*
X161395069Y-71460307D01*
X161157243Y-71413000D01*
X160914757Y-71413000D01*
X160676931Y-71460307D01*
X160452903Y-71553102D01*
X160251283Y-71687820D01*
X160079820Y-71859283D01*
X159945102Y-72060903D01*
X159852307Y-72284931D01*
X159805000Y-72522757D01*
X159805000Y-72765243D01*
X159852307Y-73003069D01*
X159945102Y-73227097D01*
X160079820Y-73428717D01*
X160251283Y-73600180D01*
X160452903Y-73734898D01*
X160530001Y-73766833D01*
X160530001Y-74212407D01*
X159002000Y-75740409D01*
X159002000Y-73766832D01*
X159079097Y-73734898D01*
X159280717Y-73600180D01*
X159452180Y-73428717D01*
X159586898Y-73227097D01*
X159679693Y-73003069D01*
X159727000Y-72765243D01*
X159727000Y-72522757D01*
X159679693Y-72284931D01*
X159586898Y-72060903D01*
X159452180Y-71859283D01*
X159280717Y-71687820D01*
X159079097Y-71553102D01*
X158855069Y-71460307D01*
X158617243Y-71413000D01*
X158374757Y-71413000D01*
X158136931Y-71460307D01*
X157912903Y-71553102D01*
X157711283Y-71687820D01*
X157539820Y-71859283D01*
X157405102Y-72060903D01*
X157312307Y-72284931D01*
X157265000Y-72522757D01*
X157265000Y-72765243D01*
X157312307Y-73003069D01*
X157405102Y-73227097D01*
X157539820Y-73428717D01*
X157711283Y-73600180D01*
X157912903Y-73734898D01*
X157990000Y-73766833D01*
X157990001Y-80032691D01*
X157961809Y-80021013D01*
X157810922Y-79991000D01*
X157657078Y-79991000D01*
X157506191Y-80021013D01*
X157364058Y-80079887D01*
X157236141Y-80165358D01*
X157127358Y-80274141D01*
X157041887Y-80402058D01*
X156983013Y-80544191D01*
X156962165Y-80649000D01*
X155946739Y-80649000D01*
X155975000Y-80506922D01*
X155975000Y-80353078D01*
X155944987Y-80202191D01*
X155886113Y-80060058D01*
X155800642Y-79932141D01*
X155691859Y-79823358D01*
X155563942Y-79737887D01*
X155421809Y-79679013D01*
X155270922Y-79649000D01*
X155117078Y-79649000D01*
X154966191Y-79679013D01*
X154824058Y-79737887D01*
X154696141Y-79823358D01*
X154595499Y-79924000D01*
X147635659Y-79924000D01*
X147610813Y-79921553D01*
X147585967Y-79924000D01*
X147585960Y-79924000D01*
X147521508Y-79930348D01*
X147511620Y-79931322D01*
X147493918Y-79936692D01*
X147416239Y-79960255D01*
X147328335Y-80007241D01*
X147251287Y-80070473D01*
X147235442Y-80089780D01*
X141395516Y-85929707D01*
X141396472Y-85920000D01*
X141374635Y-85698285D01*
X141309963Y-85485091D01*
X141204942Y-85288610D01*
X141063607Y-85116393D01*
X140891390Y-84975058D01*
X140694909Y-84870037D01*
X140481715Y-84805365D01*
X140315558Y-84789000D01*
X139684442Y-84789000D01*
X139518285Y-84805365D01*
X139305091Y-84870037D01*
X139108610Y-84975058D01*
X138936393Y-85116393D01*
X138795058Y-85288610D01*
X138690037Y-85485091D01*
X138625365Y-85698285D01*
X138603528Y-85920000D01*
X138625365Y-86141715D01*
X138690037Y-86354909D01*
X138795058Y-86551390D01*
X138936393Y-86723607D01*
X139108610Y-86864942D01*
X139305091Y-86969963D01*
X139518285Y-87034635D01*
X139684442Y-87051000D01*
X140274223Y-87051000D01*
X139986233Y-87338990D01*
X139319562Y-87338990D01*
X139294716Y-87336543D01*
X139269870Y-87338990D01*
X139269863Y-87338990D01*
X139205411Y-87345338D01*
X139195523Y-87346312D01*
X139173324Y-87353046D01*
X139100142Y-87375245D01*
X139012238Y-87422231D01*
X138935190Y-87485463D01*
X138919346Y-87504769D01*
X138324775Y-88099341D01*
X138305463Y-88115190D01*
X138242231Y-88192238D01*
X138195245Y-88280143D01*
X138166312Y-88375525D01*
X138158990Y-88449864D01*
X138158990Y-88449871D01*
X138156543Y-88474717D01*
X134737470Y-88474717D01*
X135083954Y-86694151D01*
X135598103Y-84878592D01*
X136262372Y-83112426D01*
X136401330Y-82819933D01*
X137024000Y-82819933D01*
X137024000Y-83020067D01*
X137063044Y-83216356D01*
X137139632Y-83401256D01*
X137250821Y-83567662D01*
X137392338Y-83709179D01*
X137558744Y-83820368D01*
X137743644Y-83896956D01*
X137939933Y-83936000D01*
X138140067Y-83936000D01*
X138336356Y-83896956D01*
X138521256Y-83820368D01*
X138687662Y-83709179D01*
X138829179Y-83567662D01*
X138940368Y-83401256D01*
X139016956Y-83216356D01*
X139056000Y-83020067D01*
X139056000Y-82819933D01*
X139016956Y-82623644D01*
X138940368Y-82438744D01*
X138829179Y-82272338D01*
X138687662Y-82130821D01*
X138521256Y-82019632D01*
X138336356Y-81943044D01*
X138140067Y-81904000D01*
X137939933Y-81904000D01*
X137743644Y-81943044D01*
X137558744Y-82019632D01*
X137392338Y-82130821D01*
X137250821Y-82272338D01*
X137139632Y-82438744D01*
X137063044Y-82623644D01*
X137024000Y-82819933D01*
X136401330Y-82819933D01*
X137072106Y-81408024D01*
X138021613Y-79777372D01*
X139104239Y-78231891D01*
X140312389Y-76782423D01*
X141637593Y-75439131D01*
X143070565Y-74211430D01*
X144601230Y-73107953D01*
X146218866Y-72136427D01*
X146915127Y-71794000D01*
X149643157Y-71794000D01*
X149643157Y-73494000D01*
X149650513Y-73568689D01*
X149672299Y-73640508D01*
X149707678Y-73706696D01*
X149755289Y-73764711D01*
X149813304Y-73812322D01*
X149879492Y-73847701D01*
X149951311Y-73869487D01*
X150026000Y-73876843D01*
X151726000Y-73876843D01*
X151800689Y-73869487D01*
X151872508Y-73847701D01*
X151938696Y-73812322D01*
X151996711Y-73764711D01*
X152044322Y-73706696D01*
X152079701Y-73640508D01*
X152101487Y-73568689D01*
X152108843Y-73494000D01*
X152108843Y-73337367D01*
X152220822Y-73525355D01*
X152415731Y-73741588D01*
X152649080Y-73915641D01*
X152911901Y-74040825D01*
X153059110Y-74085476D01*
X153289000Y-73964155D01*
X153289000Y-72771000D01*
X153269000Y-72771000D01*
X153269000Y-72517000D01*
X153289000Y-72517000D01*
X153289000Y-71323845D01*
X153543000Y-71323845D01*
X153543000Y-72517000D01*
X153563000Y-72517000D01*
X153563000Y-72771000D01*
X153543000Y-72771000D01*
X153543000Y-73964155D01*
X153772890Y-74085476D01*
X153920099Y-74040825D01*
X154182920Y-73915641D01*
X154416269Y-73741588D01*
X154611178Y-73525355D01*
X154760157Y-73275252D01*
X154817772Y-73112832D01*
X154865102Y-73227097D01*
X154999820Y-73428717D01*
X155171283Y-73600180D01*
X155372903Y-73734898D01*
X155596931Y-73827693D01*
X155834757Y-73875000D01*
X156077243Y-73875000D01*
X156315069Y-73827693D01*
X156539097Y-73734898D01*
X156740717Y-73600180D01*
X156912180Y-73428717D01*
X157046898Y-73227097D01*
X157139693Y-73003069D01*
X157187000Y-72765243D01*
X157187000Y-72522757D01*
X157139693Y-72284931D01*
X157046898Y-72060903D01*
X156912180Y-71859283D01*
X156740717Y-71687820D01*
X156539097Y-71553102D01*
X156315069Y-71460307D01*
X156077243Y-71413000D01*
X155834757Y-71413000D01*
X155596931Y-71460307D01*
X155372903Y-71553102D01*
X155171283Y-71687820D01*
X154999820Y-71859283D01*
X154865102Y-72060903D01*
X154817772Y-72175168D01*
X154760157Y-72012748D01*
X154611178Y-71762645D01*
X154416269Y-71546412D01*
X154182920Y-71372359D01*
X153920099Y-71247175D01*
X153772890Y-71202524D01*
X153543000Y-71323845D01*
X153289000Y-71323845D01*
X153059110Y-71202524D01*
X152911901Y-71247175D01*
X152649080Y-71372359D01*
X152415731Y-71546412D01*
X152220822Y-71762645D01*
X152108843Y-71950633D01*
X152108843Y-71794000D01*
X152101487Y-71719311D01*
X152079701Y-71647492D01*
X152044322Y-71581304D01*
X151996711Y-71523289D01*
X151938696Y-71475678D01*
X151872508Y-71440299D01*
X151800689Y-71418513D01*
X151726000Y-71411157D01*
X150026000Y-71411157D01*
X149951311Y-71418513D01*
X149879492Y-71440299D01*
X149813304Y-71475678D01*
X149755289Y-71523289D01*
X149707678Y-71581304D01*
X149672299Y-71647492D01*
X149650513Y-71719311D01*
X149643157Y-71794000D01*
X146915127Y-71794000D01*
X147912115Y-71303673D01*
X149669122Y-70615521D01*
X151477550Y-70076806D01*
X153324705Y-69691307D01*
X155197647Y-69461725D01*
X157083232Y-69389673D01*
X158968219Y-69475653D01*
%TA.AperFunction,Conductor*%
D18*
G36*
X158968219Y-69475653D02*
G01*
X160839421Y-69719067D01*
X162683666Y-70118199D01*
X164488071Y-70670262D01*
X166239932Y-71371369D01*
X167927002Y-72216619D01*
X169537416Y-73200070D01*
X171059884Y-74314823D01*
X172483740Y-75553070D01*
X173798986Y-76906117D01*
X174996399Y-78364477D01*
X176067578Y-79917915D01*
X177005017Y-81555547D01*
X177802129Y-83265866D01*
X178453333Y-85036898D01*
X178954058Y-86856214D01*
X179300788Y-88711035D01*
X179491094Y-90588368D01*
X179523644Y-92475052D01*
X179398204Y-94357830D01*
X179115658Y-96223517D01*
X178677987Y-98059014D01*
X178088261Y-99851446D01*
X177350610Y-101588260D01*
X176470223Y-103257241D01*
X175453264Y-104846701D01*
X174306867Y-106345496D01*
X173039073Y-107743107D01*
X171658778Y-109029729D01*
X170175663Y-110196337D01*
X168600125Y-111234753D01*
X166943229Y-112137685D01*
X165216581Y-112898808D01*
X163432307Y-113512777D01*
X161602913Y-113975289D01*
X159738509Y-114283550D01*
X158496921Y-114400127D01*
X158496000Y-114400036D01*
X158416411Y-114407875D01*
X158339880Y-114431090D01*
X158269348Y-114468790D01*
X158207527Y-114519526D01*
X158156791Y-114581347D01*
X158119091Y-114651879D01*
X158095876Y-114728410D01*
X158090001Y-114788059D01*
X158090000Y-116434000D01*
X156362000Y-116434000D01*
X156362000Y-114788059D01*
X156356125Y-114728410D01*
X156332910Y-114651879D01*
X156295210Y-114581347D01*
X156244474Y-114519526D01*
X156182652Y-114468790D01*
X156112120Y-114431090D01*
X156035589Y-114407875D01*
X155956000Y-114400036D01*
X155876410Y-114407875D01*
X155849043Y-114416177D01*
X154093636Y-114262239D01*
X152234268Y-113940681D01*
X150408345Y-113464667D01*
X148628653Y-112837532D01*
X146907671Y-112063671D01*
X146571057Y-111876993D01*
X154924612Y-111876993D01*
X154990137Y-112115860D01*
X155237116Y-112231760D01*
X155501960Y-112297250D01*
X155774492Y-112309812D01*
X156044238Y-112268965D01*
X156300832Y-112176277D01*
X156413863Y-112115860D01*
X156479388Y-111876993D01*
X155702000Y-111099605D01*
X154924612Y-111876993D01*
X146571057Y-111876993D01*
X145257492Y-111148523D01*
X145024519Y-110992492D01*
X154312188Y-110992492D01*
X154353035Y-111262238D01*
X154445723Y-111518832D01*
X154506140Y-111631863D01*
X154745007Y-111697388D01*
X155522395Y-110920000D01*
X155881605Y-110920000D01*
X156658993Y-111697388D01*
X156897860Y-111631863D01*
X157013760Y-111384884D01*
X157079250Y-111120040D01*
X157091812Y-110847508D01*
X157050965Y-110577762D01*
X156993978Y-110420000D01*
X157569157Y-110420000D01*
X157569157Y-111420000D01*
X157581317Y-111543462D01*
X157617329Y-111662179D01*
X157675810Y-111771589D01*
X157754512Y-111867488D01*
X157850411Y-111946190D01*
X157959821Y-112004671D01*
X158078538Y-112040683D01*
X158202000Y-112052843D01*
X159202000Y-112052843D01*
X159325462Y-112040683D01*
X159444179Y-112004671D01*
X159553589Y-111946190D01*
X159649488Y-111867488D01*
X159728190Y-111771589D01*
X159786671Y-111662179D01*
X159822683Y-111543462D01*
X159834843Y-111420000D01*
X159834843Y-110420000D01*
X159822683Y-110296538D01*
X159786671Y-110177821D01*
X159728190Y-110068411D01*
X159649488Y-109972512D01*
X159553589Y-109893810D01*
X159444179Y-109835329D01*
X159325462Y-109799317D01*
X159202000Y-109787157D01*
X158202000Y-109787157D01*
X158078538Y-109799317D01*
X157959821Y-109835329D01*
X157850411Y-109893810D01*
X157754512Y-109972512D01*
X157675810Y-110068411D01*
X157617329Y-110177821D01*
X157581317Y-110296538D01*
X157569157Y-110420000D01*
X156993978Y-110420000D01*
X156958277Y-110321168D01*
X156897860Y-110208137D01*
X156658993Y-110142612D01*
X155881605Y-110920000D01*
X155522395Y-110920000D01*
X154745007Y-110142612D01*
X154506140Y-110208137D01*
X154390240Y-110455116D01*
X154324750Y-110719960D01*
X154312188Y-110992492D01*
X145024519Y-110992492D01*
X143689668Y-110098494D01*
X143520017Y-109963007D01*
X154924612Y-109963007D01*
X155702000Y-110740395D01*
X156479388Y-109963007D01*
X156413863Y-109724140D01*
X156166884Y-109608240D01*
X155902040Y-109542750D01*
X155629508Y-109530188D01*
X155359762Y-109571035D01*
X155103168Y-109663723D01*
X154990137Y-109724140D01*
X154924612Y-109963007D01*
X143520017Y-109963007D01*
X142215219Y-108920967D01*
X140844467Y-107624182D01*
X139587029Y-106217239D01*
X138530061Y-104814000D01*
X142023157Y-104814000D01*
X142023157Y-106514000D01*
X142030513Y-106588689D01*
X142052299Y-106660508D01*
X142087678Y-106726696D01*
X142135289Y-106784711D01*
X142193304Y-106832322D01*
X142259492Y-106867701D01*
X142331311Y-106889487D01*
X142406000Y-106896843D01*
X144106000Y-106896843D01*
X144180689Y-106889487D01*
X144252508Y-106867701D01*
X144318696Y-106832322D01*
X144376711Y-106784711D01*
X144424322Y-106726696D01*
X144459701Y-106660508D01*
X144481487Y-106588689D01*
X144488843Y-106514000D01*
X144488843Y-104814000D01*
X144481487Y-104739311D01*
X144459701Y-104667492D01*
X144424322Y-104601304D01*
X144376711Y-104543289D01*
X144318696Y-104495678D01*
X144252508Y-104460299D01*
X144180689Y-104438513D01*
X144106000Y-104431157D01*
X142406000Y-104431157D01*
X142331311Y-104438513D01*
X142259492Y-104460299D01*
X142193304Y-104495678D01*
X142135289Y-104543289D01*
X142087678Y-104601304D01*
X142052299Y-104667492D01*
X142030513Y-104739311D01*
X142023157Y-104814000D01*
X138530061Y-104814000D01*
X138451743Y-104710025D01*
X137446549Y-103113086D01*
X136578514Y-101437641D01*
X136321535Y-100819933D01*
X137024000Y-100819933D01*
X137024000Y-101020067D01*
X137063044Y-101216356D01*
X137139632Y-101401256D01*
X137250821Y-101567662D01*
X137392338Y-101709179D01*
X137558744Y-101820368D01*
X137743644Y-101896956D01*
X137939933Y-101936000D01*
X138140067Y-101936000D01*
X138336356Y-101896956D01*
X138521256Y-101820368D01*
X138687662Y-101709179D01*
X138829179Y-101567662D01*
X138940368Y-101401256D01*
X139016956Y-101216356D01*
X139056000Y-101020067D01*
X139056000Y-100819933D01*
X139016956Y-100623644D01*
X138940368Y-100438744D01*
X138829179Y-100272338D01*
X138687662Y-100130821D01*
X138521256Y-100019632D01*
X138336356Y-99943044D01*
X138140067Y-99904000D01*
X137939933Y-99904000D01*
X137743644Y-99943044D01*
X137558744Y-100019632D01*
X137392338Y-100130821D01*
X137250821Y-100272338D01*
X137139632Y-100438744D01*
X137063044Y-100623644D01*
X137024000Y-100819933D01*
X136321535Y-100819933D01*
X135853719Y-99695435D01*
X135277250Y-97898690D01*
X134853151Y-96060008D01*
X134584396Y-94192285D01*
X134472871Y-92308636D01*
X134519357Y-90422239D01*
X134723527Y-88546374D01*
X134737470Y-88474717D01*
X138156543Y-88474717D01*
X138158990Y-88499563D01*
X138158991Y-98633324D01*
X138156543Y-98658180D01*
X138166312Y-98757372D01*
X138195245Y-98852754D01*
X138195246Y-98852755D01*
X138242232Y-98940659D01*
X138305464Y-99017707D01*
X138324771Y-99033552D01*
X143263438Y-103972220D01*
X143279283Y-103991527D01*
X143356331Y-104054759D01*
X143444235Y-104101745D01*
X143539617Y-104130678D01*
X143638810Y-104140448D01*
X143663664Y-104138000D01*
X144824409Y-104138000D01*
X145245859Y-104559451D01*
X145212903Y-104573102D01*
X145011283Y-104707820D01*
X144839820Y-104879283D01*
X144705102Y-105080903D01*
X144612307Y-105304931D01*
X144565000Y-105542757D01*
X144565000Y-105785243D01*
X144612307Y-106023069D01*
X144705102Y-106247097D01*
X144839820Y-106448717D01*
X145011283Y-106620180D01*
X145212903Y-106754898D01*
X145436931Y-106847693D01*
X145674757Y-106895000D01*
X145917243Y-106895000D01*
X146155069Y-106847693D01*
X146379097Y-106754898D01*
X146580717Y-106620180D01*
X146752180Y-106448717D01*
X146886898Y-106247097D01*
X146934228Y-106132832D01*
X146991843Y-106295252D01*
X147140822Y-106545355D01*
X147335731Y-106761588D01*
X147569080Y-106935641D01*
X147831901Y-107060825D01*
X147979110Y-107105476D01*
X148209000Y-106984155D01*
X148209000Y-105791000D01*
X148463000Y-105791000D01*
X148463000Y-106984155D01*
X148692890Y-107105476D01*
X148840099Y-107060825D01*
X149102920Y-106935641D01*
X149159780Y-106893229D01*
X151821000Y-106893229D01*
X151821000Y-107066771D01*
X151854856Y-107236978D01*
X151921268Y-107397310D01*
X152017682Y-107541605D01*
X152140395Y-107664318D01*
X152284690Y-107760732D01*
X152445022Y-107827144D01*
X152615229Y-107861000D01*
X152788771Y-107861000D01*
X152958978Y-107827144D01*
X153003732Y-107808606D01*
X154571000Y-107808606D01*
X154571000Y-108031394D01*
X154614464Y-108249900D01*
X154699721Y-108455729D01*
X154823495Y-108640970D01*
X154981030Y-108798505D01*
X155166271Y-108922279D01*
X155372100Y-109007536D01*
X155590606Y-109051000D01*
X155813394Y-109051000D01*
X156031900Y-109007536D01*
X156061630Y-108995222D01*
X156401629Y-109335221D01*
X156417474Y-109354528D01*
X156494522Y-109417760D01*
X156582426Y-109464746D01*
X156677808Y-109493679D01*
X156752147Y-109501001D01*
X156752155Y-109501001D01*
X156777001Y-109503448D01*
X156801847Y-109501001D01*
X165808153Y-109501001D01*
X165832999Y-109503448D01*
X165857845Y-109501001D01*
X165857853Y-109501001D01*
X165932192Y-109493679D01*
X166027574Y-109464746D01*
X166115478Y-109417760D01*
X166192526Y-109354528D01*
X166208375Y-109335216D01*
X170622592Y-104921000D01*
X170764922Y-104921000D01*
X170915809Y-104890987D01*
X171057942Y-104832113D01*
X171185859Y-104746642D01*
X171294642Y-104637859D01*
X171380113Y-104509942D01*
X171438987Y-104367809D01*
X171469000Y-104216922D01*
X171469000Y-104063078D01*
X171438987Y-103912191D01*
X171380113Y-103770058D01*
X171294642Y-103642141D01*
X171185859Y-103533358D01*
X171057942Y-103447887D01*
X170915809Y-103389013D01*
X170764922Y-103359000D01*
X170611078Y-103359000D01*
X170460191Y-103389013D01*
X170423030Y-103404406D01*
X170422987Y-103404191D01*
X170364113Y-103262058D01*
X170278642Y-103134141D01*
X170169859Y-103025358D01*
X170041942Y-102939887D01*
X169899809Y-102881013D01*
X169748922Y-102851000D01*
X169595078Y-102851000D01*
X169444191Y-102881013D01*
X169302058Y-102939887D01*
X169174141Y-103025358D01*
X169073499Y-103126000D01*
X163312854Y-103126000D01*
X163288000Y-103123552D01*
X163263146Y-103126000D01*
X163188807Y-103133322D01*
X163093425Y-103162255D01*
X163005521Y-103209241D01*
X162928473Y-103272473D01*
X162912630Y-103291778D01*
X159267078Y-106937331D01*
X159237729Y-106917721D01*
X159031900Y-106832464D01*
X158813394Y-106789000D01*
X158590606Y-106789000D01*
X158372100Y-106832464D01*
X158166271Y-106917721D01*
X157981030Y-107041495D01*
X157823495Y-107199030D01*
X157699721Y-107384271D01*
X157614464Y-107590100D01*
X157571000Y-107808606D01*
X157571000Y-108031394D01*
X157614464Y-108249900D01*
X157699721Y-108455729D01*
X157721953Y-108489001D01*
X156986593Y-108489001D01*
X156777222Y-108279630D01*
X156789536Y-108249900D01*
X156833000Y-108031394D01*
X156833000Y-107808606D01*
X156789536Y-107590100D01*
X156704279Y-107384271D01*
X156580505Y-107199030D01*
X156422970Y-107041495D01*
X156237729Y-106917721D01*
X156031900Y-106832464D01*
X155813394Y-106789000D01*
X155590606Y-106789000D01*
X155372100Y-106832464D01*
X155166271Y-106917721D01*
X154981030Y-107041495D01*
X154823495Y-107199030D01*
X154699721Y-107384271D01*
X154614464Y-107590100D01*
X154571000Y-107808606D01*
X153003732Y-107808606D01*
X153119310Y-107760732D01*
X153263605Y-107664318D01*
X153386318Y-107541605D01*
X153482732Y-107397310D01*
X153549144Y-107236978D01*
X153583000Y-107066771D01*
X153583000Y-106893229D01*
X153549144Y-106723022D01*
X153482732Y-106562690D01*
X153386318Y-106418395D01*
X153263605Y-106295682D01*
X153119310Y-106199268D01*
X152958978Y-106132856D01*
X152788771Y-106099000D01*
X152615229Y-106099000D01*
X152445022Y-106132856D01*
X152284690Y-106199268D01*
X152140395Y-106295682D01*
X152017682Y-106418395D01*
X151921268Y-106562690D01*
X151854856Y-106723022D01*
X151821000Y-106893229D01*
X149159780Y-106893229D01*
X149336269Y-106761588D01*
X149531178Y-106545355D01*
X149680157Y-106295252D01*
X149777481Y-106020891D01*
X149656814Y-105791000D01*
X148463000Y-105791000D01*
X148209000Y-105791000D01*
X148189000Y-105791000D01*
X148189000Y-105537000D01*
X148209000Y-105537000D01*
X148209000Y-104343845D01*
X148463000Y-104343845D01*
X148463000Y-105537000D01*
X149656814Y-105537000D01*
X149777481Y-105307109D01*
X149680157Y-105032748D01*
X149531178Y-104782645D01*
X149336269Y-104566412D01*
X149102920Y-104392359D01*
X148840099Y-104267175D01*
X148692890Y-104222524D01*
X148463000Y-104343845D01*
X148209000Y-104343845D01*
X147979110Y-104222524D01*
X147831901Y-104267175D01*
X147569080Y-104392359D01*
X147335731Y-104566412D01*
X147140822Y-104782645D01*
X146991843Y-105032748D01*
X146934228Y-105195168D01*
X146886898Y-105080903D01*
X146752180Y-104879283D01*
X146580717Y-104707820D01*
X146379097Y-104573102D01*
X146302000Y-104541168D01*
X146302000Y-104418854D01*
X146304448Y-104394000D01*
X146294678Y-104294807D01*
X146265745Y-104199425D01*
X146218759Y-104111521D01*
X146155527Y-104034473D01*
X146136220Y-104018628D01*
X145409376Y-103291785D01*
X145393527Y-103272473D01*
X145316479Y-103209241D01*
X145228575Y-103162255D01*
X145133193Y-103133322D01*
X145058854Y-103126000D01*
X145058846Y-103126000D01*
X145034000Y-103123553D01*
X145009154Y-103126000D01*
X143848402Y-103126000D01*
X139775244Y-99052843D01*
X140760000Y-99052843D01*
X140883462Y-99040683D01*
X141002179Y-99004671D01*
X141111589Y-98946190D01*
X141207488Y-98867488D01*
X141286190Y-98771589D01*
X141344671Y-98662179D01*
X141380683Y-98543462D01*
X141392843Y-98420000D01*
X141392843Y-97420000D01*
X141392800Y-97419568D01*
X141884278Y-96928091D01*
X141908353Y-96908333D01*
X141987206Y-96812251D01*
X142045799Y-96702632D01*
X142081880Y-96583688D01*
X142091010Y-96490988D01*
X142091010Y-96490981D01*
X142094062Y-96459990D01*
X142091010Y-96429000D01*
X142091010Y-87655358D01*
X147835369Y-81911000D01*
X153716595Y-81911000D01*
X153808058Y-81972113D01*
X153950191Y-82030987D01*
X154101078Y-82061000D01*
X154254922Y-82061000D01*
X154405809Y-82030987D01*
X154547942Y-81972113D01*
X154639405Y-81911000D01*
X157149409Y-81911000D01*
X156508409Y-82552000D01*
X151474501Y-82552000D01*
X151373859Y-82451358D01*
X151245942Y-82365887D01*
X151103809Y-82307013D01*
X150952922Y-82277000D01*
X150799078Y-82277000D01*
X150648191Y-82307013D01*
X150506058Y-82365887D01*
X150378141Y-82451358D01*
X150269358Y-82560141D01*
X150183887Y-82688058D01*
X150125013Y-82830191D01*
X150095000Y-82981078D01*
X150095000Y-83134922D01*
X150125013Y-83285809D01*
X150127992Y-83293000D01*
X150037078Y-83293000D01*
X149886191Y-83323013D01*
X149744058Y-83381887D01*
X149616141Y-83467358D01*
X149507358Y-83576141D01*
X149421887Y-83704058D01*
X149363013Y-83846191D01*
X149333000Y-83997078D01*
X149333000Y-84150922D01*
X149333036Y-84151105D01*
X149329574Y-84149254D01*
X149234192Y-84120321D01*
X149159853Y-84112999D01*
X149159845Y-84112999D01*
X149134999Y-84110552D01*
X149110153Y-84112999D01*
X148012853Y-84112999D01*
X147987999Y-84110551D01*
X147963145Y-84112999D01*
X147888806Y-84120321D01*
X147793424Y-84149254D01*
X147705520Y-84196240D01*
X147628472Y-84259472D01*
X147612627Y-84278779D01*
X145259771Y-86631636D01*
X145240464Y-86647481D01*
X145177232Y-86724529D01*
X145174339Y-86729942D01*
X145130245Y-86812434D01*
X145101312Y-86907816D01*
X145091543Y-87007008D01*
X145093991Y-87031864D01*
X145093990Y-90585554D01*
X145091543Y-90610400D01*
X145093990Y-90635246D01*
X145093990Y-90635253D01*
X145101312Y-90709592D01*
X145130245Y-90804974D01*
X145177231Y-90892879D01*
X145240463Y-90969927D01*
X145259775Y-90985776D01*
X148340218Y-94066220D01*
X148356063Y-94085527D01*
X148433111Y-94148759D01*
X148521015Y-94195745D01*
X148616397Y-94224678D01*
X148715590Y-94234448D01*
X148740444Y-94232000D01*
X151039499Y-94232000D01*
X151140141Y-94332642D01*
X151268058Y-94418113D01*
X151410191Y-94476987D01*
X151561078Y-94507000D01*
X151714922Y-94507000D01*
X151865809Y-94476987D01*
X152007942Y-94418113D01*
X152135859Y-94332642D01*
X152244642Y-94223859D01*
X152330113Y-94095942D01*
X152388987Y-93953809D01*
X152419000Y-93802922D01*
X152419000Y-93649078D01*
X152388987Y-93498191D01*
X152330113Y-93356058D01*
X152244642Y-93228141D01*
X152135859Y-93119358D01*
X152007942Y-93033887D01*
X151865809Y-92975013D01*
X151714922Y-92945000D01*
X151561078Y-92945000D01*
X151410191Y-92975013D01*
X151268058Y-93033887D01*
X151140141Y-93119358D01*
X151039499Y-93220000D01*
X148925182Y-93220000D01*
X148159182Y-92454000D01*
X155295411Y-92454000D01*
X155864976Y-93023566D01*
X155840058Y-93033887D01*
X155712141Y-93119358D01*
X155603358Y-93228141D01*
X155563547Y-93287723D01*
X155421809Y-93229013D01*
X155270922Y-93199000D01*
X155117078Y-93199000D01*
X155112470Y-93199917D01*
X155111987Y-93197490D01*
X155053113Y-93055357D01*
X154967642Y-92927440D01*
X154858859Y-92818657D01*
X154730942Y-92733186D01*
X154588809Y-92674312D01*
X154437922Y-92644299D01*
X154284078Y-92644299D01*
X154133191Y-92674312D01*
X153991058Y-92733186D01*
X153863141Y-92818657D01*
X153754358Y-92927440D01*
X153668887Y-93055357D01*
X153610013Y-93197490D01*
X153580000Y-93348377D01*
X153580000Y-93470321D01*
X153492922Y-93453000D01*
X153339078Y-93453000D01*
X153188191Y-93483013D01*
X153046058Y-93541887D01*
X152918141Y-93627358D01*
X152809358Y-93736141D01*
X152723887Y-93864058D01*
X152665013Y-94006191D01*
X152635000Y-94157078D01*
X152635000Y-94299408D01*
X148380409Y-98554000D01*
X147564845Y-98554000D01*
X147539999Y-98551553D01*
X147515153Y-98554000D01*
X147515146Y-98554000D01*
X147450694Y-98560348D01*
X147440806Y-98561322D01*
X147403238Y-98572718D01*
X147345425Y-98590255D01*
X147257521Y-98637241D01*
X147180473Y-98700473D01*
X147164629Y-98719779D01*
X146116167Y-99768242D01*
X146039069Y-99736307D01*
X145801243Y-99689000D01*
X145558757Y-99689000D01*
X145320931Y-99736307D01*
X145096903Y-99829102D01*
X144895283Y-99963820D01*
X144723820Y-100135283D01*
X144589102Y-100336903D01*
X144496307Y-100560931D01*
X144449000Y-100798757D01*
X144449000Y-101041243D01*
X144496307Y-101279069D01*
X144589102Y-101503097D01*
X144723820Y-101704717D01*
X144895283Y-101876180D01*
X145096903Y-102010898D01*
X145320931Y-102103693D01*
X145558757Y-102151000D01*
X145801243Y-102151000D01*
X146039069Y-102103693D01*
X146263097Y-102010898D01*
X146464717Y-101876180D01*
X146636180Y-101704717D01*
X146770898Y-101503097D01*
X146863693Y-101279069D01*
X146911000Y-101041243D01*
X146911000Y-100798757D01*
X146863693Y-100560931D01*
X146831758Y-100483833D01*
X147749592Y-99566000D01*
X148565154Y-99566000D01*
X148590000Y-99568447D01*
X148614846Y-99566000D01*
X148614854Y-99566000D01*
X148689193Y-99558678D01*
X148784575Y-99529745D01*
X148789062Y-99527346D01*
X148579799Y-99736610D01*
X148579069Y-99736307D01*
X148341243Y-99689000D01*
X148098757Y-99689000D01*
X147860931Y-99736307D01*
X147636903Y-99829102D01*
X147435283Y-99963820D01*
X147263820Y-100135283D01*
X147129102Y-100336903D01*
X147036307Y-100560931D01*
X146989000Y-100798757D01*
X146989000Y-101041243D01*
X147036307Y-101279069D01*
X147129102Y-101503097D01*
X147263820Y-101704717D01*
X147435283Y-101876180D01*
X147636903Y-102010898D01*
X147860931Y-102103693D01*
X148098757Y-102151000D01*
X148341243Y-102151000D01*
X148579069Y-102103693D01*
X148803097Y-102010898D01*
X149004717Y-101876180D01*
X149176180Y-101704717D01*
X149310898Y-101503097D01*
X149403693Y-101279069D01*
X149451000Y-101041243D01*
X149451000Y-100798757D01*
X149403693Y-100560931D01*
X149340126Y-100407465D01*
X154688000Y-95059592D01*
X154688001Y-96276407D01*
X151196167Y-99768242D01*
X151119069Y-99736307D01*
X150881243Y-99689000D01*
X150638757Y-99689000D01*
X150400931Y-99736307D01*
X150176903Y-99829102D01*
X149975283Y-99963820D01*
X149803820Y-100135283D01*
X149669102Y-100336903D01*
X149576307Y-100560931D01*
X149529000Y-100798757D01*
X149529000Y-101041243D01*
X149576307Y-101279069D01*
X149669102Y-101503097D01*
X149803820Y-101704717D01*
X149975283Y-101876180D01*
X150176903Y-102010898D01*
X150400931Y-102103693D01*
X150638757Y-102151000D01*
X150881243Y-102151000D01*
X151119069Y-102103693D01*
X151343097Y-102010898D01*
X151544717Y-101876180D01*
X151716180Y-101704717D01*
X151850898Y-101503097D01*
X151943693Y-101279069D01*
X151991000Y-101041243D01*
X151991000Y-100798757D01*
X151943693Y-100560931D01*
X151911758Y-100483833D01*
X155425680Y-96969912D01*
X155476479Y-96942759D01*
X155553527Y-96879527D01*
X155616759Y-96802479D01*
X155663745Y-96714575D01*
X155692678Y-96619193D01*
X155702448Y-96520000D01*
X155700000Y-96495146D01*
X155700000Y-94578501D01*
X155704000Y-94574501D01*
X155704001Y-97800407D01*
X153736167Y-99768242D01*
X153659069Y-99736307D01*
X153421243Y-99689000D01*
X153178757Y-99689000D01*
X152940931Y-99736307D01*
X152716903Y-99829102D01*
X152515283Y-99963820D01*
X152343820Y-100135283D01*
X152209102Y-100336903D01*
X152116307Y-100560931D01*
X152069000Y-100798757D01*
X152069000Y-101041243D01*
X152116307Y-101279069D01*
X152209102Y-101503097D01*
X152343820Y-101704717D01*
X152515283Y-101876180D01*
X152716903Y-102010898D01*
X152940931Y-102103693D01*
X153178757Y-102151000D01*
X153421243Y-102151000D01*
X153659069Y-102103693D01*
X153883097Y-102010898D01*
X154084717Y-101876180D01*
X154256180Y-101704717D01*
X154390898Y-101503097D01*
X154483693Y-101279069D01*
X154531000Y-101041243D01*
X154531000Y-100798757D01*
X154483693Y-100560931D01*
X154451758Y-100483833D01*
X156429001Y-98506591D01*
X156429001Y-99615407D01*
X156276167Y-99768242D01*
X156199069Y-99736307D01*
X155961243Y-99689000D01*
X155718757Y-99689000D01*
X155480931Y-99736307D01*
X155256903Y-99829102D01*
X155055283Y-99963820D01*
X154883820Y-100135283D01*
X154749102Y-100336903D01*
X154656307Y-100560931D01*
X154609000Y-100798757D01*
X154609000Y-101041243D01*
X154656307Y-101279069D01*
X154749102Y-101503097D01*
X154883820Y-101704717D01*
X155055283Y-101876180D01*
X155256903Y-102010898D01*
X155480931Y-102103693D01*
X155718757Y-102151000D01*
X155961243Y-102151000D01*
X156199069Y-102103693D01*
X156423097Y-102010898D01*
X156624717Y-101876180D01*
X156796180Y-101704717D01*
X156930898Y-101503097D01*
X157023693Y-101279069D01*
X157071000Y-101041243D01*
X157071000Y-100798757D01*
X157023693Y-100560931D01*
X156991758Y-100483833D01*
X157275221Y-100200371D01*
X157294528Y-100184526D01*
X157357760Y-100107478D01*
X157404746Y-100019574D01*
X157427850Y-99943409D01*
X157433679Y-99924193D01*
X157437365Y-99886764D01*
X157441001Y-99849853D01*
X157441001Y-99849846D01*
X157443448Y-99825000D01*
X157441001Y-99800154D01*
X157441001Y-93402845D01*
X157443448Y-93377999D01*
X157441001Y-93353153D01*
X157441001Y-93353145D01*
X157433679Y-93278806D01*
X157404746Y-93183424D01*
X157357760Y-93095520D01*
X157294528Y-93018472D01*
X157275221Y-93002627D01*
X155880378Y-91607785D01*
X155864529Y-91588473D01*
X155787481Y-91525241D01*
X155699577Y-91478255D01*
X155604195Y-91449322D01*
X155529856Y-91442000D01*
X155529848Y-91442000D01*
X155505002Y-91439553D01*
X155480156Y-91442000D01*
X147783592Y-91442000D01*
X146556000Y-90214409D01*
X146556000Y-88855591D01*
X147529592Y-87882000D01*
X147737499Y-87882000D01*
X147739499Y-87884000D01*
X147729358Y-87894141D01*
X147643887Y-88022058D01*
X147585013Y-88164191D01*
X147555000Y-88315078D01*
X147555000Y-88468922D01*
X147585013Y-88619809D01*
X147643887Y-88761942D01*
X147729358Y-88889859D01*
X147838141Y-88998642D01*
X147966058Y-89084113D01*
X148108191Y-89142987D01*
X148259078Y-89173000D01*
X148412922Y-89173000D01*
X148563809Y-89142987D01*
X148705942Y-89084113D01*
X148833859Y-88998642D01*
X148934501Y-88898000D01*
X161588409Y-88898000D01*
X163811000Y-91120592D01*
X163811000Y-91262922D01*
X163841013Y-91413809D01*
X163899887Y-91555942D01*
X163985358Y-91683859D01*
X163997499Y-91696000D01*
X163785592Y-91696000D01*
X161919376Y-89829785D01*
X161903527Y-89810473D01*
X161826479Y-89747241D01*
X161738575Y-89700255D01*
X161643193Y-89671322D01*
X161568854Y-89664000D01*
X161568846Y-89664000D01*
X161544000Y-89661553D01*
X161519154Y-89664000D01*
X148934501Y-89664000D01*
X148833859Y-89563358D01*
X148705942Y-89477887D01*
X148563809Y-89419013D01*
X148412922Y-89389000D01*
X148259078Y-89389000D01*
X148108191Y-89419013D01*
X147966058Y-89477887D01*
X147838141Y-89563358D01*
X147729358Y-89672141D01*
X147643887Y-89800058D01*
X147585013Y-89942191D01*
X147555000Y-90093078D01*
X147555000Y-90246922D01*
X147585013Y-90397809D01*
X147643887Y-90539942D01*
X147729358Y-90667859D01*
X147838141Y-90776642D01*
X147966058Y-90862113D01*
X148108191Y-90920987D01*
X148259078Y-90951000D01*
X148412922Y-90951000D01*
X148563809Y-90920987D01*
X148705942Y-90862113D01*
X148833859Y-90776642D01*
X148934501Y-90676000D01*
X161334409Y-90676000D01*
X163200628Y-92542220D01*
X163216473Y-92561527D01*
X163293521Y-92624759D01*
X163381425Y-92671745D01*
X163476807Y-92700678D01*
X163551146Y-92708000D01*
X163551154Y-92708000D01*
X163576000Y-92710447D01*
X163600846Y-92708000D01*
X163988193Y-92708000D01*
X163980705Y-92715488D01*
X163895234Y-92843405D01*
X163836360Y-92985538D01*
X163806347Y-93136425D01*
X163806347Y-93288061D01*
X158039781Y-99054628D01*
X158020474Y-99070473D01*
X157957242Y-99147521D01*
X157951003Y-99159194D01*
X157910255Y-99235426D01*
X157881322Y-99330808D01*
X157871553Y-99430000D01*
X157874001Y-99454856D01*
X157874001Y-99797167D01*
X157796903Y-99829102D01*
X157595283Y-99963820D01*
X157423820Y-100135283D01*
X157289102Y-100336903D01*
X157196307Y-100560931D01*
X157149000Y-100798757D01*
X157149000Y-101041243D01*
X157196307Y-101279069D01*
X157289102Y-101503097D01*
X157423820Y-101704717D01*
X157595283Y-101876180D01*
X157796903Y-102010898D01*
X158020931Y-102103693D01*
X158258757Y-102151000D01*
X158501243Y-102151000D01*
X158739069Y-102103693D01*
X158963097Y-102010898D01*
X159164717Y-101876180D01*
X159336180Y-101704717D01*
X159470898Y-101503097D01*
X159563693Y-101279069D01*
X159611000Y-101041243D01*
X159611000Y-100798757D01*
X159563693Y-100560931D01*
X159470898Y-100336903D01*
X159336180Y-100135283D01*
X159164717Y-99963820D01*
X158963097Y-99829102D01*
X158886000Y-99797168D01*
X158886000Y-99639591D01*
X160414001Y-98111590D01*
X160414000Y-99797167D01*
X160336903Y-99829102D01*
X160135283Y-99963820D01*
X159963820Y-100135283D01*
X159829102Y-100336903D01*
X159736307Y-100560931D01*
X159689000Y-100798757D01*
X159689000Y-101041243D01*
X159736307Y-101279069D01*
X159829102Y-101503097D01*
X159963820Y-101704717D01*
X160135283Y-101876180D01*
X160336903Y-102010898D01*
X160560931Y-102103693D01*
X160798757Y-102151000D01*
X161041243Y-102151000D01*
X161279069Y-102103693D01*
X161503097Y-102010898D01*
X161704717Y-101876180D01*
X161876180Y-101704717D01*
X162010898Y-101503097D01*
X162058228Y-101388832D01*
X162115843Y-101551252D01*
X162264822Y-101801355D01*
X162459731Y-102017588D01*
X162693080Y-102191641D01*
X162955901Y-102316825D01*
X163103110Y-102361476D01*
X163333000Y-102240155D01*
X163333000Y-101047000D01*
X163313000Y-101047000D01*
X163313000Y-100793000D01*
X163333000Y-100793000D01*
X163333000Y-99599845D01*
X163587000Y-99599845D01*
X163587000Y-100793000D01*
X163607000Y-100793000D01*
X163607000Y-101047000D01*
X163587000Y-101047000D01*
X163587000Y-102240155D01*
X163816890Y-102361476D01*
X163964099Y-102316825D01*
X164226920Y-102191641D01*
X164460269Y-102017588D01*
X164655178Y-101801355D01*
X164767157Y-101613367D01*
X164767157Y-101770000D01*
X164774513Y-101844689D01*
X164796299Y-101916508D01*
X164831678Y-101982696D01*
X164879289Y-102040711D01*
X164937304Y-102088322D01*
X165003492Y-102123701D01*
X165075311Y-102145487D01*
X165150000Y-102152843D01*
X166850000Y-102152843D01*
X166924689Y-102145487D01*
X166996508Y-102123701D01*
X167062696Y-102088322D01*
X167120711Y-102040711D01*
X167168322Y-101982696D01*
X167203701Y-101916508D01*
X167225487Y-101844689D01*
X167232843Y-101770000D01*
X167232843Y-100070000D01*
X167225487Y-99995311D01*
X167203701Y-99923492D01*
X167168322Y-99857304D01*
X167120711Y-99799289D01*
X167062696Y-99751678D01*
X166996508Y-99716299D01*
X166924689Y-99694513D01*
X166850000Y-99687157D01*
X165150000Y-99687157D01*
X165075311Y-99694513D01*
X165003492Y-99716299D01*
X164937304Y-99751678D01*
X164879289Y-99799289D01*
X164831678Y-99857304D01*
X164796299Y-99923492D01*
X164774513Y-99995311D01*
X164767157Y-100070000D01*
X164767157Y-100226633D01*
X164655178Y-100038645D01*
X164460269Y-99822412D01*
X164226920Y-99648359D01*
X163964099Y-99523175D01*
X163816890Y-99478524D01*
X163587000Y-99599845D01*
X163333000Y-99599845D01*
X163103110Y-99478524D01*
X162955901Y-99523175D01*
X162693080Y-99648359D01*
X162459731Y-99822412D01*
X162264822Y-100038645D01*
X162115843Y-100288748D01*
X162058228Y-100451168D01*
X162010898Y-100336903D01*
X161876180Y-100135283D01*
X161704717Y-99963820D01*
X161503097Y-99829102D01*
X161426000Y-99797168D01*
X161426000Y-98115591D01*
X167066592Y-92475000D01*
X167208922Y-92475000D01*
X167359809Y-92444987D01*
X167501942Y-92386113D01*
X167629859Y-92300642D01*
X167738642Y-92191859D01*
X167824113Y-92063942D01*
X167882987Y-91921809D01*
X167913000Y-91770922D01*
X167913000Y-91617078D01*
X167882987Y-91466191D01*
X167824113Y-91324058D01*
X167738642Y-91196141D01*
X167629859Y-91087358D01*
X167501942Y-91001887D01*
X167359809Y-90943013D01*
X167208922Y-90913000D01*
X167104592Y-90913000D01*
X167435221Y-90582371D01*
X167454528Y-90566526D01*
X167517760Y-90489478D01*
X167564746Y-90401574D01*
X167593679Y-90306192D01*
X167601001Y-90231853D01*
X167601001Y-90231846D01*
X167603448Y-90207000D01*
X167601001Y-90182154D01*
X167601001Y-85639373D01*
X167628987Y-85571809D01*
X167659000Y-85420922D01*
X167659000Y-85267078D01*
X167628987Y-85116191D01*
X167570113Y-84974058D01*
X167484642Y-84846141D01*
X167375859Y-84737358D01*
X167247942Y-84651887D01*
X167105809Y-84593013D01*
X166954922Y-84563000D01*
X166801078Y-84563000D01*
X166650191Y-84593013D01*
X166508058Y-84651887D01*
X166380141Y-84737358D01*
X166271358Y-84846141D01*
X166185887Y-84974058D01*
X166127013Y-85116191D01*
X166097000Y-85267078D01*
X166097000Y-85420922D01*
X166127013Y-85571809D01*
X166185887Y-85713942D01*
X166271358Y-85841859D01*
X166380141Y-85950642D01*
X166508058Y-86036113D01*
X166589002Y-86069641D01*
X166589002Y-86115261D01*
X166446922Y-86087000D01*
X166293078Y-86087000D01*
X166142191Y-86117013D01*
X166000058Y-86175887D01*
X165872141Y-86261358D01*
X165763358Y-86370141D01*
X165677887Y-86498058D01*
X165619013Y-86640191D01*
X165606000Y-86705612D01*
X165606000Y-85876845D01*
X165608447Y-85851999D01*
X165606000Y-85827153D01*
X165606000Y-85827146D01*
X165598678Y-85752807D01*
X165569745Y-85657425D01*
X165522759Y-85569521D01*
X165459527Y-85492473D01*
X165440220Y-85476628D01*
X164967376Y-85003785D01*
X164951527Y-84984473D01*
X164874479Y-84921241D01*
X164786575Y-84874255D01*
X164691193Y-84845322D01*
X164616854Y-84838000D01*
X164616846Y-84838000D01*
X164592000Y-84835553D01*
X164567154Y-84838000D01*
X159209591Y-84838000D01*
X161986592Y-82061000D01*
X162128922Y-82061000D01*
X162279809Y-82030987D01*
X162421942Y-81972113D01*
X162549859Y-81886642D01*
X162658642Y-81777859D01*
X162744113Y-81649942D01*
X162802987Y-81507809D01*
X162833000Y-81356922D01*
X162833000Y-81203078D01*
X162802987Y-81052191D01*
X162788011Y-81016035D01*
X165467667Y-81016035D01*
X167674467Y-83222835D01*
X167681024Y-83255798D01*
X167739898Y-83397931D01*
X167825369Y-83525848D01*
X167934152Y-83634631D01*
X168062069Y-83720102D01*
X168204202Y-83778976D01*
X168355089Y-83808989D01*
X168508933Y-83808989D01*
X168659820Y-83778976D01*
X168801953Y-83720102D01*
X168929870Y-83634631D01*
X169038653Y-83525848D01*
X169124124Y-83397931D01*
X169182998Y-83255798D01*
X169213011Y-83104911D01*
X169213011Y-82951067D01*
X169182998Y-82800180D01*
X169124124Y-82658047D01*
X169038653Y-82530130D01*
X168929870Y-82421347D01*
X168801953Y-82335876D01*
X168659820Y-82277002D01*
X168508933Y-82246989D01*
X168483357Y-82246989D01*
X166197140Y-79960772D01*
X166177378Y-79936692D01*
X166081296Y-79857839D01*
X165971677Y-79799246D01*
X165852733Y-79763165D01*
X165760033Y-79754035D01*
X165760025Y-79754035D01*
X165729035Y-79750983D01*
X165698045Y-79754035D01*
X161212989Y-79754035D01*
X161181998Y-79750983D01*
X161151008Y-79754035D01*
X161151001Y-79754035D01*
X161058301Y-79763165D01*
X160939357Y-79799246D01*
X160829738Y-79857839D01*
X160733656Y-79936692D01*
X160713894Y-79960772D01*
X160662079Y-80012587D01*
X160554191Y-80034047D01*
X160412058Y-80092921D01*
X160284141Y-80178392D01*
X160175358Y-80287175D01*
X160089887Y-80415092D01*
X160031013Y-80557225D01*
X160001000Y-80708112D01*
X160001000Y-80861956D01*
X160031013Y-81012843D01*
X160089887Y-81154976D01*
X160175358Y-81282893D01*
X160284141Y-81391676D01*
X160412058Y-81477147D01*
X160554191Y-81536021D01*
X160705078Y-81566034D01*
X160858922Y-81566034D01*
X161009809Y-81536021D01*
X161130294Y-81486114D01*
X158323408Y-84293001D01*
X156835000Y-84293001D01*
X159344220Y-81783782D01*
X159363527Y-81767937D01*
X159426759Y-81690889D01*
X159473745Y-81602985D01*
X159502678Y-81507603D01*
X159510000Y-81433264D01*
X159512448Y-81408410D01*
X159510000Y-81383556D01*
X159510000Y-76663591D01*
X161376220Y-74797372D01*
X161395527Y-74781527D01*
X161458759Y-74704479D01*
X161505745Y-74616575D01*
X161534678Y-74521193D01*
X161542000Y-74446854D01*
X161542000Y-74446846D01*
X161544447Y-74422000D01*
X161542000Y-74397154D01*
X161542000Y-73766832D01*
X161619097Y-73734898D01*
X161820717Y-73600180D01*
X161992180Y-73428717D01*
X162126898Y-73227097D01*
X162219693Y-73003069D01*
X162267000Y-72765243D01*
X162267000Y-72522757D01*
X162345000Y-72522757D01*
X162345000Y-72765243D01*
X162392307Y-73003069D01*
X162485102Y-73227097D01*
X162619820Y-73428717D01*
X162791283Y-73600180D01*
X162992903Y-73734898D01*
X163216931Y-73827693D01*
X163454757Y-73875000D01*
X163697243Y-73875000D01*
X163935069Y-73827693D01*
X164159097Y-73734898D01*
X164360717Y-73600180D01*
X164532180Y-73428717D01*
X164666898Y-73227097D01*
X164759693Y-73003069D01*
X164807000Y-72765243D01*
X164807000Y-72522757D01*
X164759693Y-72284931D01*
X164666898Y-72060903D01*
X164532180Y-71859283D01*
X164360717Y-71687820D01*
X164159097Y-71553102D01*
X163935069Y-71460307D01*
X163697243Y-71413000D01*
X163454757Y-71413000D01*
X163216931Y-71460307D01*
X162992903Y-71553102D01*
X162791283Y-71687820D01*
X162619820Y-71859283D01*
X162485102Y-72060903D01*
X162392307Y-72284931D01*
X162345000Y-72522757D01*
X162267000Y-72522757D01*
X162219693Y-72284931D01*
X162126898Y-72060903D01*
X161992180Y-71859283D01*
X161820717Y-71687820D01*
X161619097Y-71553102D01*
X161395069Y-71460307D01*
X161157243Y-71413000D01*
X160914757Y-71413000D01*
X160676931Y-71460307D01*
X160452903Y-71553102D01*
X160251283Y-71687820D01*
X160079820Y-71859283D01*
X159945102Y-72060903D01*
X159852307Y-72284931D01*
X159805000Y-72522757D01*
X159805000Y-72765243D01*
X159852307Y-73003069D01*
X159945102Y-73227097D01*
X160079820Y-73428717D01*
X160251283Y-73600180D01*
X160452903Y-73734898D01*
X160530001Y-73766833D01*
X160530001Y-74212407D01*
X159002000Y-75740409D01*
X159002000Y-73766832D01*
X159079097Y-73734898D01*
X159280717Y-73600180D01*
X159452180Y-73428717D01*
X159586898Y-73227097D01*
X159679693Y-73003069D01*
X159727000Y-72765243D01*
X159727000Y-72522757D01*
X159679693Y-72284931D01*
X159586898Y-72060903D01*
X159452180Y-71859283D01*
X159280717Y-71687820D01*
X159079097Y-71553102D01*
X158855069Y-71460307D01*
X158617243Y-71413000D01*
X158374757Y-71413000D01*
X158136931Y-71460307D01*
X157912903Y-71553102D01*
X157711283Y-71687820D01*
X157539820Y-71859283D01*
X157405102Y-72060903D01*
X157312307Y-72284931D01*
X157265000Y-72522757D01*
X157265000Y-72765243D01*
X157312307Y-73003069D01*
X157405102Y-73227097D01*
X157539820Y-73428717D01*
X157711283Y-73600180D01*
X157912903Y-73734898D01*
X157990000Y-73766833D01*
X157990001Y-80032691D01*
X157961809Y-80021013D01*
X157810922Y-79991000D01*
X157657078Y-79991000D01*
X157506191Y-80021013D01*
X157364058Y-80079887D01*
X157236141Y-80165358D01*
X157127358Y-80274141D01*
X157041887Y-80402058D01*
X156983013Y-80544191D01*
X156962165Y-80649000D01*
X155946739Y-80649000D01*
X155975000Y-80506922D01*
X155975000Y-80353078D01*
X155944987Y-80202191D01*
X155886113Y-80060058D01*
X155800642Y-79932141D01*
X155691859Y-79823358D01*
X155563942Y-79737887D01*
X155421809Y-79679013D01*
X155270922Y-79649000D01*
X155117078Y-79649000D01*
X154966191Y-79679013D01*
X154824058Y-79737887D01*
X154696141Y-79823358D01*
X154595499Y-79924000D01*
X147635659Y-79924000D01*
X147610813Y-79921553D01*
X147585967Y-79924000D01*
X147585960Y-79924000D01*
X147521508Y-79930348D01*
X147511620Y-79931322D01*
X147493918Y-79936692D01*
X147416239Y-79960255D01*
X147328335Y-80007241D01*
X147251287Y-80070473D01*
X147235442Y-80089780D01*
X141395516Y-85929707D01*
X141396472Y-85920000D01*
X141374635Y-85698285D01*
X141309963Y-85485091D01*
X141204942Y-85288610D01*
X141063607Y-85116393D01*
X140891390Y-84975058D01*
X140694909Y-84870037D01*
X140481715Y-84805365D01*
X140315558Y-84789000D01*
X139684442Y-84789000D01*
X139518285Y-84805365D01*
X139305091Y-84870037D01*
X139108610Y-84975058D01*
X138936393Y-85116393D01*
X138795058Y-85288610D01*
X138690037Y-85485091D01*
X138625365Y-85698285D01*
X138603528Y-85920000D01*
X138625365Y-86141715D01*
X138690037Y-86354909D01*
X138795058Y-86551390D01*
X138936393Y-86723607D01*
X139108610Y-86864942D01*
X139305091Y-86969963D01*
X139518285Y-87034635D01*
X139684442Y-87051000D01*
X140274223Y-87051000D01*
X139986233Y-87338990D01*
X139319562Y-87338990D01*
X139294716Y-87336543D01*
X139269870Y-87338990D01*
X139269863Y-87338990D01*
X139205411Y-87345338D01*
X139195523Y-87346312D01*
X139173324Y-87353046D01*
X139100142Y-87375245D01*
X139012238Y-87422231D01*
X138935190Y-87485463D01*
X138919346Y-87504769D01*
X138324775Y-88099341D01*
X138305463Y-88115190D01*
X138242231Y-88192238D01*
X138195245Y-88280143D01*
X138166312Y-88375525D01*
X138158990Y-88449864D01*
X138158990Y-88449871D01*
X138156543Y-88474717D01*
X134737470Y-88474717D01*
X135083954Y-86694151D01*
X135598103Y-84878592D01*
X136262372Y-83112426D01*
X136401330Y-82819933D01*
X137024000Y-82819933D01*
X137024000Y-83020067D01*
X137063044Y-83216356D01*
X137139632Y-83401256D01*
X137250821Y-83567662D01*
X137392338Y-83709179D01*
X137558744Y-83820368D01*
X137743644Y-83896956D01*
X137939933Y-83936000D01*
X138140067Y-83936000D01*
X138336356Y-83896956D01*
X138521256Y-83820368D01*
X138687662Y-83709179D01*
X138829179Y-83567662D01*
X138940368Y-83401256D01*
X139016956Y-83216356D01*
X139056000Y-83020067D01*
X139056000Y-82819933D01*
X139016956Y-82623644D01*
X138940368Y-82438744D01*
X138829179Y-82272338D01*
X138687662Y-82130821D01*
X138521256Y-82019632D01*
X138336356Y-81943044D01*
X138140067Y-81904000D01*
X137939933Y-81904000D01*
X137743644Y-81943044D01*
X137558744Y-82019632D01*
X137392338Y-82130821D01*
X137250821Y-82272338D01*
X137139632Y-82438744D01*
X137063044Y-82623644D01*
X137024000Y-82819933D01*
X136401330Y-82819933D01*
X137072106Y-81408024D01*
X138021613Y-79777372D01*
X139104239Y-78231891D01*
X140312389Y-76782423D01*
X141637593Y-75439131D01*
X143070565Y-74211430D01*
X144601230Y-73107953D01*
X146218866Y-72136427D01*
X146915127Y-71794000D01*
X149643157Y-71794000D01*
X149643157Y-73494000D01*
X149650513Y-73568689D01*
X149672299Y-73640508D01*
X149707678Y-73706696D01*
X149755289Y-73764711D01*
X149813304Y-73812322D01*
X149879492Y-73847701D01*
X149951311Y-73869487D01*
X150026000Y-73876843D01*
X151726000Y-73876843D01*
X151800689Y-73869487D01*
X151872508Y-73847701D01*
X151938696Y-73812322D01*
X151996711Y-73764711D01*
X152044322Y-73706696D01*
X152079701Y-73640508D01*
X152101487Y-73568689D01*
X152108843Y-73494000D01*
X152108843Y-73337367D01*
X152220822Y-73525355D01*
X152415731Y-73741588D01*
X152649080Y-73915641D01*
X152911901Y-74040825D01*
X153059110Y-74085476D01*
X153289000Y-73964155D01*
X153289000Y-72771000D01*
X153269000Y-72771000D01*
X153269000Y-72517000D01*
X153289000Y-72517000D01*
X153289000Y-71323845D01*
X153543000Y-71323845D01*
X153543000Y-72517000D01*
X153563000Y-72517000D01*
X153563000Y-72771000D01*
X153543000Y-72771000D01*
X153543000Y-73964155D01*
X153772890Y-74085476D01*
X153920099Y-74040825D01*
X154182920Y-73915641D01*
X154416269Y-73741588D01*
X154611178Y-73525355D01*
X154760157Y-73275252D01*
X154817772Y-73112832D01*
X154865102Y-73227097D01*
X154999820Y-73428717D01*
X155171283Y-73600180D01*
X155372903Y-73734898D01*
X155596931Y-73827693D01*
X155834757Y-73875000D01*
X156077243Y-73875000D01*
X156315069Y-73827693D01*
X156539097Y-73734898D01*
X156740717Y-73600180D01*
X156912180Y-73428717D01*
X157046898Y-73227097D01*
X157139693Y-73003069D01*
X157187000Y-72765243D01*
X157187000Y-72522757D01*
X157139693Y-72284931D01*
X157046898Y-72060903D01*
X156912180Y-71859283D01*
X156740717Y-71687820D01*
X156539097Y-71553102D01*
X156315069Y-71460307D01*
X156077243Y-71413000D01*
X155834757Y-71413000D01*
X155596931Y-71460307D01*
X155372903Y-71553102D01*
X155171283Y-71687820D01*
X154999820Y-71859283D01*
X154865102Y-72060903D01*
X154817772Y-72175168D01*
X154760157Y-72012748D01*
X154611178Y-71762645D01*
X154416269Y-71546412D01*
X154182920Y-71372359D01*
X153920099Y-71247175D01*
X153772890Y-71202524D01*
X153543000Y-71323845D01*
X153289000Y-71323845D01*
X153059110Y-71202524D01*
X152911901Y-71247175D01*
X152649080Y-71372359D01*
X152415731Y-71546412D01*
X152220822Y-71762645D01*
X152108843Y-71950633D01*
X152108843Y-71794000D01*
X152101487Y-71719311D01*
X152079701Y-71647492D01*
X152044322Y-71581304D01*
X151996711Y-71523289D01*
X151938696Y-71475678D01*
X151872508Y-71440299D01*
X151800689Y-71418513D01*
X151726000Y-71411157D01*
X150026000Y-71411157D01*
X149951311Y-71418513D01*
X149879492Y-71440299D01*
X149813304Y-71475678D01*
X149755289Y-71523289D01*
X149707678Y-71581304D01*
X149672299Y-71647492D01*
X149650513Y-71719311D01*
X149643157Y-71794000D01*
X146915127Y-71794000D01*
X147912115Y-71303673D01*
X149669122Y-70615521D01*
X151477550Y-70076806D01*
X153324705Y-69691307D01*
X155197647Y-69461725D01*
X157083232Y-69389673D01*
X158968219Y-69475653D01*
G37*
%TD.AperFunction*%
D17*
X140829011Y-93657195D02*
X140654760Y-93586389D01*
X140387000Y-93535000D01*
X140127000Y-93535000D01*
X140127000Y-94793000D01*
X140147000Y-94793000D01*
X140147000Y-95047000D01*
X140127000Y-95047000D01*
X140127000Y-96305000D01*
X140387000Y-96305000D01*
X140654760Y-96253611D01*
X140829011Y-96182804D01*
X140829011Y-96198620D01*
X140240475Y-96787157D01*
X139240000Y-96787157D01*
X139170990Y-96793954D01*
X139170990Y-96182805D01*
X139345240Y-96253611D01*
X139613000Y-96305000D01*
X139873000Y-96305000D01*
X139873000Y-95047000D01*
X139853000Y-95047000D01*
X139853000Y-94793000D01*
X139873000Y-94793000D01*
X139873000Y-93535000D01*
X139613000Y-93535000D01*
X139345240Y-93586389D01*
X139170990Y-93657195D01*
X139170990Y-92898285D01*
X139305091Y-92969963D01*
X139518285Y-93034635D01*
X139684442Y-93051000D01*
X140315558Y-93051000D01*
X140481715Y-93034635D01*
X140694909Y-92969963D01*
X140829011Y-92898284D01*
X140829011Y-93657195D01*
%TA.AperFunction,Conductor*%
D18*
G36*
X140829011Y-93657195D02*
G01*
X140654760Y-93586389D01*
X140387000Y-93535000D01*
X140127000Y-93535000D01*
X140127000Y-94793000D01*
X140147000Y-94793000D01*
X140147000Y-95047000D01*
X140127000Y-95047000D01*
X140127000Y-96305000D01*
X140387000Y-96305000D01*
X140654760Y-96253611D01*
X140829011Y-96182804D01*
X140829011Y-96198620D01*
X140240475Y-96787157D01*
X139240000Y-96787157D01*
X139170990Y-96793954D01*
X139170990Y-96182805D01*
X139345240Y-96253611D01*
X139613000Y-96305000D01*
X139873000Y-96305000D01*
X139873000Y-95047000D01*
X139853000Y-95047000D01*
X139853000Y-94793000D01*
X139873000Y-94793000D01*
X139873000Y-93535000D01*
X139613000Y-93535000D01*
X139345240Y-93586389D01*
X139170990Y-93657195D01*
X139170990Y-92898285D01*
X139305091Y-92969963D01*
X139518285Y-93034635D01*
X139684442Y-93051000D01*
X140315558Y-93051000D01*
X140481715Y-93034635D01*
X140694909Y-92969963D01*
X140829011Y-92898284D01*
X140829011Y-93657195D01*
G37*
%TD.AperFunction*%
%TD*%
M02*
