M48
; DRILL file {KiCad (5.1.12-1-10_14)} date 2022 January 19, Wednesday 19:17:44
; FORMAT={3:3/ absolute / metric / suppress leading zeros}
; #@! TF.CreationDate,2022-01-19T19:17:44+01:00
; #@! TF.GenerationSoftware,Kicad,Pcbnew,(5.1.12-1-10_14)
FMAT,2
METRIC,TZ
T1C0.400
T2C1.000
T3C1.020
T4C1.000
T5C1.270
%
G90
G05
T1
X147320Y-89154
X148336Y-85344
X148336Y-86360
X148336Y-87376
X148336Y-88392
X148336Y-90170
X150114Y-84074
X150876Y-83058
X151638Y-93726
X153416Y-94234
X154178Y-81280
X154361Y-93425
X154686Y-89408
X155194Y-80430
X155194Y-93980
X156210Y-93726
X157734Y-80772
X160782Y-80785
X162052Y-81280
X164587Y-93213
X164592Y-91186
X164846Y-88900
X165100Y-87630
X166370Y-86868
X166878Y-85344
X167132Y-91694
X168432Y-83028
X169672Y-103632
X170688Y-104140
X173736Y-104140
T2
X143256Y-105664
X145680Y-100920
X145796Y-105664
X148220Y-100920
X148336Y-105664
X150760Y-100920
X150876Y-72644
X153300Y-100920
X153416Y-72644
X155702Y-107920
X155702Y-110920
X155840Y-100920
X155956Y-72644
X158380Y-100920
X158496Y-72644
X158702Y-107920
X158702Y-110920
X160920Y-100920
X161036Y-72644
X163460Y-100920
X163576Y-72644
X166000Y-100920
T3
X140000Y-85920
X140000Y-88920
X140000Y-91920
X140000Y-94920
X140000Y-97920
T4
X152702Y-106980
X161702Y-106980
T5
X138040Y-82920
X138040Y-100920
T0
M30
