%TF.GenerationSoftware,KiCad,Pcbnew,(5.1.12-1-10_14)*%
%TF.CreationDate,2023-02-08T21:42:28+01:00*%
%TF.ProjectId,SmartDisplay,536d6172-7444-4697-9370-6c61792e6b69,rev?*%
%TF.SameCoordinates,Original*%
%TF.FileFunction,Legend,Top*%
%TF.FilePolarity,Positive*%
%FSLAX46Y46*%
G04 Gerber Fmt 4.6, Leading zero omitted, Abs format (unit mm)*
G04 Created by KiCad (PCBNEW (5.1.12-1-10_14)) date 2023-02-08 21:42:28*
%MOMM*%
%LPD*%
G01*
G04 APERTURE LIST*
%ADD10C,0.120000*%
%ADD11C,0.150000*%
G04 APERTURE END LIST*
D10*
%TO.C,D6*%
X136500000Y-89520000D02*
X138500000Y-89520000D01*
X138500000Y-89520000D02*
X138500000Y-85620000D01*
X136500000Y-89520000D02*
X136500000Y-85620000D01*
%TO.C,D5*%
X137500000Y-98170000D02*
X135500000Y-98170000D01*
X135500000Y-98170000D02*
X135500000Y-102070000D01*
X137500000Y-98170000D02*
X137500000Y-102070000D01*
%TO.C,C11*%
X151090000Y-87818752D02*
X151090000Y-86396248D01*
X152910000Y-87818752D02*
X152910000Y-86396248D01*
%TO.C,D3*%
X155670000Y-99930000D02*
X155670000Y-98470000D01*
X158830000Y-99930000D02*
X158830000Y-97770000D01*
X158830000Y-99930000D02*
X157900000Y-99930000D01*
X155670000Y-99930000D02*
X156600000Y-99930000D01*
%TO.C,X1*%
X160725000Y-81170000D02*
X160725000Y-81670000D01*
X159325000Y-81170000D02*
X159325000Y-81670000D01*
X159325000Y-81170000D02*
X158725000Y-81170000D01*
X158725000Y-81170000D02*
X158525000Y-80970000D01*
X161525000Y-80970000D02*
X161525000Y-81170000D01*
X161525000Y-81170000D02*
X160725000Y-81170000D01*
X160725000Y-78170000D02*
X161525000Y-78170000D01*
X161525000Y-78170000D02*
X161525000Y-78370000D01*
X158525000Y-78370000D02*
X158525000Y-78170000D01*
X158525000Y-78170000D02*
X159325000Y-78170000D01*
%TO.C,U5*%
X171161469Y-91972500D02*
X173529200Y-91972500D01*
X163470800Y-91330735D02*
X163470800Y-91972500D01*
X163470800Y-77367500D02*
X163470800Y-78009265D01*
X173529200Y-77367500D02*
X171161469Y-77367500D01*
X173529200Y-91972500D02*
X173529200Y-91330735D01*
X163470800Y-91972500D02*
X165838531Y-91972500D01*
X165838531Y-77367500D02*
X163470800Y-77367500D01*
X173529200Y-78009265D02*
X173529200Y-77367500D01*
%TO.C,C15*%
X175735000Y-89718752D02*
X175735000Y-89196248D01*
X174265000Y-89718752D02*
X174265000Y-89196248D01*
%TO.C,U4*%
X132130000Y-93910000D02*
X129700000Y-93910000D01*
X130370000Y-96980000D02*
X132130000Y-96980000D01*
%TO.C,J8*%
X157670000Y-109905000D02*
X157670000Y-109925000D01*
X158170000Y-109905000D02*
X157670000Y-109905000D01*
X158170000Y-119935000D02*
X158170000Y-109905000D01*
X157670000Y-119935000D02*
X158170000Y-119935000D01*
X157670000Y-119915000D02*
X157670000Y-119935000D01*
X162260000Y-108485000D02*
X159185000Y-108485000D01*
X162260000Y-121355000D02*
X162260000Y-108485000D01*
X159185000Y-121355000D02*
X162260000Y-121355000D01*
%TO.C,L1*%
X137190000Y-95257122D02*
X137190000Y-94457878D01*
X138310000Y-95257122D02*
X138310000Y-94457878D01*
%TO.C,C14*%
X133460000Y-107680000D02*
X133460000Y-106480000D01*
X133460000Y-103160000D02*
X133460000Y-104360000D01*
X130004437Y-103160000D02*
X133460000Y-103160000D01*
X130004437Y-107680000D02*
X133460000Y-107680000D01*
X128940000Y-106615563D02*
X128940000Y-106480000D01*
X128940000Y-104224437D02*
X128940000Y-104360000D01*
X128940000Y-104224437D02*
X130004437Y-103160000D01*
X128940000Y-106615563D02*
X130004437Y-107680000D01*
X128200000Y-103860000D02*
X128700000Y-103860000D01*
X128450000Y-103610000D02*
X128450000Y-104110000D01*
%TO.C,C13*%
X133460000Y-102430000D02*
X133460000Y-101230000D01*
X133460000Y-97910000D02*
X133460000Y-99110000D01*
X130004437Y-97910000D02*
X133460000Y-97910000D01*
X130004437Y-102430000D02*
X133460000Y-102430000D01*
X128940000Y-101365563D02*
X128940000Y-101230000D01*
X128940000Y-98974437D02*
X128940000Y-99110000D01*
X128940000Y-98974437D02*
X130004437Y-97910000D01*
X128940000Y-101365563D02*
X130004437Y-102430000D01*
X128200000Y-98610000D02*
X128700000Y-98610000D01*
X128450000Y-98360000D02*
X128450000Y-98860000D01*
%TO.C,C4*%
X134765000Y-94968752D02*
X134765000Y-94446248D01*
X136235000Y-94968752D02*
X136235000Y-94446248D01*
%TO.C,C3*%
X133810000Y-93180000D02*
X133810000Y-91980000D01*
X133810000Y-88660000D02*
X133810000Y-89860000D01*
X130354437Y-88660000D02*
X133810000Y-88660000D01*
X130354437Y-93180000D02*
X133810000Y-93180000D01*
X129290000Y-92115563D02*
X129290000Y-91980000D01*
X129290000Y-89724437D02*
X129290000Y-89860000D01*
X129290000Y-89724437D02*
X130354437Y-88660000D01*
X129290000Y-92115563D02*
X130354437Y-93180000D01*
X128550000Y-89360000D02*
X129050000Y-89360000D01*
X128800000Y-89110000D02*
X128800000Y-89610000D01*
%TO.C,J4*%
X135650000Y-77514000D02*
X135650000Y-78764000D01*
X136900000Y-77514000D02*
X135650000Y-77514000D01*
X147800000Y-83014000D02*
X142250000Y-83014000D01*
X147800000Y-80064000D02*
X147800000Y-83014000D01*
X148550000Y-80064000D02*
X147800000Y-80064000D01*
X136700000Y-83014000D02*
X142250000Y-83014000D01*
X136700000Y-80064000D02*
X136700000Y-83014000D01*
X135950000Y-80064000D02*
X136700000Y-80064000D01*
X148550000Y-77814000D02*
X146750000Y-77814000D01*
X148550000Y-78564000D02*
X148550000Y-77814000D01*
X146750000Y-78564000D02*
X148550000Y-78564000D01*
X146750000Y-77814000D02*
X146750000Y-78564000D01*
X137750000Y-77814000D02*
X135950000Y-77814000D01*
X137750000Y-78564000D02*
X137750000Y-77814000D01*
X135950000Y-78564000D02*
X137750000Y-78564000D01*
X135950000Y-77814000D02*
X135950000Y-78564000D01*
X145250000Y-77814000D02*
X139250000Y-77814000D01*
X145250000Y-78564000D02*
X145250000Y-77814000D01*
X139250000Y-78564000D02*
X145250000Y-78564000D01*
X139250000Y-77814000D02*
X139250000Y-78564000D01*
X148560000Y-77804000D02*
X135940000Y-77804000D01*
X148560000Y-83774000D02*
X148560000Y-77804000D01*
X135940000Y-83774000D02*
X148560000Y-83774000D01*
X135940000Y-77804000D02*
X135940000Y-83774000D01*
%TO.C,J2*%
X149150000Y-77514000D02*
X149150000Y-78764000D01*
X150400000Y-77514000D02*
X149150000Y-77514000D01*
X156300000Y-83014000D02*
X153250000Y-83014000D01*
X156300000Y-80064000D02*
X156300000Y-83014000D01*
X157050000Y-80064000D02*
X156300000Y-80064000D01*
X150200000Y-83014000D02*
X153250000Y-83014000D01*
X150200000Y-80064000D02*
X150200000Y-83014000D01*
X149450000Y-80064000D02*
X150200000Y-80064000D01*
X157050000Y-77814000D02*
X155250000Y-77814000D01*
X157050000Y-78564000D02*
X157050000Y-77814000D01*
X155250000Y-78564000D02*
X157050000Y-78564000D01*
X155250000Y-77814000D02*
X155250000Y-78564000D01*
X151250000Y-77814000D02*
X149450000Y-77814000D01*
X151250000Y-78564000D02*
X151250000Y-77814000D01*
X149450000Y-78564000D02*
X151250000Y-78564000D01*
X149450000Y-77814000D02*
X149450000Y-78564000D01*
X153750000Y-77814000D02*
X152750000Y-77814000D01*
X153750000Y-78564000D02*
X153750000Y-77814000D01*
X152750000Y-78564000D02*
X153750000Y-78564000D01*
X152750000Y-77814000D02*
X152750000Y-78564000D01*
X157060000Y-77804000D02*
X149440000Y-77804000D01*
X157060000Y-83774000D02*
X157060000Y-77804000D01*
X149440000Y-83774000D02*
X157060000Y-83774000D01*
X149440000Y-77804000D02*
X149440000Y-83774000D01*
%TO.C,J6*%
X184250000Y-77820000D02*
X183000000Y-77820000D01*
X184250000Y-79070000D02*
X184250000Y-77820000D01*
X178750000Y-92470000D02*
X178750000Y-85670000D01*
X181700000Y-92470000D02*
X178750000Y-92470000D01*
X181700000Y-93220000D02*
X181700000Y-92470000D01*
X178750000Y-78870000D02*
X178750000Y-85670000D01*
X181700000Y-78870000D02*
X178750000Y-78870000D01*
X181700000Y-78120000D02*
X181700000Y-78870000D01*
X183950000Y-93220000D02*
X183950000Y-91420000D01*
X183200000Y-93220000D02*
X183950000Y-93220000D01*
X183200000Y-91420000D02*
X183200000Y-93220000D01*
X183950000Y-91420000D02*
X183200000Y-91420000D01*
X183950000Y-79920000D02*
X183950000Y-78120000D01*
X183200000Y-79920000D02*
X183950000Y-79920000D01*
X183200000Y-78120000D02*
X183200000Y-79920000D01*
X183950000Y-78120000D02*
X183200000Y-78120000D01*
X183950000Y-89920000D02*
X183950000Y-81420000D01*
X183200000Y-89920000D02*
X183950000Y-89920000D01*
X183200000Y-81420000D02*
X183200000Y-89920000D01*
X183950000Y-81420000D02*
X183200000Y-81420000D01*
X183960000Y-93230000D02*
X183960000Y-78110000D01*
X177990000Y-93230000D02*
X183960000Y-93230000D01*
X177990000Y-78110000D02*
X177990000Y-93230000D01*
X183960000Y-78110000D02*
X177990000Y-78110000D01*
%TO.C,F1*%
X131160436Y-84810000D02*
X132364564Y-84810000D01*
X131160436Y-87530000D02*
X132364564Y-87530000D01*
%TO.C,U3*%
X169000000Y-94515000D02*
X165140000Y-94515000D01*
X165140000Y-94515000D02*
X165140000Y-94760000D01*
X169000000Y-94515000D02*
X172860000Y-94515000D01*
X172860000Y-94515000D02*
X172860000Y-94760000D01*
X169000000Y-106285000D02*
X165140000Y-106285000D01*
X165140000Y-106285000D02*
X165140000Y-106040000D01*
X169000000Y-106285000D02*
X172860000Y-106285000D01*
X172860000Y-106285000D02*
X172860000Y-106040000D01*
X172860000Y-106040000D02*
X174675000Y-106040000D01*
%TO.C,R8*%
X159522936Y-105935000D02*
X159977064Y-105935000D01*
X159522936Y-107405000D02*
X159977064Y-107405000D01*
%TO.C,R7*%
X147515000Y-86647064D02*
X147515000Y-86192936D01*
X148985000Y-86647064D02*
X148985000Y-86192936D01*
%TO.C,R6*%
X140015000Y-86647064D02*
X140015000Y-86192936D01*
X141485000Y-86647064D02*
X141485000Y-86192936D01*
%TO.C,R5*%
X156735000Y-86442936D02*
X156735000Y-86897064D01*
X155265000Y-86442936D02*
X155265000Y-86897064D01*
%TO.C,R4*%
X158735000Y-86442936D02*
X158735000Y-86897064D01*
X157265000Y-86442936D02*
X157265000Y-86897064D01*
%TO.C,R3*%
X159522936Y-101935000D02*
X159977064Y-101935000D01*
X159522936Y-103405000D02*
X159977064Y-103405000D01*
%TO.C,R2*%
X181765000Y-100647064D02*
X181765000Y-100192936D01*
X183235000Y-100647064D02*
X183235000Y-100192936D01*
%TO.C,C12*%
X175765000Y-83968752D02*
X175765000Y-83446248D01*
X177235000Y-83968752D02*
X177235000Y-83446248D01*
%TO.C,C9*%
X159265000Y-86968752D02*
X159265000Y-86446248D01*
X160735000Y-86968752D02*
X160735000Y-86446248D01*
%TO.C,C8*%
X177723752Y-104155000D02*
X177201248Y-104155000D01*
X177723752Y-102685000D02*
X177201248Y-102685000D01*
%TO.C,C7*%
X177201248Y-93935000D02*
X177723752Y-93935000D01*
X177201248Y-95405000D02*
X177723752Y-95405000D01*
%TO.C,C6*%
X146515000Y-94643752D02*
X146515000Y-94121248D01*
X147985000Y-94643752D02*
X147985000Y-94121248D01*
%TO.C,C5*%
X175276248Y-109685000D02*
X175798752Y-109685000D01*
X175276248Y-111155000D02*
X175798752Y-111155000D01*
%TO.C,C2*%
X154276248Y-103435000D02*
X154798752Y-103435000D01*
X154276248Y-104905000D02*
X154798752Y-104905000D01*
%TO.C,C1*%
X159526248Y-103935000D02*
X160048752Y-103935000D01*
X159526248Y-105405000D02*
X160048752Y-105405000D01*
D11*
%TO.C,U1*%
X143125000Y-98770000D02*
X141700000Y-98770000D01*
X150375000Y-98545000D02*
X150050000Y-98545000D01*
X150375000Y-105795000D02*
X150050000Y-105795000D01*
X143125000Y-105795000D02*
X143450000Y-105795000D01*
X143125000Y-98545000D02*
X143450000Y-98545000D01*
X143125000Y-105795000D02*
X143125000Y-105470000D01*
X150375000Y-105795000D02*
X150375000Y-105470000D01*
X150375000Y-98545000D02*
X150375000Y-98870000D01*
X143125000Y-98545000D02*
X143125000Y-98770000D01*
D10*
%TO.C,J5*%
X140522000Y-115630000D02*
X140522000Y-110430000D01*
X135382000Y-115630000D02*
X140522000Y-115630000D01*
X132782000Y-110430000D02*
X140522000Y-110430000D01*
X135382000Y-115630000D02*
X135382000Y-113030000D01*
X135382000Y-113030000D02*
X132782000Y-113030000D01*
X132782000Y-113030000D02*
X132782000Y-110430000D01*
X134112000Y-115630000D02*
X132782000Y-115630000D01*
X132782000Y-115630000D02*
X132782000Y-114300000D01*
%TO.C,J3*%
X132902000Y-115630000D02*
X132902000Y-110430000D01*
X132842000Y-115630000D02*
X132902000Y-115630000D01*
X130242000Y-110430000D02*
X132902000Y-110430000D01*
X132842000Y-115630000D02*
X132842000Y-113030000D01*
X132842000Y-113030000D02*
X130242000Y-113030000D01*
X130242000Y-113030000D02*
X130242000Y-110430000D01*
X131572000Y-115630000D02*
X130242000Y-115630000D01*
X130242000Y-115630000D02*
X130242000Y-114300000D01*
%TO.C,J7*%
X155762000Y-115630000D02*
X155762000Y-110430000D01*
X143002000Y-115630000D02*
X155762000Y-115630000D01*
X140402000Y-110430000D02*
X155762000Y-110430000D01*
X143002000Y-115630000D02*
X143002000Y-113030000D01*
X143002000Y-113030000D02*
X140402000Y-113030000D01*
X140402000Y-113030000D02*
X140402000Y-110430000D01*
X141732000Y-115630000D02*
X140402000Y-115630000D01*
X140402000Y-115630000D02*
X140402000Y-114300000D01*
%TO.C,D2*%
X172342000Y-111370000D02*
X166642000Y-111370000D01*
X172342000Y-107070000D02*
X166642000Y-107070000D01*
X172342000Y-111370000D02*
X172342000Y-107070000D01*
%TO.C,D1*%
X177350000Y-77770000D02*
X175650000Y-77770000D01*
X175650000Y-77770000D02*
X175650000Y-80920000D01*
X177350000Y-77770000D02*
X177350000Y-80920000D01*
%TO.C,Y2*%
X177000000Y-96070000D02*
X177000000Y-96370000D01*
X177000000Y-96370000D02*
X177800000Y-96370000D01*
X177800000Y-101770000D02*
X177000000Y-101770000D01*
X179200000Y-98370000D02*
X179200000Y-99770000D01*
X175600000Y-99770000D02*
X175600000Y-98370000D01*
X175600000Y-98370000D02*
X175360000Y-98370000D01*
%TO.C,D4*%
X144250000Y-89720000D02*
X144250000Y-85420000D01*
X142250000Y-89720000D02*
X144250000Y-89720000D01*
X142250000Y-85420000D02*
X142250000Y-89720000D01*
%TO.C,C10*%
X146460000Y-86706252D02*
X146460000Y-86183748D01*
X145040000Y-86706252D02*
X145040000Y-86183748D01*
%TO.C,U2*%
X183027000Y-109695000D02*
X183027000Y-106245000D01*
X183027000Y-109695000D02*
X183027000Y-111645000D01*
X177907000Y-109695000D02*
X177907000Y-107745000D01*
X177907000Y-109695000D02*
X177907000Y-111645000D01*
%TO.C,J1*%
X176435000Y-113970000D02*
X176435000Y-113660000D01*
X176435000Y-113660000D02*
X166565000Y-113660000D01*
X166565000Y-113660000D02*
X166565000Y-113970000D01*
X176435000Y-115490000D02*
X176435000Y-121250000D01*
X176435000Y-121250000D02*
X175015000Y-121250000D01*
X175015000Y-121250000D02*
X175015000Y-120750000D01*
X175015000Y-120750000D02*
X167985000Y-120750000D01*
X167985000Y-120750000D02*
X167985000Y-121250000D01*
X167985000Y-121250000D02*
X166565000Y-121250000D01*
X166565000Y-121250000D02*
X166565000Y-115490000D01*
%TO.C,JP2*%
X183500000Y-103320000D02*
X183500000Y-104720000D01*
X182800000Y-105420000D02*
X182200000Y-105420000D01*
X181500000Y-104720000D02*
X181500000Y-103320000D01*
X182200000Y-102620000D02*
X182800000Y-102620000D01*
X182800000Y-102620000D02*
G75*
G02*
X183500000Y-103320000I0J-700000D01*
G01*
X181500000Y-103320000D02*
G75*
G02*
X182200000Y-102620000I700000J0D01*
G01*
X182200000Y-105420000D02*
G75*
G02*
X181500000Y-104720000I0J700000D01*
G01*
X183500000Y-104720000D02*
G75*
G02*
X182800000Y-105420000I-700000J0D01*
G01*
%TO.C,D6*%
D11*
X135952380Y-88008095D02*
X134952380Y-88008095D01*
X134952380Y-87770000D01*
X135000000Y-87627142D01*
X135095238Y-87531904D01*
X135190476Y-87484285D01*
X135380952Y-87436666D01*
X135523809Y-87436666D01*
X135714285Y-87484285D01*
X135809523Y-87531904D01*
X135904761Y-87627142D01*
X135952380Y-87770000D01*
X135952380Y-88008095D01*
X134952380Y-86579523D02*
X134952380Y-86770000D01*
X135000000Y-86865238D01*
X135047619Y-86912857D01*
X135190476Y-87008095D01*
X135380952Y-87055714D01*
X135761904Y-87055714D01*
X135857142Y-87008095D01*
X135904761Y-86960476D01*
X135952380Y-86865238D01*
X135952380Y-86674761D01*
X135904761Y-86579523D01*
X135857142Y-86531904D01*
X135761904Y-86484285D01*
X135523809Y-86484285D01*
X135428571Y-86531904D01*
X135380952Y-86579523D01*
X135333333Y-86674761D01*
X135333333Y-86865238D01*
X135380952Y-86960476D01*
X135428571Y-87008095D01*
X135523809Y-87055714D01*
%TO.C,D5*%
X138952380Y-101158095D02*
X137952380Y-101158095D01*
X137952380Y-100920000D01*
X138000000Y-100777142D01*
X138095238Y-100681904D01*
X138190476Y-100634285D01*
X138380952Y-100586666D01*
X138523809Y-100586666D01*
X138714285Y-100634285D01*
X138809523Y-100681904D01*
X138904761Y-100777142D01*
X138952380Y-100920000D01*
X138952380Y-101158095D01*
X137952380Y-99681904D02*
X137952380Y-100158095D01*
X138428571Y-100205714D01*
X138380952Y-100158095D01*
X138333333Y-100062857D01*
X138333333Y-99824761D01*
X138380952Y-99729523D01*
X138428571Y-99681904D01*
X138523809Y-99634285D01*
X138761904Y-99634285D01*
X138857142Y-99681904D01*
X138904761Y-99729523D01*
X138952380Y-99824761D01*
X138952380Y-100062857D01*
X138904761Y-100158095D01*
X138857142Y-100205714D01*
%TO.C,C11*%
X150507142Y-87750357D02*
X150554761Y-87797976D01*
X150602380Y-87940833D01*
X150602380Y-88036071D01*
X150554761Y-88178928D01*
X150459523Y-88274166D01*
X150364285Y-88321785D01*
X150173809Y-88369404D01*
X150030952Y-88369404D01*
X149840476Y-88321785D01*
X149745238Y-88274166D01*
X149650000Y-88178928D01*
X149602380Y-88036071D01*
X149602380Y-87940833D01*
X149650000Y-87797976D01*
X149697619Y-87750357D01*
X150602380Y-86797976D02*
X150602380Y-87369404D01*
X150602380Y-87083690D02*
X149602380Y-87083690D01*
X149745238Y-87178928D01*
X149840476Y-87274166D01*
X149888095Y-87369404D01*
X150602380Y-85845595D02*
X150602380Y-86417023D01*
X150602380Y-86131309D02*
X149602380Y-86131309D01*
X149745238Y-86226547D01*
X149840476Y-86321785D01*
X149888095Y-86417023D01*
%TO.C,D3*%
X160202380Y-99908095D02*
X159202380Y-99908095D01*
X159202380Y-99670000D01*
X159250000Y-99527142D01*
X159345238Y-99431904D01*
X159440476Y-99384285D01*
X159630952Y-99336666D01*
X159773809Y-99336666D01*
X159964285Y-99384285D01*
X160059523Y-99431904D01*
X160154761Y-99527142D01*
X160202380Y-99670000D01*
X160202380Y-99908095D01*
X159202380Y-99003333D02*
X159202380Y-98384285D01*
X159583333Y-98717619D01*
X159583333Y-98574761D01*
X159630952Y-98479523D01*
X159678571Y-98431904D01*
X159773809Y-98384285D01*
X160011904Y-98384285D01*
X160107142Y-98431904D01*
X160154761Y-98479523D01*
X160202380Y-98574761D01*
X160202380Y-98860476D01*
X160154761Y-98955714D01*
X160107142Y-99003333D01*
%TO.C,X1*%
X159215476Y-82622380D02*
X159882142Y-83622380D01*
X159882142Y-82622380D02*
X159215476Y-83622380D01*
X160786904Y-83622380D02*
X160215476Y-83622380D01*
X160501190Y-83622380D02*
X160501190Y-82622380D01*
X160405952Y-82765238D01*
X160310714Y-82860476D01*
X160215476Y-82908095D01*
%TO.C,U5*%
X167738095Y-84122380D02*
X167738095Y-84931904D01*
X167785714Y-85027142D01*
X167833333Y-85074761D01*
X167928571Y-85122380D01*
X168119047Y-85122380D01*
X168214285Y-85074761D01*
X168261904Y-85027142D01*
X168309523Y-84931904D01*
X168309523Y-84122380D01*
X169261904Y-84122380D02*
X168785714Y-84122380D01*
X168738095Y-84598571D01*
X168785714Y-84550952D01*
X168880952Y-84503333D01*
X169119047Y-84503333D01*
X169214285Y-84550952D01*
X169261904Y-84598571D01*
X169309523Y-84693809D01*
X169309523Y-84931904D01*
X169261904Y-85027142D01*
X169214285Y-85074761D01*
X169119047Y-85122380D01*
X168880952Y-85122380D01*
X168785714Y-85074761D01*
X168738095Y-85027142D01*
X164547619Y-85027142D02*
X164500000Y-85074761D01*
X164357142Y-85122380D01*
X164261904Y-85122380D01*
X164119047Y-85074761D01*
X164023809Y-84979523D01*
X163976190Y-84884285D01*
X163928571Y-84693809D01*
X163928571Y-84550952D01*
X163976190Y-84360476D01*
X164023809Y-84265238D01*
X164119047Y-84170000D01*
X164261904Y-84122380D01*
X164357142Y-84122380D01*
X164500000Y-84170000D01*
X164547619Y-84217619D01*
X164928571Y-84836666D02*
X165404761Y-84836666D01*
X164833333Y-85122380D02*
X165166666Y-84122380D01*
X165500000Y-85122380D01*
X165833333Y-85122380D02*
X165833333Y-84122380D01*
X166166666Y-84836666D01*
X166500000Y-84122380D01*
X166500000Y-85122380D01*
X166976190Y-84741428D02*
X167738095Y-84741428D01*
X168214285Y-85122380D02*
X168214285Y-84122380D01*
X168547619Y-84836666D01*
X168880952Y-84122380D01*
X168880952Y-85122380D01*
X169500000Y-84550952D02*
X169404761Y-84503333D01*
X169357142Y-84455714D01*
X169309523Y-84360476D01*
X169309523Y-84312857D01*
X169357142Y-84217619D01*
X169404761Y-84170000D01*
X169500000Y-84122380D01*
X169690476Y-84122380D01*
X169785714Y-84170000D01*
X169833333Y-84217619D01*
X169880952Y-84312857D01*
X169880952Y-84360476D01*
X169833333Y-84455714D01*
X169785714Y-84503333D01*
X169690476Y-84550952D01*
X169500000Y-84550952D01*
X169404761Y-84598571D01*
X169357142Y-84646190D01*
X169309523Y-84741428D01*
X169309523Y-84931904D01*
X169357142Y-85027142D01*
X169404761Y-85074761D01*
X169500000Y-85122380D01*
X169690476Y-85122380D01*
X169785714Y-85074761D01*
X169833333Y-85027142D01*
X169880952Y-84931904D01*
X169880952Y-84741428D01*
X169833333Y-84646190D01*
X169785714Y-84598571D01*
X169690476Y-84550952D01*
X170880952Y-85027142D02*
X170833333Y-85074761D01*
X170690476Y-85122380D01*
X170595238Y-85122380D01*
X170452380Y-85074761D01*
X170357142Y-84979523D01*
X170309523Y-84884285D01*
X170261904Y-84693809D01*
X170261904Y-84550952D01*
X170309523Y-84360476D01*
X170357142Y-84265238D01*
X170452380Y-84170000D01*
X170595238Y-84122380D01*
X170690476Y-84122380D01*
X170833333Y-84170000D01*
X170880952Y-84217619D01*
X171309523Y-84741428D02*
X172071428Y-84741428D01*
X172738095Y-84122380D02*
X172833333Y-84122380D01*
X172928571Y-84170000D01*
X172976190Y-84217619D01*
X173023809Y-84312857D01*
X173071428Y-84503333D01*
X173071428Y-84741428D01*
X173023809Y-84931904D01*
X172976190Y-85027142D01*
X172928571Y-85074761D01*
X172833333Y-85122380D01*
X172738095Y-85122380D01*
X172642857Y-85074761D01*
X172595238Y-85027142D01*
X172547619Y-84931904D01*
X172500000Y-84741428D01*
X172500000Y-84503333D01*
X172547619Y-84312857D01*
X172595238Y-84217619D01*
X172642857Y-84170000D01*
X172738095Y-84122380D01*
X168500000Y-84122380D02*
X168500000Y-84360476D01*
X168261904Y-84265238D02*
X168500000Y-84360476D01*
X168738095Y-84265238D01*
X168357142Y-84550952D02*
X168500000Y-84360476D01*
X168642857Y-84550952D01*
%TO.C,H2*%
X180513151Y-114408436D02*
X180513151Y-113408436D01*
X180513151Y-113884627D02*
X181084579Y-113884627D01*
X181084579Y-114408436D02*
X181084579Y-113408436D01*
X181513151Y-113503675D02*
X181560770Y-113456056D01*
X181656008Y-113408436D01*
X181894103Y-113408436D01*
X181989341Y-113456056D01*
X182036960Y-113503675D01*
X182084579Y-113598913D01*
X182084579Y-113694151D01*
X182036960Y-113837008D01*
X181465532Y-114408436D01*
X182084579Y-114408436D01*
%TO.C,C15*%
X173677142Y-90100357D02*
X173724761Y-90147976D01*
X173772380Y-90290833D01*
X173772380Y-90386071D01*
X173724761Y-90528928D01*
X173629523Y-90624166D01*
X173534285Y-90671785D01*
X173343809Y-90719404D01*
X173200952Y-90719404D01*
X173010476Y-90671785D01*
X172915238Y-90624166D01*
X172820000Y-90528928D01*
X172772380Y-90386071D01*
X172772380Y-90290833D01*
X172820000Y-90147976D01*
X172867619Y-90100357D01*
X173772380Y-89147976D02*
X173772380Y-89719404D01*
X173772380Y-89433690D02*
X172772380Y-89433690D01*
X172915238Y-89528928D01*
X173010476Y-89624166D01*
X173058095Y-89719404D01*
X172772380Y-88243214D02*
X172772380Y-88719404D01*
X173248571Y-88767023D01*
X173200952Y-88719404D01*
X173153333Y-88624166D01*
X173153333Y-88386071D01*
X173200952Y-88290833D01*
X173248571Y-88243214D01*
X173343809Y-88195595D01*
X173581904Y-88195595D01*
X173677142Y-88243214D01*
X173724761Y-88290833D01*
X173772380Y-88386071D01*
X173772380Y-88624166D01*
X173724761Y-88719404D01*
X173677142Y-88767023D01*
%TO.C,U4*%
X130488095Y-92422380D02*
X130488095Y-93231904D01*
X130535714Y-93327142D01*
X130583333Y-93374761D01*
X130678571Y-93422380D01*
X130869047Y-93422380D01*
X130964285Y-93374761D01*
X131011904Y-93327142D01*
X131059523Y-93231904D01*
X131059523Y-92422380D01*
X131964285Y-92755714D02*
X131964285Y-93422380D01*
X131726190Y-92374761D02*
X131488095Y-93089047D01*
X132107142Y-93089047D01*
%TO.C,J8*%
X156032380Y-115253333D02*
X156746666Y-115253333D01*
X156889523Y-115300952D01*
X156984761Y-115396190D01*
X157032380Y-115539047D01*
X157032380Y-115634285D01*
X156460952Y-114634285D02*
X156413333Y-114729523D01*
X156365714Y-114777142D01*
X156270476Y-114824761D01*
X156222857Y-114824761D01*
X156127619Y-114777142D01*
X156080000Y-114729523D01*
X156032380Y-114634285D01*
X156032380Y-114443809D01*
X156080000Y-114348571D01*
X156127619Y-114300952D01*
X156222857Y-114253333D01*
X156270476Y-114253333D01*
X156365714Y-114300952D01*
X156413333Y-114348571D01*
X156460952Y-114443809D01*
X156460952Y-114634285D01*
X156508571Y-114729523D01*
X156556190Y-114777142D01*
X156651428Y-114824761D01*
X156841904Y-114824761D01*
X156937142Y-114777142D01*
X156984761Y-114729523D01*
X157032380Y-114634285D01*
X157032380Y-114443809D01*
X156984761Y-114348571D01*
X156937142Y-114300952D01*
X156841904Y-114253333D01*
X156651428Y-114253333D01*
X156556190Y-114300952D01*
X156508571Y-114348571D01*
X156460952Y-114443809D01*
%TO.C,L1*%
X136652380Y-95024166D02*
X136652380Y-95500357D01*
X135652380Y-95500357D01*
X136652380Y-94167023D02*
X136652380Y-94738452D01*
X136652380Y-94452738D02*
X135652380Y-94452738D01*
X135795238Y-94547976D01*
X135890476Y-94643214D01*
X135938095Y-94738452D01*
%TO.C,C14*%
X130557142Y-102577142D02*
X130509523Y-102624761D01*
X130366666Y-102672380D01*
X130271428Y-102672380D01*
X130128571Y-102624761D01*
X130033333Y-102529523D01*
X129985714Y-102434285D01*
X129938095Y-102243809D01*
X129938095Y-102100952D01*
X129985714Y-101910476D01*
X130033333Y-101815238D01*
X130128571Y-101720000D01*
X130271428Y-101672380D01*
X130366666Y-101672380D01*
X130509523Y-101720000D01*
X130557142Y-101767619D01*
X131509523Y-102672380D02*
X130938095Y-102672380D01*
X131223809Y-102672380D02*
X131223809Y-101672380D01*
X131128571Y-101815238D01*
X131033333Y-101910476D01*
X130938095Y-101958095D01*
X132366666Y-102005714D02*
X132366666Y-102672380D01*
X132128571Y-101624761D02*
X131890476Y-102339047D01*
X132509523Y-102339047D01*
%TO.C,C13*%
X130557142Y-97327142D02*
X130509523Y-97374761D01*
X130366666Y-97422380D01*
X130271428Y-97422380D01*
X130128571Y-97374761D01*
X130033333Y-97279523D01*
X129985714Y-97184285D01*
X129938095Y-96993809D01*
X129938095Y-96850952D01*
X129985714Y-96660476D01*
X130033333Y-96565238D01*
X130128571Y-96470000D01*
X130271428Y-96422380D01*
X130366666Y-96422380D01*
X130509523Y-96470000D01*
X130557142Y-96517619D01*
X131509523Y-97422380D02*
X130938095Y-97422380D01*
X131223809Y-97422380D02*
X131223809Y-96422380D01*
X131128571Y-96565238D01*
X131033333Y-96660476D01*
X130938095Y-96708095D01*
X131842857Y-96422380D02*
X132461904Y-96422380D01*
X132128571Y-96803333D01*
X132271428Y-96803333D01*
X132366666Y-96850952D01*
X132414285Y-96898571D01*
X132461904Y-96993809D01*
X132461904Y-97231904D01*
X132414285Y-97327142D01*
X132366666Y-97374761D01*
X132271428Y-97422380D01*
X131985714Y-97422380D01*
X131890476Y-97374761D01*
X131842857Y-97327142D01*
%TO.C,C4*%
X134177142Y-94874166D02*
X134224761Y-94921785D01*
X134272380Y-95064642D01*
X134272380Y-95159880D01*
X134224761Y-95302738D01*
X134129523Y-95397976D01*
X134034285Y-95445595D01*
X133843809Y-95493214D01*
X133700952Y-95493214D01*
X133510476Y-95445595D01*
X133415238Y-95397976D01*
X133320000Y-95302738D01*
X133272380Y-95159880D01*
X133272380Y-95064642D01*
X133320000Y-94921785D01*
X133367619Y-94874166D01*
X133605714Y-94017023D02*
X134272380Y-94017023D01*
X133224761Y-94255119D02*
X133939047Y-94493214D01*
X133939047Y-93874166D01*
%TO.C,C3*%
X131383333Y-88077142D02*
X131335714Y-88124761D01*
X131192857Y-88172380D01*
X131097619Y-88172380D01*
X130954761Y-88124761D01*
X130859523Y-88029523D01*
X130811904Y-87934285D01*
X130764285Y-87743809D01*
X130764285Y-87600952D01*
X130811904Y-87410476D01*
X130859523Y-87315238D01*
X130954761Y-87220000D01*
X131097619Y-87172380D01*
X131192857Y-87172380D01*
X131335714Y-87220000D01*
X131383333Y-87267619D01*
X131716666Y-87172380D02*
X132335714Y-87172380D01*
X132002380Y-87553333D01*
X132145238Y-87553333D01*
X132240476Y-87600952D01*
X132288095Y-87648571D01*
X132335714Y-87743809D01*
X132335714Y-87981904D01*
X132288095Y-88077142D01*
X132240476Y-88124761D01*
X132145238Y-88172380D01*
X131859523Y-88172380D01*
X131764285Y-88124761D01*
X131716666Y-88077142D01*
%TO.C,J4*%
X141916666Y-76166380D02*
X141916666Y-76880666D01*
X141869047Y-77023523D01*
X141773809Y-77118761D01*
X141630952Y-77166380D01*
X141535714Y-77166380D01*
X142821428Y-76499714D02*
X142821428Y-77166380D01*
X142583333Y-76118761D02*
X142345238Y-76833047D01*
X142964285Y-76833047D01*
%TO.C,J2*%
X152916666Y-76166380D02*
X152916666Y-76880666D01*
X152869047Y-77023523D01*
X152773809Y-77118761D01*
X152630952Y-77166380D01*
X152535714Y-77166380D01*
X153345238Y-76261619D02*
X153392857Y-76214000D01*
X153488095Y-76166380D01*
X153726190Y-76166380D01*
X153821428Y-76214000D01*
X153869047Y-76261619D01*
X153916666Y-76356857D01*
X153916666Y-76452095D01*
X153869047Y-76594952D01*
X153297619Y-77166380D01*
X153916666Y-77166380D01*
%TO.C,J6*%
X184502380Y-86003333D02*
X185216666Y-86003333D01*
X185359523Y-86050952D01*
X185454761Y-86146190D01*
X185502380Y-86289047D01*
X185502380Y-86384285D01*
X184502380Y-85098571D02*
X184502380Y-85289047D01*
X184550000Y-85384285D01*
X184597619Y-85431904D01*
X184740476Y-85527142D01*
X184930952Y-85574761D01*
X185311904Y-85574761D01*
X185407142Y-85527142D01*
X185454761Y-85479523D01*
X185502380Y-85384285D01*
X185502380Y-85193809D01*
X185454761Y-85098571D01*
X185407142Y-85050952D01*
X185311904Y-85003333D01*
X185073809Y-85003333D01*
X184978571Y-85050952D01*
X184930952Y-85098571D01*
X184883333Y-85193809D01*
X184883333Y-85384285D01*
X184930952Y-85479523D01*
X184978571Y-85527142D01*
X185073809Y-85574761D01*
%TO.C,FID3*%
X180928571Y-94348571D02*
X180595238Y-94348571D01*
X180595238Y-94872380D02*
X180595238Y-93872380D01*
X181071428Y-93872380D01*
X181452380Y-94872380D02*
X181452380Y-93872380D01*
X181928571Y-94872380D02*
X181928571Y-93872380D01*
X182166666Y-93872380D01*
X182309523Y-93920000D01*
X182404761Y-94015238D01*
X182452380Y-94110476D01*
X182500000Y-94300952D01*
X182500000Y-94443809D01*
X182452380Y-94634285D01*
X182404761Y-94729523D01*
X182309523Y-94824761D01*
X182166666Y-94872380D01*
X181928571Y-94872380D01*
X182833333Y-93872380D02*
X183452380Y-93872380D01*
X183119047Y-94253333D01*
X183261904Y-94253333D01*
X183357142Y-94300952D01*
X183404761Y-94348571D01*
X183452380Y-94443809D01*
X183452380Y-94681904D01*
X183404761Y-94777142D01*
X183357142Y-94824761D01*
X183261904Y-94872380D01*
X182976190Y-94872380D01*
X182880952Y-94824761D01*
X182833333Y-94777142D01*
%TO.C,FID2*%
X127678571Y-107348571D02*
X127345238Y-107348571D01*
X127345238Y-107872380D02*
X127345238Y-106872380D01*
X127821428Y-106872380D01*
X128202380Y-107872380D02*
X128202380Y-106872380D01*
X128678571Y-107872380D02*
X128678571Y-106872380D01*
X128916666Y-106872380D01*
X129059523Y-106920000D01*
X129154761Y-107015238D01*
X129202380Y-107110476D01*
X129250000Y-107300952D01*
X129250000Y-107443809D01*
X129202380Y-107634285D01*
X129154761Y-107729523D01*
X129059523Y-107824761D01*
X128916666Y-107872380D01*
X128678571Y-107872380D01*
X129630952Y-106967619D02*
X129678571Y-106920000D01*
X129773809Y-106872380D01*
X130011904Y-106872380D01*
X130107142Y-106920000D01*
X130154761Y-106967619D01*
X130202380Y-107062857D01*
X130202380Y-107158095D01*
X130154761Y-107300952D01*
X129583333Y-107872380D01*
X130202380Y-107872380D01*
%TO.C,FID1*%
X156428571Y-94098571D02*
X156095238Y-94098571D01*
X156095238Y-94622380D02*
X156095238Y-93622380D01*
X156571428Y-93622380D01*
X156952380Y-94622380D02*
X156952380Y-93622380D01*
X157428571Y-94622380D02*
X157428571Y-93622380D01*
X157666666Y-93622380D01*
X157809523Y-93670000D01*
X157904761Y-93765238D01*
X157952380Y-93860476D01*
X158000000Y-94050952D01*
X158000000Y-94193809D01*
X157952380Y-94384285D01*
X157904761Y-94479523D01*
X157809523Y-94574761D01*
X157666666Y-94622380D01*
X157428571Y-94622380D01*
X158952380Y-94622380D02*
X158380952Y-94622380D01*
X158666666Y-94622380D02*
X158666666Y-93622380D01*
X158571428Y-93765238D01*
X158476190Y-93860476D01*
X158380952Y-93908095D01*
%TO.C,F1*%
X131429166Y-83818571D02*
X131095833Y-83818571D01*
X131095833Y-84342380D02*
X131095833Y-83342380D01*
X131572023Y-83342380D01*
X132476785Y-84342380D02*
X131905357Y-84342380D01*
X132191071Y-84342380D02*
X132191071Y-83342380D01*
X132095833Y-83485238D01*
X132000595Y-83580476D01*
X131905357Y-83628095D01*
%TO.C,U3*%
X168238095Y-106572380D02*
X168238095Y-107381904D01*
X168285714Y-107477142D01*
X168333333Y-107524761D01*
X168428571Y-107572380D01*
X168619047Y-107572380D01*
X168714285Y-107524761D01*
X168761904Y-107477142D01*
X168809523Y-107381904D01*
X168809523Y-106572380D01*
X169190476Y-106572380D02*
X169809523Y-106572380D01*
X169476190Y-106953333D01*
X169619047Y-106953333D01*
X169714285Y-107000952D01*
X169761904Y-107048571D01*
X169809523Y-107143809D01*
X169809523Y-107381904D01*
X169761904Y-107477142D01*
X169714285Y-107524761D01*
X169619047Y-107572380D01*
X169333333Y-107572380D01*
X169238095Y-107524761D01*
X169190476Y-107477142D01*
%TO.C,R8*%
X159583333Y-105472380D02*
X159250000Y-104996190D01*
X159011904Y-105472380D02*
X159011904Y-104472380D01*
X159392857Y-104472380D01*
X159488095Y-104520000D01*
X159535714Y-104567619D01*
X159583333Y-104662857D01*
X159583333Y-104805714D01*
X159535714Y-104900952D01*
X159488095Y-104948571D01*
X159392857Y-104996190D01*
X159011904Y-104996190D01*
X160154761Y-104900952D02*
X160059523Y-104853333D01*
X160011904Y-104805714D01*
X159964285Y-104710476D01*
X159964285Y-104662857D01*
X160011904Y-104567619D01*
X160059523Y-104520000D01*
X160154761Y-104472380D01*
X160345238Y-104472380D01*
X160440476Y-104520000D01*
X160488095Y-104567619D01*
X160535714Y-104662857D01*
X160535714Y-104710476D01*
X160488095Y-104805714D01*
X160440476Y-104853333D01*
X160345238Y-104900952D01*
X160154761Y-104900952D01*
X160059523Y-104948571D01*
X160011904Y-104996190D01*
X159964285Y-105091428D01*
X159964285Y-105281904D01*
X160011904Y-105377142D01*
X160059523Y-105424761D01*
X160154761Y-105472380D01*
X160345238Y-105472380D01*
X160440476Y-105424761D01*
X160488095Y-105377142D01*
X160535714Y-105281904D01*
X160535714Y-105091428D01*
X160488095Y-104996190D01*
X160440476Y-104948571D01*
X160345238Y-104900952D01*
%TO.C,R7*%
X146802380Y-87586666D02*
X146326190Y-87920000D01*
X146802380Y-88158095D02*
X145802380Y-88158095D01*
X145802380Y-87777142D01*
X145850000Y-87681904D01*
X145897619Y-87634285D01*
X145992857Y-87586666D01*
X146135714Y-87586666D01*
X146230952Y-87634285D01*
X146278571Y-87681904D01*
X146326190Y-87777142D01*
X146326190Y-88158095D01*
X145802380Y-87253333D02*
X145802380Y-86586666D01*
X146802380Y-87015238D01*
%TO.C,R6*%
X139552380Y-86586666D02*
X139076190Y-86920000D01*
X139552380Y-87158095D02*
X138552380Y-87158095D01*
X138552380Y-86777142D01*
X138600000Y-86681904D01*
X138647619Y-86634285D01*
X138742857Y-86586666D01*
X138885714Y-86586666D01*
X138980952Y-86634285D01*
X139028571Y-86681904D01*
X139076190Y-86777142D01*
X139076190Y-87158095D01*
X138552380Y-85729523D02*
X138552380Y-85920000D01*
X138600000Y-86015238D01*
X138647619Y-86062857D01*
X138790476Y-86158095D01*
X138980952Y-86205714D01*
X139361904Y-86205714D01*
X139457142Y-86158095D01*
X139504761Y-86110476D01*
X139552380Y-86015238D01*
X139552380Y-85824761D01*
X139504761Y-85729523D01*
X139457142Y-85681904D01*
X139361904Y-85634285D01*
X139123809Y-85634285D01*
X139028571Y-85681904D01*
X138980952Y-85729523D01*
X138933333Y-85824761D01*
X138933333Y-86015238D01*
X138980952Y-86110476D01*
X139028571Y-86158095D01*
X139123809Y-86205714D01*
%TO.C,R5*%
X155707380Y-83931666D02*
X155231190Y-84265000D01*
X155707380Y-84503095D02*
X154707380Y-84503095D01*
X154707380Y-84122142D01*
X154755000Y-84026904D01*
X154802619Y-83979285D01*
X154897857Y-83931666D01*
X155040714Y-83931666D01*
X155135952Y-83979285D01*
X155183571Y-84026904D01*
X155231190Y-84122142D01*
X155231190Y-84503095D01*
X154707380Y-83026904D02*
X154707380Y-83503095D01*
X155183571Y-83550714D01*
X155135952Y-83503095D01*
X155088333Y-83407857D01*
X155088333Y-83169761D01*
X155135952Y-83074523D01*
X155183571Y-83026904D01*
X155278809Y-82979285D01*
X155516904Y-82979285D01*
X155612142Y-83026904D01*
X155659761Y-83074523D01*
X155707380Y-83169761D01*
X155707380Y-83407857D01*
X155659761Y-83503095D01*
X155612142Y-83550714D01*
%TO.C,R4*%
X158262380Y-89931666D02*
X157786190Y-90265000D01*
X158262380Y-90503095D02*
X157262380Y-90503095D01*
X157262380Y-90122142D01*
X157310000Y-90026904D01*
X157357619Y-89979285D01*
X157452857Y-89931666D01*
X157595714Y-89931666D01*
X157690952Y-89979285D01*
X157738571Y-90026904D01*
X157786190Y-90122142D01*
X157786190Y-90503095D01*
X157595714Y-89074523D02*
X158262380Y-89074523D01*
X157214761Y-89312619D02*
X157929047Y-89550714D01*
X157929047Y-88931666D01*
%TO.C,R3*%
X159583333Y-101472380D02*
X159250000Y-100996190D01*
X159011904Y-101472380D02*
X159011904Y-100472380D01*
X159392857Y-100472380D01*
X159488095Y-100520000D01*
X159535714Y-100567619D01*
X159583333Y-100662857D01*
X159583333Y-100805714D01*
X159535714Y-100900952D01*
X159488095Y-100948571D01*
X159392857Y-100996190D01*
X159011904Y-100996190D01*
X159916666Y-100472380D02*
X160535714Y-100472380D01*
X160202380Y-100853333D01*
X160345238Y-100853333D01*
X160440476Y-100900952D01*
X160488095Y-100948571D01*
X160535714Y-101043809D01*
X160535714Y-101281904D01*
X160488095Y-101377142D01*
X160440476Y-101424761D01*
X160345238Y-101472380D01*
X160059523Y-101472380D01*
X159964285Y-101424761D01*
X159916666Y-101377142D01*
%TO.C,R2*%
X182321333Y-98685380D02*
X181988000Y-98209190D01*
X181749904Y-98685380D02*
X181749904Y-97685380D01*
X182130857Y-97685380D01*
X182226095Y-97733000D01*
X182273714Y-97780619D01*
X182321333Y-97875857D01*
X182321333Y-98018714D01*
X182273714Y-98113952D01*
X182226095Y-98161571D01*
X182130857Y-98209190D01*
X181749904Y-98209190D01*
X182702285Y-97780619D02*
X182749904Y-97733000D01*
X182845142Y-97685380D01*
X183083238Y-97685380D01*
X183178476Y-97733000D01*
X183226095Y-97780619D01*
X183273714Y-97875857D01*
X183273714Y-97971095D01*
X183226095Y-98113952D01*
X182654666Y-98685380D01*
X183273714Y-98685380D01*
%TO.C,C12*%
X176902142Y-87831357D02*
X176949761Y-87878976D01*
X176997380Y-88021833D01*
X176997380Y-88117071D01*
X176949761Y-88259928D01*
X176854523Y-88355166D01*
X176759285Y-88402785D01*
X176568809Y-88450404D01*
X176425952Y-88450404D01*
X176235476Y-88402785D01*
X176140238Y-88355166D01*
X176045000Y-88259928D01*
X175997380Y-88117071D01*
X175997380Y-88021833D01*
X176045000Y-87878976D01*
X176092619Y-87831357D01*
X176997380Y-86878976D02*
X176997380Y-87450404D01*
X176997380Y-87164690D02*
X175997380Y-87164690D01*
X176140238Y-87259928D01*
X176235476Y-87355166D01*
X176283095Y-87450404D01*
X176092619Y-86498023D02*
X176045000Y-86450404D01*
X175997380Y-86355166D01*
X175997380Y-86117071D01*
X176045000Y-86021833D01*
X176092619Y-85974214D01*
X176187857Y-85926595D01*
X176283095Y-85926595D01*
X176425952Y-85974214D01*
X176997380Y-86545642D01*
X176997380Y-85926595D01*
%TO.C,C9*%
X160453142Y-89969166D02*
X160500761Y-90016785D01*
X160548380Y-90159642D01*
X160548380Y-90254880D01*
X160500761Y-90397738D01*
X160405523Y-90492976D01*
X160310285Y-90540595D01*
X160119809Y-90588214D01*
X159976952Y-90588214D01*
X159786476Y-90540595D01*
X159691238Y-90492976D01*
X159596000Y-90397738D01*
X159548380Y-90254880D01*
X159548380Y-90159642D01*
X159596000Y-90016785D01*
X159643619Y-89969166D01*
X160548380Y-89492976D02*
X160548380Y-89302500D01*
X160500761Y-89207261D01*
X160453142Y-89159642D01*
X160310285Y-89064404D01*
X160119809Y-89016785D01*
X159738857Y-89016785D01*
X159643619Y-89064404D01*
X159596000Y-89112023D01*
X159548380Y-89207261D01*
X159548380Y-89397738D01*
X159596000Y-89492976D01*
X159643619Y-89540595D01*
X159738857Y-89588214D01*
X159976952Y-89588214D01*
X160072190Y-89540595D01*
X160119809Y-89492976D01*
X160167428Y-89397738D01*
X160167428Y-89207261D01*
X160119809Y-89112023D01*
X160072190Y-89064404D01*
X159976952Y-89016785D01*
%TO.C,C8*%
X180108833Y-102621142D02*
X180061214Y-102668761D01*
X179918357Y-102716380D01*
X179823119Y-102716380D01*
X179680261Y-102668761D01*
X179585023Y-102573523D01*
X179537404Y-102478285D01*
X179489785Y-102287809D01*
X179489785Y-102144952D01*
X179537404Y-101954476D01*
X179585023Y-101859238D01*
X179680261Y-101764000D01*
X179823119Y-101716380D01*
X179918357Y-101716380D01*
X180061214Y-101764000D01*
X180108833Y-101811619D01*
X180680261Y-102144952D02*
X180585023Y-102097333D01*
X180537404Y-102049714D01*
X180489785Y-101954476D01*
X180489785Y-101906857D01*
X180537404Y-101811619D01*
X180585023Y-101764000D01*
X180680261Y-101716380D01*
X180870738Y-101716380D01*
X180965976Y-101764000D01*
X181013595Y-101811619D01*
X181061214Y-101906857D01*
X181061214Y-101954476D01*
X181013595Y-102049714D01*
X180965976Y-102097333D01*
X180870738Y-102144952D01*
X180680261Y-102144952D01*
X180585023Y-102192571D01*
X180537404Y-102240190D01*
X180489785Y-102335428D01*
X180489785Y-102525904D01*
X180537404Y-102621142D01*
X180585023Y-102668761D01*
X180680261Y-102716380D01*
X180870738Y-102716380D01*
X180965976Y-102668761D01*
X181013595Y-102621142D01*
X181061214Y-102525904D01*
X181061214Y-102335428D01*
X181013595Y-102240190D01*
X180965976Y-102192571D01*
X180870738Y-102144952D01*
%TO.C,C7*%
X180595833Y-95027142D02*
X180548214Y-95074761D01*
X180405357Y-95122380D01*
X180310119Y-95122380D01*
X180167261Y-95074761D01*
X180072023Y-94979523D01*
X180024404Y-94884285D01*
X179976785Y-94693809D01*
X179976785Y-94550952D01*
X180024404Y-94360476D01*
X180072023Y-94265238D01*
X180167261Y-94170000D01*
X180310119Y-94122380D01*
X180405357Y-94122380D01*
X180548214Y-94170000D01*
X180595833Y-94217619D01*
X180929166Y-94122380D02*
X181595833Y-94122380D01*
X181167261Y-95122380D01*
%TO.C,C6*%
X145927142Y-94549166D02*
X145974761Y-94596785D01*
X146022380Y-94739642D01*
X146022380Y-94834880D01*
X145974761Y-94977738D01*
X145879523Y-95072976D01*
X145784285Y-95120595D01*
X145593809Y-95168214D01*
X145450952Y-95168214D01*
X145260476Y-95120595D01*
X145165238Y-95072976D01*
X145070000Y-94977738D01*
X145022380Y-94834880D01*
X145022380Y-94739642D01*
X145070000Y-94596785D01*
X145117619Y-94549166D01*
X145022380Y-93692023D02*
X145022380Y-93882500D01*
X145070000Y-93977738D01*
X145117619Y-94025357D01*
X145260476Y-94120595D01*
X145450952Y-94168214D01*
X145831904Y-94168214D01*
X145927142Y-94120595D01*
X145974761Y-94072976D01*
X146022380Y-93977738D01*
X146022380Y-93787261D01*
X145974761Y-93692023D01*
X145927142Y-93644404D01*
X145831904Y-93596785D01*
X145593809Y-93596785D01*
X145498571Y-93644404D01*
X145450952Y-93692023D01*
X145403333Y-93787261D01*
X145403333Y-93977738D01*
X145450952Y-94072976D01*
X145498571Y-94120595D01*
X145593809Y-94168214D01*
%TO.C,C5*%
X175370833Y-109097142D02*
X175323214Y-109144761D01*
X175180357Y-109192380D01*
X175085119Y-109192380D01*
X174942261Y-109144761D01*
X174847023Y-109049523D01*
X174799404Y-108954285D01*
X174751785Y-108763809D01*
X174751785Y-108620952D01*
X174799404Y-108430476D01*
X174847023Y-108335238D01*
X174942261Y-108240000D01*
X175085119Y-108192380D01*
X175180357Y-108192380D01*
X175323214Y-108240000D01*
X175370833Y-108287619D01*
X176275595Y-108192380D02*
X175799404Y-108192380D01*
X175751785Y-108668571D01*
X175799404Y-108620952D01*
X175894642Y-108573333D01*
X176132738Y-108573333D01*
X176227976Y-108620952D01*
X176275595Y-108668571D01*
X176323214Y-108763809D01*
X176323214Y-109001904D01*
X176275595Y-109097142D01*
X176227976Y-109144761D01*
X176132738Y-109192380D01*
X175894642Y-109192380D01*
X175799404Y-109144761D01*
X175751785Y-109097142D01*
%TO.C,C2*%
X154370833Y-102847142D02*
X154323214Y-102894761D01*
X154180357Y-102942380D01*
X154085119Y-102942380D01*
X153942261Y-102894761D01*
X153847023Y-102799523D01*
X153799404Y-102704285D01*
X153751785Y-102513809D01*
X153751785Y-102370952D01*
X153799404Y-102180476D01*
X153847023Y-102085238D01*
X153942261Y-101990000D01*
X154085119Y-101942380D01*
X154180357Y-101942380D01*
X154323214Y-101990000D01*
X154370833Y-102037619D01*
X154751785Y-102037619D02*
X154799404Y-101990000D01*
X154894642Y-101942380D01*
X155132738Y-101942380D01*
X155227976Y-101990000D01*
X155275595Y-102037619D01*
X155323214Y-102132857D01*
X155323214Y-102228095D01*
X155275595Y-102370952D01*
X154704166Y-102942380D01*
X155323214Y-102942380D01*
%TO.C,C1*%
X159620833Y-103347142D02*
X159573214Y-103394761D01*
X159430357Y-103442380D01*
X159335119Y-103442380D01*
X159192261Y-103394761D01*
X159097023Y-103299523D01*
X159049404Y-103204285D01*
X159001785Y-103013809D01*
X159001785Y-102870952D01*
X159049404Y-102680476D01*
X159097023Y-102585238D01*
X159192261Y-102490000D01*
X159335119Y-102442380D01*
X159430357Y-102442380D01*
X159573214Y-102490000D01*
X159620833Y-102537619D01*
X160573214Y-103442380D02*
X160001785Y-103442380D01*
X160287500Y-103442380D02*
X160287500Y-102442380D01*
X160192261Y-102585238D01*
X160097023Y-102680476D01*
X160001785Y-102728095D01*
%TO.C,U1*%
X150888095Y-97022380D02*
X150888095Y-97831904D01*
X150935714Y-97927142D01*
X150983333Y-97974761D01*
X151078571Y-98022380D01*
X151269047Y-98022380D01*
X151364285Y-97974761D01*
X151411904Y-97927142D01*
X151459523Y-97831904D01*
X151459523Y-97022380D01*
X152459523Y-98022380D02*
X151888095Y-98022380D01*
X152173809Y-98022380D02*
X152173809Y-97022380D01*
X152078571Y-97165238D01*
X151983333Y-97260476D01*
X151888095Y-97308095D01*
%TO.C,J5*%
X131234380Y-113363333D02*
X131948666Y-113363333D01*
X132091523Y-113410952D01*
X132186761Y-113506190D01*
X132234380Y-113649047D01*
X132234380Y-113744285D01*
X131234380Y-112410952D02*
X131234380Y-112887142D01*
X131710571Y-112934761D01*
X131662952Y-112887142D01*
X131615333Y-112791904D01*
X131615333Y-112553809D01*
X131662952Y-112458571D01*
X131710571Y-112410952D01*
X131805809Y-112363333D01*
X132043904Y-112363333D01*
X132139142Y-112410952D01*
X132186761Y-112458571D01*
X132234380Y-112553809D01*
X132234380Y-112791904D01*
X132186761Y-112887142D01*
X132139142Y-112934761D01*
%TO.C,J3*%
X128694380Y-113363333D02*
X129408666Y-113363333D01*
X129551523Y-113410952D01*
X129646761Y-113506190D01*
X129694380Y-113649047D01*
X129694380Y-113744285D01*
X128694380Y-112982380D02*
X128694380Y-112363333D01*
X129075333Y-112696666D01*
X129075333Y-112553809D01*
X129122952Y-112458571D01*
X129170571Y-112410952D01*
X129265809Y-112363333D01*
X129503904Y-112363333D01*
X129599142Y-112410952D01*
X129646761Y-112458571D01*
X129694380Y-112553809D01*
X129694380Y-112839523D01*
X129646761Y-112934761D01*
X129599142Y-112982380D01*
%TO.C,J7*%
X138854380Y-113363333D02*
X139568666Y-113363333D01*
X139711523Y-113410952D01*
X139806761Y-113506190D01*
X139854380Y-113649047D01*
X139854380Y-113744285D01*
X138854380Y-112982380D02*
X138854380Y-112315714D01*
X139854380Y-112744285D01*
%TO.C,D2*%
X172997904Y-111450380D02*
X172997904Y-110450380D01*
X173236000Y-110450380D01*
X173378857Y-110498000D01*
X173474095Y-110593238D01*
X173521714Y-110688476D01*
X173569333Y-110878952D01*
X173569333Y-111021809D01*
X173521714Y-111212285D01*
X173474095Y-111307523D01*
X173378857Y-111402761D01*
X173236000Y-111450380D01*
X172997904Y-111450380D01*
X173950285Y-110545619D02*
X173997904Y-110498000D01*
X174093142Y-110450380D01*
X174331238Y-110450380D01*
X174426476Y-110498000D01*
X174474095Y-110545619D01*
X174521714Y-110640857D01*
X174521714Y-110736095D01*
X174474095Y-110878952D01*
X173902666Y-111450380D01*
X174521714Y-111450380D01*
%TO.C,D1*%
X176825380Y-83182095D02*
X175825380Y-83182095D01*
X175825380Y-82944000D01*
X175873000Y-82801142D01*
X175968238Y-82705904D01*
X176063476Y-82658285D01*
X176253952Y-82610666D01*
X176396809Y-82610666D01*
X176587285Y-82658285D01*
X176682523Y-82705904D01*
X176777761Y-82801142D01*
X176825380Y-82944000D01*
X176825380Y-83182095D01*
X176825380Y-81658285D02*
X176825380Y-82229714D01*
X176825380Y-81944000D02*
X175825380Y-81944000D01*
X175968238Y-82039238D01*
X176063476Y-82134476D01*
X176111095Y-82229714D01*
%TO.C,Y2*%
X180176190Y-99546190D02*
X180652380Y-99546190D01*
X179652380Y-99879523D02*
X180176190Y-99546190D01*
X179652380Y-99212857D01*
X179747619Y-98927142D02*
X179700000Y-98879523D01*
X179652380Y-98784285D01*
X179652380Y-98546190D01*
X179700000Y-98450952D01*
X179747619Y-98403333D01*
X179842857Y-98355714D01*
X179938095Y-98355714D01*
X180080952Y-98403333D01*
X180652380Y-98974761D01*
X180652380Y-98355714D01*
%TO.C,D4*%
X143760380Y-91532095D02*
X142760380Y-91532095D01*
X142760380Y-91294000D01*
X142808000Y-91151142D01*
X142903238Y-91055904D01*
X142998476Y-91008285D01*
X143188952Y-90960666D01*
X143331809Y-90960666D01*
X143522285Y-91008285D01*
X143617523Y-91055904D01*
X143712761Y-91151142D01*
X143760380Y-91294000D01*
X143760380Y-91532095D01*
X143093714Y-90103523D02*
X143760380Y-90103523D01*
X142712761Y-90341619D02*
X143427047Y-90579714D01*
X143427047Y-89960666D01*
%TO.C,C10*%
X146107142Y-83912857D02*
X146154761Y-83960476D01*
X146202380Y-84103333D01*
X146202380Y-84198571D01*
X146154761Y-84341428D01*
X146059523Y-84436666D01*
X145964285Y-84484285D01*
X145773809Y-84531904D01*
X145630952Y-84531904D01*
X145440476Y-84484285D01*
X145345238Y-84436666D01*
X145250000Y-84341428D01*
X145202380Y-84198571D01*
X145202380Y-84103333D01*
X145250000Y-83960476D01*
X145297619Y-83912857D01*
X146202380Y-82960476D02*
X146202380Y-83531904D01*
X146202380Y-83246190D02*
X145202380Y-83246190D01*
X145345238Y-83341428D01*
X145440476Y-83436666D01*
X145488095Y-83531904D01*
X145202380Y-82341428D02*
X145202380Y-82246190D01*
X145250000Y-82150952D01*
X145297619Y-82103333D01*
X145392857Y-82055714D01*
X145583333Y-82008095D01*
X145821428Y-82008095D01*
X146011904Y-82055714D01*
X146107142Y-82103333D01*
X146154761Y-82150952D01*
X146202380Y-82246190D01*
X146202380Y-82341428D01*
X146154761Y-82436666D01*
X146107142Y-82484285D01*
X146011904Y-82531904D01*
X145821428Y-82579523D01*
X145583333Y-82579523D01*
X145392857Y-82531904D01*
X145297619Y-82484285D01*
X145250000Y-82436666D01*
X145202380Y-82341428D01*
%TO.C,H1*%
X130048095Y-77151380D02*
X130048095Y-76151380D01*
X130048095Y-76627571D02*
X130619523Y-76627571D01*
X130619523Y-77151380D02*
X130619523Y-76151380D01*
X131619523Y-77151380D02*
X131048095Y-77151380D01*
X131333809Y-77151380D02*
X131333809Y-76151380D01*
X131238571Y-76294238D01*
X131143333Y-76389476D01*
X131048095Y-76437095D01*
%TO.C,U2*%
X183319380Y-110456904D02*
X184128904Y-110456904D01*
X184224142Y-110409285D01*
X184271761Y-110361666D01*
X184319380Y-110266428D01*
X184319380Y-110075952D01*
X184271761Y-109980714D01*
X184224142Y-109933095D01*
X184128904Y-109885476D01*
X183319380Y-109885476D01*
X183414619Y-109456904D02*
X183367000Y-109409285D01*
X183319380Y-109314047D01*
X183319380Y-109075952D01*
X183367000Y-108980714D01*
X183414619Y-108933095D01*
X183509857Y-108885476D01*
X183605095Y-108885476D01*
X183747952Y-108933095D01*
X184319380Y-109504523D01*
X184319380Y-108885476D01*
%TO.C,J1*%
X171571666Y-121043380D02*
X171571666Y-121757666D01*
X171524047Y-121900523D01*
X171428809Y-121995761D01*
X171285952Y-122043380D01*
X171190714Y-122043380D01*
X172571666Y-122043380D02*
X172000238Y-122043380D01*
X172285952Y-122043380D02*
X172285952Y-121043380D01*
X172190714Y-121186238D01*
X172095476Y-121281476D01*
X172000238Y-121329095D01*
%TO.C,JP2*%
X182841380Y-101947333D02*
X183555666Y-101947333D01*
X183698523Y-101994952D01*
X183793761Y-102090190D01*
X183841380Y-102233047D01*
X183841380Y-102328285D01*
X183841380Y-101471142D02*
X182841380Y-101471142D01*
X182841380Y-101090190D01*
X182889000Y-100994952D01*
X182936619Y-100947333D01*
X183031857Y-100899714D01*
X183174714Y-100899714D01*
X183269952Y-100947333D01*
X183317571Y-100994952D01*
X183365190Y-101090190D01*
X183365190Y-101471142D01*
X182936619Y-100518761D02*
X182889000Y-100471142D01*
X182841380Y-100375904D01*
X182841380Y-100137809D01*
X182889000Y-100042571D01*
X182936619Y-99994952D01*
X183031857Y-99947333D01*
X183127095Y-99947333D01*
X183269952Y-99994952D01*
X183841380Y-100566380D01*
X183841380Y-99947333D01*
%TD*%
M02*
