%TF.GenerationSoftware,KiCad,Pcbnew,(5.1.12-1-10_14)*%
%TF.CreationDate,2023-02-08T21:42:28+01:00*%
%TF.ProjectId,SmartDisplay,536d6172-7444-4697-9370-6c61792e6b69,rev?*%
%TF.SameCoordinates,Original*%
%TF.FileFunction,Paste,Top*%
%TF.FilePolarity,Positive*%
%FSLAX46Y46*%
G04 Gerber Fmt 4.6, Leading zero omitted, Abs format (unit mm)*
G04 Created by KiCad (PCBNEW (5.1.12-1-10_14)) date 2023-02-08 21:42:28*
%MOMM*%
%LPD*%
G01*
G04 APERTURE LIST*
%ADD10R,1.200000X0.900000*%
%ADD11R,0.800000X0.900000*%
%ADD12R,1.000000X1.000000*%
%ADD13R,1.050000X2.200000*%
%ADD14R,1.143000X0.711200*%
%ADD15R,0.711200X1.143000*%
%ADD16R,1.220000X0.650000*%
%ADD17R,0.550000X1.600000*%
%ADD18R,1.600000X0.550000*%
%ADD19R,2.500000X2.300000*%
%ADD20R,1.100000X1.900000*%
%ADD21R,1.700000X1.300000*%
G04 APERTURE END LIST*
D10*
%TO.C,D6*%
X137500000Y-85620000D03*
X137500000Y-88920000D03*
%TD*%
%TO.C,D5*%
X136500000Y-102070000D03*
X136500000Y-98770000D03*
%TD*%
%TO.C,C11*%
G36*
G01*
X152650003Y-86207500D02*
X151349997Y-86207500D01*
G75*
G02*
X151100000Y-85957503I0J249997D01*
G01*
X151100000Y-85132497D01*
G75*
G02*
X151349997Y-84882500I249997J0D01*
G01*
X152650003Y-84882500D01*
G75*
G02*
X152900000Y-85132497I0J-249997D01*
G01*
X152900000Y-85957503D01*
G75*
G02*
X152650003Y-86207500I-249997J0D01*
G01*
G37*
G36*
G01*
X152650003Y-89332500D02*
X151349997Y-89332500D01*
G75*
G02*
X151100000Y-89082503I0J249997D01*
G01*
X151100000Y-88257497D01*
G75*
G02*
X151349997Y-88007500I249997J0D01*
G01*
X152650003Y-88007500D01*
G75*
G02*
X152900000Y-88257497I0J-249997D01*
G01*
X152900000Y-89082503D01*
G75*
G02*
X152650003Y-89332500I-249997J0D01*
G01*
G37*
%TD*%
D11*
%TO.C,D3*%
X157250000Y-100170000D03*
X156300000Y-98170000D03*
X158200000Y-98170000D03*
%TD*%
D12*
%TO.C,X1*%
X160025000Y-81170000D03*
X160025000Y-78170000D03*
D13*
X161500000Y-79670000D03*
X158550000Y-79670000D03*
%TD*%
D14*
%TO.C,U5*%
X172825000Y-78669999D03*
X172825000Y-79670000D03*
X172825000Y-80670000D03*
X172825000Y-81670001D03*
X172825000Y-82669999D03*
X172825000Y-83669999D03*
X172825000Y-84670000D03*
X172825000Y-85670001D03*
X172825000Y-86670001D03*
X172825000Y-87669999D03*
X172825000Y-88670000D03*
X172825000Y-89670000D03*
X172825000Y-90670001D03*
D15*
X170500001Y-91270002D03*
X169500001Y-91270002D03*
X168500000Y-91270002D03*
X167499999Y-91270002D03*
X166499999Y-91270002D03*
D14*
X164175000Y-90670001D03*
X164175000Y-89670000D03*
X164175000Y-88670000D03*
X164175000Y-87669999D03*
X164175000Y-86670001D03*
X164175000Y-85670001D03*
X164175000Y-84670000D03*
X164175000Y-83669999D03*
X164175000Y-82669999D03*
X164175000Y-81670001D03*
X164175000Y-80670000D03*
X164175000Y-79670000D03*
X164175000Y-78669999D03*
%TD*%
%TO.C,C15*%
G36*
G01*
X175475000Y-89007500D02*
X174525000Y-89007500D01*
G75*
G02*
X174275000Y-88757500I0J250000D01*
G01*
X174275000Y-88082500D01*
G75*
G02*
X174525000Y-87832500I250000J0D01*
G01*
X175475000Y-87832500D01*
G75*
G02*
X175725000Y-88082500I0J-250000D01*
G01*
X175725000Y-88757500D01*
G75*
G02*
X175475000Y-89007500I-250000J0D01*
G01*
G37*
G36*
G01*
X175475000Y-91082500D02*
X174525000Y-91082500D01*
G75*
G02*
X174275000Y-90832500I0J250000D01*
G01*
X174275000Y-90157500D01*
G75*
G02*
X174525000Y-89907500I250000J0D01*
G01*
X175475000Y-89907500D01*
G75*
G02*
X175725000Y-90157500I0J-250000D01*
G01*
X175725000Y-90832500D01*
G75*
G02*
X175475000Y-91082500I-250000J0D01*
G01*
G37*
%TD*%
D16*
%TO.C,U4*%
X132560000Y-94470000D03*
X132560000Y-95420000D03*
X132560000Y-96370000D03*
X129940000Y-96370000D03*
X129940000Y-95420000D03*
X129940000Y-94470000D03*
%TD*%
%TO.C,L1*%
G36*
G01*
X138131250Y-94232500D02*
X137368750Y-94232500D01*
G75*
G02*
X137150000Y-94013750I0J218750D01*
G01*
X137150000Y-93576250D01*
G75*
G02*
X137368750Y-93357500I218750J0D01*
G01*
X138131250Y-93357500D01*
G75*
G02*
X138350000Y-93576250I0J-218750D01*
G01*
X138350000Y-94013750D01*
G75*
G02*
X138131250Y-94232500I-218750J0D01*
G01*
G37*
G36*
G01*
X138131250Y-96357500D02*
X137368750Y-96357500D01*
G75*
G02*
X137150000Y-96138750I0J218750D01*
G01*
X137150000Y-95701250D01*
G75*
G02*
X137368750Y-95482500I218750J0D01*
G01*
X138131250Y-95482500D01*
G75*
G02*
X138350000Y-95701250I0J-218750D01*
G01*
X138350000Y-96138750D01*
G75*
G02*
X138131250Y-96357500I-218750J0D01*
G01*
G37*
%TD*%
%TO.C,C14*%
G36*
G01*
X131700000Y-105970000D02*
X131700000Y-104870000D01*
G75*
G02*
X131950000Y-104620000I250000J0D01*
G01*
X134050000Y-104620000D01*
G75*
G02*
X134300000Y-104870000I0J-250000D01*
G01*
X134300000Y-105970000D01*
G75*
G02*
X134050000Y-106220000I-250000J0D01*
G01*
X131950000Y-106220000D01*
G75*
G02*
X131700000Y-105970000I0J250000D01*
G01*
G37*
G36*
G01*
X128100000Y-105970000D02*
X128100000Y-104870000D01*
G75*
G02*
X128350000Y-104620000I250000J0D01*
G01*
X130450000Y-104620000D01*
G75*
G02*
X130700000Y-104870000I0J-250000D01*
G01*
X130700000Y-105970000D01*
G75*
G02*
X130450000Y-106220000I-250000J0D01*
G01*
X128350000Y-106220000D01*
G75*
G02*
X128100000Y-105970000I0J250000D01*
G01*
G37*
%TD*%
%TO.C,C13*%
G36*
G01*
X131700000Y-100720000D02*
X131700000Y-99620000D01*
G75*
G02*
X131950000Y-99370000I250000J0D01*
G01*
X134050000Y-99370000D01*
G75*
G02*
X134300000Y-99620000I0J-250000D01*
G01*
X134300000Y-100720000D01*
G75*
G02*
X134050000Y-100970000I-250000J0D01*
G01*
X131950000Y-100970000D01*
G75*
G02*
X131700000Y-100720000I0J250000D01*
G01*
G37*
G36*
G01*
X128100000Y-100720000D02*
X128100000Y-99620000D01*
G75*
G02*
X128350000Y-99370000I250000J0D01*
G01*
X130450000Y-99370000D01*
G75*
G02*
X130700000Y-99620000I0J-250000D01*
G01*
X130700000Y-100720000D01*
G75*
G02*
X130450000Y-100970000I-250000J0D01*
G01*
X128350000Y-100970000D01*
G75*
G02*
X128100000Y-100720000I0J250000D01*
G01*
G37*
%TD*%
%TO.C,C4*%
G36*
G01*
X135975000Y-94257500D02*
X135025000Y-94257500D01*
G75*
G02*
X134775000Y-94007500I0J250000D01*
G01*
X134775000Y-93332500D01*
G75*
G02*
X135025000Y-93082500I250000J0D01*
G01*
X135975000Y-93082500D01*
G75*
G02*
X136225000Y-93332500I0J-250000D01*
G01*
X136225000Y-94007500D01*
G75*
G02*
X135975000Y-94257500I-250000J0D01*
G01*
G37*
G36*
G01*
X135975000Y-96332500D02*
X135025000Y-96332500D01*
G75*
G02*
X134775000Y-96082500I0J250000D01*
G01*
X134775000Y-95407500D01*
G75*
G02*
X135025000Y-95157500I250000J0D01*
G01*
X135975000Y-95157500D01*
G75*
G02*
X136225000Y-95407500I0J-250000D01*
G01*
X136225000Y-96082500D01*
G75*
G02*
X135975000Y-96332500I-250000J0D01*
G01*
G37*
%TD*%
%TO.C,C3*%
G36*
G01*
X132050000Y-91470000D02*
X132050000Y-90370000D01*
G75*
G02*
X132300000Y-90120000I250000J0D01*
G01*
X134400000Y-90120000D01*
G75*
G02*
X134650000Y-90370000I0J-250000D01*
G01*
X134650000Y-91470000D01*
G75*
G02*
X134400000Y-91720000I-250000J0D01*
G01*
X132300000Y-91720000D01*
G75*
G02*
X132050000Y-91470000I0J250000D01*
G01*
G37*
G36*
G01*
X128450000Y-91470000D02*
X128450000Y-90370000D01*
G75*
G02*
X128700000Y-90120000I250000J0D01*
G01*
X130800000Y-90120000D01*
G75*
G02*
X131050000Y-90370000I0J-250000D01*
G01*
X131050000Y-91470000D01*
G75*
G02*
X130800000Y-91720000I-250000J0D01*
G01*
X128700000Y-91720000D01*
G75*
G02*
X128450000Y-91470000I0J250000D01*
G01*
G37*
%TD*%
%TO.C,F1*%
G36*
G01*
X132537500Y-87245000D02*
X132537500Y-85095000D01*
G75*
G02*
X132787500Y-84845000I250000J0D01*
G01*
X133712500Y-84845000D01*
G75*
G02*
X133962500Y-85095000I0J-250000D01*
G01*
X133962500Y-87245000D01*
G75*
G02*
X133712500Y-87495000I-250000J0D01*
G01*
X132787500Y-87495000D01*
G75*
G02*
X132537500Y-87245000I0J250000D01*
G01*
G37*
G36*
G01*
X129562500Y-87245000D02*
X129562500Y-85095000D01*
G75*
G02*
X129812500Y-84845000I250000J0D01*
G01*
X130737500Y-84845000D01*
G75*
G02*
X130987500Y-85095000I0J-250000D01*
G01*
X130987500Y-87245000D01*
G75*
G02*
X130737500Y-87495000I-250000J0D01*
G01*
X129812500Y-87495000D01*
G75*
G02*
X129562500Y-87245000I0J250000D01*
G01*
G37*
%TD*%
%TO.C,U3*%
G36*
G01*
X165375000Y-105330000D02*
X165375000Y-105630000D01*
G75*
G02*
X165225000Y-105780000I-150000J0D01*
G01*
X163475000Y-105780000D01*
G75*
G02*
X163325000Y-105630000I0J150000D01*
G01*
X163325000Y-105330000D01*
G75*
G02*
X163475000Y-105180000I150000J0D01*
G01*
X165225000Y-105180000D01*
G75*
G02*
X165375000Y-105330000I0J-150000D01*
G01*
G37*
G36*
G01*
X165375000Y-104060000D02*
X165375000Y-104360000D01*
G75*
G02*
X165225000Y-104510000I-150000J0D01*
G01*
X163475000Y-104510000D01*
G75*
G02*
X163325000Y-104360000I0J150000D01*
G01*
X163325000Y-104060000D01*
G75*
G02*
X163475000Y-103910000I150000J0D01*
G01*
X165225000Y-103910000D01*
G75*
G02*
X165375000Y-104060000I0J-150000D01*
G01*
G37*
G36*
G01*
X165375000Y-102790000D02*
X165375000Y-103090000D01*
G75*
G02*
X165225000Y-103240000I-150000J0D01*
G01*
X163475000Y-103240000D01*
G75*
G02*
X163325000Y-103090000I0J150000D01*
G01*
X163325000Y-102790000D01*
G75*
G02*
X163475000Y-102640000I150000J0D01*
G01*
X165225000Y-102640000D01*
G75*
G02*
X165375000Y-102790000I0J-150000D01*
G01*
G37*
G36*
G01*
X165375000Y-101520000D02*
X165375000Y-101820000D01*
G75*
G02*
X165225000Y-101970000I-150000J0D01*
G01*
X163475000Y-101970000D01*
G75*
G02*
X163325000Y-101820000I0J150000D01*
G01*
X163325000Y-101520000D01*
G75*
G02*
X163475000Y-101370000I150000J0D01*
G01*
X165225000Y-101370000D01*
G75*
G02*
X165375000Y-101520000I0J-150000D01*
G01*
G37*
G36*
G01*
X165375000Y-100250000D02*
X165375000Y-100550000D01*
G75*
G02*
X165225000Y-100700000I-150000J0D01*
G01*
X163475000Y-100700000D01*
G75*
G02*
X163325000Y-100550000I0J150000D01*
G01*
X163325000Y-100250000D01*
G75*
G02*
X163475000Y-100100000I150000J0D01*
G01*
X165225000Y-100100000D01*
G75*
G02*
X165375000Y-100250000I0J-150000D01*
G01*
G37*
G36*
G01*
X165375000Y-98980000D02*
X165375000Y-99280000D01*
G75*
G02*
X165225000Y-99430000I-150000J0D01*
G01*
X163475000Y-99430000D01*
G75*
G02*
X163325000Y-99280000I0J150000D01*
G01*
X163325000Y-98980000D01*
G75*
G02*
X163475000Y-98830000I150000J0D01*
G01*
X165225000Y-98830000D01*
G75*
G02*
X165375000Y-98980000I0J-150000D01*
G01*
G37*
G36*
G01*
X165375000Y-97710000D02*
X165375000Y-98010000D01*
G75*
G02*
X165225000Y-98160000I-150000J0D01*
G01*
X163475000Y-98160000D01*
G75*
G02*
X163325000Y-98010000I0J150000D01*
G01*
X163325000Y-97710000D01*
G75*
G02*
X163475000Y-97560000I150000J0D01*
G01*
X165225000Y-97560000D01*
G75*
G02*
X165375000Y-97710000I0J-150000D01*
G01*
G37*
G36*
G01*
X165375000Y-96440000D02*
X165375000Y-96740000D01*
G75*
G02*
X165225000Y-96890000I-150000J0D01*
G01*
X163475000Y-96890000D01*
G75*
G02*
X163325000Y-96740000I0J150000D01*
G01*
X163325000Y-96440000D01*
G75*
G02*
X163475000Y-96290000I150000J0D01*
G01*
X165225000Y-96290000D01*
G75*
G02*
X165375000Y-96440000I0J-150000D01*
G01*
G37*
G36*
G01*
X165375000Y-95170000D02*
X165375000Y-95470000D01*
G75*
G02*
X165225000Y-95620000I-150000J0D01*
G01*
X163475000Y-95620000D01*
G75*
G02*
X163325000Y-95470000I0J150000D01*
G01*
X163325000Y-95170000D01*
G75*
G02*
X163475000Y-95020000I150000J0D01*
G01*
X165225000Y-95020000D01*
G75*
G02*
X165375000Y-95170000I0J-150000D01*
G01*
G37*
G36*
G01*
X174675000Y-95170000D02*
X174675000Y-95470000D01*
G75*
G02*
X174525000Y-95620000I-150000J0D01*
G01*
X172775000Y-95620000D01*
G75*
G02*
X172625000Y-95470000I0J150000D01*
G01*
X172625000Y-95170000D01*
G75*
G02*
X172775000Y-95020000I150000J0D01*
G01*
X174525000Y-95020000D01*
G75*
G02*
X174675000Y-95170000I0J-150000D01*
G01*
G37*
G36*
G01*
X174675000Y-96440000D02*
X174675000Y-96740000D01*
G75*
G02*
X174525000Y-96890000I-150000J0D01*
G01*
X172775000Y-96890000D01*
G75*
G02*
X172625000Y-96740000I0J150000D01*
G01*
X172625000Y-96440000D01*
G75*
G02*
X172775000Y-96290000I150000J0D01*
G01*
X174525000Y-96290000D01*
G75*
G02*
X174675000Y-96440000I0J-150000D01*
G01*
G37*
G36*
G01*
X174675000Y-97710000D02*
X174675000Y-98010000D01*
G75*
G02*
X174525000Y-98160000I-150000J0D01*
G01*
X172775000Y-98160000D01*
G75*
G02*
X172625000Y-98010000I0J150000D01*
G01*
X172625000Y-97710000D01*
G75*
G02*
X172775000Y-97560000I150000J0D01*
G01*
X174525000Y-97560000D01*
G75*
G02*
X174675000Y-97710000I0J-150000D01*
G01*
G37*
G36*
G01*
X174675000Y-98980000D02*
X174675000Y-99280000D01*
G75*
G02*
X174525000Y-99430000I-150000J0D01*
G01*
X172775000Y-99430000D01*
G75*
G02*
X172625000Y-99280000I0J150000D01*
G01*
X172625000Y-98980000D01*
G75*
G02*
X172775000Y-98830000I150000J0D01*
G01*
X174525000Y-98830000D01*
G75*
G02*
X174675000Y-98980000I0J-150000D01*
G01*
G37*
G36*
G01*
X174675000Y-100250000D02*
X174675000Y-100550000D01*
G75*
G02*
X174525000Y-100700000I-150000J0D01*
G01*
X172775000Y-100700000D01*
G75*
G02*
X172625000Y-100550000I0J150000D01*
G01*
X172625000Y-100250000D01*
G75*
G02*
X172775000Y-100100000I150000J0D01*
G01*
X174525000Y-100100000D01*
G75*
G02*
X174675000Y-100250000I0J-150000D01*
G01*
G37*
G36*
G01*
X174675000Y-101520000D02*
X174675000Y-101820000D01*
G75*
G02*
X174525000Y-101970000I-150000J0D01*
G01*
X172775000Y-101970000D01*
G75*
G02*
X172625000Y-101820000I0J150000D01*
G01*
X172625000Y-101520000D01*
G75*
G02*
X172775000Y-101370000I150000J0D01*
G01*
X174525000Y-101370000D01*
G75*
G02*
X174675000Y-101520000I0J-150000D01*
G01*
G37*
G36*
G01*
X174675000Y-102790000D02*
X174675000Y-103090000D01*
G75*
G02*
X174525000Y-103240000I-150000J0D01*
G01*
X172775000Y-103240000D01*
G75*
G02*
X172625000Y-103090000I0J150000D01*
G01*
X172625000Y-102790000D01*
G75*
G02*
X172775000Y-102640000I150000J0D01*
G01*
X174525000Y-102640000D01*
G75*
G02*
X174675000Y-102790000I0J-150000D01*
G01*
G37*
G36*
G01*
X174675000Y-104060000D02*
X174675000Y-104360000D01*
G75*
G02*
X174525000Y-104510000I-150000J0D01*
G01*
X172775000Y-104510000D01*
G75*
G02*
X172625000Y-104360000I0J150000D01*
G01*
X172625000Y-104060000D01*
G75*
G02*
X172775000Y-103910000I150000J0D01*
G01*
X174525000Y-103910000D01*
G75*
G02*
X174675000Y-104060000I0J-150000D01*
G01*
G37*
G36*
G01*
X174675000Y-105330000D02*
X174675000Y-105630000D01*
G75*
G02*
X174525000Y-105780000I-150000J0D01*
G01*
X172775000Y-105780000D01*
G75*
G02*
X172625000Y-105630000I0J150000D01*
G01*
X172625000Y-105330000D01*
G75*
G02*
X172775000Y-105180000I150000J0D01*
G01*
X174525000Y-105180000D01*
G75*
G02*
X174675000Y-105330000I0J-150000D01*
G01*
G37*
%TD*%
%TO.C,R8*%
G36*
G01*
X160150000Y-107120001D02*
X160150000Y-106219999D01*
G75*
G02*
X160399999Y-105970000I249999J0D01*
G01*
X161100001Y-105970000D01*
G75*
G02*
X161350000Y-106219999I0J-249999D01*
G01*
X161350000Y-107120001D01*
G75*
G02*
X161100001Y-107370000I-249999J0D01*
G01*
X160399999Y-107370000D01*
G75*
G02*
X160150000Y-107120001I0J249999D01*
G01*
G37*
G36*
G01*
X158150000Y-107120001D02*
X158150000Y-106219999D01*
G75*
G02*
X158399999Y-105970000I249999J0D01*
G01*
X159100001Y-105970000D01*
G75*
G02*
X159350000Y-106219999I0J-249999D01*
G01*
X159350000Y-107120001D01*
G75*
G02*
X159100001Y-107370000I-249999J0D01*
G01*
X158399999Y-107370000D01*
G75*
G02*
X158150000Y-107120001I0J249999D01*
G01*
G37*
%TD*%
%TO.C,R7*%
G36*
G01*
X148700001Y-86020000D02*
X147799999Y-86020000D01*
G75*
G02*
X147550000Y-85770001I0J249999D01*
G01*
X147550000Y-85069999D01*
G75*
G02*
X147799999Y-84820000I249999J0D01*
G01*
X148700001Y-84820000D01*
G75*
G02*
X148950000Y-85069999I0J-249999D01*
G01*
X148950000Y-85770001D01*
G75*
G02*
X148700001Y-86020000I-249999J0D01*
G01*
G37*
G36*
G01*
X148700001Y-88020000D02*
X147799999Y-88020000D01*
G75*
G02*
X147550000Y-87770001I0J249999D01*
G01*
X147550000Y-87069999D01*
G75*
G02*
X147799999Y-86820000I249999J0D01*
G01*
X148700001Y-86820000D01*
G75*
G02*
X148950000Y-87069999I0J-249999D01*
G01*
X148950000Y-87770001D01*
G75*
G02*
X148700001Y-88020000I-249999J0D01*
G01*
G37*
%TD*%
%TO.C,R6*%
G36*
G01*
X141200001Y-86020000D02*
X140299999Y-86020000D01*
G75*
G02*
X140050000Y-85770001I0J249999D01*
G01*
X140050000Y-85069999D01*
G75*
G02*
X140299999Y-84820000I249999J0D01*
G01*
X141200001Y-84820000D01*
G75*
G02*
X141450000Y-85069999I0J-249999D01*
G01*
X141450000Y-85770001D01*
G75*
G02*
X141200001Y-86020000I-249999J0D01*
G01*
G37*
G36*
G01*
X141200001Y-88020000D02*
X140299999Y-88020000D01*
G75*
G02*
X140050000Y-87770001I0J249999D01*
G01*
X140050000Y-87069999D01*
G75*
G02*
X140299999Y-86820000I249999J0D01*
G01*
X141200001Y-86820000D01*
G75*
G02*
X141450000Y-87069999I0J-249999D01*
G01*
X141450000Y-87770001D01*
G75*
G02*
X141200001Y-88020000I-249999J0D01*
G01*
G37*
%TD*%
%TO.C,R5*%
G36*
G01*
X155549999Y-87070000D02*
X156450001Y-87070000D01*
G75*
G02*
X156700000Y-87319999I0J-249999D01*
G01*
X156700000Y-88020001D01*
G75*
G02*
X156450001Y-88270000I-249999J0D01*
G01*
X155549999Y-88270000D01*
G75*
G02*
X155300000Y-88020001I0J249999D01*
G01*
X155300000Y-87319999D01*
G75*
G02*
X155549999Y-87070000I249999J0D01*
G01*
G37*
G36*
G01*
X155549999Y-85070000D02*
X156450001Y-85070000D01*
G75*
G02*
X156700000Y-85319999I0J-249999D01*
G01*
X156700000Y-86020001D01*
G75*
G02*
X156450001Y-86270000I-249999J0D01*
G01*
X155549999Y-86270000D01*
G75*
G02*
X155300000Y-86020001I0J249999D01*
G01*
X155300000Y-85319999D01*
G75*
G02*
X155549999Y-85070000I249999J0D01*
G01*
G37*
%TD*%
%TO.C,R4*%
G36*
G01*
X157549999Y-87070000D02*
X158450001Y-87070000D01*
G75*
G02*
X158700000Y-87319999I0J-249999D01*
G01*
X158700000Y-88020001D01*
G75*
G02*
X158450001Y-88270000I-249999J0D01*
G01*
X157549999Y-88270000D01*
G75*
G02*
X157300000Y-88020001I0J249999D01*
G01*
X157300000Y-87319999D01*
G75*
G02*
X157549999Y-87070000I249999J0D01*
G01*
G37*
G36*
G01*
X157549999Y-85070000D02*
X158450001Y-85070000D01*
G75*
G02*
X158700000Y-85319999I0J-249999D01*
G01*
X158700000Y-86020001D01*
G75*
G02*
X158450001Y-86270000I-249999J0D01*
G01*
X157549999Y-86270000D01*
G75*
G02*
X157300000Y-86020001I0J249999D01*
G01*
X157300000Y-85319999D01*
G75*
G02*
X157549999Y-85070000I249999J0D01*
G01*
G37*
%TD*%
%TO.C,R3*%
G36*
G01*
X160150000Y-103120001D02*
X160150000Y-102219999D01*
G75*
G02*
X160399999Y-101970000I249999J0D01*
G01*
X161100001Y-101970000D01*
G75*
G02*
X161350000Y-102219999I0J-249999D01*
G01*
X161350000Y-103120001D01*
G75*
G02*
X161100001Y-103370000I-249999J0D01*
G01*
X160399999Y-103370000D01*
G75*
G02*
X160150000Y-103120001I0J249999D01*
G01*
G37*
G36*
G01*
X158150000Y-103120001D02*
X158150000Y-102219999D01*
G75*
G02*
X158399999Y-101970000I249999J0D01*
G01*
X159100001Y-101970000D01*
G75*
G02*
X159350000Y-102219999I0J-249999D01*
G01*
X159350000Y-103120001D01*
G75*
G02*
X159100001Y-103370000I-249999J0D01*
G01*
X158399999Y-103370000D01*
G75*
G02*
X158150000Y-103120001I0J249999D01*
G01*
G37*
%TD*%
%TO.C,R2*%
G36*
G01*
X182950001Y-100020000D02*
X182049999Y-100020000D01*
G75*
G02*
X181800000Y-99770001I0J249999D01*
G01*
X181800000Y-99069999D01*
G75*
G02*
X182049999Y-98820000I249999J0D01*
G01*
X182950001Y-98820000D01*
G75*
G02*
X183200000Y-99069999I0J-249999D01*
G01*
X183200000Y-99770001D01*
G75*
G02*
X182950001Y-100020000I-249999J0D01*
G01*
G37*
G36*
G01*
X182950001Y-102020000D02*
X182049999Y-102020000D01*
G75*
G02*
X181800000Y-101770001I0J249999D01*
G01*
X181800000Y-101069999D01*
G75*
G02*
X182049999Y-100820000I249999J0D01*
G01*
X182950001Y-100820000D01*
G75*
G02*
X183200000Y-101069999I0J-249999D01*
G01*
X183200000Y-101770001D01*
G75*
G02*
X182950001Y-102020000I-249999J0D01*
G01*
G37*
%TD*%
%TO.C,C12*%
G36*
G01*
X176975000Y-83257500D02*
X176025000Y-83257500D01*
G75*
G02*
X175775000Y-83007500I0J250000D01*
G01*
X175775000Y-82332500D01*
G75*
G02*
X176025000Y-82082500I250000J0D01*
G01*
X176975000Y-82082500D01*
G75*
G02*
X177225000Y-82332500I0J-250000D01*
G01*
X177225000Y-83007500D01*
G75*
G02*
X176975000Y-83257500I-250000J0D01*
G01*
G37*
G36*
G01*
X176975000Y-85332500D02*
X176025000Y-85332500D01*
G75*
G02*
X175775000Y-85082500I0J250000D01*
G01*
X175775000Y-84407500D01*
G75*
G02*
X176025000Y-84157500I250000J0D01*
G01*
X176975000Y-84157500D01*
G75*
G02*
X177225000Y-84407500I0J-250000D01*
G01*
X177225000Y-85082500D01*
G75*
G02*
X176975000Y-85332500I-250000J0D01*
G01*
G37*
%TD*%
%TO.C,C9*%
G36*
G01*
X160475000Y-86257500D02*
X159525000Y-86257500D01*
G75*
G02*
X159275000Y-86007500I0J250000D01*
G01*
X159275000Y-85332500D01*
G75*
G02*
X159525000Y-85082500I250000J0D01*
G01*
X160475000Y-85082500D01*
G75*
G02*
X160725000Y-85332500I0J-250000D01*
G01*
X160725000Y-86007500D01*
G75*
G02*
X160475000Y-86257500I-250000J0D01*
G01*
G37*
G36*
G01*
X160475000Y-88332500D02*
X159525000Y-88332500D01*
G75*
G02*
X159275000Y-88082500I0J250000D01*
G01*
X159275000Y-87407500D01*
G75*
G02*
X159525000Y-87157500I250000J0D01*
G01*
X160475000Y-87157500D01*
G75*
G02*
X160725000Y-87407500I0J-250000D01*
G01*
X160725000Y-88082500D01*
G75*
G02*
X160475000Y-88332500I-250000J0D01*
G01*
G37*
%TD*%
%TO.C,C8*%
G36*
G01*
X177012500Y-102945000D02*
X177012500Y-103895000D01*
G75*
G02*
X176762500Y-104145000I-250000J0D01*
G01*
X176087500Y-104145000D01*
G75*
G02*
X175837500Y-103895000I0J250000D01*
G01*
X175837500Y-102945000D01*
G75*
G02*
X176087500Y-102695000I250000J0D01*
G01*
X176762500Y-102695000D01*
G75*
G02*
X177012500Y-102945000I0J-250000D01*
G01*
G37*
G36*
G01*
X179087500Y-102945000D02*
X179087500Y-103895000D01*
G75*
G02*
X178837500Y-104145000I-250000J0D01*
G01*
X178162500Y-104145000D01*
G75*
G02*
X177912500Y-103895000I0J250000D01*
G01*
X177912500Y-102945000D01*
G75*
G02*
X178162500Y-102695000I250000J0D01*
G01*
X178837500Y-102695000D01*
G75*
G02*
X179087500Y-102945000I0J-250000D01*
G01*
G37*
%TD*%
%TO.C,C7*%
G36*
G01*
X177912500Y-95145000D02*
X177912500Y-94195000D01*
G75*
G02*
X178162500Y-93945000I250000J0D01*
G01*
X178837500Y-93945000D01*
G75*
G02*
X179087500Y-94195000I0J-250000D01*
G01*
X179087500Y-95145000D01*
G75*
G02*
X178837500Y-95395000I-250000J0D01*
G01*
X178162500Y-95395000D01*
G75*
G02*
X177912500Y-95145000I0J250000D01*
G01*
G37*
G36*
G01*
X175837500Y-95145000D02*
X175837500Y-94195000D01*
G75*
G02*
X176087500Y-93945000I250000J0D01*
G01*
X176762500Y-93945000D01*
G75*
G02*
X177012500Y-94195000I0J-250000D01*
G01*
X177012500Y-95145000D01*
G75*
G02*
X176762500Y-95395000I-250000J0D01*
G01*
X176087500Y-95395000D01*
G75*
G02*
X175837500Y-95145000I0J250000D01*
G01*
G37*
%TD*%
%TO.C,C6*%
G36*
G01*
X147725000Y-93932500D02*
X146775000Y-93932500D01*
G75*
G02*
X146525000Y-93682500I0J250000D01*
G01*
X146525000Y-93007500D01*
G75*
G02*
X146775000Y-92757500I250000J0D01*
G01*
X147725000Y-92757500D01*
G75*
G02*
X147975000Y-93007500I0J-250000D01*
G01*
X147975000Y-93682500D01*
G75*
G02*
X147725000Y-93932500I-250000J0D01*
G01*
G37*
G36*
G01*
X147725000Y-96007500D02*
X146775000Y-96007500D01*
G75*
G02*
X146525000Y-95757500I0J250000D01*
G01*
X146525000Y-95082500D01*
G75*
G02*
X146775000Y-94832500I250000J0D01*
G01*
X147725000Y-94832500D01*
G75*
G02*
X147975000Y-95082500I0J-250000D01*
G01*
X147975000Y-95757500D01*
G75*
G02*
X147725000Y-96007500I-250000J0D01*
G01*
G37*
%TD*%
%TO.C,C5*%
G36*
G01*
X175987500Y-110895000D02*
X175987500Y-109945000D01*
G75*
G02*
X176237500Y-109695000I250000J0D01*
G01*
X176912500Y-109695000D01*
G75*
G02*
X177162500Y-109945000I0J-250000D01*
G01*
X177162500Y-110895000D01*
G75*
G02*
X176912500Y-111145000I-250000J0D01*
G01*
X176237500Y-111145000D01*
G75*
G02*
X175987500Y-110895000I0J250000D01*
G01*
G37*
G36*
G01*
X173912500Y-110895000D02*
X173912500Y-109945000D01*
G75*
G02*
X174162500Y-109695000I250000J0D01*
G01*
X174837500Y-109695000D01*
G75*
G02*
X175087500Y-109945000I0J-250000D01*
G01*
X175087500Y-110895000D01*
G75*
G02*
X174837500Y-111145000I-250000J0D01*
G01*
X174162500Y-111145000D01*
G75*
G02*
X173912500Y-110895000I0J250000D01*
G01*
G37*
%TD*%
%TO.C,C2*%
G36*
G01*
X154987500Y-104645000D02*
X154987500Y-103695000D01*
G75*
G02*
X155237500Y-103445000I250000J0D01*
G01*
X155912500Y-103445000D01*
G75*
G02*
X156162500Y-103695000I0J-250000D01*
G01*
X156162500Y-104645000D01*
G75*
G02*
X155912500Y-104895000I-250000J0D01*
G01*
X155237500Y-104895000D01*
G75*
G02*
X154987500Y-104645000I0J250000D01*
G01*
G37*
G36*
G01*
X152912500Y-104645000D02*
X152912500Y-103695000D01*
G75*
G02*
X153162500Y-103445000I250000J0D01*
G01*
X153837500Y-103445000D01*
G75*
G02*
X154087500Y-103695000I0J-250000D01*
G01*
X154087500Y-104645000D01*
G75*
G02*
X153837500Y-104895000I-250000J0D01*
G01*
X153162500Y-104895000D01*
G75*
G02*
X152912500Y-104645000I0J250000D01*
G01*
G37*
%TD*%
%TO.C,C1*%
G36*
G01*
X160237500Y-105145000D02*
X160237500Y-104195000D01*
G75*
G02*
X160487500Y-103945000I250000J0D01*
G01*
X161162500Y-103945000D01*
G75*
G02*
X161412500Y-104195000I0J-250000D01*
G01*
X161412500Y-105145000D01*
G75*
G02*
X161162500Y-105395000I-250000J0D01*
G01*
X160487500Y-105395000D01*
G75*
G02*
X160237500Y-105145000I0J250000D01*
G01*
G37*
G36*
G01*
X158162500Y-105145000D02*
X158162500Y-104195000D01*
G75*
G02*
X158412500Y-103945000I250000J0D01*
G01*
X159087500Y-103945000D01*
G75*
G02*
X159337500Y-104195000I0J-250000D01*
G01*
X159337500Y-105145000D01*
G75*
G02*
X159087500Y-105395000I-250000J0D01*
G01*
X158412500Y-105395000D01*
G75*
G02*
X158162500Y-105145000I0J250000D01*
G01*
G37*
%TD*%
D17*
%TO.C,U1*%
X143950000Y-97920000D03*
X144750000Y-97920000D03*
X145550000Y-97920000D03*
X146350000Y-97920000D03*
X147150000Y-97920000D03*
X147950000Y-97920000D03*
X148750000Y-97920000D03*
X149550000Y-97920000D03*
D18*
X151000000Y-99370000D03*
X151000000Y-100170000D03*
X151000000Y-100970000D03*
X151000000Y-101770000D03*
X151000000Y-102570000D03*
X151000000Y-103370000D03*
X151000000Y-104170000D03*
X151000000Y-104970000D03*
D17*
X149550000Y-106420000D03*
X148750000Y-106420000D03*
X147950000Y-106420000D03*
X147150000Y-106420000D03*
X146350000Y-106420000D03*
X145550000Y-106420000D03*
X144750000Y-106420000D03*
X143950000Y-106420000D03*
D18*
X142500000Y-104970000D03*
X142500000Y-104170000D03*
X142500000Y-103370000D03*
X142500000Y-102570000D03*
X142500000Y-101770000D03*
X142500000Y-100970000D03*
X142500000Y-100170000D03*
X142500000Y-99370000D03*
%TD*%
D19*
%TO.C,D2*%
X166642000Y-109220000D03*
X170942000Y-109220000D03*
%TD*%
D12*
%TO.C,D1*%
X176500000Y-80920000D03*
X176500000Y-78420000D03*
%TD*%
D20*
%TO.C,Y2*%
X178550000Y-97220000D03*
X178550000Y-100920000D03*
X176250000Y-100920000D03*
X176250000Y-97220000D03*
%TD*%
D21*
%TO.C,D4*%
X143250000Y-85420000D03*
X143250000Y-88920000D03*
%TD*%
%TO.C,C10*%
G36*
G01*
X146200001Y-85995000D02*
X145299999Y-85995000D01*
G75*
G02*
X145050000Y-85745001I0J249999D01*
G01*
X145050000Y-85094999D01*
G75*
G02*
X145299999Y-84845000I249999J0D01*
G01*
X146200001Y-84845000D01*
G75*
G02*
X146450000Y-85094999I0J-249999D01*
G01*
X146450000Y-85745001D01*
G75*
G02*
X146200001Y-85995000I-249999J0D01*
G01*
G37*
G36*
G01*
X146200001Y-88045000D02*
X145299999Y-88045000D01*
G75*
G02*
X145050000Y-87795001I0J249999D01*
G01*
X145050000Y-87144999D01*
G75*
G02*
X145299999Y-86895000I249999J0D01*
G01*
X146200001Y-86895000D01*
G75*
G02*
X146450000Y-87144999I0J-249999D01*
G01*
X146450000Y-87795001D01*
G75*
G02*
X146200001Y-88045000I-249999J0D01*
G01*
G37*
%TD*%
%TO.C,U2*%
G36*
G01*
X182222000Y-111195000D02*
X182522000Y-111195000D01*
G75*
G02*
X182672000Y-111345000I0J-150000D01*
G01*
X182672000Y-112995000D01*
G75*
G02*
X182522000Y-113145000I-150000J0D01*
G01*
X182222000Y-113145000D01*
G75*
G02*
X182072000Y-112995000I0J150000D01*
G01*
X182072000Y-111345000D01*
G75*
G02*
X182222000Y-111195000I150000J0D01*
G01*
G37*
G36*
G01*
X180952000Y-111195000D02*
X181252000Y-111195000D01*
G75*
G02*
X181402000Y-111345000I0J-150000D01*
G01*
X181402000Y-112995000D01*
G75*
G02*
X181252000Y-113145000I-150000J0D01*
G01*
X180952000Y-113145000D01*
G75*
G02*
X180802000Y-112995000I0J150000D01*
G01*
X180802000Y-111345000D01*
G75*
G02*
X180952000Y-111195000I150000J0D01*
G01*
G37*
G36*
G01*
X179682000Y-111195000D02*
X179982000Y-111195000D01*
G75*
G02*
X180132000Y-111345000I0J-150000D01*
G01*
X180132000Y-112995000D01*
G75*
G02*
X179982000Y-113145000I-150000J0D01*
G01*
X179682000Y-113145000D01*
G75*
G02*
X179532000Y-112995000I0J150000D01*
G01*
X179532000Y-111345000D01*
G75*
G02*
X179682000Y-111195000I150000J0D01*
G01*
G37*
G36*
G01*
X178412000Y-111195000D02*
X178712000Y-111195000D01*
G75*
G02*
X178862000Y-111345000I0J-150000D01*
G01*
X178862000Y-112995000D01*
G75*
G02*
X178712000Y-113145000I-150000J0D01*
G01*
X178412000Y-113145000D01*
G75*
G02*
X178262000Y-112995000I0J150000D01*
G01*
X178262000Y-111345000D01*
G75*
G02*
X178412000Y-111195000I150000J0D01*
G01*
G37*
G36*
G01*
X178412000Y-106245000D02*
X178712000Y-106245000D01*
G75*
G02*
X178862000Y-106395000I0J-150000D01*
G01*
X178862000Y-108045000D01*
G75*
G02*
X178712000Y-108195000I-150000J0D01*
G01*
X178412000Y-108195000D01*
G75*
G02*
X178262000Y-108045000I0J150000D01*
G01*
X178262000Y-106395000D01*
G75*
G02*
X178412000Y-106245000I150000J0D01*
G01*
G37*
G36*
G01*
X179682000Y-106245000D02*
X179982000Y-106245000D01*
G75*
G02*
X180132000Y-106395000I0J-150000D01*
G01*
X180132000Y-108045000D01*
G75*
G02*
X179982000Y-108195000I-150000J0D01*
G01*
X179682000Y-108195000D01*
G75*
G02*
X179532000Y-108045000I0J150000D01*
G01*
X179532000Y-106395000D01*
G75*
G02*
X179682000Y-106245000I150000J0D01*
G01*
G37*
G36*
G01*
X180952000Y-106245000D02*
X181252000Y-106245000D01*
G75*
G02*
X181402000Y-106395000I0J-150000D01*
G01*
X181402000Y-108045000D01*
G75*
G02*
X181252000Y-108195000I-150000J0D01*
G01*
X180952000Y-108195000D01*
G75*
G02*
X180802000Y-108045000I0J150000D01*
G01*
X180802000Y-106395000D01*
G75*
G02*
X180952000Y-106245000I150000J0D01*
G01*
G37*
G36*
G01*
X182222000Y-106245000D02*
X182522000Y-106245000D01*
G75*
G02*
X182672000Y-106395000I0J-150000D01*
G01*
X182672000Y-108045000D01*
G75*
G02*
X182522000Y-108195000I-150000J0D01*
G01*
X182222000Y-108195000D01*
G75*
G02*
X182072000Y-108045000I0J150000D01*
G01*
X182072000Y-106395000D01*
G75*
G02*
X182222000Y-106245000I150000J0D01*
G01*
G37*
%TD*%
M02*
