%TF.GenerationSoftware,KiCad,Pcbnew,7.0.1-0*%
%TF.CreationDate,2023-04-11T20:51:41+02:00*%
%TF.ProjectId,SmartDisplay,536d6172-7444-4697-9370-6c61792e6b69,rev?*%
%TF.SameCoordinates,Original*%
%TF.FileFunction,Legend,Top*%
%TF.FilePolarity,Positive*%
%FSLAX46Y46*%
G04 Gerber Fmt 4.6, Leading zero omitted, Abs format (unit mm)*
G04 Created by KiCad (PCBNEW 7.0.1-0) date 2023-04-11 20:51:41*
%MOMM*%
%LPD*%
G01*
G04 APERTURE LIST*
%ADD10C,0.150000*%
%ADD11C,0.120000*%
%ADD12C,0.100000*%
G04 APERTURE END LIST*
D10*
%TO.C,C30*%
X235687380Y-90100357D02*
X235735000Y-90147976D01*
X235735000Y-90147976D02*
X235782619Y-90290833D01*
X235782619Y-90290833D02*
X235782619Y-90386071D01*
X235782619Y-90386071D02*
X235735000Y-90528928D01*
X235735000Y-90528928D02*
X235639761Y-90624166D01*
X235639761Y-90624166D02*
X235544523Y-90671785D01*
X235544523Y-90671785D02*
X235354047Y-90719404D01*
X235354047Y-90719404D02*
X235211190Y-90719404D01*
X235211190Y-90719404D02*
X235020714Y-90671785D01*
X235020714Y-90671785D02*
X234925476Y-90624166D01*
X234925476Y-90624166D02*
X234830238Y-90528928D01*
X234830238Y-90528928D02*
X234782619Y-90386071D01*
X234782619Y-90386071D02*
X234782619Y-90290833D01*
X234782619Y-90290833D02*
X234830238Y-90147976D01*
X234830238Y-90147976D02*
X234877857Y-90100357D01*
X234782619Y-89767023D02*
X234782619Y-89147976D01*
X234782619Y-89147976D02*
X235163571Y-89481309D01*
X235163571Y-89481309D02*
X235163571Y-89338452D01*
X235163571Y-89338452D02*
X235211190Y-89243214D01*
X235211190Y-89243214D02*
X235258809Y-89195595D01*
X235258809Y-89195595D02*
X235354047Y-89147976D01*
X235354047Y-89147976D02*
X235592142Y-89147976D01*
X235592142Y-89147976D02*
X235687380Y-89195595D01*
X235687380Y-89195595D02*
X235735000Y-89243214D01*
X235735000Y-89243214D02*
X235782619Y-89338452D01*
X235782619Y-89338452D02*
X235782619Y-89624166D01*
X235782619Y-89624166D02*
X235735000Y-89719404D01*
X235735000Y-89719404D02*
X235687380Y-89767023D01*
X234782619Y-88528928D02*
X234782619Y-88433690D01*
X234782619Y-88433690D02*
X234830238Y-88338452D01*
X234830238Y-88338452D02*
X234877857Y-88290833D01*
X234877857Y-88290833D02*
X234973095Y-88243214D01*
X234973095Y-88243214D02*
X235163571Y-88195595D01*
X235163571Y-88195595D02*
X235401666Y-88195595D01*
X235401666Y-88195595D02*
X235592142Y-88243214D01*
X235592142Y-88243214D02*
X235687380Y-88290833D01*
X235687380Y-88290833D02*
X235735000Y-88338452D01*
X235735000Y-88338452D02*
X235782619Y-88433690D01*
X235782619Y-88433690D02*
X235782619Y-88528928D01*
X235782619Y-88528928D02*
X235735000Y-88624166D01*
X235735000Y-88624166D02*
X235687380Y-88671785D01*
X235687380Y-88671785D02*
X235592142Y-88719404D01*
X235592142Y-88719404D02*
X235401666Y-88767023D01*
X235401666Y-88767023D02*
X235163571Y-88767023D01*
X235163571Y-88767023D02*
X234973095Y-88719404D01*
X234973095Y-88719404D02*
X234877857Y-88671785D01*
X234877857Y-88671785D02*
X234830238Y-88624166D01*
X234830238Y-88624166D02*
X234782619Y-88528928D01*
%TO.C,R9*%
X244321333Y-98695619D02*
X243988000Y-98219428D01*
X243749905Y-98695619D02*
X243749905Y-97695619D01*
X243749905Y-97695619D02*
X244130857Y-97695619D01*
X244130857Y-97695619D02*
X244226095Y-97743238D01*
X244226095Y-97743238D02*
X244273714Y-97790857D01*
X244273714Y-97790857D02*
X244321333Y-97886095D01*
X244321333Y-97886095D02*
X244321333Y-98028952D01*
X244321333Y-98028952D02*
X244273714Y-98124190D01*
X244273714Y-98124190D02*
X244226095Y-98171809D01*
X244226095Y-98171809D02*
X244130857Y-98219428D01*
X244130857Y-98219428D02*
X243749905Y-98219428D01*
X244797524Y-98695619D02*
X244988000Y-98695619D01*
X244988000Y-98695619D02*
X245083238Y-98648000D01*
X245083238Y-98648000D02*
X245130857Y-98600380D01*
X245130857Y-98600380D02*
X245226095Y-98457523D01*
X245226095Y-98457523D02*
X245273714Y-98267047D01*
X245273714Y-98267047D02*
X245273714Y-97886095D01*
X245273714Y-97886095D02*
X245226095Y-97790857D01*
X245226095Y-97790857D02*
X245178476Y-97743238D01*
X245178476Y-97743238D02*
X245083238Y-97695619D01*
X245083238Y-97695619D02*
X244892762Y-97695619D01*
X244892762Y-97695619D02*
X244797524Y-97743238D01*
X244797524Y-97743238D02*
X244749905Y-97790857D01*
X244749905Y-97790857D02*
X244702286Y-97886095D01*
X244702286Y-97886095D02*
X244702286Y-98124190D01*
X244702286Y-98124190D02*
X244749905Y-98219428D01*
X244749905Y-98219428D02*
X244797524Y-98267047D01*
X244797524Y-98267047D02*
X244892762Y-98314666D01*
X244892762Y-98314666D02*
X245083238Y-98314666D01*
X245083238Y-98314666D02*
X245178476Y-98267047D01*
X245178476Y-98267047D02*
X245226095Y-98219428D01*
X245226095Y-98219428D02*
X245273714Y-98124190D01*
%TO.C,J16*%
X218042619Y-115729523D02*
X218756904Y-115729523D01*
X218756904Y-115729523D02*
X218899761Y-115777142D01*
X218899761Y-115777142D02*
X218995000Y-115872380D01*
X218995000Y-115872380D02*
X219042619Y-116015237D01*
X219042619Y-116015237D02*
X219042619Y-116110475D01*
X219042619Y-114729523D02*
X219042619Y-115300951D01*
X219042619Y-115015237D02*
X218042619Y-115015237D01*
X218042619Y-115015237D02*
X218185476Y-115110475D01*
X218185476Y-115110475D02*
X218280714Y-115205713D01*
X218280714Y-115205713D02*
X218328333Y-115300951D01*
X218042619Y-113872380D02*
X218042619Y-114062856D01*
X218042619Y-114062856D02*
X218090238Y-114158094D01*
X218090238Y-114158094D02*
X218137857Y-114205713D01*
X218137857Y-114205713D02*
X218280714Y-114300951D01*
X218280714Y-114300951D02*
X218471190Y-114348570D01*
X218471190Y-114348570D02*
X218852142Y-114348570D01*
X218852142Y-114348570D02*
X218947380Y-114300951D01*
X218947380Y-114300951D02*
X218995000Y-114253332D01*
X218995000Y-114253332D02*
X219042619Y-114158094D01*
X219042619Y-114158094D02*
X219042619Y-113967618D01*
X219042619Y-113967618D02*
X218995000Y-113872380D01*
X218995000Y-113872380D02*
X218947380Y-113824761D01*
X218947380Y-113824761D02*
X218852142Y-113777142D01*
X218852142Y-113777142D02*
X218614047Y-113777142D01*
X218614047Y-113777142D02*
X218518809Y-113824761D01*
X218518809Y-113824761D02*
X218471190Y-113872380D01*
X218471190Y-113872380D02*
X218423571Y-113967618D01*
X218423571Y-113967618D02*
X218423571Y-114158094D01*
X218423571Y-114158094D02*
X218471190Y-114253332D01*
X218471190Y-114253332D02*
X218518809Y-114300951D01*
X218518809Y-114300951D02*
X218614047Y-114348570D01*
%TO.C,R12*%
X217717619Y-84407857D02*
X217241428Y-84741190D01*
X217717619Y-84979285D02*
X216717619Y-84979285D01*
X216717619Y-84979285D02*
X216717619Y-84598333D01*
X216717619Y-84598333D02*
X216765238Y-84503095D01*
X216765238Y-84503095D02*
X216812857Y-84455476D01*
X216812857Y-84455476D02*
X216908095Y-84407857D01*
X216908095Y-84407857D02*
X217050952Y-84407857D01*
X217050952Y-84407857D02*
X217146190Y-84455476D01*
X217146190Y-84455476D02*
X217193809Y-84503095D01*
X217193809Y-84503095D02*
X217241428Y-84598333D01*
X217241428Y-84598333D02*
X217241428Y-84979285D01*
X217717619Y-83455476D02*
X217717619Y-84026904D01*
X217717619Y-83741190D02*
X216717619Y-83741190D01*
X216717619Y-83741190D02*
X216860476Y-83836428D01*
X216860476Y-83836428D02*
X216955714Y-83931666D01*
X216955714Y-83931666D02*
X217003333Y-84026904D01*
X216812857Y-83074523D02*
X216765238Y-83026904D01*
X216765238Y-83026904D02*
X216717619Y-82931666D01*
X216717619Y-82931666D02*
X216717619Y-82693571D01*
X216717619Y-82693571D02*
X216765238Y-82598333D01*
X216765238Y-82598333D02*
X216812857Y-82550714D01*
X216812857Y-82550714D02*
X216908095Y-82503095D01*
X216908095Y-82503095D02*
X217003333Y-82503095D01*
X217003333Y-82503095D02*
X217146190Y-82550714D01*
X217146190Y-82550714D02*
X217717619Y-83122142D01*
X217717619Y-83122142D02*
X217717619Y-82503095D01*
%TO.C,JP4*%
X244851619Y-101947333D02*
X245565904Y-101947333D01*
X245565904Y-101947333D02*
X245708761Y-101994952D01*
X245708761Y-101994952D02*
X245804000Y-102090190D01*
X245804000Y-102090190D02*
X245851619Y-102233047D01*
X245851619Y-102233047D02*
X245851619Y-102328285D01*
X245851619Y-101471142D02*
X244851619Y-101471142D01*
X244851619Y-101471142D02*
X244851619Y-101090190D01*
X244851619Y-101090190D02*
X244899238Y-100994952D01*
X244899238Y-100994952D02*
X244946857Y-100947333D01*
X244946857Y-100947333D02*
X245042095Y-100899714D01*
X245042095Y-100899714D02*
X245184952Y-100899714D01*
X245184952Y-100899714D02*
X245280190Y-100947333D01*
X245280190Y-100947333D02*
X245327809Y-100994952D01*
X245327809Y-100994952D02*
X245375428Y-101090190D01*
X245375428Y-101090190D02*
X245375428Y-101471142D01*
X245184952Y-100042571D02*
X245851619Y-100042571D01*
X244804000Y-100280666D02*
X245518285Y-100518761D01*
X245518285Y-100518761D02*
X245518285Y-99899714D01*
%TO.C,U8*%
X230238095Y-106582619D02*
X230238095Y-107392142D01*
X230238095Y-107392142D02*
X230285714Y-107487380D01*
X230285714Y-107487380D02*
X230333333Y-107535000D01*
X230333333Y-107535000D02*
X230428571Y-107582619D01*
X230428571Y-107582619D02*
X230619047Y-107582619D01*
X230619047Y-107582619D02*
X230714285Y-107535000D01*
X230714285Y-107535000D02*
X230761904Y-107487380D01*
X230761904Y-107487380D02*
X230809523Y-107392142D01*
X230809523Y-107392142D02*
X230809523Y-106582619D01*
X231428571Y-107011190D02*
X231333333Y-106963571D01*
X231333333Y-106963571D02*
X231285714Y-106915952D01*
X231285714Y-106915952D02*
X231238095Y-106820714D01*
X231238095Y-106820714D02*
X231238095Y-106773095D01*
X231238095Y-106773095D02*
X231285714Y-106677857D01*
X231285714Y-106677857D02*
X231333333Y-106630238D01*
X231333333Y-106630238D02*
X231428571Y-106582619D01*
X231428571Y-106582619D02*
X231619047Y-106582619D01*
X231619047Y-106582619D02*
X231714285Y-106630238D01*
X231714285Y-106630238D02*
X231761904Y-106677857D01*
X231761904Y-106677857D02*
X231809523Y-106773095D01*
X231809523Y-106773095D02*
X231809523Y-106820714D01*
X231809523Y-106820714D02*
X231761904Y-106915952D01*
X231761904Y-106915952D02*
X231714285Y-106963571D01*
X231714285Y-106963571D02*
X231619047Y-107011190D01*
X231619047Y-107011190D02*
X231428571Y-107011190D01*
X231428571Y-107011190D02*
X231333333Y-107058809D01*
X231333333Y-107058809D02*
X231285714Y-107106428D01*
X231285714Y-107106428D02*
X231238095Y-107201666D01*
X231238095Y-107201666D02*
X231238095Y-107392142D01*
X231238095Y-107392142D02*
X231285714Y-107487380D01*
X231285714Y-107487380D02*
X231333333Y-107535000D01*
X231333333Y-107535000D02*
X231428571Y-107582619D01*
X231428571Y-107582619D02*
X231619047Y-107582619D01*
X231619047Y-107582619D02*
X231714285Y-107535000D01*
X231714285Y-107535000D02*
X231761904Y-107487380D01*
X231761904Y-107487380D02*
X231809523Y-107392142D01*
X231809523Y-107392142D02*
X231809523Y-107201666D01*
X231809523Y-107201666D02*
X231761904Y-107106428D01*
X231761904Y-107106428D02*
X231714285Y-107058809D01*
X231714285Y-107058809D02*
X231619047Y-107011190D01*
%TO.C,H3*%
X192048095Y-77161619D02*
X192048095Y-76161619D01*
X192048095Y-76637809D02*
X192619523Y-76637809D01*
X192619523Y-77161619D02*
X192619523Y-76161619D01*
X193000476Y-76161619D02*
X193619523Y-76161619D01*
X193619523Y-76161619D02*
X193286190Y-76542571D01*
X193286190Y-76542571D02*
X193429047Y-76542571D01*
X193429047Y-76542571D02*
X193524285Y-76590190D01*
X193524285Y-76590190D02*
X193571904Y-76637809D01*
X193571904Y-76637809D02*
X193619523Y-76733047D01*
X193619523Y-76733047D02*
X193619523Y-76971142D01*
X193619523Y-76971142D02*
X193571904Y-77066380D01*
X193571904Y-77066380D02*
X193524285Y-77114000D01*
X193524285Y-77114000D02*
X193429047Y-77161619D01*
X193429047Y-77161619D02*
X193143333Y-77161619D01*
X193143333Y-77161619D02*
X193048095Y-77114000D01*
X193048095Y-77114000D02*
X193000476Y-77066380D01*
%TO.C,C23*%
X241632642Y-102631380D02*
X241585023Y-102679000D01*
X241585023Y-102679000D02*
X241442166Y-102726619D01*
X241442166Y-102726619D02*
X241346928Y-102726619D01*
X241346928Y-102726619D02*
X241204071Y-102679000D01*
X241204071Y-102679000D02*
X241108833Y-102583761D01*
X241108833Y-102583761D02*
X241061214Y-102488523D01*
X241061214Y-102488523D02*
X241013595Y-102298047D01*
X241013595Y-102298047D02*
X241013595Y-102155190D01*
X241013595Y-102155190D02*
X241061214Y-101964714D01*
X241061214Y-101964714D02*
X241108833Y-101869476D01*
X241108833Y-101869476D02*
X241204071Y-101774238D01*
X241204071Y-101774238D02*
X241346928Y-101726619D01*
X241346928Y-101726619D02*
X241442166Y-101726619D01*
X241442166Y-101726619D02*
X241585023Y-101774238D01*
X241585023Y-101774238D02*
X241632642Y-101821857D01*
X242013595Y-101821857D02*
X242061214Y-101774238D01*
X242061214Y-101774238D02*
X242156452Y-101726619D01*
X242156452Y-101726619D02*
X242394547Y-101726619D01*
X242394547Y-101726619D02*
X242489785Y-101774238D01*
X242489785Y-101774238D02*
X242537404Y-101821857D01*
X242537404Y-101821857D02*
X242585023Y-101917095D01*
X242585023Y-101917095D02*
X242585023Y-102012333D01*
X242585023Y-102012333D02*
X242537404Y-102155190D01*
X242537404Y-102155190D02*
X241965976Y-102726619D01*
X241965976Y-102726619D02*
X242585023Y-102726619D01*
X242918357Y-101726619D02*
X243537404Y-101726619D01*
X243537404Y-101726619D02*
X243204071Y-102107571D01*
X243204071Y-102107571D02*
X243346928Y-102107571D01*
X243346928Y-102107571D02*
X243442166Y-102155190D01*
X243442166Y-102155190D02*
X243489785Y-102202809D01*
X243489785Y-102202809D02*
X243537404Y-102298047D01*
X243537404Y-102298047D02*
X243537404Y-102536142D01*
X243537404Y-102536142D02*
X243489785Y-102631380D01*
X243489785Y-102631380D02*
X243442166Y-102679000D01*
X243442166Y-102679000D02*
X243346928Y-102726619D01*
X243346928Y-102726619D02*
X243061214Y-102726619D01*
X243061214Y-102726619D02*
X242965976Y-102679000D01*
X242965976Y-102679000D02*
X242918357Y-102631380D01*
%TO.C,H4*%
X242513151Y-114418675D02*
X242513151Y-113418675D01*
X242513151Y-113894865D02*
X243084579Y-113894865D01*
X243084579Y-114418675D02*
X243084579Y-113418675D01*
X243989341Y-113752008D02*
X243989341Y-114418675D01*
X243751246Y-113371056D02*
X243513151Y-114085341D01*
X243513151Y-114085341D02*
X244132198Y-114085341D01*
%TO.C,C29*%
X192557142Y-103087380D02*
X192509523Y-103135000D01*
X192509523Y-103135000D02*
X192366666Y-103182619D01*
X192366666Y-103182619D02*
X192271428Y-103182619D01*
X192271428Y-103182619D02*
X192128571Y-103135000D01*
X192128571Y-103135000D02*
X192033333Y-103039761D01*
X192033333Y-103039761D02*
X191985714Y-102944523D01*
X191985714Y-102944523D02*
X191938095Y-102754047D01*
X191938095Y-102754047D02*
X191938095Y-102611190D01*
X191938095Y-102611190D02*
X191985714Y-102420714D01*
X191985714Y-102420714D02*
X192033333Y-102325476D01*
X192033333Y-102325476D02*
X192128571Y-102230238D01*
X192128571Y-102230238D02*
X192271428Y-102182619D01*
X192271428Y-102182619D02*
X192366666Y-102182619D01*
X192366666Y-102182619D02*
X192509523Y-102230238D01*
X192509523Y-102230238D02*
X192557142Y-102277857D01*
X192938095Y-102277857D02*
X192985714Y-102230238D01*
X192985714Y-102230238D02*
X193080952Y-102182619D01*
X193080952Y-102182619D02*
X193319047Y-102182619D01*
X193319047Y-102182619D02*
X193414285Y-102230238D01*
X193414285Y-102230238D02*
X193461904Y-102277857D01*
X193461904Y-102277857D02*
X193509523Y-102373095D01*
X193509523Y-102373095D02*
X193509523Y-102468333D01*
X193509523Y-102468333D02*
X193461904Y-102611190D01*
X193461904Y-102611190D02*
X192890476Y-103182619D01*
X192890476Y-103182619D02*
X193509523Y-103182619D01*
X193985714Y-103182619D02*
X194176190Y-103182619D01*
X194176190Y-103182619D02*
X194271428Y-103135000D01*
X194271428Y-103135000D02*
X194319047Y-103087380D01*
X194319047Y-103087380D02*
X194414285Y-102944523D01*
X194414285Y-102944523D02*
X194461904Y-102754047D01*
X194461904Y-102754047D02*
X194461904Y-102373095D01*
X194461904Y-102373095D02*
X194414285Y-102277857D01*
X194414285Y-102277857D02*
X194366666Y-102230238D01*
X194366666Y-102230238D02*
X194271428Y-102182619D01*
X194271428Y-102182619D02*
X194080952Y-102182619D01*
X194080952Y-102182619D02*
X193985714Y-102230238D01*
X193985714Y-102230238D02*
X193938095Y-102277857D01*
X193938095Y-102277857D02*
X193890476Y-102373095D01*
X193890476Y-102373095D02*
X193890476Y-102611190D01*
X193890476Y-102611190D02*
X193938095Y-102706428D01*
X193938095Y-102706428D02*
X193985714Y-102754047D01*
X193985714Y-102754047D02*
X194080952Y-102801666D01*
X194080952Y-102801666D02*
X194271428Y-102801666D01*
X194271428Y-102801666D02*
X194366666Y-102754047D01*
X194366666Y-102754047D02*
X194414285Y-102706428D01*
X194414285Y-102706428D02*
X194461904Y-102611190D01*
%TO.C,C26*%
X212517380Y-87750357D02*
X212565000Y-87797976D01*
X212565000Y-87797976D02*
X212612619Y-87940833D01*
X212612619Y-87940833D02*
X212612619Y-88036071D01*
X212612619Y-88036071D02*
X212565000Y-88178928D01*
X212565000Y-88178928D02*
X212469761Y-88274166D01*
X212469761Y-88274166D02*
X212374523Y-88321785D01*
X212374523Y-88321785D02*
X212184047Y-88369404D01*
X212184047Y-88369404D02*
X212041190Y-88369404D01*
X212041190Y-88369404D02*
X211850714Y-88321785D01*
X211850714Y-88321785D02*
X211755476Y-88274166D01*
X211755476Y-88274166D02*
X211660238Y-88178928D01*
X211660238Y-88178928D02*
X211612619Y-88036071D01*
X211612619Y-88036071D02*
X211612619Y-87940833D01*
X211612619Y-87940833D02*
X211660238Y-87797976D01*
X211660238Y-87797976D02*
X211707857Y-87750357D01*
X211707857Y-87369404D02*
X211660238Y-87321785D01*
X211660238Y-87321785D02*
X211612619Y-87226547D01*
X211612619Y-87226547D02*
X211612619Y-86988452D01*
X211612619Y-86988452D02*
X211660238Y-86893214D01*
X211660238Y-86893214D02*
X211707857Y-86845595D01*
X211707857Y-86845595D02*
X211803095Y-86797976D01*
X211803095Y-86797976D02*
X211898333Y-86797976D01*
X211898333Y-86797976D02*
X212041190Y-86845595D01*
X212041190Y-86845595D02*
X212612619Y-87417023D01*
X212612619Y-87417023D02*
X212612619Y-86797976D01*
X211612619Y-85940833D02*
X211612619Y-86131309D01*
X211612619Y-86131309D02*
X211660238Y-86226547D01*
X211660238Y-86226547D02*
X211707857Y-86274166D01*
X211707857Y-86274166D02*
X211850714Y-86369404D01*
X211850714Y-86369404D02*
X212041190Y-86417023D01*
X212041190Y-86417023D02*
X212422142Y-86417023D01*
X212422142Y-86417023D02*
X212517380Y-86369404D01*
X212517380Y-86369404D02*
X212565000Y-86321785D01*
X212565000Y-86321785D02*
X212612619Y-86226547D01*
X212612619Y-86226547D02*
X212612619Y-86036071D01*
X212612619Y-86036071D02*
X212565000Y-85940833D01*
X212565000Y-85940833D02*
X212517380Y-85893214D01*
X212517380Y-85893214D02*
X212422142Y-85845595D01*
X212422142Y-85845595D02*
X212184047Y-85845595D01*
X212184047Y-85845595D02*
X212088809Y-85893214D01*
X212088809Y-85893214D02*
X212041190Y-85940833D01*
X212041190Y-85940833D02*
X211993571Y-86036071D01*
X211993571Y-86036071D02*
X211993571Y-86226547D01*
X211993571Y-86226547D02*
X212041190Y-86321785D01*
X212041190Y-86321785D02*
X212088809Y-86369404D01*
X212088809Y-86369404D02*
X212184047Y-86417023D01*
%TO.C,L2*%
X198312619Y-95024166D02*
X198312619Y-95500356D01*
X198312619Y-95500356D02*
X197312619Y-95500356D01*
X197407857Y-94738451D02*
X197360238Y-94690832D01*
X197360238Y-94690832D02*
X197312619Y-94595594D01*
X197312619Y-94595594D02*
X197312619Y-94357499D01*
X197312619Y-94357499D02*
X197360238Y-94262261D01*
X197360238Y-94262261D02*
X197407857Y-94214642D01*
X197407857Y-94214642D02*
X197503095Y-94167023D01*
X197503095Y-94167023D02*
X197598333Y-94167023D01*
X197598333Y-94167023D02*
X197741190Y-94214642D01*
X197741190Y-94214642D02*
X198312619Y-94786070D01*
X198312619Y-94786070D02*
X198312619Y-94167023D01*
%TO.C,D12*%
X197962619Y-88484285D02*
X196962619Y-88484285D01*
X196962619Y-88484285D02*
X196962619Y-88246190D01*
X196962619Y-88246190D02*
X197010238Y-88103333D01*
X197010238Y-88103333D02*
X197105476Y-88008095D01*
X197105476Y-88008095D02*
X197200714Y-87960476D01*
X197200714Y-87960476D02*
X197391190Y-87912857D01*
X197391190Y-87912857D02*
X197534047Y-87912857D01*
X197534047Y-87912857D02*
X197724523Y-87960476D01*
X197724523Y-87960476D02*
X197819761Y-88008095D01*
X197819761Y-88008095D02*
X197915000Y-88103333D01*
X197915000Y-88103333D02*
X197962619Y-88246190D01*
X197962619Y-88246190D02*
X197962619Y-88484285D01*
X197962619Y-86960476D02*
X197962619Y-87531904D01*
X197962619Y-87246190D02*
X196962619Y-87246190D01*
X196962619Y-87246190D02*
X197105476Y-87341428D01*
X197105476Y-87341428D02*
X197200714Y-87436666D01*
X197200714Y-87436666D02*
X197248333Y-87531904D01*
X197057857Y-86579523D02*
X197010238Y-86531904D01*
X197010238Y-86531904D02*
X196962619Y-86436666D01*
X196962619Y-86436666D02*
X196962619Y-86198571D01*
X196962619Y-86198571D02*
X197010238Y-86103333D01*
X197010238Y-86103333D02*
X197057857Y-86055714D01*
X197057857Y-86055714D02*
X197153095Y-86008095D01*
X197153095Y-86008095D02*
X197248333Y-86008095D01*
X197248333Y-86008095D02*
X197391190Y-86055714D01*
X197391190Y-86055714D02*
X197962619Y-86627142D01*
X197962619Y-86627142D02*
X197962619Y-86008095D01*
%TO.C,C16*%
X221144642Y-103357380D02*
X221097023Y-103405000D01*
X221097023Y-103405000D02*
X220954166Y-103452619D01*
X220954166Y-103452619D02*
X220858928Y-103452619D01*
X220858928Y-103452619D02*
X220716071Y-103405000D01*
X220716071Y-103405000D02*
X220620833Y-103309761D01*
X220620833Y-103309761D02*
X220573214Y-103214523D01*
X220573214Y-103214523D02*
X220525595Y-103024047D01*
X220525595Y-103024047D02*
X220525595Y-102881190D01*
X220525595Y-102881190D02*
X220573214Y-102690714D01*
X220573214Y-102690714D02*
X220620833Y-102595476D01*
X220620833Y-102595476D02*
X220716071Y-102500238D01*
X220716071Y-102500238D02*
X220858928Y-102452619D01*
X220858928Y-102452619D02*
X220954166Y-102452619D01*
X220954166Y-102452619D02*
X221097023Y-102500238D01*
X221097023Y-102500238D02*
X221144642Y-102547857D01*
X222097023Y-103452619D02*
X221525595Y-103452619D01*
X221811309Y-103452619D02*
X221811309Y-102452619D01*
X221811309Y-102452619D02*
X221716071Y-102595476D01*
X221716071Y-102595476D02*
X221620833Y-102690714D01*
X221620833Y-102690714D02*
X221525595Y-102738333D01*
X222954166Y-102452619D02*
X222763690Y-102452619D01*
X222763690Y-102452619D02*
X222668452Y-102500238D01*
X222668452Y-102500238D02*
X222620833Y-102547857D01*
X222620833Y-102547857D02*
X222525595Y-102690714D01*
X222525595Y-102690714D02*
X222477976Y-102881190D01*
X222477976Y-102881190D02*
X222477976Y-103262142D01*
X222477976Y-103262142D02*
X222525595Y-103357380D01*
X222525595Y-103357380D02*
X222573214Y-103405000D01*
X222573214Y-103405000D02*
X222668452Y-103452619D01*
X222668452Y-103452619D02*
X222858928Y-103452619D01*
X222858928Y-103452619D02*
X222954166Y-103405000D01*
X222954166Y-103405000D02*
X223001785Y-103357380D01*
X223001785Y-103357380D02*
X223049404Y-103262142D01*
X223049404Y-103262142D02*
X223049404Y-103024047D01*
X223049404Y-103024047D02*
X223001785Y-102928809D01*
X223001785Y-102928809D02*
X222954166Y-102881190D01*
X222954166Y-102881190D02*
X222858928Y-102833571D01*
X222858928Y-102833571D02*
X222668452Y-102833571D01*
X222668452Y-102833571D02*
X222573214Y-102881190D01*
X222573214Y-102881190D02*
X222525595Y-102928809D01*
X222525595Y-102928809D02*
X222477976Y-103024047D01*
%TO.C,R14*%
X208812619Y-88062857D02*
X208336428Y-88396190D01*
X208812619Y-88634285D02*
X207812619Y-88634285D01*
X207812619Y-88634285D02*
X207812619Y-88253333D01*
X207812619Y-88253333D02*
X207860238Y-88158095D01*
X207860238Y-88158095D02*
X207907857Y-88110476D01*
X207907857Y-88110476D02*
X208003095Y-88062857D01*
X208003095Y-88062857D02*
X208145952Y-88062857D01*
X208145952Y-88062857D02*
X208241190Y-88110476D01*
X208241190Y-88110476D02*
X208288809Y-88158095D01*
X208288809Y-88158095D02*
X208336428Y-88253333D01*
X208336428Y-88253333D02*
X208336428Y-88634285D01*
X208812619Y-87110476D02*
X208812619Y-87681904D01*
X208812619Y-87396190D02*
X207812619Y-87396190D01*
X207812619Y-87396190D02*
X207955476Y-87491428D01*
X207955476Y-87491428D02*
X208050714Y-87586666D01*
X208050714Y-87586666D02*
X208098333Y-87681904D01*
X208145952Y-86253333D02*
X208812619Y-86253333D01*
X207765000Y-86491428D02*
X208479285Y-86729523D01*
X208479285Y-86729523D02*
X208479285Y-86110476D01*
%TO.C,FID4*%
X218428571Y-94108809D02*
X218095238Y-94108809D01*
X218095238Y-94632619D02*
X218095238Y-93632619D01*
X218095238Y-93632619D02*
X218571428Y-93632619D01*
X218952381Y-94632619D02*
X218952381Y-93632619D01*
X219428571Y-94632619D02*
X219428571Y-93632619D01*
X219428571Y-93632619D02*
X219666666Y-93632619D01*
X219666666Y-93632619D02*
X219809523Y-93680238D01*
X219809523Y-93680238D02*
X219904761Y-93775476D01*
X219904761Y-93775476D02*
X219952380Y-93870714D01*
X219952380Y-93870714D02*
X219999999Y-94061190D01*
X219999999Y-94061190D02*
X219999999Y-94204047D01*
X219999999Y-94204047D02*
X219952380Y-94394523D01*
X219952380Y-94394523D02*
X219904761Y-94489761D01*
X219904761Y-94489761D02*
X219809523Y-94585000D01*
X219809523Y-94585000D02*
X219666666Y-94632619D01*
X219666666Y-94632619D02*
X219428571Y-94632619D01*
X220857142Y-93965952D02*
X220857142Y-94632619D01*
X220619047Y-93585000D02*
X220380952Y-94299285D01*
X220380952Y-94299285D02*
X220999999Y-94299285D01*
%TO.C,D9*%
X222212619Y-99908094D02*
X221212619Y-99908094D01*
X221212619Y-99908094D02*
X221212619Y-99669999D01*
X221212619Y-99669999D02*
X221260238Y-99527142D01*
X221260238Y-99527142D02*
X221355476Y-99431904D01*
X221355476Y-99431904D02*
X221450714Y-99384285D01*
X221450714Y-99384285D02*
X221641190Y-99336666D01*
X221641190Y-99336666D02*
X221784047Y-99336666D01*
X221784047Y-99336666D02*
X221974523Y-99384285D01*
X221974523Y-99384285D02*
X222069761Y-99431904D01*
X222069761Y-99431904D02*
X222165000Y-99527142D01*
X222165000Y-99527142D02*
X222212619Y-99669999D01*
X222212619Y-99669999D02*
X222212619Y-99908094D01*
X222212619Y-98860475D02*
X222212619Y-98669999D01*
X222212619Y-98669999D02*
X222165000Y-98574761D01*
X222165000Y-98574761D02*
X222117380Y-98527142D01*
X222117380Y-98527142D02*
X221974523Y-98431904D01*
X221974523Y-98431904D02*
X221784047Y-98384285D01*
X221784047Y-98384285D02*
X221403095Y-98384285D01*
X221403095Y-98384285D02*
X221307857Y-98431904D01*
X221307857Y-98431904D02*
X221260238Y-98479523D01*
X221260238Y-98479523D02*
X221212619Y-98574761D01*
X221212619Y-98574761D02*
X221212619Y-98765237D01*
X221212619Y-98765237D02*
X221260238Y-98860475D01*
X221260238Y-98860475D02*
X221307857Y-98908094D01*
X221307857Y-98908094D02*
X221403095Y-98955713D01*
X221403095Y-98955713D02*
X221641190Y-98955713D01*
X221641190Y-98955713D02*
X221736428Y-98908094D01*
X221736428Y-98908094D02*
X221784047Y-98860475D01*
X221784047Y-98860475D02*
X221831666Y-98765237D01*
X221831666Y-98765237D02*
X221831666Y-98574761D01*
X221831666Y-98574761D02*
X221784047Y-98479523D01*
X221784047Y-98479523D02*
X221736428Y-98431904D01*
X221736428Y-98431904D02*
X221641190Y-98384285D01*
%TO.C,C24*%
X222463380Y-90445357D02*
X222511000Y-90492976D01*
X222511000Y-90492976D02*
X222558619Y-90635833D01*
X222558619Y-90635833D02*
X222558619Y-90731071D01*
X222558619Y-90731071D02*
X222511000Y-90873928D01*
X222511000Y-90873928D02*
X222415761Y-90969166D01*
X222415761Y-90969166D02*
X222320523Y-91016785D01*
X222320523Y-91016785D02*
X222130047Y-91064404D01*
X222130047Y-91064404D02*
X221987190Y-91064404D01*
X221987190Y-91064404D02*
X221796714Y-91016785D01*
X221796714Y-91016785D02*
X221701476Y-90969166D01*
X221701476Y-90969166D02*
X221606238Y-90873928D01*
X221606238Y-90873928D02*
X221558619Y-90731071D01*
X221558619Y-90731071D02*
X221558619Y-90635833D01*
X221558619Y-90635833D02*
X221606238Y-90492976D01*
X221606238Y-90492976D02*
X221653857Y-90445357D01*
X221653857Y-90064404D02*
X221606238Y-90016785D01*
X221606238Y-90016785D02*
X221558619Y-89921547D01*
X221558619Y-89921547D02*
X221558619Y-89683452D01*
X221558619Y-89683452D02*
X221606238Y-89588214D01*
X221606238Y-89588214D02*
X221653857Y-89540595D01*
X221653857Y-89540595D02*
X221749095Y-89492976D01*
X221749095Y-89492976D02*
X221844333Y-89492976D01*
X221844333Y-89492976D02*
X221987190Y-89540595D01*
X221987190Y-89540595D02*
X222558619Y-90112023D01*
X222558619Y-90112023D02*
X222558619Y-89492976D01*
X221891952Y-88635833D02*
X222558619Y-88635833D01*
X221511000Y-88873928D02*
X222225285Y-89112023D01*
X222225285Y-89112023D02*
X222225285Y-88492976D01*
%TO.C,R11*%
X220272619Y-90407857D02*
X219796428Y-90741190D01*
X220272619Y-90979285D02*
X219272619Y-90979285D01*
X219272619Y-90979285D02*
X219272619Y-90598333D01*
X219272619Y-90598333D02*
X219320238Y-90503095D01*
X219320238Y-90503095D02*
X219367857Y-90455476D01*
X219367857Y-90455476D02*
X219463095Y-90407857D01*
X219463095Y-90407857D02*
X219605952Y-90407857D01*
X219605952Y-90407857D02*
X219701190Y-90455476D01*
X219701190Y-90455476D02*
X219748809Y-90503095D01*
X219748809Y-90503095D02*
X219796428Y-90598333D01*
X219796428Y-90598333D02*
X219796428Y-90979285D01*
X220272619Y-89455476D02*
X220272619Y-90026904D01*
X220272619Y-89741190D02*
X219272619Y-89741190D01*
X219272619Y-89741190D02*
X219415476Y-89836428D01*
X219415476Y-89836428D02*
X219510714Y-89931666D01*
X219510714Y-89931666D02*
X219558333Y-90026904D01*
X220272619Y-88503095D02*
X220272619Y-89074523D01*
X220272619Y-88788809D02*
X219272619Y-88788809D01*
X219272619Y-88788809D02*
X219415476Y-88884047D01*
X219415476Y-88884047D02*
X219510714Y-88979285D01*
X219510714Y-88979285D02*
X219558333Y-89074523D01*
%TO.C,D7*%
X240962619Y-80808094D02*
X239962619Y-80808094D01*
X239962619Y-80808094D02*
X239962619Y-80569999D01*
X239962619Y-80569999D02*
X240010238Y-80427142D01*
X240010238Y-80427142D02*
X240105476Y-80331904D01*
X240105476Y-80331904D02*
X240200714Y-80284285D01*
X240200714Y-80284285D02*
X240391190Y-80236666D01*
X240391190Y-80236666D02*
X240534047Y-80236666D01*
X240534047Y-80236666D02*
X240724523Y-80284285D01*
X240724523Y-80284285D02*
X240819761Y-80331904D01*
X240819761Y-80331904D02*
X240915000Y-80427142D01*
X240915000Y-80427142D02*
X240962619Y-80569999D01*
X240962619Y-80569999D02*
X240962619Y-80808094D01*
X239962619Y-79903332D02*
X239962619Y-79236666D01*
X239962619Y-79236666D02*
X240962619Y-79665237D01*
%TO.C,U7*%
X245329619Y-110456904D02*
X246139142Y-110456904D01*
X246139142Y-110456904D02*
X246234380Y-110409285D01*
X246234380Y-110409285D02*
X246282000Y-110361666D01*
X246282000Y-110361666D02*
X246329619Y-110266428D01*
X246329619Y-110266428D02*
X246329619Y-110075952D01*
X246329619Y-110075952D02*
X246282000Y-109980714D01*
X246282000Y-109980714D02*
X246234380Y-109933095D01*
X246234380Y-109933095D02*
X246139142Y-109885476D01*
X246139142Y-109885476D02*
X245329619Y-109885476D01*
X245329619Y-109504523D02*
X245329619Y-108837857D01*
X245329619Y-108837857D02*
X246329619Y-109266428D01*
%TO.C,R10*%
X221107142Y-101482619D02*
X220773809Y-101006428D01*
X220535714Y-101482619D02*
X220535714Y-100482619D01*
X220535714Y-100482619D02*
X220916666Y-100482619D01*
X220916666Y-100482619D02*
X221011904Y-100530238D01*
X221011904Y-100530238D02*
X221059523Y-100577857D01*
X221059523Y-100577857D02*
X221107142Y-100673095D01*
X221107142Y-100673095D02*
X221107142Y-100815952D01*
X221107142Y-100815952D02*
X221059523Y-100911190D01*
X221059523Y-100911190D02*
X221011904Y-100958809D01*
X221011904Y-100958809D02*
X220916666Y-101006428D01*
X220916666Y-101006428D02*
X220535714Y-101006428D01*
X222059523Y-101482619D02*
X221488095Y-101482619D01*
X221773809Y-101482619D02*
X221773809Y-100482619D01*
X221773809Y-100482619D02*
X221678571Y-100625476D01*
X221678571Y-100625476D02*
X221583333Y-100720714D01*
X221583333Y-100720714D02*
X221488095Y-100768333D01*
X222678571Y-100482619D02*
X222773809Y-100482619D01*
X222773809Y-100482619D02*
X222869047Y-100530238D01*
X222869047Y-100530238D02*
X222916666Y-100577857D01*
X222916666Y-100577857D02*
X222964285Y-100673095D01*
X222964285Y-100673095D02*
X223011904Y-100863571D01*
X223011904Y-100863571D02*
X223011904Y-101101666D01*
X223011904Y-101101666D02*
X222964285Y-101292142D01*
X222964285Y-101292142D02*
X222916666Y-101387380D01*
X222916666Y-101387380D02*
X222869047Y-101435000D01*
X222869047Y-101435000D02*
X222773809Y-101482619D01*
X222773809Y-101482619D02*
X222678571Y-101482619D01*
X222678571Y-101482619D02*
X222583333Y-101435000D01*
X222583333Y-101435000D02*
X222535714Y-101387380D01*
X222535714Y-101387380D02*
X222488095Y-101292142D01*
X222488095Y-101292142D02*
X222440476Y-101101666D01*
X222440476Y-101101666D02*
X222440476Y-100863571D01*
X222440476Y-100863571D02*
X222488095Y-100673095D01*
X222488095Y-100673095D02*
X222535714Y-100577857D01*
X222535714Y-100577857D02*
X222583333Y-100530238D01*
X222583333Y-100530238D02*
X222678571Y-100482619D01*
%TO.C,U9*%
X192488095Y-92432619D02*
X192488095Y-93242142D01*
X192488095Y-93242142D02*
X192535714Y-93337380D01*
X192535714Y-93337380D02*
X192583333Y-93385000D01*
X192583333Y-93385000D02*
X192678571Y-93432619D01*
X192678571Y-93432619D02*
X192869047Y-93432619D01*
X192869047Y-93432619D02*
X192964285Y-93385000D01*
X192964285Y-93385000D02*
X193011904Y-93337380D01*
X193011904Y-93337380D02*
X193059523Y-93242142D01*
X193059523Y-93242142D02*
X193059523Y-92432619D01*
X193583333Y-93432619D02*
X193773809Y-93432619D01*
X193773809Y-93432619D02*
X193869047Y-93385000D01*
X193869047Y-93385000D02*
X193916666Y-93337380D01*
X193916666Y-93337380D02*
X194011904Y-93194523D01*
X194011904Y-93194523D02*
X194059523Y-93004047D01*
X194059523Y-93004047D02*
X194059523Y-92623095D01*
X194059523Y-92623095D02*
X194011904Y-92527857D01*
X194011904Y-92527857D02*
X193964285Y-92480238D01*
X193964285Y-92480238D02*
X193869047Y-92432619D01*
X193869047Y-92432619D02*
X193678571Y-92432619D01*
X193678571Y-92432619D02*
X193583333Y-92480238D01*
X193583333Y-92480238D02*
X193535714Y-92527857D01*
X193535714Y-92527857D02*
X193488095Y-92623095D01*
X193488095Y-92623095D02*
X193488095Y-92861190D01*
X193488095Y-92861190D02*
X193535714Y-92956428D01*
X193535714Y-92956428D02*
X193583333Y-93004047D01*
X193583333Y-93004047D02*
X193678571Y-93051666D01*
X193678571Y-93051666D02*
X193869047Y-93051666D01*
X193869047Y-93051666D02*
X193964285Y-93004047D01*
X193964285Y-93004047D02*
X194011904Y-92956428D01*
X194011904Y-92956428D02*
X194059523Y-92861190D01*
%TO.C,C25*%
X208117380Y-83912857D02*
X208165000Y-83960476D01*
X208165000Y-83960476D02*
X208212619Y-84103333D01*
X208212619Y-84103333D02*
X208212619Y-84198571D01*
X208212619Y-84198571D02*
X208165000Y-84341428D01*
X208165000Y-84341428D02*
X208069761Y-84436666D01*
X208069761Y-84436666D02*
X207974523Y-84484285D01*
X207974523Y-84484285D02*
X207784047Y-84531904D01*
X207784047Y-84531904D02*
X207641190Y-84531904D01*
X207641190Y-84531904D02*
X207450714Y-84484285D01*
X207450714Y-84484285D02*
X207355476Y-84436666D01*
X207355476Y-84436666D02*
X207260238Y-84341428D01*
X207260238Y-84341428D02*
X207212619Y-84198571D01*
X207212619Y-84198571D02*
X207212619Y-84103333D01*
X207212619Y-84103333D02*
X207260238Y-83960476D01*
X207260238Y-83960476D02*
X207307857Y-83912857D01*
X207307857Y-83531904D02*
X207260238Y-83484285D01*
X207260238Y-83484285D02*
X207212619Y-83389047D01*
X207212619Y-83389047D02*
X207212619Y-83150952D01*
X207212619Y-83150952D02*
X207260238Y-83055714D01*
X207260238Y-83055714D02*
X207307857Y-83008095D01*
X207307857Y-83008095D02*
X207403095Y-82960476D01*
X207403095Y-82960476D02*
X207498333Y-82960476D01*
X207498333Y-82960476D02*
X207641190Y-83008095D01*
X207641190Y-83008095D02*
X208212619Y-83579523D01*
X208212619Y-83579523D02*
X208212619Y-82960476D01*
X207212619Y-82055714D02*
X207212619Y-82531904D01*
X207212619Y-82531904D02*
X207688809Y-82579523D01*
X207688809Y-82579523D02*
X207641190Y-82531904D01*
X207641190Y-82531904D02*
X207593571Y-82436666D01*
X207593571Y-82436666D02*
X207593571Y-82198571D01*
X207593571Y-82198571D02*
X207641190Y-82103333D01*
X207641190Y-82103333D02*
X207688809Y-82055714D01*
X207688809Y-82055714D02*
X207784047Y-82008095D01*
X207784047Y-82008095D02*
X208022142Y-82008095D01*
X208022142Y-82008095D02*
X208117380Y-82055714D01*
X208117380Y-82055714D02*
X208165000Y-82103333D01*
X208165000Y-82103333D02*
X208212619Y-82198571D01*
X208212619Y-82198571D02*
X208212619Y-82436666D01*
X208212619Y-82436666D02*
X208165000Y-82531904D01*
X208165000Y-82531904D02*
X208117380Y-82579523D01*
%TO.C,C27*%
X238912380Y-89006357D02*
X238960000Y-89053976D01*
X238960000Y-89053976D02*
X239007619Y-89196833D01*
X239007619Y-89196833D02*
X239007619Y-89292071D01*
X239007619Y-89292071D02*
X238960000Y-89434928D01*
X238960000Y-89434928D02*
X238864761Y-89530166D01*
X238864761Y-89530166D02*
X238769523Y-89577785D01*
X238769523Y-89577785D02*
X238579047Y-89625404D01*
X238579047Y-89625404D02*
X238436190Y-89625404D01*
X238436190Y-89625404D02*
X238245714Y-89577785D01*
X238245714Y-89577785D02*
X238150476Y-89530166D01*
X238150476Y-89530166D02*
X238055238Y-89434928D01*
X238055238Y-89434928D02*
X238007619Y-89292071D01*
X238007619Y-89292071D02*
X238007619Y-89196833D01*
X238007619Y-89196833D02*
X238055238Y-89053976D01*
X238055238Y-89053976D02*
X238102857Y-89006357D01*
X238102857Y-88625404D02*
X238055238Y-88577785D01*
X238055238Y-88577785D02*
X238007619Y-88482547D01*
X238007619Y-88482547D02*
X238007619Y-88244452D01*
X238007619Y-88244452D02*
X238055238Y-88149214D01*
X238055238Y-88149214D02*
X238102857Y-88101595D01*
X238102857Y-88101595D02*
X238198095Y-88053976D01*
X238198095Y-88053976D02*
X238293333Y-88053976D01*
X238293333Y-88053976D02*
X238436190Y-88101595D01*
X238436190Y-88101595D02*
X239007619Y-88673023D01*
X239007619Y-88673023D02*
X239007619Y-88053976D01*
X238007619Y-87720642D02*
X238007619Y-87053976D01*
X238007619Y-87053976D02*
X239007619Y-87482547D01*
%TO.C,J12*%
X203440476Y-76176619D02*
X203440476Y-76890904D01*
X203440476Y-76890904D02*
X203392857Y-77033761D01*
X203392857Y-77033761D02*
X203297619Y-77129000D01*
X203297619Y-77129000D02*
X203154762Y-77176619D01*
X203154762Y-77176619D02*
X203059524Y-77176619D01*
X204440476Y-77176619D02*
X203869048Y-77176619D01*
X204154762Y-77176619D02*
X204154762Y-76176619D01*
X204154762Y-76176619D02*
X204059524Y-76319476D01*
X204059524Y-76319476D02*
X203964286Y-76414714D01*
X203964286Y-76414714D02*
X203869048Y-76462333D01*
X204821429Y-76271857D02*
X204869048Y-76224238D01*
X204869048Y-76224238D02*
X204964286Y-76176619D01*
X204964286Y-76176619D02*
X205202381Y-76176619D01*
X205202381Y-76176619D02*
X205297619Y-76224238D01*
X205297619Y-76224238D02*
X205345238Y-76271857D01*
X205345238Y-76271857D02*
X205392857Y-76367095D01*
X205392857Y-76367095D02*
X205392857Y-76462333D01*
X205392857Y-76462333D02*
X205345238Y-76605190D01*
X205345238Y-76605190D02*
X204773810Y-77176619D01*
X204773810Y-77176619D02*
X205392857Y-77176619D01*
%TO.C,U10*%
X229261905Y-84132619D02*
X229261905Y-84942142D01*
X229261905Y-84942142D02*
X229309524Y-85037380D01*
X229309524Y-85037380D02*
X229357143Y-85085000D01*
X229357143Y-85085000D02*
X229452381Y-85132619D01*
X229452381Y-85132619D02*
X229642857Y-85132619D01*
X229642857Y-85132619D02*
X229738095Y-85085000D01*
X229738095Y-85085000D02*
X229785714Y-85037380D01*
X229785714Y-85037380D02*
X229833333Y-84942142D01*
X229833333Y-84942142D02*
X229833333Y-84132619D01*
X230833333Y-85132619D02*
X230261905Y-85132619D01*
X230547619Y-85132619D02*
X230547619Y-84132619D01*
X230547619Y-84132619D02*
X230452381Y-84275476D01*
X230452381Y-84275476D02*
X230357143Y-84370714D01*
X230357143Y-84370714D02*
X230261905Y-84418333D01*
X231452381Y-84132619D02*
X231547619Y-84132619D01*
X231547619Y-84132619D02*
X231642857Y-84180238D01*
X231642857Y-84180238D02*
X231690476Y-84227857D01*
X231690476Y-84227857D02*
X231738095Y-84323095D01*
X231738095Y-84323095D02*
X231785714Y-84513571D01*
X231785714Y-84513571D02*
X231785714Y-84751666D01*
X231785714Y-84751666D02*
X231738095Y-84942142D01*
X231738095Y-84942142D02*
X231690476Y-85037380D01*
X231690476Y-85037380D02*
X231642857Y-85085000D01*
X231642857Y-85085000D02*
X231547619Y-85132619D01*
X231547619Y-85132619D02*
X231452381Y-85132619D01*
X231452381Y-85132619D02*
X231357143Y-85085000D01*
X231357143Y-85085000D02*
X231309524Y-85037380D01*
X231309524Y-85037380D02*
X231261905Y-84942142D01*
X231261905Y-84942142D02*
X231214286Y-84751666D01*
X231214286Y-84751666D02*
X231214286Y-84513571D01*
X231214286Y-84513571D02*
X231261905Y-84323095D01*
X231261905Y-84323095D02*
X231309524Y-84227857D01*
X231309524Y-84227857D02*
X231357143Y-84180238D01*
X231357143Y-84180238D02*
X231452381Y-84132619D01*
X226547619Y-85037380D02*
X226500000Y-85085000D01*
X226500000Y-85085000D02*
X226357143Y-85132619D01*
X226357143Y-85132619D02*
X226261905Y-85132619D01*
X226261905Y-85132619D02*
X226119048Y-85085000D01*
X226119048Y-85085000D02*
X226023810Y-84989761D01*
X226023810Y-84989761D02*
X225976191Y-84894523D01*
X225976191Y-84894523D02*
X225928572Y-84704047D01*
X225928572Y-84704047D02*
X225928572Y-84561190D01*
X225928572Y-84561190D02*
X225976191Y-84370714D01*
X225976191Y-84370714D02*
X226023810Y-84275476D01*
X226023810Y-84275476D02*
X226119048Y-84180238D01*
X226119048Y-84180238D02*
X226261905Y-84132619D01*
X226261905Y-84132619D02*
X226357143Y-84132619D01*
X226357143Y-84132619D02*
X226500000Y-84180238D01*
X226500000Y-84180238D02*
X226547619Y-84227857D01*
X226928572Y-84846904D02*
X227404762Y-84846904D01*
X226833334Y-85132619D02*
X227166667Y-84132619D01*
X227166667Y-84132619D02*
X227500000Y-85132619D01*
X227833334Y-85132619D02*
X227833334Y-84132619D01*
X227833334Y-84132619D02*
X228166667Y-84846904D01*
X228166667Y-84846904D02*
X228500000Y-84132619D01*
X228500000Y-84132619D02*
X228500000Y-85132619D01*
X228976191Y-84751666D02*
X229738096Y-84751666D01*
X230214286Y-85132619D02*
X230214286Y-84132619D01*
X230214286Y-84132619D02*
X230547619Y-84846904D01*
X230547619Y-84846904D02*
X230880952Y-84132619D01*
X230880952Y-84132619D02*
X230880952Y-85132619D01*
X231500000Y-84561190D02*
X231404762Y-84513571D01*
X231404762Y-84513571D02*
X231357143Y-84465952D01*
X231357143Y-84465952D02*
X231309524Y-84370714D01*
X231309524Y-84370714D02*
X231309524Y-84323095D01*
X231309524Y-84323095D02*
X231357143Y-84227857D01*
X231357143Y-84227857D02*
X231404762Y-84180238D01*
X231404762Y-84180238D02*
X231500000Y-84132619D01*
X231500000Y-84132619D02*
X231690476Y-84132619D01*
X231690476Y-84132619D02*
X231785714Y-84180238D01*
X231785714Y-84180238D02*
X231833333Y-84227857D01*
X231833333Y-84227857D02*
X231880952Y-84323095D01*
X231880952Y-84323095D02*
X231880952Y-84370714D01*
X231880952Y-84370714D02*
X231833333Y-84465952D01*
X231833333Y-84465952D02*
X231785714Y-84513571D01*
X231785714Y-84513571D02*
X231690476Y-84561190D01*
X231690476Y-84561190D02*
X231500000Y-84561190D01*
X231500000Y-84561190D02*
X231404762Y-84608809D01*
X231404762Y-84608809D02*
X231357143Y-84656428D01*
X231357143Y-84656428D02*
X231309524Y-84751666D01*
X231309524Y-84751666D02*
X231309524Y-84942142D01*
X231309524Y-84942142D02*
X231357143Y-85037380D01*
X231357143Y-85037380D02*
X231404762Y-85085000D01*
X231404762Y-85085000D02*
X231500000Y-85132619D01*
X231500000Y-85132619D02*
X231690476Y-85132619D01*
X231690476Y-85132619D02*
X231785714Y-85085000D01*
X231785714Y-85085000D02*
X231833333Y-85037380D01*
X231833333Y-85037380D02*
X231880952Y-84942142D01*
X231880952Y-84942142D02*
X231880952Y-84751666D01*
X231880952Y-84751666D02*
X231833333Y-84656428D01*
X231833333Y-84656428D02*
X231785714Y-84608809D01*
X231785714Y-84608809D02*
X231690476Y-84561190D01*
X232880952Y-85037380D02*
X232833333Y-85085000D01*
X232833333Y-85085000D02*
X232690476Y-85132619D01*
X232690476Y-85132619D02*
X232595238Y-85132619D01*
X232595238Y-85132619D02*
X232452381Y-85085000D01*
X232452381Y-85085000D02*
X232357143Y-84989761D01*
X232357143Y-84989761D02*
X232309524Y-84894523D01*
X232309524Y-84894523D02*
X232261905Y-84704047D01*
X232261905Y-84704047D02*
X232261905Y-84561190D01*
X232261905Y-84561190D02*
X232309524Y-84370714D01*
X232309524Y-84370714D02*
X232357143Y-84275476D01*
X232357143Y-84275476D02*
X232452381Y-84180238D01*
X232452381Y-84180238D02*
X232595238Y-84132619D01*
X232595238Y-84132619D02*
X232690476Y-84132619D01*
X232690476Y-84132619D02*
X232833333Y-84180238D01*
X232833333Y-84180238D02*
X232880952Y-84227857D01*
X233309524Y-84751666D02*
X234071429Y-84751666D01*
X234738095Y-84132619D02*
X234833333Y-84132619D01*
X234833333Y-84132619D02*
X234928571Y-84180238D01*
X234928571Y-84180238D02*
X234976190Y-84227857D01*
X234976190Y-84227857D02*
X235023809Y-84323095D01*
X235023809Y-84323095D02*
X235071428Y-84513571D01*
X235071428Y-84513571D02*
X235071428Y-84751666D01*
X235071428Y-84751666D02*
X235023809Y-84942142D01*
X235023809Y-84942142D02*
X234976190Y-85037380D01*
X234976190Y-85037380D02*
X234928571Y-85085000D01*
X234928571Y-85085000D02*
X234833333Y-85132619D01*
X234833333Y-85132619D02*
X234738095Y-85132619D01*
X234738095Y-85132619D02*
X234642857Y-85085000D01*
X234642857Y-85085000D02*
X234595238Y-85037380D01*
X234595238Y-85037380D02*
X234547619Y-84942142D01*
X234547619Y-84942142D02*
X234500000Y-84751666D01*
X234500000Y-84751666D02*
X234500000Y-84513571D01*
X234500000Y-84513571D02*
X234547619Y-84323095D01*
X234547619Y-84323095D02*
X234595238Y-84227857D01*
X234595238Y-84227857D02*
X234642857Y-84180238D01*
X234642857Y-84180238D02*
X234738095Y-84132619D01*
X230500000Y-84132619D02*
X230500000Y-84370714D01*
X230261905Y-84275476D02*
X230500000Y-84370714D01*
X230500000Y-84370714D02*
X230738095Y-84275476D01*
X230357143Y-84561190D02*
X230500000Y-84370714D01*
X230500000Y-84370714D02*
X230642857Y-84561190D01*
%TO.C,FID6*%
X242928571Y-94358809D02*
X242595238Y-94358809D01*
X242595238Y-94882619D02*
X242595238Y-93882619D01*
X242595238Y-93882619D02*
X243071428Y-93882619D01*
X243452381Y-94882619D02*
X243452381Y-93882619D01*
X243928571Y-94882619D02*
X243928571Y-93882619D01*
X243928571Y-93882619D02*
X244166666Y-93882619D01*
X244166666Y-93882619D02*
X244309523Y-93930238D01*
X244309523Y-93930238D02*
X244404761Y-94025476D01*
X244404761Y-94025476D02*
X244452380Y-94120714D01*
X244452380Y-94120714D02*
X244499999Y-94311190D01*
X244499999Y-94311190D02*
X244499999Y-94454047D01*
X244499999Y-94454047D02*
X244452380Y-94644523D01*
X244452380Y-94644523D02*
X244404761Y-94739761D01*
X244404761Y-94739761D02*
X244309523Y-94835000D01*
X244309523Y-94835000D02*
X244166666Y-94882619D01*
X244166666Y-94882619D02*
X243928571Y-94882619D01*
X245357142Y-93882619D02*
X245166666Y-93882619D01*
X245166666Y-93882619D02*
X245071428Y-93930238D01*
X245071428Y-93930238D02*
X245023809Y-93977857D01*
X245023809Y-93977857D02*
X244928571Y-94120714D01*
X244928571Y-94120714D02*
X244880952Y-94311190D01*
X244880952Y-94311190D02*
X244880952Y-94692142D01*
X244880952Y-94692142D02*
X244928571Y-94787380D01*
X244928571Y-94787380D02*
X244976190Y-94835000D01*
X244976190Y-94835000D02*
X245071428Y-94882619D01*
X245071428Y-94882619D02*
X245261904Y-94882619D01*
X245261904Y-94882619D02*
X245357142Y-94835000D01*
X245357142Y-94835000D02*
X245404761Y-94787380D01*
X245404761Y-94787380D02*
X245452380Y-94692142D01*
X245452380Y-94692142D02*
X245452380Y-94454047D01*
X245452380Y-94454047D02*
X245404761Y-94358809D01*
X245404761Y-94358809D02*
X245357142Y-94311190D01*
X245357142Y-94311190D02*
X245261904Y-94263571D01*
X245261904Y-94263571D02*
X245071428Y-94263571D01*
X245071428Y-94263571D02*
X244976190Y-94311190D01*
X244976190Y-94311190D02*
X244928571Y-94358809D01*
X244928571Y-94358809D02*
X244880952Y-94454047D01*
%TO.C,J11*%
X190704619Y-113839523D02*
X191418904Y-113839523D01*
X191418904Y-113839523D02*
X191561761Y-113887142D01*
X191561761Y-113887142D02*
X191657000Y-113982380D01*
X191657000Y-113982380D02*
X191704619Y-114125237D01*
X191704619Y-114125237D02*
X191704619Y-114220475D01*
X191704619Y-112839523D02*
X191704619Y-113410951D01*
X191704619Y-113125237D02*
X190704619Y-113125237D01*
X190704619Y-113125237D02*
X190847476Y-113220475D01*
X190847476Y-113220475D02*
X190942714Y-113315713D01*
X190942714Y-113315713D02*
X190990333Y-113410951D01*
X191704619Y-111887142D02*
X191704619Y-112458570D01*
X191704619Y-112172856D02*
X190704619Y-112172856D01*
X190704619Y-112172856D02*
X190847476Y-112268094D01*
X190847476Y-112268094D02*
X190942714Y-112363332D01*
X190942714Y-112363332D02*
X190990333Y-112458570D01*
%TO.C,C28*%
X192557142Y-97337380D02*
X192509523Y-97385000D01*
X192509523Y-97385000D02*
X192366666Y-97432619D01*
X192366666Y-97432619D02*
X192271428Y-97432619D01*
X192271428Y-97432619D02*
X192128571Y-97385000D01*
X192128571Y-97385000D02*
X192033333Y-97289761D01*
X192033333Y-97289761D02*
X191985714Y-97194523D01*
X191985714Y-97194523D02*
X191938095Y-97004047D01*
X191938095Y-97004047D02*
X191938095Y-96861190D01*
X191938095Y-96861190D02*
X191985714Y-96670714D01*
X191985714Y-96670714D02*
X192033333Y-96575476D01*
X192033333Y-96575476D02*
X192128571Y-96480238D01*
X192128571Y-96480238D02*
X192271428Y-96432619D01*
X192271428Y-96432619D02*
X192366666Y-96432619D01*
X192366666Y-96432619D02*
X192509523Y-96480238D01*
X192509523Y-96480238D02*
X192557142Y-96527857D01*
X192938095Y-96527857D02*
X192985714Y-96480238D01*
X192985714Y-96480238D02*
X193080952Y-96432619D01*
X193080952Y-96432619D02*
X193319047Y-96432619D01*
X193319047Y-96432619D02*
X193414285Y-96480238D01*
X193414285Y-96480238D02*
X193461904Y-96527857D01*
X193461904Y-96527857D02*
X193509523Y-96623095D01*
X193509523Y-96623095D02*
X193509523Y-96718333D01*
X193509523Y-96718333D02*
X193461904Y-96861190D01*
X193461904Y-96861190D02*
X192890476Y-97432619D01*
X192890476Y-97432619D02*
X193509523Y-97432619D01*
X194080952Y-96861190D02*
X193985714Y-96813571D01*
X193985714Y-96813571D02*
X193938095Y-96765952D01*
X193938095Y-96765952D02*
X193890476Y-96670714D01*
X193890476Y-96670714D02*
X193890476Y-96623095D01*
X193890476Y-96623095D02*
X193938095Y-96527857D01*
X193938095Y-96527857D02*
X193985714Y-96480238D01*
X193985714Y-96480238D02*
X194080952Y-96432619D01*
X194080952Y-96432619D02*
X194271428Y-96432619D01*
X194271428Y-96432619D02*
X194366666Y-96480238D01*
X194366666Y-96480238D02*
X194414285Y-96527857D01*
X194414285Y-96527857D02*
X194461904Y-96623095D01*
X194461904Y-96623095D02*
X194461904Y-96670714D01*
X194461904Y-96670714D02*
X194414285Y-96765952D01*
X194414285Y-96765952D02*
X194366666Y-96813571D01*
X194366666Y-96813571D02*
X194271428Y-96861190D01*
X194271428Y-96861190D02*
X194080952Y-96861190D01*
X194080952Y-96861190D02*
X193985714Y-96908809D01*
X193985714Y-96908809D02*
X193938095Y-96956428D01*
X193938095Y-96956428D02*
X193890476Y-97051666D01*
X193890476Y-97051666D02*
X193890476Y-97242142D01*
X193890476Y-97242142D02*
X193938095Y-97337380D01*
X193938095Y-97337380D02*
X193985714Y-97385000D01*
X193985714Y-97385000D02*
X194080952Y-97432619D01*
X194080952Y-97432619D02*
X194271428Y-97432619D01*
X194271428Y-97432619D02*
X194366666Y-97385000D01*
X194366666Y-97385000D02*
X194414285Y-97337380D01*
X194414285Y-97337380D02*
X194461904Y-97242142D01*
X194461904Y-97242142D02*
X194461904Y-97051666D01*
X194461904Y-97051666D02*
X194414285Y-96956428D01*
X194414285Y-96956428D02*
X194366666Y-96908809D01*
X194366666Y-96908809D02*
X194271428Y-96861190D01*
%TO.C,X2*%
X221215476Y-82632619D02*
X221882142Y-83632619D01*
X221882142Y-82632619D02*
X221215476Y-83632619D01*
X222215476Y-82727857D02*
X222263095Y-82680238D01*
X222263095Y-82680238D02*
X222358333Y-82632619D01*
X222358333Y-82632619D02*
X222596428Y-82632619D01*
X222596428Y-82632619D02*
X222691666Y-82680238D01*
X222691666Y-82680238D02*
X222739285Y-82727857D01*
X222739285Y-82727857D02*
X222786904Y-82823095D01*
X222786904Y-82823095D02*
X222786904Y-82918333D01*
X222786904Y-82918333D02*
X222739285Y-83061190D01*
X222739285Y-83061190D02*
X222167857Y-83632619D01*
X222167857Y-83632619D02*
X222786904Y-83632619D01*
%TO.C,D8*%
X234997905Y-111460619D02*
X234997905Y-110460619D01*
X234997905Y-110460619D02*
X235236000Y-110460619D01*
X235236000Y-110460619D02*
X235378857Y-110508238D01*
X235378857Y-110508238D02*
X235474095Y-110603476D01*
X235474095Y-110603476D02*
X235521714Y-110698714D01*
X235521714Y-110698714D02*
X235569333Y-110889190D01*
X235569333Y-110889190D02*
X235569333Y-111032047D01*
X235569333Y-111032047D02*
X235521714Y-111222523D01*
X235521714Y-111222523D02*
X235474095Y-111317761D01*
X235474095Y-111317761D02*
X235378857Y-111413000D01*
X235378857Y-111413000D02*
X235236000Y-111460619D01*
X235236000Y-111460619D02*
X234997905Y-111460619D01*
X236140762Y-110889190D02*
X236045524Y-110841571D01*
X236045524Y-110841571D02*
X235997905Y-110793952D01*
X235997905Y-110793952D02*
X235950286Y-110698714D01*
X235950286Y-110698714D02*
X235950286Y-110651095D01*
X235950286Y-110651095D02*
X235997905Y-110555857D01*
X235997905Y-110555857D02*
X236045524Y-110508238D01*
X236045524Y-110508238D02*
X236140762Y-110460619D01*
X236140762Y-110460619D02*
X236331238Y-110460619D01*
X236331238Y-110460619D02*
X236426476Y-110508238D01*
X236426476Y-110508238D02*
X236474095Y-110555857D01*
X236474095Y-110555857D02*
X236521714Y-110651095D01*
X236521714Y-110651095D02*
X236521714Y-110698714D01*
X236521714Y-110698714D02*
X236474095Y-110793952D01*
X236474095Y-110793952D02*
X236426476Y-110841571D01*
X236426476Y-110841571D02*
X236331238Y-110889190D01*
X236331238Y-110889190D02*
X236140762Y-110889190D01*
X236140762Y-110889190D02*
X236045524Y-110936809D01*
X236045524Y-110936809D02*
X235997905Y-110984428D01*
X235997905Y-110984428D02*
X235950286Y-111079666D01*
X235950286Y-111079666D02*
X235950286Y-111270142D01*
X235950286Y-111270142D02*
X235997905Y-111365380D01*
X235997905Y-111365380D02*
X236045524Y-111413000D01*
X236045524Y-111413000D02*
X236140762Y-111460619D01*
X236140762Y-111460619D02*
X236331238Y-111460619D01*
X236331238Y-111460619D02*
X236426476Y-111413000D01*
X236426476Y-111413000D02*
X236474095Y-111365380D01*
X236474095Y-111365380D02*
X236521714Y-111270142D01*
X236521714Y-111270142D02*
X236521714Y-111079666D01*
X236521714Y-111079666D02*
X236474095Y-110984428D01*
X236474095Y-110984428D02*
X236426476Y-110936809D01*
X236426476Y-110936809D02*
X236331238Y-110889190D01*
%TO.C,C22*%
X242119642Y-95037380D02*
X242072023Y-95085000D01*
X242072023Y-95085000D02*
X241929166Y-95132619D01*
X241929166Y-95132619D02*
X241833928Y-95132619D01*
X241833928Y-95132619D02*
X241691071Y-95085000D01*
X241691071Y-95085000D02*
X241595833Y-94989761D01*
X241595833Y-94989761D02*
X241548214Y-94894523D01*
X241548214Y-94894523D02*
X241500595Y-94704047D01*
X241500595Y-94704047D02*
X241500595Y-94561190D01*
X241500595Y-94561190D02*
X241548214Y-94370714D01*
X241548214Y-94370714D02*
X241595833Y-94275476D01*
X241595833Y-94275476D02*
X241691071Y-94180238D01*
X241691071Y-94180238D02*
X241833928Y-94132619D01*
X241833928Y-94132619D02*
X241929166Y-94132619D01*
X241929166Y-94132619D02*
X242072023Y-94180238D01*
X242072023Y-94180238D02*
X242119642Y-94227857D01*
X242500595Y-94227857D02*
X242548214Y-94180238D01*
X242548214Y-94180238D02*
X242643452Y-94132619D01*
X242643452Y-94132619D02*
X242881547Y-94132619D01*
X242881547Y-94132619D02*
X242976785Y-94180238D01*
X242976785Y-94180238D02*
X243024404Y-94227857D01*
X243024404Y-94227857D02*
X243072023Y-94323095D01*
X243072023Y-94323095D02*
X243072023Y-94418333D01*
X243072023Y-94418333D02*
X243024404Y-94561190D01*
X243024404Y-94561190D02*
X242452976Y-95132619D01*
X242452976Y-95132619D02*
X243072023Y-95132619D01*
X243452976Y-94227857D02*
X243500595Y-94180238D01*
X243500595Y-94180238D02*
X243595833Y-94132619D01*
X243595833Y-94132619D02*
X243833928Y-94132619D01*
X243833928Y-94132619D02*
X243929166Y-94180238D01*
X243929166Y-94180238D02*
X243976785Y-94227857D01*
X243976785Y-94227857D02*
X244024404Y-94323095D01*
X244024404Y-94323095D02*
X244024404Y-94418333D01*
X244024404Y-94418333D02*
X243976785Y-94561190D01*
X243976785Y-94561190D02*
X243405357Y-95132619D01*
X243405357Y-95132619D02*
X244024404Y-95132619D01*
%TO.C,D11*%
X200962619Y-101634285D02*
X199962619Y-101634285D01*
X199962619Y-101634285D02*
X199962619Y-101396190D01*
X199962619Y-101396190D02*
X200010238Y-101253333D01*
X200010238Y-101253333D02*
X200105476Y-101158095D01*
X200105476Y-101158095D02*
X200200714Y-101110476D01*
X200200714Y-101110476D02*
X200391190Y-101062857D01*
X200391190Y-101062857D02*
X200534047Y-101062857D01*
X200534047Y-101062857D02*
X200724523Y-101110476D01*
X200724523Y-101110476D02*
X200819761Y-101158095D01*
X200819761Y-101158095D02*
X200915000Y-101253333D01*
X200915000Y-101253333D02*
X200962619Y-101396190D01*
X200962619Y-101396190D02*
X200962619Y-101634285D01*
X200962619Y-100110476D02*
X200962619Y-100681904D01*
X200962619Y-100396190D02*
X199962619Y-100396190D01*
X199962619Y-100396190D02*
X200105476Y-100491428D01*
X200105476Y-100491428D02*
X200200714Y-100586666D01*
X200200714Y-100586666D02*
X200248333Y-100681904D01*
X200962619Y-99158095D02*
X200962619Y-99729523D01*
X200962619Y-99443809D02*
X199962619Y-99443809D01*
X199962619Y-99443809D02*
X200105476Y-99539047D01*
X200105476Y-99539047D02*
X200200714Y-99634285D01*
X200200714Y-99634285D02*
X200248333Y-99729523D01*
%TO.C,C18*%
X192907142Y-88087380D02*
X192859523Y-88135000D01*
X192859523Y-88135000D02*
X192716666Y-88182619D01*
X192716666Y-88182619D02*
X192621428Y-88182619D01*
X192621428Y-88182619D02*
X192478571Y-88135000D01*
X192478571Y-88135000D02*
X192383333Y-88039761D01*
X192383333Y-88039761D02*
X192335714Y-87944523D01*
X192335714Y-87944523D02*
X192288095Y-87754047D01*
X192288095Y-87754047D02*
X192288095Y-87611190D01*
X192288095Y-87611190D02*
X192335714Y-87420714D01*
X192335714Y-87420714D02*
X192383333Y-87325476D01*
X192383333Y-87325476D02*
X192478571Y-87230238D01*
X192478571Y-87230238D02*
X192621428Y-87182619D01*
X192621428Y-87182619D02*
X192716666Y-87182619D01*
X192716666Y-87182619D02*
X192859523Y-87230238D01*
X192859523Y-87230238D02*
X192907142Y-87277857D01*
X193859523Y-88182619D02*
X193288095Y-88182619D01*
X193573809Y-88182619D02*
X193573809Y-87182619D01*
X193573809Y-87182619D02*
X193478571Y-87325476D01*
X193478571Y-87325476D02*
X193383333Y-87420714D01*
X193383333Y-87420714D02*
X193288095Y-87468333D01*
X194430952Y-87611190D02*
X194335714Y-87563571D01*
X194335714Y-87563571D02*
X194288095Y-87515952D01*
X194288095Y-87515952D02*
X194240476Y-87420714D01*
X194240476Y-87420714D02*
X194240476Y-87373095D01*
X194240476Y-87373095D02*
X194288095Y-87277857D01*
X194288095Y-87277857D02*
X194335714Y-87230238D01*
X194335714Y-87230238D02*
X194430952Y-87182619D01*
X194430952Y-87182619D02*
X194621428Y-87182619D01*
X194621428Y-87182619D02*
X194716666Y-87230238D01*
X194716666Y-87230238D02*
X194764285Y-87277857D01*
X194764285Y-87277857D02*
X194811904Y-87373095D01*
X194811904Y-87373095D02*
X194811904Y-87420714D01*
X194811904Y-87420714D02*
X194764285Y-87515952D01*
X194764285Y-87515952D02*
X194716666Y-87563571D01*
X194716666Y-87563571D02*
X194621428Y-87611190D01*
X194621428Y-87611190D02*
X194430952Y-87611190D01*
X194430952Y-87611190D02*
X194335714Y-87658809D01*
X194335714Y-87658809D02*
X194288095Y-87706428D01*
X194288095Y-87706428D02*
X194240476Y-87801666D01*
X194240476Y-87801666D02*
X194240476Y-87992142D01*
X194240476Y-87992142D02*
X194288095Y-88087380D01*
X194288095Y-88087380D02*
X194335714Y-88135000D01*
X194335714Y-88135000D02*
X194430952Y-88182619D01*
X194430952Y-88182619D02*
X194621428Y-88182619D01*
X194621428Y-88182619D02*
X194716666Y-88135000D01*
X194716666Y-88135000D02*
X194764285Y-88087380D01*
X194764285Y-88087380D02*
X194811904Y-87992142D01*
X194811904Y-87992142D02*
X194811904Y-87801666D01*
X194811904Y-87801666D02*
X194764285Y-87706428D01*
X194764285Y-87706428D02*
X194716666Y-87658809D01*
X194716666Y-87658809D02*
X194621428Y-87611190D01*
%TO.C,FID5*%
X189678571Y-107358809D02*
X189345238Y-107358809D01*
X189345238Y-107882619D02*
X189345238Y-106882619D01*
X189345238Y-106882619D02*
X189821428Y-106882619D01*
X190202381Y-107882619D02*
X190202381Y-106882619D01*
X190678571Y-107882619D02*
X190678571Y-106882619D01*
X190678571Y-106882619D02*
X190916666Y-106882619D01*
X190916666Y-106882619D02*
X191059523Y-106930238D01*
X191059523Y-106930238D02*
X191154761Y-107025476D01*
X191154761Y-107025476D02*
X191202380Y-107120714D01*
X191202380Y-107120714D02*
X191249999Y-107311190D01*
X191249999Y-107311190D02*
X191249999Y-107454047D01*
X191249999Y-107454047D02*
X191202380Y-107644523D01*
X191202380Y-107644523D02*
X191154761Y-107739761D01*
X191154761Y-107739761D02*
X191059523Y-107835000D01*
X191059523Y-107835000D02*
X190916666Y-107882619D01*
X190916666Y-107882619D02*
X190678571Y-107882619D01*
X192154761Y-106882619D02*
X191678571Y-106882619D01*
X191678571Y-106882619D02*
X191630952Y-107358809D01*
X191630952Y-107358809D02*
X191678571Y-107311190D01*
X191678571Y-107311190D02*
X191773809Y-107263571D01*
X191773809Y-107263571D02*
X192011904Y-107263571D01*
X192011904Y-107263571D02*
X192107142Y-107311190D01*
X192107142Y-107311190D02*
X192154761Y-107358809D01*
X192154761Y-107358809D02*
X192202380Y-107454047D01*
X192202380Y-107454047D02*
X192202380Y-107692142D01*
X192202380Y-107692142D02*
X192154761Y-107787380D01*
X192154761Y-107787380D02*
X192107142Y-107835000D01*
X192107142Y-107835000D02*
X192011904Y-107882619D01*
X192011904Y-107882619D02*
X191773809Y-107882619D01*
X191773809Y-107882619D02*
X191678571Y-107835000D01*
X191678571Y-107835000D02*
X191630952Y-107787380D01*
%TO.C,F2*%
X193429166Y-83828809D02*
X193095833Y-83828809D01*
X193095833Y-84352619D02*
X193095833Y-83352619D01*
X193095833Y-83352619D02*
X193572023Y-83352619D01*
X193905357Y-83447857D02*
X193952976Y-83400238D01*
X193952976Y-83400238D02*
X194048214Y-83352619D01*
X194048214Y-83352619D02*
X194286309Y-83352619D01*
X194286309Y-83352619D02*
X194381547Y-83400238D01*
X194381547Y-83400238D02*
X194429166Y-83447857D01*
X194429166Y-83447857D02*
X194476785Y-83543095D01*
X194476785Y-83543095D02*
X194476785Y-83638333D01*
X194476785Y-83638333D02*
X194429166Y-83781190D01*
X194429166Y-83781190D02*
X193857738Y-84352619D01*
X193857738Y-84352619D02*
X194476785Y-84352619D01*
%TO.C,U6*%
X212888095Y-97032619D02*
X212888095Y-97842142D01*
X212888095Y-97842142D02*
X212935714Y-97937380D01*
X212935714Y-97937380D02*
X212983333Y-97985000D01*
X212983333Y-97985000D02*
X213078571Y-98032619D01*
X213078571Y-98032619D02*
X213269047Y-98032619D01*
X213269047Y-98032619D02*
X213364285Y-97985000D01*
X213364285Y-97985000D02*
X213411904Y-97937380D01*
X213411904Y-97937380D02*
X213459523Y-97842142D01*
X213459523Y-97842142D02*
X213459523Y-97032619D01*
X214364285Y-97032619D02*
X214173809Y-97032619D01*
X214173809Y-97032619D02*
X214078571Y-97080238D01*
X214078571Y-97080238D02*
X214030952Y-97127857D01*
X214030952Y-97127857D02*
X213935714Y-97270714D01*
X213935714Y-97270714D02*
X213888095Y-97461190D01*
X213888095Y-97461190D02*
X213888095Y-97842142D01*
X213888095Y-97842142D02*
X213935714Y-97937380D01*
X213935714Y-97937380D02*
X213983333Y-97985000D01*
X213983333Y-97985000D02*
X214078571Y-98032619D01*
X214078571Y-98032619D02*
X214269047Y-98032619D01*
X214269047Y-98032619D02*
X214364285Y-97985000D01*
X214364285Y-97985000D02*
X214411904Y-97937380D01*
X214411904Y-97937380D02*
X214459523Y-97842142D01*
X214459523Y-97842142D02*
X214459523Y-97604047D01*
X214459523Y-97604047D02*
X214411904Y-97508809D01*
X214411904Y-97508809D02*
X214364285Y-97461190D01*
X214364285Y-97461190D02*
X214269047Y-97413571D01*
X214269047Y-97413571D02*
X214078571Y-97413571D01*
X214078571Y-97413571D02*
X213983333Y-97461190D01*
X213983333Y-97461190D02*
X213935714Y-97508809D01*
X213935714Y-97508809D02*
X213888095Y-97604047D01*
%TO.C,J15*%
X200864619Y-113839523D02*
X201578904Y-113839523D01*
X201578904Y-113839523D02*
X201721761Y-113887142D01*
X201721761Y-113887142D02*
X201817000Y-113982380D01*
X201817000Y-113982380D02*
X201864619Y-114125237D01*
X201864619Y-114125237D02*
X201864619Y-114220475D01*
X201864619Y-112839523D02*
X201864619Y-113410951D01*
X201864619Y-113125237D02*
X200864619Y-113125237D01*
X200864619Y-113125237D02*
X201007476Y-113220475D01*
X201007476Y-113220475D02*
X201102714Y-113315713D01*
X201102714Y-113315713D02*
X201150333Y-113410951D01*
X200864619Y-111934761D02*
X200864619Y-112410951D01*
X200864619Y-112410951D02*
X201340809Y-112458570D01*
X201340809Y-112458570D02*
X201293190Y-112410951D01*
X201293190Y-112410951D02*
X201245571Y-112315713D01*
X201245571Y-112315713D02*
X201245571Y-112077618D01*
X201245571Y-112077618D02*
X201293190Y-111982380D01*
X201293190Y-111982380D02*
X201340809Y-111934761D01*
X201340809Y-111934761D02*
X201436047Y-111887142D01*
X201436047Y-111887142D02*
X201674142Y-111887142D01*
X201674142Y-111887142D02*
X201769380Y-111934761D01*
X201769380Y-111934761D02*
X201817000Y-111982380D01*
X201817000Y-111982380D02*
X201864619Y-112077618D01*
X201864619Y-112077618D02*
X201864619Y-112315713D01*
X201864619Y-112315713D02*
X201817000Y-112410951D01*
X201817000Y-112410951D02*
X201769380Y-112458570D01*
%TO.C,J13*%
X193244619Y-113839523D02*
X193958904Y-113839523D01*
X193958904Y-113839523D02*
X194101761Y-113887142D01*
X194101761Y-113887142D02*
X194197000Y-113982380D01*
X194197000Y-113982380D02*
X194244619Y-114125237D01*
X194244619Y-114125237D02*
X194244619Y-114220475D01*
X194244619Y-112839523D02*
X194244619Y-113410951D01*
X194244619Y-113125237D02*
X193244619Y-113125237D01*
X193244619Y-113125237D02*
X193387476Y-113220475D01*
X193387476Y-113220475D02*
X193482714Y-113315713D01*
X193482714Y-113315713D02*
X193530333Y-113410951D01*
X193244619Y-112506189D02*
X193244619Y-111887142D01*
X193244619Y-111887142D02*
X193625571Y-112220475D01*
X193625571Y-112220475D02*
X193625571Y-112077618D01*
X193625571Y-112077618D02*
X193673190Y-111982380D01*
X193673190Y-111982380D02*
X193720809Y-111934761D01*
X193720809Y-111934761D02*
X193816047Y-111887142D01*
X193816047Y-111887142D02*
X194054142Y-111887142D01*
X194054142Y-111887142D02*
X194149380Y-111934761D01*
X194149380Y-111934761D02*
X194197000Y-111982380D01*
X194197000Y-111982380D02*
X194244619Y-112077618D01*
X194244619Y-112077618D02*
X194244619Y-112363332D01*
X194244619Y-112363332D02*
X194197000Y-112458570D01*
X194197000Y-112458570D02*
X194149380Y-112506189D01*
%TO.C,D10*%
X205770619Y-92008285D02*
X204770619Y-92008285D01*
X204770619Y-92008285D02*
X204770619Y-91770190D01*
X204770619Y-91770190D02*
X204818238Y-91627333D01*
X204818238Y-91627333D02*
X204913476Y-91532095D01*
X204913476Y-91532095D02*
X205008714Y-91484476D01*
X205008714Y-91484476D02*
X205199190Y-91436857D01*
X205199190Y-91436857D02*
X205342047Y-91436857D01*
X205342047Y-91436857D02*
X205532523Y-91484476D01*
X205532523Y-91484476D02*
X205627761Y-91532095D01*
X205627761Y-91532095D02*
X205723000Y-91627333D01*
X205723000Y-91627333D02*
X205770619Y-91770190D01*
X205770619Y-91770190D02*
X205770619Y-92008285D01*
X205770619Y-90484476D02*
X205770619Y-91055904D01*
X205770619Y-90770190D02*
X204770619Y-90770190D01*
X204770619Y-90770190D02*
X204913476Y-90865428D01*
X204913476Y-90865428D02*
X205008714Y-90960666D01*
X205008714Y-90960666D02*
X205056333Y-91055904D01*
X204770619Y-89865428D02*
X204770619Y-89770190D01*
X204770619Y-89770190D02*
X204818238Y-89674952D01*
X204818238Y-89674952D02*
X204865857Y-89627333D01*
X204865857Y-89627333D02*
X204961095Y-89579714D01*
X204961095Y-89579714D02*
X205151571Y-89532095D01*
X205151571Y-89532095D02*
X205389666Y-89532095D01*
X205389666Y-89532095D02*
X205580142Y-89579714D01*
X205580142Y-89579714D02*
X205675380Y-89627333D01*
X205675380Y-89627333D02*
X205723000Y-89674952D01*
X205723000Y-89674952D02*
X205770619Y-89770190D01*
X205770619Y-89770190D02*
X205770619Y-89865428D01*
X205770619Y-89865428D02*
X205723000Y-89960666D01*
X205723000Y-89960666D02*
X205675380Y-90008285D01*
X205675380Y-90008285D02*
X205580142Y-90055904D01*
X205580142Y-90055904D02*
X205389666Y-90103523D01*
X205389666Y-90103523D02*
X205151571Y-90103523D01*
X205151571Y-90103523D02*
X204961095Y-90055904D01*
X204961095Y-90055904D02*
X204865857Y-90008285D01*
X204865857Y-90008285D02*
X204818238Y-89960666D01*
X204818238Y-89960666D02*
X204770619Y-89865428D01*
%TO.C,J14*%
X246512619Y-86479523D02*
X247226904Y-86479523D01*
X247226904Y-86479523D02*
X247369761Y-86527142D01*
X247369761Y-86527142D02*
X247465000Y-86622380D01*
X247465000Y-86622380D02*
X247512619Y-86765237D01*
X247512619Y-86765237D02*
X247512619Y-86860475D01*
X247512619Y-85479523D02*
X247512619Y-86050951D01*
X247512619Y-85765237D02*
X246512619Y-85765237D01*
X246512619Y-85765237D02*
X246655476Y-85860475D01*
X246655476Y-85860475D02*
X246750714Y-85955713D01*
X246750714Y-85955713D02*
X246798333Y-86050951D01*
X246845952Y-84622380D02*
X247512619Y-84622380D01*
X246465000Y-84860475D02*
X247179285Y-85098570D01*
X247179285Y-85098570D02*
X247179285Y-84479523D01*
%TO.C,J9*%
X233571666Y-121053619D02*
X233571666Y-121767904D01*
X233571666Y-121767904D02*
X233524047Y-121910761D01*
X233524047Y-121910761D02*
X233428809Y-122006000D01*
X233428809Y-122006000D02*
X233285952Y-122053619D01*
X233285952Y-122053619D02*
X233190714Y-122053619D01*
X234095476Y-122053619D02*
X234285952Y-122053619D01*
X234285952Y-122053619D02*
X234381190Y-122006000D01*
X234381190Y-122006000D02*
X234428809Y-121958380D01*
X234428809Y-121958380D02*
X234524047Y-121815523D01*
X234524047Y-121815523D02*
X234571666Y-121625047D01*
X234571666Y-121625047D02*
X234571666Y-121244095D01*
X234571666Y-121244095D02*
X234524047Y-121148857D01*
X234524047Y-121148857D02*
X234476428Y-121101238D01*
X234476428Y-121101238D02*
X234381190Y-121053619D01*
X234381190Y-121053619D02*
X234190714Y-121053619D01*
X234190714Y-121053619D02*
X234095476Y-121101238D01*
X234095476Y-121101238D02*
X234047857Y-121148857D01*
X234047857Y-121148857D02*
X234000238Y-121244095D01*
X234000238Y-121244095D02*
X234000238Y-121482190D01*
X234000238Y-121482190D02*
X234047857Y-121577428D01*
X234047857Y-121577428D02*
X234095476Y-121625047D01*
X234095476Y-121625047D02*
X234190714Y-121672666D01*
X234190714Y-121672666D02*
X234381190Y-121672666D01*
X234381190Y-121672666D02*
X234476428Y-121625047D01*
X234476428Y-121625047D02*
X234524047Y-121577428D01*
X234524047Y-121577428D02*
X234571666Y-121482190D01*
%TO.C,C21*%
X207937380Y-95025357D02*
X207985000Y-95072976D01*
X207985000Y-95072976D02*
X208032619Y-95215833D01*
X208032619Y-95215833D02*
X208032619Y-95311071D01*
X208032619Y-95311071D02*
X207985000Y-95453928D01*
X207985000Y-95453928D02*
X207889761Y-95549166D01*
X207889761Y-95549166D02*
X207794523Y-95596785D01*
X207794523Y-95596785D02*
X207604047Y-95644404D01*
X207604047Y-95644404D02*
X207461190Y-95644404D01*
X207461190Y-95644404D02*
X207270714Y-95596785D01*
X207270714Y-95596785D02*
X207175476Y-95549166D01*
X207175476Y-95549166D02*
X207080238Y-95453928D01*
X207080238Y-95453928D02*
X207032619Y-95311071D01*
X207032619Y-95311071D02*
X207032619Y-95215833D01*
X207032619Y-95215833D02*
X207080238Y-95072976D01*
X207080238Y-95072976D02*
X207127857Y-95025357D01*
X207127857Y-94644404D02*
X207080238Y-94596785D01*
X207080238Y-94596785D02*
X207032619Y-94501547D01*
X207032619Y-94501547D02*
X207032619Y-94263452D01*
X207032619Y-94263452D02*
X207080238Y-94168214D01*
X207080238Y-94168214D02*
X207127857Y-94120595D01*
X207127857Y-94120595D02*
X207223095Y-94072976D01*
X207223095Y-94072976D02*
X207318333Y-94072976D01*
X207318333Y-94072976D02*
X207461190Y-94120595D01*
X207461190Y-94120595D02*
X208032619Y-94692023D01*
X208032619Y-94692023D02*
X208032619Y-94072976D01*
X208032619Y-93120595D02*
X208032619Y-93692023D01*
X208032619Y-93406309D02*
X207032619Y-93406309D01*
X207032619Y-93406309D02*
X207175476Y-93501547D01*
X207175476Y-93501547D02*
X207270714Y-93596785D01*
X207270714Y-93596785D02*
X207318333Y-93692023D01*
%TO.C,J10*%
X214440476Y-76176619D02*
X214440476Y-76890904D01*
X214440476Y-76890904D02*
X214392857Y-77033761D01*
X214392857Y-77033761D02*
X214297619Y-77129000D01*
X214297619Y-77129000D02*
X214154762Y-77176619D01*
X214154762Y-77176619D02*
X214059524Y-77176619D01*
X215440476Y-77176619D02*
X214869048Y-77176619D01*
X215154762Y-77176619D02*
X215154762Y-76176619D01*
X215154762Y-76176619D02*
X215059524Y-76319476D01*
X215059524Y-76319476D02*
X214964286Y-76414714D01*
X214964286Y-76414714D02*
X214869048Y-76462333D01*
X216059524Y-76176619D02*
X216154762Y-76176619D01*
X216154762Y-76176619D02*
X216250000Y-76224238D01*
X216250000Y-76224238D02*
X216297619Y-76271857D01*
X216297619Y-76271857D02*
X216345238Y-76367095D01*
X216345238Y-76367095D02*
X216392857Y-76557571D01*
X216392857Y-76557571D02*
X216392857Y-76795666D01*
X216392857Y-76795666D02*
X216345238Y-76986142D01*
X216345238Y-76986142D02*
X216297619Y-77081380D01*
X216297619Y-77081380D02*
X216250000Y-77129000D01*
X216250000Y-77129000D02*
X216154762Y-77176619D01*
X216154762Y-77176619D02*
X216059524Y-77176619D01*
X216059524Y-77176619D02*
X215964286Y-77129000D01*
X215964286Y-77129000D02*
X215916667Y-77081380D01*
X215916667Y-77081380D02*
X215869048Y-76986142D01*
X215869048Y-76986142D02*
X215821429Y-76795666D01*
X215821429Y-76795666D02*
X215821429Y-76557571D01*
X215821429Y-76557571D02*
X215869048Y-76367095D01*
X215869048Y-76367095D02*
X215916667Y-76271857D01*
X215916667Y-76271857D02*
X215964286Y-76224238D01*
X215964286Y-76224238D02*
X216059524Y-76176619D01*
%TO.C,C19*%
X196187380Y-95350357D02*
X196235000Y-95397976D01*
X196235000Y-95397976D02*
X196282619Y-95540833D01*
X196282619Y-95540833D02*
X196282619Y-95636071D01*
X196282619Y-95636071D02*
X196235000Y-95778928D01*
X196235000Y-95778928D02*
X196139761Y-95874166D01*
X196139761Y-95874166D02*
X196044523Y-95921785D01*
X196044523Y-95921785D02*
X195854047Y-95969404D01*
X195854047Y-95969404D02*
X195711190Y-95969404D01*
X195711190Y-95969404D02*
X195520714Y-95921785D01*
X195520714Y-95921785D02*
X195425476Y-95874166D01*
X195425476Y-95874166D02*
X195330238Y-95778928D01*
X195330238Y-95778928D02*
X195282619Y-95636071D01*
X195282619Y-95636071D02*
X195282619Y-95540833D01*
X195282619Y-95540833D02*
X195330238Y-95397976D01*
X195330238Y-95397976D02*
X195377857Y-95350357D01*
X196282619Y-94397976D02*
X196282619Y-94969404D01*
X196282619Y-94683690D02*
X195282619Y-94683690D01*
X195282619Y-94683690D02*
X195425476Y-94778928D01*
X195425476Y-94778928D02*
X195520714Y-94874166D01*
X195520714Y-94874166D02*
X195568333Y-94969404D01*
X196282619Y-93921785D02*
X196282619Y-93731309D01*
X196282619Y-93731309D02*
X196235000Y-93636071D01*
X196235000Y-93636071D02*
X196187380Y-93588452D01*
X196187380Y-93588452D02*
X196044523Y-93493214D01*
X196044523Y-93493214D02*
X195854047Y-93445595D01*
X195854047Y-93445595D02*
X195473095Y-93445595D01*
X195473095Y-93445595D02*
X195377857Y-93493214D01*
X195377857Y-93493214D02*
X195330238Y-93540833D01*
X195330238Y-93540833D02*
X195282619Y-93636071D01*
X195282619Y-93636071D02*
X195282619Y-93826547D01*
X195282619Y-93826547D02*
X195330238Y-93921785D01*
X195330238Y-93921785D02*
X195377857Y-93969404D01*
X195377857Y-93969404D02*
X195473095Y-94017023D01*
X195473095Y-94017023D02*
X195711190Y-94017023D01*
X195711190Y-94017023D02*
X195806428Y-93969404D01*
X195806428Y-93969404D02*
X195854047Y-93921785D01*
X195854047Y-93921785D02*
X195901666Y-93826547D01*
X195901666Y-93826547D02*
X195901666Y-93636071D01*
X195901666Y-93636071D02*
X195854047Y-93540833D01*
X195854047Y-93540833D02*
X195806428Y-93493214D01*
X195806428Y-93493214D02*
X195711190Y-93445595D01*
%TO.C,R15*%
X221107142Y-105482619D02*
X220773809Y-105006428D01*
X220535714Y-105482619D02*
X220535714Y-104482619D01*
X220535714Y-104482619D02*
X220916666Y-104482619D01*
X220916666Y-104482619D02*
X221011904Y-104530238D01*
X221011904Y-104530238D02*
X221059523Y-104577857D01*
X221059523Y-104577857D02*
X221107142Y-104673095D01*
X221107142Y-104673095D02*
X221107142Y-104815952D01*
X221107142Y-104815952D02*
X221059523Y-104911190D01*
X221059523Y-104911190D02*
X221011904Y-104958809D01*
X221011904Y-104958809D02*
X220916666Y-105006428D01*
X220916666Y-105006428D02*
X220535714Y-105006428D01*
X222059523Y-105482619D02*
X221488095Y-105482619D01*
X221773809Y-105482619D02*
X221773809Y-104482619D01*
X221773809Y-104482619D02*
X221678571Y-104625476D01*
X221678571Y-104625476D02*
X221583333Y-104720714D01*
X221583333Y-104720714D02*
X221488095Y-104768333D01*
X222964285Y-104482619D02*
X222488095Y-104482619D01*
X222488095Y-104482619D02*
X222440476Y-104958809D01*
X222440476Y-104958809D02*
X222488095Y-104911190D01*
X222488095Y-104911190D02*
X222583333Y-104863571D01*
X222583333Y-104863571D02*
X222821428Y-104863571D01*
X222821428Y-104863571D02*
X222916666Y-104911190D01*
X222916666Y-104911190D02*
X222964285Y-104958809D01*
X222964285Y-104958809D02*
X223011904Y-105054047D01*
X223011904Y-105054047D02*
X223011904Y-105292142D01*
X223011904Y-105292142D02*
X222964285Y-105387380D01*
X222964285Y-105387380D02*
X222916666Y-105435000D01*
X222916666Y-105435000D02*
X222821428Y-105482619D01*
X222821428Y-105482619D02*
X222583333Y-105482619D01*
X222583333Y-105482619D02*
X222488095Y-105435000D01*
X222488095Y-105435000D02*
X222440476Y-105387380D01*
%TO.C,C17*%
X215894642Y-102857380D02*
X215847023Y-102905000D01*
X215847023Y-102905000D02*
X215704166Y-102952619D01*
X215704166Y-102952619D02*
X215608928Y-102952619D01*
X215608928Y-102952619D02*
X215466071Y-102905000D01*
X215466071Y-102905000D02*
X215370833Y-102809761D01*
X215370833Y-102809761D02*
X215323214Y-102714523D01*
X215323214Y-102714523D02*
X215275595Y-102524047D01*
X215275595Y-102524047D02*
X215275595Y-102381190D01*
X215275595Y-102381190D02*
X215323214Y-102190714D01*
X215323214Y-102190714D02*
X215370833Y-102095476D01*
X215370833Y-102095476D02*
X215466071Y-102000238D01*
X215466071Y-102000238D02*
X215608928Y-101952619D01*
X215608928Y-101952619D02*
X215704166Y-101952619D01*
X215704166Y-101952619D02*
X215847023Y-102000238D01*
X215847023Y-102000238D02*
X215894642Y-102047857D01*
X216847023Y-102952619D02*
X216275595Y-102952619D01*
X216561309Y-102952619D02*
X216561309Y-101952619D01*
X216561309Y-101952619D02*
X216466071Y-102095476D01*
X216466071Y-102095476D02*
X216370833Y-102190714D01*
X216370833Y-102190714D02*
X216275595Y-102238333D01*
X217180357Y-101952619D02*
X217847023Y-101952619D01*
X217847023Y-101952619D02*
X217418452Y-102952619D01*
%TO.C,R13*%
X201562619Y-87062857D02*
X201086428Y-87396190D01*
X201562619Y-87634285D02*
X200562619Y-87634285D01*
X200562619Y-87634285D02*
X200562619Y-87253333D01*
X200562619Y-87253333D02*
X200610238Y-87158095D01*
X200610238Y-87158095D02*
X200657857Y-87110476D01*
X200657857Y-87110476D02*
X200753095Y-87062857D01*
X200753095Y-87062857D02*
X200895952Y-87062857D01*
X200895952Y-87062857D02*
X200991190Y-87110476D01*
X200991190Y-87110476D02*
X201038809Y-87158095D01*
X201038809Y-87158095D02*
X201086428Y-87253333D01*
X201086428Y-87253333D02*
X201086428Y-87634285D01*
X201562619Y-86110476D02*
X201562619Y-86681904D01*
X201562619Y-86396190D02*
X200562619Y-86396190D01*
X200562619Y-86396190D02*
X200705476Y-86491428D01*
X200705476Y-86491428D02*
X200800714Y-86586666D01*
X200800714Y-86586666D02*
X200848333Y-86681904D01*
X200562619Y-85777142D02*
X200562619Y-85158095D01*
X200562619Y-85158095D02*
X200943571Y-85491428D01*
X200943571Y-85491428D02*
X200943571Y-85348571D01*
X200943571Y-85348571D02*
X200991190Y-85253333D01*
X200991190Y-85253333D02*
X201038809Y-85205714D01*
X201038809Y-85205714D02*
X201134047Y-85158095D01*
X201134047Y-85158095D02*
X201372142Y-85158095D01*
X201372142Y-85158095D02*
X201467380Y-85205714D01*
X201467380Y-85205714D02*
X201515000Y-85253333D01*
X201515000Y-85253333D02*
X201562619Y-85348571D01*
X201562619Y-85348571D02*
X201562619Y-85634285D01*
X201562619Y-85634285D02*
X201515000Y-85729523D01*
X201515000Y-85729523D02*
X201467380Y-85777142D01*
%TO.C,Y3*%
X242186428Y-99546190D02*
X242662619Y-99546190D01*
X241662619Y-99879523D02*
X242186428Y-99546190D01*
X242186428Y-99546190D02*
X241662619Y-99212857D01*
X241662619Y-98974761D02*
X241662619Y-98355714D01*
X241662619Y-98355714D02*
X242043571Y-98689047D01*
X242043571Y-98689047D02*
X242043571Y-98546190D01*
X242043571Y-98546190D02*
X242091190Y-98450952D01*
X242091190Y-98450952D02*
X242138809Y-98403333D01*
X242138809Y-98403333D02*
X242234047Y-98355714D01*
X242234047Y-98355714D02*
X242472142Y-98355714D01*
X242472142Y-98355714D02*
X242567380Y-98403333D01*
X242567380Y-98403333D02*
X242615000Y-98450952D01*
X242615000Y-98450952D02*
X242662619Y-98546190D01*
X242662619Y-98546190D02*
X242662619Y-98831904D01*
X242662619Y-98831904D02*
X242615000Y-98927142D01*
X242615000Y-98927142D02*
X242567380Y-98974761D01*
%TO.C,C20*%
X236894642Y-109107380D02*
X236847023Y-109155000D01*
X236847023Y-109155000D02*
X236704166Y-109202619D01*
X236704166Y-109202619D02*
X236608928Y-109202619D01*
X236608928Y-109202619D02*
X236466071Y-109155000D01*
X236466071Y-109155000D02*
X236370833Y-109059761D01*
X236370833Y-109059761D02*
X236323214Y-108964523D01*
X236323214Y-108964523D02*
X236275595Y-108774047D01*
X236275595Y-108774047D02*
X236275595Y-108631190D01*
X236275595Y-108631190D02*
X236323214Y-108440714D01*
X236323214Y-108440714D02*
X236370833Y-108345476D01*
X236370833Y-108345476D02*
X236466071Y-108250238D01*
X236466071Y-108250238D02*
X236608928Y-108202619D01*
X236608928Y-108202619D02*
X236704166Y-108202619D01*
X236704166Y-108202619D02*
X236847023Y-108250238D01*
X236847023Y-108250238D02*
X236894642Y-108297857D01*
X237275595Y-108297857D02*
X237323214Y-108250238D01*
X237323214Y-108250238D02*
X237418452Y-108202619D01*
X237418452Y-108202619D02*
X237656547Y-108202619D01*
X237656547Y-108202619D02*
X237751785Y-108250238D01*
X237751785Y-108250238D02*
X237799404Y-108297857D01*
X237799404Y-108297857D02*
X237847023Y-108393095D01*
X237847023Y-108393095D02*
X237847023Y-108488333D01*
X237847023Y-108488333D02*
X237799404Y-108631190D01*
X237799404Y-108631190D02*
X237227976Y-109202619D01*
X237227976Y-109202619D02*
X237847023Y-109202619D01*
X238466071Y-108202619D02*
X238561309Y-108202619D01*
X238561309Y-108202619D02*
X238656547Y-108250238D01*
X238656547Y-108250238D02*
X238704166Y-108297857D01*
X238704166Y-108297857D02*
X238751785Y-108393095D01*
X238751785Y-108393095D02*
X238799404Y-108583571D01*
X238799404Y-108583571D02*
X238799404Y-108821666D01*
X238799404Y-108821666D02*
X238751785Y-109012142D01*
X238751785Y-109012142D02*
X238704166Y-109107380D01*
X238704166Y-109107380D02*
X238656547Y-109155000D01*
X238656547Y-109155000D02*
X238561309Y-109202619D01*
X238561309Y-109202619D02*
X238466071Y-109202619D01*
X238466071Y-109202619D02*
X238370833Y-109155000D01*
X238370833Y-109155000D02*
X238323214Y-109107380D01*
X238323214Y-109107380D02*
X238275595Y-109012142D01*
X238275595Y-109012142D02*
X238227976Y-108821666D01*
X238227976Y-108821666D02*
X238227976Y-108583571D01*
X238227976Y-108583571D02*
X238275595Y-108393095D01*
X238275595Y-108393095D02*
X238323214Y-108297857D01*
X238323214Y-108297857D02*
X238370833Y-108250238D01*
X238370833Y-108250238D02*
X238466071Y-108202619D01*
%TO.C,C12*%
X176912380Y-89006357D02*
X176960000Y-89053976D01*
X176960000Y-89053976D02*
X177007619Y-89196833D01*
X177007619Y-89196833D02*
X177007619Y-89292071D01*
X177007619Y-89292071D02*
X176960000Y-89434928D01*
X176960000Y-89434928D02*
X176864761Y-89530166D01*
X176864761Y-89530166D02*
X176769523Y-89577785D01*
X176769523Y-89577785D02*
X176579047Y-89625404D01*
X176579047Y-89625404D02*
X176436190Y-89625404D01*
X176436190Y-89625404D02*
X176245714Y-89577785D01*
X176245714Y-89577785D02*
X176150476Y-89530166D01*
X176150476Y-89530166D02*
X176055238Y-89434928D01*
X176055238Y-89434928D02*
X176007619Y-89292071D01*
X176007619Y-89292071D02*
X176007619Y-89196833D01*
X176007619Y-89196833D02*
X176055238Y-89053976D01*
X176055238Y-89053976D02*
X176102857Y-89006357D01*
X177007619Y-88053976D02*
X177007619Y-88625404D01*
X177007619Y-88339690D02*
X176007619Y-88339690D01*
X176007619Y-88339690D02*
X176150476Y-88434928D01*
X176150476Y-88434928D02*
X176245714Y-88530166D01*
X176245714Y-88530166D02*
X176293333Y-88625404D01*
X176102857Y-87673023D02*
X176055238Y-87625404D01*
X176055238Y-87625404D02*
X176007619Y-87530166D01*
X176007619Y-87530166D02*
X176007619Y-87292071D01*
X176007619Y-87292071D02*
X176055238Y-87196833D01*
X176055238Y-87196833D02*
X176102857Y-87149214D01*
X176102857Y-87149214D02*
X176198095Y-87101595D01*
X176198095Y-87101595D02*
X176293333Y-87101595D01*
X176293333Y-87101595D02*
X176436190Y-87149214D01*
X176436190Y-87149214D02*
X177007619Y-87720642D01*
X177007619Y-87720642D02*
X177007619Y-87101595D01*
%TO.C,R8*%
X159583333Y-105482619D02*
X159250000Y-105006428D01*
X159011905Y-105482619D02*
X159011905Y-104482619D01*
X159011905Y-104482619D02*
X159392857Y-104482619D01*
X159392857Y-104482619D02*
X159488095Y-104530238D01*
X159488095Y-104530238D02*
X159535714Y-104577857D01*
X159535714Y-104577857D02*
X159583333Y-104673095D01*
X159583333Y-104673095D02*
X159583333Y-104815952D01*
X159583333Y-104815952D02*
X159535714Y-104911190D01*
X159535714Y-104911190D02*
X159488095Y-104958809D01*
X159488095Y-104958809D02*
X159392857Y-105006428D01*
X159392857Y-105006428D02*
X159011905Y-105006428D01*
X160154762Y-104911190D02*
X160059524Y-104863571D01*
X160059524Y-104863571D02*
X160011905Y-104815952D01*
X160011905Y-104815952D02*
X159964286Y-104720714D01*
X159964286Y-104720714D02*
X159964286Y-104673095D01*
X159964286Y-104673095D02*
X160011905Y-104577857D01*
X160011905Y-104577857D02*
X160059524Y-104530238D01*
X160059524Y-104530238D02*
X160154762Y-104482619D01*
X160154762Y-104482619D02*
X160345238Y-104482619D01*
X160345238Y-104482619D02*
X160440476Y-104530238D01*
X160440476Y-104530238D02*
X160488095Y-104577857D01*
X160488095Y-104577857D02*
X160535714Y-104673095D01*
X160535714Y-104673095D02*
X160535714Y-104720714D01*
X160535714Y-104720714D02*
X160488095Y-104815952D01*
X160488095Y-104815952D02*
X160440476Y-104863571D01*
X160440476Y-104863571D02*
X160345238Y-104911190D01*
X160345238Y-104911190D02*
X160154762Y-104911190D01*
X160154762Y-104911190D02*
X160059524Y-104958809D01*
X160059524Y-104958809D02*
X160011905Y-105006428D01*
X160011905Y-105006428D02*
X159964286Y-105101666D01*
X159964286Y-105101666D02*
X159964286Y-105292142D01*
X159964286Y-105292142D02*
X160011905Y-105387380D01*
X160011905Y-105387380D02*
X160059524Y-105435000D01*
X160059524Y-105435000D02*
X160154762Y-105482619D01*
X160154762Y-105482619D02*
X160345238Y-105482619D01*
X160345238Y-105482619D02*
X160440476Y-105435000D01*
X160440476Y-105435000D02*
X160488095Y-105387380D01*
X160488095Y-105387380D02*
X160535714Y-105292142D01*
X160535714Y-105292142D02*
X160535714Y-105101666D01*
X160535714Y-105101666D02*
X160488095Y-105006428D01*
X160488095Y-105006428D02*
X160440476Y-104958809D01*
X160440476Y-104958809D02*
X160345238Y-104911190D01*
%TO.C,H1*%
X130048095Y-77161619D02*
X130048095Y-76161619D01*
X130048095Y-76637809D02*
X130619523Y-76637809D01*
X130619523Y-77161619D02*
X130619523Y-76161619D01*
X131619523Y-77161619D02*
X131048095Y-77161619D01*
X131333809Y-77161619D02*
X131333809Y-76161619D01*
X131333809Y-76161619D02*
X131238571Y-76304476D01*
X131238571Y-76304476D02*
X131143333Y-76399714D01*
X131143333Y-76399714D02*
X131048095Y-76447333D01*
%TO.C,R3*%
X159583333Y-101482619D02*
X159250000Y-101006428D01*
X159011905Y-101482619D02*
X159011905Y-100482619D01*
X159011905Y-100482619D02*
X159392857Y-100482619D01*
X159392857Y-100482619D02*
X159488095Y-100530238D01*
X159488095Y-100530238D02*
X159535714Y-100577857D01*
X159535714Y-100577857D02*
X159583333Y-100673095D01*
X159583333Y-100673095D02*
X159583333Y-100815952D01*
X159583333Y-100815952D02*
X159535714Y-100911190D01*
X159535714Y-100911190D02*
X159488095Y-100958809D01*
X159488095Y-100958809D02*
X159392857Y-101006428D01*
X159392857Y-101006428D02*
X159011905Y-101006428D01*
X159916667Y-100482619D02*
X160535714Y-100482619D01*
X160535714Y-100482619D02*
X160202381Y-100863571D01*
X160202381Y-100863571D02*
X160345238Y-100863571D01*
X160345238Y-100863571D02*
X160440476Y-100911190D01*
X160440476Y-100911190D02*
X160488095Y-100958809D01*
X160488095Y-100958809D02*
X160535714Y-101054047D01*
X160535714Y-101054047D02*
X160535714Y-101292142D01*
X160535714Y-101292142D02*
X160488095Y-101387380D01*
X160488095Y-101387380D02*
X160440476Y-101435000D01*
X160440476Y-101435000D02*
X160345238Y-101482619D01*
X160345238Y-101482619D02*
X160059524Y-101482619D01*
X160059524Y-101482619D02*
X159964286Y-101435000D01*
X159964286Y-101435000D02*
X159916667Y-101387380D01*
%TO.C,C10*%
X146117380Y-83912857D02*
X146165000Y-83960476D01*
X146165000Y-83960476D02*
X146212619Y-84103333D01*
X146212619Y-84103333D02*
X146212619Y-84198571D01*
X146212619Y-84198571D02*
X146165000Y-84341428D01*
X146165000Y-84341428D02*
X146069761Y-84436666D01*
X146069761Y-84436666D02*
X145974523Y-84484285D01*
X145974523Y-84484285D02*
X145784047Y-84531904D01*
X145784047Y-84531904D02*
X145641190Y-84531904D01*
X145641190Y-84531904D02*
X145450714Y-84484285D01*
X145450714Y-84484285D02*
X145355476Y-84436666D01*
X145355476Y-84436666D02*
X145260238Y-84341428D01*
X145260238Y-84341428D02*
X145212619Y-84198571D01*
X145212619Y-84198571D02*
X145212619Y-84103333D01*
X145212619Y-84103333D02*
X145260238Y-83960476D01*
X145260238Y-83960476D02*
X145307857Y-83912857D01*
X146212619Y-82960476D02*
X146212619Y-83531904D01*
X146212619Y-83246190D02*
X145212619Y-83246190D01*
X145212619Y-83246190D02*
X145355476Y-83341428D01*
X145355476Y-83341428D02*
X145450714Y-83436666D01*
X145450714Y-83436666D02*
X145498333Y-83531904D01*
X145212619Y-82341428D02*
X145212619Y-82246190D01*
X145212619Y-82246190D02*
X145260238Y-82150952D01*
X145260238Y-82150952D02*
X145307857Y-82103333D01*
X145307857Y-82103333D02*
X145403095Y-82055714D01*
X145403095Y-82055714D02*
X145593571Y-82008095D01*
X145593571Y-82008095D02*
X145831666Y-82008095D01*
X145831666Y-82008095D02*
X146022142Y-82055714D01*
X146022142Y-82055714D02*
X146117380Y-82103333D01*
X146117380Y-82103333D02*
X146165000Y-82150952D01*
X146165000Y-82150952D02*
X146212619Y-82246190D01*
X146212619Y-82246190D02*
X146212619Y-82341428D01*
X146212619Y-82341428D02*
X146165000Y-82436666D01*
X146165000Y-82436666D02*
X146117380Y-82484285D01*
X146117380Y-82484285D02*
X146022142Y-82531904D01*
X146022142Y-82531904D02*
X145831666Y-82579523D01*
X145831666Y-82579523D02*
X145593571Y-82579523D01*
X145593571Y-82579523D02*
X145403095Y-82531904D01*
X145403095Y-82531904D02*
X145307857Y-82484285D01*
X145307857Y-82484285D02*
X145260238Y-82436666D01*
X145260238Y-82436666D02*
X145212619Y-82341428D01*
%TO.C,C6*%
X145937380Y-94549166D02*
X145985000Y-94596785D01*
X145985000Y-94596785D02*
X146032619Y-94739642D01*
X146032619Y-94739642D02*
X146032619Y-94834880D01*
X146032619Y-94834880D02*
X145985000Y-94977737D01*
X145985000Y-94977737D02*
X145889761Y-95072975D01*
X145889761Y-95072975D02*
X145794523Y-95120594D01*
X145794523Y-95120594D02*
X145604047Y-95168213D01*
X145604047Y-95168213D02*
X145461190Y-95168213D01*
X145461190Y-95168213D02*
X145270714Y-95120594D01*
X145270714Y-95120594D02*
X145175476Y-95072975D01*
X145175476Y-95072975D02*
X145080238Y-94977737D01*
X145080238Y-94977737D02*
X145032619Y-94834880D01*
X145032619Y-94834880D02*
X145032619Y-94739642D01*
X145032619Y-94739642D02*
X145080238Y-94596785D01*
X145080238Y-94596785D02*
X145127857Y-94549166D01*
X145032619Y-93692023D02*
X145032619Y-93882499D01*
X145032619Y-93882499D02*
X145080238Y-93977737D01*
X145080238Y-93977737D02*
X145127857Y-94025356D01*
X145127857Y-94025356D02*
X145270714Y-94120594D01*
X145270714Y-94120594D02*
X145461190Y-94168213D01*
X145461190Y-94168213D02*
X145842142Y-94168213D01*
X145842142Y-94168213D02*
X145937380Y-94120594D01*
X145937380Y-94120594D02*
X145985000Y-94072975D01*
X145985000Y-94072975D02*
X146032619Y-93977737D01*
X146032619Y-93977737D02*
X146032619Y-93787261D01*
X146032619Y-93787261D02*
X145985000Y-93692023D01*
X145985000Y-93692023D02*
X145937380Y-93644404D01*
X145937380Y-93644404D02*
X145842142Y-93596785D01*
X145842142Y-93596785D02*
X145604047Y-93596785D01*
X145604047Y-93596785D02*
X145508809Y-93644404D01*
X145508809Y-93644404D02*
X145461190Y-93692023D01*
X145461190Y-93692023D02*
X145413571Y-93787261D01*
X145413571Y-93787261D02*
X145413571Y-93977737D01*
X145413571Y-93977737D02*
X145461190Y-94072975D01*
X145461190Y-94072975D02*
X145508809Y-94120594D01*
X145508809Y-94120594D02*
X145604047Y-94168213D01*
%TO.C,R5*%
X155717619Y-83931666D02*
X155241428Y-84264999D01*
X155717619Y-84503094D02*
X154717619Y-84503094D01*
X154717619Y-84503094D02*
X154717619Y-84122142D01*
X154717619Y-84122142D02*
X154765238Y-84026904D01*
X154765238Y-84026904D02*
X154812857Y-83979285D01*
X154812857Y-83979285D02*
X154908095Y-83931666D01*
X154908095Y-83931666D02*
X155050952Y-83931666D01*
X155050952Y-83931666D02*
X155146190Y-83979285D01*
X155146190Y-83979285D02*
X155193809Y-84026904D01*
X155193809Y-84026904D02*
X155241428Y-84122142D01*
X155241428Y-84122142D02*
X155241428Y-84503094D01*
X154717619Y-83026904D02*
X154717619Y-83503094D01*
X154717619Y-83503094D02*
X155193809Y-83550713D01*
X155193809Y-83550713D02*
X155146190Y-83503094D01*
X155146190Y-83503094D02*
X155098571Y-83407856D01*
X155098571Y-83407856D02*
X155098571Y-83169761D01*
X155098571Y-83169761D02*
X155146190Y-83074523D01*
X155146190Y-83074523D02*
X155193809Y-83026904D01*
X155193809Y-83026904D02*
X155289047Y-82979285D01*
X155289047Y-82979285D02*
X155527142Y-82979285D01*
X155527142Y-82979285D02*
X155622380Y-83026904D01*
X155622380Y-83026904D02*
X155670000Y-83074523D01*
X155670000Y-83074523D02*
X155717619Y-83169761D01*
X155717619Y-83169761D02*
X155717619Y-83407856D01*
X155717619Y-83407856D02*
X155670000Y-83503094D01*
X155670000Y-83503094D02*
X155622380Y-83550713D01*
%TO.C,R6*%
X139562619Y-86586666D02*
X139086428Y-86919999D01*
X139562619Y-87158094D02*
X138562619Y-87158094D01*
X138562619Y-87158094D02*
X138562619Y-86777142D01*
X138562619Y-86777142D02*
X138610238Y-86681904D01*
X138610238Y-86681904D02*
X138657857Y-86634285D01*
X138657857Y-86634285D02*
X138753095Y-86586666D01*
X138753095Y-86586666D02*
X138895952Y-86586666D01*
X138895952Y-86586666D02*
X138991190Y-86634285D01*
X138991190Y-86634285D02*
X139038809Y-86681904D01*
X139038809Y-86681904D02*
X139086428Y-86777142D01*
X139086428Y-86777142D02*
X139086428Y-87158094D01*
X138562619Y-85729523D02*
X138562619Y-85919999D01*
X138562619Y-85919999D02*
X138610238Y-86015237D01*
X138610238Y-86015237D02*
X138657857Y-86062856D01*
X138657857Y-86062856D02*
X138800714Y-86158094D01*
X138800714Y-86158094D02*
X138991190Y-86205713D01*
X138991190Y-86205713D02*
X139372142Y-86205713D01*
X139372142Y-86205713D02*
X139467380Y-86158094D01*
X139467380Y-86158094D02*
X139515000Y-86110475D01*
X139515000Y-86110475D02*
X139562619Y-86015237D01*
X139562619Y-86015237D02*
X139562619Y-85824761D01*
X139562619Y-85824761D02*
X139515000Y-85729523D01*
X139515000Y-85729523D02*
X139467380Y-85681904D01*
X139467380Y-85681904D02*
X139372142Y-85634285D01*
X139372142Y-85634285D02*
X139134047Y-85634285D01*
X139134047Y-85634285D02*
X139038809Y-85681904D01*
X139038809Y-85681904D02*
X138991190Y-85729523D01*
X138991190Y-85729523D02*
X138943571Y-85824761D01*
X138943571Y-85824761D02*
X138943571Y-86015237D01*
X138943571Y-86015237D02*
X138991190Y-86110475D01*
X138991190Y-86110475D02*
X139038809Y-86158094D01*
X139038809Y-86158094D02*
X139134047Y-86205713D01*
%TO.C,D4*%
X143770619Y-91532094D02*
X142770619Y-91532094D01*
X142770619Y-91532094D02*
X142770619Y-91293999D01*
X142770619Y-91293999D02*
X142818238Y-91151142D01*
X142818238Y-91151142D02*
X142913476Y-91055904D01*
X142913476Y-91055904D02*
X143008714Y-91008285D01*
X143008714Y-91008285D02*
X143199190Y-90960666D01*
X143199190Y-90960666D02*
X143342047Y-90960666D01*
X143342047Y-90960666D02*
X143532523Y-91008285D01*
X143532523Y-91008285D02*
X143627761Y-91055904D01*
X143627761Y-91055904D02*
X143723000Y-91151142D01*
X143723000Y-91151142D02*
X143770619Y-91293999D01*
X143770619Y-91293999D02*
X143770619Y-91532094D01*
X143103952Y-90103523D02*
X143770619Y-90103523D01*
X142723000Y-90341618D02*
X143437285Y-90579713D01*
X143437285Y-90579713D02*
X143437285Y-89960666D01*
%TO.C,D2*%
X172997905Y-111460619D02*
X172997905Y-110460619D01*
X172997905Y-110460619D02*
X173236000Y-110460619D01*
X173236000Y-110460619D02*
X173378857Y-110508238D01*
X173378857Y-110508238D02*
X173474095Y-110603476D01*
X173474095Y-110603476D02*
X173521714Y-110698714D01*
X173521714Y-110698714D02*
X173569333Y-110889190D01*
X173569333Y-110889190D02*
X173569333Y-111032047D01*
X173569333Y-111032047D02*
X173521714Y-111222523D01*
X173521714Y-111222523D02*
X173474095Y-111317761D01*
X173474095Y-111317761D02*
X173378857Y-111413000D01*
X173378857Y-111413000D02*
X173236000Y-111460619D01*
X173236000Y-111460619D02*
X172997905Y-111460619D01*
X173950286Y-110555857D02*
X173997905Y-110508238D01*
X173997905Y-110508238D02*
X174093143Y-110460619D01*
X174093143Y-110460619D02*
X174331238Y-110460619D01*
X174331238Y-110460619D02*
X174426476Y-110508238D01*
X174426476Y-110508238D02*
X174474095Y-110555857D01*
X174474095Y-110555857D02*
X174521714Y-110651095D01*
X174521714Y-110651095D02*
X174521714Y-110746333D01*
X174521714Y-110746333D02*
X174474095Y-110889190D01*
X174474095Y-110889190D02*
X173902667Y-111460619D01*
X173902667Y-111460619D02*
X174521714Y-111460619D01*
%TO.C,Y2*%
X180186428Y-99546190D02*
X180662619Y-99546190D01*
X179662619Y-99879523D02*
X180186428Y-99546190D01*
X180186428Y-99546190D02*
X179662619Y-99212857D01*
X179757857Y-98927142D02*
X179710238Y-98879523D01*
X179710238Y-98879523D02*
X179662619Y-98784285D01*
X179662619Y-98784285D02*
X179662619Y-98546190D01*
X179662619Y-98546190D02*
X179710238Y-98450952D01*
X179710238Y-98450952D02*
X179757857Y-98403333D01*
X179757857Y-98403333D02*
X179853095Y-98355714D01*
X179853095Y-98355714D02*
X179948333Y-98355714D01*
X179948333Y-98355714D02*
X180091190Y-98403333D01*
X180091190Y-98403333D02*
X180662619Y-98974761D01*
X180662619Y-98974761D02*
X180662619Y-98355714D01*
%TO.C,C8*%
X180108833Y-102631380D02*
X180061214Y-102679000D01*
X180061214Y-102679000D02*
X179918357Y-102726619D01*
X179918357Y-102726619D02*
X179823119Y-102726619D01*
X179823119Y-102726619D02*
X179680262Y-102679000D01*
X179680262Y-102679000D02*
X179585024Y-102583761D01*
X179585024Y-102583761D02*
X179537405Y-102488523D01*
X179537405Y-102488523D02*
X179489786Y-102298047D01*
X179489786Y-102298047D02*
X179489786Y-102155190D01*
X179489786Y-102155190D02*
X179537405Y-101964714D01*
X179537405Y-101964714D02*
X179585024Y-101869476D01*
X179585024Y-101869476D02*
X179680262Y-101774238D01*
X179680262Y-101774238D02*
X179823119Y-101726619D01*
X179823119Y-101726619D02*
X179918357Y-101726619D01*
X179918357Y-101726619D02*
X180061214Y-101774238D01*
X180061214Y-101774238D02*
X180108833Y-101821857D01*
X180680262Y-102155190D02*
X180585024Y-102107571D01*
X180585024Y-102107571D02*
X180537405Y-102059952D01*
X180537405Y-102059952D02*
X180489786Y-101964714D01*
X180489786Y-101964714D02*
X180489786Y-101917095D01*
X180489786Y-101917095D02*
X180537405Y-101821857D01*
X180537405Y-101821857D02*
X180585024Y-101774238D01*
X180585024Y-101774238D02*
X180680262Y-101726619D01*
X180680262Y-101726619D02*
X180870738Y-101726619D01*
X180870738Y-101726619D02*
X180965976Y-101774238D01*
X180965976Y-101774238D02*
X181013595Y-101821857D01*
X181013595Y-101821857D02*
X181061214Y-101917095D01*
X181061214Y-101917095D02*
X181061214Y-101964714D01*
X181061214Y-101964714D02*
X181013595Y-102059952D01*
X181013595Y-102059952D02*
X180965976Y-102107571D01*
X180965976Y-102107571D02*
X180870738Y-102155190D01*
X180870738Y-102155190D02*
X180680262Y-102155190D01*
X180680262Y-102155190D02*
X180585024Y-102202809D01*
X180585024Y-102202809D02*
X180537405Y-102250428D01*
X180537405Y-102250428D02*
X180489786Y-102345666D01*
X180489786Y-102345666D02*
X180489786Y-102536142D01*
X180489786Y-102536142D02*
X180537405Y-102631380D01*
X180537405Y-102631380D02*
X180585024Y-102679000D01*
X180585024Y-102679000D02*
X180680262Y-102726619D01*
X180680262Y-102726619D02*
X180870738Y-102726619D01*
X180870738Y-102726619D02*
X180965976Y-102679000D01*
X180965976Y-102679000D02*
X181013595Y-102631380D01*
X181013595Y-102631380D02*
X181061214Y-102536142D01*
X181061214Y-102536142D02*
X181061214Y-102345666D01*
X181061214Y-102345666D02*
X181013595Y-102250428D01*
X181013595Y-102250428D02*
X180965976Y-102202809D01*
X180965976Y-102202809D02*
X180870738Y-102155190D01*
%TO.C,JP2*%
X182851619Y-101947333D02*
X183565904Y-101947333D01*
X183565904Y-101947333D02*
X183708761Y-101994952D01*
X183708761Y-101994952D02*
X183804000Y-102090190D01*
X183804000Y-102090190D02*
X183851619Y-102233047D01*
X183851619Y-102233047D02*
X183851619Y-102328285D01*
X183851619Y-101471142D02*
X182851619Y-101471142D01*
X182851619Y-101471142D02*
X182851619Y-101090190D01*
X182851619Y-101090190D02*
X182899238Y-100994952D01*
X182899238Y-100994952D02*
X182946857Y-100947333D01*
X182946857Y-100947333D02*
X183042095Y-100899714D01*
X183042095Y-100899714D02*
X183184952Y-100899714D01*
X183184952Y-100899714D02*
X183280190Y-100947333D01*
X183280190Y-100947333D02*
X183327809Y-100994952D01*
X183327809Y-100994952D02*
X183375428Y-101090190D01*
X183375428Y-101090190D02*
X183375428Y-101471142D01*
X182946857Y-100518761D02*
X182899238Y-100471142D01*
X182899238Y-100471142D02*
X182851619Y-100375904D01*
X182851619Y-100375904D02*
X182851619Y-100137809D01*
X182851619Y-100137809D02*
X182899238Y-100042571D01*
X182899238Y-100042571D02*
X182946857Y-99994952D01*
X182946857Y-99994952D02*
X183042095Y-99947333D01*
X183042095Y-99947333D02*
X183137333Y-99947333D01*
X183137333Y-99947333D02*
X183280190Y-99994952D01*
X183280190Y-99994952D02*
X183851619Y-100566380D01*
X183851619Y-100566380D02*
X183851619Y-99947333D01*
%TO.C,C5*%
X175370833Y-109107380D02*
X175323214Y-109155000D01*
X175323214Y-109155000D02*
X175180357Y-109202619D01*
X175180357Y-109202619D02*
X175085119Y-109202619D01*
X175085119Y-109202619D02*
X174942262Y-109155000D01*
X174942262Y-109155000D02*
X174847024Y-109059761D01*
X174847024Y-109059761D02*
X174799405Y-108964523D01*
X174799405Y-108964523D02*
X174751786Y-108774047D01*
X174751786Y-108774047D02*
X174751786Y-108631190D01*
X174751786Y-108631190D02*
X174799405Y-108440714D01*
X174799405Y-108440714D02*
X174847024Y-108345476D01*
X174847024Y-108345476D02*
X174942262Y-108250238D01*
X174942262Y-108250238D02*
X175085119Y-108202619D01*
X175085119Y-108202619D02*
X175180357Y-108202619D01*
X175180357Y-108202619D02*
X175323214Y-108250238D01*
X175323214Y-108250238D02*
X175370833Y-108297857D01*
X176275595Y-108202619D02*
X175799405Y-108202619D01*
X175799405Y-108202619D02*
X175751786Y-108678809D01*
X175751786Y-108678809D02*
X175799405Y-108631190D01*
X175799405Y-108631190D02*
X175894643Y-108583571D01*
X175894643Y-108583571D02*
X176132738Y-108583571D01*
X176132738Y-108583571D02*
X176227976Y-108631190D01*
X176227976Y-108631190D02*
X176275595Y-108678809D01*
X176275595Y-108678809D02*
X176323214Y-108774047D01*
X176323214Y-108774047D02*
X176323214Y-109012142D01*
X176323214Y-109012142D02*
X176275595Y-109107380D01*
X176275595Y-109107380D02*
X176227976Y-109155000D01*
X176227976Y-109155000D02*
X176132738Y-109202619D01*
X176132738Y-109202619D02*
X175894643Y-109202619D01*
X175894643Y-109202619D02*
X175799405Y-109155000D01*
X175799405Y-109155000D02*
X175751786Y-109107380D01*
%TO.C,U2*%
X183329619Y-110456904D02*
X184139142Y-110456904D01*
X184139142Y-110456904D02*
X184234380Y-110409285D01*
X184234380Y-110409285D02*
X184282000Y-110361666D01*
X184282000Y-110361666D02*
X184329619Y-110266428D01*
X184329619Y-110266428D02*
X184329619Y-110075952D01*
X184329619Y-110075952D02*
X184282000Y-109980714D01*
X184282000Y-109980714D02*
X184234380Y-109933095D01*
X184234380Y-109933095D02*
X184139142Y-109885476D01*
X184139142Y-109885476D02*
X183329619Y-109885476D01*
X183424857Y-109456904D02*
X183377238Y-109409285D01*
X183377238Y-109409285D02*
X183329619Y-109314047D01*
X183329619Y-109314047D02*
X183329619Y-109075952D01*
X183329619Y-109075952D02*
X183377238Y-108980714D01*
X183377238Y-108980714D02*
X183424857Y-108933095D01*
X183424857Y-108933095D02*
X183520095Y-108885476D01*
X183520095Y-108885476D02*
X183615333Y-108885476D01*
X183615333Y-108885476D02*
X183758190Y-108933095D01*
X183758190Y-108933095D02*
X184329619Y-109504523D01*
X184329619Y-109504523D02*
X184329619Y-108885476D01*
%TO.C,H2*%
X180513151Y-114418675D02*
X180513151Y-113418675D01*
X180513151Y-113894865D02*
X181084579Y-113894865D01*
X181084579Y-114418675D02*
X181084579Y-113418675D01*
X181513151Y-113513913D02*
X181560770Y-113466294D01*
X181560770Y-113466294D02*
X181656008Y-113418675D01*
X181656008Y-113418675D02*
X181894103Y-113418675D01*
X181894103Y-113418675D02*
X181989341Y-113466294D01*
X181989341Y-113466294D02*
X182036960Y-113513913D01*
X182036960Y-113513913D02*
X182084579Y-113609151D01*
X182084579Y-113609151D02*
X182084579Y-113704389D01*
X182084579Y-113704389D02*
X182036960Y-113847246D01*
X182036960Y-113847246D02*
X181465532Y-114418675D01*
X181465532Y-114418675D02*
X182084579Y-114418675D01*
%TO.C,R2*%
X182321333Y-98695619D02*
X181988000Y-98219428D01*
X181749905Y-98695619D02*
X181749905Y-97695619D01*
X181749905Y-97695619D02*
X182130857Y-97695619D01*
X182130857Y-97695619D02*
X182226095Y-97743238D01*
X182226095Y-97743238D02*
X182273714Y-97790857D01*
X182273714Y-97790857D02*
X182321333Y-97886095D01*
X182321333Y-97886095D02*
X182321333Y-98028952D01*
X182321333Y-98028952D02*
X182273714Y-98124190D01*
X182273714Y-98124190D02*
X182226095Y-98171809D01*
X182226095Y-98171809D02*
X182130857Y-98219428D01*
X182130857Y-98219428D02*
X181749905Y-98219428D01*
X182702286Y-97790857D02*
X182749905Y-97743238D01*
X182749905Y-97743238D02*
X182845143Y-97695619D01*
X182845143Y-97695619D02*
X183083238Y-97695619D01*
X183083238Y-97695619D02*
X183178476Y-97743238D01*
X183178476Y-97743238D02*
X183226095Y-97790857D01*
X183226095Y-97790857D02*
X183273714Y-97886095D01*
X183273714Y-97886095D02*
X183273714Y-97981333D01*
X183273714Y-97981333D02*
X183226095Y-98124190D01*
X183226095Y-98124190D02*
X182654667Y-98695619D01*
X182654667Y-98695619D02*
X183273714Y-98695619D01*
%TO.C,C1*%
X159620833Y-103357380D02*
X159573214Y-103405000D01*
X159573214Y-103405000D02*
X159430357Y-103452619D01*
X159430357Y-103452619D02*
X159335119Y-103452619D01*
X159335119Y-103452619D02*
X159192262Y-103405000D01*
X159192262Y-103405000D02*
X159097024Y-103309761D01*
X159097024Y-103309761D02*
X159049405Y-103214523D01*
X159049405Y-103214523D02*
X159001786Y-103024047D01*
X159001786Y-103024047D02*
X159001786Y-102881190D01*
X159001786Y-102881190D02*
X159049405Y-102690714D01*
X159049405Y-102690714D02*
X159097024Y-102595476D01*
X159097024Y-102595476D02*
X159192262Y-102500238D01*
X159192262Y-102500238D02*
X159335119Y-102452619D01*
X159335119Y-102452619D02*
X159430357Y-102452619D01*
X159430357Y-102452619D02*
X159573214Y-102500238D01*
X159573214Y-102500238D02*
X159620833Y-102547857D01*
X160573214Y-103452619D02*
X160001786Y-103452619D01*
X160287500Y-103452619D02*
X160287500Y-102452619D01*
X160287500Y-102452619D02*
X160192262Y-102595476D01*
X160192262Y-102595476D02*
X160097024Y-102690714D01*
X160097024Y-102690714D02*
X160001786Y-102738333D01*
%TO.C,J5*%
X131244619Y-113363333D02*
X131958904Y-113363333D01*
X131958904Y-113363333D02*
X132101761Y-113410952D01*
X132101761Y-113410952D02*
X132197000Y-113506190D01*
X132197000Y-113506190D02*
X132244619Y-113649047D01*
X132244619Y-113649047D02*
X132244619Y-113744285D01*
X131244619Y-112410952D02*
X131244619Y-112887142D01*
X131244619Y-112887142D02*
X131720809Y-112934761D01*
X131720809Y-112934761D02*
X131673190Y-112887142D01*
X131673190Y-112887142D02*
X131625571Y-112791904D01*
X131625571Y-112791904D02*
X131625571Y-112553809D01*
X131625571Y-112553809D02*
X131673190Y-112458571D01*
X131673190Y-112458571D02*
X131720809Y-112410952D01*
X131720809Y-112410952D02*
X131816047Y-112363333D01*
X131816047Y-112363333D02*
X132054142Y-112363333D01*
X132054142Y-112363333D02*
X132149380Y-112410952D01*
X132149380Y-112410952D02*
X132197000Y-112458571D01*
X132197000Y-112458571D02*
X132244619Y-112553809D01*
X132244619Y-112553809D02*
X132244619Y-112791904D01*
X132244619Y-112791904D02*
X132197000Y-112887142D01*
X132197000Y-112887142D02*
X132149380Y-112934761D01*
%TO.C,J7*%
X138864619Y-113363333D02*
X139578904Y-113363333D01*
X139578904Y-113363333D02*
X139721761Y-113410952D01*
X139721761Y-113410952D02*
X139817000Y-113506190D01*
X139817000Y-113506190D02*
X139864619Y-113649047D01*
X139864619Y-113649047D02*
X139864619Y-113744285D01*
X138864619Y-112982380D02*
X138864619Y-112315714D01*
X138864619Y-112315714D02*
X139864619Y-112744285D01*
%TO.C,J3*%
X128704619Y-113363333D02*
X129418904Y-113363333D01*
X129418904Y-113363333D02*
X129561761Y-113410952D01*
X129561761Y-113410952D02*
X129657000Y-113506190D01*
X129657000Y-113506190D02*
X129704619Y-113649047D01*
X129704619Y-113649047D02*
X129704619Y-113744285D01*
X128704619Y-112982380D02*
X128704619Y-112363333D01*
X128704619Y-112363333D02*
X129085571Y-112696666D01*
X129085571Y-112696666D02*
X129085571Y-112553809D01*
X129085571Y-112553809D02*
X129133190Y-112458571D01*
X129133190Y-112458571D02*
X129180809Y-112410952D01*
X129180809Y-112410952D02*
X129276047Y-112363333D01*
X129276047Y-112363333D02*
X129514142Y-112363333D01*
X129514142Y-112363333D02*
X129609380Y-112410952D01*
X129609380Y-112410952D02*
X129657000Y-112458571D01*
X129657000Y-112458571D02*
X129704619Y-112553809D01*
X129704619Y-112553809D02*
X129704619Y-112839523D01*
X129704619Y-112839523D02*
X129657000Y-112934761D01*
X129657000Y-112934761D02*
X129609380Y-112982380D01*
%TO.C,J2*%
X152916666Y-76176619D02*
X152916666Y-76890904D01*
X152916666Y-76890904D02*
X152869047Y-77033761D01*
X152869047Y-77033761D02*
X152773809Y-77129000D01*
X152773809Y-77129000D02*
X152630952Y-77176619D01*
X152630952Y-77176619D02*
X152535714Y-77176619D01*
X153345238Y-76271857D02*
X153392857Y-76224238D01*
X153392857Y-76224238D02*
X153488095Y-76176619D01*
X153488095Y-76176619D02*
X153726190Y-76176619D01*
X153726190Y-76176619D02*
X153821428Y-76224238D01*
X153821428Y-76224238D02*
X153869047Y-76271857D01*
X153869047Y-76271857D02*
X153916666Y-76367095D01*
X153916666Y-76367095D02*
X153916666Y-76462333D01*
X153916666Y-76462333D02*
X153869047Y-76605190D01*
X153869047Y-76605190D02*
X153297619Y-77176619D01*
X153297619Y-77176619D02*
X153916666Y-77176619D01*
%TO.C,U1*%
X150888095Y-97032619D02*
X150888095Y-97842142D01*
X150888095Y-97842142D02*
X150935714Y-97937380D01*
X150935714Y-97937380D02*
X150983333Y-97985000D01*
X150983333Y-97985000D02*
X151078571Y-98032619D01*
X151078571Y-98032619D02*
X151269047Y-98032619D01*
X151269047Y-98032619D02*
X151364285Y-97985000D01*
X151364285Y-97985000D02*
X151411904Y-97937380D01*
X151411904Y-97937380D02*
X151459523Y-97842142D01*
X151459523Y-97842142D02*
X151459523Y-97032619D01*
X152459523Y-98032619D02*
X151888095Y-98032619D01*
X152173809Y-98032619D02*
X152173809Y-97032619D01*
X152173809Y-97032619D02*
X152078571Y-97175476D01*
X152078571Y-97175476D02*
X151983333Y-97270714D01*
X151983333Y-97270714D02*
X151888095Y-97318333D01*
%TO.C,C2*%
X154370833Y-102857380D02*
X154323214Y-102905000D01*
X154323214Y-102905000D02*
X154180357Y-102952619D01*
X154180357Y-102952619D02*
X154085119Y-102952619D01*
X154085119Y-102952619D02*
X153942262Y-102905000D01*
X153942262Y-102905000D02*
X153847024Y-102809761D01*
X153847024Y-102809761D02*
X153799405Y-102714523D01*
X153799405Y-102714523D02*
X153751786Y-102524047D01*
X153751786Y-102524047D02*
X153751786Y-102381190D01*
X153751786Y-102381190D02*
X153799405Y-102190714D01*
X153799405Y-102190714D02*
X153847024Y-102095476D01*
X153847024Y-102095476D02*
X153942262Y-102000238D01*
X153942262Y-102000238D02*
X154085119Y-101952619D01*
X154085119Y-101952619D02*
X154180357Y-101952619D01*
X154180357Y-101952619D02*
X154323214Y-102000238D01*
X154323214Y-102000238D02*
X154370833Y-102047857D01*
X154751786Y-102047857D02*
X154799405Y-102000238D01*
X154799405Y-102000238D02*
X154894643Y-101952619D01*
X154894643Y-101952619D02*
X155132738Y-101952619D01*
X155132738Y-101952619D02*
X155227976Y-102000238D01*
X155227976Y-102000238D02*
X155275595Y-102047857D01*
X155275595Y-102047857D02*
X155323214Y-102143095D01*
X155323214Y-102143095D02*
X155323214Y-102238333D01*
X155323214Y-102238333D02*
X155275595Y-102381190D01*
X155275595Y-102381190D02*
X154704167Y-102952619D01*
X154704167Y-102952619D02*
X155323214Y-102952619D01*
%TO.C,U3*%
X168238095Y-106582619D02*
X168238095Y-107392142D01*
X168238095Y-107392142D02*
X168285714Y-107487380D01*
X168285714Y-107487380D02*
X168333333Y-107535000D01*
X168333333Y-107535000D02*
X168428571Y-107582619D01*
X168428571Y-107582619D02*
X168619047Y-107582619D01*
X168619047Y-107582619D02*
X168714285Y-107535000D01*
X168714285Y-107535000D02*
X168761904Y-107487380D01*
X168761904Y-107487380D02*
X168809523Y-107392142D01*
X168809523Y-107392142D02*
X168809523Y-106582619D01*
X169190476Y-106582619D02*
X169809523Y-106582619D01*
X169809523Y-106582619D02*
X169476190Y-106963571D01*
X169476190Y-106963571D02*
X169619047Y-106963571D01*
X169619047Y-106963571D02*
X169714285Y-107011190D01*
X169714285Y-107011190D02*
X169761904Y-107058809D01*
X169761904Y-107058809D02*
X169809523Y-107154047D01*
X169809523Y-107154047D02*
X169809523Y-107392142D01*
X169809523Y-107392142D02*
X169761904Y-107487380D01*
X169761904Y-107487380D02*
X169714285Y-107535000D01*
X169714285Y-107535000D02*
X169619047Y-107582619D01*
X169619047Y-107582619D02*
X169333333Y-107582619D01*
X169333333Y-107582619D02*
X169238095Y-107535000D01*
X169238095Y-107535000D02*
X169190476Y-107487380D01*
%TO.C,R7*%
X146812619Y-87586666D02*
X146336428Y-87919999D01*
X146812619Y-88158094D02*
X145812619Y-88158094D01*
X145812619Y-88158094D02*
X145812619Y-87777142D01*
X145812619Y-87777142D02*
X145860238Y-87681904D01*
X145860238Y-87681904D02*
X145907857Y-87634285D01*
X145907857Y-87634285D02*
X146003095Y-87586666D01*
X146003095Y-87586666D02*
X146145952Y-87586666D01*
X146145952Y-87586666D02*
X146241190Y-87634285D01*
X146241190Y-87634285D02*
X146288809Y-87681904D01*
X146288809Y-87681904D02*
X146336428Y-87777142D01*
X146336428Y-87777142D02*
X146336428Y-88158094D01*
X145812619Y-87253332D02*
X145812619Y-86586666D01*
X145812619Y-86586666D02*
X146812619Y-87015237D01*
%TO.C,F1*%
X131429166Y-83828809D02*
X131095833Y-83828809D01*
X131095833Y-84352619D02*
X131095833Y-83352619D01*
X131095833Y-83352619D02*
X131572023Y-83352619D01*
X132476785Y-84352619D02*
X131905357Y-84352619D01*
X132191071Y-84352619D02*
X132191071Y-83352619D01*
X132191071Y-83352619D02*
X132095833Y-83495476D01*
X132095833Y-83495476D02*
X132000595Y-83590714D01*
X132000595Y-83590714D02*
X131905357Y-83638333D01*
%TO.C,R4*%
X158272619Y-89931666D02*
X157796428Y-90264999D01*
X158272619Y-90503094D02*
X157272619Y-90503094D01*
X157272619Y-90503094D02*
X157272619Y-90122142D01*
X157272619Y-90122142D02*
X157320238Y-90026904D01*
X157320238Y-90026904D02*
X157367857Y-89979285D01*
X157367857Y-89979285D02*
X157463095Y-89931666D01*
X157463095Y-89931666D02*
X157605952Y-89931666D01*
X157605952Y-89931666D02*
X157701190Y-89979285D01*
X157701190Y-89979285D02*
X157748809Y-90026904D01*
X157748809Y-90026904D02*
X157796428Y-90122142D01*
X157796428Y-90122142D02*
X157796428Y-90503094D01*
X157605952Y-89074523D02*
X158272619Y-89074523D01*
X157225000Y-89312618D02*
X157939285Y-89550713D01*
X157939285Y-89550713D02*
X157939285Y-88931666D01*
%TO.C,FID2*%
X127678571Y-107358809D02*
X127345238Y-107358809D01*
X127345238Y-107882619D02*
X127345238Y-106882619D01*
X127345238Y-106882619D02*
X127821428Y-106882619D01*
X128202381Y-107882619D02*
X128202381Y-106882619D01*
X128678571Y-107882619D02*
X128678571Y-106882619D01*
X128678571Y-106882619D02*
X128916666Y-106882619D01*
X128916666Y-106882619D02*
X129059523Y-106930238D01*
X129059523Y-106930238D02*
X129154761Y-107025476D01*
X129154761Y-107025476D02*
X129202380Y-107120714D01*
X129202380Y-107120714D02*
X129249999Y-107311190D01*
X129249999Y-107311190D02*
X129249999Y-107454047D01*
X129249999Y-107454047D02*
X129202380Y-107644523D01*
X129202380Y-107644523D02*
X129154761Y-107739761D01*
X129154761Y-107739761D02*
X129059523Y-107835000D01*
X129059523Y-107835000D02*
X128916666Y-107882619D01*
X128916666Y-107882619D02*
X128678571Y-107882619D01*
X129630952Y-106977857D02*
X129678571Y-106930238D01*
X129678571Y-106930238D02*
X129773809Y-106882619D01*
X129773809Y-106882619D02*
X130011904Y-106882619D01*
X130011904Y-106882619D02*
X130107142Y-106930238D01*
X130107142Y-106930238D02*
X130154761Y-106977857D01*
X130154761Y-106977857D02*
X130202380Y-107073095D01*
X130202380Y-107073095D02*
X130202380Y-107168333D01*
X130202380Y-107168333D02*
X130154761Y-107311190D01*
X130154761Y-107311190D02*
X129583333Y-107882619D01*
X129583333Y-107882619D02*
X130202380Y-107882619D01*
%TO.C,FID3*%
X180928571Y-94358809D02*
X180595238Y-94358809D01*
X180595238Y-94882619D02*
X180595238Y-93882619D01*
X180595238Y-93882619D02*
X181071428Y-93882619D01*
X181452381Y-94882619D02*
X181452381Y-93882619D01*
X181928571Y-94882619D02*
X181928571Y-93882619D01*
X181928571Y-93882619D02*
X182166666Y-93882619D01*
X182166666Y-93882619D02*
X182309523Y-93930238D01*
X182309523Y-93930238D02*
X182404761Y-94025476D01*
X182404761Y-94025476D02*
X182452380Y-94120714D01*
X182452380Y-94120714D02*
X182499999Y-94311190D01*
X182499999Y-94311190D02*
X182499999Y-94454047D01*
X182499999Y-94454047D02*
X182452380Y-94644523D01*
X182452380Y-94644523D02*
X182404761Y-94739761D01*
X182404761Y-94739761D02*
X182309523Y-94835000D01*
X182309523Y-94835000D02*
X182166666Y-94882619D01*
X182166666Y-94882619D02*
X181928571Y-94882619D01*
X182833333Y-93882619D02*
X183452380Y-93882619D01*
X183452380Y-93882619D02*
X183119047Y-94263571D01*
X183119047Y-94263571D02*
X183261904Y-94263571D01*
X183261904Y-94263571D02*
X183357142Y-94311190D01*
X183357142Y-94311190D02*
X183404761Y-94358809D01*
X183404761Y-94358809D02*
X183452380Y-94454047D01*
X183452380Y-94454047D02*
X183452380Y-94692142D01*
X183452380Y-94692142D02*
X183404761Y-94787380D01*
X183404761Y-94787380D02*
X183357142Y-94835000D01*
X183357142Y-94835000D02*
X183261904Y-94882619D01*
X183261904Y-94882619D02*
X182976190Y-94882619D01*
X182976190Y-94882619D02*
X182880952Y-94835000D01*
X182880952Y-94835000D02*
X182833333Y-94787380D01*
%TO.C,C3*%
X131383333Y-88087380D02*
X131335714Y-88135000D01*
X131335714Y-88135000D02*
X131192857Y-88182619D01*
X131192857Y-88182619D02*
X131097619Y-88182619D01*
X131097619Y-88182619D02*
X130954762Y-88135000D01*
X130954762Y-88135000D02*
X130859524Y-88039761D01*
X130859524Y-88039761D02*
X130811905Y-87944523D01*
X130811905Y-87944523D02*
X130764286Y-87754047D01*
X130764286Y-87754047D02*
X130764286Y-87611190D01*
X130764286Y-87611190D02*
X130811905Y-87420714D01*
X130811905Y-87420714D02*
X130859524Y-87325476D01*
X130859524Y-87325476D02*
X130954762Y-87230238D01*
X130954762Y-87230238D02*
X131097619Y-87182619D01*
X131097619Y-87182619D02*
X131192857Y-87182619D01*
X131192857Y-87182619D02*
X131335714Y-87230238D01*
X131335714Y-87230238D02*
X131383333Y-87277857D01*
X131716667Y-87182619D02*
X132335714Y-87182619D01*
X132335714Y-87182619D02*
X132002381Y-87563571D01*
X132002381Y-87563571D02*
X132145238Y-87563571D01*
X132145238Y-87563571D02*
X132240476Y-87611190D01*
X132240476Y-87611190D02*
X132288095Y-87658809D01*
X132288095Y-87658809D02*
X132335714Y-87754047D01*
X132335714Y-87754047D02*
X132335714Y-87992142D01*
X132335714Y-87992142D02*
X132288095Y-88087380D01*
X132288095Y-88087380D02*
X132240476Y-88135000D01*
X132240476Y-88135000D02*
X132145238Y-88182619D01*
X132145238Y-88182619D02*
X131859524Y-88182619D01*
X131859524Y-88182619D02*
X131764286Y-88135000D01*
X131764286Y-88135000D02*
X131716667Y-88087380D01*
%TO.C,C4*%
X134187380Y-94874166D02*
X134235000Y-94921785D01*
X134235000Y-94921785D02*
X134282619Y-95064642D01*
X134282619Y-95064642D02*
X134282619Y-95159880D01*
X134282619Y-95159880D02*
X134235000Y-95302737D01*
X134235000Y-95302737D02*
X134139761Y-95397975D01*
X134139761Y-95397975D02*
X134044523Y-95445594D01*
X134044523Y-95445594D02*
X133854047Y-95493213D01*
X133854047Y-95493213D02*
X133711190Y-95493213D01*
X133711190Y-95493213D02*
X133520714Y-95445594D01*
X133520714Y-95445594D02*
X133425476Y-95397975D01*
X133425476Y-95397975D02*
X133330238Y-95302737D01*
X133330238Y-95302737D02*
X133282619Y-95159880D01*
X133282619Y-95159880D02*
X133282619Y-95064642D01*
X133282619Y-95064642D02*
X133330238Y-94921785D01*
X133330238Y-94921785D02*
X133377857Y-94874166D01*
X133615952Y-94017023D02*
X134282619Y-94017023D01*
X133235000Y-94255118D02*
X133949285Y-94493213D01*
X133949285Y-94493213D02*
X133949285Y-93874166D01*
%TO.C,C13*%
X130557142Y-97337380D02*
X130509523Y-97385000D01*
X130509523Y-97385000D02*
X130366666Y-97432619D01*
X130366666Y-97432619D02*
X130271428Y-97432619D01*
X130271428Y-97432619D02*
X130128571Y-97385000D01*
X130128571Y-97385000D02*
X130033333Y-97289761D01*
X130033333Y-97289761D02*
X129985714Y-97194523D01*
X129985714Y-97194523D02*
X129938095Y-97004047D01*
X129938095Y-97004047D02*
X129938095Y-96861190D01*
X129938095Y-96861190D02*
X129985714Y-96670714D01*
X129985714Y-96670714D02*
X130033333Y-96575476D01*
X130033333Y-96575476D02*
X130128571Y-96480238D01*
X130128571Y-96480238D02*
X130271428Y-96432619D01*
X130271428Y-96432619D02*
X130366666Y-96432619D01*
X130366666Y-96432619D02*
X130509523Y-96480238D01*
X130509523Y-96480238D02*
X130557142Y-96527857D01*
X131509523Y-97432619D02*
X130938095Y-97432619D01*
X131223809Y-97432619D02*
X131223809Y-96432619D01*
X131223809Y-96432619D02*
X131128571Y-96575476D01*
X131128571Y-96575476D02*
X131033333Y-96670714D01*
X131033333Y-96670714D02*
X130938095Y-96718333D01*
X131842857Y-96432619D02*
X132461904Y-96432619D01*
X132461904Y-96432619D02*
X132128571Y-96813571D01*
X132128571Y-96813571D02*
X132271428Y-96813571D01*
X132271428Y-96813571D02*
X132366666Y-96861190D01*
X132366666Y-96861190D02*
X132414285Y-96908809D01*
X132414285Y-96908809D02*
X132461904Y-97004047D01*
X132461904Y-97004047D02*
X132461904Y-97242142D01*
X132461904Y-97242142D02*
X132414285Y-97337380D01*
X132414285Y-97337380D02*
X132366666Y-97385000D01*
X132366666Y-97385000D02*
X132271428Y-97432619D01*
X132271428Y-97432619D02*
X131985714Y-97432619D01*
X131985714Y-97432619D02*
X131890476Y-97385000D01*
X131890476Y-97385000D02*
X131842857Y-97337380D01*
%TO.C,C14*%
X130557142Y-103087380D02*
X130509523Y-103135000D01*
X130509523Y-103135000D02*
X130366666Y-103182619D01*
X130366666Y-103182619D02*
X130271428Y-103182619D01*
X130271428Y-103182619D02*
X130128571Y-103135000D01*
X130128571Y-103135000D02*
X130033333Y-103039761D01*
X130033333Y-103039761D02*
X129985714Y-102944523D01*
X129985714Y-102944523D02*
X129938095Y-102754047D01*
X129938095Y-102754047D02*
X129938095Y-102611190D01*
X129938095Y-102611190D02*
X129985714Y-102420714D01*
X129985714Y-102420714D02*
X130033333Y-102325476D01*
X130033333Y-102325476D02*
X130128571Y-102230238D01*
X130128571Y-102230238D02*
X130271428Y-102182619D01*
X130271428Y-102182619D02*
X130366666Y-102182619D01*
X130366666Y-102182619D02*
X130509523Y-102230238D01*
X130509523Y-102230238D02*
X130557142Y-102277857D01*
X131509523Y-103182619D02*
X130938095Y-103182619D01*
X131223809Y-103182619D02*
X131223809Y-102182619D01*
X131223809Y-102182619D02*
X131128571Y-102325476D01*
X131128571Y-102325476D02*
X131033333Y-102420714D01*
X131033333Y-102420714D02*
X130938095Y-102468333D01*
X132366666Y-102515952D02*
X132366666Y-103182619D01*
X132128571Y-102135000D02*
X131890476Y-102849285D01*
X131890476Y-102849285D02*
X132509523Y-102849285D01*
%TO.C,J6*%
X184512619Y-86003333D02*
X185226904Y-86003333D01*
X185226904Y-86003333D02*
X185369761Y-86050952D01*
X185369761Y-86050952D02*
X185465000Y-86146190D01*
X185465000Y-86146190D02*
X185512619Y-86289047D01*
X185512619Y-86289047D02*
X185512619Y-86384285D01*
X184512619Y-85098571D02*
X184512619Y-85289047D01*
X184512619Y-85289047D02*
X184560238Y-85384285D01*
X184560238Y-85384285D02*
X184607857Y-85431904D01*
X184607857Y-85431904D02*
X184750714Y-85527142D01*
X184750714Y-85527142D02*
X184941190Y-85574761D01*
X184941190Y-85574761D02*
X185322142Y-85574761D01*
X185322142Y-85574761D02*
X185417380Y-85527142D01*
X185417380Y-85527142D02*
X185465000Y-85479523D01*
X185465000Y-85479523D02*
X185512619Y-85384285D01*
X185512619Y-85384285D02*
X185512619Y-85193809D01*
X185512619Y-85193809D02*
X185465000Y-85098571D01*
X185465000Y-85098571D02*
X185417380Y-85050952D01*
X185417380Y-85050952D02*
X185322142Y-85003333D01*
X185322142Y-85003333D02*
X185084047Y-85003333D01*
X185084047Y-85003333D02*
X184988809Y-85050952D01*
X184988809Y-85050952D02*
X184941190Y-85098571D01*
X184941190Y-85098571D02*
X184893571Y-85193809D01*
X184893571Y-85193809D02*
X184893571Y-85384285D01*
X184893571Y-85384285D02*
X184941190Y-85479523D01*
X184941190Y-85479523D02*
X184988809Y-85527142D01*
X184988809Y-85527142D02*
X185084047Y-85574761D01*
%TO.C,L1*%
X136312619Y-95024166D02*
X136312619Y-95500356D01*
X136312619Y-95500356D02*
X135312619Y-95500356D01*
X136312619Y-94167023D02*
X136312619Y-94738451D01*
X136312619Y-94452737D02*
X135312619Y-94452737D01*
X135312619Y-94452737D02*
X135455476Y-94547975D01*
X135455476Y-94547975D02*
X135550714Y-94643213D01*
X135550714Y-94643213D02*
X135598333Y-94738451D01*
%TO.C,J1*%
X171571666Y-121053619D02*
X171571666Y-121767904D01*
X171571666Y-121767904D02*
X171524047Y-121910761D01*
X171524047Y-121910761D02*
X171428809Y-122006000D01*
X171428809Y-122006000D02*
X171285952Y-122053619D01*
X171285952Y-122053619D02*
X171190714Y-122053619D01*
X172571666Y-122053619D02*
X172000238Y-122053619D01*
X172285952Y-122053619D02*
X172285952Y-121053619D01*
X172285952Y-121053619D02*
X172190714Y-121196476D01*
X172190714Y-121196476D02*
X172095476Y-121291714D01*
X172095476Y-121291714D02*
X172000238Y-121339333D01*
%TO.C,J8*%
X156042619Y-115253333D02*
X156756904Y-115253333D01*
X156756904Y-115253333D02*
X156899761Y-115300952D01*
X156899761Y-115300952D02*
X156995000Y-115396190D01*
X156995000Y-115396190D02*
X157042619Y-115539047D01*
X157042619Y-115539047D02*
X157042619Y-115634285D01*
X156471190Y-114634285D02*
X156423571Y-114729523D01*
X156423571Y-114729523D02*
X156375952Y-114777142D01*
X156375952Y-114777142D02*
X156280714Y-114824761D01*
X156280714Y-114824761D02*
X156233095Y-114824761D01*
X156233095Y-114824761D02*
X156137857Y-114777142D01*
X156137857Y-114777142D02*
X156090238Y-114729523D01*
X156090238Y-114729523D02*
X156042619Y-114634285D01*
X156042619Y-114634285D02*
X156042619Y-114443809D01*
X156042619Y-114443809D02*
X156090238Y-114348571D01*
X156090238Y-114348571D02*
X156137857Y-114300952D01*
X156137857Y-114300952D02*
X156233095Y-114253333D01*
X156233095Y-114253333D02*
X156280714Y-114253333D01*
X156280714Y-114253333D02*
X156375952Y-114300952D01*
X156375952Y-114300952D02*
X156423571Y-114348571D01*
X156423571Y-114348571D02*
X156471190Y-114443809D01*
X156471190Y-114443809D02*
X156471190Y-114634285D01*
X156471190Y-114634285D02*
X156518809Y-114729523D01*
X156518809Y-114729523D02*
X156566428Y-114777142D01*
X156566428Y-114777142D02*
X156661666Y-114824761D01*
X156661666Y-114824761D02*
X156852142Y-114824761D01*
X156852142Y-114824761D02*
X156947380Y-114777142D01*
X156947380Y-114777142D02*
X156995000Y-114729523D01*
X156995000Y-114729523D02*
X157042619Y-114634285D01*
X157042619Y-114634285D02*
X157042619Y-114443809D01*
X157042619Y-114443809D02*
X156995000Y-114348571D01*
X156995000Y-114348571D02*
X156947380Y-114300952D01*
X156947380Y-114300952D02*
X156852142Y-114253333D01*
X156852142Y-114253333D02*
X156661666Y-114253333D01*
X156661666Y-114253333D02*
X156566428Y-114300952D01*
X156566428Y-114300952D02*
X156518809Y-114348571D01*
X156518809Y-114348571D02*
X156471190Y-114443809D01*
%TO.C,C7*%
X180595833Y-95037380D02*
X180548214Y-95085000D01*
X180548214Y-95085000D02*
X180405357Y-95132619D01*
X180405357Y-95132619D02*
X180310119Y-95132619D01*
X180310119Y-95132619D02*
X180167262Y-95085000D01*
X180167262Y-95085000D02*
X180072024Y-94989761D01*
X180072024Y-94989761D02*
X180024405Y-94894523D01*
X180024405Y-94894523D02*
X179976786Y-94704047D01*
X179976786Y-94704047D02*
X179976786Y-94561190D01*
X179976786Y-94561190D02*
X180024405Y-94370714D01*
X180024405Y-94370714D02*
X180072024Y-94275476D01*
X180072024Y-94275476D02*
X180167262Y-94180238D01*
X180167262Y-94180238D02*
X180310119Y-94132619D01*
X180310119Y-94132619D02*
X180405357Y-94132619D01*
X180405357Y-94132619D02*
X180548214Y-94180238D01*
X180548214Y-94180238D02*
X180595833Y-94227857D01*
X180929167Y-94132619D02*
X181595833Y-94132619D01*
X181595833Y-94132619D02*
X181167262Y-95132619D01*
%TO.C,J4*%
X141916666Y-76176619D02*
X141916666Y-76890904D01*
X141916666Y-76890904D02*
X141869047Y-77033761D01*
X141869047Y-77033761D02*
X141773809Y-77129000D01*
X141773809Y-77129000D02*
X141630952Y-77176619D01*
X141630952Y-77176619D02*
X141535714Y-77176619D01*
X142821428Y-76509952D02*
X142821428Y-77176619D01*
X142583333Y-76129000D02*
X142345238Y-76843285D01*
X142345238Y-76843285D02*
X142964285Y-76843285D01*
%TO.C,C11*%
X150517380Y-87750357D02*
X150565000Y-87797976D01*
X150565000Y-87797976D02*
X150612619Y-87940833D01*
X150612619Y-87940833D02*
X150612619Y-88036071D01*
X150612619Y-88036071D02*
X150565000Y-88178928D01*
X150565000Y-88178928D02*
X150469761Y-88274166D01*
X150469761Y-88274166D02*
X150374523Y-88321785D01*
X150374523Y-88321785D02*
X150184047Y-88369404D01*
X150184047Y-88369404D02*
X150041190Y-88369404D01*
X150041190Y-88369404D02*
X149850714Y-88321785D01*
X149850714Y-88321785D02*
X149755476Y-88274166D01*
X149755476Y-88274166D02*
X149660238Y-88178928D01*
X149660238Y-88178928D02*
X149612619Y-88036071D01*
X149612619Y-88036071D02*
X149612619Y-87940833D01*
X149612619Y-87940833D02*
X149660238Y-87797976D01*
X149660238Y-87797976D02*
X149707857Y-87750357D01*
X150612619Y-86797976D02*
X150612619Y-87369404D01*
X150612619Y-87083690D02*
X149612619Y-87083690D01*
X149612619Y-87083690D02*
X149755476Y-87178928D01*
X149755476Y-87178928D02*
X149850714Y-87274166D01*
X149850714Y-87274166D02*
X149898333Y-87369404D01*
X150612619Y-85845595D02*
X150612619Y-86417023D01*
X150612619Y-86131309D02*
X149612619Y-86131309D01*
X149612619Y-86131309D02*
X149755476Y-86226547D01*
X149755476Y-86226547D02*
X149850714Y-86321785D01*
X149850714Y-86321785D02*
X149898333Y-86417023D01*
%TO.C,U5*%
X167738095Y-84132619D02*
X167738095Y-84942142D01*
X167738095Y-84942142D02*
X167785714Y-85037380D01*
X167785714Y-85037380D02*
X167833333Y-85085000D01*
X167833333Y-85085000D02*
X167928571Y-85132619D01*
X167928571Y-85132619D02*
X168119047Y-85132619D01*
X168119047Y-85132619D02*
X168214285Y-85085000D01*
X168214285Y-85085000D02*
X168261904Y-85037380D01*
X168261904Y-85037380D02*
X168309523Y-84942142D01*
X168309523Y-84942142D02*
X168309523Y-84132619D01*
X169261904Y-84132619D02*
X168785714Y-84132619D01*
X168785714Y-84132619D02*
X168738095Y-84608809D01*
X168738095Y-84608809D02*
X168785714Y-84561190D01*
X168785714Y-84561190D02*
X168880952Y-84513571D01*
X168880952Y-84513571D02*
X169119047Y-84513571D01*
X169119047Y-84513571D02*
X169214285Y-84561190D01*
X169214285Y-84561190D02*
X169261904Y-84608809D01*
X169261904Y-84608809D02*
X169309523Y-84704047D01*
X169309523Y-84704047D02*
X169309523Y-84942142D01*
X169309523Y-84942142D02*
X169261904Y-85037380D01*
X169261904Y-85037380D02*
X169214285Y-85085000D01*
X169214285Y-85085000D02*
X169119047Y-85132619D01*
X169119047Y-85132619D02*
X168880952Y-85132619D01*
X168880952Y-85132619D02*
X168785714Y-85085000D01*
X168785714Y-85085000D02*
X168738095Y-85037380D01*
X164547619Y-85037380D02*
X164500000Y-85085000D01*
X164500000Y-85085000D02*
X164357143Y-85132619D01*
X164357143Y-85132619D02*
X164261905Y-85132619D01*
X164261905Y-85132619D02*
X164119048Y-85085000D01*
X164119048Y-85085000D02*
X164023810Y-84989761D01*
X164023810Y-84989761D02*
X163976191Y-84894523D01*
X163976191Y-84894523D02*
X163928572Y-84704047D01*
X163928572Y-84704047D02*
X163928572Y-84561190D01*
X163928572Y-84561190D02*
X163976191Y-84370714D01*
X163976191Y-84370714D02*
X164023810Y-84275476D01*
X164023810Y-84275476D02*
X164119048Y-84180238D01*
X164119048Y-84180238D02*
X164261905Y-84132619D01*
X164261905Y-84132619D02*
X164357143Y-84132619D01*
X164357143Y-84132619D02*
X164500000Y-84180238D01*
X164500000Y-84180238D02*
X164547619Y-84227857D01*
X164928572Y-84846904D02*
X165404762Y-84846904D01*
X164833334Y-85132619D02*
X165166667Y-84132619D01*
X165166667Y-84132619D02*
X165500000Y-85132619D01*
X165833334Y-85132619D02*
X165833334Y-84132619D01*
X165833334Y-84132619D02*
X166166667Y-84846904D01*
X166166667Y-84846904D02*
X166500000Y-84132619D01*
X166500000Y-84132619D02*
X166500000Y-85132619D01*
X166976191Y-84751666D02*
X167738096Y-84751666D01*
X168214286Y-85132619D02*
X168214286Y-84132619D01*
X168214286Y-84132619D02*
X168547619Y-84846904D01*
X168547619Y-84846904D02*
X168880952Y-84132619D01*
X168880952Y-84132619D02*
X168880952Y-85132619D01*
X169500000Y-84561190D02*
X169404762Y-84513571D01*
X169404762Y-84513571D02*
X169357143Y-84465952D01*
X169357143Y-84465952D02*
X169309524Y-84370714D01*
X169309524Y-84370714D02*
X169309524Y-84323095D01*
X169309524Y-84323095D02*
X169357143Y-84227857D01*
X169357143Y-84227857D02*
X169404762Y-84180238D01*
X169404762Y-84180238D02*
X169500000Y-84132619D01*
X169500000Y-84132619D02*
X169690476Y-84132619D01*
X169690476Y-84132619D02*
X169785714Y-84180238D01*
X169785714Y-84180238D02*
X169833333Y-84227857D01*
X169833333Y-84227857D02*
X169880952Y-84323095D01*
X169880952Y-84323095D02*
X169880952Y-84370714D01*
X169880952Y-84370714D02*
X169833333Y-84465952D01*
X169833333Y-84465952D02*
X169785714Y-84513571D01*
X169785714Y-84513571D02*
X169690476Y-84561190D01*
X169690476Y-84561190D02*
X169500000Y-84561190D01*
X169500000Y-84561190D02*
X169404762Y-84608809D01*
X169404762Y-84608809D02*
X169357143Y-84656428D01*
X169357143Y-84656428D02*
X169309524Y-84751666D01*
X169309524Y-84751666D02*
X169309524Y-84942142D01*
X169309524Y-84942142D02*
X169357143Y-85037380D01*
X169357143Y-85037380D02*
X169404762Y-85085000D01*
X169404762Y-85085000D02*
X169500000Y-85132619D01*
X169500000Y-85132619D02*
X169690476Y-85132619D01*
X169690476Y-85132619D02*
X169785714Y-85085000D01*
X169785714Y-85085000D02*
X169833333Y-85037380D01*
X169833333Y-85037380D02*
X169880952Y-84942142D01*
X169880952Y-84942142D02*
X169880952Y-84751666D01*
X169880952Y-84751666D02*
X169833333Y-84656428D01*
X169833333Y-84656428D02*
X169785714Y-84608809D01*
X169785714Y-84608809D02*
X169690476Y-84561190D01*
X170880952Y-85037380D02*
X170833333Y-85085000D01*
X170833333Y-85085000D02*
X170690476Y-85132619D01*
X170690476Y-85132619D02*
X170595238Y-85132619D01*
X170595238Y-85132619D02*
X170452381Y-85085000D01*
X170452381Y-85085000D02*
X170357143Y-84989761D01*
X170357143Y-84989761D02*
X170309524Y-84894523D01*
X170309524Y-84894523D02*
X170261905Y-84704047D01*
X170261905Y-84704047D02*
X170261905Y-84561190D01*
X170261905Y-84561190D02*
X170309524Y-84370714D01*
X170309524Y-84370714D02*
X170357143Y-84275476D01*
X170357143Y-84275476D02*
X170452381Y-84180238D01*
X170452381Y-84180238D02*
X170595238Y-84132619D01*
X170595238Y-84132619D02*
X170690476Y-84132619D01*
X170690476Y-84132619D02*
X170833333Y-84180238D01*
X170833333Y-84180238D02*
X170880952Y-84227857D01*
X171309524Y-84751666D02*
X172071429Y-84751666D01*
X172738095Y-84132619D02*
X172833333Y-84132619D01*
X172833333Y-84132619D02*
X172928571Y-84180238D01*
X172928571Y-84180238D02*
X172976190Y-84227857D01*
X172976190Y-84227857D02*
X173023809Y-84323095D01*
X173023809Y-84323095D02*
X173071428Y-84513571D01*
X173071428Y-84513571D02*
X173071428Y-84751666D01*
X173071428Y-84751666D02*
X173023809Y-84942142D01*
X173023809Y-84942142D02*
X172976190Y-85037380D01*
X172976190Y-85037380D02*
X172928571Y-85085000D01*
X172928571Y-85085000D02*
X172833333Y-85132619D01*
X172833333Y-85132619D02*
X172738095Y-85132619D01*
X172738095Y-85132619D02*
X172642857Y-85085000D01*
X172642857Y-85085000D02*
X172595238Y-85037380D01*
X172595238Y-85037380D02*
X172547619Y-84942142D01*
X172547619Y-84942142D02*
X172500000Y-84751666D01*
X172500000Y-84751666D02*
X172500000Y-84513571D01*
X172500000Y-84513571D02*
X172547619Y-84323095D01*
X172547619Y-84323095D02*
X172595238Y-84227857D01*
X172595238Y-84227857D02*
X172642857Y-84180238D01*
X172642857Y-84180238D02*
X172738095Y-84132619D01*
X168500000Y-84132619D02*
X168500000Y-84370714D01*
X168261905Y-84275476D02*
X168500000Y-84370714D01*
X168500000Y-84370714D02*
X168738095Y-84275476D01*
X168357143Y-84561190D02*
X168500000Y-84370714D01*
X168500000Y-84370714D02*
X168642857Y-84561190D01*
%TO.C,C9*%
X160463380Y-89969166D02*
X160511000Y-90016785D01*
X160511000Y-90016785D02*
X160558619Y-90159642D01*
X160558619Y-90159642D02*
X160558619Y-90254880D01*
X160558619Y-90254880D02*
X160511000Y-90397737D01*
X160511000Y-90397737D02*
X160415761Y-90492975D01*
X160415761Y-90492975D02*
X160320523Y-90540594D01*
X160320523Y-90540594D02*
X160130047Y-90588213D01*
X160130047Y-90588213D02*
X159987190Y-90588213D01*
X159987190Y-90588213D02*
X159796714Y-90540594D01*
X159796714Y-90540594D02*
X159701476Y-90492975D01*
X159701476Y-90492975D02*
X159606238Y-90397737D01*
X159606238Y-90397737D02*
X159558619Y-90254880D01*
X159558619Y-90254880D02*
X159558619Y-90159642D01*
X159558619Y-90159642D02*
X159606238Y-90016785D01*
X159606238Y-90016785D02*
X159653857Y-89969166D01*
X160558619Y-89492975D02*
X160558619Y-89302499D01*
X160558619Y-89302499D02*
X160511000Y-89207261D01*
X160511000Y-89207261D02*
X160463380Y-89159642D01*
X160463380Y-89159642D02*
X160320523Y-89064404D01*
X160320523Y-89064404D02*
X160130047Y-89016785D01*
X160130047Y-89016785D02*
X159749095Y-89016785D01*
X159749095Y-89016785D02*
X159653857Y-89064404D01*
X159653857Y-89064404D02*
X159606238Y-89112023D01*
X159606238Y-89112023D02*
X159558619Y-89207261D01*
X159558619Y-89207261D02*
X159558619Y-89397737D01*
X159558619Y-89397737D02*
X159606238Y-89492975D01*
X159606238Y-89492975D02*
X159653857Y-89540594D01*
X159653857Y-89540594D02*
X159749095Y-89588213D01*
X159749095Y-89588213D02*
X159987190Y-89588213D01*
X159987190Y-89588213D02*
X160082428Y-89540594D01*
X160082428Y-89540594D02*
X160130047Y-89492975D01*
X160130047Y-89492975D02*
X160177666Y-89397737D01*
X160177666Y-89397737D02*
X160177666Y-89207261D01*
X160177666Y-89207261D02*
X160130047Y-89112023D01*
X160130047Y-89112023D02*
X160082428Y-89064404D01*
X160082428Y-89064404D02*
X159987190Y-89016785D01*
%TO.C,U4*%
X130488095Y-92432619D02*
X130488095Y-93242142D01*
X130488095Y-93242142D02*
X130535714Y-93337380D01*
X130535714Y-93337380D02*
X130583333Y-93385000D01*
X130583333Y-93385000D02*
X130678571Y-93432619D01*
X130678571Y-93432619D02*
X130869047Y-93432619D01*
X130869047Y-93432619D02*
X130964285Y-93385000D01*
X130964285Y-93385000D02*
X131011904Y-93337380D01*
X131011904Y-93337380D02*
X131059523Y-93242142D01*
X131059523Y-93242142D02*
X131059523Y-92432619D01*
X131964285Y-92765952D02*
X131964285Y-93432619D01*
X131726190Y-92385000D02*
X131488095Y-93099285D01*
X131488095Y-93099285D02*
X132107142Y-93099285D01*
%TO.C,C15*%
X173687380Y-90100357D02*
X173735000Y-90147976D01*
X173735000Y-90147976D02*
X173782619Y-90290833D01*
X173782619Y-90290833D02*
X173782619Y-90386071D01*
X173782619Y-90386071D02*
X173735000Y-90528928D01*
X173735000Y-90528928D02*
X173639761Y-90624166D01*
X173639761Y-90624166D02*
X173544523Y-90671785D01*
X173544523Y-90671785D02*
X173354047Y-90719404D01*
X173354047Y-90719404D02*
X173211190Y-90719404D01*
X173211190Y-90719404D02*
X173020714Y-90671785D01*
X173020714Y-90671785D02*
X172925476Y-90624166D01*
X172925476Y-90624166D02*
X172830238Y-90528928D01*
X172830238Y-90528928D02*
X172782619Y-90386071D01*
X172782619Y-90386071D02*
X172782619Y-90290833D01*
X172782619Y-90290833D02*
X172830238Y-90147976D01*
X172830238Y-90147976D02*
X172877857Y-90100357D01*
X173782619Y-89147976D02*
X173782619Y-89719404D01*
X173782619Y-89433690D02*
X172782619Y-89433690D01*
X172782619Y-89433690D02*
X172925476Y-89528928D01*
X172925476Y-89528928D02*
X173020714Y-89624166D01*
X173020714Y-89624166D02*
X173068333Y-89719404D01*
X172782619Y-88243214D02*
X172782619Y-88719404D01*
X172782619Y-88719404D02*
X173258809Y-88767023D01*
X173258809Y-88767023D02*
X173211190Y-88719404D01*
X173211190Y-88719404D02*
X173163571Y-88624166D01*
X173163571Y-88624166D02*
X173163571Y-88386071D01*
X173163571Y-88386071D02*
X173211190Y-88290833D01*
X173211190Y-88290833D02*
X173258809Y-88243214D01*
X173258809Y-88243214D02*
X173354047Y-88195595D01*
X173354047Y-88195595D02*
X173592142Y-88195595D01*
X173592142Y-88195595D02*
X173687380Y-88243214D01*
X173687380Y-88243214D02*
X173735000Y-88290833D01*
X173735000Y-88290833D02*
X173782619Y-88386071D01*
X173782619Y-88386071D02*
X173782619Y-88624166D01*
X173782619Y-88624166D02*
X173735000Y-88719404D01*
X173735000Y-88719404D02*
X173687380Y-88767023D01*
%TO.C,X1*%
X159215476Y-82632619D02*
X159882142Y-83632619D01*
X159882142Y-82632619D02*
X159215476Y-83632619D01*
X160786904Y-83632619D02*
X160215476Y-83632619D01*
X160501190Y-83632619D02*
X160501190Y-82632619D01*
X160501190Y-82632619D02*
X160405952Y-82775476D01*
X160405952Y-82775476D02*
X160310714Y-82870714D01*
X160310714Y-82870714D02*
X160215476Y-82918333D01*
%TO.C,FID1*%
X156428571Y-94108809D02*
X156095238Y-94108809D01*
X156095238Y-94632619D02*
X156095238Y-93632619D01*
X156095238Y-93632619D02*
X156571428Y-93632619D01*
X156952381Y-94632619D02*
X156952381Y-93632619D01*
X157428571Y-94632619D02*
X157428571Y-93632619D01*
X157428571Y-93632619D02*
X157666666Y-93632619D01*
X157666666Y-93632619D02*
X157809523Y-93680238D01*
X157809523Y-93680238D02*
X157904761Y-93775476D01*
X157904761Y-93775476D02*
X157952380Y-93870714D01*
X157952380Y-93870714D02*
X157999999Y-94061190D01*
X157999999Y-94061190D02*
X157999999Y-94204047D01*
X157999999Y-94204047D02*
X157952380Y-94394523D01*
X157952380Y-94394523D02*
X157904761Y-94489761D01*
X157904761Y-94489761D02*
X157809523Y-94585000D01*
X157809523Y-94585000D02*
X157666666Y-94632619D01*
X157666666Y-94632619D02*
X157428571Y-94632619D01*
X158952380Y-94632619D02*
X158380952Y-94632619D01*
X158666666Y-94632619D02*
X158666666Y-93632619D01*
X158666666Y-93632619D02*
X158571428Y-93775476D01*
X158571428Y-93775476D02*
X158476190Y-93870714D01*
X158476190Y-93870714D02*
X158380952Y-93918333D01*
%TO.C,D3*%
X160212619Y-99908094D02*
X159212619Y-99908094D01*
X159212619Y-99908094D02*
X159212619Y-99669999D01*
X159212619Y-99669999D02*
X159260238Y-99527142D01*
X159260238Y-99527142D02*
X159355476Y-99431904D01*
X159355476Y-99431904D02*
X159450714Y-99384285D01*
X159450714Y-99384285D02*
X159641190Y-99336666D01*
X159641190Y-99336666D02*
X159784047Y-99336666D01*
X159784047Y-99336666D02*
X159974523Y-99384285D01*
X159974523Y-99384285D02*
X160069761Y-99431904D01*
X160069761Y-99431904D02*
X160165000Y-99527142D01*
X160165000Y-99527142D02*
X160212619Y-99669999D01*
X160212619Y-99669999D02*
X160212619Y-99908094D01*
X159212619Y-99003332D02*
X159212619Y-98384285D01*
X159212619Y-98384285D02*
X159593571Y-98717618D01*
X159593571Y-98717618D02*
X159593571Y-98574761D01*
X159593571Y-98574761D02*
X159641190Y-98479523D01*
X159641190Y-98479523D02*
X159688809Y-98431904D01*
X159688809Y-98431904D02*
X159784047Y-98384285D01*
X159784047Y-98384285D02*
X160022142Y-98384285D01*
X160022142Y-98384285D02*
X160117380Y-98431904D01*
X160117380Y-98431904D02*
X160165000Y-98479523D01*
X160165000Y-98479523D02*
X160212619Y-98574761D01*
X160212619Y-98574761D02*
X160212619Y-98860475D01*
X160212619Y-98860475D02*
X160165000Y-98955713D01*
X160165000Y-98955713D02*
X160117380Y-99003332D01*
%TO.C,D5*%
X138962619Y-101158094D02*
X137962619Y-101158094D01*
X137962619Y-101158094D02*
X137962619Y-100919999D01*
X137962619Y-100919999D02*
X138010238Y-100777142D01*
X138010238Y-100777142D02*
X138105476Y-100681904D01*
X138105476Y-100681904D02*
X138200714Y-100634285D01*
X138200714Y-100634285D02*
X138391190Y-100586666D01*
X138391190Y-100586666D02*
X138534047Y-100586666D01*
X138534047Y-100586666D02*
X138724523Y-100634285D01*
X138724523Y-100634285D02*
X138819761Y-100681904D01*
X138819761Y-100681904D02*
X138915000Y-100777142D01*
X138915000Y-100777142D02*
X138962619Y-100919999D01*
X138962619Y-100919999D02*
X138962619Y-101158094D01*
X137962619Y-99681904D02*
X137962619Y-100158094D01*
X137962619Y-100158094D02*
X138438809Y-100205713D01*
X138438809Y-100205713D02*
X138391190Y-100158094D01*
X138391190Y-100158094D02*
X138343571Y-100062856D01*
X138343571Y-100062856D02*
X138343571Y-99824761D01*
X138343571Y-99824761D02*
X138391190Y-99729523D01*
X138391190Y-99729523D02*
X138438809Y-99681904D01*
X138438809Y-99681904D02*
X138534047Y-99634285D01*
X138534047Y-99634285D02*
X138772142Y-99634285D01*
X138772142Y-99634285D02*
X138867380Y-99681904D01*
X138867380Y-99681904D02*
X138915000Y-99729523D01*
X138915000Y-99729523D02*
X138962619Y-99824761D01*
X138962619Y-99824761D02*
X138962619Y-100062856D01*
X138962619Y-100062856D02*
X138915000Y-100158094D01*
X138915000Y-100158094D02*
X138867380Y-100205713D01*
%TO.C,D6*%
X135962619Y-88008094D02*
X134962619Y-88008094D01*
X134962619Y-88008094D02*
X134962619Y-87769999D01*
X134962619Y-87769999D02*
X135010238Y-87627142D01*
X135010238Y-87627142D02*
X135105476Y-87531904D01*
X135105476Y-87531904D02*
X135200714Y-87484285D01*
X135200714Y-87484285D02*
X135391190Y-87436666D01*
X135391190Y-87436666D02*
X135534047Y-87436666D01*
X135534047Y-87436666D02*
X135724523Y-87484285D01*
X135724523Y-87484285D02*
X135819761Y-87531904D01*
X135819761Y-87531904D02*
X135915000Y-87627142D01*
X135915000Y-87627142D02*
X135962619Y-87769999D01*
X135962619Y-87769999D02*
X135962619Y-88008094D01*
X134962619Y-86579523D02*
X134962619Y-86769999D01*
X134962619Y-86769999D02*
X135010238Y-86865237D01*
X135010238Y-86865237D02*
X135057857Y-86912856D01*
X135057857Y-86912856D02*
X135200714Y-87008094D01*
X135200714Y-87008094D02*
X135391190Y-87055713D01*
X135391190Y-87055713D02*
X135772142Y-87055713D01*
X135772142Y-87055713D02*
X135867380Y-87008094D01*
X135867380Y-87008094D02*
X135915000Y-86960475D01*
X135915000Y-86960475D02*
X135962619Y-86865237D01*
X135962619Y-86865237D02*
X135962619Y-86674761D01*
X135962619Y-86674761D02*
X135915000Y-86579523D01*
X135915000Y-86579523D02*
X135867380Y-86531904D01*
X135867380Y-86531904D02*
X135772142Y-86484285D01*
X135772142Y-86484285D02*
X135534047Y-86484285D01*
X135534047Y-86484285D02*
X135438809Y-86531904D01*
X135438809Y-86531904D02*
X135391190Y-86579523D01*
X135391190Y-86579523D02*
X135343571Y-86674761D01*
X135343571Y-86674761D02*
X135343571Y-86865237D01*
X135343571Y-86865237D02*
X135391190Y-86960475D01*
X135391190Y-86960475D02*
X135438809Y-87008094D01*
X135438809Y-87008094D02*
X135534047Y-87055713D01*
%TO.C,D1*%
X178962619Y-80808094D02*
X177962619Y-80808094D01*
X177962619Y-80808094D02*
X177962619Y-80569999D01*
X177962619Y-80569999D02*
X178010238Y-80427142D01*
X178010238Y-80427142D02*
X178105476Y-80331904D01*
X178105476Y-80331904D02*
X178200714Y-80284285D01*
X178200714Y-80284285D02*
X178391190Y-80236666D01*
X178391190Y-80236666D02*
X178534047Y-80236666D01*
X178534047Y-80236666D02*
X178724523Y-80284285D01*
X178724523Y-80284285D02*
X178819761Y-80331904D01*
X178819761Y-80331904D02*
X178915000Y-80427142D01*
X178915000Y-80427142D02*
X178962619Y-80569999D01*
X178962619Y-80569999D02*
X178962619Y-80808094D01*
X178962619Y-79284285D02*
X178962619Y-79855713D01*
X178962619Y-79569999D02*
X177962619Y-79569999D01*
X177962619Y-79569999D02*
X178105476Y-79665237D01*
X178105476Y-79665237D02*
X178200714Y-79760475D01*
X178200714Y-79760475D02*
X178248333Y-79855713D01*
D11*
%TO.C,C30*%
X236265000Y-89718752D02*
X236265000Y-89196248D01*
X237735000Y-89718752D02*
X237735000Y-89196248D01*
%TO.C,R9*%
X243765000Y-100647064D02*
X243765000Y-100192936D01*
X245235000Y-100647064D02*
X245235000Y-100192936D01*
%TO.C,J16*%
X221185000Y-121355000D02*
X224260000Y-121355000D01*
X224260000Y-121355000D02*
X224260000Y-108485000D01*
X219670000Y-119935000D02*
X220170000Y-119935000D01*
X220170000Y-119935000D02*
X220170000Y-109905000D01*
X219670000Y-119915000D02*
X219670000Y-119935000D01*
X219670000Y-109905000D02*
X219670000Y-109925000D01*
X220170000Y-109905000D02*
X219670000Y-109905000D01*
X224260000Y-108485000D02*
X221185000Y-108485000D01*
%TO.C,R12*%
X218735000Y-86442936D02*
X218735000Y-86897064D01*
X217265000Y-86442936D02*
X217265000Y-86897064D01*
%TO.C,JP4*%
X244200000Y-102620000D02*
X244800000Y-102620000D01*
X245500000Y-103320000D02*
X245500000Y-104720000D01*
X243500000Y-104720000D02*
X243500000Y-103320000D01*
X244800000Y-105420000D02*
X244200000Y-105420000D01*
X245500000Y-103320000D02*
G75*
G03*
X244800000Y-102620000I-699999J1D01*
G01*
X244200000Y-102620000D02*
G75*
G03*
X243500000Y-103320000I-1J-699999D01*
G01*
X244800000Y-105420000D02*
G75*
G03*
X245500000Y-104720000I0J700000D01*
G01*
X243500000Y-104720000D02*
G75*
G03*
X244200000Y-105420000I700000J0D01*
G01*
%TO.C,U8*%
X234860000Y-106285000D02*
X234860000Y-106040000D01*
X234860000Y-106040000D02*
X236675000Y-106040000D01*
X234860000Y-94515000D02*
X234860000Y-94760000D01*
X231000000Y-106285000D02*
X234860000Y-106285000D01*
X231000000Y-106285000D02*
X227140000Y-106285000D01*
X231000000Y-94515000D02*
X234860000Y-94515000D01*
X231000000Y-94515000D02*
X227140000Y-94515000D01*
X227140000Y-106285000D02*
X227140000Y-106040000D01*
X227140000Y-94515000D02*
X227140000Y-94760000D01*
%TO.C,C23*%
X239723752Y-104155000D02*
X239201248Y-104155000D01*
X239723752Y-102685000D02*
X239201248Y-102685000D01*
%TO.C,C29*%
X190200000Y-104360000D02*
X190700000Y-104360000D01*
X190450000Y-104110000D02*
X190450000Y-104610000D01*
X190940000Y-104724437D02*
X190940000Y-104860000D01*
X190940000Y-104724437D02*
X192004437Y-103660000D01*
X190940000Y-107115563D02*
X190940000Y-106980000D01*
X190940000Y-107115563D02*
X192004437Y-108180000D01*
X192004437Y-103660000D02*
X195460000Y-103660000D01*
X192004437Y-108180000D02*
X195460000Y-108180000D01*
X195460000Y-103660000D02*
X195460000Y-104860000D01*
X195460000Y-108180000D02*
X195460000Y-106980000D01*
%TO.C,C26*%
X213090000Y-87818752D02*
X213090000Y-86396248D01*
X214910000Y-87818752D02*
X214910000Y-86396248D01*
D12*
%TO.C,mouse-bite-1mm-slot3*%
X195000000Y-77220000D02*
G75*
G03*
X195000000Y-76220000I0J500000D01*
G01*
X198000000Y-76220000D02*
G75*
G03*
X198000000Y-77220000I0J-500000D01*
G01*
D11*
%TO.C,L2*%
X198840000Y-95692742D02*
X198840000Y-94022258D01*
X200660000Y-95692742D02*
X200660000Y-94022258D01*
%TO.C,D12*%
X198500000Y-89520000D02*
X200500000Y-89520000D01*
X198500000Y-89520000D02*
X198500000Y-85620000D01*
X200500000Y-89520000D02*
X200500000Y-85620000D01*
%TO.C,C16*%
X221526248Y-103935000D02*
X222048752Y-103935000D01*
X221526248Y-105405000D02*
X222048752Y-105405000D01*
%TO.C,R14*%
X209515000Y-86647064D02*
X209515000Y-86192936D01*
X210985000Y-86647064D02*
X210985000Y-86192936D01*
%TO.C,D9*%
X220830000Y-99930000D02*
X220830000Y-97770000D01*
X220830000Y-99930000D02*
X219900000Y-99930000D01*
X217670000Y-99930000D02*
X217670000Y-98470000D01*
X217670000Y-99930000D02*
X218600000Y-99930000D01*
%TO.C,C24*%
X221265000Y-86968752D02*
X221265000Y-86446248D01*
X222735000Y-86968752D02*
X222735000Y-86446248D01*
%TO.C,R11*%
X220735000Y-86442936D02*
X220735000Y-86897064D01*
X219265000Y-86442936D02*
X219265000Y-86897064D01*
%TO.C,D7*%
X239500000Y-77710000D02*
X237500000Y-77710000D01*
X239500000Y-77710000D02*
X239500000Y-81720000D01*
X237500000Y-77710000D02*
X237500000Y-81720000D01*
%TO.C,U7*%
X245027000Y-109695000D02*
X245027000Y-106245000D01*
X245027000Y-109695000D02*
X245027000Y-111645000D01*
X239907000Y-109695000D02*
X239907000Y-107745000D01*
X239907000Y-109695000D02*
X239907000Y-111645000D01*
%TO.C,R10*%
X221522936Y-101935000D02*
X221977064Y-101935000D01*
X221522936Y-103405000D02*
X221977064Y-103405000D01*
%TO.C,U9*%
X192370000Y-96980000D02*
X194130000Y-96980000D01*
X194130000Y-93910000D02*
X191700000Y-93910000D01*
%TO.C,C25*%
X207040000Y-86706252D02*
X207040000Y-86183748D01*
X208460000Y-86706252D02*
X208460000Y-86183748D01*
%TO.C,C27*%
X237765000Y-85143752D02*
X237765000Y-84621248D01*
X239235000Y-85143752D02*
X239235000Y-84621248D01*
%TO.C,J12*%
X197650000Y-77514000D02*
X197650000Y-78764000D01*
X197940000Y-77804000D02*
X197940000Y-83774000D01*
X197940000Y-83774000D02*
X210560000Y-83774000D01*
X197950000Y-77814000D02*
X197950000Y-78564000D01*
X197950000Y-78564000D02*
X199750000Y-78564000D01*
X197950000Y-80064000D02*
X198700000Y-80064000D01*
X198700000Y-80064000D02*
X198700000Y-83014000D01*
X198700000Y-83014000D02*
X204250000Y-83014000D01*
X198900000Y-77514000D02*
X197650000Y-77514000D01*
X199750000Y-77814000D02*
X197950000Y-77814000D01*
X199750000Y-78564000D02*
X199750000Y-77814000D01*
X201250000Y-77814000D02*
X201250000Y-78564000D01*
X201250000Y-78564000D02*
X207250000Y-78564000D01*
X207250000Y-77814000D02*
X201250000Y-77814000D01*
X207250000Y-78564000D02*
X207250000Y-77814000D01*
X208750000Y-77814000D02*
X208750000Y-78564000D01*
X208750000Y-78564000D02*
X210550000Y-78564000D01*
X209800000Y-80064000D02*
X209800000Y-83014000D01*
X209800000Y-83014000D02*
X204250000Y-83014000D01*
X210550000Y-77814000D02*
X208750000Y-77814000D01*
X210550000Y-78564000D02*
X210550000Y-77814000D01*
X210550000Y-80064000D02*
X209800000Y-80064000D01*
X210560000Y-77804000D02*
X197940000Y-77804000D01*
X210560000Y-83774000D02*
X210560000Y-77804000D01*
%TO.C,U10*%
X225470800Y-77367500D02*
X225470800Y-78009265D01*
X225470800Y-91330735D02*
X225470800Y-91972500D01*
X225470800Y-91972500D02*
X227838531Y-91972500D01*
X227838531Y-77367500D02*
X225470800Y-77367500D01*
X233161469Y-91972500D02*
X235529200Y-91972500D01*
X235529200Y-77367500D02*
X233161469Y-77367500D01*
X235529200Y-78009265D02*
X235529200Y-77367500D01*
X235529200Y-91972500D02*
X235529200Y-91330735D01*
D12*
%TO.C,mouse-bite-1mm-slot2*%
X234900000Y-121920000D02*
G75*
G03*
X234900000Y-122920000I0J-500000D01*
G01*
X231900000Y-122920000D02*
G75*
G03*
X231900000Y-121920000I0J500000D01*
G01*
%TO.C,mouse-bite-1mm-slot4*%
X241400000Y-77220000D02*
G75*
G03*
X241400000Y-76220000I0J500000D01*
G01*
X244400000Y-76220000D02*
G75*
G03*
X244400000Y-77220000I0J-500000D01*
G01*
D11*
%TO.C,J11*%
X192242000Y-115630000D02*
X192242000Y-114300000D01*
X193572000Y-115630000D02*
X192242000Y-115630000D01*
X194842000Y-115630000D02*
X194902000Y-115630000D01*
X194842000Y-115630000D02*
X194842000Y-113030000D01*
X194902000Y-115630000D02*
X194902000Y-110430000D01*
X192242000Y-113030000D02*
X192242000Y-110430000D01*
X194842000Y-113030000D02*
X192242000Y-113030000D01*
X192242000Y-110430000D02*
X194902000Y-110430000D01*
D12*
%TO.C,mouse-bite-1mm-slot1*%
X192800000Y-121920000D02*
G75*
G03*
X192800000Y-122920000I0J-500000D01*
G01*
X189800000Y-122920000D02*
G75*
G03*
X189800000Y-121920000I0J500000D01*
G01*
D11*
%TO.C,C28*%
X190200000Y-98610000D02*
X190700000Y-98610000D01*
X190450000Y-98360000D02*
X190450000Y-98860000D01*
X190940000Y-98974437D02*
X190940000Y-99110000D01*
X190940000Y-98974437D02*
X192004437Y-97910000D01*
X190940000Y-101365563D02*
X190940000Y-101230000D01*
X190940000Y-101365563D02*
X192004437Y-102430000D01*
X192004437Y-97910000D02*
X195460000Y-97910000D01*
X192004437Y-102430000D02*
X195460000Y-102430000D01*
X195460000Y-97910000D02*
X195460000Y-99110000D01*
X195460000Y-102430000D02*
X195460000Y-101230000D01*
%TO.C,X2*%
X220525000Y-78170000D02*
X221325000Y-78170000D01*
X220525000Y-78370000D02*
X220525000Y-78170000D01*
X220725000Y-81170000D02*
X220525000Y-80970000D01*
X221325000Y-81170000D02*
X220725000Y-81170000D01*
X221325000Y-81170000D02*
X221325000Y-81670000D01*
X222725000Y-78170000D02*
X223525000Y-78170000D01*
X222725000Y-81170000D02*
X222725000Y-81670000D01*
X223525000Y-78170000D02*
X223525000Y-78370000D01*
X223525000Y-80970000D02*
X223525000Y-81170000D01*
X223525000Y-81170000D02*
X222725000Y-81170000D01*
%TO.C,D8*%
X234342000Y-111370000D02*
X234342000Y-107070000D01*
X234342000Y-111370000D02*
X228642000Y-111370000D01*
X234342000Y-107070000D02*
X228642000Y-107070000D01*
%TO.C,C22*%
X239201248Y-93935000D02*
X239723752Y-93935000D01*
X239201248Y-95405000D02*
X239723752Y-95405000D01*
%TO.C,D11*%
X199500000Y-98170000D02*
X197500000Y-98170000D01*
X199500000Y-98170000D02*
X199500000Y-102070000D01*
X197500000Y-98170000D02*
X197500000Y-102070000D01*
%TO.C,C18*%
X190550000Y-89360000D02*
X191050000Y-89360000D01*
X190800000Y-89110000D02*
X190800000Y-89610000D01*
X191290000Y-89724437D02*
X191290000Y-89860000D01*
X191290000Y-89724437D02*
X192354437Y-88660000D01*
X191290000Y-92115563D02*
X191290000Y-91980000D01*
X191290000Y-92115563D02*
X192354437Y-93180000D01*
X192354437Y-88660000D02*
X195810000Y-88660000D01*
X192354437Y-93180000D02*
X195810000Y-93180000D01*
X195810000Y-88660000D02*
X195810000Y-89860000D01*
X195810000Y-93180000D02*
X195810000Y-91980000D01*
%TO.C,F2*%
X193160436Y-84810000D02*
X194364564Y-84810000D01*
X193160436Y-87530000D02*
X194364564Y-87530000D01*
D10*
%TO.C,U6*%
X205125000Y-98545000D02*
X205125000Y-98770000D01*
X205125000Y-98545000D02*
X205450000Y-98545000D01*
X205125000Y-98770000D02*
X203700000Y-98770000D01*
X205125000Y-105795000D02*
X205125000Y-105470000D01*
X205125000Y-105795000D02*
X205450000Y-105795000D01*
X212375000Y-98545000D02*
X212050000Y-98545000D01*
X212375000Y-98545000D02*
X212375000Y-98870000D01*
X212375000Y-105795000D02*
X212050000Y-105795000D01*
X212375000Y-105795000D02*
X212375000Y-105470000D01*
D11*
%TO.C,J15*%
X202402000Y-115630000D02*
X202402000Y-114300000D01*
X203732000Y-115630000D02*
X202402000Y-115630000D01*
X205002000Y-115630000D02*
X217762000Y-115630000D01*
X205002000Y-115630000D02*
X205002000Y-113030000D01*
X217762000Y-115630000D02*
X217762000Y-110430000D01*
X202402000Y-113030000D02*
X202402000Y-110430000D01*
X205002000Y-113030000D02*
X202402000Y-113030000D01*
X202402000Y-110430000D02*
X217762000Y-110430000D01*
%TO.C,J13*%
X194782000Y-115630000D02*
X194782000Y-114300000D01*
X196112000Y-115630000D02*
X194782000Y-115630000D01*
X197382000Y-115630000D02*
X202522000Y-115630000D01*
X197382000Y-115630000D02*
X197382000Y-113030000D01*
X202522000Y-115630000D02*
X202522000Y-110430000D01*
X194782000Y-113030000D02*
X194782000Y-110430000D01*
X197382000Y-113030000D02*
X194782000Y-113030000D01*
X194782000Y-110430000D02*
X202522000Y-110430000D01*
%TO.C,D10*%
X204250000Y-89720000D02*
X206250000Y-89720000D01*
X206250000Y-89720000D02*
X206250000Y-85420000D01*
X204250000Y-85420000D02*
X204250000Y-89720000D01*
%TO.C,J14*%
X246250000Y-77820000D02*
X245000000Y-77820000D01*
X245960000Y-78110000D02*
X239990000Y-78110000D01*
X239990000Y-78110000D02*
X239990000Y-93230000D01*
X245950000Y-78120000D02*
X245200000Y-78120000D01*
X245200000Y-78120000D02*
X245200000Y-79920000D01*
X243700000Y-78120000D02*
X243700000Y-78870000D01*
X243700000Y-78870000D02*
X240750000Y-78870000D01*
X240750000Y-78870000D02*
X240750000Y-85670000D01*
X246250000Y-79070000D02*
X246250000Y-77820000D01*
X245950000Y-79920000D02*
X245950000Y-78120000D01*
X245200000Y-79920000D02*
X245950000Y-79920000D01*
X245950000Y-81420000D02*
X245200000Y-81420000D01*
X245200000Y-81420000D02*
X245200000Y-89920000D01*
X245950000Y-89920000D02*
X245950000Y-81420000D01*
X245200000Y-89920000D02*
X245950000Y-89920000D01*
X245950000Y-91420000D02*
X245200000Y-91420000D01*
X245200000Y-91420000D02*
X245200000Y-93220000D01*
X243700000Y-92470000D02*
X240750000Y-92470000D01*
X240750000Y-92470000D02*
X240750000Y-85670000D01*
X245950000Y-93220000D02*
X245950000Y-91420000D01*
X245200000Y-93220000D02*
X245950000Y-93220000D01*
X243700000Y-93220000D02*
X243700000Y-92470000D01*
X245960000Y-93230000D02*
X245960000Y-78110000D01*
X239990000Y-93230000D02*
X245960000Y-93230000D01*
%TO.C,J9*%
X238435000Y-121250000D02*
X237015000Y-121250000D01*
X238435000Y-115490000D02*
X238435000Y-121250000D01*
X238435000Y-113970000D02*
X238435000Y-113660000D01*
X238435000Y-113660000D02*
X228565000Y-113660000D01*
X237015000Y-121250000D02*
X237015000Y-120750000D01*
X237015000Y-120750000D02*
X229985000Y-120750000D01*
X229985000Y-121250000D02*
X228565000Y-121250000D01*
X229985000Y-120750000D02*
X229985000Y-121250000D01*
X228565000Y-121250000D02*
X228565000Y-115490000D01*
X228565000Y-113660000D02*
X228565000Y-113970000D01*
%TO.C,C21*%
X208515000Y-94643752D02*
X208515000Y-94121248D01*
X209985000Y-94643752D02*
X209985000Y-94121248D01*
%TO.C,J10*%
X211150000Y-77514000D02*
X211150000Y-78764000D01*
X211440000Y-77804000D02*
X211440000Y-83774000D01*
X211440000Y-83774000D02*
X219060000Y-83774000D01*
X211450000Y-77814000D02*
X211450000Y-78564000D01*
X211450000Y-78564000D02*
X213250000Y-78564000D01*
X211450000Y-80064000D02*
X212200000Y-80064000D01*
X212200000Y-80064000D02*
X212200000Y-83014000D01*
X212200000Y-83014000D02*
X215250000Y-83014000D01*
X212400000Y-77514000D02*
X211150000Y-77514000D01*
X213250000Y-77814000D02*
X211450000Y-77814000D01*
X213250000Y-78564000D02*
X213250000Y-77814000D01*
X214750000Y-77814000D02*
X214750000Y-78564000D01*
X214750000Y-78564000D02*
X215750000Y-78564000D01*
X215750000Y-77814000D02*
X214750000Y-77814000D01*
X215750000Y-78564000D02*
X215750000Y-77814000D01*
X217250000Y-77814000D02*
X217250000Y-78564000D01*
X217250000Y-78564000D02*
X219050000Y-78564000D01*
X218300000Y-80064000D02*
X218300000Y-83014000D01*
X218300000Y-83014000D02*
X215250000Y-83014000D01*
X219050000Y-77814000D02*
X217250000Y-77814000D01*
X219050000Y-78564000D02*
X219050000Y-77814000D01*
X219050000Y-80064000D02*
X218300000Y-80064000D01*
X219060000Y-77804000D02*
X211440000Y-77804000D01*
X219060000Y-83774000D02*
X219060000Y-77804000D01*
%TO.C,C19*%
X196765000Y-94968752D02*
X196765000Y-94446248D01*
X198235000Y-94968752D02*
X198235000Y-94446248D01*
%TO.C,R15*%
X221522936Y-105935000D02*
X221977064Y-105935000D01*
X221522936Y-107405000D02*
X221977064Y-107405000D01*
%TO.C,C17*%
X216276248Y-103435000D02*
X216798752Y-103435000D01*
X216276248Y-104905000D02*
X216798752Y-104905000D01*
%TO.C,R13*%
X202015000Y-86647064D02*
X202015000Y-86192936D01*
X203485000Y-86647064D02*
X203485000Y-86192936D01*
%TO.C,Y3*%
X239000000Y-96070000D02*
X239000000Y-96370000D01*
X239000000Y-96370000D02*
X239800000Y-96370000D01*
X241200000Y-98370000D02*
X241200000Y-99770000D01*
X237600000Y-98370000D02*
X237360000Y-98370000D01*
X237600000Y-99770000D02*
X237600000Y-98370000D01*
X239800000Y-101770000D02*
X239000000Y-101770000D01*
%TO.C,C20*%
X237276248Y-109685000D02*
X237798752Y-109685000D01*
X237276248Y-111155000D02*
X237798752Y-111155000D01*
%TO.C,C12*%
X175765000Y-85143752D02*
X175765000Y-84621248D01*
X177235000Y-85143752D02*
X177235000Y-84621248D01*
%TO.C,R8*%
X159522936Y-105935000D02*
X159977064Y-105935000D01*
X159522936Y-107405000D02*
X159977064Y-107405000D01*
%TO.C,R3*%
X159522936Y-101935000D02*
X159977064Y-101935000D01*
X159522936Y-103405000D02*
X159977064Y-103405000D01*
%TO.C,C10*%
X145040000Y-86706252D02*
X145040000Y-86183748D01*
X146460000Y-86706252D02*
X146460000Y-86183748D01*
%TO.C,C6*%
X146515000Y-94643752D02*
X146515000Y-94121248D01*
X147985000Y-94643752D02*
X147985000Y-94121248D01*
%TO.C,R5*%
X156735000Y-86442936D02*
X156735000Y-86897064D01*
X155265000Y-86442936D02*
X155265000Y-86897064D01*
%TO.C,R6*%
X140015000Y-86647064D02*
X140015000Y-86192936D01*
X141485000Y-86647064D02*
X141485000Y-86192936D01*
%TO.C,D4*%
X142250000Y-89720000D02*
X144250000Y-89720000D01*
X144250000Y-89720000D02*
X144250000Y-85420000D01*
X142250000Y-85420000D02*
X142250000Y-89720000D01*
%TO.C,D2*%
X172342000Y-111370000D02*
X172342000Y-107070000D01*
X172342000Y-111370000D02*
X166642000Y-111370000D01*
X172342000Y-107070000D02*
X166642000Y-107070000D01*
%TO.C,Y2*%
X177000000Y-96070000D02*
X177000000Y-96370000D01*
X177000000Y-96370000D02*
X177800000Y-96370000D01*
X179200000Y-98370000D02*
X179200000Y-99770000D01*
X175600000Y-98370000D02*
X175360000Y-98370000D01*
X175600000Y-99770000D02*
X175600000Y-98370000D01*
X177800000Y-101770000D02*
X177000000Y-101770000D01*
%TO.C,C8*%
X177723752Y-104155000D02*
X177201248Y-104155000D01*
X177723752Y-102685000D02*
X177201248Y-102685000D01*
%TO.C,JP2*%
X182200000Y-102620000D02*
X182800000Y-102620000D01*
X183500000Y-103320000D02*
X183500000Y-104720000D01*
X181500000Y-104720000D02*
X181500000Y-103320000D01*
X182800000Y-105420000D02*
X182200000Y-105420000D01*
X183500000Y-103320000D02*
G75*
G03*
X182800000Y-102620000I-699999J1D01*
G01*
X182200000Y-102620000D02*
G75*
G03*
X181500000Y-103320000I-1J-699999D01*
G01*
X182800000Y-105420000D02*
G75*
G03*
X183500000Y-104720000I0J700000D01*
G01*
X181500000Y-104720000D02*
G75*
G03*
X182200000Y-105420000I700000J0D01*
G01*
%TO.C,C5*%
X175276248Y-109685000D02*
X175798752Y-109685000D01*
X175276248Y-111155000D02*
X175798752Y-111155000D01*
%TO.C,U2*%
X183027000Y-109695000D02*
X183027000Y-106245000D01*
X183027000Y-109695000D02*
X183027000Y-111645000D01*
X177907000Y-109695000D02*
X177907000Y-107745000D01*
X177907000Y-109695000D02*
X177907000Y-111645000D01*
%TO.C,R2*%
X181765000Y-100647064D02*
X181765000Y-100192936D01*
X183235000Y-100647064D02*
X183235000Y-100192936D01*
%TO.C,C1*%
X159526248Y-103935000D02*
X160048752Y-103935000D01*
X159526248Y-105405000D02*
X160048752Y-105405000D01*
%TO.C,J5*%
X132782000Y-115630000D02*
X132782000Y-114300000D01*
X134112000Y-115630000D02*
X132782000Y-115630000D01*
X135382000Y-115630000D02*
X140522000Y-115630000D01*
X135382000Y-115630000D02*
X135382000Y-113030000D01*
X140522000Y-115630000D02*
X140522000Y-110430000D01*
X132782000Y-113030000D02*
X132782000Y-110430000D01*
X135382000Y-113030000D02*
X132782000Y-113030000D01*
X132782000Y-110430000D02*
X140522000Y-110430000D01*
%TO.C,J7*%
X140402000Y-115630000D02*
X140402000Y-114300000D01*
X141732000Y-115630000D02*
X140402000Y-115630000D01*
X143002000Y-115630000D02*
X155762000Y-115630000D01*
X143002000Y-115630000D02*
X143002000Y-113030000D01*
X155762000Y-115630000D02*
X155762000Y-110430000D01*
X140402000Y-113030000D02*
X140402000Y-110430000D01*
X143002000Y-113030000D02*
X140402000Y-113030000D01*
X140402000Y-110430000D02*
X155762000Y-110430000D01*
%TO.C,J3*%
X130242000Y-115630000D02*
X130242000Y-114300000D01*
X131572000Y-115630000D02*
X130242000Y-115630000D01*
X132842000Y-115630000D02*
X132902000Y-115630000D01*
X132842000Y-115630000D02*
X132842000Y-113030000D01*
X132902000Y-115630000D02*
X132902000Y-110430000D01*
X130242000Y-113030000D02*
X130242000Y-110430000D01*
X132842000Y-113030000D02*
X130242000Y-113030000D01*
X130242000Y-110430000D02*
X132902000Y-110430000D01*
%TO.C,J2*%
X149150000Y-77514000D02*
X149150000Y-78764000D01*
X149440000Y-77804000D02*
X149440000Y-83774000D01*
X149440000Y-83774000D02*
X157060000Y-83774000D01*
X149450000Y-77814000D02*
X149450000Y-78564000D01*
X149450000Y-78564000D02*
X151250000Y-78564000D01*
X149450000Y-80064000D02*
X150200000Y-80064000D01*
X150200000Y-80064000D02*
X150200000Y-83014000D01*
X150200000Y-83014000D02*
X153250000Y-83014000D01*
X150400000Y-77514000D02*
X149150000Y-77514000D01*
X151250000Y-77814000D02*
X149450000Y-77814000D01*
X151250000Y-78564000D02*
X151250000Y-77814000D01*
X152750000Y-77814000D02*
X152750000Y-78564000D01*
X152750000Y-78564000D02*
X153750000Y-78564000D01*
X153750000Y-77814000D02*
X152750000Y-77814000D01*
X153750000Y-78564000D02*
X153750000Y-77814000D01*
X155250000Y-77814000D02*
X155250000Y-78564000D01*
X155250000Y-78564000D02*
X157050000Y-78564000D01*
X156300000Y-80064000D02*
X156300000Y-83014000D01*
X156300000Y-83014000D02*
X153250000Y-83014000D01*
X157050000Y-77814000D02*
X155250000Y-77814000D01*
X157050000Y-78564000D02*
X157050000Y-77814000D01*
X157050000Y-80064000D02*
X156300000Y-80064000D01*
X157060000Y-77804000D02*
X149440000Y-77804000D01*
X157060000Y-83774000D02*
X157060000Y-77804000D01*
D10*
%TO.C,U1*%
X143125000Y-98545000D02*
X143125000Y-98770000D01*
X143125000Y-98545000D02*
X143450000Y-98545000D01*
X143125000Y-98770000D02*
X141700000Y-98770000D01*
X143125000Y-105795000D02*
X143125000Y-105470000D01*
X143125000Y-105795000D02*
X143450000Y-105795000D01*
X150375000Y-98545000D02*
X150050000Y-98545000D01*
X150375000Y-98545000D02*
X150375000Y-98870000D01*
X150375000Y-105795000D02*
X150050000Y-105795000D01*
X150375000Y-105795000D02*
X150375000Y-105470000D01*
D11*
%TO.C,C2*%
X154276248Y-103435000D02*
X154798752Y-103435000D01*
X154276248Y-104905000D02*
X154798752Y-104905000D01*
%TO.C,U3*%
X172860000Y-106285000D02*
X172860000Y-106040000D01*
X172860000Y-106040000D02*
X174675000Y-106040000D01*
X172860000Y-94515000D02*
X172860000Y-94760000D01*
X169000000Y-106285000D02*
X172860000Y-106285000D01*
X169000000Y-106285000D02*
X165140000Y-106285000D01*
X169000000Y-94515000D02*
X172860000Y-94515000D01*
X169000000Y-94515000D02*
X165140000Y-94515000D01*
X165140000Y-106285000D02*
X165140000Y-106040000D01*
X165140000Y-94515000D02*
X165140000Y-94760000D01*
%TO.C,R7*%
X147515000Y-86647064D02*
X147515000Y-86192936D01*
X148985000Y-86647064D02*
X148985000Y-86192936D01*
%TO.C,F1*%
X131160436Y-84810000D02*
X132364564Y-84810000D01*
X131160436Y-87530000D02*
X132364564Y-87530000D01*
%TO.C,R4*%
X158735000Y-86442936D02*
X158735000Y-86897064D01*
X157265000Y-86442936D02*
X157265000Y-86897064D01*
%TO.C,C3*%
X128550000Y-89360000D02*
X129050000Y-89360000D01*
X128800000Y-89110000D02*
X128800000Y-89610000D01*
X129290000Y-89724437D02*
X129290000Y-89860000D01*
X129290000Y-89724437D02*
X130354437Y-88660000D01*
X129290000Y-92115563D02*
X129290000Y-91980000D01*
X129290000Y-92115563D02*
X130354437Y-93180000D01*
X130354437Y-88660000D02*
X133810000Y-88660000D01*
X130354437Y-93180000D02*
X133810000Y-93180000D01*
X133810000Y-88660000D02*
X133810000Y-89860000D01*
X133810000Y-93180000D02*
X133810000Y-91980000D01*
%TO.C,C4*%
X134765000Y-94968752D02*
X134765000Y-94446248D01*
X136235000Y-94968752D02*
X136235000Y-94446248D01*
%TO.C,C13*%
X128200000Y-98610000D02*
X128700000Y-98610000D01*
X128450000Y-98360000D02*
X128450000Y-98860000D01*
X128940000Y-98974437D02*
X128940000Y-99110000D01*
X128940000Y-98974437D02*
X130004437Y-97910000D01*
X128940000Y-101365563D02*
X128940000Y-101230000D01*
X128940000Y-101365563D02*
X130004437Y-102430000D01*
X130004437Y-97910000D02*
X133460000Y-97910000D01*
X130004437Y-102430000D02*
X133460000Y-102430000D01*
X133460000Y-97910000D02*
X133460000Y-99110000D01*
X133460000Y-102430000D02*
X133460000Y-101230000D01*
%TO.C,C14*%
X128200000Y-104360000D02*
X128700000Y-104360000D01*
X128450000Y-104110000D02*
X128450000Y-104610000D01*
X128940000Y-104724437D02*
X128940000Y-104860000D01*
X128940000Y-104724437D02*
X130004437Y-103660000D01*
X128940000Y-107115563D02*
X128940000Y-106980000D01*
X128940000Y-107115563D02*
X130004437Y-108180000D01*
X130004437Y-103660000D02*
X133460000Y-103660000D01*
X130004437Y-108180000D02*
X133460000Y-108180000D01*
X133460000Y-103660000D02*
X133460000Y-104860000D01*
X133460000Y-108180000D02*
X133460000Y-106980000D01*
%TO.C,J6*%
X184250000Y-77820000D02*
X183000000Y-77820000D01*
X183960000Y-78110000D02*
X177990000Y-78110000D01*
X177990000Y-78110000D02*
X177990000Y-93230000D01*
X183950000Y-78120000D02*
X183200000Y-78120000D01*
X183200000Y-78120000D02*
X183200000Y-79920000D01*
X181700000Y-78120000D02*
X181700000Y-78870000D01*
X181700000Y-78870000D02*
X178750000Y-78870000D01*
X178750000Y-78870000D02*
X178750000Y-85670000D01*
X184250000Y-79070000D02*
X184250000Y-77820000D01*
X183950000Y-79920000D02*
X183950000Y-78120000D01*
X183200000Y-79920000D02*
X183950000Y-79920000D01*
X183950000Y-81420000D02*
X183200000Y-81420000D01*
X183200000Y-81420000D02*
X183200000Y-89920000D01*
X183950000Y-89920000D02*
X183950000Y-81420000D01*
X183200000Y-89920000D02*
X183950000Y-89920000D01*
X183950000Y-91420000D02*
X183200000Y-91420000D01*
X183200000Y-91420000D02*
X183200000Y-93220000D01*
X181700000Y-92470000D02*
X178750000Y-92470000D01*
X178750000Y-92470000D02*
X178750000Y-85670000D01*
X183950000Y-93220000D02*
X183950000Y-91420000D01*
X183200000Y-93220000D02*
X183950000Y-93220000D01*
X181700000Y-93220000D02*
X181700000Y-92470000D01*
X183960000Y-93230000D02*
X183960000Y-78110000D01*
X177990000Y-93230000D02*
X183960000Y-93230000D01*
%TO.C,L1*%
X136840000Y-95692742D02*
X136840000Y-94022258D01*
X138660000Y-95692742D02*
X138660000Y-94022258D01*
%TO.C,J1*%
X176435000Y-121250000D02*
X175015000Y-121250000D01*
X176435000Y-115490000D02*
X176435000Y-121250000D01*
X176435000Y-113970000D02*
X176435000Y-113660000D01*
X176435000Y-113660000D02*
X166565000Y-113660000D01*
X175015000Y-121250000D02*
X175015000Y-120750000D01*
X175015000Y-120750000D02*
X167985000Y-120750000D01*
X167985000Y-121250000D02*
X166565000Y-121250000D01*
X167985000Y-120750000D02*
X167985000Y-121250000D01*
X166565000Y-121250000D02*
X166565000Y-115490000D01*
X166565000Y-113660000D02*
X166565000Y-113970000D01*
%TO.C,J8*%
X159185000Y-121355000D02*
X162260000Y-121355000D01*
X162260000Y-121355000D02*
X162260000Y-108485000D01*
X157670000Y-119935000D02*
X158170000Y-119935000D01*
X158170000Y-119935000D02*
X158170000Y-109905000D01*
X157670000Y-119915000D02*
X157670000Y-119935000D01*
X157670000Y-109905000D02*
X157670000Y-109925000D01*
X158170000Y-109905000D02*
X157670000Y-109905000D01*
X162260000Y-108485000D02*
X159185000Y-108485000D01*
%TO.C,C7*%
X177201248Y-93935000D02*
X177723752Y-93935000D01*
X177201248Y-95405000D02*
X177723752Y-95405000D01*
%TO.C,J4*%
X135650000Y-77514000D02*
X135650000Y-78764000D01*
X135940000Y-77804000D02*
X135940000Y-83774000D01*
X135940000Y-83774000D02*
X148560000Y-83774000D01*
X135950000Y-77814000D02*
X135950000Y-78564000D01*
X135950000Y-78564000D02*
X137750000Y-78564000D01*
X135950000Y-80064000D02*
X136700000Y-80064000D01*
X136700000Y-80064000D02*
X136700000Y-83014000D01*
X136700000Y-83014000D02*
X142250000Y-83014000D01*
X136900000Y-77514000D02*
X135650000Y-77514000D01*
X137750000Y-77814000D02*
X135950000Y-77814000D01*
X137750000Y-78564000D02*
X137750000Y-77814000D01*
X139250000Y-77814000D02*
X139250000Y-78564000D01*
X139250000Y-78564000D02*
X145250000Y-78564000D01*
X145250000Y-77814000D02*
X139250000Y-77814000D01*
X145250000Y-78564000D02*
X145250000Y-77814000D01*
X146750000Y-77814000D02*
X146750000Y-78564000D01*
X146750000Y-78564000D02*
X148550000Y-78564000D01*
X147800000Y-80064000D02*
X147800000Y-83014000D01*
X147800000Y-83014000D02*
X142250000Y-83014000D01*
X148550000Y-77814000D02*
X146750000Y-77814000D01*
X148550000Y-78564000D02*
X148550000Y-77814000D01*
X148550000Y-80064000D02*
X147800000Y-80064000D01*
X148560000Y-77804000D02*
X135940000Y-77804000D01*
X148560000Y-83774000D02*
X148560000Y-77804000D01*
%TO.C,C11*%
X151090000Y-87818752D02*
X151090000Y-86396248D01*
X152910000Y-87818752D02*
X152910000Y-86396248D01*
%TO.C,U5*%
X163470800Y-77367500D02*
X163470800Y-78009265D01*
X163470800Y-91330735D02*
X163470800Y-91972500D01*
X163470800Y-91972500D02*
X165838531Y-91972500D01*
X165838531Y-77367500D02*
X163470800Y-77367500D01*
X171161469Y-91972500D02*
X173529200Y-91972500D01*
X173529200Y-77367500D02*
X171161469Y-77367500D01*
X173529200Y-78009265D02*
X173529200Y-77367500D01*
X173529200Y-91972500D02*
X173529200Y-91330735D01*
%TO.C,C9*%
X159265000Y-86968752D02*
X159265000Y-86446248D01*
X160735000Y-86968752D02*
X160735000Y-86446248D01*
%TO.C,U4*%
X130370000Y-96980000D02*
X132130000Y-96980000D01*
X132130000Y-93910000D02*
X129700000Y-93910000D01*
%TO.C,C15*%
X174265000Y-89718752D02*
X174265000Y-89196248D01*
X175735000Y-89718752D02*
X175735000Y-89196248D01*
%TO.C,X1*%
X158525000Y-78170000D02*
X159325000Y-78170000D01*
X158525000Y-78370000D02*
X158525000Y-78170000D01*
X158725000Y-81170000D02*
X158525000Y-80970000D01*
X159325000Y-81170000D02*
X158725000Y-81170000D01*
X159325000Y-81170000D02*
X159325000Y-81670000D01*
X160725000Y-78170000D02*
X161525000Y-78170000D01*
X160725000Y-81170000D02*
X160725000Y-81670000D01*
X161525000Y-78170000D02*
X161525000Y-78370000D01*
X161525000Y-80970000D02*
X161525000Y-81170000D01*
X161525000Y-81170000D02*
X160725000Y-81170000D01*
%TO.C,D3*%
X158830000Y-99930000D02*
X158830000Y-97770000D01*
X158830000Y-99930000D02*
X157900000Y-99930000D01*
X155670000Y-99930000D02*
X155670000Y-98470000D01*
X155670000Y-99930000D02*
X156600000Y-99930000D01*
%TO.C,D5*%
X137500000Y-98170000D02*
X135500000Y-98170000D01*
X137500000Y-98170000D02*
X137500000Y-102070000D01*
X135500000Y-98170000D02*
X135500000Y-102070000D01*
%TO.C,D6*%
X136500000Y-89520000D02*
X138500000Y-89520000D01*
X136500000Y-89520000D02*
X136500000Y-85620000D01*
X138500000Y-89520000D02*
X138500000Y-85620000D01*
%TO.C,D1*%
X177500000Y-77710000D02*
X175500000Y-77710000D01*
X177500000Y-77710000D02*
X177500000Y-81720000D01*
X175500000Y-77710000D02*
X175500000Y-81720000D01*
D12*
%TO.C,mouse-bite-1mm-slot*%
X172900000Y-121920000D02*
G75*
G03*
X172900000Y-122920000I0J-500000D01*
G01*
X169900000Y-122920000D02*
G75*
G03*
X169900000Y-121920000I0J500000D01*
G01*
X133000000Y-77220000D02*
G75*
G03*
X133000000Y-76220000I0J500000D01*
G01*
X136000000Y-76220000D02*
G75*
G03*
X136000000Y-77220000I0J-500000D01*
G01*
X179400000Y-77220000D02*
G75*
G03*
X179400000Y-76220000I0J500000D01*
G01*
X182400000Y-76220000D02*
G75*
G03*
X182400000Y-77220000I0J-500000D01*
G01*
X130800000Y-121920000D02*
G75*
G03*
X130800000Y-122920000I0J-500000D01*
G01*
X127800000Y-122920000D02*
G75*
G03*
X127800000Y-121920000I0J500000D01*
G01*
%TD*%
M02*
