%TF.GenerationSoftware,KiCad,Pcbnew,7.0.1-0*%
%TF.CreationDate,2023-04-11T20:51:41+02:00*%
%TF.ProjectId,SmartDisplay,536d6172-7444-4697-9370-6c61792e6b69,rev?*%
%TF.SameCoordinates,Original*%
%TF.FileFunction,Soldermask,Bot*%
%TF.FilePolarity,Negative*%
%FSLAX46Y46*%
G04 Gerber Fmt 4.6, Leading zero omitted, Abs format (unit mm)*
G04 Created by KiCad (PCBNEW 7.0.1-0) date 2023-04-11 20:51:41*
%MOMM*%
%LPD*%
G01*
G04 APERTURE LIST*
G04 Aperture macros list*
%AMRoundRect*
0 Rectangle with rounded corners*
0 $1 Rounding radius*
0 $2 $3 $4 $5 $6 $7 $8 $9 X,Y pos of 4 corners*
0 Add a 4 corners polygon primitive as box body*
4,1,4,$2,$3,$4,$5,$6,$7,$8,$9,$2,$3,0*
0 Add four circle primitives for the rounded corners*
1,1,$1+$1,$2,$3*
1,1,$1+$1,$4,$5*
1,1,$1+$1,$6,$7*
1,1,$1+$1,$8,$9*
0 Add four rect primitives between the rounded corners*
20,1,$1+$1,$2,$3,$4,$5,0*
20,1,$1+$1,$4,$5,$6,$7,0*
20,1,$1+$1,$6,$7,$8,$9,0*
20,1,$1+$1,$8,$9,$2,$3,0*%
%AMFreePoly0*
4,1,35,0.585355,0.785355,0.600000,0.750000,0.600000,-0.750000,0.585355,-0.785355,0.550000,-0.800000,0.000000,-0.800000,-0.012286,-0.794911,-0.071157,-0.794911,-0.085244,-0.792886,-0.221795,-0.752791,-0.234740,-0.746879,-0.354462,-0.669938,-0.365217,-0.660618,-0.458414,-0.553063,-0.466109,-0.541091,-0.525228,-0.411637,-0.529237,-0.397982,-0.549491,-0.257116,-0.550000,-0.250000,-0.550000,0.250000,
-0.549491,0.257116,-0.529237,0.397982,-0.525228,0.411637,-0.466109,0.541091,-0.458414,0.553063,-0.365217,0.660618,-0.354462,0.669938,-0.234740,0.746879,-0.221795,0.752791,-0.085244,0.792886,-0.071157,0.794911,-0.012286,0.794911,0.000000,0.800000,0.550000,0.800000,0.585355,0.785355,0.585355,0.785355,$1*%
%AMFreePoly1*
4,1,35,0.012286,0.794911,0.071157,0.794911,0.085244,0.792886,0.221795,0.752791,0.234740,0.746879,0.354462,0.669938,0.365217,0.660618,0.458414,0.553063,0.466109,0.541091,0.525228,0.411637,0.529237,0.397982,0.549491,0.257116,0.550000,0.250000,0.550000,-0.250000,0.549491,-0.257116,0.529237,-0.397982,0.525228,-0.411637,0.466109,-0.541091,0.458414,-0.553063,0.365217,-0.660618,
0.354462,-0.669938,0.234740,-0.746879,0.221795,-0.752791,0.085244,-0.792886,0.071157,-0.794911,0.012286,-0.794911,0.000000,-0.800000,-0.550000,-0.800000,-0.585355,-0.785355,-0.600000,-0.750000,-0.600000,0.750000,-0.585355,0.785355,-0.550000,0.800000,0.000000,0.800000,0.012286,0.794911,0.012286,0.794911,$1*%
G04 Aperture macros list end*
%ADD10C,1.370000*%
%ADD11RoundRect,0.300000X0.760000X-0.500000X0.760000X0.500000X-0.760000X0.500000X-0.760000X-0.500000X0*%
%ADD12O,2.120000X1.600000*%
%ADD13FreePoly0,270.000000*%
%ADD14RoundRect,0.050000X-0.750000X0.500000X-0.750000X-0.500000X0.750000X-0.500000X0.750000X0.500000X0*%
%ADD15FreePoly1,270.000000*%
%ADD16C,0.900000*%
%ADD17C,6.500000*%
%ADD18C,0.600000*%
%ADD19RoundRect,0.300000X-0.600000X-0.725000X0.600000X-0.725000X0.600000X0.725000X-0.600000X0.725000X0*%
%ADD20O,1.800000X2.050000*%
%ADD21RoundRect,0.050000X0.850000X-0.850000X0.850000X0.850000X-0.850000X0.850000X-0.850000X-0.850000X0*%
%ADD22O,1.800000X1.800000*%
%ADD23RoundRect,0.300000X-0.725000X0.600000X-0.725000X-0.600000X0.725000X-0.600000X0.725000X0.600000X0*%
%ADD24O,2.050000X1.800000*%
%ADD25C,1.100000*%
%ADD26RoundRect,0.300000X0.500000X0.500000X-0.500000X0.500000X-0.500000X-0.500000X0.500000X-0.500000X0*%
%ADD27C,1.600000*%
%ADD28RoundRect,0.300000X-0.600000X-0.750000X0.600000X-0.750000X0.600000X0.750000X-0.600000X0.750000X0*%
%ADD29O,1.800000X2.100000*%
G04 APERTURE END LIST*
D10*
%TO.C,J16*%
X220290000Y-120920000D03*
X220290000Y-108920000D03*
D11*
X222250000Y-117920000D03*
D12*
X222250000Y-114920000D03*
X222250000Y-111920000D03*
%TD*%
D13*
%TO.C,JP5*%
X224500000Y-80620000D03*
D14*
X224500000Y-81920000D03*
D15*
X224500000Y-83220000D03*
%TD*%
D16*
%TO.C,H3*%
X190410000Y-80899000D03*
X191112944Y-79201944D03*
X191112944Y-82596056D03*
X192810000Y-78499000D03*
D17*
X192810000Y-80899000D03*
D16*
X192810000Y-83299000D03*
X194507056Y-79201944D03*
X194507056Y-82596056D03*
X195210000Y-80899000D03*
%TD*%
%TO.C,H4*%
X245675056Y-118156056D03*
X244972112Y-119853112D03*
X244972112Y-116459000D03*
X243275056Y-120556056D03*
D17*
X243275056Y-118156056D03*
D16*
X243275056Y-115756056D03*
X241578000Y-119853112D03*
X241578000Y-116459000D03*
X240875056Y-118156056D03*
%TD*%
D18*
%TO.C,mouse-bite-1mm-slot3*%
X195350000Y-77470000D03*
X196150000Y-77720000D03*
X196850000Y-77720000D03*
X197650000Y-77470000D03*
%TD*%
D19*
%TO.C,J12*%
X200500000Y-80264000D03*
D20*
X203000000Y-80264000D03*
X205500000Y-80264000D03*
X208000000Y-80264000D03*
%TD*%
D18*
%TO.C,mouse-bite-1mm-slot2*%
X234550000Y-121670000D03*
X233750000Y-121420000D03*
X233050000Y-121420000D03*
X232250000Y-121670000D03*
%TD*%
%TO.C,mouse-bite-1mm-slot4*%
X241750000Y-77470000D03*
X242550000Y-77720000D03*
X243250000Y-77720000D03*
X244050000Y-77470000D03*
%TD*%
D21*
%TO.C,J11*%
X193572000Y-114300000D03*
D22*
X193572000Y-111760000D03*
%TD*%
D18*
%TO.C,mouse-bite-1mm-slot1*%
X192450000Y-121670000D03*
X191650000Y-121420000D03*
X190950000Y-121420000D03*
X190150000Y-121670000D03*
%TD*%
D21*
%TO.C,J15*%
X203732000Y-114300000D03*
D22*
X203732000Y-111760000D03*
X206272000Y-114300000D03*
X206272000Y-111760000D03*
X208812000Y-114300000D03*
X208812000Y-111760000D03*
X211352000Y-114300000D03*
X211352000Y-111760000D03*
X213892000Y-114300000D03*
X213892000Y-111760000D03*
X216432000Y-114300000D03*
X216432000Y-111760000D03*
%TD*%
D21*
%TO.C,J13*%
X196112000Y-114300000D03*
D22*
X196112000Y-111760000D03*
X198652000Y-114300000D03*
X198652000Y-111760000D03*
X201192000Y-114300000D03*
X201192000Y-111760000D03*
%TD*%
D23*
%TO.C,J14*%
X243500000Y-80670000D03*
D24*
X243500000Y-83170000D03*
X243500000Y-85670000D03*
X243500000Y-88170000D03*
X243500000Y-90670000D03*
%TD*%
D25*
%TO.C,J9*%
X238000000Y-114730000D03*
X229000000Y-114730000D03*
D26*
X235000000Y-118670000D03*
D27*
X232000000Y-118670000D03*
X235000000Y-115670000D03*
X232000000Y-115670000D03*
%TD*%
D28*
%TO.C,J10*%
X214000000Y-80264000D03*
D29*
X216500000Y-80264000D03*
%TD*%
D16*
%TO.C,H1*%
X128410000Y-80899000D03*
X129112944Y-79201944D03*
X129112944Y-82596056D03*
X130810000Y-78499000D03*
D17*
X130810000Y-80899000D03*
D16*
X130810000Y-83299000D03*
X132507056Y-79201944D03*
X132507056Y-82596056D03*
X133210000Y-80899000D03*
%TD*%
%TO.C,H2*%
X183675056Y-118156056D03*
X182972112Y-119853112D03*
X182972112Y-116459000D03*
X181275056Y-120556056D03*
D17*
X181275056Y-118156056D03*
D16*
X181275056Y-115756056D03*
X179578000Y-119853112D03*
X179578000Y-116459000D03*
X178875056Y-118156056D03*
%TD*%
D21*
%TO.C,J5*%
X134112000Y-114300000D03*
D22*
X134112000Y-111760000D03*
X136652000Y-114300000D03*
X136652000Y-111760000D03*
X139192000Y-114300000D03*
X139192000Y-111760000D03*
%TD*%
D21*
%TO.C,J7*%
X141732000Y-114300000D03*
D22*
X141732000Y-111760000D03*
X144272000Y-114300000D03*
X144272000Y-111760000D03*
X146812000Y-114300000D03*
X146812000Y-111760000D03*
X149352000Y-114300000D03*
X149352000Y-111760000D03*
X151892000Y-114300000D03*
X151892000Y-111760000D03*
X154432000Y-114300000D03*
X154432000Y-111760000D03*
%TD*%
D21*
%TO.C,J3*%
X131572000Y-114300000D03*
D22*
X131572000Y-111760000D03*
%TD*%
D28*
%TO.C,J2*%
X152000000Y-80264000D03*
D29*
X154500000Y-80264000D03*
%TD*%
D23*
%TO.C,J6*%
X181500000Y-80670000D03*
D24*
X181500000Y-83170000D03*
X181500000Y-85670000D03*
X181500000Y-88170000D03*
X181500000Y-90670000D03*
%TD*%
D25*
%TO.C,J1*%
X176000000Y-114730000D03*
X167000000Y-114730000D03*
D26*
X173000000Y-118670000D03*
D27*
X170000000Y-118670000D03*
X173000000Y-115670000D03*
X170000000Y-115670000D03*
%TD*%
D10*
%TO.C,J8*%
X158290000Y-120920000D03*
X158290000Y-108920000D03*
D11*
X160250000Y-117920000D03*
D12*
X160250000Y-114920000D03*
X160250000Y-111920000D03*
%TD*%
D19*
%TO.C,J4*%
X138500000Y-80264000D03*
D20*
X141000000Y-80264000D03*
X143500000Y-80264000D03*
X146000000Y-80264000D03*
%TD*%
D18*
%TO.C,mouse-bite-1mm-slot*%
X172550000Y-121670000D03*
X171750000Y-121420000D03*
X171050000Y-121420000D03*
X170250000Y-121670000D03*
%TD*%
%TO.C,mouse-bite-1mm-slot*%
X133350000Y-77470000D03*
X134150000Y-77720000D03*
X134850000Y-77720000D03*
X135650000Y-77470000D03*
%TD*%
%TO.C,mouse-bite-1mm-slot*%
X179750000Y-77470000D03*
X180550000Y-77720000D03*
X181250000Y-77720000D03*
X182050000Y-77470000D03*
%TD*%
%TO.C,mouse-bite-1mm-slot*%
X130450000Y-121670000D03*
X129650000Y-121420000D03*
X128950000Y-121420000D03*
X128150000Y-121670000D03*
%TD*%
D13*
%TO.C,JP3*%
X162500000Y-80620000D03*
D14*
X162500000Y-81920000D03*
D15*
X162500000Y-83220000D03*
%TD*%
M02*
