%TF.GenerationSoftware,KiCad,Pcbnew,7.0.1-0*%
%TF.CreationDate,2023-04-11T20:51:41+02:00*%
%TF.ProjectId,SmartDisplay,536d6172-7444-4697-9370-6c61792e6b69,rev?*%
%TF.SameCoordinates,Original*%
%TF.FileFunction,Soldermask,Top*%
%TF.FilePolarity,Negative*%
%FSLAX46Y46*%
G04 Gerber Fmt 4.6, Leading zero omitted, Abs format (unit mm)*
G04 Created by KiCad (PCBNEW 7.0.1-0) date 2023-04-11 20:51:41*
%MOMM*%
%LPD*%
G01*
G04 APERTURE LIST*
G04 Aperture macros list*
%AMRoundRect*
0 Rectangle with rounded corners*
0 $1 Rounding radius*
0 $2 $3 $4 $5 $6 $7 $8 $9 X,Y pos of 4 corners*
0 Add a 4 corners polygon primitive as box body*
4,1,4,$2,$3,$4,$5,$6,$7,$8,$9,$2,$3,0*
0 Add four circle primitives for the rounded corners*
1,1,$1+$1,$2,$3*
1,1,$1+$1,$4,$5*
1,1,$1+$1,$6,$7*
1,1,$1+$1,$8,$9*
0 Add four rect primitives between the rounded corners*
20,1,$1+$1,$2,$3,$4,$5,0*
20,1,$1+$1,$4,$5,$6,$7,0*
20,1,$1+$1,$6,$7,$8,$9,0*
20,1,$1+$1,$8,$9,$2,$3,0*%
%AMFreePoly0*
4,1,35,0.535355,0.785355,0.550000,0.750000,0.550000,-0.750000,0.535355,-0.785355,0.500000,-0.800000,0.000000,-0.800000,-0.012286,-0.794911,-0.071157,-0.794911,-0.085244,-0.792886,-0.221795,-0.752791,-0.234740,-0.746879,-0.354462,-0.669938,-0.365217,-0.660618,-0.458414,-0.553063,-0.466109,-0.541091,-0.525228,-0.411637,-0.529237,-0.397982,-0.549491,-0.257116,-0.550000,-0.250000,-0.550000,0.250000,
-0.549491,0.257116,-0.529237,0.397982,-0.525228,0.411637,-0.466109,0.541091,-0.458414,0.553063,-0.365217,0.660618,-0.354462,0.669938,-0.234740,0.746879,-0.221795,0.752791,-0.085244,0.792886,-0.071157,0.794911,-0.012286,0.794911,0.000000,0.800000,0.500000,0.800000,0.535355,0.785355,0.535355,0.785355,$1*%
%AMFreePoly1*
4,1,35,0.012286,0.794911,0.071157,0.794911,0.085244,0.792886,0.221795,0.752791,0.234740,0.746879,0.354462,0.669938,0.365217,0.660618,0.458414,0.553063,0.466109,0.541091,0.525228,0.411637,0.529237,0.397982,0.549491,0.257116,0.550000,0.250000,0.550000,-0.250000,0.549491,-0.257116,0.529237,-0.397982,0.525228,-0.411637,0.466109,-0.541091,0.458414,-0.553063,0.365217,-0.660618,
0.354462,-0.669938,0.234740,-0.746879,0.221795,-0.752791,0.085244,-0.792886,0.071157,-0.794911,0.012286,-0.794911,0.000000,-0.800000,-0.500000,-0.800000,-0.535355,-0.785355,-0.550000,-0.750000,-0.550000,0.750000,-0.535355,0.785355,-0.500000,0.800000,0.000000,0.800000,0.012286,0.794911,0.012286,0.794911,$1*%
G04 Aperture macros list end*
%ADD10RoundRect,0.300000X0.475000X-0.337500X0.475000X0.337500X-0.475000X0.337500X-0.475000X-0.337500X0*%
%ADD11RoundRect,0.299999X0.450001X-0.350001X0.450001X0.350001X-0.450001X0.350001X-0.450001X-0.350001X0*%
%ADD12C,1.370000*%
%ADD13RoundRect,0.300000X0.760000X-0.500000X0.760000X0.500000X-0.760000X0.500000X-0.760000X-0.500000X0*%
%ADD14O,2.120000X1.600000*%
%ADD15RoundRect,0.299999X-0.450001X0.350001X-0.450001X-0.350001X0.450001X-0.350001X0.450001X0.350001X0*%
%ADD16FreePoly0,270.000000*%
%ADD17FreePoly1,270.000000*%
%ADD18RoundRect,0.200000X0.875000X0.150000X-0.875000X0.150000X-0.875000X-0.150000X0.875000X-0.150000X0*%
%ADD19C,0.900000*%
%ADD20C,6.500000*%
%ADD21RoundRect,0.300000X0.337500X0.475000X-0.337500X0.475000X-0.337500X-0.475000X0.337500X-0.475000X0*%
%ADD22RoundRect,0.300000X-1.050000X-0.550000X1.050000X-0.550000X1.050000X0.550000X-1.050000X0.550000X0*%
%ADD23RoundRect,0.299997X0.650003X-0.412503X0.650003X0.412503X-0.650003X0.412503X-0.650003X-0.412503X0*%
%ADD24C,0.600000*%
%ADD25RoundRect,0.300000X0.700000X-0.275000X0.700000X0.275000X-0.700000X0.275000X-0.700000X-0.275000X0*%
%ADD26RoundRect,0.050000X0.600000X-0.450000X0.600000X0.450000X-0.600000X0.450000X-0.600000X-0.450000X0*%
%ADD27RoundRect,0.300000X-0.337500X-0.475000X0.337500X-0.475000X0.337500X0.475000X-0.337500X0.475000X0*%
%ADD28C,1.000000*%
%ADD29RoundRect,0.050000X-0.400000X0.450000X-0.400000X-0.450000X0.400000X-0.450000X0.400000X0.450000X0*%
%ADD30RoundRect,0.275000X-0.375000X0.225000X-0.375000X-0.225000X0.375000X-0.225000X0.375000X0.225000X0*%
%ADD31RoundRect,0.200000X-0.150000X0.825000X-0.150000X-0.825000X0.150000X-0.825000X0.150000X0.825000X0*%
%ADD32RoundRect,0.299999X-0.350001X-0.450001X0.350001X-0.450001X0.350001X0.450001X-0.350001X0.450001X0*%
%ADD33RoundRect,0.050000X-0.610000X-0.325000X0.610000X-0.325000X0.610000X0.325000X-0.610000X0.325000X0*%
%ADD34RoundRect,0.299999X0.450001X-0.325001X0.450001X0.325001X-0.450001X0.325001X-0.450001X-0.325001X0*%
%ADD35RoundRect,0.300000X-0.600000X-0.725000X0.600000X-0.725000X0.600000X0.725000X-0.600000X0.725000X0*%
%ADD36O,1.800000X2.050000*%
%ADD37RoundRect,0.050000X-0.571500X-0.355600X0.571500X-0.355600X0.571500X0.355600X-0.571500X0.355600X0*%
%ADD38RoundRect,0.050000X0.355600X-0.571500X0.355600X0.571500X-0.355600X0.571500X-0.355600X-0.571500X0*%
%ADD39RoundRect,0.050000X0.850000X-0.850000X0.850000X0.850000X-0.850000X0.850000X-0.850000X-0.850000X0*%
%ADD40O,1.800000X1.800000*%
%ADD41RoundRect,0.050000X-0.500000X-0.500000X0.500000X-0.500000X0.500000X0.500000X-0.500000X0.500000X0*%
%ADD42RoundRect,0.050000X-0.525000X-1.100000X0.525000X-1.100000X0.525000X1.100000X-0.525000X1.100000X0*%
%ADD43RoundRect,0.050000X1.250000X1.150000X-1.250000X1.150000X-1.250000X-1.150000X1.250000X-1.150000X0*%
%ADD44RoundRect,0.050000X-0.600000X0.450000X-0.600000X-0.450000X0.600000X-0.450000X0.600000X0.450000X0*%
%ADD45RoundRect,0.300000X-0.462500X-1.075000X0.462500X-1.075000X0.462500X1.075000X-0.462500X1.075000X0*%
%ADD46RoundRect,0.050000X-0.800000X-0.275000X0.800000X-0.275000X0.800000X0.275000X-0.800000X0.275000X0*%
%ADD47RoundRect,0.050000X0.275000X-0.800000X0.275000X0.800000X-0.275000X0.800000X-0.275000X-0.800000X0*%
%ADD48RoundRect,0.050000X0.850000X-0.650000X0.850000X0.650000X-0.850000X0.650000X-0.850000X-0.650000X0*%
%ADD49RoundRect,0.300000X-0.725000X0.600000X-0.725000X-0.600000X0.725000X-0.600000X0.725000X0.600000X0*%
%ADD50O,2.050000X1.800000*%
%ADD51C,1.100000*%
%ADD52RoundRect,0.300000X0.500000X0.500000X-0.500000X0.500000X-0.500000X-0.500000X0.500000X-0.500000X0*%
%ADD53C,1.600000*%
%ADD54RoundRect,0.300000X-0.600000X-0.750000X0.600000X-0.750000X0.600000X0.750000X-0.600000X0.750000X0*%
%ADD55O,1.800000X2.100000*%
%ADD56RoundRect,0.050000X-0.550000X0.950000X-0.550000X-0.950000X0.550000X-0.950000X0.550000X0.950000X0*%
G04 APERTURE END LIST*
D10*
%TO.C,C30*%
X237000000Y-90495000D03*
X237000000Y-88420000D03*
%TD*%
D11*
%TO.C,R9*%
X244500000Y-101420000D03*
X244500000Y-99420000D03*
%TD*%
D12*
%TO.C,J16*%
X220290000Y-120920000D03*
X220290000Y-108920000D03*
D13*
X222250000Y-117920000D03*
D14*
X222250000Y-114920000D03*
X222250000Y-111920000D03*
%TD*%
D15*
%TO.C,R12*%
X218000000Y-85670000D03*
X218000000Y-87670000D03*
%TD*%
D16*
%TO.C,JP4*%
X244500000Y-103370000D03*
D17*
X244500000Y-104670000D03*
%TD*%
D18*
%TO.C,U8*%
X235650000Y-105480000D03*
X235650000Y-104210000D03*
X235650000Y-102940000D03*
X235650000Y-101670000D03*
X235650000Y-100400000D03*
X235650000Y-99130000D03*
X235650000Y-97860000D03*
X235650000Y-96590000D03*
X235650000Y-95320000D03*
X226350000Y-95320000D03*
X226350000Y-96590000D03*
X226350000Y-97860000D03*
X226350000Y-99130000D03*
X226350000Y-100400000D03*
X226350000Y-101670000D03*
X226350000Y-102940000D03*
X226350000Y-104210000D03*
X226350000Y-105480000D03*
%TD*%
D19*
%TO.C,H3*%
X190410000Y-80899000D03*
X191112944Y-79201944D03*
X191112944Y-82596056D03*
X192810000Y-78499000D03*
D20*
X192810000Y-80899000D03*
D19*
X192810000Y-83299000D03*
X194507056Y-79201944D03*
X194507056Y-82596056D03*
X195210000Y-80899000D03*
%TD*%
D21*
%TO.C,C23*%
X240500000Y-103420000D03*
X238425000Y-103420000D03*
%TD*%
D19*
%TO.C,H4*%
X245675056Y-118156056D03*
X244972112Y-119853112D03*
X244972112Y-116459000D03*
X243275056Y-120556056D03*
D20*
X243275056Y-118156056D03*
D19*
X243275056Y-115756056D03*
X241578000Y-119853112D03*
X241578000Y-116459000D03*
X240875056Y-118156056D03*
%TD*%
D22*
%TO.C,C29*%
X191400000Y-105920000D03*
X195000000Y-105920000D03*
%TD*%
D23*
%TO.C,C26*%
X214000000Y-88670000D03*
X214000000Y-85545000D03*
%TD*%
D24*
%TO.C,mouse-bite-1mm-slot3*%
X195350000Y-77470000D03*
X196150000Y-77720000D03*
X196850000Y-77720000D03*
X197650000Y-77470000D03*
%TD*%
D25*
%TO.C,L2*%
X199750000Y-96432500D03*
X199750000Y-93282500D03*
%TD*%
D26*
%TO.C,D12*%
X199500000Y-88920000D03*
X199500000Y-85620000D03*
%TD*%
D27*
%TO.C,C16*%
X220750000Y-104670000D03*
X222825000Y-104670000D03*
%TD*%
D11*
%TO.C,R14*%
X210250000Y-87420000D03*
X210250000Y-85420000D03*
%TD*%
D28*
%TO.C,FID4*%
X219500000Y-92670000D03*
%TD*%
D29*
%TO.C,D9*%
X220200000Y-98170000D03*
X218300000Y-98170000D03*
X219250000Y-100170000D03*
%TD*%
D10*
%TO.C,C24*%
X222000000Y-87745000D03*
X222000000Y-85670000D03*
%TD*%
D15*
%TO.C,R11*%
X220000000Y-85670000D03*
X220000000Y-87670000D03*
%TD*%
D30*
%TO.C,D7*%
X238500000Y-78420000D03*
X238500000Y-81720000D03*
%TD*%
D31*
%TO.C,U7*%
X244372000Y-107220000D03*
X243102000Y-107220000D03*
X241832000Y-107220000D03*
X240562000Y-107220000D03*
X240562000Y-112170000D03*
X241832000Y-112170000D03*
X243102000Y-112170000D03*
X244372000Y-112170000D03*
%TD*%
D32*
%TO.C,R10*%
X220750000Y-102670000D03*
X222750000Y-102670000D03*
%TD*%
D33*
%TO.C,U9*%
X191940000Y-94470000D03*
X191940000Y-95420000D03*
X191940000Y-96370000D03*
X194560000Y-96370000D03*
X194560000Y-95420000D03*
X194560000Y-94470000D03*
%TD*%
D34*
%TO.C,C25*%
X207750000Y-87470000D03*
X207750000Y-85420000D03*
%TD*%
D10*
%TO.C,C27*%
X238500000Y-85920000D03*
X238500000Y-83845000D03*
%TD*%
D35*
%TO.C,J12*%
X200500000Y-80264000D03*
D36*
X203000000Y-80264000D03*
X205500000Y-80264000D03*
X208000000Y-80264000D03*
%TD*%
D37*
%TO.C,U10*%
X234825000Y-90670001D03*
X234825000Y-89670000D03*
X234825000Y-88670000D03*
X234825000Y-87669999D03*
X234825000Y-86670001D03*
X234825000Y-85670001D03*
X234825000Y-84670000D03*
X234825000Y-83669999D03*
X234825000Y-82669999D03*
X234825000Y-81670001D03*
X234825000Y-80670000D03*
X234825000Y-79670000D03*
X234825000Y-78669999D03*
X226175000Y-78669999D03*
X226175000Y-79670000D03*
X226175000Y-80670000D03*
X226175000Y-81670001D03*
X226175000Y-82669999D03*
X226175000Y-83669999D03*
X226175000Y-84670000D03*
X226175000Y-85670001D03*
X226175000Y-86670001D03*
X226175000Y-87669999D03*
X226175000Y-88670000D03*
X226175000Y-89670000D03*
X226175000Y-90670001D03*
D38*
X228499999Y-91270002D03*
X229499999Y-91270002D03*
X230500000Y-91270002D03*
X231500001Y-91270002D03*
X232500001Y-91270002D03*
%TD*%
D24*
%TO.C,mouse-bite-1mm-slot2*%
X234550000Y-121670000D03*
X233750000Y-121420000D03*
X233050000Y-121420000D03*
X232250000Y-121670000D03*
%TD*%
%TO.C,mouse-bite-1mm-slot4*%
X241750000Y-77470000D03*
X242550000Y-77720000D03*
X243250000Y-77720000D03*
X244050000Y-77470000D03*
%TD*%
D28*
%TO.C,FID6*%
X244000000Y-95920000D03*
%TD*%
D39*
%TO.C,J11*%
X193572000Y-114300000D03*
D40*
X193572000Y-111760000D03*
%TD*%
D24*
%TO.C,mouse-bite-1mm-slot1*%
X192450000Y-121670000D03*
X191650000Y-121420000D03*
X190950000Y-121420000D03*
X190150000Y-121670000D03*
%TD*%
D22*
%TO.C,C28*%
X191400000Y-100170000D03*
X195000000Y-100170000D03*
%TD*%
D41*
%TO.C,X2*%
X222025000Y-81170000D03*
D42*
X220550000Y-79670000D03*
D41*
X222025000Y-78170000D03*
D42*
X223500000Y-79670000D03*
%TD*%
D43*
%TO.C,D8*%
X232942000Y-109220000D03*
X228642000Y-109220000D03*
%TD*%
D27*
%TO.C,C22*%
X238425000Y-94670000D03*
X240500000Y-94670000D03*
%TD*%
D44*
%TO.C,D11*%
X198500000Y-98770000D03*
X198500000Y-102070000D03*
%TD*%
D22*
%TO.C,C18*%
X191750000Y-90920000D03*
X195350000Y-90920000D03*
%TD*%
D28*
%TO.C,FID5*%
X190750000Y-108920000D03*
%TD*%
D45*
%TO.C,F2*%
X192275000Y-86170000D03*
X195250000Y-86170000D03*
%TD*%
D46*
%TO.C,U6*%
X204500000Y-99370000D03*
X204500000Y-100170000D03*
X204500000Y-100970000D03*
X204500000Y-101770000D03*
X204500000Y-102570000D03*
X204500000Y-103370000D03*
X204500000Y-104170000D03*
X204500000Y-104970000D03*
D47*
X205950000Y-106420000D03*
X206750000Y-106420000D03*
X207550000Y-106420000D03*
X208350000Y-106420000D03*
X209150000Y-106420000D03*
X209950000Y-106420000D03*
X210750000Y-106420000D03*
X211550000Y-106420000D03*
D46*
X213000000Y-104970000D03*
X213000000Y-104170000D03*
X213000000Y-103370000D03*
X213000000Y-102570000D03*
X213000000Y-101770000D03*
X213000000Y-100970000D03*
X213000000Y-100170000D03*
X213000000Y-99370000D03*
D47*
X211550000Y-97920000D03*
X210750000Y-97920000D03*
X209950000Y-97920000D03*
X209150000Y-97920000D03*
X208350000Y-97920000D03*
X207550000Y-97920000D03*
X206750000Y-97920000D03*
X205950000Y-97920000D03*
%TD*%
D39*
%TO.C,J15*%
X203732000Y-114300000D03*
D40*
X203732000Y-111760000D03*
X206272000Y-114300000D03*
X206272000Y-111760000D03*
X208812000Y-114300000D03*
X208812000Y-111760000D03*
X211352000Y-114300000D03*
X211352000Y-111760000D03*
X213892000Y-114300000D03*
X213892000Y-111760000D03*
X216432000Y-114300000D03*
X216432000Y-111760000D03*
%TD*%
D39*
%TO.C,J13*%
X196112000Y-114300000D03*
D40*
X196112000Y-111760000D03*
X198652000Y-114300000D03*
X198652000Y-111760000D03*
X201192000Y-114300000D03*
X201192000Y-111760000D03*
%TD*%
D48*
%TO.C,D10*%
X205250000Y-88920000D03*
X205250000Y-85420000D03*
%TD*%
D49*
%TO.C,J14*%
X243500000Y-80670000D03*
D50*
X243500000Y-83170000D03*
X243500000Y-85670000D03*
X243500000Y-88170000D03*
X243500000Y-90670000D03*
%TD*%
D51*
%TO.C,J9*%
X238000000Y-114730000D03*
X229000000Y-114730000D03*
D52*
X235000000Y-118670000D03*
D53*
X232000000Y-118670000D03*
X235000000Y-115670000D03*
X232000000Y-115670000D03*
%TD*%
D10*
%TO.C,C21*%
X209250000Y-95420000D03*
X209250000Y-93345000D03*
%TD*%
D54*
%TO.C,J10*%
X214000000Y-80264000D03*
D55*
X216500000Y-80264000D03*
%TD*%
D10*
%TO.C,C19*%
X197500000Y-95745000D03*
X197500000Y-93670000D03*
%TD*%
D32*
%TO.C,R15*%
X220750000Y-106670000D03*
X222750000Y-106670000D03*
%TD*%
D27*
%TO.C,C17*%
X215500000Y-104170000D03*
X217575000Y-104170000D03*
%TD*%
D11*
%TO.C,R13*%
X202750000Y-87420000D03*
X202750000Y-85420000D03*
%TD*%
D56*
%TO.C,Y3*%
X238250000Y-97220000D03*
X238250000Y-100920000D03*
X240550000Y-100920000D03*
X240550000Y-97220000D03*
%TD*%
D27*
%TO.C,C20*%
X236500000Y-110420000D03*
X238575000Y-110420000D03*
%TD*%
D10*
%TO.C,C12*%
X176500000Y-85920000D03*
X176500000Y-83845000D03*
%TD*%
D32*
%TO.C,R8*%
X158750000Y-106670000D03*
X160750000Y-106670000D03*
%TD*%
D19*
%TO.C,H1*%
X128410000Y-80899000D03*
X129112944Y-79201944D03*
X129112944Y-82596056D03*
X130810000Y-78499000D03*
D20*
X130810000Y-80899000D03*
D19*
X130810000Y-83299000D03*
X132507056Y-79201944D03*
X132507056Y-82596056D03*
X133210000Y-80899000D03*
%TD*%
D32*
%TO.C,R3*%
X158750000Y-102670000D03*
X160750000Y-102670000D03*
%TD*%
D34*
%TO.C,C10*%
X145750000Y-87470000D03*
X145750000Y-85420000D03*
%TD*%
D10*
%TO.C,C6*%
X147250000Y-95420000D03*
X147250000Y-93345000D03*
%TD*%
D15*
%TO.C,R5*%
X156000000Y-85670000D03*
X156000000Y-87670000D03*
%TD*%
D11*
%TO.C,R6*%
X140750000Y-87420000D03*
X140750000Y-85420000D03*
%TD*%
D48*
%TO.C,D4*%
X143250000Y-88920000D03*
X143250000Y-85420000D03*
%TD*%
D43*
%TO.C,D2*%
X170942000Y-109220000D03*
X166642000Y-109220000D03*
%TD*%
D56*
%TO.C,Y2*%
X176250000Y-97220000D03*
X176250000Y-100920000D03*
X178550000Y-100920000D03*
X178550000Y-97220000D03*
%TD*%
D21*
%TO.C,C8*%
X178500000Y-103420000D03*
X176425000Y-103420000D03*
%TD*%
D16*
%TO.C,JP2*%
X182500000Y-103370000D03*
D17*
X182500000Y-104670000D03*
%TD*%
D27*
%TO.C,C5*%
X174500000Y-110420000D03*
X176575000Y-110420000D03*
%TD*%
D31*
%TO.C,U2*%
X182372000Y-107220000D03*
X181102000Y-107220000D03*
X179832000Y-107220000D03*
X178562000Y-107220000D03*
X178562000Y-112170000D03*
X179832000Y-112170000D03*
X181102000Y-112170000D03*
X182372000Y-112170000D03*
%TD*%
D19*
%TO.C,H2*%
X183675056Y-118156056D03*
X182972112Y-119853112D03*
X182972112Y-116459000D03*
X181275056Y-120556056D03*
D20*
X181275056Y-118156056D03*
D19*
X181275056Y-115756056D03*
X179578000Y-119853112D03*
X179578000Y-116459000D03*
X178875056Y-118156056D03*
%TD*%
D11*
%TO.C,R2*%
X182500000Y-101420000D03*
X182500000Y-99420000D03*
%TD*%
D27*
%TO.C,C1*%
X158750000Y-104670000D03*
X160825000Y-104670000D03*
%TD*%
D39*
%TO.C,J5*%
X134112000Y-114300000D03*
D40*
X134112000Y-111760000D03*
X136652000Y-114300000D03*
X136652000Y-111760000D03*
X139192000Y-114300000D03*
X139192000Y-111760000D03*
%TD*%
D39*
%TO.C,J7*%
X141732000Y-114300000D03*
D40*
X141732000Y-111760000D03*
X144272000Y-114300000D03*
X144272000Y-111760000D03*
X146812000Y-114300000D03*
X146812000Y-111760000D03*
X149352000Y-114300000D03*
X149352000Y-111760000D03*
X151892000Y-114300000D03*
X151892000Y-111760000D03*
X154432000Y-114300000D03*
X154432000Y-111760000D03*
%TD*%
D39*
%TO.C,J3*%
X131572000Y-114300000D03*
D40*
X131572000Y-111760000D03*
%TD*%
D54*
%TO.C,J2*%
X152000000Y-80264000D03*
D55*
X154500000Y-80264000D03*
%TD*%
D46*
%TO.C,U1*%
X142500000Y-99370000D03*
X142500000Y-100170000D03*
X142500000Y-100970000D03*
X142500000Y-101770000D03*
X142500000Y-102570000D03*
X142500000Y-103370000D03*
X142500000Y-104170000D03*
X142500000Y-104970000D03*
D47*
X143950000Y-106420000D03*
X144750000Y-106420000D03*
X145550000Y-106420000D03*
X146350000Y-106420000D03*
X147150000Y-106420000D03*
X147950000Y-106420000D03*
X148750000Y-106420000D03*
X149550000Y-106420000D03*
D46*
X151000000Y-104970000D03*
X151000000Y-104170000D03*
X151000000Y-103370000D03*
X151000000Y-102570000D03*
X151000000Y-101770000D03*
X151000000Y-100970000D03*
X151000000Y-100170000D03*
X151000000Y-99370000D03*
D47*
X149550000Y-97920000D03*
X148750000Y-97920000D03*
X147950000Y-97920000D03*
X147150000Y-97920000D03*
X146350000Y-97920000D03*
X145550000Y-97920000D03*
X144750000Y-97920000D03*
X143950000Y-97920000D03*
%TD*%
D27*
%TO.C,C2*%
X153500000Y-104170000D03*
X155575000Y-104170000D03*
%TD*%
D18*
%TO.C,U3*%
X173650000Y-105480000D03*
X173650000Y-104210000D03*
X173650000Y-102940000D03*
X173650000Y-101670000D03*
X173650000Y-100400000D03*
X173650000Y-99130000D03*
X173650000Y-97860000D03*
X173650000Y-96590000D03*
X173650000Y-95320000D03*
X164350000Y-95320000D03*
X164350000Y-96590000D03*
X164350000Y-97860000D03*
X164350000Y-99130000D03*
X164350000Y-100400000D03*
X164350000Y-101670000D03*
X164350000Y-102940000D03*
X164350000Y-104210000D03*
X164350000Y-105480000D03*
%TD*%
D11*
%TO.C,R7*%
X148250000Y-87420000D03*
X148250000Y-85420000D03*
%TD*%
D45*
%TO.C,F1*%
X130275000Y-86170000D03*
X133250000Y-86170000D03*
%TD*%
D15*
%TO.C,R4*%
X158000000Y-85670000D03*
X158000000Y-87670000D03*
%TD*%
D28*
%TO.C,FID2*%
X128750000Y-108920000D03*
%TD*%
%TO.C,FID3*%
X182000000Y-95920000D03*
%TD*%
D22*
%TO.C,C3*%
X129750000Y-90920000D03*
X133350000Y-90920000D03*
%TD*%
D10*
%TO.C,C4*%
X135500000Y-95745000D03*
X135500000Y-93670000D03*
%TD*%
D22*
%TO.C,C13*%
X129400000Y-100170000D03*
X133000000Y-100170000D03*
%TD*%
%TO.C,C14*%
X129400000Y-105920000D03*
X133000000Y-105920000D03*
%TD*%
D49*
%TO.C,J6*%
X181500000Y-80670000D03*
D50*
X181500000Y-83170000D03*
X181500000Y-85670000D03*
X181500000Y-88170000D03*
X181500000Y-90670000D03*
%TD*%
D25*
%TO.C,L1*%
X137750000Y-96432500D03*
X137750000Y-93282500D03*
%TD*%
D51*
%TO.C,J1*%
X176000000Y-114730000D03*
X167000000Y-114730000D03*
D52*
X173000000Y-118670000D03*
D53*
X170000000Y-118670000D03*
X173000000Y-115670000D03*
X170000000Y-115670000D03*
%TD*%
D12*
%TO.C,J8*%
X158290000Y-120920000D03*
X158290000Y-108920000D03*
D13*
X160250000Y-117920000D03*
D14*
X160250000Y-114920000D03*
X160250000Y-111920000D03*
%TD*%
D27*
%TO.C,C7*%
X176425000Y-94670000D03*
X178500000Y-94670000D03*
%TD*%
D35*
%TO.C,J4*%
X138500000Y-80264000D03*
D36*
X141000000Y-80264000D03*
X143500000Y-80264000D03*
X146000000Y-80264000D03*
%TD*%
D23*
%TO.C,C11*%
X152000000Y-88670000D03*
X152000000Y-85545000D03*
%TD*%
D37*
%TO.C,U5*%
X172825000Y-90670001D03*
X172825000Y-89670000D03*
X172825000Y-88670000D03*
X172825000Y-87669999D03*
X172825000Y-86670001D03*
X172825000Y-85670001D03*
X172825000Y-84670000D03*
X172825000Y-83669999D03*
X172825000Y-82669999D03*
X172825000Y-81670001D03*
X172825000Y-80670000D03*
X172825000Y-79670000D03*
X172825000Y-78669999D03*
X164175000Y-78669999D03*
X164175000Y-79670000D03*
X164175000Y-80670000D03*
X164175000Y-81670001D03*
X164175000Y-82669999D03*
X164175000Y-83669999D03*
X164175000Y-84670000D03*
X164175000Y-85670001D03*
X164175000Y-86670001D03*
X164175000Y-87669999D03*
X164175000Y-88670000D03*
X164175000Y-89670000D03*
X164175000Y-90670001D03*
D38*
X166499999Y-91270002D03*
X167499999Y-91270002D03*
X168500000Y-91270002D03*
X169500001Y-91270002D03*
X170500001Y-91270002D03*
%TD*%
D10*
%TO.C,C9*%
X160000000Y-87745000D03*
X160000000Y-85670000D03*
%TD*%
D33*
%TO.C,U4*%
X129940000Y-94470000D03*
X129940000Y-95420000D03*
X129940000Y-96370000D03*
X132560000Y-96370000D03*
X132560000Y-95420000D03*
X132560000Y-94470000D03*
%TD*%
D10*
%TO.C,C15*%
X175000000Y-90495000D03*
X175000000Y-88420000D03*
%TD*%
D41*
%TO.C,X1*%
X160025000Y-81170000D03*
D42*
X158550000Y-79670000D03*
D41*
X160025000Y-78170000D03*
D42*
X161500000Y-79670000D03*
%TD*%
D28*
%TO.C,FID1*%
X157500000Y-92670000D03*
%TD*%
D29*
%TO.C,D3*%
X158200000Y-98170000D03*
X156300000Y-98170000D03*
X157250000Y-100170000D03*
%TD*%
D44*
%TO.C,D5*%
X136500000Y-98770000D03*
X136500000Y-102070000D03*
%TD*%
D26*
%TO.C,D6*%
X137500000Y-88920000D03*
X137500000Y-85620000D03*
%TD*%
D30*
%TO.C,D1*%
X176500000Y-78420000D03*
X176500000Y-81720000D03*
%TD*%
D24*
%TO.C,mouse-bite-1mm-slot*%
X172550000Y-121670000D03*
X171750000Y-121420000D03*
X171050000Y-121420000D03*
X170250000Y-121670000D03*
%TD*%
%TO.C,mouse-bite-1mm-slot*%
X133350000Y-77470000D03*
X134150000Y-77720000D03*
X134850000Y-77720000D03*
X135650000Y-77470000D03*
%TD*%
%TO.C,mouse-bite-1mm-slot*%
X179750000Y-77470000D03*
X180550000Y-77720000D03*
X181250000Y-77720000D03*
X182050000Y-77470000D03*
%TD*%
%TO.C,mouse-bite-1mm-slot*%
X130450000Y-121670000D03*
X129650000Y-121420000D03*
X128950000Y-121420000D03*
X128150000Y-121670000D03*
%TD*%
M02*
