M48
; DRILL file {KiCad 7.0.1-0} date 2023 April 11, Tuesday 20:51:43
; FORMAT={3:3/ absolute / metric / suppress leading zeros}
; #@! TF.CreationDate,2023-04-11T20:51:43+02:00
; #@! TF.GenerationSoftware,Kicad,Pcbnew,7.0.1-0
; #@! TF.FileFunction,MixedPlating,1,2
FMAT,2
METRIC,TZ
; #@! TA.AperFunction,Plated,PTH,ViaDrill
T1C0.400
; #@! TA.AperFunction,Plated,PTH,ComponentDrill
T2C0.500
; #@! TA.AperFunction,Plated,PTH,ComponentDrill
T3C0.950
; #@! TA.AperFunction,Plated,PTH,ComponentDrill
T4C1.000
; #@! TA.AperFunction,Plated,PTH,ComponentDrill
T5C1.020
; #@! TA.AperFunction,Plated,PTH,ComponentDrill
T6C3.200
; #@! TA.AperFunction,NonPlated,NPTH,ComponentDrill
T7C0.500
; #@! TA.AperFunction,NonPlated,NPTH,ComponentDrill
T8C1.000
; #@! TA.AperFunction,NonPlated,NPTH,ComponentDrill
T9C1.270
%
G90
G05
T1
X134000Y-102920
X134250Y-97170
X134250Y-98420
X134750Y-89170
X135927Y-107420
X136500Y-82920
X137756Y-92162
X139033Y-103203
X139237Y-100657
X139750Y-92420
X139750Y-99420
X139775Y-103945
X140000Y-89670
X140250Y-82920
X140500Y-101670
X140750Y-100170
X140750Y-102670
X141155Y-104695
X142300Y-98020
X142750Y-109920
X143250Y-93545
X143750Y-96170
X144000Y-109170
X144500Y-102670
X144750Y-103670
X145500Y-101670
X146300Y-100020
X147500Y-100920
X148500Y-101420
X148700Y-93545
X149467Y-94270
X150000Y-89170
X150649Y-97021
X151250Y-98170
X151750Y-92920
X152500Y-96670
X153000Y-99170
X153000Y-107420
X153250Y-97420
X153750Y-100920
X154301Y-99959
X155750Y-107420
X156500Y-88920
X159500Y-90420
X160250Y-89170
X161750Y-86670
X161750Y-91420
X162250Y-88420
X162250Y-97670
X162250Y-98920
X162250Y-100670
X162500Y-81920
X162500Y-83220
X162500Y-89920
X162500Y-101920
X162625Y-80620
X166500Y-95170
X166750Y-93895
X167250Y-102670
X170750Y-105170
X171750Y-105420
X172500Y-113420
X174500Y-78420
X175000Y-82920
X175500Y-103420
X176750Y-105645
X176750Y-112420
X177500Y-108920
X178000Y-89670
X196000Y-102920
X196250Y-97170
X196250Y-98420
X196750Y-89170
X197927Y-107420
X198500Y-82920
X199756Y-92162
X201033Y-103203
X201237Y-100657
X201750Y-92420
X201750Y-99420
X201775Y-103945
X202000Y-89670
X202250Y-82920
X202500Y-101670
X202750Y-100170
X202750Y-102670
X203155Y-104695
X204300Y-98020
X204750Y-109920
X205250Y-93545
X205750Y-96170
X206000Y-109170
X206500Y-102670
X206750Y-103670
X207500Y-101670
X208300Y-100020
X209500Y-100920
X210500Y-101420
X210700Y-93545
X211467Y-94270
X212000Y-89170
X212649Y-97021
X213250Y-98170
X213750Y-92920
X214500Y-96670
X215000Y-99170
X215000Y-107420
X215250Y-97420
X215750Y-100920
X216301Y-99959
X217750Y-107420
X218500Y-88920
X221500Y-90420
X222250Y-89170
X223750Y-86670
X223750Y-91420
X224250Y-88420
X224250Y-97670
X224250Y-98920
X224250Y-100670
X224500Y-81920
X224500Y-83220
X224500Y-89920
X224500Y-101920
X224625Y-80620
X228500Y-95170
X228750Y-93895
X229250Y-102670
X232750Y-105170
X233750Y-105420
X234500Y-113420
X236500Y-78420
X237000Y-82920
X237500Y-103420
X238750Y-105645
X238750Y-112420
X239500Y-108920
X240000Y-89670
T2
X128410Y-80899
X129113Y-79202
X129113Y-82596
X130810Y-78499
X130810Y-83299
X132507Y-79202
X132507Y-82596
X133210Y-80899
X178875Y-118156
X179578Y-116459
X179578Y-119853
X181275Y-115756
X181275Y-120556
X182972Y-116459
X182972Y-119853
X183675Y-118156
X190410Y-80899
X191113Y-79202
X191113Y-82596
X192810Y-78499
X192810Y-83299
X194507Y-79202
X194507Y-82596
X195210Y-80899
X240875Y-118156
X241578Y-116459
X241578Y-119853
X243275Y-115756
X243275Y-120556
X244972Y-116459
X244972Y-119853
X245675Y-118156
T3
X138500Y-80264
X141000Y-80264
X143500Y-80264
X146000Y-80264
X181500Y-80670
X181500Y-83170
X181500Y-85670
X181500Y-88170
X181500Y-90670
X200500Y-80264
X203000Y-80264
X205500Y-80264
X208000Y-80264
X243500Y-80670
X243500Y-83170
X243500Y-85670
X243500Y-88170
X243500Y-90670
T4
X131572Y-111760
X131572Y-114300
X134112Y-111760
X134112Y-114300
X136652Y-111760
X136652Y-114300
X139192Y-111760
X139192Y-114300
X141732Y-111760
X141732Y-114300
X144272Y-111760
X144272Y-114300
X146812Y-111760
X146812Y-114300
X149352Y-111760
X149352Y-114300
X151892Y-111760
X151892Y-114300
X152000Y-80264
X154432Y-111760
X154432Y-114300
X154500Y-80264
X170000Y-115670
X170000Y-118670
X173000Y-115670
X173000Y-118670
X193572Y-111760
X193572Y-114300
X196112Y-111760
X196112Y-114300
X198652Y-111760
X198652Y-114300
X201192Y-111760
X201192Y-114300
X203732Y-111760
X203732Y-114300
X206272Y-111760
X206272Y-114300
X208812Y-111760
X208812Y-114300
X211352Y-111760
X211352Y-114300
X213892Y-111760
X213892Y-114300
X214000Y-80264
X216432Y-111760
X216432Y-114300
X216500Y-80264
X232000Y-115670
X232000Y-118670
X235000Y-115670
X235000Y-118670
T5
X160250Y-111920
X160250Y-114920
X160250Y-117920
X222250Y-111920
X222250Y-114920
X222250Y-117920
T6
X130810Y-80899
X181275Y-118156
X192810Y-80899
X243275Y-118156
T7
X128150Y-121670
X128950Y-121420
X129650Y-121420
X130450Y-121670
X133350Y-77470
X134150Y-77720
X134850Y-77720
X135650Y-77470
X170250Y-121670
X171050Y-121420
X171750Y-121420
X172550Y-121670
X179750Y-77470
X180550Y-77720
X181250Y-77720
X182050Y-77470
X190150Y-121670
X190950Y-121420
X191650Y-121420
X192450Y-121670
X195350Y-77470
X196150Y-77720
X196850Y-77720
X197650Y-77470
X232250Y-121670
X233050Y-121420
X233750Y-121420
X234550Y-121670
X241750Y-77470
X242550Y-77720
X243250Y-77720
X244050Y-77470
T8
X167000Y-114730
X176000Y-114730
X229000Y-114730
X238000Y-114730
T9
X158290Y-108920
X158290Y-120920
X220290Y-108920
X220290Y-120920
T0
M30
