%TF.GenerationSoftware,KiCad,Pcbnew,7.0.1-0*%
%TF.CreationDate,2023-04-11T20:51:41+02:00*%
%TF.ProjectId,SmartDisplay,536d6172-7444-4697-9370-6c61792e6b69,rev?*%
%TF.SameCoordinates,Original*%
%TF.FileFunction,Legend,Bot*%
%TF.FilePolarity,Positive*%
%FSLAX46Y46*%
G04 Gerber Fmt 4.6, Leading zero omitted, Abs format (unit mm)*
G04 Created by KiCad (PCBNEW 7.0.1-0) date 2023-04-11 20:51:41*
%MOMM*%
%LPD*%
G01*
G04 APERTURE LIST*
%ADD10C,0.150000*%
%ADD11C,0.120000*%
G04 APERTURE END LIST*
D10*
%TO.C,JP5*%
X222162619Y-81086666D02*
X222876904Y-81086666D01*
X222876904Y-81086666D02*
X223019761Y-81039047D01*
X223019761Y-81039047D02*
X223115000Y-80943809D01*
X223115000Y-80943809D02*
X223162619Y-80800952D01*
X223162619Y-80800952D02*
X223162619Y-80705714D01*
X223162619Y-81562857D02*
X222162619Y-81562857D01*
X222162619Y-81562857D02*
X222162619Y-81943809D01*
X222162619Y-81943809D02*
X222210238Y-82039047D01*
X222210238Y-82039047D02*
X222257857Y-82086666D01*
X222257857Y-82086666D02*
X222353095Y-82134285D01*
X222353095Y-82134285D02*
X222495952Y-82134285D01*
X222495952Y-82134285D02*
X222591190Y-82086666D01*
X222591190Y-82086666D02*
X222638809Y-82039047D01*
X222638809Y-82039047D02*
X222686428Y-81943809D01*
X222686428Y-81943809D02*
X222686428Y-81562857D01*
X222162619Y-83039047D02*
X222162619Y-82562857D01*
X222162619Y-82562857D02*
X222638809Y-82515238D01*
X222638809Y-82515238D02*
X222591190Y-82562857D01*
X222591190Y-82562857D02*
X222543571Y-82658095D01*
X222543571Y-82658095D02*
X222543571Y-82896190D01*
X222543571Y-82896190D02*
X222591190Y-82991428D01*
X222591190Y-82991428D02*
X222638809Y-83039047D01*
X222638809Y-83039047D02*
X222734047Y-83086666D01*
X222734047Y-83086666D02*
X222972142Y-83086666D01*
X222972142Y-83086666D02*
X223067380Y-83039047D01*
X223067380Y-83039047D02*
X223115000Y-82991428D01*
X223115000Y-82991428D02*
X223162619Y-82896190D01*
X223162619Y-82896190D02*
X223162619Y-82658095D01*
X223162619Y-82658095D02*
X223115000Y-82562857D01*
X223115000Y-82562857D02*
X223067380Y-82515238D01*
%TO.C,JP3*%
X160162619Y-81086666D02*
X160876904Y-81086666D01*
X160876904Y-81086666D02*
X161019761Y-81039047D01*
X161019761Y-81039047D02*
X161115000Y-80943809D01*
X161115000Y-80943809D02*
X161162619Y-80800952D01*
X161162619Y-80800952D02*
X161162619Y-80705714D01*
X161162619Y-81562857D02*
X160162619Y-81562857D01*
X160162619Y-81562857D02*
X160162619Y-81943809D01*
X160162619Y-81943809D02*
X160210238Y-82039047D01*
X160210238Y-82039047D02*
X160257857Y-82086666D01*
X160257857Y-82086666D02*
X160353095Y-82134285D01*
X160353095Y-82134285D02*
X160495952Y-82134285D01*
X160495952Y-82134285D02*
X160591190Y-82086666D01*
X160591190Y-82086666D02*
X160638809Y-82039047D01*
X160638809Y-82039047D02*
X160686428Y-81943809D01*
X160686428Y-81943809D02*
X160686428Y-81562857D01*
X160162619Y-82467619D02*
X160162619Y-83086666D01*
X160162619Y-83086666D02*
X160543571Y-82753333D01*
X160543571Y-82753333D02*
X160543571Y-82896190D01*
X160543571Y-82896190D02*
X160591190Y-82991428D01*
X160591190Y-82991428D02*
X160638809Y-83039047D01*
X160638809Y-83039047D02*
X160734047Y-83086666D01*
X160734047Y-83086666D02*
X160972142Y-83086666D01*
X160972142Y-83086666D02*
X161067380Y-83039047D01*
X161067380Y-83039047D02*
X161115000Y-82991428D01*
X161115000Y-82991428D02*
X161162619Y-82896190D01*
X161162619Y-82896190D02*
X161162619Y-82610476D01*
X161162619Y-82610476D02*
X161115000Y-82515238D01*
X161115000Y-82515238D02*
X161067380Y-82467619D01*
D11*
%TO.C,JP5*%
X224800000Y-79870000D02*
X224200000Y-79870000D01*
X226000000Y-80420000D02*
X226000000Y-81020000D01*
X223500000Y-80520000D02*
X223500000Y-83320000D01*
X225700000Y-80720000D02*
X226000000Y-80420000D01*
X225700000Y-80720000D02*
X226000000Y-81020000D01*
X225500000Y-83320000D02*
X225500000Y-80520000D01*
X224200000Y-83970000D02*
X224800000Y-83970000D01*
X225500000Y-80570000D02*
G75*
G03*
X224800000Y-79870000I-699999J1D01*
G01*
X224200000Y-79870000D02*
G75*
G03*
X223500000Y-80570000I-1J-699999D01*
G01*
X224800000Y-83970000D02*
G75*
G03*
X225500000Y-83270000I0J700000D01*
G01*
X223500000Y-83270000D02*
G75*
G03*
X224200000Y-83970000I700000J0D01*
G01*
%TO.C,JP3*%
X162800000Y-79870000D02*
X162200000Y-79870000D01*
X164000000Y-80420000D02*
X164000000Y-81020000D01*
X161500000Y-80520000D02*
X161500000Y-83320000D01*
X163700000Y-80720000D02*
X164000000Y-80420000D01*
X163700000Y-80720000D02*
X164000000Y-81020000D01*
X163500000Y-83320000D02*
X163500000Y-80520000D01*
X162200000Y-83970000D02*
X162800000Y-83970000D01*
X163500000Y-80570000D02*
G75*
G03*
X162800000Y-79870000I-699999J1D01*
G01*
X162200000Y-79870000D02*
G75*
G03*
X161500000Y-80570000I-1J-699999D01*
G01*
X162800000Y-83970000D02*
G75*
G03*
X163500000Y-83270000I0J700000D01*
G01*
X161500000Y-83270000D02*
G75*
G03*
X162200000Y-83970000I700000J0D01*
G01*
%TD*%
M02*
