%TF.GenerationSoftware,KiCad,Pcbnew,7.0.1-0*%
%TF.CreationDate,2023-04-11T20:51:41+02:00*%
%TF.ProjectId,SmartDisplay,536d6172-7444-4697-9370-6c61792e6b69,rev?*%
%TF.SameCoordinates,Original*%
%TF.FileFunction,Profile,NP*%
%FSLAX46Y46*%
G04 Gerber Fmt 4.6, Leading zero omitted, Abs format (unit mm)*
G04 Created by KiCad (PCBNEW 7.0.1-0) date 2023-04-11 20:51:41*
%MOMM*%
%LPD*%
G01*
G04 APERTURE LIST*
%TA.AperFunction,Profile*%
%ADD10C,0.050000*%
%TD*%
G04 APERTURE END LIST*
D10*
X127000000Y-122920000D02*
X127000000Y-129520000D01*
X184900000Y-129520000D02*
X189000000Y-129520000D01*
X189000000Y-122920000D02*
X184900000Y-122920000D01*
X246900000Y-122920000D02*
X246900000Y-129520000D01*
X246900000Y-69620000D02*
X246900000Y-76220000D01*
X184900000Y-76220000D02*
X189000000Y-76220000D01*
X184900000Y-69620000D02*
X189000000Y-69620000D01*
X127000000Y-69620000D02*
X127000000Y-76220000D01*
X216686000Y-121920000D02*
X231900000Y-121920000D01*
X198000000Y-76220000D02*
G75*
G03*
X198000000Y-77220000I0J-500000D01*
G01*
X189000000Y-69620000D02*
X246900000Y-69620000D01*
X234900000Y-121920000D02*
G75*
G03*
X234900000Y-122920000I0J-500000D01*
G01*
X189800000Y-122920000D02*
G75*
G03*
X189800000Y-121920000I0J500000D01*
G01*
X192800000Y-122920000D02*
X231900000Y-122920000D01*
X234900000Y-121920000D02*
X246900000Y-121920000D01*
X195000000Y-76220000D02*
X189000000Y-76220000D01*
X244400000Y-76220000D02*
G75*
G03*
X244400000Y-77220000I0J-500000D01*
G01*
X246900000Y-129520000D02*
X189000000Y-129520000D01*
X234900000Y-122920000D02*
X246900000Y-122920000D01*
X241400000Y-77220000D02*
G75*
G03*
X241400000Y-76220000I0J500000D01*
G01*
X195000000Y-77220000D02*
G75*
G03*
X195000000Y-76220000I0J500000D01*
G01*
X192800000Y-121920000D02*
G75*
G03*
X192800000Y-122920000I0J-500000D01*
G01*
X246900000Y-121920000D02*
X246900000Y-77220000D01*
X244400000Y-77220000D02*
X246900000Y-77220000D01*
X193318000Y-116840000D02*
X193318000Y-121920000D01*
X189000000Y-121920000D02*
X189000000Y-77220000D01*
X193318000Y-116840000D02*
X216686000Y-116840000D01*
X231900000Y-122920000D02*
G75*
G03*
X231900000Y-121920000I0J500000D01*
G01*
X189000000Y-121920000D02*
X189800000Y-121920000D01*
X216686000Y-116840000D02*
X216686000Y-121920000D01*
X244400000Y-76220000D02*
X246900000Y-76220000D01*
X192800000Y-121920000D02*
X193318000Y-121920000D01*
X189800000Y-122920000D02*
X189000000Y-122920000D01*
X241400000Y-76220000D02*
X198000000Y-76220000D01*
X189000000Y-77220000D02*
X195000000Y-77220000D01*
X198000000Y-77220000D02*
X241400000Y-77220000D01*
X154686000Y-121920000D02*
X169900000Y-121920000D01*
X131318000Y-116840000D02*
X154686000Y-116840000D01*
X184900000Y-121920000D02*
X184900000Y-77220000D01*
X131318000Y-116840000D02*
X131318000Y-121920000D01*
X127000000Y-121920000D02*
X127000000Y-77220000D01*
X154686000Y-116840000D02*
X154686000Y-121920000D01*
X179400000Y-77220000D02*
G75*
G03*
X179400000Y-76220000I0J500000D01*
G01*
X130800000Y-121920000D02*
X131318000Y-121920000D01*
X172900000Y-122920000D02*
X184900000Y-122920000D01*
X133000000Y-76220000D02*
X127000000Y-76220000D01*
X182400000Y-76220000D02*
G75*
G03*
X182400000Y-77220000I0J-500000D01*
G01*
X182400000Y-76220000D02*
X184900000Y-76220000D01*
X136000000Y-77220000D02*
X179400000Y-77220000D01*
X184900000Y-129520000D02*
X127000000Y-129520000D01*
X182400000Y-77220000D02*
X184900000Y-77220000D01*
X127000000Y-77220000D02*
X133000000Y-77220000D01*
X172900000Y-121920000D02*
G75*
G03*
X172900000Y-122920000I0J-500000D01*
G01*
X136000000Y-76220000D02*
G75*
G03*
X136000000Y-77220000I0J-500000D01*
G01*
X127000000Y-69620000D02*
X184900000Y-69620000D01*
X127000000Y-121920000D02*
X127800000Y-121920000D01*
X130800000Y-122920000D02*
X169900000Y-122920000D01*
X127800000Y-122920000D02*
G75*
G03*
X127800000Y-121920000I0J500000D01*
G01*
X169900000Y-122920000D02*
G75*
G03*
X169900000Y-121920000I0J500000D01*
G01*
X130800000Y-121920000D02*
G75*
G03*
X130800000Y-122920000I0J-500000D01*
G01*
X133000000Y-77220000D02*
G75*
G03*
X133000000Y-76220000I0J500000D01*
G01*
X127800000Y-122920000D02*
X127000000Y-122920000D01*
X179400000Y-76220000D02*
X136000000Y-76220000D01*
X172900000Y-121920000D02*
X184900000Y-121920000D01*
M02*
