%TF.GenerationSoftware,KiCad,Pcbnew,(5.1.12-1-10_14)*%
%TF.CreationDate,2022-04-05T22:08:35+02:00*%
%TF.ProjectId,SmartDisplay,536d6172-7444-4697-9370-6c61792e6b69,rev?*%
%TF.SameCoordinates,Original*%
%TF.FileFunction,Legend,Top*%
%TF.FilePolarity,Positive*%
%FSLAX46Y46*%
G04 Gerber Fmt 4.6, Leading zero omitted, Abs format (unit mm)*
G04 Created by KiCad (PCBNEW (5.1.12-1-10_14)) date 2022-04-05 22:08:35*
%MOMM*%
%LPD*%
G01*
G04 APERTURE LIST*
%ADD10C,0.120000*%
%ADD11C,0.150000*%
G04 APERTURE END LIST*
D10*
%TO.C,D9*%
X159780000Y-85960000D02*
X158850000Y-85960000D01*
X156620000Y-85960000D02*
X157550000Y-85960000D01*
X156620000Y-85960000D02*
X156620000Y-88120000D01*
X159780000Y-85960000D02*
X159780000Y-87420000D01*
%TO.C,C13*%
X139402500Y-105232500D02*
X140027500Y-105232500D01*
X139715000Y-105545000D02*
X139715000Y-104920000D01*
X143095563Y-104680000D02*
X144160000Y-103615563D01*
X139704437Y-104680000D02*
X138640000Y-103615563D01*
X139704437Y-104680000D02*
X140340000Y-104680000D01*
X143095563Y-104680000D02*
X142460000Y-104680000D01*
X144160000Y-103615563D02*
X144160000Y-99160000D01*
X138640000Y-103615563D02*
X138640000Y-99160000D01*
X138640000Y-99160000D02*
X140340000Y-99160000D01*
X144160000Y-99160000D02*
X142460000Y-99160000D01*
%TO.C,C3*%
X138002500Y-95632500D02*
X138627500Y-95632500D01*
X138315000Y-95945000D02*
X138315000Y-95320000D01*
X141695563Y-95080000D02*
X142760000Y-94015563D01*
X138304437Y-95080000D02*
X137240000Y-94015563D01*
X138304437Y-95080000D02*
X138940000Y-95080000D01*
X141695563Y-95080000D02*
X141060000Y-95080000D01*
X142760000Y-94015563D02*
X142760000Y-89560000D01*
X137240000Y-94015563D02*
X137240000Y-89560000D01*
X137240000Y-89560000D02*
X138940000Y-89560000D01*
X142760000Y-89560000D02*
X141060000Y-89560000D01*
%TO.C,U4*%
X130940000Y-99260000D02*
X130940000Y-100520000D01*
X130940000Y-106080000D02*
X130940000Y-104820000D01*
X134700000Y-99260000D02*
X130940000Y-99260000D01*
X136950000Y-106080000D02*
X130940000Y-106080000D01*
%TO.C,F1*%
X132385436Y-86560000D02*
X133589564Y-86560000D01*
X132385436Y-89280000D02*
X133589564Y-89280000D01*
%TO.C,D8*%
X136400000Y-98320000D02*
X136400000Y-94020000D01*
X136400000Y-94020000D02*
X130700000Y-94020000D01*
X136400000Y-98320000D02*
X130700000Y-98320000D01*
%TO.C,D7*%
X136400000Y-93320000D02*
X136400000Y-90020000D01*
X136400000Y-90020000D02*
X131000000Y-90020000D01*
X136400000Y-93320000D02*
X131000000Y-93320000D01*
%TO.C,U3*%
X170850000Y-92455000D02*
X166990000Y-92455000D01*
X166990000Y-92455000D02*
X166990000Y-92700000D01*
X170850000Y-92455000D02*
X174710000Y-92455000D01*
X174710000Y-92455000D02*
X174710000Y-92700000D01*
X170850000Y-104225000D02*
X166990000Y-104225000D01*
X166990000Y-104225000D02*
X166990000Y-103980000D01*
X170850000Y-104225000D02*
X174710000Y-104225000D01*
X174710000Y-104225000D02*
X174710000Y-103980000D01*
X174710000Y-103980000D02*
X176525000Y-103980000D01*
%TO.C,R8*%
X162772936Y-107435000D02*
X163227064Y-107435000D01*
X162772936Y-108905000D02*
X163227064Y-108905000D01*
%TO.C,R7*%
X156235000Y-86692936D02*
X156235000Y-87147064D01*
X154765000Y-86692936D02*
X154765000Y-87147064D01*
%TO.C,R6*%
X141950064Y-86587000D02*
X141495936Y-86587000D01*
X141950064Y-85117000D02*
X141495936Y-85117000D01*
%TO.C,R5*%
X144880000Y-93997936D02*
X144880000Y-94452064D01*
X143410000Y-93997936D02*
X143410000Y-94452064D01*
%TO.C,R4*%
X149325000Y-93997936D02*
X149325000Y-94452064D01*
X147855000Y-93997936D02*
X147855000Y-94452064D01*
%TO.C,R3*%
X161735000Y-87942936D02*
X161735000Y-88397064D01*
X160265000Y-87942936D02*
X160265000Y-88397064D01*
%TO.C,R2*%
X179814064Y-102843000D02*
X179359936Y-102843000D01*
X179814064Y-101373000D02*
X179359936Y-101373000D01*
%TO.C,C12*%
X178135000Y-88021248D02*
X178135000Y-88543752D01*
X176665000Y-88021248D02*
X176665000Y-88543752D01*
%TO.C,C9*%
X145569000Y-94486252D02*
X145569000Y-93963748D01*
X147039000Y-94486252D02*
X147039000Y-93963748D01*
%TO.C,C8*%
X179848252Y-100811000D02*
X179325748Y-100811000D01*
X179848252Y-99341000D02*
X179325748Y-99341000D01*
%TO.C,C7*%
X179238748Y-91185000D02*
X179761252Y-91185000D01*
X179238748Y-92655000D02*
X179761252Y-92655000D01*
%TO.C,C6*%
X157451248Y-89435000D02*
X157973752Y-89435000D01*
X157451248Y-90905000D02*
X157973752Y-90905000D01*
%TO.C,C5*%
X175624748Y-107596000D02*
X176147252Y-107596000D01*
X175624748Y-109066000D02*
X176147252Y-109066000D01*
%TO.C,C2*%
X162265000Y-98218752D02*
X162265000Y-97696248D01*
X163735000Y-98218752D02*
X163735000Y-97696248D01*
%TO.C,C1*%
X162526248Y-102685000D02*
X163048752Y-102685000D01*
X162526248Y-104155000D02*
X163048752Y-104155000D01*
%TO.C,D6*%
X147000000Y-89020000D02*
X149000000Y-89020000D01*
X149000000Y-89020000D02*
X149000000Y-85120000D01*
X147000000Y-89020000D02*
X147000000Y-85120000D01*
%TO.C,D5*%
X149500000Y-89020000D02*
X151500000Y-89020000D01*
X151500000Y-89020000D02*
X151500000Y-85120000D01*
X149500000Y-89020000D02*
X149500000Y-85120000D01*
D11*
%TO.C,U1*%
X152875000Y-93720000D02*
X151450000Y-93720000D01*
X160125000Y-93495000D02*
X159800000Y-93495000D01*
X160125000Y-100745000D02*
X159800000Y-100745000D01*
X152875000Y-100745000D02*
X153200000Y-100745000D01*
X152875000Y-93495000D02*
X153200000Y-93495000D01*
X152875000Y-100745000D02*
X152875000Y-100420000D01*
X160125000Y-100745000D02*
X160125000Y-100420000D01*
X160125000Y-93495000D02*
X160125000Y-93820000D01*
X152875000Y-93495000D02*
X152875000Y-93720000D01*
D10*
%TO.C,D3*%
X157670000Y-110430000D02*
X158600000Y-110430000D01*
X160830000Y-110430000D02*
X159900000Y-110430000D01*
X160830000Y-110430000D02*
X160830000Y-108270000D01*
X157670000Y-110430000D02*
X157670000Y-108970000D01*
%TO.C,J5*%
X140522000Y-115630000D02*
X140522000Y-110430000D01*
X135382000Y-115630000D02*
X140522000Y-115630000D01*
X132782000Y-110430000D02*
X140522000Y-110430000D01*
X135382000Y-115630000D02*
X135382000Y-113030000D01*
X135382000Y-113030000D02*
X132782000Y-113030000D01*
X132782000Y-113030000D02*
X132782000Y-110430000D01*
X134112000Y-115630000D02*
X132782000Y-115630000D01*
X132782000Y-115630000D02*
X132782000Y-114300000D01*
%TO.C,J2*%
X152928000Y-77804000D02*
X152928000Y-83774000D01*
X152928000Y-83774000D02*
X160548000Y-83774000D01*
X160548000Y-83774000D02*
X160548000Y-77804000D01*
X160548000Y-77804000D02*
X152928000Y-77804000D01*
X156238000Y-77814000D02*
X156238000Y-78564000D01*
X156238000Y-78564000D02*
X157238000Y-78564000D01*
X157238000Y-78564000D02*
X157238000Y-77814000D01*
X157238000Y-77814000D02*
X156238000Y-77814000D01*
X152938000Y-77814000D02*
X152938000Y-78564000D01*
X152938000Y-78564000D02*
X154738000Y-78564000D01*
X154738000Y-78564000D02*
X154738000Y-77814000D01*
X154738000Y-77814000D02*
X152938000Y-77814000D01*
X158738000Y-77814000D02*
X158738000Y-78564000D01*
X158738000Y-78564000D02*
X160538000Y-78564000D01*
X160538000Y-78564000D02*
X160538000Y-77814000D01*
X160538000Y-77814000D02*
X158738000Y-77814000D01*
X152938000Y-80064000D02*
X153688000Y-80064000D01*
X153688000Y-80064000D02*
X153688000Y-81404000D01*
X156738000Y-83014000D02*
X154748000Y-83014000D01*
X160538000Y-80064000D02*
X159788000Y-80064000D01*
X159788000Y-80064000D02*
X159788000Y-83014000D01*
X159788000Y-83014000D02*
X156738000Y-83014000D01*
X153888000Y-77514000D02*
X152638000Y-77514000D01*
X152638000Y-77514000D02*
X152638000Y-78764000D01*
%TO.C,J4*%
X138784000Y-77804000D02*
X138784000Y-83774000D01*
X138784000Y-83774000D02*
X151404000Y-83774000D01*
X151404000Y-83774000D02*
X151404000Y-77804000D01*
X151404000Y-77804000D02*
X138784000Y-77804000D01*
X142094000Y-77814000D02*
X142094000Y-78564000D01*
X142094000Y-78564000D02*
X148094000Y-78564000D01*
X148094000Y-78564000D02*
X148094000Y-77814000D01*
X148094000Y-77814000D02*
X142094000Y-77814000D01*
X138794000Y-77814000D02*
X138794000Y-78564000D01*
X138794000Y-78564000D02*
X140594000Y-78564000D01*
X140594000Y-78564000D02*
X140594000Y-77814000D01*
X140594000Y-77814000D02*
X138794000Y-77814000D01*
X149594000Y-77814000D02*
X149594000Y-78564000D01*
X149594000Y-78564000D02*
X151394000Y-78564000D01*
X151394000Y-78564000D02*
X151394000Y-77814000D01*
X151394000Y-77814000D02*
X149594000Y-77814000D01*
X138794000Y-80064000D02*
X139544000Y-80064000D01*
X139544000Y-80064000D02*
X139544000Y-81404000D01*
X145094000Y-83014000D02*
X140604000Y-83014000D01*
X151394000Y-80064000D02*
X150644000Y-80064000D01*
X150644000Y-80064000D02*
X150644000Y-83014000D01*
X150644000Y-83014000D02*
X145094000Y-83014000D01*
X139744000Y-77514000D02*
X138494000Y-77514000D01*
X138494000Y-77514000D02*
X138494000Y-78764000D01*
%TO.C,J3*%
X132902000Y-115630000D02*
X132902000Y-110430000D01*
X132842000Y-115630000D02*
X132902000Y-115630000D01*
X130242000Y-110430000D02*
X132902000Y-110430000D01*
X132842000Y-115630000D02*
X132842000Y-113030000D01*
X132842000Y-113030000D02*
X130242000Y-113030000D01*
X130242000Y-113030000D02*
X130242000Y-110430000D01*
X131572000Y-115630000D02*
X130242000Y-115630000D01*
X130242000Y-115630000D02*
X130242000Y-114300000D01*
%TO.C,J6*%
X164205000Y-80215000D02*
X164205000Y-83290000D01*
X164205000Y-83290000D02*
X183075000Y-83290000D01*
X183075000Y-83290000D02*
X183075000Y-80215000D01*
X165645000Y-78700000D02*
X165625000Y-78700000D01*
X165625000Y-78700000D02*
X165625000Y-79200000D01*
X165625000Y-79200000D02*
X181655000Y-79200000D01*
X181655000Y-79200000D02*
X181655000Y-78700000D01*
X181655000Y-78700000D02*
X181635000Y-78700000D01*
%TO.C,J7*%
X155762000Y-115630000D02*
X155762000Y-110430000D01*
X143002000Y-115630000D02*
X155762000Y-115630000D01*
X140402000Y-110430000D02*
X155762000Y-110430000D01*
X143002000Y-115630000D02*
X143002000Y-113030000D01*
X143002000Y-113030000D02*
X140402000Y-113030000D01*
X140402000Y-113030000D02*
X140402000Y-110430000D01*
X141732000Y-115630000D02*
X140402000Y-115630000D01*
X140402000Y-115630000D02*
X140402000Y-114300000D01*
%TO.C,D2*%
X172342000Y-111370000D02*
X166642000Y-111370000D01*
X172342000Y-107070000D02*
X166642000Y-107070000D01*
X172342000Y-111370000D02*
X172342000Y-107070000D01*
%TO.C,J8*%
X168777000Y-120944000D02*
X168777000Y-115184000D01*
X170197000Y-120944000D02*
X168777000Y-120944000D01*
X170197000Y-120444000D02*
X170197000Y-120944000D01*
X174227000Y-120444000D02*
X170197000Y-120444000D01*
X174227000Y-120944000D02*
X174227000Y-120444000D01*
X175647000Y-120944000D02*
X174227000Y-120944000D01*
X175647000Y-115184000D02*
X175647000Y-120944000D01*
X168777000Y-113354000D02*
X168777000Y-113664000D01*
X175647000Y-113354000D02*
X168777000Y-113354000D01*
X175647000Y-113664000D02*
X175647000Y-113354000D01*
%TO.C,D1*%
X175602000Y-86766000D02*
X173902000Y-86766000D01*
X173902000Y-86766000D02*
X173902000Y-89916000D01*
X175602000Y-86766000D02*
X175602000Y-89916000D01*
%TO.C,Y2*%
X179058000Y-93084000D02*
X179058000Y-93384000D01*
X179058000Y-93384000D02*
X179858000Y-93384000D01*
X179858000Y-98784000D02*
X179058000Y-98784000D01*
X181258000Y-95384000D02*
X181258000Y-96784000D01*
X177658000Y-96784000D02*
X177658000Y-95384000D01*
X177658000Y-95384000D02*
X177418000Y-95384000D01*
%TO.C,JP1*%
X156956000Y-117918000D02*
X156956000Y-119318000D01*
X156256000Y-120018000D02*
X155656000Y-120018000D01*
X154956000Y-119318000D02*
X154956000Y-117918000D01*
X155656000Y-117218000D02*
X156256000Y-117218000D01*
X156256000Y-117218000D02*
G75*
G02*
X156956000Y-117918000I0J-700000D01*
G01*
X154956000Y-117918000D02*
G75*
G02*
X155656000Y-117218000I700000J0D01*
G01*
X155656000Y-120018000D02*
G75*
G02*
X154956000Y-119318000I0J700000D01*
G01*
X156956000Y-119318000D02*
G75*
G02*
X156256000Y-120018000I-700000J0D01*
G01*
%TO.C,D4*%
X146542000Y-89446000D02*
X146542000Y-85146000D01*
X144542000Y-89446000D02*
X146542000Y-89446000D01*
X144542000Y-85146000D02*
X144542000Y-89446000D01*
%TO.C,C11*%
X163598000Y-86328000D02*
X163598000Y-86828000D01*
X163348000Y-86578000D02*
X163848000Y-86578000D01*
X164088000Y-89333563D02*
X165152437Y-90398000D01*
X164088000Y-86942437D02*
X165152437Y-85878000D01*
X164088000Y-86942437D02*
X164088000Y-87078000D01*
X164088000Y-89333563D02*
X164088000Y-89198000D01*
X165152437Y-90398000D02*
X168608000Y-90398000D01*
X165152437Y-85878000D02*
X168608000Y-85878000D01*
X168608000Y-85878000D02*
X168608000Y-87078000D01*
X168608000Y-90398000D02*
X168608000Y-89198000D01*
%TO.C,C10*%
X152290000Y-86683748D02*
X152290000Y-87206252D01*
X153710000Y-86683748D02*
X153710000Y-87206252D01*
%TO.C,U2*%
X183027000Y-107123000D02*
X183027000Y-103673000D01*
X183027000Y-107123000D02*
X183027000Y-109073000D01*
X177907000Y-107123000D02*
X177907000Y-105173000D01*
X177907000Y-107123000D02*
X177907000Y-109073000D01*
%TO.C,J1*%
X167725000Y-113664000D02*
X167725000Y-113354000D01*
X167725000Y-113354000D02*
X157855000Y-113354000D01*
X157855000Y-113354000D02*
X157855000Y-113664000D01*
X167725000Y-115184000D02*
X167725000Y-120944000D01*
X167725000Y-120944000D02*
X166305000Y-120944000D01*
X166305000Y-120944000D02*
X166305000Y-120444000D01*
X166305000Y-120444000D02*
X159275000Y-120444000D01*
X159275000Y-120444000D02*
X159275000Y-120944000D01*
X159275000Y-120944000D02*
X157855000Y-120944000D01*
X157855000Y-120944000D02*
X157855000Y-115184000D01*
%TO.C,JP2*%
X184007000Y-100758000D02*
X184007000Y-102158000D01*
X183307000Y-102858000D02*
X182707000Y-102858000D01*
X182007000Y-102158000D02*
X182007000Y-100758000D01*
X182707000Y-100058000D02*
X183307000Y-100058000D01*
X183307000Y-100058000D02*
G75*
G02*
X184007000Y-100758000I0J-700000D01*
G01*
X182007000Y-100758000D02*
G75*
G02*
X182707000Y-100058000I700000J0D01*
G01*
X182707000Y-102858000D02*
G75*
G02*
X182007000Y-102158000I0J700000D01*
G01*
X184007000Y-102158000D02*
G75*
G02*
X183307000Y-102858000I-700000J0D01*
G01*
%TO.C,D9*%
D11*
X156152380Y-87458095D02*
X155152380Y-87458095D01*
X155152380Y-87220000D01*
X155200000Y-87077142D01*
X155295238Y-86981904D01*
X155390476Y-86934285D01*
X155580952Y-86886666D01*
X155723809Y-86886666D01*
X155914285Y-86934285D01*
X156009523Y-86981904D01*
X156104761Y-87077142D01*
X156152380Y-87220000D01*
X156152380Y-87458095D01*
X156152380Y-86410476D02*
X156152380Y-86220000D01*
X156104761Y-86124761D01*
X156057142Y-86077142D01*
X155914285Y-85981904D01*
X155723809Y-85934285D01*
X155342857Y-85934285D01*
X155247619Y-85981904D01*
X155200000Y-86029523D01*
X155152380Y-86124761D01*
X155152380Y-86315238D01*
X155200000Y-86410476D01*
X155247619Y-86458095D01*
X155342857Y-86505714D01*
X155580952Y-86505714D01*
X155676190Y-86458095D01*
X155723809Y-86410476D01*
X155771428Y-86315238D01*
X155771428Y-86124761D01*
X155723809Y-86029523D01*
X155676190Y-85981904D01*
X155580952Y-85934285D01*
%TO.C,C13*%
X138057142Y-102562857D02*
X138104761Y-102610476D01*
X138152380Y-102753333D01*
X138152380Y-102848571D01*
X138104761Y-102991428D01*
X138009523Y-103086666D01*
X137914285Y-103134285D01*
X137723809Y-103181904D01*
X137580952Y-103181904D01*
X137390476Y-103134285D01*
X137295238Y-103086666D01*
X137200000Y-102991428D01*
X137152380Y-102848571D01*
X137152380Y-102753333D01*
X137200000Y-102610476D01*
X137247619Y-102562857D01*
X138152380Y-101610476D02*
X138152380Y-102181904D01*
X138152380Y-101896190D02*
X137152380Y-101896190D01*
X137295238Y-101991428D01*
X137390476Y-102086666D01*
X137438095Y-102181904D01*
X137152380Y-101277142D02*
X137152380Y-100658095D01*
X137533333Y-100991428D01*
X137533333Y-100848571D01*
X137580952Y-100753333D01*
X137628571Y-100705714D01*
X137723809Y-100658095D01*
X137961904Y-100658095D01*
X138057142Y-100705714D01*
X138104761Y-100753333D01*
X138152380Y-100848571D01*
X138152380Y-101134285D01*
X138104761Y-101229523D01*
X138057142Y-101277142D01*
%TO.C,C3*%
X136657142Y-92486666D02*
X136704761Y-92534285D01*
X136752380Y-92677142D01*
X136752380Y-92772380D01*
X136704761Y-92915238D01*
X136609523Y-93010476D01*
X136514285Y-93058095D01*
X136323809Y-93105714D01*
X136180952Y-93105714D01*
X135990476Y-93058095D01*
X135895238Y-93010476D01*
X135800000Y-92915238D01*
X135752380Y-92772380D01*
X135752380Y-92677142D01*
X135800000Y-92534285D01*
X135847619Y-92486666D01*
X135752380Y-92153333D02*
X135752380Y-91534285D01*
X136133333Y-91867619D01*
X136133333Y-91724761D01*
X136180952Y-91629523D01*
X136228571Y-91581904D01*
X136323809Y-91534285D01*
X136561904Y-91534285D01*
X136657142Y-91581904D01*
X136704761Y-91629523D01*
X136752380Y-91724761D01*
X136752380Y-92010476D01*
X136704761Y-92105714D01*
X136657142Y-92153333D01*
%TO.C,U4*%
X132088095Y-106622380D02*
X132088095Y-107431904D01*
X132135714Y-107527142D01*
X132183333Y-107574761D01*
X132278571Y-107622380D01*
X132469047Y-107622380D01*
X132564285Y-107574761D01*
X132611904Y-107527142D01*
X132659523Y-107431904D01*
X132659523Y-106622380D01*
X133564285Y-106955714D02*
X133564285Y-107622380D01*
X133326190Y-106574761D02*
X133088095Y-107289047D01*
X133707142Y-107289047D01*
%TO.C,F1*%
X132654166Y-85568571D02*
X132320833Y-85568571D01*
X132320833Y-86092380D02*
X132320833Y-85092380D01*
X132797023Y-85092380D01*
X133701785Y-86092380D02*
X133130357Y-86092380D01*
X133416071Y-86092380D02*
X133416071Y-85092380D01*
X133320833Y-85235238D01*
X133225595Y-85330476D01*
X133130357Y-85378095D01*
%TO.C,D8*%
X136861904Y-96172380D02*
X136861904Y-95172380D01*
X137100000Y-95172380D01*
X137242857Y-95220000D01*
X137338095Y-95315238D01*
X137385714Y-95410476D01*
X137433333Y-95600952D01*
X137433333Y-95743809D01*
X137385714Y-95934285D01*
X137338095Y-96029523D01*
X137242857Y-96124761D01*
X137100000Y-96172380D01*
X136861904Y-96172380D01*
X138004761Y-95600952D02*
X137909523Y-95553333D01*
X137861904Y-95505714D01*
X137814285Y-95410476D01*
X137814285Y-95362857D01*
X137861904Y-95267619D01*
X137909523Y-95220000D01*
X138004761Y-95172380D01*
X138195238Y-95172380D01*
X138290476Y-95220000D01*
X138338095Y-95267619D01*
X138385714Y-95362857D01*
X138385714Y-95410476D01*
X138338095Y-95505714D01*
X138290476Y-95553333D01*
X138195238Y-95600952D01*
X138004761Y-95600952D01*
X137909523Y-95648571D01*
X137861904Y-95696190D01*
X137814285Y-95791428D01*
X137814285Y-95981904D01*
X137861904Y-96077142D01*
X137909523Y-96124761D01*
X138004761Y-96172380D01*
X138195238Y-96172380D01*
X138290476Y-96124761D01*
X138338095Y-96077142D01*
X138385714Y-95981904D01*
X138385714Y-95791428D01*
X138338095Y-95696190D01*
X138290476Y-95648571D01*
X138195238Y-95600952D01*
%TO.C,D7*%
X136861904Y-91972380D02*
X136861904Y-90972380D01*
X137100000Y-90972380D01*
X137242857Y-91020000D01*
X137338095Y-91115238D01*
X137385714Y-91210476D01*
X137433333Y-91400952D01*
X137433333Y-91543809D01*
X137385714Y-91734285D01*
X137338095Y-91829523D01*
X137242857Y-91924761D01*
X137100000Y-91972380D01*
X136861904Y-91972380D01*
X137766666Y-90972380D02*
X138433333Y-90972380D01*
X138004761Y-91972380D01*
%TO.C,U3*%
X170088095Y-104512380D02*
X170088095Y-105321904D01*
X170135714Y-105417142D01*
X170183333Y-105464761D01*
X170278571Y-105512380D01*
X170469047Y-105512380D01*
X170564285Y-105464761D01*
X170611904Y-105417142D01*
X170659523Y-105321904D01*
X170659523Y-104512380D01*
X171040476Y-104512380D02*
X171659523Y-104512380D01*
X171326190Y-104893333D01*
X171469047Y-104893333D01*
X171564285Y-104940952D01*
X171611904Y-104988571D01*
X171659523Y-105083809D01*
X171659523Y-105321904D01*
X171611904Y-105417142D01*
X171564285Y-105464761D01*
X171469047Y-105512380D01*
X171183333Y-105512380D01*
X171088095Y-105464761D01*
X171040476Y-105417142D01*
%TO.C,R8*%
X162833333Y-106972380D02*
X162500000Y-106496190D01*
X162261904Y-106972380D02*
X162261904Y-105972380D01*
X162642857Y-105972380D01*
X162738095Y-106020000D01*
X162785714Y-106067619D01*
X162833333Y-106162857D01*
X162833333Y-106305714D01*
X162785714Y-106400952D01*
X162738095Y-106448571D01*
X162642857Y-106496190D01*
X162261904Y-106496190D01*
X163404761Y-106400952D02*
X163309523Y-106353333D01*
X163261904Y-106305714D01*
X163214285Y-106210476D01*
X163214285Y-106162857D01*
X163261904Y-106067619D01*
X163309523Y-106020000D01*
X163404761Y-105972380D01*
X163595238Y-105972380D01*
X163690476Y-106020000D01*
X163738095Y-106067619D01*
X163785714Y-106162857D01*
X163785714Y-106210476D01*
X163738095Y-106305714D01*
X163690476Y-106353333D01*
X163595238Y-106400952D01*
X163404761Y-106400952D01*
X163309523Y-106448571D01*
X163261904Y-106496190D01*
X163214285Y-106591428D01*
X163214285Y-106781904D01*
X163261904Y-106877142D01*
X163309523Y-106924761D01*
X163404761Y-106972380D01*
X163595238Y-106972380D01*
X163690476Y-106924761D01*
X163738095Y-106877142D01*
X163785714Y-106781904D01*
X163785714Y-106591428D01*
X163738095Y-106496190D01*
X163690476Y-106448571D01*
X163595238Y-106400952D01*
%TO.C,R7*%
X157852380Y-86086666D02*
X157376190Y-86420000D01*
X157852380Y-86658095D02*
X156852380Y-86658095D01*
X156852380Y-86277142D01*
X156900000Y-86181904D01*
X156947619Y-86134285D01*
X157042857Y-86086666D01*
X157185714Y-86086666D01*
X157280952Y-86134285D01*
X157328571Y-86181904D01*
X157376190Y-86277142D01*
X157376190Y-86658095D01*
X156852380Y-85753333D02*
X156852380Y-85086666D01*
X157852380Y-85515238D01*
%TO.C,R6*%
X141556333Y-87954380D02*
X141223000Y-87478190D01*
X140984904Y-87954380D02*
X140984904Y-86954380D01*
X141365857Y-86954380D01*
X141461095Y-87002000D01*
X141508714Y-87049619D01*
X141556333Y-87144857D01*
X141556333Y-87287714D01*
X141508714Y-87382952D01*
X141461095Y-87430571D01*
X141365857Y-87478190D01*
X140984904Y-87478190D01*
X142413476Y-86954380D02*
X142223000Y-86954380D01*
X142127761Y-87002000D01*
X142080142Y-87049619D01*
X141984904Y-87192476D01*
X141937285Y-87382952D01*
X141937285Y-87763904D01*
X141984904Y-87859142D01*
X142032523Y-87906761D01*
X142127761Y-87954380D01*
X142318238Y-87954380D01*
X142413476Y-87906761D01*
X142461095Y-87859142D01*
X142508714Y-87763904D01*
X142508714Y-87525809D01*
X142461095Y-87430571D01*
X142413476Y-87382952D01*
X142318238Y-87335333D01*
X142127761Y-87335333D01*
X142032523Y-87382952D01*
X141984904Y-87430571D01*
X141937285Y-87525809D01*
%TO.C,R5*%
X143852380Y-91486666D02*
X143376190Y-91820000D01*
X143852380Y-92058095D02*
X142852380Y-92058095D01*
X142852380Y-91677142D01*
X142900000Y-91581904D01*
X142947619Y-91534285D01*
X143042857Y-91486666D01*
X143185714Y-91486666D01*
X143280952Y-91534285D01*
X143328571Y-91581904D01*
X143376190Y-91677142D01*
X143376190Y-92058095D01*
X142852380Y-90581904D02*
X142852380Y-91058095D01*
X143328571Y-91105714D01*
X143280952Y-91058095D01*
X143233333Y-90962857D01*
X143233333Y-90724761D01*
X143280952Y-90629523D01*
X143328571Y-90581904D01*
X143423809Y-90534285D01*
X143661904Y-90534285D01*
X143757142Y-90581904D01*
X143804761Y-90629523D01*
X143852380Y-90724761D01*
X143852380Y-90962857D01*
X143804761Y-91058095D01*
X143757142Y-91105714D01*
%TO.C,R4*%
X148852380Y-97486666D02*
X148376190Y-97820000D01*
X148852380Y-98058095D02*
X147852380Y-98058095D01*
X147852380Y-97677142D01*
X147900000Y-97581904D01*
X147947619Y-97534285D01*
X148042857Y-97486666D01*
X148185714Y-97486666D01*
X148280952Y-97534285D01*
X148328571Y-97581904D01*
X148376190Y-97677142D01*
X148376190Y-98058095D01*
X148185714Y-96629523D02*
X148852380Y-96629523D01*
X147804761Y-96867619D02*
X148519047Y-97105714D01*
X148519047Y-96486666D01*
%TO.C,R3*%
X163102380Y-88336666D02*
X162626190Y-88670000D01*
X163102380Y-88908095D02*
X162102380Y-88908095D01*
X162102380Y-88527142D01*
X162150000Y-88431904D01*
X162197619Y-88384285D01*
X162292857Y-88336666D01*
X162435714Y-88336666D01*
X162530952Y-88384285D01*
X162578571Y-88431904D01*
X162626190Y-88527142D01*
X162626190Y-88908095D01*
X162102380Y-88003333D02*
X162102380Y-87384285D01*
X162483333Y-87717619D01*
X162483333Y-87574761D01*
X162530952Y-87479523D01*
X162578571Y-87431904D01*
X162673809Y-87384285D01*
X162911904Y-87384285D01*
X163007142Y-87431904D01*
X163054761Y-87479523D01*
X163102380Y-87574761D01*
X163102380Y-87860476D01*
X163054761Y-87955714D01*
X163007142Y-88003333D01*
%TO.C,R2*%
X177852380Y-102286666D02*
X177376190Y-102620000D01*
X177852380Y-102858095D02*
X176852380Y-102858095D01*
X176852380Y-102477142D01*
X176900000Y-102381904D01*
X176947619Y-102334285D01*
X177042857Y-102286666D01*
X177185714Y-102286666D01*
X177280952Y-102334285D01*
X177328571Y-102381904D01*
X177376190Y-102477142D01*
X177376190Y-102858095D01*
X176947619Y-101905714D02*
X176900000Y-101858095D01*
X176852380Y-101762857D01*
X176852380Y-101524761D01*
X176900000Y-101429523D01*
X176947619Y-101381904D01*
X177042857Y-101334285D01*
X177138095Y-101334285D01*
X177280952Y-101381904D01*
X177852380Y-101953333D01*
X177852380Y-101334285D01*
%TO.C,C12*%
X177712142Y-85444357D02*
X177759761Y-85491976D01*
X177807380Y-85634833D01*
X177807380Y-85730071D01*
X177759761Y-85872928D01*
X177664523Y-85968166D01*
X177569285Y-86015785D01*
X177378809Y-86063404D01*
X177235952Y-86063404D01*
X177045476Y-86015785D01*
X176950238Y-85968166D01*
X176855000Y-85872928D01*
X176807380Y-85730071D01*
X176807380Y-85634833D01*
X176855000Y-85491976D01*
X176902619Y-85444357D01*
X177807380Y-84491976D02*
X177807380Y-85063404D01*
X177807380Y-84777690D02*
X176807380Y-84777690D01*
X176950238Y-84872928D01*
X177045476Y-84968166D01*
X177093095Y-85063404D01*
X176902619Y-84111023D02*
X176855000Y-84063404D01*
X176807380Y-83968166D01*
X176807380Y-83730071D01*
X176855000Y-83634833D01*
X176902619Y-83587214D01*
X176997857Y-83539595D01*
X177093095Y-83539595D01*
X177235952Y-83587214D01*
X177807380Y-84158642D01*
X177807380Y-83539595D01*
%TO.C,C9*%
X146757142Y-97486666D02*
X146804761Y-97534285D01*
X146852380Y-97677142D01*
X146852380Y-97772380D01*
X146804761Y-97915238D01*
X146709523Y-98010476D01*
X146614285Y-98058095D01*
X146423809Y-98105714D01*
X146280952Y-98105714D01*
X146090476Y-98058095D01*
X145995238Y-98010476D01*
X145900000Y-97915238D01*
X145852380Y-97772380D01*
X145852380Y-97677142D01*
X145900000Y-97534285D01*
X145947619Y-97486666D01*
X146852380Y-97010476D02*
X146852380Y-96820000D01*
X146804761Y-96724761D01*
X146757142Y-96677142D01*
X146614285Y-96581904D01*
X146423809Y-96534285D01*
X146042857Y-96534285D01*
X145947619Y-96581904D01*
X145900000Y-96629523D01*
X145852380Y-96724761D01*
X145852380Y-96915238D01*
X145900000Y-97010476D01*
X145947619Y-97058095D01*
X146042857Y-97105714D01*
X146280952Y-97105714D01*
X146376190Y-97058095D01*
X146423809Y-97010476D01*
X146471428Y-96915238D01*
X146471428Y-96724761D01*
X146423809Y-96629523D01*
X146376190Y-96581904D01*
X146280952Y-96534285D01*
%TO.C,C8*%
X182233333Y-99277142D02*
X182185714Y-99324761D01*
X182042857Y-99372380D01*
X181947619Y-99372380D01*
X181804761Y-99324761D01*
X181709523Y-99229523D01*
X181661904Y-99134285D01*
X181614285Y-98943809D01*
X181614285Y-98800952D01*
X181661904Y-98610476D01*
X181709523Y-98515238D01*
X181804761Y-98420000D01*
X181947619Y-98372380D01*
X182042857Y-98372380D01*
X182185714Y-98420000D01*
X182233333Y-98467619D01*
X182804761Y-98800952D02*
X182709523Y-98753333D01*
X182661904Y-98705714D01*
X182614285Y-98610476D01*
X182614285Y-98562857D01*
X182661904Y-98467619D01*
X182709523Y-98420000D01*
X182804761Y-98372380D01*
X182995238Y-98372380D01*
X183090476Y-98420000D01*
X183138095Y-98467619D01*
X183185714Y-98562857D01*
X183185714Y-98610476D01*
X183138095Y-98705714D01*
X183090476Y-98753333D01*
X182995238Y-98800952D01*
X182804761Y-98800952D01*
X182709523Y-98848571D01*
X182661904Y-98896190D01*
X182614285Y-98991428D01*
X182614285Y-99181904D01*
X182661904Y-99277142D01*
X182709523Y-99324761D01*
X182804761Y-99372380D01*
X182995238Y-99372380D01*
X183090476Y-99324761D01*
X183138095Y-99277142D01*
X183185714Y-99181904D01*
X183185714Y-98991428D01*
X183138095Y-98896190D01*
X183090476Y-98848571D01*
X182995238Y-98800952D01*
%TO.C,C7*%
X182633333Y-92277142D02*
X182585714Y-92324761D01*
X182442857Y-92372380D01*
X182347619Y-92372380D01*
X182204761Y-92324761D01*
X182109523Y-92229523D01*
X182061904Y-92134285D01*
X182014285Y-91943809D01*
X182014285Y-91800952D01*
X182061904Y-91610476D01*
X182109523Y-91515238D01*
X182204761Y-91420000D01*
X182347619Y-91372380D01*
X182442857Y-91372380D01*
X182585714Y-91420000D01*
X182633333Y-91467619D01*
X182966666Y-91372380D02*
X183633333Y-91372380D01*
X183204761Y-92372380D01*
%TO.C,C6*%
X157545833Y-88847142D02*
X157498214Y-88894761D01*
X157355357Y-88942380D01*
X157260119Y-88942380D01*
X157117261Y-88894761D01*
X157022023Y-88799523D01*
X156974404Y-88704285D01*
X156926785Y-88513809D01*
X156926785Y-88370952D01*
X156974404Y-88180476D01*
X157022023Y-88085238D01*
X157117261Y-87990000D01*
X157260119Y-87942380D01*
X157355357Y-87942380D01*
X157498214Y-87990000D01*
X157545833Y-88037619D01*
X158402976Y-87942380D02*
X158212500Y-87942380D01*
X158117261Y-87990000D01*
X158069642Y-88037619D01*
X157974404Y-88180476D01*
X157926785Y-88370952D01*
X157926785Y-88751904D01*
X157974404Y-88847142D01*
X158022023Y-88894761D01*
X158117261Y-88942380D01*
X158307738Y-88942380D01*
X158402976Y-88894761D01*
X158450595Y-88847142D01*
X158498214Y-88751904D01*
X158498214Y-88513809D01*
X158450595Y-88418571D01*
X158402976Y-88370952D01*
X158307738Y-88323333D01*
X158117261Y-88323333D01*
X158022023Y-88370952D01*
X157974404Y-88418571D01*
X157926785Y-88513809D01*
%TO.C,C5*%
X175719333Y-107008142D02*
X175671714Y-107055761D01*
X175528857Y-107103380D01*
X175433619Y-107103380D01*
X175290761Y-107055761D01*
X175195523Y-106960523D01*
X175147904Y-106865285D01*
X175100285Y-106674809D01*
X175100285Y-106531952D01*
X175147904Y-106341476D01*
X175195523Y-106246238D01*
X175290761Y-106151000D01*
X175433619Y-106103380D01*
X175528857Y-106103380D01*
X175671714Y-106151000D01*
X175719333Y-106198619D01*
X176624095Y-106103380D02*
X176147904Y-106103380D01*
X176100285Y-106579571D01*
X176147904Y-106531952D01*
X176243142Y-106484333D01*
X176481238Y-106484333D01*
X176576476Y-106531952D01*
X176624095Y-106579571D01*
X176671714Y-106674809D01*
X176671714Y-106912904D01*
X176624095Y-107008142D01*
X176576476Y-107055761D01*
X176481238Y-107103380D01*
X176243142Y-107103380D01*
X176147904Y-107055761D01*
X176100285Y-107008142D01*
%TO.C,C2*%
X161677142Y-98124166D02*
X161724761Y-98171785D01*
X161772380Y-98314642D01*
X161772380Y-98409880D01*
X161724761Y-98552738D01*
X161629523Y-98647976D01*
X161534285Y-98695595D01*
X161343809Y-98743214D01*
X161200952Y-98743214D01*
X161010476Y-98695595D01*
X160915238Y-98647976D01*
X160820000Y-98552738D01*
X160772380Y-98409880D01*
X160772380Y-98314642D01*
X160820000Y-98171785D01*
X160867619Y-98124166D01*
X160867619Y-97743214D02*
X160820000Y-97695595D01*
X160772380Y-97600357D01*
X160772380Y-97362261D01*
X160820000Y-97267023D01*
X160867619Y-97219404D01*
X160962857Y-97171785D01*
X161058095Y-97171785D01*
X161200952Y-97219404D01*
X161772380Y-97790833D01*
X161772380Y-97171785D01*
%TO.C,C1*%
X162620833Y-102097142D02*
X162573214Y-102144761D01*
X162430357Y-102192380D01*
X162335119Y-102192380D01*
X162192261Y-102144761D01*
X162097023Y-102049523D01*
X162049404Y-101954285D01*
X162001785Y-101763809D01*
X162001785Y-101620952D01*
X162049404Y-101430476D01*
X162097023Y-101335238D01*
X162192261Y-101240000D01*
X162335119Y-101192380D01*
X162430357Y-101192380D01*
X162573214Y-101240000D01*
X162620833Y-101287619D01*
X163573214Y-102192380D02*
X163001785Y-102192380D01*
X163287500Y-102192380D02*
X163287500Y-101192380D01*
X163192261Y-101335238D01*
X163097023Y-101430476D01*
X163001785Y-101478095D01*
%TO.C,D6*%
X148452380Y-91258095D02*
X147452380Y-91258095D01*
X147452380Y-91020000D01*
X147500000Y-90877142D01*
X147595238Y-90781904D01*
X147690476Y-90734285D01*
X147880952Y-90686666D01*
X148023809Y-90686666D01*
X148214285Y-90734285D01*
X148309523Y-90781904D01*
X148404761Y-90877142D01*
X148452380Y-91020000D01*
X148452380Y-91258095D01*
X147452380Y-89829523D02*
X147452380Y-90020000D01*
X147500000Y-90115238D01*
X147547619Y-90162857D01*
X147690476Y-90258095D01*
X147880952Y-90305714D01*
X148261904Y-90305714D01*
X148357142Y-90258095D01*
X148404761Y-90210476D01*
X148452380Y-90115238D01*
X148452380Y-89924761D01*
X148404761Y-89829523D01*
X148357142Y-89781904D01*
X148261904Y-89734285D01*
X148023809Y-89734285D01*
X147928571Y-89781904D01*
X147880952Y-89829523D01*
X147833333Y-89924761D01*
X147833333Y-90115238D01*
X147880952Y-90210476D01*
X147928571Y-90258095D01*
X148023809Y-90305714D01*
%TO.C,D5*%
X150852380Y-91058095D02*
X149852380Y-91058095D01*
X149852380Y-90820000D01*
X149900000Y-90677142D01*
X149995238Y-90581904D01*
X150090476Y-90534285D01*
X150280952Y-90486666D01*
X150423809Y-90486666D01*
X150614285Y-90534285D01*
X150709523Y-90581904D01*
X150804761Y-90677142D01*
X150852380Y-90820000D01*
X150852380Y-91058095D01*
X149852380Y-89581904D02*
X149852380Y-90058095D01*
X150328571Y-90105714D01*
X150280952Y-90058095D01*
X150233333Y-89962857D01*
X150233333Y-89724761D01*
X150280952Y-89629523D01*
X150328571Y-89581904D01*
X150423809Y-89534285D01*
X150661904Y-89534285D01*
X150757142Y-89581904D01*
X150804761Y-89629523D01*
X150852380Y-89724761D01*
X150852380Y-89962857D01*
X150804761Y-90058095D01*
X150757142Y-90105714D01*
%TO.C,U1*%
X160638095Y-91972380D02*
X160638095Y-92781904D01*
X160685714Y-92877142D01*
X160733333Y-92924761D01*
X160828571Y-92972380D01*
X161019047Y-92972380D01*
X161114285Y-92924761D01*
X161161904Y-92877142D01*
X161209523Y-92781904D01*
X161209523Y-91972380D01*
X162209523Y-92972380D02*
X161638095Y-92972380D01*
X161923809Y-92972380D02*
X161923809Y-91972380D01*
X161828571Y-92115238D01*
X161733333Y-92210476D01*
X161638095Y-92258095D01*
%TO.C,D3*%
X158461904Y-107572380D02*
X158461904Y-106572380D01*
X158700000Y-106572380D01*
X158842857Y-106620000D01*
X158938095Y-106715238D01*
X158985714Y-106810476D01*
X159033333Y-107000952D01*
X159033333Y-107143809D01*
X158985714Y-107334285D01*
X158938095Y-107429523D01*
X158842857Y-107524761D01*
X158700000Y-107572380D01*
X158461904Y-107572380D01*
X159366666Y-106572380D02*
X159985714Y-106572380D01*
X159652380Y-106953333D01*
X159795238Y-106953333D01*
X159890476Y-107000952D01*
X159938095Y-107048571D01*
X159985714Y-107143809D01*
X159985714Y-107381904D01*
X159938095Y-107477142D01*
X159890476Y-107524761D01*
X159795238Y-107572380D01*
X159509523Y-107572380D01*
X159414285Y-107524761D01*
X159366666Y-107477142D01*
%TO.C,J5*%
X131234380Y-113363333D02*
X131948666Y-113363333D01*
X132091523Y-113410952D01*
X132186761Y-113506190D01*
X132234380Y-113649047D01*
X132234380Y-113744285D01*
X131234380Y-112410952D02*
X131234380Y-112887142D01*
X131710571Y-112934761D01*
X131662952Y-112887142D01*
X131615333Y-112791904D01*
X131615333Y-112553809D01*
X131662952Y-112458571D01*
X131710571Y-112410952D01*
X131805809Y-112363333D01*
X132043904Y-112363333D01*
X132139142Y-112410952D01*
X132186761Y-112458571D01*
X132234380Y-112553809D01*
X132234380Y-112791904D01*
X132186761Y-112887142D01*
X132139142Y-112934761D01*
%TO.C,J2*%
X161464666Y-83780380D02*
X161464666Y-84494666D01*
X161417047Y-84637523D01*
X161321809Y-84732761D01*
X161178952Y-84780380D01*
X161083714Y-84780380D01*
X161893238Y-83875619D02*
X161940857Y-83828000D01*
X162036095Y-83780380D01*
X162274190Y-83780380D01*
X162369428Y-83828000D01*
X162417047Y-83875619D01*
X162464666Y-83970857D01*
X162464666Y-84066095D01*
X162417047Y-84208952D01*
X161845619Y-84780380D01*
X162464666Y-84780380D01*
%TO.C,J4*%
X137066666Y-82772380D02*
X137066666Y-83486666D01*
X137019047Y-83629523D01*
X136923809Y-83724761D01*
X136780952Y-83772380D01*
X136685714Y-83772380D01*
X137971428Y-83105714D02*
X137971428Y-83772380D01*
X137733333Y-82724761D02*
X137495238Y-83439047D01*
X138114285Y-83439047D01*
%TO.C,J3*%
X128694380Y-113363333D02*
X129408666Y-113363333D01*
X129551523Y-113410952D01*
X129646761Y-113506190D01*
X129694380Y-113649047D01*
X129694380Y-113744285D01*
X128694380Y-112982380D02*
X128694380Y-112363333D01*
X129075333Y-112696666D01*
X129075333Y-112553809D01*
X129122952Y-112458571D01*
X129170571Y-112410952D01*
X129265809Y-112363333D01*
X129503904Y-112363333D01*
X129599142Y-112410952D01*
X129646761Y-112458571D01*
X129694380Y-112553809D01*
X129694380Y-112839523D01*
X129646761Y-112934761D01*
X129599142Y-112982380D01*
%TO.C,J6*%
X162466666Y-79572380D02*
X162466666Y-80286666D01*
X162419047Y-80429523D01*
X162323809Y-80524761D01*
X162180952Y-80572380D01*
X162085714Y-80572380D01*
X163371428Y-79572380D02*
X163180952Y-79572380D01*
X163085714Y-79620000D01*
X163038095Y-79667619D01*
X162942857Y-79810476D01*
X162895238Y-80000952D01*
X162895238Y-80381904D01*
X162942857Y-80477142D01*
X162990476Y-80524761D01*
X163085714Y-80572380D01*
X163276190Y-80572380D01*
X163371428Y-80524761D01*
X163419047Y-80477142D01*
X163466666Y-80381904D01*
X163466666Y-80143809D01*
X163419047Y-80048571D01*
X163371428Y-80000952D01*
X163276190Y-79953333D01*
X163085714Y-79953333D01*
X162990476Y-80000952D01*
X162942857Y-80048571D01*
X162895238Y-80143809D01*
%TO.C,J7*%
X138854380Y-113363333D02*
X139568666Y-113363333D01*
X139711523Y-113410952D01*
X139806761Y-113506190D01*
X139854380Y-113649047D01*
X139854380Y-113744285D01*
X138854380Y-112982380D02*
X138854380Y-112315714D01*
X139854380Y-112744285D01*
%TO.C,D2*%
X172997904Y-111450380D02*
X172997904Y-110450380D01*
X173236000Y-110450380D01*
X173378857Y-110498000D01*
X173474095Y-110593238D01*
X173521714Y-110688476D01*
X173569333Y-110878952D01*
X173569333Y-111021809D01*
X173521714Y-111212285D01*
X173474095Y-111307523D01*
X173378857Y-111402761D01*
X173236000Y-111450380D01*
X172997904Y-111450380D01*
X173950285Y-110545619D02*
X173997904Y-110498000D01*
X174093142Y-110450380D01*
X174331238Y-110450380D01*
X174426476Y-110498000D01*
X174474095Y-110545619D01*
X174521714Y-110640857D01*
X174521714Y-110736095D01*
X174474095Y-110878952D01*
X173902666Y-111450380D01*
X174521714Y-111450380D01*
%TO.C,J8*%
X171878666Y-120610380D02*
X171878666Y-121324666D01*
X171831047Y-121467523D01*
X171735809Y-121562761D01*
X171592952Y-121610380D01*
X171497714Y-121610380D01*
X172497714Y-121038952D02*
X172402476Y-120991333D01*
X172354857Y-120943714D01*
X172307238Y-120848476D01*
X172307238Y-120800857D01*
X172354857Y-120705619D01*
X172402476Y-120658000D01*
X172497714Y-120610380D01*
X172688190Y-120610380D01*
X172783428Y-120658000D01*
X172831047Y-120705619D01*
X172878666Y-120800857D01*
X172878666Y-120848476D01*
X172831047Y-120943714D01*
X172783428Y-120991333D01*
X172688190Y-121038952D01*
X172497714Y-121038952D01*
X172402476Y-121086571D01*
X172354857Y-121134190D01*
X172307238Y-121229428D01*
X172307238Y-121419904D01*
X172354857Y-121515142D01*
X172402476Y-121562761D01*
X172497714Y-121610380D01*
X172688190Y-121610380D01*
X172783428Y-121562761D01*
X172831047Y-121515142D01*
X172878666Y-121419904D01*
X172878666Y-121229428D01*
X172831047Y-121134190D01*
X172783428Y-121086571D01*
X172688190Y-121038952D01*
%TO.C,D1*%
X175077380Y-92178095D02*
X174077380Y-92178095D01*
X174077380Y-91940000D01*
X174125000Y-91797142D01*
X174220238Y-91701904D01*
X174315476Y-91654285D01*
X174505952Y-91606666D01*
X174648809Y-91606666D01*
X174839285Y-91654285D01*
X174934523Y-91701904D01*
X175029761Y-91797142D01*
X175077380Y-91940000D01*
X175077380Y-92178095D01*
X175077380Y-90654285D02*
X175077380Y-91225714D01*
X175077380Y-90940000D02*
X174077380Y-90940000D01*
X174220238Y-91035238D01*
X174315476Y-91130476D01*
X174363095Y-91225714D01*
%TO.C,Y2*%
X182234190Y-96560190D02*
X182710380Y-96560190D01*
X181710380Y-96893523D02*
X182234190Y-96560190D01*
X181710380Y-96226857D01*
X181805619Y-95941142D02*
X181758000Y-95893523D01*
X181710380Y-95798285D01*
X181710380Y-95560190D01*
X181758000Y-95464952D01*
X181805619Y-95417333D01*
X181900857Y-95369714D01*
X181996095Y-95369714D01*
X182138952Y-95417333D01*
X182710380Y-95988761D01*
X182710380Y-95369714D01*
%TO.C,JP1*%
X156170380Y-116911333D02*
X156884666Y-116911333D01*
X157027523Y-116958952D01*
X157122761Y-117054190D01*
X157170380Y-117197047D01*
X157170380Y-117292285D01*
X157170380Y-116435142D02*
X156170380Y-116435142D01*
X156170380Y-116054190D01*
X156218000Y-115958952D01*
X156265619Y-115911333D01*
X156360857Y-115863714D01*
X156503714Y-115863714D01*
X156598952Y-115911333D01*
X156646571Y-115958952D01*
X156694190Y-116054190D01*
X156694190Y-116435142D01*
X157170380Y-114911333D02*
X157170380Y-115482761D01*
X157170380Y-115197047D02*
X156170380Y-115197047D01*
X156313238Y-115292285D01*
X156408476Y-115387523D01*
X156456095Y-115482761D01*
%TO.C,D4*%
X146052380Y-91258095D02*
X145052380Y-91258095D01*
X145052380Y-91020000D01*
X145100000Y-90877142D01*
X145195238Y-90781904D01*
X145290476Y-90734285D01*
X145480952Y-90686666D01*
X145623809Y-90686666D01*
X145814285Y-90734285D01*
X145909523Y-90781904D01*
X146004761Y-90877142D01*
X146052380Y-91020000D01*
X146052380Y-91258095D01*
X145385714Y-89829523D02*
X146052380Y-89829523D01*
X145004761Y-90067619D02*
X145719047Y-90305714D01*
X145719047Y-89686666D01*
%TO.C,C11*%
X165705142Y-85295142D02*
X165657523Y-85342761D01*
X165514666Y-85390380D01*
X165419428Y-85390380D01*
X165276571Y-85342761D01*
X165181333Y-85247523D01*
X165133714Y-85152285D01*
X165086095Y-84961809D01*
X165086095Y-84818952D01*
X165133714Y-84628476D01*
X165181333Y-84533238D01*
X165276571Y-84438000D01*
X165419428Y-84390380D01*
X165514666Y-84390380D01*
X165657523Y-84438000D01*
X165705142Y-84485619D01*
X166657523Y-85390380D02*
X166086095Y-85390380D01*
X166371809Y-85390380D02*
X166371809Y-84390380D01*
X166276571Y-84533238D01*
X166181333Y-84628476D01*
X166086095Y-84676095D01*
X167609904Y-85390380D02*
X167038476Y-85390380D01*
X167324190Y-85390380D02*
X167324190Y-84390380D01*
X167228952Y-84533238D01*
X167133714Y-84628476D01*
X167038476Y-84676095D01*
%TO.C,C10*%
X153357142Y-90762857D02*
X153404761Y-90810476D01*
X153452380Y-90953333D01*
X153452380Y-91048571D01*
X153404761Y-91191428D01*
X153309523Y-91286666D01*
X153214285Y-91334285D01*
X153023809Y-91381904D01*
X152880952Y-91381904D01*
X152690476Y-91334285D01*
X152595238Y-91286666D01*
X152500000Y-91191428D01*
X152452380Y-91048571D01*
X152452380Y-90953333D01*
X152500000Y-90810476D01*
X152547619Y-90762857D01*
X153452380Y-89810476D02*
X153452380Y-90381904D01*
X153452380Y-90096190D02*
X152452380Y-90096190D01*
X152595238Y-90191428D01*
X152690476Y-90286666D01*
X152738095Y-90381904D01*
X152452380Y-89191428D02*
X152452380Y-89096190D01*
X152500000Y-89000952D01*
X152547619Y-88953333D01*
X152642857Y-88905714D01*
X152833333Y-88858095D01*
X153071428Y-88858095D01*
X153261904Y-88905714D01*
X153357142Y-88953333D01*
X153404761Y-89000952D01*
X153452380Y-89096190D01*
X153452380Y-89191428D01*
X153404761Y-89286666D01*
X153357142Y-89334285D01*
X153261904Y-89381904D01*
X153071428Y-89429523D01*
X152833333Y-89429523D01*
X152642857Y-89381904D01*
X152547619Y-89334285D01*
X152500000Y-89286666D01*
X152452380Y-89191428D01*
%TO.C,H2*%
X180513151Y-114408436D02*
X180513151Y-113408436D01*
X180513151Y-113884627D02*
X181084579Y-113884627D01*
X181084579Y-114408436D02*
X181084579Y-113408436D01*
X181513151Y-113503675D02*
X181560770Y-113456056D01*
X181656008Y-113408436D01*
X181894103Y-113408436D01*
X181989341Y-113456056D01*
X182036960Y-113503675D01*
X182084579Y-113598913D01*
X182084579Y-113694151D01*
X182036960Y-113837008D01*
X181465532Y-114408436D01*
X182084579Y-114408436D01*
%TO.C,H1*%
X130048095Y-77151380D02*
X130048095Y-76151380D01*
X130048095Y-76627571D02*
X130619523Y-76627571D01*
X130619523Y-77151380D02*
X130619523Y-76151380D01*
X131619523Y-77151380D02*
X131048095Y-77151380D01*
X131333809Y-77151380D02*
X131333809Y-76151380D01*
X131238571Y-76294238D01*
X131143333Y-76389476D01*
X131048095Y-76437095D01*
%TO.C,U2*%
X183319380Y-107884904D02*
X184128904Y-107884904D01*
X184224142Y-107837285D01*
X184271761Y-107789666D01*
X184319380Y-107694428D01*
X184319380Y-107503952D01*
X184271761Y-107408714D01*
X184224142Y-107361095D01*
X184128904Y-107313476D01*
X183319380Y-107313476D01*
X183414619Y-106884904D02*
X183367000Y-106837285D01*
X183319380Y-106742047D01*
X183319380Y-106503952D01*
X183367000Y-106408714D01*
X183414619Y-106361095D01*
X183509857Y-106313476D01*
X183605095Y-106313476D01*
X183747952Y-106361095D01*
X184319380Y-106932523D01*
X184319380Y-106313476D01*
%TO.C,J1*%
X162861666Y-120737380D02*
X162861666Y-121451666D01*
X162814047Y-121594523D01*
X162718809Y-121689761D01*
X162575952Y-121737380D01*
X162480714Y-121737380D01*
X163861666Y-121737380D02*
X163290238Y-121737380D01*
X163575952Y-121737380D02*
X163575952Y-120737380D01*
X163480714Y-120880238D01*
X163385476Y-120975476D01*
X163290238Y-121023095D01*
%TO.C,JP2*%
X183348380Y-99385333D02*
X184062666Y-99385333D01*
X184205523Y-99432952D01*
X184300761Y-99528190D01*
X184348380Y-99671047D01*
X184348380Y-99766285D01*
X184348380Y-98909142D02*
X183348380Y-98909142D01*
X183348380Y-98528190D01*
X183396000Y-98432952D01*
X183443619Y-98385333D01*
X183538857Y-98337714D01*
X183681714Y-98337714D01*
X183776952Y-98385333D01*
X183824571Y-98432952D01*
X183872190Y-98528190D01*
X183872190Y-98909142D01*
X183443619Y-97956761D02*
X183396000Y-97909142D01*
X183348380Y-97813904D01*
X183348380Y-97575809D01*
X183396000Y-97480571D01*
X183443619Y-97432952D01*
X183538857Y-97385333D01*
X183634095Y-97385333D01*
X183776952Y-97432952D01*
X184348380Y-98004380D01*
X184348380Y-97385333D01*
%TD*%
M02*
