%TF.GenerationSoftware,KiCad,Pcbnew,(5.1.12-1-10_14)*%
%TF.CreationDate,2022-04-05T22:08:35+02:00*%
%TF.ProjectId,SmartDisplay,536d6172-7444-4697-9370-6c61792e6b69,rev?*%
%TF.SameCoordinates,Original*%
%TF.FileFunction,Soldermask,Top*%
%TF.FilePolarity,Negative*%
%FSLAX46Y46*%
G04 Gerber Fmt 4.6, Leading zero omitted, Abs format (unit mm)*
G04 Created by KiCad (PCBNEW (5.1.12-1-10_14)) date 2022-04-05 22:08:35*
%MOMM*%
%LPD*%
G01*
G04 APERTURE LIST*
%ADD10O,1.800000X1.800000*%
%ADD11C,1.300000*%
%ADD12O,1.800000X2.100000*%
%ADD13O,1.800000X2.050000*%
%ADD14O,1.600000X2.120000*%
%ADD15C,1.370000*%
%ADD16C,1.600000*%
%ADD17C,1.100000*%
%ADD18C,0.100000*%
%ADD19C,0.900000*%
%ADD20C,6.500000*%
G04 APERTURE END LIST*
%TO.C,D9*%
G36*
G01*
X158600000Y-86220000D02*
X157800000Y-86220000D01*
G75*
G02*
X157750000Y-86170000I0J50000D01*
G01*
X157750000Y-85270000D01*
G75*
G02*
X157800000Y-85220000I50000J0D01*
G01*
X158600000Y-85220000D01*
G75*
G02*
X158650000Y-85270000I0J-50000D01*
G01*
X158650000Y-86170000D01*
G75*
G02*
X158600000Y-86220000I-50000J0D01*
G01*
G37*
G36*
G01*
X159550000Y-88220000D02*
X158750000Y-88220000D01*
G75*
G02*
X158700000Y-88170000I0J50000D01*
G01*
X158700000Y-87270000D01*
G75*
G02*
X158750000Y-87220000I50000J0D01*
G01*
X159550000Y-87220000D01*
G75*
G02*
X159600000Y-87270000I0J-50000D01*
G01*
X159600000Y-88170000D01*
G75*
G02*
X159550000Y-88220000I-50000J0D01*
G01*
G37*
G36*
G01*
X157650000Y-88220000D02*
X156850000Y-88220000D01*
G75*
G02*
X156800000Y-88170000I0J50000D01*
G01*
X156800000Y-87270000D01*
G75*
G02*
X156850000Y-87220000I50000J0D01*
G01*
X157650000Y-87220000D01*
G75*
G02*
X157700000Y-87270000I0J-50000D01*
G01*
X157700000Y-88170000D01*
G75*
G02*
X157650000Y-88220000I-50000J0D01*
G01*
G37*
%TD*%
%TO.C,C13*%
G36*
G01*
X141984375Y-101270000D02*
X140815625Y-101270000D01*
G75*
G02*
X140550000Y-101004375I0J265625D01*
G01*
X140550000Y-98435625D01*
G75*
G02*
X140815625Y-98170000I265625J0D01*
G01*
X141984375Y-98170000D01*
G75*
G02*
X142250000Y-98435625I0J-265625D01*
G01*
X142250000Y-101004375D01*
G75*
G02*
X141984375Y-101270000I-265625J0D01*
G01*
G37*
G36*
G01*
X141984375Y-105670000D02*
X140815625Y-105670000D01*
G75*
G02*
X140550000Y-105404375I0J265625D01*
G01*
X140550000Y-102835625D01*
G75*
G02*
X140815625Y-102570000I265625J0D01*
G01*
X141984375Y-102570000D01*
G75*
G02*
X142250000Y-102835625I0J-265625D01*
G01*
X142250000Y-105404375D01*
G75*
G02*
X141984375Y-105670000I-265625J0D01*
G01*
G37*
%TD*%
%TO.C,C3*%
G36*
G01*
X140584375Y-91670000D02*
X139415625Y-91670000D01*
G75*
G02*
X139150000Y-91404375I0J265625D01*
G01*
X139150000Y-88835625D01*
G75*
G02*
X139415625Y-88570000I265625J0D01*
G01*
X140584375Y-88570000D01*
G75*
G02*
X140850000Y-88835625I0J-265625D01*
G01*
X140850000Y-91404375D01*
G75*
G02*
X140584375Y-91670000I-265625J0D01*
G01*
G37*
G36*
G01*
X140584375Y-96070000D02*
X139415625Y-96070000D01*
G75*
G02*
X139150000Y-95804375I0J265625D01*
G01*
X139150000Y-93235625D01*
G75*
G02*
X139415625Y-92970000I265625J0D01*
G01*
X140584375Y-92970000D01*
G75*
G02*
X140850000Y-93235625I0J-265625D01*
G01*
X140850000Y-95804375D01*
G75*
G02*
X140584375Y-96070000I-265625J0D01*
G01*
G37*
%TD*%
%TO.C,U4*%
G36*
G01*
X137050000Y-104220000D02*
X137050000Y-105720000D01*
G75*
G02*
X137000000Y-105770000I-50000J0D01*
G01*
X135000000Y-105770000D01*
G75*
G02*
X134950000Y-105720000I0J50000D01*
G01*
X134950000Y-104220000D01*
G75*
G02*
X135000000Y-104170000I50000J0D01*
G01*
X137000000Y-104170000D01*
G75*
G02*
X137050000Y-104220000I0J-50000D01*
G01*
G37*
G36*
G01*
X137050000Y-99620000D02*
X137050000Y-101120000D01*
G75*
G02*
X137000000Y-101170000I-50000J0D01*
G01*
X135000000Y-101170000D01*
G75*
G02*
X134950000Y-101120000I0J50000D01*
G01*
X134950000Y-99620000D01*
G75*
G02*
X135000000Y-99570000I50000J0D01*
G01*
X137000000Y-99570000D01*
G75*
G02*
X137050000Y-99620000I0J-50000D01*
G01*
G37*
G36*
G01*
X137050000Y-101920000D02*
X137050000Y-103420000D01*
G75*
G02*
X137000000Y-103470000I-50000J0D01*
G01*
X135000000Y-103470000D01*
G75*
G02*
X134950000Y-103420000I0J50000D01*
G01*
X134950000Y-101920000D01*
G75*
G02*
X135000000Y-101870000I50000J0D01*
G01*
X137000000Y-101870000D01*
G75*
G02*
X137050000Y-101920000I0J-50000D01*
G01*
G37*
G36*
G01*
X130750000Y-100770000D02*
X130750000Y-104570000D01*
G75*
G02*
X130700000Y-104620000I-50000J0D01*
G01*
X128700000Y-104620000D01*
G75*
G02*
X128650000Y-104570000I0J50000D01*
G01*
X128650000Y-100770000D01*
G75*
G02*
X128700000Y-100720000I50000J0D01*
G01*
X130700000Y-100720000D01*
G75*
G02*
X130750000Y-100770000I0J-50000D01*
G01*
G37*
%TD*%
%TO.C,F1*%
G36*
G01*
X133712500Y-89027457D02*
X133712500Y-86812543D01*
G75*
G02*
X133980043Y-86545000I267543J0D01*
G01*
X134969957Y-86545000D01*
G75*
G02*
X135237500Y-86812543I0J-267543D01*
G01*
X135237500Y-89027457D01*
G75*
G02*
X134969957Y-89295000I-267543J0D01*
G01*
X133980043Y-89295000D01*
G75*
G02*
X133712500Y-89027457I0J267543D01*
G01*
G37*
G36*
G01*
X130737500Y-89027457D02*
X130737500Y-86812543D01*
G75*
G02*
X131005043Y-86545000I267543J0D01*
G01*
X131994957Y-86545000D01*
G75*
G02*
X132262500Y-86812543I0J-267543D01*
G01*
X132262500Y-89027457D01*
G75*
G02*
X131994957Y-89295000I-267543J0D01*
G01*
X131005043Y-89295000D01*
G75*
G02*
X130737500Y-89027457I0J267543D01*
G01*
G37*
%TD*%
%TO.C,D8*%
G36*
G01*
X132000000Y-95020000D02*
X132000000Y-97320000D01*
G75*
G02*
X131950000Y-97370000I-50000J0D01*
G01*
X129450000Y-97370000D01*
G75*
G02*
X129400000Y-97320000I0J50000D01*
G01*
X129400000Y-95020000D01*
G75*
G02*
X129450000Y-94970000I50000J0D01*
G01*
X131950000Y-94970000D01*
G75*
G02*
X132000000Y-95020000I0J-50000D01*
G01*
G37*
G36*
G01*
X136300000Y-95020000D02*
X136300000Y-97320000D01*
G75*
G02*
X136250000Y-97370000I-50000J0D01*
G01*
X133750000Y-97370000D01*
G75*
G02*
X133700000Y-97320000I0J50000D01*
G01*
X133700000Y-95020000D01*
G75*
G02*
X133750000Y-94970000I50000J0D01*
G01*
X136250000Y-94970000D01*
G75*
G02*
X136300000Y-95020000I0J-50000D01*
G01*
G37*
%TD*%
%TO.C,D7*%
G36*
G01*
X132300000Y-90770000D02*
X132300000Y-92570000D01*
G75*
G02*
X132250000Y-92620000I-50000J0D01*
G01*
X129750000Y-92620000D01*
G75*
G02*
X129700000Y-92570000I0J50000D01*
G01*
X129700000Y-90770000D01*
G75*
G02*
X129750000Y-90720000I50000J0D01*
G01*
X132250000Y-90720000D01*
G75*
G02*
X132300000Y-90770000I0J-50000D01*
G01*
G37*
G36*
G01*
X136300000Y-90770000D02*
X136300000Y-92570000D01*
G75*
G02*
X136250000Y-92620000I-50000J0D01*
G01*
X133750000Y-92620000D01*
G75*
G02*
X133700000Y-92570000I0J50000D01*
G01*
X133700000Y-90770000D01*
G75*
G02*
X133750000Y-90720000I50000J0D01*
G01*
X136250000Y-90720000D01*
G75*
G02*
X136300000Y-90770000I0J-50000D01*
G01*
G37*
%TD*%
%TO.C,U3*%
G36*
G01*
X167275000Y-103245000D02*
X167275000Y-103595000D01*
G75*
G02*
X167100000Y-103770000I-175000J0D01*
G01*
X165300000Y-103770000D01*
G75*
G02*
X165125000Y-103595000I0J175000D01*
G01*
X165125000Y-103245000D01*
G75*
G02*
X165300000Y-103070000I175000J0D01*
G01*
X167100000Y-103070000D01*
G75*
G02*
X167275000Y-103245000I0J-175000D01*
G01*
G37*
G36*
G01*
X167275000Y-101975000D02*
X167275000Y-102325000D01*
G75*
G02*
X167100000Y-102500000I-175000J0D01*
G01*
X165300000Y-102500000D01*
G75*
G02*
X165125000Y-102325000I0J175000D01*
G01*
X165125000Y-101975000D01*
G75*
G02*
X165300000Y-101800000I175000J0D01*
G01*
X167100000Y-101800000D01*
G75*
G02*
X167275000Y-101975000I0J-175000D01*
G01*
G37*
G36*
G01*
X167275000Y-100705000D02*
X167275000Y-101055000D01*
G75*
G02*
X167100000Y-101230000I-175000J0D01*
G01*
X165300000Y-101230000D01*
G75*
G02*
X165125000Y-101055000I0J175000D01*
G01*
X165125000Y-100705000D01*
G75*
G02*
X165300000Y-100530000I175000J0D01*
G01*
X167100000Y-100530000D01*
G75*
G02*
X167275000Y-100705000I0J-175000D01*
G01*
G37*
G36*
G01*
X167275000Y-99435000D02*
X167275000Y-99785000D01*
G75*
G02*
X167100000Y-99960000I-175000J0D01*
G01*
X165300000Y-99960000D01*
G75*
G02*
X165125000Y-99785000I0J175000D01*
G01*
X165125000Y-99435000D01*
G75*
G02*
X165300000Y-99260000I175000J0D01*
G01*
X167100000Y-99260000D01*
G75*
G02*
X167275000Y-99435000I0J-175000D01*
G01*
G37*
G36*
G01*
X167275000Y-98165000D02*
X167275000Y-98515000D01*
G75*
G02*
X167100000Y-98690000I-175000J0D01*
G01*
X165300000Y-98690000D01*
G75*
G02*
X165125000Y-98515000I0J175000D01*
G01*
X165125000Y-98165000D01*
G75*
G02*
X165300000Y-97990000I175000J0D01*
G01*
X167100000Y-97990000D01*
G75*
G02*
X167275000Y-98165000I0J-175000D01*
G01*
G37*
G36*
G01*
X167275000Y-96895000D02*
X167275000Y-97245000D01*
G75*
G02*
X167100000Y-97420000I-175000J0D01*
G01*
X165300000Y-97420000D01*
G75*
G02*
X165125000Y-97245000I0J175000D01*
G01*
X165125000Y-96895000D01*
G75*
G02*
X165300000Y-96720000I175000J0D01*
G01*
X167100000Y-96720000D01*
G75*
G02*
X167275000Y-96895000I0J-175000D01*
G01*
G37*
G36*
G01*
X167275000Y-95625000D02*
X167275000Y-95975000D01*
G75*
G02*
X167100000Y-96150000I-175000J0D01*
G01*
X165300000Y-96150000D01*
G75*
G02*
X165125000Y-95975000I0J175000D01*
G01*
X165125000Y-95625000D01*
G75*
G02*
X165300000Y-95450000I175000J0D01*
G01*
X167100000Y-95450000D01*
G75*
G02*
X167275000Y-95625000I0J-175000D01*
G01*
G37*
G36*
G01*
X167275000Y-94355000D02*
X167275000Y-94705000D01*
G75*
G02*
X167100000Y-94880000I-175000J0D01*
G01*
X165300000Y-94880000D01*
G75*
G02*
X165125000Y-94705000I0J175000D01*
G01*
X165125000Y-94355000D01*
G75*
G02*
X165300000Y-94180000I175000J0D01*
G01*
X167100000Y-94180000D01*
G75*
G02*
X167275000Y-94355000I0J-175000D01*
G01*
G37*
G36*
G01*
X167275000Y-93085000D02*
X167275000Y-93435000D01*
G75*
G02*
X167100000Y-93610000I-175000J0D01*
G01*
X165300000Y-93610000D01*
G75*
G02*
X165125000Y-93435000I0J175000D01*
G01*
X165125000Y-93085000D01*
G75*
G02*
X165300000Y-92910000I175000J0D01*
G01*
X167100000Y-92910000D01*
G75*
G02*
X167275000Y-93085000I0J-175000D01*
G01*
G37*
G36*
G01*
X176575000Y-93085000D02*
X176575000Y-93435000D01*
G75*
G02*
X176400000Y-93610000I-175000J0D01*
G01*
X174600000Y-93610000D01*
G75*
G02*
X174425000Y-93435000I0J175000D01*
G01*
X174425000Y-93085000D01*
G75*
G02*
X174600000Y-92910000I175000J0D01*
G01*
X176400000Y-92910000D01*
G75*
G02*
X176575000Y-93085000I0J-175000D01*
G01*
G37*
G36*
G01*
X176575000Y-94355000D02*
X176575000Y-94705000D01*
G75*
G02*
X176400000Y-94880000I-175000J0D01*
G01*
X174600000Y-94880000D01*
G75*
G02*
X174425000Y-94705000I0J175000D01*
G01*
X174425000Y-94355000D01*
G75*
G02*
X174600000Y-94180000I175000J0D01*
G01*
X176400000Y-94180000D01*
G75*
G02*
X176575000Y-94355000I0J-175000D01*
G01*
G37*
G36*
G01*
X176575000Y-95625000D02*
X176575000Y-95975000D01*
G75*
G02*
X176400000Y-96150000I-175000J0D01*
G01*
X174600000Y-96150000D01*
G75*
G02*
X174425000Y-95975000I0J175000D01*
G01*
X174425000Y-95625000D01*
G75*
G02*
X174600000Y-95450000I175000J0D01*
G01*
X176400000Y-95450000D01*
G75*
G02*
X176575000Y-95625000I0J-175000D01*
G01*
G37*
G36*
G01*
X176575000Y-96895000D02*
X176575000Y-97245000D01*
G75*
G02*
X176400000Y-97420000I-175000J0D01*
G01*
X174600000Y-97420000D01*
G75*
G02*
X174425000Y-97245000I0J175000D01*
G01*
X174425000Y-96895000D01*
G75*
G02*
X174600000Y-96720000I175000J0D01*
G01*
X176400000Y-96720000D01*
G75*
G02*
X176575000Y-96895000I0J-175000D01*
G01*
G37*
G36*
G01*
X176575000Y-98165000D02*
X176575000Y-98515000D01*
G75*
G02*
X176400000Y-98690000I-175000J0D01*
G01*
X174600000Y-98690000D01*
G75*
G02*
X174425000Y-98515000I0J175000D01*
G01*
X174425000Y-98165000D01*
G75*
G02*
X174600000Y-97990000I175000J0D01*
G01*
X176400000Y-97990000D01*
G75*
G02*
X176575000Y-98165000I0J-175000D01*
G01*
G37*
G36*
G01*
X176575000Y-99435000D02*
X176575000Y-99785000D01*
G75*
G02*
X176400000Y-99960000I-175000J0D01*
G01*
X174600000Y-99960000D01*
G75*
G02*
X174425000Y-99785000I0J175000D01*
G01*
X174425000Y-99435000D01*
G75*
G02*
X174600000Y-99260000I175000J0D01*
G01*
X176400000Y-99260000D01*
G75*
G02*
X176575000Y-99435000I0J-175000D01*
G01*
G37*
G36*
G01*
X176575000Y-100705000D02*
X176575000Y-101055000D01*
G75*
G02*
X176400000Y-101230000I-175000J0D01*
G01*
X174600000Y-101230000D01*
G75*
G02*
X174425000Y-101055000I0J175000D01*
G01*
X174425000Y-100705000D01*
G75*
G02*
X174600000Y-100530000I175000J0D01*
G01*
X176400000Y-100530000D01*
G75*
G02*
X176575000Y-100705000I0J-175000D01*
G01*
G37*
G36*
G01*
X176575000Y-101975000D02*
X176575000Y-102325000D01*
G75*
G02*
X176400000Y-102500000I-175000J0D01*
G01*
X174600000Y-102500000D01*
G75*
G02*
X174425000Y-102325000I0J175000D01*
G01*
X174425000Y-101975000D01*
G75*
G02*
X174600000Y-101800000I175000J0D01*
G01*
X176400000Y-101800000D01*
G75*
G02*
X176575000Y-101975000I0J-175000D01*
G01*
G37*
G36*
G01*
X176575000Y-103245000D02*
X176575000Y-103595000D01*
G75*
G02*
X176400000Y-103770000I-175000J0D01*
G01*
X174600000Y-103770000D01*
G75*
G02*
X174425000Y-103595000I0J175000D01*
G01*
X174425000Y-103245000D01*
G75*
G02*
X174600000Y-103070000I175000J0D01*
G01*
X176400000Y-103070000D01*
G75*
G02*
X176575000Y-103245000I0J-175000D01*
G01*
G37*
%TD*%
%TO.C,R8*%
G36*
G01*
X163350000Y-108649168D02*
X163350000Y-107690832D01*
G75*
G02*
X163620832Y-107420000I270832J0D01*
G01*
X164379168Y-107420000D01*
G75*
G02*
X164650000Y-107690832I0J-270832D01*
G01*
X164650000Y-108649168D01*
G75*
G02*
X164379168Y-108920000I-270832J0D01*
G01*
X163620832Y-108920000D01*
G75*
G02*
X163350000Y-108649168I0J270832D01*
G01*
G37*
G36*
G01*
X161350000Y-108649168D02*
X161350000Y-107690832D01*
G75*
G02*
X161620832Y-107420000I270832J0D01*
G01*
X162379168Y-107420000D01*
G75*
G02*
X162650000Y-107690832I0J-270832D01*
G01*
X162650000Y-108649168D01*
G75*
G02*
X162379168Y-108920000I-270832J0D01*
G01*
X161620832Y-108920000D01*
G75*
G02*
X161350000Y-108649168I0J270832D01*
G01*
G37*
%TD*%
%TO.C,R7*%
G36*
G01*
X155020832Y-87270000D02*
X155979168Y-87270000D01*
G75*
G02*
X156250000Y-87540832I0J-270832D01*
G01*
X156250000Y-88299168D01*
G75*
G02*
X155979168Y-88570000I-270832J0D01*
G01*
X155020832Y-88570000D01*
G75*
G02*
X154750000Y-88299168I0J270832D01*
G01*
X154750000Y-87540832D01*
G75*
G02*
X155020832Y-87270000I270832J0D01*
G01*
G37*
G36*
G01*
X155020832Y-85270000D02*
X155979168Y-85270000D01*
G75*
G02*
X156250000Y-85540832I0J-270832D01*
G01*
X156250000Y-86299168D01*
G75*
G02*
X155979168Y-86570000I-270832J0D01*
G01*
X155020832Y-86570000D01*
G75*
G02*
X154750000Y-86299168I0J270832D01*
G01*
X154750000Y-85540832D01*
G75*
G02*
X155020832Y-85270000I270832J0D01*
G01*
G37*
%TD*%
%TO.C,R6*%
G36*
G01*
X141373000Y-85372832D02*
X141373000Y-86331168D01*
G75*
G02*
X141102168Y-86602000I-270832J0D01*
G01*
X140343832Y-86602000D01*
G75*
G02*
X140073000Y-86331168I0J270832D01*
G01*
X140073000Y-85372832D01*
G75*
G02*
X140343832Y-85102000I270832J0D01*
G01*
X141102168Y-85102000D01*
G75*
G02*
X141373000Y-85372832I0J-270832D01*
G01*
G37*
G36*
G01*
X143373000Y-85372832D02*
X143373000Y-86331168D01*
G75*
G02*
X143102168Y-86602000I-270832J0D01*
G01*
X142343832Y-86602000D01*
G75*
G02*
X142073000Y-86331168I0J270832D01*
G01*
X142073000Y-85372832D01*
G75*
G02*
X142343832Y-85102000I270832J0D01*
G01*
X143102168Y-85102000D01*
G75*
G02*
X143373000Y-85372832I0J-270832D01*
G01*
G37*
%TD*%
%TO.C,R5*%
G36*
G01*
X143665832Y-94575000D02*
X144624168Y-94575000D01*
G75*
G02*
X144895000Y-94845832I0J-270832D01*
G01*
X144895000Y-95604168D01*
G75*
G02*
X144624168Y-95875000I-270832J0D01*
G01*
X143665832Y-95875000D01*
G75*
G02*
X143395000Y-95604168I0J270832D01*
G01*
X143395000Y-94845832D01*
G75*
G02*
X143665832Y-94575000I270832J0D01*
G01*
G37*
G36*
G01*
X143665832Y-92575000D02*
X144624168Y-92575000D01*
G75*
G02*
X144895000Y-92845832I0J-270832D01*
G01*
X144895000Y-93604168D01*
G75*
G02*
X144624168Y-93875000I-270832J0D01*
G01*
X143665832Y-93875000D01*
G75*
G02*
X143395000Y-93604168I0J270832D01*
G01*
X143395000Y-92845832D01*
G75*
G02*
X143665832Y-92575000I270832J0D01*
G01*
G37*
%TD*%
%TO.C,R4*%
G36*
G01*
X148110832Y-94575000D02*
X149069168Y-94575000D01*
G75*
G02*
X149340000Y-94845832I0J-270832D01*
G01*
X149340000Y-95604168D01*
G75*
G02*
X149069168Y-95875000I-270832J0D01*
G01*
X148110832Y-95875000D01*
G75*
G02*
X147840000Y-95604168I0J270832D01*
G01*
X147840000Y-94845832D01*
G75*
G02*
X148110832Y-94575000I270832J0D01*
G01*
G37*
G36*
G01*
X148110832Y-92575000D02*
X149069168Y-92575000D01*
G75*
G02*
X149340000Y-92845832I0J-270832D01*
G01*
X149340000Y-93604168D01*
G75*
G02*
X149069168Y-93875000I-270832J0D01*
G01*
X148110832Y-93875000D01*
G75*
G02*
X147840000Y-93604168I0J270832D01*
G01*
X147840000Y-92845832D01*
G75*
G02*
X148110832Y-92575000I270832J0D01*
G01*
G37*
%TD*%
%TO.C,R3*%
G36*
G01*
X160520832Y-88520000D02*
X161479168Y-88520000D01*
G75*
G02*
X161750000Y-88790832I0J-270832D01*
G01*
X161750000Y-89549168D01*
G75*
G02*
X161479168Y-89820000I-270832J0D01*
G01*
X160520832Y-89820000D01*
G75*
G02*
X160250000Y-89549168I0J270832D01*
G01*
X160250000Y-88790832D01*
G75*
G02*
X160520832Y-88520000I270832J0D01*
G01*
G37*
G36*
G01*
X160520832Y-86520000D02*
X161479168Y-86520000D01*
G75*
G02*
X161750000Y-86790832I0J-270832D01*
G01*
X161750000Y-87549168D01*
G75*
G02*
X161479168Y-87820000I-270832J0D01*
G01*
X160520832Y-87820000D01*
G75*
G02*
X160250000Y-87549168I0J270832D01*
G01*
X160250000Y-86790832D01*
G75*
G02*
X160520832Y-86520000I270832J0D01*
G01*
G37*
%TD*%
%TO.C,R2*%
G36*
G01*
X179237000Y-101628832D02*
X179237000Y-102587168D01*
G75*
G02*
X178966168Y-102858000I-270832J0D01*
G01*
X178207832Y-102858000D01*
G75*
G02*
X177937000Y-102587168I0J270832D01*
G01*
X177937000Y-101628832D01*
G75*
G02*
X178207832Y-101358000I270832J0D01*
G01*
X178966168Y-101358000D01*
G75*
G02*
X179237000Y-101628832I0J-270832D01*
G01*
G37*
G36*
G01*
X181237000Y-101628832D02*
X181237000Y-102587168D01*
G75*
G02*
X180966168Y-102858000I-270832J0D01*
G01*
X180207832Y-102858000D01*
G75*
G02*
X179937000Y-102587168I0J270832D01*
G01*
X179937000Y-101628832D01*
G75*
G02*
X180207832Y-101358000I270832J0D01*
G01*
X180966168Y-101358000D01*
G75*
G02*
X181237000Y-101628832I0J-270832D01*
G01*
G37*
%TD*%
%TO.C,C12*%
G36*
G01*
X176896276Y-88682500D02*
X177903724Y-88682500D01*
G75*
G02*
X178175000Y-88953776I0J-271276D01*
G01*
X178175000Y-89686224D01*
G75*
G02*
X177903724Y-89957500I-271276J0D01*
G01*
X176896276Y-89957500D01*
G75*
G02*
X176625000Y-89686224I0J271276D01*
G01*
X176625000Y-88953776D01*
G75*
G02*
X176896276Y-88682500I271276J0D01*
G01*
G37*
G36*
G01*
X176896276Y-86607500D02*
X177903724Y-86607500D01*
G75*
G02*
X178175000Y-86878776I0J-271276D01*
G01*
X178175000Y-87611224D01*
G75*
G02*
X177903724Y-87882500I-271276J0D01*
G01*
X176896276Y-87882500D01*
G75*
G02*
X176625000Y-87611224I0J271276D01*
G01*
X176625000Y-86878776D01*
G75*
G02*
X176896276Y-86607500I271276J0D01*
G01*
G37*
%TD*%
%TO.C,C9*%
G36*
G01*
X146807724Y-93825000D02*
X145800276Y-93825000D01*
G75*
G02*
X145529000Y-93553724I0J271276D01*
G01*
X145529000Y-92821276D01*
G75*
G02*
X145800276Y-92550000I271276J0D01*
G01*
X146807724Y-92550000D01*
G75*
G02*
X147079000Y-92821276I0J-271276D01*
G01*
X147079000Y-93553724D01*
G75*
G02*
X146807724Y-93825000I-271276J0D01*
G01*
G37*
G36*
G01*
X146807724Y-95900000D02*
X145800276Y-95900000D01*
G75*
G02*
X145529000Y-95628724I0J271276D01*
G01*
X145529000Y-94896276D01*
G75*
G02*
X145800276Y-94625000I271276J0D01*
G01*
X146807724Y-94625000D01*
G75*
G02*
X147079000Y-94896276I0J-271276D01*
G01*
X147079000Y-95628724D01*
G75*
G02*
X146807724Y-95900000I-271276J0D01*
G01*
G37*
%TD*%
%TO.C,C8*%
G36*
G01*
X179187000Y-99572276D02*
X179187000Y-100579724D01*
G75*
G02*
X178915724Y-100851000I-271276J0D01*
G01*
X178183276Y-100851000D01*
G75*
G02*
X177912000Y-100579724I0J271276D01*
G01*
X177912000Y-99572276D01*
G75*
G02*
X178183276Y-99301000I271276J0D01*
G01*
X178915724Y-99301000D01*
G75*
G02*
X179187000Y-99572276I0J-271276D01*
G01*
G37*
G36*
G01*
X181262000Y-99572276D02*
X181262000Y-100579724D01*
G75*
G02*
X180990724Y-100851000I-271276J0D01*
G01*
X180258276Y-100851000D01*
G75*
G02*
X179987000Y-100579724I0J271276D01*
G01*
X179987000Y-99572276D01*
G75*
G02*
X180258276Y-99301000I271276J0D01*
G01*
X180990724Y-99301000D01*
G75*
G02*
X181262000Y-99572276I0J-271276D01*
G01*
G37*
%TD*%
%TO.C,C7*%
G36*
G01*
X179900000Y-92423724D02*
X179900000Y-91416276D01*
G75*
G02*
X180171276Y-91145000I271276J0D01*
G01*
X180903724Y-91145000D01*
G75*
G02*
X181175000Y-91416276I0J-271276D01*
G01*
X181175000Y-92423724D01*
G75*
G02*
X180903724Y-92695000I-271276J0D01*
G01*
X180171276Y-92695000D01*
G75*
G02*
X179900000Y-92423724I0J271276D01*
G01*
G37*
G36*
G01*
X177825000Y-92423724D02*
X177825000Y-91416276D01*
G75*
G02*
X178096276Y-91145000I271276J0D01*
G01*
X178828724Y-91145000D01*
G75*
G02*
X179100000Y-91416276I0J-271276D01*
G01*
X179100000Y-92423724D01*
G75*
G02*
X178828724Y-92695000I-271276J0D01*
G01*
X178096276Y-92695000D01*
G75*
G02*
X177825000Y-92423724I0J271276D01*
G01*
G37*
%TD*%
%TO.C,C6*%
G36*
G01*
X158112500Y-90673724D02*
X158112500Y-89666276D01*
G75*
G02*
X158383776Y-89395000I271276J0D01*
G01*
X159116224Y-89395000D01*
G75*
G02*
X159387500Y-89666276I0J-271276D01*
G01*
X159387500Y-90673724D01*
G75*
G02*
X159116224Y-90945000I-271276J0D01*
G01*
X158383776Y-90945000D01*
G75*
G02*
X158112500Y-90673724I0J271276D01*
G01*
G37*
G36*
G01*
X156037500Y-90673724D02*
X156037500Y-89666276D01*
G75*
G02*
X156308776Y-89395000I271276J0D01*
G01*
X157041224Y-89395000D01*
G75*
G02*
X157312500Y-89666276I0J-271276D01*
G01*
X157312500Y-90673724D01*
G75*
G02*
X157041224Y-90945000I-271276J0D01*
G01*
X156308776Y-90945000D01*
G75*
G02*
X156037500Y-90673724I0J271276D01*
G01*
G37*
%TD*%
%TO.C,C5*%
G36*
G01*
X176286000Y-108834724D02*
X176286000Y-107827276D01*
G75*
G02*
X176557276Y-107556000I271276J0D01*
G01*
X177289724Y-107556000D01*
G75*
G02*
X177561000Y-107827276I0J-271276D01*
G01*
X177561000Y-108834724D01*
G75*
G02*
X177289724Y-109106000I-271276J0D01*
G01*
X176557276Y-109106000D01*
G75*
G02*
X176286000Y-108834724I0J271276D01*
G01*
G37*
G36*
G01*
X174211000Y-108834724D02*
X174211000Y-107827276D01*
G75*
G02*
X174482276Y-107556000I271276J0D01*
G01*
X175214724Y-107556000D01*
G75*
G02*
X175486000Y-107827276I0J-271276D01*
G01*
X175486000Y-108834724D01*
G75*
G02*
X175214724Y-109106000I-271276J0D01*
G01*
X174482276Y-109106000D01*
G75*
G02*
X174211000Y-108834724I0J271276D01*
G01*
G37*
%TD*%
%TO.C,C2*%
G36*
G01*
X163503724Y-97557500D02*
X162496276Y-97557500D01*
G75*
G02*
X162225000Y-97286224I0J271276D01*
G01*
X162225000Y-96553776D01*
G75*
G02*
X162496276Y-96282500I271276J0D01*
G01*
X163503724Y-96282500D01*
G75*
G02*
X163775000Y-96553776I0J-271276D01*
G01*
X163775000Y-97286224D01*
G75*
G02*
X163503724Y-97557500I-271276J0D01*
G01*
G37*
G36*
G01*
X163503724Y-99632500D02*
X162496276Y-99632500D01*
G75*
G02*
X162225000Y-99361224I0J271276D01*
G01*
X162225000Y-98628776D01*
G75*
G02*
X162496276Y-98357500I271276J0D01*
G01*
X163503724Y-98357500D01*
G75*
G02*
X163775000Y-98628776I0J-271276D01*
G01*
X163775000Y-99361224D01*
G75*
G02*
X163503724Y-99632500I-271276J0D01*
G01*
G37*
%TD*%
%TO.C,C1*%
G36*
G01*
X163187500Y-103923724D02*
X163187500Y-102916276D01*
G75*
G02*
X163458776Y-102645000I271276J0D01*
G01*
X164191224Y-102645000D01*
G75*
G02*
X164462500Y-102916276I0J-271276D01*
G01*
X164462500Y-103923724D01*
G75*
G02*
X164191224Y-104195000I-271276J0D01*
G01*
X163458776Y-104195000D01*
G75*
G02*
X163187500Y-103923724I0J271276D01*
G01*
G37*
G36*
G01*
X161112500Y-103923724D02*
X161112500Y-102916276D01*
G75*
G02*
X161383776Y-102645000I271276J0D01*
G01*
X162116224Y-102645000D01*
G75*
G02*
X162387500Y-102916276I0J-271276D01*
G01*
X162387500Y-103923724D01*
G75*
G02*
X162116224Y-104195000I-271276J0D01*
G01*
X161383776Y-104195000D01*
G75*
G02*
X161112500Y-103923724I0J271276D01*
G01*
G37*
%TD*%
%TO.C,D6*%
G36*
G01*
X148600000Y-85620000D02*
X147400000Y-85620000D01*
G75*
G02*
X147350000Y-85570000I0J50000D01*
G01*
X147350000Y-84670000D01*
G75*
G02*
X147400000Y-84620000I50000J0D01*
G01*
X148600000Y-84620000D01*
G75*
G02*
X148650000Y-84670000I0J-50000D01*
G01*
X148650000Y-85570000D01*
G75*
G02*
X148600000Y-85620000I-50000J0D01*
G01*
G37*
G36*
G01*
X148600000Y-88920000D02*
X147400000Y-88920000D01*
G75*
G02*
X147350000Y-88870000I0J50000D01*
G01*
X147350000Y-87970000D01*
G75*
G02*
X147400000Y-87920000I50000J0D01*
G01*
X148600000Y-87920000D01*
G75*
G02*
X148650000Y-87970000I0J-50000D01*
G01*
X148650000Y-88870000D01*
G75*
G02*
X148600000Y-88920000I-50000J0D01*
G01*
G37*
%TD*%
%TO.C,D5*%
G36*
G01*
X151100000Y-85620000D02*
X149900000Y-85620000D01*
G75*
G02*
X149850000Y-85570000I0J50000D01*
G01*
X149850000Y-84670000D01*
G75*
G02*
X149900000Y-84620000I50000J0D01*
G01*
X151100000Y-84620000D01*
G75*
G02*
X151150000Y-84670000I0J-50000D01*
G01*
X151150000Y-85570000D01*
G75*
G02*
X151100000Y-85620000I-50000J0D01*
G01*
G37*
G36*
G01*
X151100000Y-88920000D02*
X149900000Y-88920000D01*
G75*
G02*
X149850000Y-88870000I0J50000D01*
G01*
X149850000Y-87970000D01*
G75*
G02*
X149900000Y-87920000I50000J0D01*
G01*
X151100000Y-87920000D01*
G75*
G02*
X151150000Y-87970000I0J-50000D01*
G01*
X151150000Y-88870000D01*
G75*
G02*
X151100000Y-88920000I-50000J0D01*
G01*
G37*
%TD*%
%TO.C,U1*%
G36*
G01*
X153975000Y-93720000D02*
X153425000Y-93720000D01*
G75*
G02*
X153375000Y-93670000I0J50000D01*
G01*
X153375000Y-92070000D01*
G75*
G02*
X153425000Y-92020000I50000J0D01*
G01*
X153975000Y-92020000D01*
G75*
G02*
X154025000Y-92070000I0J-50000D01*
G01*
X154025000Y-93670000D01*
G75*
G02*
X153975000Y-93720000I-50000J0D01*
G01*
G37*
G36*
G01*
X154775000Y-93720000D02*
X154225000Y-93720000D01*
G75*
G02*
X154175000Y-93670000I0J50000D01*
G01*
X154175000Y-92070000D01*
G75*
G02*
X154225000Y-92020000I50000J0D01*
G01*
X154775000Y-92020000D01*
G75*
G02*
X154825000Y-92070000I0J-50000D01*
G01*
X154825000Y-93670000D01*
G75*
G02*
X154775000Y-93720000I-50000J0D01*
G01*
G37*
G36*
G01*
X155575000Y-93720000D02*
X155025000Y-93720000D01*
G75*
G02*
X154975000Y-93670000I0J50000D01*
G01*
X154975000Y-92070000D01*
G75*
G02*
X155025000Y-92020000I50000J0D01*
G01*
X155575000Y-92020000D01*
G75*
G02*
X155625000Y-92070000I0J-50000D01*
G01*
X155625000Y-93670000D01*
G75*
G02*
X155575000Y-93720000I-50000J0D01*
G01*
G37*
G36*
G01*
X156375000Y-93720000D02*
X155825000Y-93720000D01*
G75*
G02*
X155775000Y-93670000I0J50000D01*
G01*
X155775000Y-92070000D01*
G75*
G02*
X155825000Y-92020000I50000J0D01*
G01*
X156375000Y-92020000D01*
G75*
G02*
X156425000Y-92070000I0J-50000D01*
G01*
X156425000Y-93670000D01*
G75*
G02*
X156375000Y-93720000I-50000J0D01*
G01*
G37*
G36*
G01*
X157175000Y-93720000D02*
X156625000Y-93720000D01*
G75*
G02*
X156575000Y-93670000I0J50000D01*
G01*
X156575000Y-92070000D01*
G75*
G02*
X156625000Y-92020000I50000J0D01*
G01*
X157175000Y-92020000D01*
G75*
G02*
X157225000Y-92070000I0J-50000D01*
G01*
X157225000Y-93670000D01*
G75*
G02*
X157175000Y-93720000I-50000J0D01*
G01*
G37*
G36*
G01*
X157975000Y-93720000D02*
X157425000Y-93720000D01*
G75*
G02*
X157375000Y-93670000I0J50000D01*
G01*
X157375000Y-92070000D01*
G75*
G02*
X157425000Y-92020000I50000J0D01*
G01*
X157975000Y-92020000D01*
G75*
G02*
X158025000Y-92070000I0J-50000D01*
G01*
X158025000Y-93670000D01*
G75*
G02*
X157975000Y-93720000I-50000J0D01*
G01*
G37*
G36*
G01*
X158775000Y-93720000D02*
X158225000Y-93720000D01*
G75*
G02*
X158175000Y-93670000I0J50000D01*
G01*
X158175000Y-92070000D01*
G75*
G02*
X158225000Y-92020000I50000J0D01*
G01*
X158775000Y-92020000D01*
G75*
G02*
X158825000Y-92070000I0J-50000D01*
G01*
X158825000Y-93670000D01*
G75*
G02*
X158775000Y-93720000I-50000J0D01*
G01*
G37*
G36*
G01*
X159575000Y-93720000D02*
X159025000Y-93720000D01*
G75*
G02*
X158975000Y-93670000I0J50000D01*
G01*
X158975000Y-92070000D01*
G75*
G02*
X159025000Y-92020000I50000J0D01*
G01*
X159575000Y-92020000D01*
G75*
G02*
X159625000Y-92070000I0J-50000D01*
G01*
X159625000Y-93670000D01*
G75*
G02*
X159575000Y-93720000I-50000J0D01*
G01*
G37*
G36*
G01*
X159900000Y-94595000D02*
X159900000Y-94045000D01*
G75*
G02*
X159950000Y-93995000I50000J0D01*
G01*
X161550000Y-93995000D01*
G75*
G02*
X161600000Y-94045000I0J-50000D01*
G01*
X161600000Y-94595000D01*
G75*
G02*
X161550000Y-94645000I-50000J0D01*
G01*
X159950000Y-94645000D01*
G75*
G02*
X159900000Y-94595000I0J50000D01*
G01*
G37*
G36*
G01*
X159900000Y-95395000D02*
X159900000Y-94845000D01*
G75*
G02*
X159950000Y-94795000I50000J0D01*
G01*
X161550000Y-94795000D01*
G75*
G02*
X161600000Y-94845000I0J-50000D01*
G01*
X161600000Y-95395000D01*
G75*
G02*
X161550000Y-95445000I-50000J0D01*
G01*
X159950000Y-95445000D01*
G75*
G02*
X159900000Y-95395000I0J50000D01*
G01*
G37*
G36*
G01*
X159900000Y-96195000D02*
X159900000Y-95645000D01*
G75*
G02*
X159950000Y-95595000I50000J0D01*
G01*
X161550000Y-95595000D01*
G75*
G02*
X161600000Y-95645000I0J-50000D01*
G01*
X161600000Y-96195000D01*
G75*
G02*
X161550000Y-96245000I-50000J0D01*
G01*
X159950000Y-96245000D01*
G75*
G02*
X159900000Y-96195000I0J50000D01*
G01*
G37*
G36*
G01*
X159900000Y-96995000D02*
X159900000Y-96445000D01*
G75*
G02*
X159950000Y-96395000I50000J0D01*
G01*
X161550000Y-96395000D01*
G75*
G02*
X161600000Y-96445000I0J-50000D01*
G01*
X161600000Y-96995000D01*
G75*
G02*
X161550000Y-97045000I-50000J0D01*
G01*
X159950000Y-97045000D01*
G75*
G02*
X159900000Y-96995000I0J50000D01*
G01*
G37*
G36*
G01*
X159900000Y-97795000D02*
X159900000Y-97245000D01*
G75*
G02*
X159950000Y-97195000I50000J0D01*
G01*
X161550000Y-97195000D01*
G75*
G02*
X161600000Y-97245000I0J-50000D01*
G01*
X161600000Y-97795000D01*
G75*
G02*
X161550000Y-97845000I-50000J0D01*
G01*
X159950000Y-97845000D01*
G75*
G02*
X159900000Y-97795000I0J50000D01*
G01*
G37*
G36*
G01*
X159900000Y-98595000D02*
X159900000Y-98045000D01*
G75*
G02*
X159950000Y-97995000I50000J0D01*
G01*
X161550000Y-97995000D01*
G75*
G02*
X161600000Y-98045000I0J-50000D01*
G01*
X161600000Y-98595000D01*
G75*
G02*
X161550000Y-98645000I-50000J0D01*
G01*
X159950000Y-98645000D01*
G75*
G02*
X159900000Y-98595000I0J50000D01*
G01*
G37*
G36*
G01*
X159900000Y-99395000D02*
X159900000Y-98845000D01*
G75*
G02*
X159950000Y-98795000I50000J0D01*
G01*
X161550000Y-98795000D01*
G75*
G02*
X161600000Y-98845000I0J-50000D01*
G01*
X161600000Y-99395000D01*
G75*
G02*
X161550000Y-99445000I-50000J0D01*
G01*
X159950000Y-99445000D01*
G75*
G02*
X159900000Y-99395000I0J50000D01*
G01*
G37*
G36*
G01*
X159900000Y-100195000D02*
X159900000Y-99645000D01*
G75*
G02*
X159950000Y-99595000I50000J0D01*
G01*
X161550000Y-99595000D01*
G75*
G02*
X161600000Y-99645000I0J-50000D01*
G01*
X161600000Y-100195000D01*
G75*
G02*
X161550000Y-100245000I-50000J0D01*
G01*
X159950000Y-100245000D01*
G75*
G02*
X159900000Y-100195000I0J50000D01*
G01*
G37*
G36*
G01*
X159575000Y-102220000D02*
X159025000Y-102220000D01*
G75*
G02*
X158975000Y-102170000I0J50000D01*
G01*
X158975000Y-100570000D01*
G75*
G02*
X159025000Y-100520000I50000J0D01*
G01*
X159575000Y-100520000D01*
G75*
G02*
X159625000Y-100570000I0J-50000D01*
G01*
X159625000Y-102170000D01*
G75*
G02*
X159575000Y-102220000I-50000J0D01*
G01*
G37*
G36*
G01*
X158775000Y-102220000D02*
X158225000Y-102220000D01*
G75*
G02*
X158175000Y-102170000I0J50000D01*
G01*
X158175000Y-100570000D01*
G75*
G02*
X158225000Y-100520000I50000J0D01*
G01*
X158775000Y-100520000D01*
G75*
G02*
X158825000Y-100570000I0J-50000D01*
G01*
X158825000Y-102170000D01*
G75*
G02*
X158775000Y-102220000I-50000J0D01*
G01*
G37*
G36*
G01*
X157975000Y-102220000D02*
X157425000Y-102220000D01*
G75*
G02*
X157375000Y-102170000I0J50000D01*
G01*
X157375000Y-100570000D01*
G75*
G02*
X157425000Y-100520000I50000J0D01*
G01*
X157975000Y-100520000D01*
G75*
G02*
X158025000Y-100570000I0J-50000D01*
G01*
X158025000Y-102170000D01*
G75*
G02*
X157975000Y-102220000I-50000J0D01*
G01*
G37*
G36*
G01*
X157175000Y-102220000D02*
X156625000Y-102220000D01*
G75*
G02*
X156575000Y-102170000I0J50000D01*
G01*
X156575000Y-100570000D01*
G75*
G02*
X156625000Y-100520000I50000J0D01*
G01*
X157175000Y-100520000D01*
G75*
G02*
X157225000Y-100570000I0J-50000D01*
G01*
X157225000Y-102170000D01*
G75*
G02*
X157175000Y-102220000I-50000J0D01*
G01*
G37*
G36*
G01*
X156375000Y-102220000D02*
X155825000Y-102220000D01*
G75*
G02*
X155775000Y-102170000I0J50000D01*
G01*
X155775000Y-100570000D01*
G75*
G02*
X155825000Y-100520000I50000J0D01*
G01*
X156375000Y-100520000D01*
G75*
G02*
X156425000Y-100570000I0J-50000D01*
G01*
X156425000Y-102170000D01*
G75*
G02*
X156375000Y-102220000I-50000J0D01*
G01*
G37*
G36*
G01*
X155575000Y-102220000D02*
X155025000Y-102220000D01*
G75*
G02*
X154975000Y-102170000I0J50000D01*
G01*
X154975000Y-100570000D01*
G75*
G02*
X155025000Y-100520000I50000J0D01*
G01*
X155575000Y-100520000D01*
G75*
G02*
X155625000Y-100570000I0J-50000D01*
G01*
X155625000Y-102170000D01*
G75*
G02*
X155575000Y-102220000I-50000J0D01*
G01*
G37*
G36*
G01*
X154775000Y-102220000D02*
X154225000Y-102220000D01*
G75*
G02*
X154175000Y-102170000I0J50000D01*
G01*
X154175000Y-100570000D01*
G75*
G02*
X154225000Y-100520000I50000J0D01*
G01*
X154775000Y-100520000D01*
G75*
G02*
X154825000Y-100570000I0J-50000D01*
G01*
X154825000Y-102170000D01*
G75*
G02*
X154775000Y-102220000I-50000J0D01*
G01*
G37*
G36*
G01*
X153975000Y-102220000D02*
X153425000Y-102220000D01*
G75*
G02*
X153375000Y-102170000I0J50000D01*
G01*
X153375000Y-100570000D01*
G75*
G02*
X153425000Y-100520000I50000J0D01*
G01*
X153975000Y-100520000D01*
G75*
G02*
X154025000Y-100570000I0J-50000D01*
G01*
X154025000Y-102170000D01*
G75*
G02*
X153975000Y-102220000I-50000J0D01*
G01*
G37*
G36*
G01*
X151400000Y-100195000D02*
X151400000Y-99645000D01*
G75*
G02*
X151450000Y-99595000I50000J0D01*
G01*
X153050000Y-99595000D01*
G75*
G02*
X153100000Y-99645000I0J-50000D01*
G01*
X153100000Y-100195000D01*
G75*
G02*
X153050000Y-100245000I-50000J0D01*
G01*
X151450000Y-100245000D01*
G75*
G02*
X151400000Y-100195000I0J50000D01*
G01*
G37*
G36*
G01*
X151400000Y-99395000D02*
X151400000Y-98845000D01*
G75*
G02*
X151450000Y-98795000I50000J0D01*
G01*
X153050000Y-98795000D01*
G75*
G02*
X153100000Y-98845000I0J-50000D01*
G01*
X153100000Y-99395000D01*
G75*
G02*
X153050000Y-99445000I-50000J0D01*
G01*
X151450000Y-99445000D01*
G75*
G02*
X151400000Y-99395000I0J50000D01*
G01*
G37*
G36*
G01*
X151400000Y-98595000D02*
X151400000Y-98045000D01*
G75*
G02*
X151450000Y-97995000I50000J0D01*
G01*
X153050000Y-97995000D01*
G75*
G02*
X153100000Y-98045000I0J-50000D01*
G01*
X153100000Y-98595000D01*
G75*
G02*
X153050000Y-98645000I-50000J0D01*
G01*
X151450000Y-98645000D01*
G75*
G02*
X151400000Y-98595000I0J50000D01*
G01*
G37*
G36*
G01*
X151400000Y-97795000D02*
X151400000Y-97245000D01*
G75*
G02*
X151450000Y-97195000I50000J0D01*
G01*
X153050000Y-97195000D01*
G75*
G02*
X153100000Y-97245000I0J-50000D01*
G01*
X153100000Y-97795000D01*
G75*
G02*
X153050000Y-97845000I-50000J0D01*
G01*
X151450000Y-97845000D01*
G75*
G02*
X151400000Y-97795000I0J50000D01*
G01*
G37*
G36*
G01*
X151400000Y-96995000D02*
X151400000Y-96445000D01*
G75*
G02*
X151450000Y-96395000I50000J0D01*
G01*
X153050000Y-96395000D01*
G75*
G02*
X153100000Y-96445000I0J-50000D01*
G01*
X153100000Y-96995000D01*
G75*
G02*
X153050000Y-97045000I-50000J0D01*
G01*
X151450000Y-97045000D01*
G75*
G02*
X151400000Y-96995000I0J50000D01*
G01*
G37*
G36*
G01*
X151400000Y-96195000D02*
X151400000Y-95645000D01*
G75*
G02*
X151450000Y-95595000I50000J0D01*
G01*
X153050000Y-95595000D01*
G75*
G02*
X153100000Y-95645000I0J-50000D01*
G01*
X153100000Y-96195000D01*
G75*
G02*
X153050000Y-96245000I-50000J0D01*
G01*
X151450000Y-96245000D01*
G75*
G02*
X151400000Y-96195000I0J50000D01*
G01*
G37*
G36*
G01*
X151400000Y-95395000D02*
X151400000Y-94845000D01*
G75*
G02*
X151450000Y-94795000I50000J0D01*
G01*
X153050000Y-94795000D01*
G75*
G02*
X153100000Y-94845000I0J-50000D01*
G01*
X153100000Y-95395000D01*
G75*
G02*
X153050000Y-95445000I-50000J0D01*
G01*
X151450000Y-95445000D01*
G75*
G02*
X151400000Y-95395000I0J50000D01*
G01*
G37*
G36*
G01*
X151400000Y-94595000D02*
X151400000Y-94045000D01*
G75*
G02*
X151450000Y-93995000I50000J0D01*
G01*
X153050000Y-93995000D01*
G75*
G02*
X153100000Y-94045000I0J-50000D01*
G01*
X153100000Y-94595000D01*
G75*
G02*
X153050000Y-94645000I-50000J0D01*
G01*
X151450000Y-94645000D01*
G75*
G02*
X151400000Y-94595000I0J50000D01*
G01*
G37*
%TD*%
%TO.C,D3*%
G36*
G01*
X158850000Y-110170000D02*
X159650000Y-110170000D01*
G75*
G02*
X159700000Y-110220000I0J-50000D01*
G01*
X159700000Y-111120000D01*
G75*
G02*
X159650000Y-111170000I-50000J0D01*
G01*
X158850000Y-111170000D01*
G75*
G02*
X158800000Y-111120000I0J50000D01*
G01*
X158800000Y-110220000D01*
G75*
G02*
X158850000Y-110170000I50000J0D01*
G01*
G37*
G36*
G01*
X157900000Y-108170000D02*
X158700000Y-108170000D01*
G75*
G02*
X158750000Y-108220000I0J-50000D01*
G01*
X158750000Y-109120000D01*
G75*
G02*
X158700000Y-109170000I-50000J0D01*
G01*
X157900000Y-109170000D01*
G75*
G02*
X157850000Y-109120000I0J50000D01*
G01*
X157850000Y-108220000D01*
G75*
G02*
X157900000Y-108170000I50000J0D01*
G01*
G37*
G36*
G01*
X159800000Y-108170000D02*
X160600000Y-108170000D01*
G75*
G02*
X160650000Y-108220000I0J-50000D01*
G01*
X160650000Y-109120000D01*
G75*
G02*
X160600000Y-109170000I-50000J0D01*
G01*
X159800000Y-109170000D01*
G75*
G02*
X159750000Y-109120000I0J50000D01*
G01*
X159750000Y-108220000D01*
G75*
G02*
X159800000Y-108170000I50000J0D01*
G01*
G37*
%TD*%
D10*
%TO.C,J5*%
X139192000Y-111760000D03*
X139192000Y-114300000D03*
X136652000Y-111760000D03*
X136652000Y-114300000D03*
X134112000Y-111760000D03*
G36*
G01*
X134962000Y-115200000D02*
X133262000Y-115200000D01*
G75*
G02*
X133212000Y-115150000I0J50000D01*
G01*
X133212000Y-113450000D01*
G75*
G02*
X133262000Y-113400000I50000J0D01*
G01*
X134962000Y-113400000D01*
G75*
G02*
X135012000Y-113450000I0J-50000D01*
G01*
X135012000Y-115150000D01*
G75*
G02*
X134962000Y-115200000I-50000J0D01*
G01*
G37*
%TD*%
D11*
%TO.C,J2*%
X153888000Y-82264000D03*
D12*
X157988000Y-80264000D03*
G36*
G01*
X154588000Y-81049295D02*
X154588000Y-79478705D01*
G75*
G02*
X154852705Y-79214000I264705J0D01*
G01*
X156123295Y-79214000D01*
G75*
G02*
X156388000Y-79478705I0J-264705D01*
G01*
X156388000Y-81049295D01*
G75*
G02*
X156123295Y-81314000I-264705J0D01*
G01*
X154852705Y-81314000D01*
G75*
G02*
X154588000Y-81049295I0J264705D01*
G01*
G37*
%TD*%
D11*
%TO.C,J4*%
X139744000Y-82264000D03*
D13*
X148844000Y-80264000D03*
X146344000Y-80264000D03*
X143844000Y-80264000D03*
G36*
G01*
X140444000Y-81024295D02*
X140444000Y-79503705D01*
G75*
G02*
X140708705Y-79239000I264705J0D01*
G01*
X141979295Y-79239000D01*
G75*
G02*
X142244000Y-79503705I0J-264705D01*
G01*
X142244000Y-81024295D01*
G75*
G02*
X141979295Y-81289000I-264705J0D01*
G01*
X140708705Y-81289000D01*
G75*
G02*
X140444000Y-81024295I0J264705D01*
G01*
G37*
%TD*%
D10*
%TO.C,J3*%
X131572000Y-111760000D03*
G36*
G01*
X132422000Y-115200000D02*
X130722000Y-115200000D01*
G75*
G02*
X130672000Y-115150000I0J50000D01*
G01*
X130672000Y-113450000D01*
G75*
G02*
X130722000Y-113400000I50000J0D01*
G01*
X132422000Y-113400000D01*
G75*
G02*
X132472000Y-113450000I0J-50000D01*
G01*
X132472000Y-115150000D01*
G75*
G02*
X132422000Y-115200000I-50000J0D01*
G01*
G37*
%TD*%
D14*
%TO.C,J6*%
X179640000Y-81280000D03*
X176640000Y-81280000D03*
X173640000Y-81280000D03*
X170640000Y-81280000D03*
G36*
G01*
X166840000Y-82073334D02*
X166840000Y-80486666D01*
G75*
G02*
X167106666Y-80220000I266666J0D01*
G01*
X168173334Y-80220000D01*
G75*
G02*
X168440000Y-80486666I0J-266666D01*
G01*
X168440000Y-82073334D01*
G75*
G02*
X168173334Y-82340000I-266666J0D01*
G01*
X167106666Y-82340000D01*
G75*
G02*
X166840000Y-82073334I0J266666D01*
G01*
G37*
D15*
X182640000Y-79320000D03*
X164640000Y-79320000D03*
%TD*%
D10*
%TO.C,J7*%
X154432000Y-111760000D03*
X154432000Y-114300000D03*
X151892000Y-111760000D03*
X151892000Y-114300000D03*
X149352000Y-111760000D03*
X149352000Y-114300000D03*
X146812000Y-111760000D03*
X146812000Y-114300000D03*
X144272000Y-111760000D03*
X144272000Y-114300000D03*
X141732000Y-111760000D03*
G36*
G01*
X142582000Y-115200000D02*
X140882000Y-115200000D01*
G75*
G02*
X140832000Y-115150000I0J50000D01*
G01*
X140832000Y-113450000D01*
G75*
G02*
X140882000Y-113400000I50000J0D01*
G01*
X142582000Y-113400000D01*
G75*
G02*
X142632000Y-113450000I0J-50000D01*
G01*
X142632000Y-115150000D01*
G75*
G02*
X142582000Y-115200000I-50000J0D01*
G01*
G37*
%TD*%
%TO.C,D2*%
G36*
G01*
X167942000Y-108070000D02*
X167942000Y-110370000D01*
G75*
G02*
X167892000Y-110420000I-50000J0D01*
G01*
X165392000Y-110420000D01*
G75*
G02*
X165342000Y-110370000I0J50000D01*
G01*
X165342000Y-108070000D01*
G75*
G02*
X165392000Y-108020000I50000J0D01*
G01*
X167892000Y-108020000D01*
G75*
G02*
X167942000Y-108070000I0J-50000D01*
G01*
G37*
G36*
G01*
X172242000Y-108070000D02*
X172242000Y-110370000D01*
G75*
G02*
X172192000Y-110420000I-50000J0D01*
G01*
X169692000Y-110420000D01*
G75*
G02*
X169642000Y-110370000I0J50000D01*
G01*
X169642000Y-108070000D01*
G75*
G02*
X169692000Y-108020000I50000J0D01*
G01*
X172192000Y-108020000D01*
G75*
G02*
X172242000Y-108070000I0J-50000D01*
G01*
G37*
%TD*%
D16*
%TO.C,J8*%
X172212000Y-115364000D03*
G36*
G01*
X173012000Y-117830666D02*
X173012000Y-118897334D01*
G75*
G02*
X172745334Y-119164000I-266666J0D01*
G01*
X171678666Y-119164000D01*
G75*
G02*
X171412000Y-118897334I0J266666D01*
G01*
X171412000Y-117830666D01*
G75*
G02*
X171678666Y-117564000I266666J0D01*
G01*
X172745334Y-117564000D01*
G75*
G02*
X173012000Y-117830666I0J-266666D01*
G01*
G37*
D17*
X169212000Y-114424000D03*
X175212000Y-114424000D03*
%TD*%
%TO.C,D1*%
G36*
G01*
X174252000Y-89366000D02*
X175252000Y-89366000D01*
G75*
G02*
X175302000Y-89416000I0J-50000D01*
G01*
X175302000Y-90416000D01*
G75*
G02*
X175252000Y-90466000I-50000J0D01*
G01*
X174252000Y-90466000D01*
G75*
G02*
X174202000Y-90416000I0J50000D01*
G01*
X174202000Y-89416000D01*
G75*
G02*
X174252000Y-89366000I50000J0D01*
G01*
G37*
G36*
G01*
X174252000Y-86866000D02*
X175252000Y-86866000D01*
G75*
G02*
X175302000Y-86916000I0J-50000D01*
G01*
X175302000Y-87916000D01*
G75*
G02*
X175252000Y-87966000I-50000J0D01*
G01*
X174252000Y-87966000D01*
G75*
G02*
X174202000Y-87916000I0J50000D01*
G01*
X174202000Y-86916000D01*
G75*
G02*
X174252000Y-86866000I50000J0D01*
G01*
G37*
%TD*%
%TO.C,Y2*%
G36*
G01*
X180058000Y-93234000D02*
X181158000Y-93234000D01*
G75*
G02*
X181208000Y-93284000I0J-50000D01*
G01*
X181208000Y-95184000D01*
G75*
G02*
X181158000Y-95234000I-50000J0D01*
G01*
X180058000Y-95234000D01*
G75*
G02*
X180008000Y-95184000I0J50000D01*
G01*
X180008000Y-93284000D01*
G75*
G02*
X180058000Y-93234000I50000J0D01*
G01*
G37*
G36*
G01*
X180058000Y-96934000D02*
X181158000Y-96934000D01*
G75*
G02*
X181208000Y-96984000I0J-50000D01*
G01*
X181208000Y-98884000D01*
G75*
G02*
X181158000Y-98934000I-50000J0D01*
G01*
X180058000Y-98934000D01*
G75*
G02*
X180008000Y-98884000I0J50000D01*
G01*
X180008000Y-96984000D01*
G75*
G02*
X180058000Y-96934000I50000J0D01*
G01*
G37*
G36*
G01*
X177758000Y-96934000D02*
X178858000Y-96934000D01*
G75*
G02*
X178908000Y-96984000I0J-50000D01*
G01*
X178908000Y-98884000D01*
G75*
G02*
X178858000Y-98934000I-50000J0D01*
G01*
X177758000Y-98934000D01*
G75*
G02*
X177708000Y-98884000I0J50000D01*
G01*
X177708000Y-96984000D01*
G75*
G02*
X177758000Y-96934000I50000J0D01*
G01*
G37*
G36*
G01*
X177758000Y-93234000D02*
X178858000Y-93234000D01*
G75*
G02*
X178908000Y-93284000I0J-50000D01*
G01*
X178908000Y-95184000D01*
G75*
G02*
X178858000Y-95234000I-50000J0D01*
G01*
X177758000Y-95234000D01*
G75*
G02*
X177708000Y-95184000I0J50000D01*
G01*
X177708000Y-93284000D01*
G75*
G02*
X177758000Y-93234000I50000J0D01*
G01*
G37*
%TD*%
D18*
%TO.C,JP1*%
G36*
X156755398Y-119274111D02*
G01*
X156755398Y-119292534D01*
X156755157Y-119297435D01*
X156750347Y-119346266D01*
X156749627Y-119351119D01*
X156740055Y-119399244D01*
X156738863Y-119404005D01*
X156724619Y-119450960D01*
X156722966Y-119455579D01*
X156704189Y-119500912D01*
X156702091Y-119505349D01*
X156678960Y-119548622D01*
X156676438Y-119552829D01*
X156649178Y-119593628D01*
X156646254Y-119597570D01*
X156615126Y-119635499D01*
X156611831Y-119639134D01*
X156577134Y-119673831D01*
X156573499Y-119677126D01*
X156535570Y-119708254D01*
X156531628Y-119711178D01*
X156490829Y-119738438D01*
X156486622Y-119740960D01*
X156443349Y-119764091D01*
X156438912Y-119766189D01*
X156393579Y-119784966D01*
X156388960Y-119786619D01*
X156342005Y-119800863D01*
X156337244Y-119802055D01*
X156289119Y-119811627D01*
X156284266Y-119812347D01*
X156235435Y-119817157D01*
X156230534Y-119817398D01*
X156212111Y-119817398D01*
X156206000Y-119818000D01*
X155706000Y-119818000D01*
X155699889Y-119817398D01*
X155681466Y-119817398D01*
X155676565Y-119817157D01*
X155627734Y-119812347D01*
X155622881Y-119811627D01*
X155574756Y-119802055D01*
X155569995Y-119800863D01*
X155523040Y-119786619D01*
X155518421Y-119784966D01*
X155473088Y-119766189D01*
X155468651Y-119764091D01*
X155425378Y-119740960D01*
X155421171Y-119738438D01*
X155380372Y-119711178D01*
X155376430Y-119708254D01*
X155338501Y-119677126D01*
X155334866Y-119673831D01*
X155300169Y-119639134D01*
X155296874Y-119635499D01*
X155265746Y-119597570D01*
X155262822Y-119593628D01*
X155235562Y-119552829D01*
X155233040Y-119548622D01*
X155209909Y-119505349D01*
X155207811Y-119500912D01*
X155189034Y-119455579D01*
X155187381Y-119450960D01*
X155173137Y-119404005D01*
X155171945Y-119399244D01*
X155162373Y-119351119D01*
X155161653Y-119346266D01*
X155156843Y-119297435D01*
X155156602Y-119292534D01*
X155156602Y-119274111D01*
X155156000Y-119268000D01*
X155156000Y-118768000D01*
X155156961Y-118758245D01*
X155159806Y-118748866D01*
X155164427Y-118740221D01*
X155170645Y-118732645D01*
X155178221Y-118726427D01*
X155186866Y-118721806D01*
X155196245Y-118718961D01*
X155206000Y-118718000D01*
X156706000Y-118718000D01*
X156715755Y-118718961D01*
X156725134Y-118721806D01*
X156733779Y-118726427D01*
X156741355Y-118732645D01*
X156747573Y-118740221D01*
X156752194Y-118748866D01*
X156755039Y-118758245D01*
X156756000Y-118768000D01*
X156756000Y-119268000D01*
X156755398Y-119274111D01*
G37*
G36*
X156755039Y-118477755D02*
G01*
X156752194Y-118487134D01*
X156747573Y-118495779D01*
X156741355Y-118503355D01*
X156733779Y-118509573D01*
X156725134Y-118514194D01*
X156715755Y-118517039D01*
X156706000Y-118518000D01*
X155206000Y-118518000D01*
X155196245Y-118517039D01*
X155186866Y-118514194D01*
X155178221Y-118509573D01*
X155170645Y-118503355D01*
X155164427Y-118495779D01*
X155159806Y-118487134D01*
X155156961Y-118477755D01*
X155156000Y-118468000D01*
X155156000Y-117968000D01*
X155156602Y-117961889D01*
X155156602Y-117943466D01*
X155156843Y-117938565D01*
X155161653Y-117889734D01*
X155162373Y-117884881D01*
X155171945Y-117836756D01*
X155173137Y-117831995D01*
X155187381Y-117785040D01*
X155189034Y-117780421D01*
X155207811Y-117735088D01*
X155209909Y-117730651D01*
X155233040Y-117687378D01*
X155235562Y-117683171D01*
X155262822Y-117642372D01*
X155265746Y-117638430D01*
X155296874Y-117600501D01*
X155300169Y-117596866D01*
X155334866Y-117562169D01*
X155338501Y-117558874D01*
X155376430Y-117527746D01*
X155380372Y-117524822D01*
X155421171Y-117497562D01*
X155425378Y-117495040D01*
X155468651Y-117471909D01*
X155473088Y-117469811D01*
X155518421Y-117451034D01*
X155523040Y-117449381D01*
X155569995Y-117435137D01*
X155574756Y-117433945D01*
X155622881Y-117424373D01*
X155627734Y-117423653D01*
X155676565Y-117418843D01*
X155681466Y-117418602D01*
X155699889Y-117418602D01*
X155706000Y-117418000D01*
X156206000Y-117418000D01*
X156212111Y-117418602D01*
X156230534Y-117418602D01*
X156235435Y-117418843D01*
X156284266Y-117423653D01*
X156289119Y-117424373D01*
X156337244Y-117433945D01*
X156342005Y-117435137D01*
X156388960Y-117449381D01*
X156393579Y-117451034D01*
X156438912Y-117469811D01*
X156443349Y-117471909D01*
X156486622Y-117495040D01*
X156490829Y-117497562D01*
X156531628Y-117524822D01*
X156535570Y-117527746D01*
X156573499Y-117558874D01*
X156577134Y-117562169D01*
X156611831Y-117596866D01*
X156615126Y-117600501D01*
X156646254Y-117638430D01*
X156649178Y-117642372D01*
X156676438Y-117683171D01*
X156678960Y-117687378D01*
X156702091Y-117730651D01*
X156704189Y-117735088D01*
X156722966Y-117780421D01*
X156724619Y-117785040D01*
X156738863Y-117831995D01*
X156740055Y-117836756D01*
X156749627Y-117884881D01*
X156750347Y-117889734D01*
X156755157Y-117938565D01*
X156755398Y-117943466D01*
X156755398Y-117961889D01*
X156756000Y-117968000D01*
X156756000Y-118468000D01*
X156755039Y-118477755D01*
G37*
%TD*%
%TO.C,D4*%
G36*
G01*
X146392000Y-85846000D02*
X144692000Y-85846000D01*
G75*
G02*
X144642000Y-85796000I0J50000D01*
G01*
X144642000Y-84496000D01*
G75*
G02*
X144692000Y-84446000I50000J0D01*
G01*
X146392000Y-84446000D01*
G75*
G02*
X146442000Y-84496000I0J-50000D01*
G01*
X146442000Y-85796000D01*
G75*
G02*
X146392000Y-85846000I-50000J0D01*
G01*
G37*
G36*
G01*
X146392000Y-89346000D02*
X144692000Y-89346000D01*
G75*
G02*
X144642000Y-89296000I0J50000D01*
G01*
X144642000Y-87996000D01*
G75*
G02*
X144692000Y-87946000I50000J0D01*
G01*
X146392000Y-87946000D01*
G75*
G02*
X146442000Y-87996000I0J-50000D01*
G01*
X146442000Y-89296000D01*
G75*
G02*
X146392000Y-89346000I-50000J0D01*
G01*
G37*
%TD*%
%TO.C,C11*%
G36*
G01*
X166798000Y-88722375D02*
X166798000Y-87553625D01*
G75*
G02*
X167063625Y-87288000I265625J0D01*
G01*
X169232375Y-87288000D01*
G75*
G02*
X169498000Y-87553625I0J-265625D01*
G01*
X169498000Y-88722375D01*
G75*
G02*
X169232375Y-88988000I-265625J0D01*
G01*
X167063625Y-88988000D01*
G75*
G02*
X166798000Y-88722375I0J265625D01*
G01*
G37*
G36*
G01*
X163198000Y-88722375D02*
X163198000Y-87553625D01*
G75*
G02*
X163463625Y-87288000I265625J0D01*
G01*
X165632375Y-87288000D01*
G75*
G02*
X165898000Y-87553625I0J-265625D01*
G01*
X165898000Y-88722375D01*
G75*
G02*
X165632375Y-88988000I-265625J0D01*
G01*
X163463625Y-88988000D01*
G75*
G02*
X163198000Y-88722375I0J265625D01*
G01*
G37*
%TD*%
%TO.C,C10*%
G36*
G01*
X152521738Y-87345000D02*
X153478262Y-87345000D01*
G75*
G02*
X153750000Y-87616738I0J-271738D01*
G01*
X153750000Y-88323262D01*
G75*
G02*
X153478262Y-88595000I-271738J0D01*
G01*
X152521738Y-88595000D01*
G75*
G02*
X152250000Y-88323262I0J271738D01*
G01*
X152250000Y-87616738D01*
G75*
G02*
X152521738Y-87345000I271738J0D01*
G01*
G37*
G36*
G01*
X152521738Y-85295000D02*
X153478262Y-85295000D01*
G75*
G02*
X153750000Y-85566738I0J-271738D01*
G01*
X153750000Y-86273262D01*
G75*
G02*
X153478262Y-86545000I-271738J0D01*
G01*
X152521738Y-86545000D01*
G75*
G02*
X152250000Y-86273262I0J271738D01*
G01*
X152250000Y-85566738D01*
G75*
G02*
X152521738Y-85295000I271738J0D01*
G01*
G37*
%TD*%
D19*
%TO.C,H2*%
X182972112Y-116459000D03*
X181275056Y-115756056D03*
X179578000Y-116459000D03*
X178875056Y-118156056D03*
X179578000Y-119853112D03*
X181275056Y-120556056D03*
X182972112Y-119853112D03*
X183675056Y-118156056D03*
D20*
X181275056Y-118156056D03*
%TD*%
D19*
%TO.C,H1*%
X132507056Y-79201944D03*
X130810000Y-78499000D03*
X129112944Y-79201944D03*
X128410000Y-80899000D03*
X129112944Y-82596056D03*
X130810000Y-83299000D03*
X132507056Y-82596056D03*
X133210000Y-80899000D03*
D20*
X130810000Y-80899000D03*
%TD*%
%TO.C,U2*%
G36*
G01*
X182197000Y-108573000D02*
X182547000Y-108573000D01*
G75*
G02*
X182722000Y-108748000I0J-175000D01*
G01*
X182722000Y-110448000D01*
G75*
G02*
X182547000Y-110623000I-175000J0D01*
G01*
X182197000Y-110623000D01*
G75*
G02*
X182022000Y-110448000I0J175000D01*
G01*
X182022000Y-108748000D01*
G75*
G02*
X182197000Y-108573000I175000J0D01*
G01*
G37*
G36*
G01*
X180927000Y-108573000D02*
X181277000Y-108573000D01*
G75*
G02*
X181452000Y-108748000I0J-175000D01*
G01*
X181452000Y-110448000D01*
G75*
G02*
X181277000Y-110623000I-175000J0D01*
G01*
X180927000Y-110623000D01*
G75*
G02*
X180752000Y-110448000I0J175000D01*
G01*
X180752000Y-108748000D01*
G75*
G02*
X180927000Y-108573000I175000J0D01*
G01*
G37*
G36*
G01*
X179657000Y-108573000D02*
X180007000Y-108573000D01*
G75*
G02*
X180182000Y-108748000I0J-175000D01*
G01*
X180182000Y-110448000D01*
G75*
G02*
X180007000Y-110623000I-175000J0D01*
G01*
X179657000Y-110623000D01*
G75*
G02*
X179482000Y-110448000I0J175000D01*
G01*
X179482000Y-108748000D01*
G75*
G02*
X179657000Y-108573000I175000J0D01*
G01*
G37*
G36*
G01*
X178387000Y-108573000D02*
X178737000Y-108573000D01*
G75*
G02*
X178912000Y-108748000I0J-175000D01*
G01*
X178912000Y-110448000D01*
G75*
G02*
X178737000Y-110623000I-175000J0D01*
G01*
X178387000Y-110623000D01*
G75*
G02*
X178212000Y-110448000I0J175000D01*
G01*
X178212000Y-108748000D01*
G75*
G02*
X178387000Y-108573000I175000J0D01*
G01*
G37*
G36*
G01*
X178387000Y-103623000D02*
X178737000Y-103623000D01*
G75*
G02*
X178912000Y-103798000I0J-175000D01*
G01*
X178912000Y-105498000D01*
G75*
G02*
X178737000Y-105673000I-175000J0D01*
G01*
X178387000Y-105673000D01*
G75*
G02*
X178212000Y-105498000I0J175000D01*
G01*
X178212000Y-103798000D01*
G75*
G02*
X178387000Y-103623000I175000J0D01*
G01*
G37*
G36*
G01*
X179657000Y-103623000D02*
X180007000Y-103623000D01*
G75*
G02*
X180182000Y-103798000I0J-175000D01*
G01*
X180182000Y-105498000D01*
G75*
G02*
X180007000Y-105673000I-175000J0D01*
G01*
X179657000Y-105673000D01*
G75*
G02*
X179482000Y-105498000I0J175000D01*
G01*
X179482000Y-103798000D01*
G75*
G02*
X179657000Y-103623000I175000J0D01*
G01*
G37*
G36*
G01*
X180927000Y-103623000D02*
X181277000Y-103623000D01*
G75*
G02*
X181452000Y-103798000I0J-175000D01*
G01*
X181452000Y-105498000D01*
G75*
G02*
X181277000Y-105673000I-175000J0D01*
G01*
X180927000Y-105673000D01*
G75*
G02*
X180752000Y-105498000I0J175000D01*
G01*
X180752000Y-103798000D01*
G75*
G02*
X180927000Y-103623000I175000J0D01*
G01*
G37*
G36*
G01*
X182197000Y-103623000D02*
X182547000Y-103623000D01*
G75*
G02*
X182722000Y-103798000I0J-175000D01*
G01*
X182722000Y-105498000D01*
G75*
G02*
X182547000Y-105673000I-175000J0D01*
G01*
X182197000Y-105673000D01*
G75*
G02*
X182022000Y-105498000I0J175000D01*
G01*
X182022000Y-103798000D01*
G75*
G02*
X182197000Y-103623000I175000J0D01*
G01*
G37*
%TD*%
D16*
%TO.C,J1*%
X161290000Y-115364000D03*
X164290000Y-115364000D03*
X161290000Y-118364000D03*
G36*
G01*
X165090000Y-117830666D02*
X165090000Y-118897334D01*
G75*
G02*
X164823334Y-119164000I-266666J0D01*
G01*
X163756666Y-119164000D01*
G75*
G02*
X163490000Y-118897334I0J266666D01*
G01*
X163490000Y-117830666D01*
G75*
G02*
X163756666Y-117564000I266666J0D01*
G01*
X164823334Y-117564000D01*
G75*
G02*
X165090000Y-117830666I0J-266666D01*
G01*
G37*
D17*
X158290000Y-114424000D03*
X167290000Y-114424000D03*
%TD*%
D18*
%TO.C,JP2*%
G36*
X183806398Y-102114111D02*
G01*
X183806398Y-102132534D01*
X183806157Y-102137435D01*
X183801347Y-102186266D01*
X183800627Y-102191119D01*
X183791055Y-102239244D01*
X183789863Y-102244005D01*
X183775619Y-102290960D01*
X183773966Y-102295579D01*
X183755189Y-102340912D01*
X183753091Y-102345349D01*
X183729960Y-102388622D01*
X183727438Y-102392829D01*
X183700178Y-102433628D01*
X183697254Y-102437570D01*
X183666126Y-102475499D01*
X183662831Y-102479134D01*
X183628134Y-102513831D01*
X183624499Y-102517126D01*
X183586570Y-102548254D01*
X183582628Y-102551178D01*
X183541829Y-102578438D01*
X183537622Y-102580960D01*
X183494349Y-102604091D01*
X183489912Y-102606189D01*
X183444579Y-102624966D01*
X183439960Y-102626619D01*
X183393005Y-102640863D01*
X183388244Y-102642055D01*
X183340119Y-102651627D01*
X183335266Y-102652347D01*
X183286435Y-102657157D01*
X183281534Y-102657398D01*
X183263111Y-102657398D01*
X183257000Y-102658000D01*
X182757000Y-102658000D01*
X182750889Y-102657398D01*
X182732466Y-102657398D01*
X182727565Y-102657157D01*
X182678734Y-102652347D01*
X182673881Y-102651627D01*
X182625756Y-102642055D01*
X182620995Y-102640863D01*
X182574040Y-102626619D01*
X182569421Y-102624966D01*
X182524088Y-102606189D01*
X182519651Y-102604091D01*
X182476378Y-102580960D01*
X182472171Y-102578438D01*
X182431372Y-102551178D01*
X182427430Y-102548254D01*
X182389501Y-102517126D01*
X182385866Y-102513831D01*
X182351169Y-102479134D01*
X182347874Y-102475499D01*
X182316746Y-102437570D01*
X182313822Y-102433628D01*
X182286562Y-102392829D01*
X182284040Y-102388622D01*
X182260909Y-102345349D01*
X182258811Y-102340912D01*
X182240034Y-102295579D01*
X182238381Y-102290960D01*
X182224137Y-102244005D01*
X182222945Y-102239244D01*
X182213373Y-102191119D01*
X182212653Y-102186266D01*
X182207843Y-102137435D01*
X182207602Y-102132534D01*
X182207602Y-102114111D01*
X182207000Y-102108000D01*
X182207000Y-101608000D01*
X182207961Y-101598245D01*
X182210806Y-101588866D01*
X182215427Y-101580221D01*
X182221645Y-101572645D01*
X182229221Y-101566427D01*
X182237866Y-101561806D01*
X182247245Y-101558961D01*
X182257000Y-101558000D01*
X183757000Y-101558000D01*
X183766755Y-101558961D01*
X183776134Y-101561806D01*
X183784779Y-101566427D01*
X183792355Y-101572645D01*
X183798573Y-101580221D01*
X183803194Y-101588866D01*
X183806039Y-101598245D01*
X183807000Y-101608000D01*
X183807000Y-102108000D01*
X183806398Y-102114111D01*
G37*
G36*
X183806039Y-101317755D02*
G01*
X183803194Y-101327134D01*
X183798573Y-101335779D01*
X183792355Y-101343355D01*
X183784779Y-101349573D01*
X183776134Y-101354194D01*
X183766755Y-101357039D01*
X183757000Y-101358000D01*
X182257000Y-101358000D01*
X182247245Y-101357039D01*
X182237866Y-101354194D01*
X182229221Y-101349573D01*
X182221645Y-101343355D01*
X182215427Y-101335779D01*
X182210806Y-101327134D01*
X182207961Y-101317755D01*
X182207000Y-101308000D01*
X182207000Y-100808000D01*
X182207602Y-100801889D01*
X182207602Y-100783466D01*
X182207843Y-100778565D01*
X182212653Y-100729734D01*
X182213373Y-100724881D01*
X182222945Y-100676756D01*
X182224137Y-100671995D01*
X182238381Y-100625040D01*
X182240034Y-100620421D01*
X182258811Y-100575088D01*
X182260909Y-100570651D01*
X182284040Y-100527378D01*
X182286562Y-100523171D01*
X182313822Y-100482372D01*
X182316746Y-100478430D01*
X182347874Y-100440501D01*
X182351169Y-100436866D01*
X182385866Y-100402169D01*
X182389501Y-100398874D01*
X182427430Y-100367746D01*
X182431372Y-100364822D01*
X182472171Y-100337562D01*
X182476378Y-100335040D01*
X182519651Y-100311909D01*
X182524088Y-100309811D01*
X182569421Y-100291034D01*
X182574040Y-100289381D01*
X182620995Y-100275137D01*
X182625756Y-100273945D01*
X182673881Y-100264373D01*
X182678734Y-100263653D01*
X182727565Y-100258843D01*
X182732466Y-100258602D01*
X182750889Y-100258602D01*
X182757000Y-100258000D01*
X183257000Y-100258000D01*
X183263111Y-100258602D01*
X183281534Y-100258602D01*
X183286435Y-100258843D01*
X183335266Y-100263653D01*
X183340119Y-100264373D01*
X183388244Y-100273945D01*
X183393005Y-100275137D01*
X183439960Y-100289381D01*
X183444579Y-100291034D01*
X183489912Y-100309811D01*
X183494349Y-100311909D01*
X183537622Y-100335040D01*
X183541829Y-100337562D01*
X183582628Y-100364822D01*
X183586570Y-100367746D01*
X183624499Y-100398874D01*
X183628134Y-100402169D01*
X183662831Y-100436866D01*
X183666126Y-100440501D01*
X183697254Y-100478430D01*
X183700178Y-100482372D01*
X183727438Y-100523171D01*
X183729960Y-100527378D01*
X183753091Y-100570651D01*
X183755189Y-100575088D01*
X183773966Y-100620421D01*
X183775619Y-100625040D01*
X183789863Y-100671995D01*
X183791055Y-100676756D01*
X183800627Y-100724881D01*
X183801347Y-100729734D01*
X183806157Y-100778565D01*
X183806398Y-100783466D01*
X183806398Y-100801889D01*
X183807000Y-100808000D01*
X183807000Y-101308000D01*
X183806039Y-101317755D01*
G37*
%TD*%
M02*
