M48
; DRILL file {KiCad (5.1.12-1-10_14)} date 2022 April 05, Tuesday 22:08:38
; FORMAT={3:3/ absolute / metric / suppress leading zeros}
; #@! TF.CreationDate,2022-04-05T22:08:38+02:00
; #@! TF.GenerationSoftware,Kicad,Pcbnew,(5.1.12-1-10_14)
FMAT,2
METRIC,TZ
T1C0.400
T2C0.500
T3C0.950
T4C1.000
T5C1.020
T6C3.200
T7C1.000
T8C1.200
T9C1.270
%
G90
G05
T1
X128524Y-114046
X143400Y-106320
X144342Y-109645
X146250Y-97920
X146750Y-109670
X147320Y-91440
X148250Y-109670
X148500Y-101920
X148750Y-83670
X149605Y-108775
X150500Y-90170
X151250Y-86670
X152013Y-92933
X152800Y-102720
X153000Y-90920
X153500Y-109670
X154000Y-89370
X154000Y-94670
X154000Y-99170
X154000Y-103420
X154250Y-90920
X154250Y-97670
X154555Y-95502
X155000Y-96420
X155000Y-108920
X155250Y-91170
X155250Y-103420
X155250Y-106545
X156250Y-103670
X156500Y-99420
X157250Y-103170
X158250Y-106670
X158500Y-103670
X158800Y-94720
X159600Y-89120
X160000Y-103420
X160250Y-107170
X160800Y-85520
X161000Y-90670
X162000Y-101920
X162250Y-100170
X162500Y-86670
X163000Y-93520
X164250Y-101170
X164750Y-90670
X167959Y-101627
X168250Y-99420
X168250Y-100670
X169000Y-98170
X170750Y-95920
X172000Y-88420
X172498Y-89670
X176657Y-110490
X177000Y-106920
X177546Y-102108
X179750Y-106045
X180848Y-106045
X181102Y-111252
T2
X128410Y-80899
X129113Y-79202
X129113Y-82596
X130810Y-78499
X130810Y-83299
X132507Y-79202
X132507Y-82596
X133210Y-80899
X178875Y-118156
X179578Y-116459
X179578Y-119853
X181275Y-115756
X181275Y-120556
X182972Y-116459
X182972Y-119853
X183675Y-118156
T3
X141344Y-80264
X143844Y-80264
X146344Y-80264
X148844Y-80264
T4
X131572Y-111760
X131572Y-114300
X134112Y-111760
X134112Y-114300
X136652Y-111760
X136652Y-114300
X139192Y-111760
X139192Y-114300
X141732Y-111760
X141732Y-114300
X144272Y-111760
X144272Y-114300
X146812Y-111760
X146812Y-114300
X149352Y-111760
X149352Y-114300
X151892Y-111760
X151892Y-114300
X154432Y-111760
X154432Y-114300
X155488Y-80264
X157988Y-80264
X161290Y-115364
X161290Y-118364
X164290Y-115364
X164290Y-118364
X172212Y-115364
X172212Y-118364
T5
X167640Y-81280
X170640Y-81280
X173640Y-81280
X176640Y-81280
X179640Y-81280
T6
X130810Y-80899
X181275Y-118156
T7
X158290Y-114424
X167290Y-114424
X169212Y-114424
X175212Y-114424
T8
X139744Y-82264
X153888Y-82264
T9
X164640Y-79320
X182640Y-79320
T0
M30
