<?xml version="1.0" standalone="no"?>
 <!DOCTYPE svg PUBLIC "-//W3C//DTD SVG 1.1//EN" 
 "http://www.w3.org/Graphics/SVG/1.1/DTD/svg11.dtd"> 
<svg
  xmlns:svg="http://www.w3.org/2000/svg"
  xmlns="http://www.w3.org/2000/svg"
  xmlns:xlink="http://www.w3.org/1999/xlink"
  version="1.1"
  width="29.700220cm" height="21.000720cm" viewBox="0 0 116930 82680">
<title>SVG Picture created as CAN_Display-F_SilkS.svg date 2021/02/11 20:20:22 </title>
  <desc>Picture generated by PCBNEW </desc>
<g style="fill:#000000; fill-opacity:1;stroke:#000000; stroke-opacity:1;
stroke-linecap:round; stroke-linejoin:round;"
 transform="translate(0 0) scale(1 1)">
</g>
<g style="fill:#000000; fill-opacity:0.0; 
stroke:#000000; stroke-width:-0.000393701; stroke-opacity:1; 
stroke-linecap:round; stroke-linejoin:round;">
</g>
<g style="fill:#000000; fill-opacity:0.0; 
stroke:#000000; stroke-width:39.3701; stroke-opacity:1; 
stroke-linecap:round; stroke-linejoin:round;">
</g>
<g style="fill:#000000; fill-opacity:0.0; 
stroke:#000000; stroke-width:59.0551; stroke-opacity:1; 
stroke-linecap:round; stroke-linejoin:round;">
<rect x="69685.9" y="65357.2" width="42519.7" height="12598.4" rx="0" />
</g>
<g style="fill:#000000; fill-opacity:0.0; 
stroke:#000000; stroke-width:39.3701; stroke-opacity:1; 
stroke-linecap:round; stroke-linejoin:round;">
</g>
<g style="fill:#000000; fill-opacity:0.0; 
stroke:#000000; stroke-width:59.0551; stroke-opacity:1; 
stroke-linecap:round; stroke-linejoin:round;">
<rect x="3937.01" y="3937.01" width="109056" height="74806" rx="0" />
</g>
<g style="fill:#000000; fill-opacity:0.0; 
stroke:#000000; stroke-width:39.3701; stroke-opacity:1; 
stroke-linecap:round; stroke-linejoin:round;">
</g>
<g style="fill:#000000; fill-opacity:0.0; 
stroke:#000000; stroke-width:59.0551; stroke-opacity:1; 
stroke-linecap:round; stroke-linejoin:round;">
<rect x="4724.41" y="4724.41" width="107481" height="73231.2" rx="0" />
</g>
<g style="fill:#000000; fill-opacity:0.0; 
stroke:#000000; stroke-width:39.3701; stroke-opacity:1; 
stroke-linecap:round; stroke-linejoin:round;">
</g>
<g style="fill:#000000; fill-opacity:0.0; 
stroke:#000000; stroke-width:59.0551; stroke-opacity:1; 
stroke-linecap:round; stroke-linejoin:round;">
<path d="M23622 4724
L23622 3937
" />
</g>
<g style="fill:#000000; fill-opacity:0.0; 
stroke:#000000; stroke-width:39.3701; stroke-opacity:1; 
stroke-linecap:round; stroke-linejoin:round;">
</g>
<g style="fill:#000000; fill-opacity:0.0; 
stroke:#000000; stroke-width:59.0551; stroke-opacity:1; 
stroke-linecap:round; stroke-linejoin:round;">
<path d="M43307 4724
L43307 3937
" />
</g>
<g style="fill:#000000; fill-opacity:0.0; 
stroke:#000000; stroke-width:39.3701; stroke-opacity:1; 
stroke-linecap:round; stroke-linejoin:round;">
</g>
<g style="fill:#000000; fill-opacity:0.0; 
stroke:#000000; stroke-width:59.0551; stroke-opacity:1; 
stroke-linecap:round; stroke-linejoin:round;">
<path d="M62992 4724
L62992 3937
" />
</g>
<g style="fill:#000000; fill-opacity:0.0; 
stroke:#000000; stroke-width:39.3701; stroke-opacity:1; 
stroke-linecap:round; stroke-linejoin:round;">
</g>
<g style="fill:#000000; fill-opacity:0.0; 
stroke:#000000; stroke-width:59.0551; stroke-opacity:1; 
stroke-linecap:round; stroke-linejoin:round;">
<path d="M82677 4724
L82677 3937
" />
</g>
<g style="fill:#000000; fill-opacity:0.0; 
stroke:#000000; stroke-width:39.3701; stroke-opacity:1; 
stroke-linecap:round; stroke-linejoin:round;">
</g>
<g style="fill:#000000; fill-opacity:0.0; 
stroke:#000000; stroke-width:59.0551; stroke-opacity:1; 
stroke-linecap:round; stroke-linejoin:round;">
<path d="M102362 4724
L102362 3937
" />
</g>
<g style="fill:#000000; fill-opacity:0.0; 
stroke:#000000; stroke-width:39.3701; stroke-opacity:1; 
stroke-linecap:round; stroke-linejoin:round;">
</g>
<g style="fill:#000000; fill-opacity:0.0; 
stroke:#000000; stroke-width:59.0551; stroke-opacity:1; 
stroke-linecap:round; stroke-linejoin:round;">
<text x="13779.5" y="4586.61"
textLength="546.494" font-size="682.415" lengthAdjust="spacingAndGlyphs"
text-anchor="start" opacity="0">1</text>
<path d="M14199 4562
L13906 4562
" />
<path d="M14052 4562
L14052 4050
L14004 4123
L13955 4172
L13906 4196
" />
</g>
<g style="fill:#000000; fill-opacity:0.0; 
stroke:#000000; stroke-width:39.3701; stroke-opacity:1; 
stroke-linecap:round; stroke-linejoin:round;">
</g>
<g style="fill:#000000; fill-opacity:0.0; 
stroke:#000000; stroke-width:59.0551; stroke-opacity:1; 
stroke-linecap:round; stroke-linejoin:round;">
<text x="33464.6" y="4586.61"
textLength="546.494" font-size="682.415" lengthAdjust="spacingAndGlyphs"
text-anchor="start" opacity="0">2</text>
<path d="M33591 4099
L33615 4074
L33664 4050
L33786 4050
L33835 4074
L33859 4099
L33884 4147
L33884 4196
L33859 4269
L33567 4562
L33884 4562
" />
</g>
<g style="fill:#000000; fill-opacity:0.0; 
stroke:#000000; stroke-width:39.3701; stroke-opacity:1; 
stroke-linecap:round; stroke-linejoin:round;">
</g>
<g style="fill:#000000; fill-opacity:0.0; 
stroke:#000000; stroke-width:59.0551; stroke-opacity:1; 
stroke-linecap:round; stroke-linejoin:round;">
<text x="53149.6" y="4586.61"
textLength="546.494" font-size="682.415" lengthAdjust="spacingAndGlyphs"
text-anchor="start" opacity="0">3</text>
<path d="M53252 4050
L53569 4050
L53398 4245
L53471 4245
L53520 4269
L53544 4294
L53569 4342
L53569 4464
L53544 4513
L53520 4537
L53471 4562
L53325 4562
L53276 4537
L53252 4513
" />
</g>
<g style="fill:#000000; fill-opacity:0.0; 
stroke:#000000; stroke-width:39.3701; stroke-opacity:1; 
stroke-linecap:round; stroke-linejoin:round;">
</g>
<g style="fill:#000000; fill-opacity:0.0; 
stroke:#000000; stroke-width:59.0551; stroke-opacity:1; 
stroke-linecap:round; stroke-linejoin:round;">
<text x="72834.6" y="4586.61"
textLength="546.494" font-size="682.415" lengthAdjust="spacingAndGlyphs"
text-anchor="start" opacity="0">4</text>
<path d="M73205 4221
L73205 4562
" />
<path d="M73083 4026
L72961 4391
L73278 4391
" />
</g>
<g style="fill:#000000; fill-opacity:0.0; 
stroke:#000000; stroke-width:39.3701; stroke-opacity:1; 
stroke-linecap:round; stroke-linejoin:round;">
</g>
<g style="fill:#000000; fill-opacity:0.0; 
stroke:#000000; stroke-width:59.0551; stroke-opacity:1; 
stroke-linecap:round; stroke-linejoin:round;">
<text x="92519.7" y="4586.61"
textLength="546.494" font-size="682.415" lengthAdjust="spacingAndGlyphs"
text-anchor="start" opacity="0">5</text>
<path d="M92914 4050
L92671 4050
L92646 4294
L92671 4269
L92719 4245
L92841 4245
L92890 4269
L92914 4294
L92939 4342
L92939 4464
L92914 4513
L92890 4537
L92841 4562
L92719 4562
L92671 4537
L92646 4513
" />
</g>
<g style="fill:#000000; fill-opacity:0.0; 
stroke:#000000; stroke-width:39.3701; stroke-opacity:1; 
stroke-linecap:round; stroke-linejoin:round;">
</g>
<g style="fill:#000000; fill-opacity:0.0; 
stroke:#000000; stroke-width:59.0551; stroke-opacity:1; 
stroke-linecap:round; stroke-linejoin:round;">
<text x="112205" y="4586.61"
textLength="546.494" font-size="682.415" lengthAdjust="spacingAndGlyphs"
text-anchor="start" opacity="0">6</text>
<path d="M112575 4050
L112477 4050
L112429 4074
L112404 4099
L112356 4172
L112331 4269
L112331 4464
L112356 4513
L112380 4537
L112429 4562
L112526 4562
L112575 4537
L112599 4513
L112624 4464
L112624 4342
L112599 4294
L112575 4269
L112526 4245
L112429 4245
L112380 4269
L112356 4294
L112331 4342
" />
</g>
<g style="fill:#000000; fill-opacity:0.0; 
stroke:#000000; stroke-width:39.3701; stroke-opacity:1; 
stroke-linecap:round; stroke-linejoin:round;">
</g>
<g style="fill:#000000; fill-opacity:0.0; 
stroke:#000000; stroke-width:59.0551; stroke-opacity:1; 
stroke-linecap:round; stroke-linejoin:round;">
<path d="M23622 77955
L23622 78742
" />
</g>
<g style="fill:#000000; fill-opacity:0.0; 
stroke:#000000; stroke-width:39.3701; stroke-opacity:1; 
stroke-linecap:round; stroke-linejoin:round;">
</g>
<g style="fill:#000000; fill-opacity:0.0; 
stroke:#000000; stroke-width:59.0551; stroke-opacity:1; 
stroke-linecap:round; stroke-linejoin:round;">
<path d="M43307 77955
L43307 78742
" />
</g>
<g style="fill:#000000; fill-opacity:0.0; 
stroke:#000000; stroke-width:39.3701; stroke-opacity:1; 
stroke-linecap:round; stroke-linejoin:round;">
</g>
<g style="fill:#000000; fill-opacity:0.0; 
stroke:#000000; stroke-width:59.0551; stroke-opacity:1; 
stroke-linecap:round; stroke-linejoin:round;">
<path d="M62992 77955
L62992 78742
" />
</g>
<g style="fill:#000000; fill-opacity:0.0; 
stroke:#000000; stroke-width:39.3701; stroke-opacity:1; 
stroke-linecap:round; stroke-linejoin:round;">
</g>
<g style="fill:#000000; fill-opacity:0.0; 
stroke:#000000; stroke-width:59.0551; stroke-opacity:1; 
stroke-linecap:round; stroke-linejoin:round;">
<path d="M82677 77955
L82677 78742
" />
</g>
<g style="fill:#000000; fill-opacity:0.0; 
stroke:#000000; stroke-width:39.3701; stroke-opacity:1; 
stroke-linecap:round; stroke-linejoin:round;">
</g>
<g style="fill:#000000; fill-opacity:0.0; 
stroke:#000000; stroke-width:59.0551; stroke-opacity:1; 
stroke-linecap:round; stroke-linejoin:round;">
<path d="M102362 77955
L102362 78742
" />
</g>
<g style="fill:#000000; fill-opacity:0.0; 
stroke:#000000; stroke-width:39.3701; stroke-opacity:1; 
stroke-linecap:round; stroke-linejoin:round;">
</g>
<g style="fill:#000000; fill-opacity:0.0; 
stroke:#000000; stroke-width:59.0551; stroke-opacity:1; 
stroke-linecap:round; stroke-linejoin:round;">
<text x="13779.5" y="78605.2"
textLength="546.494" font-size="682.415" lengthAdjust="spacingAndGlyphs"
text-anchor="start" opacity="0">1</text>
<path d="M14199 78580
L13906 78580
" />
<path d="M14052 78580
L14052 78069
L14004 78142
L13955 78190
L13906 78215
" />
</g>
<g style="fill:#000000; fill-opacity:0.0; 
stroke:#000000; stroke-width:39.3701; stroke-opacity:1; 
stroke-linecap:round; stroke-linejoin:round;">
</g>
<g style="fill:#000000; fill-opacity:0.0; 
stroke:#000000; stroke-width:59.0551; stroke-opacity:1; 
stroke-linecap:round; stroke-linejoin:round;">
<text x="33464.6" y="78605.2"
textLength="546.494" font-size="682.415" lengthAdjust="spacingAndGlyphs"
text-anchor="start" opacity="0">2</text>
<path d="M33591 78117
L33615 78093
L33664 78069
L33786 78069
L33835 78093
L33859 78117
L33884 78166
L33884 78215
L33859 78288
L33567 78580
L33884 78580
" />
</g>
<g style="fill:#000000; fill-opacity:0.0; 
stroke:#000000; stroke-width:39.3701; stroke-opacity:1; 
stroke-linecap:round; stroke-linejoin:round;">
</g>
<g style="fill:#000000; fill-opacity:0.0; 
stroke:#000000; stroke-width:59.0551; stroke-opacity:1; 
stroke-linecap:round; stroke-linejoin:round;">
<text x="53149.6" y="78605.2"
textLength="546.494" font-size="682.415" lengthAdjust="spacingAndGlyphs"
text-anchor="start" opacity="0">3</text>
<path d="M53252 78069
L53569 78069
L53398 78263
L53471 78263
L53520 78288
L53544 78312
L53569 78361
L53569 78483
L53544 78532
L53520 78556
L53471 78580
L53325 78580
L53276 78556
L53252 78532
" />
</g>
<g style="fill:#000000; fill-opacity:0.0; 
stroke:#000000; stroke-width:39.3701; stroke-opacity:1; 
stroke-linecap:round; stroke-linejoin:round;">
</g>
<g style="fill:#000000; fill-opacity:0.0; 
stroke:#000000; stroke-width:59.0551; stroke-opacity:1; 
stroke-linecap:round; stroke-linejoin:round;">
<text x="72834.6" y="78605.2"
textLength="546.494" font-size="682.415" lengthAdjust="spacingAndGlyphs"
text-anchor="start" opacity="0">4</text>
<path d="M73205 78239
L73205 78580
" />
<path d="M73083 78044
L72961 78410
L73278 78410
" />
</g>
<g style="fill:#000000; fill-opacity:0.0; 
stroke:#000000; stroke-width:39.3701; stroke-opacity:1; 
stroke-linecap:round; stroke-linejoin:round;">
</g>
<g style="fill:#000000; fill-opacity:0.0; 
stroke:#000000; stroke-width:59.0551; stroke-opacity:1; 
stroke-linecap:round; stroke-linejoin:round;">
<text x="92519.7" y="78605.2"
textLength="546.494" font-size="682.415" lengthAdjust="spacingAndGlyphs"
text-anchor="start" opacity="0">5</text>
<path d="M92914 78069
L92671 78069
L92646 78312
L92671 78288
L92719 78263
L92841 78263
L92890 78288
L92914 78312
L92939 78361
L92939 78483
L92914 78532
L92890 78556
L92841 78580
L92719 78580
L92671 78556
L92646 78532
" />
</g>
<g style="fill:#000000; fill-opacity:0.0; 
stroke:#000000; stroke-width:39.3701; stroke-opacity:1; 
stroke-linecap:round; stroke-linejoin:round;">
</g>
<g style="fill:#000000; fill-opacity:0.0; 
stroke:#000000; stroke-width:59.0551; stroke-opacity:1; 
stroke-linecap:round; stroke-linejoin:round;">
<text x="112205" y="78605.2"
textLength="546.494" font-size="682.415" lengthAdjust="spacingAndGlyphs"
text-anchor="start" opacity="0">6</text>
<path d="M112575 78069
L112477 78069
L112429 78093
L112404 78117
L112356 78190
L112331 78288
L112331 78483
L112356 78532
L112380 78556
L112429 78580
L112526 78580
L112575 78556
L112599 78532
L112624 78483
L112624 78361
L112599 78312
L112575 78288
L112526 78263
L112429 78263
L112380 78288
L112356 78312
L112331 78361
" />
</g>
<g style="fill:#000000; fill-opacity:0.0; 
stroke:#000000; stroke-width:39.3701; stroke-opacity:1; 
stroke-linecap:round; stroke-linejoin:round;">
</g>
<g style="fill:#000000; fill-opacity:0.0; 
stroke:#000000; stroke-width:59.0551; stroke-opacity:1; 
stroke-linecap:round; stroke-linejoin:round;">
<path d="M3937 23622
L4724 23622
" />
</g>
<g style="fill:#000000; fill-opacity:0.0; 
stroke:#000000; stroke-width:39.3701; stroke-opacity:1; 
stroke-linecap:round; stroke-linejoin:round;">
</g>
<g style="fill:#000000; fill-opacity:0.0; 
stroke:#000000; stroke-width:59.0551; stroke-opacity:1; 
stroke-linecap:round; stroke-linejoin:round;">
<path d="M3937 43307
L4724 43307
" />
</g>
<g style="fill:#000000; fill-opacity:0.0; 
stroke:#000000; stroke-width:39.3701; stroke-opacity:1; 
stroke-linecap:round; stroke-linejoin:round;">
</g>
<g style="fill:#000000; fill-opacity:0.0; 
stroke:#000000; stroke-width:59.0551; stroke-opacity:1; 
stroke-linecap:round; stroke-linejoin:round;">
<path d="M3937 62992
L4724 62992
" />
</g>
<g style="fill:#000000; fill-opacity:0.0; 
stroke:#000000; stroke-width:39.3701; stroke-opacity:1; 
stroke-linecap:round; stroke-linejoin:round;">
</g>
<g style="fill:#000000; fill-opacity:0.0; 
stroke:#000000; stroke-width:59.0551; stroke-opacity:1; 
stroke-linecap:round; stroke-linejoin:round;">
<text x="4330.71" y="14035.4"
textLength="497.75" font-size="682.415" lengthAdjust="spacingAndGlyphs"
text-anchor="middle" opacity="0">A</text>
<path d="M4208 13864
L4452 13864
" />
<path d="M4160 14011
L4330 13499
L4501 14011
" />
</g>
<g style="fill:#000000; fill-opacity:0.0; 
stroke:#000000; stroke-width:39.3701; stroke-opacity:1; 
stroke-linecap:round; stroke-linejoin:round;">
</g>
<g style="fill:#000000; fill-opacity:0.0; 
stroke:#000000; stroke-width:59.0551; stroke-opacity:1; 
stroke-linecap:round; stroke-linejoin:round;">
<text x="4330.71" y="33720.5"
textLength="570.866" font-size="682.415" lengthAdjust="spacingAndGlyphs"
text-anchor="middle" opacity="0">B</text>
<path d="M4367 33428
L4440 33452
L4464 33476
L4489 33525
L4489 33598
L4464 33647
L4440 33671
L4391 33696
L4196 33696
L4196 33184
L4367 33184
L4416 33208
L4440 33233
L4464 33281
L4464 33330
L4440 33379
L4416 33403
L4367 33428
L4196 33428
" />
</g>
<g style="fill:#000000; fill-opacity:0.0; 
stroke:#000000; stroke-width:39.3701; stroke-opacity:1; 
stroke-linecap:round; stroke-linejoin:round;">
</g>
<g style="fill:#000000; fill-opacity:0.0; 
stroke:#000000; stroke-width:59.0551; stroke-opacity:1; 
stroke-linecap:round; stroke-linejoin:round;">
<text x="4330.71" y="53405.5"
textLength="570.866" font-size="682.415" lengthAdjust="spacingAndGlyphs"
text-anchor="middle" opacity="0">C</text>
<path d="M4489 53332
L4464 53356
L4391 53381
L4342 53381
L4269 53356
L4221 53308
L4196 53259
L4172 53161
L4172 53088
L4196 52991
L4221 52942
L4269 52893
L4342 52869
L4391 52869
L4464 52893
L4489 52918
" />
</g>
<g style="fill:#000000; fill-opacity:0.0; 
stroke:#000000; stroke-width:39.3701; stroke-opacity:1; 
stroke-linecap:round; stroke-linejoin:round;">
</g>
<g style="fill:#000000; fill-opacity:0.0; 
stroke:#000000; stroke-width:59.0551; stroke-opacity:1; 
stroke-linecap:round; stroke-linejoin:round;">
<text x="4330.71" y="73090.6"
textLength="570.866" font-size="682.415" lengthAdjust="spacingAndGlyphs"
text-anchor="middle" opacity="0">D</text>
<path d="M4196 73066
L4196 72554
L4318 72554
L4391 72578
L4440 72627
L4464 72676
L4489 72773
L4489 72846
L4464 72944
L4440 72993
L4391 73041
L4318 73066
L4196 73066
" />
</g>
<g style="fill:#000000; fill-opacity:0.0; 
stroke:#000000; stroke-width:39.3701; stroke-opacity:1; 
stroke-linecap:round; stroke-linejoin:round;">
</g>
<g style="fill:#000000; fill-opacity:0.0; 
stroke:#000000; stroke-width:59.0551; stroke-opacity:1; 
stroke-linecap:round; stroke-linejoin:round;">
<path d="M112992 23622
L112205 23622
" />
</g>
<g style="fill:#000000; fill-opacity:0.0; 
stroke:#000000; stroke-width:39.3701; stroke-opacity:1; 
stroke-linecap:round; stroke-linejoin:round;">
</g>
<g style="fill:#000000; fill-opacity:0.0; 
stroke:#000000; stroke-width:59.0551; stroke-opacity:1; 
stroke-linecap:round; stroke-linejoin:round;">
<path d="M112992 43307
L112205 43307
" />
</g>
<g style="fill:#000000; fill-opacity:0.0; 
stroke:#000000; stroke-width:39.3701; stroke-opacity:1; 
stroke-linecap:round; stroke-linejoin:round;">
</g>
<g style="fill:#000000; fill-opacity:0.0; 
stroke:#000000; stroke-width:59.0551; stroke-opacity:1; 
stroke-linecap:round; stroke-linejoin:round;">
<path d="M112992 62992
L112205 62992
" />
</g>
<g style="fill:#000000; fill-opacity:0.0; 
stroke:#000000; stroke-width:39.3701; stroke-opacity:1; 
stroke-linecap:round; stroke-linejoin:round;">
</g>
<g style="fill:#000000; fill-opacity:0.0; 
stroke:#000000; stroke-width:59.0551; stroke-opacity:1; 
stroke-linecap:round; stroke-linejoin:round;">
<text x="112599" y="14035.4"
textLength="497.75" font-size="682.415" lengthAdjust="spacingAndGlyphs"
text-anchor="middle" opacity="0">A</text>
<path d="M112477 13864
L112721 13864
" />
<path d="M112428 14011
L112599 13499
L112769 14011
" />
</g>
<g style="fill:#000000; fill-opacity:0.0; 
stroke:#000000; stroke-width:39.3701; stroke-opacity:1; 
stroke-linecap:round; stroke-linejoin:round;">
</g>
<g style="fill:#000000; fill-opacity:0.0; 
stroke:#000000; stroke-width:59.0551; stroke-opacity:1; 
stroke-linecap:round; stroke-linejoin:round;">
<text x="112599" y="33720.5"
textLength="570.866" font-size="682.415" lengthAdjust="spacingAndGlyphs"
text-anchor="middle" opacity="0">B</text>
<path d="M112635 33428
L112708 33452
L112733 33476
L112757 33525
L112757 33598
L112733 33647
L112708 33671
L112660 33696
L112465 33696
L112465 33184
L112635 33184
L112684 33208
L112708 33233
L112733 33281
L112733 33330
L112708 33379
L112684 33403
L112635 33428
L112465 33428
" />
</g>
<g style="fill:#000000; fill-opacity:0.0; 
stroke:#000000; stroke-width:39.3701; stroke-opacity:1; 
stroke-linecap:round; stroke-linejoin:round;">
</g>
<g style="fill:#000000; fill-opacity:0.0; 
stroke:#000000; stroke-width:59.0551; stroke-opacity:1; 
stroke-linecap:round; stroke-linejoin:round;">
<text x="112599" y="53405.5"
textLength="570.866" font-size="682.415" lengthAdjust="spacingAndGlyphs"
text-anchor="middle" opacity="0">C</text>
<path d="M112757 53332
L112733 53356
L112660 53381
L112611 53381
L112538 53356
L112489 53308
L112465 53259
L112440 53161
L112440 53088
L112465 52991
L112489 52942
L112538 52893
L112611 52869
L112660 52869
L112733 52893
L112757 52918
" />
</g>
<g style="fill:#000000; fill-opacity:0.0; 
stroke:#000000; stroke-width:39.3701; stroke-opacity:1; 
stroke-linecap:round; stroke-linejoin:round;">
</g>
<g style="fill:#000000; fill-opacity:0.0; 
stroke:#000000; stroke-width:59.0551; stroke-opacity:1; 
stroke-linecap:round; stroke-linejoin:round;">
<text x="112599" y="73090.6"
textLength="570.866" font-size="682.415" lengthAdjust="spacingAndGlyphs"
text-anchor="middle" opacity="0">D</text>
<path d="M112465 73066
L112465 72554
L112587 72554
L112660 72578
L112708 72627
L112733 72676
L112757 72773
L112757 72846
L112733 72944
L112708 72993
L112660 73041
L112587 73066
L112465 73066
" />
</g>
<g style="fill:#000000; fill-opacity:0.0; 
stroke:#000000; stroke-width:39.3701; stroke-opacity:1; 
stroke-linecap:round; stroke-linejoin:round;">
</g>
<g style="fill:#000000; fill-opacity:0.0; 
stroke:#000000; stroke-width:59.0551; stroke-opacity:1; 
stroke-linecap:round; stroke-linejoin:round;">
<text x="78741" y="76321.7"
textLength="2758.72" font-size="787.402" lengthAdjust="spacingAndGlyphs"
text-anchor="start" opacity="0">Date: </text>
<path d="M78911 76293
L78911 75703
L79051 75703
L79136 75731
L79192 75787
L79220 75843
L79248 75956
L79248 76040
L79220 76153
L79192 76209
L79136 76265
L79051 76293
L78911 76293
" />
<path d="M79754 76293
L79754 75984
L79726 75928
L79670 75899
L79557 75899
L79501 75928
" />
<path d="M79754 76265
L79698 76293
L79557 76293
L79501 76265
L79473 76209
L79473 76153
L79501 76096
L79557 76068
L79698 76068
L79754 76040
" />
<path d="M79951 75899
L80176 75899
" />
<path d="M80036 75703
L80036 76209
L80064 76265
L80120 76293
L80176 76293
" />
<path d="M80598 76265
L80542 76293
L80429 76293
L80373 76265
L80345 76209
L80345 75984
L80373 75928
L80429 75899
L80542 75899
L80598 75928
L80626 75984
L80626 76040
L80345 76096
" />
<path d="M80879 76237
L80907 76265
L80879 76293
L80851 76265
L80879 76237
L80879 76293
" />
<path d="M80879 75928
L80907 75956
L80879 75984
L80851 75956
L80879 75928
L80879 75984
" />
</g>
<g style="fill:#000000; fill-opacity:0.0; 
stroke:#000000; stroke-width:39.3701; stroke-opacity:1; 
stroke-linecap:round; stroke-linejoin:round;">
</g>
<g style="fill:#000000; fill-opacity:0.0; 
stroke:#000000; stroke-width:59.0551; stroke-opacity:1; 
stroke-linecap:round; stroke-linejoin:round;">
<path d="M69685 76577
L112205 76577
" />
</g>
<g style="fill:#000000; fill-opacity:0.0; 
stroke:#000000; stroke-width:39.3701; stroke-opacity:1; 
stroke-linecap:round; stroke-linejoin:round;">
</g>
<g style="fill:#000000; fill-opacity:0.0; 
stroke:#000000; stroke-width:59.0551; stroke-opacity:1; 
stroke-linecap:round; stroke-linejoin:round;">
<text x="70079.6" y="77424.1"
textLength="16960.1" font-size="787.402" lengthAdjust="spacingAndGlyphs"
text-anchor="start" opacity="0">KiCad E.D.A.  kicad (5.1.6-0-10_14)</text>
<path d="M70249 77395
L70249 76805
" />
<path d="M70587 77395
L70334 77058
" />
<path d="M70587 76805
L70249 77142
" />
<path d="M70840 77395
L70840 77002
" />
<path d="M70840 76805
L70812 76833
L70840 76861
L70868 76833
L70840 76805
L70840 76861
" />
<path d="M71458 77339
L71430 77367
L71346 77395
L71290 77395
L71205 77367
L71149 77311
L71121 77255
L71093 77142
L71093 77058
L71121 76946
L71149 76889
L71205 76833
L71290 76805
L71346 76805
L71430 76833
L71458 76861
" />
<path d="M71965 77395
L71965 77086
L71937 77030
L71880 77002
L71768 77002
L71712 77030
" />
<path d="M71965 77367
L71908 77395
L71768 77395
L71712 77367
L71683 77311
L71683 77255
L71712 77199
L71768 77171
L71908 77171
L71965 77142
" />
<path d="M72499 77395
L72499 76805
" />
<path d="M72499 77367
L72443 77395
L72330 77395
L72274 77367
L72246 77339
L72218 77283
L72218 77114
L72246 77058
L72274 77030
L72330 77002
L72443 77002
L72499 77030
" />
<path d="M73230 77086
L73427 77086
" />
<path d="M73511 77395
L73230 77395
L73230 76805
L73511 76805
" />
<path d="M73764 77339
L73793 77367
L73764 77395
L73736 77367
L73764 77339
L73764 77395
" />
<path d="M74046 77395
L74046 76805
L74186 76805
L74271 76833
L74327 76889
L74355 76946
L74383 77058
L74383 77142
L74355 77255
L74327 77311
L74271 77367
L74186 77395
L74046 77395
" />
<path d="M74636 77339
L74664 77367
L74636 77395
L74608 77367
L74636 77339
L74636 77395
" />
<path d="M74889 77227
L75171 77227
" />
<path d="M74833 77395
L75030 76805
L75227 77395
" />
<path d="M75424 77339
L75452 77367
L75424 77395
L75395 77367
L75424 77339
L75424 77395
" />
<path d="M76605 77395
L76605 76805
" />
<path d="M76661 77171
L76830 77395
" />
<path d="M76830 77002
L76605 77227
" />
<path d="M77083 77395
L77083 77002
" />
<path d="M77083 76805
L77055 76833
L77083 76861
L77111 76833
L77083 76805
L77083 76861
" />
<path d="M77617 77367
L77561 77395
L77448 77395
L77392 77367
L77364 77339
L77336 77283
L77336 77114
L77364 77058
L77392 77030
L77448 77002
L77561 77002
L77617 77030
" />
<path d="M78123 77395
L78123 77086
L78095 77030
L78039 77002
L77926 77002
L77870 77030
" />
<path d="M78123 77367
L78067 77395
L77926 77395
L77870 77367
L77842 77311
L77842 77255
L77870 77199
L77926 77171
L78067 77171
L78123 77142
" />
<path d="M78658 77395
L78658 76805
" />
<path d="M78658 77367
L78601 77395
L78489 77395
L78433 77367
L78404 77339
L78376 77283
L78376 77114
L78404 77058
L78433 77030
L78489 77002
L78601 77002
L78658 77030
" />
<path d="M79557 77620
L79529 77592
L79473 77508
L79445 77452
L79417 77367
L79389 77227
L79389 77114
L79417 76974
L79445 76889
L79473 76833
L79529 76749
L79557 76721
" />
<path d="M80064 76805
L79782 76805
L79754 77086
L79782 77058
L79839 77030
L79979 77030
L80036 77058
L80064 77086
L80092 77142
L80092 77283
L80064 77339
L80036 77367
L79979 77395
L79839 77395
L79782 77367
L79754 77339
" />
<path d="M80345 77339
L80373 77367
L80345 77395
L80317 77367
L80345 77339
L80345 77395
" />
<path d="M80935 77395
L80598 77395
" />
<path d="M80767 77395
L80767 76805
L80710 76889
L80654 76946
L80598 76974
" />
<path d="M81188 77339
L81217 77367
L81188 77395
L81160 77367
L81188 77339
L81188 77395
" />
<path d="M81723 76805
L81610 76805
L81554 76833
L81526 76861
L81470 76946
L81442 77058
L81442 77283
L81470 77339
L81498 77367
L81554 77395
L81667 77395
L81723 77367
L81751 77339
L81779 77283
L81779 77142
L81751 77086
L81723 77058
L81667 77030
L81554 77030
L81498 77058
L81470 77086
L81442 77142
" />
<path d="M82032 77171
L82482 77171
" />
<path d="M82876 76805
L82932 76805
L82988 76833
L83016 76861
L83045 76917
L83073 77030
L83073 77171
L83045 77283
L83016 77339
L82988 77367
L82932 77395
L82876 77395
L82820 77367
L82791 77339
L82763 77283
L82735 77171
L82735 77030
L82763 76917
L82791 76861
L82820 76833
L82876 76805
" />
<path d="M83326 77171
L83776 77171
" />
<path d="M84366 77395
L84029 77395
" />
<path d="M84197 77395
L84197 76805
L84141 76889
L84085 76946
L84029 76974
" />
<path d="M84732 76805
L84788 76805
L84844 76833
L84872 76861
L84901 76917
L84929 77030
L84929 77171
L84901 77283
L84872 77339
L84844 77367
L84788 77395
L84732 77395
L84676 77367
L84647 77339
L84619 77283
L84591 77171
L84591 77030
L84619 76917
L84647 76861
L84676 76833
L84732 76805
" />
<path d="M85041 77452
L85491 77452
" />
<path d="M85941 77395
L85604 77395
" />
<path d="M85772 77395
L85772 76805
L85716 76889
L85660 76946
L85604 76974
" />
<path d="M86447 77002
L86447 77395
" />
<path d="M86307 76777
L86166 77199
L86532 77199
" />
<path d="M86700 77620
L86728 77592
L86785 77508
L86813 77452
L86841 77367
L86869 77227
L86869 77114
L86841 76974
L86813 76889
L86785 76833
L86728 76749
L86700 76721
" />
</g>
<g style="fill:#000000; fill-opacity:0.0; 
stroke:#000000; stroke-width:39.3701; stroke-opacity:1; 
stroke-linecap:round; stroke-linejoin:round;">
</g>
<g style="fill:#000000; fill-opacity:0.0; 
stroke:#000000; stroke-width:59.0551; stroke-opacity:1; 
stroke-linecap:round; stroke-linejoin:round;">
<path d="M69685 75396
L112205 75396
" />
</g>
<g style="fill:#000000; fill-opacity:0.0; 
stroke:#000000; stroke-width:39.3701; stroke-opacity:1; 
stroke-linecap:round; stroke-linejoin:round;">
</g>
<g style="fill:#000000; fill-opacity:0.0; 
stroke:#000000; stroke-width:118.11; stroke-opacity:1; 
stroke-linecap:round; stroke-linejoin:round;">
<text x="103544" y="76321.7"
textLength="2336.9" font-size="787.402" lengthAdjust="spacingAndGlyphs"
text-anchor="start" opacity="0">Rev: </text>
<path d="M104099 76293
L103902 76012
" />
<path d="M103761 76293
L103761 75703
L103986 75703
L104042 75731
L104070 75759
L104099 75815
L104099 75899
L104070 75956
L104042 75984
L103986 76012
L103761 76012
" />
<path d="M104577 76265
L104520 76293
L104408 76293
L104352 76265
L104323 76209
L104323 75984
L104352 75928
L104408 75899
L104520 75899
L104577 75928
L104605 75984
L104605 76040
L104323 76096
" />
<path d="M104802 75899
L104942 76293
L105083 75899
" />
<path d="M105308 76237
L105336 76265
L105308 76293
L105280 76265
L105308 76237
L105308 76293
" />
<path d="M105308 75928
L105336 75956
L105308 75984
L105280 75956
L105308 75928
L105308 75984
" />
</g>
<g style="fill:#000000; fill-opacity:0.0; 
stroke:#000000; stroke-width:39.3701; stroke-opacity:1; 
stroke-linecap:round; stroke-linejoin:round;">
</g>
<g style="fill:#000000; fill-opacity:0.0; 
stroke:#000000; stroke-width:59.0551; stroke-opacity:1; 
stroke-linecap:round; stroke-linejoin:round;">
<text x="70079.6" y="76321.7"
textLength="3781.21" font-size="787.402" lengthAdjust="spacingAndGlyphs"
text-anchor="start" opacity="0">Size: A4</text>
<path d="M70221 76265
L70305 76293
L70446 76293
L70502 76265
L70530 76237
L70559 76181
L70559 76124
L70530 76068
L70502 76040
L70446 76012
L70334 75984
L70277 75956
L70249 75928
L70221 75871
L70221 75815
L70249 75759
L70277 75731
L70334 75703
L70474 75703
L70559 75731
" />
<path d="M70812 76293
L70812 75899
" />
<path d="M70812 75703
L70784 75731
L70812 75759
L70840 75731
L70812 75703
L70812 75759
" />
<path d="M71037 75899
L71346 75899
L71037 76293
L71346 76293
" />
<path d="M71796 76265
L71740 76293
L71627 76293
L71571 76265
L71543 76209
L71543 75984
L71571 75928
L71627 75899
L71740 75899
L71796 75928
L71824 75984
L71824 76040
L71543 76096
" />
<path d="M72077 76237
L72105 76265
L72077 76293
L72049 76265
L72077 76237
L72077 76293
" />
<path d="M72077 75928
L72105 75956
L72077 75984
L72049 75956
L72077 75928
L72077 75984
" />
<path d="M72780 76124
L73061 76124
" />
<path d="M72724 76293
L72921 75703
L73118 76293
" />
<path d="M73568 75899
L73568 76293
" />
<path d="M73427 75674
L73286 76096
L73652 76096
" />
</g>
<g style="fill:#000000; fill-opacity:0.0; 
stroke:#000000; stroke-width:39.3701; stroke-opacity:1; 
stroke-linecap:round; stroke-linejoin:round;">
</g>
<g style="fill:#000000; fill-opacity:0.0; 
stroke:#000000; stroke-width:59.0551; stroke-opacity:1; 
stroke-linecap:round; stroke-linejoin:round;">
<text x="103544" y="77424.1"
textLength="3349.27" font-size="787.402" lengthAdjust="spacingAndGlyphs"
text-anchor="start" opacity="0">Id: 1/1</text>
<path d="M103714 77395
L103714 76805
" />
<path d="M104248 77395
L104248 76805
" />
<path d="M104248 77367
L104192 77395
L104079 77395
L104023 77367
L103995 77339
L103967 77283
L103967 77114
L103995 77058
L104023 77030
L104079 77002
L104192 77002
L104248 77030
" />
<path d="M104529 77339
L104557 77367
L104529 77395
L104501 77367
L104529 77339
L104529 77395
" />
<path d="M104529 77030
L104557 77058
L104529 77086
L104501 77058
L104529 77030
L104529 77086
" />
<path d="M105570 77395
L105232 77395
" />
<path d="M105401 77395
L105401 76805
L105345 76889
L105289 76946
L105232 76974
" />
<path d="M106245 76777
L105739 77536
" />
<path d="M106751 77395
L106413 77395
" />
<path d="M106582 77395
L106582 76805
L106526 76889
L106470 76946
L106413 76974
" />
</g>
<g style="fill:#000000; fill-opacity:0.0; 
stroke:#000000; stroke-width:39.3701; stroke-opacity:1; 
stroke-linecap:round; stroke-linejoin:round;">
</g>
<g style="fill:#000000; fill-opacity:0.0; 
stroke:#000000; stroke-width:59.0551; stroke-opacity:1; 
stroke-linecap:round; stroke-linejoin:round;">
<path d="M69685 73821
L112205 73821
" />
</g>
<g style="fill:#000000; fill-opacity:0.0; 
stroke:#000000; stroke-width:39.3701; stroke-opacity:1; 
stroke-linecap:round; stroke-linejoin:round;">
</g>
<g style="fill:#000000; fill-opacity:0.0; 
stroke:#000000; stroke-width:157.48; stroke-opacity:1; 
stroke-linecap:round; stroke-linejoin:round;">
<text x="70079.6" y="74924.1"
textLength="3701.14" font-size="1049.87" lengthAdjust="spacingAndGlyphs"
text-anchor="start" opacity="0">Title: </text>
<path d="M70360 74099
L70810 74099
" />
<path d="M70486 74886
L70585 74099
" />
<path d="M70974 74886
L71039 74361
" />
<path d="M71072 74099
L71030 74136
L71063 74174
L71105 74136
L71072 74099
L71063 74174
" />
<path d="M71302 74361
L71602 74361
" />
<path d="M71447 74099
L71363 74774
L71391 74849
L71461 74886
L71536 74886
" />
<path d="M71911 74886
L71841 74849
L71813 74774
L71897 74099
" />
<path d="M72516 74849
L72436 74886
L72286 74886
L72216 74849
L72187 74774
L72225 74474
L72272 74399
L72352 74361
L72501 74361
L72572 74399
L72600 74474
L72591 74549
L72206 74624
" />
<path d="M72895 74811
L72928 74849
L72886 74886
L72853 74849
L72895 74811
L72886 74886
" />
<path d="M72947 74399
L72980 74436
L72937 74474
L72905 74436
L72947 74399
L72937 74474
" />
</g>
<g style="fill:#000000; fill-opacity:0.0; 
stroke:#000000; stroke-width:39.3701; stroke-opacity:1; 
stroke-linecap:round; stroke-linejoin:round;">
</g>
<g style="fill:#000000; fill-opacity:0.0; 
stroke:#000000; stroke-width:59.0551; stroke-opacity:1; 
stroke-linecap:round; stroke-linejoin:round;">
<text x="70079.6" y="73408.3"
textLength="12521.9" font-size="787.402" lengthAdjust="spacingAndGlyphs"
text-anchor="start" opacity="0">File: CAN_Display.kicad_pcb</text>
<path d="M70446 73070
L70249 73070
" />
<path d="M70249 73380
L70249 72789
L70530 72789
" />
<path d="M70755 73380
L70755 72986
" />
<path d="M70755 72789
L70727 72817
L70755 72845
L70784 72817
L70755 72789
L70755 72845
" />
<path d="M71121 73380
L71065 73352
L71037 73295
L71037 72789
" />
<path d="M71571 73352
L71515 73380
L71402 73380
L71346 73352
L71318 73295
L71318 73070
L71346 73014
L71402 72986
L71515 72986
L71571 73014
L71599 73070
L71599 73127
L71318 73183
" />
<path d="M71852 73323
L71880 73352
L71852 73380
L71824 73352
L71852 73323
L71852 73380
" />
<path d="M71852 73014
L71880 73042
L71852 73070
L71824 73042
L71852 73014
L71852 73070
" />
<path d="M72921 73323
L72893 73352
L72808 73380
L72752 73380
L72668 73352
L72611 73295
L72583 73239
L72555 73127
L72555 73042
L72583 72930
L72611 72874
L72668 72817
L72752 72789
L72808 72789
L72893 72817
L72921 72845
" />
<path d="M73146 73211
L73427 73211
" />
<path d="M73090 73380
L73286 72789
L73483 73380
" />
<path d="M73680 73380
L73680 72789
L74018 73380
L74018 72789
" />
<path d="M74158 73436
L74608 73436
" />
<path d="M74749 73380
L74749 72789
L74889 72789
L74974 72817
L75030 72874
L75058 72930
L75086 73042
L75086 73127
L75058 73239
L75030 73295
L74974 73352
L74889 73380
L74749 73380
" />
<path d="M75339 73380
L75339 72986
" />
<path d="M75339 72789
L75311 72817
L75339 72845
L75367 72817
L75339 72789
L75339 72845
" />
<path d="M75592 73352
L75649 73380
L75761 73380
L75817 73352
L75845 73295
L75845 73267
L75817 73211
L75761 73183
L75677 73183
L75620 73155
L75592 73099
L75592 73070
L75620 73014
L75677 72986
L75761 72986
L75817 73014
" />
<path d="M76099 72986
L76099 73577
" />
<path d="M76099 73014
L76155 72986
L76267 72986
L76323 73014
L76352 73042
L76380 73099
L76380 73267
L76352 73323
L76323 73352
L76267 73380
L76155 73380
L76099 73352
" />
<path d="M76717 73380
L76661 73352
L76633 73295
L76633 72789
" />
<path d="M77195 73380
L77195 73070
L77167 73014
L77111 72986
L76998 72986
L76942 73014
" />
<path d="M77195 73352
L77139 73380
L76998 73380
L76942 73352
L76914 73295
L76914 73239
L76942 73183
L76998 73155
L77139 73155
L77195 73127
" />
<path d="M77420 72986
L77561 73380
" />
<path d="M77701 72986
L77561 73380
L77505 73520
L77476 73548
L77420 73577
" />
<path d="M77926 73323
L77955 73352
L77926 73380
L77898 73352
L77926 73323
L77926 73380
" />
<path d="M78208 73380
L78208 72789
" />
<path d="M78264 73155
L78433 73380
" />
<path d="M78433 72986
L78208 73211
" />
<path d="M78686 73380
L78686 72986
" />
<path d="M78686 72789
L78658 72817
L78686 72845
L78714 72817
L78686 72789
L78686 72845
" />
<path d="M79220 73352
L79164 73380
L79051 73380
L78995 73352
L78967 73323
L78939 73267
L78939 73099
L78967 73042
L78995 73014
L79051 72986
L79164 72986
L79220 73014
" />
<path d="M79726 73380
L79726 73070
L79698 73014
L79642 72986
L79529 72986
L79473 73014
" />
<path d="M79726 73352
L79670 73380
L79529 73380
L79473 73352
L79445 73295
L79445 73239
L79473 73183
L79529 73155
L79670 73155
L79726 73127
" />
<path d="M80260 73380
L80260 72789
" />
<path d="M80260 73352
L80204 73380
L80092 73380
L80036 73352
L80007 73323
L79979 73267
L79979 73099
L80007 73042
L80036 73014
L80092 72986
L80204 72986
L80260 73014
" />
<path d="M80401 73436
L80851 73436
" />
<path d="M80992 72986
L80992 73577
" />
<path d="M80992 73014
L81048 72986
L81160 72986
L81217 73014
L81245 73042
L81273 73099
L81273 73267
L81245 73323
L81217 73352
L81160 73380
L81048 73380
L80992 73352
" />
<path d="M81779 73352
L81723 73380
L81610 73380
L81554 73352
L81526 73323
L81498 73267
L81498 73099
L81526 73042
L81554 73014
L81610 72986
L81723 72986
L81779 73014
" />
<path d="M82032 73380
L82032 72789
" />
<path d="M82032 73014
L82088 72986
L82201 72986
L82257 73014
L82285 73042
L82313 73099
L82313 73267
L82285 73323
L82257 73352
L82201 73380
L82088 73380
L82032 73352
" />
</g>
<g style="fill:#000000; fill-opacity:0.0; 
stroke:#000000; stroke-width:39.3701; stroke-opacity:1; 
stroke-linecap:round; stroke-linejoin:round;">
</g>
<g style="fill:#000000; fill-opacity:0.0; 
stroke:#000000; stroke-width:59.0551; stroke-opacity:1; 
stroke-linecap:round; stroke-linejoin:round;">
<path d="M69685 71459
L112205 71459
" />
</g>
<g style="fill:#000000; fill-opacity:0.0; 
stroke:#000000; stroke-width:39.3701; stroke-opacity:1; 
stroke-linecap:round; stroke-linejoin:round;">
</g>
<g style="fill:#000000; fill-opacity:0.0; 
stroke:#000000; stroke-width:59.0551; stroke-opacity:1; 
stroke-linecap:round; stroke-linejoin:round;">
<text x="70079.6" y="72345.4"
textLength="3236.78" font-size="787.402" lengthAdjust="spacingAndGlyphs"
text-anchor="start" opacity="0">Sheet: </text>
<path d="M70221 72289
L70305 72317
L70446 72317
L70502 72289
L70530 72260
L70559 72204
L70559 72148
L70530 72092
L70502 72064
L70446 72036
L70334 72007
L70277 71979
L70249 71951
L70221 71895
L70221 71839
L70249 71782
L70277 71754
L70334 71726
L70474 71726
L70559 71754
" />
<path d="M70812 72317
L70812 71726
" />
<path d="M71065 72317
L71065 72007
L71037 71951
L70980 71923
L70896 71923
L70840 71951
L70812 71979
" />
<path d="M71571 72289
L71515 72317
L71402 72317
L71346 72289
L71318 72232
L71318 72007
L71346 71951
L71402 71923
L71515 71923
L71571 71951
L71599 72007
L71599 72064
L71318 72120
" />
<path d="M72077 72289
L72021 72317
L71908 72317
L71852 72289
L71824 72232
L71824 72007
L71852 71951
L71908 71923
L72021 71923
L72077 71951
L72105 72007
L72105 72064
L71824 72120
" />
<path d="M72274 71923
L72499 71923
" />
<path d="M72358 71726
L72358 72232
L72386 72289
L72443 72317
L72499 72317
" />
<path d="M72696 72260
L72724 72289
L72696 72317
L72668 72289
L72696 72260
L72696 72317
" />
<path d="M72696 71951
L72724 71979
L72696 72007
L72668 71979
L72696 71951
L72696 72007
" />
</g>
<g style="fill:#000000; fill-opacity:0.0; 
stroke:#000000; stroke-width:39.3701; stroke-opacity:1; 
stroke-linecap:round; stroke-linejoin:round;">
</g>
<g style="fill:#000000; fill-opacity:0.0; 
stroke:#000000; stroke-width:59.0551; stroke-opacity:1; 
stroke-linecap:round; stroke-linejoin:round;">
<path d="M77559 75396
L77559 76577
" />
</g>
<g style="fill:#000000; fill-opacity:0.0; 
stroke:#000000; stroke-width:39.3701; stroke-opacity:1; 
stroke-linecap:round; stroke-linejoin:round;">
</g>
<g style="fill:#000000; fill-opacity:0.0; 
stroke:#000000; stroke-width:59.0551; stroke-opacity:1; 
stroke-linecap:round; stroke-linejoin:round;">
<path d="M102756 75396
L102756 77955
" />
</g>
<g style="fill:#008484; fill-opacity:0.0; 
stroke:#008484; stroke-width:59.0551; stroke-opacity:1; 
stroke-linecap:round; stroke-linejoin:round;">
</g>
<g style="fill:#008484; fill-opacity:0.0; 
stroke:#008484; stroke-width:47.2441; stroke-opacity:1; 
stroke-linecap:round; stroke-linejoin:round;">
<path d="M64248 41753
L66492 41753
" />
<path d="M64248 43446
L66492 43446
" />
<path d="M64248 41753
L64248 43446
" />
<path d="M67386 29229
L67140 29229
" />
<path d="M67263 29106
L67263 29352
" />
<path d="M65932 29447
L65513 29866
" />
<path d="M67267 29447
L67686 29866
" />
<path d="M67267 29447
L67017 29447
" />
<path d="M65932 29447
L66182 29447
" />
<path d="M65513 29866
L65513 31620
" />
<path d="M67686 29866
L67686 31620
" />
<path d="M67686 31620
L67017 31620
" />
<path d="M65513 31620
L66182 31620
" />
<path d="M59123 40676
L59123 41200
" />
<path d="M58600 40676
L59123 40676
" />
<path d="M59123 41700
L59123 42723
" />
<path d="M58100 41700
L59123 41700
" />
<path d="M58100 40676
L58100 41700
" />
<path d="M59123 42723
L56076 42723
" />
<path d="M58100 40676
L56076 40676
" />
<path d="M56076 40676
L56076 42723
" />
<path d="M58876 29123
L58876 28600
" />
<path d="M59400 29123
L58876 29123
" />
<path d="M59900 29123
L59900 28076
" />
<path d="M59900 28076
L64923 28076
" />
<path d="M59900 29123
L64923 29123
" />
<path d="M64923 29123
L64923 28076
" />
<path d="M65877 39208
L65877 39732
" />
<path d="M65354 39208
L65877 39208
" />
<path d="M64854 39208
L64854 40255
" />
<path d="M64854 40255
L56830 40255
" />
<path d="M64854 39208
L56830 39208
" />
<path d="M56830 39208
L56830 40255
" />
<path d="M63920 30093
L63920 30299
" />
<path d="M64479 30093
L64479 30299
" />
<path d="M64720 30093
L64720 30299
" />
<path d="M65279 30093
L65279 30299
" />
<path d="M60744 38044
L60744 38250
" />
<path d="M61303 38044
L61303 38250
" />
<path d="M67520 41293
L67520 41499
" />
<path d="M68079 41293
L68079 41499
" />
<path d="M60500 30279
L60706 30279
" />
<path d="M60500 29720
L60706 29720
" />
<path d="M68406 40619
L68406 40068
" />
<path d="M68681 39792
L68918 39792
" />
<path d="M69193 40068
L69193 40619
" />
<path d="M68918 40895
L68681 40895
" />
<path d="M68406.3 40619.7 A275.591 275.591 0.0 0 0 68681.9 40895.3" />
<path d="M68918.1 40895.3 A275.591 275.591 0.0 0 0 69193.7 40619.7" />
<path d="M69193.7 40068.5 A275.591 275.591 0.0 0 0 68918.1 39792.9" />
<path d="M68681.9 39792.9 A275.591 275.591 0.0 0 0 68406.3 40068.5" />
<path d="M61417 38905
L61417 37370
" />
<path d="M62204 38905
L62204 37370
" />
<path d="M61417 38905
L62204 38905
" />
<path d="M63535 30393
L62000 30393
" />
<path d="M63535 29606
L62000 29606
" />
<path d="M63535 30393
L63535 29606
" />
<path d="M59956 38044
L59956 38250
" />
<path d="M60515 38044
L60515 38250
" />
<path d="M60500 31079
L60706 31079
" />
<path d="M60500 30520
L60706 30520
" />
<path d="M64500 31879
L64706 31879
" />
<path d="M64500 31320
L64706 31320
" />
<path d="M65635 41479
L65841 41479
" />
<path d="M65635 40920
L65841 40920
" />
<path d="M64279 37899
L64279 37693
" />
<path d="M63720 37899
L63720 37693
" />
<path d="M58879 31299
L58879 31093
" />
<path d="M58320 31299
L58320 31093
" />
<path d="M57293 30279
L57499 30279
" />
<path d="M57293 29720
L57499 29720
" />
<path d="M69093 39479
L69299 39479
" />
<path d="M69093 38920
L69299 38920
" />
<path d="M69279 32699
L69279 32493
" />
<path d="M68720 32699
L68720 32493
" />
<path d="M58299 37720
L58093 37720
" />
<path d="M58299 38279
L58093 38279
" />
<path d="M57499 31320
L57293 31320
" />
<path d="M57499 31879
L57293 31879
" />
<path d="M68057 39174
L68057 37816
" />
<path d="M68057 39174
L68057 39942
" />
<path d="M66042 39174
L66042 38406
" />
<path d="M66042 39174
L66042 39942
" />
<path d="M65885 32283
L64366 32283
" />
<path d="M64366 32283
L64366 32379
" />
<path d="M65885 32283
L67405 32283
" />
<path d="M67405 32283
L67405 32379
" />
<path d="M65885 36916
L64366 36916
" />
<path d="M64366 36916
L64366 36820
" />
<path d="M65885 36916
L67405 36916
" />
<path d="M67405 36916
L67405 36820
" />
<path d="M67405 36820
L68120 36820
" />
<path d="M63950 41818
L63950 41696
" />
<path d="M63950 41696
L60064 41696
" />
<path d="M60064 41696
L60064 41818
" />
<path d="M63950 42417
L63950 44685
" />
<path d="M63950 44685
L63391 44685
" />
<path d="M63391 44685
L63391 44488
" />
<path d="M63391 44488
L60624 44488
" />
<path d="M60624 44488
L60624 44685
" />
<path d="M60624 44685
L60064 44685
" />
<path d="M60064 44685
L60064 42417
" />
<path d="M54698 39903
L55909 39903
" />
<path d="M55909 39903
L55909 32474
" />
<path d="M55909 32474
L54698 32474
" />
<path d="M54102 39336
L54102 39344
" />
<path d="M54102 39344
L54299 39344
" />
<path d="M54299 39344
L54299 33033
" />
<path d="M54299 33033
L54102 33033
" />
<path d="M54102 33033
L54102 33041
" />
</g>
<g style="fill:#008484; fill-opacity:0.0; 
stroke:#008484; stroke-width:59.0551; stroke-opacity:1; 
stroke-linecap:round; stroke-linejoin:round;">
<path d="M59815 31899
L59815 31988
" />
<path d="M62669 31899
L62669 32027
" />
<path d="M62669 34753
L62669 34625
" />
<path d="M59815 34753
L59815 34625
" />
<path d="M59815 31899
L59943 31899
" />
<path d="M59815 34753
L59943 34753
" />
<path d="M62669 34753
L62541 34753
" />
<path d="M62669 31899
L62541 31899
" />
<path d="M59815 31988
L59254 31988
" />
</g>
<g style="fill:#008484; fill-opacity:0.0; 
stroke:#008484; stroke-width:47.2441; stroke-opacity:1; 
stroke-linecap:round; stroke-linejoin:round;">
<path d="M56870 32074
L56870 37035
" />
<path d="M58877 32074
L56870 32074
" />
<path d="M58877 37035
L58877 32074
" />
<path d="M68287 33452
L68287 38413
" />
<path d="M70295 33452
L68287 33452
" />
<path d="M70295 38413
L70295 33452
" />
</g>
<g style="fill:#008484; fill-opacity:0.0; 
stroke:#008484; stroke-width:59.0551; stroke-opacity:1; 
stroke-linecap:round; stroke-linejoin:round;">
<text x="65646.5" y="41615.7"
textLength="827.709" font-size="524.934" lengthAdjust="spacingAndGlyphs"
text-anchor="middle" opacity="0">D1</text>
<path d="M65355 41597
L65355 41203
L65449 41203
L65505 41222
L65543 41259
L65562 41297
L65580 41372
L65580 41428
L65562 41503
L65543 41540
L65505 41578
L65449 41597
L65355 41597
" />
<path d="M65955 41597
L65730 41597
" />
<path d="M65843 41597
L65843 41203
L65805 41259
L65768 41297
L65730 41315
" />
<g transform="rotate(-90 68056.7 30533.9)">
<text x="68056.7" y="30730.7"
textLength="845.426" font-size="524.934" lengthAdjust="spacingAndGlyphs"
text-anchor="middle" opacity="0">C9</text>
</g>
<path d="M68197 30599
L68216 30618
L68234 30674
L68234 30711
L68216 30768
L68178 30805
L68141 30824
L68066 30843
L68009 30843
L67934 30824
L67897 30805
L67859 30768
L67841 30711
L67841 30674
L67859 30618
L67878 30599
" />
<path d="M68234 30411
L68234 30337
L68216 30299
L68197 30280
L68141 30243
L68066 30224
L67916 30224
L67878 30243
L67859 30262
L67841 30299
L67841 30374
L67859 30411
L67878 30430
L67916 30449
L68009 30449
L68047 30430
L68066 30411
L68084 30374
L68084 30299
L68066 30262
L68047 30243
L68009 30224
" />
<g transform="rotate(-90 59517.3 41700)">
<text x="59517.3" y="41896.9"
textLength="751.687" font-size="524.934" lengthAdjust="spacingAndGlyphs"
text-anchor="middle" opacity="0">J5</text>
</g>
<path d="M59301 41831
L59582 41831
L59639 41849
L59676 41887
L59695 41943
L59695 41981
" />
<path d="M59301 41456
L59301 41643
L59489 41662
L59470 41643
L59451 41606
L59451 41512
L59470 41475
L59489 41456
L59526 41437
L59620 41437
L59657 41456
L59676 41475
L59695 41512
L59695 41606
L59676 41643
L59657 41662
" />
<g transform="rotate(-90 58482.7 28600)">
<text x="58482.7" y="28796.9"
textLength="751.687" font-size="524.934" lengthAdjust="spacingAndGlyphs"
text-anchor="middle" opacity="0">J4</text>
</g>
<path d="M58267 28731
L58548 28731
L58604 28749
L58642 28787
L58660 28843
L58660 28881
" />
<path d="M58398 28375
L58660 28375
" />
<path d="M58248 28468
L58529 28562
L58529 28318
" />
<g transform="rotate(-90 66271.7 39732.3)">
<text x="66271.7" y="39929.1"
textLength="751.687" font-size="524.934" lengthAdjust="spacingAndGlyphs"
text-anchor="middle" opacity="0">J1</text>
</g>
<path d="M66056 39863
L66337 39863
L66393 39882
L66431 39919
L66449 39976
L66449 40013
" />
<path d="M66449 39469
L66449 39694
" />
<path d="M66449 39582
L66056 39582
L66112 39619
L66149 39657
L66168 39694
" />
<g transform="rotate(-90 64849.6 30196.5)">
<text x="64849.6" y="30393.3"
textLength="845.426" font-size="524.934" lengthAdjust="spacingAndGlyphs"
text-anchor="middle" opacity="0">R6</text>
</g>
<path d="M65027 30262
L64840 30393
" />
<path d="M65027 30487
L64634 30487
L64634 30337
L64652 30299
L64671 30280
L64708 30262
L64765 30262
L64802 30280
L64821 30299
L64840 30337
L64840 30487
" />
<path d="M64634 29924
L64634 29999
L64652 30037
L64671 30055
L64727 30093
L64802 30112
L64952 30112
L64990 30093
L65008 30074
L65027 30037
L65027 29962
L65008 29924
L64990 29905
L64952 29887
L64858 29887
L64821 29905
L64802 29924
L64783 29962
L64783 30037
L64802 30074
L64821 30093
L64858 30112
" />
<g transform="rotate(-90 65649.6 30196.5)">
<text x="65649.6" y="30393.3"
textLength="845.426" font-size="524.934" lengthAdjust="spacingAndGlyphs"
text-anchor="middle" opacity="0">R5</text>
</g>
<path d="M65827 30262
L65640 30393
" />
<path d="M65827 30487
L65434 30487
L65434 30337
L65452 30299
L65471 30280
L65508 30262
L65565 30262
L65602 30280
L65621 30299
L65640 30337
L65640 30487
" />
<path d="M65434 29905
L65434 30093
L65621 30112
L65602 30093
L65583 30055
L65583 29962
L65602 29924
L65621 29905
L65658 29887
L65752 29887
L65790 29905
L65808 29924
L65827 29962
L65827 30055
L65808 30093
L65790 30112
" />
<g transform="rotate(-90 61673.2 38147.6)">
<text x="61673.2" y="38344.5"
textLength="845.426" font-size="524.934" lengthAdjust="spacingAndGlyphs"
text-anchor="middle" opacity="0">R4</text>
</g>
<path d="M61851 38213
L61663 38344
" />
<path d="M61851 38438
L61457 38438
L61457 38288
L61476 38250
L61495 38232
L61532 38213
L61588 38213
L61626 38232
L61645 38250
L61663 38288
L61663 38438
" />
<path d="M61588 37875
L61851 37875
" />
<path d="M61438 37969
L61720 38063
L61720 37819
" />
<g transform="rotate(-90 68449.6 41396.5)">
<text x="68449.6" y="41593.3"
textLength="845.426" font-size="524.934" lengthAdjust="spacingAndGlyphs"
text-anchor="middle" opacity="0">R2</text>
</g>
<path d="M68627 41462
L68440 41593
" />
<path d="M68627 41687
L68234 41687
L68234 41537
L68252 41499
L68271 41480
L68308 41462
L68365 41462
L68402 41480
L68421 41499
L68440 41537
L68440 41687
" />
<path d="M68271 41312
L68252 41293
L68234 41255
L68234 41162
L68252 41124
L68271 41105
L68308 41087
L68346 41087
L68402 41105
L68627 41330
L68627 41087
" />
<text x="61807.1" y="30196.9"
textLength="845.426" font-size="524.934" lengthAdjust="spacingAndGlyphs"
text-anchor="middle" opacity="0">R1</text>
<path d="M61741 30178
L61610 29990
" />
<path d="M61516 30178
L61516 29784
L61666 29784
L61703 29803
L61722 29821
L61741 29859
L61741 29915
L61722 29953
L61703 29971
L61666 29990
L61516 29990
" />
<path d="M62116 30178
L61891 30178
" />
<path d="M62003 30178
L62003 29784
L61966 29840
L61928 29878
L61891 29896
" />
<g transform="rotate(-90 68091.3 40344.1)">
<text x="68091.3" y="40540.9"
textLength="1145.39" font-size="524.934" lengthAdjust="spacingAndGlyphs"
text-anchor="middle" opacity="0">JP1</text>
</g>
<path d="M67875 40672
L68156 40672
L68213 40690
L68250 40728
L68269 40784
L68269 40822
" />
<path d="M68269 40484
L67875 40484
L67875 40334
L67894 40297
L67913 40278
L67950 40259
L68006 40259
L68044 40278
L68063 40297
L68081 40334
L68081 40484
" />
<path d="M68269 39884
L68269 40109
" />
<path d="M68269 39997
L67875 39997
L67931 40034
L67969 40072
L67988 40109
" />
<g transform="rotate(-90 61023.6 38019.7)">
<text x="61023.6" y="38216.5"
textLength="845.426" font-size="524.934" lengthAdjust="spacingAndGlyphs"
text-anchor="middle" opacity="0">D4</text>
</g>
<path d="M61201 38310
L60808 38310
L60808 38216
L60826 38160
L60864 38122
L60901 38104
L60976 38085
L61032 38085
L61107 38104
L61145 38122
L61182 38160
L61201 38216
L61201 38310
" />
<path d="M60939 37747
L61201 37747
" />
<path d="M60789 37841
L61070 37935
L61070 37691
" />
<text x="62649.6" y="30984.3"
textLength="845.426" font-size="524.934" lengthAdjust="spacingAndGlyphs"
text-anchor="middle" opacity="0">D3</text>
<path d="M62359 30965
L62359 30571
L62452 30571
L62508 30590
L62546 30628
L62565 30665
L62583 30740
L62583 30796
L62565 30871
L62546 30909
L62508 30946
L62452 30965
L62359 30965
" />
<path d="M62715 30571
L62958 30571
L62827 30721
L62883 30721
L62921 30740
L62940 30759
L62958 30796
L62958 30890
L62940 30928
L62921 30946
L62883 30965
L62771 30965
L62733 30946
L62715 30928
" />
<g transform="rotate(-90 60885.8 38147.6)">
<text x="60885.8" y="38344.5"
textLength="1220.38" font-size="524.934" lengthAdjust="spacingAndGlyphs"
text-anchor="middle" opacity="0">C14</text>
</g>
<path d="M61026 38400
L61045 38419
L61063 38475
L61063 38513
L61045 38569
L61007 38606
L60970 38625
L60895 38644
L60838 38644
L60763 38625
L60726 38606
L60688 38569
L60670 38513
L60670 38475
L60688 38419
L60707 38400
" />
<path d="M61063 38025
L61063 38250
" />
<path d="M61063 38138
L60670 38138
L60726 38175
L60763 38213
L60782 38250
" />
<path d="M60801 37688
L61063 37688
" />
<path d="M60651 37782
L60932 37875
L60932 37632
" />
<text x="61807.1" y="30996.9"
textLength="1220.38" font-size="524.934" lengthAdjust="spacingAndGlyphs"
text-anchor="middle" opacity="0">C12</text>
<path d="M61553 30940
L61535 30959
L61479 30978
L61441 30978
L61385 30959
L61347 30921
L61329 30884
L61310 30809
L61310 30753
L61329 30678
L61347 30640
L61385 30603
L61441 30584
L61479 30584
L61535 30603
L61553 30621
" />
<path d="M61928 30978
L61703 30978
" />
<path d="M61816 30978
L61816 30584
L61778 30640
L61741 30678
L61703 30696
" />
<path d="M62078 30621
L62097 30603
L62135 30584
L62228 30584
L62266 30603
L62285 30621
L62303 30659
L62303 30696
L62285 30753
L62060 30978
L62303 30978
" />
<text x="64603.5" y="31147.2"
textLength="1220.38" font-size="524.934" lengthAdjust="spacingAndGlyphs"
text-anchor="middle" opacity="0">C11</text>
<path d="M64350 31091
L64331 31109
L64275 31128
L64237 31128
L64181 31109
L64144 31072
L64125 31034
L64106 30959
L64106 30903
L64125 30828
L64144 30791
L64181 30753
L64237 30734
L64275 30734
L64331 30753
L64350 30772
" />
<path d="M64725 31128
L64500 31128
" />
<path d="M64612 31128
L64612 30734
L64575 30791
L64537 30828
L64500 30847
" />
<path d="M65100 31128
L64875 31128
" />
<path d="M64987 31128
L64987 30734
L64950 30791
L64912 30828
L64875 30847
" />
<text x="65738.2" y="40747.2"
textLength="845.426" font-size="524.934" lengthAdjust="spacingAndGlyphs"
text-anchor="middle" opacity="0">C8</text>
<path d="M65672 40691
L65653 40709
L65597 40728
L65560 40728
L65503 40709
L65466 40672
L65447 40634
L65428 40559
L65428 40503
L65447 40428
L65466 40391
L65503 40353
L65560 40334
L65597 40334
L65653 40353
L65672 40372
" />
<path d="M65897 40503
L65860 40484
L65841 40466
L65822 40428
L65822 40409
L65841 40372
L65860 40353
L65897 40334
L65972 40334
L66010 40353
L66028 40372
L66047 40409
L66047 40428
L66028 40466
L66010 40484
L65972 40503
L65897 40503
L65860 40522
L65841 40541
L65822 40578
L65822 40653
L65841 40691
L65860 40709
L65897 40728
L65972 40728
L66010 40709
L66028 40691
L66047 40653
L66047 40578
L66028 40541
L66010 40522
L65972 40503
" />
<g transform="rotate(-90 63350.4 37796.5)">
<text x="63350.4" y="37993.3"
textLength="845.426" font-size="524.934" lengthAdjust="spacingAndGlyphs"
text-anchor="middle" opacity="0">C7</text>
</g>
<path d="M63491 37862
L63509 37880
L63528 37937
L63528 37974
L63509 38030
L63472 38068
L63434 38087
L63359 38105
L63303 38105
L63228 38087
L63191 38068
L63153 38030
L63134 37974
L63134 37937
L63153 37880
L63172 37862
" />
<path d="M63134 37730
L63134 37468
L63528 37637
" />
<g transform="rotate(-90 57950.4 31196.5)">
<text x="57950.4" y="31393.3"
textLength="845.426" font-size="524.934" lengthAdjust="spacingAndGlyphs"
text-anchor="middle" opacity="0">C6</text>
</g>
<path d="M58091 31262
L58109 31280
L58128 31337
L58128 31374
L58109 31430
L58072 31468
L58034 31487
L57959 31505
L57903 31505
L57828 31487
L57791 31468
L57753 31430
L57734 31374
L57734 31337
L57753 31280
L57772 31262
" />
<path d="M57734 30924
L57734 30999
L57753 31037
L57772 31055
L57828 31093
L57903 31112
L58053 31112
L58091 31093
L58109 31074
L58128 31037
L58128 30962
L58109 30924
L58091 30905
L58053 30887
L57959 30887
L57922 30905
L57903 30924
L57884 30962
L57884 31037
L57903 31074
L57922 31093
L57959 31112
" />
<text x="57192.9" y="29596.9"
textLength="845.426" font-size="524.934" lengthAdjust="spacingAndGlyphs"
text-anchor="middle" opacity="0">C5</text>
<path d="M57127 29540
L57108 29559
L57052 29578
L57014 29578
L56958 29559
L56921 29521
L56902 29484
L56883 29409
L56883 29353
L56902 29278
L56921 29240
L56958 29203
L57014 29184
L57052 29184
L57108 29203
L57127 29221
" />
<path d="M57483 29184
L57296 29184
L57277 29371
L57296 29353
L57333 29334
L57427 29334
L57464 29353
L57483 29371
L57502 29409
L57502 29503
L57483 29540
L57464 29559
L57427 29578
L57333 29578
L57296 29559
L57277 29540
" />
<text x="69196.5" y="38747.2"
textLength="845.426" font-size="524.934" lengthAdjust="spacingAndGlyphs"
text-anchor="middle" opacity="0">C4</text>
<path d="M69130 38691
L69112 38709
L69055 38728
L69018 38728
L68962 38709
L68924 38672
L68905 38634
L68887 38559
L68887 38503
L68905 38428
L68924 38391
L68962 38353
L69018 38334
L69055 38334
L69112 38353
L69130 38372
" />
<path d="M69468 38466
L69468 38728
" />
<path d="M69374 38316
L69280 38597
L69524 38597
" />
<g transform="rotate(-90 68350.4 32596.5)">
<text x="68350.4" y="32793.3"
textLength="845.426" font-size="524.934" lengthAdjust="spacingAndGlyphs"
text-anchor="middle" opacity="0">C3</text>
</g>
<path d="M68491 32662
L68509 32680
L68528 32737
L68528 32774
L68509 32830
L68472 32868
L68434 32887
L68359 32905
L68303 32905
L68228 32887
L68191 32868
L68153 32830
L68134 32774
L68134 32737
L68153 32680
L68172 32662
" />
<path d="M68134 32530
L68134 32287
L68284 32418
L68284 32362
L68303 32324
L68322 32305
L68359 32287
L68453 32287
L68491 32305
L68509 32324
L68528 32362
L68528 32474
L68509 32512
L68491 32530
" />
<text x="58196.5" y="38846.5"
textLength="845.426" font-size="524.934" lengthAdjust="spacingAndGlyphs"
text-anchor="middle" opacity="0">C2</text>
<path d="M58130 38790
L58112 38808
L58055 38827
L58018 38827
L57962 38808
L57924 38771
L57905 38733
L57887 38658
L57887 38602
L57905 38527
L57924 38490
L57962 38452
L58018 38434
L58055 38434
L58112 38452
L58130 38471
" />
<path d="M58280 38471
L58299 38452
L58337 38434
L58430 38434
L58468 38452
L58487 38471
L58505 38508
L58505 38546
L58487 38602
L58262 38827
L58505 38827
" />
<text x="57396.5" y="32446.5"
textLength="845.426" font-size="524.934" lengthAdjust="spacingAndGlyphs"
text-anchor="middle" opacity="0">C1</text>
<path d="M57330 32390
L57312 32408
L57255 32427
L57218 32427
L57162 32408
L57124 32371
L57105 32333
L57087 32258
L57087 32202
L57105 32127
L57124 32090
L57162 32052
L57218 32034
L57255 32034
L57312 32052
L57330 32071
" />
<path d="M57705 32427
L57480 32427
" />
<path d="M57593 32427
L57593 32034
L57555 32090
L57518 32127
L57480 32146
" />
<g transform="rotate(-90 68388.6 39174.4)">
<text x="68388.6" y="39371.3"
textLength="864.173" font-size="524.934" lengthAdjust="spacingAndGlyphs"
text-anchor="middle" opacity="0">U3</text>
</g>
<path d="M68172 39474
L68491 39474
L68529 39455
L68547 39436
L68566 39399
L68566 39324
L68547 39286
L68529 39268
L68491 39249
L68172 39249
" />
<path d="M68172 39099
L68172 38855
L68322 38986
L68322 38930
L68341 38893
L68360 38874
L68397 38855
L68491 38855
L68529 38874
L68547 38893
L68566 38930
L68566 39043
L68547 39080
L68529 39099
" />
<text x="65885.8" y="37442.5"
textLength="864.173" font-size="524.934" lengthAdjust="spacingAndGlyphs"
text-anchor="middle" opacity="0">U2</text>
<path d="M65585 37030
L65585 37348
L65604 37386
L65623 37405
L65660 37423
L65735 37423
L65773 37405
L65792 37386
L65810 37348
L65810 37030
" />
<path d="M65979 37067
L65998 37048
L66035 37030
L66129 37030
L66167 37048
L66185 37067
L66204 37105
L66204 37142
L66185 37198
L65960 37423
L66204 37423
" />
<text x="62167.3" y="45016.1"
textLength="751.687" font-size="524.934" lengthAdjust="spacingAndGlyphs"
text-anchor="middle" opacity="0">J3</text>
<path d="M62036 44603
L62036 44884
L62017 44941
L61979 44978
L61923 44997
L61886 44997
" />
<path d="M62186 44603
L62429 44603
L62298 44753
L62354 44753
L62392 44772
L62411 44791
L62429 44828
L62429 44922
L62411 44959
L62392 44978
L62354 44997
L62242 44997
L62204 44978
L62186 44959
" />
<g transform="rotate(-90 56268.1 36976.8)">
<text x="56268.1" y="37173.6"
textLength="751.687" font-size="524.934" lengthAdjust="spacingAndGlyphs"
text-anchor="middle" opacity="0">J2</text>
</g>
<path d="M56052 37108
L56333 37108
L56389 37126
L56427 37164
L56446 37220
L56446 37257
" />
<path d="M56090 36939
L56071 36920
L56052 36883
L56052 36789
L56071 36751
L56090 36733
L56127 36714
L56164 36714
L56221 36733
L56446 36958
L56446 36714
" />
<text x="62892.5" y="31273.6"
textLength="864.173" font-size="524.934" lengthAdjust="spacingAndGlyphs"
text-anchor="middle" opacity="0">U1</text>
<path d="M62592 30861
L62592 31179
L62611 31217
L62630 31236
L62667 31254
L62742 31254
L62780 31236
L62798 31217
L62817 31179
L62817 30861
" />
<path d="M63211 31254
L62986 31254
" />
<path d="M63098 31254
L63098 30861
L63061 30917
L63023 30954
L62986 30973
" />
<g transform="rotate(-90 59271.7 34712.6)">
<text x="59271.7" y="34909.4"
textLength="789.183" font-size="524.934" lengthAdjust="spacingAndGlyphs"
text-anchor="middle" opacity="0">Y1</text>
</g>
<path d="M59262 34900
L59449 34900
" />
<path d="M59056 35031
L59262 34900
L59056 34768
" />
<path d="M59449 34431
L59449 34656
" />
<path d="M59449 34543
L59056 34543
L59112 34581
L59149 34618
L59168 34656
" />
<g transform="rotate(-90 70689 36090.6)">
<text x="70689" y="36287.4"
textLength="789.183" font-size="524.934" lengthAdjust="spacingAndGlyphs"
text-anchor="middle" opacity="0">Y2</text>
</g>
<path d="M70679 36278
L70867 36278
" />
<path d="M70473 36409
L70679 36278
L70473 36146
" />
<path d="M70510 36034
L70492 36015
L70473 35978
L70473 35884
L70492 35846
L70510 35828
L70548 35809
L70585 35809
L70642 35828
L70867 36053
L70867 35809
" />
<g >
</g>
</g>
<g style="fill:#000000; fill-opacity:0.0; 
stroke:#000000; stroke-width:59.0551; stroke-opacity:1; 
stroke-linecap:round; stroke-linejoin:round;">
</g>
<g style="fill:#C2C200; fill-opacity:0.0; 
stroke:#C2C200; stroke-width:59.0551; stroke-opacity:1; 
stroke-linecap:round; stroke-linejoin:round;">
</g>
<g style="fill:#C2C200; fill-opacity:0.0; 
stroke:#C2C200; stroke-width:19.685; stroke-opacity:1; 
stroke-linecap:round; stroke-linejoin:round;">
<circle cx="61811" cy="36189" r="9055.12" /> 
<g >
</g>
<g >
</g>
<g >
</g>
<g >
</g>
<g >
</g>
<g >
</g>
<g >
</g>
<g >
</g>
<g >
</g>
<g >
</g>
<g >
</g>
<g >
</g>
<g >
</g>
<g >
</g>
<g >
</g>
<g >
</g>
<g >
</g>
<g >
</g>
<g >
</g>
<g >
</g>
<g >
</g>
<g >
</g>
<g >
</g>
<g >
</g>
<g >
</g>
<g >
</g>
<g >
</g>
<g >
</g>
<g >
</g>
<g >
</g>
<g >
</g>
<g >
</g>
</g> 
</svg>
