M48
; DRILL file {KiCad 7.0.2-0} date 2023 May 23, Tuesday 19:49:31
; FORMAT={3:3/ absolute / metric / suppress leading zeros}
; #@! TF.CreationDate,2023-05-23T19:49:31+02:00
; #@! TF.GenerationSoftware,Kicad,Pcbnew,7.0.2-0
; #@! TF.FileFunction,MixedPlating,1,2
FMAT,2
METRIC,TZ
; #@! TA.AperFunction,Plated,PTH,ComponentDrill
T1C0.500
; #@! TA.AperFunction,Plated,PTH,ComponentDrill
T2C0.780
; #@! TA.AperFunction,Plated,PTH,ComponentDrill
T3C0.900
; #@! TA.AperFunction,Plated,PTH,ComponentDrill
T4C1.000
; #@! TA.AperFunction,Plated,PTH,ComponentDrill
T5C3.200
; #@! TA.AperFunction,NonPlated,NPTH,ComponentDrill
T6C0.500
%
G90
G05
T1
X119266Y-123444
X119969Y-121747
X119969Y-125141
X121666Y-121044
X121666Y-125844
X123363Y-121747
X123363Y-125141
X124066Y-123444
X170066Y-85852
X170769Y-84155
X170769Y-87549
X172466Y-83452
X172466Y-88252
X174163Y-84155
X174163Y-87549
X174866Y-85852
X181266Y-123444
X181969Y-121747
X181969Y-125141
X183666Y-121044
X183666Y-125844
X185363Y-121747
X185363Y-125141
X186066Y-123444
X232066Y-85852
X232769Y-84155
X232769Y-87549
X234466Y-83452
X234466Y-88252
X236163Y-84155
X236163Y-87549
X236866Y-85852
T2
X130556Y-86360
X130556Y-124460
X133096Y-86360
X133096Y-124460
X135636Y-86360
X138176Y-86360
X140716Y-86360
X143256Y-86360
X145796Y-86360
X148336Y-86360
X150876Y-86360
X153416Y-86360
X155956Y-86360
X158496Y-86360
X161036Y-86360
X161036Y-124460
X163576Y-86360
X163576Y-124460
X192556Y-86360
X192556Y-124460
X195096Y-86360
X195096Y-124460
X197636Y-86360
X200176Y-86360
X202716Y-86360
X205256Y-86360
X207796Y-86360
X210336Y-86360
X212876Y-86360
X215416Y-86360
X217956Y-86360
X220496Y-86360
X223036Y-86360
X223036Y-124460
X225576Y-86360
X225576Y-124460
T3
X120460Y-112800
X122960Y-107800
X125460Y-112800
X182460Y-112800
X184960Y-107800
X187460Y-112800
T4
X148590Y-116586
X148590Y-119126
X151130Y-116586
X151130Y-119126
X153670Y-116586
X153670Y-119126
X156210Y-116586
X156210Y-119126
X158750Y-116586
X158750Y-119126
X161290Y-116586
X161290Y-119126
X163830Y-116586
X163830Y-119126
X166370Y-116586
X166370Y-119126
X168910Y-116586
X168910Y-119126
X171450Y-116586
X171450Y-119126
X210590Y-116586
X210590Y-119126
X213130Y-116586
X213130Y-119126
X215670Y-116586
X215670Y-119126
X218210Y-116586
X218210Y-119126
X220750Y-116586
X220750Y-119126
X223290Y-116586
X223290Y-119126
X225830Y-116586
X225830Y-119126
X228370Y-116586
X228370Y-119126
X230910Y-116586
X230910Y-119126
X233450Y-116586
X233450Y-119126
T5
X121666Y-123444
X172466Y-85852
X183666Y-123444
X234466Y-85852
T6
X122460Y-82550
X122460Y-126750
X123260Y-82800
X123260Y-126500
X123960Y-82800
X123960Y-126500
X124760Y-82550
X124760Y-126750
X169460Y-82550
X169460Y-126750
X170260Y-82800
X170260Y-126500
X170960Y-82800
X170960Y-126500
X171760Y-82550
X171760Y-126750
X184460Y-82550
X184460Y-126750
X185260Y-82800
X185260Y-126500
X185960Y-82800
X185960Y-126500
X186760Y-82550
X186760Y-126750
X231460Y-82550
X231460Y-126750
X232260Y-82800
X232260Y-126500
X232960Y-82800
X232960Y-126500
X233760Y-82550
X233760Y-126750
T0
M30
