G04 #@! TF.GenerationSoftware,KiCad,Pcbnew,7.0.2-0*
G04 #@! TF.CreationDate,2023-05-23T19:49:29+02:00*
G04 #@! TF.ProjectId,dogs102,646f6773-3130-4322-9e6b-696361645f70,rev?*
G04 #@! TF.SameCoordinates,Original*
G04 #@! TF.FileFunction,Legend,Top*
G04 #@! TF.FilePolarity,Positive*
%FSLAX46Y46*%
G04 Gerber Fmt 4.6, Leading zero omitted, Abs format (unit mm)*
G04 Created by KiCad (PCBNEW 7.0.2-0) date 2023-05-23 19:49:29*
%MOMM*%
%LPD*%
G01*
G04 APERTURE LIST*
%ADD10C,0.150000*%
%ADD11C,0.254000*%
%ADD12C,0.120000*%
%ADD13C,0.100000*%
G04 APERTURE END LIST*
D10*
X159477380Y-94796166D02*
X159525000Y-94843785D01*
X159525000Y-94843785D02*
X159572619Y-94986642D01*
X159572619Y-94986642D02*
X159572619Y-95081880D01*
X159572619Y-95081880D02*
X159525000Y-95224737D01*
X159525000Y-95224737D02*
X159429761Y-95319975D01*
X159429761Y-95319975D02*
X159334523Y-95367594D01*
X159334523Y-95367594D02*
X159144047Y-95415213D01*
X159144047Y-95415213D02*
X159001190Y-95415213D01*
X159001190Y-95415213D02*
X158810714Y-95367594D01*
X158810714Y-95367594D02*
X158715476Y-95319975D01*
X158715476Y-95319975D02*
X158620238Y-95224737D01*
X158620238Y-95224737D02*
X158572619Y-95081880D01*
X158572619Y-95081880D02*
X158572619Y-94986642D01*
X158572619Y-94986642D02*
X158620238Y-94843785D01*
X158620238Y-94843785D02*
X158667857Y-94796166D01*
X158667857Y-94415213D02*
X158620238Y-94367594D01*
X158620238Y-94367594D02*
X158572619Y-94272356D01*
X158572619Y-94272356D02*
X158572619Y-94034261D01*
X158572619Y-94034261D02*
X158620238Y-93939023D01*
X158620238Y-93939023D02*
X158667857Y-93891404D01*
X158667857Y-93891404D02*
X158763095Y-93843785D01*
X158763095Y-93843785D02*
X158858333Y-93843785D01*
X158858333Y-93843785D02*
X159001190Y-93891404D01*
X159001190Y-93891404D02*
X159572619Y-94462832D01*
X159572619Y-94462832D02*
X159572619Y-93843785D01*
X163877380Y-94766666D02*
X163925000Y-94814285D01*
X163925000Y-94814285D02*
X163972619Y-94957142D01*
X163972619Y-94957142D02*
X163972619Y-95052380D01*
X163972619Y-95052380D02*
X163925000Y-95195237D01*
X163925000Y-95195237D02*
X163829761Y-95290475D01*
X163829761Y-95290475D02*
X163734523Y-95338094D01*
X163734523Y-95338094D02*
X163544047Y-95385713D01*
X163544047Y-95385713D02*
X163401190Y-95385713D01*
X163401190Y-95385713D02*
X163210714Y-95338094D01*
X163210714Y-95338094D02*
X163115476Y-95290475D01*
X163115476Y-95290475D02*
X163020238Y-95195237D01*
X163020238Y-95195237D02*
X162972619Y-95052380D01*
X162972619Y-95052380D02*
X162972619Y-94957142D01*
X162972619Y-94957142D02*
X163020238Y-94814285D01*
X163020238Y-94814285D02*
X163067857Y-94766666D01*
X162972619Y-94433332D02*
X162972619Y-93814285D01*
X162972619Y-93814285D02*
X163353571Y-94147618D01*
X163353571Y-94147618D02*
X163353571Y-94004761D01*
X163353571Y-94004761D02*
X163401190Y-93909523D01*
X163401190Y-93909523D02*
X163448809Y-93861904D01*
X163448809Y-93861904D02*
X163544047Y-93814285D01*
X163544047Y-93814285D02*
X163782142Y-93814285D01*
X163782142Y-93814285D02*
X163877380Y-93861904D01*
X163877380Y-93861904D02*
X163925000Y-93909523D01*
X163925000Y-93909523D02*
X163972619Y-94004761D01*
X163972619Y-94004761D02*
X163972619Y-94290475D01*
X163972619Y-94290475D02*
X163925000Y-94385713D01*
X163925000Y-94385713D02*
X163877380Y-94433332D01*
X155677380Y-94766666D02*
X155725000Y-94814285D01*
X155725000Y-94814285D02*
X155772619Y-94957142D01*
X155772619Y-94957142D02*
X155772619Y-95052380D01*
X155772619Y-95052380D02*
X155725000Y-95195237D01*
X155725000Y-95195237D02*
X155629761Y-95290475D01*
X155629761Y-95290475D02*
X155534523Y-95338094D01*
X155534523Y-95338094D02*
X155344047Y-95385713D01*
X155344047Y-95385713D02*
X155201190Y-95385713D01*
X155201190Y-95385713D02*
X155010714Y-95338094D01*
X155010714Y-95338094D02*
X154915476Y-95290475D01*
X154915476Y-95290475D02*
X154820238Y-95195237D01*
X154820238Y-95195237D02*
X154772619Y-95052380D01*
X154772619Y-95052380D02*
X154772619Y-94957142D01*
X154772619Y-94957142D02*
X154820238Y-94814285D01*
X154820238Y-94814285D02*
X154867857Y-94766666D01*
X155772619Y-93814285D02*
X155772619Y-94385713D01*
X155772619Y-94099999D02*
X154772619Y-94099999D01*
X154772619Y-94099999D02*
X154915476Y-94195237D01*
X154915476Y-94195237D02*
X155010714Y-94290475D01*
X155010714Y-94290475D02*
X155058333Y-94385713D01*
X120904095Y-119706619D02*
X120904095Y-118706619D01*
X120904095Y-119182809D02*
X121475523Y-119182809D01*
X121475523Y-119706619D02*
X121475523Y-118706619D01*
X122475523Y-119706619D02*
X121904095Y-119706619D01*
X122189809Y-119706619D02*
X122189809Y-118706619D01*
X122189809Y-118706619D02*
X122094571Y-118849476D01*
X122094571Y-118849476D02*
X121999333Y-118944714D01*
X121999333Y-118944714D02*
X121904095Y-118992333D01*
X171704095Y-82114619D02*
X171704095Y-81114619D01*
X171704095Y-81590809D02*
X172275523Y-81590809D01*
X172275523Y-82114619D02*
X172275523Y-81114619D01*
X172704095Y-81209857D02*
X172751714Y-81162238D01*
X172751714Y-81162238D02*
X172846952Y-81114619D01*
X172846952Y-81114619D02*
X173085047Y-81114619D01*
X173085047Y-81114619D02*
X173180285Y-81162238D01*
X173180285Y-81162238D02*
X173227904Y-81209857D01*
X173227904Y-81209857D02*
X173275523Y-81305095D01*
X173275523Y-81305095D02*
X173275523Y-81400333D01*
X173275523Y-81400333D02*
X173227904Y-81543190D01*
X173227904Y-81543190D02*
X172656476Y-82114619D01*
X172656476Y-82114619D02*
X173275523Y-82114619D01*
X146443333Y-91017380D02*
X146395714Y-91065000D01*
X146395714Y-91065000D02*
X146252857Y-91112619D01*
X146252857Y-91112619D02*
X146157619Y-91112619D01*
X146157619Y-91112619D02*
X146014762Y-91065000D01*
X146014762Y-91065000D02*
X145919524Y-90969761D01*
X145919524Y-90969761D02*
X145871905Y-90874523D01*
X145871905Y-90874523D02*
X145824286Y-90684047D01*
X145824286Y-90684047D02*
X145824286Y-90541190D01*
X145824286Y-90541190D02*
X145871905Y-90350714D01*
X145871905Y-90350714D02*
X145919524Y-90255476D01*
X145919524Y-90255476D02*
X146014762Y-90160238D01*
X146014762Y-90160238D02*
X146157619Y-90112619D01*
X146157619Y-90112619D02*
X146252857Y-90112619D01*
X146252857Y-90112619D02*
X146395714Y-90160238D01*
X146395714Y-90160238D02*
X146443333Y-90207857D01*
X147300476Y-90445952D02*
X147300476Y-91112619D01*
X147062381Y-90065000D02*
X146824286Y-90779285D01*
X146824286Y-90779285D02*
X147443333Y-90779285D01*
X171451333Y-90901380D02*
X171403714Y-90949000D01*
X171403714Y-90949000D02*
X171260857Y-90996619D01*
X171260857Y-90996619D02*
X171165619Y-90996619D01*
X171165619Y-90996619D02*
X171022762Y-90949000D01*
X171022762Y-90949000D02*
X170927524Y-90853761D01*
X170927524Y-90853761D02*
X170879905Y-90758523D01*
X170879905Y-90758523D02*
X170832286Y-90568047D01*
X170832286Y-90568047D02*
X170832286Y-90425190D01*
X170832286Y-90425190D02*
X170879905Y-90234714D01*
X170879905Y-90234714D02*
X170927524Y-90139476D01*
X170927524Y-90139476D02*
X171022762Y-90044238D01*
X171022762Y-90044238D02*
X171165619Y-89996619D01*
X171165619Y-89996619D02*
X171260857Y-89996619D01*
X171260857Y-89996619D02*
X171403714Y-90044238D01*
X171403714Y-90044238D02*
X171451333Y-90091857D01*
X172022762Y-90425190D02*
X171927524Y-90377571D01*
X171927524Y-90377571D02*
X171879905Y-90329952D01*
X171879905Y-90329952D02*
X171832286Y-90234714D01*
X171832286Y-90234714D02*
X171832286Y-90187095D01*
X171832286Y-90187095D02*
X171879905Y-90091857D01*
X171879905Y-90091857D02*
X171927524Y-90044238D01*
X171927524Y-90044238D02*
X172022762Y-89996619D01*
X172022762Y-89996619D02*
X172213238Y-89996619D01*
X172213238Y-89996619D02*
X172308476Y-90044238D01*
X172308476Y-90044238D02*
X172356095Y-90091857D01*
X172356095Y-90091857D02*
X172403714Y-90187095D01*
X172403714Y-90187095D02*
X172403714Y-90234714D01*
X172403714Y-90234714D02*
X172356095Y-90329952D01*
X172356095Y-90329952D02*
X172308476Y-90377571D01*
X172308476Y-90377571D02*
X172213238Y-90425190D01*
X172213238Y-90425190D02*
X172022762Y-90425190D01*
X172022762Y-90425190D02*
X171927524Y-90472809D01*
X171927524Y-90472809D02*
X171879905Y-90520428D01*
X171879905Y-90520428D02*
X171832286Y-90615666D01*
X171832286Y-90615666D02*
X171832286Y-90806142D01*
X171832286Y-90806142D02*
X171879905Y-90901380D01*
X171879905Y-90901380D02*
X171927524Y-90949000D01*
X171927524Y-90949000D02*
X172022762Y-90996619D01*
X172022762Y-90996619D02*
X172213238Y-90996619D01*
X172213238Y-90996619D02*
X172308476Y-90949000D01*
X172308476Y-90949000D02*
X172356095Y-90901380D01*
X172356095Y-90901380D02*
X172403714Y-90806142D01*
X172403714Y-90806142D02*
X172403714Y-90615666D01*
X172403714Y-90615666D02*
X172356095Y-90520428D01*
X172356095Y-90520428D02*
X172308476Y-90472809D01*
X172308476Y-90472809D02*
X172213238Y-90425190D01*
X170188833Y-102857380D02*
X170141214Y-102905000D01*
X170141214Y-102905000D02*
X169998357Y-102952619D01*
X169998357Y-102952619D02*
X169903119Y-102952619D01*
X169903119Y-102952619D02*
X169760262Y-102905000D01*
X169760262Y-102905000D02*
X169665024Y-102809761D01*
X169665024Y-102809761D02*
X169617405Y-102714523D01*
X169617405Y-102714523D02*
X169569786Y-102524047D01*
X169569786Y-102524047D02*
X169569786Y-102381190D01*
X169569786Y-102381190D02*
X169617405Y-102190714D01*
X169617405Y-102190714D02*
X169665024Y-102095476D01*
X169665024Y-102095476D02*
X169760262Y-102000238D01*
X169760262Y-102000238D02*
X169903119Y-101952619D01*
X169903119Y-101952619D02*
X169998357Y-101952619D01*
X169998357Y-101952619D02*
X170141214Y-102000238D01*
X170141214Y-102000238D02*
X170188833Y-102047857D01*
X170665024Y-102952619D02*
X170855500Y-102952619D01*
X170855500Y-102952619D02*
X170950738Y-102905000D01*
X170950738Y-102905000D02*
X170998357Y-102857380D01*
X170998357Y-102857380D02*
X171093595Y-102714523D01*
X171093595Y-102714523D02*
X171141214Y-102524047D01*
X171141214Y-102524047D02*
X171141214Y-102143095D01*
X171141214Y-102143095D02*
X171093595Y-102047857D01*
X171093595Y-102047857D02*
X171045976Y-102000238D01*
X171045976Y-102000238D02*
X170950738Y-101952619D01*
X170950738Y-101952619D02*
X170760262Y-101952619D01*
X170760262Y-101952619D02*
X170665024Y-102000238D01*
X170665024Y-102000238D02*
X170617405Y-102047857D01*
X170617405Y-102047857D02*
X170569786Y-102143095D01*
X170569786Y-102143095D02*
X170569786Y-102381190D01*
X170569786Y-102381190D02*
X170617405Y-102476428D01*
X170617405Y-102476428D02*
X170665024Y-102524047D01*
X170665024Y-102524047D02*
X170760262Y-102571666D01*
X170760262Y-102571666D02*
X170950738Y-102571666D01*
X170950738Y-102571666D02*
X171045976Y-102524047D01*
X171045976Y-102524047D02*
X171093595Y-102476428D01*
X171093595Y-102476428D02*
X171141214Y-102381190D01*
X170829905Y-97284619D02*
X170829905Y-96284619D01*
X170829905Y-96284619D02*
X171068000Y-96284619D01*
X171068000Y-96284619D02*
X171210857Y-96332238D01*
X171210857Y-96332238D02*
X171306095Y-96427476D01*
X171306095Y-96427476D02*
X171353714Y-96522714D01*
X171353714Y-96522714D02*
X171401333Y-96713190D01*
X171401333Y-96713190D02*
X171401333Y-96856047D01*
X171401333Y-96856047D02*
X171353714Y-97046523D01*
X171353714Y-97046523D02*
X171306095Y-97141761D01*
X171306095Y-97141761D02*
X171210857Y-97237000D01*
X171210857Y-97237000D02*
X171068000Y-97284619D01*
X171068000Y-97284619D02*
X170829905Y-97284619D01*
X172353714Y-97284619D02*
X171782286Y-97284619D01*
X172068000Y-97284619D02*
X172068000Y-96284619D01*
X172068000Y-96284619D02*
X171972762Y-96427476D01*
X171972762Y-96427476D02*
X171877524Y-96522714D01*
X171877524Y-96522714D02*
X171782286Y-96570333D01*
X129368619Y-121104166D02*
X128892428Y-121437499D01*
X129368619Y-121675594D02*
X128368619Y-121675594D01*
X128368619Y-121675594D02*
X128368619Y-121294642D01*
X128368619Y-121294642D02*
X128416238Y-121199404D01*
X128416238Y-121199404D02*
X128463857Y-121151785D01*
X128463857Y-121151785D02*
X128559095Y-121104166D01*
X128559095Y-121104166D02*
X128701952Y-121104166D01*
X128701952Y-121104166D02*
X128797190Y-121151785D01*
X128797190Y-121151785D02*
X128844809Y-121199404D01*
X128844809Y-121199404D02*
X128892428Y-121294642D01*
X128892428Y-121294642D02*
X128892428Y-121675594D01*
X129368619Y-120151785D02*
X129368619Y-120723213D01*
X129368619Y-120437499D02*
X128368619Y-120437499D01*
X128368619Y-120437499D02*
X128511476Y-120532737D01*
X128511476Y-120532737D02*
X128606714Y-120627975D01*
X128606714Y-120627975D02*
X128654333Y-120723213D01*
X132422619Y-121104166D02*
X131946428Y-121437499D01*
X132422619Y-121675594D02*
X131422619Y-121675594D01*
X131422619Y-121675594D02*
X131422619Y-121294642D01*
X131422619Y-121294642D02*
X131470238Y-121199404D01*
X131470238Y-121199404D02*
X131517857Y-121151785D01*
X131517857Y-121151785D02*
X131613095Y-121104166D01*
X131613095Y-121104166D02*
X131755952Y-121104166D01*
X131755952Y-121104166D02*
X131851190Y-121151785D01*
X131851190Y-121151785D02*
X131898809Y-121199404D01*
X131898809Y-121199404D02*
X131946428Y-121294642D01*
X131946428Y-121294642D02*
X131946428Y-121675594D01*
X131517857Y-120723213D02*
X131470238Y-120675594D01*
X131470238Y-120675594D02*
X131422619Y-120580356D01*
X131422619Y-120580356D02*
X131422619Y-120342261D01*
X131422619Y-120342261D02*
X131470238Y-120247023D01*
X131470238Y-120247023D02*
X131517857Y-120199404D01*
X131517857Y-120199404D02*
X131613095Y-120151785D01*
X131613095Y-120151785D02*
X131708333Y-120151785D01*
X131708333Y-120151785D02*
X131851190Y-120199404D01*
X131851190Y-120199404D02*
X132422619Y-120770832D01*
X132422619Y-120770832D02*
X132422619Y-120151785D01*
D11*
X145070206Y-106012486D02*
X145070206Y-104742486D01*
X145070206Y-104742486D02*
X145372587Y-104742486D01*
X145372587Y-104742486D02*
X145554016Y-104802962D01*
X145554016Y-104802962D02*
X145674968Y-104923914D01*
X145674968Y-104923914D02*
X145735445Y-105044867D01*
X145735445Y-105044867D02*
X145795921Y-105286771D01*
X145795921Y-105286771D02*
X145795921Y-105468200D01*
X145795921Y-105468200D02*
X145735445Y-105710105D01*
X145735445Y-105710105D02*
X145674968Y-105831057D01*
X145674968Y-105831057D02*
X145554016Y-105952010D01*
X145554016Y-105952010D02*
X145372587Y-106012486D01*
X145372587Y-106012486D02*
X145070206Y-106012486D01*
X146279730Y-105952010D02*
X146461159Y-106012486D01*
X146461159Y-106012486D02*
X146763540Y-106012486D01*
X146763540Y-106012486D02*
X146884492Y-105952010D01*
X146884492Y-105952010D02*
X146944968Y-105891533D01*
X146944968Y-105891533D02*
X147005445Y-105770581D01*
X147005445Y-105770581D02*
X147005445Y-105649629D01*
X147005445Y-105649629D02*
X146944968Y-105528676D01*
X146944968Y-105528676D02*
X146884492Y-105468200D01*
X146884492Y-105468200D02*
X146763540Y-105407724D01*
X146763540Y-105407724D02*
X146521635Y-105347248D01*
X146521635Y-105347248D02*
X146400683Y-105286771D01*
X146400683Y-105286771D02*
X146340206Y-105226295D01*
X146340206Y-105226295D02*
X146279730Y-105105343D01*
X146279730Y-105105343D02*
X146279730Y-104984390D01*
X146279730Y-104984390D02*
X146340206Y-104863438D01*
X146340206Y-104863438D02*
X146400683Y-104802962D01*
X146400683Y-104802962D02*
X146521635Y-104742486D01*
X146521635Y-104742486D02*
X146824016Y-104742486D01*
X146824016Y-104742486D02*
X147005445Y-104802962D01*
X148214969Y-106012486D02*
X147489254Y-106012486D01*
X147852111Y-106012486D02*
X147852111Y-104742486D01*
X147852111Y-104742486D02*
X147731159Y-104923914D01*
X147731159Y-104923914D02*
X147610207Y-105044867D01*
X147610207Y-105044867D02*
X147489254Y-105105343D01*
D10*
X128426666Y-114262619D02*
X128426666Y-114976904D01*
X128426666Y-114976904D02*
X128379047Y-115119761D01*
X128379047Y-115119761D02*
X128283809Y-115215000D01*
X128283809Y-115215000D02*
X128140952Y-115262619D01*
X128140952Y-115262619D02*
X128045714Y-115262619D01*
X128902857Y-115262619D02*
X128902857Y-114262619D01*
X128902857Y-114262619D02*
X129283809Y-114262619D01*
X129283809Y-114262619D02*
X129379047Y-114310238D01*
X129379047Y-114310238D02*
X129426666Y-114357857D01*
X129426666Y-114357857D02*
X129474285Y-114453095D01*
X129474285Y-114453095D02*
X129474285Y-114595952D01*
X129474285Y-114595952D02*
X129426666Y-114691190D01*
X129426666Y-114691190D02*
X129379047Y-114738809D01*
X129379047Y-114738809D02*
X129283809Y-114786428D01*
X129283809Y-114786428D02*
X128902857Y-114786428D01*
X130426666Y-115262619D02*
X129855238Y-115262619D01*
X130140952Y-115262619D02*
X130140952Y-114262619D01*
X130140952Y-114262619D02*
X130045714Y-114405476D01*
X130045714Y-114405476D02*
X129950476Y-114500714D01*
X129950476Y-114500714D02*
X129855238Y-114548333D01*
X118862619Y-110895238D02*
X118386428Y-111228571D01*
X118862619Y-111466666D02*
X117862619Y-111466666D01*
X117862619Y-111466666D02*
X117862619Y-111085714D01*
X117862619Y-111085714D02*
X117910238Y-110990476D01*
X117910238Y-110990476D02*
X117957857Y-110942857D01*
X117957857Y-110942857D02*
X118053095Y-110895238D01*
X118053095Y-110895238D02*
X118195952Y-110895238D01*
X118195952Y-110895238D02*
X118291190Y-110942857D01*
X118291190Y-110942857D02*
X118338809Y-110990476D01*
X118338809Y-110990476D02*
X118386428Y-111085714D01*
X118386428Y-111085714D02*
X118386428Y-111466666D01*
X117862619Y-110609523D02*
X118862619Y-110276190D01*
X118862619Y-110276190D02*
X117862619Y-109942857D01*
X118862619Y-109085714D02*
X118862619Y-109657142D01*
X118862619Y-109371428D02*
X117862619Y-109371428D01*
X117862619Y-109371428D02*
X118005476Y-109466666D01*
X118005476Y-109466666D02*
X118100714Y-109561904D01*
X118100714Y-109561904D02*
X118148333Y-109657142D01*
X190426666Y-114262619D02*
X190426666Y-114976904D01*
X190426666Y-114976904D02*
X190379047Y-115119761D01*
X190379047Y-115119761D02*
X190283809Y-115215000D01*
X190283809Y-115215000D02*
X190140952Y-115262619D01*
X190140952Y-115262619D02*
X190045714Y-115262619D01*
X190902857Y-115262619D02*
X190902857Y-114262619D01*
X190902857Y-114262619D02*
X191283809Y-114262619D01*
X191283809Y-114262619D02*
X191379047Y-114310238D01*
X191379047Y-114310238D02*
X191426666Y-114357857D01*
X191426666Y-114357857D02*
X191474285Y-114453095D01*
X191474285Y-114453095D02*
X191474285Y-114595952D01*
X191474285Y-114595952D02*
X191426666Y-114691190D01*
X191426666Y-114691190D02*
X191379047Y-114738809D01*
X191379047Y-114738809D02*
X191283809Y-114786428D01*
X191283809Y-114786428D02*
X190902857Y-114786428D01*
X191855238Y-114357857D02*
X191902857Y-114310238D01*
X191902857Y-114310238D02*
X191998095Y-114262619D01*
X191998095Y-114262619D02*
X192236190Y-114262619D01*
X192236190Y-114262619D02*
X192331428Y-114310238D01*
X192331428Y-114310238D02*
X192379047Y-114357857D01*
X192379047Y-114357857D02*
X192426666Y-114453095D01*
X192426666Y-114453095D02*
X192426666Y-114548333D01*
X192426666Y-114548333D02*
X192379047Y-114691190D01*
X192379047Y-114691190D02*
X191807619Y-115262619D01*
X191807619Y-115262619D02*
X192426666Y-115262619D01*
X231712642Y-102857380D02*
X231665023Y-102905000D01*
X231665023Y-102905000D02*
X231522166Y-102952619D01*
X231522166Y-102952619D02*
X231426928Y-102952619D01*
X231426928Y-102952619D02*
X231284071Y-102905000D01*
X231284071Y-102905000D02*
X231188833Y-102809761D01*
X231188833Y-102809761D02*
X231141214Y-102714523D01*
X231141214Y-102714523D02*
X231093595Y-102524047D01*
X231093595Y-102524047D02*
X231093595Y-102381190D01*
X231093595Y-102381190D02*
X231141214Y-102190714D01*
X231141214Y-102190714D02*
X231188833Y-102095476D01*
X231188833Y-102095476D02*
X231284071Y-102000238D01*
X231284071Y-102000238D02*
X231426928Y-101952619D01*
X231426928Y-101952619D02*
X231522166Y-101952619D01*
X231522166Y-101952619D02*
X231665023Y-102000238D01*
X231665023Y-102000238D02*
X231712642Y-102047857D01*
X232665023Y-102952619D02*
X232093595Y-102952619D01*
X232379309Y-102952619D02*
X232379309Y-101952619D01*
X232379309Y-101952619D02*
X232284071Y-102095476D01*
X232284071Y-102095476D02*
X232188833Y-102190714D01*
X232188833Y-102190714D02*
X232093595Y-102238333D01*
X233045976Y-102047857D02*
X233093595Y-102000238D01*
X233093595Y-102000238D02*
X233188833Y-101952619D01*
X233188833Y-101952619D02*
X233426928Y-101952619D01*
X233426928Y-101952619D02*
X233522166Y-102000238D01*
X233522166Y-102000238D02*
X233569785Y-102047857D01*
X233569785Y-102047857D02*
X233617404Y-102143095D01*
X233617404Y-102143095D02*
X233617404Y-102238333D01*
X233617404Y-102238333D02*
X233569785Y-102381190D01*
X233569785Y-102381190D02*
X232998357Y-102952619D01*
X232998357Y-102952619D02*
X233617404Y-102952619D01*
X194422619Y-121104166D02*
X193946428Y-121437499D01*
X194422619Y-121675594D02*
X193422619Y-121675594D01*
X193422619Y-121675594D02*
X193422619Y-121294642D01*
X193422619Y-121294642D02*
X193470238Y-121199404D01*
X193470238Y-121199404D02*
X193517857Y-121151785D01*
X193517857Y-121151785D02*
X193613095Y-121104166D01*
X193613095Y-121104166D02*
X193755952Y-121104166D01*
X193755952Y-121104166D02*
X193851190Y-121151785D01*
X193851190Y-121151785D02*
X193898809Y-121199404D01*
X193898809Y-121199404D02*
X193946428Y-121294642D01*
X193946428Y-121294642D02*
X193946428Y-121675594D01*
X193755952Y-120247023D02*
X194422619Y-120247023D01*
X193375000Y-120485118D02*
X194089285Y-120723213D01*
X194089285Y-120723213D02*
X194089285Y-120104166D01*
X207967142Y-91017380D02*
X207919523Y-91065000D01*
X207919523Y-91065000D02*
X207776666Y-91112619D01*
X207776666Y-91112619D02*
X207681428Y-91112619D01*
X207681428Y-91112619D02*
X207538571Y-91065000D01*
X207538571Y-91065000D02*
X207443333Y-90969761D01*
X207443333Y-90969761D02*
X207395714Y-90874523D01*
X207395714Y-90874523D02*
X207348095Y-90684047D01*
X207348095Y-90684047D02*
X207348095Y-90541190D01*
X207348095Y-90541190D02*
X207395714Y-90350714D01*
X207395714Y-90350714D02*
X207443333Y-90255476D01*
X207443333Y-90255476D02*
X207538571Y-90160238D01*
X207538571Y-90160238D02*
X207681428Y-90112619D01*
X207681428Y-90112619D02*
X207776666Y-90112619D01*
X207776666Y-90112619D02*
X207919523Y-90160238D01*
X207919523Y-90160238D02*
X207967142Y-90207857D01*
X208919523Y-91112619D02*
X208348095Y-91112619D01*
X208633809Y-91112619D02*
X208633809Y-90112619D01*
X208633809Y-90112619D02*
X208538571Y-90255476D01*
X208538571Y-90255476D02*
X208443333Y-90350714D01*
X208443333Y-90350714D02*
X208348095Y-90398333D01*
X209538571Y-90112619D02*
X209633809Y-90112619D01*
X209633809Y-90112619D02*
X209729047Y-90160238D01*
X209729047Y-90160238D02*
X209776666Y-90207857D01*
X209776666Y-90207857D02*
X209824285Y-90303095D01*
X209824285Y-90303095D02*
X209871904Y-90493571D01*
X209871904Y-90493571D02*
X209871904Y-90731666D01*
X209871904Y-90731666D02*
X209824285Y-90922142D01*
X209824285Y-90922142D02*
X209776666Y-91017380D01*
X209776666Y-91017380D02*
X209729047Y-91065000D01*
X209729047Y-91065000D02*
X209633809Y-91112619D01*
X209633809Y-91112619D02*
X209538571Y-91112619D01*
X209538571Y-91112619D02*
X209443333Y-91065000D01*
X209443333Y-91065000D02*
X209395714Y-91017380D01*
X209395714Y-91017380D02*
X209348095Y-90922142D01*
X209348095Y-90922142D02*
X209300476Y-90731666D01*
X209300476Y-90731666D02*
X209300476Y-90493571D01*
X209300476Y-90493571D02*
X209348095Y-90303095D01*
X209348095Y-90303095D02*
X209395714Y-90207857D01*
X209395714Y-90207857D02*
X209443333Y-90160238D01*
X209443333Y-90160238D02*
X209538571Y-90112619D01*
X217677380Y-94766666D02*
X217725000Y-94814285D01*
X217725000Y-94814285D02*
X217772619Y-94957142D01*
X217772619Y-94957142D02*
X217772619Y-95052380D01*
X217772619Y-95052380D02*
X217725000Y-95195237D01*
X217725000Y-95195237D02*
X217629761Y-95290475D01*
X217629761Y-95290475D02*
X217534523Y-95338094D01*
X217534523Y-95338094D02*
X217344047Y-95385713D01*
X217344047Y-95385713D02*
X217201190Y-95385713D01*
X217201190Y-95385713D02*
X217010714Y-95338094D01*
X217010714Y-95338094D02*
X216915476Y-95290475D01*
X216915476Y-95290475D02*
X216820238Y-95195237D01*
X216820238Y-95195237D02*
X216772619Y-95052380D01*
X216772619Y-95052380D02*
X216772619Y-94957142D01*
X216772619Y-94957142D02*
X216820238Y-94814285D01*
X216820238Y-94814285D02*
X216867857Y-94766666D01*
X216772619Y-93861904D02*
X216772619Y-94338094D01*
X216772619Y-94338094D02*
X217248809Y-94385713D01*
X217248809Y-94385713D02*
X217201190Y-94338094D01*
X217201190Y-94338094D02*
X217153571Y-94242856D01*
X217153571Y-94242856D02*
X217153571Y-94004761D01*
X217153571Y-94004761D02*
X217201190Y-93909523D01*
X217201190Y-93909523D02*
X217248809Y-93861904D01*
X217248809Y-93861904D02*
X217344047Y-93814285D01*
X217344047Y-93814285D02*
X217582142Y-93814285D01*
X217582142Y-93814285D02*
X217677380Y-93861904D01*
X217677380Y-93861904D02*
X217725000Y-93909523D01*
X217725000Y-93909523D02*
X217772619Y-94004761D01*
X217772619Y-94004761D02*
X217772619Y-94242856D01*
X217772619Y-94242856D02*
X217725000Y-94338094D01*
X217725000Y-94338094D02*
X217677380Y-94385713D01*
X232975142Y-90901380D02*
X232927523Y-90949000D01*
X232927523Y-90949000D02*
X232784666Y-90996619D01*
X232784666Y-90996619D02*
X232689428Y-90996619D01*
X232689428Y-90996619D02*
X232546571Y-90949000D01*
X232546571Y-90949000D02*
X232451333Y-90853761D01*
X232451333Y-90853761D02*
X232403714Y-90758523D01*
X232403714Y-90758523D02*
X232356095Y-90568047D01*
X232356095Y-90568047D02*
X232356095Y-90425190D01*
X232356095Y-90425190D02*
X232403714Y-90234714D01*
X232403714Y-90234714D02*
X232451333Y-90139476D01*
X232451333Y-90139476D02*
X232546571Y-90044238D01*
X232546571Y-90044238D02*
X232689428Y-89996619D01*
X232689428Y-89996619D02*
X232784666Y-89996619D01*
X232784666Y-89996619D02*
X232927523Y-90044238D01*
X232927523Y-90044238D02*
X232975142Y-90091857D01*
X233927523Y-90996619D02*
X233356095Y-90996619D01*
X233641809Y-90996619D02*
X233641809Y-89996619D01*
X233641809Y-89996619D02*
X233546571Y-90139476D01*
X233546571Y-90139476D02*
X233451333Y-90234714D01*
X233451333Y-90234714D02*
X233356095Y-90282333D01*
X234879904Y-90996619D02*
X234308476Y-90996619D01*
X234594190Y-90996619D02*
X234594190Y-89996619D01*
X234594190Y-89996619D02*
X234498952Y-90139476D01*
X234498952Y-90139476D02*
X234403714Y-90234714D01*
X234403714Y-90234714D02*
X234308476Y-90282333D01*
X191368619Y-121104166D02*
X190892428Y-121437499D01*
X191368619Y-121675594D02*
X190368619Y-121675594D01*
X190368619Y-121675594D02*
X190368619Y-121294642D01*
X190368619Y-121294642D02*
X190416238Y-121199404D01*
X190416238Y-121199404D02*
X190463857Y-121151785D01*
X190463857Y-121151785D02*
X190559095Y-121104166D01*
X190559095Y-121104166D02*
X190701952Y-121104166D01*
X190701952Y-121104166D02*
X190797190Y-121151785D01*
X190797190Y-121151785D02*
X190844809Y-121199404D01*
X190844809Y-121199404D02*
X190892428Y-121294642D01*
X190892428Y-121294642D02*
X190892428Y-121675594D01*
X190368619Y-120770832D02*
X190368619Y-120151785D01*
X190368619Y-120151785D02*
X190749571Y-120485118D01*
X190749571Y-120485118D02*
X190749571Y-120342261D01*
X190749571Y-120342261D02*
X190797190Y-120247023D01*
X190797190Y-120247023D02*
X190844809Y-120199404D01*
X190844809Y-120199404D02*
X190940047Y-120151785D01*
X190940047Y-120151785D02*
X191178142Y-120151785D01*
X191178142Y-120151785D02*
X191273380Y-120199404D01*
X191273380Y-120199404D02*
X191321000Y-120247023D01*
X191321000Y-120247023D02*
X191368619Y-120342261D01*
X191368619Y-120342261D02*
X191368619Y-120627975D01*
X191368619Y-120627975D02*
X191321000Y-120723213D01*
X191321000Y-120723213D02*
X191273380Y-120770832D01*
X225877380Y-94766666D02*
X225925000Y-94814285D01*
X225925000Y-94814285D02*
X225972619Y-94957142D01*
X225972619Y-94957142D02*
X225972619Y-95052380D01*
X225972619Y-95052380D02*
X225925000Y-95195237D01*
X225925000Y-95195237D02*
X225829761Y-95290475D01*
X225829761Y-95290475D02*
X225734523Y-95338094D01*
X225734523Y-95338094D02*
X225544047Y-95385713D01*
X225544047Y-95385713D02*
X225401190Y-95385713D01*
X225401190Y-95385713D02*
X225210714Y-95338094D01*
X225210714Y-95338094D02*
X225115476Y-95290475D01*
X225115476Y-95290475D02*
X225020238Y-95195237D01*
X225020238Y-95195237D02*
X224972619Y-95052380D01*
X224972619Y-95052380D02*
X224972619Y-94957142D01*
X224972619Y-94957142D02*
X225020238Y-94814285D01*
X225020238Y-94814285D02*
X225067857Y-94766666D01*
X224972619Y-94433332D02*
X224972619Y-93766666D01*
X224972619Y-93766666D02*
X225972619Y-94195237D01*
X180862619Y-110895238D02*
X180386428Y-111228571D01*
X180862619Y-111466666D02*
X179862619Y-111466666D01*
X179862619Y-111466666D02*
X179862619Y-111085714D01*
X179862619Y-111085714D02*
X179910238Y-110990476D01*
X179910238Y-110990476D02*
X179957857Y-110942857D01*
X179957857Y-110942857D02*
X180053095Y-110895238D01*
X180053095Y-110895238D02*
X180195952Y-110895238D01*
X180195952Y-110895238D02*
X180291190Y-110942857D01*
X180291190Y-110942857D02*
X180338809Y-110990476D01*
X180338809Y-110990476D02*
X180386428Y-111085714D01*
X180386428Y-111085714D02*
X180386428Y-111466666D01*
X179862619Y-110609523D02*
X180862619Y-110276190D01*
X180862619Y-110276190D02*
X179862619Y-109942857D01*
X179957857Y-109657142D02*
X179910238Y-109609523D01*
X179910238Y-109609523D02*
X179862619Y-109514285D01*
X179862619Y-109514285D02*
X179862619Y-109276190D01*
X179862619Y-109276190D02*
X179910238Y-109180952D01*
X179910238Y-109180952D02*
X179957857Y-109133333D01*
X179957857Y-109133333D02*
X180053095Y-109085714D01*
X180053095Y-109085714D02*
X180148333Y-109085714D01*
X180148333Y-109085714D02*
X180291190Y-109133333D01*
X180291190Y-109133333D02*
X180862619Y-109704761D01*
X180862619Y-109704761D02*
X180862619Y-109085714D01*
X233704095Y-82114619D02*
X233704095Y-81114619D01*
X233704095Y-81590809D02*
X234275523Y-81590809D01*
X234275523Y-82114619D02*
X234275523Y-81114619D01*
X235180285Y-81447952D02*
X235180285Y-82114619D01*
X234942190Y-81067000D02*
X234704095Y-81781285D01*
X234704095Y-81781285D02*
X235323142Y-81781285D01*
X232829905Y-97284619D02*
X232829905Y-96284619D01*
X232829905Y-96284619D02*
X233068000Y-96284619D01*
X233068000Y-96284619D02*
X233210857Y-96332238D01*
X233210857Y-96332238D02*
X233306095Y-96427476D01*
X233306095Y-96427476D02*
X233353714Y-96522714D01*
X233353714Y-96522714D02*
X233401333Y-96713190D01*
X233401333Y-96713190D02*
X233401333Y-96856047D01*
X233401333Y-96856047D02*
X233353714Y-97046523D01*
X233353714Y-97046523D02*
X233306095Y-97141761D01*
X233306095Y-97141761D02*
X233210857Y-97237000D01*
X233210857Y-97237000D02*
X233068000Y-97284619D01*
X233068000Y-97284619D02*
X232829905Y-97284619D01*
X233782286Y-96379857D02*
X233829905Y-96332238D01*
X233829905Y-96332238D02*
X233925143Y-96284619D01*
X233925143Y-96284619D02*
X234163238Y-96284619D01*
X234163238Y-96284619D02*
X234258476Y-96332238D01*
X234258476Y-96332238D02*
X234306095Y-96379857D01*
X234306095Y-96379857D02*
X234353714Y-96475095D01*
X234353714Y-96475095D02*
X234353714Y-96570333D01*
X234353714Y-96570333D02*
X234306095Y-96713190D01*
X234306095Y-96713190D02*
X233734667Y-97284619D01*
X233734667Y-97284619D02*
X234353714Y-97284619D01*
D11*
X207070206Y-106012486D02*
X207070206Y-104742486D01*
X207070206Y-104742486D02*
X207372587Y-104742486D01*
X207372587Y-104742486D02*
X207554016Y-104802962D01*
X207554016Y-104802962D02*
X207674968Y-104923914D01*
X207674968Y-104923914D02*
X207735445Y-105044867D01*
X207735445Y-105044867D02*
X207795921Y-105286771D01*
X207795921Y-105286771D02*
X207795921Y-105468200D01*
X207795921Y-105468200D02*
X207735445Y-105710105D01*
X207735445Y-105710105D02*
X207674968Y-105831057D01*
X207674968Y-105831057D02*
X207554016Y-105952010D01*
X207554016Y-105952010D02*
X207372587Y-106012486D01*
X207372587Y-106012486D02*
X207070206Y-106012486D01*
X208279730Y-105952010D02*
X208461159Y-106012486D01*
X208461159Y-106012486D02*
X208763540Y-106012486D01*
X208763540Y-106012486D02*
X208884492Y-105952010D01*
X208884492Y-105952010D02*
X208944968Y-105891533D01*
X208944968Y-105891533D02*
X209005445Y-105770581D01*
X209005445Y-105770581D02*
X209005445Y-105649629D01*
X209005445Y-105649629D02*
X208944968Y-105528676D01*
X208944968Y-105528676D02*
X208884492Y-105468200D01*
X208884492Y-105468200D02*
X208763540Y-105407724D01*
X208763540Y-105407724D02*
X208521635Y-105347248D01*
X208521635Y-105347248D02*
X208400683Y-105286771D01*
X208400683Y-105286771D02*
X208340206Y-105226295D01*
X208340206Y-105226295D02*
X208279730Y-105105343D01*
X208279730Y-105105343D02*
X208279730Y-104984390D01*
X208279730Y-104984390D02*
X208340206Y-104863438D01*
X208340206Y-104863438D02*
X208400683Y-104802962D01*
X208400683Y-104802962D02*
X208521635Y-104742486D01*
X208521635Y-104742486D02*
X208824016Y-104742486D01*
X208824016Y-104742486D02*
X209005445Y-104802962D01*
X209489254Y-104863438D02*
X209549730Y-104802962D01*
X209549730Y-104802962D02*
X209670683Y-104742486D01*
X209670683Y-104742486D02*
X209973064Y-104742486D01*
X209973064Y-104742486D02*
X210094016Y-104802962D01*
X210094016Y-104802962D02*
X210154492Y-104863438D01*
X210154492Y-104863438D02*
X210214969Y-104984390D01*
X210214969Y-104984390D02*
X210214969Y-105105343D01*
X210214969Y-105105343D02*
X210154492Y-105286771D01*
X210154492Y-105286771D02*
X209428778Y-106012486D01*
X209428778Y-106012486D02*
X210214969Y-106012486D01*
D10*
X221477380Y-94796166D02*
X221525000Y-94843785D01*
X221525000Y-94843785D02*
X221572619Y-94986642D01*
X221572619Y-94986642D02*
X221572619Y-95081880D01*
X221572619Y-95081880D02*
X221525000Y-95224737D01*
X221525000Y-95224737D02*
X221429761Y-95319975D01*
X221429761Y-95319975D02*
X221334523Y-95367594D01*
X221334523Y-95367594D02*
X221144047Y-95415213D01*
X221144047Y-95415213D02*
X221001190Y-95415213D01*
X221001190Y-95415213D02*
X220810714Y-95367594D01*
X220810714Y-95367594D02*
X220715476Y-95319975D01*
X220715476Y-95319975D02*
X220620238Y-95224737D01*
X220620238Y-95224737D02*
X220572619Y-95081880D01*
X220572619Y-95081880D02*
X220572619Y-94986642D01*
X220572619Y-94986642D02*
X220620238Y-94843785D01*
X220620238Y-94843785D02*
X220667857Y-94796166D01*
X220572619Y-93939023D02*
X220572619Y-94129499D01*
X220572619Y-94129499D02*
X220620238Y-94224737D01*
X220620238Y-94224737D02*
X220667857Y-94272356D01*
X220667857Y-94272356D02*
X220810714Y-94367594D01*
X220810714Y-94367594D02*
X221001190Y-94415213D01*
X221001190Y-94415213D02*
X221382142Y-94415213D01*
X221382142Y-94415213D02*
X221477380Y-94367594D01*
X221477380Y-94367594D02*
X221525000Y-94319975D01*
X221525000Y-94319975D02*
X221572619Y-94224737D01*
X221572619Y-94224737D02*
X221572619Y-94034261D01*
X221572619Y-94034261D02*
X221525000Y-93939023D01*
X221525000Y-93939023D02*
X221477380Y-93891404D01*
X221477380Y-93891404D02*
X221382142Y-93843785D01*
X221382142Y-93843785D02*
X221144047Y-93843785D01*
X221144047Y-93843785D02*
X221048809Y-93891404D01*
X221048809Y-93891404D02*
X221001190Y-93939023D01*
X221001190Y-93939023D02*
X220953571Y-94034261D01*
X220953571Y-94034261D02*
X220953571Y-94224737D01*
X220953571Y-94224737D02*
X221001190Y-94319975D01*
X221001190Y-94319975D02*
X221048809Y-94367594D01*
X221048809Y-94367594D02*
X221144047Y-94415213D01*
X182904095Y-119706619D02*
X182904095Y-118706619D01*
X182904095Y-119182809D02*
X183475523Y-119182809D01*
X183475523Y-119706619D02*
X183475523Y-118706619D01*
X183856476Y-118706619D02*
X184475523Y-118706619D01*
X184475523Y-118706619D02*
X184142190Y-119087571D01*
X184142190Y-119087571D02*
X184285047Y-119087571D01*
X184285047Y-119087571D02*
X184380285Y-119135190D01*
X184380285Y-119135190D02*
X184427904Y-119182809D01*
X184427904Y-119182809D02*
X184475523Y-119278047D01*
X184475523Y-119278047D02*
X184475523Y-119516142D01*
X184475523Y-119516142D02*
X184427904Y-119611380D01*
X184427904Y-119611380D02*
X184380285Y-119659000D01*
X184380285Y-119659000D02*
X184285047Y-119706619D01*
X184285047Y-119706619D02*
X183999333Y-119706619D01*
X183999333Y-119706619D02*
X183904095Y-119659000D01*
X183904095Y-119659000D02*
X183856476Y-119611380D01*
D12*
X157350000Y-91748752D02*
X157350000Y-90326248D01*
X160070000Y-91748752D02*
X160070000Y-90326248D01*
X161962000Y-91519252D02*
X161962000Y-90096748D01*
X164682000Y-91519252D02*
X164682000Y-90096748D01*
X151950000Y-91748752D02*
X151950000Y-90326248D01*
X154670000Y-91748752D02*
X154670000Y-90326248D01*
X146868578Y-89710000D02*
X146351422Y-89710000D01*
X146868578Y-88290000D02*
X146351422Y-88290000D01*
X167993000Y-92549000D02*
X168618000Y-92549000D01*
X168305500Y-92236500D02*
X168305500Y-92861500D01*
X168858000Y-92538437D02*
X168858000Y-93174000D01*
X168858000Y-92538437D02*
X169922437Y-91474000D01*
X168858000Y-95929563D02*
X168858000Y-95294000D01*
X168858000Y-95929563D02*
X169922437Y-96994000D01*
X169922437Y-91474000D02*
X174378000Y-91474000D01*
X169922437Y-96994000D02*
X174378000Y-96994000D01*
X174378000Y-91474000D02*
X174378000Y-93174000D01*
X174378000Y-96994000D02*
X174378000Y-95294000D01*
X170096922Y-103430000D02*
X170614078Y-103430000D01*
X170096922Y-104850000D02*
X170614078Y-104850000D01*
X168018000Y-97672000D02*
X168018000Y-101972000D01*
X168018000Y-97672000D02*
X173718000Y-97672000D01*
X168018000Y-101972000D02*
X173718000Y-101972000D01*
X129846000Y-121196078D02*
X129846000Y-120678922D01*
X131266000Y-121196078D02*
X131266000Y-120678922D01*
X132900000Y-121196078D02*
X132900000Y-120678922D01*
X134320000Y-121196078D02*
X134320000Y-120678922D01*
D11*
X127566000Y-86360000D02*
X127566000Y-124460000D01*
X134066000Y-124460000D02*
X160066000Y-124460000D01*
X166566000Y-86360000D02*
X166566000Y-124460000D01*
D12*
X130660000Y-112700000D02*
X130660000Y-113300000D01*
X129960000Y-114000000D02*
X128560000Y-114000000D01*
X128560000Y-112000000D02*
X129960000Y-112000000D01*
X127860000Y-113300000D02*
X127860000Y-112700000D01*
X129960000Y-114000000D02*
G75*
G03*
X130660000Y-113300000I1J699999D01*
G01*
X130660000Y-112700000D02*
G75*
G03*
X129960000Y-112000000I-699999J1D01*
G01*
X127860000Y-113300000D02*
G75*
G03*
X128560000Y-114000000I700000J0D01*
G01*
X128560000Y-112000000D02*
G75*
G03*
X127860000Y-112700000I0J-700000D01*
G01*
X121476000Y-113213999D02*
G75*
G03*
X124445202Y-113213387I1484000J2913999D01*
G01*
X121896000Y-107208000D02*
G75*
G03*
X120046171Y-111783968I1064000J-3092000D01*
G01*
X125874000Y-111785000D02*
G75*
G03*
X126230075Y-110243137I-2914000J1485000D01*
G01*
X126230000Y-110300000D02*
G75*
G03*
X124024608Y-107208154I-3270000J0D01*
G01*
D13*
X231110000Y-82300000D02*
G75*
G03*
X231110000Y-81300000I0J500000D01*
G01*
X234110000Y-81300000D02*
G75*
G03*
X234110000Y-82300000I0J-500000D01*
G01*
D12*
X192660000Y-112700000D02*
X192660000Y-113300000D01*
X191960000Y-114000000D02*
X190560000Y-114000000D01*
X190560000Y-112000000D02*
X191960000Y-112000000D01*
X189860000Y-113300000D02*
X189860000Y-112700000D01*
X191960000Y-114000000D02*
G75*
G03*
X192660000Y-113300000I1J699999D01*
G01*
X192660000Y-112700000D02*
G75*
G03*
X191960000Y-112000000I-699999J1D01*
G01*
X189860000Y-113300000D02*
G75*
G03*
X190560000Y-114000000I700000J0D01*
G01*
X190560000Y-112000000D02*
G75*
G03*
X189860000Y-112700000I0J-700000D01*
G01*
D13*
X122110000Y-82300000D02*
G75*
G03*
X122110000Y-81300000I0J500000D01*
G01*
X125110000Y-81300000D02*
G75*
G03*
X125110000Y-82300000I0J-500000D01*
G01*
D12*
X232096922Y-103430000D02*
X232614078Y-103430000D01*
X232096922Y-104850000D02*
X232614078Y-104850000D01*
X194900000Y-121196078D02*
X194900000Y-120678922D01*
X196320000Y-121196078D02*
X196320000Y-120678922D01*
X208868578Y-89710000D02*
X208351422Y-89710000D01*
X208868578Y-88290000D02*
X208351422Y-88290000D01*
X213950000Y-91748752D02*
X213950000Y-90326248D01*
X216670000Y-91748752D02*
X216670000Y-90326248D01*
D13*
X234110000Y-127000000D02*
G75*
G03*
X234110000Y-128000000I0J-500000D01*
G01*
X231110000Y-128000000D02*
G75*
G03*
X231110000Y-127000000I0J500000D01*
G01*
D12*
X229993000Y-92549000D02*
X230618000Y-92549000D01*
X230305500Y-92236500D02*
X230305500Y-92861500D01*
X230858000Y-92538437D02*
X230858000Y-93174000D01*
X230858000Y-92538437D02*
X231922437Y-91474000D01*
X230858000Y-95929563D02*
X230858000Y-95294000D01*
X230858000Y-95929563D02*
X231922437Y-96994000D01*
X231922437Y-91474000D02*
X236378000Y-91474000D01*
X231922437Y-96994000D02*
X236378000Y-96994000D01*
X236378000Y-91474000D02*
X236378000Y-93174000D01*
X236378000Y-96994000D02*
X236378000Y-95294000D01*
X191846000Y-121196078D02*
X191846000Y-120678922D01*
X193266000Y-121196078D02*
X193266000Y-120678922D01*
D13*
X187110000Y-127000000D02*
G75*
G03*
X187110000Y-128000000I0J-500000D01*
G01*
X184110000Y-128000000D02*
G75*
G03*
X184110000Y-127000000I0J500000D01*
G01*
X169110000Y-82300000D02*
G75*
G03*
X169110000Y-81300000I0J500000D01*
G01*
X172110000Y-81300000D02*
G75*
G03*
X172110000Y-82300000I0J-500000D01*
G01*
D12*
X223962000Y-91519252D02*
X223962000Y-90096748D01*
X226682000Y-91519252D02*
X226682000Y-90096748D01*
X183476000Y-113213999D02*
G75*
G03*
X186445202Y-113213387I1484000J2913999D01*
G01*
X183896000Y-107208000D02*
G75*
G03*
X182046171Y-111783968I1064000J-3092000D01*
G01*
X187874000Y-111785000D02*
G75*
G03*
X188230075Y-110243137I-2914000J1485000D01*
G01*
X188230000Y-110300000D02*
G75*
G03*
X186024608Y-107208154I-3270000J0D01*
G01*
D13*
X125110000Y-127000000D02*
G75*
G03*
X125110000Y-128000000I0J-500000D01*
G01*
X122110000Y-128000000D02*
G75*
G03*
X122110000Y-127000000I0J500000D01*
G01*
D12*
X230018000Y-97672000D02*
X230018000Y-101972000D01*
X230018000Y-97672000D02*
X235718000Y-97672000D01*
X230018000Y-101972000D02*
X235718000Y-101972000D01*
D11*
X189566000Y-86360000D02*
X189566000Y-124460000D01*
X196066000Y-124460000D02*
X222066000Y-124460000D01*
X228566000Y-86360000D02*
X228566000Y-124460000D01*
D13*
X172110000Y-127000000D02*
G75*
G03*
X172110000Y-128000000I0J-500000D01*
G01*
X169110000Y-128000000D02*
G75*
G03*
X169110000Y-127000000I0J500000D01*
G01*
X184110000Y-82300000D02*
G75*
G03*
X184110000Y-81300000I0J500000D01*
G01*
X187110000Y-81300000D02*
G75*
G03*
X187110000Y-82300000I0J-500000D01*
G01*
D12*
X219350000Y-91748752D02*
X219350000Y-90326248D01*
X222070000Y-91748752D02*
X222070000Y-90326248D01*
M02*
