G04 #@! TF.GenerationSoftware,KiCad,Pcbnew,7.0.2-0*
G04 #@! TF.CreationDate,2023-05-23T19:49:29+02:00*
G04 #@! TF.ProjectId,dogs102,646f6773-3130-4322-9e6b-696361645f70,rev?*
G04 #@! TF.SameCoordinates,Original*
G04 #@! TF.FileFunction,Legend,Bot*
G04 #@! TF.FilePolarity,Positive*
%FSLAX46Y46*%
G04 Gerber Fmt 4.6, Leading zero omitted, Abs format (unit mm)*
G04 Created by KiCad (PCBNEW 7.0.2-0) date 2023-05-23 19:49:29*
%MOMM*%
%LPD*%
G01*
G04 APERTURE LIST*
%ADD10C,0.150000*%
%ADD11C,0.120000*%
G04 APERTURE END LIST*
D10*
X173242619Y-117522666D02*
X173956904Y-117522666D01*
X173956904Y-117522666D02*
X174099761Y-117475047D01*
X174099761Y-117475047D02*
X174195000Y-117379809D01*
X174195000Y-117379809D02*
X174242619Y-117236952D01*
X174242619Y-117236952D02*
X174242619Y-117141714D01*
X173337857Y-117951238D02*
X173290238Y-117998857D01*
X173290238Y-117998857D02*
X173242619Y-118094095D01*
X173242619Y-118094095D02*
X173242619Y-118332190D01*
X173242619Y-118332190D02*
X173290238Y-118427428D01*
X173290238Y-118427428D02*
X173337857Y-118475047D01*
X173337857Y-118475047D02*
X173433095Y-118522666D01*
X173433095Y-118522666D02*
X173528333Y-118522666D01*
X173528333Y-118522666D02*
X173671190Y-118475047D01*
X173671190Y-118475047D02*
X174242619Y-117903619D01*
X174242619Y-117903619D02*
X174242619Y-118522666D01*
X235242619Y-117522666D02*
X235956904Y-117522666D01*
X235956904Y-117522666D02*
X236099761Y-117475047D01*
X236099761Y-117475047D02*
X236195000Y-117379809D01*
X236195000Y-117379809D02*
X236242619Y-117236952D01*
X236242619Y-117236952D02*
X236242619Y-117141714D01*
X235242619Y-117903619D02*
X235242619Y-118522666D01*
X235242619Y-118522666D02*
X235623571Y-118189333D01*
X235623571Y-118189333D02*
X235623571Y-118332190D01*
X235623571Y-118332190D02*
X235671190Y-118427428D01*
X235671190Y-118427428D02*
X235718809Y-118475047D01*
X235718809Y-118475047D02*
X235814047Y-118522666D01*
X235814047Y-118522666D02*
X236052142Y-118522666D01*
X236052142Y-118522666D02*
X236147380Y-118475047D01*
X236147380Y-118475047D02*
X236195000Y-118427428D01*
X236195000Y-118427428D02*
X236242619Y-118332190D01*
X236242619Y-118332190D02*
X236242619Y-118046476D01*
X236242619Y-118046476D02*
X236195000Y-117951238D01*
X236195000Y-117951238D02*
X236147380Y-117903619D01*
D11*
X147260000Y-120456000D02*
X147260000Y-115256000D01*
X170180000Y-120456000D02*
X147260000Y-120456000D01*
X170180000Y-120456000D02*
X170180000Y-117856000D01*
X171450000Y-120456000D02*
X172780000Y-120456000D01*
X172780000Y-120456000D02*
X172780000Y-119126000D01*
X170180000Y-117856000D02*
X172780000Y-117856000D01*
X172780000Y-117856000D02*
X172780000Y-115256000D01*
X172780000Y-115256000D02*
X147260000Y-115256000D01*
X209260000Y-120456000D02*
X209260000Y-115256000D01*
X232180000Y-120456000D02*
X209260000Y-120456000D01*
X232180000Y-120456000D02*
X232180000Y-117856000D01*
X233450000Y-120456000D02*
X234780000Y-120456000D01*
X234780000Y-120456000D02*
X234780000Y-119126000D01*
X232180000Y-117856000D02*
X234780000Y-117856000D01*
X234780000Y-117856000D02*
X234780000Y-115256000D01*
X234780000Y-115256000D02*
X209260000Y-115256000D01*
M02*
