G04 #@! TF.GenerationSoftware,KiCad,Pcbnew,7.0.2-0*
G04 #@! TF.CreationDate,2023-05-23T19:49:29+02:00*
G04 #@! TF.ProjectId,dogs102,646f6773-3130-4322-9e6b-696361645f70,rev?*
G04 #@! TF.SameCoordinates,Original*
G04 #@! TF.FileFunction,Copper,L2,Bot*
G04 #@! TF.FilePolarity,Positive*
%FSLAX46Y46*%
G04 Gerber Fmt 4.6, Leading zero omitted, Abs format (unit mm)*
G04 Created by KiCad (PCBNEW 7.0.2-0) date 2023-05-23 19:49:29*
%MOMM*%
%LPD*%
G01*
G04 APERTURE LIST*
G04 #@! TA.AperFunction,ComponentPad*
%ADD10C,0.800000*%
G04 #@! TD*
G04 #@! TA.AperFunction,ComponentPad*
%ADD11C,6.400000*%
G04 #@! TD*
G04 #@! TA.AperFunction,ComponentPad*
%ADD12C,1.280000*%
G04 #@! TD*
G04 #@! TA.AperFunction,ComponentPad*
%ADD13C,1.620000*%
G04 #@! TD*
G04 #@! TA.AperFunction,ComponentPad*
%ADD14R,1.700000X1.700000*%
G04 #@! TD*
G04 #@! TA.AperFunction,ComponentPad*
%ADD15O,1.700000X1.700000*%
G04 #@! TD*
G04 APERTURE END LIST*
D10*
X119266000Y-123444000D03*
X119968944Y-121746944D03*
X119968944Y-125141056D03*
X121666000Y-121044000D03*
D11*
X121666000Y-123444000D03*
D10*
X121666000Y-125844000D03*
X123363056Y-121746944D03*
X123363056Y-125141056D03*
X124066000Y-123444000D03*
X170066000Y-85852000D03*
X170768944Y-84154944D03*
X170768944Y-87549056D03*
X172466000Y-83452000D03*
D11*
X172466000Y-85852000D03*
D10*
X172466000Y-88252000D03*
X174163056Y-84154944D03*
X174163056Y-87549056D03*
X174866000Y-85852000D03*
D12*
X130556000Y-124460000D03*
X133096000Y-124460000D03*
X161036000Y-124460000D03*
X163576000Y-124460000D03*
X163576000Y-86360000D03*
X161036000Y-86360000D03*
X158496000Y-86360000D03*
X155956000Y-86360000D03*
X153416000Y-86360000D03*
X150876000Y-86360000D03*
X148336000Y-86360000D03*
X145796000Y-86360000D03*
X143256000Y-86360000D03*
X140716000Y-86360000D03*
X138176000Y-86360000D03*
X135636000Y-86360000D03*
X133096000Y-86360000D03*
X130556000Y-86360000D03*
D13*
X125460000Y-112800000D03*
X122960000Y-107800000D03*
X120460000Y-112800000D03*
X187460000Y-112800000D03*
X184960000Y-107800000D03*
X182460000Y-112800000D03*
D10*
X232066000Y-85852000D03*
X232768944Y-84154944D03*
X232768944Y-87549056D03*
X234466000Y-83452000D03*
D11*
X234466000Y-85852000D03*
D10*
X234466000Y-88252000D03*
X236163056Y-84154944D03*
X236163056Y-87549056D03*
X236866000Y-85852000D03*
D12*
X192556000Y-124460000D03*
X195096000Y-124460000D03*
X223036000Y-124460000D03*
X225576000Y-124460000D03*
X225576000Y-86360000D03*
X223036000Y-86360000D03*
X220496000Y-86360000D03*
X217956000Y-86360000D03*
X215416000Y-86360000D03*
X212876000Y-86360000D03*
X210336000Y-86360000D03*
X207796000Y-86360000D03*
X205256000Y-86360000D03*
X202716000Y-86360000D03*
X200176000Y-86360000D03*
X197636000Y-86360000D03*
X195096000Y-86360000D03*
X192556000Y-86360000D03*
D10*
X181266000Y-123444000D03*
X181968944Y-121746944D03*
X181968944Y-125141056D03*
X183666000Y-121044000D03*
D11*
X183666000Y-123444000D03*
D10*
X183666000Y-125844000D03*
X185363056Y-121746944D03*
X185363056Y-125141056D03*
X186066000Y-123444000D03*
D14*
X171450000Y-119126000D03*
D15*
X171450000Y-116586000D03*
X168910000Y-119126000D03*
X168910000Y-116586000D03*
X166370000Y-119126000D03*
X166370000Y-116586000D03*
X163830000Y-119126000D03*
X163830000Y-116586000D03*
X161290000Y-119126000D03*
X161290000Y-116586000D03*
X158750000Y-119126000D03*
X158750000Y-116586000D03*
X156210000Y-119126000D03*
X156210000Y-116586000D03*
X153670000Y-119126000D03*
X153670000Y-116586000D03*
X151130000Y-119126000D03*
X151130000Y-116586000D03*
X148590000Y-119126000D03*
X148590000Y-116586000D03*
D14*
X233450000Y-119126000D03*
D15*
X233450000Y-116586000D03*
X230910000Y-119126000D03*
X230910000Y-116586000D03*
X228370000Y-119126000D03*
X228370000Y-116586000D03*
X225830000Y-119126000D03*
X225830000Y-116586000D03*
X223290000Y-119126000D03*
X223290000Y-116586000D03*
X220750000Y-119126000D03*
X220750000Y-116586000D03*
X218210000Y-119126000D03*
X218210000Y-116586000D03*
X215670000Y-119126000D03*
X215670000Y-116586000D03*
X213130000Y-119126000D03*
X213130000Y-116586000D03*
X210590000Y-119126000D03*
X210590000Y-116586000D03*
M02*
