G04 #@! TF.GenerationSoftware,KiCad,Pcbnew,7.0.2-0*
G04 #@! TF.CreationDate,2023-05-23T19:49:29+02:00*
G04 #@! TF.ProjectId,dogs102,646f6773-3130-4322-9e6b-696361645f70,rev?*
G04 #@! TF.SameCoordinates,Original*
G04 #@! TF.FileFunction,Profile,NP*
%FSLAX46Y46*%
G04 Gerber Fmt 4.6, Leading zero omitted, Abs format (unit mm)*
G04 Created by KiCad (PCBNEW 7.0.2-0) date 2023-05-23 19:49:29*
%MOMM*%
%LPD*%
G01*
G04 APERTURE LIST*
G04 #@! TA.AperFunction,Profile*
%ADD10C,0.150000*%
G04 #@! TD*
G04 APERTURE END LIST*
D10*
X176010000Y-134600000D02*
X180110000Y-134600000D01*
X238010000Y-81300000D02*
X238010000Y-74700000D01*
X172110000Y-127000000D02*
G75*
G03*
X172110000Y-128000000I0J-500000D01*
G01*
X180110000Y-74700000D02*
X238010000Y-74700000D01*
X184110000Y-128000000D02*
G75*
G03*
X184110000Y-127000000I0J500000D01*
G01*
X238010000Y-82300000D02*
X234110000Y-82300000D01*
X180110000Y-81300000D02*
X184110000Y-81300000D01*
X118110000Y-127000000D02*
X118110000Y-82300000D01*
X169110000Y-127000000D02*
X125110000Y-127000000D01*
X238010000Y-134600000D02*
X180110000Y-134600000D01*
X176010000Y-82300000D02*
X172110000Y-82300000D01*
X184110000Y-128000000D02*
X180110000Y-128000000D01*
X184110000Y-82300000D02*
G75*
G03*
X184110000Y-81300000I0J500000D01*
G01*
X180110000Y-81300000D02*
X176010000Y-81300000D01*
X172110000Y-127000000D02*
X176010000Y-127000000D01*
X176010000Y-134600000D02*
X118110000Y-134600000D01*
X172110000Y-81300000D02*
X176010000Y-81300000D01*
X176010000Y-74700000D02*
X180110000Y-74700000D01*
X169110000Y-82300000D02*
G75*
G03*
X169110000Y-81300000I0J500000D01*
G01*
X238010000Y-128000000D02*
X238010000Y-134600000D01*
X122110000Y-82300000D02*
X118110000Y-82300000D01*
X187110000Y-127000000D02*
G75*
G03*
X187110000Y-128000000I0J-500000D01*
G01*
X184110000Y-82300000D02*
X180110000Y-82300000D01*
X125110000Y-127000000D02*
G75*
G03*
X125110000Y-128000000I0J-500000D01*
G01*
X180110000Y-127000000D02*
X180110000Y-82300000D01*
X118110000Y-81300000D02*
X118110000Y-74700000D01*
X180110000Y-127000000D02*
X184110000Y-127000000D01*
X172110000Y-81300000D02*
G75*
G03*
X172110000Y-82300000I0J-500000D01*
G01*
X169110000Y-81300000D02*
X125110000Y-81300000D01*
X118110000Y-74700000D02*
X176010000Y-74700000D01*
X122110000Y-82300000D02*
G75*
G03*
X122110000Y-81300000I0J500000D01*
G01*
X172110000Y-128000000D02*
X176010000Y-128000000D01*
X234110000Y-81300000D02*
G75*
G03*
X234110000Y-82300000I0J-500000D01*
G01*
X234110000Y-81300000D02*
X238010000Y-81300000D01*
X231110000Y-82300000D02*
G75*
G03*
X231110000Y-81300000I0J500000D01*
G01*
X231110000Y-81300000D02*
X187110000Y-81300000D01*
X231110000Y-127000000D02*
X187110000Y-127000000D01*
X187110000Y-81300000D02*
G75*
G03*
X187110000Y-82300000I0J-500000D01*
G01*
X234110000Y-128000000D02*
X238010000Y-128000000D01*
X118110000Y-127000000D02*
X122110000Y-127000000D01*
X118110000Y-134600000D02*
X118110000Y-128000000D01*
X231110000Y-128000000D02*
G75*
G03*
X231110000Y-127000000I0J500000D01*
G01*
X125110000Y-81300000D02*
G75*
G03*
X125110000Y-82300000I0J-500000D01*
G01*
X187110000Y-82300000D02*
X231110000Y-82300000D01*
X122110000Y-128000000D02*
G75*
G03*
X122110000Y-127000000I0J500000D01*
G01*
X176010000Y-128000000D02*
X180110000Y-128000000D01*
X125110000Y-82300000D02*
X169110000Y-82300000D01*
X187110000Y-128000000D02*
X231110000Y-128000000D01*
X238010000Y-127000000D02*
X238010000Y-82300000D01*
X122110000Y-128000000D02*
X118110000Y-128000000D01*
X176010000Y-127000000D02*
X176010000Y-82300000D01*
X234110000Y-127000000D02*
G75*
G03*
X234110000Y-128000000I0J-500000D01*
G01*
X234110000Y-127000000D02*
X238010000Y-127000000D01*
X125110000Y-128000000D02*
X169110000Y-128000000D01*
X118110000Y-81300000D02*
X122110000Y-81300000D01*
X169110000Y-128000000D02*
G75*
G03*
X169110000Y-127000000I0J500000D01*
G01*
M02*
