%TF.GenerationSoftware,KiCad,Pcbnew,7.0.10*%
%TF.CreationDate,2024-03-22T19:30:53+01:00*%
%TF.ProjectId,SmartDisplay,536d6172-7444-4697-9370-6c61792e6b69,rev?*%
%TF.SameCoordinates,Original*%
%TF.FileFunction,Profile,NP*%
%FSLAX46Y46*%
G04 Gerber Fmt 4.6, Leading zero omitted, Abs format (unit mm)*
G04 Created by KiCad (PCBNEW 7.0.10) date 2024-03-22 19:30:53*
%MOMM*%
%LPD*%
G01*
G04 APERTURE LIST*
%TA.AperFunction,Profile*%
%ADD10C,0.050000*%
%TD*%
G04 APERTURE END LIST*
D10*
X107000000Y-93920000D02*
X107500000Y-93920000D01*
X107000000Y-87320000D02*
X107500000Y-87320000D01*
X107000000Y-40620000D02*
X107500000Y-40620000D01*
X107000000Y-34020000D02*
X107500000Y-34020000D01*
X154190000Y-86320000D02*
X166190000Y-86320000D01*
X160690000Y-40620000D02*
X117290000Y-40620000D01*
X109090000Y-87320000D02*
X107500000Y-87320000D01*
X114290000Y-41620000D02*
G75*
G03*
X114290000Y-40620000I0J500000D01*
G01*
X112090000Y-86320000D02*
G75*
G03*
X112090000Y-87320000I0J-500000D01*
G01*
X151190000Y-87320000D02*
G75*
G03*
X151190000Y-86320000I0J500000D01*
G01*
X109090000Y-87320000D02*
G75*
G03*
X109090000Y-86320000I0J500000D01*
G01*
X112090000Y-87320000D02*
X151190000Y-87320000D01*
X167000000Y-40620000D02*
X167000000Y-34020000D01*
X108290000Y-86320000D02*
X109090000Y-86320000D01*
X107500000Y-34020000D02*
X167000000Y-34020000D01*
X117290000Y-40620000D02*
G75*
G03*
X117290000Y-41620000I0J-500000D01*
G01*
X154190000Y-86320000D02*
G75*
G03*
X154190000Y-87320000I0J-500000D01*
G01*
X108290000Y-41620000D02*
X114290000Y-41620000D01*
X163690000Y-41620000D02*
X166190000Y-41620000D01*
X167000000Y-93920000D02*
X107500000Y-93920000D01*
X117290000Y-41620000D02*
X160690000Y-41620000D01*
X163690000Y-40620000D02*
X167000000Y-40620000D01*
X163690000Y-40620000D02*
G75*
G03*
X163690000Y-41620000I0J-500000D01*
G01*
X167000000Y-87320000D02*
X167000000Y-93920000D01*
X114290000Y-40620000D02*
X107500000Y-40620000D01*
X154190000Y-87320000D02*
X167000000Y-87320000D01*
X160690000Y-41620000D02*
G75*
G03*
X160690000Y-40620000I0J500000D01*
G01*
X135976000Y-81240000D02*
X135976000Y-86320000D01*
X108290000Y-86320000D02*
X108290000Y-41620000D01*
X112608000Y-81240000D02*
X112608000Y-86320000D01*
X166190000Y-86320000D02*
X166190000Y-41620000D01*
X112608000Y-81240000D02*
X135976000Y-81240000D01*
X135976000Y-86320000D02*
X151190000Y-86320000D01*
X112090000Y-86320000D02*
X112608000Y-86320000D01*
X75976000Y-86320000D02*
X91190000Y-86320000D01*
X52608000Y-81240000D02*
X75976000Y-81240000D01*
X106190000Y-86320000D02*
X106190000Y-41620000D01*
X52608000Y-81240000D02*
X52608000Y-86320000D01*
X48290000Y-86320000D02*
X48290000Y-41620000D01*
X75976000Y-81240000D02*
X75976000Y-86320000D01*
X100690000Y-41620000D02*
G75*
G03*
X100690000Y-40620000I0J500000D01*
G01*
X52090000Y-86320000D02*
X52608000Y-86320000D01*
X94190000Y-87320000D02*
X107000000Y-87320000D01*
X54290000Y-40620000D02*
X47500000Y-40620000D01*
X103690000Y-40620000D02*
G75*
G03*
X103690000Y-41620000I0J-500000D01*
G01*
X103690000Y-40620000D02*
X107000000Y-40620000D01*
X57290000Y-41620000D02*
X100690000Y-41620000D01*
X107000000Y-93920000D02*
X47500000Y-93920000D01*
X47500000Y-87320000D02*
X47500000Y-93920000D01*
X103690000Y-41620000D02*
X106190000Y-41620000D01*
X48290000Y-41620000D02*
X54290000Y-41620000D01*
X94190000Y-86320000D02*
G75*
G03*
X94190000Y-87320000I0J-500000D01*
G01*
X57290000Y-40620000D02*
G75*
G03*
X57290000Y-41620000I0J-500000D01*
G01*
X47500000Y-34020000D02*
X107000000Y-34020000D01*
X48290000Y-86320000D02*
X49090000Y-86320000D01*
X52090000Y-87320000D02*
X91190000Y-87320000D01*
X49090000Y-87320000D02*
G75*
G03*
X49090000Y-86320000I0J500000D01*
G01*
X91190000Y-87320000D02*
G75*
G03*
X91190000Y-86320000I0J500000D01*
G01*
X52090000Y-86320000D02*
G75*
G03*
X52090000Y-87320000I0J-500000D01*
G01*
X54290000Y-41620000D02*
G75*
G03*
X54290000Y-40620000I0J500000D01*
G01*
X49090000Y-87320000D02*
X47500000Y-87320000D01*
X100690000Y-40620000D02*
X57290000Y-40620000D01*
X47500000Y-40620000D02*
X47500000Y-34020000D01*
X94190000Y-86320000D02*
X106190000Y-86320000D01*
M02*
