%TF.GenerationSoftware,KiCad,Pcbnew,7.0.10*%
%TF.CreationDate,2024-03-22T19:30:53+01:00*%
%TF.ProjectId,SmartDisplay,536d6172-7444-4697-9370-6c61792e6b69,rev?*%
%TF.SameCoordinates,Original*%
%TF.FileFunction,Legend,Bot*%
%TF.FilePolarity,Positive*%
%FSLAX46Y46*%
G04 Gerber Fmt 4.6, Leading zero omitted, Abs format (unit mm)*
G04 Created by KiCad (PCBNEW 7.0.10) date 2024-03-22 19:30:53*
%MOMM*%
%LPD*%
G01*
G04 APERTURE LIST*
%ADD10C,0.150000*%
%ADD11C,0.120000*%
G04 APERTURE END LIST*
D10*
X141444819Y-45486666D02*
X142159104Y-45486666D01*
X142159104Y-45486666D02*
X142301961Y-45439047D01*
X142301961Y-45439047D02*
X142397200Y-45343809D01*
X142397200Y-45343809D02*
X142444819Y-45200952D01*
X142444819Y-45200952D02*
X142444819Y-45105714D01*
X142444819Y-45962857D02*
X141444819Y-45962857D01*
X141444819Y-45962857D02*
X141444819Y-46343809D01*
X141444819Y-46343809D02*
X141492438Y-46439047D01*
X141492438Y-46439047D02*
X141540057Y-46486666D01*
X141540057Y-46486666D02*
X141635295Y-46534285D01*
X141635295Y-46534285D02*
X141778152Y-46534285D01*
X141778152Y-46534285D02*
X141873390Y-46486666D01*
X141873390Y-46486666D02*
X141921009Y-46439047D01*
X141921009Y-46439047D02*
X141968628Y-46343809D01*
X141968628Y-46343809D02*
X141968628Y-45962857D01*
X141444819Y-47391428D02*
X141444819Y-47200952D01*
X141444819Y-47200952D02*
X141492438Y-47105714D01*
X141492438Y-47105714D02*
X141540057Y-47058095D01*
X141540057Y-47058095D02*
X141682914Y-46962857D01*
X141682914Y-46962857D02*
X141873390Y-46915238D01*
X141873390Y-46915238D02*
X142254342Y-46915238D01*
X142254342Y-46915238D02*
X142349580Y-46962857D01*
X142349580Y-46962857D02*
X142397200Y-47010476D01*
X142397200Y-47010476D02*
X142444819Y-47105714D01*
X142444819Y-47105714D02*
X142444819Y-47296190D01*
X142444819Y-47296190D02*
X142397200Y-47391428D01*
X142397200Y-47391428D02*
X142349580Y-47439047D01*
X142349580Y-47439047D02*
X142254342Y-47486666D01*
X142254342Y-47486666D02*
X142016247Y-47486666D01*
X142016247Y-47486666D02*
X141921009Y-47439047D01*
X141921009Y-47439047D02*
X141873390Y-47391428D01*
X141873390Y-47391428D02*
X141825771Y-47296190D01*
X141825771Y-47296190D02*
X141825771Y-47105714D01*
X141825771Y-47105714D02*
X141873390Y-47010476D01*
X141873390Y-47010476D02*
X141921009Y-46962857D01*
X141921009Y-46962857D02*
X142016247Y-46915238D01*
X81444819Y-45486666D02*
X82159104Y-45486666D01*
X82159104Y-45486666D02*
X82301961Y-45439047D01*
X82301961Y-45439047D02*
X82397200Y-45343809D01*
X82397200Y-45343809D02*
X82444819Y-45200952D01*
X82444819Y-45200952D02*
X82444819Y-45105714D01*
X82444819Y-45962857D02*
X81444819Y-45962857D01*
X81444819Y-45962857D02*
X81444819Y-46343809D01*
X81444819Y-46343809D02*
X81492438Y-46439047D01*
X81492438Y-46439047D02*
X81540057Y-46486666D01*
X81540057Y-46486666D02*
X81635295Y-46534285D01*
X81635295Y-46534285D02*
X81778152Y-46534285D01*
X81778152Y-46534285D02*
X81873390Y-46486666D01*
X81873390Y-46486666D02*
X81921009Y-46439047D01*
X81921009Y-46439047D02*
X81968628Y-46343809D01*
X81968628Y-46343809D02*
X81968628Y-45962857D01*
X81444819Y-46867619D02*
X81444819Y-47486666D01*
X81444819Y-47486666D02*
X81825771Y-47153333D01*
X81825771Y-47153333D02*
X81825771Y-47296190D01*
X81825771Y-47296190D02*
X81873390Y-47391428D01*
X81873390Y-47391428D02*
X81921009Y-47439047D01*
X81921009Y-47439047D02*
X82016247Y-47486666D01*
X82016247Y-47486666D02*
X82254342Y-47486666D01*
X82254342Y-47486666D02*
X82349580Y-47439047D01*
X82349580Y-47439047D02*
X82397200Y-47391428D01*
X82397200Y-47391428D02*
X82444819Y-47296190D01*
X82444819Y-47296190D02*
X82444819Y-47010476D01*
X82444819Y-47010476D02*
X82397200Y-46915238D01*
X82397200Y-46915238D02*
X82349580Y-46867619D01*
D11*
%TO.C,JP6*%
X144090000Y-44270000D02*
X143490000Y-44270000D01*
X145290000Y-44820000D02*
X145290000Y-45420000D01*
X142790000Y-44920000D02*
X142790000Y-47720000D01*
X144990000Y-45120000D02*
X145290000Y-44820000D01*
X144990000Y-45120000D02*
X145290000Y-45420000D01*
X144790000Y-47720000D02*
X144790000Y-44920000D01*
X143490000Y-48370000D02*
X144090000Y-48370000D01*
X144790000Y-44970000D02*
G75*
G03*
X144090000Y-44270000I-699999J1D01*
G01*
X143490000Y-44270000D02*
G75*
G03*
X142790000Y-44970000I-1J-699999D01*
G01*
X144090000Y-48370000D02*
G75*
G03*
X144790000Y-47670000I0J700000D01*
G01*
X142790000Y-47670000D02*
G75*
G03*
X143490000Y-48370000I700000J0D01*
G01*
%TO.C,JP3*%
X84090000Y-44270000D02*
X83490000Y-44270000D01*
X85290000Y-44820000D02*
X85290000Y-45420000D01*
X82790000Y-44920000D02*
X82790000Y-47720000D01*
X84990000Y-45120000D02*
X85290000Y-44820000D01*
X84990000Y-45120000D02*
X85290000Y-45420000D01*
X84790000Y-47720000D02*
X84790000Y-44920000D01*
X83490000Y-48370000D02*
X84090000Y-48370000D01*
X84790000Y-44970000D02*
G75*
G03*
X84090000Y-44270000I-699999J1D01*
G01*
X83490000Y-44270000D02*
G75*
G03*
X82790000Y-44970000I-1J-699999D01*
G01*
X84090000Y-48370000D02*
G75*
G03*
X84790000Y-47670000I0J700000D01*
G01*
X82790000Y-47670000D02*
G75*
G03*
X83490000Y-48370000I700000J0D01*
G01*
%TD*%
M02*
