%TF.GenerationSoftware,KiCad,Pcbnew,7.0.10*%
%TF.CreationDate,2024-03-22T19:30:52+01:00*%
%TF.ProjectId,SmartDisplay,536d6172-7444-4697-9370-6c61792e6b69,rev?*%
%TF.SameCoordinates,Original*%
%TF.FileFunction,Legend,Top*%
%TF.FilePolarity,Positive*%
%FSLAX46Y46*%
G04 Gerber Fmt 4.6, Leading zero omitted, Abs format (unit mm)*
G04 Created by KiCad (PCBNEW 7.0.10) date 2024-03-22 19:30:52*
%MOMM*%
%LPD*%
G01*
G04 APERTURE LIST*
%ADD10C,0.150000*%
%ADD11C,0.100000*%
%ADD12C,0.120000*%
G04 APERTURE END LIST*
D10*
X151785714Y-71084819D02*
X151785714Y-70084819D01*
X151785714Y-70084819D02*
X152023809Y-70084819D01*
X152023809Y-70084819D02*
X152166666Y-70132438D01*
X152166666Y-70132438D02*
X152261904Y-70227676D01*
X152261904Y-70227676D02*
X152309523Y-70322914D01*
X152309523Y-70322914D02*
X152357142Y-70513390D01*
X152357142Y-70513390D02*
X152357142Y-70656247D01*
X152357142Y-70656247D02*
X152309523Y-70846723D01*
X152309523Y-70846723D02*
X152261904Y-70941961D01*
X152261904Y-70941961D02*
X152166666Y-71037200D01*
X152166666Y-71037200D02*
X152023809Y-71084819D01*
X152023809Y-71084819D02*
X151785714Y-71084819D01*
X153309523Y-71084819D02*
X152738095Y-71084819D01*
X153023809Y-71084819D02*
X153023809Y-70084819D01*
X153023809Y-70084819D02*
X152928571Y-70227676D01*
X152928571Y-70227676D02*
X152833333Y-70322914D01*
X152833333Y-70322914D02*
X152738095Y-70370533D01*
X153690476Y-70180057D02*
X153738095Y-70132438D01*
X153738095Y-70132438D02*
X153833333Y-70084819D01*
X153833333Y-70084819D02*
X154071428Y-70084819D01*
X154071428Y-70084819D02*
X154166666Y-70132438D01*
X154166666Y-70132438D02*
X154214285Y-70180057D01*
X154214285Y-70180057D02*
X154261904Y-70275295D01*
X154261904Y-70275295D02*
X154261904Y-70370533D01*
X154261904Y-70370533D02*
X154214285Y-70513390D01*
X154214285Y-70513390D02*
X153642857Y-71084819D01*
X153642857Y-71084819D02*
X154261904Y-71084819D01*
X143166666Y-70234819D02*
X143166666Y-70949104D01*
X143166666Y-70949104D02*
X143119047Y-71091961D01*
X143119047Y-71091961D02*
X143023809Y-71187200D01*
X143023809Y-71187200D02*
X142880952Y-71234819D01*
X142880952Y-71234819D02*
X142785714Y-71234819D01*
X143642857Y-71234819D02*
X143642857Y-70234819D01*
X143642857Y-70234819D02*
X144023809Y-70234819D01*
X144023809Y-70234819D02*
X144119047Y-70282438D01*
X144119047Y-70282438D02*
X144166666Y-70330057D01*
X144166666Y-70330057D02*
X144214285Y-70425295D01*
X144214285Y-70425295D02*
X144214285Y-70568152D01*
X144214285Y-70568152D02*
X144166666Y-70663390D01*
X144166666Y-70663390D02*
X144119047Y-70711009D01*
X144119047Y-70711009D02*
X144023809Y-70758628D01*
X144023809Y-70758628D02*
X143642857Y-70758628D01*
X145071428Y-70568152D02*
X145071428Y-71234819D01*
X144833333Y-70187200D02*
X144595238Y-70901485D01*
X144595238Y-70901485D02*
X145214285Y-70901485D01*
X109790476Y-74774819D02*
X109790476Y-75489104D01*
X109790476Y-75489104D02*
X109742857Y-75631961D01*
X109742857Y-75631961D02*
X109647619Y-75727200D01*
X109647619Y-75727200D02*
X109504762Y-75774819D01*
X109504762Y-75774819D02*
X109409524Y-75774819D01*
X110790476Y-75774819D02*
X110219048Y-75774819D01*
X110504762Y-75774819D02*
X110504762Y-74774819D01*
X110504762Y-74774819D02*
X110409524Y-74917676D01*
X110409524Y-74917676D02*
X110314286Y-75012914D01*
X110314286Y-75012914D02*
X110219048Y-75060533D01*
X111742857Y-75774819D02*
X111171429Y-75774819D01*
X111457143Y-75774819D02*
X111457143Y-74774819D01*
X111457143Y-74774819D02*
X111361905Y-74917676D01*
X111361905Y-74917676D02*
X111266667Y-75012914D01*
X111266667Y-75012914D02*
X111171429Y-75060533D01*
X118790476Y-74684819D02*
X118790476Y-75399104D01*
X118790476Y-75399104D02*
X118742857Y-75541961D01*
X118742857Y-75541961D02*
X118647619Y-75637200D01*
X118647619Y-75637200D02*
X118504762Y-75684819D01*
X118504762Y-75684819D02*
X118409524Y-75684819D01*
X119790476Y-75684819D02*
X119219048Y-75684819D01*
X119504762Y-75684819D02*
X119504762Y-74684819D01*
X119504762Y-74684819D02*
X119409524Y-74827676D01*
X119409524Y-74827676D02*
X119314286Y-74922914D01*
X119314286Y-74922914D02*
X119219048Y-74970533D01*
X120171429Y-74780057D02*
X120219048Y-74732438D01*
X120219048Y-74732438D02*
X120314286Y-74684819D01*
X120314286Y-74684819D02*
X120552381Y-74684819D01*
X120552381Y-74684819D02*
X120647619Y-74732438D01*
X120647619Y-74732438D02*
X120695238Y-74780057D01*
X120695238Y-74780057D02*
X120742857Y-74875295D01*
X120742857Y-74875295D02*
X120742857Y-74970533D01*
X120742857Y-74970533D02*
X120695238Y-75113390D01*
X120695238Y-75113390D02*
X120123810Y-75684819D01*
X120123810Y-75684819D02*
X120742857Y-75684819D01*
X116954819Y-53368094D02*
X115954819Y-53368094D01*
X115954819Y-53368094D02*
X115954819Y-53129999D01*
X115954819Y-53129999D02*
X116002438Y-52987142D01*
X116002438Y-52987142D02*
X116097676Y-52891904D01*
X116097676Y-52891904D02*
X116192914Y-52844285D01*
X116192914Y-52844285D02*
X116383390Y-52796666D01*
X116383390Y-52796666D02*
X116526247Y-52796666D01*
X116526247Y-52796666D02*
X116716723Y-52844285D01*
X116716723Y-52844285D02*
X116811961Y-52891904D01*
X116811961Y-52891904D02*
X116907200Y-52987142D01*
X116907200Y-52987142D02*
X116954819Y-53129999D01*
X116954819Y-53129999D02*
X116954819Y-53368094D01*
X116954819Y-52320475D02*
X116954819Y-52129999D01*
X116954819Y-52129999D02*
X116907200Y-52034761D01*
X116907200Y-52034761D02*
X116859580Y-51987142D01*
X116859580Y-51987142D02*
X116716723Y-51891904D01*
X116716723Y-51891904D02*
X116526247Y-51844285D01*
X116526247Y-51844285D02*
X116145295Y-51844285D01*
X116145295Y-51844285D02*
X116050057Y-51891904D01*
X116050057Y-51891904D02*
X116002438Y-51939523D01*
X116002438Y-51939523D02*
X115954819Y-52034761D01*
X115954819Y-52034761D02*
X115954819Y-52225237D01*
X115954819Y-52225237D02*
X116002438Y-52320475D01*
X116002438Y-52320475D02*
X116050057Y-52368094D01*
X116050057Y-52368094D02*
X116145295Y-52415713D01*
X116145295Y-52415713D02*
X116383390Y-52415713D01*
X116383390Y-52415713D02*
X116478628Y-52368094D01*
X116478628Y-52368094D02*
X116526247Y-52320475D01*
X116526247Y-52320475D02*
X116573866Y-52225237D01*
X116573866Y-52225237D02*
X116573866Y-52034761D01*
X116573866Y-52034761D02*
X116526247Y-51939523D01*
X116526247Y-51939523D02*
X116478628Y-51891904D01*
X116478628Y-51891904D02*
X116383390Y-51844285D01*
X120744819Y-66368094D02*
X119744819Y-66368094D01*
X119744819Y-66368094D02*
X119744819Y-66129999D01*
X119744819Y-66129999D02*
X119792438Y-65987142D01*
X119792438Y-65987142D02*
X119887676Y-65891904D01*
X119887676Y-65891904D02*
X119982914Y-65844285D01*
X119982914Y-65844285D02*
X120173390Y-65796666D01*
X120173390Y-65796666D02*
X120316247Y-65796666D01*
X120316247Y-65796666D02*
X120506723Y-65844285D01*
X120506723Y-65844285D02*
X120601961Y-65891904D01*
X120601961Y-65891904D02*
X120697200Y-65987142D01*
X120697200Y-65987142D02*
X120744819Y-66129999D01*
X120744819Y-66129999D02*
X120744819Y-66368094D01*
X120173390Y-65225237D02*
X120125771Y-65320475D01*
X120125771Y-65320475D02*
X120078152Y-65368094D01*
X120078152Y-65368094D02*
X119982914Y-65415713D01*
X119982914Y-65415713D02*
X119935295Y-65415713D01*
X119935295Y-65415713D02*
X119840057Y-65368094D01*
X119840057Y-65368094D02*
X119792438Y-65320475D01*
X119792438Y-65320475D02*
X119744819Y-65225237D01*
X119744819Y-65225237D02*
X119744819Y-65034761D01*
X119744819Y-65034761D02*
X119792438Y-64939523D01*
X119792438Y-64939523D02*
X119840057Y-64891904D01*
X119840057Y-64891904D02*
X119935295Y-64844285D01*
X119935295Y-64844285D02*
X119982914Y-64844285D01*
X119982914Y-64844285D02*
X120078152Y-64891904D01*
X120078152Y-64891904D02*
X120125771Y-64939523D01*
X120125771Y-64939523D02*
X120173390Y-65034761D01*
X120173390Y-65034761D02*
X120173390Y-65225237D01*
X120173390Y-65225237D02*
X120221009Y-65320475D01*
X120221009Y-65320475D02*
X120268628Y-65368094D01*
X120268628Y-65368094D02*
X120363866Y-65415713D01*
X120363866Y-65415713D02*
X120554342Y-65415713D01*
X120554342Y-65415713D02*
X120649580Y-65368094D01*
X120649580Y-65368094D02*
X120697200Y-65320475D01*
X120697200Y-65320475D02*
X120744819Y-65225237D01*
X120744819Y-65225237D02*
X120744819Y-65034761D01*
X120744819Y-65034761D02*
X120697200Y-64939523D01*
X120697200Y-64939523D02*
X120649580Y-64891904D01*
X120649580Y-64891904D02*
X120554342Y-64844285D01*
X120554342Y-64844285D02*
X120363866Y-64844285D01*
X120363866Y-64844285D02*
X120268628Y-64891904D01*
X120268628Y-64891904D02*
X120221009Y-64939523D01*
X120221009Y-64939523D02*
X120173390Y-65034761D01*
X137385714Y-61684819D02*
X137385714Y-60684819D01*
X137385714Y-60684819D02*
X137623809Y-60684819D01*
X137623809Y-60684819D02*
X137766666Y-60732438D01*
X137766666Y-60732438D02*
X137861904Y-60827676D01*
X137861904Y-60827676D02*
X137909523Y-60922914D01*
X137909523Y-60922914D02*
X137957142Y-61113390D01*
X137957142Y-61113390D02*
X137957142Y-61256247D01*
X137957142Y-61256247D02*
X137909523Y-61446723D01*
X137909523Y-61446723D02*
X137861904Y-61541961D01*
X137861904Y-61541961D02*
X137766666Y-61637200D01*
X137766666Y-61637200D02*
X137623809Y-61684819D01*
X137623809Y-61684819D02*
X137385714Y-61684819D01*
X138909523Y-61684819D02*
X138338095Y-61684819D01*
X138623809Y-61684819D02*
X138623809Y-60684819D01*
X138623809Y-60684819D02*
X138528571Y-60827676D01*
X138528571Y-60827676D02*
X138433333Y-60922914D01*
X138433333Y-60922914D02*
X138338095Y-60970533D01*
X139861904Y-61684819D02*
X139290476Y-61684819D01*
X139576190Y-61684819D02*
X139576190Y-60684819D01*
X139576190Y-60684819D02*
X139480952Y-60827676D01*
X139480952Y-60827676D02*
X139385714Y-60922914D01*
X139385714Y-60922914D02*
X139290476Y-60970533D01*
X137718571Y-59001009D02*
X137385238Y-59001009D01*
X137385238Y-59524819D02*
X137385238Y-58524819D01*
X137385238Y-58524819D02*
X137861428Y-58524819D01*
X138242381Y-59524819D02*
X138242381Y-58524819D01*
X138718571Y-59524819D02*
X138718571Y-58524819D01*
X138718571Y-58524819D02*
X138956666Y-58524819D01*
X138956666Y-58524819D02*
X139099523Y-58572438D01*
X139099523Y-58572438D02*
X139194761Y-58667676D01*
X139194761Y-58667676D02*
X139242380Y-58762914D01*
X139242380Y-58762914D02*
X139289999Y-58953390D01*
X139289999Y-58953390D02*
X139289999Y-59096247D01*
X139289999Y-59096247D02*
X139242380Y-59286723D01*
X139242380Y-59286723D02*
X139194761Y-59381961D01*
X139194761Y-59381961D02*
X139099523Y-59477200D01*
X139099523Y-59477200D02*
X138956666Y-59524819D01*
X138956666Y-59524819D02*
X138718571Y-59524819D01*
X140147142Y-58858152D02*
X140147142Y-59524819D01*
X139909047Y-58477200D02*
X139670952Y-59191485D01*
X139670952Y-59191485D02*
X140289999Y-59191485D01*
X140505476Y-47024819D02*
X141172142Y-48024819D01*
X141172142Y-47024819D02*
X140505476Y-48024819D01*
X141505476Y-47120057D02*
X141553095Y-47072438D01*
X141553095Y-47072438D02*
X141648333Y-47024819D01*
X141648333Y-47024819D02*
X141886428Y-47024819D01*
X141886428Y-47024819D02*
X141981666Y-47072438D01*
X141981666Y-47072438D02*
X142029285Y-47120057D01*
X142029285Y-47120057D02*
X142076904Y-47215295D01*
X142076904Y-47215295D02*
X142076904Y-47310533D01*
X142076904Y-47310533D02*
X142029285Y-47453390D01*
X142029285Y-47453390D02*
X141457857Y-48024819D01*
X141457857Y-48024819D02*
X142076904Y-48024819D01*
X154969580Y-54500357D02*
X155017200Y-54547976D01*
X155017200Y-54547976D02*
X155064819Y-54690833D01*
X155064819Y-54690833D02*
X155064819Y-54786071D01*
X155064819Y-54786071D02*
X155017200Y-54928928D01*
X155017200Y-54928928D02*
X154921961Y-55024166D01*
X154921961Y-55024166D02*
X154826723Y-55071785D01*
X154826723Y-55071785D02*
X154636247Y-55119404D01*
X154636247Y-55119404D02*
X154493390Y-55119404D01*
X154493390Y-55119404D02*
X154302914Y-55071785D01*
X154302914Y-55071785D02*
X154207676Y-55024166D01*
X154207676Y-55024166D02*
X154112438Y-54928928D01*
X154112438Y-54928928D02*
X154064819Y-54786071D01*
X154064819Y-54786071D02*
X154064819Y-54690833D01*
X154064819Y-54690833D02*
X154112438Y-54547976D01*
X154112438Y-54547976D02*
X154160057Y-54500357D01*
X154160057Y-54119404D02*
X154112438Y-54071785D01*
X154112438Y-54071785D02*
X154064819Y-53976547D01*
X154064819Y-53976547D02*
X154064819Y-53738452D01*
X154064819Y-53738452D02*
X154112438Y-53643214D01*
X154112438Y-53643214D02*
X154160057Y-53595595D01*
X154160057Y-53595595D02*
X154255295Y-53547976D01*
X154255295Y-53547976D02*
X154350533Y-53547976D01*
X154350533Y-53547976D02*
X154493390Y-53595595D01*
X154493390Y-53595595D02*
X155064819Y-54167023D01*
X155064819Y-54167023D02*
X155064819Y-53547976D01*
X155064819Y-53071785D02*
X155064819Y-52881309D01*
X155064819Y-52881309D02*
X155017200Y-52786071D01*
X155017200Y-52786071D02*
X154969580Y-52738452D01*
X154969580Y-52738452D02*
X154826723Y-52643214D01*
X154826723Y-52643214D02*
X154636247Y-52595595D01*
X154636247Y-52595595D02*
X154255295Y-52595595D01*
X154255295Y-52595595D02*
X154160057Y-52643214D01*
X154160057Y-52643214D02*
X154112438Y-52690833D01*
X154112438Y-52690833D02*
X154064819Y-52786071D01*
X154064819Y-52786071D02*
X154064819Y-52976547D01*
X154064819Y-52976547D02*
X154112438Y-53071785D01*
X154112438Y-53071785D02*
X154160057Y-53119404D01*
X154160057Y-53119404D02*
X154255295Y-53167023D01*
X154255295Y-53167023D02*
X154493390Y-53167023D01*
X154493390Y-53167023D02*
X154588628Y-53119404D01*
X154588628Y-53119404D02*
X154636247Y-53071785D01*
X154636247Y-53071785D02*
X154683866Y-52976547D01*
X154683866Y-52976547D02*
X154683866Y-52786071D01*
X154683866Y-52786071D02*
X154636247Y-52690833D01*
X154636247Y-52690833D02*
X154588628Y-52643214D01*
X154588628Y-52643214D02*
X154493390Y-52595595D01*
X109154819Y-59791904D02*
X109964342Y-59791904D01*
X109964342Y-59791904D02*
X110059580Y-59744285D01*
X110059580Y-59744285D02*
X110107200Y-59696666D01*
X110107200Y-59696666D02*
X110154819Y-59601428D01*
X110154819Y-59601428D02*
X110154819Y-59410952D01*
X110154819Y-59410952D02*
X110107200Y-59315714D01*
X110107200Y-59315714D02*
X110059580Y-59268095D01*
X110059580Y-59268095D02*
X109964342Y-59220476D01*
X109964342Y-59220476D02*
X109154819Y-59220476D01*
X109154819Y-58839523D02*
X109154819Y-58172857D01*
X109154819Y-58172857D02*
X110154819Y-58601428D01*
X139969580Y-51750357D02*
X140017200Y-51797976D01*
X140017200Y-51797976D02*
X140064819Y-51940833D01*
X140064819Y-51940833D02*
X140064819Y-52036071D01*
X140064819Y-52036071D02*
X140017200Y-52178928D01*
X140017200Y-52178928D02*
X139921961Y-52274166D01*
X139921961Y-52274166D02*
X139826723Y-52321785D01*
X139826723Y-52321785D02*
X139636247Y-52369404D01*
X139636247Y-52369404D02*
X139493390Y-52369404D01*
X139493390Y-52369404D02*
X139302914Y-52321785D01*
X139302914Y-52321785D02*
X139207676Y-52274166D01*
X139207676Y-52274166D02*
X139112438Y-52178928D01*
X139112438Y-52178928D02*
X139064819Y-52036071D01*
X139064819Y-52036071D02*
X139064819Y-51940833D01*
X139064819Y-51940833D02*
X139112438Y-51797976D01*
X139112438Y-51797976D02*
X139160057Y-51750357D01*
X139160057Y-51369404D02*
X139112438Y-51321785D01*
X139112438Y-51321785D02*
X139064819Y-51226547D01*
X139064819Y-51226547D02*
X139064819Y-50988452D01*
X139064819Y-50988452D02*
X139112438Y-50893214D01*
X139112438Y-50893214D02*
X139160057Y-50845595D01*
X139160057Y-50845595D02*
X139255295Y-50797976D01*
X139255295Y-50797976D02*
X139350533Y-50797976D01*
X139350533Y-50797976D02*
X139493390Y-50845595D01*
X139493390Y-50845595D02*
X140064819Y-51417023D01*
X140064819Y-51417023D02*
X140064819Y-50797976D01*
X139064819Y-50464642D02*
X139064819Y-49845595D01*
X139064819Y-49845595D02*
X139445771Y-50178928D01*
X139445771Y-50178928D02*
X139445771Y-50036071D01*
X139445771Y-50036071D02*
X139493390Y-49940833D01*
X139493390Y-49940833D02*
X139541009Y-49893214D01*
X139541009Y-49893214D02*
X139636247Y-49845595D01*
X139636247Y-49845595D02*
X139874342Y-49845595D01*
X139874342Y-49845595D02*
X139969580Y-49893214D01*
X139969580Y-49893214D02*
X140017200Y-49940833D01*
X140017200Y-49940833D02*
X140064819Y-50036071D01*
X140064819Y-50036071D02*
X140064819Y-50321785D01*
X140064819Y-50321785D02*
X140017200Y-50417023D01*
X140017200Y-50417023D02*
X139969580Y-50464642D01*
X148551905Y-48524819D02*
X148551905Y-49334342D01*
X148551905Y-49334342D02*
X148599524Y-49429580D01*
X148599524Y-49429580D02*
X148647143Y-49477200D01*
X148647143Y-49477200D02*
X148742381Y-49524819D01*
X148742381Y-49524819D02*
X148932857Y-49524819D01*
X148932857Y-49524819D02*
X149028095Y-49477200D01*
X149028095Y-49477200D02*
X149075714Y-49429580D01*
X149075714Y-49429580D02*
X149123333Y-49334342D01*
X149123333Y-49334342D02*
X149123333Y-48524819D01*
X150123333Y-49524819D02*
X149551905Y-49524819D01*
X149837619Y-49524819D02*
X149837619Y-48524819D01*
X149837619Y-48524819D02*
X149742381Y-48667676D01*
X149742381Y-48667676D02*
X149647143Y-48762914D01*
X149647143Y-48762914D02*
X149551905Y-48810533D01*
X150742381Y-48524819D02*
X150837619Y-48524819D01*
X150837619Y-48524819D02*
X150932857Y-48572438D01*
X150932857Y-48572438D02*
X150980476Y-48620057D01*
X150980476Y-48620057D02*
X151028095Y-48715295D01*
X151028095Y-48715295D02*
X151075714Y-48905771D01*
X151075714Y-48905771D02*
X151075714Y-49143866D01*
X151075714Y-49143866D02*
X151028095Y-49334342D01*
X151028095Y-49334342D02*
X150980476Y-49429580D01*
X150980476Y-49429580D02*
X150932857Y-49477200D01*
X150932857Y-49477200D02*
X150837619Y-49524819D01*
X150837619Y-49524819D02*
X150742381Y-49524819D01*
X150742381Y-49524819D02*
X150647143Y-49477200D01*
X150647143Y-49477200D02*
X150599524Y-49429580D01*
X150599524Y-49429580D02*
X150551905Y-49334342D01*
X150551905Y-49334342D02*
X150504286Y-49143866D01*
X150504286Y-49143866D02*
X150504286Y-48905771D01*
X150504286Y-48905771D02*
X150551905Y-48715295D01*
X150551905Y-48715295D02*
X150599524Y-48620057D01*
X150599524Y-48620057D02*
X150647143Y-48572438D01*
X150647143Y-48572438D02*
X150742381Y-48524819D01*
X145837619Y-49429580D02*
X145790000Y-49477200D01*
X145790000Y-49477200D02*
X145647143Y-49524819D01*
X145647143Y-49524819D02*
X145551905Y-49524819D01*
X145551905Y-49524819D02*
X145409048Y-49477200D01*
X145409048Y-49477200D02*
X145313810Y-49381961D01*
X145313810Y-49381961D02*
X145266191Y-49286723D01*
X145266191Y-49286723D02*
X145218572Y-49096247D01*
X145218572Y-49096247D02*
X145218572Y-48953390D01*
X145218572Y-48953390D02*
X145266191Y-48762914D01*
X145266191Y-48762914D02*
X145313810Y-48667676D01*
X145313810Y-48667676D02*
X145409048Y-48572438D01*
X145409048Y-48572438D02*
X145551905Y-48524819D01*
X145551905Y-48524819D02*
X145647143Y-48524819D01*
X145647143Y-48524819D02*
X145790000Y-48572438D01*
X145790000Y-48572438D02*
X145837619Y-48620057D01*
X146218572Y-49239104D02*
X146694762Y-49239104D01*
X146123334Y-49524819D02*
X146456667Y-48524819D01*
X146456667Y-48524819D02*
X146790000Y-49524819D01*
X147123334Y-49524819D02*
X147123334Y-48524819D01*
X147123334Y-48524819D02*
X147456667Y-49239104D01*
X147456667Y-49239104D02*
X147790000Y-48524819D01*
X147790000Y-48524819D02*
X147790000Y-49524819D01*
X148266191Y-49143866D02*
X149028096Y-49143866D01*
X149504286Y-49524819D02*
X149504286Y-48524819D01*
X149504286Y-48524819D02*
X149837619Y-49239104D01*
X149837619Y-49239104D02*
X150170952Y-48524819D01*
X150170952Y-48524819D02*
X150170952Y-49524819D01*
X150790000Y-48953390D02*
X150694762Y-48905771D01*
X150694762Y-48905771D02*
X150647143Y-48858152D01*
X150647143Y-48858152D02*
X150599524Y-48762914D01*
X150599524Y-48762914D02*
X150599524Y-48715295D01*
X150599524Y-48715295D02*
X150647143Y-48620057D01*
X150647143Y-48620057D02*
X150694762Y-48572438D01*
X150694762Y-48572438D02*
X150790000Y-48524819D01*
X150790000Y-48524819D02*
X150980476Y-48524819D01*
X150980476Y-48524819D02*
X151075714Y-48572438D01*
X151075714Y-48572438D02*
X151123333Y-48620057D01*
X151123333Y-48620057D02*
X151170952Y-48715295D01*
X151170952Y-48715295D02*
X151170952Y-48762914D01*
X151170952Y-48762914D02*
X151123333Y-48858152D01*
X151123333Y-48858152D02*
X151075714Y-48905771D01*
X151075714Y-48905771D02*
X150980476Y-48953390D01*
X150980476Y-48953390D02*
X150790000Y-48953390D01*
X150790000Y-48953390D02*
X150694762Y-49001009D01*
X150694762Y-49001009D02*
X150647143Y-49048628D01*
X150647143Y-49048628D02*
X150599524Y-49143866D01*
X150599524Y-49143866D02*
X150599524Y-49334342D01*
X150599524Y-49334342D02*
X150647143Y-49429580D01*
X150647143Y-49429580D02*
X150694762Y-49477200D01*
X150694762Y-49477200D02*
X150790000Y-49524819D01*
X150790000Y-49524819D02*
X150980476Y-49524819D01*
X150980476Y-49524819D02*
X151075714Y-49477200D01*
X151075714Y-49477200D02*
X151123333Y-49429580D01*
X151123333Y-49429580D02*
X151170952Y-49334342D01*
X151170952Y-49334342D02*
X151170952Y-49143866D01*
X151170952Y-49143866D02*
X151123333Y-49048628D01*
X151123333Y-49048628D02*
X151075714Y-49001009D01*
X151075714Y-49001009D02*
X150980476Y-48953390D01*
X152170952Y-49429580D02*
X152123333Y-49477200D01*
X152123333Y-49477200D02*
X151980476Y-49524819D01*
X151980476Y-49524819D02*
X151885238Y-49524819D01*
X151885238Y-49524819D02*
X151742381Y-49477200D01*
X151742381Y-49477200D02*
X151647143Y-49381961D01*
X151647143Y-49381961D02*
X151599524Y-49286723D01*
X151599524Y-49286723D02*
X151551905Y-49096247D01*
X151551905Y-49096247D02*
X151551905Y-48953390D01*
X151551905Y-48953390D02*
X151599524Y-48762914D01*
X151599524Y-48762914D02*
X151647143Y-48667676D01*
X151647143Y-48667676D02*
X151742381Y-48572438D01*
X151742381Y-48572438D02*
X151885238Y-48524819D01*
X151885238Y-48524819D02*
X151980476Y-48524819D01*
X151980476Y-48524819D02*
X152123333Y-48572438D01*
X152123333Y-48572438D02*
X152170952Y-48620057D01*
X152599524Y-49143866D02*
X153361429Y-49143866D01*
X154028095Y-48524819D02*
X154123333Y-48524819D01*
X154123333Y-48524819D02*
X154218571Y-48572438D01*
X154218571Y-48572438D02*
X154266190Y-48620057D01*
X154266190Y-48620057D02*
X154313809Y-48715295D01*
X154313809Y-48715295D02*
X154361428Y-48905771D01*
X154361428Y-48905771D02*
X154361428Y-49143866D01*
X154361428Y-49143866D02*
X154313809Y-49334342D01*
X154313809Y-49334342D02*
X154266190Y-49429580D01*
X154266190Y-49429580D02*
X154218571Y-49477200D01*
X154218571Y-49477200D02*
X154123333Y-49524819D01*
X154123333Y-49524819D02*
X154028095Y-49524819D01*
X154028095Y-49524819D02*
X153932857Y-49477200D01*
X153932857Y-49477200D02*
X153885238Y-49429580D01*
X153885238Y-49429580D02*
X153837619Y-49334342D01*
X153837619Y-49334342D02*
X153790000Y-49143866D01*
X153790000Y-49143866D02*
X153790000Y-48905771D01*
X153790000Y-48905771D02*
X153837619Y-48715295D01*
X153837619Y-48715295D02*
X153885238Y-48620057D01*
X153885238Y-48620057D02*
X153932857Y-48572438D01*
X153932857Y-48572438D02*
X154028095Y-48524819D01*
X149790000Y-48524819D02*
X149790000Y-48762914D01*
X149551905Y-48667676D02*
X149790000Y-48762914D01*
X149790000Y-48762914D02*
X150028095Y-48667676D01*
X149647143Y-48953390D02*
X149790000Y-48762914D01*
X149790000Y-48762914D02*
X149932857Y-48953390D01*
X131899580Y-52150357D02*
X131947200Y-52197976D01*
X131947200Y-52197976D02*
X131994819Y-52340833D01*
X131994819Y-52340833D02*
X131994819Y-52436071D01*
X131994819Y-52436071D02*
X131947200Y-52578928D01*
X131947200Y-52578928D02*
X131851961Y-52674166D01*
X131851961Y-52674166D02*
X131756723Y-52721785D01*
X131756723Y-52721785D02*
X131566247Y-52769404D01*
X131566247Y-52769404D02*
X131423390Y-52769404D01*
X131423390Y-52769404D02*
X131232914Y-52721785D01*
X131232914Y-52721785D02*
X131137676Y-52674166D01*
X131137676Y-52674166D02*
X131042438Y-52578928D01*
X131042438Y-52578928D02*
X130994819Y-52436071D01*
X130994819Y-52436071D02*
X130994819Y-52340833D01*
X130994819Y-52340833D02*
X131042438Y-52197976D01*
X131042438Y-52197976D02*
X131090057Y-52150357D01*
X131090057Y-51769404D02*
X131042438Y-51721785D01*
X131042438Y-51721785D02*
X130994819Y-51626547D01*
X130994819Y-51626547D02*
X130994819Y-51388452D01*
X130994819Y-51388452D02*
X131042438Y-51293214D01*
X131042438Y-51293214D02*
X131090057Y-51245595D01*
X131090057Y-51245595D02*
X131185295Y-51197976D01*
X131185295Y-51197976D02*
X131280533Y-51197976D01*
X131280533Y-51197976D02*
X131423390Y-51245595D01*
X131423390Y-51245595D02*
X131994819Y-51817023D01*
X131994819Y-51817023D02*
X131994819Y-51197976D01*
X131423390Y-50626547D02*
X131375771Y-50721785D01*
X131375771Y-50721785D02*
X131328152Y-50769404D01*
X131328152Y-50769404D02*
X131232914Y-50817023D01*
X131232914Y-50817023D02*
X131185295Y-50817023D01*
X131185295Y-50817023D02*
X131090057Y-50769404D01*
X131090057Y-50769404D02*
X131042438Y-50721785D01*
X131042438Y-50721785D02*
X130994819Y-50626547D01*
X130994819Y-50626547D02*
X130994819Y-50436071D01*
X130994819Y-50436071D02*
X131042438Y-50340833D01*
X131042438Y-50340833D02*
X131090057Y-50293214D01*
X131090057Y-50293214D02*
X131185295Y-50245595D01*
X131185295Y-50245595D02*
X131232914Y-50245595D01*
X131232914Y-50245595D02*
X131328152Y-50293214D01*
X131328152Y-50293214D02*
X131375771Y-50340833D01*
X131375771Y-50340833D02*
X131423390Y-50436071D01*
X131423390Y-50436071D02*
X131423390Y-50626547D01*
X131423390Y-50626547D02*
X131471009Y-50721785D01*
X131471009Y-50721785D02*
X131518628Y-50769404D01*
X131518628Y-50769404D02*
X131613866Y-50817023D01*
X131613866Y-50817023D02*
X131804342Y-50817023D01*
X131804342Y-50817023D02*
X131899580Y-50769404D01*
X131899580Y-50769404D02*
X131947200Y-50721785D01*
X131947200Y-50721785D02*
X131994819Y-50626547D01*
X131994819Y-50626547D02*
X131994819Y-50436071D01*
X131994819Y-50436071D02*
X131947200Y-50340833D01*
X131947200Y-50340833D02*
X131899580Y-50293214D01*
X131899580Y-50293214D02*
X131804342Y-50245595D01*
X131804342Y-50245595D02*
X131613866Y-50245595D01*
X131613866Y-50245595D02*
X131518628Y-50293214D01*
X131518628Y-50293214D02*
X131471009Y-50340833D01*
X131471009Y-50340833D02*
X131423390Y-50436071D01*
X123206666Y-40568819D02*
X123206666Y-41283104D01*
X123206666Y-41283104D02*
X123159047Y-41425961D01*
X123159047Y-41425961D02*
X123063809Y-41521200D01*
X123063809Y-41521200D02*
X122920952Y-41568819D01*
X122920952Y-41568819D02*
X122825714Y-41568819D01*
X123730476Y-41568819D02*
X123920952Y-41568819D01*
X123920952Y-41568819D02*
X124016190Y-41521200D01*
X124016190Y-41521200D02*
X124063809Y-41473580D01*
X124063809Y-41473580D02*
X124159047Y-41330723D01*
X124159047Y-41330723D02*
X124206666Y-41140247D01*
X124206666Y-41140247D02*
X124206666Y-40759295D01*
X124206666Y-40759295D02*
X124159047Y-40664057D01*
X124159047Y-40664057D02*
X124111428Y-40616438D01*
X124111428Y-40616438D02*
X124016190Y-40568819D01*
X124016190Y-40568819D02*
X123825714Y-40568819D01*
X123825714Y-40568819D02*
X123730476Y-40616438D01*
X123730476Y-40616438D02*
X123682857Y-40664057D01*
X123682857Y-40664057D02*
X123635238Y-40759295D01*
X123635238Y-40759295D02*
X123635238Y-40997390D01*
X123635238Y-40997390D02*
X123682857Y-41092628D01*
X123682857Y-41092628D02*
X123730476Y-41140247D01*
X123730476Y-41140247D02*
X123825714Y-41187866D01*
X123825714Y-41187866D02*
X124016190Y-41187866D01*
X124016190Y-41187866D02*
X124111428Y-41140247D01*
X124111428Y-41140247D02*
X124159047Y-41092628D01*
X124159047Y-41092628D02*
X124206666Y-40997390D01*
X158109642Y-57749580D02*
X158062023Y-57797200D01*
X158062023Y-57797200D02*
X157919166Y-57844819D01*
X157919166Y-57844819D02*
X157823928Y-57844819D01*
X157823928Y-57844819D02*
X157681071Y-57797200D01*
X157681071Y-57797200D02*
X157585833Y-57701961D01*
X157585833Y-57701961D02*
X157538214Y-57606723D01*
X157538214Y-57606723D02*
X157490595Y-57416247D01*
X157490595Y-57416247D02*
X157490595Y-57273390D01*
X157490595Y-57273390D02*
X157538214Y-57082914D01*
X157538214Y-57082914D02*
X157585833Y-56987676D01*
X157585833Y-56987676D02*
X157681071Y-56892438D01*
X157681071Y-56892438D02*
X157823928Y-56844819D01*
X157823928Y-56844819D02*
X157919166Y-56844819D01*
X157919166Y-56844819D02*
X158062023Y-56892438D01*
X158062023Y-56892438D02*
X158109642Y-56940057D01*
X158490595Y-56940057D02*
X158538214Y-56892438D01*
X158538214Y-56892438D02*
X158633452Y-56844819D01*
X158633452Y-56844819D02*
X158871547Y-56844819D01*
X158871547Y-56844819D02*
X158966785Y-56892438D01*
X158966785Y-56892438D02*
X159014404Y-56940057D01*
X159014404Y-56940057D02*
X159062023Y-57035295D01*
X159062023Y-57035295D02*
X159062023Y-57130533D01*
X159062023Y-57130533D02*
X159014404Y-57273390D01*
X159014404Y-57273390D02*
X158442976Y-57844819D01*
X158442976Y-57844819D02*
X159062023Y-57844819D01*
X160014404Y-57844819D02*
X159442976Y-57844819D01*
X159728690Y-57844819D02*
X159728690Y-56844819D01*
X159728690Y-56844819D02*
X159633452Y-56987676D01*
X159633452Y-56987676D02*
X159538214Y-57082914D01*
X159538214Y-57082914D02*
X159442976Y-57130533D01*
X137324819Y-80129523D02*
X138039104Y-80129523D01*
X138039104Y-80129523D02*
X138181961Y-80177142D01*
X138181961Y-80177142D02*
X138277200Y-80272380D01*
X138277200Y-80272380D02*
X138324819Y-80415237D01*
X138324819Y-80415237D02*
X138324819Y-80510475D01*
X138324819Y-79129523D02*
X138324819Y-79700951D01*
X138324819Y-79415237D02*
X137324819Y-79415237D01*
X137324819Y-79415237D02*
X137467676Y-79510475D01*
X137467676Y-79510475D02*
X137562914Y-79605713D01*
X137562914Y-79605713D02*
X137610533Y-79700951D01*
X137658152Y-78272380D02*
X138324819Y-78272380D01*
X137277200Y-78510475D02*
X137991485Y-78748570D01*
X137991485Y-78748570D02*
X137991485Y-78129523D01*
X152385476Y-85445819D02*
X152385476Y-86160104D01*
X152385476Y-86160104D02*
X152337857Y-86302961D01*
X152337857Y-86302961D02*
X152242619Y-86398200D01*
X152242619Y-86398200D02*
X152099762Y-86445819D01*
X152099762Y-86445819D02*
X152004524Y-86445819D01*
X153385476Y-86445819D02*
X152814048Y-86445819D01*
X153099762Y-86445819D02*
X153099762Y-85445819D01*
X153099762Y-85445819D02*
X153004524Y-85588676D01*
X153004524Y-85588676D02*
X152909286Y-85683914D01*
X152909286Y-85683914D02*
X152814048Y-85731533D01*
X154242619Y-85445819D02*
X154052143Y-85445819D01*
X154052143Y-85445819D02*
X153956905Y-85493438D01*
X153956905Y-85493438D02*
X153909286Y-85541057D01*
X153909286Y-85541057D02*
X153814048Y-85683914D01*
X153814048Y-85683914D02*
X153766429Y-85874390D01*
X153766429Y-85874390D02*
X153766429Y-86255342D01*
X153766429Y-86255342D02*
X153814048Y-86350580D01*
X153814048Y-86350580D02*
X153861667Y-86398200D01*
X153861667Y-86398200D02*
X153956905Y-86445819D01*
X153956905Y-86445819D02*
X154147381Y-86445819D01*
X154147381Y-86445819D02*
X154242619Y-86398200D01*
X154242619Y-86398200D02*
X154290238Y-86350580D01*
X154290238Y-86350580D02*
X154337857Y-86255342D01*
X154337857Y-86255342D02*
X154337857Y-86017247D01*
X154337857Y-86017247D02*
X154290238Y-85922009D01*
X154290238Y-85922009D02*
X154242619Y-85874390D01*
X154242619Y-85874390D02*
X154147381Y-85826771D01*
X154147381Y-85826771D02*
X153956905Y-85826771D01*
X153956905Y-85826771D02*
X153861667Y-85874390D01*
X153861667Y-85874390D02*
X153814048Y-85922009D01*
X153814048Y-85922009D02*
X153766429Y-86017247D01*
X117904819Y-59296666D02*
X117904819Y-59772856D01*
X117904819Y-59772856D02*
X116904819Y-59772856D01*
X117000057Y-59010951D02*
X116952438Y-58963332D01*
X116952438Y-58963332D02*
X116904819Y-58868094D01*
X116904819Y-58868094D02*
X116904819Y-58629999D01*
X116904819Y-58629999D02*
X116952438Y-58534761D01*
X116952438Y-58534761D02*
X117000057Y-58487142D01*
X117000057Y-58487142D02*
X117095295Y-58439523D01*
X117095295Y-58439523D02*
X117190533Y-58439523D01*
X117190533Y-58439523D02*
X117333390Y-58487142D01*
X117333390Y-58487142D02*
X117904819Y-59058570D01*
X117904819Y-59058570D02*
X117904819Y-58439523D01*
X165794819Y-50879523D02*
X166509104Y-50879523D01*
X166509104Y-50879523D02*
X166651961Y-50927142D01*
X166651961Y-50927142D02*
X166747200Y-51022380D01*
X166747200Y-51022380D02*
X166794819Y-51165237D01*
X166794819Y-51165237D02*
X166794819Y-51260475D01*
X166794819Y-49879523D02*
X166794819Y-50450951D01*
X166794819Y-50165237D02*
X165794819Y-50165237D01*
X165794819Y-50165237D02*
X165937676Y-50260475D01*
X165937676Y-50260475D02*
X166032914Y-50355713D01*
X166032914Y-50355713D02*
X166080533Y-50450951D01*
X165794819Y-49260475D02*
X165794819Y-49165237D01*
X165794819Y-49165237D02*
X165842438Y-49069999D01*
X165842438Y-49069999D02*
X165890057Y-49022380D01*
X165890057Y-49022380D02*
X165985295Y-48974761D01*
X165985295Y-48974761D02*
X166175771Y-48927142D01*
X166175771Y-48927142D02*
X166413866Y-48927142D01*
X166413866Y-48927142D02*
X166604342Y-48974761D01*
X166604342Y-48974761D02*
X166699580Y-49022380D01*
X166699580Y-49022380D02*
X166747200Y-49069999D01*
X166747200Y-49069999D02*
X166794819Y-49165237D01*
X166794819Y-49165237D02*
X166794819Y-49260475D01*
X166794819Y-49260475D02*
X166747200Y-49355713D01*
X166747200Y-49355713D02*
X166699580Y-49403332D01*
X166699580Y-49403332D02*
X166604342Y-49450951D01*
X166604342Y-49450951D02*
X166413866Y-49498570D01*
X166413866Y-49498570D02*
X166175771Y-49498570D01*
X166175771Y-49498570D02*
X165985295Y-49450951D01*
X165985295Y-49450951D02*
X165890057Y-49403332D01*
X165890057Y-49403332D02*
X165842438Y-49355713D01*
X165842438Y-49355713D02*
X165794819Y-49260475D01*
X117159580Y-70972857D02*
X117207200Y-71020476D01*
X117207200Y-71020476D02*
X117254819Y-71163333D01*
X117254819Y-71163333D02*
X117254819Y-71258571D01*
X117254819Y-71258571D02*
X117207200Y-71401428D01*
X117207200Y-71401428D02*
X117111961Y-71496666D01*
X117111961Y-71496666D02*
X117016723Y-71544285D01*
X117016723Y-71544285D02*
X116826247Y-71591904D01*
X116826247Y-71591904D02*
X116683390Y-71591904D01*
X116683390Y-71591904D02*
X116492914Y-71544285D01*
X116492914Y-71544285D02*
X116397676Y-71496666D01*
X116397676Y-71496666D02*
X116302438Y-71401428D01*
X116302438Y-71401428D02*
X116254819Y-71258571D01*
X116254819Y-71258571D02*
X116254819Y-71163333D01*
X116254819Y-71163333D02*
X116302438Y-71020476D01*
X116302438Y-71020476D02*
X116350057Y-70972857D01*
X116350057Y-70591904D02*
X116302438Y-70544285D01*
X116302438Y-70544285D02*
X116254819Y-70449047D01*
X116254819Y-70449047D02*
X116254819Y-70210952D01*
X116254819Y-70210952D02*
X116302438Y-70115714D01*
X116302438Y-70115714D02*
X116350057Y-70068095D01*
X116350057Y-70068095D02*
X116445295Y-70020476D01*
X116445295Y-70020476D02*
X116540533Y-70020476D01*
X116540533Y-70020476D02*
X116683390Y-70068095D01*
X116683390Y-70068095D02*
X117254819Y-70639523D01*
X117254819Y-70639523D02*
X117254819Y-70020476D01*
X116588152Y-69163333D02*
X117254819Y-69163333D01*
X116207200Y-69401428D02*
X116921485Y-69639523D01*
X116921485Y-69639523D02*
X116921485Y-69020476D01*
X109659580Y-62572857D02*
X109707200Y-62620476D01*
X109707200Y-62620476D02*
X109754819Y-62763333D01*
X109754819Y-62763333D02*
X109754819Y-62858571D01*
X109754819Y-62858571D02*
X109707200Y-63001428D01*
X109707200Y-63001428D02*
X109611961Y-63096666D01*
X109611961Y-63096666D02*
X109516723Y-63144285D01*
X109516723Y-63144285D02*
X109326247Y-63191904D01*
X109326247Y-63191904D02*
X109183390Y-63191904D01*
X109183390Y-63191904D02*
X108992914Y-63144285D01*
X108992914Y-63144285D02*
X108897676Y-63096666D01*
X108897676Y-63096666D02*
X108802438Y-63001428D01*
X108802438Y-63001428D02*
X108754819Y-62858571D01*
X108754819Y-62858571D02*
X108754819Y-62763333D01*
X108754819Y-62763333D02*
X108802438Y-62620476D01*
X108802438Y-62620476D02*
X108850057Y-62572857D01*
X108850057Y-62191904D02*
X108802438Y-62144285D01*
X108802438Y-62144285D02*
X108754819Y-62049047D01*
X108754819Y-62049047D02*
X108754819Y-61810952D01*
X108754819Y-61810952D02*
X108802438Y-61715714D01*
X108802438Y-61715714D02*
X108850057Y-61668095D01*
X108850057Y-61668095D02*
X108945295Y-61620476D01*
X108945295Y-61620476D02*
X109040533Y-61620476D01*
X109040533Y-61620476D02*
X109183390Y-61668095D01*
X109183390Y-61668095D02*
X109754819Y-62239523D01*
X109754819Y-62239523D02*
X109754819Y-61620476D01*
X108850057Y-61239523D02*
X108802438Y-61191904D01*
X108802438Y-61191904D02*
X108754819Y-61096666D01*
X108754819Y-61096666D02*
X108754819Y-60858571D01*
X108754819Y-60858571D02*
X108802438Y-60763333D01*
X108802438Y-60763333D02*
X108850057Y-60715714D01*
X108850057Y-60715714D02*
X108945295Y-60668095D01*
X108945295Y-60668095D02*
X109040533Y-60668095D01*
X109040533Y-60668095D02*
X109183390Y-60715714D01*
X109183390Y-60715714D02*
X109754819Y-61287142D01*
X109754819Y-61287142D02*
X109754819Y-60668095D01*
X115469580Y-59750357D02*
X115517200Y-59797976D01*
X115517200Y-59797976D02*
X115564819Y-59940833D01*
X115564819Y-59940833D02*
X115564819Y-60036071D01*
X115564819Y-60036071D02*
X115517200Y-60178928D01*
X115517200Y-60178928D02*
X115421961Y-60274166D01*
X115421961Y-60274166D02*
X115326723Y-60321785D01*
X115326723Y-60321785D02*
X115136247Y-60369404D01*
X115136247Y-60369404D02*
X114993390Y-60369404D01*
X114993390Y-60369404D02*
X114802914Y-60321785D01*
X114802914Y-60321785D02*
X114707676Y-60274166D01*
X114707676Y-60274166D02*
X114612438Y-60178928D01*
X114612438Y-60178928D02*
X114564819Y-60036071D01*
X114564819Y-60036071D02*
X114564819Y-59940833D01*
X114564819Y-59940833D02*
X114612438Y-59797976D01*
X114612438Y-59797976D02*
X114660057Y-59750357D01*
X114660057Y-59369404D02*
X114612438Y-59321785D01*
X114612438Y-59321785D02*
X114564819Y-59226547D01*
X114564819Y-59226547D02*
X114564819Y-58988452D01*
X114564819Y-58988452D02*
X114612438Y-58893214D01*
X114612438Y-58893214D02*
X114660057Y-58845595D01*
X114660057Y-58845595D02*
X114755295Y-58797976D01*
X114755295Y-58797976D02*
X114850533Y-58797976D01*
X114850533Y-58797976D02*
X114993390Y-58845595D01*
X114993390Y-58845595D02*
X115564819Y-59417023D01*
X115564819Y-59417023D02*
X115564819Y-58797976D01*
X114564819Y-58178928D02*
X114564819Y-58083690D01*
X114564819Y-58083690D02*
X114612438Y-57988452D01*
X114612438Y-57988452D02*
X114660057Y-57940833D01*
X114660057Y-57940833D02*
X114755295Y-57893214D01*
X114755295Y-57893214D02*
X114945771Y-57845595D01*
X114945771Y-57845595D02*
X115183866Y-57845595D01*
X115183866Y-57845595D02*
X115374342Y-57893214D01*
X115374342Y-57893214D02*
X115469580Y-57940833D01*
X115469580Y-57940833D02*
X115517200Y-57988452D01*
X115517200Y-57988452D02*
X115564819Y-58083690D01*
X115564819Y-58083690D02*
X115564819Y-58178928D01*
X115564819Y-58178928D02*
X115517200Y-58274166D01*
X115517200Y-58274166D02*
X115469580Y-58321785D01*
X115469580Y-58321785D02*
X115374342Y-58369404D01*
X115374342Y-58369404D02*
X115183866Y-58417023D01*
X115183866Y-58417023D02*
X114945771Y-58417023D01*
X114945771Y-58417023D02*
X114755295Y-58369404D01*
X114755295Y-58369404D02*
X114660057Y-58321785D01*
X114660057Y-58321785D02*
X114612438Y-58274166D01*
X114612438Y-58274166D02*
X114564819Y-58178928D01*
X118059580Y-55872857D02*
X118107200Y-55920476D01*
X118107200Y-55920476D02*
X118154819Y-56063333D01*
X118154819Y-56063333D02*
X118154819Y-56158571D01*
X118154819Y-56158571D02*
X118107200Y-56301428D01*
X118107200Y-56301428D02*
X118011961Y-56396666D01*
X118011961Y-56396666D02*
X117916723Y-56444285D01*
X117916723Y-56444285D02*
X117726247Y-56491904D01*
X117726247Y-56491904D02*
X117583390Y-56491904D01*
X117583390Y-56491904D02*
X117392914Y-56444285D01*
X117392914Y-56444285D02*
X117297676Y-56396666D01*
X117297676Y-56396666D02*
X117202438Y-56301428D01*
X117202438Y-56301428D02*
X117154819Y-56158571D01*
X117154819Y-56158571D02*
X117154819Y-56063333D01*
X117154819Y-56063333D02*
X117202438Y-55920476D01*
X117202438Y-55920476D02*
X117250057Y-55872857D01*
X118154819Y-54920476D02*
X118154819Y-55491904D01*
X118154819Y-55206190D02*
X117154819Y-55206190D01*
X117154819Y-55206190D02*
X117297676Y-55301428D01*
X117297676Y-55301428D02*
X117392914Y-55396666D01*
X117392914Y-55396666D02*
X117440533Y-55491904D01*
X118154819Y-54444285D02*
X118154819Y-54253809D01*
X118154819Y-54253809D02*
X118107200Y-54158571D01*
X118107200Y-54158571D02*
X118059580Y-54110952D01*
X118059580Y-54110952D02*
X117916723Y-54015714D01*
X117916723Y-54015714D02*
X117726247Y-53968095D01*
X117726247Y-53968095D02*
X117345295Y-53968095D01*
X117345295Y-53968095D02*
X117250057Y-54015714D01*
X117250057Y-54015714D02*
X117202438Y-54063333D01*
X117202438Y-54063333D02*
X117154819Y-54158571D01*
X117154819Y-54158571D02*
X117154819Y-54349047D01*
X117154819Y-54349047D02*
X117202438Y-54444285D01*
X117202438Y-54444285D02*
X117250057Y-54491904D01*
X117250057Y-54491904D02*
X117345295Y-54539523D01*
X117345295Y-54539523D02*
X117583390Y-54539523D01*
X117583390Y-54539523D02*
X117678628Y-54491904D01*
X117678628Y-54491904D02*
X117726247Y-54444285D01*
X117726247Y-54444285D02*
X117773866Y-54349047D01*
X117773866Y-54349047D02*
X117773866Y-54158571D01*
X117773866Y-54158571D02*
X117726247Y-54063333D01*
X117726247Y-54063333D02*
X117678628Y-54015714D01*
X117678628Y-54015714D02*
X117583390Y-53968095D01*
X162218571Y-58251009D02*
X161885238Y-58251009D01*
X161885238Y-58774819D02*
X161885238Y-57774819D01*
X161885238Y-57774819D02*
X162361428Y-57774819D01*
X162742381Y-58774819D02*
X162742381Y-57774819D01*
X163218571Y-58774819D02*
X163218571Y-57774819D01*
X163218571Y-57774819D02*
X163456666Y-57774819D01*
X163456666Y-57774819D02*
X163599523Y-57822438D01*
X163599523Y-57822438D02*
X163694761Y-57917676D01*
X163694761Y-57917676D02*
X163742380Y-58012914D01*
X163742380Y-58012914D02*
X163789999Y-58203390D01*
X163789999Y-58203390D02*
X163789999Y-58346247D01*
X163789999Y-58346247D02*
X163742380Y-58536723D01*
X163742380Y-58536723D02*
X163694761Y-58631961D01*
X163694761Y-58631961D02*
X163599523Y-58727200D01*
X163599523Y-58727200D02*
X163456666Y-58774819D01*
X163456666Y-58774819D02*
X163218571Y-58774819D01*
X164647142Y-57774819D02*
X164456666Y-57774819D01*
X164456666Y-57774819D02*
X164361428Y-57822438D01*
X164361428Y-57822438D02*
X164313809Y-57870057D01*
X164313809Y-57870057D02*
X164218571Y-58012914D01*
X164218571Y-58012914D02*
X164170952Y-58203390D01*
X164170952Y-58203390D02*
X164170952Y-58584342D01*
X164170952Y-58584342D02*
X164218571Y-58679580D01*
X164218571Y-58679580D02*
X164266190Y-58727200D01*
X164266190Y-58727200D02*
X164361428Y-58774819D01*
X164361428Y-58774819D02*
X164551904Y-58774819D01*
X164551904Y-58774819D02*
X164647142Y-58727200D01*
X164647142Y-58727200D02*
X164694761Y-58679580D01*
X164694761Y-58679580D02*
X164742380Y-58584342D01*
X164742380Y-58584342D02*
X164742380Y-58346247D01*
X164742380Y-58346247D02*
X164694761Y-58251009D01*
X164694761Y-58251009D02*
X164647142Y-58203390D01*
X164647142Y-58203390D02*
X164551904Y-58155771D01*
X164551904Y-58155771D02*
X164361428Y-58155771D01*
X164361428Y-58155771D02*
X164266190Y-58203390D01*
X164266190Y-58203390D02*
X164218571Y-58251009D01*
X164218571Y-58251009D02*
X164170952Y-58346247D01*
X108428571Y-72061009D02*
X108095238Y-72061009D01*
X108095238Y-72584819D02*
X108095238Y-71584819D01*
X108095238Y-71584819D02*
X108571428Y-71584819D01*
X108952381Y-72584819D02*
X108952381Y-71584819D01*
X109428571Y-72584819D02*
X109428571Y-71584819D01*
X109428571Y-71584819D02*
X109666666Y-71584819D01*
X109666666Y-71584819D02*
X109809523Y-71632438D01*
X109809523Y-71632438D02*
X109904761Y-71727676D01*
X109904761Y-71727676D02*
X109952380Y-71822914D01*
X109952380Y-71822914D02*
X109999999Y-72013390D01*
X109999999Y-72013390D02*
X109999999Y-72156247D01*
X109999999Y-72156247D02*
X109952380Y-72346723D01*
X109952380Y-72346723D02*
X109904761Y-72441961D01*
X109904761Y-72441961D02*
X109809523Y-72537200D01*
X109809523Y-72537200D02*
X109666666Y-72584819D01*
X109666666Y-72584819D02*
X109428571Y-72584819D01*
X110904761Y-71584819D02*
X110428571Y-71584819D01*
X110428571Y-71584819D02*
X110380952Y-72061009D01*
X110380952Y-72061009D02*
X110428571Y-72013390D01*
X110428571Y-72013390D02*
X110523809Y-71965771D01*
X110523809Y-71965771D02*
X110761904Y-71965771D01*
X110761904Y-71965771D02*
X110857142Y-72013390D01*
X110857142Y-72013390D02*
X110904761Y-72061009D01*
X110904761Y-72061009D02*
X110952380Y-72156247D01*
X110952380Y-72156247D02*
X110952380Y-72394342D01*
X110952380Y-72394342D02*
X110904761Y-72489580D01*
X110904761Y-72489580D02*
X110857142Y-72537200D01*
X110857142Y-72537200D02*
X110761904Y-72584819D01*
X110761904Y-72584819D02*
X110523809Y-72584819D01*
X110523809Y-72584819D02*
X110428571Y-72537200D01*
X110428571Y-72537200D02*
X110380952Y-72489580D01*
X141394819Y-51236666D02*
X140918628Y-51569999D01*
X141394819Y-51808094D02*
X140394819Y-51808094D01*
X140394819Y-51808094D02*
X140394819Y-51427142D01*
X140394819Y-51427142D02*
X140442438Y-51331904D01*
X140442438Y-51331904D02*
X140490057Y-51284285D01*
X140490057Y-51284285D02*
X140585295Y-51236666D01*
X140585295Y-51236666D02*
X140728152Y-51236666D01*
X140728152Y-51236666D02*
X140823390Y-51284285D01*
X140823390Y-51284285D02*
X140871009Y-51331904D01*
X140871009Y-51331904D02*
X140918628Y-51427142D01*
X140918628Y-51427142D02*
X140918628Y-51808094D01*
X141394819Y-50760475D02*
X141394819Y-50569999D01*
X141394819Y-50569999D02*
X141347200Y-50474761D01*
X141347200Y-50474761D02*
X141299580Y-50427142D01*
X141299580Y-50427142D02*
X141156723Y-50331904D01*
X141156723Y-50331904D02*
X140966247Y-50284285D01*
X140966247Y-50284285D02*
X140585295Y-50284285D01*
X140585295Y-50284285D02*
X140490057Y-50331904D01*
X140490057Y-50331904D02*
X140442438Y-50379523D01*
X140442438Y-50379523D02*
X140394819Y-50474761D01*
X140394819Y-50474761D02*
X140394819Y-50665237D01*
X140394819Y-50665237D02*
X140442438Y-50760475D01*
X140442438Y-50760475D02*
X140490057Y-50808094D01*
X140490057Y-50808094D02*
X140585295Y-50855713D01*
X140585295Y-50855713D02*
X140823390Y-50855713D01*
X140823390Y-50855713D02*
X140918628Y-50808094D01*
X140918628Y-50808094D02*
X140966247Y-50760475D01*
X140966247Y-50760475D02*
X141013866Y-50665237D01*
X141013866Y-50665237D02*
X141013866Y-50474761D01*
X141013866Y-50474761D02*
X140966247Y-50379523D01*
X140966247Y-50379523D02*
X140918628Y-50331904D01*
X140918628Y-50331904D02*
X140823390Y-50284285D01*
X112719166Y-48081009D02*
X112385833Y-48081009D01*
X112385833Y-48604819D02*
X112385833Y-47604819D01*
X112385833Y-47604819D02*
X112862023Y-47604819D01*
X113147738Y-47604819D02*
X113766785Y-47604819D01*
X113766785Y-47604819D02*
X113433452Y-47985771D01*
X113433452Y-47985771D02*
X113576309Y-47985771D01*
X113576309Y-47985771D02*
X113671547Y-48033390D01*
X113671547Y-48033390D02*
X113719166Y-48081009D01*
X113719166Y-48081009D02*
X113766785Y-48176247D01*
X113766785Y-48176247D02*
X113766785Y-48414342D01*
X113766785Y-48414342D02*
X113719166Y-48509580D01*
X113719166Y-48509580D02*
X113671547Y-48557200D01*
X113671547Y-48557200D02*
X113576309Y-48604819D01*
X113576309Y-48604819D02*
X113290595Y-48604819D01*
X113290595Y-48604819D02*
X113195357Y-48557200D01*
X113195357Y-48557200D02*
X113147738Y-48509580D01*
X128344819Y-51462857D02*
X127868628Y-51796190D01*
X128344819Y-52034285D02*
X127344819Y-52034285D01*
X127344819Y-52034285D02*
X127344819Y-51653333D01*
X127344819Y-51653333D02*
X127392438Y-51558095D01*
X127392438Y-51558095D02*
X127440057Y-51510476D01*
X127440057Y-51510476D02*
X127535295Y-51462857D01*
X127535295Y-51462857D02*
X127678152Y-51462857D01*
X127678152Y-51462857D02*
X127773390Y-51510476D01*
X127773390Y-51510476D02*
X127821009Y-51558095D01*
X127821009Y-51558095D02*
X127868628Y-51653333D01*
X127868628Y-51653333D02*
X127868628Y-52034285D01*
X128344819Y-50510476D02*
X128344819Y-51081904D01*
X128344819Y-50796190D02*
X127344819Y-50796190D01*
X127344819Y-50796190D02*
X127487676Y-50891428D01*
X127487676Y-50891428D02*
X127582914Y-50986666D01*
X127582914Y-50986666D02*
X127630533Y-51081904D01*
X127344819Y-49891428D02*
X127344819Y-49796190D01*
X127344819Y-49796190D02*
X127392438Y-49700952D01*
X127392438Y-49700952D02*
X127440057Y-49653333D01*
X127440057Y-49653333D02*
X127535295Y-49605714D01*
X127535295Y-49605714D02*
X127725771Y-49558095D01*
X127725771Y-49558095D02*
X127963866Y-49558095D01*
X127963866Y-49558095D02*
X128154342Y-49605714D01*
X128154342Y-49605714D02*
X128249580Y-49653333D01*
X128249580Y-49653333D02*
X128297200Y-49700952D01*
X128297200Y-49700952D02*
X128344819Y-49796190D01*
X128344819Y-49796190D02*
X128344819Y-49891428D01*
X128344819Y-49891428D02*
X128297200Y-49986666D01*
X128297200Y-49986666D02*
X128249580Y-50034285D01*
X128249580Y-50034285D02*
X128154342Y-50081904D01*
X128154342Y-50081904D02*
X127963866Y-50129523D01*
X127963866Y-50129523D02*
X127725771Y-50129523D01*
X127725771Y-50129523D02*
X127535295Y-50081904D01*
X127535295Y-50081904D02*
X127440057Y-50034285D01*
X127440057Y-50034285D02*
X127392438Y-49986666D01*
X127392438Y-49986666D02*
X127344819Y-49891428D01*
X149638095Y-57484819D02*
X149638095Y-58294342D01*
X149638095Y-58294342D02*
X149685714Y-58389580D01*
X149685714Y-58389580D02*
X149733333Y-58437200D01*
X149733333Y-58437200D02*
X149828571Y-58484819D01*
X149828571Y-58484819D02*
X150019047Y-58484819D01*
X150019047Y-58484819D02*
X150114285Y-58437200D01*
X150114285Y-58437200D02*
X150161904Y-58389580D01*
X150161904Y-58389580D02*
X150209523Y-58294342D01*
X150209523Y-58294342D02*
X150209523Y-57484819D01*
X150828571Y-57913390D02*
X150733333Y-57865771D01*
X150733333Y-57865771D02*
X150685714Y-57818152D01*
X150685714Y-57818152D02*
X150638095Y-57722914D01*
X150638095Y-57722914D02*
X150638095Y-57675295D01*
X150638095Y-57675295D02*
X150685714Y-57580057D01*
X150685714Y-57580057D02*
X150733333Y-57532438D01*
X150733333Y-57532438D02*
X150828571Y-57484819D01*
X150828571Y-57484819D02*
X151019047Y-57484819D01*
X151019047Y-57484819D02*
X151114285Y-57532438D01*
X151114285Y-57532438D02*
X151161904Y-57580057D01*
X151161904Y-57580057D02*
X151209523Y-57675295D01*
X151209523Y-57675295D02*
X151209523Y-57722914D01*
X151209523Y-57722914D02*
X151161904Y-57818152D01*
X151161904Y-57818152D02*
X151114285Y-57865771D01*
X151114285Y-57865771D02*
X151019047Y-57913390D01*
X151019047Y-57913390D02*
X150828571Y-57913390D01*
X150828571Y-57913390D02*
X150733333Y-57961009D01*
X150733333Y-57961009D02*
X150685714Y-58008628D01*
X150685714Y-58008628D02*
X150638095Y-58103866D01*
X150638095Y-58103866D02*
X150638095Y-58294342D01*
X150638095Y-58294342D02*
X150685714Y-58389580D01*
X150685714Y-58389580D02*
X150733333Y-58437200D01*
X150733333Y-58437200D02*
X150828571Y-58484819D01*
X150828571Y-58484819D02*
X151019047Y-58484819D01*
X151019047Y-58484819D02*
X151114285Y-58437200D01*
X151114285Y-58437200D02*
X151161904Y-58389580D01*
X151161904Y-58389580D02*
X151209523Y-58294342D01*
X151209523Y-58294342D02*
X151209523Y-58103866D01*
X151209523Y-58103866D02*
X151161904Y-58008628D01*
X151161904Y-58008628D02*
X151114285Y-57961009D01*
X151114285Y-57961009D02*
X151019047Y-57913390D01*
X135184642Y-67249580D02*
X135137023Y-67297200D01*
X135137023Y-67297200D02*
X134994166Y-67344819D01*
X134994166Y-67344819D02*
X134898928Y-67344819D01*
X134898928Y-67344819D02*
X134756071Y-67297200D01*
X134756071Y-67297200D02*
X134660833Y-67201961D01*
X134660833Y-67201961D02*
X134613214Y-67106723D01*
X134613214Y-67106723D02*
X134565595Y-66916247D01*
X134565595Y-66916247D02*
X134565595Y-66773390D01*
X134565595Y-66773390D02*
X134613214Y-66582914D01*
X134613214Y-66582914D02*
X134660833Y-66487676D01*
X134660833Y-66487676D02*
X134756071Y-66392438D01*
X134756071Y-66392438D02*
X134898928Y-66344819D01*
X134898928Y-66344819D02*
X134994166Y-66344819D01*
X134994166Y-66344819D02*
X135137023Y-66392438D01*
X135137023Y-66392438D02*
X135184642Y-66440057D01*
X136137023Y-67344819D02*
X135565595Y-67344819D01*
X135851309Y-67344819D02*
X135851309Y-66344819D01*
X135851309Y-66344819D02*
X135756071Y-66487676D01*
X135756071Y-66487676D02*
X135660833Y-66582914D01*
X135660833Y-66582914D02*
X135565595Y-66630533D01*
X136994166Y-66344819D02*
X136803690Y-66344819D01*
X136803690Y-66344819D02*
X136708452Y-66392438D01*
X136708452Y-66392438D02*
X136660833Y-66440057D01*
X136660833Y-66440057D02*
X136565595Y-66582914D01*
X136565595Y-66582914D02*
X136517976Y-66773390D01*
X136517976Y-66773390D02*
X136517976Y-67154342D01*
X136517976Y-67154342D02*
X136565595Y-67249580D01*
X136565595Y-67249580D02*
X136613214Y-67297200D01*
X136613214Y-67297200D02*
X136708452Y-67344819D01*
X136708452Y-67344819D02*
X136898928Y-67344819D01*
X136898928Y-67344819D02*
X136994166Y-67297200D01*
X136994166Y-67297200D02*
X137041785Y-67249580D01*
X137041785Y-67249580D02*
X137089404Y-67154342D01*
X137089404Y-67154342D02*
X137089404Y-66916247D01*
X137089404Y-66916247D02*
X137041785Y-66821009D01*
X137041785Y-66821009D02*
X136994166Y-66773390D01*
X136994166Y-66773390D02*
X136898928Y-66725771D01*
X136898928Y-66725771D02*
X136708452Y-66725771D01*
X136708452Y-66725771D02*
X136613214Y-66773390D01*
X136613214Y-66773390D02*
X136565595Y-66821009D01*
X136565595Y-66821009D02*
X136517976Y-66916247D01*
X140397142Y-65874819D02*
X140063809Y-65398628D01*
X139825714Y-65874819D02*
X139825714Y-64874819D01*
X139825714Y-64874819D02*
X140206666Y-64874819D01*
X140206666Y-64874819D02*
X140301904Y-64922438D01*
X140301904Y-64922438D02*
X140349523Y-64970057D01*
X140349523Y-64970057D02*
X140397142Y-65065295D01*
X140397142Y-65065295D02*
X140397142Y-65208152D01*
X140397142Y-65208152D02*
X140349523Y-65303390D01*
X140349523Y-65303390D02*
X140301904Y-65351009D01*
X140301904Y-65351009D02*
X140206666Y-65398628D01*
X140206666Y-65398628D02*
X139825714Y-65398628D01*
X141349523Y-65874819D02*
X140778095Y-65874819D01*
X141063809Y-65874819D02*
X141063809Y-64874819D01*
X141063809Y-64874819D02*
X140968571Y-65017676D01*
X140968571Y-65017676D02*
X140873333Y-65112914D01*
X140873333Y-65112914D02*
X140778095Y-65160533D01*
X141682857Y-64874819D02*
X142301904Y-64874819D01*
X142301904Y-64874819D02*
X141968571Y-65255771D01*
X141968571Y-65255771D02*
X142111428Y-65255771D01*
X142111428Y-65255771D02*
X142206666Y-65303390D01*
X142206666Y-65303390D02*
X142254285Y-65351009D01*
X142254285Y-65351009D02*
X142301904Y-65446247D01*
X142301904Y-65446247D02*
X142301904Y-65684342D01*
X142301904Y-65684342D02*
X142254285Y-65779580D01*
X142254285Y-65779580D02*
X142206666Y-65827200D01*
X142206666Y-65827200D02*
X142111428Y-65874819D01*
X142111428Y-65874819D02*
X141825714Y-65874819D01*
X141825714Y-65874819D02*
X141730476Y-65827200D01*
X141730476Y-65827200D02*
X141682857Y-65779580D01*
X130738095Y-59884819D02*
X130738095Y-60694342D01*
X130738095Y-60694342D02*
X130785714Y-60789580D01*
X130785714Y-60789580D02*
X130833333Y-60837200D01*
X130833333Y-60837200D02*
X130928571Y-60884819D01*
X130928571Y-60884819D02*
X131119047Y-60884819D01*
X131119047Y-60884819D02*
X131214285Y-60837200D01*
X131214285Y-60837200D02*
X131261904Y-60789580D01*
X131261904Y-60789580D02*
X131309523Y-60694342D01*
X131309523Y-60694342D02*
X131309523Y-59884819D01*
X132214285Y-59884819D02*
X132023809Y-59884819D01*
X132023809Y-59884819D02*
X131928571Y-59932438D01*
X131928571Y-59932438D02*
X131880952Y-59980057D01*
X131880952Y-59980057D02*
X131785714Y-60122914D01*
X131785714Y-60122914D02*
X131738095Y-60313390D01*
X131738095Y-60313390D02*
X131738095Y-60694342D01*
X131738095Y-60694342D02*
X131785714Y-60789580D01*
X131785714Y-60789580D02*
X131833333Y-60837200D01*
X131833333Y-60837200D02*
X131928571Y-60884819D01*
X131928571Y-60884819D02*
X132119047Y-60884819D01*
X132119047Y-60884819D02*
X132214285Y-60837200D01*
X132214285Y-60837200D02*
X132261904Y-60789580D01*
X132261904Y-60789580D02*
X132309523Y-60694342D01*
X132309523Y-60694342D02*
X132309523Y-60456247D01*
X132309523Y-60456247D02*
X132261904Y-60361009D01*
X132261904Y-60361009D02*
X132214285Y-60313390D01*
X132214285Y-60313390D02*
X132119047Y-60265771D01*
X132119047Y-60265771D02*
X131928571Y-60265771D01*
X131928571Y-60265771D02*
X131833333Y-60313390D01*
X131833333Y-60313390D02*
X131785714Y-60361009D01*
X131785714Y-60361009D02*
X131738095Y-60456247D01*
X133730476Y-40568819D02*
X133730476Y-41283104D01*
X133730476Y-41283104D02*
X133682857Y-41425961D01*
X133682857Y-41425961D02*
X133587619Y-41521200D01*
X133587619Y-41521200D02*
X133444762Y-41568819D01*
X133444762Y-41568819D02*
X133349524Y-41568819D01*
X134730476Y-41568819D02*
X134159048Y-41568819D01*
X134444762Y-41568819D02*
X134444762Y-40568819D01*
X134444762Y-40568819D02*
X134349524Y-40711676D01*
X134349524Y-40711676D02*
X134254286Y-40806914D01*
X134254286Y-40806914D02*
X134159048Y-40854533D01*
X135635238Y-40568819D02*
X135159048Y-40568819D01*
X135159048Y-40568819D02*
X135111429Y-41045009D01*
X135111429Y-41045009D02*
X135159048Y-40997390D01*
X135159048Y-40997390D02*
X135254286Y-40949771D01*
X135254286Y-40949771D02*
X135492381Y-40949771D01*
X135492381Y-40949771D02*
X135587619Y-40997390D01*
X135587619Y-40997390D02*
X135635238Y-41045009D01*
X135635238Y-41045009D02*
X135682857Y-41140247D01*
X135682857Y-41140247D02*
X135682857Y-41378342D01*
X135682857Y-41378342D02*
X135635238Y-41473580D01*
X135635238Y-41473580D02*
X135587619Y-41521200D01*
X135587619Y-41521200D02*
X135492381Y-41568819D01*
X135492381Y-41568819D02*
X135254286Y-41568819D01*
X135254286Y-41568819D02*
X135159048Y-41521200D01*
X135159048Y-41521200D02*
X135111429Y-41473580D01*
X140434642Y-67749580D02*
X140387023Y-67797200D01*
X140387023Y-67797200D02*
X140244166Y-67844819D01*
X140244166Y-67844819D02*
X140148928Y-67844819D01*
X140148928Y-67844819D02*
X140006071Y-67797200D01*
X140006071Y-67797200D02*
X139910833Y-67701961D01*
X139910833Y-67701961D02*
X139863214Y-67606723D01*
X139863214Y-67606723D02*
X139815595Y-67416247D01*
X139815595Y-67416247D02*
X139815595Y-67273390D01*
X139815595Y-67273390D02*
X139863214Y-67082914D01*
X139863214Y-67082914D02*
X139910833Y-66987676D01*
X139910833Y-66987676D02*
X140006071Y-66892438D01*
X140006071Y-66892438D02*
X140148928Y-66844819D01*
X140148928Y-66844819D02*
X140244166Y-66844819D01*
X140244166Y-66844819D02*
X140387023Y-66892438D01*
X140387023Y-66892438D02*
X140434642Y-66940057D01*
X140815595Y-66940057D02*
X140863214Y-66892438D01*
X140863214Y-66892438D02*
X140958452Y-66844819D01*
X140958452Y-66844819D02*
X141196547Y-66844819D01*
X141196547Y-66844819D02*
X141291785Y-66892438D01*
X141291785Y-66892438D02*
X141339404Y-66940057D01*
X141339404Y-66940057D02*
X141387023Y-67035295D01*
X141387023Y-67035295D02*
X141387023Y-67130533D01*
X141387023Y-67130533D02*
X141339404Y-67273390D01*
X141339404Y-67273390D02*
X140767976Y-67844819D01*
X140767976Y-67844819D02*
X141387023Y-67844819D01*
X142244166Y-66844819D02*
X142053690Y-66844819D01*
X142053690Y-66844819D02*
X141958452Y-66892438D01*
X141958452Y-66892438D02*
X141910833Y-66940057D01*
X141910833Y-66940057D02*
X141815595Y-67082914D01*
X141815595Y-67082914D02*
X141767976Y-67273390D01*
X141767976Y-67273390D02*
X141767976Y-67654342D01*
X141767976Y-67654342D02*
X141815595Y-67749580D01*
X141815595Y-67749580D02*
X141863214Y-67797200D01*
X141863214Y-67797200D02*
X141958452Y-67844819D01*
X141958452Y-67844819D02*
X142148928Y-67844819D01*
X142148928Y-67844819D02*
X142244166Y-67797200D01*
X142244166Y-67797200D02*
X142291785Y-67749580D01*
X142291785Y-67749580D02*
X142339404Y-67654342D01*
X142339404Y-67654342D02*
X142339404Y-67416247D01*
X142339404Y-67416247D02*
X142291785Y-67321009D01*
X142291785Y-67321009D02*
X142244166Y-67273390D01*
X142244166Y-67273390D02*
X142148928Y-67225771D01*
X142148928Y-67225771D02*
X141958452Y-67225771D01*
X141958452Y-67225771D02*
X141863214Y-67273390D01*
X141863214Y-67273390D02*
X141815595Y-67321009D01*
X141815595Y-67321009D02*
X141767976Y-67416247D01*
X162594819Y-65462857D02*
X162118628Y-65796190D01*
X162594819Y-66034285D02*
X161594819Y-66034285D01*
X161594819Y-66034285D02*
X161594819Y-65653333D01*
X161594819Y-65653333D02*
X161642438Y-65558095D01*
X161642438Y-65558095D02*
X161690057Y-65510476D01*
X161690057Y-65510476D02*
X161785295Y-65462857D01*
X161785295Y-65462857D02*
X161928152Y-65462857D01*
X161928152Y-65462857D02*
X162023390Y-65510476D01*
X162023390Y-65510476D02*
X162071009Y-65558095D01*
X162071009Y-65558095D02*
X162118628Y-65653333D01*
X162118628Y-65653333D02*
X162118628Y-66034285D01*
X162594819Y-64510476D02*
X162594819Y-65081904D01*
X162594819Y-64796190D02*
X161594819Y-64796190D01*
X161594819Y-64796190D02*
X161737676Y-64891428D01*
X161737676Y-64891428D02*
X161832914Y-64986666D01*
X161832914Y-64986666D02*
X161880533Y-65081904D01*
X161928152Y-63653333D02*
X162594819Y-63653333D01*
X161547200Y-63891428D02*
X162261485Y-64129523D01*
X162261485Y-64129523D02*
X162261485Y-63510476D01*
X161803151Y-79810875D02*
X161803151Y-78810875D01*
X161803151Y-79287065D02*
X162374579Y-79287065D01*
X162374579Y-79810875D02*
X162374579Y-78810875D01*
X163279341Y-79144208D02*
X163279341Y-79810875D01*
X163041246Y-78763256D02*
X162803151Y-79477541D01*
X162803151Y-79477541D02*
X163422198Y-79477541D01*
X164611819Y-74856904D02*
X165421342Y-74856904D01*
X165421342Y-74856904D02*
X165516580Y-74809285D01*
X165516580Y-74809285D02*
X165564200Y-74761666D01*
X165564200Y-74761666D02*
X165611819Y-74666428D01*
X165611819Y-74666428D02*
X165611819Y-74475952D01*
X165611819Y-74475952D02*
X165564200Y-74380714D01*
X165564200Y-74380714D02*
X165516580Y-74333095D01*
X165516580Y-74333095D02*
X165421342Y-74285476D01*
X165421342Y-74285476D02*
X164611819Y-74285476D01*
X165611819Y-73761666D02*
X165611819Y-73571190D01*
X165611819Y-73571190D02*
X165564200Y-73475952D01*
X165564200Y-73475952D02*
X165516580Y-73428333D01*
X165516580Y-73428333D02*
X165373723Y-73333095D01*
X165373723Y-73333095D02*
X165183247Y-73285476D01*
X165183247Y-73285476D02*
X164802295Y-73285476D01*
X164802295Y-73285476D02*
X164707057Y-73333095D01*
X164707057Y-73333095D02*
X164659438Y-73380714D01*
X164659438Y-73380714D02*
X164611819Y-73475952D01*
X164611819Y-73475952D02*
X164611819Y-73666428D01*
X164611819Y-73666428D02*
X164659438Y-73761666D01*
X164659438Y-73761666D02*
X164707057Y-73809285D01*
X164707057Y-73809285D02*
X164802295Y-73856904D01*
X164802295Y-73856904D02*
X165040390Y-73856904D01*
X165040390Y-73856904D02*
X165135628Y-73809285D01*
X165135628Y-73809285D02*
X165183247Y-73761666D01*
X165183247Y-73761666D02*
X165230866Y-73666428D01*
X165230866Y-73666428D02*
X165230866Y-73475952D01*
X165230866Y-73475952D02*
X165183247Y-73380714D01*
X165183247Y-73380714D02*
X165135628Y-73333095D01*
X165135628Y-73333095D02*
X165040390Y-73285476D01*
X159789580Y-73522857D02*
X159837200Y-73570476D01*
X159837200Y-73570476D02*
X159884819Y-73713333D01*
X159884819Y-73713333D02*
X159884819Y-73808571D01*
X159884819Y-73808571D02*
X159837200Y-73951428D01*
X159837200Y-73951428D02*
X159741961Y-74046666D01*
X159741961Y-74046666D02*
X159646723Y-74094285D01*
X159646723Y-74094285D02*
X159456247Y-74141904D01*
X159456247Y-74141904D02*
X159313390Y-74141904D01*
X159313390Y-74141904D02*
X159122914Y-74094285D01*
X159122914Y-74094285D02*
X159027676Y-74046666D01*
X159027676Y-74046666D02*
X158932438Y-73951428D01*
X158932438Y-73951428D02*
X158884819Y-73808571D01*
X158884819Y-73808571D02*
X158884819Y-73713333D01*
X158884819Y-73713333D02*
X158932438Y-73570476D01*
X158932438Y-73570476D02*
X158980057Y-73522857D01*
X158884819Y-73189523D02*
X158884819Y-72570476D01*
X158884819Y-72570476D02*
X159265771Y-72903809D01*
X159265771Y-72903809D02*
X159265771Y-72760952D01*
X159265771Y-72760952D02*
X159313390Y-72665714D01*
X159313390Y-72665714D02*
X159361009Y-72618095D01*
X159361009Y-72618095D02*
X159456247Y-72570476D01*
X159456247Y-72570476D02*
X159694342Y-72570476D01*
X159694342Y-72570476D02*
X159789580Y-72618095D01*
X159789580Y-72618095D02*
X159837200Y-72665714D01*
X159837200Y-72665714D02*
X159884819Y-72760952D01*
X159884819Y-72760952D02*
X159884819Y-73046666D01*
X159884819Y-73046666D02*
X159837200Y-73141904D01*
X159837200Y-73141904D02*
X159789580Y-73189523D01*
X158884819Y-71951428D02*
X158884819Y-71856190D01*
X158884819Y-71856190D02*
X158932438Y-71760952D01*
X158932438Y-71760952D02*
X158980057Y-71713333D01*
X158980057Y-71713333D02*
X159075295Y-71665714D01*
X159075295Y-71665714D02*
X159265771Y-71618095D01*
X159265771Y-71618095D02*
X159503866Y-71618095D01*
X159503866Y-71618095D02*
X159694342Y-71665714D01*
X159694342Y-71665714D02*
X159789580Y-71713333D01*
X159789580Y-71713333D02*
X159837200Y-71760952D01*
X159837200Y-71760952D02*
X159884819Y-71856190D01*
X159884819Y-71856190D02*
X159884819Y-71951428D01*
X159884819Y-71951428D02*
X159837200Y-72046666D01*
X159837200Y-72046666D02*
X159789580Y-72094285D01*
X159789580Y-72094285D02*
X159694342Y-72141904D01*
X159694342Y-72141904D02*
X159503866Y-72189523D01*
X159503866Y-72189523D02*
X159265771Y-72189523D01*
X159265771Y-72189523D02*
X159075295Y-72141904D01*
X159075295Y-72141904D02*
X158980057Y-72094285D01*
X158980057Y-72094285D02*
X158932438Y-72046666D01*
X158932438Y-72046666D02*
X158884819Y-71951428D01*
X161254819Y-69563333D02*
X161969104Y-69563333D01*
X161969104Y-69563333D02*
X162111961Y-69610952D01*
X162111961Y-69610952D02*
X162207200Y-69706190D01*
X162207200Y-69706190D02*
X162254819Y-69849047D01*
X162254819Y-69849047D02*
X162254819Y-69944285D01*
X162254819Y-69087142D02*
X161254819Y-69087142D01*
X161254819Y-69087142D02*
X161254819Y-68706190D01*
X161254819Y-68706190D02*
X161302438Y-68610952D01*
X161302438Y-68610952D02*
X161350057Y-68563333D01*
X161350057Y-68563333D02*
X161445295Y-68515714D01*
X161445295Y-68515714D02*
X161588152Y-68515714D01*
X161588152Y-68515714D02*
X161683390Y-68563333D01*
X161683390Y-68563333D02*
X161731009Y-68610952D01*
X161731009Y-68610952D02*
X161778628Y-68706190D01*
X161778628Y-68706190D02*
X161778628Y-69087142D01*
X161254819Y-67610952D02*
X161254819Y-68087142D01*
X161254819Y-68087142D02*
X161731009Y-68134761D01*
X161731009Y-68134761D02*
X161683390Y-68087142D01*
X161683390Y-68087142D02*
X161635771Y-67991904D01*
X161635771Y-67991904D02*
X161635771Y-67753809D01*
X161635771Y-67753809D02*
X161683390Y-67658571D01*
X161683390Y-67658571D02*
X161731009Y-67610952D01*
X161731009Y-67610952D02*
X161826247Y-67563333D01*
X161826247Y-67563333D02*
X162064342Y-67563333D01*
X162064342Y-67563333D02*
X162159580Y-67610952D01*
X162159580Y-67610952D02*
X162207200Y-67658571D01*
X162207200Y-67658571D02*
X162254819Y-67753809D01*
X162254819Y-67753809D02*
X162254819Y-67991904D01*
X162254819Y-67991904D02*
X162207200Y-68087142D01*
X162207200Y-68087142D02*
X162159580Y-68134761D01*
X158109642Y-69859580D02*
X158062023Y-69907200D01*
X158062023Y-69907200D02*
X157919166Y-69954819D01*
X157919166Y-69954819D02*
X157823928Y-69954819D01*
X157823928Y-69954819D02*
X157681071Y-69907200D01*
X157681071Y-69907200D02*
X157585833Y-69811961D01*
X157585833Y-69811961D02*
X157538214Y-69716723D01*
X157538214Y-69716723D02*
X157490595Y-69526247D01*
X157490595Y-69526247D02*
X157490595Y-69383390D01*
X157490595Y-69383390D02*
X157538214Y-69192914D01*
X157538214Y-69192914D02*
X157585833Y-69097676D01*
X157585833Y-69097676D02*
X157681071Y-69002438D01*
X157681071Y-69002438D02*
X157823928Y-68954819D01*
X157823928Y-68954819D02*
X157919166Y-68954819D01*
X157919166Y-68954819D02*
X158062023Y-69002438D01*
X158062023Y-69002438D02*
X158109642Y-69050057D01*
X158490595Y-69050057D02*
X158538214Y-69002438D01*
X158538214Y-69002438D02*
X158633452Y-68954819D01*
X158633452Y-68954819D02*
X158871547Y-68954819D01*
X158871547Y-68954819D02*
X158966785Y-69002438D01*
X158966785Y-69002438D02*
X159014404Y-69050057D01*
X159014404Y-69050057D02*
X159062023Y-69145295D01*
X159062023Y-69145295D02*
X159062023Y-69240533D01*
X159062023Y-69240533D02*
X159014404Y-69383390D01*
X159014404Y-69383390D02*
X158442976Y-69954819D01*
X158442976Y-69954819D02*
X159062023Y-69954819D01*
X159966785Y-68954819D02*
X159490595Y-68954819D01*
X159490595Y-68954819D02*
X159442976Y-69431009D01*
X159442976Y-69431009D02*
X159490595Y-69383390D01*
X159490595Y-69383390D02*
X159585833Y-69335771D01*
X159585833Y-69335771D02*
X159823928Y-69335771D01*
X159823928Y-69335771D02*
X159919166Y-69383390D01*
X159919166Y-69383390D02*
X159966785Y-69431009D01*
X159966785Y-69431009D02*
X160014404Y-69526247D01*
X160014404Y-69526247D02*
X160014404Y-69764342D01*
X160014404Y-69764342D02*
X159966785Y-69859580D01*
X159966785Y-69859580D02*
X159919166Y-69907200D01*
X159919166Y-69907200D02*
X159823928Y-69954819D01*
X159823928Y-69954819D02*
X159585833Y-69954819D01*
X159585833Y-69954819D02*
X159490595Y-69907200D01*
X159490595Y-69907200D02*
X159442976Y-69859580D01*
X161468628Y-63946190D02*
X161944819Y-63946190D01*
X160944819Y-64279523D02*
X161468628Y-63946190D01*
X161468628Y-63946190D02*
X160944819Y-63612857D01*
X161040057Y-63327142D02*
X160992438Y-63279523D01*
X160992438Y-63279523D02*
X160944819Y-63184285D01*
X160944819Y-63184285D02*
X160944819Y-62946190D01*
X160944819Y-62946190D02*
X160992438Y-62850952D01*
X160992438Y-62850952D02*
X161040057Y-62803333D01*
X161040057Y-62803333D02*
X161135295Y-62755714D01*
X161135295Y-62755714D02*
X161230533Y-62755714D01*
X161230533Y-62755714D02*
X161373390Y-62803333D01*
X161373390Y-62803333D02*
X161944819Y-63374761D01*
X161944819Y-63374761D02*
X161944819Y-62755714D01*
X125052819Y-56408285D02*
X124052819Y-56408285D01*
X124052819Y-56408285D02*
X124052819Y-56170190D01*
X124052819Y-56170190D02*
X124100438Y-56027333D01*
X124100438Y-56027333D02*
X124195676Y-55932095D01*
X124195676Y-55932095D02*
X124290914Y-55884476D01*
X124290914Y-55884476D02*
X124481390Y-55836857D01*
X124481390Y-55836857D02*
X124624247Y-55836857D01*
X124624247Y-55836857D02*
X124814723Y-55884476D01*
X124814723Y-55884476D02*
X124909961Y-55932095D01*
X124909961Y-55932095D02*
X125005200Y-56027333D01*
X125005200Y-56027333D02*
X125052819Y-56170190D01*
X125052819Y-56170190D02*
X125052819Y-56408285D01*
X125052819Y-54884476D02*
X125052819Y-55455904D01*
X125052819Y-55170190D02*
X124052819Y-55170190D01*
X124052819Y-55170190D02*
X124195676Y-55265428D01*
X124195676Y-55265428D02*
X124290914Y-55360666D01*
X124290914Y-55360666D02*
X124338533Y-55455904D01*
X124052819Y-54265428D02*
X124052819Y-54170190D01*
X124052819Y-54170190D02*
X124100438Y-54074952D01*
X124100438Y-54074952D02*
X124148057Y-54027333D01*
X124148057Y-54027333D02*
X124243295Y-53979714D01*
X124243295Y-53979714D02*
X124433771Y-53932095D01*
X124433771Y-53932095D02*
X124671866Y-53932095D01*
X124671866Y-53932095D02*
X124862342Y-53979714D01*
X124862342Y-53979714D02*
X124957580Y-54027333D01*
X124957580Y-54027333D02*
X125005200Y-54074952D01*
X125005200Y-54074952D02*
X125052819Y-54170190D01*
X125052819Y-54170190D02*
X125052819Y-54265428D01*
X125052819Y-54265428D02*
X125005200Y-54360666D01*
X125005200Y-54360666D02*
X124957580Y-54408285D01*
X124957580Y-54408285D02*
X124862342Y-54455904D01*
X124862342Y-54455904D02*
X124671866Y-54503523D01*
X124671866Y-54503523D02*
X124433771Y-54503523D01*
X124433771Y-54503523D02*
X124243295Y-54455904D01*
X124243295Y-54455904D02*
X124148057Y-54408285D01*
X124148057Y-54408285D02*
X124100438Y-54360666D01*
X124100438Y-54360666D02*
X124052819Y-54265428D01*
X120844819Y-50986666D02*
X120368628Y-51319999D01*
X120844819Y-51558094D02*
X119844819Y-51558094D01*
X119844819Y-51558094D02*
X119844819Y-51177142D01*
X119844819Y-51177142D02*
X119892438Y-51081904D01*
X119892438Y-51081904D02*
X119940057Y-51034285D01*
X119940057Y-51034285D02*
X120035295Y-50986666D01*
X120035295Y-50986666D02*
X120178152Y-50986666D01*
X120178152Y-50986666D02*
X120273390Y-51034285D01*
X120273390Y-51034285D02*
X120321009Y-51081904D01*
X120321009Y-51081904D02*
X120368628Y-51177142D01*
X120368628Y-51177142D02*
X120368628Y-51558094D01*
X120273390Y-50415237D02*
X120225771Y-50510475D01*
X120225771Y-50510475D02*
X120178152Y-50558094D01*
X120178152Y-50558094D02*
X120082914Y-50605713D01*
X120082914Y-50605713D02*
X120035295Y-50605713D01*
X120035295Y-50605713D02*
X119940057Y-50558094D01*
X119940057Y-50558094D02*
X119892438Y-50510475D01*
X119892438Y-50510475D02*
X119844819Y-50415237D01*
X119844819Y-50415237D02*
X119844819Y-50224761D01*
X119844819Y-50224761D02*
X119892438Y-50129523D01*
X119892438Y-50129523D02*
X119940057Y-50081904D01*
X119940057Y-50081904D02*
X120035295Y-50034285D01*
X120035295Y-50034285D02*
X120082914Y-50034285D01*
X120082914Y-50034285D02*
X120178152Y-50081904D01*
X120178152Y-50081904D02*
X120225771Y-50129523D01*
X120225771Y-50129523D02*
X120273390Y-50224761D01*
X120273390Y-50224761D02*
X120273390Y-50415237D01*
X120273390Y-50415237D02*
X120321009Y-50510475D01*
X120321009Y-50510475D02*
X120368628Y-50558094D01*
X120368628Y-50558094D02*
X120463866Y-50605713D01*
X120463866Y-50605713D02*
X120654342Y-50605713D01*
X120654342Y-50605713D02*
X120749580Y-50558094D01*
X120749580Y-50558094D02*
X120797200Y-50510475D01*
X120797200Y-50510475D02*
X120844819Y-50415237D01*
X120844819Y-50415237D02*
X120844819Y-50224761D01*
X120844819Y-50224761D02*
X120797200Y-50129523D01*
X120797200Y-50129523D02*
X120749580Y-50081904D01*
X120749580Y-50081904D02*
X120654342Y-50034285D01*
X120654342Y-50034285D02*
X120463866Y-50034285D01*
X120463866Y-50034285D02*
X120368628Y-50081904D01*
X120368628Y-50081904D02*
X120321009Y-50129523D01*
X120321009Y-50129523D02*
X120273390Y-50224761D01*
X139394819Y-51712857D02*
X138918628Y-52046190D01*
X139394819Y-52284285D02*
X138394819Y-52284285D01*
X138394819Y-52284285D02*
X138394819Y-51903333D01*
X138394819Y-51903333D02*
X138442438Y-51808095D01*
X138442438Y-51808095D02*
X138490057Y-51760476D01*
X138490057Y-51760476D02*
X138585295Y-51712857D01*
X138585295Y-51712857D02*
X138728152Y-51712857D01*
X138728152Y-51712857D02*
X138823390Y-51760476D01*
X138823390Y-51760476D02*
X138871009Y-51808095D01*
X138871009Y-51808095D02*
X138918628Y-51903333D01*
X138918628Y-51903333D02*
X138918628Y-52284285D01*
X139394819Y-50760476D02*
X139394819Y-51331904D01*
X139394819Y-51046190D02*
X138394819Y-51046190D01*
X138394819Y-51046190D02*
X138537676Y-51141428D01*
X138537676Y-51141428D02*
X138632914Y-51236666D01*
X138632914Y-51236666D02*
X138680533Y-51331904D01*
X139394819Y-49808095D02*
X139394819Y-50379523D01*
X139394819Y-50093809D02*
X138394819Y-50093809D01*
X138394819Y-50093809D02*
X138537676Y-50189047D01*
X138537676Y-50189047D02*
X138632914Y-50284285D01*
X138632914Y-50284285D02*
X138680533Y-50379523D01*
X127219580Y-59425357D02*
X127267200Y-59472976D01*
X127267200Y-59472976D02*
X127314819Y-59615833D01*
X127314819Y-59615833D02*
X127314819Y-59711071D01*
X127314819Y-59711071D02*
X127267200Y-59853928D01*
X127267200Y-59853928D02*
X127171961Y-59949166D01*
X127171961Y-59949166D02*
X127076723Y-59996785D01*
X127076723Y-59996785D02*
X126886247Y-60044404D01*
X126886247Y-60044404D02*
X126743390Y-60044404D01*
X126743390Y-60044404D02*
X126552914Y-59996785D01*
X126552914Y-59996785D02*
X126457676Y-59949166D01*
X126457676Y-59949166D02*
X126362438Y-59853928D01*
X126362438Y-59853928D02*
X126314819Y-59711071D01*
X126314819Y-59711071D02*
X126314819Y-59615833D01*
X126314819Y-59615833D02*
X126362438Y-59472976D01*
X126362438Y-59472976D02*
X126410057Y-59425357D01*
X127314819Y-58472976D02*
X127314819Y-59044404D01*
X127314819Y-58758690D02*
X126314819Y-58758690D01*
X126314819Y-58758690D02*
X126457676Y-58853928D01*
X126457676Y-58853928D02*
X126552914Y-58949166D01*
X126552914Y-58949166D02*
X126600533Y-59044404D01*
X126314819Y-58139642D02*
X126314819Y-57472976D01*
X126314819Y-57472976D02*
X127314819Y-57901547D01*
X125719580Y-51487857D02*
X125767200Y-51535476D01*
X125767200Y-51535476D02*
X125814819Y-51678333D01*
X125814819Y-51678333D02*
X125814819Y-51773571D01*
X125814819Y-51773571D02*
X125767200Y-51916428D01*
X125767200Y-51916428D02*
X125671961Y-52011666D01*
X125671961Y-52011666D02*
X125576723Y-52059285D01*
X125576723Y-52059285D02*
X125386247Y-52106904D01*
X125386247Y-52106904D02*
X125243390Y-52106904D01*
X125243390Y-52106904D02*
X125052914Y-52059285D01*
X125052914Y-52059285D02*
X124957676Y-52011666D01*
X124957676Y-52011666D02*
X124862438Y-51916428D01*
X124862438Y-51916428D02*
X124814819Y-51773571D01*
X124814819Y-51773571D02*
X124814819Y-51678333D01*
X124814819Y-51678333D02*
X124862438Y-51535476D01*
X124862438Y-51535476D02*
X124910057Y-51487857D01*
X124910057Y-51106904D02*
X124862438Y-51059285D01*
X124862438Y-51059285D02*
X124814819Y-50964047D01*
X124814819Y-50964047D02*
X124814819Y-50725952D01*
X124814819Y-50725952D02*
X124862438Y-50630714D01*
X124862438Y-50630714D02*
X124910057Y-50583095D01*
X124910057Y-50583095D02*
X125005295Y-50535476D01*
X125005295Y-50535476D02*
X125100533Y-50535476D01*
X125100533Y-50535476D02*
X125243390Y-50583095D01*
X125243390Y-50583095D02*
X125814819Y-51154523D01*
X125814819Y-51154523D02*
X125814819Y-50535476D01*
X124814819Y-50202142D02*
X124814819Y-49535476D01*
X124814819Y-49535476D02*
X125814819Y-49964047D01*
X159894819Y-45208094D02*
X158894819Y-45208094D01*
X158894819Y-45208094D02*
X158894819Y-44969999D01*
X158894819Y-44969999D02*
X158942438Y-44827142D01*
X158942438Y-44827142D02*
X159037676Y-44731904D01*
X159037676Y-44731904D02*
X159132914Y-44684285D01*
X159132914Y-44684285D02*
X159323390Y-44636666D01*
X159323390Y-44636666D02*
X159466247Y-44636666D01*
X159466247Y-44636666D02*
X159656723Y-44684285D01*
X159656723Y-44684285D02*
X159751961Y-44731904D01*
X159751961Y-44731904D02*
X159847200Y-44827142D01*
X159847200Y-44827142D02*
X159894819Y-44969999D01*
X159894819Y-44969999D02*
X159894819Y-45208094D01*
X158894819Y-43779523D02*
X158894819Y-43969999D01*
X158894819Y-43969999D02*
X158942438Y-44065237D01*
X158942438Y-44065237D02*
X158990057Y-44112856D01*
X158990057Y-44112856D02*
X159132914Y-44208094D01*
X159132914Y-44208094D02*
X159323390Y-44255713D01*
X159323390Y-44255713D02*
X159704342Y-44255713D01*
X159704342Y-44255713D02*
X159799580Y-44208094D01*
X159799580Y-44208094D02*
X159847200Y-44160475D01*
X159847200Y-44160475D02*
X159894819Y-44065237D01*
X159894819Y-44065237D02*
X159894819Y-43874761D01*
X159894819Y-43874761D02*
X159847200Y-43779523D01*
X159847200Y-43779523D02*
X159799580Y-43731904D01*
X159799580Y-43731904D02*
X159704342Y-43684285D01*
X159704342Y-43684285D02*
X159466247Y-43684285D01*
X159466247Y-43684285D02*
X159371009Y-43731904D01*
X159371009Y-43731904D02*
X159323390Y-43779523D01*
X159323390Y-43779523D02*
X159275771Y-43874761D01*
X159275771Y-43874761D02*
X159275771Y-44065237D01*
X159275771Y-44065237D02*
X159323390Y-44160475D01*
X159323390Y-44160475D02*
X159371009Y-44208094D01*
X159371009Y-44208094D02*
X159466247Y-44255713D01*
X130090476Y-74584819D02*
X130090476Y-75299104D01*
X130090476Y-75299104D02*
X130042857Y-75441961D01*
X130042857Y-75441961D02*
X129947619Y-75537200D01*
X129947619Y-75537200D02*
X129804762Y-75584819D01*
X129804762Y-75584819D02*
X129709524Y-75584819D01*
X131090476Y-75584819D02*
X130519048Y-75584819D01*
X130804762Y-75584819D02*
X130804762Y-74584819D01*
X130804762Y-74584819D02*
X130709524Y-74727676D01*
X130709524Y-74727676D02*
X130614286Y-74822914D01*
X130614286Y-74822914D02*
X130519048Y-74870533D01*
X131423810Y-74584819D02*
X132042857Y-74584819D01*
X132042857Y-74584819D02*
X131709524Y-74965771D01*
X131709524Y-74965771D02*
X131852381Y-74965771D01*
X131852381Y-74965771D02*
X131947619Y-75013390D01*
X131947619Y-75013390D02*
X131995238Y-75061009D01*
X131995238Y-75061009D02*
X132042857Y-75156247D01*
X132042857Y-75156247D02*
X132042857Y-75394342D01*
X132042857Y-75394342D02*
X131995238Y-75489580D01*
X131995238Y-75489580D02*
X131947619Y-75537200D01*
X131947619Y-75537200D02*
X131852381Y-75584819D01*
X131852381Y-75584819D02*
X131566667Y-75584819D01*
X131566667Y-75584819D02*
X131471429Y-75537200D01*
X131471429Y-75537200D02*
X131423810Y-75489580D01*
X147166666Y-73411009D02*
X146833333Y-73411009D01*
X146833333Y-73934819D02*
X146833333Y-72934819D01*
X146833333Y-72934819D02*
X147309523Y-72934819D01*
X148119047Y-73268152D02*
X148119047Y-73934819D01*
X147880952Y-72887200D02*
X147642857Y-73601485D01*
X147642857Y-73601485D02*
X148261904Y-73601485D01*
X140397142Y-69874819D02*
X140063809Y-69398628D01*
X139825714Y-69874819D02*
X139825714Y-68874819D01*
X139825714Y-68874819D02*
X140206666Y-68874819D01*
X140206666Y-68874819D02*
X140301904Y-68922438D01*
X140301904Y-68922438D02*
X140349523Y-68970057D01*
X140349523Y-68970057D02*
X140397142Y-69065295D01*
X140397142Y-69065295D02*
X140397142Y-69208152D01*
X140397142Y-69208152D02*
X140349523Y-69303390D01*
X140349523Y-69303390D02*
X140301904Y-69351009D01*
X140301904Y-69351009D02*
X140206666Y-69398628D01*
X140206666Y-69398628D02*
X139825714Y-69398628D01*
X141349523Y-69874819D02*
X140778095Y-69874819D01*
X141063809Y-69874819D02*
X141063809Y-68874819D01*
X141063809Y-68874819D02*
X140968571Y-69017676D01*
X140968571Y-69017676D02*
X140873333Y-69112914D01*
X140873333Y-69112914D02*
X140778095Y-69160533D01*
X141730476Y-68970057D02*
X141778095Y-68922438D01*
X141778095Y-68922438D02*
X141873333Y-68874819D01*
X141873333Y-68874819D02*
X142111428Y-68874819D01*
X142111428Y-68874819D02*
X142206666Y-68922438D01*
X142206666Y-68922438D02*
X142254285Y-68970057D01*
X142254285Y-68970057D02*
X142301904Y-69065295D01*
X142301904Y-69065295D02*
X142301904Y-69160533D01*
X142301904Y-69160533D02*
X142254285Y-69303390D01*
X142254285Y-69303390D02*
X141682857Y-69874819D01*
X141682857Y-69874819D02*
X142301904Y-69874819D01*
X156469580Y-49925357D02*
X156517200Y-49972976D01*
X156517200Y-49972976D02*
X156564819Y-50115833D01*
X156564819Y-50115833D02*
X156564819Y-50211071D01*
X156564819Y-50211071D02*
X156517200Y-50353928D01*
X156517200Y-50353928D02*
X156421961Y-50449166D01*
X156421961Y-50449166D02*
X156326723Y-50496785D01*
X156326723Y-50496785D02*
X156136247Y-50544404D01*
X156136247Y-50544404D02*
X155993390Y-50544404D01*
X155993390Y-50544404D02*
X155802914Y-50496785D01*
X155802914Y-50496785D02*
X155707676Y-50449166D01*
X155707676Y-50449166D02*
X155612438Y-50353928D01*
X155612438Y-50353928D02*
X155564819Y-50211071D01*
X155564819Y-50211071D02*
X155564819Y-50115833D01*
X155564819Y-50115833D02*
X155612438Y-49972976D01*
X155612438Y-49972976D02*
X155660057Y-49925357D01*
X156564819Y-48972976D02*
X156564819Y-49544404D01*
X156564819Y-49258690D02*
X155564819Y-49258690D01*
X155564819Y-49258690D02*
X155707676Y-49353928D01*
X155707676Y-49353928D02*
X155802914Y-49449166D01*
X155802914Y-49449166D02*
X155850533Y-49544404D01*
X155993390Y-48401547D02*
X155945771Y-48496785D01*
X155945771Y-48496785D02*
X155898152Y-48544404D01*
X155898152Y-48544404D02*
X155802914Y-48592023D01*
X155802914Y-48592023D02*
X155755295Y-48592023D01*
X155755295Y-48592023D02*
X155660057Y-48544404D01*
X155660057Y-48544404D02*
X155612438Y-48496785D01*
X155612438Y-48496785D02*
X155564819Y-48401547D01*
X155564819Y-48401547D02*
X155564819Y-48211071D01*
X155564819Y-48211071D02*
X155612438Y-48115833D01*
X155612438Y-48115833D02*
X155660057Y-48068214D01*
X155660057Y-48068214D02*
X155755295Y-48020595D01*
X155755295Y-48020595D02*
X155802914Y-48020595D01*
X155802914Y-48020595D02*
X155898152Y-48068214D01*
X155898152Y-48068214D02*
X155945771Y-48115833D01*
X155945771Y-48115833D02*
X155993390Y-48211071D01*
X155993390Y-48211071D02*
X155993390Y-48401547D01*
X155993390Y-48401547D02*
X156041009Y-48496785D01*
X156041009Y-48496785D02*
X156088628Y-48544404D01*
X156088628Y-48544404D02*
X156183866Y-48592023D01*
X156183866Y-48592023D02*
X156374342Y-48592023D01*
X156374342Y-48592023D02*
X156469580Y-48544404D01*
X156469580Y-48544404D02*
X156517200Y-48496785D01*
X156517200Y-48496785D02*
X156564819Y-48401547D01*
X156564819Y-48401547D02*
X156564819Y-48211071D01*
X156564819Y-48211071D02*
X156517200Y-48115833D01*
X156517200Y-48115833D02*
X156469580Y-48068214D01*
X156469580Y-48068214D02*
X156374342Y-48020595D01*
X156374342Y-48020595D02*
X156183866Y-48020595D01*
X156183866Y-48020595D02*
X156088628Y-48068214D01*
X156088628Y-48068214D02*
X156041009Y-48115833D01*
X156041009Y-48115833D02*
X155993390Y-48211071D01*
X111338095Y-42553819D02*
X111338095Y-41553819D01*
X111338095Y-42030009D02*
X111909523Y-42030009D01*
X111909523Y-42553819D02*
X111909523Y-41553819D01*
X112290476Y-41553819D02*
X112909523Y-41553819D01*
X112909523Y-41553819D02*
X112576190Y-41934771D01*
X112576190Y-41934771D02*
X112719047Y-41934771D01*
X112719047Y-41934771D02*
X112814285Y-41982390D01*
X112814285Y-41982390D02*
X112861904Y-42030009D01*
X112861904Y-42030009D02*
X112909523Y-42125247D01*
X112909523Y-42125247D02*
X112909523Y-42363342D01*
X112909523Y-42363342D02*
X112861904Y-42458580D01*
X112861904Y-42458580D02*
X112814285Y-42506200D01*
X112814285Y-42506200D02*
X112719047Y-42553819D01*
X112719047Y-42553819D02*
X112433333Y-42553819D01*
X112433333Y-42553819D02*
X112338095Y-42506200D01*
X112338095Y-42506200D02*
X112290476Y-42458580D01*
X96469580Y-49449166D02*
X96517200Y-49496785D01*
X96517200Y-49496785D02*
X96564819Y-49639642D01*
X96564819Y-49639642D02*
X96564819Y-49734880D01*
X96564819Y-49734880D02*
X96517200Y-49877737D01*
X96517200Y-49877737D02*
X96421961Y-49972975D01*
X96421961Y-49972975D02*
X96326723Y-50020594D01*
X96326723Y-50020594D02*
X96136247Y-50068213D01*
X96136247Y-50068213D02*
X95993390Y-50068213D01*
X95993390Y-50068213D02*
X95802914Y-50020594D01*
X95802914Y-50020594D02*
X95707676Y-49972975D01*
X95707676Y-49972975D02*
X95612438Y-49877737D01*
X95612438Y-49877737D02*
X95564819Y-49734880D01*
X95564819Y-49734880D02*
X95564819Y-49639642D01*
X95564819Y-49639642D02*
X95612438Y-49496785D01*
X95612438Y-49496785D02*
X95660057Y-49449166D01*
X95564819Y-49115832D02*
X95564819Y-48496785D01*
X95564819Y-48496785D02*
X95945771Y-48830118D01*
X95945771Y-48830118D02*
X95945771Y-48687261D01*
X95945771Y-48687261D02*
X95993390Y-48592023D01*
X95993390Y-48592023D02*
X96041009Y-48544404D01*
X96041009Y-48544404D02*
X96136247Y-48496785D01*
X96136247Y-48496785D02*
X96374342Y-48496785D01*
X96374342Y-48496785D02*
X96469580Y-48544404D01*
X96469580Y-48544404D02*
X96517200Y-48592023D01*
X96517200Y-48592023D02*
X96564819Y-48687261D01*
X96564819Y-48687261D02*
X96564819Y-48972975D01*
X96564819Y-48972975D02*
X96517200Y-49068213D01*
X96517200Y-49068213D02*
X96469580Y-49115832D01*
X80873333Y-69874819D02*
X80540000Y-69398628D01*
X80301905Y-69874819D02*
X80301905Y-68874819D01*
X80301905Y-68874819D02*
X80682857Y-68874819D01*
X80682857Y-68874819D02*
X80778095Y-68922438D01*
X80778095Y-68922438D02*
X80825714Y-68970057D01*
X80825714Y-68970057D02*
X80873333Y-69065295D01*
X80873333Y-69065295D02*
X80873333Y-69208152D01*
X80873333Y-69208152D02*
X80825714Y-69303390D01*
X80825714Y-69303390D02*
X80778095Y-69351009D01*
X80778095Y-69351009D02*
X80682857Y-69398628D01*
X80682857Y-69398628D02*
X80301905Y-69398628D01*
X81778095Y-68874819D02*
X81301905Y-68874819D01*
X81301905Y-68874819D02*
X81254286Y-69351009D01*
X81254286Y-69351009D02*
X81301905Y-69303390D01*
X81301905Y-69303390D02*
X81397143Y-69255771D01*
X81397143Y-69255771D02*
X81635238Y-69255771D01*
X81635238Y-69255771D02*
X81730476Y-69303390D01*
X81730476Y-69303390D02*
X81778095Y-69351009D01*
X81778095Y-69351009D02*
X81825714Y-69446247D01*
X81825714Y-69446247D02*
X81825714Y-69684342D01*
X81825714Y-69684342D02*
X81778095Y-69779580D01*
X81778095Y-69779580D02*
X81730476Y-69827200D01*
X81730476Y-69827200D02*
X81635238Y-69874819D01*
X81635238Y-69874819D02*
X81397143Y-69874819D01*
X81397143Y-69874819D02*
X81301905Y-69827200D01*
X81301905Y-69827200D02*
X81254286Y-69779580D01*
X51338095Y-42553819D02*
X51338095Y-41553819D01*
X51338095Y-42030009D02*
X51909523Y-42030009D01*
X51909523Y-42553819D02*
X51909523Y-41553819D01*
X52909523Y-42553819D02*
X52338095Y-42553819D01*
X52623809Y-42553819D02*
X52623809Y-41553819D01*
X52623809Y-41553819D02*
X52528571Y-41696676D01*
X52528571Y-41696676D02*
X52433333Y-41791914D01*
X52433333Y-41791914D02*
X52338095Y-41839533D01*
X80873333Y-65874819D02*
X80540000Y-65398628D01*
X80301905Y-65874819D02*
X80301905Y-64874819D01*
X80301905Y-64874819D02*
X80682857Y-64874819D01*
X80682857Y-64874819D02*
X80778095Y-64922438D01*
X80778095Y-64922438D02*
X80825714Y-64970057D01*
X80825714Y-64970057D02*
X80873333Y-65065295D01*
X80873333Y-65065295D02*
X80873333Y-65208152D01*
X80873333Y-65208152D02*
X80825714Y-65303390D01*
X80825714Y-65303390D02*
X80778095Y-65351009D01*
X80778095Y-65351009D02*
X80682857Y-65398628D01*
X80682857Y-65398628D02*
X80301905Y-65398628D01*
X81730476Y-64874819D02*
X81540000Y-64874819D01*
X81540000Y-64874819D02*
X81444762Y-64922438D01*
X81444762Y-64922438D02*
X81397143Y-64970057D01*
X81397143Y-64970057D02*
X81301905Y-65112914D01*
X81301905Y-65112914D02*
X81254286Y-65303390D01*
X81254286Y-65303390D02*
X81254286Y-65684342D01*
X81254286Y-65684342D02*
X81301905Y-65779580D01*
X81301905Y-65779580D02*
X81349524Y-65827200D01*
X81349524Y-65827200D02*
X81444762Y-65874819D01*
X81444762Y-65874819D02*
X81635238Y-65874819D01*
X81635238Y-65874819D02*
X81730476Y-65827200D01*
X81730476Y-65827200D02*
X81778095Y-65779580D01*
X81778095Y-65779580D02*
X81825714Y-65684342D01*
X81825714Y-65684342D02*
X81825714Y-65446247D01*
X81825714Y-65446247D02*
X81778095Y-65351009D01*
X81778095Y-65351009D02*
X81730476Y-65303390D01*
X81730476Y-65303390D02*
X81635238Y-65255771D01*
X81635238Y-65255771D02*
X81444762Y-65255771D01*
X81444762Y-65255771D02*
X81349524Y-65303390D01*
X81349524Y-65303390D02*
X81301905Y-65351009D01*
X81301905Y-65351009D02*
X81254286Y-65446247D01*
X65719580Y-51487857D02*
X65767200Y-51535476D01*
X65767200Y-51535476D02*
X65814819Y-51678333D01*
X65814819Y-51678333D02*
X65814819Y-51773571D01*
X65814819Y-51773571D02*
X65767200Y-51916428D01*
X65767200Y-51916428D02*
X65671961Y-52011666D01*
X65671961Y-52011666D02*
X65576723Y-52059285D01*
X65576723Y-52059285D02*
X65386247Y-52106904D01*
X65386247Y-52106904D02*
X65243390Y-52106904D01*
X65243390Y-52106904D02*
X65052914Y-52059285D01*
X65052914Y-52059285D02*
X64957676Y-52011666D01*
X64957676Y-52011666D02*
X64862438Y-51916428D01*
X64862438Y-51916428D02*
X64814819Y-51773571D01*
X64814819Y-51773571D02*
X64814819Y-51678333D01*
X64814819Y-51678333D02*
X64862438Y-51535476D01*
X64862438Y-51535476D02*
X64910057Y-51487857D01*
X65814819Y-50535476D02*
X65814819Y-51106904D01*
X65814819Y-50821190D02*
X64814819Y-50821190D01*
X64814819Y-50821190D02*
X64957676Y-50916428D01*
X64957676Y-50916428D02*
X65052914Y-51011666D01*
X65052914Y-51011666D02*
X65100533Y-51106904D01*
X64910057Y-50154523D02*
X64862438Y-50106904D01*
X64862438Y-50106904D02*
X64814819Y-50011666D01*
X64814819Y-50011666D02*
X64814819Y-49773571D01*
X64814819Y-49773571D02*
X64862438Y-49678333D01*
X64862438Y-49678333D02*
X64910057Y-49630714D01*
X64910057Y-49630714D02*
X65005295Y-49583095D01*
X65005295Y-49583095D02*
X65100533Y-49583095D01*
X65100533Y-49583095D02*
X65243390Y-49630714D01*
X65243390Y-49630714D02*
X65814819Y-50202142D01*
X65814819Y-50202142D02*
X65814819Y-49583095D01*
X67219580Y-58949166D02*
X67267200Y-58996785D01*
X67267200Y-58996785D02*
X67314819Y-59139642D01*
X67314819Y-59139642D02*
X67314819Y-59234880D01*
X67314819Y-59234880D02*
X67267200Y-59377737D01*
X67267200Y-59377737D02*
X67171961Y-59472975D01*
X67171961Y-59472975D02*
X67076723Y-59520594D01*
X67076723Y-59520594D02*
X66886247Y-59568213D01*
X66886247Y-59568213D02*
X66743390Y-59568213D01*
X66743390Y-59568213D02*
X66552914Y-59520594D01*
X66552914Y-59520594D02*
X66457676Y-59472975D01*
X66457676Y-59472975D02*
X66362438Y-59377737D01*
X66362438Y-59377737D02*
X66314819Y-59234880D01*
X66314819Y-59234880D02*
X66314819Y-59139642D01*
X66314819Y-59139642D02*
X66362438Y-58996785D01*
X66362438Y-58996785D02*
X66410057Y-58949166D01*
X66410057Y-58568213D02*
X66362438Y-58520594D01*
X66362438Y-58520594D02*
X66314819Y-58425356D01*
X66314819Y-58425356D02*
X66314819Y-58187261D01*
X66314819Y-58187261D02*
X66362438Y-58092023D01*
X66362438Y-58092023D02*
X66410057Y-58044404D01*
X66410057Y-58044404D02*
X66505295Y-57996785D01*
X66505295Y-57996785D02*
X66600533Y-57996785D01*
X66600533Y-57996785D02*
X66743390Y-58044404D01*
X66743390Y-58044404D02*
X67314819Y-58615832D01*
X67314819Y-58615832D02*
X67314819Y-57996785D01*
X79394819Y-51236666D02*
X78918628Y-51569999D01*
X79394819Y-51808094D02*
X78394819Y-51808094D01*
X78394819Y-51808094D02*
X78394819Y-51427142D01*
X78394819Y-51427142D02*
X78442438Y-51331904D01*
X78442438Y-51331904D02*
X78490057Y-51284285D01*
X78490057Y-51284285D02*
X78585295Y-51236666D01*
X78585295Y-51236666D02*
X78728152Y-51236666D01*
X78728152Y-51236666D02*
X78823390Y-51284285D01*
X78823390Y-51284285D02*
X78871009Y-51331904D01*
X78871009Y-51331904D02*
X78918628Y-51427142D01*
X78918628Y-51427142D02*
X78918628Y-51808094D01*
X78728152Y-50379523D02*
X79394819Y-50379523D01*
X78347200Y-50617618D02*
X79061485Y-50855713D01*
X79061485Y-50855713D02*
X79061485Y-50236666D01*
X60844819Y-50986666D02*
X60368628Y-51319999D01*
X60844819Y-51558094D02*
X59844819Y-51558094D01*
X59844819Y-51558094D02*
X59844819Y-51177142D01*
X59844819Y-51177142D02*
X59892438Y-51081904D01*
X59892438Y-51081904D02*
X59940057Y-51034285D01*
X59940057Y-51034285D02*
X60035295Y-50986666D01*
X60035295Y-50986666D02*
X60178152Y-50986666D01*
X60178152Y-50986666D02*
X60273390Y-51034285D01*
X60273390Y-51034285D02*
X60321009Y-51081904D01*
X60321009Y-51081904D02*
X60368628Y-51177142D01*
X60368628Y-51177142D02*
X60368628Y-51558094D01*
X60844819Y-50034285D02*
X60844819Y-50605713D01*
X60844819Y-50319999D02*
X59844819Y-50319999D01*
X59844819Y-50319999D02*
X59987676Y-50415237D01*
X59987676Y-50415237D02*
X60082914Y-50510475D01*
X60082914Y-50510475D02*
X60130533Y-50605713D01*
X65052819Y-55932094D02*
X64052819Y-55932094D01*
X64052819Y-55932094D02*
X64052819Y-55693999D01*
X64052819Y-55693999D02*
X64100438Y-55551142D01*
X64100438Y-55551142D02*
X64195676Y-55455904D01*
X64195676Y-55455904D02*
X64290914Y-55408285D01*
X64290914Y-55408285D02*
X64481390Y-55360666D01*
X64481390Y-55360666D02*
X64624247Y-55360666D01*
X64624247Y-55360666D02*
X64814723Y-55408285D01*
X64814723Y-55408285D02*
X64909961Y-55455904D01*
X64909961Y-55455904D02*
X65005200Y-55551142D01*
X65005200Y-55551142D02*
X65052819Y-55693999D01*
X65052819Y-55693999D02*
X65052819Y-55932094D01*
X64386152Y-54503523D02*
X65052819Y-54503523D01*
X64005200Y-54741618D02*
X64719485Y-54979713D01*
X64719485Y-54979713D02*
X64719485Y-54360666D01*
X101468628Y-63946190D02*
X101944819Y-63946190D01*
X100944819Y-64279523D02*
X101468628Y-63946190D01*
X101468628Y-63946190D02*
X100944819Y-63612857D01*
X101944819Y-62755714D02*
X101944819Y-63327142D01*
X101944819Y-63041428D02*
X100944819Y-63041428D01*
X100944819Y-63041428D02*
X101087676Y-63136666D01*
X101087676Y-63136666D02*
X101182914Y-63231904D01*
X101182914Y-63231904D02*
X101230533Y-63327142D01*
X98109642Y-69859580D02*
X98062023Y-69907200D01*
X98062023Y-69907200D02*
X97919166Y-69954819D01*
X97919166Y-69954819D02*
X97823928Y-69954819D01*
X97823928Y-69954819D02*
X97681071Y-69907200D01*
X97681071Y-69907200D02*
X97585833Y-69811961D01*
X97585833Y-69811961D02*
X97538214Y-69716723D01*
X97538214Y-69716723D02*
X97490595Y-69526247D01*
X97490595Y-69526247D02*
X97490595Y-69383390D01*
X97490595Y-69383390D02*
X97538214Y-69192914D01*
X97538214Y-69192914D02*
X97585833Y-69097676D01*
X97585833Y-69097676D02*
X97681071Y-69002438D01*
X97681071Y-69002438D02*
X97823928Y-68954819D01*
X97823928Y-68954819D02*
X97919166Y-68954819D01*
X97919166Y-68954819D02*
X98062023Y-69002438D01*
X98062023Y-69002438D02*
X98109642Y-69050057D01*
X99062023Y-69954819D02*
X98490595Y-69954819D01*
X98776309Y-69954819D02*
X98776309Y-68954819D01*
X98776309Y-68954819D02*
X98681071Y-69097676D01*
X98681071Y-69097676D02*
X98585833Y-69192914D01*
X98585833Y-69192914D02*
X98490595Y-69240533D01*
X99681071Y-68954819D02*
X99776309Y-68954819D01*
X99776309Y-68954819D02*
X99871547Y-69002438D01*
X99871547Y-69002438D02*
X99919166Y-69050057D01*
X99919166Y-69050057D02*
X99966785Y-69145295D01*
X99966785Y-69145295D02*
X100014404Y-69335771D01*
X100014404Y-69335771D02*
X100014404Y-69573866D01*
X100014404Y-69573866D02*
X99966785Y-69764342D01*
X99966785Y-69764342D02*
X99919166Y-69859580D01*
X99919166Y-69859580D02*
X99871547Y-69907200D01*
X99871547Y-69907200D02*
X99776309Y-69954819D01*
X99776309Y-69954819D02*
X99681071Y-69954819D01*
X99681071Y-69954819D02*
X99585833Y-69907200D01*
X99585833Y-69907200D02*
X99538214Y-69859580D01*
X99538214Y-69859580D02*
X99490595Y-69764342D01*
X99490595Y-69764342D02*
X99442976Y-69573866D01*
X99442976Y-69573866D02*
X99442976Y-69335771D01*
X99442976Y-69335771D02*
X99490595Y-69145295D01*
X99490595Y-69145295D02*
X99538214Y-69050057D01*
X99538214Y-69050057D02*
X99585833Y-69002438D01*
X99585833Y-69002438D02*
X99681071Y-68954819D01*
X101254819Y-69563333D02*
X101969104Y-69563333D01*
X101969104Y-69563333D02*
X102111961Y-69610952D01*
X102111961Y-69610952D02*
X102207200Y-69706190D01*
X102207200Y-69706190D02*
X102254819Y-69849047D01*
X102254819Y-69849047D02*
X102254819Y-69944285D01*
X102254819Y-69087142D02*
X101254819Y-69087142D01*
X101254819Y-69087142D02*
X101254819Y-68706190D01*
X101254819Y-68706190D02*
X101302438Y-68610952D01*
X101302438Y-68610952D02*
X101350057Y-68563333D01*
X101350057Y-68563333D02*
X101445295Y-68515714D01*
X101445295Y-68515714D02*
X101588152Y-68515714D01*
X101588152Y-68515714D02*
X101683390Y-68563333D01*
X101683390Y-68563333D02*
X101731009Y-68610952D01*
X101731009Y-68610952D02*
X101778628Y-68706190D01*
X101778628Y-68706190D02*
X101778628Y-69087142D01*
X101350057Y-68134761D02*
X101302438Y-68087142D01*
X101302438Y-68087142D02*
X101254819Y-67991904D01*
X101254819Y-67991904D02*
X101254819Y-67753809D01*
X101254819Y-67753809D02*
X101302438Y-67658571D01*
X101302438Y-67658571D02*
X101350057Y-67610952D01*
X101350057Y-67610952D02*
X101445295Y-67563333D01*
X101445295Y-67563333D02*
X101540533Y-67563333D01*
X101540533Y-67563333D02*
X101683390Y-67610952D01*
X101683390Y-67610952D02*
X102254819Y-68182380D01*
X102254819Y-68182380D02*
X102254819Y-67563333D01*
X99789580Y-73522857D02*
X99837200Y-73570476D01*
X99837200Y-73570476D02*
X99884819Y-73713333D01*
X99884819Y-73713333D02*
X99884819Y-73808571D01*
X99884819Y-73808571D02*
X99837200Y-73951428D01*
X99837200Y-73951428D02*
X99741961Y-74046666D01*
X99741961Y-74046666D02*
X99646723Y-74094285D01*
X99646723Y-74094285D02*
X99456247Y-74141904D01*
X99456247Y-74141904D02*
X99313390Y-74141904D01*
X99313390Y-74141904D02*
X99122914Y-74094285D01*
X99122914Y-74094285D02*
X99027676Y-74046666D01*
X99027676Y-74046666D02*
X98932438Y-73951428D01*
X98932438Y-73951428D02*
X98884819Y-73808571D01*
X98884819Y-73808571D02*
X98884819Y-73713333D01*
X98884819Y-73713333D02*
X98932438Y-73570476D01*
X98932438Y-73570476D02*
X98980057Y-73522857D01*
X99884819Y-72570476D02*
X99884819Y-73141904D01*
X99884819Y-72856190D02*
X98884819Y-72856190D01*
X98884819Y-72856190D02*
X99027676Y-72951428D01*
X99027676Y-72951428D02*
X99122914Y-73046666D01*
X99122914Y-73046666D02*
X99170533Y-73141904D01*
X98884819Y-71665714D02*
X98884819Y-72141904D01*
X98884819Y-72141904D02*
X99361009Y-72189523D01*
X99361009Y-72189523D02*
X99313390Y-72141904D01*
X99313390Y-72141904D02*
X99265771Y-72046666D01*
X99265771Y-72046666D02*
X99265771Y-71808571D01*
X99265771Y-71808571D02*
X99313390Y-71713333D01*
X99313390Y-71713333D02*
X99361009Y-71665714D01*
X99361009Y-71665714D02*
X99456247Y-71618095D01*
X99456247Y-71618095D02*
X99694342Y-71618095D01*
X99694342Y-71618095D02*
X99789580Y-71665714D01*
X99789580Y-71665714D02*
X99837200Y-71713333D01*
X99837200Y-71713333D02*
X99884819Y-71808571D01*
X99884819Y-71808571D02*
X99884819Y-72046666D01*
X99884819Y-72046666D02*
X99837200Y-72141904D01*
X99837200Y-72141904D02*
X99789580Y-72189523D01*
X104611819Y-74856904D02*
X105421342Y-74856904D01*
X105421342Y-74856904D02*
X105516580Y-74809285D01*
X105516580Y-74809285D02*
X105564200Y-74761666D01*
X105564200Y-74761666D02*
X105611819Y-74666428D01*
X105611819Y-74666428D02*
X105611819Y-74475952D01*
X105611819Y-74475952D02*
X105564200Y-74380714D01*
X105564200Y-74380714D02*
X105516580Y-74333095D01*
X105516580Y-74333095D02*
X105421342Y-74285476D01*
X105421342Y-74285476D02*
X104611819Y-74285476D01*
X104945152Y-73380714D02*
X105611819Y-73380714D01*
X104564200Y-73618809D02*
X105278485Y-73856904D01*
X105278485Y-73856904D02*
X105278485Y-73237857D01*
X101803151Y-79810875D02*
X101803151Y-78810875D01*
X101803151Y-79287065D02*
X102374579Y-79287065D01*
X102374579Y-79810875D02*
X102374579Y-78810875D01*
X102803151Y-78906113D02*
X102850770Y-78858494D01*
X102850770Y-78858494D02*
X102946008Y-78810875D01*
X102946008Y-78810875D02*
X103184103Y-78810875D01*
X103184103Y-78810875D02*
X103279341Y-78858494D01*
X103279341Y-78858494D02*
X103326960Y-78906113D01*
X103326960Y-78906113D02*
X103374579Y-79001351D01*
X103374579Y-79001351D02*
X103374579Y-79096589D01*
X103374579Y-79096589D02*
X103326960Y-79239446D01*
X103326960Y-79239446D02*
X102755532Y-79810875D01*
X102755532Y-79810875D02*
X103374579Y-79810875D01*
X102594819Y-64986666D02*
X102118628Y-65319999D01*
X102594819Y-65558094D02*
X101594819Y-65558094D01*
X101594819Y-65558094D02*
X101594819Y-65177142D01*
X101594819Y-65177142D02*
X101642438Y-65081904D01*
X101642438Y-65081904D02*
X101690057Y-65034285D01*
X101690057Y-65034285D02*
X101785295Y-64986666D01*
X101785295Y-64986666D02*
X101928152Y-64986666D01*
X101928152Y-64986666D02*
X102023390Y-65034285D01*
X102023390Y-65034285D02*
X102071009Y-65081904D01*
X102071009Y-65081904D02*
X102118628Y-65177142D01*
X102118628Y-65177142D02*
X102118628Y-65558094D01*
X101594819Y-64653332D02*
X101594819Y-63986666D01*
X101594819Y-63986666D02*
X102594819Y-64415237D01*
X80434642Y-67749580D02*
X80387023Y-67797200D01*
X80387023Y-67797200D02*
X80244166Y-67844819D01*
X80244166Y-67844819D02*
X80148928Y-67844819D01*
X80148928Y-67844819D02*
X80006071Y-67797200D01*
X80006071Y-67797200D02*
X79910833Y-67701961D01*
X79910833Y-67701961D02*
X79863214Y-67606723D01*
X79863214Y-67606723D02*
X79815595Y-67416247D01*
X79815595Y-67416247D02*
X79815595Y-67273390D01*
X79815595Y-67273390D02*
X79863214Y-67082914D01*
X79863214Y-67082914D02*
X79910833Y-66987676D01*
X79910833Y-66987676D02*
X80006071Y-66892438D01*
X80006071Y-66892438D02*
X80148928Y-66844819D01*
X80148928Y-66844819D02*
X80244166Y-66844819D01*
X80244166Y-66844819D02*
X80387023Y-66892438D01*
X80387023Y-66892438D02*
X80434642Y-66940057D01*
X81387023Y-67844819D02*
X80815595Y-67844819D01*
X81101309Y-67844819D02*
X81101309Y-66844819D01*
X81101309Y-66844819D02*
X81006071Y-66987676D01*
X81006071Y-66987676D02*
X80910833Y-67082914D01*
X80910833Y-67082914D02*
X80815595Y-67130533D01*
X82339404Y-67844819D02*
X81767976Y-67844819D01*
X82053690Y-67844819D02*
X82053690Y-66844819D01*
X82053690Y-66844819D02*
X81958452Y-66987676D01*
X81958452Y-66987676D02*
X81863214Y-67082914D01*
X81863214Y-67082914D02*
X81767976Y-67130533D01*
X74206666Y-40568819D02*
X74206666Y-41283104D01*
X74206666Y-41283104D02*
X74159047Y-41425961D01*
X74159047Y-41425961D02*
X74063809Y-41521200D01*
X74063809Y-41521200D02*
X73920952Y-41568819D01*
X73920952Y-41568819D02*
X73825714Y-41568819D01*
X74587619Y-40568819D02*
X75254285Y-40568819D01*
X75254285Y-40568819D02*
X74825714Y-41568819D01*
X70738095Y-59884819D02*
X70738095Y-60694342D01*
X70738095Y-60694342D02*
X70785714Y-60789580D01*
X70785714Y-60789580D02*
X70833333Y-60837200D01*
X70833333Y-60837200D02*
X70928571Y-60884819D01*
X70928571Y-60884819D02*
X71119047Y-60884819D01*
X71119047Y-60884819D02*
X71214285Y-60837200D01*
X71214285Y-60837200D02*
X71261904Y-60789580D01*
X71261904Y-60789580D02*
X71309523Y-60694342D01*
X71309523Y-60694342D02*
X71309523Y-59884819D01*
X72309523Y-60884819D02*
X71738095Y-60884819D01*
X72023809Y-60884819D02*
X72023809Y-59884819D01*
X72023809Y-59884819D02*
X71928571Y-60027676D01*
X71928571Y-60027676D02*
X71833333Y-60122914D01*
X71833333Y-60122914D02*
X71738095Y-60170533D01*
X75660833Y-67249580D02*
X75613214Y-67297200D01*
X75613214Y-67297200D02*
X75470357Y-67344819D01*
X75470357Y-67344819D02*
X75375119Y-67344819D01*
X75375119Y-67344819D02*
X75232262Y-67297200D01*
X75232262Y-67297200D02*
X75137024Y-67201961D01*
X75137024Y-67201961D02*
X75089405Y-67106723D01*
X75089405Y-67106723D02*
X75041786Y-66916247D01*
X75041786Y-66916247D02*
X75041786Y-66773390D01*
X75041786Y-66773390D02*
X75089405Y-66582914D01*
X75089405Y-66582914D02*
X75137024Y-66487676D01*
X75137024Y-66487676D02*
X75232262Y-66392438D01*
X75232262Y-66392438D02*
X75375119Y-66344819D01*
X75375119Y-66344819D02*
X75470357Y-66344819D01*
X75470357Y-66344819D02*
X75613214Y-66392438D01*
X75613214Y-66392438D02*
X75660833Y-66440057D01*
X76613214Y-67344819D02*
X76041786Y-67344819D01*
X76327500Y-67344819D02*
X76327500Y-66344819D01*
X76327500Y-66344819D02*
X76232262Y-66487676D01*
X76232262Y-66487676D02*
X76137024Y-66582914D01*
X76137024Y-66582914D02*
X76041786Y-66630533D01*
X89638095Y-57484819D02*
X89638095Y-58294342D01*
X89638095Y-58294342D02*
X89685714Y-58389580D01*
X89685714Y-58389580D02*
X89733333Y-58437200D01*
X89733333Y-58437200D02*
X89828571Y-58484819D01*
X89828571Y-58484819D02*
X90019047Y-58484819D01*
X90019047Y-58484819D02*
X90114285Y-58437200D01*
X90114285Y-58437200D02*
X90161904Y-58389580D01*
X90161904Y-58389580D02*
X90209523Y-58294342D01*
X90209523Y-58294342D02*
X90209523Y-57484819D01*
X90590476Y-57484819D02*
X91209523Y-57484819D01*
X91209523Y-57484819D02*
X90876190Y-57865771D01*
X90876190Y-57865771D02*
X91019047Y-57865771D01*
X91019047Y-57865771D02*
X91114285Y-57913390D01*
X91114285Y-57913390D02*
X91161904Y-57961009D01*
X91161904Y-57961009D02*
X91209523Y-58056247D01*
X91209523Y-58056247D02*
X91209523Y-58294342D01*
X91209523Y-58294342D02*
X91161904Y-58389580D01*
X91161904Y-58389580D02*
X91114285Y-58437200D01*
X91114285Y-58437200D02*
X91019047Y-58484819D01*
X91019047Y-58484819D02*
X90733333Y-58484819D01*
X90733333Y-58484819D02*
X90638095Y-58437200D01*
X90638095Y-58437200D02*
X90590476Y-58389580D01*
X68344819Y-50986666D02*
X67868628Y-51319999D01*
X68344819Y-51558094D02*
X67344819Y-51558094D01*
X67344819Y-51558094D02*
X67344819Y-51177142D01*
X67344819Y-51177142D02*
X67392438Y-51081904D01*
X67392438Y-51081904D02*
X67440057Y-51034285D01*
X67440057Y-51034285D02*
X67535295Y-50986666D01*
X67535295Y-50986666D02*
X67678152Y-50986666D01*
X67678152Y-50986666D02*
X67773390Y-51034285D01*
X67773390Y-51034285D02*
X67821009Y-51081904D01*
X67821009Y-51081904D02*
X67868628Y-51177142D01*
X67868628Y-51177142D02*
X67868628Y-51558094D01*
X67344819Y-50653332D02*
X67344819Y-50034285D01*
X67344819Y-50034285D02*
X67725771Y-50367618D01*
X67725771Y-50367618D02*
X67725771Y-50224761D01*
X67725771Y-50224761D02*
X67773390Y-50129523D01*
X67773390Y-50129523D02*
X67821009Y-50081904D01*
X67821009Y-50081904D02*
X67916247Y-50034285D01*
X67916247Y-50034285D02*
X68154342Y-50034285D01*
X68154342Y-50034285D02*
X68249580Y-50081904D01*
X68249580Y-50081904D02*
X68297200Y-50129523D01*
X68297200Y-50129523D02*
X68344819Y-50224761D01*
X68344819Y-50224761D02*
X68344819Y-50510475D01*
X68344819Y-50510475D02*
X68297200Y-50605713D01*
X68297200Y-50605713D02*
X68249580Y-50653332D01*
X52719166Y-48081009D02*
X52385833Y-48081009D01*
X52385833Y-48604819D02*
X52385833Y-47604819D01*
X52385833Y-47604819D02*
X52862023Y-47604819D01*
X53766785Y-48604819D02*
X53195357Y-48604819D01*
X53481071Y-48604819D02*
X53481071Y-47604819D01*
X53481071Y-47604819D02*
X53385833Y-47747676D01*
X53385833Y-47747676D02*
X53290595Y-47842914D01*
X53290595Y-47842914D02*
X53195357Y-47890533D01*
X81394819Y-51236666D02*
X80918628Y-51569999D01*
X81394819Y-51808094D02*
X80394819Y-51808094D01*
X80394819Y-51808094D02*
X80394819Y-51427142D01*
X80394819Y-51427142D02*
X80442438Y-51331904D01*
X80442438Y-51331904D02*
X80490057Y-51284285D01*
X80490057Y-51284285D02*
X80585295Y-51236666D01*
X80585295Y-51236666D02*
X80728152Y-51236666D01*
X80728152Y-51236666D02*
X80823390Y-51284285D01*
X80823390Y-51284285D02*
X80871009Y-51331904D01*
X80871009Y-51331904D02*
X80918628Y-51427142D01*
X80918628Y-51427142D02*
X80918628Y-51808094D01*
X80490057Y-50855713D02*
X80442438Y-50808094D01*
X80442438Y-50808094D02*
X80394819Y-50712856D01*
X80394819Y-50712856D02*
X80394819Y-50474761D01*
X80394819Y-50474761D02*
X80442438Y-50379523D01*
X80442438Y-50379523D02*
X80490057Y-50331904D01*
X80490057Y-50331904D02*
X80585295Y-50284285D01*
X80585295Y-50284285D02*
X80680533Y-50284285D01*
X80680533Y-50284285D02*
X80823390Y-50331904D01*
X80823390Y-50331904D02*
X81394819Y-50903332D01*
X81394819Y-50903332D02*
X81394819Y-50284285D01*
X48428571Y-72061009D02*
X48095238Y-72061009D01*
X48095238Y-72584819D02*
X48095238Y-71584819D01*
X48095238Y-71584819D02*
X48571428Y-71584819D01*
X48952381Y-72584819D02*
X48952381Y-71584819D01*
X49428571Y-72584819D02*
X49428571Y-71584819D01*
X49428571Y-71584819D02*
X49666666Y-71584819D01*
X49666666Y-71584819D02*
X49809523Y-71632438D01*
X49809523Y-71632438D02*
X49904761Y-71727676D01*
X49904761Y-71727676D02*
X49952380Y-71822914D01*
X49952380Y-71822914D02*
X49999999Y-72013390D01*
X49999999Y-72013390D02*
X49999999Y-72156247D01*
X49999999Y-72156247D02*
X49952380Y-72346723D01*
X49952380Y-72346723D02*
X49904761Y-72441961D01*
X49904761Y-72441961D02*
X49809523Y-72537200D01*
X49809523Y-72537200D02*
X49666666Y-72584819D01*
X49666666Y-72584819D02*
X49428571Y-72584819D01*
X50380952Y-71680057D02*
X50428571Y-71632438D01*
X50428571Y-71632438D02*
X50523809Y-71584819D01*
X50523809Y-71584819D02*
X50761904Y-71584819D01*
X50761904Y-71584819D02*
X50857142Y-71632438D01*
X50857142Y-71632438D02*
X50904761Y-71680057D01*
X50904761Y-71680057D02*
X50952380Y-71775295D01*
X50952380Y-71775295D02*
X50952380Y-71870533D01*
X50952380Y-71870533D02*
X50904761Y-72013390D01*
X50904761Y-72013390D02*
X50333333Y-72584819D01*
X50333333Y-72584819D02*
X50952380Y-72584819D01*
X102218571Y-58251009D02*
X101885238Y-58251009D01*
X101885238Y-58774819D02*
X101885238Y-57774819D01*
X101885238Y-57774819D02*
X102361428Y-57774819D01*
X102742381Y-58774819D02*
X102742381Y-57774819D01*
X103218571Y-58774819D02*
X103218571Y-57774819D01*
X103218571Y-57774819D02*
X103456666Y-57774819D01*
X103456666Y-57774819D02*
X103599523Y-57822438D01*
X103599523Y-57822438D02*
X103694761Y-57917676D01*
X103694761Y-57917676D02*
X103742380Y-58012914D01*
X103742380Y-58012914D02*
X103789999Y-58203390D01*
X103789999Y-58203390D02*
X103789999Y-58346247D01*
X103789999Y-58346247D02*
X103742380Y-58536723D01*
X103742380Y-58536723D02*
X103694761Y-58631961D01*
X103694761Y-58631961D02*
X103599523Y-58727200D01*
X103599523Y-58727200D02*
X103456666Y-58774819D01*
X103456666Y-58774819D02*
X103218571Y-58774819D01*
X104123333Y-57774819D02*
X104742380Y-57774819D01*
X104742380Y-57774819D02*
X104409047Y-58155771D01*
X104409047Y-58155771D02*
X104551904Y-58155771D01*
X104551904Y-58155771D02*
X104647142Y-58203390D01*
X104647142Y-58203390D02*
X104694761Y-58251009D01*
X104694761Y-58251009D02*
X104742380Y-58346247D01*
X104742380Y-58346247D02*
X104742380Y-58584342D01*
X104742380Y-58584342D02*
X104694761Y-58679580D01*
X104694761Y-58679580D02*
X104647142Y-58727200D01*
X104647142Y-58727200D02*
X104551904Y-58774819D01*
X104551904Y-58774819D02*
X104266190Y-58774819D01*
X104266190Y-58774819D02*
X104170952Y-58727200D01*
X104170952Y-58727200D02*
X104123333Y-58679580D01*
X58059580Y-55396666D02*
X58107200Y-55444285D01*
X58107200Y-55444285D02*
X58154819Y-55587142D01*
X58154819Y-55587142D02*
X58154819Y-55682380D01*
X58154819Y-55682380D02*
X58107200Y-55825237D01*
X58107200Y-55825237D02*
X58011961Y-55920475D01*
X58011961Y-55920475D02*
X57916723Y-55968094D01*
X57916723Y-55968094D02*
X57726247Y-56015713D01*
X57726247Y-56015713D02*
X57583390Y-56015713D01*
X57583390Y-56015713D02*
X57392914Y-55968094D01*
X57392914Y-55968094D02*
X57297676Y-55920475D01*
X57297676Y-55920475D02*
X57202438Y-55825237D01*
X57202438Y-55825237D02*
X57154819Y-55682380D01*
X57154819Y-55682380D02*
X57154819Y-55587142D01*
X57154819Y-55587142D02*
X57202438Y-55444285D01*
X57202438Y-55444285D02*
X57250057Y-55396666D01*
X57488152Y-54539523D02*
X58154819Y-54539523D01*
X57107200Y-54777618D02*
X57821485Y-55015713D01*
X57821485Y-55015713D02*
X57821485Y-54396666D01*
X55469580Y-59274166D02*
X55517200Y-59321785D01*
X55517200Y-59321785D02*
X55564819Y-59464642D01*
X55564819Y-59464642D02*
X55564819Y-59559880D01*
X55564819Y-59559880D02*
X55517200Y-59702737D01*
X55517200Y-59702737D02*
X55421961Y-59797975D01*
X55421961Y-59797975D02*
X55326723Y-59845594D01*
X55326723Y-59845594D02*
X55136247Y-59893213D01*
X55136247Y-59893213D02*
X54993390Y-59893213D01*
X54993390Y-59893213D02*
X54802914Y-59845594D01*
X54802914Y-59845594D02*
X54707676Y-59797975D01*
X54707676Y-59797975D02*
X54612438Y-59702737D01*
X54612438Y-59702737D02*
X54564819Y-59559880D01*
X54564819Y-59559880D02*
X54564819Y-59464642D01*
X54564819Y-59464642D02*
X54612438Y-59321785D01*
X54612438Y-59321785D02*
X54660057Y-59274166D01*
X54564819Y-58369404D02*
X54564819Y-58845594D01*
X54564819Y-58845594D02*
X55041009Y-58893213D01*
X55041009Y-58893213D02*
X54993390Y-58845594D01*
X54993390Y-58845594D02*
X54945771Y-58750356D01*
X54945771Y-58750356D02*
X54945771Y-58512261D01*
X54945771Y-58512261D02*
X54993390Y-58417023D01*
X54993390Y-58417023D02*
X55041009Y-58369404D01*
X55041009Y-58369404D02*
X55136247Y-58321785D01*
X55136247Y-58321785D02*
X55374342Y-58321785D01*
X55374342Y-58321785D02*
X55469580Y-58369404D01*
X55469580Y-58369404D02*
X55517200Y-58417023D01*
X55517200Y-58417023D02*
X55564819Y-58512261D01*
X55564819Y-58512261D02*
X55564819Y-58750356D01*
X55564819Y-58750356D02*
X55517200Y-58845594D01*
X55517200Y-58845594D02*
X55469580Y-58893213D01*
X49659580Y-62096666D02*
X49707200Y-62144285D01*
X49707200Y-62144285D02*
X49754819Y-62287142D01*
X49754819Y-62287142D02*
X49754819Y-62382380D01*
X49754819Y-62382380D02*
X49707200Y-62525237D01*
X49707200Y-62525237D02*
X49611961Y-62620475D01*
X49611961Y-62620475D02*
X49516723Y-62668094D01*
X49516723Y-62668094D02*
X49326247Y-62715713D01*
X49326247Y-62715713D02*
X49183390Y-62715713D01*
X49183390Y-62715713D02*
X48992914Y-62668094D01*
X48992914Y-62668094D02*
X48897676Y-62620475D01*
X48897676Y-62620475D02*
X48802438Y-62525237D01*
X48802438Y-62525237D02*
X48754819Y-62382380D01*
X48754819Y-62382380D02*
X48754819Y-62287142D01*
X48754819Y-62287142D02*
X48802438Y-62144285D01*
X48802438Y-62144285D02*
X48850057Y-62096666D01*
X48754819Y-61763332D02*
X48754819Y-61096666D01*
X48754819Y-61096666D02*
X49754819Y-61525237D01*
X57159580Y-70496666D02*
X57207200Y-70544285D01*
X57207200Y-70544285D02*
X57254819Y-70687142D01*
X57254819Y-70687142D02*
X57254819Y-70782380D01*
X57254819Y-70782380D02*
X57207200Y-70925237D01*
X57207200Y-70925237D02*
X57111961Y-71020475D01*
X57111961Y-71020475D02*
X57016723Y-71068094D01*
X57016723Y-71068094D02*
X56826247Y-71115713D01*
X56826247Y-71115713D02*
X56683390Y-71115713D01*
X56683390Y-71115713D02*
X56492914Y-71068094D01*
X56492914Y-71068094D02*
X56397676Y-71020475D01*
X56397676Y-71020475D02*
X56302438Y-70925237D01*
X56302438Y-70925237D02*
X56254819Y-70782380D01*
X56254819Y-70782380D02*
X56254819Y-70687142D01*
X56254819Y-70687142D02*
X56302438Y-70544285D01*
X56302438Y-70544285D02*
X56350057Y-70496666D01*
X57254819Y-70020475D02*
X57254819Y-69829999D01*
X57254819Y-69829999D02*
X57207200Y-69734761D01*
X57207200Y-69734761D02*
X57159580Y-69687142D01*
X57159580Y-69687142D02*
X57016723Y-69591904D01*
X57016723Y-69591904D02*
X56826247Y-69544285D01*
X56826247Y-69544285D02*
X56445295Y-69544285D01*
X56445295Y-69544285D02*
X56350057Y-69591904D01*
X56350057Y-69591904D02*
X56302438Y-69639523D01*
X56302438Y-69639523D02*
X56254819Y-69734761D01*
X56254819Y-69734761D02*
X56254819Y-69925237D01*
X56254819Y-69925237D02*
X56302438Y-70020475D01*
X56302438Y-70020475D02*
X56350057Y-70068094D01*
X56350057Y-70068094D02*
X56445295Y-70115713D01*
X56445295Y-70115713D02*
X56683390Y-70115713D01*
X56683390Y-70115713D02*
X56778628Y-70068094D01*
X56778628Y-70068094D02*
X56826247Y-70020475D01*
X56826247Y-70020475D02*
X56873866Y-69925237D01*
X56873866Y-69925237D02*
X56873866Y-69734761D01*
X56873866Y-69734761D02*
X56826247Y-69639523D01*
X56826247Y-69639523D02*
X56778628Y-69591904D01*
X56778628Y-69591904D02*
X56683390Y-69544285D01*
X105794819Y-50403333D02*
X106509104Y-50403333D01*
X106509104Y-50403333D02*
X106651961Y-50450952D01*
X106651961Y-50450952D02*
X106747200Y-50546190D01*
X106747200Y-50546190D02*
X106794819Y-50689047D01*
X106794819Y-50689047D02*
X106794819Y-50784285D01*
X105890057Y-49974761D02*
X105842438Y-49927142D01*
X105842438Y-49927142D02*
X105794819Y-49831904D01*
X105794819Y-49831904D02*
X105794819Y-49593809D01*
X105794819Y-49593809D02*
X105842438Y-49498571D01*
X105842438Y-49498571D02*
X105890057Y-49450952D01*
X105890057Y-49450952D02*
X105985295Y-49403333D01*
X105985295Y-49403333D02*
X106080533Y-49403333D01*
X106080533Y-49403333D02*
X106223390Y-49450952D01*
X106223390Y-49450952D02*
X106794819Y-50022380D01*
X106794819Y-50022380D02*
X106794819Y-49403333D01*
X57904819Y-59296666D02*
X57904819Y-59772856D01*
X57904819Y-59772856D02*
X56904819Y-59772856D01*
X57904819Y-58439523D02*
X57904819Y-59010951D01*
X57904819Y-58725237D02*
X56904819Y-58725237D01*
X56904819Y-58725237D02*
X57047676Y-58820475D01*
X57047676Y-58820475D02*
X57142914Y-58915713D01*
X57142914Y-58915713D02*
X57190533Y-59010951D01*
X92861666Y-85445819D02*
X92861666Y-86160104D01*
X92861666Y-86160104D02*
X92814047Y-86302961D01*
X92814047Y-86302961D02*
X92718809Y-86398200D01*
X92718809Y-86398200D02*
X92575952Y-86445819D01*
X92575952Y-86445819D02*
X92480714Y-86445819D01*
X93480714Y-85874390D02*
X93385476Y-85826771D01*
X93385476Y-85826771D02*
X93337857Y-85779152D01*
X93337857Y-85779152D02*
X93290238Y-85683914D01*
X93290238Y-85683914D02*
X93290238Y-85636295D01*
X93290238Y-85636295D02*
X93337857Y-85541057D01*
X93337857Y-85541057D02*
X93385476Y-85493438D01*
X93385476Y-85493438D02*
X93480714Y-85445819D01*
X93480714Y-85445819D02*
X93671190Y-85445819D01*
X93671190Y-85445819D02*
X93766428Y-85493438D01*
X93766428Y-85493438D02*
X93814047Y-85541057D01*
X93814047Y-85541057D02*
X93861666Y-85636295D01*
X93861666Y-85636295D02*
X93861666Y-85683914D01*
X93861666Y-85683914D02*
X93814047Y-85779152D01*
X93814047Y-85779152D02*
X93766428Y-85826771D01*
X93766428Y-85826771D02*
X93671190Y-85874390D01*
X93671190Y-85874390D02*
X93480714Y-85874390D01*
X93480714Y-85874390D02*
X93385476Y-85922009D01*
X93385476Y-85922009D02*
X93337857Y-85969628D01*
X93337857Y-85969628D02*
X93290238Y-86064866D01*
X93290238Y-86064866D02*
X93290238Y-86255342D01*
X93290238Y-86255342D02*
X93337857Y-86350580D01*
X93337857Y-86350580D02*
X93385476Y-86398200D01*
X93385476Y-86398200D02*
X93480714Y-86445819D01*
X93480714Y-86445819D02*
X93671190Y-86445819D01*
X93671190Y-86445819D02*
X93766428Y-86398200D01*
X93766428Y-86398200D02*
X93814047Y-86350580D01*
X93814047Y-86350580D02*
X93861666Y-86255342D01*
X93861666Y-86255342D02*
X93861666Y-86064866D01*
X93861666Y-86064866D02*
X93814047Y-85969628D01*
X93814047Y-85969628D02*
X93766428Y-85922009D01*
X93766428Y-85922009D02*
X93671190Y-85874390D01*
X77324819Y-79653333D02*
X78039104Y-79653333D01*
X78039104Y-79653333D02*
X78181961Y-79700952D01*
X78181961Y-79700952D02*
X78277200Y-79796190D01*
X78277200Y-79796190D02*
X78324819Y-79939047D01*
X78324819Y-79939047D02*
X78324819Y-80034285D01*
X77324819Y-78748571D02*
X77324819Y-78939047D01*
X77324819Y-78939047D02*
X77372438Y-79034285D01*
X77372438Y-79034285D02*
X77420057Y-79081904D01*
X77420057Y-79081904D02*
X77562914Y-79177142D01*
X77562914Y-79177142D02*
X77753390Y-79224761D01*
X77753390Y-79224761D02*
X78134342Y-79224761D01*
X78134342Y-79224761D02*
X78229580Y-79177142D01*
X78229580Y-79177142D02*
X78277200Y-79129523D01*
X78277200Y-79129523D02*
X78324819Y-79034285D01*
X78324819Y-79034285D02*
X78324819Y-78843809D01*
X78324819Y-78843809D02*
X78277200Y-78748571D01*
X78277200Y-78748571D02*
X78229580Y-78700952D01*
X78229580Y-78700952D02*
X78134342Y-78653333D01*
X78134342Y-78653333D02*
X77896247Y-78653333D01*
X77896247Y-78653333D02*
X77801009Y-78700952D01*
X77801009Y-78700952D02*
X77753390Y-78748571D01*
X77753390Y-78748571D02*
X77705771Y-78843809D01*
X77705771Y-78843809D02*
X77705771Y-79034285D01*
X77705771Y-79034285D02*
X77753390Y-79129523D01*
X77753390Y-79129523D02*
X77801009Y-79177142D01*
X77801009Y-79177142D02*
X77896247Y-79224761D01*
X98585833Y-57749580D02*
X98538214Y-57797200D01*
X98538214Y-57797200D02*
X98395357Y-57844819D01*
X98395357Y-57844819D02*
X98300119Y-57844819D01*
X98300119Y-57844819D02*
X98157262Y-57797200D01*
X98157262Y-57797200D02*
X98062024Y-57701961D01*
X98062024Y-57701961D02*
X98014405Y-57606723D01*
X98014405Y-57606723D02*
X97966786Y-57416247D01*
X97966786Y-57416247D02*
X97966786Y-57273390D01*
X97966786Y-57273390D02*
X98014405Y-57082914D01*
X98014405Y-57082914D02*
X98062024Y-56987676D01*
X98062024Y-56987676D02*
X98157262Y-56892438D01*
X98157262Y-56892438D02*
X98300119Y-56844819D01*
X98300119Y-56844819D02*
X98395357Y-56844819D01*
X98395357Y-56844819D02*
X98538214Y-56892438D01*
X98538214Y-56892438D02*
X98585833Y-56940057D01*
X99442976Y-56844819D02*
X99252500Y-56844819D01*
X99252500Y-56844819D02*
X99157262Y-56892438D01*
X99157262Y-56892438D02*
X99109643Y-56940057D01*
X99109643Y-56940057D02*
X99014405Y-57082914D01*
X99014405Y-57082914D02*
X98966786Y-57273390D01*
X98966786Y-57273390D02*
X98966786Y-57654342D01*
X98966786Y-57654342D02*
X99014405Y-57749580D01*
X99014405Y-57749580D02*
X99062024Y-57797200D01*
X99062024Y-57797200D02*
X99157262Y-57844819D01*
X99157262Y-57844819D02*
X99347738Y-57844819D01*
X99347738Y-57844819D02*
X99442976Y-57797200D01*
X99442976Y-57797200D02*
X99490595Y-57749580D01*
X99490595Y-57749580D02*
X99538214Y-57654342D01*
X99538214Y-57654342D02*
X99538214Y-57416247D01*
X99538214Y-57416247D02*
X99490595Y-57321009D01*
X99490595Y-57321009D02*
X99442976Y-57273390D01*
X99442976Y-57273390D02*
X99347738Y-57225771D01*
X99347738Y-57225771D02*
X99157262Y-57225771D01*
X99157262Y-57225771D02*
X99062024Y-57273390D01*
X99062024Y-57273390D02*
X99014405Y-57321009D01*
X99014405Y-57321009D02*
X98966786Y-57416247D01*
X63206666Y-40568819D02*
X63206666Y-41283104D01*
X63206666Y-41283104D02*
X63159047Y-41425961D01*
X63159047Y-41425961D02*
X63063809Y-41521200D01*
X63063809Y-41521200D02*
X62920952Y-41568819D01*
X62920952Y-41568819D02*
X62825714Y-41568819D01*
X64206666Y-41568819D02*
X63635238Y-41568819D01*
X63920952Y-41568819D02*
X63920952Y-40568819D01*
X63920952Y-40568819D02*
X63825714Y-40711676D01*
X63825714Y-40711676D02*
X63730476Y-40806914D01*
X63730476Y-40806914D02*
X63635238Y-40854533D01*
X71899580Y-52150357D02*
X71947200Y-52197976D01*
X71947200Y-52197976D02*
X71994819Y-52340833D01*
X71994819Y-52340833D02*
X71994819Y-52436071D01*
X71994819Y-52436071D02*
X71947200Y-52578928D01*
X71947200Y-52578928D02*
X71851961Y-52674166D01*
X71851961Y-52674166D02*
X71756723Y-52721785D01*
X71756723Y-52721785D02*
X71566247Y-52769404D01*
X71566247Y-52769404D02*
X71423390Y-52769404D01*
X71423390Y-52769404D02*
X71232914Y-52721785D01*
X71232914Y-52721785D02*
X71137676Y-52674166D01*
X71137676Y-52674166D02*
X71042438Y-52578928D01*
X71042438Y-52578928D02*
X70994819Y-52436071D01*
X70994819Y-52436071D02*
X70994819Y-52340833D01*
X70994819Y-52340833D02*
X71042438Y-52197976D01*
X71042438Y-52197976D02*
X71090057Y-52150357D01*
X71994819Y-51197976D02*
X71994819Y-51769404D01*
X71994819Y-51483690D02*
X70994819Y-51483690D01*
X70994819Y-51483690D02*
X71137676Y-51578928D01*
X71137676Y-51578928D02*
X71232914Y-51674166D01*
X71232914Y-51674166D02*
X71280533Y-51769404D01*
X70994819Y-50864642D02*
X70994819Y-50245595D01*
X70994819Y-50245595D02*
X71375771Y-50578928D01*
X71375771Y-50578928D02*
X71375771Y-50436071D01*
X71375771Y-50436071D02*
X71423390Y-50340833D01*
X71423390Y-50340833D02*
X71471009Y-50293214D01*
X71471009Y-50293214D02*
X71566247Y-50245595D01*
X71566247Y-50245595D02*
X71804342Y-50245595D01*
X71804342Y-50245595D02*
X71899580Y-50293214D01*
X71899580Y-50293214D02*
X71947200Y-50340833D01*
X71947200Y-50340833D02*
X71994819Y-50436071D01*
X71994819Y-50436071D02*
X71994819Y-50721785D01*
X71994819Y-50721785D02*
X71947200Y-50817023D01*
X71947200Y-50817023D02*
X71899580Y-50864642D01*
X89028095Y-48524819D02*
X89028095Y-49334342D01*
X89028095Y-49334342D02*
X89075714Y-49429580D01*
X89075714Y-49429580D02*
X89123333Y-49477200D01*
X89123333Y-49477200D02*
X89218571Y-49524819D01*
X89218571Y-49524819D02*
X89409047Y-49524819D01*
X89409047Y-49524819D02*
X89504285Y-49477200D01*
X89504285Y-49477200D02*
X89551904Y-49429580D01*
X89551904Y-49429580D02*
X89599523Y-49334342D01*
X89599523Y-49334342D02*
X89599523Y-48524819D01*
X90551904Y-48524819D02*
X90075714Y-48524819D01*
X90075714Y-48524819D02*
X90028095Y-49001009D01*
X90028095Y-49001009D02*
X90075714Y-48953390D01*
X90075714Y-48953390D02*
X90170952Y-48905771D01*
X90170952Y-48905771D02*
X90409047Y-48905771D01*
X90409047Y-48905771D02*
X90504285Y-48953390D01*
X90504285Y-48953390D02*
X90551904Y-49001009D01*
X90551904Y-49001009D02*
X90599523Y-49096247D01*
X90599523Y-49096247D02*
X90599523Y-49334342D01*
X90599523Y-49334342D02*
X90551904Y-49429580D01*
X90551904Y-49429580D02*
X90504285Y-49477200D01*
X90504285Y-49477200D02*
X90409047Y-49524819D01*
X90409047Y-49524819D02*
X90170952Y-49524819D01*
X90170952Y-49524819D02*
X90075714Y-49477200D01*
X90075714Y-49477200D02*
X90028095Y-49429580D01*
X85837619Y-49429580D02*
X85790000Y-49477200D01*
X85790000Y-49477200D02*
X85647143Y-49524819D01*
X85647143Y-49524819D02*
X85551905Y-49524819D01*
X85551905Y-49524819D02*
X85409048Y-49477200D01*
X85409048Y-49477200D02*
X85313810Y-49381961D01*
X85313810Y-49381961D02*
X85266191Y-49286723D01*
X85266191Y-49286723D02*
X85218572Y-49096247D01*
X85218572Y-49096247D02*
X85218572Y-48953390D01*
X85218572Y-48953390D02*
X85266191Y-48762914D01*
X85266191Y-48762914D02*
X85313810Y-48667676D01*
X85313810Y-48667676D02*
X85409048Y-48572438D01*
X85409048Y-48572438D02*
X85551905Y-48524819D01*
X85551905Y-48524819D02*
X85647143Y-48524819D01*
X85647143Y-48524819D02*
X85790000Y-48572438D01*
X85790000Y-48572438D02*
X85837619Y-48620057D01*
X86218572Y-49239104D02*
X86694762Y-49239104D01*
X86123334Y-49524819D02*
X86456667Y-48524819D01*
X86456667Y-48524819D02*
X86790000Y-49524819D01*
X87123334Y-49524819D02*
X87123334Y-48524819D01*
X87123334Y-48524819D02*
X87456667Y-49239104D01*
X87456667Y-49239104D02*
X87790000Y-48524819D01*
X87790000Y-48524819D02*
X87790000Y-49524819D01*
X88266191Y-49143866D02*
X89028096Y-49143866D01*
X89504286Y-49524819D02*
X89504286Y-48524819D01*
X89504286Y-48524819D02*
X89837619Y-49239104D01*
X89837619Y-49239104D02*
X90170952Y-48524819D01*
X90170952Y-48524819D02*
X90170952Y-49524819D01*
X90790000Y-48953390D02*
X90694762Y-48905771D01*
X90694762Y-48905771D02*
X90647143Y-48858152D01*
X90647143Y-48858152D02*
X90599524Y-48762914D01*
X90599524Y-48762914D02*
X90599524Y-48715295D01*
X90599524Y-48715295D02*
X90647143Y-48620057D01*
X90647143Y-48620057D02*
X90694762Y-48572438D01*
X90694762Y-48572438D02*
X90790000Y-48524819D01*
X90790000Y-48524819D02*
X90980476Y-48524819D01*
X90980476Y-48524819D02*
X91075714Y-48572438D01*
X91075714Y-48572438D02*
X91123333Y-48620057D01*
X91123333Y-48620057D02*
X91170952Y-48715295D01*
X91170952Y-48715295D02*
X91170952Y-48762914D01*
X91170952Y-48762914D02*
X91123333Y-48858152D01*
X91123333Y-48858152D02*
X91075714Y-48905771D01*
X91075714Y-48905771D02*
X90980476Y-48953390D01*
X90980476Y-48953390D02*
X90790000Y-48953390D01*
X90790000Y-48953390D02*
X90694762Y-49001009D01*
X90694762Y-49001009D02*
X90647143Y-49048628D01*
X90647143Y-49048628D02*
X90599524Y-49143866D01*
X90599524Y-49143866D02*
X90599524Y-49334342D01*
X90599524Y-49334342D02*
X90647143Y-49429580D01*
X90647143Y-49429580D02*
X90694762Y-49477200D01*
X90694762Y-49477200D02*
X90790000Y-49524819D01*
X90790000Y-49524819D02*
X90980476Y-49524819D01*
X90980476Y-49524819D02*
X91075714Y-49477200D01*
X91075714Y-49477200D02*
X91123333Y-49429580D01*
X91123333Y-49429580D02*
X91170952Y-49334342D01*
X91170952Y-49334342D02*
X91170952Y-49143866D01*
X91170952Y-49143866D02*
X91123333Y-49048628D01*
X91123333Y-49048628D02*
X91075714Y-49001009D01*
X91075714Y-49001009D02*
X90980476Y-48953390D01*
X92170952Y-49429580D02*
X92123333Y-49477200D01*
X92123333Y-49477200D02*
X91980476Y-49524819D01*
X91980476Y-49524819D02*
X91885238Y-49524819D01*
X91885238Y-49524819D02*
X91742381Y-49477200D01*
X91742381Y-49477200D02*
X91647143Y-49381961D01*
X91647143Y-49381961D02*
X91599524Y-49286723D01*
X91599524Y-49286723D02*
X91551905Y-49096247D01*
X91551905Y-49096247D02*
X91551905Y-48953390D01*
X91551905Y-48953390D02*
X91599524Y-48762914D01*
X91599524Y-48762914D02*
X91647143Y-48667676D01*
X91647143Y-48667676D02*
X91742381Y-48572438D01*
X91742381Y-48572438D02*
X91885238Y-48524819D01*
X91885238Y-48524819D02*
X91980476Y-48524819D01*
X91980476Y-48524819D02*
X92123333Y-48572438D01*
X92123333Y-48572438D02*
X92170952Y-48620057D01*
X92599524Y-49143866D02*
X93361429Y-49143866D01*
X94028095Y-48524819D02*
X94123333Y-48524819D01*
X94123333Y-48524819D02*
X94218571Y-48572438D01*
X94218571Y-48572438D02*
X94266190Y-48620057D01*
X94266190Y-48620057D02*
X94313809Y-48715295D01*
X94313809Y-48715295D02*
X94361428Y-48905771D01*
X94361428Y-48905771D02*
X94361428Y-49143866D01*
X94361428Y-49143866D02*
X94313809Y-49334342D01*
X94313809Y-49334342D02*
X94266190Y-49429580D01*
X94266190Y-49429580D02*
X94218571Y-49477200D01*
X94218571Y-49477200D02*
X94123333Y-49524819D01*
X94123333Y-49524819D02*
X94028095Y-49524819D01*
X94028095Y-49524819D02*
X93932857Y-49477200D01*
X93932857Y-49477200D02*
X93885238Y-49429580D01*
X93885238Y-49429580D02*
X93837619Y-49334342D01*
X93837619Y-49334342D02*
X93790000Y-49143866D01*
X93790000Y-49143866D02*
X93790000Y-48905771D01*
X93790000Y-48905771D02*
X93837619Y-48715295D01*
X93837619Y-48715295D02*
X93885238Y-48620057D01*
X93885238Y-48620057D02*
X93932857Y-48572438D01*
X93932857Y-48572438D02*
X94028095Y-48524819D01*
X89790000Y-48524819D02*
X89790000Y-48762914D01*
X89551905Y-48667676D02*
X89790000Y-48762914D01*
X89790000Y-48762914D02*
X90028095Y-48667676D01*
X89647143Y-48953390D02*
X89790000Y-48762914D01*
X89790000Y-48762914D02*
X89932857Y-48953390D01*
X79969580Y-51274166D02*
X80017200Y-51321785D01*
X80017200Y-51321785D02*
X80064819Y-51464642D01*
X80064819Y-51464642D02*
X80064819Y-51559880D01*
X80064819Y-51559880D02*
X80017200Y-51702737D01*
X80017200Y-51702737D02*
X79921961Y-51797975D01*
X79921961Y-51797975D02*
X79826723Y-51845594D01*
X79826723Y-51845594D02*
X79636247Y-51893213D01*
X79636247Y-51893213D02*
X79493390Y-51893213D01*
X79493390Y-51893213D02*
X79302914Y-51845594D01*
X79302914Y-51845594D02*
X79207676Y-51797975D01*
X79207676Y-51797975D02*
X79112438Y-51702737D01*
X79112438Y-51702737D02*
X79064819Y-51559880D01*
X79064819Y-51559880D02*
X79064819Y-51464642D01*
X79064819Y-51464642D02*
X79112438Y-51321785D01*
X79112438Y-51321785D02*
X79160057Y-51274166D01*
X79493390Y-50702737D02*
X79445771Y-50797975D01*
X79445771Y-50797975D02*
X79398152Y-50845594D01*
X79398152Y-50845594D02*
X79302914Y-50893213D01*
X79302914Y-50893213D02*
X79255295Y-50893213D01*
X79255295Y-50893213D02*
X79160057Y-50845594D01*
X79160057Y-50845594D02*
X79112438Y-50797975D01*
X79112438Y-50797975D02*
X79064819Y-50702737D01*
X79064819Y-50702737D02*
X79064819Y-50512261D01*
X79064819Y-50512261D02*
X79112438Y-50417023D01*
X79112438Y-50417023D02*
X79160057Y-50369404D01*
X79160057Y-50369404D02*
X79255295Y-50321785D01*
X79255295Y-50321785D02*
X79302914Y-50321785D01*
X79302914Y-50321785D02*
X79398152Y-50369404D01*
X79398152Y-50369404D02*
X79445771Y-50417023D01*
X79445771Y-50417023D02*
X79493390Y-50512261D01*
X79493390Y-50512261D02*
X79493390Y-50702737D01*
X79493390Y-50702737D02*
X79541009Y-50797975D01*
X79541009Y-50797975D02*
X79588628Y-50845594D01*
X79588628Y-50845594D02*
X79683866Y-50893213D01*
X79683866Y-50893213D02*
X79874342Y-50893213D01*
X79874342Y-50893213D02*
X79969580Y-50845594D01*
X79969580Y-50845594D02*
X80017200Y-50797975D01*
X80017200Y-50797975D02*
X80064819Y-50702737D01*
X80064819Y-50702737D02*
X80064819Y-50512261D01*
X80064819Y-50512261D02*
X80017200Y-50417023D01*
X80017200Y-50417023D02*
X79969580Y-50369404D01*
X79969580Y-50369404D02*
X79874342Y-50321785D01*
X79874342Y-50321785D02*
X79683866Y-50321785D01*
X79683866Y-50321785D02*
X79588628Y-50369404D01*
X79588628Y-50369404D02*
X79541009Y-50417023D01*
X79541009Y-50417023D02*
X79493390Y-50512261D01*
X49154819Y-59791904D02*
X49964342Y-59791904D01*
X49964342Y-59791904D02*
X50059580Y-59744285D01*
X50059580Y-59744285D02*
X50107200Y-59696666D01*
X50107200Y-59696666D02*
X50154819Y-59601428D01*
X50154819Y-59601428D02*
X50154819Y-59410952D01*
X50154819Y-59410952D02*
X50107200Y-59315714D01*
X50107200Y-59315714D02*
X50059580Y-59268095D01*
X50059580Y-59268095D02*
X49964342Y-59220476D01*
X49964342Y-59220476D02*
X49154819Y-59220476D01*
X49250057Y-58791904D02*
X49202438Y-58744285D01*
X49202438Y-58744285D02*
X49154819Y-58649047D01*
X49154819Y-58649047D02*
X49154819Y-58410952D01*
X49154819Y-58410952D02*
X49202438Y-58315714D01*
X49202438Y-58315714D02*
X49250057Y-58268095D01*
X49250057Y-58268095D02*
X49345295Y-58220476D01*
X49345295Y-58220476D02*
X49440533Y-58220476D01*
X49440533Y-58220476D02*
X49583390Y-58268095D01*
X49583390Y-58268095D02*
X50154819Y-58839523D01*
X50154819Y-58839523D02*
X50154819Y-58220476D01*
X94969580Y-54500357D02*
X95017200Y-54547976D01*
X95017200Y-54547976D02*
X95064819Y-54690833D01*
X95064819Y-54690833D02*
X95064819Y-54786071D01*
X95064819Y-54786071D02*
X95017200Y-54928928D01*
X95017200Y-54928928D02*
X94921961Y-55024166D01*
X94921961Y-55024166D02*
X94826723Y-55071785D01*
X94826723Y-55071785D02*
X94636247Y-55119404D01*
X94636247Y-55119404D02*
X94493390Y-55119404D01*
X94493390Y-55119404D02*
X94302914Y-55071785D01*
X94302914Y-55071785D02*
X94207676Y-55024166D01*
X94207676Y-55024166D02*
X94112438Y-54928928D01*
X94112438Y-54928928D02*
X94064819Y-54786071D01*
X94064819Y-54786071D02*
X94064819Y-54690833D01*
X94064819Y-54690833D02*
X94112438Y-54547976D01*
X94112438Y-54547976D02*
X94160057Y-54500357D01*
X95064819Y-53547976D02*
X95064819Y-54119404D01*
X95064819Y-53833690D02*
X94064819Y-53833690D01*
X94064819Y-53833690D02*
X94207676Y-53928928D01*
X94207676Y-53928928D02*
X94302914Y-54024166D01*
X94302914Y-54024166D02*
X94350533Y-54119404D01*
X94398152Y-52690833D02*
X95064819Y-52690833D01*
X94017200Y-52928928D02*
X94731485Y-53167023D01*
X94731485Y-53167023D02*
X94731485Y-52547976D01*
X80505476Y-47024819D02*
X81172142Y-48024819D01*
X81172142Y-47024819D02*
X80505476Y-48024819D01*
X82076904Y-48024819D02*
X81505476Y-48024819D01*
X81791190Y-48024819D02*
X81791190Y-47024819D01*
X81791190Y-47024819D02*
X81695952Y-47167676D01*
X81695952Y-47167676D02*
X81600714Y-47262914D01*
X81600714Y-47262914D02*
X81505476Y-47310533D01*
X77718571Y-59001009D02*
X77385238Y-59001009D01*
X77385238Y-59524819D02*
X77385238Y-58524819D01*
X77385238Y-58524819D02*
X77861428Y-58524819D01*
X78242381Y-59524819D02*
X78242381Y-58524819D01*
X78718571Y-59524819D02*
X78718571Y-58524819D01*
X78718571Y-58524819D02*
X78956666Y-58524819D01*
X78956666Y-58524819D02*
X79099523Y-58572438D01*
X79099523Y-58572438D02*
X79194761Y-58667676D01*
X79194761Y-58667676D02*
X79242380Y-58762914D01*
X79242380Y-58762914D02*
X79289999Y-58953390D01*
X79289999Y-58953390D02*
X79289999Y-59096247D01*
X79289999Y-59096247D02*
X79242380Y-59286723D01*
X79242380Y-59286723D02*
X79194761Y-59381961D01*
X79194761Y-59381961D02*
X79099523Y-59477200D01*
X79099523Y-59477200D02*
X78956666Y-59524819D01*
X78956666Y-59524819D02*
X78718571Y-59524819D01*
X80242380Y-59524819D02*
X79670952Y-59524819D01*
X79956666Y-59524819D02*
X79956666Y-58524819D01*
X79956666Y-58524819D02*
X79861428Y-58667676D01*
X79861428Y-58667676D02*
X79766190Y-58762914D01*
X79766190Y-58762914D02*
X79670952Y-58810533D01*
X77861905Y-61684819D02*
X77861905Y-60684819D01*
X77861905Y-60684819D02*
X78100000Y-60684819D01*
X78100000Y-60684819D02*
X78242857Y-60732438D01*
X78242857Y-60732438D02*
X78338095Y-60827676D01*
X78338095Y-60827676D02*
X78385714Y-60922914D01*
X78385714Y-60922914D02*
X78433333Y-61113390D01*
X78433333Y-61113390D02*
X78433333Y-61256247D01*
X78433333Y-61256247D02*
X78385714Y-61446723D01*
X78385714Y-61446723D02*
X78338095Y-61541961D01*
X78338095Y-61541961D02*
X78242857Y-61637200D01*
X78242857Y-61637200D02*
X78100000Y-61684819D01*
X78100000Y-61684819D02*
X77861905Y-61684819D01*
X79338095Y-60684819D02*
X78861905Y-60684819D01*
X78861905Y-60684819D02*
X78814286Y-61161009D01*
X78814286Y-61161009D02*
X78861905Y-61113390D01*
X78861905Y-61113390D02*
X78957143Y-61065771D01*
X78957143Y-61065771D02*
X79195238Y-61065771D01*
X79195238Y-61065771D02*
X79290476Y-61113390D01*
X79290476Y-61113390D02*
X79338095Y-61161009D01*
X79338095Y-61161009D02*
X79385714Y-61256247D01*
X79385714Y-61256247D02*
X79385714Y-61494342D01*
X79385714Y-61494342D02*
X79338095Y-61589580D01*
X79338095Y-61589580D02*
X79290476Y-61637200D01*
X79290476Y-61637200D02*
X79195238Y-61684819D01*
X79195238Y-61684819D02*
X78957143Y-61684819D01*
X78957143Y-61684819D02*
X78861905Y-61637200D01*
X78861905Y-61637200D02*
X78814286Y-61589580D01*
X60744819Y-66368094D02*
X59744819Y-66368094D01*
X59744819Y-66368094D02*
X59744819Y-66129999D01*
X59744819Y-66129999D02*
X59792438Y-65987142D01*
X59792438Y-65987142D02*
X59887676Y-65891904D01*
X59887676Y-65891904D02*
X59982914Y-65844285D01*
X59982914Y-65844285D02*
X60173390Y-65796666D01*
X60173390Y-65796666D02*
X60316247Y-65796666D01*
X60316247Y-65796666D02*
X60506723Y-65844285D01*
X60506723Y-65844285D02*
X60601961Y-65891904D01*
X60601961Y-65891904D02*
X60697200Y-65987142D01*
X60697200Y-65987142D02*
X60744819Y-66129999D01*
X60744819Y-66129999D02*
X60744819Y-66368094D01*
X59840057Y-65415713D02*
X59792438Y-65368094D01*
X59792438Y-65368094D02*
X59744819Y-65272856D01*
X59744819Y-65272856D02*
X59744819Y-65034761D01*
X59744819Y-65034761D02*
X59792438Y-64939523D01*
X59792438Y-64939523D02*
X59840057Y-64891904D01*
X59840057Y-64891904D02*
X59935295Y-64844285D01*
X59935295Y-64844285D02*
X60030533Y-64844285D01*
X60030533Y-64844285D02*
X60173390Y-64891904D01*
X60173390Y-64891904D02*
X60744819Y-65463332D01*
X60744819Y-65463332D02*
X60744819Y-64844285D01*
X56954819Y-53368094D02*
X55954819Y-53368094D01*
X55954819Y-53368094D02*
X55954819Y-53129999D01*
X55954819Y-53129999D02*
X56002438Y-52987142D01*
X56002438Y-52987142D02*
X56097676Y-52891904D01*
X56097676Y-52891904D02*
X56192914Y-52844285D01*
X56192914Y-52844285D02*
X56383390Y-52796666D01*
X56383390Y-52796666D02*
X56526247Y-52796666D01*
X56526247Y-52796666D02*
X56716723Y-52844285D01*
X56716723Y-52844285D02*
X56811961Y-52891904D01*
X56811961Y-52891904D02*
X56907200Y-52987142D01*
X56907200Y-52987142D02*
X56954819Y-53129999D01*
X56954819Y-53129999D02*
X56954819Y-53368094D01*
X55954819Y-52463332D02*
X55954819Y-51844285D01*
X55954819Y-51844285D02*
X56335771Y-52177618D01*
X56335771Y-52177618D02*
X56335771Y-52034761D01*
X56335771Y-52034761D02*
X56383390Y-51939523D01*
X56383390Y-51939523D02*
X56431009Y-51891904D01*
X56431009Y-51891904D02*
X56526247Y-51844285D01*
X56526247Y-51844285D02*
X56764342Y-51844285D01*
X56764342Y-51844285D02*
X56859580Y-51891904D01*
X56859580Y-51891904D02*
X56907200Y-51939523D01*
X56907200Y-51939523D02*
X56954819Y-52034761D01*
X56954819Y-52034761D02*
X56954819Y-52320475D01*
X56954819Y-52320475D02*
X56907200Y-52415713D01*
X56907200Y-52415713D02*
X56859580Y-52463332D01*
X59266666Y-74684819D02*
X59266666Y-75399104D01*
X59266666Y-75399104D02*
X59219047Y-75541961D01*
X59219047Y-75541961D02*
X59123809Y-75637200D01*
X59123809Y-75637200D02*
X58980952Y-75684819D01*
X58980952Y-75684819D02*
X58885714Y-75684819D01*
X60171428Y-75018152D02*
X60171428Y-75684819D01*
X59933333Y-74637200D02*
X59695238Y-75351485D01*
X59695238Y-75351485D02*
X60314285Y-75351485D01*
X87166666Y-73411009D02*
X86833333Y-73411009D01*
X86833333Y-73934819D02*
X86833333Y-72934819D01*
X86833333Y-72934819D02*
X87309523Y-72934819D01*
X87642857Y-73030057D02*
X87690476Y-72982438D01*
X87690476Y-72982438D02*
X87785714Y-72934819D01*
X87785714Y-72934819D02*
X88023809Y-72934819D01*
X88023809Y-72934819D02*
X88119047Y-72982438D01*
X88119047Y-72982438D02*
X88166666Y-73030057D01*
X88166666Y-73030057D02*
X88214285Y-73125295D01*
X88214285Y-73125295D02*
X88214285Y-73220533D01*
X88214285Y-73220533D02*
X88166666Y-73363390D01*
X88166666Y-73363390D02*
X87595238Y-73934819D01*
X87595238Y-73934819D02*
X88214285Y-73934819D01*
X70566666Y-74584819D02*
X70566666Y-75299104D01*
X70566666Y-75299104D02*
X70519047Y-75441961D01*
X70519047Y-75441961D02*
X70423809Y-75537200D01*
X70423809Y-75537200D02*
X70280952Y-75584819D01*
X70280952Y-75584819D02*
X70185714Y-75584819D01*
X71519047Y-74584819D02*
X71042857Y-74584819D01*
X71042857Y-74584819D02*
X70995238Y-75061009D01*
X70995238Y-75061009D02*
X71042857Y-75013390D01*
X71042857Y-75013390D02*
X71138095Y-74965771D01*
X71138095Y-74965771D02*
X71376190Y-74965771D01*
X71376190Y-74965771D02*
X71471428Y-75013390D01*
X71471428Y-75013390D02*
X71519047Y-75061009D01*
X71519047Y-75061009D02*
X71566666Y-75156247D01*
X71566666Y-75156247D02*
X71566666Y-75394342D01*
X71566666Y-75394342D02*
X71519047Y-75489580D01*
X71519047Y-75489580D02*
X71471428Y-75537200D01*
X71471428Y-75537200D02*
X71376190Y-75584819D01*
X71376190Y-75584819D02*
X71138095Y-75584819D01*
X71138095Y-75584819D02*
X71042857Y-75537200D01*
X71042857Y-75537200D02*
X70995238Y-75489580D01*
X99894819Y-45208094D02*
X98894819Y-45208094D01*
X98894819Y-45208094D02*
X98894819Y-44969999D01*
X98894819Y-44969999D02*
X98942438Y-44827142D01*
X98942438Y-44827142D02*
X99037676Y-44731904D01*
X99037676Y-44731904D02*
X99132914Y-44684285D01*
X99132914Y-44684285D02*
X99323390Y-44636666D01*
X99323390Y-44636666D02*
X99466247Y-44636666D01*
X99466247Y-44636666D02*
X99656723Y-44684285D01*
X99656723Y-44684285D02*
X99751961Y-44731904D01*
X99751961Y-44731904D02*
X99847200Y-44827142D01*
X99847200Y-44827142D02*
X99894819Y-44969999D01*
X99894819Y-44969999D02*
X99894819Y-45208094D01*
X99894819Y-43684285D02*
X99894819Y-44255713D01*
X99894819Y-43969999D02*
X98894819Y-43969999D01*
X98894819Y-43969999D02*
X99037676Y-44065237D01*
X99037676Y-44065237D02*
X99132914Y-44160475D01*
X99132914Y-44160475D02*
X99180533Y-44255713D01*
X50266666Y-74774819D02*
X50266666Y-75489104D01*
X50266666Y-75489104D02*
X50219047Y-75631961D01*
X50219047Y-75631961D02*
X50123809Y-75727200D01*
X50123809Y-75727200D02*
X49980952Y-75774819D01*
X49980952Y-75774819D02*
X49885714Y-75774819D01*
X50647619Y-74774819D02*
X51266666Y-74774819D01*
X51266666Y-74774819D02*
X50933333Y-75155771D01*
X50933333Y-75155771D02*
X51076190Y-75155771D01*
X51076190Y-75155771D02*
X51171428Y-75203390D01*
X51171428Y-75203390D02*
X51219047Y-75251009D01*
X51219047Y-75251009D02*
X51266666Y-75346247D01*
X51266666Y-75346247D02*
X51266666Y-75584342D01*
X51266666Y-75584342D02*
X51219047Y-75679580D01*
X51219047Y-75679580D02*
X51171428Y-75727200D01*
X51171428Y-75727200D02*
X51076190Y-75774819D01*
X51076190Y-75774819D02*
X50790476Y-75774819D01*
X50790476Y-75774819D02*
X50695238Y-75727200D01*
X50695238Y-75727200D02*
X50647619Y-75679580D01*
X83166666Y-70234819D02*
X83166666Y-70949104D01*
X83166666Y-70949104D02*
X83119047Y-71091961D01*
X83119047Y-71091961D02*
X83023809Y-71187200D01*
X83023809Y-71187200D02*
X82880952Y-71234819D01*
X82880952Y-71234819D02*
X82785714Y-71234819D01*
X83642857Y-71234819D02*
X83642857Y-70234819D01*
X83642857Y-70234819D02*
X84023809Y-70234819D01*
X84023809Y-70234819D02*
X84119047Y-70282438D01*
X84119047Y-70282438D02*
X84166666Y-70330057D01*
X84166666Y-70330057D02*
X84214285Y-70425295D01*
X84214285Y-70425295D02*
X84214285Y-70568152D01*
X84214285Y-70568152D02*
X84166666Y-70663390D01*
X84166666Y-70663390D02*
X84119047Y-70711009D01*
X84119047Y-70711009D02*
X84023809Y-70758628D01*
X84023809Y-70758628D02*
X83642857Y-70758628D01*
X85166666Y-71234819D02*
X84595238Y-71234819D01*
X84880952Y-71234819D02*
X84880952Y-70234819D01*
X84880952Y-70234819D02*
X84785714Y-70377676D01*
X84785714Y-70377676D02*
X84690476Y-70472914D01*
X84690476Y-70472914D02*
X84595238Y-70520533D01*
X92261905Y-71084819D02*
X92261905Y-70084819D01*
X92261905Y-70084819D02*
X92500000Y-70084819D01*
X92500000Y-70084819D02*
X92642857Y-70132438D01*
X92642857Y-70132438D02*
X92738095Y-70227676D01*
X92738095Y-70227676D02*
X92785714Y-70322914D01*
X92785714Y-70322914D02*
X92833333Y-70513390D01*
X92833333Y-70513390D02*
X92833333Y-70656247D01*
X92833333Y-70656247D02*
X92785714Y-70846723D01*
X92785714Y-70846723D02*
X92738095Y-70941961D01*
X92738095Y-70941961D02*
X92642857Y-71037200D01*
X92642857Y-71037200D02*
X92500000Y-71084819D01*
X92500000Y-71084819D02*
X92261905Y-71084819D01*
X93166667Y-70084819D02*
X93833333Y-70084819D01*
X93833333Y-70084819D02*
X93404762Y-71084819D01*
D11*
%TO.C,MB5*%
X114300000Y-41630000D02*
G75*
G03*
X114300000Y-40630000I0J500000D01*
G01*
X117300000Y-40630000D02*
G75*
G03*
X117300000Y-41630000I0J-500000D01*
G01*
D12*
%TO.C,D12*%
X149490000Y-71480000D02*
X149490000Y-74780000D01*
X149490000Y-71480000D02*
X155000000Y-71480000D01*
X149490000Y-74780000D02*
X155000000Y-74780000D01*
D11*
%TO.C,MB6*%
X160700000Y-41630000D02*
G75*
G03*
X160700000Y-40630000I0J500000D01*
G01*
X163700000Y-40630000D02*
G75*
G03*
X163700000Y-41630000I0J-500000D01*
G01*
D12*
%TO.C,JP4*%
X146800000Y-74030000D02*
X146200000Y-74030000D01*
X145500000Y-73330000D02*
X145500000Y-71930000D01*
X147500000Y-71930000D02*
X147500000Y-73330000D01*
X146200000Y-71230000D02*
X146800000Y-71230000D01*
X145500000Y-73330000D02*
G75*
G03*
X146200000Y-74030000I699999J-1D01*
G01*
X146800000Y-74030000D02*
G75*
G03*
X147500000Y-73330000I1J699999D01*
G01*
X146200000Y-71230000D02*
G75*
G03*
X145500000Y-71930000I0J-700000D01*
G01*
X147500000Y-71930000D02*
G75*
G03*
X146800000Y-71230000I-700000J0D01*
G01*
%TO.C,J11*%
X109270000Y-76320000D02*
X110600000Y-76320000D01*
X109270000Y-77650000D02*
X109270000Y-76320000D01*
X109270000Y-78920000D02*
X109270000Y-84060000D01*
X109270000Y-78920000D02*
X111930000Y-78920000D01*
X109270000Y-84060000D02*
X111930000Y-84060000D01*
X111930000Y-78920000D02*
X111930000Y-84060000D01*
D11*
%TO.C,MB7*%
X112090000Y-86320000D02*
G75*
G03*
X112090000Y-87320000I0J-500000D01*
G01*
X109090000Y-87320000D02*
G75*
G03*
X109090000Y-86320000I0J500000D01*
G01*
D12*
%TO.C,J12*%
X125810000Y-78470000D02*
X125810000Y-77320000D01*
X125810000Y-77320000D02*
X124760000Y-77320000D01*
X124760000Y-77320000D02*
X124760000Y-76330000D01*
X124640000Y-80440000D02*
X114760000Y-80440000D01*
X113590000Y-78470000D02*
X113590000Y-77320000D01*
X113590000Y-77320000D02*
X114640000Y-77320000D01*
D11*
%TO.C,MB8*%
X154190000Y-86320000D02*
G75*
G03*
X154190000Y-87320000I0J-500000D01*
G01*
X151190000Y-87320000D02*
G75*
G03*
X151190000Y-86320000I0J500000D01*
G01*
D12*
%TO.C,D9*%
X117350000Y-56140000D02*
X120650000Y-56140000D01*
X117350000Y-56140000D02*
X117350000Y-50630000D01*
X120650000Y-56140000D02*
X120650000Y-50630000D01*
%TO.C,D8*%
X119440000Y-62120000D02*
X116140000Y-62120000D01*
X119440000Y-62120000D02*
X119440000Y-67630000D01*
X116140000Y-62120000D02*
X116140000Y-67630000D01*
%TO.C,D11*%
X140120000Y-64330000D02*
X140120000Y-62170000D01*
X140120000Y-64330000D02*
X139190000Y-64330000D01*
X136960000Y-64330000D02*
X136960000Y-62870000D01*
X136960000Y-64330000D02*
X137890000Y-64330000D01*
%TO.C,X2*%
X139815000Y-42570000D02*
X140615000Y-42570000D01*
X139815000Y-42770000D02*
X139815000Y-42570000D01*
X140015000Y-45570000D02*
X139815000Y-45370000D01*
X140615000Y-45570000D02*
X140015000Y-45570000D01*
X140615000Y-45570000D02*
X140615000Y-46070000D01*
X142015000Y-42570000D02*
X142815000Y-42570000D01*
X142015000Y-45570000D02*
X142015000Y-46070000D01*
X142815000Y-42570000D02*
X142815000Y-42770000D01*
X142815000Y-45370000D02*
X142815000Y-45570000D01*
X142815000Y-45570000D02*
X142015000Y-45570000D01*
%TO.C,C29*%
X155555000Y-54118752D02*
X155555000Y-53596248D01*
X157025000Y-54118752D02*
X157025000Y-53596248D01*
%TO.C,U7*%
X111660000Y-61790000D02*
X113420000Y-61790000D01*
X113420000Y-58720000D02*
X110990000Y-58720000D01*
%TO.C,C23*%
X140555000Y-51368752D02*
X140555000Y-50846248D01*
X142025000Y-51368752D02*
X142025000Y-50846248D01*
%TO.C,U10*%
X144760800Y-41767500D02*
X144760800Y-42409265D01*
X144760800Y-55730735D02*
X144760800Y-56372500D01*
X144760800Y-56372500D02*
X147128531Y-56372500D01*
X147128531Y-41767500D02*
X144760800Y-41767500D01*
X152451469Y-56372500D02*
X154819200Y-56372500D01*
X154819200Y-41767500D02*
X152451469Y-41767500D01*
X154819200Y-42409265D02*
X154819200Y-41767500D01*
X154819200Y-56372500D02*
X154819200Y-55730735D01*
%TO.C,C28*%
X132355000Y-53817500D02*
X134225000Y-53817500D01*
X134225000Y-53817500D02*
X134225000Y-49907500D01*
X132355000Y-49907500D02*
X132355000Y-53817500D01*
%TO.C,J9*%
X116940000Y-41914000D02*
X116940000Y-43164000D01*
X117230000Y-42204000D02*
X117230000Y-48174000D01*
X117230000Y-48174000D02*
X129850000Y-48174000D01*
X117240000Y-42214000D02*
X117240000Y-42964000D01*
X117240000Y-42964000D02*
X119040000Y-42964000D01*
X117240000Y-44464000D02*
X117990000Y-44464000D01*
X117990000Y-44464000D02*
X117990000Y-47414000D01*
X117990000Y-47414000D02*
X123540000Y-47414000D01*
X118190000Y-41914000D02*
X116940000Y-41914000D01*
X119040000Y-42214000D02*
X117240000Y-42214000D01*
X119040000Y-42964000D02*
X119040000Y-42214000D01*
X120540000Y-42214000D02*
X120540000Y-42964000D01*
X120540000Y-42964000D02*
X126540000Y-42964000D01*
X126540000Y-42214000D02*
X120540000Y-42214000D01*
X126540000Y-42964000D02*
X126540000Y-42214000D01*
X128040000Y-42214000D02*
X128040000Y-42964000D01*
X128040000Y-42964000D02*
X129840000Y-42964000D01*
X129090000Y-44464000D02*
X129090000Y-47414000D01*
X129090000Y-47414000D02*
X123540000Y-47414000D01*
X129840000Y-42214000D02*
X128040000Y-42214000D01*
X129840000Y-42964000D02*
X129840000Y-42214000D01*
X129840000Y-44464000D02*
X129090000Y-44464000D01*
X129850000Y-42204000D02*
X117230000Y-42204000D01*
X129850000Y-48174000D02*
X129850000Y-42204000D01*
%TO.C,C21*%
X158491248Y-58335000D02*
X159013752Y-58335000D01*
X158491248Y-59805000D02*
X159013752Y-59805000D01*
%TO.C,J14*%
X140475000Y-85755000D02*
X143550000Y-85755000D01*
X143550000Y-85755000D02*
X143550000Y-72885000D01*
X138960000Y-84335000D02*
X139460000Y-84335000D01*
X139460000Y-84335000D02*
X139460000Y-74305000D01*
X138960000Y-84315000D02*
X138960000Y-84335000D01*
X138960000Y-74305000D02*
X138960000Y-74325000D01*
X139460000Y-74305000D02*
X138960000Y-74305000D01*
X143550000Y-72885000D02*
X140475000Y-72885000D01*
%TO.C,J16*%
X157725000Y-85650000D02*
X156305000Y-85650000D01*
X157725000Y-79890000D02*
X157725000Y-85650000D01*
X157725000Y-78370000D02*
X157725000Y-78060000D01*
X157725000Y-78060000D02*
X147855000Y-78060000D01*
X156305000Y-85650000D02*
X156305000Y-85150000D01*
X156305000Y-85150000D02*
X149275000Y-85150000D01*
X149275000Y-85650000D02*
X147855000Y-85650000D01*
X149275000Y-85150000D02*
X149275000Y-85650000D01*
X147855000Y-85650000D02*
X147855000Y-79890000D01*
X147855000Y-78060000D02*
X147855000Y-78370000D01*
%TO.C,L2*%
X118440000Y-59529622D02*
X118440000Y-58730378D01*
X119560000Y-59529622D02*
X119560000Y-58730378D01*
%TO.C,J10*%
X165540000Y-42220000D02*
X164290000Y-42220000D01*
X165250000Y-42510000D02*
X159280000Y-42510000D01*
X159280000Y-42510000D02*
X159280000Y-57630000D01*
X165240000Y-42520000D02*
X164490000Y-42520000D01*
X164490000Y-42520000D02*
X164490000Y-44320000D01*
X162990000Y-42520000D02*
X162990000Y-43270000D01*
X162990000Y-43270000D02*
X160040000Y-43270000D01*
X160040000Y-43270000D02*
X160040000Y-50070000D01*
X165540000Y-43470000D02*
X165540000Y-42220000D01*
X165240000Y-44320000D02*
X165240000Y-42520000D01*
X164490000Y-44320000D02*
X165240000Y-44320000D01*
X165240000Y-45820000D02*
X164490000Y-45820000D01*
X164490000Y-45820000D02*
X164490000Y-54320000D01*
X165240000Y-54320000D02*
X165240000Y-45820000D01*
X164490000Y-54320000D02*
X165240000Y-54320000D01*
X165240000Y-55820000D02*
X164490000Y-55820000D01*
X164490000Y-55820000D02*
X164490000Y-57620000D01*
X162990000Y-56870000D02*
X160040000Y-56870000D01*
X160040000Y-56870000D02*
X160040000Y-50070000D01*
X165240000Y-57620000D02*
X165240000Y-55820000D01*
X164490000Y-57620000D02*
X165240000Y-57620000D01*
X162990000Y-57620000D02*
X162990000Y-56870000D01*
X165250000Y-57630000D02*
X165250000Y-42510000D01*
X159280000Y-57630000D02*
X165250000Y-57630000D01*
%TO.C,C24*%
X109490000Y-68760000D02*
X109990000Y-68760000D01*
X109740000Y-68510000D02*
X109740000Y-69010000D01*
X110230000Y-69124437D02*
X110230000Y-69260000D01*
X110230000Y-69124437D02*
X111294437Y-68060000D01*
X110230000Y-71515563D02*
X110230000Y-71380000D01*
X110230000Y-71515563D02*
X111294437Y-72580000D01*
X111294437Y-68060000D02*
X114750000Y-68060000D01*
X111294437Y-72580000D02*
X114750000Y-72580000D01*
X114750000Y-68060000D02*
X114750000Y-69260000D01*
X114750000Y-72580000D02*
X114750000Y-71380000D01*
%TO.C,C22*%
X109490000Y-63470000D02*
X109990000Y-63470000D01*
X109740000Y-63220000D02*
X109740000Y-63720000D01*
X110230000Y-63834437D02*
X110230000Y-63970000D01*
X110230000Y-63834437D02*
X111294437Y-62770000D01*
X110230000Y-66225563D02*
X110230000Y-66090000D01*
X110230000Y-66225563D02*
X111294437Y-67290000D01*
X111294437Y-62770000D02*
X114750000Y-62770000D01*
X111294437Y-67290000D02*
X114750000Y-67290000D01*
X114750000Y-62770000D02*
X114750000Y-63970000D01*
X114750000Y-67290000D02*
X114750000Y-66090000D01*
%TO.C,C20*%
X116055000Y-59368752D02*
X116055000Y-58846248D01*
X117525000Y-59368752D02*
X117525000Y-58846248D01*
%TO.C,C19*%
X109215000Y-53345000D02*
X109840000Y-53345000D01*
X109527500Y-53032500D02*
X109527500Y-53657500D01*
X110080000Y-53334437D02*
X110080000Y-53970000D01*
X110080000Y-53334437D02*
X111144437Y-52270000D01*
X110080000Y-56725563D02*
X110080000Y-56090000D01*
X110080000Y-56725563D02*
X111144437Y-57790000D01*
X111144437Y-52270000D02*
X115600000Y-52270000D01*
X111144437Y-57790000D02*
X115600000Y-57790000D01*
X115600000Y-52270000D02*
X115600000Y-53970000D01*
X115600000Y-57790000D02*
X115600000Y-56090000D01*
%TO.C,R9*%
X140025000Y-50842936D02*
X140025000Y-51297064D01*
X138555000Y-50842936D02*
X138555000Y-51297064D01*
%TO.C,F3*%
X112450436Y-49070000D02*
X113654564Y-49070000D01*
X112450436Y-51790000D02*
X113654564Y-51790000D01*
%TO.C,R10*%
X128805000Y-51047064D02*
X128805000Y-50592936D01*
X130275000Y-51047064D02*
X130275000Y-50592936D01*
%TO.C,U8*%
X154150000Y-70685000D02*
X154150000Y-70440000D01*
X154150000Y-70440000D02*
X155965000Y-70440000D01*
X154150000Y-58915000D02*
X154150000Y-59160000D01*
X150290000Y-70685000D02*
X154150000Y-70685000D01*
X150290000Y-70685000D02*
X146430000Y-70685000D01*
X150290000Y-58915000D02*
X154150000Y-58915000D01*
X150290000Y-58915000D02*
X146430000Y-58915000D01*
X146430000Y-70685000D02*
X146430000Y-70440000D01*
X146430000Y-58915000D02*
X146430000Y-59160000D01*
%TO.C,C16*%
X135566248Y-67835000D02*
X136088752Y-67835000D01*
X135566248Y-69305000D02*
X136088752Y-69305000D01*
%TO.C,R13*%
X140812936Y-66335000D02*
X141267064Y-66335000D01*
X140812936Y-67805000D02*
X141267064Y-67805000D01*
D10*
%TO.C,U6*%
X124415000Y-62945000D02*
X124415000Y-63170000D01*
X124415000Y-62945000D02*
X124740000Y-62945000D01*
X124415000Y-63170000D02*
X122990000Y-63170000D01*
X124415000Y-70195000D02*
X124415000Y-69870000D01*
X124415000Y-70195000D02*
X124740000Y-70195000D01*
X131665000Y-62945000D02*
X131340000Y-62945000D01*
X131665000Y-62945000D02*
X131665000Y-63270000D01*
X131665000Y-70195000D02*
X131340000Y-70195000D01*
X131665000Y-70195000D02*
X131665000Y-69870000D01*
D12*
%TO.C,J15*%
X130440000Y-41914000D02*
X130440000Y-43164000D01*
X130730000Y-42204000D02*
X130730000Y-48174000D01*
X130730000Y-48174000D02*
X138350000Y-48174000D01*
X130740000Y-42214000D02*
X130740000Y-42964000D01*
X130740000Y-42964000D02*
X132540000Y-42964000D01*
X130740000Y-44464000D02*
X131490000Y-44464000D01*
X131490000Y-44464000D02*
X131490000Y-47414000D01*
X131490000Y-47414000D02*
X134540000Y-47414000D01*
X131690000Y-41914000D02*
X130440000Y-41914000D01*
X132540000Y-42214000D02*
X130740000Y-42214000D01*
X132540000Y-42964000D02*
X132540000Y-42214000D01*
X134040000Y-42214000D02*
X134040000Y-42964000D01*
X134040000Y-42964000D02*
X135040000Y-42964000D01*
X135040000Y-42214000D02*
X134040000Y-42214000D01*
X135040000Y-42964000D02*
X135040000Y-42214000D01*
X136540000Y-42214000D02*
X136540000Y-42964000D01*
X136540000Y-42964000D02*
X138340000Y-42964000D01*
X137590000Y-44464000D02*
X137590000Y-47414000D01*
X137590000Y-47414000D02*
X134540000Y-47414000D01*
X138340000Y-42214000D02*
X136540000Y-42214000D01*
X138340000Y-42964000D02*
X138340000Y-42214000D01*
X138340000Y-44464000D02*
X137590000Y-44464000D01*
X138350000Y-42204000D02*
X130730000Y-42204000D01*
X138350000Y-48174000D02*
X138350000Y-42204000D01*
%TO.C,C26*%
X140816248Y-68335000D02*
X141338752Y-68335000D01*
X140816248Y-69805000D02*
X141338752Y-69805000D01*
%TO.C,R14*%
X163055000Y-65047064D02*
X163055000Y-64592936D01*
X164525000Y-65047064D02*
X164525000Y-64592936D01*
%TO.C,U9*%
X164317000Y-74095000D02*
X164317000Y-70645000D01*
X164317000Y-74095000D02*
X164317000Y-76045000D01*
X159197000Y-74095000D02*
X159197000Y-72145000D01*
X159197000Y-74095000D02*
X159197000Y-76045000D01*
%TO.C,C30*%
X158485000Y-72618748D02*
X158485000Y-73141252D01*
X157015000Y-72618748D02*
X157015000Y-73141252D01*
%TO.C,JP5*%
X163490000Y-67020000D02*
X164090000Y-67020000D01*
X164790000Y-67720000D02*
X164790000Y-69120000D01*
X162790000Y-69120000D02*
X162790000Y-67720000D01*
X164090000Y-69820000D02*
X163490000Y-69820000D01*
X164790000Y-67720000D02*
G75*
G03*
X164090000Y-67020000I-699999J1D01*
G01*
X163490000Y-67020000D02*
G75*
G03*
X162790000Y-67720000I-1J-699999D01*
G01*
X164090000Y-69820000D02*
G75*
G03*
X164790000Y-69120000I0J700000D01*
G01*
X162790000Y-69120000D02*
G75*
G03*
X163490000Y-69820000I700000J0D01*
G01*
%TO.C,C25*%
X159013752Y-68555000D02*
X158491248Y-68555000D01*
X159013752Y-67085000D02*
X158491248Y-67085000D01*
%TO.C,Y2*%
X158290000Y-60470000D02*
X158290000Y-60770000D01*
X158290000Y-60770000D02*
X159090000Y-60770000D01*
X160490000Y-62770000D02*
X160490000Y-64170000D01*
X156890000Y-62770000D02*
X156650000Y-62770000D01*
X156890000Y-64170000D02*
X156890000Y-62770000D01*
X159090000Y-66170000D02*
X158290000Y-66170000D01*
%TO.C,D10*%
X123540000Y-54120000D02*
X125540000Y-54120000D01*
X125540000Y-54120000D02*
X125540000Y-49820000D01*
X123540000Y-49820000D02*
X123540000Y-54120000D01*
%TO.C,R8*%
X121305000Y-51047064D02*
X121305000Y-50592936D01*
X122775000Y-51047064D02*
X122775000Y-50592936D01*
%TO.C,R11*%
X138025000Y-50842936D02*
X138025000Y-51297064D01*
X136555000Y-50842936D02*
X136555000Y-51297064D01*
%TO.C,C17*%
X127805000Y-59043752D02*
X127805000Y-58521248D01*
X129275000Y-59043752D02*
X129275000Y-58521248D01*
%TO.C,C27*%
X126305000Y-51106252D02*
X126305000Y-50583748D01*
X127775000Y-51106252D02*
X127775000Y-50583748D01*
%TO.C,D6*%
X158750000Y-42785000D02*
X156830000Y-42785000D01*
X156830000Y-42785000D02*
X156830000Y-45470000D01*
X158750000Y-45470000D02*
X158750000Y-42785000D01*
%TO.C,J13*%
X134010000Y-78470000D02*
X134010000Y-77320000D01*
X134010000Y-77320000D02*
X132960000Y-77320000D01*
X132960000Y-77320000D02*
X132960000Y-76330000D01*
X132840000Y-80440000D02*
X128960000Y-80440000D01*
X127790000Y-78470000D02*
X127790000Y-77320000D01*
X127790000Y-77320000D02*
X128840000Y-77320000D01*
%TO.C,F4*%
X147241422Y-74420000D02*
X147758578Y-74420000D01*
X147241422Y-75840000D02*
X147758578Y-75840000D01*
%TO.C,R12*%
X140812936Y-70335000D02*
X141267064Y-70335000D01*
X140812936Y-71805000D02*
X141267064Y-71805000D01*
%TO.C,C18*%
X157055000Y-49543752D02*
X157055000Y-49021248D01*
X158525000Y-49543752D02*
X158525000Y-49021248D01*
%TO.C,C3*%
X97055000Y-49543752D02*
X97055000Y-49021248D01*
X98525000Y-49543752D02*
X98525000Y-49021248D01*
%TO.C,R5*%
X80812936Y-70335000D02*
X81267064Y-70335000D01*
X80812936Y-71805000D02*
X81267064Y-71805000D01*
%TO.C,R6*%
X80812936Y-66335000D02*
X81267064Y-66335000D01*
X80812936Y-67805000D02*
X81267064Y-67805000D01*
%TO.C,C12*%
X66305000Y-51106252D02*
X66305000Y-50583748D01*
X67775000Y-51106252D02*
X67775000Y-50583748D01*
%TO.C,C2*%
X67805000Y-59043752D02*
X67805000Y-58521248D01*
X69275000Y-59043752D02*
X69275000Y-58521248D01*
%TO.C,R4*%
X78025000Y-50842936D02*
X78025000Y-51297064D01*
X76555000Y-50842936D02*
X76555000Y-51297064D01*
%TO.C,R1*%
X61305000Y-51047064D02*
X61305000Y-50592936D01*
X62775000Y-51047064D02*
X62775000Y-50592936D01*
%TO.C,D4*%
X63540000Y-54120000D02*
X65540000Y-54120000D01*
X65540000Y-54120000D02*
X65540000Y-49820000D01*
X63540000Y-49820000D02*
X63540000Y-54120000D01*
%TO.C,Y1*%
X98290000Y-60470000D02*
X98290000Y-60770000D01*
X98290000Y-60770000D02*
X99090000Y-60770000D01*
X100490000Y-62770000D02*
X100490000Y-64170000D01*
X96890000Y-62770000D02*
X96650000Y-62770000D01*
X96890000Y-64170000D02*
X96890000Y-62770000D01*
X99090000Y-66170000D02*
X98290000Y-66170000D01*
%TO.C,C10*%
X99013752Y-68555000D02*
X98491248Y-68555000D01*
X99013752Y-67085000D02*
X98491248Y-67085000D01*
%TO.C,JP2*%
X103490000Y-67020000D02*
X104090000Y-67020000D01*
X104790000Y-67720000D02*
X104790000Y-69120000D01*
X102790000Y-69120000D02*
X102790000Y-67720000D01*
X104090000Y-69820000D02*
X103490000Y-69820000D01*
X104790000Y-67720000D02*
G75*
G03*
X104090000Y-67020000I-699999J1D01*
G01*
X103490000Y-67020000D02*
G75*
G03*
X102790000Y-67720000I-1J-699999D01*
G01*
X104090000Y-69820000D02*
G75*
G03*
X104790000Y-69120000I0J700000D01*
G01*
X102790000Y-69120000D02*
G75*
G03*
X103490000Y-69820000I700000J0D01*
G01*
%TO.C,C15*%
X98485000Y-72618748D02*
X98485000Y-73141252D01*
X97015000Y-72618748D02*
X97015000Y-73141252D01*
%TO.C,U4*%
X104317000Y-74095000D02*
X104317000Y-70645000D01*
X104317000Y-74095000D02*
X104317000Y-76045000D01*
X99197000Y-74095000D02*
X99197000Y-72145000D01*
X99197000Y-74095000D02*
X99197000Y-76045000D01*
%TO.C,R7*%
X103055000Y-65047064D02*
X103055000Y-64592936D01*
X104525000Y-65047064D02*
X104525000Y-64592936D01*
%TO.C,C11*%
X80816248Y-68335000D02*
X81338752Y-68335000D01*
X80816248Y-69805000D02*
X81338752Y-69805000D01*
%TO.C,J7*%
X70440000Y-41914000D02*
X70440000Y-43164000D01*
X70730000Y-42204000D02*
X70730000Y-48174000D01*
X70730000Y-48174000D02*
X78350000Y-48174000D01*
X70740000Y-42214000D02*
X70740000Y-42964000D01*
X70740000Y-42964000D02*
X72540000Y-42964000D01*
X70740000Y-44464000D02*
X71490000Y-44464000D01*
X71490000Y-44464000D02*
X71490000Y-47414000D01*
X71490000Y-47414000D02*
X74540000Y-47414000D01*
X71690000Y-41914000D02*
X70440000Y-41914000D01*
X72540000Y-42214000D02*
X70740000Y-42214000D01*
X72540000Y-42964000D02*
X72540000Y-42214000D01*
X74040000Y-42214000D02*
X74040000Y-42964000D01*
X74040000Y-42964000D02*
X75040000Y-42964000D01*
X75040000Y-42214000D02*
X74040000Y-42214000D01*
X75040000Y-42964000D02*
X75040000Y-42214000D01*
X76540000Y-42214000D02*
X76540000Y-42964000D01*
X76540000Y-42964000D02*
X78340000Y-42964000D01*
X77590000Y-44464000D02*
X77590000Y-47414000D01*
X77590000Y-47414000D02*
X74540000Y-47414000D01*
X78340000Y-42214000D02*
X76540000Y-42214000D01*
X78340000Y-42964000D02*
X78340000Y-42214000D01*
X78340000Y-44464000D02*
X77590000Y-44464000D01*
X78350000Y-42204000D02*
X70730000Y-42204000D01*
X78350000Y-48174000D02*
X78350000Y-42204000D01*
D10*
%TO.C,U1*%
X64415000Y-62945000D02*
X64415000Y-63170000D01*
X64415000Y-62945000D02*
X64740000Y-62945000D01*
X64415000Y-63170000D02*
X62990000Y-63170000D01*
X64415000Y-70195000D02*
X64415000Y-69870000D01*
X64415000Y-70195000D02*
X64740000Y-70195000D01*
X71665000Y-62945000D02*
X71340000Y-62945000D01*
X71665000Y-62945000D02*
X71665000Y-63270000D01*
X71665000Y-70195000D02*
X71340000Y-70195000D01*
X71665000Y-70195000D02*
X71665000Y-69870000D01*
D12*
%TO.C,C1*%
X75566248Y-67835000D02*
X76088752Y-67835000D01*
X75566248Y-69305000D02*
X76088752Y-69305000D01*
%TO.C,U3*%
X94150000Y-70685000D02*
X94150000Y-70440000D01*
X94150000Y-70440000D02*
X95965000Y-70440000D01*
X94150000Y-58915000D02*
X94150000Y-59160000D01*
X90290000Y-70685000D02*
X94150000Y-70685000D01*
X90290000Y-70685000D02*
X86430000Y-70685000D01*
X90290000Y-58915000D02*
X94150000Y-58915000D01*
X90290000Y-58915000D02*
X86430000Y-58915000D01*
X86430000Y-70685000D02*
X86430000Y-70440000D01*
X86430000Y-58915000D02*
X86430000Y-59160000D01*
%TO.C,R3*%
X68805000Y-51047064D02*
X68805000Y-50592936D01*
X70275000Y-51047064D02*
X70275000Y-50592936D01*
%TO.C,F1*%
X52450436Y-49070000D02*
X53654564Y-49070000D01*
X52450436Y-51790000D02*
X53654564Y-51790000D01*
%TO.C,R2*%
X80025000Y-50842936D02*
X80025000Y-51297064D01*
X78555000Y-50842936D02*
X78555000Y-51297064D01*
%TO.C,C4*%
X49215000Y-53345000D02*
X49840000Y-53345000D01*
X49527500Y-53032500D02*
X49527500Y-53657500D01*
X50080000Y-53334437D02*
X50080000Y-53970000D01*
X50080000Y-53334437D02*
X51144437Y-52270000D01*
X50080000Y-56725563D02*
X50080000Y-56090000D01*
X50080000Y-56725563D02*
X51144437Y-57790000D01*
X51144437Y-52270000D02*
X55600000Y-52270000D01*
X51144437Y-57790000D02*
X55600000Y-57790000D01*
X55600000Y-52270000D02*
X55600000Y-53970000D01*
X55600000Y-57790000D02*
X55600000Y-56090000D01*
%TO.C,C5*%
X56055000Y-59368752D02*
X56055000Y-58846248D01*
X57525000Y-59368752D02*
X57525000Y-58846248D01*
%TO.C,C7*%
X49490000Y-63470000D02*
X49990000Y-63470000D01*
X49740000Y-63220000D02*
X49740000Y-63720000D01*
X50230000Y-63834437D02*
X50230000Y-63970000D01*
X50230000Y-63834437D02*
X51294437Y-62770000D01*
X50230000Y-66225563D02*
X50230000Y-66090000D01*
X50230000Y-66225563D02*
X51294437Y-67290000D01*
X51294437Y-62770000D02*
X54750000Y-62770000D01*
X51294437Y-67290000D02*
X54750000Y-67290000D01*
X54750000Y-62770000D02*
X54750000Y-63970000D01*
X54750000Y-67290000D02*
X54750000Y-66090000D01*
%TO.C,C9*%
X49490000Y-68760000D02*
X49990000Y-68760000D01*
X49740000Y-68510000D02*
X49740000Y-69010000D01*
X50230000Y-69124437D02*
X50230000Y-69260000D01*
X50230000Y-69124437D02*
X51294437Y-68060000D01*
X50230000Y-71515563D02*
X50230000Y-71380000D01*
X50230000Y-71515563D02*
X51294437Y-72580000D01*
X51294437Y-68060000D02*
X54750000Y-68060000D01*
X51294437Y-72580000D02*
X54750000Y-72580000D01*
X54750000Y-68060000D02*
X54750000Y-69260000D01*
X54750000Y-72580000D02*
X54750000Y-71380000D01*
%TO.C,J2*%
X105540000Y-42220000D02*
X104290000Y-42220000D01*
X105250000Y-42510000D02*
X99280000Y-42510000D01*
X99280000Y-42510000D02*
X99280000Y-57630000D01*
X105240000Y-42520000D02*
X104490000Y-42520000D01*
X104490000Y-42520000D02*
X104490000Y-44320000D01*
X102990000Y-42520000D02*
X102990000Y-43270000D01*
X102990000Y-43270000D02*
X100040000Y-43270000D01*
X100040000Y-43270000D02*
X100040000Y-50070000D01*
X105540000Y-43470000D02*
X105540000Y-42220000D01*
X105240000Y-44320000D02*
X105240000Y-42520000D01*
X104490000Y-44320000D02*
X105240000Y-44320000D01*
X105240000Y-45820000D02*
X104490000Y-45820000D01*
X104490000Y-45820000D02*
X104490000Y-54320000D01*
X105240000Y-54320000D02*
X105240000Y-45820000D01*
X104490000Y-54320000D02*
X105240000Y-54320000D01*
X105240000Y-55820000D02*
X104490000Y-55820000D01*
X104490000Y-55820000D02*
X104490000Y-57620000D01*
X102990000Y-56870000D02*
X100040000Y-56870000D01*
X100040000Y-56870000D02*
X100040000Y-50070000D01*
X105240000Y-57620000D02*
X105240000Y-55820000D01*
X104490000Y-57620000D02*
X105240000Y-57620000D01*
X102990000Y-57620000D02*
X102990000Y-56870000D01*
X105250000Y-57630000D02*
X105250000Y-42510000D01*
X99280000Y-57630000D02*
X105250000Y-57630000D01*
%TO.C,L1*%
X58440000Y-59529622D02*
X58440000Y-58730378D01*
X59560000Y-59529622D02*
X59560000Y-58730378D01*
%TO.C,J8*%
X97725000Y-85650000D02*
X96305000Y-85650000D01*
X97725000Y-79890000D02*
X97725000Y-85650000D01*
X97725000Y-78370000D02*
X97725000Y-78060000D01*
X97725000Y-78060000D02*
X87855000Y-78060000D01*
X96305000Y-85650000D02*
X96305000Y-85150000D01*
X96305000Y-85150000D02*
X89275000Y-85150000D01*
X89275000Y-85650000D02*
X87855000Y-85650000D01*
X89275000Y-85150000D02*
X89275000Y-85650000D01*
X87855000Y-85650000D02*
X87855000Y-79890000D01*
X87855000Y-78060000D02*
X87855000Y-78370000D01*
%TO.C,J6*%
X80475000Y-85755000D02*
X83550000Y-85755000D01*
X83550000Y-85755000D02*
X83550000Y-72885000D01*
X78960000Y-84335000D02*
X79460000Y-84335000D01*
X79460000Y-84335000D02*
X79460000Y-74305000D01*
X78960000Y-84315000D02*
X78960000Y-84335000D01*
X78960000Y-74305000D02*
X78960000Y-74325000D01*
X79460000Y-74305000D02*
X78960000Y-74305000D01*
X83550000Y-72885000D02*
X80475000Y-72885000D01*
%TO.C,C6*%
X98491248Y-58335000D02*
X99013752Y-58335000D01*
X98491248Y-59805000D02*
X99013752Y-59805000D01*
%TO.C,J1*%
X56940000Y-41914000D02*
X56940000Y-43164000D01*
X57230000Y-42204000D02*
X57230000Y-48174000D01*
X57230000Y-48174000D02*
X69850000Y-48174000D01*
X57240000Y-42214000D02*
X57240000Y-42964000D01*
X57240000Y-42964000D02*
X59040000Y-42964000D01*
X57240000Y-44464000D02*
X57990000Y-44464000D01*
X57990000Y-44464000D02*
X57990000Y-47414000D01*
X57990000Y-47414000D02*
X63540000Y-47414000D01*
X58190000Y-41914000D02*
X56940000Y-41914000D01*
X59040000Y-42214000D02*
X57240000Y-42214000D01*
X59040000Y-42964000D02*
X59040000Y-42214000D01*
X60540000Y-42214000D02*
X60540000Y-42964000D01*
X60540000Y-42964000D02*
X66540000Y-42964000D01*
X66540000Y-42214000D02*
X60540000Y-42214000D01*
X66540000Y-42964000D02*
X66540000Y-42214000D01*
X68040000Y-42214000D02*
X68040000Y-42964000D01*
X68040000Y-42964000D02*
X69840000Y-42964000D01*
X69090000Y-44464000D02*
X69090000Y-47414000D01*
X69090000Y-47414000D02*
X63540000Y-47414000D01*
X69840000Y-42214000D02*
X68040000Y-42214000D01*
X69840000Y-42964000D02*
X69840000Y-42214000D01*
X69840000Y-44464000D02*
X69090000Y-44464000D01*
X69850000Y-42204000D02*
X57230000Y-42204000D01*
X69850000Y-48174000D02*
X69850000Y-42204000D01*
%TO.C,C13*%
X72355000Y-53817500D02*
X74225000Y-53817500D01*
X74225000Y-53817500D02*
X74225000Y-49907500D01*
X72355000Y-49907500D02*
X72355000Y-53817500D01*
%TO.C,U5*%
X84760800Y-41767500D02*
X84760800Y-42409265D01*
X84760800Y-55730735D02*
X84760800Y-56372500D01*
X84760800Y-56372500D02*
X87128531Y-56372500D01*
X87128531Y-41767500D02*
X84760800Y-41767500D01*
X92451469Y-56372500D02*
X94819200Y-56372500D01*
X94819200Y-41767500D02*
X92451469Y-41767500D01*
X94819200Y-42409265D02*
X94819200Y-41767500D01*
X94819200Y-56372500D02*
X94819200Y-55730735D01*
%TO.C,C8*%
X80555000Y-51368752D02*
X80555000Y-50846248D01*
X82025000Y-51368752D02*
X82025000Y-50846248D01*
%TO.C,U2*%
X51660000Y-61790000D02*
X53420000Y-61790000D01*
X53420000Y-58720000D02*
X50990000Y-58720000D01*
%TO.C,C14*%
X95555000Y-54118752D02*
X95555000Y-53596248D01*
X97025000Y-54118752D02*
X97025000Y-53596248D01*
%TO.C,X1*%
X79815000Y-42570000D02*
X80615000Y-42570000D01*
X79815000Y-42770000D02*
X79815000Y-42570000D01*
X80015000Y-45570000D02*
X79815000Y-45370000D01*
X80615000Y-45570000D02*
X80015000Y-45570000D01*
X80615000Y-45570000D02*
X80615000Y-46070000D01*
X82015000Y-42570000D02*
X82815000Y-42570000D01*
X82015000Y-45570000D02*
X82015000Y-46070000D01*
X82815000Y-42570000D02*
X82815000Y-42770000D01*
X82815000Y-45370000D02*
X82815000Y-45570000D01*
X82815000Y-45570000D02*
X82015000Y-45570000D01*
%TO.C,D5*%
X80120000Y-64330000D02*
X80120000Y-62170000D01*
X80120000Y-64330000D02*
X79190000Y-64330000D01*
X76960000Y-64330000D02*
X76960000Y-62870000D01*
X76960000Y-64330000D02*
X77890000Y-64330000D01*
%TO.C,D2*%
X59440000Y-62120000D02*
X56140000Y-62120000D01*
X59440000Y-62120000D02*
X59440000Y-67630000D01*
X56140000Y-62120000D02*
X56140000Y-67630000D01*
%TO.C,D3*%
X57350000Y-56140000D02*
X60650000Y-56140000D01*
X57350000Y-56140000D02*
X57350000Y-50630000D01*
X60650000Y-56140000D02*
X60650000Y-50630000D01*
D11*
%TO.C,MB4*%
X94190000Y-86320000D02*
G75*
G03*
X94190000Y-87320000I0J-500000D01*
G01*
X91190000Y-87320000D02*
G75*
G03*
X91190000Y-86320000I0J500000D01*
G01*
D12*
%TO.C,J4*%
X65810000Y-78470000D02*
X65810000Y-77320000D01*
X65810000Y-77320000D02*
X64760000Y-77320000D01*
X64760000Y-77320000D02*
X64760000Y-76330000D01*
X64640000Y-80440000D02*
X54760000Y-80440000D01*
X53590000Y-78470000D02*
X53590000Y-77320000D01*
X53590000Y-77320000D02*
X54640000Y-77320000D01*
%TO.C,F2*%
X87241422Y-74420000D02*
X87758578Y-74420000D01*
X87241422Y-75840000D02*
X87758578Y-75840000D01*
%TO.C,J5*%
X74010000Y-78470000D02*
X74010000Y-77320000D01*
X74010000Y-77320000D02*
X72960000Y-77320000D01*
X72960000Y-77320000D02*
X72960000Y-76330000D01*
X72840000Y-80440000D02*
X68960000Y-80440000D01*
X67790000Y-78470000D02*
X67790000Y-77320000D01*
X67790000Y-77320000D02*
X68840000Y-77320000D01*
%TO.C,D1*%
X98750000Y-42785000D02*
X96830000Y-42785000D01*
X96830000Y-42785000D02*
X96830000Y-45470000D01*
X98750000Y-45470000D02*
X98750000Y-42785000D01*
D11*
%TO.C,MB3*%
X52090000Y-86320000D02*
G75*
G03*
X52090000Y-87320000I0J-500000D01*
G01*
X49090000Y-87320000D02*
G75*
G03*
X49090000Y-86320000I0J500000D01*
G01*
D12*
%TO.C,J3*%
X49270000Y-76320000D02*
X50600000Y-76320000D01*
X49270000Y-77650000D02*
X49270000Y-76320000D01*
X49270000Y-78920000D02*
X49270000Y-84060000D01*
X49270000Y-78920000D02*
X51930000Y-78920000D01*
X49270000Y-84060000D02*
X51930000Y-84060000D01*
X51930000Y-78920000D02*
X51930000Y-84060000D01*
%TO.C,JP1*%
X86800000Y-74030000D02*
X86200000Y-74030000D01*
X85500000Y-73330000D02*
X85500000Y-71930000D01*
X87500000Y-71930000D02*
X87500000Y-73330000D01*
X86200000Y-71230000D02*
X86800000Y-71230000D01*
X85500000Y-73330000D02*
G75*
G03*
X86200000Y-74030000I699999J-1D01*
G01*
X86800000Y-74030000D02*
G75*
G03*
X87500000Y-73330000I1J699999D01*
G01*
X86200000Y-71230000D02*
G75*
G03*
X85500000Y-71930000I0J-700000D01*
G01*
X87500000Y-71930000D02*
G75*
G03*
X86800000Y-71230000I-700000J0D01*
G01*
D11*
%TO.C,MB2*%
X100700000Y-41630000D02*
G75*
G03*
X100700000Y-40630000I0J500000D01*
G01*
X103700000Y-40630000D02*
G75*
G03*
X103700000Y-41630000I0J-500000D01*
G01*
D12*
%TO.C,D7*%
X89490000Y-71480000D02*
X89490000Y-74780000D01*
X89490000Y-71480000D02*
X95000000Y-71480000D01*
X89490000Y-74780000D02*
X95000000Y-74780000D01*
D11*
%TO.C,MB1*%
X54300000Y-41630000D02*
G75*
G03*
X54300000Y-40630000I0J500000D01*
G01*
X57300000Y-40630000D02*
G75*
G03*
X57300000Y-41630000I0J-500000D01*
G01*
%TD*%
M02*
