%TF.GenerationSoftware,KiCad,Pcbnew,7.0.10*%
%TF.CreationDate,2024-03-22T19:30:53+01:00*%
%TF.ProjectId,SmartDisplay,536d6172-7444-4697-9370-6c61792e6b69,rev?*%
%TF.SameCoordinates,Original*%
%TF.FileFunction,Soldermask,Top*%
%TF.FilePolarity,Negative*%
%FSLAX46Y46*%
G04 Gerber Fmt 4.6, Leading zero omitted, Abs format (unit mm)*
G04 Created by KiCad (PCBNEW 7.0.10) date 2024-03-22 19:30:53*
%MOMM*%
%LPD*%
G01*
G04 APERTURE LIST*
G04 Aperture macros list*
%AMRoundRect*
0 Rectangle with rounded corners*
0 $1 Rounding radius*
0 $2 $3 $4 $5 $6 $7 $8 $9 X,Y pos of 4 corners*
0 Add a 4 corners polygon primitive as box body*
4,1,4,$2,$3,$4,$5,$6,$7,$8,$9,$2,$3,0*
0 Add four circle primitives for the rounded corners*
1,1,$1+$1,$2,$3*
1,1,$1+$1,$4,$5*
1,1,$1+$1,$6,$7*
1,1,$1+$1,$8,$9*
0 Add four rect primitives between the rounded corners*
20,1,$1+$1,$2,$3,$4,$5,0*
20,1,$1+$1,$4,$5,$6,$7,0*
20,1,$1+$1,$6,$7,$8,$9,0*
20,1,$1+$1,$8,$9,$2,$3,0*%
%AMFreePoly0*
4,1,35,0.535355,0.785355,0.550000,0.750000,0.550000,-0.750000,0.535355,-0.785355,0.500000,-0.800000,0.000000,-0.800000,-0.012286,-0.794911,-0.071157,-0.794911,-0.085244,-0.792886,-0.221795,-0.752791,-0.234740,-0.746879,-0.354462,-0.669938,-0.365217,-0.660618,-0.458414,-0.553063,-0.466109,-0.541091,-0.525228,-0.411637,-0.529237,-0.397982,-0.549491,-0.257116,-0.550000,-0.250000,-0.550000,0.250000,
-0.549491,0.257116,-0.529237,0.397982,-0.525228,0.411637,-0.466109,0.541091,-0.458414,0.553063,-0.365217,0.660618,-0.354462,0.669938,-0.234740,0.746879,-0.221795,0.752791,-0.085244,0.792886,-0.071157,0.794911,-0.012286,0.794911,0.000000,0.800000,0.500000,0.800000,0.535355,0.785355,0.535355,0.785355,$1*%
%AMFreePoly1*
4,1,35,0.012286,0.794911,0.071157,0.794911,0.085244,0.792886,0.221795,0.752791,0.234740,0.746879,0.354462,0.669938,0.365217,0.660618,0.458414,0.553063,0.466109,0.541091,0.525228,0.411637,0.529237,0.397982,0.549491,0.257116,0.550000,0.250000,0.550000,-0.250000,0.549491,-0.257116,0.529237,-0.397982,0.525228,-0.411637,0.466109,-0.541091,0.458414,-0.553063,0.365217,-0.660618,
0.354462,-0.669938,0.234740,-0.746879,0.221795,-0.752791,0.085244,-0.792886,0.071157,-0.794911,0.012286,-0.794911,0.000000,-0.800000,-0.500000,-0.800000,-0.535355,-0.785355,-0.550000,-0.750000,-0.550000,0.750000,-0.535355,0.785355,-0.500000,0.800000,0.000000,0.800000,0.012286,0.794911,0.012286,0.794911,$1*%
G04 Aperture macros list end*
%ADD10C,0.600000*%
%ADD11RoundRect,0.263889X-1.036111X-0.686111X1.036111X-0.686111X1.036111X0.686111X-1.036111X0.686111X0*%
%ADD12FreePoly0,90.000000*%
%ADD13FreePoly1,90.000000*%
%ADD14RoundRect,0.050000X-0.850000X-0.850000X0.850000X-0.850000X0.850000X0.850000X-0.850000X0.850000X0*%
%ADD15O,1.800000X1.800000*%
%ADD16RoundRect,0.175000X0.175000X0.650000X-0.175000X0.650000X-0.175000X-0.650000X0.175000X-0.650000X0*%
%ADD17RoundRect,0.270833X0.379167X0.679167X-0.379167X0.679167X-0.379167X-0.679167X0.379167X-0.679167X0*%
%ADD18RoundRect,0.263889X0.686111X-1.036111X0.686111X1.036111X-0.686111X1.036111X-0.686111X-1.036111X0*%
%ADD19RoundRect,0.263889X-0.686111X1.036111X-0.686111X-1.036111X0.686111X-1.036111X0.686111X1.036111X0*%
%ADD20RoundRect,0.050000X-0.400000X0.450000X-0.400000X-0.450000X0.400000X-0.450000X0.400000X0.450000X0*%
%ADD21C,2.000000*%
%ADD22RoundRect,0.050000X-0.500000X-0.500000X0.500000X-0.500000X0.500000X0.500000X-0.500000X0.500000X0*%
%ADD23RoundRect,0.050000X-0.525000X-1.100000X0.525000X-1.100000X0.525000X1.100000X-0.525000X1.100000X0*%
%ADD24RoundRect,0.275000X0.500000X-0.275000X0.500000X0.275000X-0.500000X0.275000X-0.500000X-0.275000X0*%
%ADD25RoundRect,0.050000X-0.610000X-0.325000X0.610000X-0.325000X0.610000X0.325000X-0.610000X0.325000X0*%
%ADD26RoundRect,0.050000X-0.571500X-0.355600X0.571500X-0.355600X0.571500X0.355600X-0.571500X0.355600X0*%
%ADD27RoundRect,0.050000X0.355600X-0.571500X0.355600X0.571500X-0.355600X0.571500X-0.355600X-0.571500X0*%
%ADD28RoundRect,0.268519X0.456481X-0.481481X0.456481X0.481481X-0.456481X0.481481X-0.456481X-0.481481X0*%
%ADD29RoundRect,0.264706X-0.635294X-0.760294X0.635294X-0.760294X0.635294X0.760294X-0.635294X0.760294X0*%
%ADD30O,1.800000X2.050000*%
%ADD31RoundRect,0.275000X-0.275000X-0.500000X0.275000X-0.500000X0.275000X0.500000X-0.275000X0.500000X0*%
%ADD32C,1.370000*%
%ADD33RoundRect,0.266667X0.793333X-0.533333X0.793333X0.533333X-0.793333X0.533333X-0.793333X-0.533333X0*%
%ADD34O,2.120000X1.600000*%
%ADD35C,1.100000*%
%ADD36RoundRect,0.266667X0.533333X0.533333X-0.533333X0.533333X-0.533333X-0.533333X0.533333X-0.533333X0*%
%ADD37C,1.600000*%
%ADD38RoundRect,0.243750X0.406250X-0.243750X0.406250X0.243750X-0.406250X0.243750X-0.406250X-0.243750X0*%
%ADD39RoundRect,0.264706X-0.760294X0.635294X-0.760294X-0.635294X0.760294X-0.635294X0.760294X0.635294X0*%
%ADD40O,2.050000X1.800000*%
%ADD41RoundRect,0.265625X-1.084375X-0.584375X1.084375X-0.584375X1.084375X0.584375X-1.084375X0.584375X0*%
%ADD42RoundRect,0.265625X-1.284375X-0.584375X1.284375X-0.584375X1.284375X0.584375X-1.284375X0.584375X0*%
%ADD43RoundRect,0.274390X-0.475610X0.288110X-0.475610X-0.288110X0.475610X-0.288110X0.475610X0.288110X0*%
%ADD44RoundRect,0.270000X-0.405000X-1.105000X0.405000X-1.105000X0.405000X1.105000X-0.405000X1.105000X0*%
%ADD45RoundRect,0.274390X0.475610X-0.288110X0.475610X0.288110X-0.475610X0.288110X-0.475610X-0.288110X0*%
%ADD46RoundRect,0.175000X0.900000X0.175000X-0.900000X0.175000X-0.900000X-0.175000X0.900000X-0.175000X0*%
%ADD47RoundRect,0.274390X-0.288110X-0.475610X0.288110X-0.475610X0.288110X0.475610X-0.288110X0.475610X0*%
%ADD48RoundRect,0.050000X-0.800000X-0.275000X0.800000X-0.275000X0.800000X0.275000X-0.800000X0.275000X0*%
%ADD49RoundRect,0.050000X0.275000X-0.800000X0.275000X0.800000X-0.275000X0.800000X-0.275000X-0.800000X0*%
%ADD50RoundRect,0.264706X-0.635294X-0.785294X0.635294X-0.785294X0.635294X0.785294X-0.635294X0.785294X0*%
%ADD51O,1.800000X2.100000*%
%ADD52C,2.300000*%
%ADD53RoundRect,0.175000X-0.175000X0.850000X-0.175000X-0.850000X0.175000X-0.850000X0.175000X0.850000X0*%
%ADD54RoundRect,0.275000X-0.500000X0.275000X-0.500000X-0.275000X0.500000X-0.275000X0.500000X0.275000X0*%
%ADD55FreePoly0,270.000000*%
%ADD56FreePoly1,270.000000*%
%ADD57RoundRect,0.275000X0.275000X0.500000X-0.275000X0.500000X-0.275000X-0.500000X0.275000X-0.500000X0*%
%ADD58RoundRect,0.050000X-0.550000X0.950000X-0.550000X-0.950000X0.550000X-0.950000X0.550000X0.950000X0*%
%ADD59RoundRect,0.050000X0.850000X-0.650000X0.850000X0.650000X-0.850000X0.650000X-0.850000X-0.650000X0*%
%ADD60RoundRect,0.268750X-0.481250X0.268750X-0.481250X-0.268750X0.481250X-0.268750X0.481250X0.268750X0*%
%ADD61RoundRect,0.268750X-0.268750X-0.481250X0.268750X-0.481250X0.268750X0.481250X-0.268750X0.481250X0*%
G04 APERTURE END LIST*
D10*
%TO.C,MB5*%
X114650000Y-41880000D03*
X115450000Y-42130000D03*
X116150000Y-42130000D03*
X116950000Y-41880000D03*
%TD*%
D11*
%TO.C,D12*%
X151000000Y-73130000D03*
X155000000Y-73130000D03*
%TD*%
D10*
%TO.C,MB6*%
X161050000Y-41880000D03*
X161850000Y-42130000D03*
X162550000Y-42130000D03*
X163350000Y-41880000D03*
%TD*%
D12*
%TO.C,JP4*%
X146500000Y-73280000D03*
D13*
X146500000Y-71980000D03*
%TD*%
D14*
%TO.C,J11*%
X110600000Y-77650000D03*
D15*
X110600000Y-80190000D03*
X110600000Y-82730000D03*
%TD*%
D10*
%TO.C,MB7*%
X111740000Y-86070000D03*
X110940000Y-85820000D03*
X110240000Y-85820000D03*
X109440000Y-86070000D03*
%TD*%
D16*
%TO.C,J12*%
X124200000Y-77105000D03*
X123200000Y-77105000D03*
X122200000Y-77105000D03*
X121200000Y-77105000D03*
X120200000Y-77105000D03*
X119200000Y-77105000D03*
X118200000Y-77105000D03*
X117200000Y-77105000D03*
X116200000Y-77105000D03*
X115200000Y-77105000D03*
D17*
X125500000Y-79630000D03*
X113900000Y-79630000D03*
%TD*%
D10*
%TO.C,MB8*%
X153840000Y-86070000D03*
X153040000Y-85820000D03*
X152340000Y-85820000D03*
X151540000Y-86070000D03*
%TD*%
D18*
%TO.C,D9*%
X119000000Y-54630000D03*
X119000000Y-50630000D03*
%TD*%
D19*
%TO.C,D8*%
X117790000Y-63630000D03*
X117790000Y-67630000D03*
%TD*%
D20*
%TO.C,D11*%
X139490000Y-62570000D03*
X137590000Y-62570000D03*
X138540000Y-64570000D03*
%TD*%
D21*
%TO.C,FID4*%
X138790000Y-57070000D03*
%TD*%
D22*
%TO.C,X2*%
X141315000Y-45570000D03*
D23*
X139840000Y-44070000D03*
D22*
X141315000Y-42570000D03*
D23*
X142790000Y-44070000D03*
%TD*%
D24*
%TO.C,C29*%
X156290000Y-54807500D03*
X156290000Y-52907500D03*
%TD*%
D25*
%TO.C,U7*%
X111230000Y-59280000D03*
X111230000Y-60230000D03*
X111230000Y-61180000D03*
X113850000Y-61180000D03*
X113850000Y-60230000D03*
X113850000Y-59280000D03*
%TD*%
D24*
%TO.C,C23*%
X141290000Y-52057500D03*
X141290000Y-50157500D03*
%TD*%
D26*
%TO.C,U10*%
X154115000Y-55070001D03*
X154115000Y-54070000D03*
X154115000Y-53070000D03*
X154115000Y-52069999D03*
X154115000Y-51070001D03*
X154115000Y-50070001D03*
X154115000Y-49070000D03*
X154115000Y-48069999D03*
X154115000Y-47069999D03*
X154115000Y-46070001D03*
X154115000Y-45070000D03*
X154115000Y-44070000D03*
X154115000Y-43069999D03*
X145465000Y-43069999D03*
X145465000Y-44070000D03*
X145465000Y-45070000D03*
X145465000Y-46070001D03*
X145465000Y-47069999D03*
X145465000Y-48069999D03*
X145465000Y-49070000D03*
X145465000Y-50070001D03*
X145465000Y-51070001D03*
X145465000Y-52069999D03*
X145465000Y-53070000D03*
X145465000Y-54070000D03*
X145465000Y-55070001D03*
D27*
X147789999Y-55670002D03*
X148789999Y-55670002D03*
X149790000Y-55670002D03*
X150790001Y-55670002D03*
X151790001Y-55670002D03*
%TD*%
D28*
%TO.C,C28*%
X133290000Y-52857500D03*
X133290000Y-50157500D03*
%TD*%
D29*
%TO.C,J9*%
X119790000Y-44664000D03*
D30*
X122290000Y-44664000D03*
X124790000Y-44664000D03*
X127290000Y-44664000D03*
%TD*%
D31*
%TO.C,C21*%
X157802500Y-59070000D03*
X159702500Y-59070000D03*
%TD*%
D32*
%TO.C,J14*%
X139580000Y-85320000D03*
X139580000Y-73320000D03*
D33*
X141540000Y-82320000D03*
D34*
X141540000Y-79320000D03*
X141540000Y-76320000D03*
%TD*%
D35*
%TO.C,J16*%
X157290000Y-79130000D03*
X148290000Y-79130000D03*
D36*
X154290000Y-83070000D03*
D37*
X151290000Y-83070000D03*
X154290000Y-80070000D03*
X151290000Y-80070000D03*
%TD*%
D38*
%TO.C,L2*%
X119000000Y-60192500D03*
X119000000Y-58067500D03*
%TD*%
D39*
%TO.C,J10*%
X162790000Y-45070000D03*
D40*
X162790000Y-47570000D03*
X162790000Y-50070000D03*
X162790000Y-52570000D03*
X162790000Y-55070000D03*
%TD*%
D41*
%TO.C,C24*%
X110690000Y-70320000D03*
X114290000Y-70320000D03*
%TD*%
%TO.C,C22*%
X110690000Y-65030000D03*
X114290000Y-65030000D03*
%TD*%
D24*
%TO.C,C20*%
X116790000Y-60057500D03*
X116790000Y-58157500D03*
%TD*%
D42*
%TO.C,C19*%
X110640000Y-55030000D03*
X115040000Y-55030000D03*
%TD*%
D21*
%TO.C,FID6*%
X163290000Y-60320000D03*
%TD*%
%TO.C,FID5*%
X109500000Y-74130000D03*
%TD*%
D43*
%TO.C,R9*%
X139290000Y-50157500D03*
X139290000Y-51982500D03*
%TD*%
D44*
%TO.C,F3*%
X111652500Y-50430000D03*
X114452500Y-50430000D03*
%TD*%
D45*
%TO.C,R10*%
X129540000Y-51732500D03*
X129540000Y-49907500D03*
%TD*%
D46*
%TO.C,U8*%
X154940000Y-69880000D03*
X154940000Y-68610000D03*
X154940000Y-67340000D03*
X154940000Y-66070000D03*
X154940000Y-64800000D03*
X154940000Y-63530000D03*
X154940000Y-62260000D03*
X154940000Y-60990000D03*
X154940000Y-59720000D03*
X145640000Y-59720000D03*
X145640000Y-60990000D03*
X145640000Y-62260000D03*
X145640000Y-63530000D03*
X145640000Y-64800000D03*
X145640000Y-66070000D03*
X145640000Y-67340000D03*
X145640000Y-68610000D03*
X145640000Y-69880000D03*
%TD*%
D31*
%TO.C,C16*%
X134877500Y-68570000D03*
X136777500Y-68570000D03*
%TD*%
D47*
%TO.C,R13*%
X140127500Y-67070000D03*
X141952500Y-67070000D03*
%TD*%
D48*
%TO.C,U6*%
X123790000Y-63770000D03*
X123790000Y-64570000D03*
X123790000Y-65370000D03*
X123790000Y-66170000D03*
X123790000Y-66970000D03*
X123790000Y-67770000D03*
X123790000Y-68570000D03*
X123790000Y-69370000D03*
D49*
X125240000Y-70820000D03*
X126040000Y-70820000D03*
X126840000Y-70820000D03*
X127640000Y-70820000D03*
X128440000Y-70820000D03*
X129240000Y-70820000D03*
X130040000Y-70820000D03*
X130840000Y-70820000D03*
D48*
X132290000Y-69370000D03*
X132290000Y-68570000D03*
X132290000Y-67770000D03*
X132290000Y-66970000D03*
X132290000Y-66170000D03*
X132290000Y-65370000D03*
X132290000Y-64570000D03*
X132290000Y-63770000D03*
D49*
X130840000Y-62320000D03*
X130040000Y-62320000D03*
X129240000Y-62320000D03*
X128440000Y-62320000D03*
X127640000Y-62320000D03*
X126840000Y-62320000D03*
X126040000Y-62320000D03*
X125240000Y-62320000D03*
%TD*%
D50*
%TO.C,J15*%
X133290000Y-44664000D03*
D51*
X135790000Y-44664000D03*
%TD*%
D31*
%TO.C,C26*%
X140127500Y-69070000D03*
X142027500Y-69070000D03*
%TD*%
D45*
%TO.C,R14*%
X163790000Y-65732500D03*
X163790000Y-63907500D03*
%TD*%
D52*
%TO.C,H4*%
X162565056Y-82556056D03*
%TD*%
D53*
%TO.C,U9*%
X163662000Y-71620000D03*
X162392000Y-71620000D03*
X161122000Y-71620000D03*
X159852000Y-71620000D03*
X159852000Y-76570000D03*
X161122000Y-76570000D03*
X162392000Y-76570000D03*
X163662000Y-76570000D03*
%TD*%
D54*
%TO.C,C30*%
X157750000Y-71930000D03*
X157750000Y-73830000D03*
%TD*%
D55*
%TO.C,JP5*%
X163790000Y-67770000D03*
D56*
X163790000Y-69070000D03*
%TD*%
D57*
%TO.C,C25*%
X159702500Y-67820000D03*
X157802500Y-67820000D03*
%TD*%
D58*
%TO.C,Y2*%
X157540000Y-61620000D03*
X157540000Y-65320000D03*
X159840000Y-65320000D03*
X159840000Y-61620000D03*
%TD*%
D59*
%TO.C,D10*%
X124540000Y-53320000D03*
X124540000Y-49820000D03*
%TD*%
D45*
%TO.C,R8*%
X122040000Y-51732500D03*
X122040000Y-49907500D03*
%TD*%
D43*
%TO.C,R11*%
X137290000Y-50157500D03*
X137290000Y-51982500D03*
%TD*%
D24*
%TO.C,C17*%
X128540000Y-59732500D03*
X128540000Y-57832500D03*
%TD*%
%TO.C,C27*%
X127040000Y-51795000D03*
X127040000Y-49895000D03*
%TD*%
D60*
%TO.C,D6*%
X157790000Y-43532500D03*
X157790000Y-45407500D03*
%TD*%
D16*
%TO.C,J13*%
X132400000Y-77105000D03*
X131400000Y-77105000D03*
X130400000Y-77105000D03*
X129400000Y-77105000D03*
D17*
X133700000Y-79630000D03*
X128100000Y-79630000D03*
%TD*%
D61*
%TO.C,F4*%
X146562500Y-75130000D03*
X148437500Y-75130000D03*
%TD*%
D47*
%TO.C,R12*%
X140127500Y-71070000D03*
X141952500Y-71070000D03*
%TD*%
D24*
%TO.C,C18*%
X157790000Y-50232500D03*
X157790000Y-48332500D03*
%TD*%
D52*
%TO.C,H3*%
X112100000Y-45299000D03*
%TD*%
D24*
%TO.C,C3*%
X97790000Y-50232500D03*
X97790000Y-48332500D03*
%TD*%
D47*
%TO.C,R5*%
X80127500Y-71070000D03*
X81952500Y-71070000D03*
%TD*%
D52*
%TO.C,H1*%
X52100000Y-45299000D03*
%TD*%
D47*
%TO.C,R6*%
X80127500Y-67070000D03*
X81952500Y-67070000D03*
%TD*%
D24*
%TO.C,C12*%
X67040000Y-51795000D03*
X67040000Y-49895000D03*
%TD*%
%TO.C,C2*%
X68540000Y-59732500D03*
X68540000Y-57832500D03*
%TD*%
D43*
%TO.C,R4*%
X77290000Y-50157500D03*
X77290000Y-51982500D03*
%TD*%
D45*
%TO.C,R1*%
X62040000Y-51732500D03*
X62040000Y-49907500D03*
%TD*%
D59*
%TO.C,D4*%
X64540000Y-53320000D03*
X64540000Y-49820000D03*
%TD*%
D58*
%TO.C,Y1*%
X97540000Y-61620000D03*
X97540000Y-65320000D03*
X99840000Y-65320000D03*
X99840000Y-61620000D03*
%TD*%
D57*
%TO.C,C10*%
X99702500Y-67820000D03*
X97802500Y-67820000D03*
%TD*%
D55*
%TO.C,JP2*%
X103790000Y-67770000D03*
D56*
X103790000Y-69070000D03*
%TD*%
D54*
%TO.C,C15*%
X97750000Y-71930000D03*
X97750000Y-73830000D03*
%TD*%
D53*
%TO.C,U4*%
X103662000Y-71620000D03*
X102392000Y-71620000D03*
X101122000Y-71620000D03*
X99852000Y-71620000D03*
X99852000Y-76570000D03*
X101122000Y-76570000D03*
X102392000Y-76570000D03*
X103662000Y-76570000D03*
%TD*%
D52*
%TO.C,H2*%
X102565056Y-82556056D03*
%TD*%
D45*
%TO.C,R7*%
X103790000Y-65732500D03*
X103790000Y-63907500D03*
%TD*%
D31*
%TO.C,C11*%
X80127500Y-69070000D03*
X82027500Y-69070000D03*
%TD*%
D50*
%TO.C,J7*%
X73290000Y-44664000D03*
D51*
X75790000Y-44664000D03*
%TD*%
D48*
%TO.C,U1*%
X63790000Y-63770000D03*
X63790000Y-64570000D03*
X63790000Y-65370000D03*
X63790000Y-66170000D03*
X63790000Y-66970000D03*
X63790000Y-67770000D03*
X63790000Y-68570000D03*
X63790000Y-69370000D03*
D49*
X65240000Y-70820000D03*
X66040000Y-70820000D03*
X66840000Y-70820000D03*
X67640000Y-70820000D03*
X68440000Y-70820000D03*
X69240000Y-70820000D03*
X70040000Y-70820000D03*
X70840000Y-70820000D03*
D48*
X72290000Y-69370000D03*
X72290000Y-68570000D03*
X72290000Y-67770000D03*
X72290000Y-66970000D03*
X72290000Y-66170000D03*
X72290000Y-65370000D03*
X72290000Y-64570000D03*
X72290000Y-63770000D03*
D49*
X70840000Y-62320000D03*
X70040000Y-62320000D03*
X69240000Y-62320000D03*
X68440000Y-62320000D03*
X67640000Y-62320000D03*
X66840000Y-62320000D03*
X66040000Y-62320000D03*
X65240000Y-62320000D03*
%TD*%
D31*
%TO.C,C1*%
X74877500Y-68570000D03*
X76777500Y-68570000D03*
%TD*%
D46*
%TO.C,U3*%
X94940000Y-69880000D03*
X94940000Y-68610000D03*
X94940000Y-67340000D03*
X94940000Y-66070000D03*
X94940000Y-64800000D03*
X94940000Y-63530000D03*
X94940000Y-62260000D03*
X94940000Y-60990000D03*
X94940000Y-59720000D03*
X85640000Y-59720000D03*
X85640000Y-60990000D03*
X85640000Y-62260000D03*
X85640000Y-63530000D03*
X85640000Y-64800000D03*
X85640000Y-66070000D03*
X85640000Y-67340000D03*
X85640000Y-68610000D03*
X85640000Y-69880000D03*
%TD*%
D45*
%TO.C,R3*%
X69540000Y-51732500D03*
X69540000Y-49907500D03*
%TD*%
D44*
%TO.C,F1*%
X51652500Y-50430000D03*
X54452500Y-50430000D03*
%TD*%
D43*
%TO.C,R2*%
X79290000Y-50157500D03*
X79290000Y-51982500D03*
%TD*%
D21*
%TO.C,FID2*%
X49500000Y-74130000D03*
%TD*%
%TO.C,FID3*%
X103290000Y-60320000D03*
%TD*%
D42*
%TO.C,C4*%
X50640000Y-55030000D03*
X55040000Y-55030000D03*
%TD*%
D24*
%TO.C,C5*%
X56790000Y-60057500D03*
X56790000Y-58157500D03*
%TD*%
D41*
%TO.C,C7*%
X50690000Y-65030000D03*
X54290000Y-65030000D03*
%TD*%
%TO.C,C9*%
X50690000Y-70320000D03*
X54290000Y-70320000D03*
%TD*%
D39*
%TO.C,J2*%
X102790000Y-45070000D03*
D40*
X102790000Y-47570000D03*
X102790000Y-50070000D03*
X102790000Y-52570000D03*
X102790000Y-55070000D03*
%TD*%
D38*
%TO.C,L1*%
X59000000Y-60192500D03*
X59000000Y-58067500D03*
%TD*%
D35*
%TO.C,J8*%
X97290000Y-79130000D03*
X88290000Y-79130000D03*
D36*
X94290000Y-83070000D03*
D37*
X91290000Y-83070000D03*
X94290000Y-80070000D03*
X91290000Y-80070000D03*
%TD*%
D32*
%TO.C,J6*%
X79580000Y-85320000D03*
X79580000Y-73320000D03*
D33*
X81540000Y-82320000D03*
D34*
X81540000Y-79320000D03*
X81540000Y-76320000D03*
%TD*%
D31*
%TO.C,C6*%
X97802500Y-59070000D03*
X99702500Y-59070000D03*
%TD*%
D29*
%TO.C,J1*%
X59790000Y-44664000D03*
D30*
X62290000Y-44664000D03*
X64790000Y-44664000D03*
X67290000Y-44664000D03*
%TD*%
D28*
%TO.C,C13*%
X73290000Y-52857500D03*
X73290000Y-50157500D03*
%TD*%
D26*
%TO.C,U5*%
X94115000Y-55070001D03*
X94115000Y-54070000D03*
X94115000Y-53070000D03*
X94115000Y-52069999D03*
X94115000Y-51070001D03*
X94115000Y-50070001D03*
X94115000Y-49070000D03*
X94115000Y-48069999D03*
X94115000Y-47069999D03*
X94115000Y-46070001D03*
X94115000Y-45070000D03*
X94115000Y-44070000D03*
X94115000Y-43069999D03*
X85465000Y-43069999D03*
X85465000Y-44070000D03*
X85465000Y-45070000D03*
X85465000Y-46070001D03*
X85465000Y-47069999D03*
X85465000Y-48069999D03*
X85465000Y-49070000D03*
X85465000Y-50070001D03*
X85465000Y-51070001D03*
X85465000Y-52069999D03*
X85465000Y-53070000D03*
X85465000Y-54070000D03*
X85465000Y-55070001D03*
D27*
X87789999Y-55670002D03*
X88789999Y-55670002D03*
X89790000Y-55670002D03*
X90790001Y-55670002D03*
X91790001Y-55670002D03*
%TD*%
D24*
%TO.C,C8*%
X81290000Y-52057500D03*
X81290000Y-50157500D03*
%TD*%
D25*
%TO.C,U2*%
X51230000Y-59280000D03*
X51230000Y-60230000D03*
X51230000Y-61180000D03*
X53850000Y-61180000D03*
X53850000Y-60230000D03*
X53850000Y-59280000D03*
%TD*%
D24*
%TO.C,C14*%
X96290000Y-54807500D03*
X96290000Y-52907500D03*
%TD*%
D22*
%TO.C,X1*%
X81315000Y-45570000D03*
D23*
X79840000Y-44070000D03*
D22*
X81315000Y-42570000D03*
D23*
X82790000Y-44070000D03*
%TD*%
D21*
%TO.C,FID1*%
X78790000Y-57070000D03*
%TD*%
D20*
%TO.C,D5*%
X79490000Y-62570000D03*
X77590000Y-62570000D03*
X78540000Y-64570000D03*
%TD*%
D19*
%TO.C,D2*%
X57790000Y-63630000D03*
X57790000Y-67630000D03*
%TD*%
D18*
%TO.C,D3*%
X59000000Y-54630000D03*
X59000000Y-50630000D03*
%TD*%
D10*
%TO.C,MB4*%
X93840000Y-86070000D03*
X93040000Y-85820000D03*
X92340000Y-85820000D03*
X91540000Y-86070000D03*
%TD*%
D16*
%TO.C,J4*%
X64200000Y-77105000D03*
X63200000Y-77105000D03*
X62200000Y-77105000D03*
X61200000Y-77105000D03*
X60200000Y-77105000D03*
X59200000Y-77105000D03*
X58200000Y-77105000D03*
X57200000Y-77105000D03*
X56200000Y-77105000D03*
X55200000Y-77105000D03*
D17*
X65500000Y-79630000D03*
X53900000Y-79630000D03*
%TD*%
D61*
%TO.C,F2*%
X86562500Y-75130000D03*
X88437500Y-75130000D03*
%TD*%
D16*
%TO.C,J5*%
X72400000Y-77105000D03*
X71400000Y-77105000D03*
X70400000Y-77105000D03*
X69400000Y-77105000D03*
D17*
X73700000Y-79630000D03*
X68100000Y-79630000D03*
%TD*%
D60*
%TO.C,D1*%
X97790000Y-43532500D03*
X97790000Y-45407500D03*
%TD*%
D10*
%TO.C,MB3*%
X51740000Y-86070000D03*
X50940000Y-85820000D03*
X50240000Y-85820000D03*
X49440000Y-86070000D03*
%TD*%
D14*
%TO.C,J3*%
X50600000Y-77650000D03*
D15*
X50600000Y-80190000D03*
X50600000Y-82730000D03*
%TD*%
D12*
%TO.C,JP1*%
X86500000Y-73280000D03*
D13*
X86500000Y-71980000D03*
%TD*%
D10*
%TO.C,MB2*%
X101050000Y-41880000D03*
X101850000Y-42130000D03*
X102550000Y-42130000D03*
X103350000Y-41880000D03*
%TD*%
D11*
%TO.C,D7*%
X91000000Y-73130000D03*
X95000000Y-73130000D03*
%TD*%
D10*
%TO.C,MB1*%
X54650000Y-41880000D03*
X55450000Y-42130000D03*
X56150000Y-42130000D03*
X56950000Y-41880000D03*
%TD*%
M02*
