%TF.GenerationSoftware,KiCad,Pcbnew,(5.1.6-0-10_14)*%
%TF.CreationDate,2021-11-18T21:32:24+01:00*%
%TF.ProjectId,SmartDisplay,536d6172-7444-4697-9370-6c61792e6b69,rev?*%
%TF.SameCoordinates,Original*%
%TF.FileFunction,Soldermask,Top*%
%TF.FilePolarity,Negative*%
%FSLAX46Y46*%
G04 Gerber Fmt 4.6, Leading zero omitted, Abs format (unit mm)*
G04 Created by KiCad (PCBNEW (5.1.6-0-10_14)) date 2021-11-18 21:32:24*
%MOMM*%
%LPD*%
G01*
G04 APERTURE LIST*
%ADD10R,1.000000X1.300000*%
%ADD11O,1.800000X1.800000*%
%ADD12R,1.800000X1.800000*%
%ADD13C,1.300000*%
%ADD14O,1.800000X2.100000*%
%ADD15O,1.800000X2.050000*%
%ADD16O,1.600000X2.120000*%
%ADD17C,1.370000*%
%ADD18R,2.600000X2.400000*%
%ADD19R,1.900000X2.600000*%
%ADD20C,1.600000*%
%ADD21C,1.100000*%
%ADD22R,1.100000X1.100000*%
%ADD23R,1.200000X2.000000*%
%ADD24C,0.100000*%
%ADD25R,1.800000X1.400000*%
%ADD26R,5.200000X2.450000*%
%ADD27R,2.400000X2.600000*%
%ADD28C,0.900000*%
%ADD29C,6.500000*%
%ADD30R,0.650000X1.700000*%
%ADD31R,1.700000X0.650000*%
G04 APERTURE END LIST*
D10*
%TO.C,D5*%
X155196000Y-86360000D03*
X158496000Y-86360000D03*
%TD*%
%TO.C,D3*%
X160020000Y-86360000D03*
X163320000Y-86360000D03*
%TD*%
D11*
%TO.C,J5*%
X139192000Y-111760000D03*
X139192000Y-114300000D03*
X136652000Y-111760000D03*
X136652000Y-114300000D03*
X134112000Y-111760000D03*
D12*
X134112000Y-114300000D03*
%TD*%
D13*
%TO.C,J2*%
X153888000Y-82264000D03*
D14*
X157988000Y-80264000D03*
G36*
G01*
X154588000Y-81049294D02*
X154588000Y-79478706D01*
G75*
G02*
X154852706Y-79214000I264706J0D01*
G01*
X156123294Y-79214000D01*
G75*
G02*
X156388000Y-79478706I0J-264706D01*
G01*
X156388000Y-81049294D01*
G75*
G02*
X156123294Y-81314000I-264706J0D01*
G01*
X154852706Y-81314000D01*
G75*
G02*
X154588000Y-81049294I0J264706D01*
G01*
G37*
%TD*%
D13*
%TO.C,J4*%
X139744000Y-82264000D03*
D15*
X148844000Y-80264000D03*
X146344000Y-80264000D03*
X143844000Y-80264000D03*
G36*
G01*
X140444000Y-81024294D02*
X140444000Y-79503706D01*
G75*
G02*
X140708706Y-79239000I264706J0D01*
G01*
X141979294Y-79239000D01*
G75*
G02*
X142244000Y-79503706I0J-264706D01*
G01*
X142244000Y-81024294D01*
G75*
G02*
X141979294Y-81289000I-264706J0D01*
G01*
X140708706Y-81289000D01*
G75*
G02*
X140444000Y-81024294I0J264706D01*
G01*
G37*
%TD*%
D11*
%TO.C,J3*%
X131572000Y-111760000D03*
D12*
X131572000Y-114300000D03*
%TD*%
D16*
%TO.C,J6*%
X179640000Y-81280000D03*
X176640000Y-81280000D03*
X173640000Y-81280000D03*
X170640000Y-81280000D03*
G36*
G01*
X166840000Y-82073333D02*
X166840000Y-80486667D01*
G75*
G02*
X167106667Y-80220000I266667J0D01*
G01*
X168173333Y-80220000D01*
G75*
G02*
X168440000Y-80486667I0J-266667D01*
G01*
X168440000Y-82073333D01*
G75*
G02*
X168173333Y-82340000I-266667J0D01*
G01*
X167106667Y-82340000D01*
G75*
G02*
X166840000Y-82073333I0J266667D01*
G01*
G37*
D17*
X182640000Y-79320000D03*
X164640000Y-79320000D03*
%TD*%
D11*
%TO.C,J7*%
X154432000Y-111760000D03*
X154432000Y-114300000D03*
X151892000Y-111760000D03*
X151892000Y-114300000D03*
X149352000Y-111760000D03*
X149352000Y-114300000D03*
X146812000Y-111760000D03*
X146812000Y-114300000D03*
X144272000Y-111760000D03*
X144272000Y-114300000D03*
X141732000Y-111760000D03*
D12*
X141732000Y-114300000D03*
%TD*%
%TO.C,U1*%
G36*
G01*
X167494000Y-105616000D02*
X167494000Y-105966000D01*
G75*
G02*
X167319000Y-106141000I-175000J0D01*
G01*
X165519000Y-106141000D01*
G75*
G02*
X165344000Y-105966000I0J175000D01*
G01*
X165344000Y-105616000D01*
G75*
G02*
X165519000Y-105441000I175000J0D01*
G01*
X167319000Y-105441000D01*
G75*
G02*
X167494000Y-105616000I0J-175000D01*
G01*
G37*
G36*
G01*
X167494000Y-104346000D02*
X167494000Y-104696000D01*
G75*
G02*
X167319000Y-104871000I-175000J0D01*
G01*
X165519000Y-104871000D01*
G75*
G02*
X165344000Y-104696000I0J175000D01*
G01*
X165344000Y-104346000D01*
G75*
G02*
X165519000Y-104171000I175000J0D01*
G01*
X167319000Y-104171000D01*
G75*
G02*
X167494000Y-104346000I0J-175000D01*
G01*
G37*
G36*
G01*
X167494000Y-103076000D02*
X167494000Y-103426000D01*
G75*
G02*
X167319000Y-103601000I-175000J0D01*
G01*
X165519000Y-103601000D01*
G75*
G02*
X165344000Y-103426000I0J175000D01*
G01*
X165344000Y-103076000D01*
G75*
G02*
X165519000Y-102901000I175000J0D01*
G01*
X167319000Y-102901000D01*
G75*
G02*
X167494000Y-103076000I0J-175000D01*
G01*
G37*
G36*
G01*
X167494000Y-101806000D02*
X167494000Y-102156000D01*
G75*
G02*
X167319000Y-102331000I-175000J0D01*
G01*
X165519000Y-102331000D01*
G75*
G02*
X165344000Y-102156000I0J175000D01*
G01*
X165344000Y-101806000D01*
G75*
G02*
X165519000Y-101631000I175000J0D01*
G01*
X167319000Y-101631000D01*
G75*
G02*
X167494000Y-101806000I0J-175000D01*
G01*
G37*
G36*
G01*
X167494000Y-100536000D02*
X167494000Y-100886000D01*
G75*
G02*
X167319000Y-101061000I-175000J0D01*
G01*
X165519000Y-101061000D01*
G75*
G02*
X165344000Y-100886000I0J175000D01*
G01*
X165344000Y-100536000D01*
G75*
G02*
X165519000Y-100361000I175000J0D01*
G01*
X167319000Y-100361000D01*
G75*
G02*
X167494000Y-100536000I0J-175000D01*
G01*
G37*
G36*
G01*
X167494000Y-99266000D02*
X167494000Y-99616000D01*
G75*
G02*
X167319000Y-99791000I-175000J0D01*
G01*
X165519000Y-99791000D01*
G75*
G02*
X165344000Y-99616000I0J175000D01*
G01*
X165344000Y-99266000D01*
G75*
G02*
X165519000Y-99091000I175000J0D01*
G01*
X167319000Y-99091000D01*
G75*
G02*
X167494000Y-99266000I0J-175000D01*
G01*
G37*
G36*
G01*
X167494000Y-97996000D02*
X167494000Y-98346000D01*
G75*
G02*
X167319000Y-98521000I-175000J0D01*
G01*
X165519000Y-98521000D01*
G75*
G02*
X165344000Y-98346000I0J175000D01*
G01*
X165344000Y-97996000D01*
G75*
G02*
X165519000Y-97821000I175000J0D01*
G01*
X167319000Y-97821000D01*
G75*
G02*
X167494000Y-97996000I0J-175000D01*
G01*
G37*
G36*
G01*
X167494000Y-96726000D02*
X167494000Y-97076000D01*
G75*
G02*
X167319000Y-97251000I-175000J0D01*
G01*
X165519000Y-97251000D01*
G75*
G02*
X165344000Y-97076000I0J175000D01*
G01*
X165344000Y-96726000D01*
G75*
G02*
X165519000Y-96551000I175000J0D01*
G01*
X167319000Y-96551000D01*
G75*
G02*
X167494000Y-96726000I0J-175000D01*
G01*
G37*
G36*
G01*
X167494000Y-95456000D02*
X167494000Y-95806000D01*
G75*
G02*
X167319000Y-95981000I-175000J0D01*
G01*
X165519000Y-95981000D01*
G75*
G02*
X165344000Y-95806000I0J175000D01*
G01*
X165344000Y-95456000D01*
G75*
G02*
X165519000Y-95281000I175000J0D01*
G01*
X167319000Y-95281000D01*
G75*
G02*
X167494000Y-95456000I0J-175000D01*
G01*
G37*
G36*
G01*
X176794000Y-95456000D02*
X176794000Y-95806000D01*
G75*
G02*
X176619000Y-95981000I-175000J0D01*
G01*
X174819000Y-95981000D01*
G75*
G02*
X174644000Y-95806000I0J175000D01*
G01*
X174644000Y-95456000D01*
G75*
G02*
X174819000Y-95281000I175000J0D01*
G01*
X176619000Y-95281000D01*
G75*
G02*
X176794000Y-95456000I0J-175000D01*
G01*
G37*
G36*
G01*
X176794000Y-96726000D02*
X176794000Y-97076000D01*
G75*
G02*
X176619000Y-97251000I-175000J0D01*
G01*
X174819000Y-97251000D01*
G75*
G02*
X174644000Y-97076000I0J175000D01*
G01*
X174644000Y-96726000D01*
G75*
G02*
X174819000Y-96551000I175000J0D01*
G01*
X176619000Y-96551000D01*
G75*
G02*
X176794000Y-96726000I0J-175000D01*
G01*
G37*
G36*
G01*
X176794000Y-97996000D02*
X176794000Y-98346000D01*
G75*
G02*
X176619000Y-98521000I-175000J0D01*
G01*
X174819000Y-98521000D01*
G75*
G02*
X174644000Y-98346000I0J175000D01*
G01*
X174644000Y-97996000D01*
G75*
G02*
X174819000Y-97821000I175000J0D01*
G01*
X176619000Y-97821000D01*
G75*
G02*
X176794000Y-97996000I0J-175000D01*
G01*
G37*
G36*
G01*
X176794000Y-99266000D02*
X176794000Y-99616000D01*
G75*
G02*
X176619000Y-99791000I-175000J0D01*
G01*
X174819000Y-99791000D01*
G75*
G02*
X174644000Y-99616000I0J175000D01*
G01*
X174644000Y-99266000D01*
G75*
G02*
X174819000Y-99091000I175000J0D01*
G01*
X176619000Y-99091000D01*
G75*
G02*
X176794000Y-99266000I0J-175000D01*
G01*
G37*
G36*
G01*
X176794000Y-100536000D02*
X176794000Y-100886000D01*
G75*
G02*
X176619000Y-101061000I-175000J0D01*
G01*
X174819000Y-101061000D01*
G75*
G02*
X174644000Y-100886000I0J175000D01*
G01*
X174644000Y-100536000D01*
G75*
G02*
X174819000Y-100361000I175000J0D01*
G01*
X176619000Y-100361000D01*
G75*
G02*
X176794000Y-100536000I0J-175000D01*
G01*
G37*
G36*
G01*
X176794000Y-101806000D02*
X176794000Y-102156000D01*
G75*
G02*
X176619000Y-102331000I-175000J0D01*
G01*
X174819000Y-102331000D01*
G75*
G02*
X174644000Y-102156000I0J175000D01*
G01*
X174644000Y-101806000D01*
G75*
G02*
X174819000Y-101631000I175000J0D01*
G01*
X176619000Y-101631000D01*
G75*
G02*
X176794000Y-101806000I0J-175000D01*
G01*
G37*
G36*
G01*
X176794000Y-103076000D02*
X176794000Y-103426000D01*
G75*
G02*
X176619000Y-103601000I-175000J0D01*
G01*
X174819000Y-103601000D01*
G75*
G02*
X174644000Y-103426000I0J175000D01*
G01*
X174644000Y-103076000D01*
G75*
G02*
X174819000Y-102901000I175000J0D01*
G01*
X176619000Y-102901000D01*
G75*
G02*
X176794000Y-103076000I0J-175000D01*
G01*
G37*
G36*
G01*
X176794000Y-104346000D02*
X176794000Y-104696000D01*
G75*
G02*
X176619000Y-104871000I-175000J0D01*
G01*
X174819000Y-104871000D01*
G75*
G02*
X174644000Y-104696000I0J175000D01*
G01*
X174644000Y-104346000D01*
G75*
G02*
X174819000Y-104171000I175000J0D01*
G01*
X176619000Y-104171000D01*
G75*
G02*
X176794000Y-104346000I0J-175000D01*
G01*
G37*
G36*
G01*
X176794000Y-105616000D02*
X176794000Y-105966000D01*
G75*
G02*
X176619000Y-106141000I-175000J0D01*
G01*
X174819000Y-106141000D01*
G75*
G02*
X174644000Y-105966000I0J175000D01*
G01*
X174644000Y-105616000D01*
G75*
G02*
X174819000Y-105441000I175000J0D01*
G01*
X176619000Y-105441000D01*
G75*
G02*
X176794000Y-105616000I0J-175000D01*
G01*
G37*
%TD*%
D18*
%TO.C,D2*%
X166642000Y-109220000D03*
X170942000Y-109220000D03*
%TD*%
D19*
%TO.C,D8*%
X136398000Y-81026000D03*
X136398000Y-85026000D03*
%TD*%
D20*
%TO.C,J8*%
X172212000Y-115364000D03*
G36*
G01*
X173012000Y-117830667D02*
X173012000Y-118897333D01*
G75*
G02*
X172745333Y-119164000I-266667J0D01*
G01*
X171678667Y-119164000D01*
G75*
G02*
X171412000Y-118897333I0J266667D01*
G01*
X171412000Y-117830667D01*
G75*
G02*
X171678667Y-117564000I266667J0D01*
G01*
X172745333Y-117564000D01*
G75*
G02*
X173012000Y-117830667I0J-266667D01*
G01*
G37*
D21*
X169212000Y-114424000D03*
X175212000Y-114424000D03*
%TD*%
D22*
%TO.C,D7*%
X160528000Y-107950000D03*
X158028000Y-107950000D03*
%TD*%
%TO.C,D6*%
X160528000Y-105918000D03*
X158028000Y-105918000D03*
%TD*%
%TO.C,D1*%
X174752000Y-89916000D03*
X174752000Y-87416000D03*
%TD*%
%TO.C,D10*%
X136779000Y-95631000D03*
X136779000Y-98131000D03*
%TD*%
D23*
%TO.C,Y2*%
X181991000Y-93980000D03*
X181991000Y-97680000D03*
X179691000Y-97680000D03*
X179691000Y-93980000D03*
%TD*%
%TO.C,Y1*%
X148336000Y-99568000D03*
X148336000Y-103268000D03*
X146036000Y-103268000D03*
X146036000Y-99568000D03*
%TD*%
D24*
%TO.C,JP1*%
G36*
X156755398Y-119274111D02*
G01*
X156755398Y-119292534D01*
X156755157Y-119297435D01*
X156750347Y-119346266D01*
X156749627Y-119351119D01*
X156740055Y-119399244D01*
X156738863Y-119404005D01*
X156724619Y-119450960D01*
X156722966Y-119455579D01*
X156704189Y-119500912D01*
X156702091Y-119505349D01*
X156678960Y-119548622D01*
X156676438Y-119552829D01*
X156649178Y-119593628D01*
X156646254Y-119597570D01*
X156615126Y-119635499D01*
X156611831Y-119639134D01*
X156577134Y-119673831D01*
X156573499Y-119677126D01*
X156535570Y-119708254D01*
X156531628Y-119711178D01*
X156490829Y-119738438D01*
X156486622Y-119740960D01*
X156443349Y-119764091D01*
X156438912Y-119766189D01*
X156393579Y-119784966D01*
X156388960Y-119786619D01*
X156342005Y-119800863D01*
X156337244Y-119802055D01*
X156289119Y-119811627D01*
X156284266Y-119812347D01*
X156235435Y-119817157D01*
X156230534Y-119817398D01*
X156212111Y-119817398D01*
X156206000Y-119818000D01*
X155706000Y-119818000D01*
X155699889Y-119817398D01*
X155681466Y-119817398D01*
X155676565Y-119817157D01*
X155627734Y-119812347D01*
X155622881Y-119811627D01*
X155574756Y-119802055D01*
X155569995Y-119800863D01*
X155523040Y-119786619D01*
X155518421Y-119784966D01*
X155473088Y-119766189D01*
X155468651Y-119764091D01*
X155425378Y-119740960D01*
X155421171Y-119738438D01*
X155380372Y-119711178D01*
X155376430Y-119708254D01*
X155338501Y-119677126D01*
X155334866Y-119673831D01*
X155300169Y-119639134D01*
X155296874Y-119635499D01*
X155265746Y-119597570D01*
X155262822Y-119593628D01*
X155235562Y-119552829D01*
X155233040Y-119548622D01*
X155209909Y-119505349D01*
X155207811Y-119500912D01*
X155189034Y-119455579D01*
X155187381Y-119450960D01*
X155173137Y-119404005D01*
X155171945Y-119399244D01*
X155162373Y-119351119D01*
X155161653Y-119346266D01*
X155156843Y-119297435D01*
X155156602Y-119292534D01*
X155156602Y-119274111D01*
X155156000Y-119268000D01*
X155156000Y-118768000D01*
X155156961Y-118758245D01*
X155159806Y-118748866D01*
X155164427Y-118740221D01*
X155170645Y-118732645D01*
X155178221Y-118726427D01*
X155186866Y-118721806D01*
X155196245Y-118718961D01*
X155206000Y-118718000D01*
X156706000Y-118718000D01*
X156715755Y-118718961D01*
X156725134Y-118721806D01*
X156733779Y-118726427D01*
X156741355Y-118732645D01*
X156747573Y-118740221D01*
X156752194Y-118748866D01*
X156755039Y-118758245D01*
X156756000Y-118768000D01*
X156756000Y-119268000D01*
X156755398Y-119274111D01*
G37*
G36*
X156755039Y-118477755D02*
G01*
X156752194Y-118487134D01*
X156747573Y-118495779D01*
X156741355Y-118503355D01*
X156733779Y-118509573D01*
X156725134Y-118514194D01*
X156715755Y-118517039D01*
X156706000Y-118518000D01*
X155206000Y-118518000D01*
X155196245Y-118517039D01*
X155186866Y-118514194D01*
X155178221Y-118509573D01*
X155170645Y-118503355D01*
X155164427Y-118495779D01*
X155159806Y-118487134D01*
X155156961Y-118477755D01*
X155156000Y-118468000D01*
X155156000Y-117968000D01*
X155156602Y-117961889D01*
X155156602Y-117943466D01*
X155156843Y-117938565D01*
X155161653Y-117889734D01*
X155162373Y-117884881D01*
X155171945Y-117836756D01*
X155173137Y-117831995D01*
X155187381Y-117785040D01*
X155189034Y-117780421D01*
X155207811Y-117735088D01*
X155209909Y-117730651D01*
X155233040Y-117687378D01*
X155235562Y-117683171D01*
X155262822Y-117642372D01*
X155265746Y-117638430D01*
X155296874Y-117600501D01*
X155300169Y-117596866D01*
X155334866Y-117562169D01*
X155338501Y-117558874D01*
X155376430Y-117527746D01*
X155380372Y-117524822D01*
X155421171Y-117497562D01*
X155425378Y-117495040D01*
X155468651Y-117471909D01*
X155473088Y-117469811D01*
X155518421Y-117451034D01*
X155523040Y-117449381D01*
X155569995Y-117435137D01*
X155574756Y-117433945D01*
X155622881Y-117424373D01*
X155627734Y-117423653D01*
X155676565Y-117418843D01*
X155681466Y-117418602D01*
X155699889Y-117418602D01*
X155706000Y-117418000D01*
X156206000Y-117418000D01*
X156212111Y-117418602D01*
X156230534Y-117418602D01*
X156235435Y-117418843D01*
X156284266Y-117423653D01*
X156289119Y-117424373D01*
X156337244Y-117433945D01*
X156342005Y-117435137D01*
X156388960Y-117449381D01*
X156393579Y-117451034D01*
X156438912Y-117469811D01*
X156443349Y-117471909D01*
X156486622Y-117495040D01*
X156490829Y-117497562D01*
X156531628Y-117524822D01*
X156535570Y-117527746D01*
X156573499Y-117558874D01*
X156577134Y-117562169D01*
X156611831Y-117596866D01*
X156615126Y-117600501D01*
X156646254Y-117638430D01*
X156649178Y-117642372D01*
X156676438Y-117683171D01*
X156678960Y-117687378D01*
X156702091Y-117730651D01*
X156704189Y-117735088D01*
X156722966Y-117780421D01*
X156724619Y-117785040D01*
X156738863Y-117831995D01*
X156740055Y-117836756D01*
X156749627Y-117884881D01*
X156750347Y-117889734D01*
X156755157Y-117938565D01*
X156755398Y-117943466D01*
X156755398Y-117961889D01*
X156756000Y-117968000D01*
X156756000Y-118468000D01*
X156755039Y-118477755D01*
G37*
%TD*%
%TO.C,R7*%
G36*
G01*
X150846262Y-86477000D02*
X149889738Y-86477000D01*
G75*
G02*
X149618000Y-86205262I0J271738D01*
G01*
X149618000Y-85498738D01*
G75*
G02*
X149889738Y-85227000I271738J0D01*
G01*
X150846262Y-85227000D01*
G75*
G02*
X151118000Y-85498738I0J-271738D01*
G01*
X151118000Y-86205262D01*
G75*
G02*
X150846262Y-86477000I-271738J0D01*
G01*
G37*
G36*
G01*
X150846262Y-88527000D02*
X149889738Y-88527000D01*
G75*
G02*
X149618000Y-88255262I0J271738D01*
G01*
X149618000Y-87548738D01*
G75*
G02*
X149889738Y-87277000I271738J0D01*
G01*
X150846262Y-87277000D01*
G75*
G02*
X151118000Y-87548738I0J-271738D01*
G01*
X151118000Y-88255262D01*
G75*
G02*
X150846262Y-88527000I-271738J0D01*
G01*
G37*
%TD*%
%TO.C,R6*%
G36*
G01*
X141323000Y-85373738D02*
X141323000Y-86330262D01*
G75*
G02*
X141051262Y-86602000I-271738J0D01*
G01*
X140344738Y-86602000D01*
G75*
G02*
X140073000Y-86330262I0J271738D01*
G01*
X140073000Y-85373738D01*
G75*
G02*
X140344738Y-85102000I271738J0D01*
G01*
X141051262Y-85102000D01*
G75*
G02*
X141323000Y-85373738I0J-271738D01*
G01*
G37*
G36*
G01*
X143373000Y-85373738D02*
X143373000Y-86330262D01*
G75*
G02*
X143101262Y-86602000I-271738J0D01*
G01*
X142394738Y-86602000D01*
G75*
G02*
X142123000Y-86330262I0J271738D01*
G01*
X142123000Y-85373738D01*
G75*
G02*
X142394738Y-85102000I271738J0D01*
G01*
X143101262Y-85102000D01*
G75*
G02*
X143373000Y-85373738I0J-271738D01*
G01*
G37*
%TD*%
D25*
%TO.C,D4*%
X145542000Y-85146000D03*
X145542000Y-88646000D03*
%TD*%
%TO.C,C11*%
G36*
G01*
X167687000Y-92659375D02*
X167687000Y-91490625D01*
G75*
G02*
X167952625Y-91225000I265625J0D01*
G01*
X170121375Y-91225000D01*
G75*
G02*
X170387000Y-91490625I0J-265625D01*
G01*
X170387000Y-92659375D01*
G75*
G02*
X170121375Y-92925000I-265625J0D01*
G01*
X167952625Y-92925000D01*
G75*
G02*
X167687000Y-92659375I0J265625D01*
G01*
G37*
G36*
G01*
X164087000Y-92659375D02*
X164087000Y-91490625D01*
G75*
G02*
X164352625Y-91225000I265625J0D01*
G01*
X166521375Y-91225000D01*
G75*
G02*
X166787000Y-91490625I0J-265625D01*
G01*
X166787000Y-92659375D01*
G75*
G02*
X166521375Y-92925000I-265625J0D01*
G01*
X164352625Y-92925000D01*
G75*
G02*
X164087000Y-92659375I0J265625D01*
G01*
G37*
%TD*%
%TO.C,C10*%
G36*
G01*
X153132262Y-86459000D02*
X152175738Y-86459000D01*
G75*
G02*
X151904000Y-86187262I0J271738D01*
G01*
X151904000Y-85480738D01*
G75*
G02*
X152175738Y-85209000I271738J0D01*
G01*
X153132262Y-85209000D01*
G75*
G02*
X153404000Y-85480738I0J-271738D01*
G01*
X153404000Y-86187262D01*
G75*
G02*
X153132262Y-86459000I-271738J0D01*
G01*
G37*
G36*
G01*
X153132262Y-88509000D02*
X152175738Y-88509000D01*
G75*
G02*
X151904000Y-88237262I0J271738D01*
G01*
X151904000Y-87530738D01*
G75*
G02*
X152175738Y-87259000I271738J0D01*
G01*
X153132262Y-87259000D01*
G75*
G02*
X153404000Y-87530738I0J-271738D01*
G01*
X153404000Y-88237262D01*
G75*
G02*
X153132262Y-88509000I-271738J0D01*
G01*
G37*
%TD*%
%TO.C,U4*%
G36*
G01*
X134191000Y-99940000D02*
X134541000Y-99940000D01*
G75*
G02*
X134716000Y-100115000I0J-175000D01*
G01*
X134716000Y-101815000D01*
G75*
G02*
X134541000Y-101990000I-175000J0D01*
G01*
X134191000Y-101990000D01*
G75*
G02*
X134016000Y-101815000I0J175000D01*
G01*
X134016000Y-100115000D01*
G75*
G02*
X134191000Y-99940000I175000J0D01*
G01*
G37*
G36*
G01*
X132921000Y-99940000D02*
X133271000Y-99940000D01*
G75*
G02*
X133446000Y-100115000I0J-175000D01*
G01*
X133446000Y-101815000D01*
G75*
G02*
X133271000Y-101990000I-175000J0D01*
G01*
X132921000Y-101990000D01*
G75*
G02*
X132746000Y-101815000I0J175000D01*
G01*
X132746000Y-100115000D01*
G75*
G02*
X132921000Y-99940000I175000J0D01*
G01*
G37*
G36*
G01*
X131651000Y-99940000D02*
X132001000Y-99940000D01*
G75*
G02*
X132176000Y-100115000I0J-175000D01*
G01*
X132176000Y-101815000D01*
G75*
G02*
X132001000Y-101990000I-175000J0D01*
G01*
X131651000Y-101990000D01*
G75*
G02*
X131476000Y-101815000I0J175000D01*
G01*
X131476000Y-100115000D01*
G75*
G02*
X131651000Y-99940000I175000J0D01*
G01*
G37*
G36*
G01*
X130381000Y-99940000D02*
X130731000Y-99940000D01*
G75*
G02*
X130906000Y-100115000I0J-175000D01*
G01*
X130906000Y-101815000D01*
G75*
G02*
X130731000Y-101990000I-175000J0D01*
G01*
X130381000Y-101990000D01*
G75*
G02*
X130206000Y-101815000I0J175000D01*
G01*
X130206000Y-100115000D01*
G75*
G02*
X130381000Y-99940000I175000J0D01*
G01*
G37*
G36*
G01*
X130381000Y-94990000D02*
X130731000Y-94990000D01*
G75*
G02*
X130906000Y-95165000I0J-175000D01*
G01*
X130906000Y-96865000D01*
G75*
G02*
X130731000Y-97040000I-175000J0D01*
G01*
X130381000Y-97040000D01*
G75*
G02*
X130206000Y-96865000I0J175000D01*
G01*
X130206000Y-95165000D01*
G75*
G02*
X130381000Y-94990000I175000J0D01*
G01*
G37*
G36*
G01*
X131651000Y-94990000D02*
X132001000Y-94990000D01*
G75*
G02*
X132176000Y-95165000I0J-175000D01*
G01*
X132176000Y-96865000D01*
G75*
G02*
X132001000Y-97040000I-175000J0D01*
G01*
X131651000Y-97040000D01*
G75*
G02*
X131476000Y-96865000I0J175000D01*
G01*
X131476000Y-95165000D01*
G75*
G02*
X131651000Y-94990000I175000J0D01*
G01*
G37*
G36*
G01*
X132921000Y-94990000D02*
X133271000Y-94990000D01*
G75*
G02*
X133446000Y-95165000I0J-175000D01*
G01*
X133446000Y-96865000D01*
G75*
G02*
X133271000Y-97040000I-175000J0D01*
G01*
X132921000Y-97040000D01*
G75*
G02*
X132746000Y-96865000I0J175000D01*
G01*
X132746000Y-95165000D01*
G75*
G02*
X132921000Y-94990000I175000J0D01*
G01*
G37*
G36*
G01*
X134191000Y-94990000D02*
X134541000Y-94990000D01*
G75*
G02*
X134716000Y-95165000I0J-175000D01*
G01*
X134716000Y-96865000D01*
G75*
G02*
X134541000Y-97040000I-175000J0D01*
G01*
X134191000Y-97040000D01*
G75*
G02*
X134016000Y-96865000I0J175000D01*
G01*
X134016000Y-95165000D01*
G75*
G02*
X134191000Y-94990000I175000J0D01*
G01*
G37*
%TD*%
D26*
%TO.C,L1*%
X141224000Y-104267000D03*
X141224000Y-100117000D03*
%TD*%
D27*
%TO.C,D9*%
X140716000Y-95758000D03*
X140716000Y-91458000D03*
%TD*%
%TO.C,C14*%
G36*
G01*
X131782000Y-105460625D02*
X131782000Y-106629375D01*
G75*
G02*
X131516375Y-106895000I-265625J0D01*
G01*
X128447625Y-106895000D01*
G75*
G02*
X128182000Y-106629375I0J265625D01*
G01*
X128182000Y-105460625D01*
G75*
G02*
X128447625Y-105195000I265625J0D01*
G01*
X131516375Y-105195000D01*
G75*
G02*
X131782000Y-105460625I0J-265625D01*
G01*
G37*
G36*
G01*
X137182000Y-105460625D02*
X137182000Y-106629375D01*
G75*
G02*
X136916375Y-106895000I-265625J0D01*
G01*
X133847625Y-106895000D01*
G75*
G02*
X133582000Y-106629375I0J265625D01*
G01*
X133582000Y-105460625D01*
G75*
G02*
X133847625Y-105195000I265625J0D01*
G01*
X136916375Y-105195000D01*
G75*
G02*
X137182000Y-105460625I0J-265625D01*
G01*
G37*
%TD*%
%TO.C,C13*%
G36*
G01*
X131274000Y-90220625D02*
X131274000Y-91389375D01*
G75*
G02*
X131008375Y-91655000I-265625J0D01*
G01*
X127939625Y-91655000D01*
G75*
G02*
X127674000Y-91389375I0J265625D01*
G01*
X127674000Y-90220625D01*
G75*
G02*
X127939625Y-89955000I265625J0D01*
G01*
X131008375Y-89955000D01*
G75*
G02*
X131274000Y-90220625I0J-265625D01*
G01*
G37*
G36*
G01*
X136674000Y-90220625D02*
X136674000Y-91389375D01*
G75*
G02*
X136408375Y-91655000I-265625J0D01*
G01*
X133339625Y-91655000D01*
G75*
G02*
X133074000Y-91389375I0J265625D01*
G01*
X133074000Y-90220625D01*
G75*
G02*
X133339625Y-89955000I265625J0D01*
G01*
X136408375Y-89955000D01*
G75*
G02*
X136674000Y-90220625I0J-265625D01*
G01*
G37*
%TD*%
%TO.C,C4*%
G36*
G01*
X176686738Y-88783000D02*
X177643262Y-88783000D01*
G75*
G02*
X177915000Y-89054738I0J-271738D01*
G01*
X177915000Y-89761262D01*
G75*
G02*
X177643262Y-90033000I-271738J0D01*
G01*
X176686738Y-90033000D01*
G75*
G02*
X176415000Y-89761262I0J271738D01*
G01*
X176415000Y-89054738D01*
G75*
G02*
X176686738Y-88783000I271738J0D01*
G01*
G37*
G36*
G01*
X176686738Y-86733000D02*
X177643262Y-86733000D01*
G75*
G02*
X177915000Y-87004738I0J-271738D01*
G01*
X177915000Y-87711262D01*
G75*
G02*
X177643262Y-87983000I-271738J0D01*
G01*
X176686738Y-87983000D01*
G75*
G02*
X176415000Y-87711262I0J271738D01*
G01*
X176415000Y-87004738D01*
G75*
G02*
X176686738Y-86733000I271738J0D01*
G01*
G37*
%TD*%
%TO.C,R5*%
G36*
G01*
X143666738Y-94625000D02*
X144623262Y-94625000D01*
G75*
G02*
X144895000Y-94896738I0J-271738D01*
G01*
X144895000Y-95603262D01*
G75*
G02*
X144623262Y-95875000I-271738J0D01*
G01*
X143666738Y-95875000D01*
G75*
G02*
X143395000Y-95603262I0J271738D01*
G01*
X143395000Y-94896738D01*
G75*
G02*
X143666738Y-94625000I271738J0D01*
G01*
G37*
G36*
G01*
X143666738Y-92575000D02*
X144623262Y-92575000D01*
G75*
G02*
X144895000Y-92846738I0J-271738D01*
G01*
X144895000Y-93553262D01*
G75*
G02*
X144623262Y-93825000I-271738J0D01*
G01*
X143666738Y-93825000D01*
G75*
G02*
X143395000Y-93553262I0J271738D01*
G01*
X143395000Y-92846738D01*
G75*
G02*
X143666738Y-92575000I271738J0D01*
G01*
G37*
%TD*%
%TO.C,R4*%
G36*
G01*
X148111738Y-94625000D02*
X149068262Y-94625000D01*
G75*
G02*
X149340000Y-94896738I0J-271738D01*
G01*
X149340000Y-95603262D01*
G75*
G02*
X149068262Y-95875000I-271738J0D01*
G01*
X148111738Y-95875000D01*
G75*
G02*
X147840000Y-95603262I0J271738D01*
G01*
X147840000Y-94896738D01*
G75*
G02*
X148111738Y-94625000I271738J0D01*
G01*
G37*
G36*
G01*
X148111738Y-92575000D02*
X149068262Y-92575000D01*
G75*
G02*
X149340000Y-92846738I0J-271738D01*
G01*
X149340000Y-93553262D01*
G75*
G02*
X149068262Y-93825000I-271738J0D01*
G01*
X148111738Y-93825000D01*
G75*
G02*
X147840000Y-93553262I0J271738D01*
G01*
X147840000Y-92846738D01*
G75*
G02*
X148111738Y-92575000I271738J0D01*
G01*
G37*
%TD*%
%TO.C,C9*%
G36*
G01*
X146782262Y-93825000D02*
X145825738Y-93825000D01*
G75*
G02*
X145554000Y-93553262I0J271738D01*
G01*
X145554000Y-92846738D01*
G75*
G02*
X145825738Y-92575000I271738J0D01*
G01*
X146782262Y-92575000D01*
G75*
G02*
X147054000Y-92846738I0J-271738D01*
G01*
X147054000Y-93553262D01*
G75*
G02*
X146782262Y-93825000I-271738J0D01*
G01*
G37*
G36*
G01*
X146782262Y-95875000D02*
X145825738Y-95875000D01*
G75*
G02*
X145554000Y-95603262I0J271738D01*
G01*
X145554000Y-94896738D01*
G75*
G02*
X145825738Y-94625000I271738J0D01*
G01*
X146782262Y-94625000D01*
G75*
G02*
X147054000Y-94896738I0J-271738D01*
G01*
X147054000Y-95603262D01*
G75*
G02*
X146782262Y-95875000I-271738J0D01*
G01*
G37*
%TD*%
D28*
%TO.C,H2*%
X183307056Y-116920944D03*
X181610000Y-116218000D03*
X179912944Y-116920944D03*
X179210000Y-118618000D03*
X179912944Y-120315056D03*
X181610000Y-121018000D03*
X183307056Y-120315056D03*
X184010000Y-118618000D03*
D29*
X181610000Y-118618000D03*
%TD*%
D28*
%TO.C,H1*%
X131999056Y-78820944D03*
X130302000Y-78118000D03*
X128604944Y-78820944D03*
X127902000Y-80518000D03*
X128604944Y-82215056D03*
X130302000Y-82918000D03*
X131999056Y-82215056D03*
X132702000Y-80518000D03*
D29*
X130302000Y-80518000D03*
%TD*%
%TO.C,U2*%
G36*
G01*
X182197000Y-108573000D02*
X182547000Y-108573000D01*
G75*
G02*
X182722000Y-108748000I0J-175000D01*
G01*
X182722000Y-110448000D01*
G75*
G02*
X182547000Y-110623000I-175000J0D01*
G01*
X182197000Y-110623000D01*
G75*
G02*
X182022000Y-110448000I0J175000D01*
G01*
X182022000Y-108748000D01*
G75*
G02*
X182197000Y-108573000I175000J0D01*
G01*
G37*
G36*
G01*
X180927000Y-108573000D02*
X181277000Y-108573000D01*
G75*
G02*
X181452000Y-108748000I0J-175000D01*
G01*
X181452000Y-110448000D01*
G75*
G02*
X181277000Y-110623000I-175000J0D01*
G01*
X180927000Y-110623000D01*
G75*
G02*
X180752000Y-110448000I0J175000D01*
G01*
X180752000Y-108748000D01*
G75*
G02*
X180927000Y-108573000I175000J0D01*
G01*
G37*
G36*
G01*
X179657000Y-108573000D02*
X180007000Y-108573000D01*
G75*
G02*
X180182000Y-108748000I0J-175000D01*
G01*
X180182000Y-110448000D01*
G75*
G02*
X180007000Y-110623000I-175000J0D01*
G01*
X179657000Y-110623000D01*
G75*
G02*
X179482000Y-110448000I0J175000D01*
G01*
X179482000Y-108748000D01*
G75*
G02*
X179657000Y-108573000I175000J0D01*
G01*
G37*
G36*
G01*
X178387000Y-108573000D02*
X178737000Y-108573000D01*
G75*
G02*
X178912000Y-108748000I0J-175000D01*
G01*
X178912000Y-110448000D01*
G75*
G02*
X178737000Y-110623000I-175000J0D01*
G01*
X178387000Y-110623000D01*
G75*
G02*
X178212000Y-110448000I0J175000D01*
G01*
X178212000Y-108748000D01*
G75*
G02*
X178387000Y-108573000I175000J0D01*
G01*
G37*
G36*
G01*
X178387000Y-103623000D02*
X178737000Y-103623000D01*
G75*
G02*
X178912000Y-103798000I0J-175000D01*
G01*
X178912000Y-105498000D01*
G75*
G02*
X178737000Y-105673000I-175000J0D01*
G01*
X178387000Y-105673000D01*
G75*
G02*
X178212000Y-105498000I0J175000D01*
G01*
X178212000Y-103798000D01*
G75*
G02*
X178387000Y-103623000I175000J0D01*
G01*
G37*
G36*
G01*
X179657000Y-103623000D02*
X180007000Y-103623000D01*
G75*
G02*
X180182000Y-103798000I0J-175000D01*
G01*
X180182000Y-105498000D01*
G75*
G02*
X180007000Y-105673000I-175000J0D01*
G01*
X179657000Y-105673000D01*
G75*
G02*
X179482000Y-105498000I0J175000D01*
G01*
X179482000Y-103798000D01*
G75*
G02*
X179657000Y-103623000I175000J0D01*
G01*
G37*
G36*
G01*
X180927000Y-103623000D02*
X181277000Y-103623000D01*
G75*
G02*
X181452000Y-103798000I0J-175000D01*
G01*
X181452000Y-105498000D01*
G75*
G02*
X181277000Y-105673000I-175000J0D01*
G01*
X180927000Y-105673000D01*
G75*
G02*
X180752000Y-105498000I0J175000D01*
G01*
X180752000Y-103798000D01*
G75*
G02*
X180927000Y-103623000I175000J0D01*
G01*
G37*
G36*
G01*
X182197000Y-103623000D02*
X182547000Y-103623000D01*
G75*
G02*
X182722000Y-103798000I0J-175000D01*
G01*
X182722000Y-105498000D01*
G75*
G02*
X182547000Y-105673000I-175000J0D01*
G01*
X182197000Y-105673000D01*
G75*
G02*
X182022000Y-105498000I0J175000D01*
G01*
X182022000Y-103798000D01*
G75*
G02*
X182197000Y-103623000I175000J0D01*
G01*
G37*
%TD*%
%TO.C,R3*%
G36*
G01*
X162659000Y-109630738D02*
X162659000Y-110587262D01*
G75*
G02*
X162387262Y-110859000I-271738J0D01*
G01*
X161680738Y-110859000D01*
G75*
G02*
X161409000Y-110587262I0J271738D01*
G01*
X161409000Y-109630738D01*
G75*
G02*
X161680738Y-109359000I271738J0D01*
G01*
X162387262Y-109359000D01*
G75*
G02*
X162659000Y-109630738I0J-271738D01*
G01*
G37*
G36*
G01*
X164709000Y-109630738D02*
X164709000Y-110587262D01*
G75*
G02*
X164437262Y-110859000I-271738J0D01*
G01*
X163730738Y-110859000D01*
G75*
G02*
X163459000Y-110587262I0J271738D01*
G01*
X163459000Y-109630738D01*
G75*
G02*
X163730738Y-109359000I271738J0D01*
G01*
X164437262Y-109359000D01*
G75*
G02*
X164709000Y-109630738I0J-271738D01*
G01*
G37*
%TD*%
D20*
%TO.C,J1*%
X161290000Y-115364000D03*
X164290000Y-115364000D03*
X161290000Y-118364000D03*
G36*
G01*
X165090000Y-117830667D02*
X165090000Y-118897333D01*
G75*
G02*
X164823333Y-119164000I-266667J0D01*
G01*
X163756667Y-119164000D01*
G75*
G02*
X163490000Y-118897333I0J266667D01*
G01*
X163490000Y-117830667D01*
G75*
G02*
X163756667Y-117564000I266667J0D01*
G01*
X164823333Y-117564000D01*
G75*
G02*
X165090000Y-117830667I0J-266667D01*
G01*
G37*
D21*
X158290000Y-114424000D03*
X167290000Y-114424000D03*
%TD*%
%TO.C,R8*%
G36*
G01*
X151159738Y-104930000D02*
X152116262Y-104930000D01*
G75*
G02*
X152388000Y-105201738I0J-271738D01*
G01*
X152388000Y-105908262D01*
G75*
G02*
X152116262Y-106180000I-271738J0D01*
G01*
X151159738Y-106180000D01*
G75*
G02*
X150888000Y-105908262I0J271738D01*
G01*
X150888000Y-105201738D01*
G75*
G02*
X151159738Y-104930000I271738J0D01*
G01*
G37*
G36*
G01*
X151159738Y-102880000D02*
X152116262Y-102880000D01*
G75*
G02*
X152388000Y-103151738I0J-271738D01*
G01*
X152388000Y-103858262D01*
G75*
G02*
X152116262Y-104130000I-271738J0D01*
G01*
X151159738Y-104130000D01*
G75*
G02*
X150888000Y-103858262I0J271738D01*
G01*
X150888000Y-103151738D01*
G75*
G02*
X151159738Y-102880000I271738J0D01*
G01*
G37*
%TD*%
D30*
%TO.C,U3*%
X154172000Y-92778000D03*
X154972000Y-92778000D03*
X155772000Y-92778000D03*
X156572000Y-92778000D03*
X157372000Y-92778000D03*
X158172000Y-92778000D03*
X158972000Y-92778000D03*
X159772000Y-92778000D03*
D31*
X161222000Y-94228000D03*
X161222000Y-95028000D03*
X161222000Y-95828000D03*
X161222000Y-96628000D03*
X161222000Y-97428000D03*
X161222000Y-98228000D03*
X161222000Y-99028000D03*
X161222000Y-99828000D03*
D30*
X159772000Y-101278000D03*
X158972000Y-101278000D03*
X158172000Y-101278000D03*
X157372000Y-101278000D03*
X156572000Y-101278000D03*
X155772000Y-101278000D03*
X154972000Y-101278000D03*
X154172000Y-101278000D03*
D31*
X152722000Y-99828000D03*
X152722000Y-99028000D03*
X152722000Y-98228000D03*
X152722000Y-97428000D03*
X152722000Y-96628000D03*
X152722000Y-95828000D03*
X152722000Y-95028000D03*
X152722000Y-94228000D03*
%TD*%
%TO.C,C5*%
G36*
G01*
X176286000Y-108809262D02*
X176286000Y-107852738D01*
G75*
G02*
X176557738Y-107581000I271738J0D01*
G01*
X177264262Y-107581000D01*
G75*
G02*
X177536000Y-107852738I0J-271738D01*
G01*
X177536000Y-108809262D01*
G75*
G02*
X177264262Y-109081000I-271738J0D01*
G01*
X176557738Y-109081000D01*
G75*
G02*
X176286000Y-108809262I0J271738D01*
G01*
G37*
G36*
G01*
X174236000Y-108809262D02*
X174236000Y-107852738D01*
G75*
G02*
X174507738Y-107581000I271738J0D01*
G01*
X175214262Y-107581000D01*
G75*
G02*
X175486000Y-107852738I0J-271738D01*
G01*
X175486000Y-108809262D01*
G75*
G02*
X175214262Y-109081000I-271738J0D01*
G01*
X174507738Y-109081000D01*
G75*
G02*
X174236000Y-108809262I0J271738D01*
G01*
G37*
%TD*%
%TO.C,C1*%
G36*
G01*
X164562262Y-106797000D02*
X163605738Y-106797000D01*
G75*
G02*
X163334000Y-106525262I0J271738D01*
G01*
X163334000Y-105818738D01*
G75*
G02*
X163605738Y-105547000I271738J0D01*
G01*
X164562262Y-105547000D01*
G75*
G02*
X164834000Y-105818738I0J-271738D01*
G01*
X164834000Y-106525262D01*
G75*
G02*
X164562262Y-106797000I-271738J0D01*
G01*
G37*
G36*
G01*
X164562262Y-108847000D02*
X163605738Y-108847000D01*
G75*
G02*
X163334000Y-108575262I0J271738D01*
G01*
X163334000Y-107868738D01*
G75*
G02*
X163605738Y-107597000I271738J0D01*
G01*
X164562262Y-107597000D01*
G75*
G02*
X164834000Y-107868738I0J-271738D01*
G01*
X164834000Y-108575262D01*
G75*
G02*
X164562262Y-108847000I-271738J0D01*
G01*
G37*
%TD*%
%TO.C,C6*%
G36*
G01*
X150973262Y-97000000D02*
X150016738Y-97000000D01*
G75*
G02*
X149745000Y-96728262I0J271738D01*
G01*
X149745000Y-96021738D01*
G75*
G02*
X150016738Y-95750000I271738J0D01*
G01*
X150973262Y-95750000D01*
G75*
G02*
X151245000Y-96021738I0J-271738D01*
G01*
X151245000Y-96728262D01*
G75*
G02*
X150973262Y-97000000I-271738J0D01*
G01*
G37*
G36*
G01*
X150973262Y-99050000D02*
X150016738Y-99050000D01*
G75*
G02*
X149745000Y-98778262I0J271738D01*
G01*
X149745000Y-98071738D01*
G75*
G02*
X150016738Y-97800000I271738J0D01*
G01*
X150973262Y-97800000D01*
G75*
G02*
X151245000Y-98071738I0J-271738D01*
G01*
X151245000Y-98778262D01*
G75*
G02*
X150973262Y-99050000I-271738J0D01*
G01*
G37*
%TD*%
%TO.C,C12*%
G36*
G01*
X181766738Y-88801000D02*
X182723262Y-88801000D01*
G75*
G02*
X182995000Y-89072738I0J-271738D01*
G01*
X182995000Y-89779262D01*
G75*
G02*
X182723262Y-90051000I-271738J0D01*
G01*
X181766738Y-90051000D01*
G75*
G02*
X181495000Y-89779262I0J271738D01*
G01*
X181495000Y-89072738D01*
G75*
G02*
X181766738Y-88801000I271738J0D01*
G01*
G37*
G36*
G01*
X181766738Y-86751000D02*
X182723262Y-86751000D01*
G75*
G02*
X182995000Y-87022738I0J-271738D01*
G01*
X182995000Y-87729262D01*
G75*
G02*
X182723262Y-88001000I-271738J0D01*
G01*
X181766738Y-88001000D01*
G75*
G02*
X181495000Y-87729262I0J271738D01*
G01*
X181495000Y-87022738D01*
G75*
G02*
X181766738Y-86751000I271738J0D01*
G01*
G37*
%TD*%
%TO.C,R2*%
G36*
G01*
X179187000Y-101629738D02*
X179187000Y-102586262D01*
G75*
G02*
X178915262Y-102858000I-271738J0D01*
G01*
X178208738Y-102858000D01*
G75*
G02*
X177937000Y-102586262I0J271738D01*
G01*
X177937000Y-101629738D01*
G75*
G02*
X178208738Y-101358000I271738J0D01*
G01*
X178915262Y-101358000D01*
G75*
G02*
X179187000Y-101629738I0J-271738D01*
G01*
G37*
G36*
G01*
X181237000Y-101629738D02*
X181237000Y-102586262D01*
G75*
G02*
X180965262Y-102858000I-271738J0D01*
G01*
X180258738Y-102858000D01*
G75*
G02*
X179987000Y-102586262I0J271738D01*
G01*
X179987000Y-101629738D01*
G75*
G02*
X180258738Y-101358000I271738J0D01*
G01*
X180965262Y-101358000D01*
G75*
G02*
X181237000Y-101629738I0J-271738D01*
G01*
G37*
%TD*%
%TO.C,R1*%
G36*
G01*
X179226738Y-88801000D02*
X180183262Y-88801000D01*
G75*
G02*
X180455000Y-89072738I0J-271738D01*
G01*
X180455000Y-89779262D01*
G75*
G02*
X180183262Y-90051000I-271738J0D01*
G01*
X179226738Y-90051000D01*
G75*
G02*
X178955000Y-89779262I0J271738D01*
G01*
X178955000Y-89072738D01*
G75*
G02*
X179226738Y-88801000I271738J0D01*
G01*
G37*
G36*
G01*
X179226738Y-86751000D02*
X180183262Y-86751000D01*
G75*
G02*
X180455000Y-87022738I0J-271738D01*
G01*
X180455000Y-87729262D01*
G75*
G02*
X180183262Y-88001000I-271738J0D01*
G01*
X179226738Y-88001000D01*
G75*
G02*
X178955000Y-87729262I0J271738D01*
G01*
X178955000Y-87022738D01*
G75*
G02*
X179226738Y-86751000I271738J0D01*
G01*
G37*
%TD*%
D24*
%TO.C,JP2*%
G36*
X183806398Y-102114111D02*
G01*
X183806398Y-102132534D01*
X183806157Y-102137435D01*
X183801347Y-102186266D01*
X183800627Y-102191119D01*
X183791055Y-102239244D01*
X183789863Y-102244005D01*
X183775619Y-102290960D01*
X183773966Y-102295579D01*
X183755189Y-102340912D01*
X183753091Y-102345349D01*
X183729960Y-102388622D01*
X183727438Y-102392829D01*
X183700178Y-102433628D01*
X183697254Y-102437570D01*
X183666126Y-102475499D01*
X183662831Y-102479134D01*
X183628134Y-102513831D01*
X183624499Y-102517126D01*
X183586570Y-102548254D01*
X183582628Y-102551178D01*
X183541829Y-102578438D01*
X183537622Y-102580960D01*
X183494349Y-102604091D01*
X183489912Y-102606189D01*
X183444579Y-102624966D01*
X183439960Y-102626619D01*
X183393005Y-102640863D01*
X183388244Y-102642055D01*
X183340119Y-102651627D01*
X183335266Y-102652347D01*
X183286435Y-102657157D01*
X183281534Y-102657398D01*
X183263111Y-102657398D01*
X183257000Y-102658000D01*
X182757000Y-102658000D01*
X182750889Y-102657398D01*
X182732466Y-102657398D01*
X182727565Y-102657157D01*
X182678734Y-102652347D01*
X182673881Y-102651627D01*
X182625756Y-102642055D01*
X182620995Y-102640863D01*
X182574040Y-102626619D01*
X182569421Y-102624966D01*
X182524088Y-102606189D01*
X182519651Y-102604091D01*
X182476378Y-102580960D01*
X182472171Y-102578438D01*
X182431372Y-102551178D01*
X182427430Y-102548254D01*
X182389501Y-102517126D01*
X182385866Y-102513831D01*
X182351169Y-102479134D01*
X182347874Y-102475499D01*
X182316746Y-102437570D01*
X182313822Y-102433628D01*
X182286562Y-102392829D01*
X182284040Y-102388622D01*
X182260909Y-102345349D01*
X182258811Y-102340912D01*
X182240034Y-102295579D01*
X182238381Y-102290960D01*
X182224137Y-102244005D01*
X182222945Y-102239244D01*
X182213373Y-102191119D01*
X182212653Y-102186266D01*
X182207843Y-102137435D01*
X182207602Y-102132534D01*
X182207602Y-102114111D01*
X182207000Y-102108000D01*
X182207000Y-101608000D01*
X182207961Y-101598245D01*
X182210806Y-101588866D01*
X182215427Y-101580221D01*
X182221645Y-101572645D01*
X182229221Y-101566427D01*
X182237866Y-101561806D01*
X182247245Y-101558961D01*
X182257000Y-101558000D01*
X183757000Y-101558000D01*
X183766755Y-101558961D01*
X183776134Y-101561806D01*
X183784779Y-101566427D01*
X183792355Y-101572645D01*
X183798573Y-101580221D01*
X183803194Y-101588866D01*
X183806039Y-101598245D01*
X183807000Y-101608000D01*
X183807000Y-102108000D01*
X183806398Y-102114111D01*
G37*
G36*
X183806039Y-101317755D02*
G01*
X183803194Y-101327134D01*
X183798573Y-101335779D01*
X183792355Y-101343355D01*
X183784779Y-101349573D01*
X183776134Y-101354194D01*
X183766755Y-101357039D01*
X183757000Y-101358000D01*
X182257000Y-101358000D01*
X182247245Y-101357039D01*
X182237866Y-101354194D01*
X182229221Y-101349573D01*
X182221645Y-101343355D01*
X182215427Y-101335779D01*
X182210806Y-101327134D01*
X182207961Y-101317755D01*
X182207000Y-101308000D01*
X182207000Y-100808000D01*
X182207602Y-100801889D01*
X182207602Y-100783466D01*
X182207843Y-100778565D01*
X182212653Y-100729734D01*
X182213373Y-100724881D01*
X182222945Y-100676756D01*
X182224137Y-100671995D01*
X182238381Y-100625040D01*
X182240034Y-100620421D01*
X182258811Y-100575088D01*
X182260909Y-100570651D01*
X182284040Y-100527378D01*
X182286562Y-100523171D01*
X182313822Y-100482372D01*
X182316746Y-100478430D01*
X182347874Y-100440501D01*
X182351169Y-100436866D01*
X182385866Y-100402169D01*
X182389501Y-100398874D01*
X182427430Y-100367746D01*
X182431372Y-100364822D01*
X182472171Y-100337562D01*
X182476378Y-100335040D01*
X182519651Y-100311909D01*
X182524088Y-100309811D01*
X182569421Y-100291034D01*
X182574040Y-100289381D01*
X182620995Y-100275137D01*
X182625756Y-100273945D01*
X182673881Y-100264373D01*
X182678734Y-100263653D01*
X182727565Y-100258843D01*
X182732466Y-100258602D01*
X182750889Y-100258602D01*
X182757000Y-100258000D01*
X183257000Y-100258000D01*
X183263111Y-100258602D01*
X183281534Y-100258602D01*
X183286435Y-100258843D01*
X183335266Y-100263653D01*
X183340119Y-100264373D01*
X183388244Y-100273945D01*
X183393005Y-100275137D01*
X183439960Y-100289381D01*
X183444579Y-100291034D01*
X183489912Y-100309811D01*
X183494349Y-100311909D01*
X183537622Y-100335040D01*
X183541829Y-100337562D01*
X183582628Y-100364822D01*
X183586570Y-100367746D01*
X183624499Y-100398874D01*
X183628134Y-100402169D01*
X183662831Y-100436866D01*
X183666126Y-100440501D01*
X183697254Y-100478430D01*
X183700178Y-100482372D01*
X183727438Y-100523171D01*
X183729960Y-100527378D01*
X183753091Y-100570651D01*
X183755189Y-100575088D01*
X183773966Y-100620421D01*
X183775619Y-100625040D01*
X183789863Y-100671995D01*
X183791055Y-100676756D01*
X183800627Y-100724881D01*
X183801347Y-100729734D01*
X183806157Y-100778565D01*
X183806398Y-100783466D01*
X183806398Y-100801889D01*
X183807000Y-100808000D01*
X183807000Y-101308000D01*
X183806039Y-101317755D01*
G37*
%TD*%
%TO.C,C8*%
G36*
G01*
X179187000Y-99597738D02*
X179187000Y-100554262D01*
G75*
G02*
X178915262Y-100826000I-271738J0D01*
G01*
X178208738Y-100826000D01*
G75*
G02*
X177937000Y-100554262I0J271738D01*
G01*
X177937000Y-99597738D01*
G75*
G02*
X178208738Y-99326000I271738J0D01*
G01*
X178915262Y-99326000D01*
G75*
G02*
X179187000Y-99597738I0J-271738D01*
G01*
G37*
G36*
G01*
X181237000Y-99597738D02*
X181237000Y-100554262D01*
G75*
G02*
X180965262Y-100826000I-271738J0D01*
G01*
X180258738Y-100826000D01*
G75*
G02*
X179987000Y-100554262I0J271738D01*
G01*
X179987000Y-99597738D01*
G75*
G02*
X180258738Y-99326000I271738J0D01*
G01*
X180965262Y-99326000D01*
G75*
G02*
X181237000Y-99597738I0J-271738D01*
G01*
G37*
%TD*%
%TO.C,C7*%
G36*
G01*
X176375000Y-92866738D02*
X176375000Y-93823262D01*
G75*
G02*
X176103262Y-94095000I-271738J0D01*
G01*
X175396738Y-94095000D01*
G75*
G02*
X175125000Y-93823262I0J271738D01*
G01*
X175125000Y-92866738D01*
G75*
G02*
X175396738Y-92595000I271738J0D01*
G01*
X176103262Y-92595000D01*
G75*
G02*
X176375000Y-92866738I0J-271738D01*
G01*
G37*
G36*
G01*
X178425000Y-92866738D02*
X178425000Y-93823262D01*
G75*
G02*
X178153262Y-94095000I-271738J0D01*
G01*
X177446738Y-94095000D01*
G75*
G02*
X177175000Y-93823262I0J271738D01*
G01*
X177175000Y-92866738D01*
G75*
G02*
X177446738Y-92595000I271738J0D01*
G01*
X178153262Y-92595000D01*
G75*
G02*
X178425000Y-92866738I0J-271738D01*
G01*
G37*
%TD*%
%TO.C,C3*%
G36*
G01*
X147475000Y-106160262D02*
X147475000Y-105203738D01*
G75*
G02*
X147746738Y-104932000I271738J0D01*
G01*
X148453262Y-104932000D01*
G75*
G02*
X148725000Y-105203738I0J-271738D01*
G01*
X148725000Y-106160262D01*
G75*
G02*
X148453262Y-106432000I-271738J0D01*
G01*
X147746738Y-106432000D01*
G75*
G02*
X147475000Y-106160262I0J271738D01*
G01*
G37*
G36*
G01*
X145425000Y-106160262D02*
X145425000Y-105203738D01*
G75*
G02*
X145696738Y-104932000I271738J0D01*
G01*
X146403262Y-104932000D01*
G75*
G02*
X146675000Y-105203738I0J-271738D01*
G01*
X146675000Y-106160262D01*
G75*
G02*
X146403262Y-106432000I-271738J0D01*
G01*
X145696738Y-106432000D01*
G75*
G02*
X145425000Y-106160262I0J271738D01*
G01*
G37*
%TD*%
%TO.C,C2*%
G36*
G01*
X146675000Y-96676738D02*
X146675000Y-97633262D01*
G75*
G02*
X146403262Y-97905000I-271738J0D01*
G01*
X145696738Y-97905000D01*
G75*
G02*
X145425000Y-97633262I0J271738D01*
G01*
X145425000Y-96676738D01*
G75*
G02*
X145696738Y-96405000I271738J0D01*
G01*
X146403262Y-96405000D01*
G75*
G02*
X146675000Y-96676738I0J-271738D01*
G01*
G37*
G36*
G01*
X148725000Y-96676738D02*
X148725000Y-97633262D01*
G75*
G02*
X148453262Y-97905000I-271738J0D01*
G01*
X147746738Y-97905000D01*
G75*
G02*
X147475000Y-97633262I0J271738D01*
G01*
X147475000Y-96676738D01*
G75*
G02*
X147746738Y-96405000I271738J0D01*
G01*
X148453262Y-96405000D01*
G75*
G02*
X148725000Y-96676738I0J-271738D01*
G01*
G37*
%TD*%
M02*
