%TF.GenerationSoftware,KiCad,Pcbnew,(5.1.6-0-10_14)*%
%TF.CreationDate,2021-05-10T19:57:21+02:00*%
%TF.ProjectId,GPS_adapter,4750535f-6164-4617-9074-65722e6b6963,rev?*%
%TF.SameCoordinates,Original*%
%TF.FileFunction,Legend,Top*%
%TF.FilePolarity,Positive*%
%FSLAX46Y46*%
G04 Gerber Fmt 4.6, Leading zero omitted, Abs format (unit mm)*
G04 Created by KiCad (PCBNEW (5.1.6-0-10_14)) date 2021-05-10 19:57:21*
%MOMM*%
%LPD*%
G01*
G04 APERTURE LIST*
%ADD10C,0.150000*%
G04 APERTURE END LIST*
D10*
X139501619Y-95083333D02*
X139977809Y-94750000D01*
X139501619Y-94511904D02*
X140501619Y-94511904D01*
X140501619Y-94892857D01*
X140454000Y-94988095D01*
X140406380Y-95035714D01*
X140311142Y-95083333D01*
X140168285Y-95083333D01*
X140073047Y-95035714D01*
X140025428Y-94988095D01*
X139977809Y-94892857D01*
X139977809Y-94511904D01*
X140501619Y-95416666D02*
X139501619Y-96083333D01*
X140501619Y-96083333D02*
X139501619Y-95416666D01*
X143041619Y-94488095D02*
X143041619Y-95059523D01*
X142041619Y-94773809D02*
X143041619Y-94773809D01*
X143041619Y-95297619D02*
X142041619Y-95964285D01*
X143041619Y-95964285D02*
X142041619Y-95297619D01*
X145534000Y-94996095D02*
X145581619Y-94900857D01*
X145581619Y-94758000D01*
X145534000Y-94615142D01*
X145438761Y-94519904D01*
X145343523Y-94472285D01*
X145153047Y-94424666D01*
X145010190Y-94424666D01*
X144819714Y-94472285D01*
X144724476Y-94519904D01*
X144629238Y-94615142D01*
X144581619Y-94758000D01*
X144581619Y-94853238D01*
X144629238Y-94996095D01*
X144676857Y-95043714D01*
X145010190Y-95043714D01*
X145010190Y-94853238D01*
X144581619Y-95472285D02*
X145581619Y-95472285D01*
X144581619Y-96043714D01*
X145581619Y-96043714D01*
X144581619Y-96519904D02*
X145581619Y-96519904D01*
X145581619Y-96758000D01*
X145534000Y-96900857D01*
X145438761Y-96996095D01*
X145343523Y-97043714D01*
X145153047Y-97091333D01*
X145010190Y-97091333D01*
X144819714Y-97043714D01*
X144724476Y-96996095D01*
X144629238Y-96900857D01*
X144581619Y-96758000D01*
X144581619Y-96519904D01*
X148121619Y-94424666D02*
X147121619Y-94758000D01*
X148121619Y-95091333D01*
X147216857Y-95996095D02*
X147169238Y-95948476D01*
X147121619Y-95805619D01*
X147121619Y-95710380D01*
X147169238Y-95567523D01*
X147264476Y-95472285D01*
X147359714Y-95424666D01*
X147550190Y-95377047D01*
X147693047Y-95377047D01*
X147883523Y-95424666D01*
X147978761Y-95472285D01*
X148074000Y-95567523D01*
X148121619Y-95710380D01*
X148121619Y-95805619D01*
X148074000Y-95948476D01*
X148026380Y-95996095D01*
X147216857Y-96996095D02*
X147169238Y-96948476D01*
X147121619Y-96805619D01*
X147121619Y-96710380D01*
X147169238Y-96567523D01*
X147264476Y-96472285D01*
X147359714Y-96424666D01*
X147550190Y-96377047D01*
X147693047Y-96377047D01*
X147883523Y-96424666D01*
X147978761Y-96472285D01*
X148074000Y-96567523D01*
X148121619Y-96710380D01*
X148121619Y-96805619D01*
X148074000Y-96948476D01*
X148026380Y-96996095D01*
M02*
