G04 #@! TF.GenerationSoftware,KiCad,Pcbnew,7.0.10*
G04 #@! TF.CreationDate,2024-03-22T18:32:09+01:00*
G04 #@! TF.ProjectId,dogs102,646f6773-3130-4322-9e6b-696361645f70,rev?*
G04 #@! TF.SameCoordinates,Original*
G04 #@! TF.FileFunction,Soldermask,Top*
G04 #@! TF.FilePolarity,Negative*
%FSLAX46Y46*%
G04 Gerber Fmt 4.6, Leading zero omitted, Abs format (unit mm)*
G04 Created by KiCad (PCBNEW 7.0.10) date 2024-03-22 18:32:09*
%MOMM*%
%LPD*%
G01*
G04 APERTURE LIST*
G04 Aperture macros list*
%AMRoundRect*
0 Rectangle with rounded corners*
0 $1 Rounding radius*
0 $2 $3 $4 $5 $6 $7 $8 $9 X,Y pos of 4 corners*
0 Add a 4 corners polygon primitive as box body*
4,1,4,$2,$3,$4,$5,$6,$7,$8,$9,$2,$3,0*
0 Add four circle primitives for the rounded corners*
1,1,$1+$1,$2,$3*
1,1,$1+$1,$4,$5*
1,1,$1+$1,$6,$7*
1,1,$1+$1,$8,$9*
0 Add four rect primitives between the rounded corners*
20,1,$1+$1,$2,$3,$4,$5,0*
20,1,$1+$1,$4,$5,$6,$7,0*
20,1,$1+$1,$6,$7,$8,$9,0*
20,1,$1+$1,$8,$9,$2,$3,0*%
G04 Aperture macros list end*
%ADD10C,0.900000*%
%ADD11RoundRect,0.250000X-0.250000X-0.725000X0.250000X-0.725000X0.250000X0.725000X-0.250000X0.725000X0*%
%ADD12RoundRect,0.333333X-0.466667X-0.766667X0.466667X-0.766667X0.466667X0.766667X-0.466667X0.766667X0*%
%ADD13RoundRect,0.347561X-0.364939X-0.552439X0.364939X-0.552439X0.364939X0.552439X-0.364939X0.552439X0*%
%ADD14C,2.600000*%
%ADD15C,2.400000*%
%ADD16C,2.020000*%
%ADD17C,1.680000*%
%ADD18RoundRect,0.305556X-1.144444X-0.794444X1.144444X-0.794444X1.144444X0.794444X-1.144444X0.794444X0*%
%ADD19RoundRect,0.343750X-0.343750X-0.556250X0.343750X-0.556250X0.343750X0.556250X-0.343750X0.556250X0*%
%ADD20RoundRect,0.312500X-1.387500X-0.687500X1.387500X-0.687500X1.387500X0.687500X-1.387500X0.687500X0*%
%ADD21RoundRect,0.343750X0.343750X0.556250X-0.343750X0.556250X-0.343750X-0.556250X0.343750X-0.556250X0*%
%ADD22RoundRect,0.350000X0.575000X-0.350000X0.575000X0.350000X-0.575000X0.350000X-0.575000X-0.350000X0*%
G04 APERTURE END LIST*
D10*
X190660000Y-126750000D03*
X189860000Y-126500000D03*
X189160000Y-126500000D03*
X188360000Y-126750000D03*
D11*
X210610000Y-111200000D03*
X211610000Y-111200000D03*
X212610000Y-111200000D03*
X213610000Y-111200000D03*
X214610000Y-111200000D03*
X215610000Y-111200000D03*
X216610000Y-111200000D03*
X217610000Y-111200000D03*
X218610000Y-111200000D03*
X219610000Y-111200000D03*
D12*
X209310000Y-115075000D03*
X220910000Y-115075000D03*
D13*
X181347500Y-100850000D03*
X183172500Y-100850000D03*
D10*
X229660000Y-126750000D03*
X228860000Y-126500000D03*
X228160000Y-126500000D03*
X227360000Y-126750000D03*
X188360000Y-82500000D03*
X189160000Y-82750000D03*
X189860000Y-82750000D03*
X190660000Y-82500000D03*
X227360000Y-82500000D03*
X228160000Y-82750000D03*
X228860000Y-82750000D03*
X229660000Y-82500000D03*
D14*
X234460000Y-85850000D03*
D15*
X232510000Y-123400000D03*
D16*
X235010000Y-120900000D03*
X230010000Y-123400000D03*
X235010000Y-125900000D03*
D13*
X186147500Y-100850000D03*
X187972500Y-100850000D03*
D14*
X183660000Y-123450000D03*
D17*
X192590000Y-124460000D03*
X195130000Y-124460000D03*
X223070000Y-124460000D03*
X225610000Y-124460000D03*
X225610000Y-86360000D03*
X223070000Y-86360000D03*
X220530000Y-86360000D03*
X217990000Y-86360000D03*
X215450000Y-86360000D03*
X212910000Y-86360000D03*
X210370000Y-86360000D03*
X207830000Y-86360000D03*
X205290000Y-86360000D03*
X202750000Y-86360000D03*
X200210000Y-86360000D03*
X197670000Y-86360000D03*
X195130000Y-86360000D03*
X192590000Y-86360000D03*
D18*
X231568000Y-99822000D03*
X235568000Y-99822000D03*
D19*
X231418000Y-104140000D03*
X233293000Y-104140000D03*
D20*
X231418000Y-94234000D03*
X235818000Y-94234000D03*
D21*
X209547500Y-89000000D03*
X207672500Y-89000000D03*
D22*
X215310000Y-91987500D03*
X215310000Y-90087500D03*
X225310000Y-91950000D03*
X225310000Y-90050000D03*
X220710000Y-91987500D03*
X220710000Y-90087500D03*
X158710000Y-91987500D03*
X158710000Y-90087500D03*
X163310000Y-91950000D03*
X163310000Y-90050000D03*
X153310000Y-91987500D03*
X153310000Y-90087500D03*
D21*
X147547500Y-89000000D03*
X145672500Y-89000000D03*
D20*
X169418000Y-94234000D03*
X173818000Y-94234000D03*
D19*
X169418000Y-104140000D03*
X171293000Y-104140000D03*
D18*
X169568000Y-99822000D03*
X173568000Y-99822000D03*
D17*
X130590000Y-124460000D03*
X133130000Y-124460000D03*
X161070000Y-124460000D03*
X163610000Y-124460000D03*
X163610000Y-86360000D03*
X161070000Y-86360000D03*
X158530000Y-86360000D03*
X155990000Y-86360000D03*
X153450000Y-86360000D03*
X150910000Y-86360000D03*
X148370000Y-86360000D03*
X145830000Y-86360000D03*
X143290000Y-86360000D03*
X140750000Y-86360000D03*
X138210000Y-86360000D03*
X135670000Y-86360000D03*
X133130000Y-86360000D03*
X130590000Y-86360000D03*
D15*
X170510000Y-123400000D03*
D16*
X173010000Y-120900000D03*
X168010000Y-123400000D03*
X173010000Y-125900000D03*
D14*
X172460000Y-85850000D03*
X121660000Y-123450000D03*
D13*
X124147500Y-100850000D03*
X125972500Y-100850000D03*
D10*
X165360000Y-82500000D03*
X166160000Y-82750000D03*
X166860000Y-82750000D03*
X167660000Y-82500000D03*
X126360000Y-82500000D03*
X127160000Y-82750000D03*
X127860000Y-82750000D03*
X128660000Y-82500000D03*
X167660000Y-126750000D03*
X166860000Y-126500000D03*
X166160000Y-126500000D03*
X165360000Y-126750000D03*
D13*
X119347500Y-100850000D03*
X121172500Y-100850000D03*
D11*
X148610000Y-111200000D03*
X149610000Y-111200000D03*
X150610000Y-111200000D03*
X151610000Y-111200000D03*
X152610000Y-111200000D03*
X153610000Y-111200000D03*
X154610000Y-111200000D03*
X155610000Y-111200000D03*
X156610000Y-111200000D03*
X157610000Y-111200000D03*
D12*
X147310000Y-115075000D03*
X158910000Y-115075000D03*
D10*
X128660000Y-126750000D03*
X127860000Y-126500000D03*
X127160000Y-126500000D03*
X126360000Y-126750000D03*
M02*
