G04 #@! TF.GenerationSoftware,KiCad,Pcbnew,7.0.10*
G04 #@! TF.CreationDate,2024-03-22T18:32:09+01:00*
G04 #@! TF.ProjectId,dogs102,646f6773-3130-4322-9e6b-696361645f70,rev?*
G04 #@! TF.SameCoordinates,Original*
G04 #@! TF.FileFunction,Legend,Top*
G04 #@! TF.FilePolarity,Positive*
%FSLAX46Y46*%
G04 Gerber Fmt 4.6, Leading zero omitted, Abs format (unit mm)*
G04 Created by KiCad (PCBNEW 7.0.10) date 2024-03-22 18:32:09*
%MOMM*%
%LPD*%
G01*
G04 APERTURE LIST*
%ADD10C,0.600000*%
%ADD11C,0.150000*%
%ADD12C,0.254000*%
%ADD13C,0.100000*%
%ADD14C,0.120000*%
G04 APERTURE END LIST*
D10*
X188588342Y-100680450D02*
X188588342Y-101251878D01*
X188588342Y-101251878D02*
X188445485Y-101537593D01*
X188445485Y-101537593D02*
X188159771Y-101823307D01*
X188159771Y-101823307D02*
X187588342Y-101966164D01*
X187588342Y-101966164D02*
X186588342Y-101966164D01*
X186588342Y-101966164D02*
X186016914Y-101823307D01*
X186016914Y-101823307D02*
X185731200Y-101537593D01*
X185731200Y-101537593D02*
X185588342Y-101251878D01*
X185588342Y-101251878D02*
X185588342Y-100680450D01*
X185588342Y-100680450D02*
X185731200Y-100394736D01*
X185731200Y-100394736D02*
X186016914Y-100109021D01*
X186016914Y-100109021D02*
X186588342Y-99966164D01*
X186588342Y-99966164D02*
X187588342Y-99966164D01*
X187588342Y-99966164D02*
X188159771Y-100109021D01*
X188159771Y-100109021D02*
X188445485Y-100394736D01*
X188445485Y-100394736D02*
X188588342Y-100680450D01*
X186445485Y-105394735D02*
X186445485Y-106823307D01*
X185588342Y-105109021D02*
X188588342Y-106109021D01*
X188588342Y-106109021D02*
X185588342Y-107109021D01*
X185588342Y-108109021D02*
X188588342Y-108109021D01*
X188588342Y-108109021D02*
X186445485Y-109109021D01*
X186445485Y-109109021D02*
X188588342Y-110109021D01*
X188588342Y-110109021D02*
X185588342Y-110109021D01*
X187159771Y-112537592D02*
X187016914Y-112966164D01*
X187016914Y-112966164D02*
X186874057Y-113109021D01*
X186874057Y-113109021D02*
X186588342Y-113251878D01*
X186588342Y-113251878D02*
X186159771Y-113251878D01*
X186159771Y-113251878D02*
X185874057Y-113109021D01*
X185874057Y-113109021D02*
X185731200Y-112966164D01*
X185731200Y-112966164D02*
X185588342Y-112680449D01*
X185588342Y-112680449D02*
X185588342Y-111537592D01*
X185588342Y-111537592D02*
X188588342Y-111537592D01*
X188588342Y-111537592D02*
X188588342Y-112537592D01*
X188588342Y-112537592D02*
X188445485Y-112823307D01*
X188445485Y-112823307D02*
X188302628Y-112966164D01*
X188302628Y-112966164D02*
X188016914Y-113109021D01*
X188016914Y-113109021D02*
X187731200Y-113109021D01*
X187731200Y-113109021D02*
X187445485Y-112966164D01*
X187445485Y-112966164D02*
X187302628Y-112823307D01*
X187302628Y-112823307D02*
X187159771Y-112537592D01*
X187159771Y-112537592D02*
X187159771Y-111537592D01*
X187159771Y-114537592D02*
X187159771Y-115537592D01*
X185588342Y-115966164D02*
X185588342Y-114537592D01*
X185588342Y-114537592D02*
X188588342Y-114537592D01*
X188588342Y-114537592D02*
X188588342Y-115966164D01*
X185588342Y-118966164D02*
X187016914Y-117966164D01*
X185588342Y-117251878D02*
X188588342Y-117251878D01*
X188588342Y-117251878D02*
X188588342Y-118394735D01*
X188588342Y-118394735D02*
X188445485Y-118680450D01*
X188445485Y-118680450D02*
X188302628Y-118823307D01*
X188302628Y-118823307D02*
X188016914Y-118966164D01*
X188016914Y-118966164D02*
X187588342Y-118966164D01*
X187588342Y-118966164D02*
X187302628Y-118823307D01*
X187302628Y-118823307D02*
X187159771Y-118680450D01*
X187159771Y-118680450D02*
X187016914Y-118394735D01*
X187016914Y-118394735D02*
X187016914Y-117251878D01*
X183758342Y-100680450D02*
X183758342Y-101251878D01*
X183758342Y-101251878D02*
X183615485Y-101537593D01*
X183615485Y-101537593D02*
X183329771Y-101823307D01*
X183329771Y-101823307D02*
X182758342Y-101966164D01*
X182758342Y-101966164D02*
X181758342Y-101966164D01*
X181758342Y-101966164D02*
X181186914Y-101823307D01*
X181186914Y-101823307D02*
X180901200Y-101537593D01*
X180901200Y-101537593D02*
X180758342Y-101251878D01*
X180758342Y-101251878D02*
X180758342Y-100680450D01*
X180758342Y-100680450D02*
X180901200Y-100394736D01*
X180901200Y-100394736D02*
X181186914Y-100109021D01*
X181186914Y-100109021D02*
X181758342Y-99966164D01*
X181758342Y-99966164D02*
X182758342Y-99966164D01*
X182758342Y-99966164D02*
X183329771Y-100109021D01*
X183329771Y-100109021D02*
X183615485Y-100394736D01*
X183615485Y-100394736D02*
X183758342Y-100680450D01*
X183758342Y-105251878D02*
X180758342Y-105966164D01*
X180758342Y-105966164D02*
X182901200Y-106537592D01*
X182901200Y-106537592D02*
X180758342Y-107109021D01*
X180758342Y-107109021D02*
X183758342Y-107823307D01*
X180758342Y-108966163D02*
X183758342Y-108966163D01*
X182329771Y-108966163D02*
X182329771Y-110680449D01*
X180758342Y-110680449D02*
X183758342Y-110680449D01*
X180758342Y-112109020D02*
X183758342Y-112109020D01*
X183758342Y-113109020D02*
X183758342Y-114823306D01*
X180758342Y-113966163D02*
X183758342Y-113966163D01*
X182329771Y-115823305D02*
X182329771Y-116823305D01*
X180758342Y-117251877D02*
X180758342Y-115823305D01*
X180758342Y-115823305D02*
X183758342Y-115823305D01*
X183758342Y-115823305D02*
X183758342Y-117251877D01*
X126588342Y-100680450D02*
X126588342Y-101251878D01*
X126588342Y-101251878D02*
X126445485Y-101537593D01*
X126445485Y-101537593D02*
X126159771Y-101823307D01*
X126159771Y-101823307D02*
X125588342Y-101966164D01*
X125588342Y-101966164D02*
X124588342Y-101966164D01*
X124588342Y-101966164D02*
X124016914Y-101823307D01*
X124016914Y-101823307D02*
X123731200Y-101537593D01*
X123731200Y-101537593D02*
X123588342Y-101251878D01*
X123588342Y-101251878D02*
X123588342Y-100680450D01*
X123588342Y-100680450D02*
X123731200Y-100394736D01*
X123731200Y-100394736D02*
X124016914Y-100109021D01*
X124016914Y-100109021D02*
X124588342Y-99966164D01*
X124588342Y-99966164D02*
X125588342Y-99966164D01*
X125588342Y-99966164D02*
X126159771Y-100109021D01*
X126159771Y-100109021D02*
X126445485Y-100394736D01*
X126445485Y-100394736D02*
X126588342Y-100680450D01*
X124445485Y-105394735D02*
X124445485Y-106823307D01*
X123588342Y-105109021D02*
X126588342Y-106109021D01*
X126588342Y-106109021D02*
X123588342Y-107109021D01*
X123588342Y-108109021D02*
X126588342Y-108109021D01*
X126588342Y-108109021D02*
X124445485Y-109109021D01*
X124445485Y-109109021D02*
X126588342Y-110109021D01*
X126588342Y-110109021D02*
X123588342Y-110109021D01*
X125159771Y-112537592D02*
X125016914Y-112966164D01*
X125016914Y-112966164D02*
X124874057Y-113109021D01*
X124874057Y-113109021D02*
X124588342Y-113251878D01*
X124588342Y-113251878D02*
X124159771Y-113251878D01*
X124159771Y-113251878D02*
X123874057Y-113109021D01*
X123874057Y-113109021D02*
X123731200Y-112966164D01*
X123731200Y-112966164D02*
X123588342Y-112680449D01*
X123588342Y-112680449D02*
X123588342Y-111537592D01*
X123588342Y-111537592D02*
X126588342Y-111537592D01*
X126588342Y-111537592D02*
X126588342Y-112537592D01*
X126588342Y-112537592D02*
X126445485Y-112823307D01*
X126445485Y-112823307D02*
X126302628Y-112966164D01*
X126302628Y-112966164D02*
X126016914Y-113109021D01*
X126016914Y-113109021D02*
X125731200Y-113109021D01*
X125731200Y-113109021D02*
X125445485Y-112966164D01*
X125445485Y-112966164D02*
X125302628Y-112823307D01*
X125302628Y-112823307D02*
X125159771Y-112537592D01*
X125159771Y-112537592D02*
X125159771Y-111537592D01*
X125159771Y-114537592D02*
X125159771Y-115537592D01*
X123588342Y-115966164D02*
X123588342Y-114537592D01*
X123588342Y-114537592D02*
X126588342Y-114537592D01*
X126588342Y-114537592D02*
X126588342Y-115966164D01*
X123588342Y-118966164D02*
X125016914Y-117966164D01*
X123588342Y-117251878D02*
X126588342Y-117251878D01*
X126588342Y-117251878D02*
X126588342Y-118394735D01*
X126588342Y-118394735D02*
X126445485Y-118680450D01*
X126445485Y-118680450D02*
X126302628Y-118823307D01*
X126302628Y-118823307D02*
X126016914Y-118966164D01*
X126016914Y-118966164D02*
X125588342Y-118966164D01*
X125588342Y-118966164D02*
X125302628Y-118823307D01*
X125302628Y-118823307D02*
X125159771Y-118680450D01*
X125159771Y-118680450D02*
X125016914Y-118394735D01*
X125016914Y-118394735D02*
X125016914Y-117251878D01*
X121758342Y-100680450D02*
X121758342Y-101251878D01*
X121758342Y-101251878D02*
X121615485Y-101537593D01*
X121615485Y-101537593D02*
X121329771Y-101823307D01*
X121329771Y-101823307D02*
X120758342Y-101966164D01*
X120758342Y-101966164D02*
X119758342Y-101966164D01*
X119758342Y-101966164D02*
X119186914Y-101823307D01*
X119186914Y-101823307D02*
X118901200Y-101537593D01*
X118901200Y-101537593D02*
X118758342Y-101251878D01*
X118758342Y-101251878D02*
X118758342Y-100680450D01*
X118758342Y-100680450D02*
X118901200Y-100394736D01*
X118901200Y-100394736D02*
X119186914Y-100109021D01*
X119186914Y-100109021D02*
X119758342Y-99966164D01*
X119758342Y-99966164D02*
X120758342Y-99966164D01*
X120758342Y-99966164D02*
X121329771Y-100109021D01*
X121329771Y-100109021D02*
X121615485Y-100394736D01*
X121615485Y-100394736D02*
X121758342Y-100680450D01*
X121758342Y-105251878D02*
X118758342Y-105966164D01*
X118758342Y-105966164D02*
X120901200Y-106537592D01*
X120901200Y-106537592D02*
X118758342Y-107109021D01*
X118758342Y-107109021D02*
X121758342Y-107823307D01*
X118758342Y-108966163D02*
X121758342Y-108966163D01*
X120329771Y-108966163D02*
X120329771Y-110680449D01*
X118758342Y-110680449D02*
X121758342Y-110680449D01*
X118758342Y-112109020D02*
X121758342Y-112109020D01*
X121758342Y-113109020D02*
X121758342Y-114823306D01*
X118758342Y-113966163D02*
X121758342Y-113966163D01*
X120329771Y-115823305D02*
X120329771Y-116823305D01*
X118758342Y-117251877D02*
X118758342Y-115823305D01*
X118758342Y-115823305D02*
X121758342Y-115823305D01*
X121758342Y-115823305D02*
X121758342Y-117251877D01*
D11*
X214776666Y-108674819D02*
X214776666Y-109389104D01*
X214776666Y-109389104D02*
X214729047Y-109531961D01*
X214729047Y-109531961D02*
X214633809Y-109627200D01*
X214633809Y-109627200D02*
X214490952Y-109674819D01*
X214490952Y-109674819D02*
X214395714Y-109674819D01*
X215205238Y-108770057D02*
X215252857Y-108722438D01*
X215252857Y-108722438D02*
X215348095Y-108674819D01*
X215348095Y-108674819D02*
X215586190Y-108674819D01*
X215586190Y-108674819D02*
X215681428Y-108722438D01*
X215681428Y-108722438D02*
X215729047Y-108770057D01*
X215729047Y-108770057D02*
X215776666Y-108865295D01*
X215776666Y-108865295D02*
X215776666Y-108960533D01*
X215776666Y-108960533D02*
X215729047Y-109103390D01*
X215729047Y-109103390D02*
X215157619Y-109674819D01*
X215157619Y-109674819D02*
X215776666Y-109674819D01*
X182093333Y-99654819D02*
X181760000Y-99178628D01*
X181521905Y-99654819D02*
X181521905Y-98654819D01*
X181521905Y-98654819D02*
X181902857Y-98654819D01*
X181902857Y-98654819D02*
X181998095Y-98702438D01*
X181998095Y-98702438D02*
X182045714Y-98750057D01*
X182045714Y-98750057D02*
X182093333Y-98845295D01*
X182093333Y-98845295D02*
X182093333Y-98988152D01*
X182093333Y-98988152D02*
X182045714Y-99083390D01*
X182045714Y-99083390D02*
X181998095Y-99131009D01*
X181998095Y-99131009D02*
X181902857Y-99178628D01*
X181902857Y-99178628D02*
X181521905Y-99178628D01*
X182950476Y-98988152D02*
X182950476Y-99654819D01*
X182712381Y-98607200D02*
X182474286Y-99321485D01*
X182474286Y-99321485D02*
X183093333Y-99321485D01*
X233698095Y-83104819D02*
X233698095Y-82104819D01*
X233698095Y-82581009D02*
X234269523Y-82581009D01*
X234269523Y-83104819D02*
X234269523Y-82104819D01*
X234888571Y-82533390D02*
X234793333Y-82485771D01*
X234793333Y-82485771D02*
X234745714Y-82438152D01*
X234745714Y-82438152D02*
X234698095Y-82342914D01*
X234698095Y-82342914D02*
X234698095Y-82295295D01*
X234698095Y-82295295D02*
X234745714Y-82200057D01*
X234745714Y-82200057D02*
X234793333Y-82152438D01*
X234793333Y-82152438D02*
X234888571Y-82104819D01*
X234888571Y-82104819D02*
X235079047Y-82104819D01*
X235079047Y-82104819D02*
X235174285Y-82152438D01*
X235174285Y-82152438D02*
X235221904Y-82200057D01*
X235221904Y-82200057D02*
X235269523Y-82295295D01*
X235269523Y-82295295D02*
X235269523Y-82342914D01*
X235269523Y-82342914D02*
X235221904Y-82438152D01*
X235221904Y-82438152D02*
X235174285Y-82485771D01*
X235174285Y-82485771D02*
X235079047Y-82533390D01*
X235079047Y-82533390D02*
X234888571Y-82533390D01*
X234888571Y-82533390D02*
X234793333Y-82581009D01*
X234793333Y-82581009D02*
X234745714Y-82628628D01*
X234745714Y-82628628D02*
X234698095Y-82723866D01*
X234698095Y-82723866D02*
X234698095Y-82914342D01*
X234698095Y-82914342D02*
X234745714Y-83009580D01*
X234745714Y-83009580D02*
X234793333Y-83057200D01*
X234793333Y-83057200D02*
X234888571Y-83104819D01*
X234888571Y-83104819D02*
X235079047Y-83104819D01*
X235079047Y-83104819D02*
X235174285Y-83057200D01*
X235174285Y-83057200D02*
X235221904Y-83009580D01*
X235221904Y-83009580D02*
X235269523Y-82914342D01*
X235269523Y-82914342D02*
X235269523Y-82723866D01*
X235269523Y-82723866D02*
X235221904Y-82628628D01*
X235221904Y-82628628D02*
X235174285Y-82581009D01*
X235174285Y-82581009D02*
X235079047Y-82533390D01*
X231914761Y-128414819D02*
X231581428Y-127938628D01*
X231343333Y-128414819D02*
X231343333Y-127414819D01*
X231343333Y-127414819D02*
X231724285Y-127414819D01*
X231724285Y-127414819D02*
X231819523Y-127462438D01*
X231819523Y-127462438D02*
X231867142Y-127510057D01*
X231867142Y-127510057D02*
X231914761Y-127605295D01*
X231914761Y-127605295D02*
X231914761Y-127748152D01*
X231914761Y-127748152D02*
X231867142Y-127843390D01*
X231867142Y-127843390D02*
X231819523Y-127891009D01*
X231819523Y-127891009D02*
X231724285Y-127938628D01*
X231724285Y-127938628D02*
X231343333Y-127938628D01*
X232200476Y-127414819D02*
X232533809Y-128414819D01*
X232533809Y-128414819D02*
X232867142Y-127414819D01*
X233152857Y-127510057D02*
X233200476Y-127462438D01*
X233200476Y-127462438D02*
X233295714Y-127414819D01*
X233295714Y-127414819D02*
X233533809Y-127414819D01*
X233533809Y-127414819D02*
X233629047Y-127462438D01*
X233629047Y-127462438D02*
X233676666Y-127510057D01*
X233676666Y-127510057D02*
X233724285Y-127605295D01*
X233724285Y-127605295D02*
X233724285Y-127700533D01*
X233724285Y-127700533D02*
X233676666Y-127843390D01*
X233676666Y-127843390D02*
X233105238Y-128414819D01*
X233105238Y-128414819D02*
X233724285Y-128414819D01*
X186893333Y-99654819D02*
X186560000Y-99178628D01*
X186321905Y-99654819D02*
X186321905Y-98654819D01*
X186321905Y-98654819D02*
X186702857Y-98654819D01*
X186702857Y-98654819D02*
X186798095Y-98702438D01*
X186798095Y-98702438D02*
X186845714Y-98750057D01*
X186845714Y-98750057D02*
X186893333Y-98845295D01*
X186893333Y-98845295D02*
X186893333Y-98988152D01*
X186893333Y-98988152D02*
X186845714Y-99083390D01*
X186845714Y-99083390D02*
X186798095Y-99131009D01*
X186798095Y-99131009D02*
X186702857Y-99178628D01*
X186702857Y-99178628D02*
X186321905Y-99178628D01*
X187226667Y-98654819D02*
X187845714Y-98654819D01*
X187845714Y-98654819D02*
X187512381Y-99035771D01*
X187512381Y-99035771D02*
X187655238Y-99035771D01*
X187655238Y-99035771D02*
X187750476Y-99083390D01*
X187750476Y-99083390D02*
X187798095Y-99131009D01*
X187798095Y-99131009D02*
X187845714Y-99226247D01*
X187845714Y-99226247D02*
X187845714Y-99464342D01*
X187845714Y-99464342D02*
X187798095Y-99559580D01*
X187798095Y-99559580D02*
X187750476Y-99607200D01*
X187750476Y-99607200D02*
X187655238Y-99654819D01*
X187655238Y-99654819D02*
X187369524Y-99654819D01*
X187369524Y-99654819D02*
X187274286Y-99607200D01*
X187274286Y-99607200D02*
X187226667Y-99559580D01*
X182898095Y-120704819D02*
X182898095Y-119704819D01*
X182898095Y-120181009D02*
X183469523Y-120181009D01*
X183469523Y-120704819D02*
X183469523Y-119704819D01*
X183850476Y-119704819D02*
X184517142Y-119704819D01*
X184517142Y-119704819D02*
X184088571Y-120704819D01*
D12*
X207104206Y-105999278D02*
X207104206Y-104729278D01*
X207104206Y-104729278D02*
X207406587Y-104729278D01*
X207406587Y-104729278D02*
X207588016Y-104789754D01*
X207588016Y-104789754D02*
X207708968Y-104910706D01*
X207708968Y-104910706D02*
X207769445Y-105031659D01*
X207769445Y-105031659D02*
X207829921Y-105273563D01*
X207829921Y-105273563D02*
X207829921Y-105454992D01*
X207829921Y-105454992D02*
X207769445Y-105696897D01*
X207769445Y-105696897D02*
X207708968Y-105817849D01*
X207708968Y-105817849D02*
X207588016Y-105938802D01*
X207588016Y-105938802D02*
X207406587Y-105999278D01*
X207406587Y-105999278D02*
X207104206Y-105999278D01*
X208313730Y-105938802D02*
X208495159Y-105999278D01*
X208495159Y-105999278D02*
X208797540Y-105999278D01*
X208797540Y-105999278D02*
X208918492Y-105938802D01*
X208918492Y-105938802D02*
X208978968Y-105878325D01*
X208978968Y-105878325D02*
X209039445Y-105757373D01*
X209039445Y-105757373D02*
X209039445Y-105636421D01*
X209039445Y-105636421D02*
X208978968Y-105515468D01*
X208978968Y-105515468D02*
X208918492Y-105454992D01*
X208918492Y-105454992D02*
X208797540Y-105394516D01*
X208797540Y-105394516D02*
X208555635Y-105334040D01*
X208555635Y-105334040D02*
X208434683Y-105273563D01*
X208434683Y-105273563D02*
X208374206Y-105213087D01*
X208374206Y-105213087D02*
X208313730Y-105092135D01*
X208313730Y-105092135D02*
X208313730Y-104971182D01*
X208313730Y-104971182D02*
X208374206Y-104850230D01*
X208374206Y-104850230D02*
X208434683Y-104789754D01*
X208434683Y-104789754D02*
X208555635Y-104729278D01*
X208555635Y-104729278D02*
X208858016Y-104729278D01*
X208858016Y-104729278D02*
X209039445Y-104789754D01*
X209523254Y-104850230D02*
X209583730Y-104789754D01*
X209583730Y-104789754D02*
X209704683Y-104729278D01*
X209704683Y-104729278D02*
X210007064Y-104729278D01*
X210007064Y-104729278D02*
X210128016Y-104789754D01*
X210128016Y-104789754D02*
X210188492Y-104850230D01*
X210188492Y-104850230D02*
X210248969Y-104971182D01*
X210248969Y-104971182D02*
X210248969Y-105092135D01*
X210248969Y-105092135D02*
X210188492Y-105273563D01*
X210188492Y-105273563D02*
X209462778Y-105999278D01*
X209462778Y-105999278D02*
X210248969Y-105999278D01*
D11*
X232829905Y-97776819D02*
X232829905Y-96776819D01*
X232829905Y-96776819D02*
X233068000Y-96776819D01*
X233068000Y-96776819D02*
X233210857Y-96824438D01*
X233210857Y-96824438D02*
X233306095Y-96919676D01*
X233306095Y-96919676D02*
X233353714Y-97014914D01*
X233353714Y-97014914D02*
X233401333Y-97205390D01*
X233401333Y-97205390D02*
X233401333Y-97348247D01*
X233401333Y-97348247D02*
X233353714Y-97538723D01*
X233353714Y-97538723D02*
X233306095Y-97633961D01*
X233306095Y-97633961D02*
X233210857Y-97729200D01*
X233210857Y-97729200D02*
X233068000Y-97776819D01*
X233068000Y-97776819D02*
X232829905Y-97776819D01*
X233782286Y-96872057D02*
X233829905Y-96824438D01*
X233829905Y-96824438D02*
X233925143Y-96776819D01*
X233925143Y-96776819D02*
X234163238Y-96776819D01*
X234163238Y-96776819D02*
X234258476Y-96824438D01*
X234258476Y-96824438D02*
X234306095Y-96872057D01*
X234306095Y-96872057D02*
X234353714Y-96967295D01*
X234353714Y-96967295D02*
X234353714Y-97062533D01*
X234353714Y-97062533D02*
X234306095Y-97205390D01*
X234306095Y-97205390D02*
X233734667Y-97776819D01*
X233734667Y-97776819D02*
X234353714Y-97776819D01*
X231712642Y-102849580D02*
X231665023Y-102897200D01*
X231665023Y-102897200D02*
X231522166Y-102944819D01*
X231522166Y-102944819D02*
X231426928Y-102944819D01*
X231426928Y-102944819D02*
X231284071Y-102897200D01*
X231284071Y-102897200D02*
X231188833Y-102801961D01*
X231188833Y-102801961D02*
X231141214Y-102706723D01*
X231141214Y-102706723D02*
X231093595Y-102516247D01*
X231093595Y-102516247D02*
X231093595Y-102373390D01*
X231093595Y-102373390D02*
X231141214Y-102182914D01*
X231141214Y-102182914D02*
X231188833Y-102087676D01*
X231188833Y-102087676D02*
X231284071Y-101992438D01*
X231284071Y-101992438D02*
X231426928Y-101944819D01*
X231426928Y-101944819D02*
X231522166Y-101944819D01*
X231522166Y-101944819D02*
X231665023Y-101992438D01*
X231665023Y-101992438D02*
X231712642Y-102040057D01*
X232665023Y-102944819D02*
X232093595Y-102944819D01*
X232379309Y-102944819D02*
X232379309Y-101944819D01*
X232379309Y-101944819D02*
X232284071Y-102087676D01*
X232284071Y-102087676D02*
X232188833Y-102182914D01*
X232188833Y-102182914D02*
X232093595Y-102230533D01*
X233045976Y-102040057D02*
X233093595Y-101992438D01*
X233093595Y-101992438D02*
X233188833Y-101944819D01*
X233188833Y-101944819D02*
X233426928Y-101944819D01*
X233426928Y-101944819D02*
X233522166Y-101992438D01*
X233522166Y-101992438D02*
X233569785Y-102040057D01*
X233569785Y-102040057D02*
X233617404Y-102135295D01*
X233617404Y-102135295D02*
X233617404Y-102230533D01*
X233617404Y-102230533D02*
X233569785Y-102373390D01*
X233569785Y-102373390D02*
X232998357Y-102944819D01*
X232998357Y-102944819D02*
X233617404Y-102944819D01*
X232975142Y-90893580D02*
X232927523Y-90941200D01*
X232927523Y-90941200D02*
X232784666Y-90988819D01*
X232784666Y-90988819D02*
X232689428Y-90988819D01*
X232689428Y-90988819D02*
X232546571Y-90941200D01*
X232546571Y-90941200D02*
X232451333Y-90845961D01*
X232451333Y-90845961D02*
X232403714Y-90750723D01*
X232403714Y-90750723D02*
X232356095Y-90560247D01*
X232356095Y-90560247D02*
X232356095Y-90417390D01*
X232356095Y-90417390D02*
X232403714Y-90226914D01*
X232403714Y-90226914D02*
X232451333Y-90131676D01*
X232451333Y-90131676D02*
X232546571Y-90036438D01*
X232546571Y-90036438D02*
X232689428Y-89988819D01*
X232689428Y-89988819D02*
X232784666Y-89988819D01*
X232784666Y-89988819D02*
X232927523Y-90036438D01*
X232927523Y-90036438D02*
X232975142Y-90084057D01*
X233927523Y-90988819D02*
X233356095Y-90988819D01*
X233641809Y-90988819D02*
X233641809Y-89988819D01*
X233641809Y-89988819D02*
X233546571Y-90131676D01*
X233546571Y-90131676D02*
X233451333Y-90226914D01*
X233451333Y-90226914D02*
X233356095Y-90274533D01*
X234879904Y-90988819D02*
X234308476Y-90988819D01*
X234594190Y-90988819D02*
X234594190Y-89988819D01*
X234594190Y-89988819D02*
X234498952Y-90131676D01*
X234498952Y-90131676D02*
X234403714Y-90226914D01*
X234403714Y-90226914D02*
X234308476Y-90274533D01*
X207967142Y-91009580D02*
X207919523Y-91057200D01*
X207919523Y-91057200D02*
X207776666Y-91104819D01*
X207776666Y-91104819D02*
X207681428Y-91104819D01*
X207681428Y-91104819D02*
X207538571Y-91057200D01*
X207538571Y-91057200D02*
X207443333Y-90961961D01*
X207443333Y-90961961D02*
X207395714Y-90866723D01*
X207395714Y-90866723D02*
X207348095Y-90676247D01*
X207348095Y-90676247D02*
X207348095Y-90533390D01*
X207348095Y-90533390D02*
X207395714Y-90342914D01*
X207395714Y-90342914D02*
X207443333Y-90247676D01*
X207443333Y-90247676D02*
X207538571Y-90152438D01*
X207538571Y-90152438D02*
X207681428Y-90104819D01*
X207681428Y-90104819D02*
X207776666Y-90104819D01*
X207776666Y-90104819D02*
X207919523Y-90152438D01*
X207919523Y-90152438D02*
X207967142Y-90200057D01*
X208919523Y-91104819D02*
X208348095Y-91104819D01*
X208633809Y-91104819D02*
X208633809Y-90104819D01*
X208633809Y-90104819D02*
X208538571Y-90247676D01*
X208538571Y-90247676D02*
X208443333Y-90342914D01*
X208443333Y-90342914D02*
X208348095Y-90390533D01*
X209538571Y-90104819D02*
X209633809Y-90104819D01*
X209633809Y-90104819D02*
X209729047Y-90152438D01*
X209729047Y-90152438D02*
X209776666Y-90200057D01*
X209776666Y-90200057D02*
X209824285Y-90295295D01*
X209824285Y-90295295D02*
X209871904Y-90485771D01*
X209871904Y-90485771D02*
X209871904Y-90723866D01*
X209871904Y-90723866D02*
X209824285Y-90914342D01*
X209824285Y-90914342D02*
X209776666Y-91009580D01*
X209776666Y-91009580D02*
X209729047Y-91057200D01*
X209729047Y-91057200D02*
X209633809Y-91104819D01*
X209633809Y-91104819D02*
X209538571Y-91104819D01*
X209538571Y-91104819D02*
X209443333Y-91057200D01*
X209443333Y-91057200D02*
X209395714Y-91009580D01*
X209395714Y-91009580D02*
X209348095Y-90914342D01*
X209348095Y-90914342D02*
X209300476Y-90723866D01*
X209300476Y-90723866D02*
X209300476Y-90485771D01*
X209300476Y-90485771D02*
X209348095Y-90295295D01*
X209348095Y-90295295D02*
X209395714Y-90200057D01*
X209395714Y-90200057D02*
X209443333Y-90152438D01*
X209443333Y-90152438D02*
X209538571Y-90104819D01*
X213989580Y-91204166D02*
X214037200Y-91251785D01*
X214037200Y-91251785D02*
X214084819Y-91394642D01*
X214084819Y-91394642D02*
X214084819Y-91489880D01*
X214084819Y-91489880D02*
X214037200Y-91632737D01*
X214037200Y-91632737D02*
X213941961Y-91727975D01*
X213941961Y-91727975D02*
X213846723Y-91775594D01*
X213846723Y-91775594D02*
X213656247Y-91823213D01*
X213656247Y-91823213D02*
X213513390Y-91823213D01*
X213513390Y-91823213D02*
X213322914Y-91775594D01*
X213322914Y-91775594D02*
X213227676Y-91727975D01*
X213227676Y-91727975D02*
X213132438Y-91632737D01*
X213132438Y-91632737D02*
X213084819Y-91489880D01*
X213084819Y-91489880D02*
X213084819Y-91394642D01*
X213084819Y-91394642D02*
X213132438Y-91251785D01*
X213132438Y-91251785D02*
X213180057Y-91204166D01*
X213084819Y-90299404D02*
X213084819Y-90775594D01*
X213084819Y-90775594D02*
X213561009Y-90823213D01*
X213561009Y-90823213D02*
X213513390Y-90775594D01*
X213513390Y-90775594D02*
X213465771Y-90680356D01*
X213465771Y-90680356D02*
X213465771Y-90442261D01*
X213465771Y-90442261D02*
X213513390Y-90347023D01*
X213513390Y-90347023D02*
X213561009Y-90299404D01*
X213561009Y-90299404D02*
X213656247Y-90251785D01*
X213656247Y-90251785D02*
X213894342Y-90251785D01*
X213894342Y-90251785D02*
X213989580Y-90299404D01*
X213989580Y-90299404D02*
X214037200Y-90347023D01*
X214037200Y-90347023D02*
X214084819Y-90442261D01*
X214084819Y-90442261D02*
X214084819Y-90680356D01*
X214084819Y-90680356D02*
X214037200Y-90775594D01*
X214037200Y-90775594D02*
X213989580Y-90823213D01*
X223989580Y-91166666D02*
X224037200Y-91214285D01*
X224037200Y-91214285D02*
X224084819Y-91357142D01*
X224084819Y-91357142D02*
X224084819Y-91452380D01*
X224084819Y-91452380D02*
X224037200Y-91595237D01*
X224037200Y-91595237D02*
X223941961Y-91690475D01*
X223941961Y-91690475D02*
X223846723Y-91738094D01*
X223846723Y-91738094D02*
X223656247Y-91785713D01*
X223656247Y-91785713D02*
X223513390Y-91785713D01*
X223513390Y-91785713D02*
X223322914Y-91738094D01*
X223322914Y-91738094D02*
X223227676Y-91690475D01*
X223227676Y-91690475D02*
X223132438Y-91595237D01*
X223132438Y-91595237D02*
X223084819Y-91452380D01*
X223084819Y-91452380D02*
X223084819Y-91357142D01*
X223084819Y-91357142D02*
X223132438Y-91214285D01*
X223132438Y-91214285D02*
X223180057Y-91166666D01*
X223084819Y-90833332D02*
X223084819Y-90166666D01*
X223084819Y-90166666D02*
X224084819Y-90595237D01*
X219389580Y-91204166D02*
X219437200Y-91251785D01*
X219437200Y-91251785D02*
X219484819Y-91394642D01*
X219484819Y-91394642D02*
X219484819Y-91489880D01*
X219484819Y-91489880D02*
X219437200Y-91632737D01*
X219437200Y-91632737D02*
X219341961Y-91727975D01*
X219341961Y-91727975D02*
X219246723Y-91775594D01*
X219246723Y-91775594D02*
X219056247Y-91823213D01*
X219056247Y-91823213D02*
X218913390Y-91823213D01*
X218913390Y-91823213D02*
X218722914Y-91775594D01*
X218722914Y-91775594D02*
X218627676Y-91727975D01*
X218627676Y-91727975D02*
X218532438Y-91632737D01*
X218532438Y-91632737D02*
X218484819Y-91489880D01*
X218484819Y-91489880D02*
X218484819Y-91394642D01*
X218484819Y-91394642D02*
X218532438Y-91251785D01*
X218532438Y-91251785D02*
X218580057Y-91204166D01*
X218484819Y-90347023D02*
X218484819Y-90537499D01*
X218484819Y-90537499D02*
X218532438Y-90632737D01*
X218532438Y-90632737D02*
X218580057Y-90680356D01*
X218580057Y-90680356D02*
X218722914Y-90775594D01*
X218722914Y-90775594D02*
X218913390Y-90823213D01*
X218913390Y-90823213D02*
X219294342Y-90823213D01*
X219294342Y-90823213D02*
X219389580Y-90775594D01*
X219389580Y-90775594D02*
X219437200Y-90727975D01*
X219437200Y-90727975D02*
X219484819Y-90632737D01*
X219484819Y-90632737D02*
X219484819Y-90442261D01*
X219484819Y-90442261D02*
X219437200Y-90347023D01*
X219437200Y-90347023D02*
X219389580Y-90299404D01*
X219389580Y-90299404D02*
X219294342Y-90251785D01*
X219294342Y-90251785D02*
X219056247Y-90251785D01*
X219056247Y-90251785D02*
X218961009Y-90299404D01*
X218961009Y-90299404D02*
X218913390Y-90347023D01*
X218913390Y-90347023D02*
X218865771Y-90442261D01*
X218865771Y-90442261D02*
X218865771Y-90632737D01*
X218865771Y-90632737D02*
X218913390Y-90727975D01*
X218913390Y-90727975D02*
X218961009Y-90775594D01*
X218961009Y-90775594D02*
X219056247Y-90823213D01*
X157389580Y-91204166D02*
X157437200Y-91251785D01*
X157437200Y-91251785D02*
X157484819Y-91394642D01*
X157484819Y-91394642D02*
X157484819Y-91489880D01*
X157484819Y-91489880D02*
X157437200Y-91632737D01*
X157437200Y-91632737D02*
X157341961Y-91727975D01*
X157341961Y-91727975D02*
X157246723Y-91775594D01*
X157246723Y-91775594D02*
X157056247Y-91823213D01*
X157056247Y-91823213D02*
X156913390Y-91823213D01*
X156913390Y-91823213D02*
X156722914Y-91775594D01*
X156722914Y-91775594D02*
X156627676Y-91727975D01*
X156627676Y-91727975D02*
X156532438Y-91632737D01*
X156532438Y-91632737D02*
X156484819Y-91489880D01*
X156484819Y-91489880D02*
X156484819Y-91394642D01*
X156484819Y-91394642D02*
X156532438Y-91251785D01*
X156532438Y-91251785D02*
X156580057Y-91204166D01*
X156580057Y-90823213D02*
X156532438Y-90775594D01*
X156532438Y-90775594D02*
X156484819Y-90680356D01*
X156484819Y-90680356D02*
X156484819Y-90442261D01*
X156484819Y-90442261D02*
X156532438Y-90347023D01*
X156532438Y-90347023D02*
X156580057Y-90299404D01*
X156580057Y-90299404D02*
X156675295Y-90251785D01*
X156675295Y-90251785D02*
X156770533Y-90251785D01*
X156770533Y-90251785D02*
X156913390Y-90299404D01*
X156913390Y-90299404D02*
X157484819Y-90870832D01*
X157484819Y-90870832D02*
X157484819Y-90251785D01*
X161989580Y-91166666D02*
X162037200Y-91214285D01*
X162037200Y-91214285D02*
X162084819Y-91357142D01*
X162084819Y-91357142D02*
X162084819Y-91452380D01*
X162084819Y-91452380D02*
X162037200Y-91595237D01*
X162037200Y-91595237D02*
X161941961Y-91690475D01*
X161941961Y-91690475D02*
X161846723Y-91738094D01*
X161846723Y-91738094D02*
X161656247Y-91785713D01*
X161656247Y-91785713D02*
X161513390Y-91785713D01*
X161513390Y-91785713D02*
X161322914Y-91738094D01*
X161322914Y-91738094D02*
X161227676Y-91690475D01*
X161227676Y-91690475D02*
X161132438Y-91595237D01*
X161132438Y-91595237D02*
X161084819Y-91452380D01*
X161084819Y-91452380D02*
X161084819Y-91357142D01*
X161084819Y-91357142D02*
X161132438Y-91214285D01*
X161132438Y-91214285D02*
X161180057Y-91166666D01*
X161084819Y-90833332D02*
X161084819Y-90214285D01*
X161084819Y-90214285D02*
X161465771Y-90547618D01*
X161465771Y-90547618D02*
X161465771Y-90404761D01*
X161465771Y-90404761D02*
X161513390Y-90309523D01*
X161513390Y-90309523D02*
X161561009Y-90261904D01*
X161561009Y-90261904D02*
X161656247Y-90214285D01*
X161656247Y-90214285D02*
X161894342Y-90214285D01*
X161894342Y-90214285D02*
X161989580Y-90261904D01*
X161989580Y-90261904D02*
X162037200Y-90309523D01*
X162037200Y-90309523D02*
X162084819Y-90404761D01*
X162084819Y-90404761D02*
X162084819Y-90690475D01*
X162084819Y-90690475D02*
X162037200Y-90785713D01*
X162037200Y-90785713D02*
X161989580Y-90833332D01*
X151989580Y-91204166D02*
X152037200Y-91251785D01*
X152037200Y-91251785D02*
X152084819Y-91394642D01*
X152084819Y-91394642D02*
X152084819Y-91489880D01*
X152084819Y-91489880D02*
X152037200Y-91632737D01*
X152037200Y-91632737D02*
X151941961Y-91727975D01*
X151941961Y-91727975D02*
X151846723Y-91775594D01*
X151846723Y-91775594D02*
X151656247Y-91823213D01*
X151656247Y-91823213D02*
X151513390Y-91823213D01*
X151513390Y-91823213D02*
X151322914Y-91775594D01*
X151322914Y-91775594D02*
X151227676Y-91727975D01*
X151227676Y-91727975D02*
X151132438Y-91632737D01*
X151132438Y-91632737D02*
X151084819Y-91489880D01*
X151084819Y-91489880D02*
X151084819Y-91394642D01*
X151084819Y-91394642D02*
X151132438Y-91251785D01*
X151132438Y-91251785D02*
X151180057Y-91204166D01*
X152084819Y-90251785D02*
X152084819Y-90823213D01*
X152084819Y-90537499D02*
X151084819Y-90537499D01*
X151084819Y-90537499D02*
X151227676Y-90632737D01*
X151227676Y-90632737D02*
X151322914Y-90727975D01*
X151322914Y-90727975D02*
X151370533Y-90823213D01*
X146443333Y-91009580D02*
X146395714Y-91057200D01*
X146395714Y-91057200D02*
X146252857Y-91104819D01*
X146252857Y-91104819D02*
X146157619Y-91104819D01*
X146157619Y-91104819D02*
X146014762Y-91057200D01*
X146014762Y-91057200D02*
X145919524Y-90961961D01*
X145919524Y-90961961D02*
X145871905Y-90866723D01*
X145871905Y-90866723D02*
X145824286Y-90676247D01*
X145824286Y-90676247D02*
X145824286Y-90533390D01*
X145824286Y-90533390D02*
X145871905Y-90342914D01*
X145871905Y-90342914D02*
X145919524Y-90247676D01*
X145919524Y-90247676D02*
X146014762Y-90152438D01*
X146014762Y-90152438D02*
X146157619Y-90104819D01*
X146157619Y-90104819D02*
X146252857Y-90104819D01*
X146252857Y-90104819D02*
X146395714Y-90152438D01*
X146395714Y-90152438D02*
X146443333Y-90200057D01*
X147300476Y-90438152D02*
X147300476Y-91104819D01*
X147062381Y-90057200D02*
X146824286Y-90771485D01*
X146824286Y-90771485D02*
X147443333Y-90771485D01*
X171451333Y-90893580D02*
X171403714Y-90941200D01*
X171403714Y-90941200D02*
X171260857Y-90988819D01*
X171260857Y-90988819D02*
X171165619Y-90988819D01*
X171165619Y-90988819D02*
X171022762Y-90941200D01*
X171022762Y-90941200D02*
X170927524Y-90845961D01*
X170927524Y-90845961D02*
X170879905Y-90750723D01*
X170879905Y-90750723D02*
X170832286Y-90560247D01*
X170832286Y-90560247D02*
X170832286Y-90417390D01*
X170832286Y-90417390D02*
X170879905Y-90226914D01*
X170879905Y-90226914D02*
X170927524Y-90131676D01*
X170927524Y-90131676D02*
X171022762Y-90036438D01*
X171022762Y-90036438D02*
X171165619Y-89988819D01*
X171165619Y-89988819D02*
X171260857Y-89988819D01*
X171260857Y-89988819D02*
X171403714Y-90036438D01*
X171403714Y-90036438D02*
X171451333Y-90084057D01*
X172022762Y-90417390D02*
X171927524Y-90369771D01*
X171927524Y-90369771D02*
X171879905Y-90322152D01*
X171879905Y-90322152D02*
X171832286Y-90226914D01*
X171832286Y-90226914D02*
X171832286Y-90179295D01*
X171832286Y-90179295D02*
X171879905Y-90084057D01*
X171879905Y-90084057D02*
X171927524Y-90036438D01*
X171927524Y-90036438D02*
X172022762Y-89988819D01*
X172022762Y-89988819D02*
X172213238Y-89988819D01*
X172213238Y-89988819D02*
X172308476Y-90036438D01*
X172308476Y-90036438D02*
X172356095Y-90084057D01*
X172356095Y-90084057D02*
X172403714Y-90179295D01*
X172403714Y-90179295D02*
X172403714Y-90226914D01*
X172403714Y-90226914D02*
X172356095Y-90322152D01*
X172356095Y-90322152D02*
X172308476Y-90369771D01*
X172308476Y-90369771D02*
X172213238Y-90417390D01*
X172213238Y-90417390D02*
X172022762Y-90417390D01*
X172022762Y-90417390D02*
X171927524Y-90465009D01*
X171927524Y-90465009D02*
X171879905Y-90512628D01*
X171879905Y-90512628D02*
X171832286Y-90607866D01*
X171832286Y-90607866D02*
X171832286Y-90798342D01*
X171832286Y-90798342D02*
X171879905Y-90893580D01*
X171879905Y-90893580D02*
X171927524Y-90941200D01*
X171927524Y-90941200D02*
X172022762Y-90988819D01*
X172022762Y-90988819D02*
X172213238Y-90988819D01*
X172213238Y-90988819D02*
X172308476Y-90941200D01*
X172308476Y-90941200D02*
X172356095Y-90893580D01*
X172356095Y-90893580D02*
X172403714Y-90798342D01*
X172403714Y-90798342D02*
X172403714Y-90607866D01*
X172403714Y-90607866D02*
X172356095Y-90512628D01*
X172356095Y-90512628D02*
X172308476Y-90465009D01*
X172308476Y-90465009D02*
X172213238Y-90417390D01*
X170188833Y-102849580D02*
X170141214Y-102897200D01*
X170141214Y-102897200D02*
X169998357Y-102944819D01*
X169998357Y-102944819D02*
X169903119Y-102944819D01*
X169903119Y-102944819D02*
X169760262Y-102897200D01*
X169760262Y-102897200D02*
X169665024Y-102801961D01*
X169665024Y-102801961D02*
X169617405Y-102706723D01*
X169617405Y-102706723D02*
X169569786Y-102516247D01*
X169569786Y-102516247D02*
X169569786Y-102373390D01*
X169569786Y-102373390D02*
X169617405Y-102182914D01*
X169617405Y-102182914D02*
X169665024Y-102087676D01*
X169665024Y-102087676D02*
X169760262Y-101992438D01*
X169760262Y-101992438D02*
X169903119Y-101944819D01*
X169903119Y-101944819D02*
X169998357Y-101944819D01*
X169998357Y-101944819D02*
X170141214Y-101992438D01*
X170141214Y-101992438D02*
X170188833Y-102040057D01*
X170665024Y-102944819D02*
X170855500Y-102944819D01*
X170855500Y-102944819D02*
X170950738Y-102897200D01*
X170950738Y-102897200D02*
X170998357Y-102849580D01*
X170998357Y-102849580D02*
X171093595Y-102706723D01*
X171093595Y-102706723D02*
X171141214Y-102516247D01*
X171141214Y-102516247D02*
X171141214Y-102135295D01*
X171141214Y-102135295D02*
X171093595Y-102040057D01*
X171093595Y-102040057D02*
X171045976Y-101992438D01*
X171045976Y-101992438D02*
X170950738Y-101944819D01*
X170950738Y-101944819D02*
X170760262Y-101944819D01*
X170760262Y-101944819D02*
X170665024Y-101992438D01*
X170665024Y-101992438D02*
X170617405Y-102040057D01*
X170617405Y-102040057D02*
X170569786Y-102135295D01*
X170569786Y-102135295D02*
X170569786Y-102373390D01*
X170569786Y-102373390D02*
X170617405Y-102468628D01*
X170617405Y-102468628D02*
X170665024Y-102516247D01*
X170665024Y-102516247D02*
X170760262Y-102563866D01*
X170760262Y-102563866D02*
X170950738Y-102563866D01*
X170950738Y-102563866D02*
X171045976Y-102516247D01*
X171045976Y-102516247D02*
X171093595Y-102468628D01*
X171093595Y-102468628D02*
X171141214Y-102373390D01*
X170829905Y-97776819D02*
X170829905Y-96776819D01*
X170829905Y-96776819D02*
X171068000Y-96776819D01*
X171068000Y-96776819D02*
X171210857Y-96824438D01*
X171210857Y-96824438D02*
X171306095Y-96919676D01*
X171306095Y-96919676D02*
X171353714Y-97014914D01*
X171353714Y-97014914D02*
X171401333Y-97205390D01*
X171401333Y-97205390D02*
X171401333Y-97348247D01*
X171401333Y-97348247D02*
X171353714Y-97538723D01*
X171353714Y-97538723D02*
X171306095Y-97633961D01*
X171306095Y-97633961D02*
X171210857Y-97729200D01*
X171210857Y-97729200D02*
X171068000Y-97776819D01*
X171068000Y-97776819D02*
X170829905Y-97776819D01*
X172353714Y-97776819D02*
X171782286Y-97776819D01*
X172068000Y-97776819D02*
X172068000Y-96776819D01*
X172068000Y-96776819D02*
X171972762Y-96919676D01*
X171972762Y-96919676D02*
X171877524Y-97014914D01*
X171877524Y-97014914D02*
X171782286Y-97062533D01*
D12*
X145104206Y-105999278D02*
X145104206Y-104729278D01*
X145104206Y-104729278D02*
X145406587Y-104729278D01*
X145406587Y-104729278D02*
X145588016Y-104789754D01*
X145588016Y-104789754D02*
X145708968Y-104910706D01*
X145708968Y-104910706D02*
X145769445Y-105031659D01*
X145769445Y-105031659D02*
X145829921Y-105273563D01*
X145829921Y-105273563D02*
X145829921Y-105454992D01*
X145829921Y-105454992D02*
X145769445Y-105696897D01*
X145769445Y-105696897D02*
X145708968Y-105817849D01*
X145708968Y-105817849D02*
X145588016Y-105938802D01*
X145588016Y-105938802D02*
X145406587Y-105999278D01*
X145406587Y-105999278D02*
X145104206Y-105999278D01*
X146313730Y-105938802D02*
X146495159Y-105999278D01*
X146495159Y-105999278D02*
X146797540Y-105999278D01*
X146797540Y-105999278D02*
X146918492Y-105938802D01*
X146918492Y-105938802D02*
X146978968Y-105878325D01*
X146978968Y-105878325D02*
X147039445Y-105757373D01*
X147039445Y-105757373D02*
X147039445Y-105636421D01*
X147039445Y-105636421D02*
X146978968Y-105515468D01*
X146978968Y-105515468D02*
X146918492Y-105454992D01*
X146918492Y-105454992D02*
X146797540Y-105394516D01*
X146797540Y-105394516D02*
X146555635Y-105334040D01*
X146555635Y-105334040D02*
X146434683Y-105273563D01*
X146434683Y-105273563D02*
X146374206Y-105213087D01*
X146374206Y-105213087D02*
X146313730Y-105092135D01*
X146313730Y-105092135D02*
X146313730Y-104971182D01*
X146313730Y-104971182D02*
X146374206Y-104850230D01*
X146374206Y-104850230D02*
X146434683Y-104789754D01*
X146434683Y-104789754D02*
X146555635Y-104729278D01*
X146555635Y-104729278D02*
X146858016Y-104729278D01*
X146858016Y-104729278D02*
X147039445Y-104789754D01*
X148248969Y-105999278D02*
X147523254Y-105999278D01*
X147886111Y-105999278D02*
X147886111Y-104729278D01*
X147886111Y-104729278D02*
X147765159Y-104910706D01*
X147765159Y-104910706D02*
X147644207Y-105031659D01*
X147644207Y-105031659D02*
X147523254Y-105092135D01*
D11*
X169914761Y-128414819D02*
X169581428Y-127938628D01*
X169343333Y-128414819D02*
X169343333Y-127414819D01*
X169343333Y-127414819D02*
X169724285Y-127414819D01*
X169724285Y-127414819D02*
X169819523Y-127462438D01*
X169819523Y-127462438D02*
X169867142Y-127510057D01*
X169867142Y-127510057D02*
X169914761Y-127605295D01*
X169914761Y-127605295D02*
X169914761Y-127748152D01*
X169914761Y-127748152D02*
X169867142Y-127843390D01*
X169867142Y-127843390D02*
X169819523Y-127891009D01*
X169819523Y-127891009D02*
X169724285Y-127938628D01*
X169724285Y-127938628D02*
X169343333Y-127938628D01*
X170200476Y-127414819D02*
X170533809Y-128414819D01*
X170533809Y-128414819D02*
X170867142Y-127414819D01*
X171724285Y-128414819D02*
X171152857Y-128414819D01*
X171438571Y-128414819D02*
X171438571Y-127414819D01*
X171438571Y-127414819D02*
X171343333Y-127557676D01*
X171343333Y-127557676D02*
X171248095Y-127652914D01*
X171248095Y-127652914D02*
X171152857Y-127700533D01*
X171698095Y-83104819D02*
X171698095Y-82104819D01*
X171698095Y-82581009D02*
X172269523Y-82581009D01*
X172269523Y-83104819D02*
X172269523Y-82104819D01*
X172698095Y-82200057D02*
X172745714Y-82152438D01*
X172745714Y-82152438D02*
X172840952Y-82104819D01*
X172840952Y-82104819D02*
X173079047Y-82104819D01*
X173079047Y-82104819D02*
X173174285Y-82152438D01*
X173174285Y-82152438D02*
X173221904Y-82200057D01*
X173221904Y-82200057D02*
X173269523Y-82295295D01*
X173269523Y-82295295D02*
X173269523Y-82390533D01*
X173269523Y-82390533D02*
X173221904Y-82533390D01*
X173221904Y-82533390D02*
X172650476Y-83104819D01*
X172650476Y-83104819D02*
X173269523Y-83104819D01*
X120898095Y-120704819D02*
X120898095Y-119704819D01*
X120898095Y-120181009D02*
X121469523Y-120181009D01*
X121469523Y-120704819D02*
X121469523Y-119704819D01*
X122469523Y-120704819D02*
X121898095Y-120704819D01*
X122183809Y-120704819D02*
X122183809Y-119704819D01*
X122183809Y-119704819D02*
X122088571Y-119847676D01*
X122088571Y-119847676D02*
X121993333Y-119942914D01*
X121993333Y-119942914D02*
X121898095Y-119990533D01*
X124893333Y-99654819D02*
X124560000Y-99178628D01*
X124321905Y-99654819D02*
X124321905Y-98654819D01*
X124321905Y-98654819D02*
X124702857Y-98654819D01*
X124702857Y-98654819D02*
X124798095Y-98702438D01*
X124798095Y-98702438D02*
X124845714Y-98750057D01*
X124845714Y-98750057D02*
X124893333Y-98845295D01*
X124893333Y-98845295D02*
X124893333Y-98988152D01*
X124893333Y-98988152D02*
X124845714Y-99083390D01*
X124845714Y-99083390D02*
X124798095Y-99131009D01*
X124798095Y-99131009D02*
X124702857Y-99178628D01*
X124702857Y-99178628D02*
X124321905Y-99178628D01*
X125845714Y-99654819D02*
X125274286Y-99654819D01*
X125560000Y-99654819D02*
X125560000Y-98654819D01*
X125560000Y-98654819D02*
X125464762Y-98797676D01*
X125464762Y-98797676D02*
X125369524Y-98892914D01*
X125369524Y-98892914D02*
X125274286Y-98940533D01*
X120093333Y-99654819D02*
X119760000Y-99178628D01*
X119521905Y-99654819D02*
X119521905Y-98654819D01*
X119521905Y-98654819D02*
X119902857Y-98654819D01*
X119902857Y-98654819D02*
X119998095Y-98702438D01*
X119998095Y-98702438D02*
X120045714Y-98750057D01*
X120045714Y-98750057D02*
X120093333Y-98845295D01*
X120093333Y-98845295D02*
X120093333Y-98988152D01*
X120093333Y-98988152D02*
X120045714Y-99083390D01*
X120045714Y-99083390D02*
X119998095Y-99131009D01*
X119998095Y-99131009D02*
X119902857Y-99178628D01*
X119902857Y-99178628D02*
X119521905Y-99178628D01*
X120474286Y-98750057D02*
X120521905Y-98702438D01*
X120521905Y-98702438D02*
X120617143Y-98654819D01*
X120617143Y-98654819D02*
X120855238Y-98654819D01*
X120855238Y-98654819D02*
X120950476Y-98702438D01*
X120950476Y-98702438D02*
X120998095Y-98750057D01*
X120998095Y-98750057D02*
X121045714Y-98845295D01*
X121045714Y-98845295D02*
X121045714Y-98940533D01*
X121045714Y-98940533D02*
X120998095Y-99083390D01*
X120998095Y-99083390D02*
X120426667Y-99654819D01*
X120426667Y-99654819D02*
X121045714Y-99654819D01*
X152776666Y-108674819D02*
X152776666Y-109389104D01*
X152776666Y-109389104D02*
X152729047Y-109531961D01*
X152729047Y-109531961D02*
X152633809Y-109627200D01*
X152633809Y-109627200D02*
X152490952Y-109674819D01*
X152490952Y-109674819D02*
X152395714Y-109674819D01*
X153776666Y-109674819D02*
X153205238Y-109674819D01*
X153490952Y-109674819D02*
X153490952Y-108674819D01*
X153490952Y-108674819D02*
X153395714Y-108817676D01*
X153395714Y-108817676D02*
X153300476Y-108912914D01*
X153300476Y-108912914D02*
X153205238Y-108960533D01*
D13*
X191010000Y-127000000D02*
G75*
G03*
X191010000Y-128000000I0J-500000D01*
G01*
X188010000Y-128000000D02*
G75*
G03*
X188010000Y-127000000I0J500000D01*
G01*
D14*
X209000000Y-111415000D02*
X210050000Y-111415000D01*
X209000000Y-113915000D02*
X209000000Y-111415000D01*
X210050000Y-111415000D02*
X210050000Y-110425000D01*
X210170000Y-115885000D02*
X220050000Y-115885000D01*
X221220000Y-111415000D02*
X220170000Y-111415000D01*
X221220000Y-113915000D02*
X221220000Y-111415000D01*
X182032936Y-100115000D02*
X182487064Y-100115000D01*
X182032936Y-101585000D02*
X182487064Y-101585000D01*
D13*
X230010000Y-127000000D02*
G75*
G03*
X230010000Y-128000000I0J-500000D01*
G01*
X227010000Y-128000000D02*
G75*
G03*
X227010000Y-127000000I0J500000D01*
G01*
X188010000Y-82250000D02*
G75*
G03*
X188010000Y-81250000I0J500000D01*
G01*
X191010000Y-81250000D02*
G75*
G03*
X191010000Y-82250000I0J-500000D01*
G01*
X227010000Y-82250000D02*
G75*
G03*
X227010000Y-81250000I0J500000D01*
G01*
X230010000Y-81250000D02*
G75*
G03*
X230010000Y-82250000I0J-500000D01*
G01*
D14*
X235423999Y-124884000D02*
G75*
G03*
X235423387Y-121914798I-2913999J1484000D01*
G01*
X229418000Y-124464000D02*
G75*
G03*
X233993968Y-126313829I3092000J1064000D01*
G01*
X233995000Y-120486000D02*
G75*
G03*
X232453137Y-120129925I-1485000J-2914000D01*
G01*
X232510000Y-120130000D02*
G75*
G03*
X229418154Y-122335392I0J-3270000D01*
G01*
X186832936Y-100115000D02*
X187287064Y-100115000D01*
X186832936Y-101585000D02*
X187287064Y-101585000D01*
D12*
X189600000Y-86360000D02*
X189600000Y-124460000D01*
X196100000Y-124460000D02*
X222100000Y-124460000D01*
X228600000Y-86360000D02*
X228600000Y-124460000D01*
D14*
X230058000Y-98172000D02*
X230058000Y-101472000D01*
X230058000Y-98172000D02*
X235568000Y-98172000D01*
X230058000Y-101472000D02*
X235568000Y-101472000D01*
X232096922Y-103430000D02*
X232614078Y-103430000D01*
X232096922Y-104850000D02*
X232614078Y-104850000D01*
X229993000Y-92549000D02*
X230618000Y-92549000D01*
X230305500Y-92236500D02*
X230305500Y-92861500D01*
X230858000Y-92538437D02*
X230858000Y-93174000D01*
X230858000Y-92538437D02*
X231922437Y-91474000D01*
X230858000Y-95929563D02*
X230858000Y-95294000D01*
X230858000Y-95929563D02*
X231922437Y-96994000D01*
X231922437Y-91474000D02*
X236378000Y-91474000D01*
X231922437Y-96994000D02*
X236378000Y-96994000D01*
X236378000Y-91474000D02*
X236378000Y-93174000D01*
X236378000Y-96994000D02*
X236378000Y-95294000D01*
X208868578Y-89710000D02*
X208351422Y-89710000D01*
X208868578Y-88290000D02*
X208351422Y-88290000D01*
X214575000Y-91298752D02*
X214575000Y-90776248D01*
X216045000Y-91298752D02*
X216045000Y-90776248D01*
X224575000Y-91261252D02*
X224575000Y-90738748D01*
X226045000Y-91261252D02*
X226045000Y-90738748D01*
X219975000Y-91298752D02*
X219975000Y-90776248D01*
X221445000Y-91298752D02*
X221445000Y-90776248D01*
X157975000Y-91298752D02*
X157975000Y-90776248D01*
X159445000Y-91298752D02*
X159445000Y-90776248D01*
X162575000Y-91261252D02*
X162575000Y-90738748D01*
X164045000Y-91261252D02*
X164045000Y-90738748D01*
X152575000Y-91298752D02*
X152575000Y-90776248D01*
X154045000Y-91298752D02*
X154045000Y-90776248D01*
X146868578Y-89710000D02*
X146351422Y-89710000D01*
X146868578Y-88290000D02*
X146351422Y-88290000D01*
X167993000Y-92549000D02*
X168618000Y-92549000D01*
X168305500Y-92236500D02*
X168305500Y-92861500D01*
X168858000Y-92538437D02*
X168858000Y-93174000D01*
X168858000Y-92538437D02*
X169922437Y-91474000D01*
X168858000Y-95929563D02*
X168858000Y-95294000D01*
X168858000Y-95929563D02*
X169922437Y-96994000D01*
X169922437Y-91474000D02*
X174378000Y-91474000D01*
X169922437Y-96994000D02*
X174378000Y-96994000D01*
X174378000Y-91474000D02*
X174378000Y-93174000D01*
X174378000Y-96994000D02*
X174378000Y-95294000D01*
X170096922Y-103430000D02*
X170614078Y-103430000D01*
X170096922Y-104850000D02*
X170614078Y-104850000D01*
X168058000Y-98172000D02*
X168058000Y-101472000D01*
X168058000Y-98172000D02*
X173568000Y-98172000D01*
X168058000Y-101472000D02*
X173568000Y-101472000D01*
D12*
X127600000Y-86360000D02*
X127600000Y-124460000D01*
X134100000Y-124460000D02*
X160100000Y-124460000D01*
X166600000Y-86360000D02*
X166600000Y-124460000D01*
D14*
X173423999Y-124884000D02*
G75*
G03*
X173423387Y-121914798I-2913999J1484000D01*
G01*
X167418000Y-124464000D02*
G75*
G03*
X171993968Y-126313829I3092000J1064000D01*
G01*
X171995000Y-120486000D02*
G75*
G03*
X170453137Y-120129925I-1485000J-2914000D01*
G01*
X170510000Y-120130000D02*
G75*
G03*
X167418154Y-122335392I0J-3270000D01*
G01*
X124832936Y-100115000D02*
X125287064Y-100115000D01*
X124832936Y-101585000D02*
X125287064Y-101585000D01*
D13*
X165010000Y-82250000D02*
G75*
G03*
X165010000Y-81250000I0J500000D01*
G01*
X168010000Y-81250000D02*
G75*
G03*
X168010000Y-82250000I0J-500000D01*
G01*
X126010000Y-82250000D02*
G75*
G03*
X126010000Y-81250000I0J500000D01*
G01*
X129010000Y-81250000D02*
G75*
G03*
X129010000Y-82250000I0J-500000D01*
G01*
X168010000Y-127000000D02*
G75*
G03*
X168010000Y-128000000I0J-500000D01*
G01*
X165010000Y-128000000D02*
G75*
G03*
X165010000Y-127000000I0J500000D01*
G01*
D14*
X120032936Y-100115000D02*
X120487064Y-100115000D01*
X120032936Y-101585000D02*
X120487064Y-101585000D01*
X147000000Y-111415000D02*
X148050000Y-111415000D01*
X147000000Y-113915000D02*
X147000000Y-111415000D01*
X148050000Y-111415000D02*
X148050000Y-110425000D01*
X148170000Y-115885000D02*
X158050000Y-115885000D01*
X159220000Y-111415000D02*
X158170000Y-111415000D01*
X159220000Y-113915000D02*
X159220000Y-111415000D01*
D13*
X129010000Y-127000000D02*
G75*
G03*
X129010000Y-128000000I0J-500000D01*
G01*
X126010000Y-128000000D02*
G75*
G03*
X126010000Y-127000000I0J500000D01*
G01*
M02*
