G04 #@! TF.GenerationSoftware,KiCad,Pcbnew,(5.1.6-0-10_14)*
G04 #@! TF.CreationDate,2021-08-09T12:52:48+02:00*
G04 #@! TF.ProjectId,dogs102,646f6773-3130-4322-9e6b-696361645f70,rev?*
G04 #@! TF.SameCoordinates,Original*
G04 #@! TF.FileFunction,Legend,Top*
G04 #@! TF.FilePolarity,Positive*
%FSLAX46Y46*%
G04 Gerber Fmt 4.6, Leading zero omitted, Abs format (unit mm)*
G04 Created by KiCad (PCBNEW (5.1.6-0-10_14)) date 2021-08-09 12:52:48*
%MOMM*%
%LPD*%
G01*
G04 APERTURE LIST*
%ADD10C,0.120000*%
%ADD11C,0.254000*%
%ADD12C,0.150000*%
G04 APERTURE END LIST*
D10*
X140790000Y-107108000D02*
X140790000Y-102108000D01*
X153850000Y-105108000D02*
X153850000Y-99108000D01*
X164157922Y-123138000D02*
X164675078Y-123138000D01*
X164157922Y-121718000D02*
X164675078Y-121718000D01*
X131266000Y-121338078D02*
X131266000Y-120820922D01*
X129846000Y-121338078D02*
X129846000Y-120820922D01*
X160842000Y-112208000D02*
X160842000Y-113538000D01*
X159512000Y-112208000D02*
X160842000Y-112208000D01*
X158242000Y-112208000D02*
X158242000Y-114868000D01*
X158242000Y-114868000D02*
X135322000Y-114868000D01*
X158242000Y-112208000D02*
X135322000Y-112208000D01*
X135322000Y-112208000D02*
X135322000Y-114868000D01*
X168018000Y-97672000D02*
X173718000Y-97672000D01*
X168018000Y-101972000D02*
X173718000Y-101972000D01*
X168018000Y-97672000D02*
X168018000Y-101972000D01*
X170096922Y-104850000D02*
X170614078Y-104850000D01*
X170096922Y-103430000D02*
X170614078Y-103430000D01*
X168305500Y-92236500D02*
X168305500Y-92861500D01*
X167993000Y-92549000D02*
X168618000Y-92549000D01*
X168858000Y-95929563D02*
X169922437Y-96994000D01*
X168858000Y-92538437D02*
X169922437Y-91474000D01*
X168858000Y-92538437D02*
X168858000Y-93174000D01*
X168858000Y-95929563D02*
X168858000Y-95294000D01*
X169922437Y-96994000D02*
X174378000Y-96994000D01*
X169922437Y-91474000D02*
X174378000Y-91474000D01*
X174378000Y-91474000D02*
X174378000Y-93174000D01*
X174378000Y-96994000D02*
X174378000Y-95294000D01*
X164232000Y-91410064D02*
X164232000Y-90205936D01*
X162412000Y-91410064D02*
X162412000Y-90205936D01*
X159152000Y-91410064D02*
X159152000Y-90205936D01*
X157332000Y-91410064D02*
X157332000Y-90205936D01*
X159872000Y-90205936D02*
X159872000Y-91410064D01*
X161692000Y-90205936D02*
X161692000Y-91410064D01*
X119242000Y-90570000D02*
X125252000Y-90570000D01*
X121492000Y-97390000D02*
X125252000Y-97390000D01*
X125252000Y-90570000D02*
X125252000Y-91830000D01*
X125252000Y-97390000D02*
X125252000Y-96130000D01*
D11*
X134066000Y-124460000D02*
X160066000Y-124460000D01*
X166566000Y-86360000D02*
X166566000Y-124460000D01*
X127566000Y-86360000D02*
X127566000Y-124460000D01*
D10*
X119537500Y-85124500D02*
X119537500Y-85749500D01*
X119225000Y-85437000D02*
X119850000Y-85437000D01*
X120090000Y-88817563D02*
X121154437Y-89882000D01*
X120090000Y-85426437D02*
X121154437Y-84362000D01*
X120090000Y-85426437D02*
X120090000Y-86062000D01*
X120090000Y-88817563D02*
X120090000Y-88182000D01*
X121154437Y-89882000D02*
X125610000Y-89882000D01*
X121154437Y-84362000D02*
X125610000Y-84362000D01*
X125610000Y-84362000D02*
X125610000Y-86062000D01*
X125610000Y-89882000D02*
X125610000Y-88182000D01*
X119537500Y-98586500D02*
X119537500Y-99211500D01*
X119225000Y-98899000D02*
X119850000Y-98899000D01*
X120090000Y-102279563D02*
X121154437Y-103344000D01*
X120090000Y-98888437D02*
X121154437Y-97824000D01*
X120090000Y-98888437D02*
X120090000Y-99524000D01*
X120090000Y-102279563D02*
X120090000Y-101644000D01*
X121154437Y-103344000D02*
X125610000Y-103344000D01*
X121154437Y-97824000D02*
X125610000Y-97824000D01*
X125610000Y-97824000D02*
X125610000Y-99524000D01*
X125610000Y-103344000D02*
X125610000Y-101644000D01*
X138600922Y-108025000D02*
X139118078Y-108025000D01*
X138600922Y-106605000D02*
X139118078Y-106605000D01*
X147500078Y-87682000D02*
X146982922Y-87682000D01*
X147500078Y-89102000D02*
X146982922Y-89102000D01*
D12*
X139352380Y-106559904D02*
X140161904Y-106559904D01*
X140257142Y-106512285D01*
X140304761Y-106464666D01*
X140352380Y-106369428D01*
X140352380Y-106178952D01*
X140304761Y-106083714D01*
X140257142Y-106036095D01*
X140161904Y-105988476D01*
X139352380Y-105988476D01*
X140352380Y-104988476D02*
X140352380Y-105559904D01*
X140352380Y-105274190D02*
X139352380Y-105274190D01*
X139495238Y-105369428D01*
X139590476Y-105464666D01*
X139638095Y-105559904D01*
X171704095Y-82104380D02*
X171704095Y-81104380D01*
X171704095Y-81580571D02*
X172275523Y-81580571D01*
X172275523Y-82104380D02*
X172275523Y-81104380D01*
X172704095Y-81199619D02*
X172751714Y-81152000D01*
X172846952Y-81104380D01*
X173085047Y-81104380D01*
X173180285Y-81152000D01*
X173227904Y-81199619D01*
X173275523Y-81294857D01*
X173275523Y-81390095D01*
X173227904Y-81532952D01*
X172656476Y-82104380D01*
X173275523Y-82104380D01*
X120904095Y-119696380D02*
X120904095Y-118696380D01*
X120904095Y-119172571D02*
X121475523Y-119172571D01*
X121475523Y-119696380D02*
X121475523Y-118696380D01*
X122475523Y-119696380D02*
X121904095Y-119696380D01*
X122189809Y-119696380D02*
X122189809Y-118696380D01*
X122094571Y-118839238D01*
X121999333Y-118934476D01*
X121904095Y-118982095D01*
X164249833Y-121230380D02*
X163916500Y-120754190D01*
X163678404Y-121230380D02*
X163678404Y-120230380D01*
X164059357Y-120230380D01*
X164154595Y-120278000D01*
X164202214Y-120325619D01*
X164249833Y-120420857D01*
X164249833Y-120563714D01*
X164202214Y-120658952D01*
X164154595Y-120706571D01*
X164059357Y-120754190D01*
X163678404Y-120754190D01*
X164630785Y-120325619D02*
X164678404Y-120278000D01*
X164773642Y-120230380D01*
X165011738Y-120230380D01*
X165106976Y-120278000D01*
X165154595Y-120325619D01*
X165202214Y-120420857D01*
X165202214Y-120516095D01*
X165154595Y-120658952D01*
X164583166Y-121230380D01*
X165202214Y-121230380D01*
X129358380Y-121246166D02*
X128882190Y-121579500D01*
X129358380Y-121817595D02*
X128358380Y-121817595D01*
X128358380Y-121436642D01*
X128406000Y-121341404D01*
X128453619Y-121293785D01*
X128548857Y-121246166D01*
X128691714Y-121246166D01*
X128786952Y-121293785D01*
X128834571Y-121341404D01*
X128882190Y-121436642D01*
X128882190Y-121817595D01*
X129358380Y-120293785D02*
X129358380Y-120865214D01*
X129358380Y-120579500D02*
X128358380Y-120579500D01*
X128501238Y-120674738D01*
X128596476Y-120769976D01*
X128644095Y-120865214D01*
X161294380Y-113871333D02*
X162008666Y-113871333D01*
X162151523Y-113918952D01*
X162246761Y-114014190D01*
X162294380Y-114157047D01*
X162294380Y-114252285D01*
X162294380Y-112871333D02*
X162294380Y-113442761D01*
X162294380Y-113157047D02*
X161294380Y-113157047D01*
X161437238Y-113252285D01*
X161532476Y-113347523D01*
X161580095Y-113442761D01*
X170829904Y-97274380D02*
X170829904Y-96274380D01*
X171068000Y-96274380D01*
X171210857Y-96322000D01*
X171306095Y-96417238D01*
X171353714Y-96512476D01*
X171401333Y-96702952D01*
X171401333Y-96845809D01*
X171353714Y-97036285D01*
X171306095Y-97131523D01*
X171210857Y-97226761D01*
X171068000Y-97274380D01*
X170829904Y-97274380D01*
X172353714Y-97274380D02*
X171782285Y-97274380D01*
X172068000Y-97274380D02*
X172068000Y-96274380D01*
X171972761Y-96417238D01*
X171877523Y-96512476D01*
X171782285Y-96560095D01*
X170188833Y-102847142D02*
X170141214Y-102894761D01*
X169998357Y-102942380D01*
X169903119Y-102942380D01*
X169760261Y-102894761D01*
X169665023Y-102799523D01*
X169617404Y-102704285D01*
X169569785Y-102513809D01*
X169569785Y-102370952D01*
X169617404Y-102180476D01*
X169665023Y-102085238D01*
X169760261Y-101990000D01*
X169903119Y-101942380D01*
X169998357Y-101942380D01*
X170141214Y-101990000D01*
X170188833Y-102037619D01*
X170665023Y-102942380D02*
X170855500Y-102942380D01*
X170950738Y-102894761D01*
X170998357Y-102847142D01*
X171093595Y-102704285D01*
X171141214Y-102513809D01*
X171141214Y-102132857D01*
X171093595Y-102037619D01*
X171045976Y-101990000D01*
X170950738Y-101942380D01*
X170760261Y-101942380D01*
X170665023Y-101990000D01*
X170617404Y-102037619D01*
X170569785Y-102132857D01*
X170569785Y-102370952D01*
X170617404Y-102466190D01*
X170665023Y-102513809D01*
X170760261Y-102561428D01*
X170950738Y-102561428D01*
X171045976Y-102513809D01*
X171093595Y-102466190D01*
X171141214Y-102370952D01*
X171451333Y-90891142D02*
X171403714Y-90938761D01*
X171260857Y-90986380D01*
X171165619Y-90986380D01*
X171022761Y-90938761D01*
X170927523Y-90843523D01*
X170879904Y-90748285D01*
X170832285Y-90557809D01*
X170832285Y-90414952D01*
X170879904Y-90224476D01*
X170927523Y-90129238D01*
X171022761Y-90034000D01*
X171165619Y-89986380D01*
X171260857Y-89986380D01*
X171403714Y-90034000D01*
X171451333Y-90081619D01*
X172022761Y-90414952D02*
X171927523Y-90367333D01*
X171879904Y-90319714D01*
X171832285Y-90224476D01*
X171832285Y-90176857D01*
X171879904Y-90081619D01*
X171927523Y-90034000D01*
X172022761Y-89986380D01*
X172213238Y-89986380D01*
X172308476Y-90034000D01*
X172356095Y-90081619D01*
X172403714Y-90176857D01*
X172403714Y-90224476D01*
X172356095Y-90319714D01*
X172308476Y-90367333D01*
X172213238Y-90414952D01*
X172022761Y-90414952D01*
X171927523Y-90462571D01*
X171879904Y-90510190D01*
X171832285Y-90605428D01*
X171832285Y-90795904D01*
X171879904Y-90891142D01*
X171927523Y-90938761D01*
X172022761Y-90986380D01*
X172213238Y-90986380D01*
X172308476Y-90938761D01*
X172356095Y-90891142D01*
X172403714Y-90795904D01*
X172403714Y-90605428D01*
X172356095Y-90510190D01*
X172308476Y-90462571D01*
X172213238Y-90414952D01*
X161859142Y-90974666D02*
X161906761Y-91022285D01*
X161954380Y-91165142D01*
X161954380Y-91260380D01*
X161906761Y-91403238D01*
X161811523Y-91498476D01*
X161716285Y-91546095D01*
X161525809Y-91593714D01*
X161382952Y-91593714D01*
X161192476Y-91546095D01*
X161097238Y-91498476D01*
X161002000Y-91403238D01*
X160954380Y-91260380D01*
X160954380Y-91165142D01*
X161002000Y-91022285D01*
X161049619Y-90974666D01*
X160954380Y-90641333D02*
X160954380Y-90022285D01*
X161335333Y-90355619D01*
X161335333Y-90212761D01*
X161382952Y-90117523D01*
X161430571Y-90069904D01*
X161525809Y-90022285D01*
X161763904Y-90022285D01*
X161859142Y-90069904D01*
X161906761Y-90117523D01*
X161954380Y-90212761D01*
X161954380Y-90498476D01*
X161906761Y-90593714D01*
X161859142Y-90641333D01*
X156779142Y-90974666D02*
X156826761Y-91022285D01*
X156874380Y-91165142D01*
X156874380Y-91260380D01*
X156826761Y-91403238D01*
X156731523Y-91498476D01*
X156636285Y-91546095D01*
X156445809Y-91593714D01*
X156302952Y-91593714D01*
X156112476Y-91546095D01*
X156017238Y-91498476D01*
X155922000Y-91403238D01*
X155874380Y-91260380D01*
X155874380Y-91165142D01*
X155922000Y-91022285D01*
X155969619Y-90974666D01*
X155969619Y-90593714D02*
X155922000Y-90546095D01*
X155874380Y-90450857D01*
X155874380Y-90212761D01*
X155922000Y-90117523D01*
X155969619Y-90069904D01*
X156064857Y-90022285D01*
X156160095Y-90022285D01*
X156302952Y-90069904D01*
X156874380Y-90641333D01*
X156874380Y-90022285D01*
X162959142Y-90974666D02*
X163006761Y-91022285D01*
X163054380Y-91165142D01*
X163054380Y-91260380D01*
X163006761Y-91403238D01*
X162911523Y-91498476D01*
X162816285Y-91546095D01*
X162625809Y-91593714D01*
X162482952Y-91593714D01*
X162292476Y-91546095D01*
X162197238Y-91498476D01*
X162102000Y-91403238D01*
X162054380Y-91260380D01*
X162054380Y-91165142D01*
X162102000Y-91022285D01*
X162149619Y-90974666D01*
X163054380Y-90022285D02*
X163054380Y-90593714D01*
X163054380Y-90308000D02*
X162054380Y-90308000D01*
X162197238Y-90403238D01*
X162292476Y-90498476D01*
X162340095Y-90593714D01*
X122580095Y-88932380D02*
X122580095Y-89741904D01*
X122627714Y-89837142D01*
X122675333Y-89884761D01*
X122770571Y-89932380D01*
X122961047Y-89932380D01*
X123056285Y-89884761D01*
X123103904Y-89837142D01*
X123151523Y-89741904D01*
X123151523Y-88932380D01*
X123580095Y-89027619D02*
X123627714Y-88980000D01*
X123722952Y-88932380D01*
X123961047Y-88932380D01*
X124056285Y-88980000D01*
X124103904Y-89027619D01*
X124151523Y-89122857D01*
X124151523Y-89218095D01*
X124103904Y-89360952D01*
X123532476Y-89932380D01*
X124151523Y-89932380D01*
D11*
X145070207Y-105999483D02*
X145070207Y-104729483D01*
X145372588Y-104729483D01*
X145554016Y-104789960D01*
X145674969Y-104910912D01*
X145735445Y-105031864D01*
X145795921Y-105273769D01*
X145795921Y-105455198D01*
X145735445Y-105697102D01*
X145674969Y-105818055D01*
X145554016Y-105939007D01*
X145372588Y-105999483D01*
X145070207Y-105999483D01*
X146279730Y-105939007D02*
X146461159Y-105999483D01*
X146763540Y-105999483D01*
X146884492Y-105939007D01*
X146944969Y-105878531D01*
X147005445Y-105757579D01*
X147005445Y-105636626D01*
X146944969Y-105515674D01*
X146884492Y-105455198D01*
X146763540Y-105394721D01*
X146521635Y-105334245D01*
X146400683Y-105273769D01*
X146340207Y-105213293D01*
X146279730Y-105092340D01*
X146279730Y-104971388D01*
X146340207Y-104850436D01*
X146400683Y-104789960D01*
X146521635Y-104729483D01*
X146824016Y-104729483D01*
X147005445Y-104789960D01*
X148214969Y-105999483D02*
X147489254Y-105999483D01*
X147852111Y-105999483D02*
X147852111Y-104729483D01*
X147731159Y-104910912D01*
X147610207Y-105031864D01*
X147489254Y-105092340D01*
D12*
X122683333Y-83779142D02*
X122635714Y-83826761D01*
X122492857Y-83874380D01*
X122397619Y-83874380D01*
X122254761Y-83826761D01*
X122159523Y-83731523D01*
X122111904Y-83636285D01*
X122064285Y-83445809D01*
X122064285Y-83302952D01*
X122111904Y-83112476D01*
X122159523Y-83017238D01*
X122254761Y-82922000D01*
X122397619Y-82874380D01*
X122492857Y-82874380D01*
X122635714Y-82922000D01*
X122683333Y-82969619D01*
X123016666Y-82874380D02*
X123683333Y-82874380D01*
X123254761Y-83874380D01*
X122683333Y-97241142D02*
X122635714Y-97288761D01*
X122492857Y-97336380D01*
X122397619Y-97336380D01*
X122254761Y-97288761D01*
X122159523Y-97193523D01*
X122111904Y-97098285D01*
X122064285Y-96907809D01*
X122064285Y-96764952D01*
X122111904Y-96574476D01*
X122159523Y-96479238D01*
X122254761Y-96384000D01*
X122397619Y-96336380D01*
X122492857Y-96336380D01*
X122635714Y-96384000D01*
X122683333Y-96431619D01*
X123540476Y-96336380D02*
X123350000Y-96336380D01*
X123254761Y-96384000D01*
X123207142Y-96431619D01*
X123111904Y-96574476D01*
X123064285Y-96764952D01*
X123064285Y-97145904D01*
X123111904Y-97241142D01*
X123159523Y-97288761D01*
X123254761Y-97336380D01*
X123445238Y-97336380D01*
X123540476Y-97288761D01*
X123588095Y-97241142D01*
X123635714Y-97145904D01*
X123635714Y-96907809D01*
X123588095Y-96812571D01*
X123540476Y-96764952D01*
X123445238Y-96717333D01*
X123254761Y-96717333D01*
X123159523Y-96764952D01*
X123111904Y-96812571D01*
X123064285Y-96907809D01*
X138692833Y-106022142D02*
X138645214Y-106069761D01*
X138502357Y-106117380D01*
X138407119Y-106117380D01*
X138264261Y-106069761D01*
X138169023Y-105974523D01*
X138121404Y-105879285D01*
X138073785Y-105688809D01*
X138073785Y-105545952D01*
X138121404Y-105355476D01*
X138169023Y-105260238D01*
X138264261Y-105165000D01*
X138407119Y-105117380D01*
X138502357Y-105117380D01*
X138645214Y-105165000D01*
X138692833Y-105212619D01*
X139597595Y-105117380D02*
X139121404Y-105117380D01*
X139073785Y-105593571D01*
X139121404Y-105545952D01*
X139216642Y-105498333D01*
X139454738Y-105498333D01*
X139549976Y-105545952D01*
X139597595Y-105593571D01*
X139645214Y-105688809D01*
X139645214Y-105926904D01*
X139597595Y-106022142D01*
X139549976Y-106069761D01*
X139454738Y-106117380D01*
X139216642Y-106117380D01*
X139121404Y-106069761D01*
X139073785Y-106022142D01*
X147074833Y-90399142D02*
X147027214Y-90446761D01*
X146884357Y-90494380D01*
X146789119Y-90494380D01*
X146646261Y-90446761D01*
X146551023Y-90351523D01*
X146503404Y-90256285D01*
X146455785Y-90065809D01*
X146455785Y-89922952D01*
X146503404Y-89732476D01*
X146551023Y-89637238D01*
X146646261Y-89542000D01*
X146789119Y-89494380D01*
X146884357Y-89494380D01*
X147027214Y-89542000D01*
X147074833Y-89589619D01*
X147931976Y-89827714D02*
X147931976Y-90494380D01*
X147693880Y-89446761D02*
X147455785Y-90161047D01*
X148074833Y-90161047D01*
M02*
