G04 #@! TF.GenerationSoftware,KiCad,Pcbnew,(5.1.6-0-10_14)*
G04 #@! TF.CreationDate,2021-08-09T12:52:48+02:00*
G04 #@! TF.ProjectId,dogs102,646f6773-3130-4322-9e6b-696361645f70,rev?*
G04 #@! TF.SameCoordinates,Original*
G04 #@! TF.FileFunction,Soldermask,Bot*
G04 #@! TF.FilePolarity,Negative*
%FSLAX46Y46*%
G04 Gerber Fmt 4.6, Leading zero omitted, Abs format (unit mm)*
G04 Created by KiCad (PCBNEW (5.1.6-0-10_14)) date 2021-08-09 12:52:48*
%MOMM*%
%LPD*%
G01*
G04 APERTURE LIST*
%ADD10O,2.100000X2.100000*%
%ADD11R,2.100000X2.100000*%
%ADD12C,1.200000*%
%ADD13C,6.800000*%
%ADD14C,1.680000*%
G04 APERTURE END LIST*
D10*
X148590000Y-116586000D03*
X148590000Y-119126000D03*
X151130000Y-116586000D03*
X151130000Y-119126000D03*
X153670000Y-116586000D03*
X153670000Y-119126000D03*
X156210000Y-116586000D03*
X156210000Y-119126000D03*
X158750000Y-116586000D03*
X158750000Y-119126000D03*
X161290000Y-116586000D03*
X161290000Y-119126000D03*
X163830000Y-116586000D03*
X163830000Y-119126000D03*
X166370000Y-116586000D03*
X166370000Y-119126000D03*
X168910000Y-116586000D03*
X168910000Y-119126000D03*
X171450000Y-116586000D03*
D11*
X171450000Y-119126000D03*
D12*
X174163056Y-84154944D03*
X172466000Y-83452000D03*
X170768944Y-84154944D03*
X170066000Y-85852000D03*
X170768944Y-87549056D03*
X172466000Y-88252000D03*
X174163056Y-87549056D03*
X174866000Y-85852000D03*
D13*
X172466000Y-85852000D03*
D12*
X123363056Y-121746944D03*
X121666000Y-121044000D03*
X119968944Y-121746944D03*
X119266000Y-123444000D03*
X119968944Y-125141056D03*
X121666000Y-125844000D03*
X123363056Y-125141056D03*
X124066000Y-123444000D03*
D13*
X121666000Y-123444000D03*
D10*
X136652000Y-113538000D03*
X139192000Y-113538000D03*
X141732000Y-113538000D03*
X144272000Y-113538000D03*
X146812000Y-113538000D03*
X149352000Y-113538000D03*
X151892000Y-113538000D03*
X154432000Y-113538000D03*
X156972000Y-113538000D03*
D11*
X159512000Y-113538000D03*
D14*
X163576000Y-86360000D03*
X161036000Y-86360000D03*
X158496000Y-86360000D03*
X155956000Y-86360000D03*
X153416000Y-86360000D03*
X150876000Y-86360000D03*
X148336000Y-86360000D03*
X145796000Y-86360000D03*
X143256000Y-86360000D03*
X140716000Y-86360000D03*
X138176000Y-86360000D03*
X135636000Y-86360000D03*
X133096000Y-86360000D03*
X130556000Y-86360000D03*
X161036000Y-124460000D03*
X163576000Y-124460000D03*
X133096000Y-124460000D03*
X130556000Y-124460000D03*
M02*
