M48
; DRILL file {KiCad (5.1.6-0-10_14)} date Monday, August 09, 2021 at 12:52:49 PM
; FORMAT={3:3/ absolute / metric / suppress leading zeros}
; #@! TF.CreationDate,2021-08-09T12:52:49+02:00
; #@! TF.GenerationSoftware,Kicad,Pcbnew,(5.1.6-0-10_14)
FMAT,2
METRIC,TZ
T1C0.400
T2C0.500
T3C0.780
T4C1.000
T5C3.200
%
G90
G05
T1
X122682Y-105156
T2
X170066Y-85852
X170769Y-84155
X170769Y-87549
X172466Y-83452
X172466Y-88252
X174163Y-84155
X174163Y-87549
X174866Y-85852
X119266Y-123444
X119969Y-121747
X119969Y-125141
X121666Y-121044
X121666Y-125844
X123363Y-121747
X123363Y-125141
X124066Y-123444
T3
X130556Y-86360
X130556Y-124460
X133096Y-86360
X133096Y-124460
X135636Y-86360
X138176Y-86360
X140716Y-86360
X143256Y-86360
X145796Y-86360
X148336Y-86360
X150876Y-86360
X153416Y-86360
X155956Y-86360
X158496Y-86360
X161036Y-86360
X161036Y-124460
X163576Y-86360
X163576Y-124460
T4
X148590Y-116586
X148590Y-119126
X151130Y-116586
X151130Y-119126
X153670Y-116586
X153670Y-119126
X156210Y-116586
X156210Y-119126
X158750Y-116586
X158750Y-119126
X161290Y-116586
X161290Y-119126
X163830Y-116586
X163830Y-119126
X166370Y-116586
X166370Y-119126
X168910Y-116586
X168910Y-119126
X171450Y-116586
X171450Y-119126
X136652Y-113538
X139192Y-113538
X141732Y-113538
X144272Y-113538
X146812Y-113538
X149352Y-113538
X151892Y-113538
X154432Y-113538
X156972Y-113538
X159512Y-113538
T5
X172466Y-85852
X121666Y-123444
T0
M30
