M48
; DRILL file {KiCad 7.0.10} date 
; FORMAT={3:3/ absolute / metric / suppress leading zeros}
; #@! TF.CreationDate,2024-01-03T22:04:15+01:00
; #@! TF.GenerationSoftware,Kicad,Pcbnew,7.0.10
; #@! TF.FileFunction,MixedPlating,1,2
FMAT,2
METRIC,TZ
; #@! TA.AperFunction,Plated,PTH,ViaDrill
T1C0.400
; #@! TA.AperFunction,Plated,PTH,ComponentDrill
T2C0.780
; #@! TA.AperFunction,Plated,PTH,ComponentDrill
T3C0.900
; #@! TA.AperFunction,NonPlated,NPTH,ComponentDrill
T4C0.500
; #@! TA.AperFunction,NonPlated,NPTH,ComponentDrill
T5C2.000
; #@! TA.AperFunction,NonPlated,NPTH,ComponentDrill
T6C2.200
%
G90
G05
T1
X145076Y-106034
X146678Y-106682
X148280Y-107330
X149883Y-107977
X151610Y-108750
X160610Y-105000
X165860Y-104000
X167360Y-113750
X207076Y-106034
X208678Y-106682
X210280Y-107330
X211883Y-107977
X213610Y-108750
X222610Y-105000
X227860Y-104000
X229360Y-113750
T2
X130590Y-86360
X130590Y-124460
X133130Y-86360
X133130Y-124460
X135670Y-86360
X138210Y-86360
X140750Y-86360
X143290Y-86360
X145830Y-86360
X148370Y-86360
X150910Y-86360
X153450Y-86360
X155990Y-86360
X158530Y-86360
X161070Y-86360
X161070Y-124460
X163610Y-86360
X163610Y-124460
X192590Y-86360
X192590Y-124460
X195130Y-86360
X195130Y-124460
X197670Y-86360
X200210Y-86360
X202750Y-86360
X205290Y-86360
X207830Y-86360
X210370Y-86360
X212910Y-86360
X215450Y-86360
X217990Y-86360
X220530Y-86360
X223070Y-86360
X223070Y-124460
X225610Y-86360
X225610Y-124460
T3
X168010Y-123400
X173010Y-120900
X173010Y-125900
X230010Y-123400
X235010Y-120900
X235010Y-125900
T4
X126360Y-82500
X126360Y-126750
X127160Y-82750
X127160Y-126500
X127860Y-82750
X127860Y-126500
X128660Y-82500
X128660Y-126750
X165360Y-82500
X165360Y-126750
X166160Y-82750
X166160Y-126500
X166860Y-82750
X166860Y-126500
X167660Y-82500
X167660Y-126750
X188360Y-82500
X188360Y-126750
X189160Y-82750
X189160Y-126500
X189860Y-82750
X189860Y-126500
X190660Y-82500
X190660Y-126750
X227360Y-82500
X227360Y-126750
X228160Y-82750
X228160Y-126500
X228860Y-82750
X228860Y-126500
X229660Y-82500
X229660Y-126750
T5
X170510Y-123400
X232510Y-123400
T6
X121660Y-123450
X172460Y-85850
X183660Y-123450
X234460Y-85850
M30
