G04 #@! TF.GenerationSoftware,KiCad,Pcbnew,7.0.10*
G04 #@! TF.CreationDate,2024-01-03T22:04:11+01:00*
G04 #@! TF.ProjectId,dogs102,646f6773-3130-4322-9e6b-696361645f70,rev?*
G04 #@! TF.SameCoordinates,Original*
G04 #@! TF.FileFunction,Copper,L2,Bot*
G04 #@! TF.FilePolarity,Positive*
%FSLAX46Y46*%
G04 Gerber Fmt 4.6, Leading zero omitted, Abs format (unit mm)*
G04 Created by KiCad (PCBNEW 7.0.10) date 2024-01-03 22:04:11*
%MOMM*%
%LPD*%
G01*
G04 APERTURE LIST*
G04 #@! TA.AperFunction,ComponentPad*
%ADD10C,1.280000*%
G04 #@! TD*
G04 #@! TA.AperFunction,ComponentPad*
%ADD11C,1.620000*%
G04 #@! TD*
G04 #@! TA.AperFunction,ViaPad*
%ADD12C,0.600000*%
G04 #@! TD*
G04 #@! TA.AperFunction,Conductor*
%ADD13C,0.350000*%
G04 #@! TD*
G04 APERTURE END LIST*
D10*
X130590000Y-124460000D03*
X133130000Y-124460000D03*
X161070000Y-124460000D03*
X163610000Y-124460000D03*
X163610000Y-86360000D03*
X161070000Y-86360000D03*
X158530000Y-86360000D03*
X155990000Y-86360000D03*
X153450000Y-86360000D03*
X150910000Y-86360000D03*
X148370000Y-86360000D03*
X145830000Y-86360000D03*
X143290000Y-86360000D03*
X140750000Y-86360000D03*
X138210000Y-86360000D03*
X135670000Y-86360000D03*
X133130000Y-86360000D03*
X130590000Y-86360000D03*
D11*
X173010000Y-120900000D03*
X168010000Y-123400000D03*
X173010000Y-125900000D03*
D10*
X192590000Y-124460000D03*
X195130000Y-124460000D03*
X223070000Y-124460000D03*
X225610000Y-124460000D03*
X225610000Y-86360000D03*
X223070000Y-86360000D03*
X220530000Y-86360000D03*
X217990000Y-86360000D03*
X215450000Y-86360000D03*
X212910000Y-86360000D03*
X210370000Y-86360000D03*
X207830000Y-86360000D03*
X205290000Y-86360000D03*
X202750000Y-86360000D03*
X200210000Y-86360000D03*
X197670000Y-86360000D03*
X195130000Y-86360000D03*
X192590000Y-86360000D03*
D11*
X235010000Y-120900000D03*
X230010000Y-123400000D03*
X235010000Y-125900000D03*
D12*
X151610000Y-108750000D03*
X213610000Y-108750000D03*
X149882702Y-107977298D03*
X211882702Y-107977298D03*
X222610000Y-105000000D03*
X160610000Y-105000000D03*
X210280404Y-107329596D03*
X148280404Y-107329596D03*
X208678106Y-106681894D03*
X146678106Y-106681894D03*
X145075808Y-106034192D03*
X207075808Y-106034192D03*
X229360000Y-113750000D03*
X167360000Y-113750000D03*
X165860000Y-104000000D03*
X227860000Y-104000000D03*
D13*
X202750000Y-86360000D02*
X202750000Y-97890000D01*
X140750000Y-86360000D02*
X140750000Y-97890000D01*
X202750000Y-97890000D02*
X213610000Y-108750000D01*
X140750000Y-97890000D02*
X151610000Y-108750000D01*
X200210000Y-96304596D02*
X211882702Y-107977298D01*
X138210000Y-96304596D02*
X149882702Y-107977298D01*
X200210000Y-86360000D02*
X200210000Y-96304596D01*
X138210000Y-86360000D02*
X138210000Y-96304596D01*
X197382182Y-116450000D02*
X192556000Y-121276182D01*
X222610000Y-105000000D02*
X222610000Y-112250000D01*
X135382182Y-116450000D02*
X130556000Y-121276182D01*
X130556000Y-121276182D02*
X130556000Y-124460000D01*
X218410000Y-116450000D02*
X197382182Y-116450000D01*
X160610000Y-105000000D02*
X160610000Y-112250000D01*
X222610000Y-112250000D02*
X218410000Y-116450000D01*
X160610000Y-112250000D02*
X156410000Y-116450000D01*
X192556000Y-121276182D02*
X192556000Y-124460000D01*
X156410000Y-116450000D02*
X135382182Y-116450000D01*
X163576000Y-119466000D02*
X161110000Y-117000000D01*
X197610000Y-117000000D02*
X195096000Y-119514000D01*
X195096000Y-119514000D02*
X195096000Y-124460000D01*
X225576000Y-119466000D02*
X223110000Y-117000000D01*
X225576000Y-124460000D02*
X225576000Y-119466000D01*
X133096000Y-119514000D02*
X133096000Y-124460000D01*
X163576000Y-124460000D02*
X163576000Y-119466000D01*
X223110000Y-117000000D02*
X197610000Y-117000000D01*
X135610000Y-117000000D02*
X133096000Y-119514000D01*
X161110000Y-117000000D02*
X135610000Y-117000000D01*
X135670000Y-86360000D02*
X135670000Y-94719192D01*
X135670000Y-94719192D02*
X148280404Y-107329596D01*
X197670000Y-94719192D02*
X210280404Y-107329596D01*
X197670000Y-86360000D02*
X197670000Y-94719192D01*
X133130000Y-93133788D02*
X146678106Y-106681894D01*
X195130000Y-93133788D02*
X208678106Y-106681894D01*
X133130000Y-86360000D02*
X133130000Y-93133788D01*
X195130000Y-86360000D02*
X195130000Y-93133788D01*
X192590000Y-86360000D02*
X192590000Y-91548384D01*
X130590000Y-91548384D02*
X145075808Y-106034192D01*
X130590000Y-86360000D02*
X130590000Y-91548384D01*
X192590000Y-91548384D02*
X207075808Y-106034192D01*
X165860000Y-104000000D02*
X165860000Y-112250000D01*
X165860000Y-112250000D02*
X167360000Y-113750000D01*
X227860000Y-112250000D02*
X229360000Y-113750000D01*
X230010000Y-114400000D02*
X229360000Y-113750000D01*
X168010000Y-114400000D02*
X167360000Y-113750000D01*
X168010000Y-123400000D02*
X168010000Y-114400000D01*
X227860000Y-104000000D02*
X227860000Y-112250000D01*
X230010000Y-123400000D02*
X230010000Y-114400000D01*
G04 #@! TA.AperFunction,Conductor*
G36*
X125802539Y-82345185D02*
G01*
X125848294Y-82397989D01*
X125859500Y-82449500D01*
X125859500Y-82571963D01*
X125900045Y-82710050D01*
X125900047Y-82710053D01*
X125977857Y-82831128D01*
X126086627Y-82925377D01*
X126217543Y-82985165D01*
X126324201Y-83000500D01*
X126324204Y-83000500D01*
X126395796Y-83000500D01*
X126395799Y-83000500D01*
X126502457Y-82985165D01*
X126569954Y-82954339D01*
X126639110Y-82944396D01*
X126702666Y-82973420D01*
X126725779Y-83000094D01*
X126777855Y-83081125D01*
X126777857Y-83081128D01*
X126886627Y-83175377D01*
X127017543Y-83235165D01*
X127124201Y-83250500D01*
X127124204Y-83250500D01*
X127195796Y-83250500D01*
X127195799Y-83250500D01*
X127302457Y-83235165D01*
X127433373Y-83175377D01*
X127433382Y-83175368D01*
X127440833Y-83170582D01*
X127442456Y-83173108D01*
X127492326Y-83150320D01*
X127561487Y-83160248D01*
X127578699Y-83171310D01*
X127579167Y-83170582D01*
X127586619Y-83175370D01*
X127586627Y-83175377D01*
X127717543Y-83235165D01*
X127824201Y-83250500D01*
X127824204Y-83250500D01*
X127895796Y-83250500D01*
X127895799Y-83250500D01*
X128002457Y-83235165D01*
X128133373Y-83175377D01*
X128242143Y-83081128D01*
X128294220Y-83000094D01*
X128347021Y-82954340D01*
X128416179Y-82944396D01*
X128450047Y-82954340D01*
X128517543Y-82985165D01*
X128624201Y-83000500D01*
X128624204Y-83000500D01*
X128695796Y-83000500D01*
X128695799Y-83000500D01*
X128802457Y-82985165D01*
X128933373Y-82925377D01*
X129042143Y-82831128D01*
X129119953Y-82710053D01*
X129160500Y-82571961D01*
X129160500Y-82449500D01*
X129180185Y-82382461D01*
X129232989Y-82336706D01*
X129284500Y-82325500D01*
X164735500Y-82325500D01*
X164802539Y-82345185D01*
X164848294Y-82397989D01*
X164859500Y-82449500D01*
X164859500Y-82571963D01*
X164900045Y-82710050D01*
X164900047Y-82710053D01*
X164977857Y-82831128D01*
X165086627Y-82925377D01*
X165217543Y-82985165D01*
X165324201Y-83000500D01*
X165324204Y-83000500D01*
X165395796Y-83000500D01*
X165395799Y-83000500D01*
X165502457Y-82985165D01*
X165569954Y-82954339D01*
X165639110Y-82944396D01*
X165702666Y-82973420D01*
X165725779Y-83000094D01*
X165777855Y-83081125D01*
X165777857Y-83081128D01*
X165886627Y-83175377D01*
X166017543Y-83235165D01*
X166124201Y-83250500D01*
X166124204Y-83250500D01*
X166195796Y-83250500D01*
X166195799Y-83250500D01*
X166302457Y-83235165D01*
X166433373Y-83175377D01*
X166433382Y-83175368D01*
X166440833Y-83170582D01*
X166442456Y-83173108D01*
X166492326Y-83150320D01*
X166561487Y-83160248D01*
X166578699Y-83171310D01*
X166579167Y-83170582D01*
X166586619Y-83175370D01*
X166586627Y-83175377D01*
X166717543Y-83235165D01*
X166824201Y-83250500D01*
X166824204Y-83250500D01*
X166895796Y-83250500D01*
X166895799Y-83250500D01*
X167002457Y-83235165D01*
X167133373Y-83175377D01*
X167242143Y-83081128D01*
X167294220Y-83000094D01*
X167347021Y-82954340D01*
X167416179Y-82944396D01*
X167450047Y-82954340D01*
X167517543Y-82985165D01*
X167624201Y-83000500D01*
X167624204Y-83000500D01*
X167695796Y-83000500D01*
X167695799Y-83000500D01*
X167802457Y-82985165D01*
X167933373Y-82925377D01*
X168042143Y-82831128D01*
X168119953Y-82710053D01*
X168160500Y-82571961D01*
X168160500Y-82451907D01*
X168180185Y-82384868D01*
X168232989Y-82339113D01*
X168284458Y-82327907D01*
X175910462Y-82325561D01*
X175977507Y-82345225D01*
X176023279Y-82398015D01*
X176034500Y-82449561D01*
X176034500Y-126800500D01*
X176014815Y-126867539D01*
X175962011Y-126913294D01*
X175910500Y-126924500D01*
X173786181Y-126924500D01*
X173719142Y-126904815D01*
X173673387Y-126852011D01*
X173663443Y-126782853D01*
X173692468Y-126719297D01*
X173707516Y-126704647D01*
X173766357Y-126656357D01*
X173899382Y-126494266D01*
X173998229Y-126309338D01*
X174059098Y-126108679D01*
X174079651Y-125900000D01*
X174059098Y-125691321D01*
X173998229Y-125490662D01*
X173899382Y-125305734D01*
X173844555Y-125238927D01*
X173766357Y-125143642D01*
X173604269Y-125010620D01*
X173604267Y-125010619D01*
X173604266Y-125010618D01*
X173419338Y-124911771D01*
X173319008Y-124881336D01*
X173218677Y-124850901D01*
X173010000Y-124830349D01*
X172801322Y-124850901D01*
X172600659Y-124911772D01*
X172415730Y-125010620D01*
X172253642Y-125143642D01*
X172120620Y-125305730D01*
X172021772Y-125490659D01*
X171960901Y-125691322D01*
X171940349Y-125900000D01*
X171960901Y-126108677D01*
X171979162Y-126168874D01*
X172003619Y-126249500D01*
X172021772Y-126309340D01*
X172120620Y-126494269D01*
X172253642Y-126656357D01*
X172312484Y-126704647D01*
X172351818Y-126762392D01*
X172353689Y-126832237D01*
X172317502Y-126892005D01*
X172254746Y-126922721D01*
X172233819Y-126924500D01*
X168284500Y-126924500D01*
X168217461Y-126904815D01*
X168171706Y-126852011D01*
X168160500Y-126800500D01*
X168160500Y-126678038D01*
X168160499Y-126678036D01*
X168119954Y-126539949D01*
X168119953Y-126539947D01*
X168042143Y-126418872D01*
X167933373Y-126324623D01*
X167933371Y-126324622D01*
X167802456Y-126264834D01*
X167722611Y-126253355D01*
X167695799Y-126249500D01*
X167624201Y-126249500D01*
X167610794Y-126251427D01*
X167517543Y-126264834D01*
X167450044Y-126295660D01*
X167380886Y-126305603D01*
X167317330Y-126276577D01*
X167294221Y-126249908D01*
X167242143Y-126168872D01*
X167133373Y-126074623D01*
X167133371Y-126074622D01*
X167002456Y-126014834D01*
X166922611Y-126003355D01*
X166895799Y-125999500D01*
X166824201Y-125999500D01*
X166810794Y-126001427D01*
X166717543Y-126014834D01*
X166586628Y-126074622D01*
X166579166Y-126079418D01*
X166577544Y-126076895D01*
X166527645Y-126099683D01*
X166458487Y-126089739D01*
X166441299Y-126078693D01*
X166440834Y-126079418D01*
X166433371Y-126074622D01*
X166302456Y-126014834D01*
X166222611Y-126003355D01*
X166195799Y-125999500D01*
X166124201Y-125999500D01*
X166110794Y-126001427D01*
X166017543Y-126014834D01*
X165886628Y-126074622D01*
X165886626Y-126074623D01*
X165777855Y-126168874D01*
X165725779Y-126249905D01*
X165672975Y-126295660D01*
X165603816Y-126305603D01*
X165569953Y-126295659D01*
X165502458Y-126264835D01*
X165466904Y-126259723D01*
X165395799Y-126249500D01*
X165324201Y-126249500D01*
X165310794Y-126251427D01*
X165217543Y-126264834D01*
X165086628Y-126324622D01*
X165086626Y-126324623D01*
X164977856Y-126418873D01*
X164900045Y-126539949D01*
X164859500Y-126678036D01*
X164859500Y-126800500D01*
X164839815Y-126867539D01*
X164787011Y-126913294D01*
X164735500Y-126924500D01*
X159309500Y-126924500D01*
X159242461Y-126904815D01*
X159196706Y-126852011D01*
X159185500Y-126800500D01*
X159185500Y-124460000D01*
X159925116Y-124460000D01*
X159944609Y-124670369D01*
X160002427Y-124873581D01*
X160096600Y-125062703D01*
X160103975Y-125072470D01*
X160680786Y-124495659D01*
X160694465Y-124582019D01*
X160750551Y-124692093D01*
X160837907Y-124779449D01*
X160947981Y-124835535D01*
X161034339Y-124849212D01*
X160460255Y-125423295D01*
X160559680Y-125484857D01*
X160559681Y-125484858D01*
X160756685Y-125561177D01*
X160964365Y-125600000D01*
X161175635Y-125600000D01*
X161383319Y-125561176D01*
X161580309Y-125484861D01*
X161580327Y-125484852D01*
X161679742Y-125423296D01*
X161679742Y-125423295D01*
X161105660Y-124849212D01*
X161192019Y-124835535D01*
X161302093Y-124779449D01*
X161389449Y-124692093D01*
X161445535Y-124582019D01*
X161459212Y-124495659D01*
X162036023Y-125072470D01*
X162043401Y-125062700D01*
X162043403Y-125062697D01*
X162137572Y-124873582D01*
X162195390Y-124670369D01*
X162214884Y-124460000D01*
X162214884Y-124459999D01*
X162195390Y-124249630D01*
X162137572Y-124046418D01*
X162043399Y-123857295D01*
X162036024Y-123847528D01*
X161459212Y-124424339D01*
X161445535Y-124337981D01*
X161389449Y-124227907D01*
X161302093Y-124140551D01*
X161192019Y-124084465D01*
X161105660Y-124070787D01*
X161679743Y-123496703D01*
X161580319Y-123435142D01*
X161580318Y-123435141D01*
X161383314Y-123358822D01*
X161175635Y-123320000D01*
X160964365Y-123320000D01*
X160756685Y-123358822D01*
X160559683Y-123435140D01*
X160559677Y-123435143D01*
X160460256Y-123496702D01*
X160460255Y-123496703D01*
X161034339Y-124070787D01*
X160947981Y-124084465D01*
X160837907Y-124140551D01*
X160750551Y-124227907D01*
X160694465Y-124337981D01*
X160680787Y-124424340D01*
X160103974Y-123847527D01*
X160096602Y-123857292D01*
X160096598Y-123857298D01*
X160002427Y-124046418D01*
X159944609Y-124249630D01*
X159925116Y-124459999D01*
X159925116Y-124460000D01*
X159185500Y-124460000D01*
X159185500Y-119045352D01*
X159187384Y-119023818D01*
X159189122Y-119013955D01*
X159189124Y-119013952D01*
X159187384Y-119004083D01*
X159186218Y-118990761D01*
X159184781Y-118982611D01*
X159181322Y-118969699D01*
X159179581Y-118959829D01*
X159179581Y-118959828D01*
X159179579Y-118959827D01*
X159176061Y-118953733D01*
X159171549Y-118948355D01*
X159162866Y-118943342D01*
X159145161Y-118930945D01*
X159137480Y-118924500D01*
X159130879Y-118922097D01*
X159123952Y-118920876D01*
X159123951Y-118920876D01*
X159120217Y-118921534D01*
X159114081Y-118922616D01*
X159092552Y-118924500D01*
X148555352Y-118924500D01*
X148533818Y-118922616D01*
X148523952Y-118920876D01*
X148523951Y-118920876D01*
X148520217Y-118921534D01*
X148514081Y-118922616D01*
X148500767Y-118923781D01*
X148492620Y-118925217D01*
X148479711Y-118928675D01*
X148469827Y-118930418D01*
X148463740Y-118933932D01*
X148458354Y-118938452D01*
X148453338Y-118947139D01*
X148440949Y-118964832D01*
X148434500Y-118972517D01*
X148432098Y-118979118D01*
X148430876Y-118986048D01*
X148432616Y-118995915D01*
X148434500Y-119017447D01*
X148434500Y-126800500D01*
X148414815Y-126867539D01*
X148362011Y-126913294D01*
X148310500Y-126924500D01*
X129284500Y-126924500D01*
X129217461Y-126904815D01*
X129171706Y-126852011D01*
X129160500Y-126800500D01*
X129160500Y-126678038D01*
X129160499Y-126678036D01*
X129119954Y-126539949D01*
X129119953Y-126539947D01*
X129042143Y-126418872D01*
X128933373Y-126324623D01*
X128933371Y-126324622D01*
X128802456Y-126264834D01*
X128722611Y-126253355D01*
X128695799Y-126249500D01*
X128624201Y-126249500D01*
X128610794Y-126251427D01*
X128517543Y-126264834D01*
X128450044Y-126295660D01*
X128380886Y-126305603D01*
X128317330Y-126276577D01*
X128294221Y-126249908D01*
X128242143Y-126168872D01*
X128133373Y-126074623D01*
X128133371Y-126074622D01*
X128002456Y-126014834D01*
X127922611Y-126003355D01*
X127895799Y-125999500D01*
X127824201Y-125999500D01*
X127810794Y-126001427D01*
X127717543Y-126014834D01*
X127586628Y-126074622D01*
X127579166Y-126079418D01*
X127577544Y-126076895D01*
X127527645Y-126099683D01*
X127458487Y-126089739D01*
X127441299Y-126078693D01*
X127440834Y-126079418D01*
X127433371Y-126074622D01*
X127302456Y-126014834D01*
X127222611Y-126003355D01*
X127195799Y-125999500D01*
X127124201Y-125999500D01*
X127110794Y-126001427D01*
X127017543Y-126014834D01*
X126886628Y-126074622D01*
X126886626Y-126074623D01*
X126777855Y-126168874D01*
X126725779Y-126249905D01*
X126672975Y-126295660D01*
X126603816Y-126305603D01*
X126569953Y-126295659D01*
X126502458Y-126264835D01*
X126466904Y-126259723D01*
X126395799Y-126249500D01*
X126324201Y-126249500D01*
X126310794Y-126251427D01*
X126217543Y-126264834D01*
X126086628Y-126324622D01*
X126086626Y-126324623D01*
X125977856Y-126418873D01*
X125900045Y-126539949D01*
X125859500Y-126678036D01*
X125859500Y-126800500D01*
X125839815Y-126867539D01*
X125787011Y-126913294D01*
X125735500Y-126924500D01*
X118309500Y-126924500D01*
X118242461Y-126904815D01*
X118196706Y-126852011D01*
X118185500Y-126800500D01*
X118185500Y-123450000D01*
X120304341Y-123450000D01*
X120324936Y-123685403D01*
X120324938Y-123685413D01*
X120386094Y-123913655D01*
X120386096Y-123913659D01*
X120386097Y-123913663D01*
X120436031Y-124020746D01*
X120485964Y-124127828D01*
X120485965Y-124127830D01*
X120621505Y-124321402D01*
X120788597Y-124488494D01*
X120982169Y-124624034D01*
X120982171Y-124624035D01*
X121196337Y-124723903D01*
X121424592Y-124785063D01*
X121601032Y-124800499D01*
X121601033Y-124800500D01*
X121601034Y-124800500D01*
X121718967Y-124800500D01*
X121718967Y-124800499D01*
X121895408Y-124785063D01*
X122123663Y-124723903D01*
X122337829Y-124624035D01*
X122531401Y-124488495D01*
X122559896Y-124460000D01*
X129690573Y-124460000D01*
X129710228Y-124647003D01*
X129710229Y-124647005D01*
X129768333Y-124825831D01*
X129768334Y-124825833D01*
X129817951Y-124911772D01*
X129862348Y-124988670D01*
X129882112Y-125010620D01*
X129988160Y-125128400D01*
X129988163Y-125128402D01*
X129988166Y-125128405D01*
X130102256Y-125211296D01*
X130140287Y-125238928D01*
X130206226Y-125268285D01*
X130312062Y-125315406D01*
X130495984Y-125354500D01*
X130684016Y-125354500D01*
X130867938Y-125315406D01*
X131039714Y-125238927D01*
X131191834Y-125128405D01*
X131317652Y-124988670D01*
X131411667Y-124825830D01*
X131469772Y-124647001D01*
X131489427Y-124460000D01*
X131469772Y-124272999D01*
X131411667Y-124094170D01*
X131410228Y-124091678D01*
X131354392Y-123994966D01*
X131317652Y-123931330D01*
X131268372Y-123876599D01*
X131191839Y-123791599D01*
X131191836Y-123791597D01*
X131191835Y-123791596D01*
X131191834Y-123791595D01*
X131104612Y-123728224D01*
X131036614Y-123678820D01*
X130993949Y-123623489D01*
X130985500Y-123578502D01*
X130985500Y-121505448D01*
X131005185Y-121438409D01*
X131021819Y-121417767D01*
X132454819Y-119984767D01*
X132516142Y-119951282D01*
X132585834Y-119956266D01*
X132641767Y-119998138D01*
X132666184Y-120063602D01*
X132666500Y-120072448D01*
X132666500Y-123627907D01*
X132646815Y-123694946D01*
X132615386Y-123728224D01*
X132528169Y-123791592D01*
X132528160Y-123791599D01*
X132402347Y-123931331D01*
X132308334Y-124094166D01*
X132308333Y-124094168D01*
X132250229Y-124272994D01*
X132250228Y-124272996D01*
X132230573Y-124460000D01*
X132250228Y-124647003D01*
X132250229Y-124647005D01*
X132308333Y-124825831D01*
X132308334Y-124825833D01*
X132357951Y-124911772D01*
X132402348Y-124988670D01*
X132422112Y-125010620D01*
X132528160Y-125128400D01*
X132528163Y-125128402D01*
X132528166Y-125128405D01*
X132642256Y-125211296D01*
X132680287Y-125238928D01*
X132746226Y-125268285D01*
X132852062Y-125315406D01*
X133035984Y-125354500D01*
X133224016Y-125354500D01*
X133407938Y-125315406D01*
X133579714Y-125238927D01*
X133731834Y-125128405D01*
X133857652Y-124988670D01*
X133951667Y-124825830D01*
X134009772Y-124647001D01*
X134029427Y-124460000D01*
X134009772Y-124272999D01*
X133951667Y-124094170D01*
X133950228Y-124091678D01*
X133894392Y-123994966D01*
X133857652Y-123931330D01*
X133808372Y-123876599D01*
X133731839Y-123791599D01*
X133731836Y-123791597D01*
X133731835Y-123791596D01*
X133731834Y-123791595D01*
X133644612Y-123728224D01*
X133576614Y-123678820D01*
X133533949Y-123623489D01*
X133525500Y-123578502D01*
X133525500Y-119743266D01*
X133545185Y-119676227D01*
X133561819Y-119655585D01*
X135751586Y-117465819D01*
X135812909Y-117432334D01*
X135839267Y-117429500D01*
X160880734Y-117429500D01*
X160947773Y-117449185D01*
X160968415Y-117465819D01*
X163110181Y-119607585D01*
X163143666Y-119668908D01*
X163146500Y-119695266D01*
X163146500Y-123627907D01*
X163126815Y-123694946D01*
X163095386Y-123728224D01*
X163008169Y-123791592D01*
X163008160Y-123791599D01*
X162882347Y-123931331D01*
X162788334Y-124094166D01*
X162788333Y-124094168D01*
X162730229Y-124272994D01*
X162730228Y-124272996D01*
X162710573Y-124460000D01*
X162730228Y-124647003D01*
X162730229Y-124647005D01*
X162788333Y-124825831D01*
X162788334Y-124825833D01*
X162837951Y-124911772D01*
X162882348Y-124988670D01*
X162902112Y-125010620D01*
X163008160Y-125128400D01*
X163008163Y-125128402D01*
X163008166Y-125128405D01*
X163122256Y-125211296D01*
X163160287Y-125238928D01*
X163226226Y-125268285D01*
X163332062Y-125315406D01*
X163515984Y-125354500D01*
X163704016Y-125354500D01*
X163887938Y-125315406D01*
X164059714Y-125238927D01*
X164211834Y-125128405D01*
X164337652Y-124988670D01*
X164431667Y-124825830D01*
X164489772Y-124647001D01*
X164509427Y-124460000D01*
X164489772Y-124272999D01*
X164431667Y-124094170D01*
X164430228Y-124091678D01*
X164374392Y-123994966D01*
X164337652Y-123931330D01*
X164288372Y-123876599D01*
X164211839Y-123791599D01*
X164211836Y-123791597D01*
X164211835Y-123791596D01*
X164211834Y-123791595D01*
X164124612Y-123728224D01*
X164056614Y-123678820D01*
X164013949Y-123623489D01*
X164005500Y-123578502D01*
X164005500Y-119497084D01*
X164006280Y-119483199D01*
X164010048Y-119449760D01*
X164010048Y-119449759D01*
X163999921Y-119396243D01*
X163999154Y-119391721D01*
X163991054Y-119337973D01*
X163991052Y-119337970D01*
X163988662Y-119330219D01*
X163985978Y-119322548D01*
X163985977Y-119322543D01*
X163976112Y-119303878D01*
X163960550Y-119274431D01*
X163958461Y-119270292D01*
X163934878Y-119221321D01*
X163930303Y-119214611D01*
X163925478Y-119208073D01*
X163887018Y-119169613D01*
X163883801Y-119166274D01*
X163846812Y-119126410D01*
X163839547Y-119120616D01*
X163840100Y-119119922D01*
X163828177Y-119110772D01*
X161435683Y-116718278D01*
X161426416Y-116707908D01*
X161405436Y-116681599D01*
X161360494Y-116650958D01*
X161356714Y-116648276D01*
X161312955Y-116615981D01*
X161305813Y-116612205D01*
X161298460Y-116608664D01*
X161298458Y-116608663D01*
X161298455Y-116608662D01*
X161298453Y-116608661D01*
X161246475Y-116592627D01*
X161242075Y-116591179D01*
X161190750Y-116573220D01*
X161182781Y-116571712D01*
X161174738Y-116570500D01*
X161174737Y-116570500D01*
X161120323Y-116570500D01*
X161115688Y-116570413D01*
X161113299Y-116570323D01*
X161061370Y-116568380D01*
X161052138Y-116569421D01*
X161052038Y-116568538D01*
X161037136Y-116570500D01*
X157196266Y-116570500D01*
X157129227Y-116550815D01*
X157083472Y-116498011D01*
X157073528Y-116428853D01*
X157102553Y-116365297D01*
X157108585Y-116358819D01*
X158925819Y-114541585D01*
X160891728Y-112575675D01*
X160902090Y-112566416D01*
X160928402Y-112545434D01*
X160959056Y-112500470D01*
X160961698Y-112496745D01*
X160994016Y-112452959D01*
X160994018Y-112452953D01*
X160997812Y-112445776D01*
X161001333Y-112438462D01*
X161001337Y-112438458D01*
X161017386Y-112386424D01*
X161018807Y-112382107D01*
X161036779Y-112330751D01*
X161036779Y-112330745D01*
X161038290Y-112322762D01*
X161039500Y-112314738D01*
X161039500Y-112260322D01*
X161039587Y-112255685D01*
X161041619Y-112201370D01*
X161040579Y-112192138D01*
X161041460Y-112192038D01*
X161039500Y-112177135D01*
X161039500Y-105393222D01*
X161059185Y-105326183D01*
X161065126Y-105317734D01*
X161094355Y-105279643D01*
X161150228Y-105144754D01*
X161169285Y-105000000D01*
X161150228Y-104855246D01*
X161094355Y-104720358D01*
X161005474Y-104604526D01*
X160889643Y-104515645D01*
X160889640Y-104515644D01*
X160889638Y-104515642D01*
X160754757Y-104459773D01*
X160754752Y-104459771D01*
X160610001Y-104440715D01*
X160609999Y-104440715D01*
X160465247Y-104459771D01*
X160465245Y-104459772D01*
X160330361Y-104515643D01*
X160214526Y-104604526D01*
X160125643Y-104720361D01*
X160069772Y-104855245D01*
X160069771Y-104855247D01*
X160050715Y-104999998D01*
X160050715Y-105000001D01*
X160069771Y-105144752D01*
X160069773Y-105144757D01*
X160125642Y-105279638D01*
X160125646Y-105279644D01*
X160154874Y-105317734D01*
X160180070Y-105382903D01*
X160180500Y-105393222D01*
X160180500Y-112020733D01*
X160160815Y-112087772D01*
X160144181Y-112108414D01*
X156268414Y-115984181D01*
X156207091Y-116017666D01*
X156180733Y-116020500D01*
X135413265Y-116020500D01*
X135399379Y-116019720D01*
X135365940Y-116015951D01*
X135312495Y-116026064D01*
X135307926Y-116026841D01*
X135290730Y-116029432D01*
X135254155Y-116034946D01*
X135254154Y-116034946D01*
X135254150Y-116034947D01*
X135246401Y-116037336D01*
X135238724Y-116040023D01*
X135190631Y-116065440D01*
X135186497Y-116067527D01*
X135137502Y-116091122D01*
X135130807Y-116095687D01*
X135124253Y-116100523D01*
X135085804Y-116138972D01*
X135082470Y-116142184D01*
X135042592Y-116179187D01*
X135036799Y-116186452D01*
X135036107Y-116185900D01*
X135026957Y-116197819D01*
X130274275Y-120950500D01*
X130263908Y-120959765D01*
X130237598Y-120980746D01*
X130206965Y-121025677D01*
X130204284Y-121029455D01*
X130171985Y-121073219D01*
X130168181Y-121080417D01*
X130164663Y-121087723D01*
X130148631Y-121139696D01*
X130147182Y-121144097D01*
X130129221Y-121195429D01*
X130127711Y-121203408D01*
X130126500Y-121211445D01*
X130126500Y-121265858D01*
X130126413Y-121270494D01*
X130124380Y-121324813D01*
X130125421Y-121334048D01*
X130124536Y-121334147D01*
X130126500Y-121349048D01*
X130126500Y-123627907D01*
X130106815Y-123694946D01*
X130075386Y-123728224D01*
X129988169Y-123791592D01*
X129988160Y-123791599D01*
X129862347Y-123931331D01*
X129768334Y-124094166D01*
X129768333Y-124094168D01*
X129710229Y-124272994D01*
X129710228Y-124272996D01*
X129690573Y-124460000D01*
X122559896Y-124460000D01*
X122698495Y-124321401D01*
X122834035Y-124127830D01*
X122933903Y-123913663D01*
X122995063Y-123685408D01*
X123015659Y-123450000D01*
X122995063Y-123214592D01*
X122933903Y-122986337D01*
X122834035Y-122772171D01*
X122834034Y-122772169D01*
X122698494Y-122578597D01*
X122531402Y-122411505D01*
X122337830Y-122275965D01*
X122337828Y-122275964D01*
X122152817Y-122189692D01*
X122123663Y-122176097D01*
X122123659Y-122176096D01*
X122123655Y-122176094D01*
X121895413Y-122114938D01*
X121895403Y-122114936D01*
X121718967Y-122099500D01*
X121718966Y-122099500D01*
X121601034Y-122099500D01*
X121601033Y-122099500D01*
X121424596Y-122114936D01*
X121424586Y-122114938D01*
X121196344Y-122176094D01*
X121196335Y-122176098D01*
X120982171Y-122275964D01*
X120982169Y-122275965D01*
X120788597Y-122411505D01*
X120621506Y-122578597D01*
X120621501Y-122578604D01*
X120485967Y-122772165D01*
X120485965Y-122772169D01*
X120386098Y-122986335D01*
X120386094Y-122986344D01*
X120324938Y-123214586D01*
X120324936Y-123214596D01*
X120304341Y-123449999D01*
X120304341Y-123450000D01*
X118185500Y-123450000D01*
X118185500Y-86360000D01*
X129690573Y-86360000D01*
X129710228Y-86547003D01*
X129710229Y-86547005D01*
X129768333Y-86725831D01*
X129768334Y-86725833D01*
X129795902Y-86773582D01*
X129862348Y-86888670D01*
X129906175Y-86937345D01*
X129988160Y-87028400D01*
X129988166Y-87028405D01*
X130109386Y-87116477D01*
X130152051Y-87171804D01*
X130160500Y-87216793D01*
X130160500Y-91517300D01*
X130159720Y-91531186D01*
X130155951Y-91564624D01*
X130166065Y-91618072D01*
X130166842Y-91622644D01*
X130174946Y-91676410D01*
X130177349Y-91684203D01*
X130180022Y-91691841D01*
X130205432Y-91739919D01*
X130207522Y-91744058D01*
X130231121Y-91793063D01*
X130235683Y-91799753D01*
X130240523Y-91806311D01*
X130278967Y-91844755D01*
X130282183Y-91848093D01*
X130319189Y-91887975D01*
X130326453Y-91893768D01*
X130325899Y-91894462D01*
X130337825Y-91903613D01*
X144494054Y-106059843D01*
X144527539Y-106121166D01*
X144529312Y-106131338D01*
X144535580Y-106178944D01*
X144535581Y-106178949D01*
X144591450Y-106313830D01*
X144591453Y-106313836D01*
X144680333Y-106429665D01*
X144680334Y-106429666D01*
X144796163Y-106518546D01*
X144796169Y-106518549D01*
X144863609Y-106546483D01*
X144931054Y-106574420D01*
X145003431Y-106583948D01*
X145075807Y-106593477D01*
X145075808Y-106593477D01*
X145075809Y-106593477D01*
X145124059Y-106587124D01*
X145220562Y-106574420D01*
X145355451Y-106518547D01*
X145471282Y-106429666D01*
X145535949Y-106345389D01*
X145592375Y-106304189D01*
X145662121Y-106300034D01*
X145722004Y-106333197D01*
X146096352Y-106707545D01*
X146129837Y-106768868D01*
X146131610Y-106779040D01*
X146137878Y-106826646D01*
X146137879Y-106826651D01*
X146193748Y-106961532D01*
X146193751Y-106961538D01*
X146282631Y-107077367D01*
X146282632Y-107077368D01*
X146398461Y-107166248D01*
X146398467Y-107166251D01*
X146465907Y-107194185D01*
X146533352Y-107222122D01*
X146605729Y-107231650D01*
X146678105Y-107241179D01*
X146678106Y-107241179D01*
X146678107Y-107241179D01*
X146726357Y-107234826D01*
X146822860Y-107222122D01*
X146957749Y-107166249D01*
X147073580Y-107077368D01*
X147138247Y-106993091D01*
X147194673Y-106951891D01*
X147264419Y-106947736D01*
X147324302Y-106980899D01*
X147698650Y-107355247D01*
X147732135Y-107416570D01*
X147733908Y-107426742D01*
X147740176Y-107474348D01*
X147740177Y-107474353D01*
X147796046Y-107609234D01*
X147796049Y-107609240D01*
X147884929Y-107725069D01*
X147884930Y-107725070D01*
X148000759Y-107813950D01*
X148000765Y-107813953D01*
X148068205Y-107841887D01*
X148135650Y-107869824D01*
X148208027Y-107879352D01*
X148280403Y-107888881D01*
X148280404Y-107888881D01*
X148280405Y-107888881D01*
X148328655Y-107882528D01*
X148425158Y-107869824D01*
X148560047Y-107813951D01*
X148675878Y-107725070D01*
X148740545Y-107640793D01*
X148796971Y-107599593D01*
X148866717Y-107595438D01*
X148926600Y-107628601D01*
X149300948Y-108002949D01*
X149334433Y-108064272D01*
X149336206Y-108074444D01*
X149342474Y-108122050D01*
X149342475Y-108122055D01*
X149398344Y-108256936D01*
X149398347Y-108256942D01*
X149487227Y-108372771D01*
X149487228Y-108372772D01*
X149603057Y-108461652D01*
X149603063Y-108461655D01*
X149670503Y-108489589D01*
X149737948Y-108517526D01*
X149810325Y-108527054D01*
X149882701Y-108536583D01*
X149882702Y-108536583D01*
X149882703Y-108536583D01*
X149930953Y-108530230D01*
X150027456Y-108517526D01*
X150162345Y-108461653D01*
X150278176Y-108372772D01*
X150342843Y-108288495D01*
X150399269Y-108247295D01*
X150469015Y-108243140D01*
X150528898Y-108276303D01*
X151028246Y-108775651D01*
X151061731Y-108836974D01*
X151063504Y-108847146D01*
X151069772Y-108894752D01*
X151069773Y-108894757D01*
X151125642Y-109029638D01*
X151125645Y-109029644D01*
X151214525Y-109145473D01*
X151214526Y-109145474D01*
X151330355Y-109234354D01*
X151330361Y-109234357D01*
X151397801Y-109262291D01*
X151465246Y-109290228D01*
X151537623Y-109299756D01*
X151609999Y-109309285D01*
X151610000Y-109309285D01*
X151610001Y-109309285D01*
X151658251Y-109302932D01*
X151754754Y-109290228D01*
X151889643Y-109234355D01*
X152005474Y-109145474D01*
X152094355Y-109029643D01*
X152150228Y-108894754D01*
X152169285Y-108750000D01*
X152150228Y-108605246D01*
X152094355Y-108470358D01*
X152005474Y-108354526D01*
X151889643Y-108265645D01*
X151889640Y-108265644D01*
X151889638Y-108265642D01*
X151754757Y-108209773D01*
X151754755Y-108209772D01*
X151754754Y-108209772D01*
X151722828Y-108205568D01*
X151707146Y-108203504D01*
X151643249Y-108175237D01*
X151635651Y-108168246D01*
X147467406Y-104000001D01*
X165300715Y-104000001D01*
X165319771Y-104144752D01*
X165319773Y-104144757D01*
X165375642Y-104279638D01*
X165375646Y-104279644D01*
X165404874Y-104317734D01*
X165430070Y-104382903D01*
X165430500Y-104393222D01*
X165430500Y-112218916D01*
X165429720Y-112232802D01*
X165425951Y-112266240D01*
X165436065Y-112319688D01*
X165436840Y-112324252D01*
X165437820Y-112330752D01*
X165444946Y-112378026D01*
X165447349Y-112385819D01*
X165450022Y-112393457D01*
X165475432Y-112441535D01*
X165477522Y-112445674D01*
X165501121Y-112494679D01*
X165505683Y-112501369D01*
X165510523Y-112507927D01*
X165548968Y-112546372D01*
X165552184Y-112549711D01*
X165589186Y-112589588D01*
X165596453Y-112595384D01*
X165595899Y-112596078D01*
X165607825Y-112605229D01*
X166778246Y-113775651D01*
X166811731Y-113836974D01*
X166813504Y-113847146D01*
X166819772Y-113894752D01*
X166819773Y-113894757D01*
X166875642Y-114029638D01*
X166875645Y-114029644D01*
X166964525Y-114145473D01*
X166964526Y-114145474D01*
X167080355Y-114234354D01*
X167080361Y-114234357D01*
X167130186Y-114254995D01*
X167215246Y-114290228D01*
X167262852Y-114296495D01*
X167326747Y-114324759D01*
X167334348Y-114331752D01*
X167544181Y-114541585D01*
X167577666Y-114602908D01*
X167580500Y-114629266D01*
X167580500Y-122348224D01*
X167560815Y-122415263D01*
X167514955Y-122457581D01*
X167415732Y-122510618D01*
X167253642Y-122643642D01*
X167120620Y-122805730D01*
X167021772Y-122990659D01*
X166960901Y-123191322D01*
X166940349Y-123400000D01*
X166960901Y-123608677D01*
X166982179Y-123678820D01*
X167021771Y-123809338D01*
X167077534Y-123913663D01*
X167120620Y-123994269D01*
X167253642Y-124156357D01*
X167395771Y-124272999D01*
X167415734Y-124289382D01*
X167600662Y-124388229D01*
X167801321Y-124449098D01*
X168010000Y-124469651D01*
X168218679Y-124449098D01*
X168419338Y-124388229D01*
X168604266Y-124289382D01*
X168766357Y-124156357D01*
X168899382Y-123994266D01*
X168998229Y-123809338D01*
X169044120Y-123658054D01*
X169082415Y-123599619D01*
X169146228Y-123571163D01*
X169215295Y-123581723D01*
X169267688Y-123627947D01*
X169284428Y-123674022D01*
X169284687Y-123673963D01*
X169285160Y-123676035D01*
X169285656Y-123677401D01*
X169285925Y-123679388D01*
X169355483Y-123893465D01*
X169462146Y-124091678D01*
X169462148Y-124091681D01*
X169602489Y-124267663D01*
X169602491Y-124267664D01*
X169602492Y-124267666D01*
X169772004Y-124415765D01*
X169965236Y-124531215D01*
X170175976Y-124610307D01*
X170397450Y-124650500D01*
X170397453Y-124650500D01*
X170566148Y-124650500D01*
X170566155Y-124650500D01*
X170734188Y-124635377D01*
X170734192Y-124635376D01*
X170951160Y-124575496D01*
X170951162Y-124575495D01*
X170951170Y-124575493D01*
X171153973Y-124477829D01*
X171336078Y-124345522D01*
X171491632Y-124182825D01*
X171615635Y-123994968D01*
X171704103Y-123787988D01*
X171754191Y-123568537D01*
X171764290Y-123343670D01*
X171734075Y-123120613D01*
X171664517Y-122906536D01*
X171557852Y-122708319D01*
X171485167Y-122617175D01*
X171417510Y-122532336D01*
X171392652Y-122510618D01*
X171247996Y-122384235D01*
X171054764Y-122268785D01*
X170936775Y-122224503D01*
X170844023Y-122189692D01*
X170622550Y-122149500D01*
X170622547Y-122149500D01*
X170453845Y-122149500D01*
X170415399Y-122152960D01*
X170285813Y-122164622D01*
X170285807Y-122164623D01*
X170068839Y-122224503D01*
X170068826Y-122224508D01*
X169866033Y-122322167D01*
X169866025Y-122322171D01*
X169683927Y-122454473D01*
X169683925Y-122454474D01*
X169528366Y-122617176D01*
X169404363Y-122805033D01*
X169315899Y-123012004D01*
X169315895Y-123012017D01*
X169286232Y-123141982D01*
X169252123Y-123202961D01*
X169190462Y-123235819D01*
X169120825Y-123230124D01*
X169065321Y-123187684D01*
X169046680Y-123150385D01*
X169037649Y-123120613D01*
X168998229Y-122990662D01*
X168899382Y-122805734D01*
X168898806Y-122805032D01*
X168766357Y-122643642D01*
X168604267Y-122510618D01*
X168505045Y-122457581D01*
X168455201Y-122408618D01*
X168439500Y-122348224D01*
X168439500Y-120900000D01*
X171940349Y-120900000D01*
X171960901Y-121108677D01*
X172021772Y-121309340D01*
X172120620Y-121494269D01*
X172253642Y-121656357D01*
X172415730Y-121789379D01*
X172415734Y-121789382D01*
X172600662Y-121888229D01*
X172801321Y-121949098D01*
X173010000Y-121969651D01*
X173218679Y-121949098D01*
X173419338Y-121888229D01*
X173604266Y-121789382D01*
X173766357Y-121656357D01*
X173899382Y-121494266D01*
X173998229Y-121309338D01*
X174059098Y-121108679D01*
X174079651Y-120900000D01*
X174059098Y-120691321D01*
X173998229Y-120490662D01*
X173899382Y-120305734D01*
X173899379Y-120305730D01*
X173766357Y-120143642D01*
X173604269Y-120010620D01*
X173604267Y-120010619D01*
X173604266Y-120010618D01*
X173419338Y-119911771D01*
X173319008Y-119881336D01*
X173218677Y-119850901D01*
X173010000Y-119830349D01*
X172801322Y-119850901D01*
X172600659Y-119911772D01*
X172415730Y-120010620D01*
X172253642Y-120143642D01*
X172120620Y-120305730D01*
X172021772Y-120490659D01*
X171960901Y-120691322D01*
X171940349Y-120900000D01*
X168439500Y-120900000D01*
X168439500Y-114431084D01*
X168440280Y-114417199D01*
X168444048Y-114383760D01*
X168444048Y-114383759D01*
X168433921Y-114330243D01*
X168433154Y-114325721D01*
X168433009Y-114324759D01*
X168425054Y-114271973D01*
X168425052Y-114271970D01*
X168422662Y-114264219D01*
X168419977Y-114256546D01*
X168419977Y-114256543D01*
X168394555Y-114208442D01*
X168392496Y-114204365D01*
X168368878Y-114155321D01*
X168368877Y-114155320D01*
X168368876Y-114155317D01*
X168364315Y-114148629D01*
X168359477Y-114142073D01*
X168321030Y-114103626D01*
X168317813Y-114100287D01*
X168280812Y-114060410D01*
X168273549Y-114054618D01*
X168274101Y-114053924D01*
X168262176Y-114044772D01*
X168112156Y-113894752D01*
X167941750Y-113724345D01*
X167908267Y-113663025D01*
X167906500Y-113652889D01*
X167900228Y-113605246D01*
X167844355Y-113470358D01*
X167755474Y-113354526D01*
X167639643Y-113265645D01*
X167639640Y-113265644D01*
X167639638Y-113265642D01*
X167504757Y-113209773D01*
X167504755Y-113209772D01*
X167504754Y-113209772D01*
X167472828Y-113205568D01*
X167457146Y-113203504D01*
X167393249Y-113175237D01*
X167385651Y-113168246D01*
X166325819Y-112108414D01*
X166292334Y-112047091D01*
X166289500Y-112020733D01*
X166289500Y-104393222D01*
X166309185Y-104326183D01*
X166315126Y-104317734D01*
X166344355Y-104279643D01*
X166400228Y-104144754D01*
X166419285Y-104000000D01*
X166400228Y-103855246D01*
X166344355Y-103720358D01*
X166255474Y-103604526D01*
X166139643Y-103515645D01*
X166139640Y-103515644D01*
X166139638Y-103515642D01*
X166004757Y-103459773D01*
X166004752Y-103459771D01*
X165860001Y-103440715D01*
X165859999Y-103440715D01*
X165715247Y-103459771D01*
X165715245Y-103459772D01*
X165580361Y-103515643D01*
X165464526Y-103604526D01*
X165375643Y-103720361D01*
X165319772Y-103855245D01*
X165319771Y-103855247D01*
X165300715Y-103999998D01*
X165300715Y-104000001D01*
X147467406Y-104000001D01*
X141215819Y-97748414D01*
X141182334Y-97687091D01*
X141179500Y-97660733D01*
X141179500Y-87216793D01*
X141199185Y-87149754D01*
X141230611Y-87116478D01*
X141351834Y-87028405D01*
X141477652Y-86888670D01*
X141571667Y-86725830D01*
X141629772Y-86547001D01*
X141649427Y-86360000D01*
X142390573Y-86360000D01*
X142410228Y-86547003D01*
X142410229Y-86547005D01*
X142468333Y-86725831D01*
X142468334Y-86725833D01*
X142495902Y-86773582D01*
X142562348Y-86888670D01*
X142606175Y-86937345D01*
X142688160Y-87028400D01*
X142688163Y-87028402D01*
X142688166Y-87028405D01*
X142802256Y-87111296D01*
X142840287Y-87138928D01*
X142906226Y-87168285D01*
X143012062Y-87215406D01*
X143195984Y-87254500D01*
X143384016Y-87254500D01*
X143567938Y-87215406D01*
X143739714Y-87138927D01*
X143891834Y-87028405D01*
X144017652Y-86888670D01*
X144111667Y-86725830D01*
X144169772Y-86547001D01*
X144189427Y-86360000D01*
X144930573Y-86360000D01*
X144950228Y-86547003D01*
X144950229Y-86547005D01*
X145008333Y-86725831D01*
X145008334Y-86725833D01*
X145035902Y-86773582D01*
X145102348Y-86888670D01*
X145146175Y-86937345D01*
X145228160Y-87028400D01*
X145228163Y-87028402D01*
X145228166Y-87028405D01*
X145342256Y-87111296D01*
X145380287Y-87138928D01*
X145446226Y-87168285D01*
X145552062Y-87215406D01*
X145735984Y-87254500D01*
X145924016Y-87254500D01*
X146107938Y-87215406D01*
X146279714Y-87138927D01*
X146431834Y-87028405D01*
X146557652Y-86888670D01*
X146651667Y-86725830D01*
X146709772Y-86547001D01*
X146729427Y-86360000D01*
X147225116Y-86360000D01*
X147244609Y-86570369D01*
X147302427Y-86773581D01*
X147396600Y-86962703D01*
X147403975Y-86972470D01*
X147980786Y-86395659D01*
X147994465Y-86482019D01*
X148050551Y-86592093D01*
X148137907Y-86679449D01*
X148247981Y-86735535D01*
X148334339Y-86749212D01*
X147760255Y-87323295D01*
X147859680Y-87384857D01*
X147859681Y-87384858D01*
X148056685Y-87461177D01*
X148264365Y-87500000D01*
X148475635Y-87500000D01*
X148683319Y-87461176D01*
X148880309Y-87384861D01*
X148880327Y-87384852D01*
X148979742Y-87323296D01*
X148979742Y-87323295D01*
X148405660Y-86749212D01*
X148492019Y-86735535D01*
X148602093Y-86679449D01*
X148689449Y-86592093D01*
X148745535Y-86482019D01*
X148759212Y-86395659D01*
X149336023Y-86972470D01*
X149343401Y-86962700D01*
X149343403Y-86962697D01*
X149437572Y-86773582D01*
X149495390Y-86570369D01*
X149514884Y-86360000D01*
X149765116Y-86360000D01*
X149784609Y-86570369D01*
X149842427Y-86773581D01*
X149936600Y-86962703D01*
X149943975Y-86972470D01*
X150520786Y-86395659D01*
X150534465Y-86482019D01*
X150590551Y-86592093D01*
X150677907Y-86679449D01*
X150787981Y-86735535D01*
X150874339Y-86749212D01*
X150300255Y-87323295D01*
X150399680Y-87384857D01*
X150399681Y-87384858D01*
X150596685Y-87461177D01*
X150804365Y-87500000D01*
X151015635Y-87500000D01*
X151223319Y-87461176D01*
X151420309Y-87384861D01*
X151420327Y-87384852D01*
X151519742Y-87323296D01*
X151519742Y-87323295D01*
X150945660Y-86749212D01*
X151032019Y-86735535D01*
X151142093Y-86679449D01*
X151229449Y-86592093D01*
X151285535Y-86482019D01*
X151299212Y-86395659D01*
X151876023Y-86972470D01*
X151883401Y-86962700D01*
X151883403Y-86962697D01*
X151977572Y-86773582D01*
X152035390Y-86570369D01*
X152054884Y-86360000D01*
X152550573Y-86360000D01*
X152570228Y-86547003D01*
X152570229Y-86547005D01*
X152628333Y-86725831D01*
X152628334Y-86725833D01*
X152655902Y-86773582D01*
X152722348Y-86888670D01*
X152766175Y-86937345D01*
X152848160Y-87028400D01*
X152848163Y-87028402D01*
X152848166Y-87028405D01*
X152962256Y-87111296D01*
X153000287Y-87138928D01*
X153066226Y-87168285D01*
X153172062Y-87215406D01*
X153355984Y-87254500D01*
X153544016Y-87254500D01*
X153727938Y-87215406D01*
X153899714Y-87138927D01*
X154051834Y-87028405D01*
X154177652Y-86888670D01*
X154271667Y-86725830D01*
X154329772Y-86547001D01*
X154349427Y-86360000D01*
X155090573Y-86360000D01*
X155110228Y-86547003D01*
X155110229Y-86547005D01*
X155168333Y-86725831D01*
X155168334Y-86725833D01*
X155195902Y-86773582D01*
X155262348Y-86888670D01*
X155306175Y-86937345D01*
X155388160Y-87028400D01*
X155388163Y-87028402D01*
X155388166Y-87028405D01*
X155502256Y-87111296D01*
X155540287Y-87138928D01*
X155606226Y-87168285D01*
X155712062Y-87215406D01*
X155895984Y-87254500D01*
X156084016Y-87254500D01*
X156267938Y-87215406D01*
X156439714Y-87138927D01*
X156591834Y-87028405D01*
X156717652Y-86888670D01*
X156811667Y-86725830D01*
X156869772Y-86547001D01*
X156889427Y-86360000D01*
X157630573Y-86360000D01*
X157650228Y-86547003D01*
X157650229Y-86547005D01*
X157708333Y-86725831D01*
X157708334Y-86725833D01*
X157735902Y-86773582D01*
X157802348Y-86888670D01*
X157846175Y-86937345D01*
X157928160Y-87028400D01*
X157928163Y-87028402D01*
X157928166Y-87028405D01*
X158042256Y-87111296D01*
X158080287Y-87138928D01*
X158146226Y-87168285D01*
X158252062Y-87215406D01*
X158435984Y-87254500D01*
X158624016Y-87254500D01*
X158807938Y-87215406D01*
X158979714Y-87138927D01*
X159131834Y-87028405D01*
X159257652Y-86888670D01*
X159351667Y-86725830D01*
X159409772Y-86547001D01*
X159429427Y-86360000D01*
X160170573Y-86360000D01*
X160190228Y-86547003D01*
X160190229Y-86547005D01*
X160248333Y-86725831D01*
X160248334Y-86725833D01*
X160275902Y-86773582D01*
X160342348Y-86888670D01*
X160386175Y-86937345D01*
X160468160Y-87028400D01*
X160468163Y-87028402D01*
X160468166Y-87028405D01*
X160582256Y-87111296D01*
X160620287Y-87138928D01*
X160686226Y-87168285D01*
X160792062Y-87215406D01*
X160975984Y-87254500D01*
X161164016Y-87254500D01*
X161347938Y-87215406D01*
X161519714Y-87138927D01*
X161671834Y-87028405D01*
X161797652Y-86888670D01*
X161891667Y-86725830D01*
X161949772Y-86547001D01*
X161969427Y-86360000D01*
X162710573Y-86360000D01*
X162730228Y-86547003D01*
X162730229Y-86547005D01*
X162788333Y-86725831D01*
X162788334Y-86725833D01*
X162815902Y-86773582D01*
X162882348Y-86888670D01*
X162926175Y-86937345D01*
X163008160Y-87028400D01*
X163008163Y-87028402D01*
X163008166Y-87028405D01*
X163122256Y-87111296D01*
X163160287Y-87138928D01*
X163226226Y-87168285D01*
X163332062Y-87215406D01*
X163515984Y-87254500D01*
X163704016Y-87254500D01*
X163887938Y-87215406D01*
X164059714Y-87138927D01*
X164211834Y-87028405D01*
X164337652Y-86888670D01*
X164431667Y-86725830D01*
X164489772Y-86547001D01*
X164509427Y-86360000D01*
X164489772Y-86172999D01*
X164431667Y-85994170D01*
X164348431Y-85850000D01*
X171104341Y-85850000D01*
X171124936Y-86085403D01*
X171124938Y-86085413D01*
X171186094Y-86313655D01*
X171186096Y-86313659D01*
X171186097Y-86313663D01*
X171236031Y-86420746D01*
X171285964Y-86527828D01*
X171285965Y-86527830D01*
X171421505Y-86721402D01*
X171588597Y-86888494D01*
X171782169Y-87024034D01*
X171782171Y-87024035D01*
X171996337Y-87123903D01*
X172224592Y-87185063D01*
X172401032Y-87200499D01*
X172401033Y-87200500D01*
X172401034Y-87200500D01*
X172518967Y-87200500D01*
X172518967Y-87200499D01*
X172695408Y-87185063D01*
X172923663Y-87123903D01*
X173137829Y-87024035D01*
X173331401Y-86888495D01*
X173498495Y-86721401D01*
X173634035Y-86527830D01*
X173733903Y-86313663D01*
X173795063Y-86085408D01*
X173815659Y-85850000D01*
X173795063Y-85614592D01*
X173733903Y-85386337D01*
X173634035Y-85172171D01*
X173634034Y-85172169D01*
X173498494Y-84978597D01*
X173331402Y-84811505D01*
X173137830Y-84675965D01*
X173137828Y-84675964D01*
X173030746Y-84626031D01*
X172923663Y-84576097D01*
X172923659Y-84576096D01*
X172923655Y-84576094D01*
X172695413Y-84514938D01*
X172695403Y-84514936D01*
X172518967Y-84499500D01*
X172518966Y-84499500D01*
X172401034Y-84499500D01*
X172401033Y-84499500D01*
X172224596Y-84514936D01*
X172224586Y-84514938D01*
X171996344Y-84576094D01*
X171996335Y-84576098D01*
X171782171Y-84675964D01*
X171782169Y-84675965D01*
X171588597Y-84811505D01*
X171421506Y-84978597D01*
X171421501Y-84978604D01*
X171285967Y-85172165D01*
X171285965Y-85172169D01*
X171186098Y-85386335D01*
X171186094Y-85386344D01*
X171124938Y-85614586D01*
X171124936Y-85614596D01*
X171104341Y-85849999D01*
X171104341Y-85850000D01*
X164348431Y-85850000D01*
X164337652Y-85831330D01*
X164288372Y-85776599D01*
X164211839Y-85691599D01*
X164211836Y-85691597D01*
X164211835Y-85691596D01*
X164211834Y-85691595D01*
X164135774Y-85636334D01*
X164059712Y-85581071D01*
X163927832Y-85522356D01*
X163887938Y-85504594D01*
X163887936Y-85504593D01*
X163704016Y-85465500D01*
X163515984Y-85465500D01*
X163332062Y-85504593D01*
X163332057Y-85504595D01*
X163160287Y-85581073D01*
X163160282Y-85581075D01*
X163008167Y-85691593D01*
X163008160Y-85691599D01*
X162882347Y-85831331D01*
X162788334Y-85994166D01*
X162788333Y-85994168D01*
X162730229Y-86172994D01*
X162730228Y-86172996D01*
X162710573Y-86360000D01*
X161969427Y-86360000D01*
X161949772Y-86172999D01*
X161891667Y-85994170D01*
X161797652Y-85831330D01*
X161748372Y-85776599D01*
X161671839Y-85691599D01*
X161671836Y-85691597D01*
X161671835Y-85691596D01*
X161671834Y-85691595D01*
X161595774Y-85636334D01*
X161519712Y-85581071D01*
X161387832Y-85522356D01*
X161347938Y-85504594D01*
X161347936Y-85504593D01*
X161164016Y-85465500D01*
X160975984Y-85465500D01*
X160792062Y-85504593D01*
X160792057Y-85504595D01*
X160620287Y-85581073D01*
X160620282Y-85581075D01*
X160468167Y-85691593D01*
X160468160Y-85691599D01*
X160342347Y-85831331D01*
X160248334Y-85994166D01*
X160248333Y-85994168D01*
X160190229Y-86172994D01*
X160190228Y-86172996D01*
X160170573Y-86360000D01*
X159429427Y-86360000D01*
X159409772Y-86172999D01*
X159351667Y-85994170D01*
X159257652Y-85831330D01*
X159208372Y-85776599D01*
X159131839Y-85691599D01*
X159131836Y-85691597D01*
X159131835Y-85691596D01*
X159131834Y-85691595D01*
X159055774Y-85636334D01*
X158979712Y-85581071D01*
X158847832Y-85522356D01*
X158807938Y-85504594D01*
X158807936Y-85504593D01*
X158624016Y-85465500D01*
X158435984Y-85465500D01*
X158252062Y-85504593D01*
X158252057Y-85504595D01*
X158080287Y-85581073D01*
X158080282Y-85581075D01*
X157928167Y-85691593D01*
X157928160Y-85691599D01*
X157802347Y-85831331D01*
X157708334Y-85994166D01*
X157708333Y-85994168D01*
X157650229Y-86172994D01*
X157650228Y-86172996D01*
X157630573Y-86360000D01*
X156889427Y-86360000D01*
X156869772Y-86172999D01*
X156811667Y-85994170D01*
X156717652Y-85831330D01*
X156668372Y-85776599D01*
X156591839Y-85691599D01*
X156591836Y-85691597D01*
X156591835Y-85691596D01*
X156591834Y-85691595D01*
X156515774Y-85636334D01*
X156439712Y-85581071D01*
X156307832Y-85522356D01*
X156267938Y-85504594D01*
X156267936Y-85504593D01*
X156084016Y-85465500D01*
X155895984Y-85465500D01*
X155712062Y-85504593D01*
X155712057Y-85504595D01*
X155540287Y-85581073D01*
X155540282Y-85581075D01*
X155388167Y-85691593D01*
X155388160Y-85691599D01*
X155262347Y-85831331D01*
X155168334Y-85994166D01*
X155168333Y-85994168D01*
X155110229Y-86172994D01*
X155110228Y-86172996D01*
X155090573Y-86360000D01*
X154349427Y-86360000D01*
X154329772Y-86172999D01*
X154271667Y-85994170D01*
X154177652Y-85831330D01*
X154128372Y-85776599D01*
X154051839Y-85691599D01*
X154051836Y-85691597D01*
X154051835Y-85691596D01*
X154051834Y-85691595D01*
X153975774Y-85636334D01*
X153899712Y-85581071D01*
X153767832Y-85522356D01*
X153727938Y-85504594D01*
X153727936Y-85504593D01*
X153544016Y-85465500D01*
X153355984Y-85465500D01*
X153172062Y-85504593D01*
X153172057Y-85504595D01*
X153000287Y-85581073D01*
X153000282Y-85581075D01*
X152848167Y-85691593D01*
X152848160Y-85691599D01*
X152722347Y-85831331D01*
X152628334Y-85994166D01*
X152628333Y-85994168D01*
X152570229Y-86172994D01*
X152570228Y-86172996D01*
X152550573Y-86360000D01*
X152054884Y-86360000D01*
X152054884Y-86359999D01*
X152035390Y-86149630D01*
X151977572Y-85946418D01*
X151883399Y-85757295D01*
X151876024Y-85747528D01*
X151299212Y-86324339D01*
X151285535Y-86237981D01*
X151229449Y-86127907D01*
X151142093Y-86040551D01*
X151032019Y-85984465D01*
X150945660Y-85970787D01*
X151519743Y-85396703D01*
X151420319Y-85335142D01*
X151420318Y-85335141D01*
X151223314Y-85258822D01*
X151015635Y-85220000D01*
X150804365Y-85220000D01*
X150596685Y-85258822D01*
X150399683Y-85335140D01*
X150399677Y-85335143D01*
X150300256Y-85396702D01*
X150300255Y-85396703D01*
X150874339Y-85970787D01*
X150787981Y-85984465D01*
X150677907Y-86040551D01*
X150590551Y-86127907D01*
X150534465Y-86237981D01*
X150520787Y-86324340D01*
X149943974Y-85747527D01*
X149936602Y-85757292D01*
X149936598Y-85757298D01*
X149842427Y-85946418D01*
X149784609Y-86149630D01*
X149765116Y-86359999D01*
X149765116Y-86360000D01*
X149514884Y-86360000D01*
X149514884Y-86359999D01*
X149495390Y-86149630D01*
X149437572Y-85946418D01*
X149343399Y-85757295D01*
X149336024Y-85747528D01*
X148759212Y-86324339D01*
X148745535Y-86237981D01*
X148689449Y-86127907D01*
X148602093Y-86040551D01*
X148492019Y-85984465D01*
X148405660Y-85970787D01*
X148979743Y-85396703D01*
X148880319Y-85335142D01*
X148880318Y-85335141D01*
X148683314Y-85258822D01*
X148475635Y-85220000D01*
X148264365Y-85220000D01*
X148056685Y-85258822D01*
X147859683Y-85335140D01*
X147859677Y-85335143D01*
X147760256Y-85396702D01*
X147760255Y-85396703D01*
X148334339Y-85970787D01*
X148247981Y-85984465D01*
X148137907Y-86040551D01*
X148050551Y-86127907D01*
X147994465Y-86237981D01*
X147980787Y-86324340D01*
X147403974Y-85747527D01*
X147396602Y-85757292D01*
X147396598Y-85757298D01*
X147302427Y-85946418D01*
X147244609Y-86149630D01*
X147225116Y-86359999D01*
X147225116Y-86360000D01*
X146729427Y-86360000D01*
X146709772Y-86172999D01*
X146651667Y-85994170D01*
X146557652Y-85831330D01*
X146508372Y-85776599D01*
X146431839Y-85691599D01*
X146431836Y-85691597D01*
X146431835Y-85691596D01*
X146431834Y-85691595D01*
X146355774Y-85636334D01*
X146279712Y-85581071D01*
X146147832Y-85522356D01*
X146107938Y-85504594D01*
X146107936Y-85504593D01*
X145924016Y-85465500D01*
X145735984Y-85465500D01*
X145552062Y-85504593D01*
X145552057Y-85504595D01*
X145380287Y-85581073D01*
X145380282Y-85581075D01*
X145228167Y-85691593D01*
X145228160Y-85691599D01*
X145102347Y-85831331D01*
X145008334Y-85994166D01*
X145008333Y-85994168D01*
X144950229Y-86172994D01*
X144950228Y-86172996D01*
X144930573Y-86360000D01*
X144189427Y-86360000D01*
X144169772Y-86172999D01*
X144111667Y-85994170D01*
X144017652Y-85831330D01*
X143968372Y-85776599D01*
X143891839Y-85691599D01*
X143891836Y-85691597D01*
X143891835Y-85691596D01*
X143891834Y-85691595D01*
X143815774Y-85636334D01*
X143739712Y-85581071D01*
X143607832Y-85522356D01*
X143567938Y-85504594D01*
X143567936Y-85504593D01*
X143384016Y-85465500D01*
X143195984Y-85465500D01*
X143012062Y-85504593D01*
X143012057Y-85504595D01*
X142840287Y-85581073D01*
X142840282Y-85581075D01*
X142688167Y-85691593D01*
X142688160Y-85691599D01*
X142562347Y-85831331D01*
X142468334Y-85994166D01*
X142468333Y-85994168D01*
X142410229Y-86172994D01*
X142410228Y-86172996D01*
X142390573Y-86360000D01*
X141649427Y-86360000D01*
X141629772Y-86172999D01*
X141571667Y-85994170D01*
X141477652Y-85831330D01*
X141428372Y-85776599D01*
X141351839Y-85691599D01*
X141351836Y-85691597D01*
X141351835Y-85691596D01*
X141351834Y-85691595D01*
X141275774Y-85636334D01*
X141199712Y-85581071D01*
X141067832Y-85522356D01*
X141027938Y-85504594D01*
X141027936Y-85504593D01*
X140844016Y-85465500D01*
X140655984Y-85465500D01*
X140472062Y-85504593D01*
X140472057Y-85504595D01*
X140300287Y-85581073D01*
X140300282Y-85581075D01*
X140148167Y-85691593D01*
X140148160Y-85691599D01*
X140022347Y-85831331D01*
X139928334Y-85994166D01*
X139928333Y-85994168D01*
X139870229Y-86172994D01*
X139870228Y-86172996D01*
X139850573Y-86360000D01*
X139870228Y-86547003D01*
X139870229Y-86547005D01*
X139928333Y-86725831D01*
X139928334Y-86725833D01*
X139955902Y-86773582D01*
X140022348Y-86888670D01*
X140066175Y-86937345D01*
X140148160Y-87028400D01*
X140148166Y-87028405D01*
X140269386Y-87116477D01*
X140312051Y-87171804D01*
X140320500Y-87216793D01*
X140320500Y-97508329D01*
X140300815Y-97575368D01*
X140248011Y-97621123D01*
X140178853Y-97631067D01*
X140115297Y-97602042D01*
X140108819Y-97596010D01*
X138675819Y-96163010D01*
X138642334Y-96101687D01*
X138639500Y-96075329D01*
X138639500Y-87216793D01*
X138659185Y-87149754D01*
X138690611Y-87116478D01*
X138811834Y-87028405D01*
X138937652Y-86888670D01*
X139031667Y-86725830D01*
X139089772Y-86547001D01*
X139109427Y-86360000D01*
X139089772Y-86172999D01*
X139031667Y-85994170D01*
X138937652Y-85831330D01*
X138888372Y-85776599D01*
X138811839Y-85691599D01*
X138811836Y-85691597D01*
X138811835Y-85691596D01*
X138811834Y-85691595D01*
X138735774Y-85636334D01*
X138659712Y-85581071D01*
X138527832Y-85522356D01*
X138487938Y-85504594D01*
X138487936Y-85504593D01*
X138304016Y-85465500D01*
X138115984Y-85465500D01*
X137932062Y-85504593D01*
X137932057Y-85504595D01*
X137760287Y-85581073D01*
X137760282Y-85581075D01*
X137608167Y-85691593D01*
X137608160Y-85691599D01*
X137482347Y-85831331D01*
X137388334Y-85994166D01*
X137388333Y-85994168D01*
X137330229Y-86172994D01*
X137330228Y-86172996D01*
X137310573Y-86360000D01*
X137330228Y-86547003D01*
X137330229Y-86547005D01*
X137388333Y-86725831D01*
X137388334Y-86725833D01*
X137415902Y-86773582D01*
X137482348Y-86888670D01*
X137526175Y-86937345D01*
X137608160Y-87028400D01*
X137608166Y-87028405D01*
X137729386Y-87116477D01*
X137772051Y-87171804D01*
X137780500Y-87216793D01*
X137780500Y-95922925D01*
X137760815Y-95989964D01*
X137708011Y-96035719D01*
X137638853Y-96045663D01*
X137575297Y-96016638D01*
X137568819Y-96010606D01*
X136135819Y-94577606D01*
X136102334Y-94516283D01*
X136099500Y-94489925D01*
X136099500Y-87216793D01*
X136119185Y-87149754D01*
X136150611Y-87116478D01*
X136271834Y-87028405D01*
X136397652Y-86888670D01*
X136491667Y-86725830D01*
X136549772Y-86547001D01*
X136569427Y-86360000D01*
X136549772Y-86172999D01*
X136491667Y-85994170D01*
X136397652Y-85831330D01*
X136348372Y-85776599D01*
X136271839Y-85691599D01*
X136271836Y-85691597D01*
X136271835Y-85691596D01*
X136271834Y-85691595D01*
X136195774Y-85636334D01*
X136119712Y-85581071D01*
X135987832Y-85522356D01*
X135947938Y-85504594D01*
X135947936Y-85504593D01*
X135764016Y-85465500D01*
X135575984Y-85465500D01*
X135392062Y-85504593D01*
X135392057Y-85504595D01*
X135220287Y-85581073D01*
X135220282Y-85581075D01*
X135068167Y-85691593D01*
X135068160Y-85691599D01*
X134942347Y-85831331D01*
X134848334Y-85994166D01*
X134848333Y-85994168D01*
X134790229Y-86172994D01*
X134790228Y-86172996D01*
X134770573Y-86360000D01*
X134790228Y-86547003D01*
X134790229Y-86547005D01*
X134848333Y-86725831D01*
X134848334Y-86725833D01*
X134875902Y-86773582D01*
X134942348Y-86888670D01*
X134986175Y-86937345D01*
X135068160Y-87028400D01*
X135068166Y-87028405D01*
X135189386Y-87116477D01*
X135232051Y-87171804D01*
X135240500Y-87216793D01*
X135240500Y-94337521D01*
X135220815Y-94404560D01*
X135168011Y-94450315D01*
X135098853Y-94460259D01*
X135035297Y-94431234D01*
X135028819Y-94425202D01*
X133595819Y-92992202D01*
X133562334Y-92930879D01*
X133559500Y-92904521D01*
X133559500Y-87216793D01*
X133579185Y-87149754D01*
X133610611Y-87116478D01*
X133731834Y-87028405D01*
X133857652Y-86888670D01*
X133951667Y-86725830D01*
X134009772Y-86547001D01*
X134029427Y-86360000D01*
X134009772Y-86172999D01*
X133951667Y-85994170D01*
X133857652Y-85831330D01*
X133808372Y-85776599D01*
X133731839Y-85691599D01*
X133731836Y-85691597D01*
X133731835Y-85691596D01*
X133731834Y-85691595D01*
X133655774Y-85636334D01*
X133579712Y-85581071D01*
X133447832Y-85522356D01*
X133407938Y-85504594D01*
X133407936Y-85504593D01*
X133224016Y-85465500D01*
X133035984Y-85465500D01*
X132852062Y-85504593D01*
X132852057Y-85504595D01*
X132680287Y-85581073D01*
X132680282Y-85581075D01*
X132528167Y-85691593D01*
X132528160Y-85691599D01*
X132402347Y-85831331D01*
X132308334Y-85994166D01*
X132308333Y-85994168D01*
X132250229Y-86172994D01*
X132250228Y-86172996D01*
X132230573Y-86360000D01*
X132250228Y-86547003D01*
X132250229Y-86547005D01*
X132308333Y-86725831D01*
X132308334Y-86725833D01*
X132335902Y-86773582D01*
X132402348Y-86888670D01*
X132446175Y-86937345D01*
X132528160Y-87028400D01*
X132528166Y-87028405D01*
X132649386Y-87116477D01*
X132692051Y-87171804D01*
X132700500Y-87216793D01*
X132700500Y-92752117D01*
X132680815Y-92819156D01*
X132628011Y-92864911D01*
X132558853Y-92874855D01*
X132495297Y-92845830D01*
X132488819Y-92839798D01*
X131055819Y-91406798D01*
X131022334Y-91345475D01*
X131019500Y-91319117D01*
X131019500Y-87216793D01*
X131039185Y-87149754D01*
X131070611Y-87116478D01*
X131191834Y-87028405D01*
X131317652Y-86888670D01*
X131411667Y-86725830D01*
X131469772Y-86547001D01*
X131489427Y-86360000D01*
X131469772Y-86172999D01*
X131411667Y-85994170D01*
X131317652Y-85831330D01*
X131268372Y-85776599D01*
X131191839Y-85691599D01*
X131191836Y-85691597D01*
X131191835Y-85691596D01*
X131191834Y-85691595D01*
X131115774Y-85636334D01*
X131039712Y-85581071D01*
X130907832Y-85522356D01*
X130867938Y-85504594D01*
X130867936Y-85504593D01*
X130684016Y-85465500D01*
X130495984Y-85465500D01*
X130312062Y-85504593D01*
X130312057Y-85504595D01*
X130140287Y-85581073D01*
X130140282Y-85581075D01*
X129988167Y-85691593D01*
X129988160Y-85691599D01*
X129862347Y-85831331D01*
X129768334Y-85994166D01*
X129768333Y-85994168D01*
X129710229Y-86172994D01*
X129710228Y-86172996D01*
X129690573Y-86360000D01*
X118185500Y-86360000D01*
X118185500Y-82449500D01*
X118205185Y-82382461D01*
X118257989Y-82336706D01*
X118309500Y-82325500D01*
X125735500Y-82325500D01*
X125802539Y-82345185D01*
G37*
G04 #@! TD.AperFunction*
G04 #@! TA.AperFunction,Conductor*
G36*
X187802539Y-82345185D02*
G01*
X187848294Y-82397989D01*
X187859500Y-82449500D01*
X187859500Y-82571963D01*
X187900045Y-82710050D01*
X187900047Y-82710053D01*
X187977857Y-82831128D01*
X188086627Y-82925377D01*
X188217543Y-82985165D01*
X188324201Y-83000500D01*
X188324204Y-83000500D01*
X188395796Y-83000500D01*
X188395799Y-83000500D01*
X188502457Y-82985165D01*
X188569954Y-82954339D01*
X188639110Y-82944396D01*
X188702666Y-82973420D01*
X188725779Y-83000094D01*
X188777855Y-83081125D01*
X188777857Y-83081128D01*
X188886627Y-83175377D01*
X189017543Y-83235165D01*
X189124201Y-83250500D01*
X189124204Y-83250500D01*
X189195796Y-83250500D01*
X189195799Y-83250500D01*
X189302457Y-83235165D01*
X189433373Y-83175377D01*
X189433382Y-83175368D01*
X189440833Y-83170582D01*
X189442456Y-83173108D01*
X189492326Y-83150320D01*
X189561487Y-83160248D01*
X189578699Y-83171310D01*
X189579167Y-83170582D01*
X189586619Y-83175370D01*
X189586627Y-83175377D01*
X189717543Y-83235165D01*
X189824201Y-83250500D01*
X189824204Y-83250500D01*
X189895796Y-83250500D01*
X189895799Y-83250500D01*
X190002457Y-83235165D01*
X190133373Y-83175377D01*
X190242143Y-83081128D01*
X190294220Y-83000094D01*
X190347021Y-82954340D01*
X190416179Y-82944396D01*
X190450047Y-82954340D01*
X190517543Y-82985165D01*
X190624201Y-83000500D01*
X190624204Y-83000500D01*
X190695796Y-83000500D01*
X190695799Y-83000500D01*
X190802457Y-82985165D01*
X190933373Y-82925377D01*
X191042143Y-82831128D01*
X191119953Y-82710053D01*
X191160500Y-82571961D01*
X191160500Y-82449500D01*
X191180185Y-82382461D01*
X191232989Y-82336706D01*
X191284500Y-82325500D01*
X226735500Y-82325500D01*
X226802539Y-82345185D01*
X226848294Y-82397989D01*
X226859500Y-82449500D01*
X226859500Y-82571963D01*
X226900045Y-82710050D01*
X226900047Y-82710053D01*
X226977857Y-82831128D01*
X227086627Y-82925377D01*
X227217543Y-82985165D01*
X227324201Y-83000500D01*
X227324204Y-83000500D01*
X227395796Y-83000500D01*
X227395799Y-83000500D01*
X227502457Y-82985165D01*
X227569954Y-82954339D01*
X227639110Y-82944396D01*
X227702666Y-82973420D01*
X227725779Y-83000094D01*
X227777855Y-83081125D01*
X227777857Y-83081128D01*
X227886627Y-83175377D01*
X228017543Y-83235165D01*
X228124201Y-83250500D01*
X228124204Y-83250500D01*
X228195796Y-83250500D01*
X228195799Y-83250500D01*
X228302457Y-83235165D01*
X228433373Y-83175377D01*
X228433382Y-83175368D01*
X228440833Y-83170582D01*
X228442456Y-83173108D01*
X228492326Y-83150320D01*
X228561487Y-83160248D01*
X228578699Y-83171310D01*
X228579167Y-83170582D01*
X228586619Y-83175370D01*
X228586627Y-83175377D01*
X228717543Y-83235165D01*
X228824201Y-83250500D01*
X228824204Y-83250500D01*
X228895796Y-83250500D01*
X228895799Y-83250500D01*
X229002457Y-83235165D01*
X229133373Y-83175377D01*
X229242143Y-83081128D01*
X229294220Y-83000094D01*
X229347021Y-82954340D01*
X229416179Y-82944396D01*
X229450047Y-82954340D01*
X229517543Y-82985165D01*
X229624201Y-83000500D01*
X229624204Y-83000500D01*
X229695796Y-83000500D01*
X229695799Y-83000500D01*
X229802457Y-82985165D01*
X229933373Y-82925377D01*
X230042143Y-82831128D01*
X230119953Y-82710053D01*
X230160500Y-82571961D01*
X230160500Y-82451907D01*
X230180185Y-82384868D01*
X230232989Y-82339113D01*
X230284458Y-82327907D01*
X237910462Y-82325561D01*
X237977507Y-82345225D01*
X238023279Y-82398015D01*
X238034500Y-82449561D01*
X238034500Y-126800500D01*
X238014815Y-126867539D01*
X237962011Y-126913294D01*
X237910500Y-126924500D01*
X235786181Y-126924500D01*
X235719142Y-126904815D01*
X235673387Y-126852011D01*
X235663443Y-126782853D01*
X235692468Y-126719297D01*
X235707516Y-126704647D01*
X235766357Y-126656357D01*
X235899382Y-126494266D01*
X235998229Y-126309338D01*
X236059098Y-126108679D01*
X236079651Y-125900000D01*
X236059098Y-125691321D01*
X235998229Y-125490662D01*
X235899382Y-125305734D01*
X235844555Y-125238927D01*
X235766357Y-125143642D01*
X235604269Y-125010620D01*
X235604267Y-125010619D01*
X235604266Y-125010618D01*
X235419338Y-124911771D01*
X235319008Y-124881336D01*
X235218677Y-124850901D01*
X235010000Y-124830349D01*
X234801322Y-124850901D01*
X234600659Y-124911772D01*
X234415730Y-125010620D01*
X234253642Y-125143642D01*
X234120620Y-125305730D01*
X234021772Y-125490659D01*
X233960901Y-125691322D01*
X233940349Y-125900000D01*
X233960901Y-126108677D01*
X233979162Y-126168874D01*
X234003619Y-126249500D01*
X234021772Y-126309340D01*
X234120620Y-126494269D01*
X234253642Y-126656357D01*
X234312484Y-126704647D01*
X234351818Y-126762392D01*
X234353689Y-126832237D01*
X234317502Y-126892005D01*
X234254746Y-126922721D01*
X234233819Y-126924500D01*
X230284500Y-126924500D01*
X230217461Y-126904815D01*
X230171706Y-126852011D01*
X230160500Y-126800500D01*
X230160500Y-126678038D01*
X230160499Y-126678036D01*
X230119954Y-126539949D01*
X230119953Y-126539947D01*
X230042143Y-126418872D01*
X229933373Y-126324623D01*
X229933371Y-126324622D01*
X229802456Y-126264834D01*
X229722611Y-126253355D01*
X229695799Y-126249500D01*
X229624201Y-126249500D01*
X229610794Y-126251427D01*
X229517543Y-126264834D01*
X229450044Y-126295660D01*
X229380886Y-126305603D01*
X229317330Y-126276577D01*
X229294221Y-126249908D01*
X229242143Y-126168872D01*
X229133373Y-126074623D01*
X229133371Y-126074622D01*
X229002456Y-126014834D01*
X228922611Y-126003355D01*
X228895799Y-125999500D01*
X228824201Y-125999500D01*
X228810794Y-126001427D01*
X228717543Y-126014834D01*
X228586628Y-126074622D01*
X228579166Y-126079418D01*
X228577544Y-126076895D01*
X228527645Y-126099683D01*
X228458487Y-126089739D01*
X228441299Y-126078693D01*
X228440834Y-126079418D01*
X228433371Y-126074622D01*
X228302456Y-126014834D01*
X228222611Y-126003355D01*
X228195799Y-125999500D01*
X228124201Y-125999500D01*
X228110794Y-126001427D01*
X228017543Y-126014834D01*
X227886628Y-126074622D01*
X227886626Y-126074623D01*
X227777855Y-126168874D01*
X227725779Y-126249905D01*
X227672975Y-126295660D01*
X227603816Y-126305603D01*
X227569953Y-126295659D01*
X227502458Y-126264835D01*
X227466904Y-126259723D01*
X227395799Y-126249500D01*
X227324201Y-126249500D01*
X227310794Y-126251427D01*
X227217543Y-126264834D01*
X227086628Y-126324622D01*
X227086626Y-126324623D01*
X226977856Y-126418873D01*
X226900045Y-126539949D01*
X226859500Y-126678036D01*
X226859500Y-126800500D01*
X226839815Y-126867539D01*
X226787011Y-126913294D01*
X226735500Y-126924500D01*
X221309500Y-126924500D01*
X221242461Y-126904815D01*
X221196706Y-126852011D01*
X221185500Y-126800500D01*
X221185500Y-124460000D01*
X221925116Y-124460000D01*
X221944609Y-124670369D01*
X222002427Y-124873581D01*
X222096600Y-125062703D01*
X222103975Y-125072470D01*
X222680786Y-124495659D01*
X222694465Y-124582019D01*
X222750551Y-124692093D01*
X222837907Y-124779449D01*
X222947981Y-124835535D01*
X223034339Y-124849212D01*
X222460255Y-125423295D01*
X222559680Y-125484857D01*
X222559681Y-125484858D01*
X222756685Y-125561177D01*
X222964365Y-125600000D01*
X223175635Y-125600000D01*
X223383319Y-125561176D01*
X223580309Y-125484861D01*
X223580327Y-125484852D01*
X223679742Y-125423296D01*
X223679742Y-125423295D01*
X223105660Y-124849212D01*
X223192019Y-124835535D01*
X223302093Y-124779449D01*
X223389449Y-124692093D01*
X223445535Y-124582019D01*
X223459212Y-124495659D01*
X224036023Y-125072470D01*
X224043401Y-125062700D01*
X224043403Y-125062697D01*
X224137572Y-124873582D01*
X224195390Y-124670369D01*
X224214884Y-124460000D01*
X224214884Y-124459999D01*
X224195390Y-124249630D01*
X224137572Y-124046418D01*
X224043399Y-123857295D01*
X224036024Y-123847528D01*
X223459212Y-124424339D01*
X223445535Y-124337981D01*
X223389449Y-124227907D01*
X223302093Y-124140551D01*
X223192019Y-124084465D01*
X223105660Y-124070787D01*
X223679743Y-123496703D01*
X223580319Y-123435142D01*
X223580318Y-123435141D01*
X223383314Y-123358822D01*
X223175635Y-123320000D01*
X222964365Y-123320000D01*
X222756685Y-123358822D01*
X222559683Y-123435140D01*
X222559677Y-123435143D01*
X222460256Y-123496702D01*
X222460255Y-123496703D01*
X223034339Y-124070787D01*
X222947981Y-124084465D01*
X222837907Y-124140551D01*
X222750551Y-124227907D01*
X222694465Y-124337981D01*
X222680787Y-124424340D01*
X222103974Y-123847527D01*
X222096602Y-123857292D01*
X222096598Y-123857298D01*
X222002427Y-124046418D01*
X221944609Y-124249630D01*
X221925116Y-124459999D01*
X221925116Y-124460000D01*
X221185500Y-124460000D01*
X221185500Y-119045352D01*
X221187384Y-119023818D01*
X221189122Y-119013955D01*
X221189124Y-119013952D01*
X221187384Y-119004083D01*
X221186218Y-118990761D01*
X221184781Y-118982611D01*
X221181322Y-118969699D01*
X221179581Y-118959829D01*
X221179581Y-118959828D01*
X221179579Y-118959827D01*
X221176061Y-118953733D01*
X221171549Y-118948355D01*
X221162866Y-118943342D01*
X221145161Y-118930945D01*
X221137480Y-118924500D01*
X221130879Y-118922097D01*
X221123952Y-118920876D01*
X221123951Y-118920876D01*
X221120217Y-118921534D01*
X221114081Y-118922616D01*
X221092552Y-118924500D01*
X210555352Y-118924500D01*
X210533818Y-118922616D01*
X210523952Y-118920876D01*
X210523951Y-118920876D01*
X210520217Y-118921534D01*
X210514081Y-118922616D01*
X210500767Y-118923781D01*
X210492620Y-118925217D01*
X210479711Y-118928675D01*
X210469827Y-118930418D01*
X210463740Y-118933932D01*
X210458354Y-118938452D01*
X210453338Y-118947139D01*
X210440949Y-118964832D01*
X210434500Y-118972517D01*
X210432098Y-118979118D01*
X210430876Y-118986048D01*
X210432616Y-118995915D01*
X210434500Y-119017447D01*
X210434500Y-126800500D01*
X210414815Y-126867539D01*
X210362011Y-126913294D01*
X210310500Y-126924500D01*
X191284500Y-126924500D01*
X191217461Y-126904815D01*
X191171706Y-126852011D01*
X191160500Y-126800500D01*
X191160500Y-126678038D01*
X191160499Y-126678036D01*
X191119954Y-126539949D01*
X191119953Y-126539947D01*
X191042143Y-126418872D01*
X190933373Y-126324623D01*
X190933371Y-126324622D01*
X190802456Y-126264834D01*
X190722611Y-126253355D01*
X190695799Y-126249500D01*
X190624201Y-126249500D01*
X190610794Y-126251427D01*
X190517543Y-126264834D01*
X190450044Y-126295660D01*
X190380886Y-126305603D01*
X190317330Y-126276577D01*
X190294221Y-126249908D01*
X190242143Y-126168872D01*
X190133373Y-126074623D01*
X190133371Y-126074622D01*
X190002456Y-126014834D01*
X189922611Y-126003355D01*
X189895799Y-125999500D01*
X189824201Y-125999500D01*
X189810794Y-126001427D01*
X189717543Y-126014834D01*
X189586628Y-126074622D01*
X189579166Y-126079418D01*
X189577544Y-126076895D01*
X189527645Y-126099683D01*
X189458487Y-126089739D01*
X189441299Y-126078693D01*
X189440834Y-126079418D01*
X189433371Y-126074622D01*
X189302456Y-126014834D01*
X189222611Y-126003355D01*
X189195799Y-125999500D01*
X189124201Y-125999500D01*
X189110794Y-126001427D01*
X189017543Y-126014834D01*
X188886628Y-126074622D01*
X188886626Y-126074623D01*
X188777855Y-126168874D01*
X188725779Y-126249905D01*
X188672975Y-126295660D01*
X188603816Y-126305603D01*
X188569953Y-126295659D01*
X188502458Y-126264835D01*
X188466904Y-126259723D01*
X188395799Y-126249500D01*
X188324201Y-126249500D01*
X188310794Y-126251427D01*
X188217543Y-126264834D01*
X188086628Y-126324622D01*
X188086626Y-126324623D01*
X187977856Y-126418873D01*
X187900045Y-126539949D01*
X187859500Y-126678036D01*
X187859500Y-126800500D01*
X187839815Y-126867539D01*
X187787011Y-126913294D01*
X187735500Y-126924500D01*
X180309500Y-126924500D01*
X180242461Y-126904815D01*
X180196706Y-126852011D01*
X180185500Y-126800500D01*
X180185500Y-123450000D01*
X182304341Y-123450000D01*
X182324936Y-123685403D01*
X182324938Y-123685413D01*
X182386094Y-123913655D01*
X182386096Y-123913659D01*
X182386097Y-123913663D01*
X182436031Y-124020746D01*
X182485964Y-124127828D01*
X182485965Y-124127830D01*
X182621505Y-124321402D01*
X182788597Y-124488494D01*
X182982169Y-124624034D01*
X182982171Y-124624035D01*
X183196337Y-124723903D01*
X183424592Y-124785063D01*
X183601032Y-124800499D01*
X183601033Y-124800500D01*
X183601034Y-124800500D01*
X183718967Y-124800500D01*
X183718967Y-124800499D01*
X183895408Y-124785063D01*
X184123663Y-124723903D01*
X184337829Y-124624035D01*
X184531401Y-124488495D01*
X184559896Y-124460000D01*
X191690573Y-124460000D01*
X191710228Y-124647003D01*
X191710229Y-124647005D01*
X191768333Y-124825831D01*
X191768334Y-124825833D01*
X191817951Y-124911772D01*
X191862348Y-124988670D01*
X191882112Y-125010620D01*
X191988160Y-125128400D01*
X191988163Y-125128402D01*
X191988166Y-125128405D01*
X192102256Y-125211296D01*
X192140287Y-125238928D01*
X192206226Y-125268285D01*
X192312062Y-125315406D01*
X192495984Y-125354500D01*
X192684016Y-125354500D01*
X192867938Y-125315406D01*
X193039714Y-125238927D01*
X193191834Y-125128405D01*
X193317652Y-124988670D01*
X193411667Y-124825830D01*
X193469772Y-124647001D01*
X193489427Y-124460000D01*
X193469772Y-124272999D01*
X193411667Y-124094170D01*
X193410228Y-124091678D01*
X193354392Y-123994966D01*
X193317652Y-123931330D01*
X193268372Y-123876599D01*
X193191839Y-123791599D01*
X193191836Y-123791597D01*
X193191835Y-123791596D01*
X193191834Y-123791595D01*
X193104612Y-123728224D01*
X193036614Y-123678820D01*
X192993949Y-123623489D01*
X192985500Y-123578502D01*
X192985500Y-121505448D01*
X193005185Y-121438409D01*
X193021819Y-121417767D01*
X194454819Y-119984767D01*
X194516142Y-119951282D01*
X194585834Y-119956266D01*
X194641767Y-119998138D01*
X194666184Y-120063602D01*
X194666500Y-120072448D01*
X194666500Y-123627907D01*
X194646815Y-123694946D01*
X194615386Y-123728224D01*
X194528169Y-123791592D01*
X194528160Y-123791599D01*
X194402347Y-123931331D01*
X194308334Y-124094166D01*
X194308333Y-124094168D01*
X194250229Y-124272994D01*
X194250228Y-124272996D01*
X194230573Y-124460000D01*
X194250228Y-124647003D01*
X194250229Y-124647005D01*
X194308333Y-124825831D01*
X194308334Y-124825833D01*
X194357951Y-124911772D01*
X194402348Y-124988670D01*
X194422112Y-125010620D01*
X194528160Y-125128400D01*
X194528163Y-125128402D01*
X194528166Y-125128405D01*
X194642256Y-125211296D01*
X194680287Y-125238928D01*
X194746226Y-125268285D01*
X194852062Y-125315406D01*
X195035984Y-125354500D01*
X195224016Y-125354500D01*
X195407938Y-125315406D01*
X195579714Y-125238927D01*
X195731834Y-125128405D01*
X195857652Y-124988670D01*
X195951667Y-124825830D01*
X196009772Y-124647001D01*
X196029427Y-124460000D01*
X196009772Y-124272999D01*
X195951667Y-124094170D01*
X195950228Y-124091678D01*
X195894392Y-123994966D01*
X195857652Y-123931330D01*
X195808372Y-123876599D01*
X195731839Y-123791599D01*
X195731836Y-123791597D01*
X195731835Y-123791596D01*
X195731834Y-123791595D01*
X195644612Y-123728224D01*
X195576614Y-123678820D01*
X195533949Y-123623489D01*
X195525500Y-123578502D01*
X195525500Y-119743266D01*
X195545185Y-119676227D01*
X195561819Y-119655585D01*
X197751586Y-117465819D01*
X197812909Y-117432334D01*
X197839267Y-117429500D01*
X222880734Y-117429500D01*
X222947773Y-117449185D01*
X222968415Y-117465819D01*
X225110181Y-119607585D01*
X225143666Y-119668908D01*
X225146500Y-119695266D01*
X225146500Y-123627907D01*
X225126815Y-123694946D01*
X225095386Y-123728224D01*
X225008169Y-123791592D01*
X225008160Y-123791599D01*
X224882347Y-123931331D01*
X224788334Y-124094166D01*
X224788333Y-124094168D01*
X224730229Y-124272994D01*
X224730228Y-124272996D01*
X224710573Y-124460000D01*
X224730228Y-124647003D01*
X224730229Y-124647005D01*
X224788333Y-124825831D01*
X224788334Y-124825833D01*
X224837951Y-124911772D01*
X224882348Y-124988670D01*
X224902112Y-125010620D01*
X225008160Y-125128400D01*
X225008163Y-125128402D01*
X225008166Y-125128405D01*
X225122256Y-125211296D01*
X225160287Y-125238928D01*
X225226226Y-125268285D01*
X225332062Y-125315406D01*
X225515984Y-125354500D01*
X225704016Y-125354500D01*
X225887938Y-125315406D01*
X226059714Y-125238927D01*
X226211834Y-125128405D01*
X226337652Y-124988670D01*
X226431667Y-124825830D01*
X226489772Y-124647001D01*
X226509427Y-124460000D01*
X226489772Y-124272999D01*
X226431667Y-124094170D01*
X226430228Y-124091678D01*
X226374392Y-123994966D01*
X226337652Y-123931330D01*
X226288372Y-123876599D01*
X226211839Y-123791599D01*
X226211836Y-123791597D01*
X226211835Y-123791596D01*
X226211834Y-123791595D01*
X226124612Y-123728224D01*
X226056614Y-123678820D01*
X226013949Y-123623489D01*
X226005500Y-123578502D01*
X226005500Y-119497084D01*
X226006280Y-119483199D01*
X226010048Y-119449760D01*
X226010048Y-119449759D01*
X225999921Y-119396243D01*
X225999154Y-119391721D01*
X225991054Y-119337973D01*
X225991052Y-119337970D01*
X225988662Y-119330219D01*
X225985978Y-119322548D01*
X225985977Y-119322543D01*
X225976112Y-119303878D01*
X225960550Y-119274431D01*
X225958461Y-119270292D01*
X225934878Y-119221321D01*
X225930303Y-119214611D01*
X225925478Y-119208073D01*
X225887018Y-119169613D01*
X225883801Y-119166274D01*
X225846812Y-119126410D01*
X225839547Y-119120616D01*
X225840100Y-119119922D01*
X225828177Y-119110772D01*
X223435683Y-116718278D01*
X223426416Y-116707908D01*
X223405436Y-116681599D01*
X223360494Y-116650958D01*
X223356714Y-116648276D01*
X223312955Y-116615981D01*
X223305813Y-116612205D01*
X223298460Y-116608664D01*
X223298458Y-116608663D01*
X223298455Y-116608662D01*
X223298453Y-116608661D01*
X223246475Y-116592627D01*
X223242075Y-116591179D01*
X223190750Y-116573220D01*
X223182781Y-116571712D01*
X223174738Y-116570500D01*
X223174737Y-116570500D01*
X223120323Y-116570500D01*
X223115688Y-116570413D01*
X223113299Y-116570323D01*
X223061370Y-116568380D01*
X223052138Y-116569421D01*
X223052038Y-116568538D01*
X223037136Y-116570500D01*
X219196266Y-116570500D01*
X219129227Y-116550815D01*
X219083472Y-116498011D01*
X219073528Y-116428853D01*
X219102553Y-116365297D01*
X219108585Y-116358819D01*
X220925819Y-114541585D01*
X222891728Y-112575675D01*
X222902090Y-112566416D01*
X222928402Y-112545434D01*
X222959056Y-112500470D01*
X222961698Y-112496745D01*
X222994016Y-112452959D01*
X222994018Y-112452953D01*
X222997812Y-112445776D01*
X223001333Y-112438462D01*
X223001337Y-112438458D01*
X223017386Y-112386424D01*
X223018807Y-112382107D01*
X223036779Y-112330751D01*
X223036779Y-112330745D01*
X223038290Y-112322762D01*
X223039500Y-112314738D01*
X223039500Y-112260322D01*
X223039587Y-112255685D01*
X223041619Y-112201370D01*
X223040579Y-112192138D01*
X223041460Y-112192038D01*
X223039500Y-112177135D01*
X223039500Y-105393222D01*
X223059185Y-105326183D01*
X223065126Y-105317734D01*
X223094355Y-105279643D01*
X223150228Y-105144754D01*
X223169285Y-105000000D01*
X223150228Y-104855246D01*
X223094355Y-104720358D01*
X223005474Y-104604526D01*
X222889643Y-104515645D01*
X222889640Y-104515644D01*
X222889638Y-104515642D01*
X222754757Y-104459773D01*
X222754752Y-104459771D01*
X222610001Y-104440715D01*
X222609999Y-104440715D01*
X222465247Y-104459771D01*
X222465245Y-104459772D01*
X222330361Y-104515643D01*
X222214526Y-104604526D01*
X222125643Y-104720361D01*
X222069772Y-104855245D01*
X222069771Y-104855247D01*
X222050715Y-104999998D01*
X222050715Y-105000001D01*
X222069771Y-105144752D01*
X222069773Y-105144757D01*
X222125642Y-105279638D01*
X222125646Y-105279644D01*
X222154874Y-105317734D01*
X222180070Y-105382903D01*
X222180500Y-105393222D01*
X222180500Y-112020733D01*
X222160815Y-112087772D01*
X222144181Y-112108414D01*
X218268414Y-115984181D01*
X218207091Y-116017666D01*
X218180733Y-116020500D01*
X197413265Y-116020500D01*
X197399379Y-116019720D01*
X197365940Y-116015951D01*
X197312495Y-116026064D01*
X197307926Y-116026841D01*
X197290730Y-116029432D01*
X197254155Y-116034946D01*
X197254154Y-116034946D01*
X197254150Y-116034947D01*
X197246401Y-116037336D01*
X197238724Y-116040023D01*
X197190631Y-116065440D01*
X197186497Y-116067527D01*
X197137502Y-116091122D01*
X197130807Y-116095687D01*
X197124253Y-116100523D01*
X197085804Y-116138972D01*
X197082470Y-116142184D01*
X197042592Y-116179187D01*
X197036799Y-116186452D01*
X197036107Y-116185900D01*
X197026957Y-116197819D01*
X192274275Y-120950500D01*
X192263908Y-120959765D01*
X192237598Y-120980746D01*
X192206965Y-121025677D01*
X192204284Y-121029455D01*
X192171985Y-121073219D01*
X192168181Y-121080417D01*
X192164663Y-121087723D01*
X192148631Y-121139696D01*
X192147182Y-121144097D01*
X192129221Y-121195429D01*
X192127711Y-121203408D01*
X192126500Y-121211445D01*
X192126500Y-121265858D01*
X192126413Y-121270494D01*
X192124380Y-121324813D01*
X192125421Y-121334048D01*
X192124536Y-121334147D01*
X192126500Y-121349048D01*
X192126500Y-123627907D01*
X192106815Y-123694946D01*
X192075386Y-123728224D01*
X191988169Y-123791592D01*
X191988160Y-123791599D01*
X191862347Y-123931331D01*
X191768334Y-124094166D01*
X191768333Y-124094168D01*
X191710229Y-124272994D01*
X191710228Y-124272996D01*
X191690573Y-124460000D01*
X184559896Y-124460000D01*
X184698495Y-124321401D01*
X184834035Y-124127830D01*
X184933903Y-123913663D01*
X184995063Y-123685408D01*
X185015659Y-123450000D01*
X184995063Y-123214592D01*
X184933903Y-122986337D01*
X184834035Y-122772171D01*
X184834034Y-122772169D01*
X184698494Y-122578597D01*
X184531402Y-122411505D01*
X184337830Y-122275965D01*
X184337828Y-122275964D01*
X184152817Y-122189692D01*
X184123663Y-122176097D01*
X184123659Y-122176096D01*
X184123655Y-122176094D01*
X183895413Y-122114938D01*
X183895403Y-122114936D01*
X183718967Y-122099500D01*
X183718966Y-122099500D01*
X183601034Y-122099500D01*
X183601033Y-122099500D01*
X183424596Y-122114936D01*
X183424586Y-122114938D01*
X183196344Y-122176094D01*
X183196335Y-122176098D01*
X182982171Y-122275964D01*
X182982169Y-122275965D01*
X182788597Y-122411505D01*
X182621506Y-122578597D01*
X182621501Y-122578604D01*
X182485967Y-122772165D01*
X182485965Y-122772169D01*
X182386098Y-122986335D01*
X182386094Y-122986344D01*
X182324938Y-123214586D01*
X182324936Y-123214596D01*
X182304341Y-123449999D01*
X182304341Y-123450000D01*
X180185500Y-123450000D01*
X180185500Y-86360000D01*
X191690573Y-86360000D01*
X191710228Y-86547003D01*
X191710229Y-86547005D01*
X191768333Y-86725831D01*
X191768334Y-86725833D01*
X191795902Y-86773582D01*
X191862348Y-86888670D01*
X191906175Y-86937345D01*
X191988160Y-87028400D01*
X191988166Y-87028405D01*
X192109386Y-87116477D01*
X192152051Y-87171804D01*
X192160500Y-87216793D01*
X192160500Y-91517300D01*
X192159720Y-91531186D01*
X192155951Y-91564624D01*
X192166065Y-91618072D01*
X192166842Y-91622644D01*
X192174946Y-91676410D01*
X192177349Y-91684203D01*
X192180022Y-91691841D01*
X192205432Y-91739919D01*
X192207522Y-91744058D01*
X192231121Y-91793063D01*
X192235683Y-91799753D01*
X192240523Y-91806311D01*
X192278967Y-91844755D01*
X192282183Y-91848093D01*
X192319189Y-91887975D01*
X192326453Y-91893768D01*
X192325899Y-91894462D01*
X192337825Y-91903613D01*
X206494054Y-106059843D01*
X206527539Y-106121166D01*
X206529312Y-106131338D01*
X206535580Y-106178944D01*
X206535581Y-106178949D01*
X206591450Y-106313830D01*
X206591453Y-106313836D01*
X206680333Y-106429665D01*
X206680334Y-106429666D01*
X206796163Y-106518546D01*
X206796169Y-106518549D01*
X206863609Y-106546483D01*
X206931054Y-106574420D01*
X207003431Y-106583948D01*
X207075807Y-106593477D01*
X207075808Y-106593477D01*
X207075809Y-106593477D01*
X207124059Y-106587124D01*
X207220562Y-106574420D01*
X207355451Y-106518547D01*
X207471282Y-106429666D01*
X207535949Y-106345389D01*
X207592375Y-106304189D01*
X207662121Y-106300034D01*
X207722004Y-106333197D01*
X208096352Y-106707545D01*
X208129837Y-106768868D01*
X208131610Y-106779040D01*
X208137878Y-106826646D01*
X208137879Y-106826651D01*
X208193748Y-106961532D01*
X208193751Y-106961538D01*
X208282631Y-107077367D01*
X208282632Y-107077368D01*
X208398461Y-107166248D01*
X208398467Y-107166251D01*
X208465907Y-107194185D01*
X208533352Y-107222122D01*
X208605729Y-107231650D01*
X208678105Y-107241179D01*
X208678106Y-107241179D01*
X208678107Y-107241179D01*
X208726357Y-107234826D01*
X208822860Y-107222122D01*
X208957749Y-107166249D01*
X209073580Y-107077368D01*
X209138247Y-106993091D01*
X209194673Y-106951891D01*
X209264419Y-106947736D01*
X209324302Y-106980899D01*
X209698650Y-107355247D01*
X209732135Y-107416570D01*
X209733908Y-107426742D01*
X209740176Y-107474348D01*
X209740177Y-107474353D01*
X209796046Y-107609234D01*
X209796049Y-107609240D01*
X209884929Y-107725069D01*
X209884930Y-107725070D01*
X210000759Y-107813950D01*
X210000765Y-107813953D01*
X210068205Y-107841887D01*
X210135650Y-107869824D01*
X210208027Y-107879352D01*
X210280403Y-107888881D01*
X210280404Y-107888881D01*
X210280405Y-107888881D01*
X210328655Y-107882528D01*
X210425158Y-107869824D01*
X210560047Y-107813951D01*
X210675878Y-107725070D01*
X210740545Y-107640793D01*
X210796971Y-107599593D01*
X210866717Y-107595438D01*
X210926600Y-107628601D01*
X211300948Y-108002949D01*
X211334433Y-108064272D01*
X211336206Y-108074444D01*
X211342474Y-108122050D01*
X211342475Y-108122055D01*
X211398344Y-108256936D01*
X211398347Y-108256942D01*
X211487227Y-108372771D01*
X211487228Y-108372772D01*
X211603057Y-108461652D01*
X211603063Y-108461655D01*
X211670503Y-108489589D01*
X211737948Y-108517526D01*
X211810325Y-108527054D01*
X211882701Y-108536583D01*
X211882702Y-108536583D01*
X211882703Y-108536583D01*
X211930953Y-108530230D01*
X212027456Y-108517526D01*
X212162345Y-108461653D01*
X212278176Y-108372772D01*
X212342843Y-108288495D01*
X212399269Y-108247295D01*
X212469015Y-108243140D01*
X212528898Y-108276303D01*
X213028246Y-108775651D01*
X213061731Y-108836974D01*
X213063504Y-108847146D01*
X213069772Y-108894752D01*
X213069773Y-108894757D01*
X213125642Y-109029638D01*
X213125645Y-109029644D01*
X213214525Y-109145473D01*
X213214526Y-109145474D01*
X213330355Y-109234354D01*
X213330361Y-109234357D01*
X213397801Y-109262291D01*
X213465246Y-109290228D01*
X213537623Y-109299756D01*
X213609999Y-109309285D01*
X213610000Y-109309285D01*
X213610001Y-109309285D01*
X213658251Y-109302932D01*
X213754754Y-109290228D01*
X213889643Y-109234355D01*
X214005474Y-109145474D01*
X214094355Y-109029643D01*
X214150228Y-108894754D01*
X214169285Y-108750000D01*
X214150228Y-108605246D01*
X214094355Y-108470358D01*
X214005474Y-108354526D01*
X213889643Y-108265645D01*
X213889640Y-108265644D01*
X213889638Y-108265642D01*
X213754757Y-108209773D01*
X213754755Y-108209772D01*
X213754754Y-108209772D01*
X213722828Y-108205568D01*
X213707146Y-108203504D01*
X213643249Y-108175237D01*
X213635651Y-108168246D01*
X209467406Y-104000001D01*
X227300715Y-104000001D01*
X227319771Y-104144752D01*
X227319773Y-104144757D01*
X227375642Y-104279638D01*
X227375646Y-104279644D01*
X227404874Y-104317734D01*
X227430070Y-104382903D01*
X227430500Y-104393222D01*
X227430500Y-112218916D01*
X227429720Y-112232802D01*
X227425951Y-112266240D01*
X227436065Y-112319688D01*
X227436840Y-112324252D01*
X227437820Y-112330752D01*
X227444946Y-112378026D01*
X227447349Y-112385819D01*
X227450022Y-112393457D01*
X227475432Y-112441535D01*
X227477522Y-112445674D01*
X227501121Y-112494679D01*
X227505683Y-112501369D01*
X227510523Y-112507927D01*
X227548968Y-112546372D01*
X227552184Y-112549711D01*
X227589186Y-112589588D01*
X227596453Y-112595384D01*
X227595899Y-112596078D01*
X227607825Y-112605229D01*
X228778246Y-113775651D01*
X228811731Y-113836974D01*
X228813504Y-113847146D01*
X228819772Y-113894752D01*
X228819773Y-113894757D01*
X228875642Y-114029638D01*
X228875645Y-114029644D01*
X228964525Y-114145473D01*
X228964526Y-114145474D01*
X229080355Y-114234354D01*
X229080361Y-114234357D01*
X229130186Y-114254995D01*
X229215246Y-114290228D01*
X229262852Y-114296495D01*
X229326747Y-114324759D01*
X229334348Y-114331752D01*
X229544181Y-114541585D01*
X229577666Y-114602908D01*
X229580500Y-114629266D01*
X229580500Y-122348224D01*
X229560815Y-122415263D01*
X229514955Y-122457581D01*
X229415732Y-122510618D01*
X229253642Y-122643642D01*
X229120620Y-122805730D01*
X229021772Y-122990659D01*
X228960901Y-123191322D01*
X228940349Y-123400000D01*
X228960901Y-123608677D01*
X228982179Y-123678820D01*
X229021771Y-123809338D01*
X229077534Y-123913663D01*
X229120620Y-123994269D01*
X229253642Y-124156357D01*
X229395771Y-124272999D01*
X229415734Y-124289382D01*
X229600662Y-124388229D01*
X229801321Y-124449098D01*
X230010000Y-124469651D01*
X230218679Y-124449098D01*
X230419338Y-124388229D01*
X230604266Y-124289382D01*
X230766357Y-124156357D01*
X230899382Y-123994266D01*
X230998229Y-123809338D01*
X231044120Y-123658054D01*
X231082415Y-123599619D01*
X231146228Y-123571163D01*
X231215295Y-123581723D01*
X231267688Y-123627947D01*
X231284428Y-123674022D01*
X231284687Y-123673963D01*
X231285160Y-123676035D01*
X231285656Y-123677401D01*
X231285925Y-123679388D01*
X231355483Y-123893465D01*
X231462146Y-124091678D01*
X231462148Y-124091681D01*
X231602489Y-124267663D01*
X231602491Y-124267664D01*
X231602492Y-124267666D01*
X231772004Y-124415765D01*
X231965236Y-124531215D01*
X232175976Y-124610307D01*
X232397450Y-124650500D01*
X232397453Y-124650500D01*
X232566148Y-124650500D01*
X232566155Y-124650500D01*
X232734188Y-124635377D01*
X232734192Y-124635376D01*
X232951160Y-124575496D01*
X232951162Y-124575495D01*
X232951170Y-124575493D01*
X233153973Y-124477829D01*
X233336078Y-124345522D01*
X233491632Y-124182825D01*
X233615635Y-123994968D01*
X233704103Y-123787988D01*
X233754191Y-123568537D01*
X233764290Y-123343670D01*
X233734075Y-123120613D01*
X233664517Y-122906536D01*
X233557852Y-122708319D01*
X233485167Y-122617175D01*
X233417510Y-122532336D01*
X233392652Y-122510618D01*
X233247996Y-122384235D01*
X233054764Y-122268785D01*
X232936775Y-122224503D01*
X232844023Y-122189692D01*
X232622550Y-122149500D01*
X232622547Y-122149500D01*
X232453845Y-122149500D01*
X232415399Y-122152960D01*
X232285813Y-122164622D01*
X232285807Y-122164623D01*
X232068839Y-122224503D01*
X232068826Y-122224508D01*
X231866033Y-122322167D01*
X231866025Y-122322171D01*
X231683927Y-122454473D01*
X231683925Y-122454474D01*
X231528366Y-122617176D01*
X231404363Y-122805033D01*
X231315899Y-123012004D01*
X231315895Y-123012017D01*
X231286232Y-123141982D01*
X231252123Y-123202961D01*
X231190462Y-123235819D01*
X231120825Y-123230124D01*
X231065321Y-123187684D01*
X231046680Y-123150385D01*
X231037649Y-123120613D01*
X230998229Y-122990662D01*
X230899382Y-122805734D01*
X230898806Y-122805032D01*
X230766357Y-122643642D01*
X230604267Y-122510618D01*
X230505045Y-122457581D01*
X230455201Y-122408618D01*
X230439500Y-122348224D01*
X230439500Y-120900000D01*
X233940349Y-120900000D01*
X233960901Y-121108677D01*
X234021772Y-121309340D01*
X234120620Y-121494269D01*
X234253642Y-121656357D01*
X234415730Y-121789379D01*
X234415734Y-121789382D01*
X234600662Y-121888229D01*
X234801321Y-121949098D01*
X235010000Y-121969651D01*
X235218679Y-121949098D01*
X235419338Y-121888229D01*
X235604266Y-121789382D01*
X235766357Y-121656357D01*
X235899382Y-121494266D01*
X235998229Y-121309338D01*
X236059098Y-121108679D01*
X236079651Y-120900000D01*
X236059098Y-120691321D01*
X235998229Y-120490662D01*
X235899382Y-120305734D01*
X235899379Y-120305730D01*
X235766357Y-120143642D01*
X235604269Y-120010620D01*
X235604267Y-120010619D01*
X235604266Y-120010618D01*
X235419338Y-119911771D01*
X235319008Y-119881336D01*
X235218677Y-119850901D01*
X235010000Y-119830349D01*
X234801322Y-119850901D01*
X234600659Y-119911772D01*
X234415730Y-120010620D01*
X234253642Y-120143642D01*
X234120620Y-120305730D01*
X234021772Y-120490659D01*
X233960901Y-120691322D01*
X233940349Y-120900000D01*
X230439500Y-120900000D01*
X230439500Y-114431084D01*
X230440280Y-114417199D01*
X230444048Y-114383760D01*
X230444048Y-114383759D01*
X230433921Y-114330243D01*
X230433154Y-114325721D01*
X230433009Y-114324759D01*
X230425054Y-114271973D01*
X230425052Y-114271970D01*
X230422662Y-114264219D01*
X230419977Y-114256546D01*
X230419977Y-114256543D01*
X230394555Y-114208442D01*
X230392496Y-114204365D01*
X230368878Y-114155321D01*
X230368877Y-114155320D01*
X230368876Y-114155317D01*
X230364315Y-114148629D01*
X230359477Y-114142073D01*
X230321030Y-114103626D01*
X230317813Y-114100287D01*
X230280812Y-114060410D01*
X230273549Y-114054618D01*
X230274101Y-114053924D01*
X230262176Y-114044772D01*
X230112156Y-113894752D01*
X229941750Y-113724345D01*
X229908267Y-113663025D01*
X229906500Y-113652889D01*
X229900228Y-113605246D01*
X229844355Y-113470358D01*
X229755474Y-113354526D01*
X229639643Y-113265645D01*
X229639640Y-113265644D01*
X229639638Y-113265642D01*
X229504757Y-113209773D01*
X229504755Y-113209772D01*
X229504754Y-113209772D01*
X229472828Y-113205568D01*
X229457146Y-113203504D01*
X229393249Y-113175237D01*
X229385651Y-113168246D01*
X228325819Y-112108414D01*
X228292334Y-112047091D01*
X228289500Y-112020733D01*
X228289500Y-104393222D01*
X228309185Y-104326183D01*
X228315126Y-104317734D01*
X228344355Y-104279643D01*
X228400228Y-104144754D01*
X228419285Y-104000000D01*
X228400228Y-103855246D01*
X228344355Y-103720358D01*
X228255474Y-103604526D01*
X228139643Y-103515645D01*
X228139640Y-103515644D01*
X228139638Y-103515642D01*
X228004757Y-103459773D01*
X228004752Y-103459771D01*
X227860001Y-103440715D01*
X227859999Y-103440715D01*
X227715247Y-103459771D01*
X227715245Y-103459772D01*
X227580361Y-103515643D01*
X227464526Y-103604526D01*
X227375643Y-103720361D01*
X227319772Y-103855245D01*
X227319771Y-103855247D01*
X227300715Y-103999998D01*
X227300715Y-104000001D01*
X209467406Y-104000001D01*
X203215819Y-97748414D01*
X203182334Y-97687091D01*
X203179500Y-97660733D01*
X203179500Y-87216793D01*
X203199185Y-87149754D01*
X203230611Y-87116478D01*
X203351834Y-87028405D01*
X203477652Y-86888670D01*
X203571667Y-86725830D01*
X203629772Y-86547001D01*
X203649427Y-86360000D01*
X204390573Y-86360000D01*
X204410228Y-86547003D01*
X204410229Y-86547005D01*
X204468333Y-86725831D01*
X204468334Y-86725833D01*
X204495902Y-86773582D01*
X204562348Y-86888670D01*
X204606175Y-86937345D01*
X204688160Y-87028400D01*
X204688163Y-87028402D01*
X204688166Y-87028405D01*
X204802256Y-87111296D01*
X204840287Y-87138928D01*
X204906226Y-87168285D01*
X205012062Y-87215406D01*
X205195984Y-87254500D01*
X205384016Y-87254500D01*
X205567938Y-87215406D01*
X205739714Y-87138927D01*
X205891834Y-87028405D01*
X206017652Y-86888670D01*
X206111667Y-86725830D01*
X206169772Y-86547001D01*
X206189427Y-86360000D01*
X206930573Y-86360000D01*
X206950228Y-86547003D01*
X206950229Y-86547005D01*
X207008333Y-86725831D01*
X207008334Y-86725833D01*
X207035902Y-86773582D01*
X207102348Y-86888670D01*
X207146175Y-86937345D01*
X207228160Y-87028400D01*
X207228163Y-87028402D01*
X207228166Y-87028405D01*
X207342256Y-87111296D01*
X207380287Y-87138928D01*
X207446226Y-87168285D01*
X207552062Y-87215406D01*
X207735984Y-87254500D01*
X207924016Y-87254500D01*
X208107938Y-87215406D01*
X208279714Y-87138927D01*
X208431834Y-87028405D01*
X208557652Y-86888670D01*
X208651667Y-86725830D01*
X208709772Y-86547001D01*
X208729427Y-86360000D01*
X209225116Y-86360000D01*
X209244609Y-86570369D01*
X209302427Y-86773581D01*
X209396600Y-86962703D01*
X209403975Y-86972470D01*
X209980786Y-86395659D01*
X209994465Y-86482019D01*
X210050551Y-86592093D01*
X210137907Y-86679449D01*
X210247981Y-86735535D01*
X210334339Y-86749212D01*
X209760255Y-87323295D01*
X209859680Y-87384857D01*
X209859681Y-87384858D01*
X210056685Y-87461177D01*
X210264365Y-87500000D01*
X210475635Y-87500000D01*
X210683319Y-87461176D01*
X210880309Y-87384861D01*
X210880327Y-87384852D01*
X210979742Y-87323296D01*
X210979742Y-87323295D01*
X210405660Y-86749212D01*
X210492019Y-86735535D01*
X210602093Y-86679449D01*
X210689449Y-86592093D01*
X210745535Y-86482019D01*
X210759212Y-86395659D01*
X211336023Y-86972470D01*
X211343401Y-86962700D01*
X211343403Y-86962697D01*
X211437572Y-86773582D01*
X211495390Y-86570369D01*
X211514884Y-86360000D01*
X211765116Y-86360000D01*
X211784609Y-86570369D01*
X211842427Y-86773581D01*
X211936600Y-86962703D01*
X211943975Y-86972470D01*
X212520786Y-86395659D01*
X212534465Y-86482019D01*
X212590551Y-86592093D01*
X212677907Y-86679449D01*
X212787981Y-86735535D01*
X212874339Y-86749212D01*
X212300255Y-87323295D01*
X212399680Y-87384857D01*
X212399681Y-87384858D01*
X212596685Y-87461177D01*
X212804365Y-87500000D01*
X213015635Y-87500000D01*
X213223319Y-87461176D01*
X213420309Y-87384861D01*
X213420327Y-87384852D01*
X213519742Y-87323296D01*
X213519742Y-87323295D01*
X212945660Y-86749212D01*
X213032019Y-86735535D01*
X213142093Y-86679449D01*
X213229449Y-86592093D01*
X213285535Y-86482019D01*
X213299212Y-86395659D01*
X213876023Y-86972470D01*
X213883401Y-86962700D01*
X213883403Y-86962697D01*
X213977572Y-86773582D01*
X214035390Y-86570369D01*
X214054884Y-86360000D01*
X214550573Y-86360000D01*
X214570228Y-86547003D01*
X214570229Y-86547005D01*
X214628333Y-86725831D01*
X214628334Y-86725833D01*
X214655902Y-86773582D01*
X214722348Y-86888670D01*
X214766175Y-86937345D01*
X214848160Y-87028400D01*
X214848163Y-87028402D01*
X214848166Y-87028405D01*
X214962256Y-87111296D01*
X215000287Y-87138928D01*
X215066226Y-87168285D01*
X215172062Y-87215406D01*
X215355984Y-87254500D01*
X215544016Y-87254500D01*
X215727938Y-87215406D01*
X215899714Y-87138927D01*
X216051834Y-87028405D01*
X216177652Y-86888670D01*
X216271667Y-86725830D01*
X216329772Y-86547001D01*
X216349427Y-86360000D01*
X217090573Y-86360000D01*
X217110228Y-86547003D01*
X217110229Y-86547005D01*
X217168333Y-86725831D01*
X217168334Y-86725833D01*
X217195902Y-86773582D01*
X217262348Y-86888670D01*
X217306175Y-86937345D01*
X217388160Y-87028400D01*
X217388163Y-87028402D01*
X217388166Y-87028405D01*
X217502256Y-87111296D01*
X217540287Y-87138928D01*
X217606226Y-87168285D01*
X217712062Y-87215406D01*
X217895984Y-87254500D01*
X218084016Y-87254500D01*
X218267938Y-87215406D01*
X218439714Y-87138927D01*
X218591834Y-87028405D01*
X218717652Y-86888670D01*
X218811667Y-86725830D01*
X218869772Y-86547001D01*
X218889427Y-86360000D01*
X219630573Y-86360000D01*
X219650228Y-86547003D01*
X219650229Y-86547005D01*
X219708333Y-86725831D01*
X219708334Y-86725833D01*
X219735902Y-86773582D01*
X219802348Y-86888670D01*
X219846175Y-86937345D01*
X219928160Y-87028400D01*
X219928163Y-87028402D01*
X219928166Y-87028405D01*
X220042256Y-87111296D01*
X220080287Y-87138928D01*
X220146226Y-87168285D01*
X220252062Y-87215406D01*
X220435984Y-87254500D01*
X220624016Y-87254500D01*
X220807938Y-87215406D01*
X220979714Y-87138927D01*
X221131834Y-87028405D01*
X221257652Y-86888670D01*
X221351667Y-86725830D01*
X221409772Y-86547001D01*
X221429427Y-86360000D01*
X222170573Y-86360000D01*
X222190228Y-86547003D01*
X222190229Y-86547005D01*
X222248333Y-86725831D01*
X222248334Y-86725833D01*
X222275902Y-86773582D01*
X222342348Y-86888670D01*
X222386175Y-86937345D01*
X222468160Y-87028400D01*
X222468163Y-87028402D01*
X222468166Y-87028405D01*
X222582256Y-87111296D01*
X222620287Y-87138928D01*
X222686226Y-87168285D01*
X222792062Y-87215406D01*
X222975984Y-87254500D01*
X223164016Y-87254500D01*
X223347938Y-87215406D01*
X223519714Y-87138927D01*
X223671834Y-87028405D01*
X223797652Y-86888670D01*
X223891667Y-86725830D01*
X223949772Y-86547001D01*
X223969427Y-86360000D01*
X224710573Y-86360000D01*
X224730228Y-86547003D01*
X224730229Y-86547005D01*
X224788333Y-86725831D01*
X224788334Y-86725833D01*
X224815902Y-86773582D01*
X224882348Y-86888670D01*
X224926175Y-86937345D01*
X225008160Y-87028400D01*
X225008163Y-87028402D01*
X225008166Y-87028405D01*
X225122256Y-87111296D01*
X225160287Y-87138928D01*
X225226226Y-87168285D01*
X225332062Y-87215406D01*
X225515984Y-87254500D01*
X225704016Y-87254500D01*
X225887938Y-87215406D01*
X226059714Y-87138927D01*
X226211834Y-87028405D01*
X226337652Y-86888670D01*
X226431667Y-86725830D01*
X226489772Y-86547001D01*
X226509427Y-86360000D01*
X226489772Y-86172999D01*
X226431667Y-85994170D01*
X226348431Y-85850000D01*
X233104341Y-85850000D01*
X233124936Y-86085403D01*
X233124938Y-86085413D01*
X233186094Y-86313655D01*
X233186096Y-86313659D01*
X233186097Y-86313663D01*
X233236031Y-86420746D01*
X233285964Y-86527828D01*
X233285965Y-86527830D01*
X233421505Y-86721402D01*
X233588597Y-86888494D01*
X233782169Y-87024034D01*
X233782171Y-87024035D01*
X233996337Y-87123903D01*
X234224592Y-87185063D01*
X234401032Y-87200499D01*
X234401033Y-87200500D01*
X234401034Y-87200500D01*
X234518967Y-87200500D01*
X234518967Y-87200499D01*
X234695408Y-87185063D01*
X234923663Y-87123903D01*
X235137829Y-87024035D01*
X235331401Y-86888495D01*
X235498495Y-86721401D01*
X235634035Y-86527830D01*
X235733903Y-86313663D01*
X235795063Y-86085408D01*
X235815659Y-85850000D01*
X235795063Y-85614592D01*
X235733903Y-85386337D01*
X235634035Y-85172171D01*
X235634034Y-85172169D01*
X235498494Y-84978597D01*
X235331402Y-84811505D01*
X235137830Y-84675965D01*
X235137828Y-84675964D01*
X235030746Y-84626031D01*
X234923663Y-84576097D01*
X234923659Y-84576096D01*
X234923655Y-84576094D01*
X234695413Y-84514938D01*
X234695403Y-84514936D01*
X234518967Y-84499500D01*
X234518966Y-84499500D01*
X234401034Y-84499500D01*
X234401033Y-84499500D01*
X234224596Y-84514936D01*
X234224586Y-84514938D01*
X233996344Y-84576094D01*
X233996335Y-84576098D01*
X233782171Y-84675964D01*
X233782169Y-84675965D01*
X233588597Y-84811505D01*
X233421506Y-84978597D01*
X233421501Y-84978604D01*
X233285967Y-85172165D01*
X233285965Y-85172169D01*
X233186098Y-85386335D01*
X233186094Y-85386344D01*
X233124938Y-85614586D01*
X233124936Y-85614596D01*
X233104341Y-85849999D01*
X233104341Y-85850000D01*
X226348431Y-85850000D01*
X226337652Y-85831330D01*
X226288372Y-85776599D01*
X226211839Y-85691599D01*
X226211836Y-85691597D01*
X226211835Y-85691596D01*
X226211834Y-85691595D01*
X226135774Y-85636334D01*
X226059712Y-85581071D01*
X225927832Y-85522356D01*
X225887938Y-85504594D01*
X225887936Y-85504593D01*
X225704016Y-85465500D01*
X225515984Y-85465500D01*
X225332062Y-85504593D01*
X225332057Y-85504595D01*
X225160287Y-85581073D01*
X225160282Y-85581075D01*
X225008167Y-85691593D01*
X225008160Y-85691599D01*
X224882347Y-85831331D01*
X224788334Y-85994166D01*
X224788333Y-85994168D01*
X224730229Y-86172994D01*
X224730228Y-86172996D01*
X224710573Y-86360000D01*
X223969427Y-86360000D01*
X223949772Y-86172999D01*
X223891667Y-85994170D01*
X223797652Y-85831330D01*
X223748372Y-85776599D01*
X223671839Y-85691599D01*
X223671836Y-85691597D01*
X223671835Y-85691596D01*
X223671834Y-85691595D01*
X223595774Y-85636334D01*
X223519712Y-85581071D01*
X223387832Y-85522356D01*
X223347938Y-85504594D01*
X223347936Y-85504593D01*
X223164016Y-85465500D01*
X222975984Y-85465500D01*
X222792062Y-85504593D01*
X222792057Y-85504595D01*
X222620287Y-85581073D01*
X222620282Y-85581075D01*
X222468167Y-85691593D01*
X222468160Y-85691599D01*
X222342347Y-85831331D01*
X222248334Y-85994166D01*
X222248333Y-85994168D01*
X222190229Y-86172994D01*
X222190228Y-86172996D01*
X222170573Y-86360000D01*
X221429427Y-86360000D01*
X221409772Y-86172999D01*
X221351667Y-85994170D01*
X221257652Y-85831330D01*
X221208372Y-85776599D01*
X221131839Y-85691599D01*
X221131836Y-85691597D01*
X221131835Y-85691596D01*
X221131834Y-85691595D01*
X221055774Y-85636334D01*
X220979712Y-85581071D01*
X220847832Y-85522356D01*
X220807938Y-85504594D01*
X220807936Y-85504593D01*
X220624016Y-85465500D01*
X220435984Y-85465500D01*
X220252062Y-85504593D01*
X220252057Y-85504595D01*
X220080287Y-85581073D01*
X220080282Y-85581075D01*
X219928167Y-85691593D01*
X219928160Y-85691599D01*
X219802347Y-85831331D01*
X219708334Y-85994166D01*
X219708333Y-85994168D01*
X219650229Y-86172994D01*
X219650228Y-86172996D01*
X219630573Y-86360000D01*
X218889427Y-86360000D01*
X218869772Y-86172999D01*
X218811667Y-85994170D01*
X218717652Y-85831330D01*
X218668372Y-85776599D01*
X218591839Y-85691599D01*
X218591836Y-85691597D01*
X218591835Y-85691596D01*
X218591834Y-85691595D01*
X218515774Y-85636334D01*
X218439712Y-85581071D01*
X218307832Y-85522356D01*
X218267938Y-85504594D01*
X218267936Y-85504593D01*
X218084016Y-85465500D01*
X217895984Y-85465500D01*
X217712062Y-85504593D01*
X217712057Y-85504595D01*
X217540287Y-85581073D01*
X217540282Y-85581075D01*
X217388167Y-85691593D01*
X217388160Y-85691599D01*
X217262347Y-85831331D01*
X217168334Y-85994166D01*
X217168333Y-85994168D01*
X217110229Y-86172994D01*
X217110228Y-86172996D01*
X217090573Y-86360000D01*
X216349427Y-86360000D01*
X216329772Y-86172999D01*
X216271667Y-85994170D01*
X216177652Y-85831330D01*
X216128372Y-85776599D01*
X216051839Y-85691599D01*
X216051836Y-85691597D01*
X216051835Y-85691596D01*
X216051834Y-85691595D01*
X215975774Y-85636334D01*
X215899712Y-85581071D01*
X215767832Y-85522356D01*
X215727938Y-85504594D01*
X215727936Y-85504593D01*
X215544016Y-85465500D01*
X215355984Y-85465500D01*
X215172062Y-85504593D01*
X215172057Y-85504595D01*
X215000287Y-85581073D01*
X215000282Y-85581075D01*
X214848167Y-85691593D01*
X214848160Y-85691599D01*
X214722347Y-85831331D01*
X214628334Y-85994166D01*
X214628333Y-85994168D01*
X214570229Y-86172994D01*
X214570228Y-86172996D01*
X214550573Y-86360000D01*
X214054884Y-86360000D01*
X214054884Y-86359999D01*
X214035390Y-86149630D01*
X213977572Y-85946418D01*
X213883399Y-85757295D01*
X213876024Y-85747528D01*
X213299212Y-86324339D01*
X213285535Y-86237981D01*
X213229449Y-86127907D01*
X213142093Y-86040551D01*
X213032019Y-85984465D01*
X212945660Y-85970787D01*
X213519743Y-85396703D01*
X213420319Y-85335142D01*
X213420318Y-85335141D01*
X213223314Y-85258822D01*
X213015635Y-85220000D01*
X212804365Y-85220000D01*
X212596685Y-85258822D01*
X212399683Y-85335140D01*
X212399677Y-85335143D01*
X212300256Y-85396702D01*
X212300255Y-85396703D01*
X212874339Y-85970787D01*
X212787981Y-85984465D01*
X212677907Y-86040551D01*
X212590551Y-86127907D01*
X212534465Y-86237981D01*
X212520787Y-86324340D01*
X211943974Y-85747527D01*
X211936602Y-85757292D01*
X211936598Y-85757298D01*
X211842427Y-85946418D01*
X211784609Y-86149630D01*
X211765116Y-86359999D01*
X211765116Y-86360000D01*
X211514884Y-86360000D01*
X211514884Y-86359999D01*
X211495390Y-86149630D01*
X211437572Y-85946418D01*
X211343399Y-85757295D01*
X211336024Y-85747528D01*
X210759212Y-86324339D01*
X210745535Y-86237981D01*
X210689449Y-86127907D01*
X210602093Y-86040551D01*
X210492019Y-85984465D01*
X210405660Y-85970787D01*
X210979743Y-85396703D01*
X210880319Y-85335142D01*
X210880318Y-85335141D01*
X210683314Y-85258822D01*
X210475635Y-85220000D01*
X210264365Y-85220000D01*
X210056685Y-85258822D01*
X209859683Y-85335140D01*
X209859677Y-85335143D01*
X209760256Y-85396702D01*
X209760255Y-85396703D01*
X210334339Y-85970787D01*
X210247981Y-85984465D01*
X210137907Y-86040551D01*
X210050551Y-86127907D01*
X209994465Y-86237981D01*
X209980787Y-86324340D01*
X209403974Y-85747527D01*
X209396602Y-85757292D01*
X209396598Y-85757298D01*
X209302427Y-85946418D01*
X209244609Y-86149630D01*
X209225116Y-86359999D01*
X209225116Y-86360000D01*
X208729427Y-86360000D01*
X208709772Y-86172999D01*
X208651667Y-85994170D01*
X208557652Y-85831330D01*
X208508372Y-85776599D01*
X208431839Y-85691599D01*
X208431836Y-85691597D01*
X208431835Y-85691596D01*
X208431834Y-85691595D01*
X208355774Y-85636334D01*
X208279712Y-85581071D01*
X208147832Y-85522356D01*
X208107938Y-85504594D01*
X208107936Y-85504593D01*
X207924016Y-85465500D01*
X207735984Y-85465500D01*
X207552062Y-85504593D01*
X207552057Y-85504595D01*
X207380287Y-85581073D01*
X207380282Y-85581075D01*
X207228167Y-85691593D01*
X207228160Y-85691599D01*
X207102347Y-85831331D01*
X207008334Y-85994166D01*
X207008333Y-85994168D01*
X206950229Y-86172994D01*
X206950228Y-86172996D01*
X206930573Y-86360000D01*
X206189427Y-86360000D01*
X206169772Y-86172999D01*
X206111667Y-85994170D01*
X206017652Y-85831330D01*
X205968372Y-85776599D01*
X205891839Y-85691599D01*
X205891836Y-85691597D01*
X205891835Y-85691596D01*
X205891834Y-85691595D01*
X205815774Y-85636334D01*
X205739712Y-85581071D01*
X205607832Y-85522356D01*
X205567938Y-85504594D01*
X205567936Y-85504593D01*
X205384016Y-85465500D01*
X205195984Y-85465500D01*
X205012062Y-85504593D01*
X205012057Y-85504595D01*
X204840287Y-85581073D01*
X204840282Y-85581075D01*
X204688167Y-85691593D01*
X204688160Y-85691599D01*
X204562347Y-85831331D01*
X204468334Y-85994166D01*
X204468333Y-85994168D01*
X204410229Y-86172994D01*
X204410228Y-86172996D01*
X204390573Y-86360000D01*
X203649427Y-86360000D01*
X203629772Y-86172999D01*
X203571667Y-85994170D01*
X203477652Y-85831330D01*
X203428372Y-85776599D01*
X203351839Y-85691599D01*
X203351836Y-85691597D01*
X203351835Y-85691596D01*
X203351834Y-85691595D01*
X203275774Y-85636334D01*
X203199712Y-85581071D01*
X203067832Y-85522356D01*
X203027938Y-85504594D01*
X203027936Y-85504593D01*
X202844016Y-85465500D01*
X202655984Y-85465500D01*
X202472062Y-85504593D01*
X202472057Y-85504595D01*
X202300287Y-85581073D01*
X202300282Y-85581075D01*
X202148167Y-85691593D01*
X202148160Y-85691599D01*
X202022347Y-85831331D01*
X201928334Y-85994166D01*
X201928333Y-85994168D01*
X201870229Y-86172994D01*
X201870228Y-86172996D01*
X201850573Y-86360000D01*
X201870228Y-86547003D01*
X201870229Y-86547005D01*
X201928333Y-86725831D01*
X201928334Y-86725833D01*
X201955902Y-86773582D01*
X202022348Y-86888670D01*
X202066175Y-86937345D01*
X202148160Y-87028400D01*
X202148166Y-87028405D01*
X202269386Y-87116477D01*
X202312051Y-87171804D01*
X202320500Y-87216793D01*
X202320500Y-97508329D01*
X202300815Y-97575368D01*
X202248011Y-97621123D01*
X202178853Y-97631067D01*
X202115297Y-97602042D01*
X202108819Y-97596010D01*
X200675819Y-96163010D01*
X200642334Y-96101687D01*
X200639500Y-96075329D01*
X200639500Y-87216793D01*
X200659185Y-87149754D01*
X200690611Y-87116478D01*
X200811834Y-87028405D01*
X200937652Y-86888670D01*
X201031667Y-86725830D01*
X201089772Y-86547001D01*
X201109427Y-86360000D01*
X201089772Y-86172999D01*
X201031667Y-85994170D01*
X200937652Y-85831330D01*
X200888372Y-85776599D01*
X200811839Y-85691599D01*
X200811836Y-85691597D01*
X200811835Y-85691596D01*
X200811834Y-85691595D01*
X200735774Y-85636334D01*
X200659712Y-85581071D01*
X200527832Y-85522356D01*
X200487938Y-85504594D01*
X200487936Y-85504593D01*
X200304016Y-85465500D01*
X200115984Y-85465500D01*
X199932062Y-85504593D01*
X199932057Y-85504595D01*
X199760287Y-85581073D01*
X199760282Y-85581075D01*
X199608167Y-85691593D01*
X199608160Y-85691599D01*
X199482347Y-85831331D01*
X199388334Y-85994166D01*
X199388333Y-85994168D01*
X199330229Y-86172994D01*
X199330228Y-86172996D01*
X199310573Y-86360000D01*
X199330228Y-86547003D01*
X199330229Y-86547005D01*
X199388333Y-86725831D01*
X199388334Y-86725833D01*
X199415902Y-86773582D01*
X199482348Y-86888670D01*
X199526175Y-86937345D01*
X199608160Y-87028400D01*
X199608166Y-87028405D01*
X199729386Y-87116477D01*
X199772051Y-87171804D01*
X199780500Y-87216793D01*
X199780500Y-95922925D01*
X199760815Y-95989964D01*
X199708011Y-96035719D01*
X199638853Y-96045663D01*
X199575297Y-96016638D01*
X199568819Y-96010606D01*
X198135819Y-94577606D01*
X198102334Y-94516283D01*
X198099500Y-94489925D01*
X198099500Y-87216793D01*
X198119185Y-87149754D01*
X198150611Y-87116478D01*
X198271834Y-87028405D01*
X198397652Y-86888670D01*
X198491667Y-86725830D01*
X198549772Y-86547001D01*
X198569427Y-86360000D01*
X198549772Y-86172999D01*
X198491667Y-85994170D01*
X198397652Y-85831330D01*
X198348372Y-85776599D01*
X198271839Y-85691599D01*
X198271836Y-85691597D01*
X198271835Y-85691596D01*
X198271834Y-85691595D01*
X198195774Y-85636334D01*
X198119712Y-85581071D01*
X197987832Y-85522356D01*
X197947938Y-85504594D01*
X197947936Y-85504593D01*
X197764016Y-85465500D01*
X197575984Y-85465500D01*
X197392062Y-85504593D01*
X197392057Y-85504595D01*
X197220287Y-85581073D01*
X197220282Y-85581075D01*
X197068167Y-85691593D01*
X197068160Y-85691599D01*
X196942347Y-85831331D01*
X196848334Y-85994166D01*
X196848333Y-85994168D01*
X196790229Y-86172994D01*
X196790228Y-86172996D01*
X196770573Y-86360000D01*
X196790228Y-86547003D01*
X196790229Y-86547005D01*
X196848333Y-86725831D01*
X196848334Y-86725833D01*
X196875902Y-86773582D01*
X196942348Y-86888670D01*
X196986175Y-86937345D01*
X197068160Y-87028400D01*
X197068166Y-87028405D01*
X197189386Y-87116477D01*
X197232051Y-87171804D01*
X197240500Y-87216793D01*
X197240500Y-94337521D01*
X197220815Y-94404560D01*
X197168011Y-94450315D01*
X197098853Y-94460259D01*
X197035297Y-94431234D01*
X197028819Y-94425202D01*
X195595819Y-92992202D01*
X195562334Y-92930879D01*
X195559500Y-92904521D01*
X195559500Y-87216793D01*
X195579185Y-87149754D01*
X195610611Y-87116478D01*
X195731834Y-87028405D01*
X195857652Y-86888670D01*
X195951667Y-86725830D01*
X196009772Y-86547001D01*
X196029427Y-86360000D01*
X196009772Y-86172999D01*
X195951667Y-85994170D01*
X195857652Y-85831330D01*
X195808372Y-85776599D01*
X195731839Y-85691599D01*
X195731836Y-85691597D01*
X195731835Y-85691596D01*
X195731834Y-85691595D01*
X195655774Y-85636334D01*
X195579712Y-85581071D01*
X195447832Y-85522356D01*
X195407938Y-85504594D01*
X195407936Y-85504593D01*
X195224016Y-85465500D01*
X195035984Y-85465500D01*
X194852062Y-85504593D01*
X194852057Y-85504595D01*
X194680287Y-85581073D01*
X194680282Y-85581075D01*
X194528167Y-85691593D01*
X194528160Y-85691599D01*
X194402347Y-85831331D01*
X194308334Y-85994166D01*
X194308333Y-85994168D01*
X194250229Y-86172994D01*
X194250228Y-86172996D01*
X194230573Y-86360000D01*
X194250228Y-86547003D01*
X194250229Y-86547005D01*
X194308333Y-86725831D01*
X194308334Y-86725833D01*
X194335902Y-86773582D01*
X194402348Y-86888670D01*
X194446175Y-86937345D01*
X194528160Y-87028400D01*
X194528166Y-87028405D01*
X194649386Y-87116477D01*
X194692051Y-87171804D01*
X194700500Y-87216793D01*
X194700500Y-92752117D01*
X194680815Y-92819156D01*
X194628011Y-92864911D01*
X194558853Y-92874855D01*
X194495297Y-92845830D01*
X194488819Y-92839798D01*
X193055819Y-91406798D01*
X193022334Y-91345475D01*
X193019500Y-91319117D01*
X193019500Y-87216793D01*
X193039185Y-87149754D01*
X193070611Y-87116478D01*
X193191834Y-87028405D01*
X193317652Y-86888670D01*
X193411667Y-86725830D01*
X193469772Y-86547001D01*
X193489427Y-86360000D01*
X193469772Y-86172999D01*
X193411667Y-85994170D01*
X193317652Y-85831330D01*
X193268372Y-85776599D01*
X193191839Y-85691599D01*
X193191836Y-85691597D01*
X193191835Y-85691596D01*
X193191834Y-85691595D01*
X193115774Y-85636334D01*
X193039712Y-85581071D01*
X192907832Y-85522356D01*
X192867938Y-85504594D01*
X192867936Y-85504593D01*
X192684016Y-85465500D01*
X192495984Y-85465500D01*
X192312062Y-85504593D01*
X192312057Y-85504595D01*
X192140287Y-85581073D01*
X192140282Y-85581075D01*
X191988167Y-85691593D01*
X191988160Y-85691599D01*
X191862347Y-85831331D01*
X191768334Y-85994166D01*
X191768333Y-85994168D01*
X191710229Y-86172994D01*
X191710228Y-86172996D01*
X191690573Y-86360000D01*
X180185500Y-86360000D01*
X180185500Y-82449500D01*
X180205185Y-82382461D01*
X180257989Y-82336706D01*
X180309500Y-82325500D01*
X187735500Y-82325500D01*
X187802539Y-82345185D01*
G37*
G04 #@! TD.AperFunction*
M02*
