G04 #@! TF.GenerationSoftware,KiCad,Pcbnew,7.0.10*
G04 #@! TF.CreationDate,2024-01-03T22:04:12+01:00*
G04 #@! TF.ProjectId,dogs102,646f6773-3130-4322-9e6b-696361645f70,rev?*
G04 #@! TF.SameCoordinates,Original*
G04 #@! TF.FileFunction,Soldermask,Bot*
G04 #@! TF.FilePolarity,Negative*
%FSLAX46Y46*%
G04 Gerber Fmt 4.6, Leading zero omitted, Abs format (unit mm)*
G04 Created by KiCad (PCBNEW 7.0.10) date 2024-01-03 22:04:12*
%MOMM*%
%LPD*%
G01*
G04 APERTURE LIST*
%ADD10C,1.680000*%
%ADD11C,2.400000*%
%ADD12C,2.020000*%
%ADD13C,2.600000*%
%ADD14C,0.900000*%
G04 APERTURE END LIST*
D10*
X130590000Y-124460000D03*
X133130000Y-124460000D03*
X161070000Y-124460000D03*
X163610000Y-124460000D03*
X163610000Y-86360000D03*
X161070000Y-86360000D03*
X158530000Y-86360000D03*
X155990000Y-86360000D03*
X153450000Y-86360000D03*
X150910000Y-86360000D03*
X148370000Y-86360000D03*
X145830000Y-86360000D03*
X143290000Y-86360000D03*
X140750000Y-86360000D03*
X138210000Y-86360000D03*
X135670000Y-86360000D03*
X133130000Y-86360000D03*
X130590000Y-86360000D03*
D11*
X170510000Y-123400000D03*
D12*
X173010000Y-120900000D03*
X168010000Y-123400000D03*
X173010000Y-125900000D03*
D13*
X183660000Y-123450000D03*
D14*
X227360000Y-82500000D03*
X228160000Y-82750000D03*
X228860000Y-82750000D03*
X229660000Y-82500000D03*
X229660000Y-126750000D03*
X228860000Y-126500000D03*
X228160000Y-126500000D03*
X227360000Y-126750000D03*
X188360000Y-82500000D03*
X189160000Y-82750000D03*
X189860000Y-82750000D03*
X190660000Y-82500000D03*
D13*
X172460000Y-85850000D03*
X121660000Y-123450000D03*
X234460000Y-85850000D03*
D14*
X165360000Y-82500000D03*
X166160000Y-82750000D03*
X166860000Y-82750000D03*
X167660000Y-82500000D03*
X126360000Y-82500000D03*
X127160000Y-82750000D03*
X127860000Y-82750000D03*
X128660000Y-82500000D03*
X167660000Y-126750000D03*
X166860000Y-126500000D03*
X166160000Y-126500000D03*
X165360000Y-126750000D03*
X190660000Y-126750000D03*
X189860000Y-126500000D03*
X189160000Y-126500000D03*
X188360000Y-126750000D03*
D10*
X192590000Y-124460000D03*
X195130000Y-124460000D03*
X223070000Y-124460000D03*
X225610000Y-124460000D03*
X225610000Y-86360000D03*
X223070000Y-86360000D03*
X220530000Y-86360000D03*
X217990000Y-86360000D03*
X215450000Y-86360000D03*
X212910000Y-86360000D03*
X210370000Y-86360000D03*
X207830000Y-86360000D03*
X205290000Y-86360000D03*
X202750000Y-86360000D03*
X200210000Y-86360000D03*
X197670000Y-86360000D03*
X195130000Y-86360000D03*
X192590000Y-86360000D03*
D14*
X128660000Y-126750000D03*
X127860000Y-126500000D03*
X127160000Y-126500000D03*
X126360000Y-126750000D03*
D11*
X232510000Y-123400000D03*
D12*
X235010000Y-120900000D03*
X230010000Y-123400000D03*
X235010000Y-125900000D03*
M02*
