%TF.GenerationSoftware,KiCad,Pcbnew,(5.1.6-0-10_14)*%
%TF.CreationDate,2021-03-12T18:27:13+01:00*%
%TF.ProjectId,CAN_Display,43414e5f-4469-4737-906c-61792e6b6963,rev?*%
%TF.SameCoordinates,Original*%
%TF.FileFunction,Soldermask,Bot*%
%TF.FilePolarity,Negative*%
%FSLAX46Y46*%
G04 Gerber Fmt 4.6, Leading zero omitted, Abs format (unit mm)*
G04 Created by KiCad (PCBNEW (5.1.6-0-10_14)) date 2021-03-12 18:27:13*
%MOMM*%
%LPD*%
G01*
G04 APERTURE LIST*
%ADD10O,1.800000X1.800000*%
%ADD11R,1.800000X1.800000*%
%ADD12C,1.600000*%
%ADD13C,1.100000*%
%ADD14C,0.900000*%
%ADD15C,6.500000*%
G04 APERTURE END LIST*
D10*
%TO.C,J1*%
X151892000Y-111760000D03*
X151892000Y-114300000D03*
X149352000Y-111760000D03*
X149352000Y-114300000D03*
X146812000Y-111760000D03*
X146812000Y-114300000D03*
X144272000Y-111760000D03*
X144272000Y-114300000D03*
X141732000Y-111760000D03*
X141732000Y-114300000D03*
X139192000Y-111760000D03*
X139192000Y-114300000D03*
X136652000Y-111760000D03*
X136652000Y-114300000D03*
X134112000Y-111760000D03*
X134112000Y-114300000D03*
X131572000Y-111760000D03*
D11*
X131572000Y-114300000D03*
%TD*%
D12*
%TO.C,J2*%
X174402000Y-84280000D03*
X171402000Y-84280000D03*
X168402000Y-84280000D03*
X174402000Y-81280000D03*
X171402000Y-81280000D03*
G36*
G01*
X167602000Y-81813333D02*
X167602000Y-80746667D01*
G75*
G02*
X167868667Y-80480000I266667J0D01*
G01*
X168935333Y-80480000D01*
G75*
G02*
X169202000Y-80746667I0J-266667D01*
G01*
X169202000Y-81813333D01*
G75*
G02*
X168935333Y-82080000I-266667J0D01*
G01*
X167868667Y-82080000D01*
G75*
G02*
X167602000Y-81813333I0J266667D01*
G01*
G37*
D13*
X177402000Y-85220000D03*
X165402000Y-85220000D03*
%TD*%
D12*
%TO.C,J5*%
X172212000Y-115364000D03*
G36*
G01*
X173012000Y-117830667D02*
X173012000Y-118897333D01*
G75*
G02*
X172745333Y-119164000I-266667J0D01*
G01*
X171678667Y-119164000D01*
G75*
G02*
X171412000Y-118897333I0J266667D01*
G01*
X171412000Y-117830667D01*
G75*
G02*
X171678667Y-117564000I266667J0D01*
G01*
X172745333Y-117564000D01*
G75*
G02*
X173012000Y-117830667I0J-266667D01*
G01*
G37*
D13*
X169212000Y-114424000D03*
X175212000Y-114424000D03*
%TD*%
D12*
%TO.C,J4*%
X151559000Y-84280000D03*
X148559000Y-84280000D03*
X145559000Y-84280000D03*
X151559000Y-81280000D03*
X148559000Y-81280000D03*
G36*
G01*
X144759000Y-81813333D02*
X144759000Y-80746667D01*
G75*
G02*
X145025667Y-80480000I266667J0D01*
G01*
X146092333Y-80480000D01*
G75*
G02*
X146359000Y-80746667I0J-266667D01*
G01*
X146359000Y-81813333D01*
G75*
G02*
X146092333Y-82080000I-266667J0D01*
G01*
X145025667Y-82080000D01*
G75*
G02*
X144759000Y-81813333I0J266667D01*
G01*
G37*
D13*
X154559000Y-85220000D03*
X142559000Y-85220000D03*
%TD*%
D14*
%TO.C,H2*%
X182972112Y-116459000D03*
X181275056Y-115756056D03*
X179578000Y-116459000D03*
X178875056Y-118156056D03*
X179578000Y-119853112D03*
X181275056Y-120556056D03*
X182972112Y-119853112D03*
X183675056Y-118156056D03*
D15*
X181275056Y-118156056D03*
%TD*%
D14*
%TO.C,H1*%
X132507056Y-79201944D03*
X130810000Y-78499000D03*
X129112944Y-79201944D03*
X128410000Y-80899000D03*
X129112944Y-82596056D03*
X130810000Y-83299000D03*
X132507056Y-82596056D03*
X133210000Y-80899000D03*
D15*
X130810000Y-80899000D03*
%TD*%
D12*
%TO.C,J3*%
X161290000Y-115364000D03*
X164290000Y-115364000D03*
X161290000Y-118364000D03*
G36*
G01*
X165090000Y-117830667D02*
X165090000Y-118897333D01*
G75*
G02*
X164823333Y-119164000I-266667J0D01*
G01*
X163756667Y-119164000D01*
G75*
G02*
X163490000Y-118897333I0J266667D01*
G01*
X163490000Y-117830667D01*
G75*
G02*
X163756667Y-117564000I266667J0D01*
G01*
X164823333Y-117564000D01*
G75*
G02*
X165090000Y-117830667I0J-266667D01*
G01*
G37*
D13*
X158290000Y-114424000D03*
X167290000Y-114424000D03*
%TD*%
M02*
