M48
; DRILL file {KiCad (5.1.6-0-10_14)} date Friday, March 12, 2021 at 06:27:16 PM
; FORMAT={3:3/ absolute / metric / suppress leading zeros}
; #@! TF.CreationDate,2021-03-12T18:27:16+01:00
; #@! TF.GenerationSoftware,Kicad,Pcbnew,(5.1.6-0-10_14)
FMAT,2
METRIC,TZ
T1C0.400
T2C0.500
T3C1.000
T4C3.200
T5C1.000
%
G90
G05
T1
X139700Y-106680
X142621Y-107950
X143002Y-108966
X143759Y-96515
X144653Y-109347
X145923Y-101600
X147066Y-107188
X149225Y-97155
X149733Y-107442
X149824Y-99659
X149987Y-102108
X151130Y-93038
X152400Y-101600
X152654Y-107442
X153543Y-108113
X154178Y-90932
X154213Y-105699
X154940Y-94504
X154940Y-95504
X154940Y-104974
X155102Y-88935
X155702Y-104249
X155956Y-99568
X156142Y-106104
X156210Y-89170
X156210Y-90170
X156464Y-97028
X157226Y-94869
X157988Y-95758
X158242Y-109220
X159822Y-95758
X161036Y-111252
X161798Y-101219
X162052Y-105500
X162560Y-102870
X163063Y-96007
X163195Y-99695
X163576Y-94996
X163703Y-88445
X164533Y-101922
X164846Y-87249
X166497Y-88138
X166624Y-96520
X168656Y-97155
X170180Y-101600
X171196Y-89027
X172720Y-94107
X172720Y-109855
X172974Y-87376
X176657Y-110490
X177546Y-102108
X177927Y-98425
X179324Y-111506
X179451Y-112522
X180848Y-106045
T2
X128410Y-80899
X129113Y-79202
X129113Y-82596
X130810Y-78499
X130810Y-83299
X132507Y-79202
X132507Y-82596
X133210Y-80899
X178875Y-118156
X179578Y-116459
X179578Y-119853
X181275Y-115756
X181275Y-120556
X182972Y-116459
X182972Y-119853
X183675Y-118156
T3
X161290Y-115364
X161290Y-118364
X164290Y-115364
X164290Y-118364
X168402Y-81280
X168402Y-84280
X171402Y-81280
X171402Y-84280
X174402Y-81280
X174402Y-84280
X131572Y-111760
X131572Y-114300
X134112Y-111760
X134112Y-114300
X136652Y-111760
X136652Y-114300
X139192Y-111760
X139192Y-114300
X141732Y-111760
X141732Y-114300
X144272Y-111760
X144272Y-114300
X146812Y-111760
X146812Y-114300
X149352Y-111760
X149352Y-114300
X151892Y-111760
X151892Y-114300
X145559Y-81280
X145559Y-84280
X148559Y-81280
X148559Y-84280
X151559Y-81280
X151559Y-84280
X172212Y-115364
X172212Y-118364
T4
X130810Y-80899
X181275Y-118156
T5
X158290Y-114424
X167290Y-114424
X165402Y-85220
X177402Y-85220
X142559Y-85220
X154559Y-85220
X169212Y-114424
X175212Y-114424
T0
M30
