%TF.GenerationSoftware,KiCad,Pcbnew,(5.1.6-0-10_14)*%
%TF.CreationDate,2021-03-12T18:27:13+01:00*%
%TF.ProjectId,CAN_Display,43414e5f-4469-4737-906c-61792e6b6963,rev?*%
%TF.SameCoordinates,Original*%
%TF.FileFunction,Paste,Top*%
%TF.FilePolarity,Positive*%
%FSLAX46Y46*%
G04 Gerber Fmt 4.6, Leading zero omitted, Abs format (unit mm)*
G04 Created by KiCad (PCBNEW (5.1.6-0-10_14)) date 2021-03-12 18:27:13*
%MOMM*%
%LPD*%
G01*
G04 APERTURE LIST*
%ADD10R,2.500000X2.300000*%
%ADD11R,1.800000X2.500000*%
%ADD12R,1.000000X1.000000*%
%ADD13R,1.100000X1.900000*%
%ADD14R,1.700000X1.300000*%
%ADD15R,5.100000X2.350000*%
%ADD16R,2.300000X2.500000*%
%ADD17R,0.550000X1.600000*%
%ADD18R,1.600000X0.550000*%
G04 APERTURE END LIST*
%TO.C,U2*%
G36*
G01*
X167444000Y-105641000D02*
X167444000Y-105941000D01*
G75*
G02*
X167294000Y-106091000I-150000J0D01*
G01*
X165544000Y-106091000D01*
G75*
G02*
X165394000Y-105941000I0J150000D01*
G01*
X165394000Y-105641000D01*
G75*
G02*
X165544000Y-105491000I150000J0D01*
G01*
X167294000Y-105491000D01*
G75*
G02*
X167444000Y-105641000I0J-150000D01*
G01*
G37*
G36*
G01*
X167444000Y-104371000D02*
X167444000Y-104671000D01*
G75*
G02*
X167294000Y-104821000I-150000J0D01*
G01*
X165544000Y-104821000D01*
G75*
G02*
X165394000Y-104671000I0J150000D01*
G01*
X165394000Y-104371000D01*
G75*
G02*
X165544000Y-104221000I150000J0D01*
G01*
X167294000Y-104221000D01*
G75*
G02*
X167444000Y-104371000I0J-150000D01*
G01*
G37*
G36*
G01*
X167444000Y-103101000D02*
X167444000Y-103401000D01*
G75*
G02*
X167294000Y-103551000I-150000J0D01*
G01*
X165544000Y-103551000D01*
G75*
G02*
X165394000Y-103401000I0J150000D01*
G01*
X165394000Y-103101000D01*
G75*
G02*
X165544000Y-102951000I150000J0D01*
G01*
X167294000Y-102951000D01*
G75*
G02*
X167444000Y-103101000I0J-150000D01*
G01*
G37*
G36*
G01*
X167444000Y-101831000D02*
X167444000Y-102131000D01*
G75*
G02*
X167294000Y-102281000I-150000J0D01*
G01*
X165544000Y-102281000D01*
G75*
G02*
X165394000Y-102131000I0J150000D01*
G01*
X165394000Y-101831000D01*
G75*
G02*
X165544000Y-101681000I150000J0D01*
G01*
X167294000Y-101681000D01*
G75*
G02*
X167444000Y-101831000I0J-150000D01*
G01*
G37*
G36*
G01*
X167444000Y-100561000D02*
X167444000Y-100861000D01*
G75*
G02*
X167294000Y-101011000I-150000J0D01*
G01*
X165544000Y-101011000D01*
G75*
G02*
X165394000Y-100861000I0J150000D01*
G01*
X165394000Y-100561000D01*
G75*
G02*
X165544000Y-100411000I150000J0D01*
G01*
X167294000Y-100411000D01*
G75*
G02*
X167444000Y-100561000I0J-150000D01*
G01*
G37*
G36*
G01*
X167444000Y-99291000D02*
X167444000Y-99591000D01*
G75*
G02*
X167294000Y-99741000I-150000J0D01*
G01*
X165544000Y-99741000D01*
G75*
G02*
X165394000Y-99591000I0J150000D01*
G01*
X165394000Y-99291000D01*
G75*
G02*
X165544000Y-99141000I150000J0D01*
G01*
X167294000Y-99141000D01*
G75*
G02*
X167444000Y-99291000I0J-150000D01*
G01*
G37*
G36*
G01*
X167444000Y-98021000D02*
X167444000Y-98321000D01*
G75*
G02*
X167294000Y-98471000I-150000J0D01*
G01*
X165544000Y-98471000D01*
G75*
G02*
X165394000Y-98321000I0J150000D01*
G01*
X165394000Y-98021000D01*
G75*
G02*
X165544000Y-97871000I150000J0D01*
G01*
X167294000Y-97871000D01*
G75*
G02*
X167444000Y-98021000I0J-150000D01*
G01*
G37*
G36*
G01*
X167444000Y-96751000D02*
X167444000Y-97051000D01*
G75*
G02*
X167294000Y-97201000I-150000J0D01*
G01*
X165544000Y-97201000D01*
G75*
G02*
X165394000Y-97051000I0J150000D01*
G01*
X165394000Y-96751000D01*
G75*
G02*
X165544000Y-96601000I150000J0D01*
G01*
X167294000Y-96601000D01*
G75*
G02*
X167444000Y-96751000I0J-150000D01*
G01*
G37*
G36*
G01*
X167444000Y-95481000D02*
X167444000Y-95781000D01*
G75*
G02*
X167294000Y-95931000I-150000J0D01*
G01*
X165544000Y-95931000D01*
G75*
G02*
X165394000Y-95781000I0J150000D01*
G01*
X165394000Y-95481000D01*
G75*
G02*
X165544000Y-95331000I150000J0D01*
G01*
X167294000Y-95331000D01*
G75*
G02*
X167444000Y-95481000I0J-150000D01*
G01*
G37*
G36*
G01*
X176744000Y-95481000D02*
X176744000Y-95781000D01*
G75*
G02*
X176594000Y-95931000I-150000J0D01*
G01*
X174844000Y-95931000D01*
G75*
G02*
X174694000Y-95781000I0J150000D01*
G01*
X174694000Y-95481000D01*
G75*
G02*
X174844000Y-95331000I150000J0D01*
G01*
X176594000Y-95331000D01*
G75*
G02*
X176744000Y-95481000I0J-150000D01*
G01*
G37*
G36*
G01*
X176744000Y-96751000D02*
X176744000Y-97051000D01*
G75*
G02*
X176594000Y-97201000I-150000J0D01*
G01*
X174844000Y-97201000D01*
G75*
G02*
X174694000Y-97051000I0J150000D01*
G01*
X174694000Y-96751000D01*
G75*
G02*
X174844000Y-96601000I150000J0D01*
G01*
X176594000Y-96601000D01*
G75*
G02*
X176744000Y-96751000I0J-150000D01*
G01*
G37*
G36*
G01*
X176744000Y-98021000D02*
X176744000Y-98321000D01*
G75*
G02*
X176594000Y-98471000I-150000J0D01*
G01*
X174844000Y-98471000D01*
G75*
G02*
X174694000Y-98321000I0J150000D01*
G01*
X174694000Y-98021000D01*
G75*
G02*
X174844000Y-97871000I150000J0D01*
G01*
X176594000Y-97871000D01*
G75*
G02*
X176744000Y-98021000I0J-150000D01*
G01*
G37*
G36*
G01*
X176744000Y-99291000D02*
X176744000Y-99591000D01*
G75*
G02*
X176594000Y-99741000I-150000J0D01*
G01*
X174844000Y-99741000D01*
G75*
G02*
X174694000Y-99591000I0J150000D01*
G01*
X174694000Y-99291000D01*
G75*
G02*
X174844000Y-99141000I150000J0D01*
G01*
X176594000Y-99141000D01*
G75*
G02*
X176744000Y-99291000I0J-150000D01*
G01*
G37*
G36*
G01*
X176744000Y-100561000D02*
X176744000Y-100861000D01*
G75*
G02*
X176594000Y-101011000I-150000J0D01*
G01*
X174844000Y-101011000D01*
G75*
G02*
X174694000Y-100861000I0J150000D01*
G01*
X174694000Y-100561000D01*
G75*
G02*
X174844000Y-100411000I150000J0D01*
G01*
X176594000Y-100411000D01*
G75*
G02*
X176744000Y-100561000I0J-150000D01*
G01*
G37*
G36*
G01*
X176744000Y-101831000D02*
X176744000Y-102131000D01*
G75*
G02*
X176594000Y-102281000I-150000J0D01*
G01*
X174844000Y-102281000D01*
G75*
G02*
X174694000Y-102131000I0J150000D01*
G01*
X174694000Y-101831000D01*
G75*
G02*
X174844000Y-101681000I150000J0D01*
G01*
X176594000Y-101681000D01*
G75*
G02*
X176744000Y-101831000I0J-150000D01*
G01*
G37*
G36*
G01*
X176744000Y-103101000D02*
X176744000Y-103401000D01*
G75*
G02*
X176594000Y-103551000I-150000J0D01*
G01*
X174844000Y-103551000D01*
G75*
G02*
X174694000Y-103401000I0J150000D01*
G01*
X174694000Y-103101000D01*
G75*
G02*
X174844000Y-102951000I150000J0D01*
G01*
X176594000Y-102951000D01*
G75*
G02*
X176744000Y-103101000I0J-150000D01*
G01*
G37*
G36*
G01*
X176744000Y-104371000D02*
X176744000Y-104671000D01*
G75*
G02*
X176594000Y-104821000I-150000J0D01*
G01*
X174844000Y-104821000D01*
G75*
G02*
X174694000Y-104671000I0J150000D01*
G01*
X174694000Y-104371000D01*
G75*
G02*
X174844000Y-104221000I150000J0D01*
G01*
X176594000Y-104221000D01*
G75*
G02*
X176744000Y-104371000I0J-150000D01*
G01*
G37*
G36*
G01*
X176744000Y-105641000D02*
X176744000Y-105941000D01*
G75*
G02*
X176594000Y-106091000I-150000J0D01*
G01*
X174844000Y-106091000D01*
G75*
G02*
X174694000Y-105941000I0J150000D01*
G01*
X174694000Y-105641000D01*
G75*
G02*
X174844000Y-105491000I150000J0D01*
G01*
X176594000Y-105491000D01*
G75*
G02*
X176744000Y-105641000I0J-150000D01*
G01*
G37*
%TD*%
D10*
%TO.C,D10*%
X166642000Y-109220000D03*
X170942000Y-109220000D03*
%TD*%
D11*
%TO.C,D4*%
X138684000Y-81534000D03*
X138684000Y-85534000D03*
%TD*%
D12*
%TO.C,D9*%
X160528000Y-107950000D03*
X158028000Y-107950000D03*
%TD*%
%TO.C,D8*%
X160528000Y-105918000D03*
X158028000Y-105918000D03*
%TD*%
%TO.C,D7*%
X156758000Y-86868000D03*
X159258000Y-86868000D03*
%TD*%
%TO.C,D5*%
X160909000Y-86868000D03*
X163409000Y-86868000D03*
%TD*%
%TO.C,D3*%
X174752000Y-89916000D03*
X174752000Y-87416000D03*
%TD*%
%TO.C,D2*%
X136779000Y-95631000D03*
X136779000Y-98131000D03*
%TD*%
D13*
%TO.C,Y2*%
X181991000Y-93980000D03*
X181991000Y-97680000D03*
X179691000Y-97680000D03*
X179691000Y-93980000D03*
%TD*%
%TO.C,Y1*%
X148336000Y-99568000D03*
X148336000Y-103268000D03*
X146036000Y-103268000D03*
X146036000Y-99568000D03*
%TD*%
%TO.C,R8*%
G36*
G01*
X157547000Y-82226999D02*
X157547000Y-83127001D01*
G75*
G02*
X157297001Y-83377000I-249999J0D01*
G01*
X156646999Y-83377000D01*
G75*
G02*
X156397000Y-83127001I0J249999D01*
G01*
X156397000Y-82226999D01*
G75*
G02*
X156646999Y-81977000I249999J0D01*
G01*
X157297001Y-81977000D01*
G75*
G02*
X157547000Y-82226999I0J-249999D01*
G01*
G37*
G36*
G01*
X159597000Y-82226999D02*
X159597000Y-83127001D01*
G75*
G02*
X159347001Y-83377000I-249999J0D01*
G01*
X158696999Y-83377000D01*
G75*
G02*
X158447000Y-83127001I0J249999D01*
G01*
X158447000Y-82226999D01*
G75*
G02*
X158696999Y-81977000I249999J0D01*
G01*
X159347001Y-81977000D01*
G75*
G02*
X159597000Y-82226999I0J-249999D01*
G01*
G37*
%TD*%
%TO.C,R7*%
G36*
G01*
X157547000Y-80067999D02*
X157547000Y-80968001D01*
G75*
G02*
X157297001Y-81218000I-249999J0D01*
G01*
X156646999Y-81218000D01*
G75*
G02*
X156397000Y-80968001I0J249999D01*
G01*
X156397000Y-80067999D01*
G75*
G02*
X156646999Y-79818000I249999J0D01*
G01*
X157297001Y-79818000D01*
G75*
G02*
X157547000Y-80067999I0J-249999D01*
G01*
G37*
G36*
G01*
X159597000Y-80067999D02*
X159597000Y-80968001D01*
G75*
G02*
X159347001Y-81218000I-249999J0D01*
G01*
X158696999Y-81218000D01*
G75*
G02*
X158447000Y-80968001I0J249999D01*
G01*
X158447000Y-80067999D01*
G75*
G02*
X158696999Y-79818000I249999J0D01*
G01*
X159347001Y-79818000D01*
G75*
G02*
X159597000Y-80067999I0J-249999D01*
G01*
G37*
%TD*%
D14*
%TO.C,D6*%
X161417000Y-81280000D03*
X161417000Y-84780000D03*
%TD*%
%TO.C,C15*%
G36*
G01*
X167737000Y-92625000D02*
X167737000Y-91525000D01*
G75*
G02*
X167987000Y-91275000I250000J0D01*
G01*
X170087000Y-91275000D01*
G75*
G02*
X170337000Y-91525000I0J-250000D01*
G01*
X170337000Y-92625000D01*
G75*
G02*
X170087000Y-92875000I-250000J0D01*
G01*
X167987000Y-92875000D01*
G75*
G02*
X167737000Y-92625000I0J250000D01*
G01*
G37*
G36*
G01*
X164137000Y-92625000D02*
X164137000Y-91525000D01*
G75*
G02*
X164387000Y-91275000I250000J0D01*
G01*
X166487000Y-91275000D01*
G75*
G02*
X166737000Y-91525000I0J-250000D01*
G01*
X166737000Y-92625000D01*
G75*
G02*
X166487000Y-92875000I-250000J0D01*
G01*
X164387000Y-92875000D01*
G75*
G02*
X164137000Y-92625000I0J250000D01*
G01*
G37*
%TD*%
%TO.C,C13*%
G36*
G01*
X157529000Y-84385999D02*
X157529000Y-85286001D01*
G75*
G02*
X157279001Y-85536000I-249999J0D01*
G01*
X156628999Y-85536000D01*
G75*
G02*
X156379000Y-85286001I0J249999D01*
G01*
X156379000Y-84385999D01*
G75*
G02*
X156628999Y-84136000I249999J0D01*
G01*
X157279001Y-84136000D01*
G75*
G02*
X157529000Y-84385999I0J-249999D01*
G01*
G37*
G36*
G01*
X159579000Y-84385999D02*
X159579000Y-85286001D01*
G75*
G02*
X159329001Y-85536000I-249999J0D01*
G01*
X158678999Y-85536000D01*
G75*
G02*
X158429000Y-85286001I0J249999D01*
G01*
X158429000Y-84385999D01*
G75*
G02*
X158678999Y-84136000I249999J0D01*
G01*
X159329001Y-84136000D01*
G75*
G02*
X159579000Y-84385999I0J-249999D01*
G01*
G37*
%TD*%
%TO.C,U4*%
G36*
G01*
X134216000Y-99990000D02*
X134516000Y-99990000D01*
G75*
G02*
X134666000Y-100140000I0J-150000D01*
G01*
X134666000Y-101790000D01*
G75*
G02*
X134516000Y-101940000I-150000J0D01*
G01*
X134216000Y-101940000D01*
G75*
G02*
X134066000Y-101790000I0J150000D01*
G01*
X134066000Y-100140000D01*
G75*
G02*
X134216000Y-99990000I150000J0D01*
G01*
G37*
G36*
G01*
X132946000Y-99990000D02*
X133246000Y-99990000D01*
G75*
G02*
X133396000Y-100140000I0J-150000D01*
G01*
X133396000Y-101790000D01*
G75*
G02*
X133246000Y-101940000I-150000J0D01*
G01*
X132946000Y-101940000D01*
G75*
G02*
X132796000Y-101790000I0J150000D01*
G01*
X132796000Y-100140000D01*
G75*
G02*
X132946000Y-99990000I150000J0D01*
G01*
G37*
G36*
G01*
X131676000Y-99990000D02*
X131976000Y-99990000D01*
G75*
G02*
X132126000Y-100140000I0J-150000D01*
G01*
X132126000Y-101790000D01*
G75*
G02*
X131976000Y-101940000I-150000J0D01*
G01*
X131676000Y-101940000D01*
G75*
G02*
X131526000Y-101790000I0J150000D01*
G01*
X131526000Y-100140000D01*
G75*
G02*
X131676000Y-99990000I150000J0D01*
G01*
G37*
G36*
G01*
X130406000Y-99990000D02*
X130706000Y-99990000D01*
G75*
G02*
X130856000Y-100140000I0J-150000D01*
G01*
X130856000Y-101790000D01*
G75*
G02*
X130706000Y-101940000I-150000J0D01*
G01*
X130406000Y-101940000D01*
G75*
G02*
X130256000Y-101790000I0J150000D01*
G01*
X130256000Y-100140000D01*
G75*
G02*
X130406000Y-99990000I150000J0D01*
G01*
G37*
G36*
G01*
X130406000Y-95040000D02*
X130706000Y-95040000D01*
G75*
G02*
X130856000Y-95190000I0J-150000D01*
G01*
X130856000Y-96840000D01*
G75*
G02*
X130706000Y-96990000I-150000J0D01*
G01*
X130406000Y-96990000D01*
G75*
G02*
X130256000Y-96840000I0J150000D01*
G01*
X130256000Y-95190000D01*
G75*
G02*
X130406000Y-95040000I150000J0D01*
G01*
G37*
G36*
G01*
X131676000Y-95040000D02*
X131976000Y-95040000D01*
G75*
G02*
X132126000Y-95190000I0J-150000D01*
G01*
X132126000Y-96840000D01*
G75*
G02*
X131976000Y-96990000I-150000J0D01*
G01*
X131676000Y-96990000D01*
G75*
G02*
X131526000Y-96840000I0J150000D01*
G01*
X131526000Y-95190000D01*
G75*
G02*
X131676000Y-95040000I150000J0D01*
G01*
G37*
G36*
G01*
X132946000Y-95040000D02*
X133246000Y-95040000D01*
G75*
G02*
X133396000Y-95190000I0J-150000D01*
G01*
X133396000Y-96840000D01*
G75*
G02*
X133246000Y-96990000I-150000J0D01*
G01*
X132946000Y-96990000D01*
G75*
G02*
X132796000Y-96840000I0J150000D01*
G01*
X132796000Y-95190000D01*
G75*
G02*
X132946000Y-95040000I150000J0D01*
G01*
G37*
G36*
G01*
X134216000Y-95040000D02*
X134516000Y-95040000D01*
G75*
G02*
X134666000Y-95190000I0J-150000D01*
G01*
X134666000Y-96840000D01*
G75*
G02*
X134516000Y-96990000I-150000J0D01*
G01*
X134216000Y-96990000D01*
G75*
G02*
X134066000Y-96840000I0J150000D01*
G01*
X134066000Y-95190000D01*
G75*
G02*
X134216000Y-95040000I150000J0D01*
G01*
G37*
%TD*%
D15*
%TO.C,L1*%
X141224000Y-104267000D03*
X141224000Y-100117000D03*
%TD*%
D16*
%TO.C,D1*%
X140716000Y-95758000D03*
X140716000Y-91458000D03*
%TD*%
%TO.C,C10*%
G36*
G01*
X131732000Y-105495000D02*
X131732000Y-106595000D01*
G75*
G02*
X131482000Y-106845000I-250000J0D01*
G01*
X128482000Y-106845000D01*
G75*
G02*
X128232000Y-106595000I0J250000D01*
G01*
X128232000Y-105495000D01*
G75*
G02*
X128482000Y-105245000I250000J0D01*
G01*
X131482000Y-105245000D01*
G75*
G02*
X131732000Y-105495000I0J-250000D01*
G01*
G37*
G36*
G01*
X137132000Y-105495000D02*
X137132000Y-106595000D01*
G75*
G02*
X136882000Y-106845000I-250000J0D01*
G01*
X133882000Y-106845000D01*
G75*
G02*
X133632000Y-106595000I0J250000D01*
G01*
X133632000Y-105495000D01*
G75*
G02*
X133882000Y-105245000I250000J0D01*
G01*
X136882000Y-105245000D01*
G75*
G02*
X137132000Y-105495000I0J-250000D01*
G01*
G37*
%TD*%
%TO.C,C9*%
G36*
G01*
X131224000Y-90255000D02*
X131224000Y-91355000D01*
G75*
G02*
X130974000Y-91605000I-250000J0D01*
G01*
X127974000Y-91605000D01*
G75*
G02*
X127724000Y-91355000I0J250000D01*
G01*
X127724000Y-90255000D01*
G75*
G02*
X127974000Y-90005000I250000J0D01*
G01*
X130974000Y-90005000D01*
G75*
G02*
X131224000Y-90255000I0J-250000D01*
G01*
G37*
G36*
G01*
X136624000Y-90255000D02*
X136624000Y-91355000D01*
G75*
G02*
X136374000Y-91605000I-250000J0D01*
G01*
X133374000Y-91605000D01*
G75*
G02*
X133124000Y-91355000I0J250000D01*
G01*
X133124000Y-90255000D01*
G75*
G02*
X133374000Y-90005000I250000J0D01*
G01*
X136374000Y-90005000D01*
G75*
G02*
X136624000Y-90255000I0J-250000D01*
G01*
G37*
%TD*%
%TO.C,C12*%
G36*
G01*
X176714999Y-88833000D02*
X177615001Y-88833000D01*
G75*
G02*
X177865000Y-89082999I0J-249999D01*
G01*
X177865000Y-89733001D01*
G75*
G02*
X177615001Y-89983000I-249999J0D01*
G01*
X176714999Y-89983000D01*
G75*
G02*
X176465000Y-89733001I0J249999D01*
G01*
X176465000Y-89082999D01*
G75*
G02*
X176714999Y-88833000I249999J0D01*
G01*
G37*
G36*
G01*
X176714999Y-86783000D02*
X177615001Y-86783000D01*
G75*
G02*
X177865000Y-87032999I0J-249999D01*
G01*
X177865000Y-87683001D01*
G75*
G02*
X177615001Y-87933000I-249999J0D01*
G01*
X176714999Y-87933000D01*
G75*
G02*
X176465000Y-87683001I0J249999D01*
G01*
X176465000Y-87032999D01*
G75*
G02*
X176714999Y-86783000I249999J0D01*
G01*
G37*
%TD*%
%TO.C,R6*%
G36*
G01*
X143694999Y-94675000D02*
X144595001Y-94675000D01*
G75*
G02*
X144845000Y-94924999I0J-249999D01*
G01*
X144845000Y-95575001D01*
G75*
G02*
X144595001Y-95825000I-249999J0D01*
G01*
X143694999Y-95825000D01*
G75*
G02*
X143445000Y-95575001I0J249999D01*
G01*
X143445000Y-94924999D01*
G75*
G02*
X143694999Y-94675000I249999J0D01*
G01*
G37*
G36*
G01*
X143694999Y-92625000D02*
X144595001Y-92625000D01*
G75*
G02*
X144845000Y-92874999I0J-249999D01*
G01*
X144845000Y-93525001D01*
G75*
G02*
X144595001Y-93775000I-249999J0D01*
G01*
X143694999Y-93775000D01*
G75*
G02*
X143445000Y-93525001I0J249999D01*
G01*
X143445000Y-92874999D01*
G75*
G02*
X143694999Y-92625000I249999J0D01*
G01*
G37*
%TD*%
%TO.C,R5*%
G36*
G01*
X148139999Y-94675000D02*
X149040001Y-94675000D01*
G75*
G02*
X149290000Y-94924999I0J-249999D01*
G01*
X149290000Y-95575001D01*
G75*
G02*
X149040001Y-95825000I-249999J0D01*
G01*
X148139999Y-95825000D01*
G75*
G02*
X147890000Y-95575001I0J249999D01*
G01*
X147890000Y-94924999D01*
G75*
G02*
X148139999Y-94675000I249999J0D01*
G01*
G37*
G36*
G01*
X148139999Y-92625000D02*
X149040001Y-92625000D01*
G75*
G02*
X149290000Y-92874999I0J-249999D01*
G01*
X149290000Y-93525001D01*
G75*
G02*
X149040001Y-93775000I-249999J0D01*
G01*
X148139999Y-93775000D01*
G75*
G02*
X147890000Y-93525001I0J249999D01*
G01*
X147890000Y-92874999D01*
G75*
G02*
X148139999Y-92625000I249999J0D01*
G01*
G37*
%TD*%
%TO.C,C11*%
G36*
G01*
X146754001Y-93775000D02*
X145853999Y-93775000D01*
G75*
G02*
X145604000Y-93525001I0J249999D01*
G01*
X145604000Y-92874999D01*
G75*
G02*
X145853999Y-92625000I249999J0D01*
G01*
X146754001Y-92625000D01*
G75*
G02*
X147004000Y-92874999I0J-249999D01*
G01*
X147004000Y-93525001D01*
G75*
G02*
X146754001Y-93775000I-249999J0D01*
G01*
G37*
G36*
G01*
X146754001Y-95825000D02*
X145853999Y-95825000D01*
G75*
G02*
X145604000Y-95575001I0J249999D01*
G01*
X145604000Y-94924999D01*
G75*
G02*
X145853999Y-94675000I249999J0D01*
G01*
X146754001Y-94675000D01*
G75*
G02*
X147004000Y-94924999I0J-249999D01*
G01*
X147004000Y-95575001D01*
G75*
G02*
X146754001Y-95825000I-249999J0D01*
G01*
G37*
%TD*%
%TO.C,U3*%
G36*
G01*
X182222000Y-108623000D02*
X182522000Y-108623000D01*
G75*
G02*
X182672000Y-108773000I0J-150000D01*
G01*
X182672000Y-110423000D01*
G75*
G02*
X182522000Y-110573000I-150000J0D01*
G01*
X182222000Y-110573000D01*
G75*
G02*
X182072000Y-110423000I0J150000D01*
G01*
X182072000Y-108773000D01*
G75*
G02*
X182222000Y-108623000I150000J0D01*
G01*
G37*
G36*
G01*
X180952000Y-108623000D02*
X181252000Y-108623000D01*
G75*
G02*
X181402000Y-108773000I0J-150000D01*
G01*
X181402000Y-110423000D01*
G75*
G02*
X181252000Y-110573000I-150000J0D01*
G01*
X180952000Y-110573000D01*
G75*
G02*
X180802000Y-110423000I0J150000D01*
G01*
X180802000Y-108773000D01*
G75*
G02*
X180952000Y-108623000I150000J0D01*
G01*
G37*
G36*
G01*
X179682000Y-108623000D02*
X179982000Y-108623000D01*
G75*
G02*
X180132000Y-108773000I0J-150000D01*
G01*
X180132000Y-110423000D01*
G75*
G02*
X179982000Y-110573000I-150000J0D01*
G01*
X179682000Y-110573000D01*
G75*
G02*
X179532000Y-110423000I0J150000D01*
G01*
X179532000Y-108773000D01*
G75*
G02*
X179682000Y-108623000I150000J0D01*
G01*
G37*
G36*
G01*
X178412000Y-108623000D02*
X178712000Y-108623000D01*
G75*
G02*
X178862000Y-108773000I0J-150000D01*
G01*
X178862000Y-110423000D01*
G75*
G02*
X178712000Y-110573000I-150000J0D01*
G01*
X178412000Y-110573000D01*
G75*
G02*
X178262000Y-110423000I0J150000D01*
G01*
X178262000Y-108773000D01*
G75*
G02*
X178412000Y-108623000I150000J0D01*
G01*
G37*
G36*
G01*
X178412000Y-103673000D02*
X178712000Y-103673000D01*
G75*
G02*
X178862000Y-103823000I0J-150000D01*
G01*
X178862000Y-105473000D01*
G75*
G02*
X178712000Y-105623000I-150000J0D01*
G01*
X178412000Y-105623000D01*
G75*
G02*
X178262000Y-105473000I0J150000D01*
G01*
X178262000Y-103823000D01*
G75*
G02*
X178412000Y-103673000I150000J0D01*
G01*
G37*
G36*
G01*
X179682000Y-103673000D02*
X179982000Y-103673000D01*
G75*
G02*
X180132000Y-103823000I0J-150000D01*
G01*
X180132000Y-105473000D01*
G75*
G02*
X179982000Y-105623000I-150000J0D01*
G01*
X179682000Y-105623000D01*
G75*
G02*
X179532000Y-105473000I0J150000D01*
G01*
X179532000Y-103823000D01*
G75*
G02*
X179682000Y-103673000I150000J0D01*
G01*
G37*
G36*
G01*
X180952000Y-103673000D02*
X181252000Y-103673000D01*
G75*
G02*
X181402000Y-103823000I0J-150000D01*
G01*
X181402000Y-105473000D01*
G75*
G02*
X181252000Y-105623000I-150000J0D01*
G01*
X180952000Y-105623000D01*
G75*
G02*
X180802000Y-105473000I0J150000D01*
G01*
X180802000Y-103823000D01*
G75*
G02*
X180952000Y-103673000I150000J0D01*
G01*
G37*
G36*
G01*
X182222000Y-103673000D02*
X182522000Y-103673000D01*
G75*
G02*
X182672000Y-103823000I0J-150000D01*
G01*
X182672000Y-105473000D01*
G75*
G02*
X182522000Y-105623000I-150000J0D01*
G01*
X182222000Y-105623000D01*
G75*
G02*
X182072000Y-105473000I0J150000D01*
G01*
X182072000Y-103823000D01*
G75*
G02*
X182222000Y-103673000I150000J0D01*
G01*
G37*
%TD*%
%TO.C,R4*%
G36*
G01*
X163763000Y-110559001D02*
X163763000Y-109658999D01*
G75*
G02*
X164012999Y-109409000I249999J0D01*
G01*
X164663001Y-109409000D01*
G75*
G02*
X164913000Y-109658999I0J-249999D01*
G01*
X164913000Y-110559001D01*
G75*
G02*
X164663001Y-110809000I-249999J0D01*
G01*
X164012999Y-110809000D01*
G75*
G02*
X163763000Y-110559001I0J249999D01*
G01*
G37*
G36*
G01*
X161713000Y-110559001D02*
X161713000Y-109658999D01*
G75*
G02*
X161962999Y-109409000I249999J0D01*
G01*
X162613001Y-109409000D01*
G75*
G02*
X162863000Y-109658999I0J-249999D01*
G01*
X162863000Y-110559001D01*
G75*
G02*
X162613001Y-110809000I-249999J0D01*
G01*
X161962999Y-110809000D01*
G75*
G02*
X161713000Y-110559001I0J249999D01*
G01*
G37*
%TD*%
%TO.C,R3*%
G36*
G01*
X151187999Y-104980000D02*
X152088001Y-104980000D01*
G75*
G02*
X152338000Y-105229999I0J-249999D01*
G01*
X152338000Y-105880001D01*
G75*
G02*
X152088001Y-106130000I-249999J0D01*
G01*
X151187999Y-106130000D01*
G75*
G02*
X150938000Y-105880001I0J249999D01*
G01*
X150938000Y-105229999D01*
G75*
G02*
X151187999Y-104980000I249999J0D01*
G01*
G37*
G36*
G01*
X151187999Y-102930000D02*
X152088001Y-102930000D01*
G75*
G02*
X152338000Y-103179999I0J-249999D01*
G01*
X152338000Y-103830001D01*
G75*
G02*
X152088001Y-104080000I-249999J0D01*
G01*
X151187999Y-104080000D01*
G75*
G02*
X150938000Y-103830001I0J249999D01*
G01*
X150938000Y-103179999D01*
G75*
G02*
X151187999Y-102930000I249999J0D01*
G01*
G37*
%TD*%
D17*
%TO.C,U1*%
X154172000Y-92778000D03*
X154972000Y-92778000D03*
X155772000Y-92778000D03*
X156572000Y-92778000D03*
X157372000Y-92778000D03*
X158172000Y-92778000D03*
X158972000Y-92778000D03*
X159772000Y-92778000D03*
D18*
X161222000Y-94228000D03*
X161222000Y-95028000D03*
X161222000Y-95828000D03*
X161222000Y-96628000D03*
X161222000Y-97428000D03*
X161222000Y-98228000D03*
X161222000Y-99028000D03*
X161222000Y-99828000D03*
D17*
X159772000Y-101278000D03*
X158972000Y-101278000D03*
X158172000Y-101278000D03*
X157372000Y-101278000D03*
X156572000Y-101278000D03*
X155772000Y-101278000D03*
X154972000Y-101278000D03*
X154172000Y-101278000D03*
D18*
X152722000Y-99828000D03*
X152722000Y-99028000D03*
X152722000Y-98228000D03*
X152722000Y-97428000D03*
X152722000Y-96628000D03*
X152722000Y-95828000D03*
X152722000Y-95028000D03*
X152722000Y-94228000D03*
%TD*%
%TO.C,C8*%
G36*
G01*
X176336000Y-108781001D02*
X176336000Y-107880999D01*
G75*
G02*
X176585999Y-107631000I249999J0D01*
G01*
X177236001Y-107631000D01*
G75*
G02*
X177486000Y-107880999I0J-249999D01*
G01*
X177486000Y-108781001D01*
G75*
G02*
X177236001Y-109031000I-249999J0D01*
G01*
X176585999Y-109031000D01*
G75*
G02*
X176336000Y-108781001I0J249999D01*
G01*
G37*
G36*
G01*
X174286000Y-108781001D02*
X174286000Y-107880999D01*
G75*
G02*
X174535999Y-107631000I249999J0D01*
G01*
X175186001Y-107631000D01*
G75*
G02*
X175436000Y-107880999I0J-249999D01*
G01*
X175436000Y-108781001D01*
G75*
G02*
X175186001Y-109031000I-249999J0D01*
G01*
X174535999Y-109031000D01*
G75*
G02*
X174286000Y-108781001I0J249999D01*
G01*
G37*
%TD*%
%TO.C,C7*%
G36*
G01*
X164534001Y-106747000D02*
X163633999Y-106747000D01*
G75*
G02*
X163384000Y-106497001I0J249999D01*
G01*
X163384000Y-105846999D01*
G75*
G02*
X163633999Y-105597000I249999J0D01*
G01*
X164534001Y-105597000D01*
G75*
G02*
X164784000Y-105846999I0J-249999D01*
G01*
X164784000Y-106497001D01*
G75*
G02*
X164534001Y-106747000I-249999J0D01*
G01*
G37*
G36*
G01*
X164534001Y-108797000D02*
X163633999Y-108797000D01*
G75*
G02*
X163384000Y-108547001I0J249999D01*
G01*
X163384000Y-107896999D01*
G75*
G02*
X163633999Y-107647000I249999J0D01*
G01*
X164534001Y-107647000D01*
G75*
G02*
X164784000Y-107896999I0J-249999D01*
G01*
X164784000Y-108547001D01*
G75*
G02*
X164534001Y-108797000I-249999J0D01*
G01*
G37*
%TD*%
%TO.C,C6*%
G36*
G01*
X150945001Y-96950000D02*
X150044999Y-96950000D01*
G75*
G02*
X149795000Y-96700001I0J249999D01*
G01*
X149795000Y-96049999D01*
G75*
G02*
X150044999Y-95800000I249999J0D01*
G01*
X150945001Y-95800000D01*
G75*
G02*
X151195000Y-96049999I0J-249999D01*
G01*
X151195000Y-96700001D01*
G75*
G02*
X150945001Y-96950000I-249999J0D01*
G01*
G37*
G36*
G01*
X150945001Y-99000000D02*
X150044999Y-99000000D01*
G75*
G02*
X149795000Y-98750001I0J249999D01*
G01*
X149795000Y-98099999D01*
G75*
G02*
X150044999Y-97850000I249999J0D01*
G01*
X150945001Y-97850000D01*
G75*
G02*
X151195000Y-98099999I0J-249999D01*
G01*
X151195000Y-98750001D01*
G75*
G02*
X150945001Y-99000000I-249999J0D01*
G01*
G37*
%TD*%
%TO.C,C5*%
G36*
G01*
X181794999Y-88851000D02*
X182695001Y-88851000D01*
G75*
G02*
X182945000Y-89100999I0J-249999D01*
G01*
X182945000Y-89751001D01*
G75*
G02*
X182695001Y-90001000I-249999J0D01*
G01*
X181794999Y-90001000D01*
G75*
G02*
X181545000Y-89751001I0J249999D01*
G01*
X181545000Y-89100999D01*
G75*
G02*
X181794999Y-88851000I249999J0D01*
G01*
G37*
G36*
G01*
X181794999Y-86801000D02*
X182695001Y-86801000D01*
G75*
G02*
X182945000Y-87050999I0J-249999D01*
G01*
X182945000Y-87701001D01*
G75*
G02*
X182695001Y-87951000I-249999J0D01*
G01*
X181794999Y-87951000D01*
G75*
G02*
X181545000Y-87701001I0J249999D01*
G01*
X181545000Y-87050999D01*
G75*
G02*
X181794999Y-86801000I249999J0D01*
G01*
G37*
%TD*%
%TO.C,R2*%
G36*
G01*
X180146000Y-102558001D02*
X180146000Y-101657999D01*
G75*
G02*
X180395999Y-101408000I249999J0D01*
G01*
X181046001Y-101408000D01*
G75*
G02*
X181296000Y-101657999I0J-249999D01*
G01*
X181296000Y-102558001D01*
G75*
G02*
X181046001Y-102808000I-249999J0D01*
G01*
X180395999Y-102808000D01*
G75*
G02*
X180146000Y-102558001I0J249999D01*
G01*
G37*
G36*
G01*
X178096000Y-102558001D02*
X178096000Y-101657999D01*
G75*
G02*
X178345999Y-101408000I249999J0D01*
G01*
X178996001Y-101408000D01*
G75*
G02*
X179246000Y-101657999I0J-249999D01*
G01*
X179246000Y-102558001D01*
G75*
G02*
X178996001Y-102808000I-249999J0D01*
G01*
X178345999Y-102808000D01*
G75*
G02*
X178096000Y-102558001I0J249999D01*
G01*
G37*
%TD*%
%TO.C,R1*%
G36*
G01*
X179254999Y-88851000D02*
X180155001Y-88851000D01*
G75*
G02*
X180405000Y-89100999I0J-249999D01*
G01*
X180405000Y-89751001D01*
G75*
G02*
X180155001Y-90001000I-249999J0D01*
G01*
X179254999Y-90001000D01*
G75*
G02*
X179005000Y-89751001I0J249999D01*
G01*
X179005000Y-89100999D01*
G75*
G02*
X179254999Y-88851000I249999J0D01*
G01*
G37*
G36*
G01*
X179254999Y-86801000D02*
X180155001Y-86801000D01*
G75*
G02*
X180405000Y-87050999I0J-249999D01*
G01*
X180405000Y-87701001D01*
G75*
G02*
X180155001Y-87951000I-249999J0D01*
G01*
X179254999Y-87951000D01*
G75*
G02*
X179005000Y-87701001I0J249999D01*
G01*
X179005000Y-87050999D01*
G75*
G02*
X179254999Y-86801000I249999J0D01*
G01*
G37*
%TD*%
%TO.C,C4*%
G36*
G01*
X179246000Y-99625999D02*
X179246000Y-100526001D01*
G75*
G02*
X178996001Y-100776000I-249999J0D01*
G01*
X178345999Y-100776000D01*
G75*
G02*
X178096000Y-100526001I0J249999D01*
G01*
X178096000Y-99625999D01*
G75*
G02*
X178345999Y-99376000I249999J0D01*
G01*
X178996001Y-99376000D01*
G75*
G02*
X179246000Y-99625999I0J-249999D01*
G01*
G37*
G36*
G01*
X181296000Y-99625999D02*
X181296000Y-100526001D01*
G75*
G02*
X181046001Y-100776000I-249999J0D01*
G01*
X180395999Y-100776000D01*
G75*
G02*
X180146000Y-100526001I0J249999D01*
G01*
X180146000Y-99625999D01*
G75*
G02*
X180395999Y-99376000I249999J0D01*
G01*
X181046001Y-99376000D01*
G75*
G02*
X181296000Y-99625999I0J-249999D01*
G01*
G37*
%TD*%
%TO.C,C3*%
G36*
G01*
X176325000Y-92894999D02*
X176325000Y-93795001D01*
G75*
G02*
X176075001Y-94045000I-249999J0D01*
G01*
X175424999Y-94045000D01*
G75*
G02*
X175175000Y-93795001I0J249999D01*
G01*
X175175000Y-92894999D01*
G75*
G02*
X175424999Y-92645000I249999J0D01*
G01*
X176075001Y-92645000D01*
G75*
G02*
X176325000Y-92894999I0J-249999D01*
G01*
G37*
G36*
G01*
X178375000Y-92894999D02*
X178375000Y-93795001D01*
G75*
G02*
X178125001Y-94045000I-249999J0D01*
G01*
X177474999Y-94045000D01*
G75*
G02*
X177225000Y-93795001I0J249999D01*
G01*
X177225000Y-92894999D01*
G75*
G02*
X177474999Y-92645000I249999J0D01*
G01*
X178125001Y-92645000D01*
G75*
G02*
X178375000Y-92894999I0J-249999D01*
G01*
G37*
%TD*%
%TO.C,C2*%
G36*
G01*
X147525000Y-106132001D02*
X147525000Y-105231999D01*
G75*
G02*
X147774999Y-104982000I249999J0D01*
G01*
X148425001Y-104982000D01*
G75*
G02*
X148675000Y-105231999I0J-249999D01*
G01*
X148675000Y-106132001D01*
G75*
G02*
X148425001Y-106382000I-249999J0D01*
G01*
X147774999Y-106382000D01*
G75*
G02*
X147525000Y-106132001I0J249999D01*
G01*
G37*
G36*
G01*
X145475000Y-106132001D02*
X145475000Y-105231999D01*
G75*
G02*
X145724999Y-104982000I249999J0D01*
G01*
X146375001Y-104982000D01*
G75*
G02*
X146625000Y-105231999I0J-249999D01*
G01*
X146625000Y-106132001D01*
G75*
G02*
X146375001Y-106382000I-249999J0D01*
G01*
X145724999Y-106382000D01*
G75*
G02*
X145475000Y-106132001I0J249999D01*
G01*
G37*
%TD*%
%TO.C,C1*%
G36*
G01*
X146625000Y-96704999D02*
X146625000Y-97605001D01*
G75*
G02*
X146375001Y-97855000I-249999J0D01*
G01*
X145724999Y-97855000D01*
G75*
G02*
X145475000Y-97605001I0J249999D01*
G01*
X145475000Y-96704999D01*
G75*
G02*
X145724999Y-96455000I249999J0D01*
G01*
X146375001Y-96455000D01*
G75*
G02*
X146625000Y-96704999I0J-249999D01*
G01*
G37*
G36*
G01*
X148675000Y-96704999D02*
X148675000Y-97605001D01*
G75*
G02*
X148425001Y-97855000I-249999J0D01*
G01*
X147774999Y-97855000D01*
G75*
G02*
X147525000Y-97605001I0J249999D01*
G01*
X147525000Y-96704999D01*
G75*
G02*
X147774999Y-96455000I249999J0D01*
G01*
X148425001Y-96455000D01*
G75*
G02*
X148675000Y-96704999I0J-249999D01*
G01*
G37*
%TD*%
M02*
