%TF.GenerationSoftware,KiCad,Pcbnew,(5.1.6-0-10_14)*%
%TF.CreationDate,2021-05-10T19:53:14+02:00*%
%TF.ProjectId,CAN_Display,43414e5f-4469-4737-906c-61792e6b6963,rev?*%
%TF.SameCoordinates,Original*%
%TF.FileFunction,Soldermask,Bot*%
%TF.FilePolarity,Negative*%
%FSLAX46Y46*%
G04 Gerber Fmt 4.6, Leading zero omitted, Abs format (unit mm)*
G04 Created by KiCad (PCBNEW (5.1.6-0-10_14)) date 2021-05-10 19:53:14*
%MOMM*%
%LPD*%
G01*
G04 APERTURE LIST*
%ADD10O,1.800000X1.800000*%
%ADD11R,1.800000X1.800000*%
%ADD12C,1.300000*%
%ADD13O,1.800000X2.100000*%
%ADD14O,1.800000X2.050000*%
%ADD15O,1.600000X2.120000*%
%ADD16C,1.370000*%
%ADD17C,1.600000*%
%ADD18C,1.100000*%
%ADD19C,0.900000*%
%ADD20C,6.500000*%
G04 APERTURE END LIST*
D10*
%TO.C,J5*%
X139192000Y-111760000D03*
X139192000Y-114300000D03*
X136652000Y-111760000D03*
X136652000Y-114300000D03*
X134112000Y-111760000D03*
D11*
X134112000Y-114300000D03*
%TD*%
D12*
%TO.C,J2*%
X153888000Y-82264000D03*
D13*
X157988000Y-80264000D03*
G36*
G01*
X154588000Y-81049294D02*
X154588000Y-79478706D01*
G75*
G02*
X154852706Y-79214000I264706J0D01*
G01*
X156123294Y-79214000D01*
G75*
G02*
X156388000Y-79478706I0J-264706D01*
G01*
X156388000Y-81049294D01*
G75*
G02*
X156123294Y-81314000I-264706J0D01*
G01*
X154852706Y-81314000D01*
G75*
G02*
X154588000Y-81049294I0J264706D01*
G01*
G37*
%TD*%
D12*
%TO.C,J4*%
X139744000Y-82264000D03*
D14*
X148844000Y-80264000D03*
X146344000Y-80264000D03*
X143844000Y-80264000D03*
G36*
G01*
X140444000Y-81024294D02*
X140444000Y-79503706D01*
G75*
G02*
X140708706Y-79239000I264706J0D01*
G01*
X141979294Y-79239000D01*
G75*
G02*
X142244000Y-79503706I0J-264706D01*
G01*
X142244000Y-81024294D01*
G75*
G02*
X141979294Y-81289000I-264706J0D01*
G01*
X140708706Y-81289000D01*
G75*
G02*
X140444000Y-81024294I0J264706D01*
G01*
G37*
%TD*%
D10*
%TO.C,J3*%
X131572000Y-111760000D03*
D11*
X131572000Y-114300000D03*
%TD*%
D15*
%TO.C,J6*%
X179640000Y-81280000D03*
X176640000Y-81280000D03*
X173640000Y-81280000D03*
X170640000Y-81280000D03*
G36*
G01*
X166840000Y-82073333D02*
X166840000Y-80486667D01*
G75*
G02*
X167106667Y-80220000I266667J0D01*
G01*
X168173333Y-80220000D01*
G75*
G02*
X168440000Y-80486667I0J-266667D01*
G01*
X168440000Y-82073333D01*
G75*
G02*
X168173333Y-82340000I-266667J0D01*
G01*
X167106667Y-82340000D01*
G75*
G02*
X166840000Y-82073333I0J266667D01*
G01*
G37*
D16*
X182640000Y-79320000D03*
X164640000Y-79320000D03*
%TD*%
D10*
%TO.C,J7*%
X154432000Y-111760000D03*
X154432000Y-114300000D03*
X151892000Y-111760000D03*
X151892000Y-114300000D03*
X149352000Y-111760000D03*
X149352000Y-114300000D03*
X146812000Y-111760000D03*
X146812000Y-114300000D03*
X144272000Y-111760000D03*
X144272000Y-114300000D03*
X141732000Y-111760000D03*
D11*
X141732000Y-114300000D03*
%TD*%
D17*
%TO.C,J8*%
X172212000Y-115364000D03*
G36*
G01*
X173012000Y-117830667D02*
X173012000Y-118897333D01*
G75*
G02*
X172745333Y-119164000I-266667J0D01*
G01*
X171678667Y-119164000D01*
G75*
G02*
X171412000Y-118897333I0J266667D01*
G01*
X171412000Y-117830667D01*
G75*
G02*
X171678667Y-117564000I266667J0D01*
G01*
X172745333Y-117564000D01*
G75*
G02*
X173012000Y-117830667I0J-266667D01*
G01*
G37*
D18*
X169212000Y-114424000D03*
X175212000Y-114424000D03*
%TD*%
D19*
%TO.C,H2*%
X182972112Y-116459000D03*
X181275056Y-115756056D03*
X179578000Y-116459000D03*
X178875056Y-118156056D03*
X179578000Y-119853112D03*
X181275056Y-120556056D03*
X182972112Y-119853112D03*
X183675056Y-118156056D03*
D20*
X181275056Y-118156056D03*
%TD*%
D19*
%TO.C,H1*%
X132507056Y-79201944D03*
X130810000Y-78499000D03*
X129112944Y-79201944D03*
X128410000Y-80899000D03*
X129112944Y-82596056D03*
X130810000Y-83299000D03*
X132507056Y-82596056D03*
X133210000Y-80899000D03*
D20*
X130810000Y-80899000D03*
%TD*%
D17*
%TO.C,J1*%
X161290000Y-115364000D03*
X164290000Y-115364000D03*
X161290000Y-118364000D03*
G36*
G01*
X165090000Y-117830667D02*
X165090000Y-118897333D01*
G75*
G02*
X164823333Y-119164000I-266667J0D01*
G01*
X163756667Y-119164000D01*
G75*
G02*
X163490000Y-118897333I0J266667D01*
G01*
X163490000Y-117830667D01*
G75*
G02*
X163756667Y-117564000I266667J0D01*
G01*
X164823333Y-117564000D01*
G75*
G02*
X165090000Y-117830667I0J-266667D01*
G01*
G37*
D18*
X158290000Y-114424000D03*
X167290000Y-114424000D03*
%TD*%
M02*
