M48
; DRILL file {KiCad (5.1.6-0-10_14)} date Monday, May 10, 2021 at 07:53:18 PM
; FORMAT={3:3/ absolute / metric / suppress leading zeros}
; #@! TF.CreationDate,2021-05-10T19:53:18+02:00
; #@! TF.GenerationSoftware,Kicad,Pcbnew,(5.1.6-0-10_14)
FMAT,2
METRIC,TZ
T1C0.400
T2C0.500
T3C0.950
T4C1.000
T5C1.020
T6C3.200
T7C1.000
T8C1.200
T9C1.270
%
G90
G05
T1
X128524Y-114046
X133315Y-108677
X139700Y-106680
X143759Y-96515
X145923Y-101600
X146558Y-109347
X147066Y-107188
X147320Y-91440
X149225Y-97155
X149733Y-107442
X149824Y-99659
X149987Y-102108
X150876Y-109220
X151130Y-93038
X152400Y-101600
X152654Y-107442
X153543Y-108113
X154178Y-90932
X154178Y-104177
X154213Y-105699
X154940Y-94504
X154940Y-95504
X155102Y-88935
X155145Y-104853
X155702Y-110236
X155956Y-99568
X156142Y-106104
X156210Y-89170
X156210Y-90170
X156464Y-97028
X156464Y-112522
X157226Y-94869
X157988Y-95758
X158242Y-109220
X158750Y-97536
X159822Y-95758
X161036Y-111252
X161798Y-101219
X162052Y-105500
X162306Y-92710
X162560Y-102870
X163063Y-96007
X163195Y-99695
X163576Y-94996
X163703Y-88445
X164533Y-101922
X164846Y-87249
X166497Y-88138
X166624Y-96520
X168656Y-97155
X170180Y-101600
X171196Y-89027
X172720Y-94107
X172720Y-109855
X172974Y-87376
X176657Y-110490
X177546Y-102108
X177927Y-98425
X180848Y-106045
X181102Y-111252
T2
X178875Y-118156
X179578Y-116459
X179578Y-119853
X181275Y-115756
X181275Y-120556
X182972Y-116459
X182972Y-119853
X183675Y-118156
X128410Y-80899
X129113Y-79202
X129113Y-82596
X130810Y-78499
X130810Y-83299
X132507Y-79202
X132507Y-82596
X133210Y-80899
T3
X141344Y-80264
X143844Y-80264
X146344Y-80264
X148844Y-80264
T4
X155488Y-80264
X157988Y-80264
X172212Y-115364
X172212Y-118364
X141732Y-111760
X141732Y-114300
X144272Y-111760
X144272Y-114300
X146812Y-111760
X146812Y-114300
X149352Y-111760
X149352Y-114300
X151892Y-111760
X151892Y-114300
X154432Y-111760
X154432Y-114300
X134112Y-111760
X134112Y-114300
X136652Y-111760
X136652Y-114300
X139192Y-111760
X139192Y-114300
X161290Y-115364
X161290Y-118364
X164290Y-115364
X164290Y-118364
X131572Y-111760
X131572Y-114300
T5
X167640Y-81280
X170640Y-81280
X173640Y-81280
X176640Y-81280
X179640Y-81280
T6
X181275Y-118156
X130810Y-80899
T7
X169212Y-114424
X175212Y-114424
X158290Y-114424
X167290Y-114424
T8
X153888Y-82264
X139744Y-82264
T9
X164640Y-79320
X182640Y-79320
T0
M30
