%TF.GenerationSoftware,KiCad,Pcbnew,(5.1.6-0-10_14)*%
%TF.CreationDate,2021-05-10T19:53:14+02:00*%
%TF.ProjectId,CAN_Display,43414e5f-4469-4737-906c-61792e6b6963,rev?*%
%TF.SameCoordinates,Original*%
%TF.FileFunction,Legend,Top*%
%TF.FilePolarity,Positive*%
%FSLAX46Y46*%
G04 Gerber Fmt 4.6, Leading zero omitted, Abs format (unit mm)*
G04 Created by KiCad (PCBNEW (5.1.6-0-10_14)) date 2021-05-10 19:53:14*
%MOMM*%
%LPD*%
G01*
G04 APERTURE LIST*
%ADD10C,0.120000*%
%ADD11C,0.150000*%
G04 APERTURE END LIST*
D10*
%TO.C,J5*%
X132782000Y-115630000D02*
X132782000Y-114300000D01*
X134112000Y-115630000D02*
X132782000Y-115630000D01*
X132782000Y-113030000D02*
X132782000Y-110430000D01*
X135382000Y-113030000D02*
X132782000Y-113030000D01*
X135382000Y-115630000D02*
X135382000Y-113030000D01*
X132782000Y-110430000D02*
X140522000Y-110430000D01*
X135382000Y-115630000D02*
X140522000Y-115630000D01*
X140522000Y-115630000D02*
X140522000Y-110430000D01*
%TO.C,J2*%
X152638000Y-77514000D02*
X152638000Y-78764000D01*
X153888000Y-77514000D02*
X152638000Y-77514000D01*
X159788000Y-83014000D02*
X156738000Y-83014000D01*
X159788000Y-80064000D02*
X159788000Y-83014000D01*
X160538000Y-80064000D02*
X159788000Y-80064000D01*
X156738000Y-83014000D02*
X154748000Y-83014000D01*
X153688000Y-80064000D02*
X153688000Y-81404000D01*
X152938000Y-80064000D02*
X153688000Y-80064000D01*
X160538000Y-77814000D02*
X158738000Y-77814000D01*
X160538000Y-78564000D02*
X160538000Y-77814000D01*
X158738000Y-78564000D02*
X160538000Y-78564000D01*
X158738000Y-77814000D02*
X158738000Y-78564000D01*
X154738000Y-77814000D02*
X152938000Y-77814000D01*
X154738000Y-78564000D02*
X154738000Y-77814000D01*
X152938000Y-78564000D02*
X154738000Y-78564000D01*
X152938000Y-77814000D02*
X152938000Y-78564000D01*
X157238000Y-77814000D02*
X156238000Y-77814000D01*
X157238000Y-78564000D02*
X157238000Y-77814000D01*
X156238000Y-78564000D02*
X157238000Y-78564000D01*
X156238000Y-77814000D02*
X156238000Y-78564000D01*
X160548000Y-77804000D02*
X152928000Y-77804000D01*
X160548000Y-83774000D02*
X160548000Y-77804000D01*
X152928000Y-83774000D02*
X160548000Y-83774000D01*
X152928000Y-77804000D02*
X152928000Y-83774000D01*
%TO.C,J4*%
X138494000Y-77514000D02*
X138494000Y-78764000D01*
X139744000Y-77514000D02*
X138494000Y-77514000D01*
X150644000Y-83014000D02*
X145094000Y-83014000D01*
X150644000Y-80064000D02*
X150644000Y-83014000D01*
X151394000Y-80064000D02*
X150644000Y-80064000D01*
X145094000Y-83014000D02*
X140604000Y-83014000D01*
X139544000Y-80064000D02*
X139544000Y-81404000D01*
X138794000Y-80064000D02*
X139544000Y-80064000D01*
X151394000Y-77814000D02*
X149594000Y-77814000D01*
X151394000Y-78564000D02*
X151394000Y-77814000D01*
X149594000Y-78564000D02*
X151394000Y-78564000D01*
X149594000Y-77814000D02*
X149594000Y-78564000D01*
X140594000Y-77814000D02*
X138794000Y-77814000D01*
X140594000Y-78564000D02*
X140594000Y-77814000D01*
X138794000Y-78564000D02*
X140594000Y-78564000D01*
X138794000Y-77814000D02*
X138794000Y-78564000D01*
X148094000Y-77814000D02*
X142094000Y-77814000D01*
X148094000Y-78564000D02*
X148094000Y-77814000D01*
X142094000Y-78564000D02*
X148094000Y-78564000D01*
X142094000Y-77814000D02*
X142094000Y-78564000D01*
X151404000Y-77804000D02*
X138784000Y-77804000D01*
X151404000Y-83774000D02*
X151404000Y-77804000D01*
X138784000Y-83774000D02*
X151404000Y-83774000D01*
X138784000Y-77804000D02*
X138784000Y-83774000D01*
%TO.C,J3*%
X130242000Y-115630000D02*
X130242000Y-114300000D01*
X131572000Y-115630000D02*
X130242000Y-115630000D01*
X130242000Y-113030000D02*
X130242000Y-110430000D01*
X132842000Y-113030000D02*
X130242000Y-113030000D01*
X132842000Y-115630000D02*
X132842000Y-113030000D01*
X130242000Y-110430000D02*
X132902000Y-110430000D01*
X132842000Y-115630000D02*
X132902000Y-115630000D01*
X132902000Y-115630000D02*
X132902000Y-110430000D01*
%TO.C,J6*%
X181655000Y-78700000D02*
X181635000Y-78700000D01*
X181655000Y-79200000D02*
X181655000Y-78700000D01*
X165625000Y-79200000D02*
X181655000Y-79200000D01*
X165625000Y-78700000D02*
X165625000Y-79200000D01*
X165645000Y-78700000D02*
X165625000Y-78700000D01*
X183075000Y-83290000D02*
X183075000Y-80215000D01*
X164205000Y-83290000D02*
X183075000Y-83290000D01*
X164205000Y-80215000D02*
X164205000Y-83290000D01*
%TO.C,J7*%
X140402000Y-115630000D02*
X140402000Y-114300000D01*
X141732000Y-115630000D02*
X140402000Y-115630000D01*
X140402000Y-113030000D02*
X140402000Y-110430000D01*
X143002000Y-113030000D02*
X140402000Y-113030000D01*
X143002000Y-115630000D02*
X143002000Y-113030000D01*
X140402000Y-110430000D02*
X155762000Y-110430000D01*
X143002000Y-115630000D02*
X155762000Y-115630000D01*
X155762000Y-115630000D02*
X155762000Y-110430000D01*
%TO.C,U1*%
X174929000Y-106351000D02*
X176744000Y-106351000D01*
X174929000Y-106596000D02*
X174929000Y-106351000D01*
X171069000Y-106596000D02*
X174929000Y-106596000D01*
X167209000Y-106596000D02*
X167209000Y-106351000D01*
X171069000Y-106596000D02*
X167209000Y-106596000D01*
X174929000Y-94826000D02*
X174929000Y-95071000D01*
X171069000Y-94826000D02*
X174929000Y-94826000D01*
X167209000Y-94826000D02*
X167209000Y-95071000D01*
X171069000Y-94826000D02*
X167209000Y-94826000D01*
%TO.C,D2*%
X172342000Y-111370000D02*
X172342000Y-107070000D01*
X172342000Y-107070000D02*
X166642000Y-107070000D01*
X172342000Y-111370000D02*
X166642000Y-111370000D01*
%TO.C,D8*%
X134748000Y-86426000D02*
X138048000Y-86426000D01*
X138048000Y-86426000D02*
X138048000Y-81026000D01*
X134748000Y-86426000D02*
X134748000Y-81026000D01*
%TO.C,J8*%
X175647000Y-113664000D02*
X175647000Y-113354000D01*
X175647000Y-113354000D02*
X168777000Y-113354000D01*
X168777000Y-113354000D02*
X168777000Y-113664000D01*
X175647000Y-115184000D02*
X175647000Y-120944000D01*
X175647000Y-120944000D02*
X174227000Y-120944000D01*
X174227000Y-120944000D02*
X174227000Y-120444000D01*
X174227000Y-120444000D02*
X170197000Y-120444000D01*
X170197000Y-120444000D02*
X170197000Y-120944000D01*
X170197000Y-120944000D02*
X168777000Y-120944000D01*
X168777000Y-120944000D02*
X168777000Y-115184000D01*
%TO.C,D7*%
X157378000Y-107100000D02*
X160528000Y-107100000D01*
X157378000Y-108800000D02*
X160528000Y-108800000D01*
X157378000Y-107100000D02*
X157378000Y-108800000D01*
%TO.C,D6*%
X157378000Y-105068000D02*
X160528000Y-105068000D01*
X157378000Y-106768000D02*
X160528000Y-106768000D01*
X157378000Y-105068000D02*
X157378000Y-106768000D01*
%TO.C,D5*%
X158130000Y-86702000D02*
X154980000Y-86702000D01*
X158130000Y-85002000D02*
X154980000Y-85002000D01*
X158130000Y-86702000D02*
X158130000Y-85002000D01*
%TO.C,D3*%
X162662000Y-86702000D02*
X159512000Y-86702000D01*
X162662000Y-85002000D02*
X159512000Y-85002000D01*
X162662000Y-86702000D02*
X162662000Y-85002000D01*
%TO.C,D1*%
X175602000Y-86766000D02*
X175602000Y-89916000D01*
X173902000Y-86766000D02*
X173902000Y-89916000D01*
X175602000Y-86766000D02*
X173902000Y-86766000D01*
%TO.C,D10*%
X135929000Y-98781000D02*
X135929000Y-95631000D01*
X137629000Y-98781000D02*
X137629000Y-95631000D01*
X135929000Y-98781000D02*
X137629000Y-98781000D01*
%TO.C,Y2*%
X179041000Y-95130000D02*
X178801000Y-95130000D01*
X179041000Y-96530000D02*
X179041000Y-95130000D01*
X182641000Y-95130000D02*
X182641000Y-96530000D01*
X181241000Y-98530000D02*
X180441000Y-98530000D01*
X180441000Y-93130000D02*
X181241000Y-93130000D01*
X180441000Y-92830000D02*
X180441000Y-93130000D01*
%TO.C,Y1*%
X145386000Y-100718000D02*
X145146000Y-100718000D01*
X145386000Y-102118000D02*
X145386000Y-100718000D01*
X148986000Y-100718000D02*
X148986000Y-102118000D01*
X147586000Y-104118000D02*
X146786000Y-104118000D01*
X146786000Y-98718000D02*
X147586000Y-98718000D01*
X146786000Y-98418000D02*
X146786000Y-98718000D01*
%TO.C,JP1*%
X155656000Y-117218000D02*
X156256000Y-117218000D01*
X154956000Y-119318000D02*
X154956000Y-117918000D01*
X156256000Y-120018000D02*
X155656000Y-120018000D01*
X156956000Y-117918000D02*
X156956000Y-119318000D01*
X156256000Y-117218000D02*
G75*
G02*
X156956000Y-117918000I0J-700000D01*
G01*
X154956000Y-117918000D02*
G75*
G02*
X155656000Y-117218000I700000J0D01*
G01*
X155656000Y-120018000D02*
G75*
G02*
X154956000Y-119318000I0J700000D01*
G01*
X156956000Y-119318000D02*
G75*
G02*
X156256000Y-120018000I-700000J0D01*
G01*
%TO.C,R7*%
X149658000Y-87138252D02*
X149658000Y-86615748D01*
X151078000Y-87138252D02*
X151078000Y-86615748D01*
%TO.C,R6*%
X141984252Y-86562000D02*
X141461748Y-86562000D01*
X141984252Y-85142000D02*
X141461748Y-85142000D01*
%TO.C,D4*%
X144542000Y-85146000D02*
X144542000Y-89446000D01*
X144542000Y-89446000D02*
X146542000Y-89446000D01*
X146542000Y-89446000D02*
X146542000Y-85146000D01*
%TO.C,C11*%
X169497000Y-94335000D02*
X169497000Y-93135000D01*
X169497000Y-89815000D02*
X169497000Y-91015000D01*
X166041437Y-89815000D02*
X169497000Y-89815000D01*
X166041437Y-94335000D02*
X169497000Y-94335000D01*
X164977000Y-93270563D02*
X164977000Y-93135000D01*
X164977000Y-90879437D02*
X164977000Y-91015000D01*
X164977000Y-90879437D02*
X166041437Y-89815000D01*
X164977000Y-93270563D02*
X166041437Y-94335000D01*
X164237000Y-90515000D02*
X164737000Y-90515000D01*
X164487000Y-90265000D02*
X164487000Y-90765000D01*
%TO.C,C10*%
X151944000Y-87120252D02*
X151944000Y-86597748D01*
X153364000Y-87120252D02*
X153364000Y-86597748D01*
%TO.C,U4*%
X135021000Y-98490000D02*
X135021000Y-95040000D01*
X135021000Y-98490000D02*
X135021000Y-100440000D01*
X129901000Y-98490000D02*
X129901000Y-96540000D01*
X129901000Y-98490000D02*
X129901000Y-100440000D01*
%TO.C,L1*%
X144324000Y-99092000D02*
X143874000Y-99092000D01*
X138124000Y-99092000D02*
X138574000Y-99092000D01*
X138124000Y-105292000D02*
X138574000Y-105292000D01*
X138124000Y-105292000D02*
X138124000Y-99092000D01*
X144324000Y-105292000D02*
X143874000Y-105292000D01*
X144324000Y-99092000D02*
X144324000Y-105292000D01*
%TO.C,D9*%
X142866000Y-90058000D02*
X142866000Y-95758000D01*
X138566000Y-90058000D02*
X138566000Y-95758000D01*
X142866000Y-90058000D02*
X138566000Y-90058000D01*
%TO.C,C14*%
X136725750Y-108286250D02*
X136725750Y-107498750D01*
X137119500Y-107892500D02*
X136332000Y-107892500D01*
X136092000Y-103699437D02*
X135027563Y-102635000D01*
X136092000Y-108390563D02*
X135027563Y-109455000D01*
X136092000Y-108390563D02*
X136092000Y-107105000D01*
X136092000Y-103699437D02*
X136092000Y-104985000D01*
X135027563Y-102635000D02*
X129272000Y-102635000D01*
X135027563Y-109455000D02*
X129272000Y-109455000D01*
X129272000Y-109455000D02*
X129272000Y-107105000D01*
X129272000Y-102635000D02*
X129272000Y-104985000D01*
%TO.C,C13*%
X136217750Y-93046250D02*
X136217750Y-92258750D01*
X136611500Y-92652500D02*
X135824000Y-92652500D01*
X135584000Y-88459437D02*
X134519563Y-87395000D01*
X135584000Y-93150563D02*
X134519563Y-94215000D01*
X135584000Y-93150563D02*
X135584000Y-91865000D01*
X135584000Y-88459437D02*
X135584000Y-89745000D01*
X134519563Y-87395000D02*
X128764000Y-87395000D01*
X134519563Y-94215000D02*
X128764000Y-94215000D01*
X128764000Y-94215000D02*
X128764000Y-91865000D01*
X128764000Y-87395000D02*
X128764000Y-89745000D01*
%TO.C,C4*%
X176455000Y-88121748D02*
X176455000Y-88644252D01*
X177875000Y-88121748D02*
X177875000Y-88644252D01*
%TO.C,R5*%
X143435000Y-93963748D02*
X143435000Y-94486252D01*
X144855000Y-93963748D02*
X144855000Y-94486252D01*
%TO.C,R4*%
X147880000Y-93963748D02*
X147880000Y-94486252D01*
X149300000Y-93963748D02*
X149300000Y-94486252D01*
%TO.C,C9*%
X147014000Y-94486252D02*
X147014000Y-93963748D01*
X145594000Y-94486252D02*
X145594000Y-93963748D01*
%TO.C,U2*%
X177907000Y-107123000D02*
X177907000Y-109073000D01*
X177907000Y-107123000D02*
X177907000Y-105173000D01*
X183027000Y-107123000D02*
X183027000Y-109073000D01*
X183027000Y-107123000D02*
X183027000Y-103673000D01*
%TO.C,R3*%
X163320252Y-110819000D02*
X162797748Y-110819000D01*
X163320252Y-109399000D02*
X162797748Y-109399000D01*
%TO.C,J1*%
X157855000Y-120944000D02*
X157855000Y-115184000D01*
X159275000Y-120944000D02*
X157855000Y-120944000D01*
X159275000Y-120444000D02*
X159275000Y-120944000D01*
X166305000Y-120444000D02*
X159275000Y-120444000D01*
X166305000Y-120944000D02*
X166305000Y-120444000D01*
X167725000Y-120944000D02*
X166305000Y-120944000D01*
X167725000Y-115184000D02*
X167725000Y-120944000D01*
X157855000Y-113354000D02*
X157855000Y-113664000D01*
X167725000Y-113354000D02*
X157855000Y-113354000D01*
X167725000Y-113664000D02*
X167725000Y-113354000D01*
%TO.C,R8*%
X150928000Y-104268748D02*
X150928000Y-104791252D01*
X152348000Y-104268748D02*
X152348000Y-104791252D01*
D11*
%TO.C,U3*%
X153347000Y-93628000D02*
X151922000Y-93628000D01*
X160597000Y-93403000D02*
X160272000Y-93403000D01*
X160597000Y-100653000D02*
X160272000Y-100653000D01*
X153347000Y-100653000D02*
X153672000Y-100653000D01*
X153347000Y-93403000D02*
X153672000Y-93403000D01*
X153347000Y-100653000D02*
X153347000Y-100328000D01*
X160597000Y-100653000D02*
X160597000Y-100328000D01*
X160597000Y-93403000D02*
X160597000Y-93728000D01*
X153347000Y-93403000D02*
X153347000Y-93628000D01*
D10*
%TO.C,C5*%
X175624748Y-107621000D02*
X176147252Y-107621000D01*
X175624748Y-109041000D02*
X176147252Y-109041000D01*
%TO.C,C1*%
X163374000Y-107458252D02*
X163374000Y-106935748D01*
X164794000Y-107458252D02*
X164794000Y-106935748D01*
%TO.C,C6*%
X149785000Y-97661252D02*
X149785000Y-97138748D01*
X151205000Y-97661252D02*
X151205000Y-97138748D01*
%TO.C,C12*%
X182955000Y-88139748D02*
X182955000Y-88662252D01*
X181535000Y-88139748D02*
X181535000Y-88662252D01*
%TO.C,R2*%
X179848252Y-102818000D02*
X179325748Y-102818000D01*
X179848252Y-101398000D02*
X179325748Y-101398000D01*
%TO.C,R1*%
X180415000Y-88139748D02*
X180415000Y-88662252D01*
X178995000Y-88139748D02*
X178995000Y-88662252D01*
%TO.C,JP2*%
X182707000Y-100058000D02*
X183307000Y-100058000D01*
X182007000Y-102158000D02*
X182007000Y-100758000D01*
X183307000Y-102858000D02*
X182707000Y-102858000D01*
X184007000Y-100758000D02*
X184007000Y-102158000D01*
X183307000Y-100058000D02*
G75*
G02*
X184007000Y-100758000I0J-700000D01*
G01*
X182007000Y-100758000D02*
G75*
G02*
X182707000Y-100058000I700000J0D01*
G01*
X182707000Y-102858000D02*
G75*
G02*
X182007000Y-102158000I0J700000D01*
G01*
X184007000Y-102158000D02*
G75*
G02*
X183307000Y-102858000I-700000J0D01*
G01*
%TO.C,C8*%
X179848252Y-100786000D02*
X179325748Y-100786000D01*
X179848252Y-99366000D02*
X179325748Y-99366000D01*
%TO.C,C7*%
X177036252Y-94055000D02*
X176513748Y-94055000D01*
X177036252Y-92635000D02*
X176513748Y-92635000D01*
%TO.C,C3*%
X146813748Y-104972000D02*
X147336252Y-104972000D01*
X146813748Y-106392000D02*
X147336252Y-106392000D01*
%TO.C,C2*%
X147336252Y-97865000D02*
X146813748Y-97865000D01*
X147336252Y-96445000D02*
X146813748Y-96445000D01*
%TO.C,J5*%
D11*
X131234380Y-113363333D02*
X131948666Y-113363333D01*
X132091523Y-113410952D01*
X132186761Y-113506190D01*
X132234380Y-113649047D01*
X132234380Y-113744285D01*
X131234380Y-112410952D02*
X131234380Y-112887142D01*
X131710571Y-112934761D01*
X131662952Y-112887142D01*
X131615333Y-112791904D01*
X131615333Y-112553809D01*
X131662952Y-112458571D01*
X131710571Y-112410952D01*
X131805809Y-112363333D01*
X132043904Y-112363333D01*
X132139142Y-112410952D01*
X132186761Y-112458571D01*
X132234380Y-112553809D01*
X132234380Y-112791904D01*
X132186761Y-112887142D01*
X132139142Y-112934761D01*
%TO.C,J2*%
X161464666Y-83780380D02*
X161464666Y-84494666D01*
X161417047Y-84637523D01*
X161321809Y-84732761D01*
X161178952Y-84780380D01*
X161083714Y-84780380D01*
X161893238Y-83875619D02*
X161940857Y-83828000D01*
X162036095Y-83780380D01*
X162274190Y-83780380D01*
X162369428Y-83828000D01*
X162417047Y-83875619D01*
X162464666Y-83970857D01*
X162464666Y-84066095D01*
X162417047Y-84208952D01*
X161845619Y-84780380D01*
X162464666Y-84780380D01*
%TO.C,J4*%
X147748666Y-84288380D02*
X147748666Y-85002666D01*
X147701047Y-85145523D01*
X147605809Y-85240761D01*
X147462952Y-85288380D01*
X147367714Y-85288380D01*
X148653428Y-84621714D02*
X148653428Y-85288380D01*
X148415333Y-84240761D02*
X148177238Y-84955047D01*
X148796285Y-84955047D01*
%TO.C,J3*%
X128694380Y-113363333D02*
X129408666Y-113363333D01*
X129551523Y-113410952D01*
X129646761Y-113506190D01*
X129694380Y-113649047D01*
X129694380Y-113744285D01*
X128694380Y-112982380D02*
X128694380Y-112363333D01*
X129075333Y-112696666D01*
X129075333Y-112553809D01*
X129122952Y-112458571D01*
X129170571Y-112410952D01*
X129265809Y-112363333D01*
X129503904Y-112363333D01*
X129599142Y-112410952D01*
X129646761Y-112458571D01*
X129694380Y-112553809D01*
X129694380Y-112839523D01*
X129646761Y-112934761D01*
X129599142Y-112982380D01*
%TO.C,J6*%
X170100666Y-85304380D02*
X170100666Y-86018666D01*
X170053047Y-86161523D01*
X169957809Y-86256761D01*
X169814952Y-86304380D01*
X169719714Y-86304380D01*
X171005428Y-85304380D02*
X170814952Y-85304380D01*
X170719714Y-85352000D01*
X170672095Y-85399619D01*
X170576857Y-85542476D01*
X170529238Y-85732952D01*
X170529238Y-86113904D01*
X170576857Y-86209142D01*
X170624476Y-86256761D01*
X170719714Y-86304380D01*
X170910190Y-86304380D01*
X171005428Y-86256761D01*
X171053047Y-86209142D01*
X171100666Y-86113904D01*
X171100666Y-85875809D01*
X171053047Y-85780571D01*
X171005428Y-85732952D01*
X170910190Y-85685333D01*
X170719714Y-85685333D01*
X170624476Y-85732952D01*
X170576857Y-85780571D01*
X170529238Y-85875809D01*
%TO.C,J7*%
X138854380Y-113363333D02*
X139568666Y-113363333D01*
X139711523Y-113410952D01*
X139806761Y-113506190D01*
X139854380Y-113649047D01*
X139854380Y-113744285D01*
X138854380Y-112982380D02*
X138854380Y-112315714D01*
X139854380Y-112744285D01*
%TO.C,U1*%
X170180095Y-93432380D02*
X170180095Y-94241904D01*
X170227714Y-94337142D01*
X170275333Y-94384761D01*
X170370571Y-94432380D01*
X170561047Y-94432380D01*
X170656285Y-94384761D01*
X170703904Y-94337142D01*
X170751523Y-94241904D01*
X170751523Y-93432380D01*
X171751523Y-94432380D02*
X171180095Y-94432380D01*
X171465809Y-94432380D02*
X171465809Y-93432380D01*
X171370571Y-93575238D01*
X171275333Y-93670476D01*
X171180095Y-93718095D01*
%TO.C,D2*%
X172997904Y-111450380D02*
X172997904Y-110450380D01*
X173236000Y-110450380D01*
X173378857Y-110498000D01*
X173474095Y-110593238D01*
X173521714Y-110688476D01*
X173569333Y-110878952D01*
X173569333Y-111021809D01*
X173521714Y-111212285D01*
X173474095Y-111307523D01*
X173378857Y-111402761D01*
X173236000Y-111450380D01*
X172997904Y-111450380D01*
X173950285Y-110545619D02*
X173997904Y-110498000D01*
X174093142Y-110450380D01*
X174331238Y-110450380D01*
X174426476Y-110498000D01*
X174474095Y-110545619D01*
X174521714Y-110640857D01*
X174521714Y-110736095D01*
X174474095Y-110878952D01*
X173902666Y-111450380D01*
X174521714Y-111450380D01*
%TO.C,D8*%
X134350380Y-83764095D02*
X133350380Y-83764095D01*
X133350380Y-83526000D01*
X133398000Y-83383142D01*
X133493238Y-83287904D01*
X133588476Y-83240285D01*
X133778952Y-83192666D01*
X133921809Y-83192666D01*
X134112285Y-83240285D01*
X134207523Y-83287904D01*
X134302761Y-83383142D01*
X134350380Y-83526000D01*
X134350380Y-83764095D01*
X133778952Y-82621238D02*
X133731333Y-82716476D01*
X133683714Y-82764095D01*
X133588476Y-82811714D01*
X133540857Y-82811714D01*
X133445619Y-82764095D01*
X133398000Y-82716476D01*
X133350380Y-82621238D01*
X133350380Y-82430761D01*
X133398000Y-82335523D01*
X133445619Y-82287904D01*
X133540857Y-82240285D01*
X133588476Y-82240285D01*
X133683714Y-82287904D01*
X133731333Y-82335523D01*
X133778952Y-82430761D01*
X133778952Y-82621238D01*
X133826571Y-82716476D01*
X133874190Y-82764095D01*
X133969428Y-82811714D01*
X134159904Y-82811714D01*
X134255142Y-82764095D01*
X134302761Y-82716476D01*
X134350380Y-82621238D01*
X134350380Y-82430761D01*
X134302761Y-82335523D01*
X134255142Y-82287904D01*
X134159904Y-82240285D01*
X133969428Y-82240285D01*
X133874190Y-82287904D01*
X133826571Y-82335523D01*
X133778952Y-82430761D01*
%TO.C,J8*%
X171878666Y-120610380D02*
X171878666Y-121324666D01*
X171831047Y-121467523D01*
X171735809Y-121562761D01*
X171592952Y-121610380D01*
X171497714Y-121610380D01*
X172497714Y-121038952D02*
X172402476Y-120991333D01*
X172354857Y-120943714D01*
X172307238Y-120848476D01*
X172307238Y-120800857D01*
X172354857Y-120705619D01*
X172402476Y-120658000D01*
X172497714Y-120610380D01*
X172688190Y-120610380D01*
X172783428Y-120658000D01*
X172831047Y-120705619D01*
X172878666Y-120800857D01*
X172878666Y-120848476D01*
X172831047Y-120943714D01*
X172783428Y-120991333D01*
X172688190Y-121038952D01*
X172497714Y-121038952D01*
X172402476Y-121086571D01*
X172354857Y-121134190D01*
X172307238Y-121229428D01*
X172307238Y-121419904D01*
X172354857Y-121515142D01*
X172402476Y-121562761D01*
X172497714Y-121610380D01*
X172688190Y-121610380D01*
X172783428Y-121562761D01*
X172831047Y-121515142D01*
X172878666Y-121419904D01*
X172878666Y-121229428D01*
X172831047Y-121134190D01*
X172783428Y-121086571D01*
X172688190Y-121038952D01*
%TO.C,D7*%
X155217904Y-108656380D02*
X155217904Y-107656380D01*
X155456000Y-107656380D01*
X155598857Y-107704000D01*
X155694095Y-107799238D01*
X155741714Y-107894476D01*
X155789333Y-108084952D01*
X155789333Y-108227809D01*
X155741714Y-108418285D01*
X155694095Y-108513523D01*
X155598857Y-108608761D01*
X155456000Y-108656380D01*
X155217904Y-108656380D01*
X156122666Y-107656380D02*
X156789333Y-107656380D01*
X156360761Y-108656380D01*
%TO.C,D6*%
X155217904Y-106624380D02*
X155217904Y-105624380D01*
X155456000Y-105624380D01*
X155598857Y-105672000D01*
X155694095Y-105767238D01*
X155741714Y-105862476D01*
X155789333Y-106052952D01*
X155789333Y-106195809D01*
X155741714Y-106386285D01*
X155694095Y-106481523D01*
X155598857Y-106576761D01*
X155456000Y-106624380D01*
X155217904Y-106624380D01*
X156646476Y-105624380D02*
X156456000Y-105624380D01*
X156360761Y-105672000D01*
X156313142Y-105719619D01*
X156217904Y-105862476D01*
X156170285Y-106052952D01*
X156170285Y-106433904D01*
X156217904Y-106529142D01*
X156265523Y-106576761D01*
X156360761Y-106624380D01*
X156551238Y-106624380D01*
X156646476Y-106576761D01*
X156694095Y-106529142D01*
X156741714Y-106433904D01*
X156741714Y-106195809D01*
X156694095Y-106100571D01*
X156646476Y-106052952D01*
X156551238Y-106005333D01*
X156360761Y-106005333D01*
X156265523Y-106052952D01*
X156217904Y-106100571D01*
X156170285Y-106195809D01*
%TO.C,D5*%
X155471904Y-88082380D02*
X155471904Y-87082380D01*
X155710000Y-87082380D01*
X155852857Y-87130000D01*
X155948095Y-87225238D01*
X155995714Y-87320476D01*
X156043333Y-87510952D01*
X156043333Y-87653809D01*
X155995714Y-87844285D01*
X155948095Y-87939523D01*
X155852857Y-88034761D01*
X155710000Y-88082380D01*
X155471904Y-88082380D01*
X156948095Y-87082380D02*
X156471904Y-87082380D01*
X156424285Y-87558571D01*
X156471904Y-87510952D01*
X156567142Y-87463333D01*
X156805238Y-87463333D01*
X156900476Y-87510952D01*
X156948095Y-87558571D01*
X156995714Y-87653809D01*
X156995714Y-87891904D01*
X156948095Y-87987142D01*
X156900476Y-88034761D01*
X156805238Y-88082380D01*
X156567142Y-88082380D01*
X156471904Y-88034761D01*
X156424285Y-87987142D01*
%TO.C,D3*%
X160023904Y-88154380D02*
X160023904Y-87154380D01*
X160262000Y-87154380D01*
X160404857Y-87202000D01*
X160500095Y-87297238D01*
X160547714Y-87392476D01*
X160595333Y-87582952D01*
X160595333Y-87725809D01*
X160547714Y-87916285D01*
X160500095Y-88011523D01*
X160404857Y-88106761D01*
X160262000Y-88154380D01*
X160023904Y-88154380D01*
X160928666Y-87154380D02*
X161547714Y-87154380D01*
X161214380Y-87535333D01*
X161357238Y-87535333D01*
X161452476Y-87582952D01*
X161500095Y-87630571D01*
X161547714Y-87725809D01*
X161547714Y-87963904D01*
X161500095Y-88059142D01*
X161452476Y-88106761D01*
X161357238Y-88154380D01*
X161071523Y-88154380D01*
X160976285Y-88106761D01*
X160928666Y-88059142D01*
%TO.C,D1*%
X175077380Y-92178095D02*
X174077380Y-92178095D01*
X174077380Y-91940000D01*
X174125000Y-91797142D01*
X174220238Y-91701904D01*
X174315476Y-91654285D01*
X174505952Y-91606666D01*
X174648809Y-91606666D01*
X174839285Y-91654285D01*
X174934523Y-91701904D01*
X175029761Y-91797142D01*
X175077380Y-91940000D01*
X175077380Y-92178095D01*
X175077380Y-90654285D02*
X175077380Y-91225714D01*
X175077380Y-90940000D02*
X174077380Y-90940000D01*
X174220238Y-91035238D01*
X174315476Y-91130476D01*
X174363095Y-91225714D01*
%TO.C,D10*%
X137104380Y-101290285D02*
X136104380Y-101290285D01*
X136104380Y-101052190D01*
X136152000Y-100909333D01*
X136247238Y-100814095D01*
X136342476Y-100766476D01*
X136532952Y-100718857D01*
X136675809Y-100718857D01*
X136866285Y-100766476D01*
X136961523Y-100814095D01*
X137056761Y-100909333D01*
X137104380Y-101052190D01*
X137104380Y-101290285D01*
X137104380Y-99766476D02*
X137104380Y-100337904D01*
X137104380Y-100052190D02*
X136104380Y-100052190D01*
X136247238Y-100147428D01*
X136342476Y-100242666D01*
X136390095Y-100337904D01*
X136104380Y-99147428D02*
X136104380Y-99052190D01*
X136152000Y-98956952D01*
X136199619Y-98909333D01*
X136294857Y-98861714D01*
X136485333Y-98814095D01*
X136723428Y-98814095D01*
X136913904Y-98861714D01*
X137009142Y-98909333D01*
X137056761Y-98956952D01*
X137104380Y-99052190D01*
X137104380Y-99147428D01*
X137056761Y-99242666D01*
X137009142Y-99290285D01*
X136913904Y-99337904D01*
X136723428Y-99385523D01*
X136485333Y-99385523D01*
X136294857Y-99337904D01*
X136199619Y-99290285D01*
X136152000Y-99242666D01*
X136104380Y-99147428D01*
%TO.C,Y2*%
X183617190Y-96306190D02*
X184093380Y-96306190D01*
X183093380Y-96639523D02*
X183617190Y-96306190D01*
X183093380Y-95972857D01*
X183188619Y-95687142D02*
X183141000Y-95639523D01*
X183093380Y-95544285D01*
X183093380Y-95306190D01*
X183141000Y-95210952D01*
X183188619Y-95163333D01*
X183283857Y-95115714D01*
X183379095Y-95115714D01*
X183521952Y-95163333D01*
X184093380Y-95734761D01*
X184093380Y-95115714D01*
%TO.C,Y1*%
X149962190Y-101894190D02*
X150438380Y-101894190D01*
X149438380Y-102227523D02*
X149962190Y-101894190D01*
X149438380Y-101560857D01*
X150438380Y-100703714D02*
X150438380Y-101275142D01*
X150438380Y-100989428D02*
X149438380Y-100989428D01*
X149581238Y-101084666D01*
X149676476Y-101179904D01*
X149724095Y-101275142D01*
%TO.C,JP1*%
X156170380Y-116911333D02*
X156884666Y-116911333D01*
X157027523Y-116958952D01*
X157122761Y-117054190D01*
X157170380Y-117197047D01*
X157170380Y-117292285D01*
X157170380Y-116435142D02*
X156170380Y-116435142D01*
X156170380Y-116054190D01*
X156218000Y-115958952D01*
X156265619Y-115911333D01*
X156360857Y-115863714D01*
X156503714Y-115863714D01*
X156598952Y-115911333D01*
X156646571Y-115958952D01*
X156694190Y-116054190D01*
X156694190Y-116435142D01*
X157170380Y-114911333D02*
X157170380Y-115482761D01*
X157170380Y-115197047D02*
X156170380Y-115197047D01*
X156313238Y-115292285D01*
X156408476Y-115387523D01*
X156456095Y-115482761D01*
%TO.C,R7*%
X150820380Y-90100666D02*
X150344190Y-90434000D01*
X150820380Y-90672095D02*
X149820380Y-90672095D01*
X149820380Y-90291142D01*
X149868000Y-90195904D01*
X149915619Y-90148285D01*
X150010857Y-90100666D01*
X150153714Y-90100666D01*
X150248952Y-90148285D01*
X150296571Y-90195904D01*
X150344190Y-90291142D01*
X150344190Y-90672095D01*
X149820380Y-89767333D02*
X149820380Y-89100666D01*
X150820380Y-89529238D01*
%TO.C,R6*%
X142327333Y-88336380D02*
X141994000Y-87860190D01*
X141755904Y-88336380D02*
X141755904Y-87336380D01*
X142136857Y-87336380D01*
X142232095Y-87384000D01*
X142279714Y-87431619D01*
X142327333Y-87526857D01*
X142327333Y-87669714D01*
X142279714Y-87764952D01*
X142232095Y-87812571D01*
X142136857Y-87860190D01*
X141755904Y-87860190D01*
X143184476Y-87336380D02*
X142994000Y-87336380D01*
X142898761Y-87384000D01*
X142851142Y-87431619D01*
X142755904Y-87574476D01*
X142708285Y-87764952D01*
X142708285Y-88145904D01*
X142755904Y-88241142D01*
X142803523Y-88288761D01*
X142898761Y-88336380D01*
X143089238Y-88336380D01*
X143184476Y-88288761D01*
X143232095Y-88241142D01*
X143279714Y-88145904D01*
X143279714Y-87907809D01*
X143232095Y-87812571D01*
X143184476Y-87764952D01*
X143089238Y-87717333D01*
X142898761Y-87717333D01*
X142803523Y-87764952D01*
X142755904Y-87812571D01*
X142708285Y-87907809D01*
%TO.C,D4*%
X147899380Y-87634095D02*
X146899380Y-87634095D01*
X146899380Y-87396000D01*
X146947000Y-87253142D01*
X147042238Y-87157904D01*
X147137476Y-87110285D01*
X147327952Y-87062666D01*
X147470809Y-87062666D01*
X147661285Y-87110285D01*
X147756523Y-87157904D01*
X147851761Y-87253142D01*
X147899380Y-87396000D01*
X147899380Y-87634095D01*
X147232714Y-86205523D02*
X147899380Y-86205523D01*
X146851761Y-86443619D02*
X147566047Y-86681714D01*
X147566047Y-86062666D01*
%TO.C,C11*%
X166594142Y-89232142D02*
X166546523Y-89279761D01*
X166403666Y-89327380D01*
X166308428Y-89327380D01*
X166165571Y-89279761D01*
X166070333Y-89184523D01*
X166022714Y-89089285D01*
X165975095Y-88898809D01*
X165975095Y-88755952D01*
X166022714Y-88565476D01*
X166070333Y-88470238D01*
X166165571Y-88375000D01*
X166308428Y-88327380D01*
X166403666Y-88327380D01*
X166546523Y-88375000D01*
X166594142Y-88422619D01*
X167546523Y-89327380D02*
X166975095Y-89327380D01*
X167260809Y-89327380D02*
X167260809Y-88327380D01*
X167165571Y-88470238D01*
X167070333Y-88565476D01*
X166975095Y-88613095D01*
X168498904Y-89327380D02*
X167927476Y-89327380D01*
X168213190Y-89327380D02*
X168213190Y-88327380D01*
X168117952Y-88470238D01*
X168022714Y-88565476D01*
X167927476Y-88613095D01*
%TO.C,C10*%
X152503142Y-90794857D02*
X152550761Y-90842476D01*
X152598380Y-90985333D01*
X152598380Y-91080571D01*
X152550761Y-91223428D01*
X152455523Y-91318666D01*
X152360285Y-91366285D01*
X152169809Y-91413904D01*
X152026952Y-91413904D01*
X151836476Y-91366285D01*
X151741238Y-91318666D01*
X151646000Y-91223428D01*
X151598380Y-91080571D01*
X151598380Y-90985333D01*
X151646000Y-90842476D01*
X151693619Y-90794857D01*
X152598380Y-89842476D02*
X152598380Y-90413904D01*
X152598380Y-90128190D02*
X151598380Y-90128190D01*
X151741238Y-90223428D01*
X151836476Y-90318666D01*
X151884095Y-90413904D01*
X151598380Y-89223428D02*
X151598380Y-89128190D01*
X151646000Y-89032952D01*
X151693619Y-88985333D01*
X151788857Y-88937714D01*
X151979333Y-88890095D01*
X152217428Y-88890095D01*
X152407904Y-88937714D01*
X152503142Y-88985333D01*
X152550761Y-89032952D01*
X152598380Y-89128190D01*
X152598380Y-89223428D01*
X152550761Y-89318666D01*
X152503142Y-89366285D01*
X152407904Y-89413904D01*
X152217428Y-89461523D01*
X151979333Y-89461523D01*
X151788857Y-89413904D01*
X151693619Y-89366285D01*
X151646000Y-89318666D01*
X151598380Y-89223428D01*
%TO.C,U4*%
X128484380Y-98805904D02*
X129293904Y-98805904D01*
X129389142Y-98758285D01*
X129436761Y-98710666D01*
X129484380Y-98615428D01*
X129484380Y-98424952D01*
X129436761Y-98329714D01*
X129389142Y-98282095D01*
X129293904Y-98234476D01*
X128484380Y-98234476D01*
X128817714Y-97329714D02*
X129484380Y-97329714D01*
X128436761Y-97567809D02*
X129151047Y-97805904D01*
X129151047Y-97186857D01*
%TO.C,L1*%
X140803333Y-98496380D02*
X140327142Y-98496380D01*
X140327142Y-97496380D01*
X141660476Y-98496380D02*
X141089047Y-98496380D01*
X141374761Y-98496380D02*
X141374761Y-97496380D01*
X141279523Y-97639238D01*
X141184285Y-97734476D01*
X141089047Y-97782095D01*
%TO.C,D9*%
X141168380Y-89638095D02*
X140168380Y-89638095D01*
X140168380Y-89400000D01*
X140216000Y-89257142D01*
X140311238Y-89161904D01*
X140406476Y-89114285D01*
X140596952Y-89066666D01*
X140739809Y-89066666D01*
X140930285Y-89114285D01*
X141025523Y-89161904D01*
X141120761Y-89257142D01*
X141168380Y-89400000D01*
X141168380Y-89638095D01*
X141168380Y-88590476D02*
X141168380Y-88400000D01*
X141120761Y-88304761D01*
X141073142Y-88257142D01*
X140930285Y-88161904D01*
X140739809Y-88114285D01*
X140358857Y-88114285D01*
X140263619Y-88161904D01*
X140216000Y-88209523D01*
X140168380Y-88304761D01*
X140168380Y-88495238D01*
X140216000Y-88590476D01*
X140263619Y-88638095D01*
X140358857Y-88685714D01*
X140596952Y-88685714D01*
X140692190Y-88638095D01*
X140739809Y-88590476D01*
X140787428Y-88495238D01*
X140787428Y-88304761D01*
X140739809Y-88209523D01*
X140692190Y-88161904D01*
X140596952Y-88114285D01*
%TO.C,C14*%
X136771142Y-109577142D02*
X136723523Y-109624761D01*
X136580666Y-109672380D01*
X136485428Y-109672380D01*
X136342571Y-109624761D01*
X136247333Y-109529523D01*
X136199714Y-109434285D01*
X136152095Y-109243809D01*
X136152095Y-109100952D01*
X136199714Y-108910476D01*
X136247333Y-108815238D01*
X136342571Y-108720000D01*
X136485428Y-108672380D01*
X136580666Y-108672380D01*
X136723523Y-108720000D01*
X136771142Y-108767619D01*
X137723523Y-109672380D02*
X137152095Y-109672380D01*
X137437809Y-109672380D02*
X137437809Y-108672380D01*
X137342571Y-108815238D01*
X137247333Y-108910476D01*
X137152095Y-108958095D01*
X138580666Y-109005714D02*
X138580666Y-109672380D01*
X138342571Y-108624761D02*
X138104476Y-109339047D01*
X138723523Y-109339047D01*
%TO.C,C13*%
X131183142Y-86971142D02*
X131135523Y-87018761D01*
X130992666Y-87066380D01*
X130897428Y-87066380D01*
X130754571Y-87018761D01*
X130659333Y-86923523D01*
X130611714Y-86828285D01*
X130564095Y-86637809D01*
X130564095Y-86494952D01*
X130611714Y-86304476D01*
X130659333Y-86209238D01*
X130754571Y-86114000D01*
X130897428Y-86066380D01*
X130992666Y-86066380D01*
X131135523Y-86114000D01*
X131183142Y-86161619D01*
X132135523Y-87066380D02*
X131564095Y-87066380D01*
X131849809Y-87066380D02*
X131849809Y-86066380D01*
X131754571Y-86209238D01*
X131659333Y-86304476D01*
X131564095Y-86352095D01*
X132468857Y-86066380D02*
X133087904Y-86066380D01*
X132754571Y-86447333D01*
X132897428Y-86447333D01*
X132992666Y-86494952D01*
X133040285Y-86542571D01*
X133087904Y-86637809D01*
X133087904Y-86875904D01*
X133040285Y-86971142D01*
X132992666Y-87018761D01*
X132897428Y-87066380D01*
X132611714Y-87066380D01*
X132516476Y-87018761D01*
X132468857Y-86971142D01*
%TO.C,C4*%
X177522142Y-91606666D02*
X177569761Y-91654285D01*
X177617380Y-91797142D01*
X177617380Y-91892380D01*
X177569761Y-92035238D01*
X177474523Y-92130476D01*
X177379285Y-92178095D01*
X177188809Y-92225714D01*
X177045952Y-92225714D01*
X176855476Y-92178095D01*
X176760238Y-92130476D01*
X176665000Y-92035238D01*
X176617380Y-91892380D01*
X176617380Y-91797142D01*
X176665000Y-91654285D01*
X176712619Y-91606666D01*
X176950714Y-90749523D02*
X177617380Y-90749523D01*
X176569761Y-90987619D02*
X177284047Y-91225714D01*
X177284047Y-90606666D01*
%TO.C,R5*%
X144724380Y-91352666D02*
X144248190Y-91686000D01*
X144724380Y-91924095D02*
X143724380Y-91924095D01*
X143724380Y-91543142D01*
X143772000Y-91447904D01*
X143819619Y-91400285D01*
X143914857Y-91352666D01*
X144057714Y-91352666D01*
X144152952Y-91400285D01*
X144200571Y-91447904D01*
X144248190Y-91543142D01*
X144248190Y-91924095D01*
X143724380Y-90447904D02*
X143724380Y-90924095D01*
X144200571Y-90971714D01*
X144152952Y-90924095D01*
X144105333Y-90828857D01*
X144105333Y-90590761D01*
X144152952Y-90495523D01*
X144200571Y-90447904D01*
X144295809Y-90400285D01*
X144533904Y-90400285D01*
X144629142Y-90447904D01*
X144676761Y-90495523D01*
X144724380Y-90590761D01*
X144724380Y-90828857D01*
X144676761Y-90924095D01*
X144629142Y-90971714D01*
%TO.C,R4*%
X149042380Y-91606666D02*
X148566190Y-91940000D01*
X149042380Y-92178095D02*
X148042380Y-92178095D01*
X148042380Y-91797142D01*
X148090000Y-91701904D01*
X148137619Y-91654285D01*
X148232857Y-91606666D01*
X148375714Y-91606666D01*
X148470952Y-91654285D01*
X148518571Y-91701904D01*
X148566190Y-91797142D01*
X148566190Y-92178095D01*
X148375714Y-90749523D02*
X149042380Y-90749523D01*
X147994761Y-90987619D02*
X148709047Y-91225714D01*
X148709047Y-90606666D01*
%TO.C,C9*%
X146661142Y-91098666D02*
X146708761Y-91146285D01*
X146756380Y-91289142D01*
X146756380Y-91384380D01*
X146708761Y-91527238D01*
X146613523Y-91622476D01*
X146518285Y-91670095D01*
X146327809Y-91717714D01*
X146184952Y-91717714D01*
X145994476Y-91670095D01*
X145899238Y-91622476D01*
X145804000Y-91527238D01*
X145756380Y-91384380D01*
X145756380Y-91289142D01*
X145804000Y-91146285D01*
X145851619Y-91098666D01*
X146756380Y-90622476D02*
X146756380Y-90432000D01*
X146708761Y-90336761D01*
X146661142Y-90289142D01*
X146518285Y-90193904D01*
X146327809Y-90146285D01*
X145946857Y-90146285D01*
X145851619Y-90193904D01*
X145804000Y-90241523D01*
X145756380Y-90336761D01*
X145756380Y-90527238D01*
X145804000Y-90622476D01*
X145851619Y-90670095D01*
X145946857Y-90717714D01*
X146184952Y-90717714D01*
X146280190Y-90670095D01*
X146327809Y-90622476D01*
X146375428Y-90527238D01*
X146375428Y-90336761D01*
X146327809Y-90241523D01*
X146280190Y-90193904D01*
X146184952Y-90146285D01*
%TO.C,H2*%
X180513151Y-114408436D02*
X180513151Y-113408436D01*
X180513151Y-113884627D02*
X181084579Y-113884627D01*
X181084579Y-114408436D02*
X181084579Y-113408436D01*
X181513151Y-113503675D02*
X181560770Y-113456056D01*
X181656008Y-113408436D01*
X181894103Y-113408436D01*
X181989341Y-113456056D01*
X182036960Y-113503675D01*
X182084579Y-113598913D01*
X182084579Y-113694151D01*
X182036960Y-113837008D01*
X181465532Y-114408436D01*
X182084579Y-114408436D01*
%TO.C,H1*%
X130048095Y-77151380D02*
X130048095Y-76151380D01*
X130048095Y-76627571D02*
X130619523Y-76627571D01*
X130619523Y-77151380D02*
X130619523Y-76151380D01*
X131619523Y-77151380D02*
X131048095Y-77151380D01*
X131333809Y-77151380D02*
X131333809Y-76151380D01*
X131238571Y-76294238D01*
X131143333Y-76389476D01*
X131048095Y-76437095D01*
%TO.C,U2*%
X183319380Y-107884904D02*
X184128904Y-107884904D01*
X184224142Y-107837285D01*
X184271761Y-107789666D01*
X184319380Y-107694428D01*
X184319380Y-107503952D01*
X184271761Y-107408714D01*
X184224142Y-107361095D01*
X184128904Y-107313476D01*
X183319380Y-107313476D01*
X183414619Y-106884904D02*
X183367000Y-106837285D01*
X183319380Y-106742047D01*
X183319380Y-106503952D01*
X183367000Y-106408714D01*
X183414619Y-106361095D01*
X183509857Y-106313476D01*
X183605095Y-106313476D01*
X183747952Y-106361095D01*
X184319380Y-106932523D01*
X184319380Y-106313476D01*
%TO.C,R3*%
X159853333Y-110688380D02*
X159520000Y-110212190D01*
X159281904Y-110688380D02*
X159281904Y-109688380D01*
X159662857Y-109688380D01*
X159758095Y-109736000D01*
X159805714Y-109783619D01*
X159853333Y-109878857D01*
X159853333Y-110021714D01*
X159805714Y-110116952D01*
X159758095Y-110164571D01*
X159662857Y-110212190D01*
X159281904Y-110212190D01*
X160186666Y-109688380D02*
X160805714Y-109688380D01*
X160472380Y-110069333D01*
X160615238Y-110069333D01*
X160710476Y-110116952D01*
X160758095Y-110164571D01*
X160805714Y-110259809D01*
X160805714Y-110497904D01*
X160758095Y-110593142D01*
X160710476Y-110640761D01*
X160615238Y-110688380D01*
X160329523Y-110688380D01*
X160234285Y-110640761D01*
X160186666Y-110593142D01*
%TO.C,J1*%
X162861666Y-120737380D02*
X162861666Y-121451666D01*
X162814047Y-121594523D01*
X162718809Y-121689761D01*
X162575952Y-121737380D01*
X162480714Y-121737380D01*
X163861666Y-121737380D02*
X163290238Y-121737380D01*
X163575952Y-121737380D02*
X163575952Y-120737380D01*
X163480714Y-120880238D01*
X163385476Y-120975476D01*
X163290238Y-121023095D01*
%TO.C,R8*%
X153740380Y-104696666D02*
X153264190Y-105030000D01*
X153740380Y-105268095D02*
X152740380Y-105268095D01*
X152740380Y-104887142D01*
X152788000Y-104791904D01*
X152835619Y-104744285D01*
X152930857Y-104696666D01*
X153073714Y-104696666D01*
X153168952Y-104744285D01*
X153216571Y-104791904D01*
X153264190Y-104887142D01*
X153264190Y-105268095D01*
X153168952Y-104125238D02*
X153121333Y-104220476D01*
X153073714Y-104268095D01*
X152978476Y-104315714D01*
X152930857Y-104315714D01*
X152835619Y-104268095D01*
X152788000Y-104220476D01*
X152740380Y-104125238D01*
X152740380Y-103934761D01*
X152788000Y-103839523D01*
X152835619Y-103791904D01*
X152930857Y-103744285D01*
X152978476Y-103744285D01*
X153073714Y-103791904D01*
X153121333Y-103839523D01*
X153168952Y-103934761D01*
X153168952Y-104125238D01*
X153216571Y-104220476D01*
X153264190Y-104268095D01*
X153359428Y-104315714D01*
X153549904Y-104315714D01*
X153645142Y-104268095D01*
X153692761Y-104220476D01*
X153740380Y-104125238D01*
X153740380Y-103934761D01*
X153692761Y-103839523D01*
X153645142Y-103791904D01*
X153549904Y-103744285D01*
X153359428Y-103744285D01*
X153264190Y-103791904D01*
X153216571Y-103839523D01*
X153168952Y-103934761D01*
%TO.C,U3*%
X160401095Y-90765380D02*
X160401095Y-91574904D01*
X160448714Y-91670142D01*
X160496333Y-91717761D01*
X160591571Y-91765380D01*
X160782047Y-91765380D01*
X160877285Y-91717761D01*
X160924904Y-91670142D01*
X160972523Y-91574904D01*
X160972523Y-90765380D01*
X161353476Y-90765380D02*
X161972523Y-90765380D01*
X161639190Y-91146333D01*
X161782047Y-91146333D01*
X161877285Y-91193952D01*
X161924904Y-91241571D01*
X161972523Y-91336809D01*
X161972523Y-91574904D01*
X161924904Y-91670142D01*
X161877285Y-91717761D01*
X161782047Y-91765380D01*
X161496333Y-91765380D01*
X161401095Y-91717761D01*
X161353476Y-91670142D01*
%TO.C,C5*%
X175710333Y-110212142D02*
X175662714Y-110259761D01*
X175519857Y-110307380D01*
X175424619Y-110307380D01*
X175281761Y-110259761D01*
X175186523Y-110164523D01*
X175138904Y-110069285D01*
X175091285Y-109878809D01*
X175091285Y-109735952D01*
X175138904Y-109545476D01*
X175186523Y-109450238D01*
X175281761Y-109355000D01*
X175424619Y-109307380D01*
X175519857Y-109307380D01*
X175662714Y-109355000D01*
X175710333Y-109402619D01*
X176615095Y-109307380D02*
X176138904Y-109307380D01*
X176091285Y-109783571D01*
X176138904Y-109735952D01*
X176234142Y-109688333D01*
X176472238Y-109688333D01*
X176567476Y-109735952D01*
X176615095Y-109783571D01*
X176662714Y-109878809D01*
X176662714Y-110116904D01*
X176615095Y-110212142D01*
X176567476Y-110259761D01*
X176472238Y-110307380D01*
X176234142Y-110307380D01*
X176138904Y-110259761D01*
X176091285Y-110212142D01*
%TO.C,C1*%
X162663142Y-107354666D02*
X162710761Y-107402285D01*
X162758380Y-107545142D01*
X162758380Y-107640380D01*
X162710761Y-107783238D01*
X162615523Y-107878476D01*
X162520285Y-107926095D01*
X162329809Y-107973714D01*
X162186952Y-107973714D01*
X161996476Y-107926095D01*
X161901238Y-107878476D01*
X161806000Y-107783238D01*
X161758380Y-107640380D01*
X161758380Y-107545142D01*
X161806000Y-107402285D01*
X161853619Y-107354666D01*
X162758380Y-106402285D02*
X162758380Y-106973714D01*
X162758380Y-106688000D02*
X161758380Y-106688000D01*
X161901238Y-106783238D01*
X161996476Y-106878476D01*
X162044095Y-106973714D01*
%TO.C,C6*%
X150979142Y-94654666D02*
X151026761Y-94702285D01*
X151074380Y-94845142D01*
X151074380Y-94940380D01*
X151026761Y-95083238D01*
X150931523Y-95178476D01*
X150836285Y-95226095D01*
X150645809Y-95273714D01*
X150502952Y-95273714D01*
X150312476Y-95226095D01*
X150217238Y-95178476D01*
X150122000Y-95083238D01*
X150074380Y-94940380D01*
X150074380Y-94845142D01*
X150122000Y-94702285D01*
X150169619Y-94654666D01*
X150074380Y-93797523D02*
X150074380Y-93988000D01*
X150122000Y-94083238D01*
X150169619Y-94130857D01*
X150312476Y-94226095D01*
X150502952Y-94273714D01*
X150883904Y-94273714D01*
X150979142Y-94226095D01*
X151026761Y-94178476D01*
X151074380Y-94083238D01*
X151074380Y-93892761D01*
X151026761Y-93797523D01*
X150979142Y-93749904D01*
X150883904Y-93702285D01*
X150645809Y-93702285D01*
X150550571Y-93749904D01*
X150502952Y-93797523D01*
X150455333Y-93892761D01*
X150455333Y-94083238D01*
X150502952Y-94178476D01*
X150550571Y-94226095D01*
X150645809Y-94273714D01*
%TO.C,C12*%
X182729142Y-91846857D02*
X182776761Y-91894476D01*
X182824380Y-92037333D01*
X182824380Y-92132571D01*
X182776761Y-92275428D01*
X182681523Y-92370666D01*
X182586285Y-92418285D01*
X182395809Y-92465904D01*
X182252952Y-92465904D01*
X182062476Y-92418285D01*
X181967238Y-92370666D01*
X181872000Y-92275428D01*
X181824380Y-92132571D01*
X181824380Y-92037333D01*
X181872000Y-91894476D01*
X181919619Y-91846857D01*
X182824380Y-90894476D02*
X182824380Y-91465904D01*
X182824380Y-91180190D02*
X181824380Y-91180190D01*
X181967238Y-91275428D01*
X182062476Y-91370666D01*
X182110095Y-91465904D01*
X181919619Y-90513523D02*
X181872000Y-90465904D01*
X181824380Y-90370666D01*
X181824380Y-90132571D01*
X181872000Y-90037333D01*
X181919619Y-89989714D01*
X182014857Y-89942095D01*
X182110095Y-89942095D01*
X182252952Y-89989714D01*
X182824380Y-90561142D01*
X182824380Y-89942095D01*
%TO.C,R2*%
X177744380Y-102274666D02*
X177268190Y-102608000D01*
X177744380Y-102846095D02*
X176744380Y-102846095D01*
X176744380Y-102465142D01*
X176792000Y-102369904D01*
X176839619Y-102322285D01*
X176934857Y-102274666D01*
X177077714Y-102274666D01*
X177172952Y-102322285D01*
X177220571Y-102369904D01*
X177268190Y-102465142D01*
X177268190Y-102846095D01*
X176839619Y-101893714D02*
X176792000Y-101846095D01*
X176744380Y-101750857D01*
X176744380Y-101512761D01*
X176792000Y-101417523D01*
X176839619Y-101369904D01*
X176934857Y-101322285D01*
X177030095Y-101322285D01*
X177172952Y-101369904D01*
X177744380Y-101941333D01*
X177744380Y-101322285D01*
%TO.C,R1*%
X180157380Y-91370666D02*
X179681190Y-91704000D01*
X180157380Y-91942095D02*
X179157380Y-91942095D01*
X179157380Y-91561142D01*
X179205000Y-91465904D01*
X179252619Y-91418285D01*
X179347857Y-91370666D01*
X179490714Y-91370666D01*
X179585952Y-91418285D01*
X179633571Y-91465904D01*
X179681190Y-91561142D01*
X179681190Y-91942095D01*
X180157380Y-90418285D02*
X180157380Y-90989714D01*
X180157380Y-90704000D02*
X179157380Y-90704000D01*
X179300238Y-90799238D01*
X179395476Y-90894476D01*
X179443095Y-90989714D01*
%TO.C,JP2*%
X183348380Y-99385333D02*
X184062666Y-99385333D01*
X184205523Y-99432952D01*
X184300761Y-99528190D01*
X184348380Y-99671047D01*
X184348380Y-99766285D01*
X184348380Y-98909142D02*
X183348380Y-98909142D01*
X183348380Y-98528190D01*
X183396000Y-98432952D01*
X183443619Y-98385333D01*
X183538857Y-98337714D01*
X183681714Y-98337714D01*
X183776952Y-98385333D01*
X183824571Y-98432952D01*
X183872190Y-98528190D01*
X183872190Y-98909142D01*
X183443619Y-97956761D02*
X183396000Y-97909142D01*
X183348380Y-97813904D01*
X183348380Y-97575809D01*
X183396000Y-97480571D01*
X183443619Y-97432952D01*
X183538857Y-97385333D01*
X183634095Y-97385333D01*
X183776952Y-97432952D01*
X184348380Y-98004380D01*
X184348380Y-97385333D01*
%TO.C,C8*%
X178048142Y-98464666D02*
X178095761Y-98512285D01*
X178143380Y-98655142D01*
X178143380Y-98750380D01*
X178095761Y-98893238D01*
X178000523Y-98988476D01*
X177905285Y-99036095D01*
X177714809Y-99083714D01*
X177571952Y-99083714D01*
X177381476Y-99036095D01*
X177286238Y-98988476D01*
X177191000Y-98893238D01*
X177143380Y-98750380D01*
X177143380Y-98655142D01*
X177191000Y-98512285D01*
X177238619Y-98464666D01*
X177571952Y-97893238D02*
X177524333Y-97988476D01*
X177476714Y-98036095D01*
X177381476Y-98083714D01*
X177333857Y-98083714D01*
X177238619Y-98036095D01*
X177191000Y-97988476D01*
X177143380Y-97893238D01*
X177143380Y-97702761D01*
X177191000Y-97607523D01*
X177238619Y-97559904D01*
X177333857Y-97512285D01*
X177381476Y-97512285D01*
X177476714Y-97559904D01*
X177524333Y-97607523D01*
X177571952Y-97702761D01*
X177571952Y-97893238D01*
X177619571Y-97988476D01*
X177667190Y-98036095D01*
X177762428Y-98083714D01*
X177952904Y-98083714D01*
X178048142Y-98036095D01*
X178095761Y-97988476D01*
X178143380Y-97893238D01*
X178143380Y-97702761D01*
X178095761Y-97607523D01*
X178048142Y-97559904D01*
X177952904Y-97512285D01*
X177762428Y-97512285D01*
X177667190Y-97559904D01*
X177619571Y-97607523D01*
X177571952Y-97702761D01*
%TO.C,C7*%
X173823333Y-93702142D02*
X173775714Y-93749761D01*
X173632857Y-93797380D01*
X173537619Y-93797380D01*
X173394761Y-93749761D01*
X173299523Y-93654523D01*
X173251904Y-93559285D01*
X173204285Y-93368809D01*
X173204285Y-93225952D01*
X173251904Y-93035476D01*
X173299523Y-92940238D01*
X173394761Y-92845000D01*
X173537619Y-92797380D01*
X173632857Y-92797380D01*
X173775714Y-92845000D01*
X173823333Y-92892619D01*
X174156666Y-92797380D02*
X174823333Y-92797380D01*
X174394761Y-93797380D01*
%TO.C,C3*%
X146899333Y-107799142D02*
X146851714Y-107846761D01*
X146708857Y-107894380D01*
X146613619Y-107894380D01*
X146470761Y-107846761D01*
X146375523Y-107751523D01*
X146327904Y-107656285D01*
X146280285Y-107465809D01*
X146280285Y-107322952D01*
X146327904Y-107132476D01*
X146375523Y-107037238D01*
X146470761Y-106942000D01*
X146613619Y-106894380D01*
X146708857Y-106894380D01*
X146851714Y-106942000D01*
X146899333Y-106989619D01*
X147232666Y-106894380D02*
X147851714Y-106894380D01*
X147518380Y-107275333D01*
X147661238Y-107275333D01*
X147756476Y-107322952D01*
X147804095Y-107370571D01*
X147851714Y-107465809D01*
X147851714Y-107703904D01*
X147804095Y-107799142D01*
X147756476Y-107846761D01*
X147661238Y-107894380D01*
X147375523Y-107894380D01*
X147280285Y-107846761D01*
X147232666Y-107799142D01*
%TO.C,C2*%
X144105333Y-97893142D02*
X144057714Y-97940761D01*
X143914857Y-97988380D01*
X143819619Y-97988380D01*
X143676761Y-97940761D01*
X143581523Y-97845523D01*
X143533904Y-97750285D01*
X143486285Y-97559809D01*
X143486285Y-97416952D01*
X143533904Y-97226476D01*
X143581523Y-97131238D01*
X143676761Y-97036000D01*
X143819619Y-96988380D01*
X143914857Y-96988380D01*
X144057714Y-97036000D01*
X144105333Y-97083619D01*
X144486285Y-97083619D02*
X144533904Y-97036000D01*
X144629142Y-96988380D01*
X144867238Y-96988380D01*
X144962476Y-97036000D01*
X145010095Y-97083619D01*
X145057714Y-97178857D01*
X145057714Y-97274095D01*
X145010095Y-97416952D01*
X144438666Y-97988380D01*
X145057714Y-97988380D01*
%TD*%
M02*
