%TF.GenerationSoftware,KiCad,Pcbnew,(5.1.12-1-10_14)*%
%TF.CreationDate,2023-02-08T21:42:28+01:00*%
%TF.ProjectId,SmartDisplay,536d6172-7444-4697-9370-6c61792e6b69,rev?*%
%TF.SameCoordinates,Original*%
%TF.FileFunction,Soldermask,Bot*%
%TF.FilePolarity,Negative*%
%FSLAX46Y46*%
G04 Gerber Fmt 4.6, Leading zero omitted, Abs format (unit mm)*
G04 Created by KiCad (PCBNEW (5.1.12-1-10_14)) date 2023-02-08 21:42:28*
%MOMM*%
%LPD*%
G01*
G04 APERTURE LIST*
%ADD10C,0.100000*%
%ADD11C,0.900000*%
%ADD12C,6.500000*%
%ADD13O,2.120000X1.600000*%
%ADD14C,1.370000*%
%ADD15O,1.800000X2.050000*%
%ADD16O,1.800000X2.100000*%
%ADD17O,2.050000X1.800000*%
%ADD18O,1.800000X1.800000*%
%ADD19C,1.600000*%
%ADD20C,1.100000*%
G04 APERTURE END LIST*
D10*
%TO.C,JP3*%
G36*
X163299039Y-81179755D02*
G01*
X163296194Y-81189134D01*
X163291573Y-81197779D01*
X163285355Y-81205355D01*
X163277779Y-81211573D01*
X163269134Y-81216194D01*
X163259755Y-81219039D01*
X163250000Y-81220000D01*
X161750000Y-81220000D01*
X161740245Y-81219039D01*
X161730866Y-81216194D01*
X161722221Y-81211573D01*
X161714645Y-81205355D01*
X161708427Y-81197779D01*
X161703806Y-81189134D01*
X161700961Y-81179755D01*
X161700000Y-81170000D01*
X161700000Y-80620000D01*
X161700602Y-80613889D01*
X161700602Y-80595466D01*
X161700843Y-80590565D01*
X161705653Y-80541734D01*
X161706373Y-80536881D01*
X161715945Y-80488756D01*
X161717137Y-80483995D01*
X161731381Y-80437040D01*
X161733034Y-80432421D01*
X161751811Y-80387088D01*
X161753909Y-80382651D01*
X161777040Y-80339378D01*
X161779562Y-80335171D01*
X161806822Y-80294372D01*
X161809746Y-80290430D01*
X161840874Y-80252501D01*
X161844169Y-80248866D01*
X161878866Y-80214169D01*
X161882501Y-80210874D01*
X161920430Y-80179746D01*
X161924372Y-80176822D01*
X161965171Y-80149562D01*
X161969378Y-80147040D01*
X162012651Y-80123909D01*
X162017088Y-80121811D01*
X162062421Y-80103034D01*
X162067040Y-80101381D01*
X162113995Y-80087137D01*
X162118756Y-80085945D01*
X162166881Y-80076373D01*
X162171734Y-80075653D01*
X162220565Y-80070843D01*
X162225466Y-80070602D01*
X162243889Y-80070602D01*
X162250000Y-80070000D01*
X162750000Y-80070000D01*
X162756111Y-80070602D01*
X162774534Y-80070602D01*
X162779435Y-80070843D01*
X162828266Y-80075653D01*
X162833119Y-80076373D01*
X162881244Y-80085945D01*
X162886005Y-80087137D01*
X162932960Y-80101381D01*
X162937579Y-80103034D01*
X162982912Y-80121811D01*
X162987349Y-80123909D01*
X163030622Y-80147040D01*
X163034829Y-80149562D01*
X163075628Y-80176822D01*
X163079570Y-80179746D01*
X163117499Y-80210874D01*
X163121134Y-80214169D01*
X163155831Y-80248866D01*
X163159126Y-80252501D01*
X163190254Y-80290430D01*
X163193178Y-80294372D01*
X163220438Y-80335171D01*
X163222960Y-80339378D01*
X163246091Y-80382651D01*
X163248189Y-80387088D01*
X163266966Y-80432421D01*
X163268619Y-80437040D01*
X163282863Y-80483995D01*
X163284055Y-80488756D01*
X163293627Y-80536881D01*
X163294347Y-80541734D01*
X163299157Y-80590565D01*
X163299398Y-80595466D01*
X163299398Y-80613889D01*
X163300000Y-80620000D01*
X163300000Y-81170000D01*
X163299039Y-81179755D01*
G37*
G36*
G01*
X161750000Y-81370000D02*
X163250000Y-81370000D01*
G75*
G02*
X163300000Y-81420000I0J-50000D01*
G01*
X163300000Y-82420000D01*
G75*
G02*
X163250000Y-82470000I-50000J0D01*
G01*
X161750000Y-82470000D01*
G75*
G02*
X161700000Y-82420000I0J50000D01*
G01*
X161700000Y-81420000D01*
G75*
G02*
X161750000Y-81370000I50000J0D01*
G01*
G37*
G36*
X163299398Y-83226111D02*
G01*
X163299398Y-83244534D01*
X163299157Y-83249435D01*
X163294347Y-83298266D01*
X163293627Y-83303119D01*
X163284055Y-83351244D01*
X163282863Y-83356005D01*
X163268619Y-83402960D01*
X163266966Y-83407579D01*
X163248189Y-83452912D01*
X163246091Y-83457349D01*
X163222960Y-83500622D01*
X163220438Y-83504829D01*
X163193178Y-83545628D01*
X163190254Y-83549570D01*
X163159126Y-83587499D01*
X163155831Y-83591134D01*
X163121134Y-83625831D01*
X163117499Y-83629126D01*
X163079570Y-83660254D01*
X163075628Y-83663178D01*
X163034829Y-83690438D01*
X163030622Y-83692960D01*
X162987349Y-83716091D01*
X162982912Y-83718189D01*
X162937579Y-83736966D01*
X162932960Y-83738619D01*
X162886005Y-83752863D01*
X162881244Y-83754055D01*
X162833119Y-83763627D01*
X162828266Y-83764347D01*
X162779435Y-83769157D01*
X162774534Y-83769398D01*
X162756111Y-83769398D01*
X162750000Y-83770000D01*
X162250000Y-83770000D01*
X162243889Y-83769398D01*
X162225466Y-83769398D01*
X162220565Y-83769157D01*
X162171734Y-83764347D01*
X162166881Y-83763627D01*
X162118756Y-83754055D01*
X162113995Y-83752863D01*
X162067040Y-83738619D01*
X162062421Y-83736966D01*
X162017088Y-83718189D01*
X162012651Y-83716091D01*
X161969378Y-83692960D01*
X161965171Y-83690438D01*
X161924372Y-83663178D01*
X161920430Y-83660254D01*
X161882501Y-83629126D01*
X161878866Y-83625831D01*
X161844169Y-83591134D01*
X161840874Y-83587499D01*
X161809746Y-83549570D01*
X161806822Y-83545628D01*
X161779562Y-83504829D01*
X161777040Y-83500622D01*
X161753909Y-83457349D01*
X161751811Y-83452912D01*
X161733034Y-83407579D01*
X161731381Y-83402960D01*
X161717137Y-83356005D01*
X161715945Y-83351244D01*
X161706373Y-83303119D01*
X161705653Y-83298266D01*
X161700843Y-83249435D01*
X161700602Y-83244534D01*
X161700602Y-83226111D01*
X161700000Y-83220000D01*
X161700000Y-82670000D01*
X161700961Y-82660245D01*
X161703806Y-82650866D01*
X161708427Y-82642221D01*
X161714645Y-82634645D01*
X161722221Y-82628427D01*
X161730866Y-82623806D01*
X161740245Y-82620961D01*
X161750000Y-82620000D01*
X163250000Y-82620000D01*
X163259755Y-82620961D01*
X163269134Y-82623806D01*
X163277779Y-82628427D01*
X163285355Y-82634645D01*
X163291573Y-82642221D01*
X163296194Y-82650866D01*
X163299039Y-82660245D01*
X163300000Y-82670000D01*
X163300000Y-83220000D01*
X163299398Y-83226111D01*
G37*
%TD*%
D11*
%TO.C,H2*%
X182972112Y-116459000D03*
X181275056Y-115756056D03*
X179578000Y-116459000D03*
X178875056Y-118156056D03*
X179578000Y-119853112D03*
X181275056Y-120556056D03*
X182972112Y-119853112D03*
X183675056Y-118156056D03*
D12*
X181275056Y-118156056D03*
%TD*%
D13*
%TO.C,J8*%
X160250000Y-111920000D03*
X160250000Y-114920000D03*
G36*
G01*
X161043334Y-118720000D02*
X159456666Y-118720000D01*
G75*
G02*
X159190000Y-118453334I0J266666D01*
G01*
X159190000Y-117386666D01*
G75*
G02*
X159456666Y-117120000I266666J0D01*
G01*
X161043334Y-117120000D01*
G75*
G02*
X161310000Y-117386666I0J-266666D01*
G01*
X161310000Y-118453334D01*
G75*
G02*
X161043334Y-118720000I-266666J0D01*
G01*
G37*
D14*
X158290000Y-108920000D03*
X158290000Y-120920000D03*
%TD*%
D15*
%TO.C,J4*%
X146000000Y-80264000D03*
X143500000Y-80264000D03*
X141000000Y-80264000D03*
G36*
G01*
X137600000Y-81024295D02*
X137600000Y-79503705D01*
G75*
G02*
X137864705Y-79239000I264705J0D01*
G01*
X139135295Y-79239000D01*
G75*
G02*
X139400000Y-79503705I0J-264705D01*
G01*
X139400000Y-81024295D01*
G75*
G02*
X139135295Y-81289000I-264705J0D01*
G01*
X137864705Y-81289000D01*
G75*
G02*
X137600000Y-81024295I0J264705D01*
G01*
G37*
%TD*%
D16*
%TO.C,J2*%
X154500000Y-80264000D03*
G36*
G01*
X151100000Y-81049295D02*
X151100000Y-79478705D01*
G75*
G02*
X151364705Y-79214000I264705J0D01*
G01*
X152635295Y-79214000D01*
G75*
G02*
X152900000Y-79478705I0J-264705D01*
G01*
X152900000Y-81049295D01*
G75*
G02*
X152635295Y-81314000I-264705J0D01*
G01*
X151364705Y-81314000D01*
G75*
G02*
X151100000Y-81049295I0J264705D01*
G01*
G37*
%TD*%
D17*
%TO.C,J6*%
X181500000Y-90670000D03*
X181500000Y-88170000D03*
X181500000Y-85670000D03*
X181500000Y-83170000D03*
G36*
G01*
X180739705Y-79770000D02*
X182260295Y-79770000D01*
G75*
G02*
X182525000Y-80034705I0J-264705D01*
G01*
X182525000Y-81305295D01*
G75*
G02*
X182260295Y-81570000I-264705J0D01*
G01*
X180739705Y-81570000D01*
G75*
G02*
X180475000Y-81305295I0J264705D01*
G01*
X180475000Y-80034705D01*
G75*
G02*
X180739705Y-79770000I264705J0D01*
G01*
G37*
%TD*%
D18*
%TO.C,J5*%
X139192000Y-111760000D03*
X139192000Y-114300000D03*
X136652000Y-111760000D03*
X136652000Y-114300000D03*
X134112000Y-111760000D03*
G36*
G01*
X134962000Y-115200000D02*
X133262000Y-115200000D01*
G75*
G02*
X133212000Y-115150000I0J50000D01*
G01*
X133212000Y-113450000D01*
G75*
G02*
X133262000Y-113400000I50000J0D01*
G01*
X134962000Y-113400000D01*
G75*
G02*
X135012000Y-113450000I0J-50000D01*
G01*
X135012000Y-115150000D01*
G75*
G02*
X134962000Y-115200000I-50000J0D01*
G01*
G37*
%TD*%
%TO.C,J3*%
X131572000Y-111760000D03*
G36*
G01*
X132422000Y-115200000D02*
X130722000Y-115200000D01*
G75*
G02*
X130672000Y-115150000I0J50000D01*
G01*
X130672000Y-113450000D01*
G75*
G02*
X130722000Y-113400000I50000J0D01*
G01*
X132422000Y-113400000D01*
G75*
G02*
X132472000Y-113450000I0J-50000D01*
G01*
X132472000Y-115150000D01*
G75*
G02*
X132422000Y-115200000I-50000J0D01*
G01*
G37*
%TD*%
%TO.C,J7*%
X154432000Y-111760000D03*
X154432000Y-114300000D03*
X151892000Y-111760000D03*
X151892000Y-114300000D03*
X149352000Y-111760000D03*
X149352000Y-114300000D03*
X146812000Y-111760000D03*
X146812000Y-114300000D03*
X144272000Y-111760000D03*
X144272000Y-114300000D03*
X141732000Y-111760000D03*
G36*
G01*
X142582000Y-115200000D02*
X140882000Y-115200000D01*
G75*
G02*
X140832000Y-115150000I0J50000D01*
G01*
X140832000Y-113450000D01*
G75*
G02*
X140882000Y-113400000I50000J0D01*
G01*
X142582000Y-113400000D01*
G75*
G02*
X142632000Y-113450000I0J-50000D01*
G01*
X142632000Y-115150000D01*
G75*
G02*
X142582000Y-115200000I-50000J0D01*
G01*
G37*
%TD*%
D11*
%TO.C,H1*%
X132507056Y-79201944D03*
X130810000Y-78499000D03*
X129112944Y-79201944D03*
X128410000Y-80899000D03*
X129112944Y-82596056D03*
X130810000Y-83299000D03*
X132507056Y-82596056D03*
X133210000Y-80899000D03*
D12*
X130810000Y-80899000D03*
%TD*%
D19*
%TO.C,J1*%
X170000000Y-115670000D03*
X173000000Y-115670000D03*
X170000000Y-118670000D03*
G36*
G01*
X173800000Y-118136666D02*
X173800000Y-119203334D01*
G75*
G02*
X173533334Y-119470000I-266666J0D01*
G01*
X172466666Y-119470000D01*
G75*
G02*
X172200000Y-119203334I0J266666D01*
G01*
X172200000Y-118136666D01*
G75*
G02*
X172466666Y-117870000I266666J0D01*
G01*
X173533334Y-117870000D01*
G75*
G02*
X173800000Y-118136666I0J-266666D01*
G01*
G37*
D20*
X167000000Y-114730000D03*
X176000000Y-114730000D03*
%TD*%
M02*
