M48
; DRILL file {KiCad 7.0.5-0} date 2023 June 16, Friday 19:55:50
; FORMAT={3:3/ absolute / metric / suppress leading zeros}
; #@! TF.CreationDate,2023-06-16T19:55:50+02:00
; #@! TF.GenerationSoftware,Kicad,Pcbnew,7.0.5-0
; #@! TF.FileFunction,MixedPlating,1,2
FMAT,2
METRIC,TZ
; #@! TA.AperFunction,Plated,PTH,ViaDrill
T1C0.400
; #@! TA.AperFunction,Plated,PTH,ComponentDrill
T2C0.500
; #@! TA.AperFunction,Plated,PTH,ComponentDrill
T3C0.950
; #@! TA.AperFunction,Plated,PTH,ComponentDrill
T4C1.000
; #@! TA.AperFunction,Plated,PTH,ComponentDrill
T5C1.020
; #@! TA.AperFunction,Plated,PTH,ComponentDrill
T6C3.200
; #@! TA.AperFunction,NonPlated,NPTH,ComponentDrill
T7C0.500
; #@! TA.AperFunction,NonPlated,NPTH,ComponentDrill
T8C1.000
; #@! TA.AperFunction,NonPlated,NPTH,ComponentDrill
T9C1.270
%
G90
G05
T1
X76500Y-69470
X76790Y-61610
X77040Y-55860
X77040Y-57110
X77540Y-47860
X78574Y-65583
X78750Y-69120
X79290Y-41610
X79700Y-67870
X79877Y-66346
X80546Y-50852
X80700Y-68420
X80976Y-66420
X81823Y-61893
X82027Y-59347
X82540Y-51110
X82540Y-58110
X82565Y-62635
X82790Y-48360
X83040Y-41610
X83290Y-60360
X83500Y-67420
X83540Y-58860
X83540Y-61360
X83945Y-63385
X85090Y-56710
X86040Y-52235
X86540Y-54860
X87290Y-61360
X87540Y-62360
X88290Y-60360
X89090Y-58710
X90290Y-59610
X90800Y-69420
X91290Y-60110
X91490Y-52235
X92000Y-69420
X92257Y-52960
X92790Y-47860
X93439Y-55711
X94040Y-56860
X94540Y-51610
X95290Y-55360
X95790Y-57860
X95790Y-66110
X96040Y-56110
X96540Y-59610
X97091Y-58649
X97222Y-68520
X98540Y-66110
X99290Y-47610
X102290Y-49110
X103040Y-47860
X104540Y-45360
X104540Y-50110
X105040Y-47110
X105040Y-56360
X105040Y-57610
X105040Y-59360
X105290Y-40610
X105290Y-41910
X105290Y-48610
X105290Y-60610
X105415Y-39310
X109290Y-53860
X109540Y-52585
X110040Y-61360
X113540Y-63860
X114540Y-64110
X115290Y-72110
X117290Y-37110
X117790Y-41610
X118290Y-62110
X119540Y-64335
X119540Y-71110
X120290Y-67610
X120790Y-48360
X138500Y-69470
X138790Y-61610
X139040Y-55860
X139040Y-57110
X139540Y-47860
X140574Y-65583
X140750Y-69120
X141290Y-41610
X141700Y-67870
X141877Y-66346
X142546Y-50852
X142700Y-68420
X142976Y-66420
X143823Y-61893
X144027Y-59347
X144540Y-51110
X144540Y-58110
X144565Y-62635
X144790Y-48360
X145040Y-41610
X145290Y-60360
X145500Y-67420
X145540Y-58860
X145540Y-61360
X145945Y-63385
X147090Y-56710
X148040Y-52235
X148540Y-54860
X149290Y-61360
X149540Y-62360
X150290Y-60360
X151090Y-58710
X152290Y-59610
X152800Y-69420
X153290Y-60110
X153490Y-52235
X154000Y-69420
X154257Y-52960
X154790Y-47860
X155439Y-55711
X156040Y-56860
X156540Y-51610
X157290Y-55360
X157790Y-57860
X157790Y-66110
X158040Y-56110
X158540Y-59610
X159091Y-58649
X159222Y-68520
X160540Y-66110
X161290Y-47610
X164290Y-49110
X165040Y-47860
X166540Y-45360
X166540Y-50110
X167040Y-47110
X167040Y-56360
X167040Y-57610
X167040Y-59360
X167290Y-40610
X167290Y-41910
X167290Y-48610
X167290Y-60610
X167415Y-39310
X171290Y-53860
X171540Y-52585
X172040Y-61360
X175540Y-63860
X176540Y-64110
X177290Y-72110
X179290Y-37110
X179790Y-41610
X180290Y-62110
X181540Y-64335
X181540Y-71110
X182290Y-67610
X182790Y-48360
T2
X71200Y-39589
X71903Y-37892
X71903Y-41286
X73600Y-37189
X73600Y-41989
X75297Y-37892
X75297Y-41286
X76000Y-39589
X121665Y-76846
X122368Y-75149
X122368Y-78543
X124065Y-74446
X124065Y-79246
X125762Y-75149
X125762Y-78543
X126465Y-76846
X133200Y-39589
X133903Y-37892
X133903Y-41286
X135600Y-37189
X135600Y-41989
X137297Y-37892
X137297Y-41286
X138000Y-39589
X183665Y-76846
X184368Y-75149
X184368Y-78543
X186065Y-74446
X186065Y-79246
X187762Y-75149
X187762Y-78543
X188465Y-76846
T3
X81290Y-38954
X83790Y-38954
X86290Y-38954
X88790Y-38954
X124290Y-39360
X124290Y-41860
X124290Y-44360
X124290Y-46860
X124290Y-49360
X143290Y-38954
X145790Y-38954
X148290Y-38954
X150790Y-38954
X186290Y-39360
X186290Y-41860
X186290Y-44360
X186290Y-46860
X186290Y-49360
T4
X72100Y-71940
X72100Y-74480
X72100Y-77020
X94790Y-38954
X97290Y-38954
X112790Y-74360
X112790Y-77360
X115790Y-74360
X115790Y-77360
X134100Y-71940
X134100Y-74480
X134100Y-77020
X156790Y-38954
X159290Y-38954
X174790Y-74360
X174790Y-77360
X177790Y-74360
X177790Y-77360
T5
X103040Y-70610
X103040Y-73610
X103040Y-76610
X165040Y-70610
X165040Y-73610
X165040Y-76610
T6
X73600Y-39589
X124065Y-76846
X135600Y-39589
X186065Y-76846
T7
X70940Y-80360
X71740Y-80110
X72440Y-80110
X73240Y-80360
X76140Y-36160
X76940Y-36410
X77640Y-36410
X78440Y-36160
X113040Y-80360
X113840Y-80110
X114540Y-80110
X115340Y-80360
X122540Y-36150
X123340Y-36400
X124040Y-36400
X124840Y-36150
X132940Y-80360
X133740Y-80110
X134440Y-80110
X135240Y-80360
X138140Y-36160
X138940Y-36410
X139640Y-36410
X140440Y-36160
X175040Y-80360
X175840Y-80110
X176540Y-80110
X177340Y-80360
X184540Y-36150
X185340Y-36400
X186040Y-36400
X186840Y-36150
T8
X109790Y-73420
X118790Y-73420
X171790Y-73420
X180790Y-73420
T9
X101080Y-67610
X101080Y-79610
X163080Y-67610
X163080Y-79610
T0
M30
