%TF.GenerationSoftware,KiCad,Pcbnew,7.0.5-0*%
%TF.CreationDate,2023-06-16T19:55:47+02:00*%
%TF.ProjectId,SmartDisplay,536d6172-7444-4697-9370-6c61792e6b69,rev?*%
%TF.SameCoordinates,Original*%
%TF.FileFunction,Legend,Top*%
%TF.FilePolarity,Positive*%
%FSLAX46Y46*%
G04 Gerber Fmt 4.6, Leading zero omitted, Abs format (unit mm)*
G04 Created by KiCad (PCBNEW 7.0.5-0) date 2023-06-16 19:55:47*
%MOMM*%
%LPD*%
G01*
G04 APERTURE LIST*
%ADD10C,0.150000*%
%ADD11C,0.100000*%
%ADD12C,0.120000*%
G04 APERTURE END LIST*
D10*
%TO.C,H1*%
X134838095Y-35843819D02*
X134838095Y-34843819D01*
X134838095Y-35320009D02*
X135409523Y-35320009D01*
X135409523Y-35843819D02*
X135409523Y-34843819D01*
X136409523Y-35843819D02*
X135838095Y-35843819D01*
X136123809Y-35843819D02*
X136123809Y-34843819D01*
X136123809Y-34843819D02*
X136028571Y-34986676D01*
X136028571Y-34986676D02*
X135933333Y-35081914D01*
X135933333Y-35081914D02*
X135838095Y-35129533D01*
%TO.C,U5*%
X172528095Y-42814819D02*
X172528095Y-43624342D01*
X172528095Y-43624342D02*
X172575714Y-43719580D01*
X172575714Y-43719580D02*
X172623333Y-43767200D01*
X172623333Y-43767200D02*
X172718571Y-43814819D01*
X172718571Y-43814819D02*
X172909047Y-43814819D01*
X172909047Y-43814819D02*
X173004285Y-43767200D01*
X173004285Y-43767200D02*
X173051904Y-43719580D01*
X173051904Y-43719580D02*
X173099523Y-43624342D01*
X173099523Y-43624342D02*
X173099523Y-42814819D01*
X174051904Y-42814819D02*
X173575714Y-42814819D01*
X173575714Y-42814819D02*
X173528095Y-43291009D01*
X173528095Y-43291009D02*
X173575714Y-43243390D01*
X173575714Y-43243390D02*
X173670952Y-43195771D01*
X173670952Y-43195771D02*
X173909047Y-43195771D01*
X173909047Y-43195771D02*
X174004285Y-43243390D01*
X174004285Y-43243390D02*
X174051904Y-43291009D01*
X174051904Y-43291009D02*
X174099523Y-43386247D01*
X174099523Y-43386247D02*
X174099523Y-43624342D01*
X174099523Y-43624342D02*
X174051904Y-43719580D01*
X174051904Y-43719580D02*
X174004285Y-43767200D01*
X174004285Y-43767200D02*
X173909047Y-43814819D01*
X173909047Y-43814819D02*
X173670952Y-43814819D01*
X173670952Y-43814819D02*
X173575714Y-43767200D01*
X173575714Y-43767200D02*
X173528095Y-43719580D01*
X169337619Y-43719580D02*
X169290000Y-43767200D01*
X169290000Y-43767200D02*
X169147143Y-43814819D01*
X169147143Y-43814819D02*
X169051905Y-43814819D01*
X169051905Y-43814819D02*
X168909048Y-43767200D01*
X168909048Y-43767200D02*
X168813810Y-43671961D01*
X168813810Y-43671961D02*
X168766191Y-43576723D01*
X168766191Y-43576723D02*
X168718572Y-43386247D01*
X168718572Y-43386247D02*
X168718572Y-43243390D01*
X168718572Y-43243390D02*
X168766191Y-43052914D01*
X168766191Y-43052914D02*
X168813810Y-42957676D01*
X168813810Y-42957676D02*
X168909048Y-42862438D01*
X168909048Y-42862438D02*
X169051905Y-42814819D01*
X169051905Y-42814819D02*
X169147143Y-42814819D01*
X169147143Y-42814819D02*
X169290000Y-42862438D01*
X169290000Y-42862438D02*
X169337619Y-42910057D01*
X169718572Y-43529104D02*
X170194762Y-43529104D01*
X169623334Y-43814819D02*
X169956667Y-42814819D01*
X169956667Y-42814819D02*
X170290000Y-43814819D01*
X170623334Y-43814819D02*
X170623334Y-42814819D01*
X170623334Y-42814819D02*
X170956667Y-43529104D01*
X170956667Y-43529104D02*
X171290000Y-42814819D01*
X171290000Y-42814819D02*
X171290000Y-43814819D01*
X171766191Y-43433866D02*
X172528096Y-43433866D01*
X173004286Y-43814819D02*
X173004286Y-42814819D01*
X173004286Y-42814819D02*
X173337619Y-43529104D01*
X173337619Y-43529104D02*
X173670952Y-42814819D01*
X173670952Y-42814819D02*
X173670952Y-43814819D01*
X174290000Y-43243390D02*
X174194762Y-43195771D01*
X174194762Y-43195771D02*
X174147143Y-43148152D01*
X174147143Y-43148152D02*
X174099524Y-43052914D01*
X174099524Y-43052914D02*
X174099524Y-43005295D01*
X174099524Y-43005295D02*
X174147143Y-42910057D01*
X174147143Y-42910057D02*
X174194762Y-42862438D01*
X174194762Y-42862438D02*
X174290000Y-42814819D01*
X174290000Y-42814819D02*
X174480476Y-42814819D01*
X174480476Y-42814819D02*
X174575714Y-42862438D01*
X174575714Y-42862438D02*
X174623333Y-42910057D01*
X174623333Y-42910057D02*
X174670952Y-43005295D01*
X174670952Y-43005295D02*
X174670952Y-43052914D01*
X174670952Y-43052914D02*
X174623333Y-43148152D01*
X174623333Y-43148152D02*
X174575714Y-43195771D01*
X174575714Y-43195771D02*
X174480476Y-43243390D01*
X174480476Y-43243390D02*
X174290000Y-43243390D01*
X174290000Y-43243390D02*
X174194762Y-43291009D01*
X174194762Y-43291009D02*
X174147143Y-43338628D01*
X174147143Y-43338628D02*
X174099524Y-43433866D01*
X174099524Y-43433866D02*
X174099524Y-43624342D01*
X174099524Y-43624342D02*
X174147143Y-43719580D01*
X174147143Y-43719580D02*
X174194762Y-43767200D01*
X174194762Y-43767200D02*
X174290000Y-43814819D01*
X174290000Y-43814819D02*
X174480476Y-43814819D01*
X174480476Y-43814819D02*
X174575714Y-43767200D01*
X174575714Y-43767200D02*
X174623333Y-43719580D01*
X174623333Y-43719580D02*
X174670952Y-43624342D01*
X174670952Y-43624342D02*
X174670952Y-43433866D01*
X174670952Y-43433866D02*
X174623333Y-43338628D01*
X174623333Y-43338628D02*
X174575714Y-43291009D01*
X174575714Y-43291009D02*
X174480476Y-43243390D01*
X175670952Y-43719580D02*
X175623333Y-43767200D01*
X175623333Y-43767200D02*
X175480476Y-43814819D01*
X175480476Y-43814819D02*
X175385238Y-43814819D01*
X175385238Y-43814819D02*
X175242381Y-43767200D01*
X175242381Y-43767200D02*
X175147143Y-43671961D01*
X175147143Y-43671961D02*
X175099524Y-43576723D01*
X175099524Y-43576723D02*
X175051905Y-43386247D01*
X175051905Y-43386247D02*
X175051905Y-43243390D01*
X175051905Y-43243390D02*
X175099524Y-43052914D01*
X175099524Y-43052914D02*
X175147143Y-42957676D01*
X175147143Y-42957676D02*
X175242381Y-42862438D01*
X175242381Y-42862438D02*
X175385238Y-42814819D01*
X175385238Y-42814819D02*
X175480476Y-42814819D01*
X175480476Y-42814819D02*
X175623333Y-42862438D01*
X175623333Y-42862438D02*
X175670952Y-42910057D01*
X176099524Y-43433866D02*
X176861429Y-43433866D01*
X177528095Y-42814819D02*
X177623333Y-42814819D01*
X177623333Y-42814819D02*
X177718571Y-42862438D01*
X177718571Y-42862438D02*
X177766190Y-42910057D01*
X177766190Y-42910057D02*
X177813809Y-43005295D01*
X177813809Y-43005295D02*
X177861428Y-43195771D01*
X177861428Y-43195771D02*
X177861428Y-43433866D01*
X177861428Y-43433866D02*
X177813809Y-43624342D01*
X177813809Y-43624342D02*
X177766190Y-43719580D01*
X177766190Y-43719580D02*
X177718571Y-43767200D01*
X177718571Y-43767200D02*
X177623333Y-43814819D01*
X177623333Y-43814819D02*
X177528095Y-43814819D01*
X177528095Y-43814819D02*
X177432857Y-43767200D01*
X177432857Y-43767200D02*
X177385238Y-43719580D01*
X177385238Y-43719580D02*
X177337619Y-43624342D01*
X177337619Y-43624342D02*
X177290000Y-43433866D01*
X177290000Y-43433866D02*
X177290000Y-43195771D01*
X177290000Y-43195771D02*
X177337619Y-43005295D01*
X177337619Y-43005295D02*
X177385238Y-42910057D01*
X177385238Y-42910057D02*
X177432857Y-42862438D01*
X177432857Y-42862438D02*
X177528095Y-42814819D01*
X173290000Y-42814819D02*
X173290000Y-43052914D01*
X173051905Y-42957676D02*
X173290000Y-43052914D01*
X173290000Y-43052914D02*
X173528095Y-42957676D01*
X173147143Y-43243390D02*
X173290000Y-43052914D01*
X173290000Y-43052914D02*
X173432857Y-43243390D01*
%TO.C,C7*%
X185385833Y-53719580D02*
X185338214Y-53767200D01*
X185338214Y-53767200D02*
X185195357Y-53814819D01*
X185195357Y-53814819D02*
X185100119Y-53814819D01*
X185100119Y-53814819D02*
X184957262Y-53767200D01*
X184957262Y-53767200D02*
X184862024Y-53671961D01*
X184862024Y-53671961D02*
X184814405Y-53576723D01*
X184814405Y-53576723D02*
X184766786Y-53386247D01*
X184766786Y-53386247D02*
X184766786Y-53243390D01*
X184766786Y-53243390D02*
X184814405Y-53052914D01*
X184814405Y-53052914D02*
X184862024Y-52957676D01*
X184862024Y-52957676D02*
X184957262Y-52862438D01*
X184957262Y-52862438D02*
X185100119Y-52814819D01*
X185100119Y-52814819D02*
X185195357Y-52814819D01*
X185195357Y-52814819D02*
X185338214Y-52862438D01*
X185338214Y-52862438D02*
X185385833Y-52910057D01*
X185719167Y-52814819D02*
X186385833Y-52814819D01*
X186385833Y-52814819D02*
X185957262Y-53814819D01*
%TO.C,R2*%
X187111333Y-57377819D02*
X186778000Y-56901628D01*
X186539905Y-57377819D02*
X186539905Y-56377819D01*
X186539905Y-56377819D02*
X186920857Y-56377819D01*
X186920857Y-56377819D02*
X187016095Y-56425438D01*
X187016095Y-56425438D02*
X187063714Y-56473057D01*
X187063714Y-56473057D02*
X187111333Y-56568295D01*
X187111333Y-56568295D02*
X187111333Y-56711152D01*
X187111333Y-56711152D02*
X187063714Y-56806390D01*
X187063714Y-56806390D02*
X187016095Y-56854009D01*
X187016095Y-56854009D02*
X186920857Y-56901628D01*
X186920857Y-56901628D02*
X186539905Y-56901628D01*
X187492286Y-56473057D02*
X187539905Y-56425438D01*
X187539905Y-56425438D02*
X187635143Y-56377819D01*
X187635143Y-56377819D02*
X187873238Y-56377819D01*
X187873238Y-56377819D02*
X187968476Y-56425438D01*
X187968476Y-56425438D02*
X188016095Y-56473057D01*
X188016095Y-56473057D02*
X188063714Y-56568295D01*
X188063714Y-56568295D02*
X188063714Y-56663533D01*
X188063714Y-56663533D02*
X188016095Y-56806390D01*
X188016095Y-56806390D02*
X187444667Y-57377819D01*
X187444667Y-57377819D02*
X188063714Y-57377819D01*
%TO.C,J3*%
X154066666Y-75474819D02*
X154066666Y-76189104D01*
X154066666Y-76189104D02*
X154019047Y-76331961D01*
X154019047Y-76331961D02*
X153923809Y-76427200D01*
X153923809Y-76427200D02*
X153780952Y-76474819D01*
X153780952Y-76474819D02*
X153685714Y-76474819D01*
X154447619Y-75474819D02*
X155066666Y-75474819D01*
X155066666Y-75474819D02*
X154733333Y-75855771D01*
X154733333Y-75855771D02*
X154876190Y-75855771D01*
X154876190Y-75855771D02*
X154971428Y-75903390D01*
X154971428Y-75903390D02*
X155019047Y-75951009D01*
X155019047Y-75951009D02*
X155066666Y-76046247D01*
X155066666Y-76046247D02*
X155066666Y-76284342D01*
X155066666Y-76284342D02*
X155019047Y-76379580D01*
X155019047Y-76379580D02*
X154971428Y-76427200D01*
X154971428Y-76427200D02*
X154876190Y-76474819D01*
X154876190Y-76474819D02*
X154590476Y-76474819D01*
X154590476Y-76474819D02*
X154495238Y-76427200D01*
X154495238Y-76427200D02*
X154447619Y-76379580D01*
%TO.C,FID2*%
X132468571Y-66041009D02*
X132135238Y-66041009D01*
X132135238Y-66564819D02*
X132135238Y-65564819D01*
X132135238Y-65564819D02*
X132611428Y-65564819D01*
X132992381Y-66564819D02*
X132992381Y-65564819D01*
X133468571Y-66564819D02*
X133468571Y-65564819D01*
X133468571Y-65564819D02*
X133706666Y-65564819D01*
X133706666Y-65564819D02*
X133849523Y-65612438D01*
X133849523Y-65612438D02*
X133944761Y-65707676D01*
X133944761Y-65707676D02*
X133992380Y-65802914D01*
X133992380Y-65802914D02*
X134039999Y-65993390D01*
X134039999Y-65993390D02*
X134039999Y-66136247D01*
X134039999Y-66136247D02*
X133992380Y-66326723D01*
X133992380Y-66326723D02*
X133944761Y-66421961D01*
X133944761Y-66421961D02*
X133849523Y-66517200D01*
X133849523Y-66517200D02*
X133706666Y-66564819D01*
X133706666Y-66564819D02*
X133468571Y-66564819D01*
X134420952Y-65660057D02*
X134468571Y-65612438D01*
X134468571Y-65612438D02*
X134563809Y-65564819D01*
X134563809Y-65564819D02*
X134801904Y-65564819D01*
X134801904Y-65564819D02*
X134897142Y-65612438D01*
X134897142Y-65612438D02*
X134944761Y-65660057D01*
X134944761Y-65660057D02*
X134992380Y-65755295D01*
X134992380Y-65755295D02*
X134992380Y-65850533D01*
X134992380Y-65850533D02*
X134944761Y-65993390D01*
X134944761Y-65993390D02*
X134373333Y-66564819D01*
X134373333Y-66564819D02*
X134992380Y-66564819D01*
%TO.C,C12*%
X181694580Y-47696357D02*
X181742200Y-47743976D01*
X181742200Y-47743976D02*
X181789819Y-47886833D01*
X181789819Y-47886833D02*
X181789819Y-47982071D01*
X181789819Y-47982071D02*
X181742200Y-48124928D01*
X181742200Y-48124928D02*
X181646961Y-48220166D01*
X181646961Y-48220166D02*
X181551723Y-48267785D01*
X181551723Y-48267785D02*
X181361247Y-48315404D01*
X181361247Y-48315404D02*
X181218390Y-48315404D01*
X181218390Y-48315404D02*
X181027914Y-48267785D01*
X181027914Y-48267785D02*
X180932676Y-48220166D01*
X180932676Y-48220166D02*
X180837438Y-48124928D01*
X180837438Y-48124928D02*
X180789819Y-47982071D01*
X180789819Y-47982071D02*
X180789819Y-47886833D01*
X180789819Y-47886833D02*
X180837438Y-47743976D01*
X180837438Y-47743976D02*
X180885057Y-47696357D01*
X181789819Y-46743976D02*
X181789819Y-47315404D01*
X181789819Y-47029690D02*
X180789819Y-47029690D01*
X180789819Y-47029690D02*
X180932676Y-47124928D01*
X180932676Y-47124928D02*
X181027914Y-47220166D01*
X181027914Y-47220166D02*
X181075533Y-47315404D01*
X180885057Y-46363023D02*
X180837438Y-46315404D01*
X180837438Y-46315404D02*
X180789819Y-46220166D01*
X180789819Y-46220166D02*
X180789819Y-45982071D01*
X180789819Y-45982071D02*
X180837438Y-45886833D01*
X180837438Y-45886833D02*
X180885057Y-45839214D01*
X180885057Y-45839214D02*
X180980295Y-45791595D01*
X180980295Y-45791595D02*
X181075533Y-45791595D01*
X181075533Y-45791595D02*
X181218390Y-45839214D01*
X181218390Y-45839214D02*
X181789819Y-46410642D01*
X181789819Y-46410642D02*
X181789819Y-45791595D01*
%TO.C,D3*%
X164994819Y-58598094D02*
X163994819Y-58598094D01*
X163994819Y-58598094D02*
X163994819Y-58359999D01*
X163994819Y-58359999D02*
X164042438Y-58217142D01*
X164042438Y-58217142D02*
X164137676Y-58121904D01*
X164137676Y-58121904D02*
X164232914Y-58074285D01*
X164232914Y-58074285D02*
X164423390Y-58026666D01*
X164423390Y-58026666D02*
X164566247Y-58026666D01*
X164566247Y-58026666D02*
X164756723Y-58074285D01*
X164756723Y-58074285D02*
X164851961Y-58121904D01*
X164851961Y-58121904D02*
X164947200Y-58217142D01*
X164947200Y-58217142D02*
X164994819Y-58359999D01*
X164994819Y-58359999D02*
X164994819Y-58598094D01*
X163994819Y-57693332D02*
X163994819Y-57074285D01*
X163994819Y-57074285D02*
X164375771Y-57407618D01*
X164375771Y-57407618D02*
X164375771Y-57264761D01*
X164375771Y-57264761D02*
X164423390Y-57169523D01*
X164423390Y-57169523D02*
X164471009Y-57121904D01*
X164471009Y-57121904D02*
X164566247Y-57074285D01*
X164566247Y-57074285D02*
X164804342Y-57074285D01*
X164804342Y-57074285D02*
X164899580Y-57121904D01*
X164899580Y-57121904D02*
X164947200Y-57169523D01*
X164947200Y-57169523D02*
X164994819Y-57264761D01*
X164994819Y-57264761D02*
X164994819Y-57550475D01*
X164994819Y-57550475D02*
X164947200Y-57645713D01*
X164947200Y-57645713D02*
X164899580Y-57693332D01*
%TO.C,FID1*%
X161218571Y-52791009D02*
X160885238Y-52791009D01*
X160885238Y-53314819D02*
X160885238Y-52314819D01*
X160885238Y-52314819D02*
X161361428Y-52314819D01*
X161742381Y-53314819D02*
X161742381Y-52314819D01*
X162218571Y-53314819D02*
X162218571Y-52314819D01*
X162218571Y-52314819D02*
X162456666Y-52314819D01*
X162456666Y-52314819D02*
X162599523Y-52362438D01*
X162599523Y-52362438D02*
X162694761Y-52457676D01*
X162694761Y-52457676D02*
X162742380Y-52552914D01*
X162742380Y-52552914D02*
X162789999Y-52743390D01*
X162789999Y-52743390D02*
X162789999Y-52886247D01*
X162789999Y-52886247D02*
X162742380Y-53076723D01*
X162742380Y-53076723D02*
X162694761Y-53171961D01*
X162694761Y-53171961D02*
X162599523Y-53267200D01*
X162599523Y-53267200D02*
X162456666Y-53314819D01*
X162456666Y-53314819D02*
X162218571Y-53314819D01*
X163742380Y-53314819D02*
X163170952Y-53314819D01*
X163456666Y-53314819D02*
X163456666Y-52314819D01*
X163456666Y-52314819D02*
X163361428Y-52457676D01*
X163361428Y-52457676D02*
X163266190Y-52552914D01*
X163266190Y-52552914D02*
X163170952Y-52600533D01*
%TO.C,FID3*%
X185718571Y-53041009D02*
X185385238Y-53041009D01*
X185385238Y-53564819D02*
X185385238Y-52564819D01*
X185385238Y-52564819D02*
X185861428Y-52564819D01*
X186242381Y-53564819D02*
X186242381Y-52564819D01*
X186718571Y-53564819D02*
X186718571Y-52564819D01*
X186718571Y-52564819D02*
X186956666Y-52564819D01*
X186956666Y-52564819D02*
X187099523Y-52612438D01*
X187099523Y-52612438D02*
X187194761Y-52707676D01*
X187194761Y-52707676D02*
X187242380Y-52802914D01*
X187242380Y-52802914D02*
X187289999Y-52993390D01*
X187289999Y-52993390D02*
X187289999Y-53136247D01*
X187289999Y-53136247D02*
X187242380Y-53326723D01*
X187242380Y-53326723D02*
X187194761Y-53421961D01*
X187194761Y-53421961D02*
X187099523Y-53517200D01*
X187099523Y-53517200D02*
X186956666Y-53564819D01*
X186956666Y-53564819D02*
X186718571Y-53564819D01*
X187623333Y-52564819D02*
X188242380Y-52564819D01*
X188242380Y-52564819D02*
X187909047Y-52945771D01*
X187909047Y-52945771D02*
X188051904Y-52945771D01*
X188051904Y-52945771D02*
X188147142Y-52993390D01*
X188147142Y-52993390D02*
X188194761Y-53041009D01*
X188194761Y-53041009D02*
X188242380Y-53136247D01*
X188242380Y-53136247D02*
X188242380Y-53374342D01*
X188242380Y-53374342D02*
X188194761Y-53469580D01*
X188194761Y-53469580D02*
X188147142Y-53517200D01*
X188147142Y-53517200D02*
X188051904Y-53564819D01*
X188051904Y-53564819D02*
X187766190Y-53564819D01*
X187766190Y-53564819D02*
X187670952Y-53517200D01*
X187670952Y-53517200D02*
X187623333Y-53469580D01*
%TO.C,C5*%
X180160833Y-67789580D02*
X180113214Y-67837200D01*
X180113214Y-67837200D02*
X179970357Y-67884819D01*
X179970357Y-67884819D02*
X179875119Y-67884819D01*
X179875119Y-67884819D02*
X179732262Y-67837200D01*
X179732262Y-67837200D02*
X179637024Y-67741961D01*
X179637024Y-67741961D02*
X179589405Y-67646723D01*
X179589405Y-67646723D02*
X179541786Y-67456247D01*
X179541786Y-67456247D02*
X179541786Y-67313390D01*
X179541786Y-67313390D02*
X179589405Y-67122914D01*
X179589405Y-67122914D02*
X179637024Y-67027676D01*
X179637024Y-67027676D02*
X179732262Y-66932438D01*
X179732262Y-66932438D02*
X179875119Y-66884819D01*
X179875119Y-66884819D02*
X179970357Y-66884819D01*
X179970357Y-66884819D02*
X180113214Y-66932438D01*
X180113214Y-66932438D02*
X180160833Y-66980057D01*
X181065595Y-66884819D02*
X180589405Y-66884819D01*
X180589405Y-66884819D02*
X180541786Y-67361009D01*
X180541786Y-67361009D02*
X180589405Y-67313390D01*
X180589405Y-67313390D02*
X180684643Y-67265771D01*
X180684643Y-67265771D02*
X180922738Y-67265771D01*
X180922738Y-67265771D02*
X181017976Y-67313390D01*
X181017976Y-67313390D02*
X181065595Y-67361009D01*
X181065595Y-67361009D02*
X181113214Y-67456247D01*
X181113214Y-67456247D02*
X181113214Y-67694342D01*
X181113214Y-67694342D02*
X181065595Y-67789580D01*
X181065595Y-67789580D02*
X181017976Y-67837200D01*
X181017976Y-67837200D02*
X180922738Y-67884819D01*
X180922738Y-67884819D02*
X180684643Y-67884819D01*
X180684643Y-67884819D02*
X180589405Y-67837200D01*
X180589405Y-67837200D02*
X180541786Y-67789580D01*
%TO.C,D5*%
X143744819Y-59848094D02*
X142744819Y-59848094D01*
X142744819Y-59848094D02*
X142744819Y-59609999D01*
X142744819Y-59609999D02*
X142792438Y-59467142D01*
X142792438Y-59467142D02*
X142887676Y-59371904D01*
X142887676Y-59371904D02*
X142982914Y-59324285D01*
X142982914Y-59324285D02*
X143173390Y-59276666D01*
X143173390Y-59276666D02*
X143316247Y-59276666D01*
X143316247Y-59276666D02*
X143506723Y-59324285D01*
X143506723Y-59324285D02*
X143601961Y-59371904D01*
X143601961Y-59371904D02*
X143697200Y-59467142D01*
X143697200Y-59467142D02*
X143744819Y-59609999D01*
X143744819Y-59609999D02*
X143744819Y-59848094D01*
X142744819Y-58371904D02*
X142744819Y-58848094D01*
X142744819Y-58848094D02*
X143221009Y-58895713D01*
X143221009Y-58895713D02*
X143173390Y-58848094D01*
X143173390Y-58848094D02*
X143125771Y-58752856D01*
X143125771Y-58752856D02*
X143125771Y-58514761D01*
X143125771Y-58514761D02*
X143173390Y-58419523D01*
X143173390Y-58419523D02*
X143221009Y-58371904D01*
X143221009Y-58371904D02*
X143316247Y-58324285D01*
X143316247Y-58324285D02*
X143554342Y-58324285D01*
X143554342Y-58324285D02*
X143649580Y-58371904D01*
X143649580Y-58371904D02*
X143697200Y-58419523D01*
X143697200Y-58419523D02*
X143744819Y-58514761D01*
X143744819Y-58514761D02*
X143744819Y-58752856D01*
X143744819Y-58752856D02*
X143697200Y-58848094D01*
X143697200Y-58848094D02*
X143649580Y-58895713D01*
%TO.C,F1*%
X136219166Y-42511009D02*
X135885833Y-42511009D01*
X135885833Y-43034819D02*
X135885833Y-42034819D01*
X135885833Y-42034819D02*
X136362023Y-42034819D01*
X137266785Y-43034819D02*
X136695357Y-43034819D01*
X136981071Y-43034819D02*
X136981071Y-42034819D01*
X136981071Y-42034819D02*
X136885833Y-42177676D01*
X136885833Y-42177676D02*
X136790595Y-42272914D01*
X136790595Y-42272914D02*
X136695357Y-42320533D01*
%TO.C,R3*%
X164373333Y-60164819D02*
X164040000Y-59688628D01*
X163801905Y-60164819D02*
X163801905Y-59164819D01*
X163801905Y-59164819D02*
X164182857Y-59164819D01*
X164182857Y-59164819D02*
X164278095Y-59212438D01*
X164278095Y-59212438D02*
X164325714Y-59260057D01*
X164325714Y-59260057D02*
X164373333Y-59355295D01*
X164373333Y-59355295D02*
X164373333Y-59498152D01*
X164373333Y-59498152D02*
X164325714Y-59593390D01*
X164325714Y-59593390D02*
X164278095Y-59641009D01*
X164278095Y-59641009D02*
X164182857Y-59688628D01*
X164182857Y-59688628D02*
X163801905Y-59688628D01*
X164706667Y-59164819D02*
X165325714Y-59164819D01*
X165325714Y-59164819D02*
X164992381Y-59545771D01*
X164992381Y-59545771D02*
X165135238Y-59545771D01*
X165135238Y-59545771D02*
X165230476Y-59593390D01*
X165230476Y-59593390D02*
X165278095Y-59641009D01*
X165278095Y-59641009D02*
X165325714Y-59736247D01*
X165325714Y-59736247D02*
X165325714Y-59974342D01*
X165325714Y-59974342D02*
X165278095Y-60069580D01*
X165278095Y-60069580D02*
X165230476Y-60117200D01*
X165230476Y-60117200D02*
X165135238Y-60164819D01*
X165135238Y-60164819D02*
X164849524Y-60164819D01*
X164849524Y-60164819D02*
X164754286Y-60117200D01*
X164754286Y-60117200D02*
X164706667Y-60069580D01*
%TO.C,R8*%
X164373333Y-64164819D02*
X164040000Y-63688628D01*
X163801905Y-64164819D02*
X163801905Y-63164819D01*
X163801905Y-63164819D02*
X164182857Y-63164819D01*
X164182857Y-63164819D02*
X164278095Y-63212438D01*
X164278095Y-63212438D02*
X164325714Y-63260057D01*
X164325714Y-63260057D02*
X164373333Y-63355295D01*
X164373333Y-63355295D02*
X164373333Y-63498152D01*
X164373333Y-63498152D02*
X164325714Y-63593390D01*
X164325714Y-63593390D02*
X164278095Y-63641009D01*
X164278095Y-63641009D02*
X164182857Y-63688628D01*
X164182857Y-63688628D02*
X163801905Y-63688628D01*
X164944762Y-63593390D02*
X164849524Y-63545771D01*
X164849524Y-63545771D02*
X164801905Y-63498152D01*
X164801905Y-63498152D02*
X164754286Y-63402914D01*
X164754286Y-63402914D02*
X164754286Y-63355295D01*
X164754286Y-63355295D02*
X164801905Y-63260057D01*
X164801905Y-63260057D02*
X164849524Y-63212438D01*
X164849524Y-63212438D02*
X164944762Y-63164819D01*
X164944762Y-63164819D02*
X165135238Y-63164819D01*
X165135238Y-63164819D02*
X165230476Y-63212438D01*
X165230476Y-63212438D02*
X165278095Y-63260057D01*
X165278095Y-63260057D02*
X165325714Y-63355295D01*
X165325714Y-63355295D02*
X165325714Y-63402914D01*
X165325714Y-63402914D02*
X165278095Y-63498152D01*
X165278095Y-63498152D02*
X165230476Y-63545771D01*
X165230476Y-63545771D02*
X165135238Y-63593390D01*
X165135238Y-63593390D02*
X164944762Y-63593390D01*
X164944762Y-63593390D02*
X164849524Y-63641009D01*
X164849524Y-63641009D02*
X164801905Y-63688628D01*
X164801905Y-63688628D02*
X164754286Y-63783866D01*
X164754286Y-63783866D02*
X164754286Y-63974342D01*
X164754286Y-63974342D02*
X164801905Y-64069580D01*
X164801905Y-64069580D02*
X164849524Y-64117200D01*
X164849524Y-64117200D02*
X164944762Y-64164819D01*
X164944762Y-64164819D02*
X165135238Y-64164819D01*
X165135238Y-64164819D02*
X165230476Y-64117200D01*
X165230476Y-64117200D02*
X165278095Y-64069580D01*
X165278095Y-64069580D02*
X165325714Y-63974342D01*
X165325714Y-63974342D02*
X165325714Y-63783866D01*
X165325714Y-63783866D02*
X165278095Y-63688628D01*
X165278095Y-63688628D02*
X165230476Y-63641009D01*
X165230476Y-63641009D02*
X165135238Y-63593390D01*
%TO.C,C15*%
X178469580Y-48790357D02*
X178517200Y-48837976D01*
X178517200Y-48837976D02*
X178564819Y-48980833D01*
X178564819Y-48980833D02*
X178564819Y-49076071D01*
X178564819Y-49076071D02*
X178517200Y-49218928D01*
X178517200Y-49218928D02*
X178421961Y-49314166D01*
X178421961Y-49314166D02*
X178326723Y-49361785D01*
X178326723Y-49361785D02*
X178136247Y-49409404D01*
X178136247Y-49409404D02*
X177993390Y-49409404D01*
X177993390Y-49409404D02*
X177802914Y-49361785D01*
X177802914Y-49361785D02*
X177707676Y-49314166D01*
X177707676Y-49314166D02*
X177612438Y-49218928D01*
X177612438Y-49218928D02*
X177564819Y-49076071D01*
X177564819Y-49076071D02*
X177564819Y-48980833D01*
X177564819Y-48980833D02*
X177612438Y-48837976D01*
X177612438Y-48837976D02*
X177660057Y-48790357D01*
X178564819Y-47837976D02*
X178564819Y-48409404D01*
X178564819Y-48123690D02*
X177564819Y-48123690D01*
X177564819Y-48123690D02*
X177707676Y-48218928D01*
X177707676Y-48218928D02*
X177802914Y-48314166D01*
X177802914Y-48314166D02*
X177850533Y-48409404D01*
X177564819Y-46933214D02*
X177564819Y-47409404D01*
X177564819Y-47409404D02*
X178041009Y-47457023D01*
X178041009Y-47457023D02*
X177993390Y-47409404D01*
X177993390Y-47409404D02*
X177945771Y-47314166D01*
X177945771Y-47314166D02*
X177945771Y-47076071D01*
X177945771Y-47076071D02*
X177993390Y-46980833D01*
X177993390Y-46980833D02*
X178041009Y-46933214D01*
X178041009Y-46933214D02*
X178136247Y-46885595D01*
X178136247Y-46885595D02*
X178374342Y-46885595D01*
X178374342Y-46885595D02*
X178469580Y-46933214D01*
X178469580Y-46933214D02*
X178517200Y-46980833D01*
X178517200Y-46980833D02*
X178564819Y-47076071D01*
X178564819Y-47076071D02*
X178564819Y-47314166D01*
X178564819Y-47314166D02*
X178517200Y-47409404D01*
X178517200Y-47409404D02*
X178469580Y-47457023D01*
%TO.C,X1*%
X164005476Y-41314819D02*
X164672142Y-42314819D01*
X164672142Y-41314819D02*
X164005476Y-42314819D01*
X165576904Y-42314819D02*
X165005476Y-42314819D01*
X165291190Y-42314819D02*
X165291190Y-41314819D01*
X165291190Y-41314819D02*
X165195952Y-41457676D01*
X165195952Y-41457676D02*
X165100714Y-41552914D01*
X165100714Y-41552914D02*
X165005476Y-41600533D01*
%TO.C,J6*%
X189294819Y-44693333D02*
X190009104Y-44693333D01*
X190009104Y-44693333D02*
X190151961Y-44740952D01*
X190151961Y-44740952D02*
X190247200Y-44836190D01*
X190247200Y-44836190D02*
X190294819Y-44979047D01*
X190294819Y-44979047D02*
X190294819Y-45074285D01*
X189294819Y-43788571D02*
X189294819Y-43979047D01*
X189294819Y-43979047D02*
X189342438Y-44074285D01*
X189342438Y-44074285D02*
X189390057Y-44121904D01*
X189390057Y-44121904D02*
X189532914Y-44217142D01*
X189532914Y-44217142D02*
X189723390Y-44264761D01*
X189723390Y-44264761D02*
X190104342Y-44264761D01*
X190104342Y-44264761D02*
X190199580Y-44217142D01*
X190199580Y-44217142D02*
X190247200Y-44169523D01*
X190247200Y-44169523D02*
X190294819Y-44074285D01*
X190294819Y-44074285D02*
X190294819Y-43883809D01*
X190294819Y-43883809D02*
X190247200Y-43788571D01*
X190247200Y-43788571D02*
X190199580Y-43740952D01*
X190199580Y-43740952D02*
X190104342Y-43693333D01*
X190104342Y-43693333D02*
X189866247Y-43693333D01*
X189866247Y-43693333D02*
X189771009Y-43740952D01*
X189771009Y-43740952D02*
X189723390Y-43788571D01*
X189723390Y-43788571D02*
X189675771Y-43883809D01*
X189675771Y-43883809D02*
X189675771Y-44074285D01*
X189675771Y-44074285D02*
X189723390Y-44169523D01*
X189723390Y-44169523D02*
X189771009Y-44217142D01*
X189771009Y-44217142D02*
X189866247Y-44264761D01*
%TO.C,R4*%
X163054819Y-48621666D02*
X162578628Y-48954999D01*
X163054819Y-49193094D02*
X162054819Y-49193094D01*
X162054819Y-49193094D02*
X162054819Y-48812142D01*
X162054819Y-48812142D02*
X162102438Y-48716904D01*
X162102438Y-48716904D02*
X162150057Y-48669285D01*
X162150057Y-48669285D02*
X162245295Y-48621666D01*
X162245295Y-48621666D02*
X162388152Y-48621666D01*
X162388152Y-48621666D02*
X162483390Y-48669285D01*
X162483390Y-48669285D02*
X162531009Y-48716904D01*
X162531009Y-48716904D02*
X162578628Y-48812142D01*
X162578628Y-48812142D02*
X162578628Y-49193094D01*
X162388152Y-47764523D02*
X163054819Y-47764523D01*
X162007200Y-48002618D02*
X162721485Y-48240713D01*
X162721485Y-48240713D02*
X162721485Y-47621666D01*
%TO.C,L1*%
X141094819Y-53714166D02*
X141094819Y-54190356D01*
X141094819Y-54190356D02*
X140094819Y-54190356D01*
X141094819Y-52857023D02*
X141094819Y-53428451D01*
X141094819Y-53142737D02*
X140094819Y-53142737D01*
X140094819Y-53142737D02*
X140237676Y-53237975D01*
X140237676Y-53237975D02*
X140332914Y-53333213D01*
X140332914Y-53333213D02*
X140380533Y-53428451D01*
%TO.C,C10*%
X149219580Y-45777857D02*
X149267200Y-45825476D01*
X149267200Y-45825476D02*
X149314819Y-45968333D01*
X149314819Y-45968333D02*
X149314819Y-46063571D01*
X149314819Y-46063571D02*
X149267200Y-46206428D01*
X149267200Y-46206428D02*
X149171961Y-46301666D01*
X149171961Y-46301666D02*
X149076723Y-46349285D01*
X149076723Y-46349285D02*
X148886247Y-46396904D01*
X148886247Y-46396904D02*
X148743390Y-46396904D01*
X148743390Y-46396904D02*
X148552914Y-46349285D01*
X148552914Y-46349285D02*
X148457676Y-46301666D01*
X148457676Y-46301666D02*
X148362438Y-46206428D01*
X148362438Y-46206428D02*
X148314819Y-46063571D01*
X148314819Y-46063571D02*
X148314819Y-45968333D01*
X148314819Y-45968333D02*
X148362438Y-45825476D01*
X148362438Y-45825476D02*
X148410057Y-45777857D01*
X149314819Y-44825476D02*
X149314819Y-45396904D01*
X149314819Y-45111190D02*
X148314819Y-45111190D01*
X148314819Y-45111190D02*
X148457676Y-45206428D01*
X148457676Y-45206428D02*
X148552914Y-45301666D01*
X148552914Y-45301666D02*
X148600533Y-45396904D01*
X148314819Y-44206428D02*
X148314819Y-44111190D01*
X148314819Y-44111190D02*
X148362438Y-44015952D01*
X148362438Y-44015952D02*
X148410057Y-43968333D01*
X148410057Y-43968333D02*
X148505295Y-43920714D01*
X148505295Y-43920714D02*
X148695771Y-43873095D01*
X148695771Y-43873095D02*
X148933866Y-43873095D01*
X148933866Y-43873095D02*
X149124342Y-43920714D01*
X149124342Y-43920714D02*
X149219580Y-43968333D01*
X149219580Y-43968333D02*
X149267200Y-44015952D01*
X149267200Y-44015952D02*
X149314819Y-44111190D01*
X149314819Y-44111190D02*
X149314819Y-44206428D01*
X149314819Y-44206428D02*
X149267200Y-44301666D01*
X149267200Y-44301666D02*
X149219580Y-44349285D01*
X149219580Y-44349285D02*
X149124342Y-44396904D01*
X149124342Y-44396904D02*
X148933866Y-44444523D01*
X148933866Y-44444523D02*
X148695771Y-44444523D01*
X148695771Y-44444523D02*
X148505295Y-44396904D01*
X148505295Y-44396904D02*
X148410057Y-44349285D01*
X148410057Y-44349285D02*
X148362438Y-44301666D01*
X148362438Y-44301666D02*
X148314819Y-44206428D01*
%TO.C,C1*%
X164410833Y-62039580D02*
X164363214Y-62087200D01*
X164363214Y-62087200D02*
X164220357Y-62134819D01*
X164220357Y-62134819D02*
X164125119Y-62134819D01*
X164125119Y-62134819D02*
X163982262Y-62087200D01*
X163982262Y-62087200D02*
X163887024Y-61991961D01*
X163887024Y-61991961D02*
X163839405Y-61896723D01*
X163839405Y-61896723D02*
X163791786Y-61706247D01*
X163791786Y-61706247D02*
X163791786Y-61563390D01*
X163791786Y-61563390D02*
X163839405Y-61372914D01*
X163839405Y-61372914D02*
X163887024Y-61277676D01*
X163887024Y-61277676D02*
X163982262Y-61182438D01*
X163982262Y-61182438D02*
X164125119Y-61134819D01*
X164125119Y-61134819D02*
X164220357Y-61134819D01*
X164220357Y-61134819D02*
X164363214Y-61182438D01*
X164363214Y-61182438D02*
X164410833Y-61230057D01*
X165363214Y-62134819D02*
X164791786Y-62134819D01*
X165077500Y-62134819D02*
X165077500Y-61134819D01*
X165077500Y-61134819D02*
X164982262Y-61277676D01*
X164982262Y-61277676D02*
X164887024Y-61372914D01*
X164887024Y-61372914D02*
X164791786Y-61420533D01*
%TO.C,C3*%
X136173333Y-46769580D02*
X136125714Y-46817200D01*
X136125714Y-46817200D02*
X135982857Y-46864819D01*
X135982857Y-46864819D02*
X135887619Y-46864819D01*
X135887619Y-46864819D02*
X135744762Y-46817200D01*
X135744762Y-46817200D02*
X135649524Y-46721961D01*
X135649524Y-46721961D02*
X135601905Y-46626723D01*
X135601905Y-46626723D02*
X135554286Y-46436247D01*
X135554286Y-46436247D02*
X135554286Y-46293390D01*
X135554286Y-46293390D02*
X135601905Y-46102914D01*
X135601905Y-46102914D02*
X135649524Y-46007676D01*
X135649524Y-46007676D02*
X135744762Y-45912438D01*
X135744762Y-45912438D02*
X135887619Y-45864819D01*
X135887619Y-45864819D02*
X135982857Y-45864819D01*
X135982857Y-45864819D02*
X136125714Y-45912438D01*
X136125714Y-45912438D02*
X136173333Y-45960057D01*
X136506667Y-45864819D02*
X137125714Y-45864819D01*
X137125714Y-45864819D02*
X136792381Y-46245771D01*
X136792381Y-46245771D02*
X136935238Y-46245771D01*
X136935238Y-46245771D02*
X137030476Y-46293390D01*
X137030476Y-46293390D02*
X137078095Y-46341009D01*
X137078095Y-46341009D02*
X137125714Y-46436247D01*
X137125714Y-46436247D02*
X137125714Y-46674342D01*
X137125714Y-46674342D02*
X137078095Y-46769580D01*
X137078095Y-46769580D02*
X137030476Y-46817200D01*
X137030476Y-46817200D02*
X136935238Y-46864819D01*
X136935238Y-46864819D02*
X136649524Y-46864819D01*
X136649524Y-46864819D02*
X136554286Y-46817200D01*
X136554286Y-46817200D02*
X136506667Y-46769580D01*
%TO.C,J4*%
X146706666Y-34858819D02*
X146706666Y-35573104D01*
X146706666Y-35573104D02*
X146659047Y-35715961D01*
X146659047Y-35715961D02*
X146563809Y-35811200D01*
X146563809Y-35811200D02*
X146420952Y-35858819D01*
X146420952Y-35858819D02*
X146325714Y-35858819D01*
X147611428Y-35192152D02*
X147611428Y-35858819D01*
X147373333Y-34811200D02*
X147135238Y-35525485D01*
X147135238Y-35525485D02*
X147754285Y-35525485D01*
%TO.C,C2*%
X159160833Y-61539580D02*
X159113214Y-61587200D01*
X159113214Y-61587200D02*
X158970357Y-61634819D01*
X158970357Y-61634819D02*
X158875119Y-61634819D01*
X158875119Y-61634819D02*
X158732262Y-61587200D01*
X158732262Y-61587200D02*
X158637024Y-61491961D01*
X158637024Y-61491961D02*
X158589405Y-61396723D01*
X158589405Y-61396723D02*
X158541786Y-61206247D01*
X158541786Y-61206247D02*
X158541786Y-61063390D01*
X158541786Y-61063390D02*
X158589405Y-60872914D01*
X158589405Y-60872914D02*
X158637024Y-60777676D01*
X158637024Y-60777676D02*
X158732262Y-60682438D01*
X158732262Y-60682438D02*
X158875119Y-60634819D01*
X158875119Y-60634819D02*
X158970357Y-60634819D01*
X158970357Y-60634819D02*
X159113214Y-60682438D01*
X159113214Y-60682438D02*
X159160833Y-60730057D01*
X159541786Y-60730057D02*
X159589405Y-60682438D01*
X159589405Y-60682438D02*
X159684643Y-60634819D01*
X159684643Y-60634819D02*
X159922738Y-60634819D01*
X159922738Y-60634819D02*
X160017976Y-60682438D01*
X160017976Y-60682438D02*
X160065595Y-60730057D01*
X160065595Y-60730057D02*
X160113214Y-60825295D01*
X160113214Y-60825295D02*
X160113214Y-60920533D01*
X160113214Y-60920533D02*
X160065595Y-61063390D01*
X160065595Y-61063390D02*
X159494167Y-61634819D01*
X159494167Y-61634819D02*
X160113214Y-61634819D01*
%TO.C,C4*%
X138969580Y-53564166D02*
X139017200Y-53611785D01*
X139017200Y-53611785D02*
X139064819Y-53754642D01*
X139064819Y-53754642D02*
X139064819Y-53849880D01*
X139064819Y-53849880D02*
X139017200Y-53992737D01*
X139017200Y-53992737D02*
X138921961Y-54087975D01*
X138921961Y-54087975D02*
X138826723Y-54135594D01*
X138826723Y-54135594D02*
X138636247Y-54183213D01*
X138636247Y-54183213D02*
X138493390Y-54183213D01*
X138493390Y-54183213D02*
X138302914Y-54135594D01*
X138302914Y-54135594D02*
X138207676Y-54087975D01*
X138207676Y-54087975D02*
X138112438Y-53992737D01*
X138112438Y-53992737D02*
X138064819Y-53849880D01*
X138064819Y-53849880D02*
X138064819Y-53754642D01*
X138064819Y-53754642D02*
X138112438Y-53611785D01*
X138112438Y-53611785D02*
X138160057Y-53564166D01*
X138398152Y-52707023D02*
X139064819Y-52707023D01*
X138017200Y-52945118D02*
X138731485Y-53183213D01*
X138731485Y-53183213D02*
X138731485Y-52564166D01*
%TO.C,C6*%
X150719580Y-53239166D02*
X150767200Y-53286785D01*
X150767200Y-53286785D02*
X150814819Y-53429642D01*
X150814819Y-53429642D02*
X150814819Y-53524880D01*
X150814819Y-53524880D02*
X150767200Y-53667737D01*
X150767200Y-53667737D02*
X150671961Y-53762975D01*
X150671961Y-53762975D02*
X150576723Y-53810594D01*
X150576723Y-53810594D02*
X150386247Y-53858213D01*
X150386247Y-53858213D02*
X150243390Y-53858213D01*
X150243390Y-53858213D02*
X150052914Y-53810594D01*
X150052914Y-53810594D02*
X149957676Y-53762975D01*
X149957676Y-53762975D02*
X149862438Y-53667737D01*
X149862438Y-53667737D02*
X149814819Y-53524880D01*
X149814819Y-53524880D02*
X149814819Y-53429642D01*
X149814819Y-53429642D02*
X149862438Y-53286785D01*
X149862438Y-53286785D02*
X149910057Y-53239166D01*
X149814819Y-52382023D02*
X149814819Y-52572499D01*
X149814819Y-52572499D02*
X149862438Y-52667737D01*
X149862438Y-52667737D02*
X149910057Y-52715356D01*
X149910057Y-52715356D02*
X150052914Y-52810594D01*
X150052914Y-52810594D02*
X150243390Y-52858213D01*
X150243390Y-52858213D02*
X150624342Y-52858213D01*
X150624342Y-52858213D02*
X150719580Y-52810594D01*
X150719580Y-52810594D02*
X150767200Y-52762975D01*
X150767200Y-52762975D02*
X150814819Y-52667737D01*
X150814819Y-52667737D02*
X150814819Y-52477261D01*
X150814819Y-52477261D02*
X150767200Y-52382023D01*
X150767200Y-52382023D02*
X150719580Y-52334404D01*
X150719580Y-52334404D02*
X150624342Y-52286785D01*
X150624342Y-52286785D02*
X150386247Y-52286785D01*
X150386247Y-52286785D02*
X150291009Y-52334404D01*
X150291009Y-52334404D02*
X150243390Y-52382023D01*
X150243390Y-52382023D02*
X150195771Y-52477261D01*
X150195771Y-52477261D02*
X150195771Y-52667737D01*
X150195771Y-52667737D02*
X150243390Y-52762975D01*
X150243390Y-52762975D02*
X150291009Y-52810594D01*
X150291009Y-52810594D02*
X150386247Y-52858213D01*
%TO.C,C14*%
X135347142Y-61769580D02*
X135299523Y-61817200D01*
X135299523Y-61817200D02*
X135156666Y-61864819D01*
X135156666Y-61864819D02*
X135061428Y-61864819D01*
X135061428Y-61864819D02*
X134918571Y-61817200D01*
X134918571Y-61817200D02*
X134823333Y-61721961D01*
X134823333Y-61721961D02*
X134775714Y-61626723D01*
X134775714Y-61626723D02*
X134728095Y-61436247D01*
X134728095Y-61436247D02*
X134728095Y-61293390D01*
X134728095Y-61293390D02*
X134775714Y-61102914D01*
X134775714Y-61102914D02*
X134823333Y-61007676D01*
X134823333Y-61007676D02*
X134918571Y-60912438D01*
X134918571Y-60912438D02*
X135061428Y-60864819D01*
X135061428Y-60864819D02*
X135156666Y-60864819D01*
X135156666Y-60864819D02*
X135299523Y-60912438D01*
X135299523Y-60912438D02*
X135347142Y-60960057D01*
X136299523Y-61864819D02*
X135728095Y-61864819D01*
X136013809Y-61864819D02*
X136013809Y-60864819D01*
X136013809Y-60864819D02*
X135918571Y-61007676D01*
X135918571Y-61007676D02*
X135823333Y-61102914D01*
X135823333Y-61102914D02*
X135728095Y-61150533D01*
X137156666Y-61198152D02*
X137156666Y-61864819D01*
X136918571Y-60817200D02*
X136680476Y-61531485D01*
X136680476Y-61531485D02*
X137299523Y-61531485D01*
%TO.C,R5*%
X160499819Y-42621666D02*
X160023628Y-42954999D01*
X160499819Y-43193094D02*
X159499819Y-43193094D01*
X159499819Y-43193094D02*
X159499819Y-42812142D01*
X159499819Y-42812142D02*
X159547438Y-42716904D01*
X159547438Y-42716904D02*
X159595057Y-42669285D01*
X159595057Y-42669285D02*
X159690295Y-42621666D01*
X159690295Y-42621666D02*
X159833152Y-42621666D01*
X159833152Y-42621666D02*
X159928390Y-42669285D01*
X159928390Y-42669285D02*
X159976009Y-42716904D01*
X159976009Y-42716904D02*
X160023628Y-42812142D01*
X160023628Y-42812142D02*
X160023628Y-43193094D01*
X159499819Y-41716904D02*
X159499819Y-42193094D01*
X159499819Y-42193094D02*
X159976009Y-42240713D01*
X159976009Y-42240713D02*
X159928390Y-42193094D01*
X159928390Y-42193094D02*
X159880771Y-42097856D01*
X159880771Y-42097856D02*
X159880771Y-41859761D01*
X159880771Y-41859761D02*
X159928390Y-41764523D01*
X159928390Y-41764523D02*
X159976009Y-41716904D01*
X159976009Y-41716904D02*
X160071247Y-41669285D01*
X160071247Y-41669285D02*
X160309342Y-41669285D01*
X160309342Y-41669285D02*
X160404580Y-41716904D01*
X160404580Y-41716904D02*
X160452200Y-41764523D01*
X160452200Y-41764523D02*
X160499819Y-41859761D01*
X160499819Y-41859761D02*
X160499819Y-42097856D01*
X160499819Y-42097856D02*
X160452200Y-42193094D01*
X160452200Y-42193094D02*
X160404580Y-42240713D01*
%TO.C,JP2*%
X187633819Y-60637333D02*
X188348104Y-60637333D01*
X188348104Y-60637333D02*
X188490961Y-60684952D01*
X188490961Y-60684952D02*
X188586200Y-60780190D01*
X188586200Y-60780190D02*
X188633819Y-60923047D01*
X188633819Y-60923047D02*
X188633819Y-61018285D01*
X188633819Y-60161142D02*
X187633819Y-60161142D01*
X187633819Y-60161142D02*
X187633819Y-59780190D01*
X187633819Y-59780190D02*
X187681438Y-59684952D01*
X187681438Y-59684952D02*
X187729057Y-59637333D01*
X187729057Y-59637333D02*
X187824295Y-59589714D01*
X187824295Y-59589714D02*
X187967152Y-59589714D01*
X187967152Y-59589714D02*
X188062390Y-59637333D01*
X188062390Y-59637333D02*
X188110009Y-59684952D01*
X188110009Y-59684952D02*
X188157628Y-59780190D01*
X188157628Y-59780190D02*
X188157628Y-60161142D01*
X187729057Y-59208761D02*
X187681438Y-59161142D01*
X187681438Y-59161142D02*
X187633819Y-59065904D01*
X187633819Y-59065904D02*
X187633819Y-58827809D01*
X187633819Y-58827809D02*
X187681438Y-58732571D01*
X187681438Y-58732571D02*
X187729057Y-58684952D01*
X187729057Y-58684952D02*
X187824295Y-58637333D01*
X187824295Y-58637333D02*
X187919533Y-58637333D01*
X187919533Y-58637333D02*
X188062390Y-58684952D01*
X188062390Y-58684952D02*
X188633819Y-59256380D01*
X188633819Y-59256380D02*
X188633819Y-58637333D01*
%TO.C,J9*%
X142866666Y-75474819D02*
X142866666Y-76189104D01*
X142866666Y-76189104D02*
X142819047Y-76331961D01*
X142819047Y-76331961D02*
X142723809Y-76427200D01*
X142723809Y-76427200D02*
X142580952Y-76474819D01*
X142580952Y-76474819D02*
X142485714Y-76474819D01*
X143390476Y-76474819D02*
X143580952Y-76474819D01*
X143580952Y-76474819D02*
X143676190Y-76427200D01*
X143676190Y-76427200D02*
X143723809Y-76379580D01*
X143723809Y-76379580D02*
X143819047Y-76236723D01*
X143819047Y-76236723D02*
X143866666Y-76046247D01*
X143866666Y-76046247D02*
X143866666Y-75665295D01*
X143866666Y-75665295D02*
X143819047Y-75570057D01*
X143819047Y-75570057D02*
X143771428Y-75522438D01*
X143771428Y-75522438D02*
X143676190Y-75474819D01*
X143676190Y-75474819D02*
X143485714Y-75474819D01*
X143485714Y-75474819D02*
X143390476Y-75522438D01*
X143390476Y-75522438D02*
X143342857Y-75570057D01*
X143342857Y-75570057D02*
X143295238Y-75665295D01*
X143295238Y-75665295D02*
X143295238Y-75903390D01*
X143295238Y-75903390D02*
X143342857Y-75998628D01*
X143342857Y-75998628D02*
X143390476Y-76046247D01*
X143390476Y-76046247D02*
X143485714Y-76093866D01*
X143485714Y-76093866D02*
X143676190Y-76093866D01*
X143676190Y-76093866D02*
X143771428Y-76046247D01*
X143771428Y-76046247D02*
X143819047Y-75998628D01*
X143819047Y-75998628D02*
X143866666Y-75903390D01*
%TO.C,D6*%
X140744819Y-46698094D02*
X139744819Y-46698094D01*
X139744819Y-46698094D02*
X139744819Y-46459999D01*
X139744819Y-46459999D02*
X139792438Y-46317142D01*
X139792438Y-46317142D02*
X139887676Y-46221904D01*
X139887676Y-46221904D02*
X139982914Y-46174285D01*
X139982914Y-46174285D02*
X140173390Y-46126666D01*
X140173390Y-46126666D02*
X140316247Y-46126666D01*
X140316247Y-46126666D02*
X140506723Y-46174285D01*
X140506723Y-46174285D02*
X140601961Y-46221904D01*
X140601961Y-46221904D02*
X140697200Y-46317142D01*
X140697200Y-46317142D02*
X140744819Y-46459999D01*
X140744819Y-46459999D02*
X140744819Y-46698094D01*
X139744819Y-45269523D02*
X139744819Y-45459999D01*
X139744819Y-45459999D02*
X139792438Y-45555237D01*
X139792438Y-45555237D02*
X139840057Y-45602856D01*
X139840057Y-45602856D02*
X139982914Y-45698094D01*
X139982914Y-45698094D02*
X140173390Y-45745713D01*
X140173390Y-45745713D02*
X140554342Y-45745713D01*
X140554342Y-45745713D02*
X140649580Y-45698094D01*
X140649580Y-45698094D02*
X140697200Y-45650475D01*
X140697200Y-45650475D02*
X140744819Y-45555237D01*
X140744819Y-45555237D02*
X140744819Y-45364761D01*
X140744819Y-45364761D02*
X140697200Y-45269523D01*
X140697200Y-45269523D02*
X140649580Y-45221904D01*
X140649580Y-45221904D02*
X140554342Y-45174285D01*
X140554342Y-45174285D02*
X140316247Y-45174285D01*
X140316247Y-45174285D02*
X140221009Y-45221904D01*
X140221009Y-45221904D02*
X140173390Y-45269523D01*
X140173390Y-45269523D02*
X140125771Y-45364761D01*
X140125771Y-45364761D02*
X140125771Y-45555237D01*
X140125771Y-45555237D02*
X140173390Y-45650475D01*
X140173390Y-45650475D02*
X140221009Y-45698094D01*
X140221009Y-45698094D02*
X140316247Y-45745713D01*
%TO.C,C9*%
X165245580Y-48659166D02*
X165293200Y-48706785D01*
X165293200Y-48706785D02*
X165340819Y-48849642D01*
X165340819Y-48849642D02*
X165340819Y-48944880D01*
X165340819Y-48944880D02*
X165293200Y-49087737D01*
X165293200Y-49087737D02*
X165197961Y-49182975D01*
X165197961Y-49182975D02*
X165102723Y-49230594D01*
X165102723Y-49230594D02*
X164912247Y-49278213D01*
X164912247Y-49278213D02*
X164769390Y-49278213D01*
X164769390Y-49278213D02*
X164578914Y-49230594D01*
X164578914Y-49230594D02*
X164483676Y-49182975D01*
X164483676Y-49182975D02*
X164388438Y-49087737D01*
X164388438Y-49087737D02*
X164340819Y-48944880D01*
X164340819Y-48944880D02*
X164340819Y-48849642D01*
X164340819Y-48849642D02*
X164388438Y-48706785D01*
X164388438Y-48706785D02*
X164436057Y-48659166D01*
X165340819Y-48182975D02*
X165340819Y-47992499D01*
X165340819Y-47992499D02*
X165293200Y-47897261D01*
X165293200Y-47897261D02*
X165245580Y-47849642D01*
X165245580Y-47849642D02*
X165102723Y-47754404D01*
X165102723Y-47754404D02*
X164912247Y-47706785D01*
X164912247Y-47706785D02*
X164531295Y-47706785D01*
X164531295Y-47706785D02*
X164436057Y-47754404D01*
X164436057Y-47754404D02*
X164388438Y-47802023D01*
X164388438Y-47802023D02*
X164340819Y-47897261D01*
X164340819Y-47897261D02*
X164340819Y-48087737D01*
X164340819Y-48087737D02*
X164388438Y-48182975D01*
X164388438Y-48182975D02*
X164436057Y-48230594D01*
X164436057Y-48230594D02*
X164531295Y-48278213D01*
X164531295Y-48278213D02*
X164769390Y-48278213D01*
X164769390Y-48278213D02*
X164864628Y-48230594D01*
X164864628Y-48230594D02*
X164912247Y-48182975D01*
X164912247Y-48182975D02*
X164959866Y-48087737D01*
X164959866Y-48087737D02*
X164959866Y-47897261D01*
X164959866Y-47897261D02*
X164912247Y-47802023D01*
X164912247Y-47802023D02*
X164864628Y-47754404D01*
X164864628Y-47754404D02*
X164769390Y-47706785D01*
%TO.C,J1*%
X176361666Y-79735819D02*
X176361666Y-80450104D01*
X176361666Y-80450104D02*
X176314047Y-80592961D01*
X176314047Y-80592961D02*
X176218809Y-80688200D01*
X176218809Y-80688200D02*
X176075952Y-80735819D01*
X176075952Y-80735819D02*
X175980714Y-80735819D01*
X177361666Y-80735819D02*
X176790238Y-80735819D01*
X177075952Y-80735819D02*
X177075952Y-79735819D01*
X177075952Y-79735819D02*
X176980714Y-79878676D01*
X176980714Y-79878676D02*
X176885476Y-79973914D01*
X176885476Y-79973914D02*
X176790238Y-80021533D01*
%TO.C,J5*%
X133766666Y-69064819D02*
X133766666Y-69779104D01*
X133766666Y-69779104D02*
X133719047Y-69921961D01*
X133719047Y-69921961D02*
X133623809Y-70017200D01*
X133623809Y-70017200D02*
X133480952Y-70064819D01*
X133480952Y-70064819D02*
X133385714Y-70064819D01*
X134719047Y-69064819D02*
X134242857Y-69064819D01*
X134242857Y-69064819D02*
X134195238Y-69541009D01*
X134195238Y-69541009D02*
X134242857Y-69493390D01*
X134242857Y-69493390D02*
X134338095Y-69445771D01*
X134338095Y-69445771D02*
X134576190Y-69445771D01*
X134576190Y-69445771D02*
X134671428Y-69493390D01*
X134671428Y-69493390D02*
X134719047Y-69541009D01*
X134719047Y-69541009D02*
X134766666Y-69636247D01*
X134766666Y-69636247D02*
X134766666Y-69874342D01*
X134766666Y-69874342D02*
X134719047Y-69969580D01*
X134719047Y-69969580D02*
X134671428Y-70017200D01*
X134671428Y-70017200D02*
X134576190Y-70064819D01*
X134576190Y-70064819D02*
X134338095Y-70064819D01*
X134338095Y-70064819D02*
X134242857Y-70017200D01*
X134242857Y-70017200D02*
X134195238Y-69969580D01*
%TO.C,D1*%
X183744819Y-39498094D02*
X182744819Y-39498094D01*
X182744819Y-39498094D02*
X182744819Y-39259999D01*
X182744819Y-39259999D02*
X182792438Y-39117142D01*
X182792438Y-39117142D02*
X182887676Y-39021904D01*
X182887676Y-39021904D02*
X182982914Y-38974285D01*
X182982914Y-38974285D02*
X183173390Y-38926666D01*
X183173390Y-38926666D02*
X183316247Y-38926666D01*
X183316247Y-38926666D02*
X183506723Y-38974285D01*
X183506723Y-38974285D02*
X183601961Y-39021904D01*
X183601961Y-39021904D02*
X183697200Y-39117142D01*
X183697200Y-39117142D02*
X183744819Y-39259999D01*
X183744819Y-39259999D02*
X183744819Y-39498094D01*
X183744819Y-37974285D02*
X183744819Y-38545713D01*
X183744819Y-38259999D02*
X182744819Y-38259999D01*
X182744819Y-38259999D02*
X182887676Y-38355237D01*
X182887676Y-38355237D02*
X182982914Y-38450475D01*
X182982914Y-38450475D02*
X183030533Y-38545713D01*
%TO.C,R7*%
X151594819Y-46276666D02*
X151118628Y-46609999D01*
X151594819Y-46848094D02*
X150594819Y-46848094D01*
X150594819Y-46848094D02*
X150594819Y-46467142D01*
X150594819Y-46467142D02*
X150642438Y-46371904D01*
X150642438Y-46371904D02*
X150690057Y-46324285D01*
X150690057Y-46324285D02*
X150785295Y-46276666D01*
X150785295Y-46276666D02*
X150928152Y-46276666D01*
X150928152Y-46276666D02*
X151023390Y-46324285D01*
X151023390Y-46324285D02*
X151071009Y-46371904D01*
X151071009Y-46371904D02*
X151118628Y-46467142D01*
X151118628Y-46467142D02*
X151118628Y-46848094D01*
X150594819Y-45943332D02*
X150594819Y-45276666D01*
X150594819Y-45276666D02*
X151594819Y-45705237D01*
%TO.C,H2*%
X185303151Y-73100875D02*
X185303151Y-72100875D01*
X185303151Y-72577065D02*
X185874579Y-72577065D01*
X185874579Y-73100875D02*
X185874579Y-72100875D01*
X186303151Y-72196113D02*
X186350770Y-72148494D01*
X186350770Y-72148494D02*
X186446008Y-72100875D01*
X186446008Y-72100875D02*
X186684103Y-72100875D01*
X186684103Y-72100875D02*
X186779341Y-72148494D01*
X186779341Y-72148494D02*
X186826960Y-72196113D01*
X186826960Y-72196113D02*
X186874579Y-72291351D01*
X186874579Y-72291351D02*
X186874579Y-72386589D01*
X186874579Y-72386589D02*
X186826960Y-72529446D01*
X186826960Y-72529446D02*
X186255532Y-73100875D01*
X186255532Y-73100875D02*
X186874579Y-73100875D01*
%TO.C,C11*%
X155299580Y-46440357D02*
X155347200Y-46487976D01*
X155347200Y-46487976D02*
X155394819Y-46630833D01*
X155394819Y-46630833D02*
X155394819Y-46726071D01*
X155394819Y-46726071D02*
X155347200Y-46868928D01*
X155347200Y-46868928D02*
X155251961Y-46964166D01*
X155251961Y-46964166D02*
X155156723Y-47011785D01*
X155156723Y-47011785D02*
X154966247Y-47059404D01*
X154966247Y-47059404D02*
X154823390Y-47059404D01*
X154823390Y-47059404D02*
X154632914Y-47011785D01*
X154632914Y-47011785D02*
X154537676Y-46964166D01*
X154537676Y-46964166D02*
X154442438Y-46868928D01*
X154442438Y-46868928D02*
X154394819Y-46726071D01*
X154394819Y-46726071D02*
X154394819Y-46630833D01*
X154394819Y-46630833D02*
X154442438Y-46487976D01*
X154442438Y-46487976D02*
X154490057Y-46440357D01*
X155394819Y-45487976D02*
X155394819Y-46059404D01*
X155394819Y-45773690D02*
X154394819Y-45773690D01*
X154394819Y-45773690D02*
X154537676Y-45868928D01*
X154537676Y-45868928D02*
X154632914Y-45964166D01*
X154632914Y-45964166D02*
X154680533Y-46059404D01*
X155394819Y-44535595D02*
X155394819Y-45107023D01*
X155394819Y-44821309D02*
X154394819Y-44821309D01*
X154394819Y-44821309D02*
X154537676Y-44916547D01*
X154537676Y-44916547D02*
X154632914Y-45011785D01*
X154632914Y-45011785D02*
X154680533Y-45107023D01*
%TO.C,J8*%
X160824819Y-73943333D02*
X161539104Y-73943333D01*
X161539104Y-73943333D02*
X161681961Y-73990952D01*
X161681961Y-73990952D02*
X161777200Y-74086190D01*
X161777200Y-74086190D02*
X161824819Y-74229047D01*
X161824819Y-74229047D02*
X161824819Y-74324285D01*
X161253390Y-73324285D02*
X161205771Y-73419523D01*
X161205771Y-73419523D02*
X161158152Y-73467142D01*
X161158152Y-73467142D02*
X161062914Y-73514761D01*
X161062914Y-73514761D02*
X161015295Y-73514761D01*
X161015295Y-73514761D02*
X160920057Y-73467142D01*
X160920057Y-73467142D02*
X160872438Y-73419523D01*
X160872438Y-73419523D02*
X160824819Y-73324285D01*
X160824819Y-73324285D02*
X160824819Y-73133809D01*
X160824819Y-73133809D02*
X160872438Y-73038571D01*
X160872438Y-73038571D02*
X160920057Y-72990952D01*
X160920057Y-72990952D02*
X161015295Y-72943333D01*
X161015295Y-72943333D02*
X161062914Y-72943333D01*
X161062914Y-72943333D02*
X161158152Y-72990952D01*
X161158152Y-72990952D02*
X161205771Y-73038571D01*
X161205771Y-73038571D02*
X161253390Y-73133809D01*
X161253390Y-73133809D02*
X161253390Y-73324285D01*
X161253390Y-73324285D02*
X161301009Y-73419523D01*
X161301009Y-73419523D02*
X161348628Y-73467142D01*
X161348628Y-73467142D02*
X161443866Y-73514761D01*
X161443866Y-73514761D02*
X161634342Y-73514761D01*
X161634342Y-73514761D02*
X161729580Y-73467142D01*
X161729580Y-73467142D02*
X161777200Y-73419523D01*
X161777200Y-73419523D02*
X161824819Y-73324285D01*
X161824819Y-73324285D02*
X161824819Y-73133809D01*
X161824819Y-73133809D02*
X161777200Y-73038571D01*
X161777200Y-73038571D02*
X161729580Y-72990952D01*
X161729580Y-72990952D02*
X161634342Y-72943333D01*
X161634342Y-72943333D02*
X161443866Y-72943333D01*
X161443866Y-72943333D02*
X161348628Y-72990952D01*
X161348628Y-72990952D02*
X161301009Y-73038571D01*
X161301009Y-73038571D02*
X161253390Y-73133809D01*
%TO.C,U4*%
X135278095Y-51114819D02*
X135278095Y-51924342D01*
X135278095Y-51924342D02*
X135325714Y-52019580D01*
X135325714Y-52019580D02*
X135373333Y-52067200D01*
X135373333Y-52067200D02*
X135468571Y-52114819D01*
X135468571Y-52114819D02*
X135659047Y-52114819D01*
X135659047Y-52114819D02*
X135754285Y-52067200D01*
X135754285Y-52067200D02*
X135801904Y-52019580D01*
X135801904Y-52019580D02*
X135849523Y-51924342D01*
X135849523Y-51924342D02*
X135849523Y-51114819D01*
X136754285Y-51448152D02*
X136754285Y-52114819D01*
X136516190Y-51067200D02*
X136278095Y-51781485D01*
X136278095Y-51781485D02*
X136897142Y-51781485D01*
%TO.C,R6*%
X144344819Y-45276666D02*
X143868628Y-45609999D01*
X144344819Y-45848094D02*
X143344819Y-45848094D01*
X143344819Y-45848094D02*
X143344819Y-45467142D01*
X143344819Y-45467142D02*
X143392438Y-45371904D01*
X143392438Y-45371904D02*
X143440057Y-45324285D01*
X143440057Y-45324285D02*
X143535295Y-45276666D01*
X143535295Y-45276666D02*
X143678152Y-45276666D01*
X143678152Y-45276666D02*
X143773390Y-45324285D01*
X143773390Y-45324285D02*
X143821009Y-45371904D01*
X143821009Y-45371904D02*
X143868628Y-45467142D01*
X143868628Y-45467142D02*
X143868628Y-45848094D01*
X143344819Y-44419523D02*
X143344819Y-44609999D01*
X143344819Y-44609999D02*
X143392438Y-44705237D01*
X143392438Y-44705237D02*
X143440057Y-44752856D01*
X143440057Y-44752856D02*
X143582914Y-44848094D01*
X143582914Y-44848094D02*
X143773390Y-44895713D01*
X143773390Y-44895713D02*
X144154342Y-44895713D01*
X144154342Y-44895713D02*
X144249580Y-44848094D01*
X144249580Y-44848094D02*
X144297200Y-44800475D01*
X144297200Y-44800475D02*
X144344819Y-44705237D01*
X144344819Y-44705237D02*
X144344819Y-44514761D01*
X144344819Y-44514761D02*
X144297200Y-44419523D01*
X144297200Y-44419523D02*
X144249580Y-44371904D01*
X144249580Y-44371904D02*
X144154342Y-44324285D01*
X144154342Y-44324285D02*
X143916247Y-44324285D01*
X143916247Y-44324285D02*
X143821009Y-44371904D01*
X143821009Y-44371904D02*
X143773390Y-44419523D01*
X143773390Y-44419523D02*
X143725771Y-44514761D01*
X143725771Y-44514761D02*
X143725771Y-44705237D01*
X143725771Y-44705237D02*
X143773390Y-44800475D01*
X143773390Y-44800475D02*
X143821009Y-44848094D01*
X143821009Y-44848094D02*
X143916247Y-44895713D01*
%TO.C,U3*%
X173028095Y-65264819D02*
X173028095Y-66074342D01*
X173028095Y-66074342D02*
X173075714Y-66169580D01*
X173075714Y-66169580D02*
X173123333Y-66217200D01*
X173123333Y-66217200D02*
X173218571Y-66264819D01*
X173218571Y-66264819D02*
X173409047Y-66264819D01*
X173409047Y-66264819D02*
X173504285Y-66217200D01*
X173504285Y-66217200D02*
X173551904Y-66169580D01*
X173551904Y-66169580D02*
X173599523Y-66074342D01*
X173599523Y-66074342D02*
X173599523Y-65264819D01*
X173980476Y-65264819D02*
X174599523Y-65264819D01*
X174599523Y-65264819D02*
X174266190Y-65645771D01*
X174266190Y-65645771D02*
X174409047Y-65645771D01*
X174409047Y-65645771D02*
X174504285Y-65693390D01*
X174504285Y-65693390D02*
X174551904Y-65741009D01*
X174551904Y-65741009D02*
X174599523Y-65836247D01*
X174599523Y-65836247D02*
X174599523Y-66074342D01*
X174599523Y-66074342D02*
X174551904Y-66169580D01*
X174551904Y-66169580D02*
X174504285Y-66217200D01*
X174504285Y-66217200D02*
X174409047Y-66264819D01*
X174409047Y-66264819D02*
X174123333Y-66264819D01*
X174123333Y-66264819D02*
X174028095Y-66217200D01*
X174028095Y-66217200D02*
X173980476Y-66169580D01*
%TO.C,J2*%
X157706666Y-34858819D02*
X157706666Y-35573104D01*
X157706666Y-35573104D02*
X157659047Y-35715961D01*
X157659047Y-35715961D02*
X157563809Y-35811200D01*
X157563809Y-35811200D02*
X157420952Y-35858819D01*
X157420952Y-35858819D02*
X157325714Y-35858819D01*
X158135238Y-34954057D02*
X158182857Y-34906438D01*
X158182857Y-34906438D02*
X158278095Y-34858819D01*
X158278095Y-34858819D02*
X158516190Y-34858819D01*
X158516190Y-34858819D02*
X158611428Y-34906438D01*
X158611428Y-34906438D02*
X158659047Y-34954057D01*
X158659047Y-34954057D02*
X158706666Y-35049295D01*
X158706666Y-35049295D02*
X158706666Y-35144533D01*
X158706666Y-35144533D02*
X158659047Y-35287390D01*
X158659047Y-35287390D02*
X158087619Y-35858819D01*
X158087619Y-35858819D02*
X158706666Y-35858819D01*
%TO.C,D4*%
X148552819Y-50222094D02*
X147552819Y-50222094D01*
X147552819Y-50222094D02*
X147552819Y-49983999D01*
X147552819Y-49983999D02*
X147600438Y-49841142D01*
X147600438Y-49841142D02*
X147695676Y-49745904D01*
X147695676Y-49745904D02*
X147790914Y-49698285D01*
X147790914Y-49698285D02*
X147981390Y-49650666D01*
X147981390Y-49650666D02*
X148124247Y-49650666D01*
X148124247Y-49650666D02*
X148314723Y-49698285D01*
X148314723Y-49698285D02*
X148409961Y-49745904D01*
X148409961Y-49745904D02*
X148505200Y-49841142D01*
X148505200Y-49841142D02*
X148552819Y-49983999D01*
X148552819Y-49983999D02*
X148552819Y-50222094D01*
X147886152Y-48793523D02*
X148552819Y-48793523D01*
X147505200Y-49031618D02*
X148219485Y-49269713D01*
X148219485Y-49269713D02*
X148219485Y-48650666D01*
%TO.C,D2*%
X177787905Y-70142819D02*
X177787905Y-69142819D01*
X177787905Y-69142819D02*
X178026000Y-69142819D01*
X178026000Y-69142819D02*
X178168857Y-69190438D01*
X178168857Y-69190438D02*
X178264095Y-69285676D01*
X178264095Y-69285676D02*
X178311714Y-69380914D01*
X178311714Y-69380914D02*
X178359333Y-69571390D01*
X178359333Y-69571390D02*
X178359333Y-69714247D01*
X178359333Y-69714247D02*
X178311714Y-69904723D01*
X178311714Y-69904723D02*
X178264095Y-69999961D01*
X178264095Y-69999961D02*
X178168857Y-70095200D01*
X178168857Y-70095200D02*
X178026000Y-70142819D01*
X178026000Y-70142819D02*
X177787905Y-70142819D01*
X178740286Y-69238057D02*
X178787905Y-69190438D01*
X178787905Y-69190438D02*
X178883143Y-69142819D01*
X178883143Y-69142819D02*
X179121238Y-69142819D01*
X179121238Y-69142819D02*
X179216476Y-69190438D01*
X179216476Y-69190438D02*
X179264095Y-69238057D01*
X179264095Y-69238057D02*
X179311714Y-69333295D01*
X179311714Y-69333295D02*
X179311714Y-69428533D01*
X179311714Y-69428533D02*
X179264095Y-69571390D01*
X179264095Y-69571390D02*
X178692667Y-70142819D01*
X178692667Y-70142819D02*
X179311714Y-70142819D01*
%TO.C,U2*%
X188111819Y-69146904D02*
X188921342Y-69146904D01*
X188921342Y-69146904D02*
X189016580Y-69099285D01*
X189016580Y-69099285D02*
X189064200Y-69051666D01*
X189064200Y-69051666D02*
X189111819Y-68956428D01*
X189111819Y-68956428D02*
X189111819Y-68765952D01*
X189111819Y-68765952D02*
X189064200Y-68670714D01*
X189064200Y-68670714D02*
X189016580Y-68623095D01*
X189016580Y-68623095D02*
X188921342Y-68575476D01*
X188921342Y-68575476D02*
X188111819Y-68575476D01*
X188207057Y-68146904D02*
X188159438Y-68099285D01*
X188159438Y-68099285D02*
X188111819Y-68004047D01*
X188111819Y-68004047D02*
X188111819Y-67765952D01*
X188111819Y-67765952D02*
X188159438Y-67670714D01*
X188159438Y-67670714D02*
X188207057Y-67623095D01*
X188207057Y-67623095D02*
X188302295Y-67575476D01*
X188302295Y-67575476D02*
X188397533Y-67575476D01*
X188397533Y-67575476D02*
X188540390Y-67623095D01*
X188540390Y-67623095D02*
X189111819Y-68194523D01*
X189111819Y-68194523D02*
X189111819Y-67575476D01*
%TO.C,C13*%
X135347142Y-56019580D02*
X135299523Y-56067200D01*
X135299523Y-56067200D02*
X135156666Y-56114819D01*
X135156666Y-56114819D02*
X135061428Y-56114819D01*
X135061428Y-56114819D02*
X134918571Y-56067200D01*
X134918571Y-56067200D02*
X134823333Y-55971961D01*
X134823333Y-55971961D02*
X134775714Y-55876723D01*
X134775714Y-55876723D02*
X134728095Y-55686247D01*
X134728095Y-55686247D02*
X134728095Y-55543390D01*
X134728095Y-55543390D02*
X134775714Y-55352914D01*
X134775714Y-55352914D02*
X134823333Y-55257676D01*
X134823333Y-55257676D02*
X134918571Y-55162438D01*
X134918571Y-55162438D02*
X135061428Y-55114819D01*
X135061428Y-55114819D02*
X135156666Y-55114819D01*
X135156666Y-55114819D02*
X135299523Y-55162438D01*
X135299523Y-55162438D02*
X135347142Y-55210057D01*
X136299523Y-56114819D02*
X135728095Y-56114819D01*
X136013809Y-56114819D02*
X136013809Y-55114819D01*
X136013809Y-55114819D02*
X135918571Y-55257676D01*
X135918571Y-55257676D02*
X135823333Y-55352914D01*
X135823333Y-55352914D02*
X135728095Y-55400533D01*
X136632857Y-55114819D02*
X137251904Y-55114819D01*
X137251904Y-55114819D02*
X136918571Y-55495771D01*
X136918571Y-55495771D02*
X137061428Y-55495771D01*
X137061428Y-55495771D02*
X137156666Y-55543390D01*
X137156666Y-55543390D02*
X137204285Y-55591009D01*
X137204285Y-55591009D02*
X137251904Y-55686247D01*
X137251904Y-55686247D02*
X137251904Y-55924342D01*
X137251904Y-55924342D02*
X137204285Y-56019580D01*
X137204285Y-56019580D02*
X137156666Y-56067200D01*
X137156666Y-56067200D02*
X137061428Y-56114819D01*
X137061428Y-56114819D02*
X136775714Y-56114819D01*
X136775714Y-56114819D02*
X136680476Y-56067200D01*
X136680476Y-56067200D02*
X136632857Y-56019580D01*
%TO.C,U1*%
X155678095Y-55714819D02*
X155678095Y-56524342D01*
X155678095Y-56524342D02*
X155725714Y-56619580D01*
X155725714Y-56619580D02*
X155773333Y-56667200D01*
X155773333Y-56667200D02*
X155868571Y-56714819D01*
X155868571Y-56714819D02*
X156059047Y-56714819D01*
X156059047Y-56714819D02*
X156154285Y-56667200D01*
X156154285Y-56667200D02*
X156201904Y-56619580D01*
X156201904Y-56619580D02*
X156249523Y-56524342D01*
X156249523Y-56524342D02*
X156249523Y-55714819D01*
X157249523Y-56714819D02*
X156678095Y-56714819D01*
X156963809Y-56714819D02*
X156963809Y-55714819D01*
X156963809Y-55714819D02*
X156868571Y-55857676D01*
X156868571Y-55857676D02*
X156773333Y-55952914D01*
X156773333Y-55952914D02*
X156678095Y-56000533D01*
%TO.C,Y2*%
X184968628Y-58236190D02*
X185444819Y-58236190D01*
X184444819Y-58569523D02*
X184968628Y-58236190D01*
X184968628Y-58236190D02*
X184444819Y-57902857D01*
X184540057Y-57617142D02*
X184492438Y-57569523D01*
X184492438Y-57569523D02*
X184444819Y-57474285D01*
X184444819Y-57474285D02*
X184444819Y-57236190D01*
X184444819Y-57236190D02*
X184492438Y-57140952D01*
X184492438Y-57140952D02*
X184540057Y-57093333D01*
X184540057Y-57093333D02*
X184635295Y-57045714D01*
X184635295Y-57045714D02*
X184730533Y-57045714D01*
X184730533Y-57045714D02*
X184873390Y-57093333D01*
X184873390Y-57093333D02*
X185444819Y-57664761D01*
X185444819Y-57664761D02*
X185444819Y-57045714D01*
%TO.C,C8*%
X184898833Y-61313580D02*
X184851214Y-61361200D01*
X184851214Y-61361200D02*
X184708357Y-61408819D01*
X184708357Y-61408819D02*
X184613119Y-61408819D01*
X184613119Y-61408819D02*
X184470262Y-61361200D01*
X184470262Y-61361200D02*
X184375024Y-61265961D01*
X184375024Y-61265961D02*
X184327405Y-61170723D01*
X184327405Y-61170723D02*
X184279786Y-60980247D01*
X184279786Y-60980247D02*
X184279786Y-60837390D01*
X184279786Y-60837390D02*
X184327405Y-60646914D01*
X184327405Y-60646914D02*
X184375024Y-60551676D01*
X184375024Y-60551676D02*
X184470262Y-60456438D01*
X184470262Y-60456438D02*
X184613119Y-60408819D01*
X184613119Y-60408819D02*
X184708357Y-60408819D01*
X184708357Y-60408819D02*
X184851214Y-60456438D01*
X184851214Y-60456438D02*
X184898833Y-60504057D01*
X185470262Y-60837390D02*
X185375024Y-60789771D01*
X185375024Y-60789771D02*
X185327405Y-60742152D01*
X185327405Y-60742152D02*
X185279786Y-60646914D01*
X185279786Y-60646914D02*
X185279786Y-60599295D01*
X185279786Y-60599295D02*
X185327405Y-60504057D01*
X185327405Y-60504057D02*
X185375024Y-60456438D01*
X185375024Y-60456438D02*
X185470262Y-60408819D01*
X185470262Y-60408819D02*
X185660738Y-60408819D01*
X185660738Y-60408819D02*
X185755976Y-60456438D01*
X185755976Y-60456438D02*
X185803595Y-60504057D01*
X185803595Y-60504057D02*
X185851214Y-60599295D01*
X185851214Y-60599295D02*
X185851214Y-60646914D01*
X185851214Y-60646914D02*
X185803595Y-60742152D01*
X185803595Y-60742152D02*
X185755976Y-60789771D01*
X185755976Y-60789771D02*
X185660738Y-60837390D01*
X185660738Y-60837390D02*
X185470262Y-60837390D01*
X185470262Y-60837390D02*
X185375024Y-60885009D01*
X185375024Y-60885009D02*
X185327405Y-60932628D01*
X185327405Y-60932628D02*
X185279786Y-61027866D01*
X185279786Y-61027866D02*
X185279786Y-61218342D01*
X185279786Y-61218342D02*
X185327405Y-61313580D01*
X185327405Y-61313580D02*
X185375024Y-61361200D01*
X185375024Y-61361200D02*
X185470262Y-61408819D01*
X185470262Y-61408819D02*
X185660738Y-61408819D01*
X185660738Y-61408819D02*
X185755976Y-61361200D01*
X185755976Y-61361200D02*
X185803595Y-61313580D01*
X185803595Y-61313580D02*
X185851214Y-61218342D01*
X185851214Y-61218342D02*
X185851214Y-61027866D01*
X185851214Y-61027866D02*
X185803595Y-60932628D01*
X185803595Y-60932628D02*
X185755976Y-60885009D01*
X185755976Y-60885009D02*
X185660738Y-60837390D01*
%TO.C,C12*%
X119694580Y-47696357D02*
X119742200Y-47743976D01*
X119742200Y-47743976D02*
X119789819Y-47886833D01*
X119789819Y-47886833D02*
X119789819Y-47982071D01*
X119789819Y-47982071D02*
X119742200Y-48124928D01*
X119742200Y-48124928D02*
X119646961Y-48220166D01*
X119646961Y-48220166D02*
X119551723Y-48267785D01*
X119551723Y-48267785D02*
X119361247Y-48315404D01*
X119361247Y-48315404D02*
X119218390Y-48315404D01*
X119218390Y-48315404D02*
X119027914Y-48267785D01*
X119027914Y-48267785D02*
X118932676Y-48220166D01*
X118932676Y-48220166D02*
X118837438Y-48124928D01*
X118837438Y-48124928D02*
X118789819Y-47982071D01*
X118789819Y-47982071D02*
X118789819Y-47886833D01*
X118789819Y-47886833D02*
X118837438Y-47743976D01*
X118837438Y-47743976D02*
X118885057Y-47696357D01*
X119789819Y-46743976D02*
X119789819Y-47315404D01*
X119789819Y-47029690D02*
X118789819Y-47029690D01*
X118789819Y-47029690D02*
X118932676Y-47124928D01*
X118932676Y-47124928D02*
X119027914Y-47220166D01*
X119027914Y-47220166D02*
X119075533Y-47315404D01*
X118885057Y-46363023D02*
X118837438Y-46315404D01*
X118837438Y-46315404D02*
X118789819Y-46220166D01*
X118789819Y-46220166D02*
X118789819Y-45982071D01*
X118789819Y-45982071D02*
X118837438Y-45886833D01*
X118837438Y-45886833D02*
X118885057Y-45839214D01*
X118885057Y-45839214D02*
X118980295Y-45791595D01*
X118980295Y-45791595D02*
X119075533Y-45791595D01*
X119075533Y-45791595D02*
X119218390Y-45839214D01*
X119218390Y-45839214D02*
X119789819Y-46410642D01*
X119789819Y-46410642D02*
X119789819Y-45791595D01*
%TO.C,R8*%
X102373333Y-64164819D02*
X102040000Y-63688628D01*
X101801905Y-64164819D02*
X101801905Y-63164819D01*
X101801905Y-63164819D02*
X102182857Y-63164819D01*
X102182857Y-63164819D02*
X102278095Y-63212438D01*
X102278095Y-63212438D02*
X102325714Y-63260057D01*
X102325714Y-63260057D02*
X102373333Y-63355295D01*
X102373333Y-63355295D02*
X102373333Y-63498152D01*
X102373333Y-63498152D02*
X102325714Y-63593390D01*
X102325714Y-63593390D02*
X102278095Y-63641009D01*
X102278095Y-63641009D02*
X102182857Y-63688628D01*
X102182857Y-63688628D02*
X101801905Y-63688628D01*
X102944762Y-63593390D02*
X102849524Y-63545771D01*
X102849524Y-63545771D02*
X102801905Y-63498152D01*
X102801905Y-63498152D02*
X102754286Y-63402914D01*
X102754286Y-63402914D02*
X102754286Y-63355295D01*
X102754286Y-63355295D02*
X102801905Y-63260057D01*
X102801905Y-63260057D02*
X102849524Y-63212438D01*
X102849524Y-63212438D02*
X102944762Y-63164819D01*
X102944762Y-63164819D02*
X103135238Y-63164819D01*
X103135238Y-63164819D02*
X103230476Y-63212438D01*
X103230476Y-63212438D02*
X103278095Y-63260057D01*
X103278095Y-63260057D02*
X103325714Y-63355295D01*
X103325714Y-63355295D02*
X103325714Y-63402914D01*
X103325714Y-63402914D02*
X103278095Y-63498152D01*
X103278095Y-63498152D02*
X103230476Y-63545771D01*
X103230476Y-63545771D02*
X103135238Y-63593390D01*
X103135238Y-63593390D02*
X102944762Y-63593390D01*
X102944762Y-63593390D02*
X102849524Y-63641009D01*
X102849524Y-63641009D02*
X102801905Y-63688628D01*
X102801905Y-63688628D02*
X102754286Y-63783866D01*
X102754286Y-63783866D02*
X102754286Y-63974342D01*
X102754286Y-63974342D02*
X102801905Y-64069580D01*
X102801905Y-64069580D02*
X102849524Y-64117200D01*
X102849524Y-64117200D02*
X102944762Y-64164819D01*
X102944762Y-64164819D02*
X103135238Y-64164819D01*
X103135238Y-64164819D02*
X103230476Y-64117200D01*
X103230476Y-64117200D02*
X103278095Y-64069580D01*
X103278095Y-64069580D02*
X103325714Y-63974342D01*
X103325714Y-63974342D02*
X103325714Y-63783866D01*
X103325714Y-63783866D02*
X103278095Y-63688628D01*
X103278095Y-63688628D02*
X103230476Y-63641009D01*
X103230476Y-63641009D02*
X103135238Y-63593390D01*
%TO.C,H1*%
X72838095Y-35843819D02*
X72838095Y-34843819D01*
X72838095Y-35320009D02*
X73409523Y-35320009D01*
X73409523Y-35843819D02*
X73409523Y-34843819D01*
X74409523Y-35843819D02*
X73838095Y-35843819D01*
X74123809Y-35843819D02*
X74123809Y-34843819D01*
X74123809Y-34843819D02*
X74028571Y-34986676D01*
X74028571Y-34986676D02*
X73933333Y-35081914D01*
X73933333Y-35081914D02*
X73838095Y-35129533D01*
%TO.C,R3*%
X102373333Y-60164819D02*
X102040000Y-59688628D01*
X101801905Y-60164819D02*
X101801905Y-59164819D01*
X101801905Y-59164819D02*
X102182857Y-59164819D01*
X102182857Y-59164819D02*
X102278095Y-59212438D01*
X102278095Y-59212438D02*
X102325714Y-59260057D01*
X102325714Y-59260057D02*
X102373333Y-59355295D01*
X102373333Y-59355295D02*
X102373333Y-59498152D01*
X102373333Y-59498152D02*
X102325714Y-59593390D01*
X102325714Y-59593390D02*
X102278095Y-59641009D01*
X102278095Y-59641009D02*
X102182857Y-59688628D01*
X102182857Y-59688628D02*
X101801905Y-59688628D01*
X102706667Y-59164819D02*
X103325714Y-59164819D01*
X103325714Y-59164819D02*
X102992381Y-59545771D01*
X102992381Y-59545771D02*
X103135238Y-59545771D01*
X103135238Y-59545771D02*
X103230476Y-59593390D01*
X103230476Y-59593390D02*
X103278095Y-59641009D01*
X103278095Y-59641009D02*
X103325714Y-59736247D01*
X103325714Y-59736247D02*
X103325714Y-59974342D01*
X103325714Y-59974342D02*
X103278095Y-60069580D01*
X103278095Y-60069580D02*
X103230476Y-60117200D01*
X103230476Y-60117200D02*
X103135238Y-60164819D01*
X103135238Y-60164819D02*
X102849524Y-60164819D01*
X102849524Y-60164819D02*
X102754286Y-60117200D01*
X102754286Y-60117200D02*
X102706667Y-60069580D01*
%TO.C,C10*%
X87219580Y-45777857D02*
X87267200Y-45825476D01*
X87267200Y-45825476D02*
X87314819Y-45968333D01*
X87314819Y-45968333D02*
X87314819Y-46063571D01*
X87314819Y-46063571D02*
X87267200Y-46206428D01*
X87267200Y-46206428D02*
X87171961Y-46301666D01*
X87171961Y-46301666D02*
X87076723Y-46349285D01*
X87076723Y-46349285D02*
X86886247Y-46396904D01*
X86886247Y-46396904D02*
X86743390Y-46396904D01*
X86743390Y-46396904D02*
X86552914Y-46349285D01*
X86552914Y-46349285D02*
X86457676Y-46301666D01*
X86457676Y-46301666D02*
X86362438Y-46206428D01*
X86362438Y-46206428D02*
X86314819Y-46063571D01*
X86314819Y-46063571D02*
X86314819Y-45968333D01*
X86314819Y-45968333D02*
X86362438Y-45825476D01*
X86362438Y-45825476D02*
X86410057Y-45777857D01*
X87314819Y-44825476D02*
X87314819Y-45396904D01*
X87314819Y-45111190D02*
X86314819Y-45111190D01*
X86314819Y-45111190D02*
X86457676Y-45206428D01*
X86457676Y-45206428D02*
X86552914Y-45301666D01*
X86552914Y-45301666D02*
X86600533Y-45396904D01*
X86314819Y-44206428D02*
X86314819Y-44111190D01*
X86314819Y-44111190D02*
X86362438Y-44015952D01*
X86362438Y-44015952D02*
X86410057Y-43968333D01*
X86410057Y-43968333D02*
X86505295Y-43920714D01*
X86505295Y-43920714D02*
X86695771Y-43873095D01*
X86695771Y-43873095D02*
X86933866Y-43873095D01*
X86933866Y-43873095D02*
X87124342Y-43920714D01*
X87124342Y-43920714D02*
X87219580Y-43968333D01*
X87219580Y-43968333D02*
X87267200Y-44015952D01*
X87267200Y-44015952D02*
X87314819Y-44111190D01*
X87314819Y-44111190D02*
X87314819Y-44206428D01*
X87314819Y-44206428D02*
X87267200Y-44301666D01*
X87267200Y-44301666D02*
X87219580Y-44349285D01*
X87219580Y-44349285D02*
X87124342Y-44396904D01*
X87124342Y-44396904D02*
X86933866Y-44444523D01*
X86933866Y-44444523D02*
X86695771Y-44444523D01*
X86695771Y-44444523D02*
X86505295Y-44396904D01*
X86505295Y-44396904D02*
X86410057Y-44349285D01*
X86410057Y-44349285D02*
X86362438Y-44301666D01*
X86362438Y-44301666D02*
X86314819Y-44206428D01*
%TO.C,C6*%
X88719580Y-53239166D02*
X88767200Y-53286785D01*
X88767200Y-53286785D02*
X88814819Y-53429642D01*
X88814819Y-53429642D02*
X88814819Y-53524880D01*
X88814819Y-53524880D02*
X88767200Y-53667737D01*
X88767200Y-53667737D02*
X88671961Y-53762975D01*
X88671961Y-53762975D02*
X88576723Y-53810594D01*
X88576723Y-53810594D02*
X88386247Y-53858213D01*
X88386247Y-53858213D02*
X88243390Y-53858213D01*
X88243390Y-53858213D02*
X88052914Y-53810594D01*
X88052914Y-53810594D02*
X87957676Y-53762975D01*
X87957676Y-53762975D02*
X87862438Y-53667737D01*
X87862438Y-53667737D02*
X87814819Y-53524880D01*
X87814819Y-53524880D02*
X87814819Y-53429642D01*
X87814819Y-53429642D02*
X87862438Y-53286785D01*
X87862438Y-53286785D02*
X87910057Y-53239166D01*
X87814819Y-52382023D02*
X87814819Y-52572499D01*
X87814819Y-52572499D02*
X87862438Y-52667737D01*
X87862438Y-52667737D02*
X87910057Y-52715356D01*
X87910057Y-52715356D02*
X88052914Y-52810594D01*
X88052914Y-52810594D02*
X88243390Y-52858213D01*
X88243390Y-52858213D02*
X88624342Y-52858213D01*
X88624342Y-52858213D02*
X88719580Y-52810594D01*
X88719580Y-52810594D02*
X88767200Y-52762975D01*
X88767200Y-52762975D02*
X88814819Y-52667737D01*
X88814819Y-52667737D02*
X88814819Y-52477261D01*
X88814819Y-52477261D02*
X88767200Y-52382023D01*
X88767200Y-52382023D02*
X88719580Y-52334404D01*
X88719580Y-52334404D02*
X88624342Y-52286785D01*
X88624342Y-52286785D02*
X88386247Y-52286785D01*
X88386247Y-52286785D02*
X88291009Y-52334404D01*
X88291009Y-52334404D02*
X88243390Y-52382023D01*
X88243390Y-52382023D02*
X88195771Y-52477261D01*
X88195771Y-52477261D02*
X88195771Y-52667737D01*
X88195771Y-52667737D02*
X88243390Y-52762975D01*
X88243390Y-52762975D02*
X88291009Y-52810594D01*
X88291009Y-52810594D02*
X88386247Y-52858213D01*
%TO.C,R5*%
X98499819Y-42621666D02*
X98023628Y-42954999D01*
X98499819Y-43193094D02*
X97499819Y-43193094D01*
X97499819Y-43193094D02*
X97499819Y-42812142D01*
X97499819Y-42812142D02*
X97547438Y-42716904D01*
X97547438Y-42716904D02*
X97595057Y-42669285D01*
X97595057Y-42669285D02*
X97690295Y-42621666D01*
X97690295Y-42621666D02*
X97833152Y-42621666D01*
X97833152Y-42621666D02*
X97928390Y-42669285D01*
X97928390Y-42669285D02*
X97976009Y-42716904D01*
X97976009Y-42716904D02*
X98023628Y-42812142D01*
X98023628Y-42812142D02*
X98023628Y-43193094D01*
X97499819Y-41716904D02*
X97499819Y-42193094D01*
X97499819Y-42193094D02*
X97976009Y-42240713D01*
X97976009Y-42240713D02*
X97928390Y-42193094D01*
X97928390Y-42193094D02*
X97880771Y-42097856D01*
X97880771Y-42097856D02*
X97880771Y-41859761D01*
X97880771Y-41859761D02*
X97928390Y-41764523D01*
X97928390Y-41764523D02*
X97976009Y-41716904D01*
X97976009Y-41716904D02*
X98071247Y-41669285D01*
X98071247Y-41669285D02*
X98309342Y-41669285D01*
X98309342Y-41669285D02*
X98404580Y-41716904D01*
X98404580Y-41716904D02*
X98452200Y-41764523D01*
X98452200Y-41764523D02*
X98499819Y-41859761D01*
X98499819Y-41859761D02*
X98499819Y-42097856D01*
X98499819Y-42097856D02*
X98452200Y-42193094D01*
X98452200Y-42193094D02*
X98404580Y-42240713D01*
%TO.C,R6*%
X82344819Y-45276666D02*
X81868628Y-45609999D01*
X82344819Y-45848094D02*
X81344819Y-45848094D01*
X81344819Y-45848094D02*
X81344819Y-45467142D01*
X81344819Y-45467142D02*
X81392438Y-45371904D01*
X81392438Y-45371904D02*
X81440057Y-45324285D01*
X81440057Y-45324285D02*
X81535295Y-45276666D01*
X81535295Y-45276666D02*
X81678152Y-45276666D01*
X81678152Y-45276666D02*
X81773390Y-45324285D01*
X81773390Y-45324285D02*
X81821009Y-45371904D01*
X81821009Y-45371904D02*
X81868628Y-45467142D01*
X81868628Y-45467142D02*
X81868628Y-45848094D01*
X81344819Y-44419523D02*
X81344819Y-44609999D01*
X81344819Y-44609999D02*
X81392438Y-44705237D01*
X81392438Y-44705237D02*
X81440057Y-44752856D01*
X81440057Y-44752856D02*
X81582914Y-44848094D01*
X81582914Y-44848094D02*
X81773390Y-44895713D01*
X81773390Y-44895713D02*
X82154342Y-44895713D01*
X82154342Y-44895713D02*
X82249580Y-44848094D01*
X82249580Y-44848094D02*
X82297200Y-44800475D01*
X82297200Y-44800475D02*
X82344819Y-44705237D01*
X82344819Y-44705237D02*
X82344819Y-44514761D01*
X82344819Y-44514761D02*
X82297200Y-44419523D01*
X82297200Y-44419523D02*
X82249580Y-44371904D01*
X82249580Y-44371904D02*
X82154342Y-44324285D01*
X82154342Y-44324285D02*
X81916247Y-44324285D01*
X81916247Y-44324285D02*
X81821009Y-44371904D01*
X81821009Y-44371904D02*
X81773390Y-44419523D01*
X81773390Y-44419523D02*
X81725771Y-44514761D01*
X81725771Y-44514761D02*
X81725771Y-44705237D01*
X81725771Y-44705237D02*
X81773390Y-44800475D01*
X81773390Y-44800475D02*
X81821009Y-44848094D01*
X81821009Y-44848094D02*
X81916247Y-44895713D01*
%TO.C,D4*%
X86552819Y-50222094D02*
X85552819Y-50222094D01*
X85552819Y-50222094D02*
X85552819Y-49983999D01*
X85552819Y-49983999D02*
X85600438Y-49841142D01*
X85600438Y-49841142D02*
X85695676Y-49745904D01*
X85695676Y-49745904D02*
X85790914Y-49698285D01*
X85790914Y-49698285D02*
X85981390Y-49650666D01*
X85981390Y-49650666D02*
X86124247Y-49650666D01*
X86124247Y-49650666D02*
X86314723Y-49698285D01*
X86314723Y-49698285D02*
X86409961Y-49745904D01*
X86409961Y-49745904D02*
X86505200Y-49841142D01*
X86505200Y-49841142D02*
X86552819Y-49983999D01*
X86552819Y-49983999D02*
X86552819Y-50222094D01*
X85886152Y-48793523D02*
X86552819Y-48793523D01*
X85505200Y-49031618D02*
X86219485Y-49269713D01*
X86219485Y-49269713D02*
X86219485Y-48650666D01*
%TO.C,D2*%
X115787905Y-70142819D02*
X115787905Y-69142819D01*
X115787905Y-69142819D02*
X116026000Y-69142819D01*
X116026000Y-69142819D02*
X116168857Y-69190438D01*
X116168857Y-69190438D02*
X116264095Y-69285676D01*
X116264095Y-69285676D02*
X116311714Y-69380914D01*
X116311714Y-69380914D02*
X116359333Y-69571390D01*
X116359333Y-69571390D02*
X116359333Y-69714247D01*
X116359333Y-69714247D02*
X116311714Y-69904723D01*
X116311714Y-69904723D02*
X116264095Y-69999961D01*
X116264095Y-69999961D02*
X116168857Y-70095200D01*
X116168857Y-70095200D02*
X116026000Y-70142819D01*
X116026000Y-70142819D02*
X115787905Y-70142819D01*
X116740286Y-69238057D02*
X116787905Y-69190438D01*
X116787905Y-69190438D02*
X116883143Y-69142819D01*
X116883143Y-69142819D02*
X117121238Y-69142819D01*
X117121238Y-69142819D02*
X117216476Y-69190438D01*
X117216476Y-69190438D02*
X117264095Y-69238057D01*
X117264095Y-69238057D02*
X117311714Y-69333295D01*
X117311714Y-69333295D02*
X117311714Y-69428533D01*
X117311714Y-69428533D02*
X117264095Y-69571390D01*
X117264095Y-69571390D02*
X116692667Y-70142819D01*
X116692667Y-70142819D02*
X117311714Y-70142819D01*
%TO.C,Y2*%
X122968628Y-58236190D02*
X123444819Y-58236190D01*
X122444819Y-58569523D02*
X122968628Y-58236190D01*
X122968628Y-58236190D02*
X122444819Y-57902857D01*
X122540057Y-57617142D02*
X122492438Y-57569523D01*
X122492438Y-57569523D02*
X122444819Y-57474285D01*
X122444819Y-57474285D02*
X122444819Y-57236190D01*
X122444819Y-57236190D02*
X122492438Y-57140952D01*
X122492438Y-57140952D02*
X122540057Y-57093333D01*
X122540057Y-57093333D02*
X122635295Y-57045714D01*
X122635295Y-57045714D02*
X122730533Y-57045714D01*
X122730533Y-57045714D02*
X122873390Y-57093333D01*
X122873390Y-57093333D02*
X123444819Y-57664761D01*
X123444819Y-57664761D02*
X123444819Y-57045714D01*
%TO.C,C8*%
X122898833Y-61313580D02*
X122851214Y-61361200D01*
X122851214Y-61361200D02*
X122708357Y-61408819D01*
X122708357Y-61408819D02*
X122613119Y-61408819D01*
X122613119Y-61408819D02*
X122470262Y-61361200D01*
X122470262Y-61361200D02*
X122375024Y-61265961D01*
X122375024Y-61265961D02*
X122327405Y-61170723D01*
X122327405Y-61170723D02*
X122279786Y-60980247D01*
X122279786Y-60980247D02*
X122279786Y-60837390D01*
X122279786Y-60837390D02*
X122327405Y-60646914D01*
X122327405Y-60646914D02*
X122375024Y-60551676D01*
X122375024Y-60551676D02*
X122470262Y-60456438D01*
X122470262Y-60456438D02*
X122613119Y-60408819D01*
X122613119Y-60408819D02*
X122708357Y-60408819D01*
X122708357Y-60408819D02*
X122851214Y-60456438D01*
X122851214Y-60456438D02*
X122898833Y-60504057D01*
X123470262Y-60837390D02*
X123375024Y-60789771D01*
X123375024Y-60789771D02*
X123327405Y-60742152D01*
X123327405Y-60742152D02*
X123279786Y-60646914D01*
X123279786Y-60646914D02*
X123279786Y-60599295D01*
X123279786Y-60599295D02*
X123327405Y-60504057D01*
X123327405Y-60504057D02*
X123375024Y-60456438D01*
X123375024Y-60456438D02*
X123470262Y-60408819D01*
X123470262Y-60408819D02*
X123660738Y-60408819D01*
X123660738Y-60408819D02*
X123755976Y-60456438D01*
X123755976Y-60456438D02*
X123803595Y-60504057D01*
X123803595Y-60504057D02*
X123851214Y-60599295D01*
X123851214Y-60599295D02*
X123851214Y-60646914D01*
X123851214Y-60646914D02*
X123803595Y-60742152D01*
X123803595Y-60742152D02*
X123755976Y-60789771D01*
X123755976Y-60789771D02*
X123660738Y-60837390D01*
X123660738Y-60837390D02*
X123470262Y-60837390D01*
X123470262Y-60837390D02*
X123375024Y-60885009D01*
X123375024Y-60885009D02*
X123327405Y-60932628D01*
X123327405Y-60932628D02*
X123279786Y-61027866D01*
X123279786Y-61027866D02*
X123279786Y-61218342D01*
X123279786Y-61218342D02*
X123327405Y-61313580D01*
X123327405Y-61313580D02*
X123375024Y-61361200D01*
X123375024Y-61361200D02*
X123470262Y-61408819D01*
X123470262Y-61408819D02*
X123660738Y-61408819D01*
X123660738Y-61408819D02*
X123755976Y-61361200D01*
X123755976Y-61361200D02*
X123803595Y-61313580D01*
X123803595Y-61313580D02*
X123851214Y-61218342D01*
X123851214Y-61218342D02*
X123851214Y-61027866D01*
X123851214Y-61027866D02*
X123803595Y-60932628D01*
X123803595Y-60932628D02*
X123755976Y-60885009D01*
X123755976Y-60885009D02*
X123660738Y-60837390D01*
%TO.C,JP2*%
X125633819Y-60637333D02*
X126348104Y-60637333D01*
X126348104Y-60637333D02*
X126490961Y-60684952D01*
X126490961Y-60684952D02*
X126586200Y-60780190D01*
X126586200Y-60780190D02*
X126633819Y-60923047D01*
X126633819Y-60923047D02*
X126633819Y-61018285D01*
X126633819Y-60161142D02*
X125633819Y-60161142D01*
X125633819Y-60161142D02*
X125633819Y-59780190D01*
X125633819Y-59780190D02*
X125681438Y-59684952D01*
X125681438Y-59684952D02*
X125729057Y-59637333D01*
X125729057Y-59637333D02*
X125824295Y-59589714D01*
X125824295Y-59589714D02*
X125967152Y-59589714D01*
X125967152Y-59589714D02*
X126062390Y-59637333D01*
X126062390Y-59637333D02*
X126110009Y-59684952D01*
X126110009Y-59684952D02*
X126157628Y-59780190D01*
X126157628Y-59780190D02*
X126157628Y-60161142D01*
X125729057Y-59208761D02*
X125681438Y-59161142D01*
X125681438Y-59161142D02*
X125633819Y-59065904D01*
X125633819Y-59065904D02*
X125633819Y-58827809D01*
X125633819Y-58827809D02*
X125681438Y-58732571D01*
X125681438Y-58732571D02*
X125729057Y-58684952D01*
X125729057Y-58684952D02*
X125824295Y-58637333D01*
X125824295Y-58637333D02*
X125919533Y-58637333D01*
X125919533Y-58637333D02*
X126062390Y-58684952D01*
X126062390Y-58684952D02*
X126633819Y-59256380D01*
X126633819Y-59256380D02*
X126633819Y-58637333D01*
%TO.C,C5*%
X118160833Y-67789580D02*
X118113214Y-67837200D01*
X118113214Y-67837200D02*
X117970357Y-67884819D01*
X117970357Y-67884819D02*
X117875119Y-67884819D01*
X117875119Y-67884819D02*
X117732262Y-67837200D01*
X117732262Y-67837200D02*
X117637024Y-67741961D01*
X117637024Y-67741961D02*
X117589405Y-67646723D01*
X117589405Y-67646723D02*
X117541786Y-67456247D01*
X117541786Y-67456247D02*
X117541786Y-67313390D01*
X117541786Y-67313390D02*
X117589405Y-67122914D01*
X117589405Y-67122914D02*
X117637024Y-67027676D01*
X117637024Y-67027676D02*
X117732262Y-66932438D01*
X117732262Y-66932438D02*
X117875119Y-66884819D01*
X117875119Y-66884819D02*
X117970357Y-66884819D01*
X117970357Y-66884819D02*
X118113214Y-66932438D01*
X118113214Y-66932438D02*
X118160833Y-66980057D01*
X119065595Y-66884819D02*
X118589405Y-66884819D01*
X118589405Y-66884819D02*
X118541786Y-67361009D01*
X118541786Y-67361009D02*
X118589405Y-67313390D01*
X118589405Y-67313390D02*
X118684643Y-67265771D01*
X118684643Y-67265771D02*
X118922738Y-67265771D01*
X118922738Y-67265771D02*
X119017976Y-67313390D01*
X119017976Y-67313390D02*
X119065595Y-67361009D01*
X119065595Y-67361009D02*
X119113214Y-67456247D01*
X119113214Y-67456247D02*
X119113214Y-67694342D01*
X119113214Y-67694342D02*
X119065595Y-67789580D01*
X119065595Y-67789580D02*
X119017976Y-67837200D01*
X119017976Y-67837200D02*
X118922738Y-67884819D01*
X118922738Y-67884819D02*
X118684643Y-67884819D01*
X118684643Y-67884819D02*
X118589405Y-67837200D01*
X118589405Y-67837200D02*
X118541786Y-67789580D01*
%TO.C,U2*%
X126111819Y-69146904D02*
X126921342Y-69146904D01*
X126921342Y-69146904D02*
X127016580Y-69099285D01*
X127016580Y-69099285D02*
X127064200Y-69051666D01*
X127064200Y-69051666D02*
X127111819Y-68956428D01*
X127111819Y-68956428D02*
X127111819Y-68765952D01*
X127111819Y-68765952D02*
X127064200Y-68670714D01*
X127064200Y-68670714D02*
X127016580Y-68623095D01*
X127016580Y-68623095D02*
X126921342Y-68575476D01*
X126921342Y-68575476D02*
X126111819Y-68575476D01*
X126207057Y-68146904D02*
X126159438Y-68099285D01*
X126159438Y-68099285D02*
X126111819Y-68004047D01*
X126111819Y-68004047D02*
X126111819Y-67765952D01*
X126111819Y-67765952D02*
X126159438Y-67670714D01*
X126159438Y-67670714D02*
X126207057Y-67623095D01*
X126207057Y-67623095D02*
X126302295Y-67575476D01*
X126302295Y-67575476D02*
X126397533Y-67575476D01*
X126397533Y-67575476D02*
X126540390Y-67623095D01*
X126540390Y-67623095D02*
X127111819Y-68194523D01*
X127111819Y-68194523D02*
X127111819Y-67575476D01*
%TO.C,H2*%
X123303151Y-73100875D02*
X123303151Y-72100875D01*
X123303151Y-72577065D02*
X123874579Y-72577065D01*
X123874579Y-73100875D02*
X123874579Y-72100875D01*
X124303151Y-72196113D02*
X124350770Y-72148494D01*
X124350770Y-72148494D02*
X124446008Y-72100875D01*
X124446008Y-72100875D02*
X124684103Y-72100875D01*
X124684103Y-72100875D02*
X124779341Y-72148494D01*
X124779341Y-72148494D02*
X124826960Y-72196113D01*
X124826960Y-72196113D02*
X124874579Y-72291351D01*
X124874579Y-72291351D02*
X124874579Y-72386589D01*
X124874579Y-72386589D02*
X124826960Y-72529446D01*
X124826960Y-72529446D02*
X124255532Y-73100875D01*
X124255532Y-73100875D02*
X124874579Y-73100875D01*
%TO.C,R2*%
X125111333Y-57377819D02*
X124778000Y-56901628D01*
X124539905Y-57377819D02*
X124539905Y-56377819D01*
X124539905Y-56377819D02*
X124920857Y-56377819D01*
X124920857Y-56377819D02*
X125016095Y-56425438D01*
X125016095Y-56425438D02*
X125063714Y-56473057D01*
X125063714Y-56473057D02*
X125111333Y-56568295D01*
X125111333Y-56568295D02*
X125111333Y-56711152D01*
X125111333Y-56711152D02*
X125063714Y-56806390D01*
X125063714Y-56806390D02*
X125016095Y-56854009D01*
X125016095Y-56854009D02*
X124920857Y-56901628D01*
X124920857Y-56901628D02*
X124539905Y-56901628D01*
X125492286Y-56473057D02*
X125539905Y-56425438D01*
X125539905Y-56425438D02*
X125635143Y-56377819D01*
X125635143Y-56377819D02*
X125873238Y-56377819D01*
X125873238Y-56377819D02*
X125968476Y-56425438D01*
X125968476Y-56425438D02*
X126016095Y-56473057D01*
X126016095Y-56473057D02*
X126063714Y-56568295D01*
X126063714Y-56568295D02*
X126063714Y-56663533D01*
X126063714Y-56663533D02*
X126016095Y-56806390D01*
X126016095Y-56806390D02*
X125444667Y-57377819D01*
X125444667Y-57377819D02*
X126063714Y-57377819D01*
%TO.C,C1*%
X102410833Y-62039580D02*
X102363214Y-62087200D01*
X102363214Y-62087200D02*
X102220357Y-62134819D01*
X102220357Y-62134819D02*
X102125119Y-62134819D01*
X102125119Y-62134819D02*
X101982262Y-62087200D01*
X101982262Y-62087200D02*
X101887024Y-61991961D01*
X101887024Y-61991961D02*
X101839405Y-61896723D01*
X101839405Y-61896723D02*
X101791786Y-61706247D01*
X101791786Y-61706247D02*
X101791786Y-61563390D01*
X101791786Y-61563390D02*
X101839405Y-61372914D01*
X101839405Y-61372914D02*
X101887024Y-61277676D01*
X101887024Y-61277676D02*
X101982262Y-61182438D01*
X101982262Y-61182438D02*
X102125119Y-61134819D01*
X102125119Y-61134819D02*
X102220357Y-61134819D01*
X102220357Y-61134819D02*
X102363214Y-61182438D01*
X102363214Y-61182438D02*
X102410833Y-61230057D01*
X103363214Y-62134819D02*
X102791786Y-62134819D01*
X103077500Y-62134819D02*
X103077500Y-61134819D01*
X103077500Y-61134819D02*
X102982262Y-61277676D01*
X102982262Y-61277676D02*
X102887024Y-61372914D01*
X102887024Y-61372914D02*
X102791786Y-61420533D01*
%TO.C,J2*%
X95706666Y-34858819D02*
X95706666Y-35573104D01*
X95706666Y-35573104D02*
X95659047Y-35715961D01*
X95659047Y-35715961D02*
X95563809Y-35811200D01*
X95563809Y-35811200D02*
X95420952Y-35858819D01*
X95420952Y-35858819D02*
X95325714Y-35858819D01*
X96135238Y-34954057D02*
X96182857Y-34906438D01*
X96182857Y-34906438D02*
X96278095Y-34858819D01*
X96278095Y-34858819D02*
X96516190Y-34858819D01*
X96516190Y-34858819D02*
X96611428Y-34906438D01*
X96611428Y-34906438D02*
X96659047Y-34954057D01*
X96659047Y-34954057D02*
X96706666Y-35049295D01*
X96706666Y-35049295D02*
X96706666Y-35144533D01*
X96706666Y-35144533D02*
X96659047Y-35287390D01*
X96659047Y-35287390D02*
X96087619Y-35858819D01*
X96087619Y-35858819D02*
X96706666Y-35858819D01*
%TO.C,U1*%
X93678095Y-55714819D02*
X93678095Y-56524342D01*
X93678095Y-56524342D02*
X93725714Y-56619580D01*
X93725714Y-56619580D02*
X93773333Y-56667200D01*
X93773333Y-56667200D02*
X93868571Y-56714819D01*
X93868571Y-56714819D02*
X94059047Y-56714819D01*
X94059047Y-56714819D02*
X94154285Y-56667200D01*
X94154285Y-56667200D02*
X94201904Y-56619580D01*
X94201904Y-56619580D02*
X94249523Y-56524342D01*
X94249523Y-56524342D02*
X94249523Y-55714819D01*
X95249523Y-56714819D02*
X94678095Y-56714819D01*
X94963809Y-56714819D02*
X94963809Y-55714819D01*
X94963809Y-55714819D02*
X94868571Y-55857676D01*
X94868571Y-55857676D02*
X94773333Y-55952914D01*
X94773333Y-55952914D02*
X94678095Y-56000533D01*
%TO.C,C2*%
X97160833Y-61539580D02*
X97113214Y-61587200D01*
X97113214Y-61587200D02*
X96970357Y-61634819D01*
X96970357Y-61634819D02*
X96875119Y-61634819D01*
X96875119Y-61634819D02*
X96732262Y-61587200D01*
X96732262Y-61587200D02*
X96637024Y-61491961D01*
X96637024Y-61491961D02*
X96589405Y-61396723D01*
X96589405Y-61396723D02*
X96541786Y-61206247D01*
X96541786Y-61206247D02*
X96541786Y-61063390D01*
X96541786Y-61063390D02*
X96589405Y-60872914D01*
X96589405Y-60872914D02*
X96637024Y-60777676D01*
X96637024Y-60777676D02*
X96732262Y-60682438D01*
X96732262Y-60682438D02*
X96875119Y-60634819D01*
X96875119Y-60634819D02*
X96970357Y-60634819D01*
X96970357Y-60634819D02*
X97113214Y-60682438D01*
X97113214Y-60682438D02*
X97160833Y-60730057D01*
X97541786Y-60730057D02*
X97589405Y-60682438D01*
X97589405Y-60682438D02*
X97684643Y-60634819D01*
X97684643Y-60634819D02*
X97922738Y-60634819D01*
X97922738Y-60634819D02*
X98017976Y-60682438D01*
X98017976Y-60682438D02*
X98065595Y-60730057D01*
X98065595Y-60730057D02*
X98113214Y-60825295D01*
X98113214Y-60825295D02*
X98113214Y-60920533D01*
X98113214Y-60920533D02*
X98065595Y-61063390D01*
X98065595Y-61063390D02*
X97494167Y-61634819D01*
X97494167Y-61634819D02*
X98113214Y-61634819D01*
%TO.C,U3*%
X111028095Y-65264819D02*
X111028095Y-66074342D01*
X111028095Y-66074342D02*
X111075714Y-66169580D01*
X111075714Y-66169580D02*
X111123333Y-66217200D01*
X111123333Y-66217200D02*
X111218571Y-66264819D01*
X111218571Y-66264819D02*
X111409047Y-66264819D01*
X111409047Y-66264819D02*
X111504285Y-66217200D01*
X111504285Y-66217200D02*
X111551904Y-66169580D01*
X111551904Y-66169580D02*
X111599523Y-66074342D01*
X111599523Y-66074342D02*
X111599523Y-65264819D01*
X111980476Y-65264819D02*
X112599523Y-65264819D01*
X112599523Y-65264819D02*
X112266190Y-65645771D01*
X112266190Y-65645771D02*
X112409047Y-65645771D01*
X112409047Y-65645771D02*
X112504285Y-65693390D01*
X112504285Y-65693390D02*
X112551904Y-65741009D01*
X112551904Y-65741009D02*
X112599523Y-65836247D01*
X112599523Y-65836247D02*
X112599523Y-66074342D01*
X112599523Y-66074342D02*
X112551904Y-66169580D01*
X112551904Y-66169580D02*
X112504285Y-66217200D01*
X112504285Y-66217200D02*
X112409047Y-66264819D01*
X112409047Y-66264819D02*
X112123333Y-66264819D01*
X112123333Y-66264819D02*
X112028095Y-66217200D01*
X112028095Y-66217200D02*
X111980476Y-66169580D01*
%TO.C,R7*%
X89594819Y-46276666D02*
X89118628Y-46609999D01*
X89594819Y-46848094D02*
X88594819Y-46848094D01*
X88594819Y-46848094D02*
X88594819Y-46467142D01*
X88594819Y-46467142D02*
X88642438Y-46371904D01*
X88642438Y-46371904D02*
X88690057Y-46324285D01*
X88690057Y-46324285D02*
X88785295Y-46276666D01*
X88785295Y-46276666D02*
X88928152Y-46276666D01*
X88928152Y-46276666D02*
X89023390Y-46324285D01*
X89023390Y-46324285D02*
X89071009Y-46371904D01*
X89071009Y-46371904D02*
X89118628Y-46467142D01*
X89118628Y-46467142D02*
X89118628Y-46848094D01*
X88594819Y-45943332D02*
X88594819Y-45276666D01*
X88594819Y-45276666D02*
X89594819Y-45705237D01*
%TO.C,F1*%
X74219166Y-42511009D02*
X73885833Y-42511009D01*
X73885833Y-43034819D02*
X73885833Y-42034819D01*
X73885833Y-42034819D02*
X74362023Y-42034819D01*
X75266785Y-43034819D02*
X74695357Y-43034819D01*
X74981071Y-43034819D02*
X74981071Y-42034819D01*
X74981071Y-42034819D02*
X74885833Y-42177676D01*
X74885833Y-42177676D02*
X74790595Y-42272914D01*
X74790595Y-42272914D02*
X74695357Y-42320533D01*
%TO.C,R4*%
X101054819Y-48621666D02*
X100578628Y-48954999D01*
X101054819Y-49193094D02*
X100054819Y-49193094D01*
X100054819Y-49193094D02*
X100054819Y-48812142D01*
X100054819Y-48812142D02*
X100102438Y-48716904D01*
X100102438Y-48716904D02*
X100150057Y-48669285D01*
X100150057Y-48669285D02*
X100245295Y-48621666D01*
X100245295Y-48621666D02*
X100388152Y-48621666D01*
X100388152Y-48621666D02*
X100483390Y-48669285D01*
X100483390Y-48669285D02*
X100531009Y-48716904D01*
X100531009Y-48716904D02*
X100578628Y-48812142D01*
X100578628Y-48812142D02*
X100578628Y-49193094D01*
X100388152Y-47764523D02*
X101054819Y-47764523D01*
X100007200Y-48002618D02*
X100721485Y-48240713D01*
X100721485Y-48240713D02*
X100721485Y-47621666D01*
%TO.C,FID2*%
X70468571Y-66041009D02*
X70135238Y-66041009D01*
X70135238Y-66564819D02*
X70135238Y-65564819D01*
X70135238Y-65564819D02*
X70611428Y-65564819D01*
X70992381Y-66564819D02*
X70992381Y-65564819D01*
X71468571Y-66564819D02*
X71468571Y-65564819D01*
X71468571Y-65564819D02*
X71706666Y-65564819D01*
X71706666Y-65564819D02*
X71849523Y-65612438D01*
X71849523Y-65612438D02*
X71944761Y-65707676D01*
X71944761Y-65707676D02*
X71992380Y-65802914D01*
X71992380Y-65802914D02*
X72039999Y-65993390D01*
X72039999Y-65993390D02*
X72039999Y-66136247D01*
X72039999Y-66136247D02*
X71992380Y-66326723D01*
X71992380Y-66326723D02*
X71944761Y-66421961D01*
X71944761Y-66421961D02*
X71849523Y-66517200D01*
X71849523Y-66517200D02*
X71706666Y-66564819D01*
X71706666Y-66564819D02*
X71468571Y-66564819D01*
X72420952Y-65660057D02*
X72468571Y-65612438D01*
X72468571Y-65612438D02*
X72563809Y-65564819D01*
X72563809Y-65564819D02*
X72801904Y-65564819D01*
X72801904Y-65564819D02*
X72897142Y-65612438D01*
X72897142Y-65612438D02*
X72944761Y-65660057D01*
X72944761Y-65660057D02*
X72992380Y-65755295D01*
X72992380Y-65755295D02*
X72992380Y-65850533D01*
X72992380Y-65850533D02*
X72944761Y-65993390D01*
X72944761Y-65993390D02*
X72373333Y-66564819D01*
X72373333Y-66564819D02*
X72992380Y-66564819D01*
%TO.C,FID3*%
X123718571Y-53041009D02*
X123385238Y-53041009D01*
X123385238Y-53564819D02*
X123385238Y-52564819D01*
X123385238Y-52564819D02*
X123861428Y-52564819D01*
X124242381Y-53564819D02*
X124242381Y-52564819D01*
X124718571Y-53564819D02*
X124718571Y-52564819D01*
X124718571Y-52564819D02*
X124956666Y-52564819D01*
X124956666Y-52564819D02*
X125099523Y-52612438D01*
X125099523Y-52612438D02*
X125194761Y-52707676D01*
X125194761Y-52707676D02*
X125242380Y-52802914D01*
X125242380Y-52802914D02*
X125289999Y-52993390D01*
X125289999Y-52993390D02*
X125289999Y-53136247D01*
X125289999Y-53136247D02*
X125242380Y-53326723D01*
X125242380Y-53326723D02*
X125194761Y-53421961D01*
X125194761Y-53421961D02*
X125099523Y-53517200D01*
X125099523Y-53517200D02*
X124956666Y-53564819D01*
X124956666Y-53564819D02*
X124718571Y-53564819D01*
X125623333Y-52564819D02*
X126242380Y-52564819D01*
X126242380Y-52564819D02*
X125909047Y-52945771D01*
X125909047Y-52945771D02*
X126051904Y-52945771D01*
X126051904Y-52945771D02*
X126147142Y-52993390D01*
X126147142Y-52993390D02*
X126194761Y-53041009D01*
X126194761Y-53041009D02*
X126242380Y-53136247D01*
X126242380Y-53136247D02*
X126242380Y-53374342D01*
X126242380Y-53374342D02*
X126194761Y-53469580D01*
X126194761Y-53469580D02*
X126147142Y-53517200D01*
X126147142Y-53517200D02*
X126051904Y-53564819D01*
X126051904Y-53564819D02*
X125766190Y-53564819D01*
X125766190Y-53564819D02*
X125670952Y-53517200D01*
X125670952Y-53517200D02*
X125623333Y-53469580D01*
%TO.C,C3*%
X74173333Y-46769580D02*
X74125714Y-46817200D01*
X74125714Y-46817200D02*
X73982857Y-46864819D01*
X73982857Y-46864819D02*
X73887619Y-46864819D01*
X73887619Y-46864819D02*
X73744762Y-46817200D01*
X73744762Y-46817200D02*
X73649524Y-46721961D01*
X73649524Y-46721961D02*
X73601905Y-46626723D01*
X73601905Y-46626723D02*
X73554286Y-46436247D01*
X73554286Y-46436247D02*
X73554286Y-46293390D01*
X73554286Y-46293390D02*
X73601905Y-46102914D01*
X73601905Y-46102914D02*
X73649524Y-46007676D01*
X73649524Y-46007676D02*
X73744762Y-45912438D01*
X73744762Y-45912438D02*
X73887619Y-45864819D01*
X73887619Y-45864819D02*
X73982857Y-45864819D01*
X73982857Y-45864819D02*
X74125714Y-45912438D01*
X74125714Y-45912438D02*
X74173333Y-45960057D01*
X74506667Y-45864819D02*
X75125714Y-45864819D01*
X75125714Y-45864819D02*
X74792381Y-46245771D01*
X74792381Y-46245771D02*
X74935238Y-46245771D01*
X74935238Y-46245771D02*
X75030476Y-46293390D01*
X75030476Y-46293390D02*
X75078095Y-46341009D01*
X75078095Y-46341009D02*
X75125714Y-46436247D01*
X75125714Y-46436247D02*
X75125714Y-46674342D01*
X75125714Y-46674342D02*
X75078095Y-46769580D01*
X75078095Y-46769580D02*
X75030476Y-46817200D01*
X75030476Y-46817200D02*
X74935238Y-46864819D01*
X74935238Y-46864819D02*
X74649524Y-46864819D01*
X74649524Y-46864819D02*
X74554286Y-46817200D01*
X74554286Y-46817200D02*
X74506667Y-46769580D01*
%TO.C,C4*%
X76969580Y-53564166D02*
X77017200Y-53611785D01*
X77017200Y-53611785D02*
X77064819Y-53754642D01*
X77064819Y-53754642D02*
X77064819Y-53849880D01*
X77064819Y-53849880D02*
X77017200Y-53992737D01*
X77017200Y-53992737D02*
X76921961Y-54087975D01*
X76921961Y-54087975D02*
X76826723Y-54135594D01*
X76826723Y-54135594D02*
X76636247Y-54183213D01*
X76636247Y-54183213D02*
X76493390Y-54183213D01*
X76493390Y-54183213D02*
X76302914Y-54135594D01*
X76302914Y-54135594D02*
X76207676Y-54087975D01*
X76207676Y-54087975D02*
X76112438Y-53992737D01*
X76112438Y-53992737D02*
X76064819Y-53849880D01*
X76064819Y-53849880D02*
X76064819Y-53754642D01*
X76064819Y-53754642D02*
X76112438Y-53611785D01*
X76112438Y-53611785D02*
X76160057Y-53564166D01*
X76398152Y-52707023D02*
X77064819Y-52707023D01*
X76017200Y-52945118D02*
X76731485Y-53183213D01*
X76731485Y-53183213D02*
X76731485Y-52564166D01*
%TO.C,C13*%
X73347142Y-56019580D02*
X73299523Y-56067200D01*
X73299523Y-56067200D02*
X73156666Y-56114819D01*
X73156666Y-56114819D02*
X73061428Y-56114819D01*
X73061428Y-56114819D02*
X72918571Y-56067200D01*
X72918571Y-56067200D02*
X72823333Y-55971961D01*
X72823333Y-55971961D02*
X72775714Y-55876723D01*
X72775714Y-55876723D02*
X72728095Y-55686247D01*
X72728095Y-55686247D02*
X72728095Y-55543390D01*
X72728095Y-55543390D02*
X72775714Y-55352914D01*
X72775714Y-55352914D02*
X72823333Y-55257676D01*
X72823333Y-55257676D02*
X72918571Y-55162438D01*
X72918571Y-55162438D02*
X73061428Y-55114819D01*
X73061428Y-55114819D02*
X73156666Y-55114819D01*
X73156666Y-55114819D02*
X73299523Y-55162438D01*
X73299523Y-55162438D02*
X73347142Y-55210057D01*
X74299523Y-56114819D02*
X73728095Y-56114819D01*
X74013809Y-56114819D02*
X74013809Y-55114819D01*
X74013809Y-55114819D02*
X73918571Y-55257676D01*
X73918571Y-55257676D02*
X73823333Y-55352914D01*
X73823333Y-55352914D02*
X73728095Y-55400533D01*
X74632857Y-55114819D02*
X75251904Y-55114819D01*
X75251904Y-55114819D02*
X74918571Y-55495771D01*
X74918571Y-55495771D02*
X75061428Y-55495771D01*
X75061428Y-55495771D02*
X75156666Y-55543390D01*
X75156666Y-55543390D02*
X75204285Y-55591009D01*
X75204285Y-55591009D02*
X75251904Y-55686247D01*
X75251904Y-55686247D02*
X75251904Y-55924342D01*
X75251904Y-55924342D02*
X75204285Y-56019580D01*
X75204285Y-56019580D02*
X75156666Y-56067200D01*
X75156666Y-56067200D02*
X75061428Y-56114819D01*
X75061428Y-56114819D02*
X74775714Y-56114819D01*
X74775714Y-56114819D02*
X74680476Y-56067200D01*
X74680476Y-56067200D02*
X74632857Y-56019580D01*
%TO.C,C14*%
X73347142Y-61769580D02*
X73299523Y-61817200D01*
X73299523Y-61817200D02*
X73156666Y-61864819D01*
X73156666Y-61864819D02*
X73061428Y-61864819D01*
X73061428Y-61864819D02*
X72918571Y-61817200D01*
X72918571Y-61817200D02*
X72823333Y-61721961D01*
X72823333Y-61721961D02*
X72775714Y-61626723D01*
X72775714Y-61626723D02*
X72728095Y-61436247D01*
X72728095Y-61436247D02*
X72728095Y-61293390D01*
X72728095Y-61293390D02*
X72775714Y-61102914D01*
X72775714Y-61102914D02*
X72823333Y-61007676D01*
X72823333Y-61007676D02*
X72918571Y-60912438D01*
X72918571Y-60912438D02*
X73061428Y-60864819D01*
X73061428Y-60864819D02*
X73156666Y-60864819D01*
X73156666Y-60864819D02*
X73299523Y-60912438D01*
X73299523Y-60912438D02*
X73347142Y-60960057D01*
X74299523Y-61864819D02*
X73728095Y-61864819D01*
X74013809Y-61864819D02*
X74013809Y-60864819D01*
X74013809Y-60864819D02*
X73918571Y-61007676D01*
X73918571Y-61007676D02*
X73823333Y-61102914D01*
X73823333Y-61102914D02*
X73728095Y-61150533D01*
X75156666Y-61198152D02*
X75156666Y-61864819D01*
X74918571Y-60817200D02*
X74680476Y-61531485D01*
X74680476Y-61531485D02*
X75299523Y-61531485D01*
%TO.C,J6*%
X127294819Y-44693333D02*
X128009104Y-44693333D01*
X128009104Y-44693333D02*
X128151961Y-44740952D01*
X128151961Y-44740952D02*
X128247200Y-44836190D01*
X128247200Y-44836190D02*
X128294819Y-44979047D01*
X128294819Y-44979047D02*
X128294819Y-45074285D01*
X127294819Y-43788571D02*
X127294819Y-43979047D01*
X127294819Y-43979047D02*
X127342438Y-44074285D01*
X127342438Y-44074285D02*
X127390057Y-44121904D01*
X127390057Y-44121904D02*
X127532914Y-44217142D01*
X127532914Y-44217142D02*
X127723390Y-44264761D01*
X127723390Y-44264761D02*
X128104342Y-44264761D01*
X128104342Y-44264761D02*
X128199580Y-44217142D01*
X128199580Y-44217142D02*
X128247200Y-44169523D01*
X128247200Y-44169523D02*
X128294819Y-44074285D01*
X128294819Y-44074285D02*
X128294819Y-43883809D01*
X128294819Y-43883809D02*
X128247200Y-43788571D01*
X128247200Y-43788571D02*
X128199580Y-43740952D01*
X128199580Y-43740952D02*
X128104342Y-43693333D01*
X128104342Y-43693333D02*
X127866247Y-43693333D01*
X127866247Y-43693333D02*
X127771009Y-43740952D01*
X127771009Y-43740952D02*
X127723390Y-43788571D01*
X127723390Y-43788571D02*
X127675771Y-43883809D01*
X127675771Y-43883809D02*
X127675771Y-44074285D01*
X127675771Y-44074285D02*
X127723390Y-44169523D01*
X127723390Y-44169523D02*
X127771009Y-44217142D01*
X127771009Y-44217142D02*
X127866247Y-44264761D01*
%TO.C,L1*%
X79094819Y-53714166D02*
X79094819Y-54190356D01*
X79094819Y-54190356D02*
X78094819Y-54190356D01*
X79094819Y-52857023D02*
X79094819Y-53428451D01*
X79094819Y-53142737D02*
X78094819Y-53142737D01*
X78094819Y-53142737D02*
X78237676Y-53237975D01*
X78237676Y-53237975D02*
X78332914Y-53333213D01*
X78332914Y-53333213D02*
X78380533Y-53428451D01*
%TO.C,J1*%
X114361666Y-79735819D02*
X114361666Y-80450104D01*
X114361666Y-80450104D02*
X114314047Y-80592961D01*
X114314047Y-80592961D02*
X114218809Y-80688200D01*
X114218809Y-80688200D02*
X114075952Y-80735819D01*
X114075952Y-80735819D02*
X113980714Y-80735819D01*
X115361666Y-80735819D02*
X114790238Y-80735819D01*
X115075952Y-80735819D02*
X115075952Y-79735819D01*
X115075952Y-79735819D02*
X114980714Y-79878676D01*
X114980714Y-79878676D02*
X114885476Y-79973914D01*
X114885476Y-79973914D02*
X114790238Y-80021533D01*
%TO.C,J8*%
X98824819Y-73943333D02*
X99539104Y-73943333D01*
X99539104Y-73943333D02*
X99681961Y-73990952D01*
X99681961Y-73990952D02*
X99777200Y-74086190D01*
X99777200Y-74086190D02*
X99824819Y-74229047D01*
X99824819Y-74229047D02*
X99824819Y-74324285D01*
X99253390Y-73324285D02*
X99205771Y-73419523D01*
X99205771Y-73419523D02*
X99158152Y-73467142D01*
X99158152Y-73467142D02*
X99062914Y-73514761D01*
X99062914Y-73514761D02*
X99015295Y-73514761D01*
X99015295Y-73514761D02*
X98920057Y-73467142D01*
X98920057Y-73467142D02*
X98872438Y-73419523D01*
X98872438Y-73419523D02*
X98824819Y-73324285D01*
X98824819Y-73324285D02*
X98824819Y-73133809D01*
X98824819Y-73133809D02*
X98872438Y-73038571D01*
X98872438Y-73038571D02*
X98920057Y-72990952D01*
X98920057Y-72990952D02*
X99015295Y-72943333D01*
X99015295Y-72943333D02*
X99062914Y-72943333D01*
X99062914Y-72943333D02*
X99158152Y-72990952D01*
X99158152Y-72990952D02*
X99205771Y-73038571D01*
X99205771Y-73038571D02*
X99253390Y-73133809D01*
X99253390Y-73133809D02*
X99253390Y-73324285D01*
X99253390Y-73324285D02*
X99301009Y-73419523D01*
X99301009Y-73419523D02*
X99348628Y-73467142D01*
X99348628Y-73467142D02*
X99443866Y-73514761D01*
X99443866Y-73514761D02*
X99634342Y-73514761D01*
X99634342Y-73514761D02*
X99729580Y-73467142D01*
X99729580Y-73467142D02*
X99777200Y-73419523D01*
X99777200Y-73419523D02*
X99824819Y-73324285D01*
X99824819Y-73324285D02*
X99824819Y-73133809D01*
X99824819Y-73133809D02*
X99777200Y-73038571D01*
X99777200Y-73038571D02*
X99729580Y-72990952D01*
X99729580Y-72990952D02*
X99634342Y-72943333D01*
X99634342Y-72943333D02*
X99443866Y-72943333D01*
X99443866Y-72943333D02*
X99348628Y-72990952D01*
X99348628Y-72990952D02*
X99301009Y-73038571D01*
X99301009Y-73038571D02*
X99253390Y-73133809D01*
%TO.C,C7*%
X123385833Y-53719580D02*
X123338214Y-53767200D01*
X123338214Y-53767200D02*
X123195357Y-53814819D01*
X123195357Y-53814819D02*
X123100119Y-53814819D01*
X123100119Y-53814819D02*
X122957262Y-53767200D01*
X122957262Y-53767200D02*
X122862024Y-53671961D01*
X122862024Y-53671961D02*
X122814405Y-53576723D01*
X122814405Y-53576723D02*
X122766786Y-53386247D01*
X122766786Y-53386247D02*
X122766786Y-53243390D01*
X122766786Y-53243390D02*
X122814405Y-53052914D01*
X122814405Y-53052914D02*
X122862024Y-52957676D01*
X122862024Y-52957676D02*
X122957262Y-52862438D01*
X122957262Y-52862438D02*
X123100119Y-52814819D01*
X123100119Y-52814819D02*
X123195357Y-52814819D01*
X123195357Y-52814819D02*
X123338214Y-52862438D01*
X123338214Y-52862438D02*
X123385833Y-52910057D01*
X123719167Y-52814819D02*
X124385833Y-52814819D01*
X124385833Y-52814819D02*
X123957262Y-53814819D01*
%TO.C,J4*%
X84706666Y-34858819D02*
X84706666Y-35573104D01*
X84706666Y-35573104D02*
X84659047Y-35715961D01*
X84659047Y-35715961D02*
X84563809Y-35811200D01*
X84563809Y-35811200D02*
X84420952Y-35858819D01*
X84420952Y-35858819D02*
X84325714Y-35858819D01*
X85611428Y-35192152D02*
X85611428Y-35858819D01*
X85373333Y-34811200D02*
X85135238Y-35525485D01*
X85135238Y-35525485D02*
X85754285Y-35525485D01*
%TO.C,C11*%
X93299580Y-46440357D02*
X93347200Y-46487976D01*
X93347200Y-46487976D02*
X93394819Y-46630833D01*
X93394819Y-46630833D02*
X93394819Y-46726071D01*
X93394819Y-46726071D02*
X93347200Y-46868928D01*
X93347200Y-46868928D02*
X93251961Y-46964166D01*
X93251961Y-46964166D02*
X93156723Y-47011785D01*
X93156723Y-47011785D02*
X92966247Y-47059404D01*
X92966247Y-47059404D02*
X92823390Y-47059404D01*
X92823390Y-47059404D02*
X92632914Y-47011785D01*
X92632914Y-47011785D02*
X92537676Y-46964166D01*
X92537676Y-46964166D02*
X92442438Y-46868928D01*
X92442438Y-46868928D02*
X92394819Y-46726071D01*
X92394819Y-46726071D02*
X92394819Y-46630833D01*
X92394819Y-46630833D02*
X92442438Y-46487976D01*
X92442438Y-46487976D02*
X92490057Y-46440357D01*
X93394819Y-45487976D02*
X93394819Y-46059404D01*
X93394819Y-45773690D02*
X92394819Y-45773690D01*
X92394819Y-45773690D02*
X92537676Y-45868928D01*
X92537676Y-45868928D02*
X92632914Y-45964166D01*
X92632914Y-45964166D02*
X92680533Y-46059404D01*
X93394819Y-44535595D02*
X93394819Y-45107023D01*
X93394819Y-44821309D02*
X92394819Y-44821309D01*
X92394819Y-44821309D02*
X92537676Y-44916547D01*
X92537676Y-44916547D02*
X92632914Y-45011785D01*
X92632914Y-45011785D02*
X92680533Y-45107023D01*
%TO.C,U5*%
X110528095Y-42814819D02*
X110528095Y-43624342D01*
X110528095Y-43624342D02*
X110575714Y-43719580D01*
X110575714Y-43719580D02*
X110623333Y-43767200D01*
X110623333Y-43767200D02*
X110718571Y-43814819D01*
X110718571Y-43814819D02*
X110909047Y-43814819D01*
X110909047Y-43814819D02*
X111004285Y-43767200D01*
X111004285Y-43767200D02*
X111051904Y-43719580D01*
X111051904Y-43719580D02*
X111099523Y-43624342D01*
X111099523Y-43624342D02*
X111099523Y-42814819D01*
X112051904Y-42814819D02*
X111575714Y-42814819D01*
X111575714Y-42814819D02*
X111528095Y-43291009D01*
X111528095Y-43291009D02*
X111575714Y-43243390D01*
X111575714Y-43243390D02*
X111670952Y-43195771D01*
X111670952Y-43195771D02*
X111909047Y-43195771D01*
X111909047Y-43195771D02*
X112004285Y-43243390D01*
X112004285Y-43243390D02*
X112051904Y-43291009D01*
X112051904Y-43291009D02*
X112099523Y-43386247D01*
X112099523Y-43386247D02*
X112099523Y-43624342D01*
X112099523Y-43624342D02*
X112051904Y-43719580D01*
X112051904Y-43719580D02*
X112004285Y-43767200D01*
X112004285Y-43767200D02*
X111909047Y-43814819D01*
X111909047Y-43814819D02*
X111670952Y-43814819D01*
X111670952Y-43814819D02*
X111575714Y-43767200D01*
X111575714Y-43767200D02*
X111528095Y-43719580D01*
X107337619Y-43719580D02*
X107290000Y-43767200D01*
X107290000Y-43767200D02*
X107147143Y-43814819D01*
X107147143Y-43814819D02*
X107051905Y-43814819D01*
X107051905Y-43814819D02*
X106909048Y-43767200D01*
X106909048Y-43767200D02*
X106813810Y-43671961D01*
X106813810Y-43671961D02*
X106766191Y-43576723D01*
X106766191Y-43576723D02*
X106718572Y-43386247D01*
X106718572Y-43386247D02*
X106718572Y-43243390D01*
X106718572Y-43243390D02*
X106766191Y-43052914D01*
X106766191Y-43052914D02*
X106813810Y-42957676D01*
X106813810Y-42957676D02*
X106909048Y-42862438D01*
X106909048Y-42862438D02*
X107051905Y-42814819D01*
X107051905Y-42814819D02*
X107147143Y-42814819D01*
X107147143Y-42814819D02*
X107290000Y-42862438D01*
X107290000Y-42862438D02*
X107337619Y-42910057D01*
X107718572Y-43529104D02*
X108194762Y-43529104D01*
X107623334Y-43814819D02*
X107956667Y-42814819D01*
X107956667Y-42814819D02*
X108290000Y-43814819D01*
X108623334Y-43814819D02*
X108623334Y-42814819D01*
X108623334Y-42814819D02*
X108956667Y-43529104D01*
X108956667Y-43529104D02*
X109290000Y-42814819D01*
X109290000Y-42814819D02*
X109290000Y-43814819D01*
X109766191Y-43433866D02*
X110528096Y-43433866D01*
X111004286Y-43814819D02*
X111004286Y-42814819D01*
X111004286Y-42814819D02*
X111337619Y-43529104D01*
X111337619Y-43529104D02*
X111670952Y-42814819D01*
X111670952Y-42814819D02*
X111670952Y-43814819D01*
X112290000Y-43243390D02*
X112194762Y-43195771D01*
X112194762Y-43195771D02*
X112147143Y-43148152D01*
X112147143Y-43148152D02*
X112099524Y-43052914D01*
X112099524Y-43052914D02*
X112099524Y-43005295D01*
X112099524Y-43005295D02*
X112147143Y-42910057D01*
X112147143Y-42910057D02*
X112194762Y-42862438D01*
X112194762Y-42862438D02*
X112290000Y-42814819D01*
X112290000Y-42814819D02*
X112480476Y-42814819D01*
X112480476Y-42814819D02*
X112575714Y-42862438D01*
X112575714Y-42862438D02*
X112623333Y-42910057D01*
X112623333Y-42910057D02*
X112670952Y-43005295D01*
X112670952Y-43005295D02*
X112670952Y-43052914D01*
X112670952Y-43052914D02*
X112623333Y-43148152D01*
X112623333Y-43148152D02*
X112575714Y-43195771D01*
X112575714Y-43195771D02*
X112480476Y-43243390D01*
X112480476Y-43243390D02*
X112290000Y-43243390D01*
X112290000Y-43243390D02*
X112194762Y-43291009D01*
X112194762Y-43291009D02*
X112147143Y-43338628D01*
X112147143Y-43338628D02*
X112099524Y-43433866D01*
X112099524Y-43433866D02*
X112099524Y-43624342D01*
X112099524Y-43624342D02*
X112147143Y-43719580D01*
X112147143Y-43719580D02*
X112194762Y-43767200D01*
X112194762Y-43767200D02*
X112290000Y-43814819D01*
X112290000Y-43814819D02*
X112480476Y-43814819D01*
X112480476Y-43814819D02*
X112575714Y-43767200D01*
X112575714Y-43767200D02*
X112623333Y-43719580D01*
X112623333Y-43719580D02*
X112670952Y-43624342D01*
X112670952Y-43624342D02*
X112670952Y-43433866D01*
X112670952Y-43433866D02*
X112623333Y-43338628D01*
X112623333Y-43338628D02*
X112575714Y-43291009D01*
X112575714Y-43291009D02*
X112480476Y-43243390D01*
X113670952Y-43719580D02*
X113623333Y-43767200D01*
X113623333Y-43767200D02*
X113480476Y-43814819D01*
X113480476Y-43814819D02*
X113385238Y-43814819D01*
X113385238Y-43814819D02*
X113242381Y-43767200D01*
X113242381Y-43767200D02*
X113147143Y-43671961D01*
X113147143Y-43671961D02*
X113099524Y-43576723D01*
X113099524Y-43576723D02*
X113051905Y-43386247D01*
X113051905Y-43386247D02*
X113051905Y-43243390D01*
X113051905Y-43243390D02*
X113099524Y-43052914D01*
X113099524Y-43052914D02*
X113147143Y-42957676D01*
X113147143Y-42957676D02*
X113242381Y-42862438D01*
X113242381Y-42862438D02*
X113385238Y-42814819D01*
X113385238Y-42814819D02*
X113480476Y-42814819D01*
X113480476Y-42814819D02*
X113623333Y-42862438D01*
X113623333Y-42862438D02*
X113670952Y-42910057D01*
X114099524Y-43433866D02*
X114861429Y-43433866D01*
X115528095Y-42814819D02*
X115623333Y-42814819D01*
X115623333Y-42814819D02*
X115718571Y-42862438D01*
X115718571Y-42862438D02*
X115766190Y-42910057D01*
X115766190Y-42910057D02*
X115813809Y-43005295D01*
X115813809Y-43005295D02*
X115861428Y-43195771D01*
X115861428Y-43195771D02*
X115861428Y-43433866D01*
X115861428Y-43433866D02*
X115813809Y-43624342D01*
X115813809Y-43624342D02*
X115766190Y-43719580D01*
X115766190Y-43719580D02*
X115718571Y-43767200D01*
X115718571Y-43767200D02*
X115623333Y-43814819D01*
X115623333Y-43814819D02*
X115528095Y-43814819D01*
X115528095Y-43814819D02*
X115432857Y-43767200D01*
X115432857Y-43767200D02*
X115385238Y-43719580D01*
X115385238Y-43719580D02*
X115337619Y-43624342D01*
X115337619Y-43624342D02*
X115290000Y-43433866D01*
X115290000Y-43433866D02*
X115290000Y-43195771D01*
X115290000Y-43195771D02*
X115337619Y-43005295D01*
X115337619Y-43005295D02*
X115385238Y-42910057D01*
X115385238Y-42910057D02*
X115432857Y-42862438D01*
X115432857Y-42862438D02*
X115528095Y-42814819D01*
X111290000Y-42814819D02*
X111290000Y-43052914D01*
X111051905Y-42957676D02*
X111290000Y-43052914D01*
X111290000Y-43052914D02*
X111528095Y-42957676D01*
X111147143Y-43243390D02*
X111290000Y-43052914D01*
X111290000Y-43052914D02*
X111432857Y-43243390D01*
%TO.C,C9*%
X103245580Y-48659166D02*
X103293200Y-48706785D01*
X103293200Y-48706785D02*
X103340819Y-48849642D01*
X103340819Y-48849642D02*
X103340819Y-48944880D01*
X103340819Y-48944880D02*
X103293200Y-49087737D01*
X103293200Y-49087737D02*
X103197961Y-49182975D01*
X103197961Y-49182975D02*
X103102723Y-49230594D01*
X103102723Y-49230594D02*
X102912247Y-49278213D01*
X102912247Y-49278213D02*
X102769390Y-49278213D01*
X102769390Y-49278213D02*
X102578914Y-49230594D01*
X102578914Y-49230594D02*
X102483676Y-49182975D01*
X102483676Y-49182975D02*
X102388438Y-49087737D01*
X102388438Y-49087737D02*
X102340819Y-48944880D01*
X102340819Y-48944880D02*
X102340819Y-48849642D01*
X102340819Y-48849642D02*
X102388438Y-48706785D01*
X102388438Y-48706785D02*
X102436057Y-48659166D01*
X103340819Y-48182975D02*
X103340819Y-47992499D01*
X103340819Y-47992499D02*
X103293200Y-47897261D01*
X103293200Y-47897261D02*
X103245580Y-47849642D01*
X103245580Y-47849642D02*
X103102723Y-47754404D01*
X103102723Y-47754404D02*
X102912247Y-47706785D01*
X102912247Y-47706785D02*
X102531295Y-47706785D01*
X102531295Y-47706785D02*
X102436057Y-47754404D01*
X102436057Y-47754404D02*
X102388438Y-47802023D01*
X102388438Y-47802023D02*
X102340819Y-47897261D01*
X102340819Y-47897261D02*
X102340819Y-48087737D01*
X102340819Y-48087737D02*
X102388438Y-48182975D01*
X102388438Y-48182975D02*
X102436057Y-48230594D01*
X102436057Y-48230594D02*
X102531295Y-48278213D01*
X102531295Y-48278213D02*
X102769390Y-48278213D01*
X102769390Y-48278213D02*
X102864628Y-48230594D01*
X102864628Y-48230594D02*
X102912247Y-48182975D01*
X102912247Y-48182975D02*
X102959866Y-48087737D01*
X102959866Y-48087737D02*
X102959866Y-47897261D01*
X102959866Y-47897261D02*
X102912247Y-47802023D01*
X102912247Y-47802023D02*
X102864628Y-47754404D01*
X102864628Y-47754404D02*
X102769390Y-47706785D01*
%TO.C,U4*%
X73278095Y-51114819D02*
X73278095Y-51924342D01*
X73278095Y-51924342D02*
X73325714Y-52019580D01*
X73325714Y-52019580D02*
X73373333Y-52067200D01*
X73373333Y-52067200D02*
X73468571Y-52114819D01*
X73468571Y-52114819D02*
X73659047Y-52114819D01*
X73659047Y-52114819D02*
X73754285Y-52067200D01*
X73754285Y-52067200D02*
X73801904Y-52019580D01*
X73801904Y-52019580D02*
X73849523Y-51924342D01*
X73849523Y-51924342D02*
X73849523Y-51114819D01*
X74754285Y-51448152D02*
X74754285Y-52114819D01*
X74516190Y-51067200D02*
X74278095Y-51781485D01*
X74278095Y-51781485D02*
X74897142Y-51781485D01*
%TO.C,C15*%
X116469580Y-48790357D02*
X116517200Y-48837976D01*
X116517200Y-48837976D02*
X116564819Y-48980833D01*
X116564819Y-48980833D02*
X116564819Y-49076071D01*
X116564819Y-49076071D02*
X116517200Y-49218928D01*
X116517200Y-49218928D02*
X116421961Y-49314166D01*
X116421961Y-49314166D02*
X116326723Y-49361785D01*
X116326723Y-49361785D02*
X116136247Y-49409404D01*
X116136247Y-49409404D02*
X115993390Y-49409404D01*
X115993390Y-49409404D02*
X115802914Y-49361785D01*
X115802914Y-49361785D02*
X115707676Y-49314166D01*
X115707676Y-49314166D02*
X115612438Y-49218928D01*
X115612438Y-49218928D02*
X115564819Y-49076071D01*
X115564819Y-49076071D02*
X115564819Y-48980833D01*
X115564819Y-48980833D02*
X115612438Y-48837976D01*
X115612438Y-48837976D02*
X115660057Y-48790357D01*
X116564819Y-47837976D02*
X116564819Y-48409404D01*
X116564819Y-48123690D02*
X115564819Y-48123690D01*
X115564819Y-48123690D02*
X115707676Y-48218928D01*
X115707676Y-48218928D02*
X115802914Y-48314166D01*
X115802914Y-48314166D02*
X115850533Y-48409404D01*
X115564819Y-46933214D02*
X115564819Y-47409404D01*
X115564819Y-47409404D02*
X116041009Y-47457023D01*
X116041009Y-47457023D02*
X115993390Y-47409404D01*
X115993390Y-47409404D02*
X115945771Y-47314166D01*
X115945771Y-47314166D02*
X115945771Y-47076071D01*
X115945771Y-47076071D02*
X115993390Y-46980833D01*
X115993390Y-46980833D02*
X116041009Y-46933214D01*
X116041009Y-46933214D02*
X116136247Y-46885595D01*
X116136247Y-46885595D02*
X116374342Y-46885595D01*
X116374342Y-46885595D02*
X116469580Y-46933214D01*
X116469580Y-46933214D02*
X116517200Y-46980833D01*
X116517200Y-46980833D02*
X116564819Y-47076071D01*
X116564819Y-47076071D02*
X116564819Y-47314166D01*
X116564819Y-47314166D02*
X116517200Y-47409404D01*
X116517200Y-47409404D02*
X116469580Y-47457023D01*
%TO.C,X1*%
X102005476Y-41314819D02*
X102672142Y-42314819D01*
X102672142Y-41314819D02*
X102005476Y-42314819D01*
X103576904Y-42314819D02*
X103005476Y-42314819D01*
X103291190Y-42314819D02*
X103291190Y-41314819D01*
X103291190Y-41314819D02*
X103195952Y-41457676D01*
X103195952Y-41457676D02*
X103100714Y-41552914D01*
X103100714Y-41552914D02*
X103005476Y-41600533D01*
%TO.C,FID1*%
X99218571Y-52791009D02*
X98885238Y-52791009D01*
X98885238Y-53314819D02*
X98885238Y-52314819D01*
X98885238Y-52314819D02*
X99361428Y-52314819D01*
X99742381Y-53314819D02*
X99742381Y-52314819D01*
X100218571Y-53314819D02*
X100218571Y-52314819D01*
X100218571Y-52314819D02*
X100456666Y-52314819D01*
X100456666Y-52314819D02*
X100599523Y-52362438D01*
X100599523Y-52362438D02*
X100694761Y-52457676D01*
X100694761Y-52457676D02*
X100742380Y-52552914D01*
X100742380Y-52552914D02*
X100789999Y-52743390D01*
X100789999Y-52743390D02*
X100789999Y-52886247D01*
X100789999Y-52886247D02*
X100742380Y-53076723D01*
X100742380Y-53076723D02*
X100694761Y-53171961D01*
X100694761Y-53171961D02*
X100599523Y-53267200D01*
X100599523Y-53267200D02*
X100456666Y-53314819D01*
X100456666Y-53314819D02*
X100218571Y-53314819D01*
X101742380Y-53314819D02*
X101170952Y-53314819D01*
X101456666Y-53314819D02*
X101456666Y-52314819D01*
X101456666Y-52314819D02*
X101361428Y-52457676D01*
X101361428Y-52457676D02*
X101266190Y-52552914D01*
X101266190Y-52552914D02*
X101170952Y-52600533D01*
%TO.C,D3*%
X102994819Y-58598094D02*
X101994819Y-58598094D01*
X101994819Y-58598094D02*
X101994819Y-58359999D01*
X101994819Y-58359999D02*
X102042438Y-58217142D01*
X102042438Y-58217142D02*
X102137676Y-58121904D01*
X102137676Y-58121904D02*
X102232914Y-58074285D01*
X102232914Y-58074285D02*
X102423390Y-58026666D01*
X102423390Y-58026666D02*
X102566247Y-58026666D01*
X102566247Y-58026666D02*
X102756723Y-58074285D01*
X102756723Y-58074285D02*
X102851961Y-58121904D01*
X102851961Y-58121904D02*
X102947200Y-58217142D01*
X102947200Y-58217142D02*
X102994819Y-58359999D01*
X102994819Y-58359999D02*
X102994819Y-58598094D01*
X101994819Y-57693332D02*
X101994819Y-57074285D01*
X101994819Y-57074285D02*
X102375771Y-57407618D01*
X102375771Y-57407618D02*
X102375771Y-57264761D01*
X102375771Y-57264761D02*
X102423390Y-57169523D01*
X102423390Y-57169523D02*
X102471009Y-57121904D01*
X102471009Y-57121904D02*
X102566247Y-57074285D01*
X102566247Y-57074285D02*
X102804342Y-57074285D01*
X102804342Y-57074285D02*
X102899580Y-57121904D01*
X102899580Y-57121904D02*
X102947200Y-57169523D01*
X102947200Y-57169523D02*
X102994819Y-57264761D01*
X102994819Y-57264761D02*
X102994819Y-57550475D01*
X102994819Y-57550475D02*
X102947200Y-57645713D01*
X102947200Y-57645713D02*
X102899580Y-57693332D01*
%TO.C,D5*%
X81744819Y-59848094D02*
X80744819Y-59848094D01*
X80744819Y-59848094D02*
X80744819Y-59609999D01*
X80744819Y-59609999D02*
X80792438Y-59467142D01*
X80792438Y-59467142D02*
X80887676Y-59371904D01*
X80887676Y-59371904D02*
X80982914Y-59324285D01*
X80982914Y-59324285D02*
X81173390Y-59276666D01*
X81173390Y-59276666D02*
X81316247Y-59276666D01*
X81316247Y-59276666D02*
X81506723Y-59324285D01*
X81506723Y-59324285D02*
X81601961Y-59371904D01*
X81601961Y-59371904D02*
X81697200Y-59467142D01*
X81697200Y-59467142D02*
X81744819Y-59609999D01*
X81744819Y-59609999D02*
X81744819Y-59848094D01*
X80744819Y-58371904D02*
X80744819Y-58848094D01*
X80744819Y-58848094D02*
X81221009Y-58895713D01*
X81221009Y-58895713D02*
X81173390Y-58848094D01*
X81173390Y-58848094D02*
X81125771Y-58752856D01*
X81125771Y-58752856D02*
X81125771Y-58514761D01*
X81125771Y-58514761D02*
X81173390Y-58419523D01*
X81173390Y-58419523D02*
X81221009Y-58371904D01*
X81221009Y-58371904D02*
X81316247Y-58324285D01*
X81316247Y-58324285D02*
X81554342Y-58324285D01*
X81554342Y-58324285D02*
X81649580Y-58371904D01*
X81649580Y-58371904D02*
X81697200Y-58419523D01*
X81697200Y-58419523D02*
X81744819Y-58514761D01*
X81744819Y-58514761D02*
X81744819Y-58752856D01*
X81744819Y-58752856D02*
X81697200Y-58848094D01*
X81697200Y-58848094D02*
X81649580Y-58895713D01*
%TO.C,D6*%
X78744819Y-46698094D02*
X77744819Y-46698094D01*
X77744819Y-46698094D02*
X77744819Y-46459999D01*
X77744819Y-46459999D02*
X77792438Y-46317142D01*
X77792438Y-46317142D02*
X77887676Y-46221904D01*
X77887676Y-46221904D02*
X77982914Y-46174285D01*
X77982914Y-46174285D02*
X78173390Y-46126666D01*
X78173390Y-46126666D02*
X78316247Y-46126666D01*
X78316247Y-46126666D02*
X78506723Y-46174285D01*
X78506723Y-46174285D02*
X78601961Y-46221904D01*
X78601961Y-46221904D02*
X78697200Y-46317142D01*
X78697200Y-46317142D02*
X78744819Y-46459999D01*
X78744819Y-46459999D02*
X78744819Y-46698094D01*
X77744819Y-45269523D02*
X77744819Y-45459999D01*
X77744819Y-45459999D02*
X77792438Y-45555237D01*
X77792438Y-45555237D02*
X77840057Y-45602856D01*
X77840057Y-45602856D02*
X77982914Y-45698094D01*
X77982914Y-45698094D02*
X78173390Y-45745713D01*
X78173390Y-45745713D02*
X78554342Y-45745713D01*
X78554342Y-45745713D02*
X78649580Y-45698094D01*
X78649580Y-45698094D02*
X78697200Y-45650475D01*
X78697200Y-45650475D02*
X78744819Y-45555237D01*
X78744819Y-45555237D02*
X78744819Y-45364761D01*
X78744819Y-45364761D02*
X78697200Y-45269523D01*
X78697200Y-45269523D02*
X78649580Y-45221904D01*
X78649580Y-45221904D02*
X78554342Y-45174285D01*
X78554342Y-45174285D02*
X78316247Y-45174285D01*
X78316247Y-45174285D02*
X78221009Y-45221904D01*
X78221009Y-45221904D02*
X78173390Y-45269523D01*
X78173390Y-45269523D02*
X78125771Y-45364761D01*
X78125771Y-45364761D02*
X78125771Y-45555237D01*
X78125771Y-45555237D02*
X78173390Y-45650475D01*
X78173390Y-45650475D02*
X78221009Y-45698094D01*
X78221009Y-45698094D02*
X78316247Y-45745713D01*
%TO.C,J9*%
X80866666Y-75474819D02*
X80866666Y-76189104D01*
X80866666Y-76189104D02*
X80819047Y-76331961D01*
X80819047Y-76331961D02*
X80723809Y-76427200D01*
X80723809Y-76427200D02*
X80580952Y-76474819D01*
X80580952Y-76474819D02*
X80485714Y-76474819D01*
X81390476Y-76474819D02*
X81580952Y-76474819D01*
X81580952Y-76474819D02*
X81676190Y-76427200D01*
X81676190Y-76427200D02*
X81723809Y-76379580D01*
X81723809Y-76379580D02*
X81819047Y-76236723D01*
X81819047Y-76236723D02*
X81866666Y-76046247D01*
X81866666Y-76046247D02*
X81866666Y-75665295D01*
X81866666Y-75665295D02*
X81819047Y-75570057D01*
X81819047Y-75570057D02*
X81771428Y-75522438D01*
X81771428Y-75522438D02*
X81676190Y-75474819D01*
X81676190Y-75474819D02*
X81485714Y-75474819D01*
X81485714Y-75474819D02*
X81390476Y-75522438D01*
X81390476Y-75522438D02*
X81342857Y-75570057D01*
X81342857Y-75570057D02*
X81295238Y-75665295D01*
X81295238Y-75665295D02*
X81295238Y-75903390D01*
X81295238Y-75903390D02*
X81342857Y-75998628D01*
X81342857Y-75998628D02*
X81390476Y-76046247D01*
X81390476Y-76046247D02*
X81485714Y-76093866D01*
X81485714Y-76093866D02*
X81676190Y-76093866D01*
X81676190Y-76093866D02*
X81771428Y-76046247D01*
X81771428Y-76046247D02*
X81819047Y-75998628D01*
X81819047Y-75998628D02*
X81866666Y-75903390D01*
%TO.C,J3*%
X92066666Y-75474819D02*
X92066666Y-76189104D01*
X92066666Y-76189104D02*
X92019047Y-76331961D01*
X92019047Y-76331961D02*
X91923809Y-76427200D01*
X91923809Y-76427200D02*
X91780952Y-76474819D01*
X91780952Y-76474819D02*
X91685714Y-76474819D01*
X92447619Y-75474819D02*
X93066666Y-75474819D01*
X93066666Y-75474819D02*
X92733333Y-75855771D01*
X92733333Y-75855771D02*
X92876190Y-75855771D01*
X92876190Y-75855771D02*
X92971428Y-75903390D01*
X92971428Y-75903390D02*
X93019047Y-75951009D01*
X93019047Y-75951009D02*
X93066666Y-76046247D01*
X93066666Y-76046247D02*
X93066666Y-76284342D01*
X93066666Y-76284342D02*
X93019047Y-76379580D01*
X93019047Y-76379580D02*
X92971428Y-76427200D01*
X92971428Y-76427200D02*
X92876190Y-76474819D01*
X92876190Y-76474819D02*
X92590476Y-76474819D01*
X92590476Y-76474819D02*
X92495238Y-76427200D01*
X92495238Y-76427200D02*
X92447619Y-76379580D01*
%TO.C,D1*%
X121744819Y-39498094D02*
X120744819Y-39498094D01*
X120744819Y-39498094D02*
X120744819Y-39259999D01*
X120744819Y-39259999D02*
X120792438Y-39117142D01*
X120792438Y-39117142D02*
X120887676Y-39021904D01*
X120887676Y-39021904D02*
X120982914Y-38974285D01*
X120982914Y-38974285D02*
X121173390Y-38926666D01*
X121173390Y-38926666D02*
X121316247Y-38926666D01*
X121316247Y-38926666D02*
X121506723Y-38974285D01*
X121506723Y-38974285D02*
X121601961Y-39021904D01*
X121601961Y-39021904D02*
X121697200Y-39117142D01*
X121697200Y-39117142D02*
X121744819Y-39259999D01*
X121744819Y-39259999D02*
X121744819Y-39498094D01*
X121744819Y-37974285D02*
X121744819Y-38545713D01*
X121744819Y-38259999D02*
X120744819Y-38259999D01*
X120744819Y-38259999D02*
X120887676Y-38355237D01*
X120887676Y-38355237D02*
X120982914Y-38450475D01*
X120982914Y-38450475D02*
X121030533Y-38545713D01*
%TO.C,J5*%
X71766666Y-69064819D02*
X71766666Y-69779104D01*
X71766666Y-69779104D02*
X71719047Y-69921961D01*
X71719047Y-69921961D02*
X71623809Y-70017200D01*
X71623809Y-70017200D02*
X71480952Y-70064819D01*
X71480952Y-70064819D02*
X71385714Y-70064819D01*
X72719047Y-69064819D02*
X72242857Y-69064819D01*
X72242857Y-69064819D02*
X72195238Y-69541009D01*
X72195238Y-69541009D02*
X72242857Y-69493390D01*
X72242857Y-69493390D02*
X72338095Y-69445771D01*
X72338095Y-69445771D02*
X72576190Y-69445771D01*
X72576190Y-69445771D02*
X72671428Y-69493390D01*
X72671428Y-69493390D02*
X72719047Y-69541009D01*
X72719047Y-69541009D02*
X72766666Y-69636247D01*
X72766666Y-69636247D02*
X72766666Y-69874342D01*
X72766666Y-69874342D02*
X72719047Y-69969580D01*
X72719047Y-69969580D02*
X72671428Y-70017200D01*
X72671428Y-70017200D02*
X72576190Y-70064819D01*
X72576190Y-70064819D02*
X72338095Y-70064819D01*
X72338095Y-70064819D02*
X72242857Y-70017200D01*
X72242857Y-70017200D02*
X72195238Y-69969580D01*
D11*
%TO.C,mouse-bite-1mm-slot*%
X135590000Y-80610000D02*
G75*
G03*
X135590000Y-81610000I0J-500000D01*
G01*
X132590000Y-81610000D02*
G75*
G03*
X132590000Y-80610000I0J500000D01*
G01*
X137790000Y-35910000D02*
G75*
G03*
X137790000Y-34910000I0J500000D01*
G01*
X140790000Y-34910000D02*
G75*
G03*
X140790000Y-35910000I0J-500000D01*
G01*
X177690000Y-80610000D02*
G75*
G03*
X177690000Y-81610000I0J-500000D01*
G01*
X174690000Y-81610000D02*
G75*
G03*
X174690000Y-80610000I0J500000D01*
G01*
X184190000Y-35900000D02*
G75*
G03*
X184190000Y-34900000I0J500000D01*
G01*
X187190000Y-34900000D02*
G75*
G03*
X187190000Y-35900000I0J-500000D01*
G01*
D12*
%TO.C,U5*%
X178319200Y-50662500D02*
X178319200Y-50020735D01*
X178319200Y-36699265D02*
X178319200Y-36057500D01*
X178319200Y-36057500D02*
X175951469Y-36057500D01*
X175951469Y-50662500D02*
X178319200Y-50662500D01*
X170628531Y-36057500D02*
X168260800Y-36057500D01*
X168260800Y-50662500D02*
X170628531Y-50662500D01*
X168260800Y-50020735D02*
X168260800Y-50662500D01*
X168260800Y-36057500D02*
X168260800Y-36699265D01*
%TO.C,C7*%
X181991248Y-54095000D02*
X182513752Y-54095000D01*
X181991248Y-52625000D02*
X182513752Y-52625000D01*
%TO.C,R2*%
X188025000Y-59337064D02*
X188025000Y-58882936D01*
X186555000Y-59337064D02*
X186555000Y-58882936D01*
%TO.C,J3*%
X151290000Y-71610000D02*
X152340000Y-71610000D01*
X151290000Y-72760000D02*
X151290000Y-71610000D01*
X156340000Y-74730000D02*
X152460000Y-74730000D01*
X156460000Y-71610000D02*
X156460000Y-70620000D01*
X157510000Y-71610000D02*
X156460000Y-71610000D01*
X157510000Y-72760000D02*
X157510000Y-71610000D01*
%TO.C,C12*%
X182025000Y-43833752D02*
X182025000Y-43311248D01*
X180555000Y-43833752D02*
X180555000Y-43311248D01*
%TO.C,D3*%
X160460000Y-58620000D02*
X161390000Y-58620000D01*
X160460000Y-58620000D02*
X160460000Y-57160000D01*
X163620000Y-58620000D02*
X162690000Y-58620000D01*
X163620000Y-58620000D02*
X163620000Y-56460000D01*
%TO.C,C5*%
X180066248Y-69845000D02*
X180588752Y-69845000D01*
X180066248Y-68375000D02*
X180588752Y-68375000D01*
%TO.C,D5*%
X140290000Y-56860000D02*
X140290000Y-60760000D01*
X142290000Y-56860000D02*
X142290000Y-60760000D01*
X142290000Y-56860000D02*
X140290000Y-56860000D01*
%TO.C,F1*%
X135950436Y-46220000D02*
X137154564Y-46220000D01*
X135950436Y-43500000D02*
X137154564Y-43500000D01*
%TO.C,R3*%
X164312936Y-62095000D02*
X164767064Y-62095000D01*
X164312936Y-60625000D02*
X164767064Y-60625000D01*
%TO.C,R8*%
X164312936Y-66095000D02*
X164767064Y-66095000D01*
X164312936Y-64625000D02*
X164767064Y-64625000D01*
%TO.C,C15*%
X180525000Y-48408752D02*
X180525000Y-47886248D01*
X179055000Y-48408752D02*
X179055000Y-47886248D01*
%TO.C,X1*%
X166315000Y-39860000D02*
X165515000Y-39860000D01*
X166315000Y-39660000D02*
X166315000Y-39860000D01*
X166315000Y-36860000D02*
X166315000Y-37060000D01*
X165515000Y-39860000D02*
X165515000Y-40360000D01*
X165515000Y-36860000D02*
X166315000Y-36860000D01*
X164115000Y-39860000D02*
X164115000Y-40360000D01*
X164115000Y-39860000D02*
X163515000Y-39860000D01*
X163515000Y-39860000D02*
X163315000Y-39660000D01*
X163315000Y-37060000D02*
X163315000Y-36860000D01*
X163315000Y-36860000D02*
X164115000Y-36860000D01*
%TO.C,J6*%
X182780000Y-51920000D02*
X188750000Y-51920000D01*
X188750000Y-51920000D02*
X188750000Y-36800000D01*
X186490000Y-51910000D02*
X186490000Y-51160000D01*
X187990000Y-51910000D02*
X188740000Y-51910000D01*
X188740000Y-51910000D02*
X188740000Y-50110000D01*
X183540000Y-51160000D02*
X183540000Y-44360000D01*
X186490000Y-51160000D02*
X183540000Y-51160000D01*
X187990000Y-50110000D02*
X187990000Y-51910000D01*
X188740000Y-50110000D02*
X187990000Y-50110000D01*
X187990000Y-48610000D02*
X188740000Y-48610000D01*
X188740000Y-48610000D02*
X188740000Y-40110000D01*
X187990000Y-40110000D02*
X187990000Y-48610000D01*
X188740000Y-40110000D02*
X187990000Y-40110000D01*
X187990000Y-38610000D02*
X188740000Y-38610000D01*
X188740000Y-38610000D02*
X188740000Y-36810000D01*
X189040000Y-37760000D02*
X189040000Y-36510000D01*
X183540000Y-37560000D02*
X183540000Y-44360000D01*
X186490000Y-37560000D02*
X183540000Y-37560000D01*
X186490000Y-36810000D02*
X186490000Y-37560000D01*
X187990000Y-36810000D02*
X187990000Y-38610000D01*
X188740000Y-36810000D02*
X187990000Y-36810000D01*
X182780000Y-36800000D02*
X182780000Y-51920000D01*
X188750000Y-36800000D02*
X182780000Y-36800000D01*
X189040000Y-36510000D02*
X187790000Y-36510000D01*
%TO.C,R4*%
X162055000Y-45132936D02*
X162055000Y-45587064D01*
X163525000Y-45132936D02*
X163525000Y-45587064D01*
%TO.C,L1*%
X143450000Y-54382742D02*
X143450000Y-52712258D01*
X141630000Y-54382742D02*
X141630000Y-52712258D01*
%TO.C,C10*%
X151275000Y-45396252D02*
X151275000Y-44873748D01*
X149805000Y-45396252D02*
X149805000Y-44873748D01*
%TO.C,C1*%
X164316248Y-64095000D02*
X164838752Y-64095000D01*
X164316248Y-62625000D02*
X164838752Y-62625000D01*
%TO.C,C3*%
X138600000Y-51870000D02*
X138600000Y-50670000D01*
X138600000Y-47350000D02*
X138600000Y-48550000D01*
X135144437Y-51870000D02*
X138600000Y-51870000D01*
X135144437Y-47350000D02*
X138600000Y-47350000D01*
X134080000Y-50805563D02*
X135144437Y-51870000D01*
X134080000Y-50805563D02*
X134080000Y-50670000D01*
X134080000Y-48414437D02*
X135144437Y-47350000D01*
X134080000Y-48414437D02*
X134080000Y-48550000D01*
X133590000Y-47800000D02*
X133590000Y-48300000D01*
X133340000Y-48050000D02*
X133840000Y-48050000D01*
%TO.C,J4*%
X153350000Y-42464000D02*
X153350000Y-36494000D01*
X153350000Y-36494000D02*
X140730000Y-36494000D01*
X153340000Y-38754000D02*
X152590000Y-38754000D01*
X153340000Y-37254000D02*
X153340000Y-36504000D01*
X153340000Y-36504000D02*
X151540000Y-36504000D01*
X152590000Y-41704000D02*
X147040000Y-41704000D01*
X152590000Y-38754000D02*
X152590000Y-41704000D01*
X151540000Y-37254000D02*
X153340000Y-37254000D01*
X151540000Y-36504000D02*
X151540000Y-37254000D01*
X150040000Y-37254000D02*
X150040000Y-36504000D01*
X150040000Y-36504000D02*
X144040000Y-36504000D01*
X144040000Y-37254000D02*
X150040000Y-37254000D01*
X144040000Y-36504000D02*
X144040000Y-37254000D01*
X142540000Y-37254000D02*
X142540000Y-36504000D01*
X142540000Y-36504000D02*
X140740000Y-36504000D01*
X141690000Y-36204000D02*
X140440000Y-36204000D01*
X141490000Y-41704000D02*
X147040000Y-41704000D01*
X141490000Y-38754000D02*
X141490000Y-41704000D01*
X140740000Y-38754000D02*
X141490000Y-38754000D01*
X140740000Y-37254000D02*
X142540000Y-37254000D01*
X140740000Y-36504000D02*
X140740000Y-37254000D01*
X140730000Y-42464000D02*
X153350000Y-42464000D01*
X140730000Y-36494000D02*
X140730000Y-42464000D01*
X140440000Y-36204000D02*
X140440000Y-37454000D01*
%TO.C,C2*%
X159066248Y-63595000D02*
X159588752Y-63595000D01*
X159066248Y-62125000D02*
X159588752Y-62125000D01*
%TO.C,C4*%
X141025000Y-53658752D02*
X141025000Y-53136248D01*
X139555000Y-53658752D02*
X139555000Y-53136248D01*
%TO.C,C6*%
X152775000Y-53333752D02*
X152775000Y-52811248D01*
X151305000Y-53333752D02*
X151305000Y-52811248D01*
%TO.C,C14*%
X138250000Y-66870000D02*
X138250000Y-65670000D01*
X138250000Y-62350000D02*
X138250000Y-63550000D01*
X134794437Y-66870000D02*
X138250000Y-66870000D01*
X134794437Y-62350000D02*
X138250000Y-62350000D01*
X133730000Y-65805563D02*
X134794437Y-66870000D01*
X133730000Y-65805563D02*
X133730000Y-65670000D01*
X133730000Y-63414437D02*
X134794437Y-62350000D01*
X133730000Y-63414437D02*
X133730000Y-63550000D01*
X133240000Y-62800000D02*
X133240000Y-63300000D01*
X132990000Y-63050000D02*
X133490000Y-63050000D01*
%TO.C,R5*%
X160055000Y-45132936D02*
X160055000Y-45587064D01*
X161525000Y-45132936D02*
X161525000Y-45587064D01*
%TO.C,JP2*%
X186290000Y-63410000D02*
G75*
G03*
X186990000Y-64110000I700000J0D01*
G01*
X187590000Y-64110000D02*
G75*
G03*
X188290000Y-63410000I0J700000D01*
G01*
X186990000Y-61310000D02*
G75*
G03*
X186290000Y-62010000I-1J-699999D01*
G01*
X188290000Y-62010000D02*
G75*
G03*
X187590000Y-61310000I-699999J1D01*
G01*
X187590000Y-64110000D02*
X186990000Y-64110000D01*
X186290000Y-63410000D02*
X186290000Y-62010000D01*
X188290000Y-62010000D02*
X188290000Y-63410000D01*
X186990000Y-61310000D02*
X187590000Y-61310000D01*
%TO.C,J9*%
X137090000Y-71610000D02*
X138140000Y-71610000D01*
X137090000Y-72760000D02*
X137090000Y-71610000D01*
X148140000Y-74730000D02*
X138260000Y-74730000D01*
X148260000Y-71610000D02*
X148260000Y-70620000D01*
X149310000Y-71610000D02*
X148260000Y-71610000D01*
X149310000Y-72760000D02*
X149310000Y-71610000D01*
%TO.C,D6*%
X143290000Y-48210000D02*
X143290000Y-44310000D01*
X141290000Y-48210000D02*
X141290000Y-44310000D01*
X141290000Y-48210000D02*
X143290000Y-48210000D01*
%TO.C,C9*%
X165525000Y-45658752D02*
X165525000Y-45136248D01*
X164055000Y-45658752D02*
X164055000Y-45136248D01*
%TO.C,J1*%
X171355000Y-72350000D02*
X171355000Y-72660000D01*
X171355000Y-79940000D02*
X171355000Y-74180000D01*
X172775000Y-79440000D02*
X172775000Y-79940000D01*
X172775000Y-79940000D02*
X171355000Y-79940000D01*
X179805000Y-79440000D02*
X172775000Y-79440000D01*
X179805000Y-79940000D02*
X179805000Y-79440000D01*
X181225000Y-72350000D02*
X171355000Y-72350000D01*
X181225000Y-72660000D02*
X181225000Y-72350000D01*
X181225000Y-74180000D02*
X181225000Y-79940000D01*
X181225000Y-79940000D02*
X179805000Y-79940000D01*
%TO.C,J5*%
X135430000Y-73210000D02*
X135430000Y-78350000D01*
X132770000Y-78350000D02*
X135430000Y-78350000D01*
X132770000Y-73210000D02*
X135430000Y-73210000D01*
X132770000Y-73210000D02*
X132770000Y-78350000D01*
X132770000Y-71940000D02*
X132770000Y-70610000D01*
X132770000Y-70610000D02*
X134100000Y-70610000D01*
%TO.C,D1*%
X180290000Y-36400000D02*
X180290000Y-40410000D01*
X182290000Y-36400000D02*
X182290000Y-40410000D01*
X182290000Y-36400000D02*
X180290000Y-36400000D01*
%TO.C,R7*%
X153775000Y-45337064D02*
X153775000Y-44882936D01*
X152305000Y-45337064D02*
X152305000Y-44882936D01*
%TO.C,C11*%
X157700000Y-46508752D02*
X157700000Y-45086248D01*
X155880000Y-46508752D02*
X155880000Y-45086248D01*
%TO.C,J8*%
X167050000Y-67175000D02*
X163975000Y-67175000D01*
X162960000Y-68595000D02*
X162460000Y-68595000D01*
X162460000Y-68595000D02*
X162460000Y-68615000D01*
X162460000Y-78605000D02*
X162460000Y-78625000D01*
X162960000Y-78625000D02*
X162960000Y-68595000D01*
X162460000Y-78625000D02*
X162960000Y-78625000D01*
X167050000Y-80045000D02*
X167050000Y-67175000D01*
X163975000Y-80045000D02*
X167050000Y-80045000D01*
%TO.C,U4*%
X136920000Y-52600000D02*
X134490000Y-52600000D01*
X135160000Y-55670000D02*
X136920000Y-55670000D01*
%TO.C,R6*%
X146275000Y-45337064D02*
X146275000Y-44882936D01*
X144805000Y-45337064D02*
X144805000Y-44882936D01*
%TO.C,U3*%
X169930000Y-53205000D02*
X169930000Y-53450000D01*
X169930000Y-64975000D02*
X169930000Y-64730000D01*
X173790000Y-53205000D02*
X169930000Y-53205000D01*
X173790000Y-53205000D02*
X177650000Y-53205000D01*
X173790000Y-64975000D02*
X169930000Y-64975000D01*
X173790000Y-64975000D02*
X177650000Y-64975000D01*
X177650000Y-53205000D02*
X177650000Y-53450000D01*
X177650000Y-64730000D02*
X179465000Y-64730000D01*
X177650000Y-64975000D02*
X177650000Y-64730000D01*
%TO.C,J2*%
X161850000Y-42464000D02*
X161850000Y-36494000D01*
X161850000Y-36494000D02*
X154230000Y-36494000D01*
X161840000Y-38754000D02*
X161090000Y-38754000D01*
X161840000Y-37254000D02*
X161840000Y-36504000D01*
X161840000Y-36504000D02*
X160040000Y-36504000D01*
X161090000Y-41704000D02*
X158040000Y-41704000D01*
X161090000Y-38754000D02*
X161090000Y-41704000D01*
X160040000Y-37254000D02*
X161840000Y-37254000D01*
X160040000Y-36504000D02*
X160040000Y-37254000D01*
X158540000Y-37254000D02*
X158540000Y-36504000D01*
X158540000Y-36504000D02*
X157540000Y-36504000D01*
X157540000Y-37254000D02*
X158540000Y-37254000D01*
X157540000Y-36504000D02*
X157540000Y-37254000D01*
X156040000Y-37254000D02*
X156040000Y-36504000D01*
X156040000Y-36504000D02*
X154240000Y-36504000D01*
X155190000Y-36204000D02*
X153940000Y-36204000D01*
X154990000Y-41704000D02*
X158040000Y-41704000D01*
X154990000Y-38754000D02*
X154990000Y-41704000D01*
X154240000Y-38754000D02*
X154990000Y-38754000D01*
X154240000Y-37254000D02*
X156040000Y-37254000D01*
X154240000Y-36504000D02*
X154240000Y-37254000D01*
X154230000Y-42464000D02*
X161850000Y-42464000D01*
X154230000Y-36494000D02*
X154230000Y-42464000D01*
X153940000Y-36204000D02*
X153940000Y-37454000D01*
%TO.C,D4*%
X147040000Y-44110000D02*
X147040000Y-48410000D01*
X149040000Y-48410000D02*
X149040000Y-44110000D01*
X147040000Y-48410000D02*
X149040000Y-48410000D01*
%TO.C,D2*%
X177132000Y-65760000D02*
X171432000Y-65760000D01*
X177132000Y-70060000D02*
X171432000Y-70060000D01*
X177132000Y-70060000D02*
X177132000Y-65760000D01*
%TO.C,U2*%
X182697000Y-68385000D02*
X182697000Y-70335000D01*
X182697000Y-68385000D02*
X182697000Y-66435000D01*
X187817000Y-68385000D02*
X187817000Y-70335000D01*
X187817000Y-68385000D02*
X187817000Y-64935000D01*
%TO.C,C13*%
X138250000Y-61120000D02*
X138250000Y-59920000D01*
X138250000Y-56600000D02*
X138250000Y-57800000D01*
X134794437Y-61120000D02*
X138250000Y-61120000D01*
X134794437Y-56600000D02*
X138250000Y-56600000D01*
X133730000Y-60055563D02*
X134794437Y-61120000D01*
X133730000Y-60055563D02*
X133730000Y-59920000D01*
X133730000Y-57664437D02*
X134794437Y-56600000D01*
X133730000Y-57664437D02*
X133730000Y-57800000D01*
X133240000Y-57050000D02*
X133240000Y-57550000D01*
X132990000Y-57300000D02*
X133490000Y-57300000D01*
D10*
%TO.C,U1*%
X155165000Y-64485000D02*
X155165000Y-64160000D01*
X155165000Y-64485000D02*
X154840000Y-64485000D01*
X155165000Y-57235000D02*
X155165000Y-57560000D01*
X155165000Y-57235000D02*
X154840000Y-57235000D01*
X147915000Y-64485000D02*
X148240000Y-64485000D01*
X147915000Y-64485000D02*
X147915000Y-64160000D01*
X147915000Y-57460000D02*
X146490000Y-57460000D01*
X147915000Y-57235000D02*
X148240000Y-57235000D01*
X147915000Y-57235000D02*
X147915000Y-57460000D01*
D12*
%TO.C,Y2*%
X182590000Y-60460000D02*
X181790000Y-60460000D01*
X180390000Y-58460000D02*
X180390000Y-57060000D01*
X180390000Y-57060000D02*
X180150000Y-57060000D01*
X183990000Y-57060000D02*
X183990000Y-58460000D01*
X181790000Y-55060000D02*
X182590000Y-55060000D01*
X181790000Y-54760000D02*
X181790000Y-55060000D01*
%TO.C,C8*%
X182513752Y-61375000D02*
X181991248Y-61375000D01*
X182513752Y-62845000D02*
X181991248Y-62845000D01*
D11*
%TO.C,mouse-bite-1mm-slot*%
X73590000Y-80610000D02*
G75*
G03*
X73590000Y-81610000I0J-500000D01*
G01*
X70590000Y-81610000D02*
G75*
G03*
X70590000Y-80610000I0J500000D01*
G01*
X115690000Y-80610000D02*
G75*
G03*
X115690000Y-81610000I0J-500000D01*
G01*
X112690000Y-81610000D02*
G75*
G03*
X112690000Y-80610000I0J500000D01*
G01*
X122190000Y-35900000D02*
G75*
G03*
X122190000Y-34900000I0J500000D01*
G01*
X125190000Y-34900000D02*
G75*
G03*
X125190000Y-35900000I0J-500000D01*
G01*
X75790000Y-35910000D02*
G75*
G03*
X75790000Y-34910000I0J500000D01*
G01*
X78790000Y-34910000D02*
G75*
G03*
X78790000Y-35910000I0J-500000D01*
G01*
D12*
%TO.C,C12*%
X120025000Y-43833752D02*
X120025000Y-43311248D01*
X118555000Y-43833752D02*
X118555000Y-43311248D01*
%TO.C,R8*%
X102312936Y-66095000D02*
X102767064Y-66095000D01*
X102312936Y-64625000D02*
X102767064Y-64625000D01*
%TO.C,R3*%
X102312936Y-62095000D02*
X102767064Y-62095000D01*
X102312936Y-60625000D02*
X102767064Y-60625000D01*
%TO.C,C10*%
X89275000Y-45396252D02*
X89275000Y-44873748D01*
X87805000Y-45396252D02*
X87805000Y-44873748D01*
%TO.C,C6*%
X90775000Y-53333752D02*
X90775000Y-52811248D01*
X89305000Y-53333752D02*
X89305000Y-52811248D01*
%TO.C,R5*%
X98055000Y-45132936D02*
X98055000Y-45587064D01*
X99525000Y-45132936D02*
X99525000Y-45587064D01*
%TO.C,R6*%
X84275000Y-45337064D02*
X84275000Y-44882936D01*
X82805000Y-45337064D02*
X82805000Y-44882936D01*
%TO.C,D4*%
X85040000Y-44110000D02*
X85040000Y-48410000D01*
X87040000Y-48410000D02*
X87040000Y-44110000D01*
X85040000Y-48410000D02*
X87040000Y-48410000D01*
%TO.C,D2*%
X115132000Y-65760000D02*
X109432000Y-65760000D01*
X115132000Y-70060000D02*
X109432000Y-70060000D01*
X115132000Y-70060000D02*
X115132000Y-65760000D01*
%TO.C,Y2*%
X120590000Y-60460000D02*
X119790000Y-60460000D01*
X118390000Y-58460000D02*
X118390000Y-57060000D01*
X118390000Y-57060000D02*
X118150000Y-57060000D01*
X121990000Y-57060000D02*
X121990000Y-58460000D01*
X119790000Y-55060000D02*
X120590000Y-55060000D01*
X119790000Y-54760000D02*
X119790000Y-55060000D01*
%TO.C,C8*%
X120513752Y-61375000D02*
X119991248Y-61375000D01*
X120513752Y-62845000D02*
X119991248Y-62845000D01*
%TO.C,JP2*%
X124290000Y-63410000D02*
G75*
G03*
X124990000Y-64110000I700000J0D01*
G01*
X125590000Y-64110000D02*
G75*
G03*
X126290000Y-63410000I0J700000D01*
G01*
X124990000Y-61310000D02*
G75*
G03*
X124290000Y-62010000I-1J-699999D01*
G01*
X126290000Y-62010000D02*
G75*
G03*
X125590000Y-61310000I-699999J1D01*
G01*
X125590000Y-64110000D02*
X124990000Y-64110000D01*
X124290000Y-63410000D02*
X124290000Y-62010000D01*
X126290000Y-62010000D02*
X126290000Y-63410000D01*
X124990000Y-61310000D02*
X125590000Y-61310000D01*
%TO.C,C5*%
X118066248Y-69845000D02*
X118588752Y-69845000D01*
X118066248Y-68375000D02*
X118588752Y-68375000D01*
%TO.C,U2*%
X120697000Y-68385000D02*
X120697000Y-70335000D01*
X120697000Y-68385000D02*
X120697000Y-66435000D01*
X125817000Y-68385000D02*
X125817000Y-70335000D01*
X125817000Y-68385000D02*
X125817000Y-64935000D01*
%TO.C,R2*%
X126025000Y-59337064D02*
X126025000Y-58882936D01*
X124555000Y-59337064D02*
X124555000Y-58882936D01*
%TO.C,C1*%
X102316248Y-64095000D02*
X102838752Y-64095000D01*
X102316248Y-62625000D02*
X102838752Y-62625000D01*
%TO.C,J2*%
X99850000Y-42464000D02*
X99850000Y-36494000D01*
X99850000Y-36494000D02*
X92230000Y-36494000D01*
X99840000Y-38754000D02*
X99090000Y-38754000D01*
X99840000Y-37254000D02*
X99840000Y-36504000D01*
X99840000Y-36504000D02*
X98040000Y-36504000D01*
X99090000Y-41704000D02*
X96040000Y-41704000D01*
X99090000Y-38754000D02*
X99090000Y-41704000D01*
X98040000Y-37254000D02*
X99840000Y-37254000D01*
X98040000Y-36504000D02*
X98040000Y-37254000D01*
X96540000Y-37254000D02*
X96540000Y-36504000D01*
X96540000Y-36504000D02*
X95540000Y-36504000D01*
X95540000Y-37254000D02*
X96540000Y-37254000D01*
X95540000Y-36504000D02*
X95540000Y-37254000D01*
X94040000Y-37254000D02*
X94040000Y-36504000D01*
X94040000Y-36504000D02*
X92240000Y-36504000D01*
X93190000Y-36204000D02*
X91940000Y-36204000D01*
X92990000Y-41704000D02*
X96040000Y-41704000D01*
X92990000Y-38754000D02*
X92990000Y-41704000D01*
X92240000Y-38754000D02*
X92990000Y-38754000D01*
X92240000Y-37254000D02*
X94040000Y-37254000D01*
X92240000Y-36504000D02*
X92240000Y-37254000D01*
X92230000Y-42464000D02*
X99850000Y-42464000D01*
X92230000Y-36494000D02*
X92230000Y-42464000D01*
X91940000Y-36204000D02*
X91940000Y-37454000D01*
D10*
%TO.C,U1*%
X93165000Y-64485000D02*
X93165000Y-64160000D01*
X93165000Y-64485000D02*
X92840000Y-64485000D01*
X93165000Y-57235000D02*
X93165000Y-57560000D01*
X93165000Y-57235000D02*
X92840000Y-57235000D01*
X85915000Y-64485000D02*
X86240000Y-64485000D01*
X85915000Y-64485000D02*
X85915000Y-64160000D01*
X85915000Y-57460000D02*
X84490000Y-57460000D01*
X85915000Y-57235000D02*
X86240000Y-57235000D01*
X85915000Y-57235000D02*
X85915000Y-57460000D01*
D12*
%TO.C,C2*%
X97066248Y-63595000D02*
X97588752Y-63595000D01*
X97066248Y-62125000D02*
X97588752Y-62125000D01*
%TO.C,U3*%
X107930000Y-53205000D02*
X107930000Y-53450000D01*
X107930000Y-64975000D02*
X107930000Y-64730000D01*
X111790000Y-53205000D02*
X107930000Y-53205000D01*
X111790000Y-53205000D02*
X115650000Y-53205000D01*
X111790000Y-64975000D02*
X107930000Y-64975000D01*
X111790000Y-64975000D02*
X115650000Y-64975000D01*
X115650000Y-53205000D02*
X115650000Y-53450000D01*
X115650000Y-64730000D02*
X117465000Y-64730000D01*
X115650000Y-64975000D02*
X115650000Y-64730000D01*
%TO.C,R7*%
X91775000Y-45337064D02*
X91775000Y-44882936D01*
X90305000Y-45337064D02*
X90305000Y-44882936D01*
%TO.C,F1*%
X73950436Y-46220000D02*
X75154564Y-46220000D01*
X73950436Y-43500000D02*
X75154564Y-43500000D01*
%TO.C,R4*%
X100055000Y-45132936D02*
X100055000Y-45587064D01*
X101525000Y-45132936D02*
X101525000Y-45587064D01*
%TO.C,C3*%
X76600000Y-51870000D02*
X76600000Y-50670000D01*
X76600000Y-47350000D02*
X76600000Y-48550000D01*
X73144437Y-51870000D02*
X76600000Y-51870000D01*
X73144437Y-47350000D02*
X76600000Y-47350000D01*
X72080000Y-50805563D02*
X73144437Y-51870000D01*
X72080000Y-50805563D02*
X72080000Y-50670000D01*
X72080000Y-48414437D02*
X73144437Y-47350000D01*
X72080000Y-48414437D02*
X72080000Y-48550000D01*
X71590000Y-47800000D02*
X71590000Y-48300000D01*
X71340000Y-48050000D02*
X71840000Y-48050000D01*
%TO.C,C4*%
X79025000Y-53658752D02*
X79025000Y-53136248D01*
X77555000Y-53658752D02*
X77555000Y-53136248D01*
%TO.C,C13*%
X76250000Y-61120000D02*
X76250000Y-59920000D01*
X76250000Y-56600000D02*
X76250000Y-57800000D01*
X72794437Y-61120000D02*
X76250000Y-61120000D01*
X72794437Y-56600000D02*
X76250000Y-56600000D01*
X71730000Y-60055563D02*
X72794437Y-61120000D01*
X71730000Y-60055563D02*
X71730000Y-59920000D01*
X71730000Y-57664437D02*
X72794437Y-56600000D01*
X71730000Y-57664437D02*
X71730000Y-57800000D01*
X71240000Y-57050000D02*
X71240000Y-57550000D01*
X70990000Y-57300000D02*
X71490000Y-57300000D01*
%TO.C,C14*%
X76250000Y-66870000D02*
X76250000Y-65670000D01*
X76250000Y-62350000D02*
X76250000Y-63550000D01*
X72794437Y-66870000D02*
X76250000Y-66870000D01*
X72794437Y-62350000D02*
X76250000Y-62350000D01*
X71730000Y-65805563D02*
X72794437Y-66870000D01*
X71730000Y-65805563D02*
X71730000Y-65670000D01*
X71730000Y-63414437D02*
X72794437Y-62350000D01*
X71730000Y-63414437D02*
X71730000Y-63550000D01*
X71240000Y-62800000D02*
X71240000Y-63300000D01*
X70990000Y-63050000D02*
X71490000Y-63050000D01*
%TO.C,J6*%
X120780000Y-51920000D02*
X126750000Y-51920000D01*
X126750000Y-51920000D02*
X126750000Y-36800000D01*
X124490000Y-51910000D02*
X124490000Y-51160000D01*
X125990000Y-51910000D02*
X126740000Y-51910000D01*
X126740000Y-51910000D02*
X126740000Y-50110000D01*
X121540000Y-51160000D02*
X121540000Y-44360000D01*
X124490000Y-51160000D02*
X121540000Y-51160000D01*
X125990000Y-50110000D02*
X125990000Y-51910000D01*
X126740000Y-50110000D02*
X125990000Y-50110000D01*
X125990000Y-48610000D02*
X126740000Y-48610000D01*
X126740000Y-48610000D02*
X126740000Y-40110000D01*
X125990000Y-40110000D02*
X125990000Y-48610000D01*
X126740000Y-40110000D02*
X125990000Y-40110000D01*
X125990000Y-38610000D02*
X126740000Y-38610000D01*
X126740000Y-38610000D02*
X126740000Y-36810000D01*
X127040000Y-37760000D02*
X127040000Y-36510000D01*
X121540000Y-37560000D02*
X121540000Y-44360000D01*
X124490000Y-37560000D02*
X121540000Y-37560000D01*
X124490000Y-36810000D02*
X124490000Y-37560000D01*
X125990000Y-36810000D02*
X125990000Y-38610000D01*
X126740000Y-36810000D02*
X125990000Y-36810000D01*
X120780000Y-36800000D02*
X120780000Y-51920000D01*
X126750000Y-36800000D02*
X120780000Y-36800000D01*
X127040000Y-36510000D02*
X125790000Y-36510000D01*
%TO.C,L1*%
X81450000Y-54382742D02*
X81450000Y-52712258D01*
X79630000Y-54382742D02*
X79630000Y-52712258D01*
%TO.C,J1*%
X109355000Y-72350000D02*
X109355000Y-72660000D01*
X109355000Y-79940000D02*
X109355000Y-74180000D01*
X110775000Y-79440000D02*
X110775000Y-79940000D01*
X110775000Y-79940000D02*
X109355000Y-79940000D01*
X117805000Y-79440000D02*
X110775000Y-79440000D01*
X117805000Y-79940000D02*
X117805000Y-79440000D01*
X119225000Y-72350000D02*
X109355000Y-72350000D01*
X119225000Y-72660000D02*
X119225000Y-72350000D01*
X119225000Y-74180000D02*
X119225000Y-79940000D01*
X119225000Y-79940000D02*
X117805000Y-79940000D01*
%TO.C,J8*%
X105050000Y-67175000D02*
X101975000Y-67175000D01*
X100960000Y-68595000D02*
X100460000Y-68595000D01*
X100460000Y-68595000D02*
X100460000Y-68615000D01*
X100460000Y-78605000D02*
X100460000Y-78625000D01*
X100960000Y-78625000D02*
X100960000Y-68595000D01*
X100460000Y-78625000D02*
X100960000Y-78625000D01*
X105050000Y-80045000D02*
X105050000Y-67175000D01*
X101975000Y-80045000D02*
X105050000Y-80045000D01*
%TO.C,C7*%
X119991248Y-54095000D02*
X120513752Y-54095000D01*
X119991248Y-52625000D02*
X120513752Y-52625000D01*
%TO.C,J4*%
X91350000Y-42464000D02*
X91350000Y-36494000D01*
X91350000Y-36494000D02*
X78730000Y-36494000D01*
X91340000Y-38754000D02*
X90590000Y-38754000D01*
X91340000Y-37254000D02*
X91340000Y-36504000D01*
X91340000Y-36504000D02*
X89540000Y-36504000D01*
X90590000Y-41704000D02*
X85040000Y-41704000D01*
X90590000Y-38754000D02*
X90590000Y-41704000D01*
X89540000Y-37254000D02*
X91340000Y-37254000D01*
X89540000Y-36504000D02*
X89540000Y-37254000D01*
X88040000Y-37254000D02*
X88040000Y-36504000D01*
X88040000Y-36504000D02*
X82040000Y-36504000D01*
X82040000Y-37254000D02*
X88040000Y-37254000D01*
X82040000Y-36504000D02*
X82040000Y-37254000D01*
X80540000Y-37254000D02*
X80540000Y-36504000D01*
X80540000Y-36504000D02*
X78740000Y-36504000D01*
X79690000Y-36204000D02*
X78440000Y-36204000D01*
X79490000Y-41704000D02*
X85040000Y-41704000D01*
X79490000Y-38754000D02*
X79490000Y-41704000D01*
X78740000Y-38754000D02*
X79490000Y-38754000D01*
X78740000Y-37254000D02*
X80540000Y-37254000D01*
X78740000Y-36504000D02*
X78740000Y-37254000D01*
X78730000Y-42464000D02*
X91350000Y-42464000D01*
X78730000Y-36494000D02*
X78730000Y-42464000D01*
X78440000Y-36204000D02*
X78440000Y-37454000D01*
%TO.C,C11*%
X95700000Y-46508752D02*
X95700000Y-45086248D01*
X93880000Y-46508752D02*
X93880000Y-45086248D01*
%TO.C,U5*%
X116319200Y-50662500D02*
X116319200Y-50020735D01*
X116319200Y-36699265D02*
X116319200Y-36057500D01*
X116319200Y-36057500D02*
X113951469Y-36057500D01*
X113951469Y-50662500D02*
X116319200Y-50662500D01*
X108628531Y-36057500D02*
X106260800Y-36057500D01*
X106260800Y-50662500D02*
X108628531Y-50662500D01*
X106260800Y-50020735D02*
X106260800Y-50662500D01*
X106260800Y-36057500D02*
X106260800Y-36699265D01*
%TO.C,C9*%
X103525000Y-45658752D02*
X103525000Y-45136248D01*
X102055000Y-45658752D02*
X102055000Y-45136248D01*
%TO.C,U4*%
X74920000Y-52600000D02*
X72490000Y-52600000D01*
X73160000Y-55670000D02*
X74920000Y-55670000D01*
%TO.C,C15*%
X118525000Y-48408752D02*
X118525000Y-47886248D01*
X117055000Y-48408752D02*
X117055000Y-47886248D01*
%TO.C,X1*%
X104315000Y-39860000D02*
X103515000Y-39860000D01*
X104315000Y-39660000D02*
X104315000Y-39860000D01*
X104315000Y-36860000D02*
X104315000Y-37060000D01*
X103515000Y-39860000D02*
X103515000Y-40360000D01*
X103515000Y-36860000D02*
X104315000Y-36860000D01*
X102115000Y-39860000D02*
X102115000Y-40360000D01*
X102115000Y-39860000D02*
X101515000Y-39860000D01*
X101515000Y-39860000D02*
X101315000Y-39660000D01*
X101315000Y-37060000D02*
X101315000Y-36860000D01*
X101315000Y-36860000D02*
X102115000Y-36860000D01*
%TO.C,D3*%
X98460000Y-58620000D02*
X99390000Y-58620000D01*
X98460000Y-58620000D02*
X98460000Y-57160000D01*
X101620000Y-58620000D02*
X100690000Y-58620000D01*
X101620000Y-58620000D02*
X101620000Y-56460000D01*
%TO.C,D5*%
X78290000Y-56860000D02*
X78290000Y-60760000D01*
X80290000Y-56860000D02*
X80290000Y-60760000D01*
X80290000Y-56860000D02*
X78290000Y-56860000D01*
%TO.C,D6*%
X81290000Y-48210000D02*
X81290000Y-44310000D01*
X79290000Y-48210000D02*
X79290000Y-44310000D01*
X79290000Y-48210000D02*
X81290000Y-48210000D01*
%TO.C,J9*%
X75090000Y-71610000D02*
X76140000Y-71610000D01*
X75090000Y-72760000D02*
X75090000Y-71610000D01*
X86140000Y-74730000D02*
X76260000Y-74730000D01*
X86260000Y-71610000D02*
X86260000Y-70620000D01*
X87310000Y-71610000D02*
X86260000Y-71610000D01*
X87310000Y-72760000D02*
X87310000Y-71610000D01*
%TO.C,J3*%
X89290000Y-71610000D02*
X90340000Y-71610000D01*
X89290000Y-72760000D02*
X89290000Y-71610000D01*
X94340000Y-74730000D02*
X90460000Y-74730000D01*
X94460000Y-71610000D02*
X94460000Y-70620000D01*
X95510000Y-71610000D02*
X94460000Y-71610000D01*
X95510000Y-72760000D02*
X95510000Y-71610000D01*
%TO.C,D1*%
X118290000Y-36400000D02*
X118290000Y-40410000D01*
X120290000Y-36400000D02*
X120290000Y-40410000D01*
X120290000Y-36400000D02*
X118290000Y-36400000D01*
%TO.C,J5*%
X73430000Y-73210000D02*
X73430000Y-78350000D01*
X70770000Y-78350000D02*
X73430000Y-78350000D01*
X70770000Y-73210000D02*
X73430000Y-73210000D01*
X70770000Y-73210000D02*
X70770000Y-78350000D01*
X70770000Y-71940000D02*
X70770000Y-70610000D01*
X70770000Y-70610000D02*
X72100000Y-70610000D01*
%TD*%
M02*
