%TF.GenerationSoftware,KiCad,Pcbnew,7.0.5-0*%
%TF.CreationDate,2023-06-16T19:55:47+02:00*%
%TF.ProjectId,SmartDisplay,536d6172-7444-4697-9370-6c61792e6b69,rev?*%
%TF.SameCoordinates,Original*%
%TF.FileFunction,Legend,Bot*%
%TF.FilePolarity,Positive*%
%FSLAX46Y46*%
G04 Gerber Fmt 4.6, Leading zero omitted, Abs format (unit mm)*
G04 Created by KiCad (PCBNEW 7.0.5-0) date 2023-06-16 19:55:47*
%MOMM*%
%LPD*%
G01*
G04 APERTURE LIST*
%ADD10C,0.150000*%
%ADD11C,0.120000*%
G04 APERTURE END LIST*
D10*
%TO.C,JP3*%
X164944819Y-39776666D02*
X165659104Y-39776666D01*
X165659104Y-39776666D02*
X165801961Y-39729047D01*
X165801961Y-39729047D02*
X165897200Y-39633809D01*
X165897200Y-39633809D02*
X165944819Y-39490952D01*
X165944819Y-39490952D02*
X165944819Y-39395714D01*
X165944819Y-40252857D02*
X164944819Y-40252857D01*
X164944819Y-40252857D02*
X164944819Y-40633809D01*
X164944819Y-40633809D02*
X164992438Y-40729047D01*
X164992438Y-40729047D02*
X165040057Y-40776666D01*
X165040057Y-40776666D02*
X165135295Y-40824285D01*
X165135295Y-40824285D02*
X165278152Y-40824285D01*
X165278152Y-40824285D02*
X165373390Y-40776666D01*
X165373390Y-40776666D02*
X165421009Y-40729047D01*
X165421009Y-40729047D02*
X165468628Y-40633809D01*
X165468628Y-40633809D02*
X165468628Y-40252857D01*
X164944819Y-41157619D02*
X164944819Y-41776666D01*
X164944819Y-41776666D02*
X165325771Y-41443333D01*
X165325771Y-41443333D02*
X165325771Y-41586190D01*
X165325771Y-41586190D02*
X165373390Y-41681428D01*
X165373390Y-41681428D02*
X165421009Y-41729047D01*
X165421009Y-41729047D02*
X165516247Y-41776666D01*
X165516247Y-41776666D02*
X165754342Y-41776666D01*
X165754342Y-41776666D02*
X165849580Y-41729047D01*
X165849580Y-41729047D02*
X165897200Y-41681428D01*
X165897200Y-41681428D02*
X165944819Y-41586190D01*
X165944819Y-41586190D02*
X165944819Y-41300476D01*
X165944819Y-41300476D02*
X165897200Y-41205238D01*
X165897200Y-41205238D02*
X165849580Y-41157619D01*
X102944819Y-39776666D02*
X103659104Y-39776666D01*
X103659104Y-39776666D02*
X103801961Y-39729047D01*
X103801961Y-39729047D02*
X103897200Y-39633809D01*
X103897200Y-39633809D02*
X103944819Y-39490952D01*
X103944819Y-39490952D02*
X103944819Y-39395714D01*
X103944819Y-40252857D02*
X102944819Y-40252857D01*
X102944819Y-40252857D02*
X102944819Y-40633809D01*
X102944819Y-40633809D02*
X102992438Y-40729047D01*
X102992438Y-40729047D02*
X103040057Y-40776666D01*
X103040057Y-40776666D02*
X103135295Y-40824285D01*
X103135295Y-40824285D02*
X103278152Y-40824285D01*
X103278152Y-40824285D02*
X103373390Y-40776666D01*
X103373390Y-40776666D02*
X103421009Y-40729047D01*
X103421009Y-40729047D02*
X103468628Y-40633809D01*
X103468628Y-40633809D02*
X103468628Y-40252857D01*
X102944819Y-41157619D02*
X102944819Y-41776666D01*
X102944819Y-41776666D02*
X103325771Y-41443333D01*
X103325771Y-41443333D02*
X103325771Y-41586190D01*
X103325771Y-41586190D02*
X103373390Y-41681428D01*
X103373390Y-41681428D02*
X103421009Y-41729047D01*
X103421009Y-41729047D02*
X103516247Y-41776666D01*
X103516247Y-41776666D02*
X103754342Y-41776666D01*
X103754342Y-41776666D02*
X103849580Y-41729047D01*
X103849580Y-41729047D02*
X103897200Y-41681428D01*
X103897200Y-41681428D02*
X103944819Y-41586190D01*
X103944819Y-41586190D02*
X103944819Y-41300476D01*
X103944819Y-41300476D02*
X103897200Y-41205238D01*
X103897200Y-41205238D02*
X103849580Y-41157619D01*
D11*
X166290000Y-41960000D02*
G75*
G03*
X166990000Y-42660000I700000J0D01*
G01*
X167590000Y-42660000D02*
G75*
G03*
X168290000Y-41960000I0J700000D01*
G01*
X166990000Y-38560000D02*
G75*
G03*
X166290000Y-39260000I-1J-699999D01*
G01*
X168290000Y-39260000D02*
G75*
G03*
X167590000Y-38560000I-699999J1D01*
G01*
X166990000Y-42660000D02*
X167590000Y-42660000D01*
X168290000Y-42010000D02*
X168290000Y-39210000D01*
X168490000Y-39410000D02*
X168790000Y-39710000D01*
X168490000Y-39410000D02*
X168790000Y-39110000D01*
X166290000Y-39210000D02*
X166290000Y-42010000D01*
X168790000Y-39110000D02*
X168790000Y-39710000D01*
X167590000Y-38560000D02*
X166990000Y-38560000D01*
X104290000Y-41960000D02*
G75*
G03*
X104990000Y-42660000I700000J0D01*
G01*
X105590000Y-42660000D02*
G75*
G03*
X106290000Y-41960000I0J700000D01*
G01*
X104990000Y-38560000D02*
G75*
G03*
X104290000Y-39260000I-1J-699999D01*
G01*
X106290000Y-39260000D02*
G75*
G03*
X105590000Y-38560000I-699999J1D01*
G01*
X104990000Y-42660000D02*
X105590000Y-42660000D01*
X106290000Y-42010000D02*
X106290000Y-39210000D01*
X106490000Y-39410000D02*
X106790000Y-39710000D01*
X106490000Y-39410000D02*
X106790000Y-39110000D01*
X104290000Y-39210000D02*
X104290000Y-42010000D01*
X106790000Y-39110000D02*
X106790000Y-39710000D01*
X105590000Y-38560000D02*
X104990000Y-38560000D01*
%TD*%
M02*
