M48
; DRILL file {KiCad 7.0.10} date 
; FORMAT={3:3/ absolute / metric / suppress leading zeros}
; #@! TF.CreationDate,2024-01-03T22:03:15+01:00
; #@! TF.GenerationSoftware,Kicad,Pcbnew,7.0.10
; #@! TF.FileFunction,MixedPlating,1,2
FMAT,2
METRIC,TZ
; #@! TA.AperFunction,Plated,PTH,ViaDrill
T1C0.400
; #@! TA.AperFunction,Plated,PTH,ComponentDrill
T2C0.950
; #@! TA.AperFunction,Plated,PTH,ComponentDrill
T3C1.000
; #@! TA.AperFunction,Plated,PTH,ComponentDrill
T4C1.020
; #@! TA.AperFunction,NonPlated,NPTH,ComponentDrill
T5C0.500
; #@! TA.AperFunction,NonPlated,NPTH,ComponentDrill
T6C1.000
; #@! TA.AperFunction,NonPlated,NPTH,ComponentDrill
T7C1.270
; #@! TA.AperFunction,NonPlated,NPTH,ComponentDrill
T8C2.200
%
G90
G05
T1
X50302Y-71143
X50592Y-63283
X50842Y-58783
X51602Y-49393
X52161Y-57553
X52376Y-67256
X52552Y-70793
X53092Y-43283
X53502Y-69543
X53679Y-68020
X54502Y-70093
X54777Y-68093
X55102Y-52393
X55625Y-63567
X55829Y-61021
X56342Y-52783
X56342Y-59783
X56367Y-64308
X56592Y-50033
X56842Y-43283
X57092Y-62033
X57302Y-69093
X57342Y-60533
X57342Y-63033
X57746Y-65058
X58892Y-58383
X59842Y-53908
X60342Y-56533
X61092Y-63033
X61342Y-64033
X62092Y-62033
X62892Y-60383
X64092Y-61283
X64602Y-71093
X65092Y-61783
X65292Y-53908
X65802Y-71093
X66059Y-54633
X66592Y-49533
X67240Y-57385
X67842Y-58533
X68342Y-53283
X69092Y-57033
X69592Y-59533
X69592Y-67783
X69842Y-57783
X70342Y-61283
X70892Y-60322
X71024Y-70193
X72342Y-67783
X73092Y-49283
X76092Y-50783
X76842Y-49533
X78342Y-47033
X78342Y-51783
X78842Y-48783
X78842Y-58033
X78842Y-59283
X78842Y-61033
X79092Y-42283
X79092Y-43583
X79092Y-50283
X79092Y-62283
X79217Y-40983
X83092Y-55533
X83842Y-63033
X87342Y-65533
X88342Y-65783
X89092Y-73783
X91092Y-38783
X91592Y-43283
X92092Y-63783
X93202Y-47793
X93342Y-66008
X93342Y-72783
X94092Y-69283
X112302Y-71143
X112592Y-63283
X112842Y-58783
X113602Y-49393
X114161Y-57553
X114376Y-67256
X114552Y-70793
X115092Y-43283
X115502Y-69543
X115679Y-68020
X116502Y-70093
X116777Y-68093
X117102Y-52393
X117625Y-63567
X117829Y-61021
X118342Y-52783
X118342Y-59783
X118367Y-64308
X118592Y-50033
X118842Y-43283
X119092Y-62033
X119302Y-69093
X119342Y-60533
X119342Y-63033
X119746Y-65058
X120892Y-58383
X121842Y-53908
X122342Y-56533
X123092Y-63033
X123342Y-64033
X124092Y-62033
X124892Y-60383
X126092Y-61283
X126602Y-71093
X127092Y-61783
X127292Y-53908
X127802Y-71093
X128059Y-54633
X128592Y-49533
X129240Y-57385
X129842Y-58533
X130342Y-53283
X131092Y-57033
X131592Y-59533
X131592Y-67783
X131842Y-57783
X132342Y-61283
X132892Y-60322
X133024Y-70193
X134342Y-67783
X135092Y-49283
X138092Y-50783
X138842Y-49533
X140342Y-47033
X140342Y-51783
X140842Y-48783
X140842Y-58033
X140842Y-59283
X140842Y-61033
X141092Y-42283
X141092Y-43583
X141092Y-50283
X141092Y-62283
X141217Y-40983
X145092Y-55533
X145842Y-63033
X149342Y-65533
X150342Y-65783
X151092Y-73783
X153092Y-38783
X153592Y-43283
X154092Y-63783
X155202Y-47793
X155342Y-66008
X155342Y-72783
X156092Y-69283
T2
X55092Y-40627
X57592Y-40627
X60092Y-40627
X62592Y-40627
X98092Y-41033
X98092Y-43533
X98092Y-46033
X98092Y-48533
X98092Y-51033
X117092Y-40627
X119592Y-40627
X122092Y-40627
X124592Y-40627
X160092Y-41033
X160092Y-43533
X160092Y-46033
X160092Y-48533
X160092Y-51033
T3
X45902Y-73613
X45902Y-76153
X45902Y-78693
X68592Y-40627
X71092Y-40627
X86592Y-76033
X86592Y-79033
X89592Y-76033
X89592Y-79033
X107902Y-73613
X107902Y-76153
X107902Y-78693
X130592Y-40627
X133092Y-40627
X148592Y-76033
X148592Y-79033
X151592Y-76033
X151592Y-79033
T4
X76842Y-72283
X76842Y-75283
X76842Y-78283
X138842Y-72283
X138842Y-75283
X138842Y-78283
T5
X44742Y-82033
X45542Y-81783
X46242Y-81783
X47042Y-82033
X49952Y-37843
X50752Y-38093
X51452Y-38093
X52252Y-37843
X86842Y-82033
X87642Y-81783
X88342Y-81783
X89142Y-82033
X96352Y-37843
X97152Y-38093
X97852Y-38093
X98652Y-37843
X106742Y-82033
X107542Y-81783
X108242Y-81783
X109042Y-82033
X111952Y-37843
X112752Y-38093
X113452Y-38093
X114252Y-37843
X148842Y-82033
X149642Y-81783
X150342Y-81783
X151142Y-82033
X158352Y-37843
X159152Y-38093
X159852Y-38093
X160652Y-37843
T6
X83592Y-75093
X92592Y-75093
X145592Y-75093
X154592Y-75093
T7
X74882Y-69283
X74882Y-81283
X136882Y-69283
X136882Y-81283
T8
X47402Y-41262
X97867Y-78520
X109402Y-41262
X159867Y-78520
M30
