%TF.GenerationSoftware,KiCad,Pcbnew,7.0.10*%
%TF.CreationDate,2024-01-03T22:03:13+01:00*%
%TF.ProjectId,SmartDisplay,536d6172-7444-4697-9370-6c61792e6b69,rev?*%
%TF.SameCoordinates,Original*%
%TF.FileFunction,Profile,NP*%
%FSLAX46Y46*%
G04 Gerber Fmt 4.6, Leading zero omitted, Abs format (unit mm)*
G04 Created by KiCad (PCBNEW 7.0.10) date 2024-01-03 22:03:13*
%MOMM*%
%LPD*%
G01*
G04 APERTURE LIST*
%TA.AperFunction,Profile*%
%ADD10C,0.050000*%
%TD*%
G04 APERTURE END LIST*
D10*
X71277612Y-82283491D02*
X86491612Y-82283491D01*
X47909612Y-77203491D02*
X71277612Y-77203491D01*
X101491612Y-82283491D02*
X101491612Y-37583491D01*
X47909612Y-77203491D02*
X47909612Y-82283491D01*
X43591612Y-82283491D02*
X43591612Y-37583491D01*
X71277612Y-77203491D02*
X71277612Y-82283491D01*
X109909612Y-77203491D02*
X109909612Y-82283491D01*
X101491612Y-29983491D02*
X105591612Y-29983491D01*
X95991612Y-37583509D02*
G75*
G03*
X95991612Y-36583491I-12J500009D01*
G01*
X101491612Y-36583491D02*
X105591612Y-36583491D01*
X47391612Y-82283491D02*
X47909612Y-82283491D01*
X114591612Y-37583491D02*
X157991612Y-37583491D01*
X89491612Y-83283491D02*
X101491612Y-83283491D01*
X105591612Y-82283491D02*
X105591612Y-37583491D01*
X111591612Y-36583491D02*
X105591612Y-36583491D01*
X133277612Y-77203491D02*
X133277612Y-82283491D01*
X163491612Y-82283491D02*
X163491612Y-37583491D01*
X109909612Y-77203491D02*
X133277612Y-77203491D01*
X111591612Y-37583509D02*
G75*
G03*
X111591612Y-36583491I-12J500009D01*
G01*
X157991612Y-36583491D02*
X114591612Y-36583491D01*
X49591612Y-36583491D02*
X43591612Y-36583491D01*
X105591612Y-37583491D02*
X111591612Y-37583491D01*
X160991612Y-36583491D02*
X163491612Y-36583491D01*
X160991612Y-37583491D02*
X163491612Y-37583491D01*
X105591612Y-82283491D02*
X106391612Y-82283491D01*
X101491612Y-89883491D02*
X105591612Y-89883491D01*
X98991612Y-36583509D02*
G75*
G03*
X98991612Y-37583491I-12J-499991D01*
G01*
X98991612Y-36583491D02*
X101491612Y-36583491D01*
X160991612Y-36583509D02*
G75*
G03*
X160991612Y-37583491I-12J-499991D01*
G01*
X109391612Y-82283491D02*
X109909612Y-82283491D01*
X52591612Y-37583491D02*
X95991612Y-37583491D01*
X101491612Y-89883491D02*
X43591612Y-89883491D01*
X43591612Y-83283491D02*
X43591612Y-89883491D01*
X114591612Y-36583509D02*
G75*
G03*
X114591612Y-37583491I-12J-499991D01*
G01*
X98991612Y-37583491D02*
X101491612Y-37583491D01*
X151491612Y-82283509D02*
G75*
G03*
X151491612Y-83283491I-12J-499991D01*
G01*
X43591612Y-37583491D02*
X49591612Y-37583491D01*
X89491612Y-82283509D02*
G75*
G03*
X89491612Y-83283491I-12J-499991D01*
G01*
X133277612Y-82283491D02*
X148491612Y-82283491D01*
X52591612Y-36583509D02*
G75*
G03*
X52591612Y-37583491I-12J-499991D01*
G01*
X43591612Y-29983491D02*
X101491612Y-29983491D01*
X163491612Y-36583491D02*
X163491612Y-29983491D01*
X151491612Y-82283491D02*
X163491612Y-82283491D01*
X105591612Y-29983491D02*
X163491612Y-29983491D01*
X106391612Y-83283509D02*
G75*
G03*
X106391612Y-82283491I-12J500009D01*
G01*
X43591612Y-82283491D02*
X44391612Y-82283491D01*
X47391612Y-83283491D02*
X86491612Y-83283491D01*
X148491612Y-83283509D02*
G75*
G03*
X148491612Y-82283491I-12J500009D01*
G01*
X163491612Y-89883491D02*
X105591612Y-89883491D01*
X105591612Y-83283491D02*
X101491612Y-83283491D01*
X151491612Y-83283491D02*
X163491612Y-83283491D01*
X163491612Y-83283491D02*
X163491612Y-89883491D01*
X44391612Y-83283509D02*
G75*
G03*
X44391612Y-82283491I-12J500009D01*
G01*
X86491612Y-83283509D02*
G75*
G03*
X86491612Y-82283491I-12J500009D01*
G01*
X47391612Y-82283509D02*
G75*
G03*
X47391612Y-83283491I-12J-499991D01*
G01*
X49591612Y-37583509D02*
G75*
G03*
X49591612Y-36583491I-12J500009D01*
G01*
X44391612Y-83283491D02*
X43591612Y-83283491D01*
X95991612Y-36583491D02*
X52591612Y-36583491D01*
X109391612Y-83283491D02*
X148491612Y-83283491D01*
X157991612Y-37583509D02*
G75*
G03*
X157991612Y-36583491I-12J500009D01*
G01*
X43591612Y-36583491D02*
X43591612Y-29983491D01*
X106391612Y-83283491D02*
X105591612Y-83283491D01*
X89491612Y-82283491D02*
X101491612Y-82283491D01*
X109391612Y-82283509D02*
G75*
G03*
X109391612Y-83283491I-12J-499991D01*
G01*
M02*
