%TF.GenerationSoftware,KiCad,Pcbnew,7.0.10*%
%TF.CreationDate,2024-01-03T22:03:13+01:00*%
%TF.ProjectId,SmartDisplay,536d6172-7444-4697-9370-6c61792e6b69,rev?*%
%TF.SameCoordinates,Original*%
%TF.FileFunction,Soldermask,Top*%
%TF.FilePolarity,Negative*%
%FSLAX46Y46*%
G04 Gerber Fmt 4.6, Leading zero omitted, Abs format (unit mm)*
G04 Created by KiCad (PCBNEW 7.0.10) date 2024-01-03 22:03:13*
%MOMM*%
%LPD*%
G01*
G04 APERTURE LIST*
G04 Aperture macros list*
%AMRoundRect*
0 Rectangle with rounded corners*
0 $1 Rounding radius*
0 $2 $3 $4 $5 $6 $7 $8 $9 X,Y pos of 4 corners*
0 Add a 4 corners polygon primitive as box body*
4,1,4,$2,$3,$4,$5,$6,$7,$8,$9,$2,$3,0*
0 Add four circle primitives for the rounded corners*
1,1,$1+$1,$2,$3*
1,1,$1+$1,$4,$5*
1,1,$1+$1,$6,$7*
1,1,$1+$1,$8,$9*
0 Add four rect primitives between the rounded corners*
20,1,$1+$1,$2,$3,$4,$5,0*
20,1,$1+$1,$4,$5,$6,$7,0*
20,1,$1+$1,$6,$7,$8,$9,0*
20,1,$1+$1,$8,$9,$2,$3,0*%
%AMFreePoly0*
4,1,35,0.535355,0.785355,0.550000,0.750000,0.550000,-0.750000,0.535355,-0.785355,0.500000,-0.800000,0.000000,-0.800000,-0.012286,-0.794911,-0.071157,-0.794911,-0.085244,-0.792886,-0.221795,-0.752791,-0.234740,-0.746879,-0.354462,-0.669938,-0.365217,-0.660618,-0.458414,-0.553063,-0.466109,-0.541091,-0.525228,-0.411637,-0.529237,-0.397982,-0.549491,-0.257116,-0.550000,-0.250000,-0.550000,0.250000,
-0.549491,0.257116,-0.529237,0.397982,-0.525228,0.411637,-0.466109,0.541091,-0.458414,0.553063,-0.365217,0.660618,-0.354462,0.669938,-0.234740,0.746879,-0.221795,0.752791,-0.085244,0.792886,-0.071157,0.794911,-0.012286,0.794911,0.000000,0.800000,0.500000,0.800000,0.535355,0.785355,0.535355,0.785355,$1*%
%AMFreePoly1*
4,1,35,0.012286,0.794911,0.071157,0.794911,0.085244,0.792886,0.221795,0.752791,0.234740,0.746879,0.354462,0.669938,0.365217,0.660618,0.458414,0.553063,0.466109,0.541091,0.525228,0.411637,0.529237,0.397982,0.549491,0.257116,0.550000,0.250000,0.550000,-0.250000,0.549491,-0.257116,0.529237,-0.397982,0.525228,-0.411637,0.466109,-0.541091,0.458414,-0.553063,0.365217,-0.660618,
0.354462,-0.669938,0.234740,-0.746879,0.221795,-0.752791,0.085244,-0.792886,0.071157,-0.794911,0.012286,-0.794911,0.000000,-0.800000,-0.500000,-0.800000,-0.535355,-0.785355,-0.550000,-0.750000,-0.550000,0.750000,-0.535355,0.785355,-0.500000,0.800000,0.000000,0.800000,0.012286,0.794911,0.012286,0.794911,$1*%
G04 Aperture macros list end*
%ADD10RoundRect,0.271277X0.503723X-0.366223X0.503723X0.366223X-0.503723X0.366223X-0.503723X-0.366223X0*%
%ADD11RoundRect,0.270832X-0.379168X-0.479168X0.379168X-0.479168X0.379168X0.479168X-0.379168X0.479168X0*%
%ADD12C,2.300000*%
%ADD13RoundRect,0.270832X-0.479168X0.379168X-0.479168X-0.379168X0.479168X-0.379168X0.479168X0.379168X0*%
%ADD14RoundRect,0.270832X0.479168X-0.379168X0.479168X0.379168X-0.479168X0.379168X-0.479168X-0.379168X0*%
%ADD15RoundRect,0.050000X0.850000X-0.650000X0.850000X0.650000X-0.850000X0.650000X-0.850000X-0.650000X0*%
%ADD16RoundRect,0.050000X1.250000X1.150000X-1.250000X1.150000X-1.250000X-1.150000X1.250000X-1.150000X0*%
%ADD17RoundRect,0.050000X-0.550000X0.950000X-0.550000X-0.950000X0.550000X-0.950000X0.550000X0.950000X0*%
%ADD18RoundRect,0.271277X0.366223X0.503723X-0.366223X0.503723X-0.366223X-0.503723X0.366223X-0.503723X0*%
%ADD19FreePoly0,270.000000*%
%ADD20FreePoly1,270.000000*%
%ADD21RoundRect,0.271277X-0.366223X-0.503723X0.366223X-0.503723X0.366223X0.503723X-0.366223X0.503723X0*%
%ADD22RoundRect,0.175000X-0.175000X0.850000X-0.175000X-0.850000X0.175000X-0.850000X0.175000X0.850000X0*%
%ADD23RoundRect,0.264706X-0.635294X-0.785294X0.635294X-0.785294X0.635294X0.785294X-0.635294X0.785294X0*%
%ADD24O,1.800000X2.100000*%
%ADD25RoundRect,0.050000X-0.800000X-0.275000X0.800000X-0.275000X0.800000X0.275000X-0.800000X0.275000X0*%
%ADD26RoundRect,0.050000X0.275000X-0.800000X0.275000X0.800000X-0.275000X0.800000X-0.275000X-0.800000X0*%
%ADD27RoundRect,0.175000X0.900000X0.175000X-0.900000X0.175000X-0.900000X-0.175000X0.900000X-0.175000X0*%
%ADD28RoundRect,0.267544X-0.494956X-1.107456X0.494956X-1.107456X0.494956X1.107456X-0.494956X1.107456X0*%
%ADD29C,1.000000*%
%ADD30RoundRect,0.265625X-1.284375X-0.584375X1.284375X-0.584375X1.284375X0.584375X-1.284375X0.584375X0*%
%ADD31RoundRect,0.265625X-1.084375X-0.584375X1.084375X-0.584375X1.084375X0.584375X-1.084375X0.584375X0*%
%ADD32RoundRect,0.264706X-0.760294X0.635294X-0.760294X-0.635294X0.760294X-0.635294X0.760294X0.635294X0*%
%ADD33O,2.050000X1.800000*%
%ADD34RoundRect,0.273810X0.726190X-0.301190X0.726190X0.301190X-0.726190X0.301190X-0.726190X-0.301190X0*%
%ADD35C,1.100000*%
%ADD36RoundRect,0.266667X0.533333X0.533333X-0.533333X0.533333X-0.533333X-0.533333X0.533333X-0.533333X0*%
%ADD37C,1.600000*%
%ADD38C,1.370000*%
%ADD39RoundRect,0.266667X0.793333X-0.533333X0.793333X0.533333X-0.793333X0.533333X-0.793333X-0.533333X0*%
%ADD40O,2.120000X1.600000*%
%ADD41RoundRect,0.264706X-0.635294X-0.760294X0.635294X-0.760294X0.635294X0.760294X-0.635294X0.760294X0*%
%ADD42O,1.800000X2.050000*%
%ADD43RoundRect,0.268865X0.681135X-0.443635X0.681135X0.443635X-0.681135X0.443635X-0.681135X-0.443635X0*%
%ADD44RoundRect,0.050000X-0.571500X-0.355600X0.571500X-0.355600X0.571500X0.355600X-0.571500X0.355600X0*%
%ADD45RoundRect,0.050000X0.355600X-0.571500X0.355600X0.571500X-0.355600X0.571500X-0.355600X-0.571500X0*%
%ADD46RoundRect,0.050000X-0.610000X-0.325000X0.610000X-0.325000X0.610000X0.325000X-0.610000X0.325000X0*%
%ADD47RoundRect,0.050000X-0.500000X-0.500000X0.500000X-0.500000X0.500000X0.500000X-0.500000X0.500000X0*%
%ADD48RoundRect,0.050000X-0.525000X-1.100000X0.525000X-1.100000X0.525000X1.100000X-0.525000X1.100000X0*%
%ADD49RoundRect,0.050000X-0.400000X0.450000X-0.400000X-0.450000X0.400000X-0.450000X0.400000X0.450000X0*%
%ADD50RoundRect,0.050000X-0.600000X0.450000X-0.600000X-0.450000X0.600000X-0.450000X0.600000X0.450000X0*%
%ADD51RoundRect,0.050000X0.600000X-0.450000X0.600000X0.450000X-0.600000X0.450000X-0.600000X-0.450000X0*%
%ADD52RoundRect,0.250000X-0.400000X0.250000X-0.400000X-0.250000X0.400000X-0.250000X0.400000X0.250000X0*%
%ADD53C,0.600000*%
%ADD54RoundRect,0.175000X0.175000X0.650000X-0.175000X0.650000X-0.175000X-0.650000X0.175000X-0.650000X0*%
%ADD55RoundRect,0.270833X0.379167X0.679167X-0.379167X0.679167X-0.379167X-0.679167X0.379167X-0.679167X0*%
%ADD56FreePoly0,90.000000*%
%ADD57FreePoly1,90.000000*%
%ADD58RoundRect,0.050000X-0.850000X-0.850000X0.850000X-0.850000X0.850000X0.850000X-0.850000X0.850000X0*%
%ADD59O,1.800000X1.800000*%
G04 APERTURE END LIST*
D10*
%TO.C,C3*%
X93091612Y-46283491D03*
X93091612Y-44208491D03*
%TD*%
D11*
%TO.C,R5*%
X75341612Y-67033491D03*
X77341612Y-67033491D03*
%TD*%
D12*
%TO.C,H1*%
X47401612Y-41262491D03*
%TD*%
D11*
%TO.C,R6*%
X75341612Y-63033491D03*
X77341612Y-63033491D03*
%TD*%
D10*
%TO.C,C12*%
X62341612Y-47845991D03*
X62341612Y-45770991D03*
%TD*%
%TO.C,C2*%
X63841612Y-55783491D03*
X63841612Y-53708491D03*
%TD*%
D13*
%TO.C,R4*%
X72591612Y-46033491D03*
X72591612Y-48033491D03*
%TD*%
D14*
%TO.C,R1*%
X57341612Y-47783491D03*
X57341612Y-45783491D03*
%TD*%
D15*
%TO.C,D4*%
X59841612Y-49283491D03*
X59841612Y-45783491D03*
%TD*%
D16*
%TO.C,D6*%
X87533612Y-69583491D03*
X83233612Y-69583491D03*
%TD*%
D17*
%TO.C,Y1*%
X92841612Y-57583491D03*
X92841612Y-61283491D03*
X95141612Y-61283491D03*
X95141612Y-57583491D03*
%TD*%
D18*
%TO.C,C10*%
X95091612Y-63783491D03*
X93016612Y-63783491D03*
%TD*%
D19*
%TO.C,JP2*%
X99091612Y-63733491D03*
D20*
X99091612Y-65033491D03*
%TD*%
D21*
%TO.C,C15*%
X91091612Y-70783491D03*
X93166612Y-70783491D03*
%TD*%
D22*
%TO.C,U4*%
X98963612Y-67583491D03*
X97693612Y-67583491D03*
X96423612Y-67583491D03*
X95153612Y-67583491D03*
X95153612Y-72533491D03*
X96423612Y-72533491D03*
X97693612Y-72533491D03*
X98963612Y-72533491D03*
%TD*%
D12*
%TO.C,H2*%
X97866668Y-78519547D03*
%TD*%
D14*
%TO.C,R7*%
X99091612Y-61783491D03*
X99091612Y-59783491D03*
%TD*%
D21*
%TO.C,C11*%
X75341612Y-65033491D03*
X77416612Y-65033491D03*
%TD*%
D23*
%TO.C,J7*%
X68591612Y-40627491D03*
D24*
X71091612Y-40627491D03*
%TD*%
D25*
%TO.C,U1*%
X59091612Y-59733491D03*
X59091612Y-60533491D03*
X59091612Y-61333491D03*
X59091612Y-62133491D03*
X59091612Y-62933491D03*
X59091612Y-63733491D03*
X59091612Y-64533491D03*
X59091612Y-65333491D03*
D26*
X60541612Y-66783491D03*
X61341612Y-66783491D03*
X62141612Y-66783491D03*
X62941612Y-66783491D03*
X63741612Y-66783491D03*
X64541612Y-66783491D03*
X65341612Y-66783491D03*
X66141612Y-66783491D03*
D25*
X67591612Y-65333491D03*
X67591612Y-64533491D03*
X67591612Y-63733491D03*
X67591612Y-62933491D03*
X67591612Y-62133491D03*
X67591612Y-61333491D03*
X67591612Y-60533491D03*
X67591612Y-59733491D03*
D26*
X66141612Y-58283491D03*
X65341612Y-58283491D03*
X64541612Y-58283491D03*
X63741612Y-58283491D03*
X62941612Y-58283491D03*
X62141612Y-58283491D03*
X61341612Y-58283491D03*
X60541612Y-58283491D03*
%TD*%
D21*
%TO.C,C1*%
X70091612Y-64533491D03*
X72166612Y-64533491D03*
%TD*%
D27*
%TO.C,U3*%
X90241612Y-65843491D03*
X90241612Y-64573491D03*
X90241612Y-63303491D03*
X90241612Y-62033491D03*
X90241612Y-60763491D03*
X90241612Y-59493491D03*
X90241612Y-58223491D03*
X90241612Y-56953491D03*
X90241612Y-55683491D03*
X80941612Y-55683491D03*
X80941612Y-56953491D03*
X80941612Y-58223491D03*
X80941612Y-59493491D03*
X80941612Y-60763491D03*
X80941612Y-62033491D03*
X80941612Y-63303491D03*
X80941612Y-64573491D03*
X80941612Y-65843491D03*
%TD*%
D14*
%TO.C,R3*%
X64841612Y-47783491D03*
X64841612Y-45783491D03*
%TD*%
D28*
%TO.C,F1*%
X46866612Y-46393491D03*
X49841612Y-46393491D03*
%TD*%
D13*
%TO.C,R2*%
X74591612Y-46033491D03*
X74591612Y-48033491D03*
%TD*%
D29*
%TO.C,FID2*%
X45341612Y-69283491D03*
%TD*%
%TO.C,FID3*%
X98591612Y-56283491D03*
%TD*%
D30*
%TO.C,C4*%
X45941612Y-50993491D03*
X50341612Y-50993491D03*
%TD*%
D10*
%TO.C,C5*%
X52091612Y-56108491D03*
X52091612Y-54033491D03*
%TD*%
D31*
%TO.C,C7*%
X45991612Y-60993491D03*
X49591612Y-60993491D03*
%TD*%
%TO.C,C9*%
X45991612Y-66283491D03*
X49591612Y-66283491D03*
%TD*%
D32*
%TO.C,J2*%
X98091612Y-41033491D03*
D33*
X98091612Y-43533491D03*
X98091612Y-46033491D03*
X98091612Y-48533491D03*
X98091612Y-51033491D03*
%TD*%
D34*
%TO.C,L1*%
X54341612Y-56795991D03*
X54341612Y-53645991D03*
%TD*%
D35*
%TO.C,J8*%
X92591612Y-75093491D03*
X83591612Y-75093491D03*
D36*
X89591612Y-79033491D03*
D37*
X86591612Y-79033491D03*
X89591612Y-76033491D03*
X86591612Y-76033491D03*
%TD*%
D38*
%TO.C,J6*%
X74881612Y-81283491D03*
X74881612Y-69283491D03*
D39*
X76841612Y-78283491D03*
D40*
X76841612Y-75283491D03*
X76841612Y-72283491D03*
%TD*%
D21*
%TO.C,C6*%
X93016612Y-55033491D03*
X95091612Y-55033491D03*
%TD*%
D41*
%TO.C,J1*%
X55091612Y-40627491D03*
D42*
X57591612Y-40627491D03*
X60091612Y-40627491D03*
X62591612Y-40627491D03*
%TD*%
D43*
%TO.C,C13*%
X68591612Y-49033491D03*
X68591612Y-45908491D03*
%TD*%
D44*
%TO.C,U5*%
X89416612Y-51033492D03*
X89416612Y-50033491D03*
X89416612Y-49033491D03*
X89416612Y-48033490D03*
X89416612Y-47033492D03*
X89416612Y-46033492D03*
X89416612Y-45033491D03*
X89416612Y-44033490D03*
X89416612Y-43033490D03*
X89416612Y-42033492D03*
X89416612Y-41033491D03*
X89416612Y-40033491D03*
X89416612Y-39033490D03*
X80766612Y-39033490D03*
X80766612Y-40033491D03*
X80766612Y-41033491D03*
X80766612Y-42033492D03*
X80766612Y-43033490D03*
X80766612Y-44033490D03*
X80766612Y-45033491D03*
X80766612Y-46033492D03*
X80766612Y-47033492D03*
X80766612Y-48033490D03*
X80766612Y-49033491D03*
X80766612Y-50033491D03*
X80766612Y-51033492D03*
D45*
X83091611Y-51633493D03*
X84091611Y-51633493D03*
X85091612Y-51633493D03*
X86091613Y-51633493D03*
X87091613Y-51633493D03*
%TD*%
D10*
%TO.C,C8*%
X76591612Y-48108491D03*
X76591612Y-46033491D03*
%TD*%
D46*
%TO.C,U2*%
X46531612Y-55243491D03*
X46531612Y-56193491D03*
X46531612Y-57143491D03*
X49151612Y-57143491D03*
X49151612Y-56193491D03*
X49151612Y-55243491D03*
%TD*%
D10*
%TO.C,C14*%
X91591612Y-50858491D03*
X91591612Y-48783491D03*
%TD*%
D47*
%TO.C,X1*%
X76616612Y-41533491D03*
D48*
X75141612Y-40033491D03*
D47*
X76616612Y-38533491D03*
D48*
X78091612Y-40033491D03*
%TD*%
D29*
%TO.C,FID1*%
X74091612Y-53033491D03*
%TD*%
D49*
%TO.C,D5*%
X74791612Y-58533491D03*
X72891612Y-58533491D03*
X73841612Y-60533491D03*
%TD*%
D50*
%TO.C,D2*%
X53091612Y-59133491D03*
X53091612Y-62433491D03*
%TD*%
D51*
%TO.C,D3*%
X54091612Y-49283491D03*
X54091612Y-45983491D03*
%TD*%
D29*
%TO.C,FID3*%
X160591612Y-56283491D03*
%TD*%
D52*
%TO.C,D1*%
X155091612Y-38783491D03*
X155091612Y-42083491D03*
%TD*%
D35*
%TO.C,J8*%
X154591612Y-75093491D03*
X145591612Y-75093491D03*
D36*
X151591612Y-79033491D03*
D37*
X148591612Y-79033491D03*
X151591612Y-76033491D03*
X148591612Y-76033491D03*
%TD*%
D53*
%TO.C,MB4*%
X89141612Y-82033491D03*
X88341612Y-81783491D03*
X87641612Y-81783491D03*
X86841612Y-82033491D03*
%TD*%
D38*
%TO.C,J6*%
X136881612Y-81283491D03*
X136881612Y-69283491D03*
D39*
X138841612Y-78283491D03*
D40*
X138841612Y-75283491D03*
X138841612Y-72283491D03*
%TD*%
D49*
%TO.C,D5*%
X136791612Y-58533491D03*
X134891612Y-58533491D03*
X135841612Y-60533491D03*
%TD*%
D54*
%TO.C,J4*%
X59501612Y-73068491D03*
X58501612Y-73068491D03*
X57501612Y-73068491D03*
X56501612Y-73068491D03*
X55501612Y-73068491D03*
X54501612Y-73068491D03*
X53501612Y-73068491D03*
X52501612Y-73068491D03*
X51501612Y-73068491D03*
X50501612Y-73068491D03*
D55*
X60801612Y-75593491D03*
X49201612Y-75593491D03*
%TD*%
D43*
%TO.C,C13*%
X130591612Y-49033491D03*
X130591612Y-45908491D03*
%TD*%
D21*
%TO.C,C11*%
X137341612Y-65033491D03*
X139416612Y-65033491D03*
%TD*%
D54*
%TO.C,J5*%
X129701612Y-73068491D03*
X128701612Y-73068491D03*
X127701612Y-73068491D03*
X126701612Y-73068491D03*
D55*
X131001612Y-75593491D03*
X125401612Y-75593491D03*
%TD*%
D41*
%TO.C,J1*%
X117091612Y-40627491D03*
D42*
X119591612Y-40627491D03*
X122091612Y-40627491D03*
X124591612Y-40627491D03*
%TD*%
D54*
%TO.C,J4*%
X121501612Y-73068491D03*
X120501612Y-73068491D03*
X119501612Y-73068491D03*
X118501612Y-73068491D03*
X117501612Y-73068491D03*
X116501612Y-73068491D03*
X115501612Y-73068491D03*
X114501612Y-73068491D03*
X113501612Y-73068491D03*
X112501612Y-73068491D03*
D55*
X122801612Y-75593491D03*
X111201612Y-75593491D03*
%TD*%
D29*
%TO.C,FID1*%
X136091612Y-53033491D03*
%TD*%
D14*
%TO.C,R7*%
X161091612Y-61783491D03*
X161091612Y-59783491D03*
%TD*%
D51*
%TO.C,D3*%
X116091612Y-49283491D03*
X116091612Y-45983491D03*
%TD*%
D54*
%TO.C,J5*%
X67701612Y-73068491D03*
X66701612Y-73068491D03*
X65701612Y-73068491D03*
X64701612Y-73068491D03*
D55*
X69001612Y-75593491D03*
X63401612Y-75593491D03*
%TD*%
D30*
%TO.C,C4*%
X107941612Y-50993491D03*
X112341612Y-50993491D03*
%TD*%
D12*
%TO.C,H2*%
X159866668Y-78519547D03*
%TD*%
D52*
%TO.C,D1*%
X93091612Y-38783491D03*
X93091612Y-42083491D03*
%TD*%
D11*
%TO.C,R6*%
X137341612Y-63033491D03*
X139341612Y-63033491D03*
%TD*%
D46*
%TO.C,U2*%
X108531612Y-55243491D03*
X108531612Y-56193491D03*
X108531612Y-57143491D03*
X111151612Y-57143491D03*
X111151612Y-56193491D03*
X111151612Y-55243491D03*
%TD*%
D16*
%TO.C,D6*%
X149533612Y-69583491D03*
X145233612Y-69583491D03*
%TD*%
D10*
%TO.C,C12*%
X124341612Y-47845991D03*
X124341612Y-45770991D03*
%TD*%
D13*
%TO.C,R2*%
X136591612Y-46033491D03*
X136591612Y-48033491D03*
%TD*%
D56*
%TO.C,JP1*%
X114601612Y-65543491D03*
D57*
X114601612Y-64243491D03*
%TD*%
D44*
%TO.C,U5*%
X151416612Y-51033492D03*
X151416612Y-50033491D03*
X151416612Y-49033491D03*
X151416612Y-48033490D03*
X151416612Y-47033492D03*
X151416612Y-46033492D03*
X151416612Y-45033491D03*
X151416612Y-44033490D03*
X151416612Y-43033490D03*
X151416612Y-42033492D03*
X151416612Y-41033491D03*
X151416612Y-40033491D03*
X151416612Y-39033490D03*
X142766612Y-39033490D03*
X142766612Y-40033491D03*
X142766612Y-41033491D03*
X142766612Y-42033492D03*
X142766612Y-43033490D03*
X142766612Y-44033490D03*
X142766612Y-45033491D03*
X142766612Y-46033492D03*
X142766612Y-47033492D03*
X142766612Y-48033490D03*
X142766612Y-49033491D03*
X142766612Y-50033491D03*
X142766612Y-51033492D03*
D45*
X145091611Y-51633493D03*
X146091611Y-51633493D03*
X147091612Y-51633493D03*
X148091613Y-51633493D03*
X149091613Y-51633493D03*
%TD*%
D58*
%TO.C,J3*%
X107901612Y-73613491D03*
D59*
X107901612Y-76153491D03*
X107901612Y-78693491D03*
%TD*%
D15*
%TO.C,D4*%
X121841612Y-49283491D03*
X121841612Y-45783491D03*
%TD*%
D32*
%TO.C,J2*%
X160091612Y-41033491D03*
D33*
X160091612Y-43533491D03*
X160091612Y-46033491D03*
X160091612Y-48533491D03*
X160091612Y-51033491D03*
%TD*%
D13*
%TO.C,R4*%
X134591612Y-46033491D03*
X134591612Y-48033491D03*
%TD*%
D10*
%TO.C,C3*%
X155091612Y-46283491D03*
X155091612Y-44208491D03*
%TD*%
D53*
%TO.C,MB2*%
X158351612Y-37843491D03*
X159151612Y-38093491D03*
X159851612Y-38093491D03*
X160651612Y-37843491D03*
%TD*%
D19*
%TO.C,JP2*%
X161091612Y-63733491D03*
D20*
X161091612Y-65033491D03*
%TD*%
D50*
%TO.C,D2*%
X115091612Y-59133491D03*
X115091612Y-62433491D03*
%TD*%
D10*
%TO.C,C8*%
X138591612Y-48108491D03*
X138591612Y-46033491D03*
%TD*%
%TO.C,C14*%
X153591612Y-50858491D03*
X153591612Y-48783491D03*
%TD*%
D12*
%TO.C,H1*%
X109401612Y-41262491D03*
%TD*%
D53*
%TO.C,MB3*%
X47041612Y-82033491D03*
X46241612Y-81783491D03*
X45541612Y-81783491D03*
X44741612Y-82033491D03*
%TD*%
D34*
%TO.C,L1*%
X116341612Y-56795991D03*
X116341612Y-53645991D03*
%TD*%
D58*
%TO.C,J3*%
X45901612Y-73613491D03*
D59*
X45901612Y-76153491D03*
X45901612Y-78693491D03*
%TD*%
D31*
%TO.C,C7*%
X107991612Y-60993491D03*
X111591612Y-60993491D03*
%TD*%
%TO.C,C9*%
X107991612Y-66283491D03*
X111591612Y-66283491D03*
%TD*%
D11*
%TO.C,R5*%
X137341612Y-67033491D03*
X139341612Y-67033491D03*
%TD*%
D10*
%TO.C,C5*%
X114091612Y-56108491D03*
X114091612Y-54033491D03*
%TD*%
D53*
%TO.C,MB1*%
X111951612Y-37843491D03*
X112751612Y-38093491D03*
X113451612Y-38093491D03*
X114251612Y-37843491D03*
%TD*%
%TO.C,MB4*%
X151141612Y-82033491D03*
X150341612Y-81783491D03*
X149641612Y-81783491D03*
X148841612Y-82033491D03*
%TD*%
D17*
%TO.C,Y1*%
X154841612Y-57583491D03*
X154841612Y-61283491D03*
X157141612Y-61283491D03*
X157141612Y-57583491D03*
%TD*%
D56*
%TO.C,JP1*%
X52601612Y-65543491D03*
D57*
X52601612Y-64243491D03*
%TD*%
D21*
%TO.C,C1*%
X132091612Y-64533491D03*
X134166612Y-64533491D03*
%TD*%
D23*
%TO.C,J7*%
X130591612Y-40627491D03*
D24*
X133091612Y-40627491D03*
%TD*%
D29*
%TO.C,FID2*%
X107341612Y-69283491D03*
%TD*%
D27*
%TO.C,U3*%
X152241612Y-65843491D03*
X152241612Y-64573491D03*
X152241612Y-63303491D03*
X152241612Y-62033491D03*
X152241612Y-60763491D03*
X152241612Y-59493491D03*
X152241612Y-58223491D03*
X152241612Y-56953491D03*
X152241612Y-55683491D03*
X142941612Y-55683491D03*
X142941612Y-56953491D03*
X142941612Y-58223491D03*
X142941612Y-59493491D03*
X142941612Y-60763491D03*
X142941612Y-62033491D03*
X142941612Y-63303491D03*
X142941612Y-64573491D03*
X142941612Y-65843491D03*
%TD*%
D53*
%TO.C,MB2*%
X96351612Y-37843491D03*
X97151612Y-38093491D03*
X97851612Y-38093491D03*
X98651612Y-37843491D03*
%TD*%
D28*
%TO.C,F1*%
X108866612Y-46393491D03*
X111841612Y-46393491D03*
%TD*%
D53*
%TO.C,MB3*%
X109041612Y-82033491D03*
X108241612Y-81783491D03*
X107541612Y-81783491D03*
X106741612Y-82033491D03*
%TD*%
D21*
%TO.C,C15*%
X153091612Y-70783491D03*
X155166612Y-70783491D03*
%TD*%
D22*
%TO.C,U4*%
X160963612Y-67583491D03*
X159693612Y-67583491D03*
X158423612Y-67583491D03*
X157153612Y-67583491D03*
X157153612Y-72533491D03*
X158423612Y-72533491D03*
X159693612Y-72533491D03*
X160963612Y-72533491D03*
%TD*%
D25*
%TO.C,U1*%
X121091612Y-59733491D03*
X121091612Y-60533491D03*
X121091612Y-61333491D03*
X121091612Y-62133491D03*
X121091612Y-62933491D03*
X121091612Y-63733491D03*
X121091612Y-64533491D03*
X121091612Y-65333491D03*
D26*
X122541612Y-66783491D03*
X123341612Y-66783491D03*
X124141612Y-66783491D03*
X124941612Y-66783491D03*
X125741612Y-66783491D03*
X126541612Y-66783491D03*
X127341612Y-66783491D03*
X128141612Y-66783491D03*
D25*
X129591612Y-65333491D03*
X129591612Y-64533491D03*
X129591612Y-63733491D03*
X129591612Y-62933491D03*
X129591612Y-62133491D03*
X129591612Y-61333491D03*
X129591612Y-60533491D03*
X129591612Y-59733491D03*
D26*
X128141612Y-58283491D03*
X127341612Y-58283491D03*
X126541612Y-58283491D03*
X125741612Y-58283491D03*
X124941612Y-58283491D03*
X124141612Y-58283491D03*
X123341612Y-58283491D03*
X122541612Y-58283491D03*
%TD*%
D14*
%TO.C,R1*%
X119341612Y-47783491D03*
X119341612Y-45783491D03*
%TD*%
D47*
%TO.C,X1*%
X138616612Y-41533491D03*
D48*
X137141612Y-40033491D03*
D47*
X138616612Y-38533491D03*
D48*
X140091612Y-40033491D03*
%TD*%
D21*
%TO.C,C6*%
X155016612Y-55033491D03*
X157091612Y-55033491D03*
%TD*%
D14*
%TO.C,R3*%
X126841612Y-47783491D03*
X126841612Y-45783491D03*
%TD*%
D53*
%TO.C,MB1*%
X49951612Y-37843491D03*
X50751612Y-38093491D03*
X51451612Y-38093491D03*
X52251612Y-37843491D03*
%TD*%
D10*
%TO.C,C2*%
X125841612Y-55783491D03*
X125841612Y-53708491D03*
%TD*%
D18*
%TO.C,C10*%
X157091612Y-63783491D03*
X155016612Y-63783491D03*
%TD*%
M02*
