M48
; DRILL file {KiCad 7.0.8} date 2023 December 11, Monday 19:12:47
; FORMAT={3:3/ absolute / metric / suppress leading zeros}
; #@! TF.CreationDate,2023-12-11T19:12:47+01:00
; #@! TF.GenerationSoftware,Kicad,Pcbnew,7.0.8
; #@! TF.FileFunction,MixedPlating,1,2
FMAT,2
METRIC,TZ
; #@! TA.AperFunction,Plated,PTH,ViaDrill
T1C0.400
; #@! TA.AperFunction,Plated,PTH,ComponentDrill
T2C0.500
; #@! TA.AperFunction,Plated,PTH,ComponentDrill
T3C0.950
; #@! TA.AperFunction,Plated,PTH,ComponentDrill
T4C1.000
; #@! TA.AperFunction,Plated,PTH,ComponentDrill
T5C1.020
; #@! TA.AperFunction,Plated,PTH,ComponentDrill
T6C3.200
; #@! TA.AperFunction,NonPlated,NPTH,ComponentDrill
T7C0.500
; #@! TA.AperFunction,NonPlated,NPTH,ComponentDrill
T8C1.000
; #@! TA.AperFunction,NonPlated,NPTH,ComponentDrill
T9C1.270
%
G90
G05
T1
X58210Y-83180
X58500Y-75320
X58750Y-69570
X58750Y-70820
X59510Y-61430
X60284Y-79293
X60460Y-82830
X61000Y-55320
X61410Y-81580
X61587Y-80056
X62256Y-64562
X62410Y-82130
X62686Y-80130
X63533Y-75603
X63737Y-73057
X64250Y-64820
X64250Y-71820
X64275Y-76345
X64500Y-62070
X64750Y-55320
X65000Y-74070
X65210Y-81130
X65250Y-72570
X65250Y-75070
X65655Y-77095
X66800Y-70420
X67750Y-65945
X68250Y-68570
X69000Y-75070
X69250Y-76070
X70000Y-74070
X70800Y-72420
X72000Y-73320
X72510Y-83130
X73000Y-73820
X73200Y-65945
X73710Y-83130
X73967Y-66670
X74500Y-61570
X75149Y-69421
X75750Y-70570
X76250Y-65320
X77000Y-69070
X77500Y-71570
X77500Y-79820
X77750Y-69820
X78250Y-73320
X78801Y-72359
X78932Y-82230
X80250Y-79820
X81000Y-61320
X84000Y-62820
X84750Y-61570
X86250Y-59070
X86250Y-63820
X86750Y-60820
X86750Y-70070
X86750Y-71320
X86750Y-73070
X87000Y-54320
X87000Y-55620
X87000Y-62320
X87000Y-74320
X87125Y-53020
X91000Y-67570
X91250Y-66295
X91750Y-75070
X95250Y-77570
X96250Y-77820
X97000Y-85820
X99000Y-50820
X99500Y-55320
X100000Y-75820
X101250Y-78045
X101250Y-84820
X102000Y-81320
X102500Y-62070
X120210Y-83180
X120500Y-75320
X120750Y-69570
X120750Y-70820
X121510Y-61430
X122284Y-79293
X122460Y-82830
X123000Y-55320
X123410Y-81580
X123587Y-80056
X124256Y-64562
X124410Y-82130
X124686Y-80130
X125533Y-75603
X125737Y-73057
X126250Y-64820
X126250Y-71820
X126275Y-76345
X126500Y-62070
X126750Y-55320
X127000Y-74070
X127210Y-81130
X127250Y-72570
X127250Y-75070
X127655Y-77095
X128800Y-70420
X129750Y-65945
X130250Y-68570
X131000Y-75070
X131250Y-76070
X132000Y-74070
X132800Y-72420
X134000Y-73320
X134510Y-83130
X135000Y-73820
X135200Y-65945
X135710Y-83130
X135967Y-66670
X136500Y-61570
X137149Y-69421
X137750Y-70570
X138250Y-65320
X139000Y-69070
X139500Y-71570
X139500Y-79820
X139750Y-69820
X140250Y-73320
X140801Y-72359
X140932Y-82230
X142250Y-79820
X143000Y-61320
X146000Y-62820
X146750Y-61570
X148250Y-59070
X148250Y-63820
X148750Y-60820
X148750Y-70070
X148750Y-71320
X148750Y-73070
X149000Y-54320
X149000Y-55620
X149000Y-62320
X149000Y-74320
X149125Y-53020
X153000Y-67570
X153250Y-66295
X153750Y-75070
X157250Y-77570
X158250Y-77820
X159000Y-85820
X161000Y-50820
X161500Y-55320
X162000Y-75820
X163250Y-78045
X163250Y-84820
X164000Y-81320
X164500Y-62070
T2
X52910Y-53299
X53613Y-51602
X53613Y-54996
X55310Y-50899
X55310Y-55699
X57007Y-51602
X57007Y-54996
X57710Y-53299
X103375Y-90556
X104078Y-88859
X104078Y-92253
X105775Y-88156
X105775Y-92956
X107472Y-88859
X107472Y-92253
X108175Y-90556
X114910Y-53299
X115613Y-51602
X115613Y-54996
X117310Y-50899
X117310Y-55699
X119007Y-51602
X119007Y-54996
X119710Y-53299
X165375Y-90556
X166078Y-88859
X166078Y-92253
X167775Y-88156
X167775Y-92956
X169472Y-88859
X169472Y-92253
X170175Y-90556
T3
X63000Y-52664
X65500Y-52664
X68000Y-52664
X70500Y-52664
X106000Y-53070
X106000Y-55570
X106000Y-58070
X106000Y-60570
X106000Y-63070
X125000Y-52664
X127500Y-52664
X130000Y-52664
X132500Y-52664
X168000Y-53070
X168000Y-55570
X168000Y-58070
X168000Y-60570
X168000Y-63070
T4
X53810Y-85650
X53810Y-88190
X53810Y-90730
X76500Y-52664
X79000Y-52664
X94500Y-88070
X94500Y-91070
X97500Y-88070
X97500Y-91070
X115810Y-85650
X115810Y-88190
X115810Y-90730
X138500Y-52664
X141000Y-52664
X156500Y-88070
X156500Y-91070
X159500Y-88070
X159500Y-91070
T5
X84750Y-84320
X84750Y-87320
X84750Y-90320
X146750Y-84320
X146750Y-87320
X146750Y-90320
T6
X55310Y-53299
X105775Y-90556
X117310Y-53299
X167775Y-90556
T7
X52650Y-94070
X53450Y-93820
X54150Y-93820
X54950Y-94070
X57850Y-49870
X58650Y-50120
X59350Y-50120
X60150Y-49870
X94750Y-94070
X95550Y-93820
X96250Y-93820
X97050Y-94070
X104250Y-49870
X105050Y-50120
X105750Y-50120
X106550Y-49870
X114650Y-94070
X115450Y-93820
X116150Y-93820
X116950Y-94070
X119850Y-49870
X120650Y-50120
X121350Y-50120
X122150Y-49870
X156750Y-94070
X157550Y-93820
X158250Y-93820
X159050Y-94070
X166250Y-49870
X167050Y-50120
X167750Y-50120
X168550Y-49870
T8
X91500Y-87130
X100500Y-87130
X153500Y-87130
X162500Y-87130
T9
X82790Y-81320
X82790Y-93320
X144790Y-81320
X144790Y-93320
T0
M30
