%TF.GenerationSoftware,KiCad,Pcbnew,7.0.8*%
%TF.CreationDate,2023-12-11T19:12:45+01:00*%
%TF.ProjectId,SmartDisplay,536d6172-7444-4697-9370-6c61792e6b69,rev?*%
%TF.SameCoordinates,Original*%
%TF.FileFunction,Legend,Top*%
%TF.FilePolarity,Positive*%
%FSLAX46Y46*%
G04 Gerber Fmt 4.6, Leading zero omitted, Abs format (unit mm)*
G04 Created by KiCad (PCBNEW 7.0.8) date 2023-12-11 19:12:45*
%MOMM*%
%LPD*%
G01*
G04 APERTURE LIST*
%ADD10C,0.150000*%
%ADD11C,0.100000*%
%ADD12C,0.120000*%
G04 APERTURE END LIST*
D10*
X127940476Y-48568819D02*
X127940476Y-49283104D01*
X127940476Y-49283104D02*
X127892857Y-49425961D01*
X127892857Y-49425961D02*
X127797619Y-49521200D01*
X127797619Y-49521200D02*
X127654762Y-49568819D01*
X127654762Y-49568819D02*
X127559524Y-49568819D01*
X128940476Y-49568819D02*
X128369048Y-49568819D01*
X128654762Y-49568819D02*
X128654762Y-48568819D01*
X128654762Y-48568819D02*
X128559524Y-48711676D01*
X128559524Y-48711676D02*
X128464286Y-48806914D01*
X128464286Y-48806914D02*
X128369048Y-48854533D01*
X129321429Y-48664057D02*
X129369048Y-48616438D01*
X129369048Y-48616438D02*
X129464286Y-48568819D01*
X129464286Y-48568819D02*
X129702381Y-48568819D01*
X129702381Y-48568819D02*
X129797619Y-48616438D01*
X129797619Y-48616438D02*
X129845238Y-48664057D01*
X129845238Y-48664057D02*
X129892857Y-48759295D01*
X129892857Y-48759295D02*
X129892857Y-48854533D01*
X129892857Y-48854533D02*
X129845238Y-48997390D01*
X129845238Y-48997390D02*
X129273810Y-49568819D01*
X129273810Y-49568819D02*
X129892857Y-49568819D01*
X166619642Y-67429580D02*
X166572023Y-67477200D01*
X166572023Y-67477200D02*
X166429166Y-67524819D01*
X166429166Y-67524819D02*
X166333928Y-67524819D01*
X166333928Y-67524819D02*
X166191071Y-67477200D01*
X166191071Y-67477200D02*
X166095833Y-67381961D01*
X166095833Y-67381961D02*
X166048214Y-67286723D01*
X166048214Y-67286723D02*
X166000595Y-67096247D01*
X166000595Y-67096247D02*
X166000595Y-66953390D01*
X166000595Y-66953390D02*
X166048214Y-66762914D01*
X166048214Y-66762914D02*
X166095833Y-66667676D01*
X166095833Y-66667676D02*
X166191071Y-66572438D01*
X166191071Y-66572438D02*
X166333928Y-66524819D01*
X166333928Y-66524819D02*
X166429166Y-66524819D01*
X166429166Y-66524819D02*
X166572023Y-66572438D01*
X166572023Y-66572438D02*
X166619642Y-66620057D01*
X167000595Y-66620057D02*
X167048214Y-66572438D01*
X167048214Y-66572438D02*
X167143452Y-66524819D01*
X167143452Y-66524819D02*
X167381547Y-66524819D01*
X167381547Y-66524819D02*
X167476785Y-66572438D01*
X167476785Y-66572438D02*
X167524404Y-66620057D01*
X167524404Y-66620057D02*
X167572023Y-66715295D01*
X167572023Y-66715295D02*
X167572023Y-66810533D01*
X167572023Y-66810533D02*
X167524404Y-66953390D01*
X167524404Y-66953390D02*
X166952976Y-67524819D01*
X166952976Y-67524819D02*
X167572023Y-67524819D01*
X167952976Y-66620057D02*
X168000595Y-66572438D01*
X168000595Y-66572438D02*
X168095833Y-66524819D01*
X168095833Y-66524819D02*
X168333928Y-66524819D01*
X168333928Y-66524819D02*
X168429166Y-66572438D01*
X168429166Y-66572438D02*
X168476785Y-66620057D01*
X168476785Y-66620057D02*
X168524404Y-66715295D01*
X168524404Y-66715295D02*
X168524404Y-66810533D01*
X168524404Y-66810533D02*
X168476785Y-66953390D01*
X168476785Y-66953390D02*
X167905357Y-67524819D01*
X167905357Y-67524819D02*
X168524404Y-67524819D01*
X142534819Y-88129523D02*
X143249104Y-88129523D01*
X143249104Y-88129523D02*
X143391961Y-88177142D01*
X143391961Y-88177142D02*
X143487200Y-88272380D01*
X143487200Y-88272380D02*
X143534819Y-88415237D01*
X143534819Y-88415237D02*
X143534819Y-88510475D01*
X143534819Y-87129523D02*
X143534819Y-87700951D01*
X143534819Y-87415237D02*
X142534819Y-87415237D01*
X142534819Y-87415237D02*
X142677676Y-87510475D01*
X142677676Y-87510475D02*
X142772914Y-87605713D01*
X142772914Y-87605713D02*
X142820533Y-87700951D01*
X142534819Y-86224761D02*
X142534819Y-86700951D01*
X142534819Y-86700951D02*
X143011009Y-86748570D01*
X143011009Y-86748570D02*
X142963390Y-86700951D01*
X142963390Y-86700951D02*
X142915771Y-86605713D01*
X142915771Y-86605713D02*
X142915771Y-86367618D01*
X142915771Y-86367618D02*
X142963390Y-86272380D01*
X142963390Y-86272380D02*
X143011009Y-86224761D01*
X143011009Y-86224761D02*
X143106247Y-86177142D01*
X143106247Y-86177142D02*
X143344342Y-86177142D01*
X143344342Y-86177142D02*
X143439580Y-86224761D01*
X143439580Y-86224761D02*
X143487200Y-86272380D01*
X143487200Y-86272380D02*
X143534819Y-86367618D01*
X143534819Y-86367618D02*
X143534819Y-86605713D01*
X143534819Y-86605713D02*
X143487200Y-86700951D01*
X143487200Y-86700951D02*
X143439580Y-86748570D01*
X122804819Y-67424166D02*
X122804819Y-67900356D01*
X122804819Y-67900356D02*
X121804819Y-67900356D01*
X121900057Y-67138451D02*
X121852438Y-67090832D01*
X121852438Y-67090832D02*
X121804819Y-66995594D01*
X121804819Y-66995594D02*
X121804819Y-66757499D01*
X121804819Y-66757499D02*
X121852438Y-66662261D01*
X121852438Y-66662261D02*
X121900057Y-66614642D01*
X121900057Y-66614642D02*
X121995295Y-66567023D01*
X121995295Y-66567023D02*
X122090533Y-66567023D01*
X122090533Y-66567023D02*
X122233390Y-66614642D01*
X122233390Y-66614642D02*
X122804819Y-67186070D01*
X122804819Y-67186070D02*
X122804819Y-66567023D01*
X171004819Y-58879523D02*
X171719104Y-58879523D01*
X171719104Y-58879523D02*
X171861961Y-58927142D01*
X171861961Y-58927142D02*
X171957200Y-59022380D01*
X171957200Y-59022380D02*
X172004819Y-59165237D01*
X172004819Y-59165237D02*
X172004819Y-59260475D01*
X172004819Y-57879523D02*
X172004819Y-58450951D01*
X172004819Y-58165237D02*
X171004819Y-58165237D01*
X171004819Y-58165237D02*
X171147676Y-58260475D01*
X171147676Y-58260475D02*
X171242914Y-58355713D01*
X171242914Y-58355713D02*
X171290533Y-58450951D01*
X171338152Y-57022380D02*
X172004819Y-57022380D01*
X170957200Y-57260475D02*
X171671485Y-57498570D01*
X171671485Y-57498570D02*
X171671485Y-56879523D01*
X117057142Y-75479580D02*
X117009523Y-75527200D01*
X117009523Y-75527200D02*
X116866666Y-75574819D01*
X116866666Y-75574819D02*
X116771428Y-75574819D01*
X116771428Y-75574819D02*
X116628571Y-75527200D01*
X116628571Y-75527200D02*
X116533333Y-75431961D01*
X116533333Y-75431961D02*
X116485714Y-75336723D01*
X116485714Y-75336723D02*
X116438095Y-75146247D01*
X116438095Y-75146247D02*
X116438095Y-75003390D01*
X116438095Y-75003390D02*
X116485714Y-74812914D01*
X116485714Y-74812914D02*
X116533333Y-74717676D01*
X116533333Y-74717676D02*
X116628571Y-74622438D01*
X116628571Y-74622438D02*
X116771428Y-74574819D01*
X116771428Y-74574819D02*
X116866666Y-74574819D01*
X116866666Y-74574819D02*
X117009523Y-74622438D01*
X117009523Y-74622438D02*
X117057142Y-74670057D01*
X117438095Y-74670057D02*
X117485714Y-74622438D01*
X117485714Y-74622438D02*
X117580952Y-74574819D01*
X117580952Y-74574819D02*
X117819047Y-74574819D01*
X117819047Y-74574819D02*
X117914285Y-74622438D01*
X117914285Y-74622438D02*
X117961904Y-74670057D01*
X117961904Y-74670057D02*
X118009523Y-74765295D01*
X118009523Y-74765295D02*
X118009523Y-74860533D01*
X118009523Y-74860533D02*
X117961904Y-75003390D01*
X117961904Y-75003390D02*
X117390476Y-75574819D01*
X117390476Y-75574819D02*
X118009523Y-75574819D01*
X118485714Y-75574819D02*
X118676190Y-75574819D01*
X118676190Y-75574819D02*
X118771428Y-75527200D01*
X118771428Y-75527200D02*
X118819047Y-75479580D01*
X118819047Y-75479580D02*
X118914285Y-75336723D01*
X118914285Y-75336723D02*
X118961904Y-75146247D01*
X118961904Y-75146247D02*
X118961904Y-74765295D01*
X118961904Y-74765295D02*
X118914285Y-74670057D01*
X118914285Y-74670057D02*
X118866666Y-74622438D01*
X118866666Y-74622438D02*
X118771428Y-74574819D01*
X118771428Y-74574819D02*
X118580952Y-74574819D01*
X118580952Y-74574819D02*
X118485714Y-74622438D01*
X118485714Y-74622438D02*
X118438095Y-74670057D01*
X118438095Y-74670057D02*
X118390476Y-74765295D01*
X118390476Y-74765295D02*
X118390476Y-75003390D01*
X118390476Y-75003390D02*
X118438095Y-75098628D01*
X118438095Y-75098628D02*
X118485714Y-75146247D01*
X118485714Y-75146247D02*
X118580952Y-75193866D01*
X118580952Y-75193866D02*
X118771428Y-75193866D01*
X118771428Y-75193866D02*
X118866666Y-75146247D01*
X118866666Y-75146247D02*
X118914285Y-75098628D01*
X118914285Y-75098628D02*
X118961904Y-75003390D01*
X117057142Y-70189580D02*
X117009523Y-70237200D01*
X117009523Y-70237200D02*
X116866666Y-70284819D01*
X116866666Y-70284819D02*
X116771428Y-70284819D01*
X116771428Y-70284819D02*
X116628571Y-70237200D01*
X116628571Y-70237200D02*
X116533333Y-70141961D01*
X116533333Y-70141961D02*
X116485714Y-70046723D01*
X116485714Y-70046723D02*
X116438095Y-69856247D01*
X116438095Y-69856247D02*
X116438095Y-69713390D01*
X116438095Y-69713390D02*
X116485714Y-69522914D01*
X116485714Y-69522914D02*
X116533333Y-69427676D01*
X116533333Y-69427676D02*
X116628571Y-69332438D01*
X116628571Y-69332438D02*
X116771428Y-69284819D01*
X116771428Y-69284819D02*
X116866666Y-69284819D01*
X116866666Y-69284819D02*
X117009523Y-69332438D01*
X117009523Y-69332438D02*
X117057142Y-69380057D01*
X117438095Y-69380057D02*
X117485714Y-69332438D01*
X117485714Y-69332438D02*
X117580952Y-69284819D01*
X117580952Y-69284819D02*
X117819047Y-69284819D01*
X117819047Y-69284819D02*
X117914285Y-69332438D01*
X117914285Y-69332438D02*
X117961904Y-69380057D01*
X117961904Y-69380057D02*
X118009523Y-69475295D01*
X118009523Y-69475295D02*
X118009523Y-69570533D01*
X118009523Y-69570533D02*
X117961904Y-69713390D01*
X117961904Y-69713390D02*
X117390476Y-70284819D01*
X117390476Y-70284819D02*
X118009523Y-70284819D01*
X118580952Y-69713390D02*
X118485714Y-69665771D01*
X118485714Y-69665771D02*
X118438095Y-69618152D01*
X118438095Y-69618152D02*
X118390476Y-69522914D01*
X118390476Y-69522914D02*
X118390476Y-69475295D01*
X118390476Y-69475295D02*
X118438095Y-69380057D01*
X118438095Y-69380057D02*
X118485714Y-69332438D01*
X118485714Y-69332438D02*
X118580952Y-69284819D01*
X118580952Y-69284819D02*
X118771428Y-69284819D01*
X118771428Y-69284819D02*
X118866666Y-69332438D01*
X118866666Y-69332438D02*
X118914285Y-69380057D01*
X118914285Y-69380057D02*
X118961904Y-69475295D01*
X118961904Y-69475295D02*
X118961904Y-69522914D01*
X118961904Y-69522914D02*
X118914285Y-69618152D01*
X118914285Y-69618152D02*
X118866666Y-69665771D01*
X118866666Y-69665771D02*
X118771428Y-69713390D01*
X118771428Y-69713390D02*
X118580952Y-69713390D01*
X118580952Y-69713390D02*
X118485714Y-69761009D01*
X118485714Y-69761009D02*
X118438095Y-69808628D01*
X118438095Y-69808628D02*
X118390476Y-69903866D01*
X118390476Y-69903866D02*
X118390476Y-70094342D01*
X118390476Y-70094342D02*
X118438095Y-70189580D01*
X118438095Y-70189580D02*
X118485714Y-70237200D01*
X118485714Y-70237200D02*
X118580952Y-70284819D01*
X118580952Y-70284819D02*
X118771428Y-70284819D01*
X118771428Y-70284819D02*
X118866666Y-70237200D01*
X118866666Y-70237200D02*
X118914285Y-70189580D01*
X118914285Y-70189580D02*
X118961904Y-70094342D01*
X118961904Y-70094342D02*
X118961904Y-69903866D01*
X118961904Y-69903866D02*
X118914285Y-69808628D01*
X118914285Y-69808628D02*
X118866666Y-69761009D01*
X118866666Y-69761009D02*
X118771428Y-69713390D01*
X158071666Y-93445819D02*
X158071666Y-94160104D01*
X158071666Y-94160104D02*
X158024047Y-94302961D01*
X158024047Y-94302961D02*
X157928809Y-94398200D01*
X157928809Y-94398200D02*
X157785952Y-94445819D01*
X157785952Y-94445819D02*
X157690714Y-94445819D01*
X158452619Y-93445819D02*
X159119285Y-93445819D01*
X159119285Y-93445819D02*
X158690714Y-94445819D01*
X120679580Y-67750357D02*
X120727200Y-67797976D01*
X120727200Y-67797976D02*
X120774819Y-67940833D01*
X120774819Y-67940833D02*
X120774819Y-68036071D01*
X120774819Y-68036071D02*
X120727200Y-68178928D01*
X120727200Y-68178928D02*
X120631961Y-68274166D01*
X120631961Y-68274166D02*
X120536723Y-68321785D01*
X120536723Y-68321785D02*
X120346247Y-68369404D01*
X120346247Y-68369404D02*
X120203390Y-68369404D01*
X120203390Y-68369404D02*
X120012914Y-68321785D01*
X120012914Y-68321785D02*
X119917676Y-68274166D01*
X119917676Y-68274166D02*
X119822438Y-68178928D01*
X119822438Y-68178928D02*
X119774819Y-68036071D01*
X119774819Y-68036071D02*
X119774819Y-67940833D01*
X119774819Y-67940833D02*
X119822438Y-67797976D01*
X119822438Y-67797976D02*
X119870057Y-67750357D01*
X120774819Y-66797976D02*
X120774819Y-67369404D01*
X120774819Y-67083690D02*
X119774819Y-67083690D01*
X119774819Y-67083690D02*
X119917676Y-67178928D01*
X119917676Y-67178928D02*
X120012914Y-67274166D01*
X120012914Y-67274166D02*
X120060533Y-67369404D01*
X120774819Y-66321785D02*
X120774819Y-66131309D01*
X120774819Y-66131309D02*
X120727200Y-66036071D01*
X120727200Y-66036071D02*
X120679580Y-65988452D01*
X120679580Y-65988452D02*
X120536723Y-65893214D01*
X120536723Y-65893214D02*
X120346247Y-65845595D01*
X120346247Y-65845595D02*
X119965295Y-65845595D01*
X119965295Y-65845595D02*
X119870057Y-65893214D01*
X119870057Y-65893214D02*
X119822438Y-65940833D01*
X119822438Y-65940833D02*
X119774819Y-66036071D01*
X119774819Y-66036071D02*
X119774819Y-66226547D01*
X119774819Y-66226547D02*
X119822438Y-66321785D01*
X119822438Y-66321785D02*
X119870057Y-66369404D01*
X119870057Y-66369404D02*
X119965295Y-66417023D01*
X119965295Y-66417023D02*
X120203390Y-66417023D01*
X120203390Y-66417023D02*
X120298628Y-66369404D01*
X120298628Y-66369404D02*
X120346247Y-66321785D01*
X120346247Y-66321785D02*
X120393866Y-66226547D01*
X120393866Y-66226547D02*
X120393866Y-66036071D01*
X120393866Y-66036071D02*
X120346247Y-65940833D01*
X120346247Y-65940833D02*
X120298628Y-65893214D01*
X120298628Y-65893214D02*
X120203390Y-65845595D01*
X117407142Y-59689580D02*
X117359523Y-59737200D01*
X117359523Y-59737200D02*
X117216666Y-59784819D01*
X117216666Y-59784819D02*
X117121428Y-59784819D01*
X117121428Y-59784819D02*
X116978571Y-59737200D01*
X116978571Y-59737200D02*
X116883333Y-59641961D01*
X116883333Y-59641961D02*
X116835714Y-59546723D01*
X116835714Y-59546723D02*
X116788095Y-59356247D01*
X116788095Y-59356247D02*
X116788095Y-59213390D01*
X116788095Y-59213390D02*
X116835714Y-59022914D01*
X116835714Y-59022914D02*
X116883333Y-58927676D01*
X116883333Y-58927676D02*
X116978571Y-58832438D01*
X116978571Y-58832438D02*
X117121428Y-58784819D01*
X117121428Y-58784819D02*
X117216666Y-58784819D01*
X117216666Y-58784819D02*
X117359523Y-58832438D01*
X117359523Y-58832438D02*
X117407142Y-58880057D01*
X118359523Y-59784819D02*
X117788095Y-59784819D01*
X118073809Y-59784819D02*
X118073809Y-58784819D01*
X118073809Y-58784819D02*
X117978571Y-58927676D01*
X117978571Y-58927676D02*
X117883333Y-59022914D01*
X117883333Y-59022914D02*
X117788095Y-59070533D01*
X118930952Y-59213390D02*
X118835714Y-59165771D01*
X118835714Y-59165771D02*
X118788095Y-59118152D01*
X118788095Y-59118152D02*
X118740476Y-59022914D01*
X118740476Y-59022914D02*
X118740476Y-58975295D01*
X118740476Y-58975295D02*
X118788095Y-58880057D01*
X118788095Y-58880057D02*
X118835714Y-58832438D01*
X118835714Y-58832438D02*
X118930952Y-58784819D01*
X118930952Y-58784819D02*
X119121428Y-58784819D01*
X119121428Y-58784819D02*
X119216666Y-58832438D01*
X119216666Y-58832438D02*
X119264285Y-58880057D01*
X119264285Y-58880057D02*
X119311904Y-58975295D01*
X119311904Y-58975295D02*
X119311904Y-59022914D01*
X119311904Y-59022914D02*
X119264285Y-59118152D01*
X119264285Y-59118152D02*
X119216666Y-59165771D01*
X119216666Y-59165771D02*
X119121428Y-59213390D01*
X119121428Y-59213390D02*
X118930952Y-59213390D01*
X118930952Y-59213390D02*
X118835714Y-59261009D01*
X118835714Y-59261009D02*
X118788095Y-59308628D01*
X118788095Y-59308628D02*
X118740476Y-59403866D01*
X118740476Y-59403866D02*
X118740476Y-59594342D01*
X118740476Y-59594342D02*
X118788095Y-59689580D01*
X118788095Y-59689580D02*
X118835714Y-59737200D01*
X118835714Y-59737200D02*
X118930952Y-59784819D01*
X118930952Y-59784819D02*
X119121428Y-59784819D01*
X119121428Y-59784819D02*
X119216666Y-59737200D01*
X119216666Y-59737200D02*
X119264285Y-59689580D01*
X119264285Y-59689580D02*
X119311904Y-59594342D01*
X119311904Y-59594342D02*
X119311904Y-59403866D01*
X119311904Y-59403866D02*
X119264285Y-59308628D01*
X119264285Y-59308628D02*
X119216666Y-59261009D01*
X119216666Y-59261009D02*
X119121428Y-59213390D01*
X167428571Y-66751009D02*
X167095238Y-66751009D01*
X167095238Y-67274819D02*
X167095238Y-66274819D01*
X167095238Y-66274819D02*
X167571428Y-66274819D01*
X167952381Y-67274819D02*
X167952381Y-66274819D01*
X168428571Y-67274819D02*
X168428571Y-66274819D01*
X168428571Y-66274819D02*
X168666666Y-66274819D01*
X168666666Y-66274819D02*
X168809523Y-66322438D01*
X168809523Y-66322438D02*
X168904761Y-66417676D01*
X168904761Y-66417676D02*
X168952380Y-66512914D01*
X168952380Y-66512914D02*
X168999999Y-66703390D01*
X168999999Y-66703390D02*
X168999999Y-66846247D01*
X168999999Y-66846247D02*
X168952380Y-67036723D01*
X168952380Y-67036723D02*
X168904761Y-67131961D01*
X168904761Y-67131961D02*
X168809523Y-67227200D01*
X168809523Y-67227200D02*
X168666666Y-67274819D01*
X168666666Y-67274819D02*
X168428571Y-67274819D01*
X169857142Y-66274819D02*
X169666666Y-66274819D01*
X169666666Y-66274819D02*
X169571428Y-66322438D01*
X169571428Y-66322438D02*
X169523809Y-66370057D01*
X169523809Y-66370057D02*
X169428571Y-66512914D01*
X169428571Y-66512914D02*
X169380952Y-66703390D01*
X169380952Y-66703390D02*
X169380952Y-67084342D01*
X169380952Y-67084342D02*
X169428571Y-67179580D01*
X169428571Y-67179580D02*
X169476190Y-67227200D01*
X169476190Y-67227200D02*
X169571428Y-67274819D01*
X169571428Y-67274819D02*
X169761904Y-67274819D01*
X169761904Y-67274819D02*
X169857142Y-67227200D01*
X169857142Y-67227200D02*
X169904761Y-67179580D01*
X169904761Y-67179580D02*
X169952380Y-67084342D01*
X169952380Y-67084342D02*
X169952380Y-66846247D01*
X169952380Y-66846247D02*
X169904761Y-66751009D01*
X169904761Y-66751009D02*
X169857142Y-66703390D01*
X169857142Y-66703390D02*
X169761904Y-66655771D01*
X169761904Y-66655771D02*
X169571428Y-66655771D01*
X169571428Y-66655771D02*
X169476190Y-66703390D01*
X169476190Y-66703390D02*
X169428571Y-66751009D01*
X169428571Y-66751009D02*
X169380952Y-66846247D01*
X114178571Y-79751009D02*
X113845238Y-79751009D01*
X113845238Y-80274819D02*
X113845238Y-79274819D01*
X113845238Y-79274819D02*
X114321428Y-79274819D01*
X114702381Y-80274819D02*
X114702381Y-79274819D01*
X115178571Y-80274819D02*
X115178571Y-79274819D01*
X115178571Y-79274819D02*
X115416666Y-79274819D01*
X115416666Y-79274819D02*
X115559523Y-79322438D01*
X115559523Y-79322438D02*
X115654761Y-79417676D01*
X115654761Y-79417676D02*
X115702380Y-79512914D01*
X115702380Y-79512914D02*
X115749999Y-79703390D01*
X115749999Y-79703390D02*
X115749999Y-79846247D01*
X115749999Y-79846247D02*
X115702380Y-80036723D01*
X115702380Y-80036723D02*
X115654761Y-80131961D01*
X115654761Y-80131961D02*
X115559523Y-80227200D01*
X115559523Y-80227200D02*
X115416666Y-80274819D01*
X115416666Y-80274819D02*
X115178571Y-80274819D01*
X116654761Y-79274819D02*
X116178571Y-79274819D01*
X116178571Y-79274819D02*
X116130952Y-79751009D01*
X116130952Y-79751009D02*
X116178571Y-79703390D01*
X116178571Y-79703390D02*
X116273809Y-79655771D01*
X116273809Y-79655771D02*
X116511904Y-79655771D01*
X116511904Y-79655771D02*
X116607142Y-79703390D01*
X116607142Y-79703390D02*
X116654761Y-79751009D01*
X116654761Y-79751009D02*
X116702380Y-79846247D01*
X116702380Y-79846247D02*
X116702380Y-80084342D01*
X116702380Y-80084342D02*
X116654761Y-80179580D01*
X116654761Y-80179580D02*
X116607142Y-80227200D01*
X116607142Y-80227200D02*
X116511904Y-80274819D01*
X116511904Y-80274819D02*
X116273809Y-80274819D01*
X116273809Y-80274819D02*
X116178571Y-80227200D01*
X116178571Y-80227200D02*
X116130952Y-80179580D01*
X117929166Y-56081009D02*
X117595833Y-56081009D01*
X117595833Y-56604819D02*
X117595833Y-55604819D01*
X117595833Y-55604819D02*
X118072023Y-55604819D01*
X118405357Y-55700057D02*
X118452976Y-55652438D01*
X118452976Y-55652438D02*
X118548214Y-55604819D01*
X118548214Y-55604819D02*
X118786309Y-55604819D01*
X118786309Y-55604819D02*
X118881547Y-55652438D01*
X118881547Y-55652438D02*
X118929166Y-55700057D01*
X118929166Y-55700057D02*
X118976785Y-55795295D01*
X118976785Y-55795295D02*
X118976785Y-55890533D01*
X118976785Y-55890533D02*
X118929166Y-56033390D01*
X118929166Y-56033390D02*
X118357738Y-56604819D01*
X118357738Y-56604819D02*
X118976785Y-56604819D01*
X133304819Y-60462857D02*
X132828628Y-60796190D01*
X133304819Y-61034285D02*
X132304819Y-61034285D01*
X132304819Y-61034285D02*
X132304819Y-60653333D01*
X132304819Y-60653333D02*
X132352438Y-60558095D01*
X132352438Y-60558095D02*
X132400057Y-60510476D01*
X132400057Y-60510476D02*
X132495295Y-60462857D01*
X132495295Y-60462857D02*
X132638152Y-60462857D01*
X132638152Y-60462857D02*
X132733390Y-60510476D01*
X132733390Y-60510476D02*
X132781009Y-60558095D01*
X132781009Y-60558095D02*
X132828628Y-60653333D01*
X132828628Y-60653333D02*
X132828628Y-61034285D01*
X133304819Y-59510476D02*
X133304819Y-60081904D01*
X133304819Y-59796190D02*
X132304819Y-59796190D01*
X132304819Y-59796190D02*
X132447676Y-59891428D01*
X132447676Y-59891428D02*
X132542914Y-59986666D01*
X132542914Y-59986666D02*
X132590533Y-60081904D01*
X132638152Y-58653333D02*
X133304819Y-58653333D01*
X132257200Y-58891428D02*
X132971485Y-59129523D01*
X132971485Y-59129523D02*
X132971485Y-58510476D01*
X126054819Y-59462857D02*
X125578628Y-59796190D01*
X126054819Y-60034285D02*
X125054819Y-60034285D01*
X125054819Y-60034285D02*
X125054819Y-59653333D01*
X125054819Y-59653333D02*
X125102438Y-59558095D01*
X125102438Y-59558095D02*
X125150057Y-59510476D01*
X125150057Y-59510476D02*
X125245295Y-59462857D01*
X125245295Y-59462857D02*
X125388152Y-59462857D01*
X125388152Y-59462857D02*
X125483390Y-59510476D01*
X125483390Y-59510476D02*
X125531009Y-59558095D01*
X125531009Y-59558095D02*
X125578628Y-59653333D01*
X125578628Y-59653333D02*
X125578628Y-60034285D01*
X126054819Y-58510476D02*
X126054819Y-59081904D01*
X126054819Y-58796190D02*
X125054819Y-58796190D01*
X125054819Y-58796190D02*
X125197676Y-58891428D01*
X125197676Y-58891428D02*
X125292914Y-58986666D01*
X125292914Y-58986666D02*
X125340533Y-59081904D01*
X125054819Y-58177142D02*
X125054819Y-57558095D01*
X125054819Y-57558095D02*
X125435771Y-57891428D01*
X125435771Y-57891428D02*
X125435771Y-57748571D01*
X125435771Y-57748571D02*
X125483390Y-57653333D01*
X125483390Y-57653333D02*
X125531009Y-57605714D01*
X125531009Y-57605714D02*
X125626247Y-57558095D01*
X125626247Y-57558095D02*
X125864342Y-57558095D01*
X125864342Y-57558095D02*
X125959580Y-57605714D01*
X125959580Y-57605714D02*
X126007200Y-57653333D01*
X126007200Y-57653333D02*
X126054819Y-57748571D01*
X126054819Y-57748571D02*
X126054819Y-58034285D01*
X126054819Y-58034285D02*
X126007200Y-58129523D01*
X126007200Y-58129523D02*
X125959580Y-58177142D01*
X142209819Y-56807857D02*
X141733628Y-57141190D01*
X142209819Y-57379285D02*
X141209819Y-57379285D01*
X141209819Y-57379285D02*
X141209819Y-56998333D01*
X141209819Y-56998333D02*
X141257438Y-56903095D01*
X141257438Y-56903095D02*
X141305057Y-56855476D01*
X141305057Y-56855476D02*
X141400295Y-56807857D01*
X141400295Y-56807857D02*
X141543152Y-56807857D01*
X141543152Y-56807857D02*
X141638390Y-56855476D01*
X141638390Y-56855476D02*
X141686009Y-56903095D01*
X141686009Y-56903095D02*
X141733628Y-56998333D01*
X141733628Y-56998333D02*
X141733628Y-57379285D01*
X142209819Y-55855476D02*
X142209819Y-56426904D01*
X142209819Y-56141190D02*
X141209819Y-56141190D01*
X141209819Y-56141190D02*
X141352676Y-56236428D01*
X141352676Y-56236428D02*
X141447914Y-56331666D01*
X141447914Y-56331666D02*
X141495533Y-56426904D01*
X141305057Y-55474523D02*
X141257438Y-55426904D01*
X141257438Y-55426904D02*
X141209819Y-55331666D01*
X141209819Y-55331666D02*
X141209819Y-55093571D01*
X141209819Y-55093571D02*
X141257438Y-54998333D01*
X141257438Y-54998333D02*
X141305057Y-54950714D01*
X141305057Y-54950714D02*
X141400295Y-54903095D01*
X141400295Y-54903095D02*
X141495533Y-54903095D01*
X141495533Y-54903095D02*
X141638390Y-54950714D01*
X141638390Y-54950714D02*
X142209819Y-55522142D01*
X142209819Y-55522142D02*
X142209819Y-54903095D01*
X132429580Y-67425357D02*
X132477200Y-67472976D01*
X132477200Y-67472976D02*
X132524819Y-67615833D01*
X132524819Y-67615833D02*
X132524819Y-67711071D01*
X132524819Y-67711071D02*
X132477200Y-67853928D01*
X132477200Y-67853928D02*
X132381961Y-67949166D01*
X132381961Y-67949166D02*
X132286723Y-67996785D01*
X132286723Y-67996785D02*
X132096247Y-68044404D01*
X132096247Y-68044404D02*
X131953390Y-68044404D01*
X131953390Y-68044404D02*
X131762914Y-67996785D01*
X131762914Y-67996785D02*
X131667676Y-67949166D01*
X131667676Y-67949166D02*
X131572438Y-67853928D01*
X131572438Y-67853928D02*
X131524819Y-67711071D01*
X131524819Y-67711071D02*
X131524819Y-67615833D01*
X131524819Y-67615833D02*
X131572438Y-67472976D01*
X131572438Y-67472976D02*
X131620057Y-67425357D01*
X131620057Y-67044404D02*
X131572438Y-66996785D01*
X131572438Y-66996785D02*
X131524819Y-66901547D01*
X131524819Y-66901547D02*
X131524819Y-66663452D01*
X131524819Y-66663452D02*
X131572438Y-66568214D01*
X131572438Y-66568214D02*
X131620057Y-66520595D01*
X131620057Y-66520595D02*
X131715295Y-66472976D01*
X131715295Y-66472976D02*
X131810533Y-66472976D01*
X131810533Y-66472976D02*
X131953390Y-66520595D01*
X131953390Y-66520595D02*
X132524819Y-67092023D01*
X132524819Y-67092023D02*
X132524819Y-66472976D01*
X132524819Y-65520595D02*
X132524819Y-66092023D01*
X132524819Y-65806309D02*
X131524819Y-65806309D01*
X131524819Y-65806309D02*
X131667676Y-65901547D01*
X131667676Y-65901547D02*
X131762914Y-65996785D01*
X131762914Y-65996785D02*
X131810533Y-66092023D01*
X130929580Y-59487857D02*
X130977200Y-59535476D01*
X130977200Y-59535476D02*
X131024819Y-59678333D01*
X131024819Y-59678333D02*
X131024819Y-59773571D01*
X131024819Y-59773571D02*
X130977200Y-59916428D01*
X130977200Y-59916428D02*
X130881961Y-60011666D01*
X130881961Y-60011666D02*
X130786723Y-60059285D01*
X130786723Y-60059285D02*
X130596247Y-60106904D01*
X130596247Y-60106904D02*
X130453390Y-60106904D01*
X130453390Y-60106904D02*
X130262914Y-60059285D01*
X130262914Y-60059285D02*
X130167676Y-60011666D01*
X130167676Y-60011666D02*
X130072438Y-59916428D01*
X130072438Y-59916428D02*
X130024819Y-59773571D01*
X130024819Y-59773571D02*
X130024819Y-59678333D01*
X130024819Y-59678333D02*
X130072438Y-59535476D01*
X130072438Y-59535476D02*
X130120057Y-59487857D01*
X130120057Y-59106904D02*
X130072438Y-59059285D01*
X130072438Y-59059285D02*
X130024819Y-58964047D01*
X130024819Y-58964047D02*
X130024819Y-58725952D01*
X130024819Y-58725952D02*
X130072438Y-58630714D01*
X130072438Y-58630714D02*
X130120057Y-58583095D01*
X130120057Y-58583095D02*
X130215295Y-58535476D01*
X130215295Y-58535476D02*
X130310533Y-58535476D01*
X130310533Y-58535476D02*
X130453390Y-58583095D01*
X130453390Y-58583095D02*
X131024819Y-59154523D01*
X131024819Y-59154523D02*
X131024819Y-58535476D01*
X130024819Y-57630714D02*
X130024819Y-58106904D01*
X130024819Y-58106904D02*
X130501009Y-58154523D01*
X130501009Y-58154523D02*
X130453390Y-58106904D01*
X130453390Y-58106904D02*
X130405771Y-58011666D01*
X130405771Y-58011666D02*
X130405771Y-57773571D01*
X130405771Y-57773571D02*
X130453390Y-57678333D01*
X130453390Y-57678333D02*
X130501009Y-57630714D01*
X130501009Y-57630714D02*
X130596247Y-57583095D01*
X130596247Y-57583095D02*
X130834342Y-57583095D01*
X130834342Y-57583095D02*
X130929580Y-57630714D01*
X130929580Y-57630714D02*
X130977200Y-57678333D01*
X130977200Y-57678333D02*
X131024819Y-57773571D01*
X131024819Y-57773571D02*
X131024819Y-58011666D01*
X131024819Y-58011666D02*
X130977200Y-58106904D01*
X130977200Y-58106904D02*
X130929580Y-58154523D01*
X130262819Y-64408285D02*
X129262819Y-64408285D01*
X129262819Y-64408285D02*
X129262819Y-64170190D01*
X129262819Y-64170190D02*
X129310438Y-64027333D01*
X129310438Y-64027333D02*
X129405676Y-63932095D01*
X129405676Y-63932095D02*
X129500914Y-63884476D01*
X129500914Y-63884476D02*
X129691390Y-63836857D01*
X129691390Y-63836857D02*
X129834247Y-63836857D01*
X129834247Y-63836857D02*
X130024723Y-63884476D01*
X130024723Y-63884476D02*
X130119961Y-63932095D01*
X130119961Y-63932095D02*
X130215200Y-64027333D01*
X130215200Y-64027333D02*
X130262819Y-64170190D01*
X130262819Y-64170190D02*
X130262819Y-64408285D01*
X130262819Y-62884476D02*
X130262819Y-63455904D01*
X130262819Y-63170190D02*
X129262819Y-63170190D01*
X129262819Y-63170190D02*
X129405676Y-63265428D01*
X129405676Y-63265428D02*
X129500914Y-63360666D01*
X129500914Y-63360666D02*
X129548533Y-63455904D01*
X129262819Y-62265428D02*
X129262819Y-62170190D01*
X129262819Y-62170190D02*
X129310438Y-62074952D01*
X129310438Y-62074952D02*
X129358057Y-62027333D01*
X129358057Y-62027333D02*
X129453295Y-61979714D01*
X129453295Y-61979714D02*
X129643771Y-61932095D01*
X129643771Y-61932095D02*
X129881866Y-61932095D01*
X129881866Y-61932095D02*
X130072342Y-61979714D01*
X130072342Y-61979714D02*
X130167580Y-62027333D01*
X130167580Y-62027333D02*
X130215200Y-62074952D01*
X130215200Y-62074952D02*
X130262819Y-62170190D01*
X130262819Y-62170190D02*
X130262819Y-62265428D01*
X130262819Y-62265428D02*
X130215200Y-62360666D01*
X130215200Y-62360666D02*
X130167580Y-62408285D01*
X130167580Y-62408285D02*
X130072342Y-62455904D01*
X130072342Y-62455904D02*
X129881866Y-62503523D01*
X129881866Y-62503523D02*
X129643771Y-62503523D01*
X129643771Y-62503523D02*
X129453295Y-62455904D01*
X129453295Y-62455904D02*
X129358057Y-62408285D01*
X129358057Y-62408285D02*
X129310438Y-62360666D01*
X129310438Y-62360666D02*
X129262819Y-62265428D01*
X145607142Y-73874819D02*
X145273809Y-73398628D01*
X145035714Y-73874819D02*
X145035714Y-72874819D01*
X145035714Y-72874819D02*
X145416666Y-72874819D01*
X145416666Y-72874819D02*
X145511904Y-72922438D01*
X145511904Y-72922438D02*
X145559523Y-72970057D01*
X145559523Y-72970057D02*
X145607142Y-73065295D01*
X145607142Y-73065295D02*
X145607142Y-73208152D01*
X145607142Y-73208152D02*
X145559523Y-73303390D01*
X145559523Y-73303390D02*
X145511904Y-73351009D01*
X145511904Y-73351009D02*
X145416666Y-73398628D01*
X145416666Y-73398628D02*
X145035714Y-73398628D01*
X146559523Y-73874819D02*
X145988095Y-73874819D01*
X146273809Y-73874819D02*
X146273809Y-72874819D01*
X146273809Y-72874819D02*
X146178571Y-73017676D01*
X146178571Y-73017676D02*
X146083333Y-73112914D01*
X146083333Y-73112914D02*
X145988095Y-73160533D01*
X147178571Y-72874819D02*
X147273809Y-72874819D01*
X147273809Y-72874819D02*
X147369047Y-72922438D01*
X147369047Y-72922438D02*
X147416666Y-72970057D01*
X147416666Y-72970057D02*
X147464285Y-73065295D01*
X147464285Y-73065295D02*
X147511904Y-73255771D01*
X147511904Y-73255771D02*
X147511904Y-73493866D01*
X147511904Y-73493866D02*
X147464285Y-73684342D01*
X147464285Y-73684342D02*
X147416666Y-73779580D01*
X147416666Y-73779580D02*
X147369047Y-73827200D01*
X147369047Y-73827200D02*
X147273809Y-73874819D01*
X147273809Y-73874819D02*
X147178571Y-73874819D01*
X147178571Y-73874819D02*
X147083333Y-73827200D01*
X147083333Y-73827200D02*
X147035714Y-73779580D01*
X147035714Y-73779580D02*
X146988095Y-73684342D01*
X146988095Y-73684342D02*
X146940476Y-73493866D01*
X146940476Y-73493866D02*
X146940476Y-73255771D01*
X146940476Y-73255771D02*
X146988095Y-73065295D01*
X146988095Y-73065295D02*
X147035714Y-72970057D01*
X147035714Y-72970057D02*
X147083333Y-72922438D01*
X147083333Y-72922438D02*
X147178571Y-72874819D01*
X145607142Y-77874819D02*
X145273809Y-77398628D01*
X145035714Y-77874819D02*
X145035714Y-76874819D01*
X145035714Y-76874819D02*
X145416666Y-76874819D01*
X145416666Y-76874819D02*
X145511904Y-76922438D01*
X145511904Y-76922438D02*
X145559523Y-76970057D01*
X145559523Y-76970057D02*
X145607142Y-77065295D01*
X145607142Y-77065295D02*
X145607142Y-77208152D01*
X145607142Y-77208152D02*
X145559523Y-77303390D01*
X145559523Y-77303390D02*
X145511904Y-77351009D01*
X145511904Y-77351009D02*
X145416666Y-77398628D01*
X145416666Y-77398628D02*
X145035714Y-77398628D01*
X146559523Y-77874819D02*
X145988095Y-77874819D01*
X146273809Y-77874819D02*
X146273809Y-76874819D01*
X146273809Y-76874819D02*
X146178571Y-77017676D01*
X146178571Y-77017676D02*
X146083333Y-77112914D01*
X146083333Y-77112914D02*
X145988095Y-77160533D01*
X147464285Y-76874819D02*
X146988095Y-76874819D01*
X146988095Y-76874819D02*
X146940476Y-77351009D01*
X146940476Y-77351009D02*
X146988095Y-77303390D01*
X146988095Y-77303390D02*
X147083333Y-77255771D01*
X147083333Y-77255771D02*
X147321428Y-77255771D01*
X147321428Y-77255771D02*
X147416666Y-77303390D01*
X147416666Y-77303390D02*
X147464285Y-77351009D01*
X147464285Y-77351009D02*
X147511904Y-77446247D01*
X147511904Y-77446247D02*
X147511904Y-77684342D01*
X147511904Y-77684342D02*
X147464285Y-77779580D01*
X147464285Y-77779580D02*
X147416666Y-77827200D01*
X147416666Y-77827200D02*
X147321428Y-77874819D01*
X147321428Y-77874819D02*
X147083333Y-77874819D01*
X147083333Y-77874819D02*
X146988095Y-77827200D01*
X146988095Y-77827200D02*
X146940476Y-77779580D01*
X163404580Y-61406357D02*
X163452200Y-61453976D01*
X163452200Y-61453976D02*
X163499819Y-61596833D01*
X163499819Y-61596833D02*
X163499819Y-61692071D01*
X163499819Y-61692071D02*
X163452200Y-61834928D01*
X163452200Y-61834928D02*
X163356961Y-61930166D01*
X163356961Y-61930166D02*
X163261723Y-61977785D01*
X163261723Y-61977785D02*
X163071247Y-62025404D01*
X163071247Y-62025404D02*
X162928390Y-62025404D01*
X162928390Y-62025404D02*
X162737914Y-61977785D01*
X162737914Y-61977785D02*
X162642676Y-61930166D01*
X162642676Y-61930166D02*
X162547438Y-61834928D01*
X162547438Y-61834928D02*
X162499819Y-61692071D01*
X162499819Y-61692071D02*
X162499819Y-61596833D01*
X162499819Y-61596833D02*
X162547438Y-61453976D01*
X162547438Y-61453976D02*
X162595057Y-61406357D01*
X162595057Y-61025404D02*
X162547438Y-60977785D01*
X162547438Y-60977785D02*
X162499819Y-60882547D01*
X162499819Y-60882547D02*
X162499819Y-60644452D01*
X162499819Y-60644452D02*
X162547438Y-60549214D01*
X162547438Y-60549214D02*
X162595057Y-60501595D01*
X162595057Y-60501595D02*
X162690295Y-60453976D01*
X162690295Y-60453976D02*
X162785533Y-60453976D01*
X162785533Y-60453976D02*
X162928390Y-60501595D01*
X162928390Y-60501595D02*
X163499819Y-61073023D01*
X163499819Y-61073023D02*
X163499819Y-60453976D01*
X162499819Y-60120642D02*
X162499819Y-59453976D01*
X162499819Y-59453976D02*
X163499819Y-59882547D01*
X154738095Y-78974819D02*
X154738095Y-79784342D01*
X154738095Y-79784342D02*
X154785714Y-79879580D01*
X154785714Y-79879580D02*
X154833333Y-79927200D01*
X154833333Y-79927200D02*
X154928571Y-79974819D01*
X154928571Y-79974819D02*
X155119047Y-79974819D01*
X155119047Y-79974819D02*
X155214285Y-79927200D01*
X155214285Y-79927200D02*
X155261904Y-79879580D01*
X155261904Y-79879580D02*
X155309523Y-79784342D01*
X155309523Y-79784342D02*
X155309523Y-78974819D01*
X155928571Y-79403390D02*
X155833333Y-79355771D01*
X155833333Y-79355771D02*
X155785714Y-79308152D01*
X155785714Y-79308152D02*
X155738095Y-79212914D01*
X155738095Y-79212914D02*
X155738095Y-79165295D01*
X155738095Y-79165295D02*
X155785714Y-79070057D01*
X155785714Y-79070057D02*
X155833333Y-79022438D01*
X155833333Y-79022438D02*
X155928571Y-78974819D01*
X155928571Y-78974819D02*
X156119047Y-78974819D01*
X156119047Y-78974819D02*
X156214285Y-79022438D01*
X156214285Y-79022438D02*
X156261904Y-79070057D01*
X156261904Y-79070057D02*
X156309523Y-79165295D01*
X156309523Y-79165295D02*
X156309523Y-79212914D01*
X156309523Y-79212914D02*
X156261904Y-79308152D01*
X156261904Y-79308152D02*
X156214285Y-79355771D01*
X156214285Y-79355771D02*
X156119047Y-79403390D01*
X156119047Y-79403390D02*
X155928571Y-79403390D01*
X155928571Y-79403390D02*
X155833333Y-79451009D01*
X155833333Y-79451009D02*
X155785714Y-79498628D01*
X155785714Y-79498628D02*
X155738095Y-79593866D01*
X155738095Y-79593866D02*
X155738095Y-79784342D01*
X155738095Y-79784342D02*
X155785714Y-79879580D01*
X155785714Y-79879580D02*
X155833333Y-79927200D01*
X155833333Y-79927200D02*
X155928571Y-79974819D01*
X155928571Y-79974819D02*
X156119047Y-79974819D01*
X156119047Y-79974819D02*
X156214285Y-79927200D01*
X156214285Y-79927200D02*
X156261904Y-79879580D01*
X156261904Y-79879580D02*
X156309523Y-79784342D01*
X156309523Y-79784342D02*
X156309523Y-79593866D01*
X156309523Y-79593866D02*
X156261904Y-79498628D01*
X156261904Y-79498628D02*
X156214285Y-79451009D01*
X156214285Y-79451009D02*
X156119047Y-79403390D01*
X144764819Y-62807857D02*
X144288628Y-63141190D01*
X144764819Y-63379285D02*
X143764819Y-63379285D01*
X143764819Y-63379285D02*
X143764819Y-62998333D01*
X143764819Y-62998333D02*
X143812438Y-62903095D01*
X143812438Y-62903095D02*
X143860057Y-62855476D01*
X143860057Y-62855476D02*
X143955295Y-62807857D01*
X143955295Y-62807857D02*
X144098152Y-62807857D01*
X144098152Y-62807857D02*
X144193390Y-62855476D01*
X144193390Y-62855476D02*
X144241009Y-62903095D01*
X144241009Y-62903095D02*
X144288628Y-62998333D01*
X144288628Y-62998333D02*
X144288628Y-63379285D01*
X144764819Y-61855476D02*
X144764819Y-62426904D01*
X144764819Y-62141190D02*
X143764819Y-62141190D01*
X143764819Y-62141190D02*
X143907676Y-62236428D01*
X143907676Y-62236428D02*
X144002914Y-62331666D01*
X144002914Y-62331666D02*
X144050533Y-62426904D01*
X144764819Y-60903095D02*
X144764819Y-61474523D01*
X144764819Y-61188809D02*
X143764819Y-61188809D01*
X143764819Y-61188809D02*
X143907676Y-61284047D01*
X143907676Y-61284047D02*
X144002914Y-61379285D01*
X144002914Y-61379285D02*
X144050533Y-61474523D01*
X138940476Y-48568819D02*
X138940476Y-49283104D01*
X138940476Y-49283104D02*
X138892857Y-49425961D01*
X138892857Y-49425961D02*
X138797619Y-49521200D01*
X138797619Y-49521200D02*
X138654762Y-49568819D01*
X138654762Y-49568819D02*
X138559524Y-49568819D01*
X139940476Y-49568819D02*
X139369048Y-49568819D01*
X139654762Y-49568819D02*
X139654762Y-48568819D01*
X139654762Y-48568819D02*
X139559524Y-48711676D01*
X139559524Y-48711676D02*
X139464286Y-48806914D01*
X139464286Y-48806914D02*
X139369048Y-48854533D01*
X140559524Y-48568819D02*
X140654762Y-48568819D01*
X140654762Y-48568819D02*
X140750000Y-48616438D01*
X140750000Y-48616438D02*
X140797619Y-48664057D01*
X140797619Y-48664057D02*
X140845238Y-48759295D01*
X140845238Y-48759295D02*
X140892857Y-48949771D01*
X140892857Y-48949771D02*
X140892857Y-49187866D01*
X140892857Y-49187866D02*
X140845238Y-49378342D01*
X140845238Y-49378342D02*
X140797619Y-49473580D01*
X140797619Y-49473580D02*
X140750000Y-49521200D01*
X140750000Y-49521200D02*
X140654762Y-49568819D01*
X140654762Y-49568819D02*
X140559524Y-49568819D01*
X140559524Y-49568819D02*
X140464286Y-49521200D01*
X140464286Y-49521200D02*
X140416667Y-49473580D01*
X140416667Y-49473580D02*
X140369048Y-49378342D01*
X140369048Y-49378342D02*
X140321429Y-49187866D01*
X140321429Y-49187866D02*
X140321429Y-48949771D01*
X140321429Y-48949771D02*
X140369048Y-48759295D01*
X140369048Y-48759295D02*
X140416667Y-48664057D01*
X140416667Y-48664057D02*
X140464286Y-48616438D01*
X140464286Y-48616438D02*
X140559524Y-48568819D01*
X137388095Y-69424819D02*
X137388095Y-70234342D01*
X137388095Y-70234342D02*
X137435714Y-70329580D01*
X137435714Y-70329580D02*
X137483333Y-70377200D01*
X137483333Y-70377200D02*
X137578571Y-70424819D01*
X137578571Y-70424819D02*
X137769047Y-70424819D01*
X137769047Y-70424819D02*
X137864285Y-70377200D01*
X137864285Y-70377200D02*
X137911904Y-70329580D01*
X137911904Y-70329580D02*
X137959523Y-70234342D01*
X137959523Y-70234342D02*
X137959523Y-69424819D01*
X138864285Y-69424819D02*
X138673809Y-69424819D01*
X138673809Y-69424819D02*
X138578571Y-69472438D01*
X138578571Y-69472438D02*
X138530952Y-69520057D01*
X138530952Y-69520057D02*
X138435714Y-69662914D01*
X138435714Y-69662914D02*
X138388095Y-69853390D01*
X138388095Y-69853390D02*
X138388095Y-70234342D01*
X138388095Y-70234342D02*
X138435714Y-70329580D01*
X138435714Y-70329580D02*
X138483333Y-70377200D01*
X138483333Y-70377200D02*
X138578571Y-70424819D01*
X138578571Y-70424819D02*
X138769047Y-70424819D01*
X138769047Y-70424819D02*
X138864285Y-70377200D01*
X138864285Y-70377200D02*
X138911904Y-70329580D01*
X138911904Y-70329580D02*
X138959523Y-70234342D01*
X138959523Y-70234342D02*
X138959523Y-69996247D01*
X138959523Y-69996247D02*
X138911904Y-69901009D01*
X138911904Y-69901009D02*
X138864285Y-69853390D01*
X138864285Y-69853390D02*
X138769047Y-69805771D01*
X138769047Y-69805771D02*
X138578571Y-69805771D01*
X138578571Y-69805771D02*
X138483333Y-69853390D01*
X138483333Y-69853390D02*
X138435714Y-69901009D01*
X138435714Y-69901009D02*
X138388095Y-69996247D01*
X140394642Y-75249580D02*
X140347023Y-75297200D01*
X140347023Y-75297200D02*
X140204166Y-75344819D01*
X140204166Y-75344819D02*
X140108928Y-75344819D01*
X140108928Y-75344819D02*
X139966071Y-75297200D01*
X139966071Y-75297200D02*
X139870833Y-75201961D01*
X139870833Y-75201961D02*
X139823214Y-75106723D01*
X139823214Y-75106723D02*
X139775595Y-74916247D01*
X139775595Y-74916247D02*
X139775595Y-74773390D01*
X139775595Y-74773390D02*
X139823214Y-74582914D01*
X139823214Y-74582914D02*
X139870833Y-74487676D01*
X139870833Y-74487676D02*
X139966071Y-74392438D01*
X139966071Y-74392438D02*
X140108928Y-74344819D01*
X140108928Y-74344819D02*
X140204166Y-74344819D01*
X140204166Y-74344819D02*
X140347023Y-74392438D01*
X140347023Y-74392438D02*
X140394642Y-74440057D01*
X141347023Y-75344819D02*
X140775595Y-75344819D01*
X141061309Y-75344819D02*
X141061309Y-74344819D01*
X141061309Y-74344819D02*
X140966071Y-74487676D01*
X140966071Y-74487676D02*
X140870833Y-74582914D01*
X140870833Y-74582914D02*
X140775595Y-74630533D01*
X141680357Y-74344819D02*
X142347023Y-74344819D01*
X142347023Y-74344819D02*
X141918452Y-75344819D01*
X145644642Y-75749580D02*
X145597023Y-75797200D01*
X145597023Y-75797200D02*
X145454166Y-75844819D01*
X145454166Y-75844819D02*
X145358928Y-75844819D01*
X145358928Y-75844819D02*
X145216071Y-75797200D01*
X145216071Y-75797200D02*
X145120833Y-75701961D01*
X145120833Y-75701961D02*
X145073214Y-75606723D01*
X145073214Y-75606723D02*
X145025595Y-75416247D01*
X145025595Y-75416247D02*
X145025595Y-75273390D01*
X145025595Y-75273390D02*
X145073214Y-75082914D01*
X145073214Y-75082914D02*
X145120833Y-74987676D01*
X145120833Y-74987676D02*
X145216071Y-74892438D01*
X145216071Y-74892438D02*
X145358928Y-74844819D01*
X145358928Y-74844819D02*
X145454166Y-74844819D01*
X145454166Y-74844819D02*
X145597023Y-74892438D01*
X145597023Y-74892438D02*
X145644642Y-74940057D01*
X146597023Y-75844819D02*
X146025595Y-75844819D01*
X146311309Y-75844819D02*
X146311309Y-74844819D01*
X146311309Y-74844819D02*
X146216071Y-74987676D01*
X146216071Y-74987676D02*
X146120833Y-75082914D01*
X146120833Y-75082914D02*
X146025595Y-75130533D01*
X147454166Y-74844819D02*
X147263690Y-74844819D01*
X147263690Y-74844819D02*
X147168452Y-74892438D01*
X147168452Y-74892438D02*
X147120833Y-74940057D01*
X147120833Y-74940057D02*
X147025595Y-75082914D01*
X147025595Y-75082914D02*
X146977976Y-75273390D01*
X146977976Y-75273390D02*
X146977976Y-75654342D01*
X146977976Y-75654342D02*
X147025595Y-75749580D01*
X147025595Y-75749580D02*
X147073214Y-75797200D01*
X147073214Y-75797200D02*
X147168452Y-75844819D01*
X147168452Y-75844819D02*
X147358928Y-75844819D01*
X147358928Y-75844819D02*
X147454166Y-75797200D01*
X147454166Y-75797200D02*
X147501785Y-75749580D01*
X147501785Y-75749580D02*
X147549404Y-75654342D01*
X147549404Y-75654342D02*
X147549404Y-75416247D01*
X147549404Y-75416247D02*
X147501785Y-75321009D01*
X147501785Y-75321009D02*
X147454166Y-75273390D01*
X147454166Y-75273390D02*
X147358928Y-75225771D01*
X147358928Y-75225771D02*
X147168452Y-75225771D01*
X147168452Y-75225771D02*
X147073214Y-75273390D01*
X147073214Y-75273390D02*
X147025595Y-75321009D01*
X147025595Y-75321009D02*
X146977976Y-75416247D01*
X168821333Y-71087819D02*
X168488000Y-70611628D01*
X168249905Y-71087819D02*
X168249905Y-70087819D01*
X168249905Y-70087819D02*
X168630857Y-70087819D01*
X168630857Y-70087819D02*
X168726095Y-70135438D01*
X168726095Y-70135438D02*
X168773714Y-70183057D01*
X168773714Y-70183057D02*
X168821333Y-70278295D01*
X168821333Y-70278295D02*
X168821333Y-70421152D01*
X168821333Y-70421152D02*
X168773714Y-70516390D01*
X168773714Y-70516390D02*
X168726095Y-70564009D01*
X168726095Y-70564009D02*
X168630857Y-70611628D01*
X168630857Y-70611628D02*
X168249905Y-70611628D01*
X169297524Y-71087819D02*
X169488000Y-71087819D01*
X169488000Y-71087819D02*
X169583238Y-71040200D01*
X169583238Y-71040200D02*
X169630857Y-70992580D01*
X169630857Y-70992580D02*
X169726095Y-70849723D01*
X169726095Y-70849723D02*
X169773714Y-70659247D01*
X169773714Y-70659247D02*
X169773714Y-70278295D01*
X169773714Y-70278295D02*
X169726095Y-70183057D01*
X169726095Y-70183057D02*
X169678476Y-70135438D01*
X169678476Y-70135438D02*
X169583238Y-70087819D01*
X169583238Y-70087819D02*
X169392762Y-70087819D01*
X169392762Y-70087819D02*
X169297524Y-70135438D01*
X169297524Y-70135438D02*
X169249905Y-70183057D01*
X169249905Y-70183057D02*
X169202286Y-70278295D01*
X169202286Y-70278295D02*
X169202286Y-70516390D01*
X169202286Y-70516390D02*
X169249905Y-70611628D01*
X169249905Y-70611628D02*
X169297524Y-70659247D01*
X169297524Y-70659247D02*
X169392762Y-70706866D01*
X169392762Y-70706866D02*
X169583238Y-70706866D01*
X169583238Y-70706866D02*
X169678476Y-70659247D01*
X169678476Y-70659247D02*
X169726095Y-70611628D01*
X169726095Y-70611628D02*
X169773714Y-70516390D01*
X167013151Y-86810875D02*
X167013151Y-85810875D01*
X167013151Y-86287065D02*
X167584579Y-86287065D01*
X167584579Y-86810875D02*
X167584579Y-85810875D01*
X168489341Y-86144208D02*
X168489341Y-86810875D01*
X168251246Y-85763256D02*
X168013151Y-86477541D01*
X168013151Y-86477541D02*
X168632198Y-86477541D01*
X169821819Y-82856904D02*
X170631342Y-82856904D01*
X170631342Y-82856904D02*
X170726580Y-82809285D01*
X170726580Y-82809285D02*
X170774200Y-82761666D01*
X170774200Y-82761666D02*
X170821819Y-82666428D01*
X170821819Y-82666428D02*
X170821819Y-82475952D01*
X170821819Y-82475952D02*
X170774200Y-82380714D01*
X170774200Y-82380714D02*
X170726580Y-82333095D01*
X170726580Y-82333095D02*
X170631342Y-82285476D01*
X170631342Y-82285476D02*
X169821819Y-82285476D01*
X169821819Y-81904523D02*
X169821819Y-81237857D01*
X169821819Y-81237857D02*
X170821819Y-81666428D01*
X161394642Y-81499580D02*
X161347023Y-81547200D01*
X161347023Y-81547200D02*
X161204166Y-81594819D01*
X161204166Y-81594819D02*
X161108928Y-81594819D01*
X161108928Y-81594819D02*
X160966071Y-81547200D01*
X160966071Y-81547200D02*
X160870833Y-81451961D01*
X160870833Y-81451961D02*
X160823214Y-81356723D01*
X160823214Y-81356723D02*
X160775595Y-81166247D01*
X160775595Y-81166247D02*
X160775595Y-81023390D01*
X160775595Y-81023390D02*
X160823214Y-80832914D01*
X160823214Y-80832914D02*
X160870833Y-80737676D01*
X160870833Y-80737676D02*
X160966071Y-80642438D01*
X160966071Y-80642438D02*
X161108928Y-80594819D01*
X161108928Y-80594819D02*
X161204166Y-80594819D01*
X161204166Y-80594819D02*
X161347023Y-80642438D01*
X161347023Y-80642438D02*
X161394642Y-80690057D01*
X161775595Y-80690057D02*
X161823214Y-80642438D01*
X161823214Y-80642438D02*
X161918452Y-80594819D01*
X161918452Y-80594819D02*
X162156547Y-80594819D01*
X162156547Y-80594819D02*
X162251785Y-80642438D01*
X162251785Y-80642438D02*
X162299404Y-80690057D01*
X162299404Y-80690057D02*
X162347023Y-80785295D01*
X162347023Y-80785295D02*
X162347023Y-80880533D01*
X162347023Y-80880533D02*
X162299404Y-81023390D01*
X162299404Y-81023390D02*
X161727976Y-81594819D01*
X161727976Y-81594819D02*
X162347023Y-81594819D01*
X162966071Y-80594819D02*
X163061309Y-80594819D01*
X163061309Y-80594819D02*
X163156547Y-80642438D01*
X163156547Y-80642438D02*
X163204166Y-80690057D01*
X163204166Y-80690057D02*
X163251785Y-80785295D01*
X163251785Y-80785295D02*
X163299404Y-80975771D01*
X163299404Y-80975771D02*
X163299404Y-81213866D01*
X163299404Y-81213866D02*
X163251785Y-81404342D01*
X163251785Y-81404342D02*
X163204166Y-81499580D01*
X163204166Y-81499580D02*
X163156547Y-81547200D01*
X163156547Y-81547200D02*
X163061309Y-81594819D01*
X163061309Y-81594819D02*
X162966071Y-81594819D01*
X162966071Y-81594819D02*
X162870833Y-81547200D01*
X162870833Y-81547200D02*
X162823214Y-81499580D01*
X162823214Y-81499580D02*
X162775595Y-81404342D01*
X162775595Y-81404342D02*
X162727976Y-81213866D01*
X162727976Y-81213866D02*
X162727976Y-80975771D01*
X162727976Y-80975771D02*
X162775595Y-80785295D01*
X162775595Y-80785295D02*
X162823214Y-80690057D01*
X162823214Y-80690057D02*
X162870833Y-80642438D01*
X162870833Y-80642438D02*
X162966071Y-80594819D01*
X169343819Y-74347333D02*
X170058104Y-74347333D01*
X170058104Y-74347333D02*
X170200961Y-74394952D01*
X170200961Y-74394952D02*
X170296200Y-74490190D01*
X170296200Y-74490190D02*
X170343819Y-74633047D01*
X170343819Y-74633047D02*
X170343819Y-74728285D01*
X170343819Y-73871142D02*
X169343819Y-73871142D01*
X169343819Y-73871142D02*
X169343819Y-73490190D01*
X169343819Y-73490190D02*
X169391438Y-73394952D01*
X169391438Y-73394952D02*
X169439057Y-73347333D01*
X169439057Y-73347333D02*
X169534295Y-73299714D01*
X169534295Y-73299714D02*
X169677152Y-73299714D01*
X169677152Y-73299714D02*
X169772390Y-73347333D01*
X169772390Y-73347333D02*
X169820009Y-73394952D01*
X169820009Y-73394952D02*
X169867628Y-73490190D01*
X169867628Y-73490190D02*
X169867628Y-73871142D01*
X169677152Y-72442571D02*
X170343819Y-72442571D01*
X169296200Y-72680666D02*
X170010485Y-72918761D01*
X170010485Y-72918761D02*
X170010485Y-72299714D01*
X166132642Y-75023580D02*
X166085023Y-75071200D01*
X166085023Y-75071200D02*
X165942166Y-75118819D01*
X165942166Y-75118819D02*
X165846928Y-75118819D01*
X165846928Y-75118819D02*
X165704071Y-75071200D01*
X165704071Y-75071200D02*
X165608833Y-74975961D01*
X165608833Y-74975961D02*
X165561214Y-74880723D01*
X165561214Y-74880723D02*
X165513595Y-74690247D01*
X165513595Y-74690247D02*
X165513595Y-74547390D01*
X165513595Y-74547390D02*
X165561214Y-74356914D01*
X165561214Y-74356914D02*
X165608833Y-74261676D01*
X165608833Y-74261676D02*
X165704071Y-74166438D01*
X165704071Y-74166438D02*
X165846928Y-74118819D01*
X165846928Y-74118819D02*
X165942166Y-74118819D01*
X165942166Y-74118819D02*
X166085023Y-74166438D01*
X166085023Y-74166438D02*
X166132642Y-74214057D01*
X166513595Y-74214057D02*
X166561214Y-74166438D01*
X166561214Y-74166438D02*
X166656452Y-74118819D01*
X166656452Y-74118819D02*
X166894547Y-74118819D01*
X166894547Y-74118819D02*
X166989785Y-74166438D01*
X166989785Y-74166438D02*
X167037404Y-74214057D01*
X167037404Y-74214057D02*
X167085023Y-74309295D01*
X167085023Y-74309295D02*
X167085023Y-74404533D01*
X167085023Y-74404533D02*
X167037404Y-74547390D01*
X167037404Y-74547390D02*
X166465976Y-75118819D01*
X166465976Y-75118819D02*
X167085023Y-75118819D01*
X167418357Y-74118819D02*
X168037404Y-74118819D01*
X168037404Y-74118819D02*
X167704071Y-74499771D01*
X167704071Y-74499771D02*
X167846928Y-74499771D01*
X167846928Y-74499771D02*
X167942166Y-74547390D01*
X167942166Y-74547390D02*
X167989785Y-74595009D01*
X167989785Y-74595009D02*
X168037404Y-74690247D01*
X168037404Y-74690247D02*
X168037404Y-74928342D01*
X168037404Y-74928342D02*
X167989785Y-75023580D01*
X167989785Y-75023580D02*
X167942166Y-75071200D01*
X167942166Y-75071200D02*
X167846928Y-75118819D01*
X167846928Y-75118819D02*
X167561214Y-75118819D01*
X167561214Y-75118819D02*
X167465976Y-75071200D01*
X167465976Y-75071200D02*
X167418357Y-75023580D01*
X166678628Y-71946190D02*
X167154819Y-71946190D01*
X166154819Y-72279523D02*
X166678628Y-71946190D01*
X166678628Y-71946190D02*
X166154819Y-71612857D01*
X166154819Y-71374761D02*
X166154819Y-70755714D01*
X166154819Y-70755714D02*
X166535771Y-71089047D01*
X166535771Y-71089047D02*
X166535771Y-70946190D01*
X166535771Y-70946190D02*
X166583390Y-70850952D01*
X166583390Y-70850952D02*
X166631009Y-70803333D01*
X166631009Y-70803333D02*
X166726247Y-70755714D01*
X166726247Y-70755714D02*
X166964342Y-70755714D01*
X166964342Y-70755714D02*
X167059580Y-70803333D01*
X167059580Y-70803333D02*
X167107200Y-70850952D01*
X167107200Y-70850952D02*
X167154819Y-70946190D01*
X167154819Y-70946190D02*
X167154819Y-71231904D01*
X167154819Y-71231904D02*
X167107200Y-71327142D01*
X167107200Y-71327142D02*
X167059580Y-71374761D01*
X159497905Y-83852819D02*
X159497905Y-82852819D01*
X159497905Y-82852819D02*
X159736000Y-82852819D01*
X159736000Y-82852819D02*
X159878857Y-82900438D01*
X159878857Y-82900438D02*
X159974095Y-82995676D01*
X159974095Y-82995676D02*
X160021714Y-83090914D01*
X160021714Y-83090914D02*
X160069333Y-83281390D01*
X160069333Y-83281390D02*
X160069333Y-83424247D01*
X160069333Y-83424247D02*
X160021714Y-83614723D01*
X160021714Y-83614723D02*
X159974095Y-83709961D01*
X159974095Y-83709961D02*
X159878857Y-83805200D01*
X159878857Y-83805200D02*
X159736000Y-83852819D01*
X159736000Y-83852819D02*
X159497905Y-83852819D01*
X160640762Y-83281390D02*
X160545524Y-83233771D01*
X160545524Y-83233771D02*
X160497905Y-83186152D01*
X160497905Y-83186152D02*
X160450286Y-83090914D01*
X160450286Y-83090914D02*
X160450286Y-83043295D01*
X160450286Y-83043295D02*
X160497905Y-82948057D01*
X160497905Y-82948057D02*
X160545524Y-82900438D01*
X160545524Y-82900438D02*
X160640762Y-82852819D01*
X160640762Y-82852819D02*
X160831238Y-82852819D01*
X160831238Y-82852819D02*
X160926476Y-82900438D01*
X160926476Y-82900438D02*
X160974095Y-82948057D01*
X160974095Y-82948057D02*
X161021714Y-83043295D01*
X161021714Y-83043295D02*
X161021714Y-83090914D01*
X161021714Y-83090914D02*
X160974095Y-83186152D01*
X160974095Y-83186152D02*
X160926476Y-83233771D01*
X160926476Y-83233771D02*
X160831238Y-83281390D01*
X160831238Y-83281390D02*
X160640762Y-83281390D01*
X160640762Y-83281390D02*
X160545524Y-83329009D01*
X160545524Y-83329009D02*
X160497905Y-83376628D01*
X160497905Y-83376628D02*
X160450286Y-83471866D01*
X160450286Y-83471866D02*
X160450286Y-83662342D01*
X160450286Y-83662342D02*
X160497905Y-83757580D01*
X160497905Y-83757580D02*
X160545524Y-83805200D01*
X160545524Y-83805200D02*
X160640762Y-83852819D01*
X160640762Y-83852819D02*
X160831238Y-83852819D01*
X160831238Y-83852819D02*
X160926476Y-83805200D01*
X160926476Y-83805200D02*
X160974095Y-83757580D01*
X160974095Y-83757580D02*
X161021714Y-83662342D01*
X161021714Y-83662342D02*
X161021714Y-83471866D01*
X161021714Y-83471866D02*
X160974095Y-83376628D01*
X160974095Y-83376628D02*
X160926476Y-83329009D01*
X160926476Y-83329009D02*
X160831238Y-83281390D01*
X116548095Y-49553819D02*
X116548095Y-48553819D01*
X116548095Y-49030009D02*
X117119523Y-49030009D01*
X117119523Y-49553819D02*
X117119523Y-48553819D01*
X117500476Y-48553819D02*
X118119523Y-48553819D01*
X118119523Y-48553819D02*
X117786190Y-48934771D01*
X117786190Y-48934771D02*
X117929047Y-48934771D01*
X117929047Y-48934771D02*
X118024285Y-48982390D01*
X118024285Y-48982390D02*
X118071904Y-49030009D01*
X118071904Y-49030009D02*
X118119523Y-49125247D01*
X118119523Y-49125247D02*
X118119523Y-49363342D01*
X118119523Y-49363342D02*
X118071904Y-49458580D01*
X118071904Y-49458580D02*
X118024285Y-49506200D01*
X118024285Y-49506200D02*
X117929047Y-49553819D01*
X117929047Y-49553819D02*
X117643333Y-49553819D01*
X117643333Y-49553819D02*
X117548095Y-49506200D01*
X117548095Y-49506200D02*
X117500476Y-49458580D01*
X165454819Y-53208094D02*
X164454819Y-53208094D01*
X164454819Y-53208094D02*
X164454819Y-52969999D01*
X164454819Y-52969999D02*
X164502438Y-52827142D01*
X164502438Y-52827142D02*
X164597676Y-52731904D01*
X164597676Y-52731904D02*
X164692914Y-52684285D01*
X164692914Y-52684285D02*
X164883390Y-52636666D01*
X164883390Y-52636666D02*
X165026247Y-52636666D01*
X165026247Y-52636666D02*
X165216723Y-52684285D01*
X165216723Y-52684285D02*
X165311961Y-52731904D01*
X165311961Y-52731904D02*
X165407200Y-52827142D01*
X165407200Y-52827142D02*
X165454819Y-52969999D01*
X165454819Y-52969999D02*
X165454819Y-53208094D01*
X164454819Y-52303332D02*
X164454819Y-51636666D01*
X164454819Y-51636666D02*
X165454819Y-52065237D01*
X124100476Y-89184819D02*
X124100476Y-89899104D01*
X124100476Y-89899104D02*
X124052857Y-90041961D01*
X124052857Y-90041961D02*
X123957619Y-90137200D01*
X123957619Y-90137200D02*
X123814762Y-90184819D01*
X123814762Y-90184819D02*
X123719524Y-90184819D01*
X125100476Y-90184819D02*
X124529048Y-90184819D01*
X124814762Y-90184819D02*
X124814762Y-89184819D01*
X124814762Y-89184819D02*
X124719524Y-89327676D01*
X124719524Y-89327676D02*
X124624286Y-89422914D01*
X124624286Y-89422914D02*
X124529048Y-89470533D01*
X125957619Y-89184819D02*
X125767143Y-89184819D01*
X125767143Y-89184819D02*
X125671905Y-89232438D01*
X125671905Y-89232438D02*
X125624286Y-89280057D01*
X125624286Y-89280057D02*
X125529048Y-89422914D01*
X125529048Y-89422914D02*
X125481429Y-89613390D01*
X125481429Y-89613390D02*
X125481429Y-89994342D01*
X125481429Y-89994342D02*
X125529048Y-90089580D01*
X125529048Y-90089580D02*
X125576667Y-90137200D01*
X125576667Y-90137200D02*
X125671905Y-90184819D01*
X125671905Y-90184819D02*
X125862381Y-90184819D01*
X125862381Y-90184819D02*
X125957619Y-90137200D01*
X125957619Y-90137200D02*
X126005238Y-90089580D01*
X126005238Y-90089580D02*
X126052857Y-89994342D01*
X126052857Y-89994342D02*
X126052857Y-89756247D01*
X126052857Y-89756247D02*
X126005238Y-89661009D01*
X126005238Y-89661009D02*
X125957619Y-89613390D01*
X125957619Y-89613390D02*
X125862381Y-89565771D01*
X125862381Y-89565771D02*
X125671905Y-89565771D01*
X125671905Y-89565771D02*
X125576667Y-89613390D01*
X125576667Y-89613390D02*
X125529048Y-89661009D01*
X125529048Y-89661009D02*
X125481429Y-89756247D01*
X115000476Y-82774819D02*
X115000476Y-83489104D01*
X115000476Y-83489104D02*
X114952857Y-83631961D01*
X114952857Y-83631961D02*
X114857619Y-83727200D01*
X114857619Y-83727200D02*
X114714762Y-83774819D01*
X114714762Y-83774819D02*
X114619524Y-83774819D01*
X116000476Y-83774819D02*
X115429048Y-83774819D01*
X115714762Y-83774819D02*
X115714762Y-82774819D01*
X115714762Y-82774819D02*
X115619524Y-82917676D01*
X115619524Y-82917676D02*
X115524286Y-83012914D01*
X115524286Y-83012914D02*
X115429048Y-83060533D01*
X116333810Y-82774819D02*
X116952857Y-82774819D01*
X116952857Y-82774819D02*
X116619524Y-83155771D01*
X116619524Y-83155771D02*
X116762381Y-83155771D01*
X116762381Y-83155771D02*
X116857619Y-83203390D01*
X116857619Y-83203390D02*
X116905238Y-83251009D01*
X116905238Y-83251009D02*
X116952857Y-83346247D01*
X116952857Y-83346247D02*
X116952857Y-83584342D01*
X116952857Y-83584342D02*
X116905238Y-83679580D01*
X116905238Y-83679580D02*
X116857619Y-83727200D01*
X116857619Y-83727200D02*
X116762381Y-83774819D01*
X116762381Y-83774819D02*
X116476667Y-83774819D01*
X116476667Y-83774819D02*
X116381429Y-83727200D01*
X116381429Y-83727200D02*
X116333810Y-83679580D01*
X137009580Y-60150357D02*
X137057200Y-60197976D01*
X137057200Y-60197976D02*
X137104819Y-60340833D01*
X137104819Y-60340833D02*
X137104819Y-60436071D01*
X137104819Y-60436071D02*
X137057200Y-60578928D01*
X137057200Y-60578928D02*
X136961961Y-60674166D01*
X136961961Y-60674166D02*
X136866723Y-60721785D01*
X136866723Y-60721785D02*
X136676247Y-60769404D01*
X136676247Y-60769404D02*
X136533390Y-60769404D01*
X136533390Y-60769404D02*
X136342914Y-60721785D01*
X136342914Y-60721785D02*
X136247676Y-60674166D01*
X136247676Y-60674166D02*
X136152438Y-60578928D01*
X136152438Y-60578928D02*
X136104819Y-60436071D01*
X136104819Y-60436071D02*
X136104819Y-60340833D01*
X136104819Y-60340833D02*
X136152438Y-60197976D01*
X136152438Y-60197976D02*
X136200057Y-60150357D01*
X136200057Y-59769404D02*
X136152438Y-59721785D01*
X136152438Y-59721785D02*
X136104819Y-59626547D01*
X136104819Y-59626547D02*
X136104819Y-59388452D01*
X136104819Y-59388452D02*
X136152438Y-59293214D01*
X136152438Y-59293214D02*
X136200057Y-59245595D01*
X136200057Y-59245595D02*
X136295295Y-59197976D01*
X136295295Y-59197976D02*
X136390533Y-59197976D01*
X136390533Y-59197976D02*
X136533390Y-59245595D01*
X136533390Y-59245595D02*
X137104819Y-59817023D01*
X137104819Y-59817023D02*
X137104819Y-59197976D01*
X136104819Y-58340833D02*
X136104819Y-58531309D01*
X136104819Y-58531309D02*
X136152438Y-58626547D01*
X136152438Y-58626547D02*
X136200057Y-58674166D01*
X136200057Y-58674166D02*
X136342914Y-58769404D01*
X136342914Y-58769404D02*
X136533390Y-58817023D01*
X136533390Y-58817023D02*
X136914342Y-58817023D01*
X136914342Y-58817023D02*
X137009580Y-58769404D01*
X137009580Y-58769404D02*
X137057200Y-58721785D01*
X137057200Y-58721785D02*
X137104819Y-58626547D01*
X137104819Y-58626547D02*
X137104819Y-58436071D01*
X137104819Y-58436071D02*
X137057200Y-58340833D01*
X137057200Y-58340833D02*
X137009580Y-58293214D01*
X137009580Y-58293214D02*
X136914342Y-58245595D01*
X136914342Y-58245595D02*
X136676247Y-58245595D01*
X136676247Y-58245595D02*
X136581009Y-58293214D01*
X136581009Y-58293214D02*
X136533390Y-58340833D01*
X136533390Y-58340833D02*
X136485771Y-58436071D01*
X136485771Y-58436071D02*
X136485771Y-58626547D01*
X136485771Y-58626547D02*
X136533390Y-58721785D01*
X136533390Y-58721785D02*
X136581009Y-58769404D01*
X136581009Y-58769404D02*
X136676247Y-58817023D01*
X135300476Y-89184819D02*
X135300476Y-89899104D01*
X135300476Y-89899104D02*
X135252857Y-90041961D01*
X135252857Y-90041961D02*
X135157619Y-90137200D01*
X135157619Y-90137200D02*
X135014762Y-90184819D01*
X135014762Y-90184819D02*
X134919524Y-90184819D01*
X136300476Y-90184819D02*
X135729048Y-90184819D01*
X136014762Y-90184819D02*
X136014762Y-89184819D01*
X136014762Y-89184819D02*
X135919524Y-89327676D01*
X135919524Y-89327676D02*
X135824286Y-89422914D01*
X135824286Y-89422914D02*
X135729048Y-89470533D01*
X137252857Y-90184819D02*
X136681429Y-90184819D01*
X136967143Y-90184819D02*
X136967143Y-89184819D01*
X136967143Y-89184819D02*
X136871905Y-89327676D01*
X136871905Y-89327676D02*
X136776667Y-89422914D01*
X136776667Y-89422914D02*
X136681429Y-89470533D01*
X125454819Y-74034285D02*
X124454819Y-74034285D01*
X124454819Y-74034285D02*
X124454819Y-73796190D01*
X124454819Y-73796190D02*
X124502438Y-73653333D01*
X124502438Y-73653333D02*
X124597676Y-73558095D01*
X124597676Y-73558095D02*
X124692914Y-73510476D01*
X124692914Y-73510476D02*
X124883390Y-73462857D01*
X124883390Y-73462857D02*
X125026247Y-73462857D01*
X125026247Y-73462857D02*
X125216723Y-73510476D01*
X125216723Y-73510476D02*
X125311961Y-73558095D01*
X125311961Y-73558095D02*
X125407200Y-73653333D01*
X125407200Y-73653333D02*
X125454819Y-73796190D01*
X125454819Y-73796190D02*
X125454819Y-74034285D01*
X125454819Y-72510476D02*
X125454819Y-73081904D01*
X125454819Y-72796190D02*
X124454819Y-72796190D01*
X124454819Y-72796190D02*
X124597676Y-72891428D01*
X124597676Y-72891428D02*
X124692914Y-72986666D01*
X124692914Y-72986666D02*
X124740533Y-73081904D01*
X125454819Y-71558095D02*
X125454819Y-72129523D01*
X125454819Y-71843809D02*
X124454819Y-71843809D01*
X124454819Y-71843809D02*
X124597676Y-71939047D01*
X124597676Y-71939047D02*
X124692914Y-72034285D01*
X124692914Y-72034285D02*
X124740533Y-72129523D01*
X145715476Y-55024819D02*
X146382142Y-56024819D01*
X146382142Y-55024819D02*
X145715476Y-56024819D01*
X146715476Y-55120057D02*
X146763095Y-55072438D01*
X146763095Y-55072438D02*
X146858333Y-55024819D01*
X146858333Y-55024819D02*
X147096428Y-55024819D01*
X147096428Y-55024819D02*
X147191666Y-55072438D01*
X147191666Y-55072438D02*
X147239285Y-55120057D01*
X147239285Y-55120057D02*
X147286904Y-55215295D01*
X147286904Y-55215295D02*
X147286904Y-55310533D01*
X147286904Y-55310533D02*
X147239285Y-55453390D01*
X147239285Y-55453390D02*
X146667857Y-56024819D01*
X146667857Y-56024819D02*
X147286904Y-56024819D01*
X142928571Y-66501009D02*
X142595238Y-66501009D01*
X142595238Y-67024819D02*
X142595238Y-66024819D01*
X142595238Y-66024819D02*
X143071428Y-66024819D01*
X143452381Y-67024819D02*
X143452381Y-66024819D01*
X143928571Y-67024819D02*
X143928571Y-66024819D01*
X143928571Y-66024819D02*
X144166666Y-66024819D01*
X144166666Y-66024819D02*
X144309523Y-66072438D01*
X144309523Y-66072438D02*
X144404761Y-66167676D01*
X144404761Y-66167676D02*
X144452380Y-66262914D01*
X144452380Y-66262914D02*
X144499999Y-66453390D01*
X144499999Y-66453390D02*
X144499999Y-66596247D01*
X144499999Y-66596247D02*
X144452380Y-66786723D01*
X144452380Y-66786723D02*
X144404761Y-66881961D01*
X144404761Y-66881961D02*
X144309523Y-66977200D01*
X144309523Y-66977200D02*
X144166666Y-67024819D01*
X144166666Y-67024819D02*
X143928571Y-67024819D01*
X145357142Y-66358152D02*
X145357142Y-67024819D01*
X145119047Y-65977200D02*
X144880952Y-66691485D01*
X144880952Y-66691485D02*
X145499999Y-66691485D01*
X116988095Y-65234819D02*
X116988095Y-66044342D01*
X116988095Y-66044342D02*
X117035714Y-66139580D01*
X117035714Y-66139580D02*
X117083333Y-66187200D01*
X117083333Y-66187200D02*
X117178571Y-66234819D01*
X117178571Y-66234819D02*
X117369047Y-66234819D01*
X117369047Y-66234819D02*
X117464285Y-66187200D01*
X117464285Y-66187200D02*
X117511904Y-66139580D01*
X117511904Y-66139580D02*
X117559523Y-66044342D01*
X117559523Y-66044342D02*
X117559523Y-65234819D01*
X118083333Y-66234819D02*
X118273809Y-66234819D01*
X118273809Y-66234819D02*
X118369047Y-66187200D01*
X118369047Y-66187200D02*
X118416666Y-66139580D01*
X118416666Y-66139580D02*
X118511904Y-65996723D01*
X118511904Y-65996723D02*
X118559523Y-65806247D01*
X118559523Y-65806247D02*
X118559523Y-65425295D01*
X118559523Y-65425295D02*
X118511904Y-65330057D01*
X118511904Y-65330057D02*
X118464285Y-65282438D01*
X118464285Y-65282438D02*
X118369047Y-65234819D01*
X118369047Y-65234819D02*
X118178571Y-65234819D01*
X118178571Y-65234819D02*
X118083333Y-65282438D01*
X118083333Y-65282438D02*
X118035714Y-65330057D01*
X118035714Y-65330057D02*
X117988095Y-65425295D01*
X117988095Y-65425295D02*
X117988095Y-65663390D01*
X117988095Y-65663390D02*
X118035714Y-65758628D01*
X118035714Y-65758628D02*
X118083333Y-65806247D01*
X118083333Y-65806247D02*
X118178571Y-65853866D01*
X118178571Y-65853866D02*
X118369047Y-65853866D01*
X118369047Y-65853866D02*
X118464285Y-65806247D01*
X118464285Y-65806247D02*
X118511904Y-65758628D01*
X118511904Y-65758628D02*
X118559523Y-65663390D01*
X160179580Y-62500357D02*
X160227200Y-62547976D01*
X160227200Y-62547976D02*
X160274819Y-62690833D01*
X160274819Y-62690833D02*
X160274819Y-62786071D01*
X160274819Y-62786071D02*
X160227200Y-62928928D01*
X160227200Y-62928928D02*
X160131961Y-63024166D01*
X160131961Y-63024166D02*
X160036723Y-63071785D01*
X160036723Y-63071785D02*
X159846247Y-63119404D01*
X159846247Y-63119404D02*
X159703390Y-63119404D01*
X159703390Y-63119404D02*
X159512914Y-63071785D01*
X159512914Y-63071785D02*
X159417676Y-63024166D01*
X159417676Y-63024166D02*
X159322438Y-62928928D01*
X159322438Y-62928928D02*
X159274819Y-62786071D01*
X159274819Y-62786071D02*
X159274819Y-62690833D01*
X159274819Y-62690833D02*
X159322438Y-62547976D01*
X159322438Y-62547976D02*
X159370057Y-62500357D01*
X159274819Y-62167023D02*
X159274819Y-61547976D01*
X159274819Y-61547976D02*
X159655771Y-61881309D01*
X159655771Y-61881309D02*
X159655771Y-61738452D01*
X159655771Y-61738452D02*
X159703390Y-61643214D01*
X159703390Y-61643214D02*
X159751009Y-61595595D01*
X159751009Y-61595595D02*
X159846247Y-61547976D01*
X159846247Y-61547976D02*
X160084342Y-61547976D01*
X160084342Y-61547976D02*
X160179580Y-61595595D01*
X160179580Y-61595595D02*
X160227200Y-61643214D01*
X160227200Y-61643214D02*
X160274819Y-61738452D01*
X160274819Y-61738452D02*
X160274819Y-62024166D01*
X160274819Y-62024166D02*
X160227200Y-62119404D01*
X160227200Y-62119404D02*
X160179580Y-62167023D01*
X159274819Y-60928928D02*
X159274819Y-60833690D01*
X159274819Y-60833690D02*
X159322438Y-60738452D01*
X159322438Y-60738452D02*
X159370057Y-60690833D01*
X159370057Y-60690833D02*
X159465295Y-60643214D01*
X159465295Y-60643214D02*
X159655771Y-60595595D01*
X159655771Y-60595595D02*
X159893866Y-60595595D01*
X159893866Y-60595595D02*
X160084342Y-60643214D01*
X160084342Y-60643214D02*
X160179580Y-60690833D01*
X160179580Y-60690833D02*
X160227200Y-60738452D01*
X160227200Y-60738452D02*
X160274819Y-60833690D01*
X160274819Y-60833690D02*
X160274819Y-60928928D01*
X160274819Y-60928928D02*
X160227200Y-61024166D01*
X160227200Y-61024166D02*
X160179580Y-61071785D01*
X160179580Y-61071785D02*
X160084342Y-61119404D01*
X160084342Y-61119404D02*
X159893866Y-61167023D01*
X159893866Y-61167023D02*
X159655771Y-61167023D01*
X159655771Y-61167023D02*
X159465295Y-61119404D01*
X159465295Y-61119404D02*
X159370057Y-61071785D01*
X159370057Y-61071785D02*
X159322438Y-61024166D01*
X159322438Y-61024166D02*
X159274819Y-60928928D01*
X153761905Y-56524819D02*
X153761905Y-57334342D01*
X153761905Y-57334342D02*
X153809524Y-57429580D01*
X153809524Y-57429580D02*
X153857143Y-57477200D01*
X153857143Y-57477200D02*
X153952381Y-57524819D01*
X153952381Y-57524819D02*
X154142857Y-57524819D01*
X154142857Y-57524819D02*
X154238095Y-57477200D01*
X154238095Y-57477200D02*
X154285714Y-57429580D01*
X154285714Y-57429580D02*
X154333333Y-57334342D01*
X154333333Y-57334342D02*
X154333333Y-56524819D01*
X155333333Y-57524819D02*
X154761905Y-57524819D01*
X155047619Y-57524819D02*
X155047619Y-56524819D01*
X155047619Y-56524819D02*
X154952381Y-56667676D01*
X154952381Y-56667676D02*
X154857143Y-56762914D01*
X154857143Y-56762914D02*
X154761905Y-56810533D01*
X155952381Y-56524819D02*
X156047619Y-56524819D01*
X156047619Y-56524819D02*
X156142857Y-56572438D01*
X156142857Y-56572438D02*
X156190476Y-56620057D01*
X156190476Y-56620057D02*
X156238095Y-56715295D01*
X156238095Y-56715295D02*
X156285714Y-56905771D01*
X156285714Y-56905771D02*
X156285714Y-57143866D01*
X156285714Y-57143866D02*
X156238095Y-57334342D01*
X156238095Y-57334342D02*
X156190476Y-57429580D01*
X156190476Y-57429580D02*
X156142857Y-57477200D01*
X156142857Y-57477200D02*
X156047619Y-57524819D01*
X156047619Y-57524819D02*
X155952381Y-57524819D01*
X155952381Y-57524819D02*
X155857143Y-57477200D01*
X155857143Y-57477200D02*
X155809524Y-57429580D01*
X155809524Y-57429580D02*
X155761905Y-57334342D01*
X155761905Y-57334342D02*
X155714286Y-57143866D01*
X155714286Y-57143866D02*
X155714286Y-56905771D01*
X155714286Y-56905771D02*
X155761905Y-56715295D01*
X155761905Y-56715295D02*
X155809524Y-56620057D01*
X155809524Y-56620057D02*
X155857143Y-56572438D01*
X155857143Y-56572438D02*
X155952381Y-56524819D01*
X151047619Y-57429580D02*
X151000000Y-57477200D01*
X151000000Y-57477200D02*
X150857143Y-57524819D01*
X150857143Y-57524819D02*
X150761905Y-57524819D01*
X150761905Y-57524819D02*
X150619048Y-57477200D01*
X150619048Y-57477200D02*
X150523810Y-57381961D01*
X150523810Y-57381961D02*
X150476191Y-57286723D01*
X150476191Y-57286723D02*
X150428572Y-57096247D01*
X150428572Y-57096247D02*
X150428572Y-56953390D01*
X150428572Y-56953390D02*
X150476191Y-56762914D01*
X150476191Y-56762914D02*
X150523810Y-56667676D01*
X150523810Y-56667676D02*
X150619048Y-56572438D01*
X150619048Y-56572438D02*
X150761905Y-56524819D01*
X150761905Y-56524819D02*
X150857143Y-56524819D01*
X150857143Y-56524819D02*
X151000000Y-56572438D01*
X151000000Y-56572438D02*
X151047619Y-56620057D01*
X151428572Y-57239104D02*
X151904762Y-57239104D01*
X151333334Y-57524819D02*
X151666667Y-56524819D01*
X151666667Y-56524819D02*
X152000000Y-57524819D01*
X152333334Y-57524819D02*
X152333334Y-56524819D01*
X152333334Y-56524819D02*
X152666667Y-57239104D01*
X152666667Y-57239104D02*
X153000000Y-56524819D01*
X153000000Y-56524819D02*
X153000000Y-57524819D01*
X153476191Y-57143866D02*
X154238096Y-57143866D01*
X154714286Y-57524819D02*
X154714286Y-56524819D01*
X154714286Y-56524819D02*
X155047619Y-57239104D01*
X155047619Y-57239104D02*
X155380952Y-56524819D01*
X155380952Y-56524819D02*
X155380952Y-57524819D01*
X156000000Y-56953390D02*
X155904762Y-56905771D01*
X155904762Y-56905771D02*
X155857143Y-56858152D01*
X155857143Y-56858152D02*
X155809524Y-56762914D01*
X155809524Y-56762914D02*
X155809524Y-56715295D01*
X155809524Y-56715295D02*
X155857143Y-56620057D01*
X155857143Y-56620057D02*
X155904762Y-56572438D01*
X155904762Y-56572438D02*
X156000000Y-56524819D01*
X156000000Y-56524819D02*
X156190476Y-56524819D01*
X156190476Y-56524819D02*
X156285714Y-56572438D01*
X156285714Y-56572438D02*
X156333333Y-56620057D01*
X156333333Y-56620057D02*
X156380952Y-56715295D01*
X156380952Y-56715295D02*
X156380952Y-56762914D01*
X156380952Y-56762914D02*
X156333333Y-56858152D01*
X156333333Y-56858152D02*
X156285714Y-56905771D01*
X156285714Y-56905771D02*
X156190476Y-56953390D01*
X156190476Y-56953390D02*
X156000000Y-56953390D01*
X156000000Y-56953390D02*
X155904762Y-57001009D01*
X155904762Y-57001009D02*
X155857143Y-57048628D01*
X155857143Y-57048628D02*
X155809524Y-57143866D01*
X155809524Y-57143866D02*
X155809524Y-57334342D01*
X155809524Y-57334342D02*
X155857143Y-57429580D01*
X155857143Y-57429580D02*
X155904762Y-57477200D01*
X155904762Y-57477200D02*
X156000000Y-57524819D01*
X156000000Y-57524819D02*
X156190476Y-57524819D01*
X156190476Y-57524819D02*
X156285714Y-57477200D01*
X156285714Y-57477200D02*
X156333333Y-57429580D01*
X156333333Y-57429580D02*
X156380952Y-57334342D01*
X156380952Y-57334342D02*
X156380952Y-57143866D01*
X156380952Y-57143866D02*
X156333333Y-57048628D01*
X156333333Y-57048628D02*
X156285714Y-57001009D01*
X156285714Y-57001009D02*
X156190476Y-56953390D01*
X157380952Y-57429580D02*
X157333333Y-57477200D01*
X157333333Y-57477200D02*
X157190476Y-57524819D01*
X157190476Y-57524819D02*
X157095238Y-57524819D01*
X157095238Y-57524819D02*
X156952381Y-57477200D01*
X156952381Y-57477200D02*
X156857143Y-57381961D01*
X156857143Y-57381961D02*
X156809524Y-57286723D01*
X156809524Y-57286723D02*
X156761905Y-57096247D01*
X156761905Y-57096247D02*
X156761905Y-56953390D01*
X156761905Y-56953390D02*
X156809524Y-56762914D01*
X156809524Y-56762914D02*
X156857143Y-56667676D01*
X156857143Y-56667676D02*
X156952381Y-56572438D01*
X156952381Y-56572438D02*
X157095238Y-56524819D01*
X157095238Y-56524819D02*
X157190476Y-56524819D01*
X157190476Y-56524819D02*
X157333333Y-56572438D01*
X157333333Y-56572438D02*
X157380952Y-56620057D01*
X157809524Y-57143866D02*
X158571429Y-57143866D01*
X159238095Y-56524819D02*
X159333333Y-56524819D01*
X159333333Y-56524819D02*
X159428571Y-56572438D01*
X159428571Y-56572438D02*
X159476190Y-56620057D01*
X159476190Y-56620057D02*
X159523809Y-56715295D01*
X159523809Y-56715295D02*
X159571428Y-56905771D01*
X159571428Y-56905771D02*
X159571428Y-57143866D01*
X159571428Y-57143866D02*
X159523809Y-57334342D01*
X159523809Y-57334342D02*
X159476190Y-57429580D01*
X159476190Y-57429580D02*
X159428571Y-57477200D01*
X159428571Y-57477200D02*
X159333333Y-57524819D01*
X159333333Y-57524819D02*
X159238095Y-57524819D01*
X159238095Y-57524819D02*
X159142857Y-57477200D01*
X159142857Y-57477200D02*
X159095238Y-57429580D01*
X159095238Y-57429580D02*
X159047619Y-57334342D01*
X159047619Y-57334342D02*
X159000000Y-57143866D01*
X159000000Y-57143866D02*
X159000000Y-56905771D01*
X159000000Y-56905771D02*
X159047619Y-56715295D01*
X159047619Y-56715295D02*
X159095238Y-56620057D01*
X159095238Y-56620057D02*
X159142857Y-56572438D01*
X159142857Y-56572438D02*
X159238095Y-56524819D01*
X155000000Y-56524819D02*
X155000000Y-56762914D01*
X154761905Y-56667676D02*
X155000000Y-56762914D01*
X155000000Y-56762914D02*
X155238095Y-56667676D01*
X154857143Y-56953390D02*
X155000000Y-56762914D01*
X155000000Y-56762914D02*
X155142857Y-56953390D01*
X146704819Y-72308094D02*
X145704819Y-72308094D01*
X145704819Y-72308094D02*
X145704819Y-72069999D01*
X145704819Y-72069999D02*
X145752438Y-71927142D01*
X145752438Y-71927142D02*
X145847676Y-71831904D01*
X145847676Y-71831904D02*
X145942914Y-71784285D01*
X145942914Y-71784285D02*
X146133390Y-71736666D01*
X146133390Y-71736666D02*
X146276247Y-71736666D01*
X146276247Y-71736666D02*
X146466723Y-71784285D01*
X146466723Y-71784285D02*
X146561961Y-71831904D01*
X146561961Y-71831904D02*
X146657200Y-71927142D01*
X146657200Y-71927142D02*
X146704819Y-72069999D01*
X146704819Y-72069999D02*
X146704819Y-72308094D01*
X146704819Y-71260475D02*
X146704819Y-71069999D01*
X146704819Y-71069999D02*
X146657200Y-70974761D01*
X146657200Y-70974761D02*
X146609580Y-70927142D01*
X146609580Y-70927142D02*
X146466723Y-70831904D01*
X146466723Y-70831904D02*
X146276247Y-70784285D01*
X146276247Y-70784285D02*
X145895295Y-70784285D01*
X145895295Y-70784285D02*
X145800057Y-70831904D01*
X145800057Y-70831904D02*
X145752438Y-70879523D01*
X145752438Y-70879523D02*
X145704819Y-70974761D01*
X145704819Y-70974761D02*
X145704819Y-71165237D01*
X145704819Y-71165237D02*
X145752438Y-71260475D01*
X145752438Y-71260475D02*
X145800057Y-71308094D01*
X145800057Y-71308094D02*
X145895295Y-71355713D01*
X145895295Y-71355713D02*
X146133390Y-71355713D01*
X146133390Y-71355713D02*
X146228628Y-71308094D01*
X146228628Y-71308094D02*
X146276247Y-71260475D01*
X146276247Y-71260475D02*
X146323866Y-71165237D01*
X146323866Y-71165237D02*
X146323866Y-70974761D01*
X146323866Y-70974761D02*
X146276247Y-70879523D01*
X146276247Y-70879523D02*
X146228628Y-70831904D01*
X146228628Y-70831904D02*
X146133390Y-70784285D01*
X122454819Y-60884285D02*
X121454819Y-60884285D01*
X121454819Y-60884285D02*
X121454819Y-60646190D01*
X121454819Y-60646190D02*
X121502438Y-60503333D01*
X121502438Y-60503333D02*
X121597676Y-60408095D01*
X121597676Y-60408095D02*
X121692914Y-60360476D01*
X121692914Y-60360476D02*
X121883390Y-60312857D01*
X121883390Y-60312857D02*
X122026247Y-60312857D01*
X122026247Y-60312857D02*
X122216723Y-60360476D01*
X122216723Y-60360476D02*
X122311961Y-60408095D01*
X122311961Y-60408095D02*
X122407200Y-60503333D01*
X122407200Y-60503333D02*
X122454819Y-60646190D01*
X122454819Y-60646190D02*
X122454819Y-60884285D01*
X122454819Y-59360476D02*
X122454819Y-59931904D01*
X122454819Y-59646190D02*
X121454819Y-59646190D01*
X121454819Y-59646190D02*
X121597676Y-59741428D01*
X121597676Y-59741428D02*
X121692914Y-59836666D01*
X121692914Y-59836666D02*
X121740533Y-59931904D01*
X121550057Y-58979523D02*
X121502438Y-58931904D01*
X121502438Y-58931904D02*
X121454819Y-58836666D01*
X121454819Y-58836666D02*
X121454819Y-58598571D01*
X121454819Y-58598571D02*
X121502438Y-58503333D01*
X121502438Y-58503333D02*
X121550057Y-58455714D01*
X121550057Y-58455714D02*
X121645295Y-58408095D01*
X121645295Y-58408095D02*
X121740533Y-58408095D01*
X121740533Y-58408095D02*
X121883390Y-58455714D01*
X121883390Y-58455714D02*
X122454819Y-59027142D01*
X122454819Y-59027142D02*
X122454819Y-58408095D01*
X146955580Y-62845357D02*
X147003200Y-62892976D01*
X147003200Y-62892976D02*
X147050819Y-63035833D01*
X147050819Y-63035833D02*
X147050819Y-63131071D01*
X147050819Y-63131071D02*
X147003200Y-63273928D01*
X147003200Y-63273928D02*
X146907961Y-63369166D01*
X146907961Y-63369166D02*
X146812723Y-63416785D01*
X146812723Y-63416785D02*
X146622247Y-63464404D01*
X146622247Y-63464404D02*
X146479390Y-63464404D01*
X146479390Y-63464404D02*
X146288914Y-63416785D01*
X146288914Y-63416785D02*
X146193676Y-63369166D01*
X146193676Y-63369166D02*
X146098438Y-63273928D01*
X146098438Y-63273928D02*
X146050819Y-63131071D01*
X146050819Y-63131071D02*
X146050819Y-63035833D01*
X146050819Y-63035833D02*
X146098438Y-62892976D01*
X146098438Y-62892976D02*
X146146057Y-62845357D01*
X146146057Y-62464404D02*
X146098438Y-62416785D01*
X146098438Y-62416785D02*
X146050819Y-62321547D01*
X146050819Y-62321547D02*
X146050819Y-62083452D01*
X146050819Y-62083452D02*
X146098438Y-61988214D01*
X146098438Y-61988214D02*
X146146057Y-61940595D01*
X146146057Y-61940595D02*
X146241295Y-61892976D01*
X146241295Y-61892976D02*
X146336533Y-61892976D01*
X146336533Y-61892976D02*
X146479390Y-61940595D01*
X146479390Y-61940595D02*
X147050819Y-62512023D01*
X147050819Y-62512023D02*
X147050819Y-61892976D01*
X146384152Y-61035833D02*
X147050819Y-61035833D01*
X146003200Y-61273928D02*
X146717485Y-61512023D01*
X146717485Y-61512023D02*
X146717485Y-60892976D01*
X101404580Y-61406357D02*
X101452200Y-61453976D01*
X101452200Y-61453976D02*
X101499819Y-61596833D01*
X101499819Y-61596833D02*
X101499819Y-61692071D01*
X101499819Y-61692071D02*
X101452200Y-61834928D01*
X101452200Y-61834928D02*
X101356961Y-61930166D01*
X101356961Y-61930166D02*
X101261723Y-61977785D01*
X101261723Y-61977785D02*
X101071247Y-62025404D01*
X101071247Y-62025404D02*
X100928390Y-62025404D01*
X100928390Y-62025404D02*
X100737914Y-61977785D01*
X100737914Y-61977785D02*
X100642676Y-61930166D01*
X100642676Y-61930166D02*
X100547438Y-61834928D01*
X100547438Y-61834928D02*
X100499819Y-61692071D01*
X100499819Y-61692071D02*
X100499819Y-61596833D01*
X100499819Y-61596833D02*
X100547438Y-61453976D01*
X100547438Y-61453976D02*
X100595057Y-61406357D01*
X101499819Y-60453976D02*
X101499819Y-61025404D01*
X101499819Y-60739690D02*
X100499819Y-60739690D01*
X100499819Y-60739690D02*
X100642676Y-60834928D01*
X100642676Y-60834928D02*
X100737914Y-60930166D01*
X100737914Y-60930166D02*
X100785533Y-61025404D01*
X100595057Y-60073023D02*
X100547438Y-60025404D01*
X100547438Y-60025404D02*
X100499819Y-59930166D01*
X100499819Y-59930166D02*
X100499819Y-59692071D01*
X100499819Y-59692071D02*
X100547438Y-59596833D01*
X100547438Y-59596833D02*
X100595057Y-59549214D01*
X100595057Y-59549214D02*
X100690295Y-59501595D01*
X100690295Y-59501595D02*
X100785533Y-59501595D01*
X100785533Y-59501595D02*
X100928390Y-59549214D01*
X100928390Y-59549214D02*
X101499819Y-60120642D01*
X101499819Y-60120642D02*
X101499819Y-59501595D01*
X84083333Y-77874819D02*
X83750000Y-77398628D01*
X83511905Y-77874819D02*
X83511905Y-76874819D01*
X83511905Y-76874819D02*
X83892857Y-76874819D01*
X83892857Y-76874819D02*
X83988095Y-76922438D01*
X83988095Y-76922438D02*
X84035714Y-76970057D01*
X84035714Y-76970057D02*
X84083333Y-77065295D01*
X84083333Y-77065295D02*
X84083333Y-77208152D01*
X84083333Y-77208152D02*
X84035714Y-77303390D01*
X84035714Y-77303390D02*
X83988095Y-77351009D01*
X83988095Y-77351009D02*
X83892857Y-77398628D01*
X83892857Y-77398628D02*
X83511905Y-77398628D01*
X84654762Y-77303390D02*
X84559524Y-77255771D01*
X84559524Y-77255771D02*
X84511905Y-77208152D01*
X84511905Y-77208152D02*
X84464286Y-77112914D01*
X84464286Y-77112914D02*
X84464286Y-77065295D01*
X84464286Y-77065295D02*
X84511905Y-76970057D01*
X84511905Y-76970057D02*
X84559524Y-76922438D01*
X84559524Y-76922438D02*
X84654762Y-76874819D01*
X84654762Y-76874819D02*
X84845238Y-76874819D01*
X84845238Y-76874819D02*
X84940476Y-76922438D01*
X84940476Y-76922438D02*
X84988095Y-76970057D01*
X84988095Y-76970057D02*
X85035714Y-77065295D01*
X85035714Y-77065295D02*
X85035714Y-77112914D01*
X85035714Y-77112914D02*
X84988095Y-77208152D01*
X84988095Y-77208152D02*
X84940476Y-77255771D01*
X84940476Y-77255771D02*
X84845238Y-77303390D01*
X84845238Y-77303390D02*
X84654762Y-77303390D01*
X84654762Y-77303390D02*
X84559524Y-77351009D01*
X84559524Y-77351009D02*
X84511905Y-77398628D01*
X84511905Y-77398628D02*
X84464286Y-77493866D01*
X84464286Y-77493866D02*
X84464286Y-77684342D01*
X84464286Y-77684342D02*
X84511905Y-77779580D01*
X84511905Y-77779580D02*
X84559524Y-77827200D01*
X84559524Y-77827200D02*
X84654762Y-77874819D01*
X84654762Y-77874819D02*
X84845238Y-77874819D01*
X84845238Y-77874819D02*
X84940476Y-77827200D01*
X84940476Y-77827200D02*
X84988095Y-77779580D01*
X84988095Y-77779580D02*
X85035714Y-77684342D01*
X85035714Y-77684342D02*
X85035714Y-77493866D01*
X85035714Y-77493866D02*
X84988095Y-77398628D01*
X84988095Y-77398628D02*
X84940476Y-77351009D01*
X84940476Y-77351009D02*
X84845238Y-77303390D01*
X54548095Y-49553819D02*
X54548095Y-48553819D01*
X54548095Y-49030009D02*
X55119523Y-49030009D01*
X55119523Y-49553819D02*
X55119523Y-48553819D01*
X56119523Y-49553819D02*
X55548095Y-49553819D01*
X55833809Y-49553819D02*
X55833809Y-48553819D01*
X55833809Y-48553819D02*
X55738571Y-48696676D01*
X55738571Y-48696676D02*
X55643333Y-48791914D01*
X55643333Y-48791914D02*
X55548095Y-48839533D01*
X84083333Y-73874819D02*
X83750000Y-73398628D01*
X83511905Y-73874819D02*
X83511905Y-72874819D01*
X83511905Y-72874819D02*
X83892857Y-72874819D01*
X83892857Y-72874819D02*
X83988095Y-72922438D01*
X83988095Y-72922438D02*
X84035714Y-72970057D01*
X84035714Y-72970057D02*
X84083333Y-73065295D01*
X84083333Y-73065295D02*
X84083333Y-73208152D01*
X84083333Y-73208152D02*
X84035714Y-73303390D01*
X84035714Y-73303390D02*
X83988095Y-73351009D01*
X83988095Y-73351009D02*
X83892857Y-73398628D01*
X83892857Y-73398628D02*
X83511905Y-73398628D01*
X84416667Y-72874819D02*
X85035714Y-72874819D01*
X85035714Y-72874819D02*
X84702381Y-73255771D01*
X84702381Y-73255771D02*
X84845238Y-73255771D01*
X84845238Y-73255771D02*
X84940476Y-73303390D01*
X84940476Y-73303390D02*
X84988095Y-73351009D01*
X84988095Y-73351009D02*
X85035714Y-73446247D01*
X85035714Y-73446247D02*
X85035714Y-73684342D01*
X85035714Y-73684342D02*
X84988095Y-73779580D01*
X84988095Y-73779580D02*
X84940476Y-73827200D01*
X84940476Y-73827200D02*
X84845238Y-73874819D01*
X84845238Y-73874819D02*
X84559524Y-73874819D01*
X84559524Y-73874819D02*
X84464286Y-73827200D01*
X84464286Y-73827200D02*
X84416667Y-73779580D01*
X68929580Y-59487857D02*
X68977200Y-59535476D01*
X68977200Y-59535476D02*
X69024819Y-59678333D01*
X69024819Y-59678333D02*
X69024819Y-59773571D01*
X69024819Y-59773571D02*
X68977200Y-59916428D01*
X68977200Y-59916428D02*
X68881961Y-60011666D01*
X68881961Y-60011666D02*
X68786723Y-60059285D01*
X68786723Y-60059285D02*
X68596247Y-60106904D01*
X68596247Y-60106904D02*
X68453390Y-60106904D01*
X68453390Y-60106904D02*
X68262914Y-60059285D01*
X68262914Y-60059285D02*
X68167676Y-60011666D01*
X68167676Y-60011666D02*
X68072438Y-59916428D01*
X68072438Y-59916428D02*
X68024819Y-59773571D01*
X68024819Y-59773571D02*
X68024819Y-59678333D01*
X68024819Y-59678333D02*
X68072438Y-59535476D01*
X68072438Y-59535476D02*
X68120057Y-59487857D01*
X69024819Y-58535476D02*
X69024819Y-59106904D01*
X69024819Y-58821190D02*
X68024819Y-58821190D01*
X68024819Y-58821190D02*
X68167676Y-58916428D01*
X68167676Y-58916428D02*
X68262914Y-59011666D01*
X68262914Y-59011666D02*
X68310533Y-59106904D01*
X68024819Y-57916428D02*
X68024819Y-57821190D01*
X68024819Y-57821190D02*
X68072438Y-57725952D01*
X68072438Y-57725952D02*
X68120057Y-57678333D01*
X68120057Y-57678333D02*
X68215295Y-57630714D01*
X68215295Y-57630714D02*
X68405771Y-57583095D01*
X68405771Y-57583095D02*
X68643866Y-57583095D01*
X68643866Y-57583095D02*
X68834342Y-57630714D01*
X68834342Y-57630714D02*
X68929580Y-57678333D01*
X68929580Y-57678333D02*
X68977200Y-57725952D01*
X68977200Y-57725952D02*
X69024819Y-57821190D01*
X69024819Y-57821190D02*
X69024819Y-57916428D01*
X69024819Y-57916428D02*
X68977200Y-58011666D01*
X68977200Y-58011666D02*
X68929580Y-58059285D01*
X68929580Y-58059285D02*
X68834342Y-58106904D01*
X68834342Y-58106904D02*
X68643866Y-58154523D01*
X68643866Y-58154523D02*
X68405771Y-58154523D01*
X68405771Y-58154523D02*
X68215295Y-58106904D01*
X68215295Y-58106904D02*
X68120057Y-58059285D01*
X68120057Y-58059285D02*
X68072438Y-58011666D01*
X68072438Y-58011666D02*
X68024819Y-57916428D01*
X70429580Y-66949166D02*
X70477200Y-66996785D01*
X70477200Y-66996785D02*
X70524819Y-67139642D01*
X70524819Y-67139642D02*
X70524819Y-67234880D01*
X70524819Y-67234880D02*
X70477200Y-67377737D01*
X70477200Y-67377737D02*
X70381961Y-67472975D01*
X70381961Y-67472975D02*
X70286723Y-67520594D01*
X70286723Y-67520594D02*
X70096247Y-67568213D01*
X70096247Y-67568213D02*
X69953390Y-67568213D01*
X69953390Y-67568213D02*
X69762914Y-67520594D01*
X69762914Y-67520594D02*
X69667676Y-67472975D01*
X69667676Y-67472975D02*
X69572438Y-67377737D01*
X69572438Y-67377737D02*
X69524819Y-67234880D01*
X69524819Y-67234880D02*
X69524819Y-67139642D01*
X69524819Y-67139642D02*
X69572438Y-66996785D01*
X69572438Y-66996785D02*
X69620057Y-66949166D01*
X69524819Y-66092023D02*
X69524819Y-66282499D01*
X69524819Y-66282499D02*
X69572438Y-66377737D01*
X69572438Y-66377737D02*
X69620057Y-66425356D01*
X69620057Y-66425356D02*
X69762914Y-66520594D01*
X69762914Y-66520594D02*
X69953390Y-66568213D01*
X69953390Y-66568213D02*
X70334342Y-66568213D01*
X70334342Y-66568213D02*
X70429580Y-66520594D01*
X70429580Y-66520594D02*
X70477200Y-66472975D01*
X70477200Y-66472975D02*
X70524819Y-66377737D01*
X70524819Y-66377737D02*
X70524819Y-66187261D01*
X70524819Y-66187261D02*
X70477200Y-66092023D01*
X70477200Y-66092023D02*
X70429580Y-66044404D01*
X70429580Y-66044404D02*
X70334342Y-65996785D01*
X70334342Y-65996785D02*
X70096247Y-65996785D01*
X70096247Y-65996785D02*
X70001009Y-66044404D01*
X70001009Y-66044404D02*
X69953390Y-66092023D01*
X69953390Y-66092023D02*
X69905771Y-66187261D01*
X69905771Y-66187261D02*
X69905771Y-66377737D01*
X69905771Y-66377737D02*
X69953390Y-66472975D01*
X69953390Y-66472975D02*
X70001009Y-66520594D01*
X70001009Y-66520594D02*
X70096247Y-66568213D01*
X80209819Y-56331666D02*
X79733628Y-56664999D01*
X80209819Y-56903094D02*
X79209819Y-56903094D01*
X79209819Y-56903094D02*
X79209819Y-56522142D01*
X79209819Y-56522142D02*
X79257438Y-56426904D01*
X79257438Y-56426904D02*
X79305057Y-56379285D01*
X79305057Y-56379285D02*
X79400295Y-56331666D01*
X79400295Y-56331666D02*
X79543152Y-56331666D01*
X79543152Y-56331666D02*
X79638390Y-56379285D01*
X79638390Y-56379285D02*
X79686009Y-56426904D01*
X79686009Y-56426904D02*
X79733628Y-56522142D01*
X79733628Y-56522142D02*
X79733628Y-56903094D01*
X79209819Y-55426904D02*
X79209819Y-55903094D01*
X79209819Y-55903094D02*
X79686009Y-55950713D01*
X79686009Y-55950713D02*
X79638390Y-55903094D01*
X79638390Y-55903094D02*
X79590771Y-55807856D01*
X79590771Y-55807856D02*
X79590771Y-55569761D01*
X79590771Y-55569761D02*
X79638390Y-55474523D01*
X79638390Y-55474523D02*
X79686009Y-55426904D01*
X79686009Y-55426904D02*
X79781247Y-55379285D01*
X79781247Y-55379285D02*
X80019342Y-55379285D01*
X80019342Y-55379285D02*
X80114580Y-55426904D01*
X80114580Y-55426904D02*
X80162200Y-55474523D01*
X80162200Y-55474523D02*
X80209819Y-55569761D01*
X80209819Y-55569761D02*
X80209819Y-55807856D01*
X80209819Y-55807856D02*
X80162200Y-55903094D01*
X80162200Y-55903094D02*
X80114580Y-55950713D01*
X64054819Y-58986666D02*
X63578628Y-59319999D01*
X64054819Y-59558094D02*
X63054819Y-59558094D01*
X63054819Y-59558094D02*
X63054819Y-59177142D01*
X63054819Y-59177142D02*
X63102438Y-59081904D01*
X63102438Y-59081904D02*
X63150057Y-59034285D01*
X63150057Y-59034285D02*
X63245295Y-58986666D01*
X63245295Y-58986666D02*
X63388152Y-58986666D01*
X63388152Y-58986666D02*
X63483390Y-59034285D01*
X63483390Y-59034285D02*
X63531009Y-59081904D01*
X63531009Y-59081904D02*
X63578628Y-59177142D01*
X63578628Y-59177142D02*
X63578628Y-59558094D01*
X63054819Y-58129523D02*
X63054819Y-58319999D01*
X63054819Y-58319999D02*
X63102438Y-58415237D01*
X63102438Y-58415237D02*
X63150057Y-58462856D01*
X63150057Y-58462856D02*
X63292914Y-58558094D01*
X63292914Y-58558094D02*
X63483390Y-58605713D01*
X63483390Y-58605713D02*
X63864342Y-58605713D01*
X63864342Y-58605713D02*
X63959580Y-58558094D01*
X63959580Y-58558094D02*
X64007200Y-58510475D01*
X64007200Y-58510475D02*
X64054819Y-58415237D01*
X64054819Y-58415237D02*
X64054819Y-58224761D01*
X64054819Y-58224761D02*
X64007200Y-58129523D01*
X64007200Y-58129523D02*
X63959580Y-58081904D01*
X63959580Y-58081904D02*
X63864342Y-58034285D01*
X63864342Y-58034285D02*
X63626247Y-58034285D01*
X63626247Y-58034285D02*
X63531009Y-58081904D01*
X63531009Y-58081904D02*
X63483390Y-58129523D01*
X63483390Y-58129523D02*
X63435771Y-58224761D01*
X63435771Y-58224761D02*
X63435771Y-58415237D01*
X63435771Y-58415237D02*
X63483390Y-58510475D01*
X63483390Y-58510475D02*
X63531009Y-58558094D01*
X63531009Y-58558094D02*
X63626247Y-58605713D01*
X68262819Y-63932094D02*
X67262819Y-63932094D01*
X67262819Y-63932094D02*
X67262819Y-63693999D01*
X67262819Y-63693999D02*
X67310438Y-63551142D01*
X67310438Y-63551142D02*
X67405676Y-63455904D01*
X67405676Y-63455904D02*
X67500914Y-63408285D01*
X67500914Y-63408285D02*
X67691390Y-63360666D01*
X67691390Y-63360666D02*
X67834247Y-63360666D01*
X67834247Y-63360666D02*
X68024723Y-63408285D01*
X68024723Y-63408285D02*
X68119961Y-63455904D01*
X68119961Y-63455904D02*
X68215200Y-63551142D01*
X68215200Y-63551142D02*
X68262819Y-63693999D01*
X68262819Y-63693999D02*
X68262819Y-63932094D01*
X67596152Y-62503523D02*
X68262819Y-62503523D01*
X67215200Y-62741618D02*
X67929485Y-62979713D01*
X67929485Y-62979713D02*
X67929485Y-62360666D01*
X97497905Y-83852819D02*
X97497905Y-82852819D01*
X97497905Y-82852819D02*
X97736000Y-82852819D01*
X97736000Y-82852819D02*
X97878857Y-82900438D01*
X97878857Y-82900438D02*
X97974095Y-82995676D01*
X97974095Y-82995676D02*
X98021714Y-83090914D01*
X98021714Y-83090914D02*
X98069333Y-83281390D01*
X98069333Y-83281390D02*
X98069333Y-83424247D01*
X98069333Y-83424247D02*
X98021714Y-83614723D01*
X98021714Y-83614723D02*
X97974095Y-83709961D01*
X97974095Y-83709961D02*
X97878857Y-83805200D01*
X97878857Y-83805200D02*
X97736000Y-83852819D01*
X97736000Y-83852819D02*
X97497905Y-83852819D01*
X98450286Y-82948057D02*
X98497905Y-82900438D01*
X98497905Y-82900438D02*
X98593143Y-82852819D01*
X98593143Y-82852819D02*
X98831238Y-82852819D01*
X98831238Y-82852819D02*
X98926476Y-82900438D01*
X98926476Y-82900438D02*
X98974095Y-82948057D01*
X98974095Y-82948057D02*
X99021714Y-83043295D01*
X99021714Y-83043295D02*
X99021714Y-83138533D01*
X99021714Y-83138533D02*
X98974095Y-83281390D01*
X98974095Y-83281390D02*
X98402667Y-83852819D01*
X98402667Y-83852819D02*
X99021714Y-83852819D01*
X104678628Y-71946190D02*
X105154819Y-71946190D01*
X104154819Y-72279523D02*
X104678628Y-71946190D01*
X104678628Y-71946190D02*
X104154819Y-71612857D01*
X104250057Y-71327142D02*
X104202438Y-71279523D01*
X104202438Y-71279523D02*
X104154819Y-71184285D01*
X104154819Y-71184285D02*
X104154819Y-70946190D01*
X104154819Y-70946190D02*
X104202438Y-70850952D01*
X104202438Y-70850952D02*
X104250057Y-70803333D01*
X104250057Y-70803333D02*
X104345295Y-70755714D01*
X104345295Y-70755714D02*
X104440533Y-70755714D01*
X104440533Y-70755714D02*
X104583390Y-70803333D01*
X104583390Y-70803333D02*
X105154819Y-71374761D01*
X105154819Y-71374761D02*
X105154819Y-70755714D01*
X104608833Y-75023580D02*
X104561214Y-75071200D01*
X104561214Y-75071200D02*
X104418357Y-75118819D01*
X104418357Y-75118819D02*
X104323119Y-75118819D01*
X104323119Y-75118819D02*
X104180262Y-75071200D01*
X104180262Y-75071200D02*
X104085024Y-74975961D01*
X104085024Y-74975961D02*
X104037405Y-74880723D01*
X104037405Y-74880723D02*
X103989786Y-74690247D01*
X103989786Y-74690247D02*
X103989786Y-74547390D01*
X103989786Y-74547390D02*
X104037405Y-74356914D01*
X104037405Y-74356914D02*
X104085024Y-74261676D01*
X104085024Y-74261676D02*
X104180262Y-74166438D01*
X104180262Y-74166438D02*
X104323119Y-74118819D01*
X104323119Y-74118819D02*
X104418357Y-74118819D01*
X104418357Y-74118819D02*
X104561214Y-74166438D01*
X104561214Y-74166438D02*
X104608833Y-74214057D01*
X105180262Y-74547390D02*
X105085024Y-74499771D01*
X105085024Y-74499771D02*
X105037405Y-74452152D01*
X105037405Y-74452152D02*
X104989786Y-74356914D01*
X104989786Y-74356914D02*
X104989786Y-74309295D01*
X104989786Y-74309295D02*
X105037405Y-74214057D01*
X105037405Y-74214057D02*
X105085024Y-74166438D01*
X105085024Y-74166438D02*
X105180262Y-74118819D01*
X105180262Y-74118819D02*
X105370738Y-74118819D01*
X105370738Y-74118819D02*
X105465976Y-74166438D01*
X105465976Y-74166438D02*
X105513595Y-74214057D01*
X105513595Y-74214057D02*
X105561214Y-74309295D01*
X105561214Y-74309295D02*
X105561214Y-74356914D01*
X105561214Y-74356914D02*
X105513595Y-74452152D01*
X105513595Y-74452152D02*
X105465976Y-74499771D01*
X105465976Y-74499771D02*
X105370738Y-74547390D01*
X105370738Y-74547390D02*
X105180262Y-74547390D01*
X105180262Y-74547390D02*
X105085024Y-74595009D01*
X105085024Y-74595009D02*
X105037405Y-74642628D01*
X105037405Y-74642628D02*
X104989786Y-74737866D01*
X104989786Y-74737866D02*
X104989786Y-74928342D01*
X104989786Y-74928342D02*
X105037405Y-75023580D01*
X105037405Y-75023580D02*
X105085024Y-75071200D01*
X105085024Y-75071200D02*
X105180262Y-75118819D01*
X105180262Y-75118819D02*
X105370738Y-75118819D01*
X105370738Y-75118819D02*
X105465976Y-75071200D01*
X105465976Y-75071200D02*
X105513595Y-75023580D01*
X105513595Y-75023580D02*
X105561214Y-74928342D01*
X105561214Y-74928342D02*
X105561214Y-74737866D01*
X105561214Y-74737866D02*
X105513595Y-74642628D01*
X105513595Y-74642628D02*
X105465976Y-74595009D01*
X105465976Y-74595009D02*
X105370738Y-74547390D01*
X107343819Y-74347333D02*
X108058104Y-74347333D01*
X108058104Y-74347333D02*
X108200961Y-74394952D01*
X108200961Y-74394952D02*
X108296200Y-74490190D01*
X108296200Y-74490190D02*
X108343819Y-74633047D01*
X108343819Y-74633047D02*
X108343819Y-74728285D01*
X108343819Y-73871142D02*
X107343819Y-73871142D01*
X107343819Y-73871142D02*
X107343819Y-73490190D01*
X107343819Y-73490190D02*
X107391438Y-73394952D01*
X107391438Y-73394952D02*
X107439057Y-73347333D01*
X107439057Y-73347333D02*
X107534295Y-73299714D01*
X107534295Y-73299714D02*
X107677152Y-73299714D01*
X107677152Y-73299714D02*
X107772390Y-73347333D01*
X107772390Y-73347333D02*
X107820009Y-73394952D01*
X107820009Y-73394952D02*
X107867628Y-73490190D01*
X107867628Y-73490190D02*
X107867628Y-73871142D01*
X107439057Y-72918761D02*
X107391438Y-72871142D01*
X107391438Y-72871142D02*
X107343819Y-72775904D01*
X107343819Y-72775904D02*
X107343819Y-72537809D01*
X107343819Y-72537809D02*
X107391438Y-72442571D01*
X107391438Y-72442571D02*
X107439057Y-72394952D01*
X107439057Y-72394952D02*
X107534295Y-72347333D01*
X107534295Y-72347333D02*
X107629533Y-72347333D01*
X107629533Y-72347333D02*
X107772390Y-72394952D01*
X107772390Y-72394952D02*
X108343819Y-72966380D01*
X108343819Y-72966380D02*
X108343819Y-72347333D01*
X99870833Y-81499580D02*
X99823214Y-81547200D01*
X99823214Y-81547200D02*
X99680357Y-81594819D01*
X99680357Y-81594819D02*
X99585119Y-81594819D01*
X99585119Y-81594819D02*
X99442262Y-81547200D01*
X99442262Y-81547200D02*
X99347024Y-81451961D01*
X99347024Y-81451961D02*
X99299405Y-81356723D01*
X99299405Y-81356723D02*
X99251786Y-81166247D01*
X99251786Y-81166247D02*
X99251786Y-81023390D01*
X99251786Y-81023390D02*
X99299405Y-80832914D01*
X99299405Y-80832914D02*
X99347024Y-80737676D01*
X99347024Y-80737676D02*
X99442262Y-80642438D01*
X99442262Y-80642438D02*
X99585119Y-80594819D01*
X99585119Y-80594819D02*
X99680357Y-80594819D01*
X99680357Y-80594819D02*
X99823214Y-80642438D01*
X99823214Y-80642438D02*
X99870833Y-80690057D01*
X100775595Y-80594819D02*
X100299405Y-80594819D01*
X100299405Y-80594819D02*
X100251786Y-81071009D01*
X100251786Y-81071009D02*
X100299405Y-81023390D01*
X100299405Y-81023390D02*
X100394643Y-80975771D01*
X100394643Y-80975771D02*
X100632738Y-80975771D01*
X100632738Y-80975771D02*
X100727976Y-81023390D01*
X100727976Y-81023390D02*
X100775595Y-81071009D01*
X100775595Y-81071009D02*
X100823214Y-81166247D01*
X100823214Y-81166247D02*
X100823214Y-81404342D01*
X100823214Y-81404342D02*
X100775595Y-81499580D01*
X100775595Y-81499580D02*
X100727976Y-81547200D01*
X100727976Y-81547200D02*
X100632738Y-81594819D01*
X100632738Y-81594819D02*
X100394643Y-81594819D01*
X100394643Y-81594819D02*
X100299405Y-81547200D01*
X100299405Y-81547200D02*
X100251786Y-81499580D01*
X107821819Y-82856904D02*
X108631342Y-82856904D01*
X108631342Y-82856904D02*
X108726580Y-82809285D01*
X108726580Y-82809285D02*
X108774200Y-82761666D01*
X108774200Y-82761666D02*
X108821819Y-82666428D01*
X108821819Y-82666428D02*
X108821819Y-82475952D01*
X108821819Y-82475952D02*
X108774200Y-82380714D01*
X108774200Y-82380714D02*
X108726580Y-82333095D01*
X108726580Y-82333095D02*
X108631342Y-82285476D01*
X108631342Y-82285476D02*
X107821819Y-82285476D01*
X107917057Y-81856904D02*
X107869438Y-81809285D01*
X107869438Y-81809285D02*
X107821819Y-81714047D01*
X107821819Y-81714047D02*
X107821819Y-81475952D01*
X107821819Y-81475952D02*
X107869438Y-81380714D01*
X107869438Y-81380714D02*
X107917057Y-81333095D01*
X107917057Y-81333095D02*
X108012295Y-81285476D01*
X108012295Y-81285476D02*
X108107533Y-81285476D01*
X108107533Y-81285476D02*
X108250390Y-81333095D01*
X108250390Y-81333095D02*
X108821819Y-81904523D01*
X108821819Y-81904523D02*
X108821819Y-81285476D01*
X105013151Y-86810875D02*
X105013151Y-85810875D01*
X105013151Y-86287065D02*
X105584579Y-86287065D01*
X105584579Y-86810875D02*
X105584579Y-85810875D01*
X106013151Y-85906113D02*
X106060770Y-85858494D01*
X106060770Y-85858494D02*
X106156008Y-85810875D01*
X106156008Y-85810875D02*
X106394103Y-85810875D01*
X106394103Y-85810875D02*
X106489341Y-85858494D01*
X106489341Y-85858494D02*
X106536960Y-85906113D01*
X106536960Y-85906113D02*
X106584579Y-86001351D01*
X106584579Y-86001351D02*
X106584579Y-86096589D01*
X106584579Y-86096589D02*
X106536960Y-86239446D01*
X106536960Y-86239446D02*
X105965532Y-86810875D01*
X105965532Y-86810875D02*
X106584579Y-86810875D01*
X106821333Y-71087819D02*
X106488000Y-70611628D01*
X106249905Y-71087819D02*
X106249905Y-70087819D01*
X106249905Y-70087819D02*
X106630857Y-70087819D01*
X106630857Y-70087819D02*
X106726095Y-70135438D01*
X106726095Y-70135438D02*
X106773714Y-70183057D01*
X106773714Y-70183057D02*
X106821333Y-70278295D01*
X106821333Y-70278295D02*
X106821333Y-70421152D01*
X106821333Y-70421152D02*
X106773714Y-70516390D01*
X106773714Y-70516390D02*
X106726095Y-70564009D01*
X106726095Y-70564009D02*
X106630857Y-70611628D01*
X106630857Y-70611628D02*
X106249905Y-70611628D01*
X107202286Y-70183057D02*
X107249905Y-70135438D01*
X107249905Y-70135438D02*
X107345143Y-70087819D01*
X107345143Y-70087819D02*
X107583238Y-70087819D01*
X107583238Y-70087819D02*
X107678476Y-70135438D01*
X107678476Y-70135438D02*
X107726095Y-70183057D01*
X107726095Y-70183057D02*
X107773714Y-70278295D01*
X107773714Y-70278295D02*
X107773714Y-70373533D01*
X107773714Y-70373533D02*
X107726095Y-70516390D01*
X107726095Y-70516390D02*
X107154667Y-71087819D01*
X107154667Y-71087819D02*
X107773714Y-71087819D01*
X84120833Y-75749580D02*
X84073214Y-75797200D01*
X84073214Y-75797200D02*
X83930357Y-75844819D01*
X83930357Y-75844819D02*
X83835119Y-75844819D01*
X83835119Y-75844819D02*
X83692262Y-75797200D01*
X83692262Y-75797200D02*
X83597024Y-75701961D01*
X83597024Y-75701961D02*
X83549405Y-75606723D01*
X83549405Y-75606723D02*
X83501786Y-75416247D01*
X83501786Y-75416247D02*
X83501786Y-75273390D01*
X83501786Y-75273390D02*
X83549405Y-75082914D01*
X83549405Y-75082914D02*
X83597024Y-74987676D01*
X83597024Y-74987676D02*
X83692262Y-74892438D01*
X83692262Y-74892438D02*
X83835119Y-74844819D01*
X83835119Y-74844819D02*
X83930357Y-74844819D01*
X83930357Y-74844819D02*
X84073214Y-74892438D01*
X84073214Y-74892438D02*
X84120833Y-74940057D01*
X85073214Y-75844819D02*
X84501786Y-75844819D01*
X84787500Y-75844819D02*
X84787500Y-74844819D01*
X84787500Y-74844819D02*
X84692262Y-74987676D01*
X84692262Y-74987676D02*
X84597024Y-75082914D01*
X84597024Y-75082914D02*
X84501786Y-75130533D01*
X77416666Y-48568819D02*
X77416666Y-49283104D01*
X77416666Y-49283104D02*
X77369047Y-49425961D01*
X77369047Y-49425961D02*
X77273809Y-49521200D01*
X77273809Y-49521200D02*
X77130952Y-49568819D01*
X77130952Y-49568819D02*
X77035714Y-49568819D01*
X77845238Y-48664057D02*
X77892857Y-48616438D01*
X77892857Y-48616438D02*
X77988095Y-48568819D01*
X77988095Y-48568819D02*
X78226190Y-48568819D01*
X78226190Y-48568819D02*
X78321428Y-48616438D01*
X78321428Y-48616438D02*
X78369047Y-48664057D01*
X78369047Y-48664057D02*
X78416666Y-48759295D01*
X78416666Y-48759295D02*
X78416666Y-48854533D01*
X78416666Y-48854533D02*
X78369047Y-48997390D01*
X78369047Y-48997390D02*
X77797619Y-49568819D01*
X77797619Y-49568819D02*
X78416666Y-49568819D01*
X75388095Y-69424819D02*
X75388095Y-70234342D01*
X75388095Y-70234342D02*
X75435714Y-70329580D01*
X75435714Y-70329580D02*
X75483333Y-70377200D01*
X75483333Y-70377200D02*
X75578571Y-70424819D01*
X75578571Y-70424819D02*
X75769047Y-70424819D01*
X75769047Y-70424819D02*
X75864285Y-70377200D01*
X75864285Y-70377200D02*
X75911904Y-70329580D01*
X75911904Y-70329580D02*
X75959523Y-70234342D01*
X75959523Y-70234342D02*
X75959523Y-69424819D01*
X76959523Y-70424819D02*
X76388095Y-70424819D01*
X76673809Y-70424819D02*
X76673809Y-69424819D01*
X76673809Y-69424819D02*
X76578571Y-69567676D01*
X76578571Y-69567676D02*
X76483333Y-69662914D01*
X76483333Y-69662914D02*
X76388095Y-69710533D01*
X78870833Y-75249580D02*
X78823214Y-75297200D01*
X78823214Y-75297200D02*
X78680357Y-75344819D01*
X78680357Y-75344819D02*
X78585119Y-75344819D01*
X78585119Y-75344819D02*
X78442262Y-75297200D01*
X78442262Y-75297200D02*
X78347024Y-75201961D01*
X78347024Y-75201961D02*
X78299405Y-75106723D01*
X78299405Y-75106723D02*
X78251786Y-74916247D01*
X78251786Y-74916247D02*
X78251786Y-74773390D01*
X78251786Y-74773390D02*
X78299405Y-74582914D01*
X78299405Y-74582914D02*
X78347024Y-74487676D01*
X78347024Y-74487676D02*
X78442262Y-74392438D01*
X78442262Y-74392438D02*
X78585119Y-74344819D01*
X78585119Y-74344819D02*
X78680357Y-74344819D01*
X78680357Y-74344819D02*
X78823214Y-74392438D01*
X78823214Y-74392438D02*
X78870833Y-74440057D01*
X79251786Y-74440057D02*
X79299405Y-74392438D01*
X79299405Y-74392438D02*
X79394643Y-74344819D01*
X79394643Y-74344819D02*
X79632738Y-74344819D01*
X79632738Y-74344819D02*
X79727976Y-74392438D01*
X79727976Y-74392438D02*
X79775595Y-74440057D01*
X79775595Y-74440057D02*
X79823214Y-74535295D01*
X79823214Y-74535295D02*
X79823214Y-74630533D01*
X79823214Y-74630533D02*
X79775595Y-74773390D01*
X79775595Y-74773390D02*
X79204167Y-75344819D01*
X79204167Y-75344819D02*
X79823214Y-75344819D01*
X92738095Y-78974819D02*
X92738095Y-79784342D01*
X92738095Y-79784342D02*
X92785714Y-79879580D01*
X92785714Y-79879580D02*
X92833333Y-79927200D01*
X92833333Y-79927200D02*
X92928571Y-79974819D01*
X92928571Y-79974819D02*
X93119047Y-79974819D01*
X93119047Y-79974819D02*
X93214285Y-79927200D01*
X93214285Y-79927200D02*
X93261904Y-79879580D01*
X93261904Y-79879580D02*
X93309523Y-79784342D01*
X93309523Y-79784342D02*
X93309523Y-78974819D01*
X93690476Y-78974819D02*
X94309523Y-78974819D01*
X94309523Y-78974819D02*
X93976190Y-79355771D01*
X93976190Y-79355771D02*
X94119047Y-79355771D01*
X94119047Y-79355771D02*
X94214285Y-79403390D01*
X94214285Y-79403390D02*
X94261904Y-79451009D01*
X94261904Y-79451009D02*
X94309523Y-79546247D01*
X94309523Y-79546247D02*
X94309523Y-79784342D01*
X94309523Y-79784342D02*
X94261904Y-79879580D01*
X94261904Y-79879580D02*
X94214285Y-79927200D01*
X94214285Y-79927200D02*
X94119047Y-79974819D01*
X94119047Y-79974819D02*
X93833333Y-79974819D01*
X93833333Y-79974819D02*
X93738095Y-79927200D01*
X93738095Y-79927200D02*
X93690476Y-79879580D01*
X71304819Y-59986666D02*
X70828628Y-60319999D01*
X71304819Y-60558094D02*
X70304819Y-60558094D01*
X70304819Y-60558094D02*
X70304819Y-60177142D01*
X70304819Y-60177142D02*
X70352438Y-60081904D01*
X70352438Y-60081904D02*
X70400057Y-60034285D01*
X70400057Y-60034285D02*
X70495295Y-59986666D01*
X70495295Y-59986666D02*
X70638152Y-59986666D01*
X70638152Y-59986666D02*
X70733390Y-60034285D01*
X70733390Y-60034285D02*
X70781009Y-60081904D01*
X70781009Y-60081904D02*
X70828628Y-60177142D01*
X70828628Y-60177142D02*
X70828628Y-60558094D01*
X70304819Y-59653332D02*
X70304819Y-58986666D01*
X70304819Y-58986666D02*
X71304819Y-59415237D01*
X55929166Y-56081009D02*
X55595833Y-56081009D01*
X55595833Y-56604819D02*
X55595833Y-55604819D01*
X55595833Y-55604819D02*
X56072023Y-55604819D01*
X56976785Y-56604819D02*
X56405357Y-56604819D01*
X56691071Y-56604819D02*
X56691071Y-55604819D01*
X56691071Y-55604819D02*
X56595833Y-55747676D01*
X56595833Y-55747676D02*
X56500595Y-55842914D01*
X56500595Y-55842914D02*
X56405357Y-55890533D01*
X82764819Y-62331666D02*
X82288628Y-62664999D01*
X82764819Y-62903094D02*
X81764819Y-62903094D01*
X81764819Y-62903094D02*
X81764819Y-62522142D01*
X81764819Y-62522142D02*
X81812438Y-62426904D01*
X81812438Y-62426904D02*
X81860057Y-62379285D01*
X81860057Y-62379285D02*
X81955295Y-62331666D01*
X81955295Y-62331666D02*
X82098152Y-62331666D01*
X82098152Y-62331666D02*
X82193390Y-62379285D01*
X82193390Y-62379285D02*
X82241009Y-62426904D01*
X82241009Y-62426904D02*
X82288628Y-62522142D01*
X82288628Y-62522142D02*
X82288628Y-62903094D01*
X82098152Y-61474523D02*
X82764819Y-61474523D01*
X81717200Y-61712618D02*
X82431485Y-61950713D01*
X82431485Y-61950713D02*
X82431485Y-61331666D01*
X52178571Y-79751009D02*
X51845238Y-79751009D01*
X51845238Y-80274819D02*
X51845238Y-79274819D01*
X51845238Y-79274819D02*
X52321428Y-79274819D01*
X52702381Y-80274819D02*
X52702381Y-79274819D01*
X53178571Y-80274819D02*
X53178571Y-79274819D01*
X53178571Y-79274819D02*
X53416666Y-79274819D01*
X53416666Y-79274819D02*
X53559523Y-79322438D01*
X53559523Y-79322438D02*
X53654761Y-79417676D01*
X53654761Y-79417676D02*
X53702380Y-79512914D01*
X53702380Y-79512914D02*
X53749999Y-79703390D01*
X53749999Y-79703390D02*
X53749999Y-79846247D01*
X53749999Y-79846247D02*
X53702380Y-80036723D01*
X53702380Y-80036723D02*
X53654761Y-80131961D01*
X53654761Y-80131961D02*
X53559523Y-80227200D01*
X53559523Y-80227200D02*
X53416666Y-80274819D01*
X53416666Y-80274819D02*
X53178571Y-80274819D01*
X54130952Y-79370057D02*
X54178571Y-79322438D01*
X54178571Y-79322438D02*
X54273809Y-79274819D01*
X54273809Y-79274819D02*
X54511904Y-79274819D01*
X54511904Y-79274819D02*
X54607142Y-79322438D01*
X54607142Y-79322438D02*
X54654761Y-79370057D01*
X54654761Y-79370057D02*
X54702380Y-79465295D01*
X54702380Y-79465295D02*
X54702380Y-79560533D01*
X54702380Y-79560533D02*
X54654761Y-79703390D01*
X54654761Y-79703390D02*
X54083333Y-80274819D01*
X54083333Y-80274819D02*
X54702380Y-80274819D01*
X105428571Y-66751009D02*
X105095238Y-66751009D01*
X105095238Y-67274819D02*
X105095238Y-66274819D01*
X105095238Y-66274819D02*
X105571428Y-66274819D01*
X105952381Y-67274819D02*
X105952381Y-66274819D01*
X106428571Y-67274819D02*
X106428571Y-66274819D01*
X106428571Y-66274819D02*
X106666666Y-66274819D01*
X106666666Y-66274819D02*
X106809523Y-66322438D01*
X106809523Y-66322438D02*
X106904761Y-66417676D01*
X106904761Y-66417676D02*
X106952380Y-66512914D01*
X106952380Y-66512914D02*
X106999999Y-66703390D01*
X106999999Y-66703390D02*
X106999999Y-66846247D01*
X106999999Y-66846247D02*
X106952380Y-67036723D01*
X106952380Y-67036723D02*
X106904761Y-67131961D01*
X106904761Y-67131961D02*
X106809523Y-67227200D01*
X106809523Y-67227200D02*
X106666666Y-67274819D01*
X106666666Y-67274819D02*
X106428571Y-67274819D01*
X107333333Y-66274819D02*
X107952380Y-66274819D01*
X107952380Y-66274819D02*
X107619047Y-66655771D01*
X107619047Y-66655771D02*
X107761904Y-66655771D01*
X107761904Y-66655771D02*
X107857142Y-66703390D01*
X107857142Y-66703390D02*
X107904761Y-66751009D01*
X107904761Y-66751009D02*
X107952380Y-66846247D01*
X107952380Y-66846247D02*
X107952380Y-67084342D01*
X107952380Y-67084342D02*
X107904761Y-67179580D01*
X107904761Y-67179580D02*
X107857142Y-67227200D01*
X107857142Y-67227200D02*
X107761904Y-67274819D01*
X107761904Y-67274819D02*
X107476190Y-67274819D01*
X107476190Y-67274819D02*
X107380952Y-67227200D01*
X107380952Y-67227200D02*
X107333333Y-67179580D01*
X55883333Y-59689580D02*
X55835714Y-59737200D01*
X55835714Y-59737200D02*
X55692857Y-59784819D01*
X55692857Y-59784819D02*
X55597619Y-59784819D01*
X55597619Y-59784819D02*
X55454762Y-59737200D01*
X55454762Y-59737200D02*
X55359524Y-59641961D01*
X55359524Y-59641961D02*
X55311905Y-59546723D01*
X55311905Y-59546723D02*
X55264286Y-59356247D01*
X55264286Y-59356247D02*
X55264286Y-59213390D01*
X55264286Y-59213390D02*
X55311905Y-59022914D01*
X55311905Y-59022914D02*
X55359524Y-58927676D01*
X55359524Y-58927676D02*
X55454762Y-58832438D01*
X55454762Y-58832438D02*
X55597619Y-58784819D01*
X55597619Y-58784819D02*
X55692857Y-58784819D01*
X55692857Y-58784819D02*
X55835714Y-58832438D01*
X55835714Y-58832438D02*
X55883333Y-58880057D01*
X56216667Y-58784819D02*
X56835714Y-58784819D01*
X56835714Y-58784819D02*
X56502381Y-59165771D01*
X56502381Y-59165771D02*
X56645238Y-59165771D01*
X56645238Y-59165771D02*
X56740476Y-59213390D01*
X56740476Y-59213390D02*
X56788095Y-59261009D01*
X56788095Y-59261009D02*
X56835714Y-59356247D01*
X56835714Y-59356247D02*
X56835714Y-59594342D01*
X56835714Y-59594342D02*
X56788095Y-59689580D01*
X56788095Y-59689580D02*
X56740476Y-59737200D01*
X56740476Y-59737200D02*
X56645238Y-59784819D01*
X56645238Y-59784819D02*
X56359524Y-59784819D01*
X56359524Y-59784819D02*
X56264286Y-59737200D01*
X56264286Y-59737200D02*
X56216667Y-59689580D01*
X58679580Y-67274166D02*
X58727200Y-67321785D01*
X58727200Y-67321785D02*
X58774819Y-67464642D01*
X58774819Y-67464642D02*
X58774819Y-67559880D01*
X58774819Y-67559880D02*
X58727200Y-67702737D01*
X58727200Y-67702737D02*
X58631961Y-67797975D01*
X58631961Y-67797975D02*
X58536723Y-67845594D01*
X58536723Y-67845594D02*
X58346247Y-67893213D01*
X58346247Y-67893213D02*
X58203390Y-67893213D01*
X58203390Y-67893213D02*
X58012914Y-67845594D01*
X58012914Y-67845594D02*
X57917676Y-67797975D01*
X57917676Y-67797975D02*
X57822438Y-67702737D01*
X57822438Y-67702737D02*
X57774819Y-67559880D01*
X57774819Y-67559880D02*
X57774819Y-67464642D01*
X57774819Y-67464642D02*
X57822438Y-67321785D01*
X57822438Y-67321785D02*
X57870057Y-67274166D01*
X58108152Y-66417023D02*
X58774819Y-66417023D01*
X57727200Y-66655118D02*
X58441485Y-66893213D01*
X58441485Y-66893213D02*
X58441485Y-66274166D01*
X55057142Y-70189580D02*
X55009523Y-70237200D01*
X55009523Y-70237200D02*
X54866666Y-70284819D01*
X54866666Y-70284819D02*
X54771428Y-70284819D01*
X54771428Y-70284819D02*
X54628571Y-70237200D01*
X54628571Y-70237200D02*
X54533333Y-70141961D01*
X54533333Y-70141961D02*
X54485714Y-70046723D01*
X54485714Y-70046723D02*
X54438095Y-69856247D01*
X54438095Y-69856247D02*
X54438095Y-69713390D01*
X54438095Y-69713390D02*
X54485714Y-69522914D01*
X54485714Y-69522914D02*
X54533333Y-69427676D01*
X54533333Y-69427676D02*
X54628571Y-69332438D01*
X54628571Y-69332438D02*
X54771428Y-69284819D01*
X54771428Y-69284819D02*
X54866666Y-69284819D01*
X54866666Y-69284819D02*
X55009523Y-69332438D01*
X55009523Y-69332438D02*
X55057142Y-69380057D01*
X56009523Y-70284819D02*
X55438095Y-70284819D01*
X55723809Y-70284819D02*
X55723809Y-69284819D01*
X55723809Y-69284819D02*
X55628571Y-69427676D01*
X55628571Y-69427676D02*
X55533333Y-69522914D01*
X55533333Y-69522914D02*
X55438095Y-69570533D01*
X56342857Y-69284819D02*
X56961904Y-69284819D01*
X56961904Y-69284819D02*
X56628571Y-69665771D01*
X56628571Y-69665771D02*
X56771428Y-69665771D01*
X56771428Y-69665771D02*
X56866666Y-69713390D01*
X56866666Y-69713390D02*
X56914285Y-69761009D01*
X56914285Y-69761009D02*
X56961904Y-69856247D01*
X56961904Y-69856247D02*
X56961904Y-70094342D01*
X56961904Y-70094342D02*
X56914285Y-70189580D01*
X56914285Y-70189580D02*
X56866666Y-70237200D01*
X56866666Y-70237200D02*
X56771428Y-70284819D01*
X56771428Y-70284819D02*
X56485714Y-70284819D01*
X56485714Y-70284819D02*
X56390476Y-70237200D01*
X56390476Y-70237200D02*
X56342857Y-70189580D01*
X55057142Y-75479580D02*
X55009523Y-75527200D01*
X55009523Y-75527200D02*
X54866666Y-75574819D01*
X54866666Y-75574819D02*
X54771428Y-75574819D01*
X54771428Y-75574819D02*
X54628571Y-75527200D01*
X54628571Y-75527200D02*
X54533333Y-75431961D01*
X54533333Y-75431961D02*
X54485714Y-75336723D01*
X54485714Y-75336723D02*
X54438095Y-75146247D01*
X54438095Y-75146247D02*
X54438095Y-75003390D01*
X54438095Y-75003390D02*
X54485714Y-74812914D01*
X54485714Y-74812914D02*
X54533333Y-74717676D01*
X54533333Y-74717676D02*
X54628571Y-74622438D01*
X54628571Y-74622438D02*
X54771428Y-74574819D01*
X54771428Y-74574819D02*
X54866666Y-74574819D01*
X54866666Y-74574819D02*
X55009523Y-74622438D01*
X55009523Y-74622438D02*
X55057142Y-74670057D01*
X56009523Y-75574819D02*
X55438095Y-75574819D01*
X55723809Y-75574819D02*
X55723809Y-74574819D01*
X55723809Y-74574819D02*
X55628571Y-74717676D01*
X55628571Y-74717676D02*
X55533333Y-74812914D01*
X55533333Y-74812914D02*
X55438095Y-74860533D01*
X56866666Y-74908152D02*
X56866666Y-75574819D01*
X56628571Y-74527200D02*
X56390476Y-75241485D01*
X56390476Y-75241485D02*
X57009523Y-75241485D01*
X109004819Y-58403333D02*
X109719104Y-58403333D01*
X109719104Y-58403333D02*
X109861961Y-58450952D01*
X109861961Y-58450952D02*
X109957200Y-58546190D01*
X109957200Y-58546190D02*
X110004819Y-58689047D01*
X110004819Y-58689047D02*
X110004819Y-58784285D01*
X109004819Y-57498571D02*
X109004819Y-57689047D01*
X109004819Y-57689047D02*
X109052438Y-57784285D01*
X109052438Y-57784285D02*
X109100057Y-57831904D01*
X109100057Y-57831904D02*
X109242914Y-57927142D01*
X109242914Y-57927142D02*
X109433390Y-57974761D01*
X109433390Y-57974761D02*
X109814342Y-57974761D01*
X109814342Y-57974761D02*
X109909580Y-57927142D01*
X109909580Y-57927142D02*
X109957200Y-57879523D01*
X109957200Y-57879523D02*
X110004819Y-57784285D01*
X110004819Y-57784285D02*
X110004819Y-57593809D01*
X110004819Y-57593809D02*
X109957200Y-57498571D01*
X109957200Y-57498571D02*
X109909580Y-57450952D01*
X109909580Y-57450952D02*
X109814342Y-57403333D01*
X109814342Y-57403333D02*
X109576247Y-57403333D01*
X109576247Y-57403333D02*
X109481009Y-57450952D01*
X109481009Y-57450952D02*
X109433390Y-57498571D01*
X109433390Y-57498571D02*
X109385771Y-57593809D01*
X109385771Y-57593809D02*
X109385771Y-57784285D01*
X109385771Y-57784285D02*
X109433390Y-57879523D01*
X109433390Y-57879523D02*
X109481009Y-57927142D01*
X109481009Y-57927142D02*
X109576247Y-57974761D01*
X60804819Y-67424166D02*
X60804819Y-67900356D01*
X60804819Y-67900356D02*
X59804819Y-67900356D01*
X60804819Y-66567023D02*
X60804819Y-67138451D01*
X60804819Y-66852737D02*
X59804819Y-66852737D01*
X59804819Y-66852737D02*
X59947676Y-66947975D01*
X59947676Y-66947975D02*
X60042914Y-67043213D01*
X60042914Y-67043213D02*
X60090533Y-67138451D01*
X96071666Y-93445819D02*
X96071666Y-94160104D01*
X96071666Y-94160104D02*
X96024047Y-94302961D01*
X96024047Y-94302961D02*
X95928809Y-94398200D01*
X95928809Y-94398200D02*
X95785952Y-94445819D01*
X95785952Y-94445819D02*
X95690714Y-94445819D01*
X97071666Y-94445819D02*
X96500238Y-94445819D01*
X96785952Y-94445819D02*
X96785952Y-93445819D01*
X96785952Y-93445819D02*
X96690714Y-93588676D01*
X96690714Y-93588676D02*
X96595476Y-93683914D01*
X96595476Y-93683914D02*
X96500238Y-93731533D01*
X80534819Y-87653333D02*
X81249104Y-87653333D01*
X81249104Y-87653333D02*
X81391961Y-87700952D01*
X81391961Y-87700952D02*
X81487200Y-87796190D01*
X81487200Y-87796190D02*
X81534819Y-87939047D01*
X81534819Y-87939047D02*
X81534819Y-88034285D01*
X80963390Y-87034285D02*
X80915771Y-87129523D01*
X80915771Y-87129523D02*
X80868152Y-87177142D01*
X80868152Y-87177142D02*
X80772914Y-87224761D01*
X80772914Y-87224761D02*
X80725295Y-87224761D01*
X80725295Y-87224761D02*
X80630057Y-87177142D01*
X80630057Y-87177142D02*
X80582438Y-87129523D01*
X80582438Y-87129523D02*
X80534819Y-87034285D01*
X80534819Y-87034285D02*
X80534819Y-86843809D01*
X80534819Y-86843809D02*
X80582438Y-86748571D01*
X80582438Y-86748571D02*
X80630057Y-86700952D01*
X80630057Y-86700952D02*
X80725295Y-86653333D01*
X80725295Y-86653333D02*
X80772914Y-86653333D01*
X80772914Y-86653333D02*
X80868152Y-86700952D01*
X80868152Y-86700952D02*
X80915771Y-86748571D01*
X80915771Y-86748571D02*
X80963390Y-86843809D01*
X80963390Y-86843809D02*
X80963390Y-87034285D01*
X80963390Y-87034285D02*
X81011009Y-87129523D01*
X81011009Y-87129523D02*
X81058628Y-87177142D01*
X81058628Y-87177142D02*
X81153866Y-87224761D01*
X81153866Y-87224761D02*
X81344342Y-87224761D01*
X81344342Y-87224761D02*
X81439580Y-87177142D01*
X81439580Y-87177142D02*
X81487200Y-87129523D01*
X81487200Y-87129523D02*
X81534819Y-87034285D01*
X81534819Y-87034285D02*
X81534819Y-86843809D01*
X81534819Y-86843809D02*
X81487200Y-86748571D01*
X81487200Y-86748571D02*
X81439580Y-86700952D01*
X81439580Y-86700952D02*
X81344342Y-86653333D01*
X81344342Y-86653333D02*
X81153866Y-86653333D01*
X81153866Y-86653333D02*
X81058628Y-86700952D01*
X81058628Y-86700952D02*
X81011009Y-86748571D01*
X81011009Y-86748571D02*
X80963390Y-86843809D01*
X105095833Y-67429580D02*
X105048214Y-67477200D01*
X105048214Y-67477200D02*
X104905357Y-67524819D01*
X104905357Y-67524819D02*
X104810119Y-67524819D01*
X104810119Y-67524819D02*
X104667262Y-67477200D01*
X104667262Y-67477200D02*
X104572024Y-67381961D01*
X104572024Y-67381961D02*
X104524405Y-67286723D01*
X104524405Y-67286723D02*
X104476786Y-67096247D01*
X104476786Y-67096247D02*
X104476786Y-66953390D01*
X104476786Y-66953390D02*
X104524405Y-66762914D01*
X104524405Y-66762914D02*
X104572024Y-66667676D01*
X104572024Y-66667676D02*
X104667262Y-66572438D01*
X104667262Y-66572438D02*
X104810119Y-66524819D01*
X104810119Y-66524819D02*
X104905357Y-66524819D01*
X104905357Y-66524819D02*
X105048214Y-66572438D01*
X105048214Y-66572438D02*
X105095833Y-66620057D01*
X105429167Y-66524819D02*
X106095833Y-66524819D01*
X106095833Y-66524819D02*
X105667262Y-67524819D01*
X66416666Y-48568819D02*
X66416666Y-49283104D01*
X66416666Y-49283104D02*
X66369047Y-49425961D01*
X66369047Y-49425961D02*
X66273809Y-49521200D01*
X66273809Y-49521200D02*
X66130952Y-49568819D01*
X66130952Y-49568819D02*
X66035714Y-49568819D01*
X67321428Y-48902152D02*
X67321428Y-49568819D01*
X67083333Y-48521200D02*
X66845238Y-49235485D01*
X66845238Y-49235485D02*
X67464285Y-49235485D01*
X75009580Y-60150357D02*
X75057200Y-60197976D01*
X75057200Y-60197976D02*
X75104819Y-60340833D01*
X75104819Y-60340833D02*
X75104819Y-60436071D01*
X75104819Y-60436071D02*
X75057200Y-60578928D01*
X75057200Y-60578928D02*
X74961961Y-60674166D01*
X74961961Y-60674166D02*
X74866723Y-60721785D01*
X74866723Y-60721785D02*
X74676247Y-60769404D01*
X74676247Y-60769404D02*
X74533390Y-60769404D01*
X74533390Y-60769404D02*
X74342914Y-60721785D01*
X74342914Y-60721785D02*
X74247676Y-60674166D01*
X74247676Y-60674166D02*
X74152438Y-60578928D01*
X74152438Y-60578928D02*
X74104819Y-60436071D01*
X74104819Y-60436071D02*
X74104819Y-60340833D01*
X74104819Y-60340833D02*
X74152438Y-60197976D01*
X74152438Y-60197976D02*
X74200057Y-60150357D01*
X75104819Y-59197976D02*
X75104819Y-59769404D01*
X75104819Y-59483690D02*
X74104819Y-59483690D01*
X74104819Y-59483690D02*
X74247676Y-59578928D01*
X74247676Y-59578928D02*
X74342914Y-59674166D01*
X74342914Y-59674166D02*
X74390533Y-59769404D01*
X75104819Y-58245595D02*
X75104819Y-58817023D01*
X75104819Y-58531309D02*
X74104819Y-58531309D01*
X74104819Y-58531309D02*
X74247676Y-58626547D01*
X74247676Y-58626547D02*
X74342914Y-58721785D01*
X74342914Y-58721785D02*
X74390533Y-58817023D01*
X92238095Y-56524819D02*
X92238095Y-57334342D01*
X92238095Y-57334342D02*
X92285714Y-57429580D01*
X92285714Y-57429580D02*
X92333333Y-57477200D01*
X92333333Y-57477200D02*
X92428571Y-57524819D01*
X92428571Y-57524819D02*
X92619047Y-57524819D01*
X92619047Y-57524819D02*
X92714285Y-57477200D01*
X92714285Y-57477200D02*
X92761904Y-57429580D01*
X92761904Y-57429580D02*
X92809523Y-57334342D01*
X92809523Y-57334342D02*
X92809523Y-56524819D01*
X93761904Y-56524819D02*
X93285714Y-56524819D01*
X93285714Y-56524819D02*
X93238095Y-57001009D01*
X93238095Y-57001009D02*
X93285714Y-56953390D01*
X93285714Y-56953390D02*
X93380952Y-56905771D01*
X93380952Y-56905771D02*
X93619047Y-56905771D01*
X93619047Y-56905771D02*
X93714285Y-56953390D01*
X93714285Y-56953390D02*
X93761904Y-57001009D01*
X93761904Y-57001009D02*
X93809523Y-57096247D01*
X93809523Y-57096247D02*
X93809523Y-57334342D01*
X93809523Y-57334342D02*
X93761904Y-57429580D01*
X93761904Y-57429580D02*
X93714285Y-57477200D01*
X93714285Y-57477200D02*
X93619047Y-57524819D01*
X93619047Y-57524819D02*
X93380952Y-57524819D01*
X93380952Y-57524819D02*
X93285714Y-57477200D01*
X93285714Y-57477200D02*
X93238095Y-57429580D01*
X89047619Y-57429580D02*
X89000000Y-57477200D01*
X89000000Y-57477200D02*
X88857143Y-57524819D01*
X88857143Y-57524819D02*
X88761905Y-57524819D01*
X88761905Y-57524819D02*
X88619048Y-57477200D01*
X88619048Y-57477200D02*
X88523810Y-57381961D01*
X88523810Y-57381961D02*
X88476191Y-57286723D01*
X88476191Y-57286723D02*
X88428572Y-57096247D01*
X88428572Y-57096247D02*
X88428572Y-56953390D01*
X88428572Y-56953390D02*
X88476191Y-56762914D01*
X88476191Y-56762914D02*
X88523810Y-56667676D01*
X88523810Y-56667676D02*
X88619048Y-56572438D01*
X88619048Y-56572438D02*
X88761905Y-56524819D01*
X88761905Y-56524819D02*
X88857143Y-56524819D01*
X88857143Y-56524819D02*
X89000000Y-56572438D01*
X89000000Y-56572438D02*
X89047619Y-56620057D01*
X89428572Y-57239104D02*
X89904762Y-57239104D01*
X89333334Y-57524819D02*
X89666667Y-56524819D01*
X89666667Y-56524819D02*
X90000000Y-57524819D01*
X90333334Y-57524819D02*
X90333334Y-56524819D01*
X90333334Y-56524819D02*
X90666667Y-57239104D01*
X90666667Y-57239104D02*
X91000000Y-56524819D01*
X91000000Y-56524819D02*
X91000000Y-57524819D01*
X91476191Y-57143866D02*
X92238096Y-57143866D01*
X92714286Y-57524819D02*
X92714286Y-56524819D01*
X92714286Y-56524819D02*
X93047619Y-57239104D01*
X93047619Y-57239104D02*
X93380952Y-56524819D01*
X93380952Y-56524819D02*
X93380952Y-57524819D01*
X94000000Y-56953390D02*
X93904762Y-56905771D01*
X93904762Y-56905771D02*
X93857143Y-56858152D01*
X93857143Y-56858152D02*
X93809524Y-56762914D01*
X93809524Y-56762914D02*
X93809524Y-56715295D01*
X93809524Y-56715295D02*
X93857143Y-56620057D01*
X93857143Y-56620057D02*
X93904762Y-56572438D01*
X93904762Y-56572438D02*
X94000000Y-56524819D01*
X94000000Y-56524819D02*
X94190476Y-56524819D01*
X94190476Y-56524819D02*
X94285714Y-56572438D01*
X94285714Y-56572438D02*
X94333333Y-56620057D01*
X94333333Y-56620057D02*
X94380952Y-56715295D01*
X94380952Y-56715295D02*
X94380952Y-56762914D01*
X94380952Y-56762914D02*
X94333333Y-56858152D01*
X94333333Y-56858152D02*
X94285714Y-56905771D01*
X94285714Y-56905771D02*
X94190476Y-56953390D01*
X94190476Y-56953390D02*
X94000000Y-56953390D01*
X94000000Y-56953390D02*
X93904762Y-57001009D01*
X93904762Y-57001009D02*
X93857143Y-57048628D01*
X93857143Y-57048628D02*
X93809524Y-57143866D01*
X93809524Y-57143866D02*
X93809524Y-57334342D01*
X93809524Y-57334342D02*
X93857143Y-57429580D01*
X93857143Y-57429580D02*
X93904762Y-57477200D01*
X93904762Y-57477200D02*
X94000000Y-57524819D01*
X94000000Y-57524819D02*
X94190476Y-57524819D01*
X94190476Y-57524819D02*
X94285714Y-57477200D01*
X94285714Y-57477200D02*
X94333333Y-57429580D01*
X94333333Y-57429580D02*
X94380952Y-57334342D01*
X94380952Y-57334342D02*
X94380952Y-57143866D01*
X94380952Y-57143866D02*
X94333333Y-57048628D01*
X94333333Y-57048628D02*
X94285714Y-57001009D01*
X94285714Y-57001009D02*
X94190476Y-56953390D01*
X95380952Y-57429580D02*
X95333333Y-57477200D01*
X95333333Y-57477200D02*
X95190476Y-57524819D01*
X95190476Y-57524819D02*
X95095238Y-57524819D01*
X95095238Y-57524819D02*
X94952381Y-57477200D01*
X94952381Y-57477200D02*
X94857143Y-57381961D01*
X94857143Y-57381961D02*
X94809524Y-57286723D01*
X94809524Y-57286723D02*
X94761905Y-57096247D01*
X94761905Y-57096247D02*
X94761905Y-56953390D01*
X94761905Y-56953390D02*
X94809524Y-56762914D01*
X94809524Y-56762914D02*
X94857143Y-56667676D01*
X94857143Y-56667676D02*
X94952381Y-56572438D01*
X94952381Y-56572438D02*
X95095238Y-56524819D01*
X95095238Y-56524819D02*
X95190476Y-56524819D01*
X95190476Y-56524819D02*
X95333333Y-56572438D01*
X95333333Y-56572438D02*
X95380952Y-56620057D01*
X95809524Y-57143866D02*
X96571429Y-57143866D01*
X97238095Y-56524819D02*
X97333333Y-56524819D01*
X97333333Y-56524819D02*
X97428571Y-56572438D01*
X97428571Y-56572438D02*
X97476190Y-56620057D01*
X97476190Y-56620057D02*
X97523809Y-56715295D01*
X97523809Y-56715295D02*
X97571428Y-56905771D01*
X97571428Y-56905771D02*
X97571428Y-57143866D01*
X97571428Y-57143866D02*
X97523809Y-57334342D01*
X97523809Y-57334342D02*
X97476190Y-57429580D01*
X97476190Y-57429580D02*
X97428571Y-57477200D01*
X97428571Y-57477200D02*
X97333333Y-57524819D01*
X97333333Y-57524819D02*
X97238095Y-57524819D01*
X97238095Y-57524819D02*
X97142857Y-57477200D01*
X97142857Y-57477200D02*
X97095238Y-57429580D01*
X97095238Y-57429580D02*
X97047619Y-57334342D01*
X97047619Y-57334342D02*
X97000000Y-57143866D01*
X97000000Y-57143866D02*
X97000000Y-56905771D01*
X97000000Y-56905771D02*
X97047619Y-56715295D01*
X97047619Y-56715295D02*
X97095238Y-56620057D01*
X97095238Y-56620057D02*
X97142857Y-56572438D01*
X97142857Y-56572438D02*
X97238095Y-56524819D01*
X93000000Y-56524819D02*
X93000000Y-56762914D01*
X92761905Y-56667676D02*
X93000000Y-56762914D01*
X93000000Y-56762914D02*
X93238095Y-56667676D01*
X92857143Y-56953390D02*
X93000000Y-56762914D01*
X93000000Y-56762914D02*
X93142857Y-56953390D01*
X84955580Y-62369166D02*
X85003200Y-62416785D01*
X85003200Y-62416785D02*
X85050819Y-62559642D01*
X85050819Y-62559642D02*
X85050819Y-62654880D01*
X85050819Y-62654880D02*
X85003200Y-62797737D01*
X85003200Y-62797737D02*
X84907961Y-62892975D01*
X84907961Y-62892975D02*
X84812723Y-62940594D01*
X84812723Y-62940594D02*
X84622247Y-62988213D01*
X84622247Y-62988213D02*
X84479390Y-62988213D01*
X84479390Y-62988213D02*
X84288914Y-62940594D01*
X84288914Y-62940594D02*
X84193676Y-62892975D01*
X84193676Y-62892975D02*
X84098438Y-62797737D01*
X84098438Y-62797737D02*
X84050819Y-62654880D01*
X84050819Y-62654880D02*
X84050819Y-62559642D01*
X84050819Y-62559642D02*
X84098438Y-62416785D01*
X84098438Y-62416785D02*
X84146057Y-62369166D01*
X85050819Y-61892975D02*
X85050819Y-61702499D01*
X85050819Y-61702499D02*
X85003200Y-61607261D01*
X85003200Y-61607261D02*
X84955580Y-61559642D01*
X84955580Y-61559642D02*
X84812723Y-61464404D01*
X84812723Y-61464404D02*
X84622247Y-61416785D01*
X84622247Y-61416785D02*
X84241295Y-61416785D01*
X84241295Y-61416785D02*
X84146057Y-61464404D01*
X84146057Y-61464404D02*
X84098438Y-61512023D01*
X84098438Y-61512023D02*
X84050819Y-61607261D01*
X84050819Y-61607261D02*
X84050819Y-61797737D01*
X84050819Y-61797737D02*
X84098438Y-61892975D01*
X84098438Y-61892975D02*
X84146057Y-61940594D01*
X84146057Y-61940594D02*
X84241295Y-61988213D01*
X84241295Y-61988213D02*
X84479390Y-61988213D01*
X84479390Y-61988213D02*
X84574628Y-61940594D01*
X84574628Y-61940594D02*
X84622247Y-61892975D01*
X84622247Y-61892975D02*
X84669866Y-61797737D01*
X84669866Y-61797737D02*
X84669866Y-61607261D01*
X84669866Y-61607261D02*
X84622247Y-61512023D01*
X84622247Y-61512023D02*
X84574628Y-61464404D01*
X84574628Y-61464404D02*
X84479390Y-61416785D01*
X54988095Y-65234819D02*
X54988095Y-66044342D01*
X54988095Y-66044342D02*
X55035714Y-66139580D01*
X55035714Y-66139580D02*
X55083333Y-66187200D01*
X55083333Y-66187200D02*
X55178571Y-66234819D01*
X55178571Y-66234819D02*
X55369047Y-66234819D01*
X55369047Y-66234819D02*
X55464285Y-66187200D01*
X55464285Y-66187200D02*
X55511904Y-66139580D01*
X55511904Y-66139580D02*
X55559523Y-66044342D01*
X55559523Y-66044342D02*
X55559523Y-65234819D01*
X56464285Y-65568152D02*
X56464285Y-66234819D01*
X56226190Y-65187200D02*
X55988095Y-65901485D01*
X55988095Y-65901485D02*
X56607142Y-65901485D01*
X98179580Y-62500357D02*
X98227200Y-62547976D01*
X98227200Y-62547976D02*
X98274819Y-62690833D01*
X98274819Y-62690833D02*
X98274819Y-62786071D01*
X98274819Y-62786071D02*
X98227200Y-62928928D01*
X98227200Y-62928928D02*
X98131961Y-63024166D01*
X98131961Y-63024166D02*
X98036723Y-63071785D01*
X98036723Y-63071785D02*
X97846247Y-63119404D01*
X97846247Y-63119404D02*
X97703390Y-63119404D01*
X97703390Y-63119404D02*
X97512914Y-63071785D01*
X97512914Y-63071785D02*
X97417676Y-63024166D01*
X97417676Y-63024166D02*
X97322438Y-62928928D01*
X97322438Y-62928928D02*
X97274819Y-62786071D01*
X97274819Y-62786071D02*
X97274819Y-62690833D01*
X97274819Y-62690833D02*
X97322438Y-62547976D01*
X97322438Y-62547976D02*
X97370057Y-62500357D01*
X98274819Y-61547976D02*
X98274819Y-62119404D01*
X98274819Y-61833690D02*
X97274819Y-61833690D01*
X97274819Y-61833690D02*
X97417676Y-61928928D01*
X97417676Y-61928928D02*
X97512914Y-62024166D01*
X97512914Y-62024166D02*
X97560533Y-62119404D01*
X97274819Y-60643214D02*
X97274819Y-61119404D01*
X97274819Y-61119404D02*
X97751009Y-61167023D01*
X97751009Y-61167023D02*
X97703390Y-61119404D01*
X97703390Y-61119404D02*
X97655771Y-61024166D01*
X97655771Y-61024166D02*
X97655771Y-60786071D01*
X97655771Y-60786071D02*
X97703390Y-60690833D01*
X97703390Y-60690833D02*
X97751009Y-60643214D01*
X97751009Y-60643214D02*
X97846247Y-60595595D01*
X97846247Y-60595595D02*
X98084342Y-60595595D01*
X98084342Y-60595595D02*
X98179580Y-60643214D01*
X98179580Y-60643214D02*
X98227200Y-60690833D01*
X98227200Y-60690833D02*
X98274819Y-60786071D01*
X98274819Y-60786071D02*
X98274819Y-61024166D01*
X98274819Y-61024166D02*
X98227200Y-61119404D01*
X98227200Y-61119404D02*
X98179580Y-61167023D01*
X83715476Y-55024819D02*
X84382142Y-56024819D01*
X84382142Y-55024819D02*
X83715476Y-56024819D01*
X85286904Y-56024819D02*
X84715476Y-56024819D01*
X85001190Y-56024819D02*
X85001190Y-55024819D01*
X85001190Y-55024819D02*
X84905952Y-55167676D01*
X84905952Y-55167676D02*
X84810714Y-55262914D01*
X84810714Y-55262914D02*
X84715476Y-55310533D01*
X80928571Y-66501009D02*
X80595238Y-66501009D01*
X80595238Y-67024819D02*
X80595238Y-66024819D01*
X80595238Y-66024819D02*
X81071428Y-66024819D01*
X81452381Y-67024819D02*
X81452381Y-66024819D01*
X81928571Y-67024819D02*
X81928571Y-66024819D01*
X81928571Y-66024819D02*
X82166666Y-66024819D01*
X82166666Y-66024819D02*
X82309523Y-66072438D01*
X82309523Y-66072438D02*
X82404761Y-66167676D01*
X82404761Y-66167676D02*
X82452380Y-66262914D01*
X82452380Y-66262914D02*
X82499999Y-66453390D01*
X82499999Y-66453390D02*
X82499999Y-66596247D01*
X82499999Y-66596247D02*
X82452380Y-66786723D01*
X82452380Y-66786723D02*
X82404761Y-66881961D01*
X82404761Y-66881961D02*
X82309523Y-66977200D01*
X82309523Y-66977200D02*
X82166666Y-67024819D01*
X82166666Y-67024819D02*
X81928571Y-67024819D01*
X83452380Y-67024819D02*
X82880952Y-67024819D01*
X83166666Y-67024819D02*
X83166666Y-66024819D01*
X83166666Y-66024819D02*
X83071428Y-66167676D01*
X83071428Y-66167676D02*
X82976190Y-66262914D01*
X82976190Y-66262914D02*
X82880952Y-66310533D01*
X84704819Y-72308094D02*
X83704819Y-72308094D01*
X83704819Y-72308094D02*
X83704819Y-72069999D01*
X83704819Y-72069999D02*
X83752438Y-71927142D01*
X83752438Y-71927142D02*
X83847676Y-71831904D01*
X83847676Y-71831904D02*
X83942914Y-71784285D01*
X83942914Y-71784285D02*
X84133390Y-71736666D01*
X84133390Y-71736666D02*
X84276247Y-71736666D01*
X84276247Y-71736666D02*
X84466723Y-71784285D01*
X84466723Y-71784285D02*
X84561961Y-71831904D01*
X84561961Y-71831904D02*
X84657200Y-71927142D01*
X84657200Y-71927142D02*
X84704819Y-72069999D01*
X84704819Y-72069999D02*
X84704819Y-72308094D01*
X83704819Y-71403332D02*
X83704819Y-70784285D01*
X83704819Y-70784285D02*
X84085771Y-71117618D01*
X84085771Y-71117618D02*
X84085771Y-70974761D01*
X84085771Y-70974761D02*
X84133390Y-70879523D01*
X84133390Y-70879523D02*
X84181009Y-70831904D01*
X84181009Y-70831904D02*
X84276247Y-70784285D01*
X84276247Y-70784285D02*
X84514342Y-70784285D01*
X84514342Y-70784285D02*
X84609580Y-70831904D01*
X84609580Y-70831904D02*
X84657200Y-70879523D01*
X84657200Y-70879523D02*
X84704819Y-70974761D01*
X84704819Y-70974761D02*
X84704819Y-71260475D01*
X84704819Y-71260475D02*
X84657200Y-71355713D01*
X84657200Y-71355713D02*
X84609580Y-71403332D01*
X63454819Y-73558094D02*
X62454819Y-73558094D01*
X62454819Y-73558094D02*
X62454819Y-73319999D01*
X62454819Y-73319999D02*
X62502438Y-73177142D01*
X62502438Y-73177142D02*
X62597676Y-73081904D01*
X62597676Y-73081904D02*
X62692914Y-73034285D01*
X62692914Y-73034285D02*
X62883390Y-72986666D01*
X62883390Y-72986666D02*
X63026247Y-72986666D01*
X63026247Y-72986666D02*
X63216723Y-73034285D01*
X63216723Y-73034285D02*
X63311961Y-73081904D01*
X63311961Y-73081904D02*
X63407200Y-73177142D01*
X63407200Y-73177142D02*
X63454819Y-73319999D01*
X63454819Y-73319999D02*
X63454819Y-73558094D01*
X62454819Y-72081904D02*
X62454819Y-72558094D01*
X62454819Y-72558094D02*
X62931009Y-72605713D01*
X62931009Y-72605713D02*
X62883390Y-72558094D01*
X62883390Y-72558094D02*
X62835771Y-72462856D01*
X62835771Y-72462856D02*
X62835771Y-72224761D01*
X62835771Y-72224761D02*
X62883390Y-72129523D01*
X62883390Y-72129523D02*
X62931009Y-72081904D01*
X62931009Y-72081904D02*
X63026247Y-72034285D01*
X63026247Y-72034285D02*
X63264342Y-72034285D01*
X63264342Y-72034285D02*
X63359580Y-72081904D01*
X63359580Y-72081904D02*
X63407200Y-72129523D01*
X63407200Y-72129523D02*
X63454819Y-72224761D01*
X63454819Y-72224761D02*
X63454819Y-72462856D01*
X63454819Y-72462856D02*
X63407200Y-72558094D01*
X63407200Y-72558094D02*
X63359580Y-72605713D01*
X60454819Y-60408094D02*
X59454819Y-60408094D01*
X59454819Y-60408094D02*
X59454819Y-60169999D01*
X59454819Y-60169999D02*
X59502438Y-60027142D01*
X59502438Y-60027142D02*
X59597676Y-59931904D01*
X59597676Y-59931904D02*
X59692914Y-59884285D01*
X59692914Y-59884285D02*
X59883390Y-59836666D01*
X59883390Y-59836666D02*
X60026247Y-59836666D01*
X60026247Y-59836666D02*
X60216723Y-59884285D01*
X60216723Y-59884285D02*
X60311961Y-59931904D01*
X60311961Y-59931904D02*
X60407200Y-60027142D01*
X60407200Y-60027142D02*
X60454819Y-60169999D01*
X60454819Y-60169999D02*
X60454819Y-60408094D01*
X59454819Y-58979523D02*
X59454819Y-59169999D01*
X59454819Y-59169999D02*
X59502438Y-59265237D01*
X59502438Y-59265237D02*
X59550057Y-59312856D01*
X59550057Y-59312856D02*
X59692914Y-59408094D01*
X59692914Y-59408094D02*
X59883390Y-59455713D01*
X59883390Y-59455713D02*
X60264342Y-59455713D01*
X60264342Y-59455713D02*
X60359580Y-59408094D01*
X60359580Y-59408094D02*
X60407200Y-59360475D01*
X60407200Y-59360475D02*
X60454819Y-59265237D01*
X60454819Y-59265237D02*
X60454819Y-59074761D01*
X60454819Y-59074761D02*
X60407200Y-58979523D01*
X60407200Y-58979523D02*
X60359580Y-58931904D01*
X60359580Y-58931904D02*
X60264342Y-58884285D01*
X60264342Y-58884285D02*
X60026247Y-58884285D01*
X60026247Y-58884285D02*
X59931009Y-58931904D01*
X59931009Y-58931904D02*
X59883390Y-58979523D01*
X59883390Y-58979523D02*
X59835771Y-59074761D01*
X59835771Y-59074761D02*
X59835771Y-59265237D01*
X59835771Y-59265237D02*
X59883390Y-59360475D01*
X59883390Y-59360475D02*
X59931009Y-59408094D01*
X59931009Y-59408094D02*
X60026247Y-59455713D01*
X62576666Y-89184819D02*
X62576666Y-89899104D01*
X62576666Y-89899104D02*
X62529047Y-90041961D01*
X62529047Y-90041961D02*
X62433809Y-90137200D01*
X62433809Y-90137200D02*
X62290952Y-90184819D01*
X62290952Y-90184819D02*
X62195714Y-90184819D01*
X63100476Y-90184819D02*
X63290952Y-90184819D01*
X63290952Y-90184819D02*
X63386190Y-90137200D01*
X63386190Y-90137200D02*
X63433809Y-90089580D01*
X63433809Y-90089580D02*
X63529047Y-89946723D01*
X63529047Y-89946723D02*
X63576666Y-89756247D01*
X63576666Y-89756247D02*
X63576666Y-89375295D01*
X63576666Y-89375295D02*
X63529047Y-89280057D01*
X63529047Y-89280057D02*
X63481428Y-89232438D01*
X63481428Y-89232438D02*
X63386190Y-89184819D01*
X63386190Y-89184819D02*
X63195714Y-89184819D01*
X63195714Y-89184819D02*
X63100476Y-89232438D01*
X63100476Y-89232438D02*
X63052857Y-89280057D01*
X63052857Y-89280057D02*
X63005238Y-89375295D01*
X63005238Y-89375295D02*
X63005238Y-89613390D01*
X63005238Y-89613390D02*
X63052857Y-89708628D01*
X63052857Y-89708628D02*
X63100476Y-89756247D01*
X63100476Y-89756247D02*
X63195714Y-89803866D01*
X63195714Y-89803866D02*
X63386190Y-89803866D01*
X63386190Y-89803866D02*
X63481428Y-89756247D01*
X63481428Y-89756247D02*
X63529047Y-89708628D01*
X63529047Y-89708628D02*
X63576666Y-89613390D01*
X73776666Y-89184819D02*
X73776666Y-89899104D01*
X73776666Y-89899104D02*
X73729047Y-90041961D01*
X73729047Y-90041961D02*
X73633809Y-90137200D01*
X73633809Y-90137200D02*
X73490952Y-90184819D01*
X73490952Y-90184819D02*
X73395714Y-90184819D01*
X74157619Y-89184819D02*
X74776666Y-89184819D01*
X74776666Y-89184819D02*
X74443333Y-89565771D01*
X74443333Y-89565771D02*
X74586190Y-89565771D01*
X74586190Y-89565771D02*
X74681428Y-89613390D01*
X74681428Y-89613390D02*
X74729047Y-89661009D01*
X74729047Y-89661009D02*
X74776666Y-89756247D01*
X74776666Y-89756247D02*
X74776666Y-89994342D01*
X74776666Y-89994342D02*
X74729047Y-90089580D01*
X74729047Y-90089580D02*
X74681428Y-90137200D01*
X74681428Y-90137200D02*
X74586190Y-90184819D01*
X74586190Y-90184819D02*
X74300476Y-90184819D01*
X74300476Y-90184819D02*
X74205238Y-90137200D01*
X74205238Y-90137200D02*
X74157619Y-90089580D01*
X103454819Y-53208094D02*
X102454819Y-53208094D01*
X102454819Y-53208094D02*
X102454819Y-52969999D01*
X102454819Y-52969999D02*
X102502438Y-52827142D01*
X102502438Y-52827142D02*
X102597676Y-52731904D01*
X102597676Y-52731904D02*
X102692914Y-52684285D01*
X102692914Y-52684285D02*
X102883390Y-52636666D01*
X102883390Y-52636666D02*
X103026247Y-52636666D01*
X103026247Y-52636666D02*
X103216723Y-52684285D01*
X103216723Y-52684285D02*
X103311961Y-52731904D01*
X103311961Y-52731904D02*
X103407200Y-52827142D01*
X103407200Y-52827142D02*
X103454819Y-52969999D01*
X103454819Y-52969999D02*
X103454819Y-53208094D01*
X103454819Y-51684285D02*
X103454819Y-52255713D01*
X103454819Y-51969999D02*
X102454819Y-51969999D01*
X102454819Y-51969999D02*
X102597676Y-52065237D01*
X102597676Y-52065237D02*
X102692914Y-52160475D01*
X102692914Y-52160475D02*
X102740533Y-52255713D01*
X53476666Y-82774819D02*
X53476666Y-83489104D01*
X53476666Y-83489104D02*
X53429047Y-83631961D01*
X53429047Y-83631961D02*
X53333809Y-83727200D01*
X53333809Y-83727200D02*
X53190952Y-83774819D01*
X53190952Y-83774819D02*
X53095714Y-83774819D01*
X54429047Y-82774819D02*
X53952857Y-82774819D01*
X53952857Y-82774819D02*
X53905238Y-83251009D01*
X53905238Y-83251009D02*
X53952857Y-83203390D01*
X53952857Y-83203390D02*
X54048095Y-83155771D01*
X54048095Y-83155771D02*
X54286190Y-83155771D01*
X54286190Y-83155771D02*
X54381428Y-83203390D01*
X54381428Y-83203390D02*
X54429047Y-83251009D01*
X54429047Y-83251009D02*
X54476666Y-83346247D01*
X54476666Y-83346247D02*
X54476666Y-83584342D01*
X54476666Y-83584342D02*
X54429047Y-83679580D01*
X54429047Y-83679580D02*
X54381428Y-83727200D01*
X54381428Y-83727200D02*
X54286190Y-83774819D01*
X54286190Y-83774819D02*
X54048095Y-83774819D01*
X54048095Y-83774819D02*
X53952857Y-83727200D01*
X53952857Y-83727200D02*
X53905238Y-83679580D01*
D11*
%TO.C,mouse-bite-1mm-slot*%
X55300000Y-94320000D02*
G75*
G03*
X55300000Y-95320000I0J-500000D01*
G01*
X52300000Y-95320000D02*
G75*
G03*
X52300000Y-94320000I0J500000D01*
G01*
X97400000Y-94320000D02*
G75*
G03*
X97400000Y-95320000I0J-500000D01*
G01*
X94400000Y-95320000D02*
G75*
G03*
X94400000Y-94320000I0J500000D01*
G01*
X117300000Y-94320000D02*
G75*
G03*
X117300000Y-95320000I0J-500000D01*
G01*
X114300000Y-95320000D02*
G75*
G03*
X114300000Y-94320000I0J500000D01*
G01*
X159400000Y-94320000D02*
G75*
G03*
X159400000Y-95320000I0J-500000D01*
G01*
X156400000Y-95320000D02*
G75*
G03*
X156400000Y-94320000I0J500000D01*
G01*
X165900000Y-49620000D02*
G75*
G03*
X165900000Y-48620000I0J500000D01*
G01*
X168900000Y-48620000D02*
G75*
G03*
X168900000Y-49620000I0J-500000D01*
G01*
X119500000Y-49620000D02*
G75*
G03*
X119500000Y-48620000I0J500000D01*
G01*
X122500000Y-48620000D02*
G75*
G03*
X122500000Y-49620000I0J-500000D01*
G01*
X103900000Y-49620000D02*
G75*
G03*
X103900000Y-48620000I0J500000D01*
G01*
X106900000Y-48620000D02*
G75*
G03*
X106900000Y-49620000I0J-500000D01*
G01*
X57500000Y-49620000D02*
G75*
G03*
X57500000Y-48620000I0J500000D01*
G01*
X60500000Y-48620000D02*
G75*
G03*
X60500000Y-49620000I0J-500000D01*
G01*
D12*
%TO.C,J12*%
X122150000Y-49914000D02*
X122150000Y-51164000D01*
X122440000Y-50204000D02*
X122440000Y-56174000D01*
X122440000Y-56174000D02*
X135060000Y-56174000D01*
X122450000Y-50214000D02*
X122450000Y-50964000D01*
X122450000Y-50964000D02*
X124250000Y-50964000D01*
X122450000Y-52464000D02*
X123200000Y-52464000D01*
X123200000Y-52464000D02*
X123200000Y-55414000D01*
X123200000Y-55414000D02*
X128750000Y-55414000D01*
X123400000Y-49914000D02*
X122150000Y-49914000D01*
X124250000Y-50214000D02*
X122450000Y-50214000D01*
X124250000Y-50964000D02*
X124250000Y-50214000D01*
X125750000Y-50214000D02*
X125750000Y-50964000D01*
X125750000Y-50964000D02*
X131750000Y-50964000D01*
X131750000Y-50214000D02*
X125750000Y-50214000D01*
X131750000Y-50964000D02*
X131750000Y-50214000D01*
X133250000Y-50214000D02*
X133250000Y-50964000D01*
X133250000Y-50964000D02*
X135050000Y-50964000D01*
X134300000Y-52464000D02*
X134300000Y-55414000D01*
X134300000Y-55414000D02*
X128750000Y-55414000D01*
X135050000Y-50214000D02*
X133250000Y-50214000D01*
X135050000Y-50964000D02*
X135050000Y-50214000D01*
X135050000Y-52464000D02*
X134300000Y-52464000D01*
X135060000Y-50204000D02*
X122440000Y-50204000D01*
X135060000Y-56174000D02*
X135060000Y-50204000D01*
%TO.C,C22*%
X163701248Y-66335000D02*
X164223752Y-66335000D01*
X163701248Y-67805000D02*
X164223752Y-67805000D01*
%TO.C,J15*%
X145685000Y-93755000D02*
X148760000Y-93755000D01*
X148760000Y-93755000D02*
X148760000Y-80885000D01*
X144170000Y-92335000D02*
X144670000Y-92335000D01*
X144670000Y-92335000D02*
X144670000Y-82305000D01*
X144170000Y-92315000D02*
X144170000Y-92335000D01*
X144170000Y-82305000D02*
X144170000Y-82325000D01*
X144670000Y-82305000D02*
X144170000Y-82305000D01*
X148760000Y-80885000D02*
X145685000Y-80885000D01*
%TO.C,L2*%
X123340000Y-68092742D02*
X123340000Y-66422258D01*
X125160000Y-68092742D02*
X125160000Y-66422258D01*
%TO.C,J14*%
X170750000Y-50220000D02*
X169500000Y-50220000D01*
X170460000Y-50510000D02*
X164490000Y-50510000D01*
X164490000Y-50510000D02*
X164490000Y-65630000D01*
X170450000Y-50520000D02*
X169700000Y-50520000D01*
X169700000Y-50520000D02*
X169700000Y-52320000D01*
X168200000Y-50520000D02*
X168200000Y-51270000D01*
X168200000Y-51270000D02*
X165250000Y-51270000D01*
X165250000Y-51270000D02*
X165250000Y-58070000D01*
X170750000Y-51470000D02*
X170750000Y-50220000D01*
X170450000Y-52320000D02*
X170450000Y-50520000D01*
X169700000Y-52320000D02*
X170450000Y-52320000D01*
X170450000Y-53820000D02*
X169700000Y-53820000D01*
X169700000Y-53820000D02*
X169700000Y-62320000D01*
X170450000Y-62320000D02*
X170450000Y-53820000D01*
X169700000Y-62320000D02*
X170450000Y-62320000D01*
X170450000Y-63820000D02*
X169700000Y-63820000D01*
X169700000Y-63820000D02*
X169700000Y-65620000D01*
X168200000Y-64870000D02*
X165250000Y-64870000D01*
X165250000Y-64870000D02*
X165250000Y-58070000D01*
X170450000Y-65620000D02*
X170450000Y-63820000D01*
X169700000Y-65620000D02*
X170450000Y-65620000D01*
X168200000Y-65620000D02*
X168200000Y-64870000D01*
X170460000Y-65630000D02*
X170460000Y-50510000D01*
X164490000Y-65630000D02*
X170460000Y-65630000D01*
%TO.C,C29*%
X114700000Y-76760000D02*
X115200000Y-76760000D01*
X114950000Y-76510000D02*
X114950000Y-77010000D01*
X115440000Y-77124437D02*
X115440000Y-77260000D01*
X115440000Y-77124437D02*
X116504437Y-76060000D01*
X115440000Y-79515563D02*
X115440000Y-79380000D01*
X115440000Y-79515563D02*
X116504437Y-80580000D01*
X116504437Y-76060000D02*
X119960000Y-76060000D01*
X116504437Y-80580000D02*
X119960000Y-80580000D01*
X119960000Y-76060000D02*
X119960000Y-77260000D01*
X119960000Y-80580000D02*
X119960000Y-79380000D01*
%TO.C,C28*%
X114700000Y-71470000D02*
X115200000Y-71470000D01*
X114950000Y-71220000D02*
X114950000Y-71720000D01*
X115440000Y-71834437D02*
X115440000Y-71970000D01*
X115440000Y-71834437D02*
X116504437Y-70770000D01*
X115440000Y-74225563D02*
X115440000Y-74090000D01*
X115440000Y-74225563D02*
X116504437Y-75290000D01*
X116504437Y-70770000D02*
X119960000Y-70770000D01*
X116504437Y-75290000D02*
X119960000Y-75290000D01*
X119960000Y-70770000D02*
X119960000Y-71970000D01*
X119960000Y-75290000D02*
X119960000Y-74090000D01*
%TO.C,J7*%
X162935000Y-93650000D02*
X161515000Y-93650000D01*
X162935000Y-87890000D02*
X162935000Y-93650000D01*
X162935000Y-86370000D02*
X162935000Y-86060000D01*
X162935000Y-86060000D02*
X153065000Y-86060000D01*
X161515000Y-93650000D02*
X161515000Y-93150000D01*
X161515000Y-93150000D02*
X154485000Y-93150000D01*
X154485000Y-93650000D02*
X153065000Y-93650000D01*
X154485000Y-93150000D02*
X154485000Y-93650000D01*
X153065000Y-93650000D02*
X153065000Y-87890000D01*
X153065000Y-86060000D02*
X153065000Y-86370000D01*
%TO.C,C19*%
X121265000Y-67368752D02*
X121265000Y-66846248D01*
X122735000Y-67368752D02*
X122735000Y-66846248D01*
%TO.C,C18*%
X114425000Y-61345000D02*
X115050000Y-61345000D01*
X114737500Y-61032500D02*
X114737500Y-61657500D01*
X115290000Y-61334437D02*
X115290000Y-61970000D01*
X115290000Y-61334437D02*
X116354437Y-60270000D01*
X115290000Y-64725563D02*
X115290000Y-64090000D01*
X115290000Y-64725563D02*
X116354437Y-65790000D01*
X116354437Y-60270000D02*
X120810000Y-60270000D01*
X116354437Y-65790000D02*
X120810000Y-65790000D01*
X120810000Y-60270000D02*
X120810000Y-61970000D01*
X120810000Y-65790000D02*
X120810000Y-64090000D01*
%TO.C,F2*%
X117660436Y-57070000D02*
X118864564Y-57070000D01*
X117660436Y-59790000D02*
X118864564Y-59790000D01*
%TO.C,R14*%
X134015000Y-59047064D02*
X134015000Y-58592936D01*
X135485000Y-59047064D02*
X135485000Y-58592936D01*
%TO.C,R13*%
X126515000Y-59047064D02*
X126515000Y-58592936D01*
X127985000Y-59047064D02*
X127985000Y-58592936D01*
%TO.C,R12*%
X143235000Y-58842936D02*
X143235000Y-59297064D01*
X141765000Y-58842936D02*
X141765000Y-59297064D01*
%TO.C,C21*%
X133015000Y-67043752D02*
X133015000Y-66521248D01*
X134485000Y-67043752D02*
X134485000Y-66521248D01*
%TO.C,C25*%
X131515000Y-59106252D02*
X131515000Y-58583748D01*
X132985000Y-59106252D02*
X132985000Y-58583748D01*
%TO.C,D10*%
X128750000Y-62120000D02*
X130750000Y-62120000D01*
X130750000Y-62120000D02*
X130750000Y-57820000D01*
X128750000Y-57820000D02*
X128750000Y-62120000D01*
%TO.C,R10*%
X146022936Y-74335000D02*
X146477064Y-74335000D01*
X146022936Y-75805000D02*
X146477064Y-75805000D01*
%TO.C,R15*%
X146022936Y-78335000D02*
X146477064Y-78335000D01*
X146022936Y-79805000D02*
X146477064Y-79805000D01*
%TO.C,C27*%
X162265000Y-57543752D02*
X162265000Y-57021248D01*
X163735000Y-57543752D02*
X163735000Y-57021248D01*
%TO.C,U8*%
X159360000Y-78685000D02*
X159360000Y-78440000D01*
X159360000Y-78440000D02*
X161175000Y-78440000D01*
X159360000Y-66915000D02*
X159360000Y-67160000D01*
X155500000Y-78685000D02*
X159360000Y-78685000D01*
X155500000Y-78685000D02*
X151640000Y-78685000D01*
X155500000Y-66915000D02*
X159360000Y-66915000D01*
X155500000Y-66915000D02*
X151640000Y-66915000D01*
X151640000Y-78685000D02*
X151640000Y-78440000D01*
X151640000Y-66915000D02*
X151640000Y-67160000D01*
%TO.C,R11*%
X145235000Y-58842936D02*
X145235000Y-59297064D01*
X143765000Y-58842936D02*
X143765000Y-59297064D01*
%TO.C,J10*%
X135650000Y-49914000D02*
X135650000Y-51164000D01*
X135940000Y-50204000D02*
X135940000Y-56174000D01*
X135940000Y-56174000D02*
X143560000Y-56174000D01*
X135950000Y-50214000D02*
X135950000Y-50964000D01*
X135950000Y-50964000D02*
X137750000Y-50964000D01*
X135950000Y-52464000D02*
X136700000Y-52464000D01*
X136700000Y-52464000D02*
X136700000Y-55414000D01*
X136700000Y-55414000D02*
X139750000Y-55414000D01*
X136900000Y-49914000D02*
X135650000Y-49914000D01*
X137750000Y-50214000D02*
X135950000Y-50214000D01*
X137750000Y-50964000D02*
X137750000Y-50214000D01*
X139250000Y-50214000D02*
X139250000Y-50964000D01*
X139250000Y-50964000D02*
X140250000Y-50964000D01*
X140250000Y-50214000D02*
X139250000Y-50214000D01*
X140250000Y-50964000D02*
X140250000Y-50214000D01*
X141750000Y-50214000D02*
X141750000Y-50964000D01*
X141750000Y-50964000D02*
X143550000Y-50964000D01*
X142800000Y-52464000D02*
X142800000Y-55414000D01*
X142800000Y-55414000D02*
X139750000Y-55414000D01*
X143550000Y-50214000D02*
X141750000Y-50214000D01*
X143550000Y-50964000D02*
X143550000Y-50214000D01*
X143550000Y-52464000D02*
X142800000Y-52464000D01*
X143560000Y-50204000D02*
X135940000Y-50204000D01*
X143560000Y-56174000D02*
X143560000Y-50204000D01*
D10*
%TO.C,U6*%
X129625000Y-70945000D02*
X129625000Y-71170000D01*
X129625000Y-70945000D02*
X129950000Y-70945000D01*
X129625000Y-71170000D02*
X128200000Y-71170000D01*
X129625000Y-78195000D02*
X129625000Y-77870000D01*
X129625000Y-78195000D02*
X129950000Y-78195000D01*
X136875000Y-70945000D02*
X136550000Y-70945000D01*
X136875000Y-70945000D02*
X136875000Y-71270000D01*
X136875000Y-78195000D02*
X136550000Y-78195000D01*
X136875000Y-78195000D02*
X136875000Y-77870000D01*
D12*
%TO.C,C17*%
X140776248Y-75835000D02*
X141298752Y-75835000D01*
X140776248Y-77305000D02*
X141298752Y-77305000D01*
%TO.C,C16*%
X146026248Y-76335000D02*
X146548752Y-76335000D01*
X146026248Y-77805000D02*
X146548752Y-77805000D01*
%TO.C,R9*%
X168265000Y-73047064D02*
X168265000Y-72592936D01*
X169735000Y-73047064D02*
X169735000Y-72592936D01*
%TO.C,U7*%
X169527000Y-82095000D02*
X169527000Y-78645000D01*
X169527000Y-82095000D02*
X169527000Y-84045000D01*
X164407000Y-82095000D02*
X164407000Y-80145000D01*
X164407000Y-82095000D02*
X164407000Y-84045000D01*
%TO.C,C20*%
X161776248Y-82085000D02*
X162298752Y-82085000D01*
X161776248Y-83555000D02*
X162298752Y-83555000D01*
%TO.C,JP4*%
X168700000Y-75020000D02*
X169300000Y-75020000D01*
X170000000Y-75720000D02*
X170000000Y-77120000D01*
X168000000Y-77120000D02*
X168000000Y-75720000D01*
X169300000Y-77820000D02*
X168700000Y-77820000D01*
X170000000Y-75720000D02*
G75*
G03*
X169300000Y-75020000I-699999J1D01*
G01*
X168700000Y-75020000D02*
G75*
G03*
X168000000Y-75720000I-1J-699999D01*
G01*
X169300000Y-77820000D02*
G75*
G03*
X170000000Y-77120000I0J700000D01*
G01*
X168000000Y-77120000D02*
G75*
G03*
X168700000Y-77820000I700000J0D01*
G01*
%TO.C,C23*%
X164223752Y-76555000D02*
X163701248Y-76555000D01*
X164223752Y-75085000D02*
X163701248Y-75085000D01*
%TO.C,Y3*%
X163500000Y-68470000D02*
X163500000Y-68770000D01*
X163500000Y-68770000D02*
X164300000Y-68770000D01*
X165700000Y-70770000D02*
X165700000Y-72170000D01*
X162100000Y-70770000D02*
X161860000Y-70770000D01*
X162100000Y-72170000D02*
X162100000Y-70770000D01*
X164300000Y-74170000D02*
X163500000Y-74170000D01*
%TO.C,D8*%
X158842000Y-83770000D02*
X158842000Y-79470000D01*
X158842000Y-83770000D02*
X153142000Y-83770000D01*
X158842000Y-79470000D02*
X153142000Y-79470000D01*
%TO.C,D7*%
X164000000Y-50110000D02*
X162000000Y-50110000D01*
X164000000Y-50110000D02*
X164000000Y-54120000D01*
X162000000Y-50110000D02*
X162000000Y-54120000D01*
%TO.C,J16*%
X131020000Y-86470000D02*
X131020000Y-85320000D01*
X131020000Y-85320000D02*
X129970000Y-85320000D01*
X129970000Y-85320000D02*
X129970000Y-84330000D01*
X129850000Y-88440000D02*
X119970000Y-88440000D01*
X118800000Y-86470000D02*
X118800000Y-85320000D01*
X118800000Y-85320000D02*
X119850000Y-85320000D01*
%TO.C,J13*%
X114480000Y-84320000D02*
X115810000Y-84320000D01*
X114480000Y-85650000D02*
X114480000Y-84320000D01*
X114480000Y-86920000D02*
X114480000Y-92060000D01*
X114480000Y-86920000D02*
X117140000Y-86920000D01*
X114480000Y-92060000D02*
X117140000Y-92060000D01*
X117140000Y-86920000D02*
X117140000Y-92060000D01*
%TO.C,C26*%
X137590000Y-60218752D02*
X137590000Y-58796248D01*
X139410000Y-60218752D02*
X139410000Y-58796248D01*
%TO.C,J11*%
X139220000Y-86470000D02*
X139220000Y-85320000D01*
X139220000Y-85320000D02*
X138170000Y-85320000D01*
X138170000Y-85320000D02*
X138170000Y-84330000D01*
X138050000Y-88440000D02*
X134170000Y-88440000D01*
X133000000Y-86470000D02*
X133000000Y-85320000D01*
X133000000Y-85320000D02*
X134050000Y-85320000D01*
%TO.C,D11*%
X124000000Y-70570000D02*
X122000000Y-70570000D01*
X124000000Y-70570000D02*
X124000000Y-74470000D01*
X122000000Y-70570000D02*
X122000000Y-74470000D01*
%TO.C,X2*%
X145025000Y-50570000D02*
X145825000Y-50570000D01*
X145025000Y-50770000D02*
X145025000Y-50570000D01*
X145225000Y-53570000D02*
X145025000Y-53370000D01*
X145825000Y-53570000D02*
X145225000Y-53570000D01*
X145825000Y-53570000D02*
X145825000Y-54070000D01*
X147225000Y-50570000D02*
X148025000Y-50570000D01*
X147225000Y-53570000D02*
X147225000Y-54070000D01*
X148025000Y-50570000D02*
X148025000Y-50770000D01*
X148025000Y-53370000D02*
X148025000Y-53570000D01*
X148025000Y-53570000D02*
X147225000Y-53570000D01*
%TO.C,U9*%
X116870000Y-69790000D02*
X118630000Y-69790000D01*
X118630000Y-66720000D02*
X116200000Y-66720000D01*
%TO.C,C30*%
X160765000Y-62118752D02*
X160765000Y-61596248D01*
X162235000Y-62118752D02*
X162235000Y-61596248D01*
%TO.C,U10*%
X149970800Y-49767500D02*
X149970800Y-50409265D01*
X149970800Y-63730735D02*
X149970800Y-64372500D01*
X149970800Y-64372500D02*
X152338531Y-64372500D01*
X152338531Y-49767500D02*
X149970800Y-49767500D01*
X157661469Y-64372500D02*
X160029200Y-64372500D01*
X160029200Y-49767500D02*
X157661469Y-49767500D01*
X160029200Y-50409265D02*
X160029200Y-49767500D01*
X160029200Y-64372500D02*
X160029200Y-63730735D01*
%TO.C,D9*%
X145330000Y-72330000D02*
X145330000Y-70170000D01*
X145330000Y-72330000D02*
X144400000Y-72330000D01*
X142170000Y-72330000D02*
X142170000Y-70870000D01*
X142170000Y-72330000D02*
X143100000Y-72330000D01*
%TO.C,D12*%
X123000000Y-61920000D02*
X125000000Y-61920000D01*
X123000000Y-61920000D02*
X123000000Y-58020000D01*
X125000000Y-61920000D02*
X125000000Y-58020000D01*
%TO.C,C24*%
X145765000Y-59368752D02*
X145765000Y-58846248D01*
X147235000Y-59368752D02*
X147235000Y-58846248D01*
%TO.C,C12*%
X100265000Y-57543752D02*
X100265000Y-57021248D01*
X101735000Y-57543752D02*
X101735000Y-57021248D01*
%TO.C,R8*%
X84022936Y-78335000D02*
X84477064Y-78335000D01*
X84022936Y-79805000D02*
X84477064Y-79805000D01*
%TO.C,R3*%
X84022936Y-74335000D02*
X84477064Y-74335000D01*
X84022936Y-75805000D02*
X84477064Y-75805000D01*
%TO.C,C10*%
X69515000Y-59106252D02*
X69515000Y-58583748D01*
X70985000Y-59106252D02*
X70985000Y-58583748D01*
%TO.C,C6*%
X71015000Y-67043752D02*
X71015000Y-66521248D01*
X72485000Y-67043752D02*
X72485000Y-66521248D01*
%TO.C,R5*%
X81235000Y-58842936D02*
X81235000Y-59297064D01*
X79765000Y-58842936D02*
X79765000Y-59297064D01*
%TO.C,R6*%
X64515000Y-59047064D02*
X64515000Y-58592936D01*
X65985000Y-59047064D02*
X65985000Y-58592936D01*
%TO.C,D4*%
X66750000Y-62120000D02*
X68750000Y-62120000D01*
X68750000Y-62120000D02*
X68750000Y-57820000D01*
X66750000Y-57820000D02*
X66750000Y-62120000D01*
%TO.C,D2*%
X96842000Y-83770000D02*
X96842000Y-79470000D01*
X96842000Y-83770000D02*
X91142000Y-83770000D01*
X96842000Y-79470000D02*
X91142000Y-79470000D01*
%TO.C,Y2*%
X101500000Y-68470000D02*
X101500000Y-68770000D01*
X101500000Y-68770000D02*
X102300000Y-68770000D01*
X103700000Y-70770000D02*
X103700000Y-72170000D01*
X100100000Y-70770000D02*
X99860000Y-70770000D01*
X100100000Y-72170000D02*
X100100000Y-70770000D01*
X102300000Y-74170000D02*
X101500000Y-74170000D01*
%TO.C,C8*%
X102223752Y-76555000D02*
X101701248Y-76555000D01*
X102223752Y-75085000D02*
X101701248Y-75085000D01*
%TO.C,JP2*%
X106700000Y-75020000D02*
X107300000Y-75020000D01*
X108000000Y-75720000D02*
X108000000Y-77120000D01*
X106000000Y-77120000D02*
X106000000Y-75720000D01*
X107300000Y-77820000D02*
X106700000Y-77820000D01*
X108000000Y-75720000D02*
G75*
G03*
X107300000Y-75020000I-699999J1D01*
G01*
X106700000Y-75020000D02*
G75*
G03*
X106000000Y-75720000I-1J-699999D01*
G01*
X107300000Y-77820000D02*
G75*
G03*
X108000000Y-77120000I0J700000D01*
G01*
X106000000Y-77120000D02*
G75*
G03*
X106700000Y-77820000I700000J0D01*
G01*
%TO.C,C5*%
X99776248Y-82085000D02*
X100298752Y-82085000D01*
X99776248Y-83555000D02*
X100298752Y-83555000D01*
%TO.C,U2*%
X107527000Y-82095000D02*
X107527000Y-78645000D01*
X107527000Y-82095000D02*
X107527000Y-84045000D01*
X102407000Y-82095000D02*
X102407000Y-80145000D01*
X102407000Y-82095000D02*
X102407000Y-84045000D01*
%TO.C,R2*%
X106265000Y-73047064D02*
X106265000Y-72592936D01*
X107735000Y-73047064D02*
X107735000Y-72592936D01*
%TO.C,C1*%
X84026248Y-76335000D02*
X84548752Y-76335000D01*
X84026248Y-77805000D02*
X84548752Y-77805000D01*
%TO.C,J2*%
X73650000Y-49914000D02*
X73650000Y-51164000D01*
X73940000Y-50204000D02*
X73940000Y-56174000D01*
X73940000Y-56174000D02*
X81560000Y-56174000D01*
X73950000Y-50214000D02*
X73950000Y-50964000D01*
X73950000Y-50964000D02*
X75750000Y-50964000D01*
X73950000Y-52464000D02*
X74700000Y-52464000D01*
X74700000Y-52464000D02*
X74700000Y-55414000D01*
X74700000Y-55414000D02*
X77750000Y-55414000D01*
X74900000Y-49914000D02*
X73650000Y-49914000D01*
X75750000Y-50214000D02*
X73950000Y-50214000D01*
X75750000Y-50964000D02*
X75750000Y-50214000D01*
X77250000Y-50214000D02*
X77250000Y-50964000D01*
X77250000Y-50964000D02*
X78250000Y-50964000D01*
X78250000Y-50214000D02*
X77250000Y-50214000D01*
X78250000Y-50964000D02*
X78250000Y-50214000D01*
X79750000Y-50214000D02*
X79750000Y-50964000D01*
X79750000Y-50964000D02*
X81550000Y-50964000D01*
X80800000Y-52464000D02*
X80800000Y-55414000D01*
X80800000Y-55414000D02*
X77750000Y-55414000D01*
X81550000Y-50214000D02*
X79750000Y-50214000D01*
X81550000Y-50964000D02*
X81550000Y-50214000D01*
X81550000Y-52464000D02*
X80800000Y-52464000D01*
X81560000Y-50204000D02*
X73940000Y-50204000D01*
X81560000Y-56174000D02*
X81560000Y-50204000D01*
D10*
%TO.C,U1*%
X67625000Y-70945000D02*
X67625000Y-71170000D01*
X67625000Y-70945000D02*
X67950000Y-70945000D01*
X67625000Y-71170000D02*
X66200000Y-71170000D01*
X67625000Y-78195000D02*
X67625000Y-77870000D01*
X67625000Y-78195000D02*
X67950000Y-78195000D01*
X74875000Y-70945000D02*
X74550000Y-70945000D01*
X74875000Y-70945000D02*
X74875000Y-71270000D01*
X74875000Y-78195000D02*
X74550000Y-78195000D01*
X74875000Y-78195000D02*
X74875000Y-77870000D01*
D12*
%TO.C,C2*%
X78776248Y-75835000D02*
X79298752Y-75835000D01*
X78776248Y-77305000D02*
X79298752Y-77305000D01*
%TO.C,U3*%
X97360000Y-78685000D02*
X97360000Y-78440000D01*
X97360000Y-78440000D02*
X99175000Y-78440000D01*
X97360000Y-66915000D02*
X97360000Y-67160000D01*
X93500000Y-78685000D02*
X97360000Y-78685000D01*
X93500000Y-78685000D02*
X89640000Y-78685000D01*
X93500000Y-66915000D02*
X97360000Y-66915000D01*
X93500000Y-66915000D02*
X89640000Y-66915000D01*
X89640000Y-78685000D02*
X89640000Y-78440000D01*
X89640000Y-66915000D02*
X89640000Y-67160000D01*
%TO.C,R7*%
X72015000Y-59047064D02*
X72015000Y-58592936D01*
X73485000Y-59047064D02*
X73485000Y-58592936D01*
%TO.C,F1*%
X55660436Y-57070000D02*
X56864564Y-57070000D01*
X55660436Y-59790000D02*
X56864564Y-59790000D01*
%TO.C,R4*%
X83235000Y-58842936D02*
X83235000Y-59297064D01*
X81765000Y-58842936D02*
X81765000Y-59297064D01*
%TO.C,C3*%
X52425000Y-61345000D02*
X53050000Y-61345000D01*
X52737500Y-61032500D02*
X52737500Y-61657500D01*
X53290000Y-61334437D02*
X53290000Y-61970000D01*
X53290000Y-61334437D02*
X54354437Y-60270000D01*
X53290000Y-64725563D02*
X53290000Y-64090000D01*
X53290000Y-64725563D02*
X54354437Y-65790000D01*
X54354437Y-60270000D02*
X58810000Y-60270000D01*
X54354437Y-65790000D02*
X58810000Y-65790000D01*
X58810000Y-60270000D02*
X58810000Y-61970000D01*
X58810000Y-65790000D02*
X58810000Y-64090000D01*
%TO.C,C4*%
X59265000Y-67368752D02*
X59265000Y-66846248D01*
X60735000Y-67368752D02*
X60735000Y-66846248D01*
%TO.C,C13*%
X52700000Y-71470000D02*
X53200000Y-71470000D01*
X52950000Y-71220000D02*
X52950000Y-71720000D01*
X53440000Y-71834437D02*
X53440000Y-71970000D01*
X53440000Y-71834437D02*
X54504437Y-70770000D01*
X53440000Y-74225563D02*
X53440000Y-74090000D01*
X53440000Y-74225563D02*
X54504437Y-75290000D01*
X54504437Y-70770000D02*
X57960000Y-70770000D01*
X54504437Y-75290000D02*
X57960000Y-75290000D01*
X57960000Y-70770000D02*
X57960000Y-71970000D01*
X57960000Y-75290000D02*
X57960000Y-74090000D01*
%TO.C,C14*%
X52700000Y-76760000D02*
X53200000Y-76760000D01*
X52950000Y-76510000D02*
X52950000Y-77010000D01*
X53440000Y-77124437D02*
X53440000Y-77260000D01*
X53440000Y-77124437D02*
X54504437Y-76060000D01*
X53440000Y-79515563D02*
X53440000Y-79380000D01*
X53440000Y-79515563D02*
X54504437Y-80580000D01*
X54504437Y-76060000D02*
X57960000Y-76060000D01*
X54504437Y-80580000D02*
X57960000Y-80580000D01*
X57960000Y-76060000D02*
X57960000Y-77260000D01*
X57960000Y-80580000D02*
X57960000Y-79380000D01*
%TO.C,J6*%
X108750000Y-50220000D02*
X107500000Y-50220000D01*
X108460000Y-50510000D02*
X102490000Y-50510000D01*
X102490000Y-50510000D02*
X102490000Y-65630000D01*
X108450000Y-50520000D02*
X107700000Y-50520000D01*
X107700000Y-50520000D02*
X107700000Y-52320000D01*
X106200000Y-50520000D02*
X106200000Y-51270000D01*
X106200000Y-51270000D02*
X103250000Y-51270000D01*
X103250000Y-51270000D02*
X103250000Y-58070000D01*
X108750000Y-51470000D02*
X108750000Y-50220000D01*
X108450000Y-52320000D02*
X108450000Y-50520000D01*
X107700000Y-52320000D02*
X108450000Y-52320000D01*
X108450000Y-53820000D02*
X107700000Y-53820000D01*
X107700000Y-53820000D02*
X107700000Y-62320000D01*
X108450000Y-62320000D02*
X108450000Y-53820000D01*
X107700000Y-62320000D02*
X108450000Y-62320000D01*
X108450000Y-63820000D02*
X107700000Y-63820000D01*
X107700000Y-63820000D02*
X107700000Y-65620000D01*
X106200000Y-64870000D02*
X103250000Y-64870000D01*
X103250000Y-64870000D02*
X103250000Y-58070000D01*
X108450000Y-65620000D02*
X108450000Y-63820000D01*
X107700000Y-65620000D02*
X108450000Y-65620000D01*
X106200000Y-65620000D02*
X106200000Y-64870000D01*
X108460000Y-65630000D02*
X108460000Y-50510000D01*
X102490000Y-65630000D02*
X108460000Y-65630000D01*
%TO.C,L1*%
X61340000Y-68092742D02*
X61340000Y-66422258D01*
X63160000Y-68092742D02*
X63160000Y-66422258D01*
%TO.C,J1*%
X100935000Y-93650000D02*
X99515000Y-93650000D01*
X100935000Y-87890000D02*
X100935000Y-93650000D01*
X100935000Y-86370000D02*
X100935000Y-86060000D01*
X100935000Y-86060000D02*
X91065000Y-86060000D01*
X99515000Y-93650000D02*
X99515000Y-93150000D01*
X99515000Y-93150000D02*
X92485000Y-93150000D01*
X92485000Y-93650000D02*
X91065000Y-93650000D01*
X92485000Y-93150000D02*
X92485000Y-93650000D01*
X91065000Y-93650000D02*
X91065000Y-87890000D01*
X91065000Y-86060000D02*
X91065000Y-86370000D01*
%TO.C,J8*%
X83685000Y-93755000D02*
X86760000Y-93755000D01*
X86760000Y-93755000D02*
X86760000Y-80885000D01*
X82170000Y-92335000D02*
X82670000Y-92335000D01*
X82670000Y-92335000D02*
X82670000Y-82305000D01*
X82170000Y-92315000D02*
X82170000Y-92335000D01*
X82170000Y-82305000D02*
X82170000Y-82325000D01*
X82670000Y-82305000D02*
X82170000Y-82305000D01*
X86760000Y-80885000D02*
X83685000Y-80885000D01*
%TO.C,C7*%
X101701248Y-66335000D02*
X102223752Y-66335000D01*
X101701248Y-67805000D02*
X102223752Y-67805000D01*
%TO.C,J4*%
X60150000Y-49914000D02*
X60150000Y-51164000D01*
X60440000Y-50204000D02*
X60440000Y-56174000D01*
X60440000Y-56174000D02*
X73060000Y-56174000D01*
X60450000Y-50214000D02*
X60450000Y-50964000D01*
X60450000Y-50964000D02*
X62250000Y-50964000D01*
X60450000Y-52464000D02*
X61200000Y-52464000D01*
X61200000Y-52464000D02*
X61200000Y-55414000D01*
X61200000Y-55414000D02*
X66750000Y-55414000D01*
X61400000Y-49914000D02*
X60150000Y-49914000D01*
X62250000Y-50214000D02*
X60450000Y-50214000D01*
X62250000Y-50964000D02*
X62250000Y-50214000D01*
X63750000Y-50214000D02*
X63750000Y-50964000D01*
X63750000Y-50964000D02*
X69750000Y-50964000D01*
X69750000Y-50214000D02*
X63750000Y-50214000D01*
X69750000Y-50964000D02*
X69750000Y-50214000D01*
X71250000Y-50214000D02*
X71250000Y-50964000D01*
X71250000Y-50964000D02*
X73050000Y-50964000D01*
X72300000Y-52464000D02*
X72300000Y-55414000D01*
X72300000Y-55414000D02*
X66750000Y-55414000D01*
X73050000Y-50214000D02*
X71250000Y-50214000D01*
X73050000Y-50964000D02*
X73050000Y-50214000D01*
X73050000Y-52464000D02*
X72300000Y-52464000D01*
X73060000Y-50204000D02*
X60440000Y-50204000D01*
X73060000Y-56174000D02*
X73060000Y-50204000D01*
%TO.C,C11*%
X75590000Y-60218752D02*
X75590000Y-58796248D01*
X77410000Y-60218752D02*
X77410000Y-58796248D01*
%TO.C,U5*%
X87970800Y-49767500D02*
X87970800Y-50409265D01*
X87970800Y-63730735D02*
X87970800Y-64372500D01*
X87970800Y-64372500D02*
X90338531Y-64372500D01*
X90338531Y-49767500D02*
X87970800Y-49767500D01*
X95661469Y-64372500D02*
X98029200Y-64372500D01*
X98029200Y-49767500D02*
X95661469Y-49767500D01*
X98029200Y-50409265D02*
X98029200Y-49767500D01*
X98029200Y-64372500D02*
X98029200Y-63730735D01*
%TO.C,C9*%
X83765000Y-59368752D02*
X83765000Y-58846248D01*
X85235000Y-59368752D02*
X85235000Y-58846248D01*
%TO.C,U4*%
X54870000Y-69790000D02*
X56630000Y-69790000D01*
X56630000Y-66720000D02*
X54200000Y-66720000D01*
%TO.C,C15*%
X98765000Y-62118752D02*
X98765000Y-61596248D01*
X100235000Y-62118752D02*
X100235000Y-61596248D01*
%TO.C,X1*%
X83025000Y-50570000D02*
X83825000Y-50570000D01*
X83025000Y-50770000D02*
X83025000Y-50570000D01*
X83225000Y-53570000D02*
X83025000Y-53370000D01*
X83825000Y-53570000D02*
X83225000Y-53570000D01*
X83825000Y-53570000D02*
X83825000Y-54070000D01*
X85225000Y-50570000D02*
X86025000Y-50570000D01*
X85225000Y-53570000D02*
X85225000Y-54070000D01*
X86025000Y-50570000D02*
X86025000Y-50770000D01*
X86025000Y-53370000D02*
X86025000Y-53570000D01*
X86025000Y-53570000D02*
X85225000Y-53570000D01*
%TO.C,D3*%
X83330000Y-72330000D02*
X83330000Y-70170000D01*
X83330000Y-72330000D02*
X82400000Y-72330000D01*
X80170000Y-72330000D02*
X80170000Y-70870000D01*
X80170000Y-72330000D02*
X81100000Y-72330000D01*
%TO.C,D5*%
X62000000Y-70570000D02*
X60000000Y-70570000D01*
X62000000Y-70570000D02*
X62000000Y-74470000D01*
X60000000Y-70570000D02*
X60000000Y-74470000D01*
%TO.C,D6*%
X61000000Y-61920000D02*
X63000000Y-61920000D01*
X61000000Y-61920000D02*
X61000000Y-58020000D01*
X63000000Y-61920000D02*
X63000000Y-58020000D01*
%TO.C,J9*%
X69020000Y-86470000D02*
X69020000Y-85320000D01*
X69020000Y-85320000D02*
X67970000Y-85320000D01*
X67970000Y-85320000D02*
X67970000Y-84330000D01*
X67850000Y-88440000D02*
X57970000Y-88440000D01*
X56800000Y-86470000D02*
X56800000Y-85320000D01*
X56800000Y-85320000D02*
X57850000Y-85320000D01*
%TO.C,J3*%
X77220000Y-86470000D02*
X77220000Y-85320000D01*
X77220000Y-85320000D02*
X76170000Y-85320000D01*
X76170000Y-85320000D02*
X76170000Y-84330000D01*
X76050000Y-88440000D02*
X72170000Y-88440000D01*
X71000000Y-86470000D02*
X71000000Y-85320000D01*
X71000000Y-85320000D02*
X72050000Y-85320000D01*
%TO.C,D1*%
X102000000Y-50110000D02*
X100000000Y-50110000D01*
X102000000Y-50110000D02*
X102000000Y-54120000D01*
X100000000Y-50110000D02*
X100000000Y-54120000D01*
%TO.C,J5*%
X52480000Y-84320000D02*
X53810000Y-84320000D01*
X52480000Y-85650000D02*
X52480000Y-84320000D01*
X52480000Y-86920000D02*
X52480000Y-92060000D01*
X52480000Y-86920000D02*
X55140000Y-86920000D01*
X52480000Y-92060000D02*
X55140000Y-92060000D01*
X55140000Y-86920000D02*
X55140000Y-92060000D01*
%TD*%
M02*
