%TF.GenerationSoftware,KiCad,Pcbnew,7.0.8*%
%TF.CreationDate,2023-12-11T19:12:45+01:00*%
%TF.ProjectId,SmartDisplay,536d6172-7444-4697-9370-6c61792e6b69,rev?*%
%TF.SameCoordinates,Original*%
%TF.FileFunction,Legend,Bot*%
%TF.FilePolarity,Positive*%
%FSLAX46Y46*%
G04 Gerber Fmt 4.6, Leading zero omitted, Abs format (unit mm)*
G04 Created by KiCad (PCBNEW 7.0.8) date 2023-12-11 19:12:45*
%MOMM*%
%LPD*%
G01*
G04 APERTURE LIST*
%ADD10C,0.150000*%
%ADD11C,0.120000*%
G04 APERTURE END LIST*
D10*
X146654819Y-53486666D02*
X147369104Y-53486666D01*
X147369104Y-53486666D02*
X147511961Y-53439047D01*
X147511961Y-53439047D02*
X147607200Y-53343809D01*
X147607200Y-53343809D02*
X147654819Y-53200952D01*
X147654819Y-53200952D02*
X147654819Y-53105714D01*
X147654819Y-53962857D02*
X146654819Y-53962857D01*
X146654819Y-53962857D02*
X146654819Y-54343809D01*
X146654819Y-54343809D02*
X146702438Y-54439047D01*
X146702438Y-54439047D02*
X146750057Y-54486666D01*
X146750057Y-54486666D02*
X146845295Y-54534285D01*
X146845295Y-54534285D02*
X146988152Y-54534285D01*
X146988152Y-54534285D02*
X147083390Y-54486666D01*
X147083390Y-54486666D02*
X147131009Y-54439047D01*
X147131009Y-54439047D02*
X147178628Y-54343809D01*
X147178628Y-54343809D02*
X147178628Y-53962857D01*
X146654819Y-55439047D02*
X146654819Y-54962857D01*
X146654819Y-54962857D02*
X147131009Y-54915238D01*
X147131009Y-54915238D02*
X147083390Y-54962857D01*
X147083390Y-54962857D02*
X147035771Y-55058095D01*
X147035771Y-55058095D02*
X147035771Y-55296190D01*
X147035771Y-55296190D02*
X147083390Y-55391428D01*
X147083390Y-55391428D02*
X147131009Y-55439047D01*
X147131009Y-55439047D02*
X147226247Y-55486666D01*
X147226247Y-55486666D02*
X147464342Y-55486666D01*
X147464342Y-55486666D02*
X147559580Y-55439047D01*
X147559580Y-55439047D02*
X147607200Y-55391428D01*
X147607200Y-55391428D02*
X147654819Y-55296190D01*
X147654819Y-55296190D02*
X147654819Y-55058095D01*
X147654819Y-55058095D02*
X147607200Y-54962857D01*
X147607200Y-54962857D02*
X147559580Y-54915238D01*
X84654819Y-53486666D02*
X85369104Y-53486666D01*
X85369104Y-53486666D02*
X85511961Y-53439047D01*
X85511961Y-53439047D02*
X85607200Y-53343809D01*
X85607200Y-53343809D02*
X85654819Y-53200952D01*
X85654819Y-53200952D02*
X85654819Y-53105714D01*
X85654819Y-53962857D02*
X84654819Y-53962857D01*
X84654819Y-53962857D02*
X84654819Y-54343809D01*
X84654819Y-54343809D02*
X84702438Y-54439047D01*
X84702438Y-54439047D02*
X84750057Y-54486666D01*
X84750057Y-54486666D02*
X84845295Y-54534285D01*
X84845295Y-54534285D02*
X84988152Y-54534285D01*
X84988152Y-54534285D02*
X85083390Y-54486666D01*
X85083390Y-54486666D02*
X85131009Y-54439047D01*
X85131009Y-54439047D02*
X85178628Y-54343809D01*
X85178628Y-54343809D02*
X85178628Y-53962857D01*
X84654819Y-54867619D02*
X84654819Y-55486666D01*
X84654819Y-55486666D02*
X85035771Y-55153333D01*
X85035771Y-55153333D02*
X85035771Y-55296190D01*
X85035771Y-55296190D02*
X85083390Y-55391428D01*
X85083390Y-55391428D02*
X85131009Y-55439047D01*
X85131009Y-55439047D02*
X85226247Y-55486666D01*
X85226247Y-55486666D02*
X85464342Y-55486666D01*
X85464342Y-55486666D02*
X85559580Y-55439047D01*
X85559580Y-55439047D02*
X85607200Y-55391428D01*
X85607200Y-55391428D02*
X85654819Y-55296190D01*
X85654819Y-55296190D02*
X85654819Y-55010476D01*
X85654819Y-55010476D02*
X85607200Y-54915238D01*
X85607200Y-54915238D02*
X85559580Y-54867619D01*
D11*
%TO.C,JP5*%
X149300000Y-52270000D02*
X148700000Y-52270000D01*
X150500000Y-52820000D02*
X150500000Y-53420000D01*
X148000000Y-52920000D02*
X148000000Y-55720000D01*
X150200000Y-53120000D02*
X150500000Y-52820000D01*
X150200000Y-53120000D02*
X150500000Y-53420000D01*
X150000000Y-55720000D02*
X150000000Y-52920000D01*
X148700000Y-56370000D02*
X149300000Y-56370000D01*
X150000000Y-52970000D02*
G75*
G03*
X149300000Y-52270000I-699999J1D01*
G01*
X148700000Y-52270000D02*
G75*
G03*
X148000000Y-52970000I-1J-699999D01*
G01*
X149300000Y-56370000D02*
G75*
G03*
X150000000Y-55670000I0J700000D01*
G01*
X148000000Y-55670000D02*
G75*
G03*
X148700000Y-56370000I700000J0D01*
G01*
%TO.C,JP3*%
X87300000Y-52270000D02*
X86700000Y-52270000D01*
X88500000Y-52820000D02*
X88500000Y-53420000D01*
X86000000Y-52920000D02*
X86000000Y-55720000D01*
X88200000Y-53120000D02*
X88500000Y-52820000D01*
X88200000Y-53120000D02*
X88500000Y-53420000D01*
X88000000Y-55720000D02*
X88000000Y-52920000D01*
X86700000Y-56370000D02*
X87300000Y-56370000D01*
X88000000Y-52970000D02*
G75*
G03*
X87300000Y-52270000I-699999J1D01*
G01*
X86700000Y-52270000D02*
G75*
G03*
X86000000Y-52970000I-1J-699999D01*
G01*
X87300000Y-56370000D02*
G75*
G03*
X88000000Y-55670000I0J700000D01*
G01*
X86000000Y-55670000D02*
G75*
G03*
X86700000Y-56370000I700000J0D01*
G01*
%TD*%
M02*
