%TF.GenerationSoftware,KiCad,Pcbnew,(5.1.12-1-10_14)*%
%TF.CreationDate,2023-02-08T21:42:28+01:00*%
%TF.ProjectId,SmartDisplay,536d6172-7444-4697-9370-6c61792e6b69,rev?*%
%TF.SameCoordinates,Original*%
%TF.FileFunction,Copper,L2,Bot*%
%TF.FilePolarity,Positive*%
%FSLAX46Y46*%
G04 Gerber Fmt 4.6, Leading zero omitted, Abs format (unit mm)*
G04 Created by KiCad (PCBNEW (5.1.12-1-10_14)) date 2023-02-08 21:42:28*
%MOMM*%
%LPD*%
G01*
G04 APERTURE LIST*
%TA.AperFunction,NonConductor*%
%ADD10C,0.300000*%
%TD*%
%TA.AperFunction,EtchedComponent*%
%ADD11C,0.100000*%
%TD*%
%TA.AperFunction,SMDPad,CuDef*%
%ADD12C,0.100000*%
%TD*%
%TA.AperFunction,SMDPad,CuDef*%
%ADD13R,1.500000X1.000000*%
%TD*%
%TA.AperFunction,ComponentPad*%
%ADD14C,0.800000*%
%TD*%
%TA.AperFunction,ComponentPad*%
%ADD15C,6.400000*%
%TD*%
%TA.AperFunction,ComponentPad*%
%ADD16O,2.020000X1.500000*%
%TD*%
%TA.AperFunction,ComponentPad*%
%ADD17O,1.700000X1.950000*%
%TD*%
%TA.AperFunction,ComponentPad*%
%ADD18O,1.700000X2.000000*%
%TD*%
%TA.AperFunction,ComponentPad*%
%ADD19O,1.950000X1.700000*%
%TD*%
%TA.AperFunction,ComponentPad*%
%ADD20O,1.700000X1.700000*%
%TD*%
%TA.AperFunction,ComponentPad*%
%ADD21R,1.700000X1.700000*%
%TD*%
%TA.AperFunction,ComponentPad*%
%ADD22C,1.500000*%
%TD*%
%TA.AperFunction,ViaPad*%
%ADD23C,0.800000*%
%TD*%
%TA.AperFunction,Conductor*%
%ADD24C,0.250000*%
%TD*%
%TA.AperFunction,Conductor*%
%ADD25C,0.350000*%
%TD*%
%TA.AperFunction,Conductor*%
%ADD26C,0.254000*%
%TD*%
%TA.AperFunction,Conductor*%
%ADD27C,0.100000*%
%TD*%
G04 APERTURE END LIST*
D10*
X179103571Y-96927142D02*
X179103571Y-97498571D01*
X180103571Y-97141428D02*
X178817857Y-97141428D01*
X178675000Y-97212857D01*
X178603571Y-97355714D01*
X178603571Y-97498571D01*
X180103571Y-97998571D02*
X179103571Y-97998571D01*
X178603571Y-97998571D02*
X178675000Y-97927142D01*
X178746428Y-97998571D01*
X178675000Y-98070000D01*
X178603571Y-97998571D01*
X178746428Y-97998571D01*
X179103571Y-98570000D02*
X179103571Y-99355714D01*
X180103571Y-98570000D01*
X180103571Y-99355714D01*
X179532142Y-99927142D02*
X179532142Y-101070000D01*
X180103571Y-101998571D02*
X180032142Y-101855714D01*
X179960714Y-101784285D01*
X179817857Y-101712857D01*
X179389285Y-101712857D01*
X179246428Y-101784285D01*
X179175000Y-101855714D01*
X179103571Y-101998571D01*
X179103571Y-102212857D01*
X179175000Y-102355714D01*
X179246428Y-102427142D01*
X179389285Y-102498571D01*
X179817857Y-102498571D01*
X179960714Y-102427142D01*
X180032142Y-102355714D01*
X180103571Y-102212857D01*
X180103571Y-101998571D01*
X179532142Y-103141428D02*
X179532142Y-104284285D01*
X180103571Y-104998571D02*
X179103571Y-104998571D01*
X179246428Y-104998571D02*
X179175000Y-105070000D01*
X179103571Y-105212857D01*
X179103571Y-105427142D01*
X179175000Y-105570000D01*
X179317857Y-105641428D01*
X180103571Y-105641428D01*
X179317857Y-105641428D02*
X179175000Y-105712857D01*
X179103571Y-105855714D01*
X179103571Y-106070000D01*
X179175000Y-106212857D01*
X179317857Y-106284285D01*
X180103571Y-106284285D01*
X180103571Y-107641428D02*
X179317857Y-107641428D01*
X179175000Y-107570000D01*
X179103571Y-107427142D01*
X179103571Y-107141428D01*
X179175000Y-106998571D01*
X180032142Y-107641428D02*
X180103571Y-107498571D01*
X180103571Y-107141428D01*
X180032142Y-106998571D01*
X179889285Y-106927142D01*
X179746428Y-106927142D01*
X179603571Y-106998571D01*
X179532142Y-107141428D01*
X179532142Y-107498571D01*
X179460714Y-107641428D01*
X179103571Y-108141428D02*
X179103571Y-108712857D01*
X178603571Y-108355714D02*
X179889285Y-108355714D01*
X180032142Y-108427142D01*
X180103571Y-108570000D01*
X180103571Y-108712857D01*
X180103571Y-109212857D02*
X179103571Y-109212857D01*
X178603571Y-109212857D02*
X178675000Y-109141428D01*
X178746428Y-109212857D01*
X178675000Y-109284285D01*
X178603571Y-109212857D01*
X178746428Y-109212857D01*
X180032142Y-110570000D02*
X180103571Y-110427142D01*
X180103571Y-110141428D01*
X180032142Y-109998571D01*
X179960714Y-109927142D01*
X179817857Y-109855714D01*
X179389285Y-109855714D01*
X179246428Y-109927142D01*
X179175000Y-109998571D01*
X179103571Y-110141428D01*
X179103571Y-110427142D01*
X179175000Y-110570000D01*
X182582142Y-93855714D02*
X182653571Y-94070000D01*
X182653571Y-94427142D01*
X182582142Y-94570000D01*
X182510714Y-94641428D01*
X182367857Y-94712857D01*
X182225000Y-94712857D01*
X182082142Y-94641428D01*
X182010714Y-94570000D01*
X181939285Y-94427142D01*
X181867857Y-94141428D01*
X181796428Y-93998571D01*
X181725000Y-93927142D01*
X181582142Y-93855714D01*
X181439285Y-93855714D01*
X181296428Y-93927142D01*
X181225000Y-93998571D01*
X181153571Y-94141428D01*
X181153571Y-94498571D01*
X181225000Y-94712857D01*
X182653571Y-95355714D02*
X181653571Y-95355714D01*
X181796428Y-95355714D02*
X181725000Y-95427142D01*
X181653571Y-95570000D01*
X181653571Y-95784285D01*
X181725000Y-95927142D01*
X181867857Y-95998571D01*
X182653571Y-95998571D01*
X181867857Y-95998571D02*
X181725000Y-96070000D01*
X181653571Y-96212857D01*
X181653571Y-96427142D01*
X181725000Y-96570000D01*
X181867857Y-96641428D01*
X182653571Y-96641428D01*
X182653571Y-97998571D02*
X181867857Y-97998571D01*
X181725000Y-97927142D01*
X181653571Y-97784285D01*
X181653571Y-97498571D01*
X181725000Y-97355714D01*
X182582142Y-97998571D02*
X182653571Y-97855714D01*
X182653571Y-97498571D01*
X182582142Y-97355714D01*
X182439285Y-97284285D01*
X182296428Y-97284285D01*
X182153571Y-97355714D01*
X182082142Y-97498571D01*
X182082142Y-97855714D01*
X182010714Y-97998571D01*
X182653571Y-98712857D02*
X181653571Y-98712857D01*
X181939285Y-98712857D02*
X181796428Y-98784285D01*
X181725000Y-98855714D01*
X181653571Y-98998571D01*
X181653571Y-99141428D01*
X181653571Y-99427142D02*
X181653571Y-99998571D01*
X181153571Y-99641428D02*
X182439285Y-99641428D01*
X182582142Y-99712857D01*
X182653571Y-99855714D01*
X182653571Y-99998571D01*
X182653571Y-100498571D02*
X181153571Y-100498571D01*
X181153571Y-100855714D01*
X181225000Y-101070000D01*
X181367857Y-101212857D01*
X181510714Y-101284285D01*
X181796428Y-101355714D01*
X182010714Y-101355714D01*
X182296428Y-101284285D01*
X182439285Y-101212857D01*
X182582142Y-101070000D01*
X182653571Y-100855714D01*
X182653571Y-100498571D01*
X182653571Y-101998571D02*
X181653571Y-101998571D01*
X181153571Y-101998571D02*
X181225000Y-101927142D01*
X181296428Y-101998571D01*
X181225000Y-102070000D01*
X181153571Y-101998571D01*
X181296428Y-101998571D01*
X182582142Y-102641428D02*
X182653571Y-102784285D01*
X182653571Y-103070000D01*
X182582142Y-103212857D01*
X182439285Y-103284285D01*
X182367857Y-103284285D01*
X182225000Y-103212857D01*
X182153571Y-103070000D01*
X182153571Y-102855714D01*
X182082142Y-102712857D01*
X181939285Y-102641428D01*
X181867857Y-102641428D01*
X181725000Y-102712857D01*
X181653571Y-102855714D01*
X181653571Y-103070000D01*
X181725000Y-103212857D01*
X181653571Y-103927142D02*
X183153571Y-103927142D01*
X181725000Y-103927142D02*
X181653571Y-104070000D01*
X181653571Y-104355714D01*
X181725000Y-104498571D01*
X181796428Y-104570000D01*
X181939285Y-104641428D01*
X182367857Y-104641428D01*
X182510714Y-104570000D01*
X182582142Y-104498571D01*
X182653571Y-104355714D01*
X182653571Y-104070000D01*
X182582142Y-103927142D01*
X182653571Y-105498571D02*
X182582142Y-105355714D01*
X182439285Y-105284285D01*
X181153571Y-105284285D01*
X182653571Y-106712857D02*
X181867857Y-106712857D01*
X181725000Y-106641428D01*
X181653571Y-106498571D01*
X181653571Y-106212857D01*
X181725000Y-106070000D01*
X182582142Y-106712857D02*
X182653571Y-106570000D01*
X182653571Y-106212857D01*
X182582142Y-106070000D01*
X182439285Y-105998571D01*
X182296428Y-105998571D01*
X182153571Y-106070000D01*
X182082142Y-106212857D01*
X182082142Y-106570000D01*
X182010714Y-106712857D01*
X181653571Y-107284285D02*
X182653571Y-107641428D01*
X181653571Y-107998571D02*
X182653571Y-107641428D01*
X183010714Y-107498571D01*
X183082142Y-107427142D01*
X183153571Y-107284285D01*
X181653571Y-109570000D02*
X182653571Y-109927142D01*
X181653571Y-110284285D01*
X181153571Y-111141428D02*
X181153571Y-111284285D01*
X181225000Y-111427142D01*
X181296428Y-111498571D01*
X181439285Y-111570000D01*
X181725000Y-111641428D01*
X182082142Y-111641428D01*
X182367857Y-111570000D01*
X182510714Y-111498571D01*
X182582142Y-111427142D01*
X182653571Y-111284285D01*
X182653571Y-111141428D01*
X182582142Y-110998571D01*
X182510714Y-110927142D01*
X182367857Y-110855714D01*
X182082142Y-110784285D01*
X181725000Y-110784285D01*
X181439285Y-110855714D01*
X181296428Y-110927142D01*
X181225000Y-110998571D01*
X181153571Y-111141428D01*
X182510714Y-112284285D02*
X182582142Y-112355714D01*
X182653571Y-112284285D01*
X182582142Y-112212857D01*
X182510714Y-112284285D01*
X182653571Y-112284285D01*
X181153571Y-113641428D02*
X181153571Y-113355714D01*
X181225000Y-113212857D01*
X181296428Y-113141428D01*
X181510714Y-112998571D01*
X181796428Y-112927142D01*
X182367857Y-112927142D01*
X182510714Y-112998571D01*
X182582142Y-113070000D01*
X182653571Y-113212857D01*
X182653571Y-113498571D01*
X182582142Y-113641428D01*
X182510714Y-113712857D01*
X182367857Y-113784285D01*
X182010714Y-113784285D01*
X181867857Y-113712857D01*
X181796428Y-113641428D01*
X181725000Y-113498571D01*
X181725000Y-113212857D01*
X181796428Y-113070000D01*
X181867857Y-112998571D01*
X182010714Y-112927142D01*
D11*
%TO.C,JP3*%
G36*
X162200000Y-81020000D02*
G01*
X162200000Y-81520000D01*
X162800000Y-81520000D01*
X162800000Y-81020000D01*
X162200000Y-81020000D01*
G37*
%TD*%
%TA.AperFunction,SMDPad,CuDef*%
D12*
%TO.P,JP3,1*%
%TO.N,Net-(JP3-Pad1)*%
G36*
X161750000Y-81170000D02*
G01*
X161750000Y-80620000D01*
X161750602Y-80620000D01*
X161750602Y-80595466D01*
X161755412Y-80546635D01*
X161764984Y-80498510D01*
X161779228Y-80451555D01*
X161798005Y-80406222D01*
X161821136Y-80362949D01*
X161848396Y-80322150D01*
X161879524Y-80284221D01*
X161914221Y-80249524D01*
X161952150Y-80218396D01*
X161992949Y-80191136D01*
X162036222Y-80168005D01*
X162081555Y-80149228D01*
X162128510Y-80134984D01*
X162176635Y-80125412D01*
X162225466Y-80120602D01*
X162250000Y-80120602D01*
X162250000Y-80120000D01*
X162750000Y-80120000D01*
X162750000Y-80120602D01*
X162774534Y-80120602D01*
X162823365Y-80125412D01*
X162871490Y-80134984D01*
X162918445Y-80149228D01*
X162963778Y-80168005D01*
X163007051Y-80191136D01*
X163047850Y-80218396D01*
X163085779Y-80249524D01*
X163120476Y-80284221D01*
X163151604Y-80322150D01*
X163178864Y-80362949D01*
X163201995Y-80406222D01*
X163220772Y-80451555D01*
X163235016Y-80498510D01*
X163244588Y-80546635D01*
X163249398Y-80595466D01*
X163249398Y-80620000D01*
X163250000Y-80620000D01*
X163250000Y-81170000D01*
X161750000Y-81170000D01*
G37*
%TD.AperFunction*%
D13*
%TO.P,JP3,2*%
%TO.N,Net-(JP3-Pad2)*%
X162500000Y-81920000D03*
%TA.AperFunction,SMDPad,CuDef*%
D12*
%TO.P,JP3,3*%
%TO.N,Net-(JP3-Pad3)*%
G36*
X163249398Y-83220000D02*
G01*
X163249398Y-83244534D01*
X163244588Y-83293365D01*
X163235016Y-83341490D01*
X163220772Y-83388445D01*
X163201995Y-83433778D01*
X163178864Y-83477051D01*
X163151604Y-83517850D01*
X163120476Y-83555779D01*
X163085779Y-83590476D01*
X163047850Y-83621604D01*
X163007051Y-83648864D01*
X162963778Y-83671995D01*
X162918445Y-83690772D01*
X162871490Y-83705016D01*
X162823365Y-83714588D01*
X162774534Y-83719398D01*
X162750000Y-83719398D01*
X162750000Y-83720000D01*
X162250000Y-83720000D01*
X162250000Y-83719398D01*
X162225466Y-83719398D01*
X162176635Y-83714588D01*
X162128510Y-83705016D01*
X162081555Y-83690772D01*
X162036222Y-83671995D01*
X161992949Y-83648864D01*
X161952150Y-83621604D01*
X161914221Y-83590476D01*
X161879524Y-83555779D01*
X161848396Y-83517850D01*
X161821136Y-83477051D01*
X161798005Y-83433778D01*
X161779228Y-83388445D01*
X161764984Y-83341490D01*
X161755412Y-83293365D01*
X161750602Y-83244534D01*
X161750602Y-83220000D01*
X161750000Y-83220000D01*
X161750000Y-82670000D01*
X163250000Y-82670000D01*
X163250000Y-83220000D01*
X163249398Y-83220000D01*
G37*
%TD.AperFunction*%
%TD*%
D14*
%TO.P,H2,1*%
%TO.N,Net-(H2-Pad1)*%
X182972112Y-116459000D03*
X181275056Y-115756056D03*
X179578000Y-116459000D03*
X178875056Y-118156056D03*
X179578000Y-119853112D03*
X181275056Y-120556056D03*
X182972112Y-119853112D03*
X183675056Y-118156056D03*
D15*
X181275056Y-118156056D03*
%TD*%
D16*
%TO.P,J8,3*%
%TO.N,+3V3*%
X160250000Y-111920000D03*
%TO.P,J8,2*%
%TO.N,1WIRE*%
X160250000Y-114920000D03*
%TO.P,J8,1*%
%TO.N,GND*%
%TA.AperFunction,ComponentPad*%
G36*
G01*
X161010000Y-118670000D02*
X159490000Y-118670000D01*
G75*
G02*
X159240000Y-118420000I0J250000D01*
G01*
X159240000Y-117420000D01*
G75*
G02*
X159490000Y-117170000I250000J0D01*
G01*
X161010000Y-117170000D01*
G75*
G02*
X161260000Y-117420000I0J-250000D01*
G01*
X161260000Y-118420000D01*
G75*
G02*
X161010000Y-118670000I-250000J0D01*
G01*
G37*
%TD.AperFunction*%
%TD*%
D17*
%TO.P,J4,4*%
%TO.N,GND*%
X146000000Y-80264000D03*
%TO.P,J4,3*%
%TO.N,INSTR.BEL*%
X143500000Y-80264000D03*
%TO.P,J4,2*%
%TO.N,GND*%
X141000000Y-80264000D03*
%TO.P,J4,1*%
%TO.N,+12V*%
%TA.AperFunction,ComponentPad*%
G36*
G01*
X137650000Y-80989000D02*
X137650000Y-79539000D01*
G75*
G02*
X137900000Y-79289000I250000J0D01*
G01*
X139100000Y-79289000D01*
G75*
G02*
X139350000Y-79539000I0J-250000D01*
G01*
X139350000Y-80989000D01*
G75*
G02*
X139100000Y-81239000I-250000J0D01*
G01*
X137900000Y-81239000D01*
G75*
G02*
X137650000Y-80989000I0J250000D01*
G01*
G37*
%TD.AperFunction*%
%TD*%
D18*
%TO.P,J2,2*%
%TO.N,GND*%
X154500000Y-80264000D03*
%TO.P,J2,1*%
%TO.N,Net-(J2-Pad1)*%
%TA.AperFunction,ComponentPad*%
G36*
G01*
X151150000Y-81014000D02*
X151150000Y-79514000D01*
G75*
G02*
X151400000Y-79264000I250000J0D01*
G01*
X152600000Y-79264000D01*
G75*
G02*
X152850000Y-79514000I0J-250000D01*
G01*
X152850000Y-81014000D01*
G75*
G02*
X152600000Y-81264000I-250000J0D01*
G01*
X151400000Y-81264000D01*
G75*
G02*
X151150000Y-81014000I0J250000D01*
G01*
G37*
%TD.AperFunction*%
%TD*%
D19*
%TO.P,J6,5*%
%TO.N,Net-(C12-Pad1)*%
X181500000Y-90670000D03*
%TO.P,J6,4*%
%TO.N,RXD*%
X181500000Y-88170000D03*
%TO.P,J6,3*%
%TO.N,TXD*%
X181500000Y-85670000D03*
%TO.P,J6,2*%
%TO.N,GND*%
X181500000Y-83170000D03*
%TO.P,J6,1*%
%TO.N,+3V3*%
%TA.AperFunction,ComponentPad*%
G36*
G01*
X180775000Y-79820000D02*
X182225000Y-79820000D01*
G75*
G02*
X182475000Y-80070000I0J-250000D01*
G01*
X182475000Y-81270000D01*
G75*
G02*
X182225000Y-81520000I-250000J0D01*
G01*
X180775000Y-81520000D01*
G75*
G02*
X180525000Y-81270000I0J250000D01*
G01*
X180525000Y-80070000D01*
G75*
G02*
X180775000Y-79820000I250000J0D01*
G01*
G37*
%TD.AperFunction*%
%TD*%
D20*
%TO.P,J5,6*%
%TO.N,GND*%
X139192000Y-111760000D03*
%TO.P,J5,5*%
%TO.N,MISO*%
X139192000Y-114300000D03*
%TO.P,J5,4*%
%TO.N,MOSI*%
X136652000Y-111760000D03*
%TO.P,J5,3*%
%TO.N,SCK*%
X136652000Y-114300000D03*
%TO.P,J5,2*%
%TO.N,+3V3*%
X134112000Y-111760000D03*
D21*
%TO.P,J5,1*%
%TO.N,UPDI*%
X134112000Y-114300000D03*
%TD*%
D20*
%TO.P,J3,2*%
%TO.N,INSTR.BEL*%
X131572000Y-111760000D03*
D21*
%TO.P,J3,1*%
%TO.N,+12V*%
X131572000Y-114300000D03*
%TD*%
D20*
%TO.P,J7,12*%
%TO.N,+3V3*%
X154432000Y-111760000D03*
%TO.P,J7,11*%
%TO.N,GND*%
X154432000Y-114300000D03*
%TO.P,J7,10*%
%TO.N,SCL*%
X151892000Y-111760000D03*
%TO.P,J7,9*%
%TO.N,SDA*%
X151892000Y-114300000D03*
%TO.P,J7,8*%
%TO.N,D4*%
X149352000Y-111760000D03*
%TO.P,J7,7*%
%TO.N,A2*%
X149352000Y-114300000D03*
%TO.P,J7,6*%
%TO.N,A1*%
X146812000Y-111760000D03*
%TO.P,J7,5*%
%TO.N,A0*%
X146812000Y-114300000D03*
%TO.P,J7,4*%
%TO.N,D9*%
X144272000Y-111760000D03*
%TO.P,J7,3*%
%TO.N,D8*%
X144272000Y-114300000D03*
%TO.P,J7,2*%
%TO.N,D7*%
X141732000Y-111760000D03*
D21*
%TO.P,J7,1*%
%TO.N,D6*%
X141732000Y-114300000D03*
%TD*%
D14*
%TO.P,H1,1*%
%TO.N,Net-(H1-Pad1)*%
X132507056Y-79201944D03*
X130810000Y-78499000D03*
X129112944Y-79201944D03*
X128410000Y-80899000D03*
X129112944Y-82596056D03*
X130810000Y-83299000D03*
X132507056Y-82596056D03*
X133210000Y-80899000D03*
D15*
X130810000Y-80899000D03*
%TD*%
D22*
%TO.P,J1,4*%
%TO.N,CANH*%
X170000000Y-115670000D03*
%TO.P,J1,3*%
%TO.N,CANL*%
X173000000Y-115670000D03*
%TO.P,J1,2*%
%TO.N,GND*%
X170000000Y-118670000D03*
%TO.P,J1,1*%
%TO.N,+5V*%
%TA.AperFunction,ComponentPad*%
G36*
G01*
X173750000Y-118170000D02*
X173750000Y-119170000D01*
G75*
G02*
X173500000Y-119420000I-250000J0D01*
G01*
X172500000Y-119420000D01*
G75*
G02*
X172250000Y-119170000I0J250000D01*
G01*
X172250000Y-118170000D01*
G75*
G02*
X172500000Y-117920000I250000J0D01*
G01*
X173500000Y-117920000D01*
G75*
G02*
X173750000Y-118170000I0J-250000D01*
G01*
G37*
%TD.AperFunction*%
%TD*%
D23*
%TO.N,GND*%
X134750000Y-89170000D03*
X134250000Y-98420000D03*
X155750000Y-107420000D03*
X146300000Y-100020000D03*
X142300000Y-98020000D03*
X174500000Y-78420000D03*
X161750000Y-86670000D03*
X160250000Y-89170000D03*
X151500000Y-98170000D03*
X172500000Y-113420000D03*
X177500000Y-108920000D03*
X175500000Y-103420000D03*
X140000000Y-89670000D03*
X139750000Y-92420000D03*
X140250000Y-82920000D03*
X136500000Y-82920000D03*
X152500000Y-96670000D03*
%TO.N,D6*%
X153750000Y-100920000D03*
%TO.N,D7*%
X154300631Y-99958769D03*
%TO.N,SCK*%
X162250000Y-98920000D03*
X140500000Y-101670000D03*
X139774999Y-103944999D03*
%TO.N,MOSI*%
X162250000Y-100670000D03*
X140750000Y-100170000D03*
X139033464Y-103203464D03*
%TO.N,MISO*%
X162500000Y-101920000D03*
X139237347Y-100657347D03*
%TO.N,+5V*%
X134000000Y-102920000D03*
X170750000Y-105170000D03*
%TO.N,RESET*%
X166500000Y-95170000D03*
X175000000Y-82920000D03*
%TO.N,TXD*%
X166750000Y-93895000D03*
%TO.N,SCL*%
X139750000Y-99420000D03*
%TO.N,SDA*%
X143750000Y-96170000D03*
%TO.N,A3*%
X147750000Y-101170000D03*
X151750000Y-92920000D03*
X153250000Y-97420000D03*
%TO.N,D9*%
X144000000Y-109170000D03*
X150648848Y-97021152D03*
%TO.N,D8*%
X142750000Y-109920000D03*
X153000000Y-99170000D03*
%TO.N,Net-(C12-Pad1)*%
X178000000Y-89670000D03*
%TO.N,Net-(U2-Pad4)*%
X176750000Y-105645000D03*
X171750000Y-105420000D03*
%TO.N,INT_CAN*%
X162250000Y-97670000D03*
X141154563Y-104695000D03*
%TO.N,SS*%
X140750000Y-102670000D03*
X167250000Y-102670000D03*
%TO.N,UPDI*%
X149467280Y-94269989D03*
X135927000Y-107420000D03*
%TO.N,+3V3*%
X153000000Y-107420000D03*
X150000000Y-89170000D03*
X156500000Y-88920000D03*
X148700245Y-93544989D03*
X143250000Y-93544989D03*
X176750000Y-112420000D03*
%TO.N,Net-(D5-Pad1)*%
X134250000Y-97170000D03*
X137755933Y-92161972D03*
%TO.N,GPS_RXD*%
X144500000Y-102670000D03*
X161750000Y-91420000D03*
%TO.N,GPS_TXD*%
X144750000Y-103670000D03*
X162500000Y-89920000D03*
%TO.N,GPS_RESET*%
X162250000Y-88420000D03*
X145500000Y-101670000D03*
%TO.N,Net-(JP3-Pad1)*%
X162625002Y-80620000D03*
%TO.N,Net-(JP3-Pad2)*%
X162500000Y-81920000D03*
%TO.N,Net-(JP3-Pad3)*%
X162500000Y-83220000D03*
%TD*%
D24*
%TO.N,GND*%
X146344000Y-81076000D02*
X146344000Y-80264000D01*
%TO.N,D6*%
X141656999Y-115475001D02*
X138627999Y-115475001D01*
X141732000Y-115400000D02*
X141656999Y-115475001D01*
X138627999Y-115475001D02*
X137827001Y-114674003D01*
X141732000Y-114300000D02*
X141732000Y-115400000D01*
X137077001Y-109497001D02*
X137827001Y-110247001D01*
X134751990Y-107954402D02*
X136294589Y-109497001D01*
X134751989Y-106885599D02*
X134751990Y-107954402D01*
X136294589Y-109497001D02*
X137077001Y-109497001D01*
X135049991Y-106587597D02*
X134751989Y-106885599D01*
X135049991Y-98733599D02*
X135049991Y-106587597D01*
X155025632Y-100306770D02*
X155025632Y-99610768D01*
X154750641Y-99335777D02*
X154750641Y-94211229D01*
X155025632Y-99610768D02*
X154750641Y-99335777D01*
X137827001Y-114674003D02*
X137827001Y-110247001D01*
X142038601Y-91744989D02*
X135049991Y-98733599D01*
X154750641Y-94211229D02*
X152284402Y-91744990D01*
X154412402Y-100920000D02*
X155025632Y-100306770D01*
X152284402Y-91744990D02*
X142038601Y-91744989D01*
X153750000Y-100920000D02*
X154412402Y-100920000D01*
%TO.N,D7*%
X152098001Y-92194999D02*
X154300631Y-94397629D01*
X142225001Y-92194999D02*
X152098001Y-92194999D01*
X154300631Y-94397629D02*
X154300631Y-99958769D01*
X135500000Y-98920000D02*
X142225001Y-92194999D01*
X135500000Y-98920000D02*
X135500000Y-106773998D01*
X135201999Y-107768001D02*
X136480989Y-109046991D01*
X139018991Y-109046991D02*
X141732000Y-111760000D01*
X136480989Y-109046991D02*
X139018991Y-109046991D01*
X135201999Y-107071999D02*
X135201999Y-107768001D01*
X135500000Y-106773998D02*
X135201999Y-107071999D01*
%TO.N,SCK*%
X162250000Y-98920000D02*
X155750000Y-105420000D01*
X141073002Y-105420000D02*
X140848001Y-105645001D01*
X140151999Y-105645001D02*
X139774999Y-105268001D01*
X140848001Y-105645001D02*
X140151999Y-105645001D01*
X155750000Y-105420000D02*
X141073002Y-105420000D01*
X139774999Y-102395001D02*
X140500000Y-101670000D01*
X139774999Y-105268001D02*
X139774999Y-104145001D01*
X139774999Y-104145001D02*
X139774999Y-103944999D01*
X139774999Y-103944999D02*
X139774999Y-102395001D01*
%TO.N,MOSI*%
X162250000Y-100670000D02*
X156824989Y-106095011D01*
X139324989Y-101595011D02*
X140750000Y-100170000D01*
X139033464Y-101886536D02*
X139324989Y-101595011D01*
X139965599Y-106095011D02*
X156824989Y-106095011D01*
X139033464Y-105162876D02*
X139965599Y-106095011D01*
X139033464Y-103474085D02*
X139033464Y-105162876D01*
X139033464Y-103203464D02*
X139033464Y-101886536D01*
X139033464Y-103474085D02*
X139033464Y-103203464D01*
%TO.N,MISO*%
X139237347Y-100682653D02*
X139237347Y-100657347D01*
X138308463Y-101611537D02*
X139237347Y-100682653D01*
X138308463Y-105074285D02*
X138308463Y-101611537D01*
X139779197Y-106545019D02*
X138308463Y-105074285D01*
X157874981Y-106545019D02*
X139779197Y-106545019D01*
X162500000Y-101920000D02*
X157874981Y-106545019D01*
X139192000Y-114228000D02*
X139192000Y-114300000D01*
D25*
%TO.N,+5V*%
X137195520Y-91244981D02*
X155824981Y-91244981D01*
X133224999Y-95215502D02*
X137195520Y-91244981D01*
X133224999Y-102144999D02*
X133224999Y-95215502D01*
X134000000Y-102920000D02*
X133224999Y-102144999D01*
X155824981Y-91244981D02*
X156574981Y-91244981D01*
X170750000Y-100962880D02*
X170750000Y-105170000D01*
X163275001Y-93487881D02*
X170750000Y-100962880D01*
X163275001Y-88297999D02*
X163275001Y-93487881D01*
X160174963Y-87644999D02*
X162622001Y-87644999D01*
X162622001Y-87644999D02*
X163275001Y-88297999D01*
X156574981Y-91244981D02*
X160174963Y-87644999D01*
D24*
%TO.N,RESET*%
X166500000Y-95170000D02*
X166024999Y-94694999D01*
X166024999Y-93546999D02*
X167151998Y-92420000D01*
X166024999Y-94694999D02*
X166024999Y-93546999D01*
X167151998Y-92420000D02*
X171250000Y-92420000D01*
X171250000Y-92420000D02*
X173750000Y-89920000D01*
X173750000Y-84170000D02*
X175000000Y-82920000D01*
X173750000Y-89920000D02*
X173750000Y-84170000D01*
%TO.N,TXD*%
X166750000Y-93895000D02*
X172025000Y-93895000D01*
X180250000Y-85670000D02*
X181500000Y-85670000D01*
X172025000Y-93895000D02*
X180250000Y-85670000D01*
%TO.N,SCL*%
X139184315Y-99420000D02*
X139750000Y-99420000D01*
X137858453Y-100745862D02*
X139184315Y-99420000D01*
X151892000Y-111760000D02*
X151892000Y-108562000D01*
X137858453Y-105260685D02*
X137858453Y-100745862D01*
X139767768Y-107170000D02*
X137858453Y-105260685D01*
X150500000Y-107170000D02*
X139767768Y-107170000D01*
X151892000Y-108562000D02*
X150500000Y-107170000D01*
%TO.N,SDA*%
X139581368Y-107620010D02*
X137408444Y-105447086D01*
X141797907Y-96170000D02*
X143750000Y-96170000D01*
X149700010Y-107620010D02*
X139581368Y-107620010D01*
X150527001Y-108447001D02*
X149700010Y-107620010D01*
X137408444Y-100559463D02*
X141797907Y-96170000D01*
X150527001Y-112935001D02*
X150527001Y-108447001D01*
X137408444Y-105447086D02*
X137408444Y-100559463D01*
X151892000Y-114300000D02*
X150527001Y-112935001D01*
%TO.N,A3*%
X152073002Y-101170000D02*
X153725001Y-99518001D01*
X147750000Y-101170000D02*
X152073002Y-101170000D01*
X153725001Y-96145001D02*
X151750000Y-94170000D01*
X151750000Y-94170000D02*
X151750000Y-92920000D01*
X153250000Y-97420000D02*
X153274999Y-97395001D01*
X153725001Y-97395001D02*
X153725001Y-96145001D01*
X153274999Y-97395001D02*
X153725001Y-97395001D01*
X153725001Y-99518001D02*
X153725001Y-97395001D01*
%TO.N,D9*%
X140494948Y-109170000D02*
X144000000Y-109170000D01*
X141886498Y-95444999D02*
X137524951Y-99806546D01*
X136958434Y-100373063D02*
X137524951Y-99806546D01*
X136958434Y-105633486D02*
X136958434Y-100373063D01*
X140494948Y-109170000D02*
X136958434Y-105633486D01*
X141886498Y-95444999D02*
X149024999Y-95444999D01*
X150601152Y-97021152D02*
X150648848Y-97021152D01*
X149024999Y-95444999D02*
X150601152Y-97021152D01*
%TO.N,D8*%
X153000000Y-98346998D02*
X153000000Y-99170000D01*
X149647991Y-94994989D02*
X153000000Y-98346998D01*
X141700098Y-94994989D02*
X149647991Y-94994989D01*
X136508425Y-105819883D02*
X136508424Y-100186663D01*
X136508424Y-100186663D02*
X141700098Y-94994989D01*
X140608542Y-109920000D02*
X136508425Y-105819883D01*
X142750000Y-109920000D02*
X140608542Y-109920000D01*
D25*
%TO.N,+12V*%
X134500000Y-82170000D02*
X134500000Y-85170000D01*
X134500000Y-85170000D02*
X133750000Y-85920000D01*
X133750000Y-85920000D02*
X130000000Y-85920000D01*
X130000000Y-85920000D02*
X128250000Y-87670000D01*
X128250000Y-87670000D02*
X128250000Y-113170000D01*
X129380000Y-114300000D02*
X131572000Y-114300000D01*
X128250000Y-113170000D02*
X129380000Y-114300000D01*
X136406000Y-80264000D02*
X134500000Y-82170000D01*
X138500000Y-80264000D02*
X136406000Y-80264000D01*
D24*
%TO.N,INSTR.BEL*%
X131572000Y-111760000D02*
X129590000Y-111760000D01*
X129590000Y-111760000D02*
X129000000Y-111170000D01*
X129000000Y-111170000D02*
X129000000Y-87670000D01*
X130249990Y-86420010D02*
X133999990Y-86420010D01*
X129000000Y-87670000D02*
X130249990Y-86420010D01*
X135000000Y-85420000D02*
X135000000Y-82377120D01*
X133999990Y-86420010D02*
X135000000Y-85420000D01*
X135000000Y-82377120D02*
X135707120Y-81670000D01*
X135707120Y-81670000D02*
X143250000Y-81670000D01*
X143500000Y-81420000D02*
X143500000Y-80264000D01*
X143250000Y-81670000D02*
X143500000Y-81420000D01*
%TO.N,Net-(C12-Pad1)*%
X179000000Y-90670000D02*
X181500000Y-90670000D01*
X178000000Y-89670000D02*
X179000000Y-90670000D01*
%TO.N,Net-(U2-Pad4)*%
X176750000Y-105645000D02*
X171975000Y-105645000D01*
X171975000Y-105645000D02*
X171750000Y-105420000D01*
%TO.N,INT_CAN*%
X162250000Y-97670000D02*
X155000000Y-104920000D01*
X141379563Y-104920000D02*
X155000000Y-104920000D01*
X141154563Y-104695000D02*
X141379563Y-104920000D01*
%TO.N,SS*%
X140750000Y-102670000D02*
X142500000Y-104420000D01*
X142500000Y-104420000D02*
X154750000Y-104420000D01*
X161901999Y-96944999D02*
X166024999Y-96944999D01*
X154750000Y-104096998D02*
X161901999Y-96944999D01*
X154750000Y-104420000D02*
X154750000Y-104096998D01*
X166024999Y-96944999D02*
X167250000Y-98170000D01*
X167250000Y-98170000D02*
X167250000Y-102670000D01*
%TO.N,UPDI*%
X141788688Y-94269989D02*
X136058416Y-100000261D01*
X149467280Y-94269989D02*
X141788688Y-94269989D01*
X136058416Y-100000261D02*
X136058416Y-106006282D01*
X136058416Y-107288584D02*
X135927000Y-107420000D01*
X136058416Y-106006282D02*
X136058416Y-107288584D01*
%TO.N,+3V3*%
X154432000Y-111760000D02*
X158340000Y-111760000D01*
X158500000Y-111920000D02*
X160250000Y-111920000D01*
X158340000Y-111760000D02*
X158500000Y-111920000D01*
X154432000Y-108852000D02*
X154432000Y-111760000D01*
X153000000Y-107420000D02*
X154432000Y-108852000D01*
X156250000Y-89170000D02*
X156500000Y-88920000D01*
X150000000Y-89170000D02*
X156250000Y-89170000D01*
X148700245Y-93544989D02*
X143250000Y-93544989D01*
X176250000Y-111920000D02*
X160250000Y-111920000D01*
X176750000Y-112420000D02*
X176250000Y-111920000D01*
D25*
%TO.N,Net-(D5-Pad1)*%
X137755933Y-93664067D02*
X137755933Y-92161972D01*
X134250000Y-97170000D02*
X137755933Y-93664067D01*
D24*
%TO.N,GPS_RXD*%
X144500000Y-102670000D02*
X154250000Y-102670000D01*
X154250000Y-102670000D02*
X160750000Y-96170000D01*
X160750000Y-96170000D02*
X161750000Y-95170000D01*
X161750000Y-95170000D02*
X161750000Y-91420000D01*
%TO.N,GPS_TXD*%
X144750000Y-103670000D02*
X154000000Y-103670000D01*
X154000000Y-103670000D02*
X162500000Y-95170000D01*
X162500000Y-95170000D02*
X162500000Y-89920000D01*
%TO.N,GPS_RESET*%
X162250000Y-88420000D02*
X161000000Y-89670000D01*
X161000000Y-95283590D02*
X160563599Y-95719991D01*
X161000000Y-89670000D02*
X161000000Y-95283590D01*
X160563599Y-95719991D02*
X154113590Y-102170000D01*
X154113590Y-102170000D02*
X146000000Y-102170000D01*
X146000000Y-102170000D02*
X145500000Y-101670000D01*
%TD*%
D26*
%TO.N,GND*%
X164873000Y-85420000D02*
X164875440Y-85444776D01*
X164882667Y-85468601D01*
X164894403Y-85490557D01*
X164910197Y-85509803D01*
X164929443Y-85525597D01*
X164951399Y-85537333D01*
X164975224Y-85544560D01*
X165000000Y-85547000D01*
X172000000Y-85547000D01*
X172024776Y-85544560D01*
X172048601Y-85537333D01*
X172070557Y-85525597D01*
X172089803Y-85509803D01*
X172105597Y-85490557D01*
X172117333Y-85468601D01*
X172124560Y-85444776D01*
X172127000Y-85420000D01*
X172127000Y-77622000D01*
X184506001Y-77622000D01*
X184506000Y-116598641D01*
X184448497Y-116459816D01*
X184056600Y-115873302D01*
X183557810Y-115374512D01*
X182971296Y-114982615D01*
X182319595Y-114712672D01*
X181758183Y-114601000D01*
X183751000Y-114601000D01*
X183751000Y-93039000D01*
X177889000Y-93039000D01*
X177889000Y-114601000D01*
X180791929Y-114601000D01*
X180230517Y-114712672D01*
X179578816Y-114982615D01*
X178992302Y-115374512D01*
X178493512Y-115873302D01*
X178101615Y-116459816D01*
X177831672Y-117111517D01*
X177694056Y-117803358D01*
X177694056Y-118508754D01*
X177831672Y-119200595D01*
X178101615Y-119852296D01*
X178493512Y-120438810D01*
X178992302Y-120937600D01*
X179578816Y-121329497D01*
X180024246Y-121514000D01*
X159115035Y-121514000D01*
X159190368Y-121401256D01*
X159266956Y-121216356D01*
X159306000Y-121020067D01*
X159306000Y-120819933D01*
X159266956Y-120623644D01*
X159190368Y-120438744D01*
X159079179Y-120272338D01*
X158937662Y-120130821D01*
X158771256Y-120019632D01*
X158586356Y-119943044D01*
X158390067Y-119904000D01*
X158189933Y-119904000D01*
X157993644Y-119943044D01*
X157808744Y-120019632D01*
X157642338Y-120130821D01*
X157500821Y-120272338D01*
X157389632Y-120438744D01*
X157313044Y-120623644D01*
X157274000Y-120819933D01*
X157274000Y-121020067D01*
X157313044Y-121216356D01*
X157389632Y-121401256D01*
X157464965Y-121514000D01*
X155092000Y-121514000D01*
X155092000Y-119626993D01*
X169222612Y-119626993D01*
X169288137Y-119865860D01*
X169535116Y-119981760D01*
X169799960Y-120047250D01*
X170072492Y-120059812D01*
X170342238Y-120018965D01*
X170598832Y-119926277D01*
X170711863Y-119865860D01*
X170777388Y-119626993D01*
X170000000Y-118849605D01*
X169222612Y-119626993D01*
X155092000Y-119626993D01*
X155092000Y-118670000D01*
X158601928Y-118670000D01*
X158614188Y-118794482D01*
X158650498Y-118914180D01*
X158709463Y-119024494D01*
X158788815Y-119121185D01*
X158885506Y-119200537D01*
X158995820Y-119259502D01*
X159115518Y-119295812D01*
X159240000Y-119308072D01*
X159964250Y-119305000D01*
X160123000Y-119146250D01*
X160123000Y-118047000D01*
X160377000Y-118047000D01*
X160377000Y-119146250D01*
X160535750Y-119305000D01*
X161260000Y-119308072D01*
X161384482Y-119295812D01*
X161504180Y-119259502D01*
X161614494Y-119200537D01*
X161711185Y-119121185D01*
X161790537Y-119024494D01*
X161849502Y-118914180D01*
X161885812Y-118794482D01*
X161890932Y-118742492D01*
X168610188Y-118742492D01*
X168651035Y-119012238D01*
X168743723Y-119268832D01*
X168804140Y-119381863D01*
X169043007Y-119447388D01*
X169820395Y-118670000D01*
X170179605Y-118670000D01*
X170956993Y-119447388D01*
X171195860Y-119381863D01*
X171311760Y-119134884D01*
X171377250Y-118870040D01*
X171389812Y-118597508D01*
X171348965Y-118327762D01*
X171291978Y-118170000D01*
X171867157Y-118170000D01*
X171867157Y-119170000D01*
X171879317Y-119293462D01*
X171915329Y-119412179D01*
X171973810Y-119521589D01*
X172052512Y-119617488D01*
X172148411Y-119696190D01*
X172257821Y-119754671D01*
X172376538Y-119790683D01*
X172500000Y-119802843D01*
X173500000Y-119802843D01*
X173623462Y-119790683D01*
X173742179Y-119754671D01*
X173851589Y-119696190D01*
X173947488Y-119617488D01*
X174026190Y-119521589D01*
X174084671Y-119412179D01*
X174120683Y-119293462D01*
X174132843Y-119170000D01*
X174132843Y-118170000D01*
X174120683Y-118046538D01*
X174084671Y-117927821D01*
X174026190Y-117818411D01*
X173947488Y-117722512D01*
X173851589Y-117643810D01*
X173742179Y-117585329D01*
X173623462Y-117549317D01*
X173500000Y-117537157D01*
X172500000Y-117537157D01*
X172376538Y-117549317D01*
X172257821Y-117585329D01*
X172148411Y-117643810D01*
X172052512Y-117722512D01*
X171973810Y-117818411D01*
X171915329Y-117927821D01*
X171879317Y-118046538D01*
X171867157Y-118170000D01*
X171291978Y-118170000D01*
X171256277Y-118071168D01*
X171195860Y-117958137D01*
X170956993Y-117892612D01*
X170179605Y-118670000D01*
X169820395Y-118670000D01*
X169043007Y-117892612D01*
X168804140Y-117958137D01*
X168688240Y-118205116D01*
X168622750Y-118469960D01*
X168610188Y-118742492D01*
X161890932Y-118742492D01*
X161898072Y-118670000D01*
X161895000Y-118205750D01*
X161736250Y-118047000D01*
X160377000Y-118047000D01*
X160123000Y-118047000D01*
X158763750Y-118047000D01*
X158605000Y-118205750D01*
X158601928Y-118670000D01*
X155092000Y-118670000D01*
X155092000Y-117170000D01*
X158601928Y-117170000D01*
X158605000Y-117634250D01*
X158763750Y-117793000D01*
X160123000Y-117793000D01*
X160123000Y-116693750D01*
X160377000Y-116693750D01*
X160377000Y-117793000D01*
X161736250Y-117793000D01*
X161816243Y-117713007D01*
X169222612Y-117713007D01*
X170000000Y-118490395D01*
X170777388Y-117713007D01*
X170711863Y-117474140D01*
X170464884Y-117358240D01*
X170200040Y-117292750D01*
X169927508Y-117280188D01*
X169657762Y-117321035D01*
X169401168Y-117413723D01*
X169288137Y-117474140D01*
X169222612Y-117713007D01*
X161816243Y-117713007D01*
X161895000Y-117634250D01*
X161898072Y-117170000D01*
X161885812Y-117045518D01*
X161849502Y-116925820D01*
X161790537Y-116815506D01*
X161711185Y-116718815D01*
X161614494Y-116639463D01*
X161504180Y-116580498D01*
X161384482Y-116544188D01*
X161260000Y-116531928D01*
X160535750Y-116535000D01*
X160377000Y-116693750D01*
X160123000Y-116693750D01*
X159964250Y-116535000D01*
X159240000Y-116531928D01*
X159115518Y-116544188D01*
X158995820Y-116580498D01*
X158885506Y-116639463D01*
X158788815Y-116718815D01*
X158709463Y-116815506D01*
X158650498Y-116925820D01*
X158614188Y-117045518D01*
X158601928Y-117170000D01*
X155092000Y-117170000D01*
X155092000Y-116859941D01*
X155093964Y-116840000D01*
X155086125Y-116760410D01*
X155062910Y-116683879D01*
X155025210Y-116613347D01*
X154974474Y-116551526D01*
X154912653Y-116500790D01*
X154842121Y-116463090D01*
X154765590Y-116439875D01*
X154705941Y-116434000D01*
X154705940Y-116434000D01*
X154686000Y-116432036D01*
X154666059Y-116434000D01*
X131337940Y-116434000D01*
X131318000Y-116432036D01*
X131298059Y-116434000D01*
X131238410Y-116439875D01*
X131161879Y-116463090D01*
X131091347Y-116500790D01*
X131029526Y-116551526D01*
X130978790Y-116613347D01*
X130941090Y-116683879D01*
X130917875Y-116760410D01*
X130910036Y-116840000D01*
X130912000Y-116859941D01*
X130912001Y-121514000D01*
X127406000Y-121514000D01*
X127406000Y-82038621D01*
X127636559Y-82595240D01*
X128028456Y-83181754D01*
X128527246Y-83680544D01*
X129113760Y-84072441D01*
X129765461Y-84342384D01*
X130457302Y-84480000D01*
X131162698Y-84480000D01*
X131854539Y-84342384D01*
X132506240Y-84072441D01*
X133092754Y-83680544D01*
X133591544Y-83181754D01*
X133944000Y-82654267D01*
X133944001Y-84939697D01*
X133519699Y-85364000D01*
X130027305Y-85364000D01*
X130000000Y-85361311D01*
X129972695Y-85364000D01*
X129972688Y-85364000D01*
X129891005Y-85372045D01*
X129786199Y-85403838D01*
X129689608Y-85455466D01*
X129659236Y-85480392D01*
X129626161Y-85507536D01*
X129626157Y-85507540D01*
X129604947Y-85524947D01*
X129587540Y-85546157D01*
X127876168Y-87257531D01*
X127854947Y-87274947D01*
X127785466Y-87359608D01*
X127733838Y-87456200D01*
X127702045Y-87561006D01*
X127694000Y-87642689D01*
X127694000Y-87642696D01*
X127691311Y-87670000D01*
X127694000Y-87697304D01*
X127694001Y-113142686D01*
X127691311Y-113170000D01*
X127702045Y-113278994D01*
X127733839Y-113383801D01*
X127785467Y-113480392D01*
X127854948Y-113565053D01*
X127876163Y-113582464D01*
X128967540Y-114673843D01*
X128984947Y-114695053D01*
X129006157Y-114712460D01*
X129006160Y-114712463D01*
X129006415Y-114712672D01*
X129069608Y-114764534D01*
X129166199Y-114816162D01*
X129239211Y-114838310D01*
X129271004Y-114847955D01*
X129282040Y-114849042D01*
X129352688Y-114856000D01*
X129352694Y-114856000D01*
X129379999Y-114858689D01*
X129407304Y-114856000D01*
X130339157Y-114856000D01*
X130339157Y-115150000D01*
X130346513Y-115224689D01*
X130368299Y-115296508D01*
X130403678Y-115362696D01*
X130451289Y-115420711D01*
X130509304Y-115468322D01*
X130575492Y-115503701D01*
X130647311Y-115525487D01*
X130722000Y-115532843D01*
X132422000Y-115532843D01*
X132496689Y-115525487D01*
X132568508Y-115503701D01*
X132634696Y-115468322D01*
X132692711Y-115420711D01*
X132740322Y-115362696D01*
X132775701Y-115296508D01*
X132797487Y-115224689D01*
X132804843Y-115150000D01*
X132804843Y-113450000D01*
X132879157Y-113450000D01*
X132879157Y-115150000D01*
X132886513Y-115224689D01*
X132908299Y-115296508D01*
X132943678Y-115362696D01*
X132991289Y-115420711D01*
X133049304Y-115468322D01*
X133115492Y-115503701D01*
X133187311Y-115525487D01*
X133262000Y-115532843D01*
X134962000Y-115532843D01*
X135036689Y-115525487D01*
X135108508Y-115503701D01*
X135174696Y-115468322D01*
X135232711Y-115420711D01*
X135280322Y-115362696D01*
X135315701Y-115296508D01*
X135337487Y-115224689D01*
X135344843Y-115150000D01*
X135344843Y-113450000D01*
X135337487Y-113375311D01*
X135315701Y-113303492D01*
X135280322Y-113237304D01*
X135232711Y-113179289D01*
X135174696Y-113131678D01*
X135108508Y-113096299D01*
X135036689Y-113074513D01*
X134962000Y-113067157D01*
X133262000Y-113067157D01*
X133187311Y-113074513D01*
X133115492Y-113096299D01*
X133049304Y-113131678D01*
X132991289Y-113179289D01*
X132943678Y-113237304D01*
X132908299Y-113303492D01*
X132886513Y-113375311D01*
X132879157Y-113450000D01*
X132804843Y-113450000D01*
X132797487Y-113375311D01*
X132775701Y-113303492D01*
X132740322Y-113237304D01*
X132692711Y-113179289D01*
X132634696Y-113131678D01*
X132568508Y-113096299D01*
X132496689Y-113074513D01*
X132422000Y-113067157D01*
X130722000Y-113067157D01*
X130647311Y-113074513D01*
X130575492Y-113096299D01*
X130509304Y-113131678D01*
X130451289Y-113179289D01*
X130403678Y-113237304D01*
X130368299Y-113303492D01*
X130346513Y-113375311D01*
X130339157Y-113450000D01*
X130339157Y-113744000D01*
X129610303Y-113744000D01*
X128806000Y-112939699D01*
X128806000Y-111691591D01*
X129214628Y-112100220D01*
X129230473Y-112119527D01*
X129307521Y-112182759D01*
X129395425Y-112229745D01*
X129490807Y-112258678D01*
X129565146Y-112266000D01*
X129565153Y-112266000D01*
X129589999Y-112268447D01*
X129614845Y-112266000D01*
X130449168Y-112266000D01*
X130481102Y-112343097D01*
X130615820Y-112544717D01*
X130787283Y-112716180D01*
X130988903Y-112850898D01*
X131212931Y-112943693D01*
X131450757Y-112991000D01*
X131693243Y-112991000D01*
X131931069Y-112943693D01*
X132155097Y-112850898D01*
X132356717Y-112716180D01*
X132528180Y-112544717D01*
X132662898Y-112343097D01*
X132755693Y-112119069D01*
X132803000Y-111881243D01*
X132803000Y-111638757D01*
X132881000Y-111638757D01*
X132881000Y-111881243D01*
X132928307Y-112119069D01*
X133021102Y-112343097D01*
X133155820Y-112544717D01*
X133327283Y-112716180D01*
X133528903Y-112850898D01*
X133752931Y-112943693D01*
X133990757Y-112991000D01*
X134233243Y-112991000D01*
X134471069Y-112943693D01*
X134695097Y-112850898D01*
X134896717Y-112716180D01*
X135068180Y-112544717D01*
X135202898Y-112343097D01*
X135295693Y-112119069D01*
X135343000Y-111881243D01*
X135343000Y-111638757D01*
X135295693Y-111400931D01*
X135202898Y-111176903D01*
X135068180Y-110975283D01*
X134896717Y-110803820D01*
X134695097Y-110669102D01*
X134471069Y-110576307D01*
X134233243Y-110529000D01*
X133990757Y-110529000D01*
X133752931Y-110576307D01*
X133528903Y-110669102D01*
X133327283Y-110803820D01*
X133155820Y-110975283D01*
X133021102Y-111176903D01*
X132928307Y-111400931D01*
X132881000Y-111638757D01*
X132803000Y-111638757D01*
X132755693Y-111400931D01*
X132662898Y-111176903D01*
X132528180Y-110975283D01*
X132356717Y-110803820D01*
X132155097Y-110669102D01*
X131931069Y-110576307D01*
X131693243Y-110529000D01*
X131450757Y-110529000D01*
X131212931Y-110576307D01*
X130988903Y-110669102D01*
X130787283Y-110803820D01*
X130615820Y-110975283D01*
X130481102Y-111176903D01*
X130449168Y-111254000D01*
X129799592Y-111254000D01*
X129506000Y-110960409D01*
X129506000Y-95215502D01*
X132666310Y-95215502D01*
X132669000Y-95242816D01*
X132668999Y-102117695D01*
X132666310Y-102144999D01*
X132668999Y-102172303D01*
X132668999Y-102172310D01*
X132677044Y-102253993D01*
X132708837Y-102358799D01*
X132760465Y-102455391D01*
X132829946Y-102540052D01*
X132851167Y-102557468D01*
X133219000Y-102925301D01*
X133219000Y-102996922D01*
X133249013Y-103147809D01*
X133307887Y-103289942D01*
X133393358Y-103417859D01*
X133502141Y-103526642D01*
X133630058Y-103612113D01*
X133772191Y-103670987D01*
X133923078Y-103701000D01*
X134076922Y-103701000D01*
X134227809Y-103670987D01*
X134369942Y-103612113D01*
X134497859Y-103526642D01*
X134543992Y-103480509D01*
X134543992Y-106378005D01*
X134411769Y-106510228D01*
X134392462Y-106526073D01*
X134329230Y-106603121D01*
X134282244Y-106691025D01*
X134253311Y-106786407D01*
X134245989Y-106860746D01*
X134245989Y-106860753D01*
X134243542Y-106885599D01*
X134245989Y-106910446D01*
X134245991Y-107929547D01*
X134243543Y-107954402D01*
X134253312Y-108053594D01*
X134282245Y-108148976D01*
X134304117Y-108189894D01*
X134329232Y-108236881D01*
X134392464Y-108313929D01*
X134411770Y-108329774D01*
X135919217Y-109837221D01*
X135935062Y-109856528D01*
X136012110Y-109919760D01*
X136100014Y-109966746D01*
X136173196Y-109988945D01*
X136195395Y-109995679D01*
X136205283Y-109996653D01*
X136269735Y-110003001D01*
X136269742Y-110003001D01*
X136294588Y-110005448D01*
X136319434Y-110003001D01*
X136867410Y-110003001D01*
X137321002Y-110456594D01*
X137321002Y-110726502D01*
X137235097Y-110669102D01*
X137011069Y-110576307D01*
X136773243Y-110529000D01*
X136530757Y-110529000D01*
X136292931Y-110576307D01*
X136068903Y-110669102D01*
X135867283Y-110803820D01*
X135695820Y-110975283D01*
X135561102Y-111176903D01*
X135468307Y-111400931D01*
X135421000Y-111638757D01*
X135421000Y-111881243D01*
X135468307Y-112119069D01*
X135561102Y-112343097D01*
X135695820Y-112544717D01*
X135867283Y-112716180D01*
X136068903Y-112850898D01*
X136292931Y-112943693D01*
X136530757Y-112991000D01*
X136773243Y-112991000D01*
X137011069Y-112943693D01*
X137235097Y-112850898D01*
X137321001Y-112793499D01*
X137321001Y-113266501D01*
X137235097Y-113209102D01*
X137011069Y-113116307D01*
X136773243Y-113069000D01*
X136530757Y-113069000D01*
X136292931Y-113116307D01*
X136068903Y-113209102D01*
X135867283Y-113343820D01*
X135695820Y-113515283D01*
X135561102Y-113716903D01*
X135468307Y-113940931D01*
X135421000Y-114178757D01*
X135421000Y-114421243D01*
X135468307Y-114659069D01*
X135561102Y-114883097D01*
X135695820Y-115084717D01*
X135867283Y-115256180D01*
X136068903Y-115390898D01*
X136292931Y-115483693D01*
X136530757Y-115531000D01*
X136773243Y-115531000D01*
X137011069Y-115483693D01*
X137235097Y-115390898D01*
X137436717Y-115256180D01*
X137565152Y-115127745D01*
X138252627Y-115815221D01*
X138268472Y-115834528D01*
X138345520Y-115897760D01*
X138433424Y-115944746D01*
X138528805Y-115973679D01*
X138538693Y-115974653D01*
X138603145Y-115981001D01*
X138603152Y-115981001D01*
X138627998Y-115983448D01*
X138652844Y-115981001D01*
X141632153Y-115981001D01*
X141656999Y-115983448D01*
X141681845Y-115981001D01*
X141681853Y-115981001D01*
X141756192Y-115973679D01*
X141851574Y-115944746D01*
X141939478Y-115897760D01*
X142016526Y-115834528D01*
X142032375Y-115815216D01*
X142072215Y-115775376D01*
X142091527Y-115759527D01*
X142154759Y-115682479D01*
X142201745Y-115594575D01*
X142220471Y-115532843D01*
X142582000Y-115532843D01*
X142656689Y-115525487D01*
X142728508Y-115503701D01*
X142794696Y-115468322D01*
X142852711Y-115420711D01*
X142900322Y-115362696D01*
X142935701Y-115296508D01*
X142957487Y-115224689D01*
X142964843Y-115150000D01*
X142964843Y-114178757D01*
X143041000Y-114178757D01*
X143041000Y-114421243D01*
X143088307Y-114659069D01*
X143181102Y-114883097D01*
X143315820Y-115084717D01*
X143487283Y-115256180D01*
X143688903Y-115390898D01*
X143912931Y-115483693D01*
X144150757Y-115531000D01*
X144393243Y-115531000D01*
X144631069Y-115483693D01*
X144855097Y-115390898D01*
X145056717Y-115256180D01*
X145228180Y-115084717D01*
X145362898Y-114883097D01*
X145455693Y-114659069D01*
X145503000Y-114421243D01*
X145503000Y-114178757D01*
X145581000Y-114178757D01*
X145581000Y-114421243D01*
X145628307Y-114659069D01*
X145721102Y-114883097D01*
X145855820Y-115084717D01*
X146027283Y-115256180D01*
X146228903Y-115390898D01*
X146452931Y-115483693D01*
X146690757Y-115531000D01*
X146933243Y-115531000D01*
X147171069Y-115483693D01*
X147395097Y-115390898D01*
X147596717Y-115256180D01*
X147768180Y-115084717D01*
X147902898Y-114883097D01*
X147995693Y-114659069D01*
X148043000Y-114421243D01*
X148043000Y-114178757D01*
X148121000Y-114178757D01*
X148121000Y-114421243D01*
X148168307Y-114659069D01*
X148261102Y-114883097D01*
X148395820Y-115084717D01*
X148567283Y-115256180D01*
X148768903Y-115390898D01*
X148992931Y-115483693D01*
X149230757Y-115531000D01*
X149473243Y-115531000D01*
X149711069Y-115483693D01*
X149935097Y-115390898D01*
X150136717Y-115256180D01*
X150308180Y-115084717D01*
X150442898Y-114883097D01*
X150535693Y-114659069D01*
X150583000Y-114421243D01*
X150583000Y-114178757D01*
X150535693Y-113940931D01*
X150442898Y-113716903D01*
X150308180Y-113515283D01*
X150136717Y-113343820D01*
X149935097Y-113209102D01*
X149711069Y-113116307D01*
X149473243Y-113069000D01*
X149230757Y-113069000D01*
X148992931Y-113116307D01*
X148768903Y-113209102D01*
X148567283Y-113343820D01*
X148395820Y-113515283D01*
X148261102Y-113716903D01*
X148168307Y-113940931D01*
X148121000Y-114178757D01*
X148043000Y-114178757D01*
X147995693Y-113940931D01*
X147902898Y-113716903D01*
X147768180Y-113515283D01*
X147596717Y-113343820D01*
X147395097Y-113209102D01*
X147171069Y-113116307D01*
X146933243Y-113069000D01*
X146690757Y-113069000D01*
X146452931Y-113116307D01*
X146228903Y-113209102D01*
X146027283Y-113343820D01*
X145855820Y-113515283D01*
X145721102Y-113716903D01*
X145628307Y-113940931D01*
X145581000Y-114178757D01*
X145503000Y-114178757D01*
X145455693Y-113940931D01*
X145362898Y-113716903D01*
X145228180Y-113515283D01*
X145056717Y-113343820D01*
X144855097Y-113209102D01*
X144631069Y-113116307D01*
X144393243Y-113069000D01*
X144150757Y-113069000D01*
X143912931Y-113116307D01*
X143688903Y-113209102D01*
X143487283Y-113343820D01*
X143315820Y-113515283D01*
X143181102Y-113716903D01*
X143088307Y-113940931D01*
X143041000Y-114178757D01*
X142964843Y-114178757D01*
X142964843Y-113450000D01*
X142957487Y-113375311D01*
X142935701Y-113303492D01*
X142900322Y-113237304D01*
X142852711Y-113179289D01*
X142794696Y-113131678D01*
X142728508Y-113096299D01*
X142656689Y-113074513D01*
X142582000Y-113067157D01*
X140882000Y-113067157D01*
X140807311Y-113074513D01*
X140735492Y-113096299D01*
X140669304Y-113131678D01*
X140611289Y-113179289D01*
X140563678Y-113237304D01*
X140528299Y-113303492D01*
X140506513Y-113375311D01*
X140499157Y-113450000D01*
X140499157Y-114969001D01*
X140225499Y-114969001D01*
X140282898Y-114883097D01*
X140375693Y-114659069D01*
X140423000Y-114421243D01*
X140423000Y-114178757D01*
X140375693Y-113940931D01*
X140282898Y-113716903D01*
X140148180Y-113515283D01*
X139976717Y-113343820D01*
X139775097Y-113209102D01*
X139668846Y-113165091D01*
X139696099Y-113156825D01*
X139958920Y-113031641D01*
X140192269Y-112857588D01*
X140387178Y-112641355D01*
X140536157Y-112391252D01*
X140593772Y-112228832D01*
X140641102Y-112343097D01*
X140775820Y-112544717D01*
X140947283Y-112716180D01*
X141148903Y-112850898D01*
X141372931Y-112943693D01*
X141610757Y-112991000D01*
X141853243Y-112991000D01*
X142091069Y-112943693D01*
X142315097Y-112850898D01*
X142516717Y-112716180D01*
X142688180Y-112544717D01*
X142822898Y-112343097D01*
X142915693Y-112119069D01*
X142963000Y-111881243D01*
X142963000Y-111638757D01*
X143041000Y-111638757D01*
X143041000Y-111881243D01*
X143088307Y-112119069D01*
X143181102Y-112343097D01*
X143315820Y-112544717D01*
X143487283Y-112716180D01*
X143688903Y-112850898D01*
X143912931Y-112943693D01*
X144150757Y-112991000D01*
X144393243Y-112991000D01*
X144631069Y-112943693D01*
X144855097Y-112850898D01*
X145056717Y-112716180D01*
X145228180Y-112544717D01*
X145362898Y-112343097D01*
X145455693Y-112119069D01*
X145503000Y-111881243D01*
X145503000Y-111638757D01*
X145581000Y-111638757D01*
X145581000Y-111881243D01*
X145628307Y-112119069D01*
X145721102Y-112343097D01*
X145855820Y-112544717D01*
X146027283Y-112716180D01*
X146228903Y-112850898D01*
X146452931Y-112943693D01*
X146690757Y-112991000D01*
X146933243Y-112991000D01*
X147171069Y-112943693D01*
X147395097Y-112850898D01*
X147596717Y-112716180D01*
X147768180Y-112544717D01*
X147902898Y-112343097D01*
X147995693Y-112119069D01*
X148043000Y-111881243D01*
X148043000Y-111638757D01*
X147995693Y-111400931D01*
X147902898Y-111176903D01*
X147768180Y-110975283D01*
X147596717Y-110803820D01*
X147395097Y-110669102D01*
X147171069Y-110576307D01*
X146933243Y-110529000D01*
X146690757Y-110529000D01*
X146452931Y-110576307D01*
X146228903Y-110669102D01*
X146027283Y-110803820D01*
X145855820Y-110975283D01*
X145721102Y-111176903D01*
X145628307Y-111400931D01*
X145581000Y-111638757D01*
X145503000Y-111638757D01*
X145455693Y-111400931D01*
X145362898Y-111176903D01*
X145228180Y-110975283D01*
X145056717Y-110803820D01*
X144855097Y-110669102D01*
X144631069Y-110576307D01*
X144393243Y-110529000D01*
X144150757Y-110529000D01*
X143912931Y-110576307D01*
X143688903Y-110669102D01*
X143487283Y-110803820D01*
X143315820Y-110975283D01*
X143181102Y-111176903D01*
X143088307Y-111400931D01*
X143041000Y-111638757D01*
X142963000Y-111638757D01*
X142915693Y-111400931D01*
X142822898Y-111176903D01*
X142688180Y-110975283D01*
X142516717Y-110803820D01*
X142315097Y-110669102D01*
X142091069Y-110576307D01*
X141853243Y-110529000D01*
X141610757Y-110529000D01*
X141372931Y-110576307D01*
X141295833Y-110608242D01*
X141113592Y-110426000D01*
X142151499Y-110426000D01*
X142252141Y-110526642D01*
X142380058Y-110612113D01*
X142522191Y-110670987D01*
X142673078Y-110701000D01*
X142826922Y-110701000D01*
X142977809Y-110670987D01*
X143119942Y-110612113D01*
X143247859Y-110526642D01*
X143356642Y-110417859D01*
X143442113Y-110289942D01*
X143500987Y-110147809D01*
X143531000Y-109996922D01*
X143531000Y-109843078D01*
X143520183Y-109788697D01*
X143630058Y-109862113D01*
X143772191Y-109920987D01*
X143923078Y-109951000D01*
X144076922Y-109951000D01*
X144227809Y-109920987D01*
X144369942Y-109862113D01*
X144497859Y-109776642D01*
X144606642Y-109667859D01*
X144692113Y-109539942D01*
X144750987Y-109397809D01*
X144781000Y-109246922D01*
X144781000Y-109093078D01*
X144750987Y-108942191D01*
X144692113Y-108800058D01*
X144606642Y-108672141D01*
X144497859Y-108563358D01*
X144369942Y-108477887D01*
X144227809Y-108419013D01*
X144076922Y-108389000D01*
X143923078Y-108389000D01*
X143772191Y-108419013D01*
X143630058Y-108477887D01*
X143502141Y-108563358D01*
X143401499Y-108664000D01*
X140704540Y-108664000D01*
X140166550Y-108126010D01*
X149490419Y-108126010D01*
X150021002Y-108656594D01*
X150021001Y-110726501D01*
X149935097Y-110669102D01*
X149711069Y-110576307D01*
X149473243Y-110529000D01*
X149230757Y-110529000D01*
X148992931Y-110576307D01*
X148768903Y-110669102D01*
X148567283Y-110803820D01*
X148395820Y-110975283D01*
X148261102Y-111176903D01*
X148168307Y-111400931D01*
X148121000Y-111638757D01*
X148121000Y-111881243D01*
X148168307Y-112119069D01*
X148261102Y-112343097D01*
X148395820Y-112544717D01*
X148567283Y-112716180D01*
X148768903Y-112850898D01*
X148992931Y-112943693D01*
X149230757Y-112991000D01*
X149473243Y-112991000D01*
X149711069Y-112943693D01*
X149935097Y-112850898D01*
X150021001Y-112793499D01*
X150021001Y-112910155D01*
X150018554Y-112935001D01*
X150021001Y-112959847D01*
X150021001Y-112959854D01*
X150028323Y-113034193D01*
X150057256Y-113129575D01*
X150104242Y-113217480D01*
X150167474Y-113294528D01*
X150186786Y-113310377D01*
X150740242Y-113863833D01*
X150708307Y-113940931D01*
X150661000Y-114178757D01*
X150661000Y-114421243D01*
X150708307Y-114659069D01*
X150801102Y-114883097D01*
X150935820Y-115084717D01*
X151107283Y-115256180D01*
X151308903Y-115390898D01*
X151532931Y-115483693D01*
X151770757Y-115531000D01*
X152013243Y-115531000D01*
X152251069Y-115483693D01*
X152475097Y-115390898D01*
X152676717Y-115256180D01*
X152848180Y-115084717D01*
X152982898Y-114883097D01*
X153030228Y-114768832D01*
X153087843Y-114931252D01*
X153236822Y-115181355D01*
X153431731Y-115397588D01*
X153665080Y-115571641D01*
X153927901Y-115696825D01*
X154075110Y-115741476D01*
X154305000Y-115620155D01*
X154305000Y-114427000D01*
X154559000Y-114427000D01*
X154559000Y-115620155D01*
X154788890Y-115741476D01*
X154936099Y-115696825D01*
X155198920Y-115571641D01*
X155432269Y-115397588D01*
X155627178Y-115181355D01*
X155776157Y-114931252D01*
X155780148Y-114920000D01*
X158853528Y-114920000D01*
X158875365Y-115141715D01*
X158940037Y-115354909D01*
X159045058Y-115551390D01*
X159186393Y-115723607D01*
X159358610Y-115864942D01*
X159555091Y-115969963D01*
X159768285Y-116034635D01*
X159934442Y-116051000D01*
X160565558Y-116051000D01*
X160731715Y-116034635D01*
X160944909Y-115969963D01*
X161141390Y-115864942D01*
X161313607Y-115723607D01*
X161454942Y-115551390D01*
X161559963Y-115354909D01*
X161624635Y-115141715D01*
X161646472Y-114920000D01*
X161624635Y-114698285D01*
X161607934Y-114643229D01*
X166119000Y-114643229D01*
X166119000Y-114816771D01*
X166152856Y-114986978D01*
X166219268Y-115147310D01*
X166315682Y-115291605D01*
X166438395Y-115414318D01*
X166582690Y-115510732D01*
X166743022Y-115577144D01*
X166913229Y-115611000D01*
X167086771Y-115611000D01*
X167256978Y-115577144D01*
X167301732Y-115558606D01*
X168869000Y-115558606D01*
X168869000Y-115781394D01*
X168912464Y-115999900D01*
X168997721Y-116205729D01*
X169121495Y-116390970D01*
X169279030Y-116548505D01*
X169464271Y-116672279D01*
X169670100Y-116757536D01*
X169888606Y-116801000D01*
X170111394Y-116801000D01*
X170329900Y-116757536D01*
X170535729Y-116672279D01*
X170720970Y-116548505D01*
X170878505Y-116390970D01*
X171002279Y-116205729D01*
X171087536Y-115999900D01*
X171131000Y-115781394D01*
X171131000Y-115558606D01*
X171869000Y-115558606D01*
X171869000Y-115781394D01*
X171912464Y-115999900D01*
X171997721Y-116205729D01*
X172121495Y-116390970D01*
X172279030Y-116548505D01*
X172464271Y-116672279D01*
X172670100Y-116757536D01*
X172888606Y-116801000D01*
X173111394Y-116801000D01*
X173329900Y-116757536D01*
X173535729Y-116672279D01*
X173720970Y-116548505D01*
X173878505Y-116390970D01*
X174002279Y-116205729D01*
X174087536Y-115999900D01*
X174131000Y-115781394D01*
X174131000Y-115558606D01*
X174087536Y-115340100D01*
X174002279Y-115134271D01*
X173878505Y-114949030D01*
X173720970Y-114791495D01*
X173535729Y-114667721D01*
X173476600Y-114643229D01*
X175119000Y-114643229D01*
X175119000Y-114816771D01*
X175152856Y-114986978D01*
X175219268Y-115147310D01*
X175315682Y-115291605D01*
X175438395Y-115414318D01*
X175582690Y-115510732D01*
X175743022Y-115577144D01*
X175913229Y-115611000D01*
X176086771Y-115611000D01*
X176256978Y-115577144D01*
X176417310Y-115510732D01*
X176561605Y-115414318D01*
X176684318Y-115291605D01*
X176780732Y-115147310D01*
X176847144Y-114986978D01*
X176881000Y-114816771D01*
X176881000Y-114643229D01*
X176847144Y-114473022D01*
X176780732Y-114312690D01*
X176684318Y-114168395D01*
X176561605Y-114045682D01*
X176417310Y-113949268D01*
X176256978Y-113882856D01*
X176086771Y-113849000D01*
X175913229Y-113849000D01*
X175743022Y-113882856D01*
X175582690Y-113949268D01*
X175438395Y-114045682D01*
X175315682Y-114168395D01*
X175219268Y-114312690D01*
X175152856Y-114473022D01*
X175119000Y-114643229D01*
X173476600Y-114643229D01*
X173329900Y-114582464D01*
X173111394Y-114539000D01*
X172888606Y-114539000D01*
X172670100Y-114582464D01*
X172464271Y-114667721D01*
X172279030Y-114791495D01*
X172121495Y-114949030D01*
X171997721Y-115134271D01*
X171912464Y-115340100D01*
X171869000Y-115558606D01*
X171131000Y-115558606D01*
X171087536Y-115340100D01*
X171002279Y-115134271D01*
X170878505Y-114949030D01*
X170720970Y-114791495D01*
X170535729Y-114667721D01*
X170329900Y-114582464D01*
X170111394Y-114539000D01*
X169888606Y-114539000D01*
X169670100Y-114582464D01*
X169464271Y-114667721D01*
X169279030Y-114791495D01*
X169121495Y-114949030D01*
X168997721Y-115134271D01*
X168912464Y-115340100D01*
X168869000Y-115558606D01*
X167301732Y-115558606D01*
X167417310Y-115510732D01*
X167561605Y-115414318D01*
X167684318Y-115291605D01*
X167780732Y-115147310D01*
X167847144Y-114986978D01*
X167881000Y-114816771D01*
X167881000Y-114643229D01*
X167847144Y-114473022D01*
X167780732Y-114312690D01*
X167684318Y-114168395D01*
X167561605Y-114045682D01*
X167417310Y-113949268D01*
X167256978Y-113882856D01*
X167086771Y-113849000D01*
X166913229Y-113849000D01*
X166743022Y-113882856D01*
X166582690Y-113949268D01*
X166438395Y-114045682D01*
X166315682Y-114168395D01*
X166219268Y-114312690D01*
X166152856Y-114473022D01*
X166119000Y-114643229D01*
X161607934Y-114643229D01*
X161559963Y-114485091D01*
X161454942Y-114288610D01*
X161313607Y-114116393D01*
X161141390Y-113975058D01*
X160944909Y-113870037D01*
X160731715Y-113805365D01*
X160565558Y-113789000D01*
X159934442Y-113789000D01*
X159768285Y-113805365D01*
X159555091Y-113870037D01*
X159358610Y-113975058D01*
X159186393Y-114116393D01*
X159045058Y-114288610D01*
X158940037Y-114485091D01*
X158875365Y-114698285D01*
X158853528Y-114920000D01*
X155780148Y-114920000D01*
X155873481Y-114656891D01*
X155752814Y-114427000D01*
X154559000Y-114427000D01*
X154305000Y-114427000D01*
X154285000Y-114427000D01*
X154285000Y-114173000D01*
X154305000Y-114173000D01*
X154305000Y-114153000D01*
X154559000Y-114153000D01*
X154559000Y-114173000D01*
X155752814Y-114173000D01*
X155873481Y-113943109D01*
X155776157Y-113668748D01*
X155627178Y-113418645D01*
X155432269Y-113202412D01*
X155198920Y-113028359D01*
X154936099Y-112903175D01*
X154908846Y-112894909D01*
X155015097Y-112850898D01*
X155216717Y-112716180D01*
X155388180Y-112544717D01*
X155522898Y-112343097D01*
X155554832Y-112266000D01*
X158129372Y-112266000D01*
X158140473Y-112279527D01*
X158217521Y-112342759D01*
X158305425Y-112389745D01*
X158353116Y-112404212D01*
X158400806Y-112418678D01*
X158410694Y-112419652D01*
X158475146Y-112426000D01*
X158475153Y-112426000D01*
X158499999Y-112428447D01*
X158524845Y-112426000D01*
X158978036Y-112426000D01*
X159045058Y-112551390D01*
X159186393Y-112723607D01*
X159358610Y-112864942D01*
X159555091Y-112969963D01*
X159768285Y-113034635D01*
X159934442Y-113051000D01*
X160565558Y-113051000D01*
X160731715Y-113034635D01*
X160944909Y-112969963D01*
X161141390Y-112864942D01*
X161313607Y-112723607D01*
X161454942Y-112551390D01*
X161521964Y-112426000D01*
X175969000Y-112426000D01*
X175969000Y-112496922D01*
X175999013Y-112647809D01*
X176057887Y-112789942D01*
X176143358Y-112917859D01*
X176252141Y-113026642D01*
X176380058Y-113112113D01*
X176522191Y-113170987D01*
X176673078Y-113201000D01*
X176826922Y-113201000D01*
X176977809Y-113170987D01*
X177119942Y-113112113D01*
X177247859Y-113026642D01*
X177356642Y-112917859D01*
X177442113Y-112789942D01*
X177500987Y-112647809D01*
X177531000Y-112496922D01*
X177531000Y-112343078D01*
X177500987Y-112192191D01*
X177442113Y-112050058D01*
X177356642Y-111922141D01*
X177247859Y-111813358D01*
X177119942Y-111727887D01*
X176977809Y-111669013D01*
X176826922Y-111639000D01*
X176684591Y-111639000D01*
X176625376Y-111579785D01*
X176609527Y-111560473D01*
X176532479Y-111497241D01*
X176444575Y-111450255D01*
X176349193Y-111421322D01*
X176274854Y-111414000D01*
X176274846Y-111414000D01*
X176250000Y-111411553D01*
X176225154Y-111414000D01*
X161521964Y-111414000D01*
X161454942Y-111288610D01*
X161313607Y-111116393D01*
X161141390Y-110975058D01*
X160944909Y-110870037D01*
X160731715Y-110805365D01*
X160565558Y-110789000D01*
X159934442Y-110789000D01*
X159768285Y-110805365D01*
X159555091Y-110870037D01*
X159358610Y-110975058D01*
X159186393Y-111116393D01*
X159045058Y-111288610D01*
X158978036Y-111414000D01*
X158710628Y-111414000D01*
X158699527Y-111400473D01*
X158622479Y-111337241D01*
X158534575Y-111290255D01*
X158439193Y-111261322D01*
X158364854Y-111254000D01*
X158364846Y-111254000D01*
X158340000Y-111251553D01*
X158315154Y-111254000D01*
X155554832Y-111254000D01*
X155522898Y-111176903D01*
X155388180Y-110975283D01*
X155216717Y-110803820D01*
X155015097Y-110669102D01*
X154938000Y-110637168D01*
X154938000Y-108876854D01*
X154940448Y-108852000D01*
X154937290Y-108819933D01*
X157274000Y-108819933D01*
X157274000Y-109020067D01*
X157313044Y-109216356D01*
X157389632Y-109401256D01*
X157500821Y-109567662D01*
X157642338Y-109709179D01*
X157808744Y-109820368D01*
X157993644Y-109896956D01*
X158189933Y-109936000D01*
X158390067Y-109936000D01*
X158586356Y-109896956D01*
X158771256Y-109820368D01*
X158937662Y-109709179D01*
X159079179Y-109567662D01*
X159190368Y-109401256D01*
X159266956Y-109216356D01*
X159306000Y-109020067D01*
X159306000Y-108819933D01*
X159266956Y-108623644D01*
X159190368Y-108438744D01*
X159079179Y-108272338D01*
X158937662Y-108130821D01*
X158771256Y-108019632D01*
X158586356Y-107943044D01*
X158390067Y-107904000D01*
X158189933Y-107904000D01*
X157993644Y-107943044D01*
X157808744Y-108019632D01*
X157642338Y-108130821D01*
X157500821Y-108272338D01*
X157389632Y-108438744D01*
X157313044Y-108623644D01*
X157274000Y-108819933D01*
X154937290Y-108819933D01*
X154930678Y-108752807D01*
X154901745Y-108657425D01*
X154884003Y-108624233D01*
X154854759Y-108569521D01*
X154791527Y-108492473D01*
X154772220Y-108476628D01*
X153781000Y-107485409D01*
X153781000Y-107343078D01*
X153750987Y-107192191D01*
X153692511Y-107051019D01*
X157850135Y-107051019D01*
X157874981Y-107053466D01*
X157899827Y-107051019D01*
X157899835Y-107051019D01*
X157974174Y-107043697D01*
X158069556Y-107014764D01*
X158157460Y-106967778D01*
X158234508Y-106904546D01*
X158250357Y-106885234D01*
X162434592Y-102701000D01*
X162576922Y-102701000D01*
X162727809Y-102670987D01*
X162869942Y-102612113D01*
X162997859Y-102526642D01*
X163106642Y-102417859D01*
X163192113Y-102289942D01*
X163250987Y-102147809D01*
X163281000Y-101996922D01*
X163281000Y-101843078D01*
X163250987Y-101692191D01*
X163192113Y-101550058D01*
X163106642Y-101422141D01*
X162997859Y-101313358D01*
X162869942Y-101227887D01*
X162818091Y-101206410D01*
X162856642Y-101167859D01*
X162942113Y-101039942D01*
X163000987Y-100897809D01*
X163031000Y-100746922D01*
X163031000Y-100593078D01*
X163000987Y-100442191D01*
X162942113Y-100300058D01*
X162856642Y-100172141D01*
X162747859Y-100063358D01*
X162619942Y-99977887D01*
X162477809Y-99919013D01*
X162326922Y-99889000D01*
X162173078Y-99889000D01*
X162022191Y-99919013D01*
X161927255Y-99958337D01*
X162184592Y-99701000D01*
X162326922Y-99701000D01*
X162477809Y-99670987D01*
X162619942Y-99612113D01*
X162747859Y-99526642D01*
X162856642Y-99417859D01*
X162942113Y-99289942D01*
X163000987Y-99147809D01*
X163031000Y-98996922D01*
X163031000Y-98843078D01*
X163000987Y-98692191D01*
X162942113Y-98550058D01*
X162856642Y-98422141D01*
X162747859Y-98313358D01*
X162720384Y-98295000D01*
X162747859Y-98276642D01*
X162856642Y-98167859D01*
X162942113Y-98039942D01*
X163000987Y-97897809D01*
X163031000Y-97746922D01*
X163031000Y-97593078D01*
X163002739Y-97450999D01*
X165815408Y-97450999D01*
X166744000Y-98379592D01*
X166744001Y-102071498D01*
X166643358Y-102172141D01*
X166557887Y-102300058D01*
X166499013Y-102442191D01*
X166469000Y-102593078D01*
X166469000Y-102746922D01*
X166499013Y-102897809D01*
X166557887Y-103039942D01*
X166643358Y-103167859D01*
X166752141Y-103276642D01*
X166880058Y-103362113D01*
X167022191Y-103420987D01*
X167173078Y-103451000D01*
X167326922Y-103451000D01*
X167477809Y-103420987D01*
X167619942Y-103362113D01*
X167747859Y-103276642D01*
X167856642Y-103167859D01*
X167942113Y-103039942D01*
X168000987Y-102897809D01*
X168031000Y-102746922D01*
X168031000Y-102593078D01*
X168000987Y-102442191D01*
X167942113Y-102300058D01*
X167856642Y-102172141D01*
X167756000Y-102071499D01*
X167756000Y-98755182D01*
X170194000Y-101193182D01*
X170194001Y-104621498D01*
X170143358Y-104672141D01*
X170057887Y-104800058D01*
X169999013Y-104942191D01*
X169969000Y-105093078D01*
X169969000Y-105246922D01*
X169999013Y-105397809D01*
X170057887Y-105539942D01*
X170143358Y-105667859D01*
X170252141Y-105776642D01*
X170380058Y-105862113D01*
X170522191Y-105920987D01*
X170673078Y-105951000D01*
X170826922Y-105951000D01*
X170977809Y-105920987D01*
X171109108Y-105866600D01*
X171143358Y-105917859D01*
X171252141Y-106026642D01*
X171380058Y-106112113D01*
X171522191Y-106170987D01*
X171673078Y-106201000D01*
X171826922Y-106201000D01*
X171977809Y-106170987D01*
X172026061Y-106151000D01*
X176151499Y-106151000D01*
X176252141Y-106251642D01*
X176380058Y-106337113D01*
X176522191Y-106395987D01*
X176673078Y-106426000D01*
X176826922Y-106426000D01*
X176977809Y-106395987D01*
X177119942Y-106337113D01*
X177247859Y-106251642D01*
X177356642Y-106142859D01*
X177442113Y-106014942D01*
X177500987Y-105872809D01*
X177531000Y-105721922D01*
X177531000Y-105568078D01*
X177500987Y-105417191D01*
X177442113Y-105275058D01*
X177356642Y-105147141D01*
X177247859Y-105038358D01*
X177119942Y-104952887D01*
X176977809Y-104894013D01*
X176826922Y-104864000D01*
X176673078Y-104864000D01*
X176522191Y-104894013D01*
X176380058Y-104952887D01*
X176252141Y-105038358D01*
X176151499Y-105139000D01*
X172478954Y-105139000D01*
X172442113Y-105050058D01*
X172356642Y-104922141D01*
X172247859Y-104813358D01*
X172119942Y-104727887D01*
X171977809Y-104669013D01*
X171826922Y-104639000D01*
X171673078Y-104639000D01*
X171522191Y-104669013D01*
X171390892Y-104723400D01*
X171356642Y-104672141D01*
X171306000Y-104621499D01*
X171306000Y-100990184D01*
X171308689Y-100962880D01*
X171306000Y-100935575D01*
X171306000Y-100935568D01*
X171297955Y-100853885D01*
X171266162Y-100749079D01*
X171214534Y-100652488D01*
X171145053Y-100567827D01*
X171123838Y-100550416D01*
X166524421Y-95951000D01*
X166576922Y-95951000D01*
X166727809Y-95920987D01*
X166869942Y-95862113D01*
X166997859Y-95776642D01*
X167106642Y-95667859D01*
X167192113Y-95539942D01*
X167250987Y-95397809D01*
X167281000Y-95246922D01*
X167281000Y-95093078D01*
X167250987Y-94942191D01*
X167192113Y-94800058D01*
X167106642Y-94672141D01*
X167050414Y-94615913D01*
X167119942Y-94587113D01*
X167247859Y-94501642D01*
X167348501Y-94401000D01*
X172000154Y-94401000D01*
X172025000Y-94403447D01*
X172049846Y-94401000D01*
X172049854Y-94401000D01*
X172124193Y-94393678D01*
X172219575Y-94364745D01*
X172307479Y-94317759D01*
X172384527Y-94254527D01*
X172400376Y-94235215D01*
X177288338Y-89347254D01*
X177249013Y-89442191D01*
X177219000Y-89593078D01*
X177219000Y-89746922D01*
X177249013Y-89897809D01*
X177307887Y-90039942D01*
X177393358Y-90167859D01*
X177502141Y-90276642D01*
X177630058Y-90362113D01*
X177772191Y-90420987D01*
X177923078Y-90451000D01*
X178065409Y-90451000D01*
X178624628Y-91010220D01*
X178640473Y-91029527D01*
X178717521Y-91092759D01*
X178798394Y-91135987D01*
X178805425Y-91139745D01*
X178900807Y-91168678D01*
X179000000Y-91178448D01*
X179024854Y-91176000D01*
X180249647Y-91176000D01*
X180346509Y-91357216D01*
X180500340Y-91544660D01*
X180687784Y-91698491D01*
X180901637Y-91812798D01*
X181133682Y-91883188D01*
X181314528Y-91901000D01*
X181685472Y-91901000D01*
X181866318Y-91883188D01*
X182098363Y-91812798D01*
X182312216Y-91698491D01*
X182499660Y-91544660D01*
X182653491Y-91357216D01*
X182767798Y-91143363D01*
X182838188Y-90911318D01*
X182861956Y-90670000D01*
X182838188Y-90428682D01*
X182767798Y-90196637D01*
X182653491Y-89982784D01*
X182499660Y-89795340D01*
X182312216Y-89641509D01*
X182098363Y-89527202D01*
X181866318Y-89456812D01*
X181685472Y-89439000D01*
X181314528Y-89439000D01*
X181133682Y-89456812D01*
X180901637Y-89527202D01*
X180687784Y-89641509D01*
X180500340Y-89795340D01*
X180346509Y-89982784D01*
X180249647Y-90164000D01*
X179209592Y-90164000D01*
X178781000Y-89735409D01*
X178781000Y-89593078D01*
X178750987Y-89442191D01*
X178692113Y-89300058D01*
X178606642Y-89172141D01*
X178497859Y-89063358D01*
X178369942Y-88977887D01*
X178227809Y-88919013D01*
X178076922Y-88889000D01*
X177923078Y-88889000D01*
X177772191Y-88919013D01*
X177677254Y-88958338D01*
X178465592Y-88170000D01*
X180138044Y-88170000D01*
X180161812Y-88411318D01*
X180232202Y-88643363D01*
X180346509Y-88857216D01*
X180500340Y-89044660D01*
X180687784Y-89198491D01*
X180901637Y-89312798D01*
X181133682Y-89383188D01*
X181314528Y-89401000D01*
X181685472Y-89401000D01*
X181866318Y-89383188D01*
X182098363Y-89312798D01*
X182312216Y-89198491D01*
X182499660Y-89044660D01*
X182653491Y-88857216D01*
X182767798Y-88643363D01*
X182838188Y-88411318D01*
X182861956Y-88170000D01*
X182838188Y-87928682D01*
X182767798Y-87696637D01*
X182653491Y-87482784D01*
X182499660Y-87295340D01*
X182312216Y-87141509D01*
X182098363Y-87027202D01*
X181866318Y-86956812D01*
X181685472Y-86939000D01*
X181314528Y-86939000D01*
X181133682Y-86956812D01*
X180901637Y-87027202D01*
X180687784Y-87141509D01*
X180500340Y-87295340D01*
X180346509Y-87482784D01*
X180232202Y-87696637D01*
X180161812Y-87928682D01*
X180138044Y-88170000D01*
X178465592Y-88170000D01*
X180322776Y-86312816D01*
X180346509Y-86357216D01*
X180500340Y-86544660D01*
X180687784Y-86698491D01*
X180901637Y-86812798D01*
X181133682Y-86883188D01*
X181314528Y-86901000D01*
X181685472Y-86901000D01*
X181866318Y-86883188D01*
X182098363Y-86812798D01*
X182312216Y-86698491D01*
X182499660Y-86544660D01*
X182653491Y-86357216D01*
X182767798Y-86143363D01*
X182838188Y-85911318D01*
X182861956Y-85670000D01*
X182838188Y-85428682D01*
X182767798Y-85196637D01*
X182653491Y-84982784D01*
X182499660Y-84795340D01*
X182312216Y-84641509D01*
X182153110Y-84556465D01*
X182402570Y-84435053D01*
X182634429Y-84259049D01*
X182827496Y-84041193D01*
X182974352Y-83789858D01*
X183066476Y-83526890D01*
X182945155Y-83297000D01*
X181627000Y-83297000D01*
X181627000Y-83317000D01*
X181373000Y-83317000D01*
X181373000Y-83297000D01*
X180054845Y-83297000D01*
X179933524Y-83526890D01*
X180025648Y-83789858D01*
X180172504Y-84041193D01*
X180365571Y-84259049D01*
X180597430Y-84435053D01*
X180846890Y-84556465D01*
X180687784Y-84641509D01*
X180500340Y-84795340D01*
X180346509Y-84982784D01*
X180250908Y-85161641D01*
X180250000Y-85161552D01*
X180225146Y-85164000D01*
X180150807Y-85171322D01*
X180055425Y-85200255D01*
X179967521Y-85247241D01*
X179890473Y-85310473D01*
X179874628Y-85329780D01*
X171815409Y-93389000D01*
X167348501Y-93389000D01*
X167247859Y-93288358D01*
X167119942Y-93202887D01*
X167095024Y-93192566D01*
X167361590Y-92926000D01*
X171225154Y-92926000D01*
X171250000Y-92928447D01*
X171274846Y-92926000D01*
X171274854Y-92926000D01*
X171349193Y-92918678D01*
X171444575Y-92889745D01*
X171532479Y-92842759D01*
X171609527Y-92779527D01*
X171625376Y-92760215D01*
X174090220Y-90295372D01*
X174109527Y-90279527D01*
X174172759Y-90202479D01*
X174219745Y-90114575D01*
X174248678Y-90019193D01*
X174256000Y-89944854D01*
X174256000Y-89944853D01*
X174258448Y-89920000D01*
X174256000Y-89895146D01*
X174256000Y-84379591D01*
X174934592Y-83701000D01*
X175076922Y-83701000D01*
X175227809Y-83670987D01*
X175369942Y-83612113D01*
X175497859Y-83526642D01*
X175606642Y-83417859D01*
X175692113Y-83289942D01*
X175750987Y-83147809D01*
X175781000Y-82996922D01*
X175781000Y-82843078D01*
X175775040Y-82813110D01*
X179933524Y-82813110D01*
X180054845Y-83043000D01*
X181373000Y-83043000D01*
X181373000Y-83023000D01*
X181627000Y-83023000D01*
X181627000Y-83043000D01*
X182945155Y-83043000D01*
X183066476Y-82813110D01*
X182974352Y-82550142D01*
X182827496Y-82298807D01*
X182634429Y-82080951D01*
X182402570Y-81904947D01*
X182363740Y-81886048D01*
X182467179Y-81854671D01*
X182576589Y-81796190D01*
X182672488Y-81717488D01*
X182751190Y-81621589D01*
X182809671Y-81512179D01*
X182845683Y-81393462D01*
X182857843Y-81270000D01*
X182857843Y-80070000D01*
X182845683Y-79946538D01*
X182809671Y-79827821D01*
X182751190Y-79718411D01*
X182672488Y-79622512D01*
X182576589Y-79543810D01*
X182467179Y-79485329D01*
X182348462Y-79449317D01*
X182225000Y-79437157D01*
X180775000Y-79437157D01*
X180651538Y-79449317D01*
X180532821Y-79485329D01*
X180423411Y-79543810D01*
X180327512Y-79622512D01*
X180248810Y-79718411D01*
X180190329Y-79827821D01*
X180154317Y-79946538D01*
X180142157Y-80070000D01*
X180142157Y-81270000D01*
X180154317Y-81393462D01*
X180190329Y-81512179D01*
X180248810Y-81621589D01*
X180327512Y-81717488D01*
X180423411Y-81796190D01*
X180532821Y-81854671D01*
X180636260Y-81886048D01*
X180597430Y-81904947D01*
X180365571Y-82080951D01*
X180172504Y-82298807D01*
X180025648Y-82550142D01*
X179933524Y-82813110D01*
X175775040Y-82813110D01*
X175750987Y-82692191D01*
X175692113Y-82550058D01*
X175606642Y-82422141D01*
X175497859Y-82313358D01*
X175369942Y-82227887D01*
X175227809Y-82169013D01*
X175076922Y-82139000D01*
X174923078Y-82139000D01*
X174772191Y-82169013D01*
X174630058Y-82227887D01*
X174502141Y-82313358D01*
X174393358Y-82422141D01*
X174307887Y-82550058D01*
X174249013Y-82692191D01*
X174219000Y-82843078D01*
X174219000Y-82985408D01*
X173409780Y-83794629D01*
X173390474Y-83810473D01*
X173327242Y-83887521D01*
X173317556Y-83905642D01*
X173280255Y-83975426D01*
X173251322Y-84070808D01*
X173241553Y-84170000D01*
X173244001Y-84194856D01*
X173244000Y-89710408D01*
X171040409Y-91914000D01*
X167176843Y-91914000D01*
X167151997Y-91911553D01*
X167127151Y-91914000D01*
X167127144Y-91914000D01*
X167062692Y-91920348D01*
X167052804Y-91921322D01*
X167030605Y-91928056D01*
X166957423Y-91950255D01*
X166869519Y-91997241D01*
X166792471Y-92060473D01*
X166776627Y-92079779D01*
X165684779Y-93171628D01*
X165665473Y-93187472D01*
X165602241Y-93264520D01*
X165599839Y-93269014D01*
X165555254Y-93352425D01*
X165526321Y-93447807D01*
X165516552Y-93546999D01*
X165519000Y-93571855D01*
X165518999Y-94670152D01*
X165516552Y-94694999D01*
X165518999Y-94719845D01*
X165518999Y-94719852D01*
X165526321Y-94794191D01*
X165555254Y-94889573D01*
X165602240Y-94977478D01*
X165665472Y-95054526D01*
X165684784Y-95070375D01*
X165719000Y-95104591D01*
X165719000Y-95145579D01*
X163831001Y-93257580D01*
X163831001Y-88325295D01*
X163833689Y-88297998D01*
X163831001Y-88270701D01*
X163831001Y-88270687D01*
X163822956Y-88189004D01*
X163791163Y-88084198D01*
X163739535Y-87987607D01*
X163706193Y-87946980D01*
X163687464Y-87924159D01*
X163687461Y-87924156D01*
X163670054Y-87902946D01*
X163648844Y-87885539D01*
X163034470Y-87271166D01*
X163017054Y-87249946D01*
X162932393Y-87180465D01*
X162835802Y-87128837D01*
X162730996Y-87097044D01*
X162649313Y-87088999D01*
X162649305Y-87088999D01*
X162622001Y-87086310D01*
X162594697Y-87088999D01*
X160202267Y-87088999D01*
X160174962Y-87086310D01*
X160147657Y-87088999D01*
X160147651Y-87088999D01*
X160077003Y-87095957D01*
X160065967Y-87097044D01*
X160034174Y-87106689D01*
X159961162Y-87128837D01*
X159864571Y-87180465D01*
X159834108Y-87205466D01*
X159801123Y-87232536D01*
X159801120Y-87232539D01*
X159779910Y-87249946D01*
X159762503Y-87271156D01*
X156344680Y-90688981D01*
X137222825Y-90688981D01*
X137195520Y-90686292D01*
X137168215Y-90688981D01*
X137168208Y-90688981D01*
X137086525Y-90697026D01*
X136981718Y-90728819D01*
X136885128Y-90780447D01*
X136821681Y-90832517D01*
X136821677Y-90832521D01*
X136800467Y-90849928D01*
X136783060Y-90871138D01*
X132851162Y-94803038D01*
X132829947Y-94820449D01*
X132760466Y-94905110D01*
X132740646Y-94942191D01*
X132708838Y-95001701D01*
X132677044Y-95106508D01*
X132666310Y-95215502D01*
X129506000Y-95215502D01*
X129506000Y-89093078D01*
X149219000Y-89093078D01*
X149219000Y-89246922D01*
X149249013Y-89397809D01*
X149307887Y-89539942D01*
X149393358Y-89667859D01*
X149502141Y-89776642D01*
X149630058Y-89862113D01*
X149772191Y-89920987D01*
X149923078Y-89951000D01*
X150076922Y-89951000D01*
X150227809Y-89920987D01*
X150369942Y-89862113D01*
X150497859Y-89776642D01*
X150598501Y-89676000D01*
X156225154Y-89676000D01*
X156250000Y-89678447D01*
X156274846Y-89676000D01*
X156274854Y-89676000D01*
X156289929Y-89674515D01*
X156423078Y-89701000D01*
X156576922Y-89701000D01*
X156727809Y-89670987D01*
X156869942Y-89612113D01*
X156997859Y-89526642D01*
X157106642Y-89417859D01*
X157192113Y-89289942D01*
X157250987Y-89147809D01*
X157281000Y-88996922D01*
X157281000Y-88843078D01*
X157250987Y-88692191D01*
X157192113Y-88550058D01*
X157106642Y-88422141D01*
X156997859Y-88313358D01*
X156869942Y-88227887D01*
X156727809Y-88169013D01*
X156576922Y-88139000D01*
X156423078Y-88139000D01*
X156272191Y-88169013D01*
X156130058Y-88227887D01*
X156002141Y-88313358D01*
X155893358Y-88422141D01*
X155807887Y-88550058D01*
X155760690Y-88664000D01*
X150598501Y-88664000D01*
X150497859Y-88563358D01*
X150369942Y-88477887D01*
X150227809Y-88419013D01*
X150076922Y-88389000D01*
X149923078Y-88389000D01*
X149772191Y-88419013D01*
X149630058Y-88477887D01*
X149502141Y-88563358D01*
X149393358Y-88672141D01*
X149307887Y-88800058D01*
X149249013Y-88942191D01*
X149219000Y-89093078D01*
X129506000Y-89093078D01*
X129506000Y-87879591D01*
X130459582Y-86926010D01*
X133975144Y-86926010D01*
X133999990Y-86928457D01*
X134024836Y-86926010D01*
X134024844Y-86926010D01*
X134099183Y-86918688D01*
X134194565Y-86889755D01*
X134282469Y-86842769D01*
X134359517Y-86779537D01*
X134375366Y-86760225D01*
X135340220Y-85795372D01*
X135359527Y-85779527D01*
X135422759Y-85702479D01*
X135469745Y-85614575D01*
X135498678Y-85519193D01*
X135506000Y-85444854D01*
X135506000Y-85444853D01*
X135508448Y-85420000D01*
X135506000Y-85395146D01*
X135506000Y-82586711D01*
X135916712Y-82176000D01*
X143225154Y-82176000D01*
X143250000Y-82178447D01*
X143274846Y-82176000D01*
X143274854Y-82176000D01*
X143349193Y-82168678D01*
X143444575Y-82139745D01*
X143532479Y-82092759D01*
X143609527Y-82029527D01*
X143625376Y-82010215D01*
X143840215Y-81795376D01*
X143859527Y-81779527D01*
X143922759Y-81702479D01*
X143969745Y-81614575D01*
X143992309Y-81540190D01*
X143998678Y-81519194D01*
X143998774Y-81518215D01*
X144187216Y-81417491D01*
X144374660Y-81263660D01*
X144528491Y-81076215D01*
X144613535Y-80917110D01*
X144734947Y-81166570D01*
X144910951Y-81398429D01*
X145128807Y-81591496D01*
X145380142Y-81738352D01*
X145643110Y-81830476D01*
X145873000Y-81709155D01*
X145873000Y-80391000D01*
X146127000Y-80391000D01*
X146127000Y-81709155D01*
X146356890Y-81830476D01*
X146619858Y-81738352D01*
X146871193Y-81591496D01*
X147089049Y-81398429D01*
X147265053Y-81166570D01*
X147392442Y-80904830D01*
X147466320Y-80623267D01*
X147326165Y-80391000D01*
X146127000Y-80391000D01*
X145873000Y-80391000D01*
X145853000Y-80391000D01*
X145853000Y-80137000D01*
X145873000Y-80137000D01*
X145873000Y-78818845D01*
X146127000Y-78818845D01*
X146127000Y-80137000D01*
X147326165Y-80137000D01*
X147466320Y-79904733D01*
X147392442Y-79623170D01*
X147339309Y-79514000D01*
X150767157Y-79514000D01*
X150767157Y-81014000D01*
X150779317Y-81137462D01*
X150815329Y-81256179D01*
X150873810Y-81365589D01*
X150952512Y-81461488D01*
X151048411Y-81540190D01*
X151157821Y-81598671D01*
X151276538Y-81634683D01*
X151400000Y-81646843D01*
X152600000Y-81646843D01*
X152723462Y-81634683D01*
X152842179Y-81598671D01*
X152951589Y-81540190D01*
X153047488Y-81461488D01*
X153126190Y-81365589D01*
X153184671Y-81256179D01*
X153214670Y-81157284D01*
X153220975Y-81170812D01*
X153393198Y-81405795D01*
X153607954Y-81602664D01*
X153856991Y-81753854D01*
X154130739Y-81853554D01*
X154143110Y-81855476D01*
X154373000Y-81734155D01*
X154373000Y-80391000D01*
X154627000Y-80391000D01*
X154627000Y-81734155D01*
X154856890Y-81855476D01*
X154869261Y-81853554D01*
X155143009Y-81753854D01*
X155392046Y-81602664D01*
X155606802Y-81405795D01*
X155779025Y-81170812D01*
X155902096Y-80906745D01*
X155971285Y-80623742D01*
X155968969Y-80620000D01*
X161367157Y-80620000D01*
X161367157Y-81170000D01*
X161374513Y-81244689D01*
X161389775Y-81295000D01*
X161374513Y-81345311D01*
X161367157Y-81420000D01*
X161367157Y-82420000D01*
X161374513Y-82494689D01*
X161389775Y-82545000D01*
X161374513Y-82595311D01*
X161367157Y-82670000D01*
X161367157Y-83220000D01*
X161369565Y-83244450D01*
X161369565Y-83269009D01*
X161376921Y-83343698D01*
X161396043Y-83439831D01*
X161417828Y-83511648D01*
X161455337Y-83602204D01*
X161490717Y-83668394D01*
X161545173Y-83749893D01*
X161592784Y-83807908D01*
X161662092Y-83877216D01*
X161720107Y-83924827D01*
X161801606Y-83979283D01*
X161867796Y-84014663D01*
X161958352Y-84052172D01*
X162030169Y-84073957D01*
X162126302Y-84093079D01*
X162200991Y-84100435D01*
X162225550Y-84100435D01*
X162250000Y-84102843D01*
X162750000Y-84102843D01*
X162774450Y-84100435D01*
X162799009Y-84100435D01*
X162873698Y-84093079D01*
X162969831Y-84073957D01*
X163041648Y-84052172D01*
X163132204Y-84014663D01*
X163198394Y-83979283D01*
X163279893Y-83924827D01*
X163337908Y-83877216D01*
X163407216Y-83807908D01*
X163454827Y-83749893D01*
X163509283Y-83668394D01*
X163544663Y-83602204D01*
X163582172Y-83511648D01*
X163603957Y-83439831D01*
X163623079Y-83343698D01*
X163630435Y-83269009D01*
X163630435Y-83244450D01*
X163632843Y-83220000D01*
X163632843Y-82670000D01*
X163625487Y-82595311D01*
X163610225Y-82545000D01*
X163625487Y-82494689D01*
X163632843Y-82420000D01*
X163632843Y-81420000D01*
X163625487Y-81345311D01*
X163610225Y-81295000D01*
X163625487Y-81244689D01*
X163632843Y-81170000D01*
X163632843Y-80620000D01*
X163630435Y-80595550D01*
X163630435Y-80570991D01*
X163623079Y-80496302D01*
X163603957Y-80400169D01*
X163582172Y-80328352D01*
X163544663Y-80237796D01*
X163509283Y-80171606D01*
X163454827Y-80090107D01*
X163407216Y-80032092D01*
X163337908Y-79962784D01*
X163279893Y-79915173D01*
X163198394Y-79860717D01*
X163132204Y-79825337D01*
X163041648Y-79787828D01*
X162969831Y-79766043D01*
X162873698Y-79746921D01*
X162799009Y-79739565D01*
X162774450Y-79739565D01*
X162750000Y-79737157D01*
X162250000Y-79737157D01*
X162225550Y-79739565D01*
X162200991Y-79739565D01*
X162126302Y-79746921D01*
X162030169Y-79766043D01*
X161958352Y-79787828D01*
X161867796Y-79825337D01*
X161801606Y-79860717D01*
X161720107Y-79915173D01*
X161662092Y-79962784D01*
X161592784Y-80032092D01*
X161545173Y-80090107D01*
X161490717Y-80171606D01*
X161455337Y-80237796D01*
X161417828Y-80328352D01*
X161396043Y-80400169D01*
X161376921Y-80496302D01*
X161369565Y-80570991D01*
X161369565Y-80595550D01*
X161367157Y-80620000D01*
X155968969Y-80620000D01*
X155827232Y-80391000D01*
X154627000Y-80391000D01*
X154373000Y-80391000D01*
X154353000Y-80391000D01*
X154353000Y-80137000D01*
X154373000Y-80137000D01*
X154373000Y-78793845D01*
X154627000Y-78793845D01*
X154627000Y-80137000D01*
X155827232Y-80137000D01*
X155971285Y-79904258D01*
X155902096Y-79621255D01*
X155779025Y-79357188D01*
X155606802Y-79122205D01*
X155392046Y-78925336D01*
X155143009Y-78774146D01*
X154869261Y-78674446D01*
X154856890Y-78672524D01*
X154627000Y-78793845D01*
X154373000Y-78793845D01*
X154143110Y-78672524D01*
X154130739Y-78674446D01*
X153856991Y-78774146D01*
X153607954Y-78925336D01*
X153393198Y-79122205D01*
X153220975Y-79357188D01*
X153214670Y-79370716D01*
X153184671Y-79271821D01*
X153126190Y-79162411D01*
X153047488Y-79066512D01*
X152951589Y-78987810D01*
X152842179Y-78929329D01*
X152723462Y-78893317D01*
X152600000Y-78881157D01*
X151400000Y-78881157D01*
X151276538Y-78893317D01*
X151157821Y-78929329D01*
X151048411Y-78987810D01*
X150952512Y-79066512D01*
X150873810Y-79162411D01*
X150815329Y-79271821D01*
X150779317Y-79390538D01*
X150767157Y-79514000D01*
X147339309Y-79514000D01*
X147265053Y-79361430D01*
X147089049Y-79129571D01*
X146871193Y-78936504D01*
X146619858Y-78789648D01*
X146356890Y-78697524D01*
X146127000Y-78818845D01*
X145873000Y-78818845D01*
X145643110Y-78697524D01*
X145380142Y-78789648D01*
X145128807Y-78936504D01*
X144910951Y-79129571D01*
X144734947Y-79361430D01*
X144613535Y-79610890D01*
X144528491Y-79451784D01*
X144374660Y-79264340D01*
X144187215Y-79110509D01*
X143973362Y-78996202D01*
X143741317Y-78925812D01*
X143500000Y-78902044D01*
X143258682Y-78925812D01*
X143026637Y-78996202D01*
X142812784Y-79110509D01*
X142625340Y-79264340D01*
X142471509Y-79451785D01*
X142386465Y-79610890D01*
X142265053Y-79361430D01*
X142089049Y-79129571D01*
X141871193Y-78936504D01*
X141619858Y-78789648D01*
X141356890Y-78697524D01*
X141127000Y-78818845D01*
X141127000Y-80137000D01*
X141147000Y-80137000D01*
X141147000Y-80391000D01*
X141127000Y-80391000D01*
X141127000Y-80411000D01*
X140873000Y-80411000D01*
X140873000Y-80391000D01*
X140853000Y-80391000D01*
X140853000Y-80137000D01*
X140873000Y-80137000D01*
X140873000Y-78818845D01*
X140643110Y-78697524D01*
X140380142Y-78789648D01*
X140128807Y-78936504D01*
X139910951Y-79129571D01*
X139734947Y-79361430D01*
X139716048Y-79400260D01*
X139684671Y-79296821D01*
X139626190Y-79187411D01*
X139547488Y-79091512D01*
X139451589Y-79012810D01*
X139342179Y-78954329D01*
X139223462Y-78918317D01*
X139100000Y-78906157D01*
X137900000Y-78906157D01*
X137776538Y-78918317D01*
X137657821Y-78954329D01*
X137548411Y-79012810D01*
X137452512Y-79091512D01*
X137373810Y-79187411D01*
X137315329Y-79296821D01*
X137279317Y-79415538D01*
X137267157Y-79539000D01*
X137267157Y-79708000D01*
X136433304Y-79708000D01*
X136405999Y-79705311D01*
X136378695Y-79708000D01*
X136378688Y-79708000D01*
X136297005Y-79716045D01*
X136192199Y-79747838D01*
X136095608Y-79799466D01*
X136010947Y-79868947D01*
X135993535Y-79890163D01*
X134331159Y-81552540D01*
X134391000Y-81251698D01*
X134391000Y-80546302D01*
X134253384Y-79854461D01*
X133983441Y-79202760D01*
X133591544Y-78616246D01*
X133092754Y-78117456D01*
X132506240Y-77725559D01*
X132256226Y-77622000D01*
X164873000Y-77622000D01*
X164873000Y-85420000D01*
%TA.AperFunction,Conductor*%
D27*
G36*
X164873000Y-85420000D02*
G01*
X164875440Y-85444776D01*
X164882667Y-85468601D01*
X164894403Y-85490557D01*
X164910197Y-85509803D01*
X164929443Y-85525597D01*
X164951399Y-85537333D01*
X164975224Y-85544560D01*
X165000000Y-85547000D01*
X172000000Y-85547000D01*
X172024776Y-85544560D01*
X172048601Y-85537333D01*
X172070557Y-85525597D01*
X172089803Y-85509803D01*
X172105597Y-85490557D01*
X172117333Y-85468601D01*
X172124560Y-85444776D01*
X172127000Y-85420000D01*
X172127000Y-77622000D01*
X184506001Y-77622000D01*
X184506000Y-116598641D01*
X184448497Y-116459816D01*
X184056600Y-115873302D01*
X183557810Y-115374512D01*
X182971296Y-114982615D01*
X182319595Y-114712672D01*
X181758183Y-114601000D01*
X183751000Y-114601000D01*
X183751000Y-93039000D01*
X177889000Y-93039000D01*
X177889000Y-114601000D01*
X180791929Y-114601000D01*
X180230517Y-114712672D01*
X179578816Y-114982615D01*
X178992302Y-115374512D01*
X178493512Y-115873302D01*
X178101615Y-116459816D01*
X177831672Y-117111517D01*
X177694056Y-117803358D01*
X177694056Y-118508754D01*
X177831672Y-119200595D01*
X178101615Y-119852296D01*
X178493512Y-120438810D01*
X178992302Y-120937600D01*
X179578816Y-121329497D01*
X180024246Y-121514000D01*
X159115035Y-121514000D01*
X159190368Y-121401256D01*
X159266956Y-121216356D01*
X159306000Y-121020067D01*
X159306000Y-120819933D01*
X159266956Y-120623644D01*
X159190368Y-120438744D01*
X159079179Y-120272338D01*
X158937662Y-120130821D01*
X158771256Y-120019632D01*
X158586356Y-119943044D01*
X158390067Y-119904000D01*
X158189933Y-119904000D01*
X157993644Y-119943044D01*
X157808744Y-120019632D01*
X157642338Y-120130821D01*
X157500821Y-120272338D01*
X157389632Y-120438744D01*
X157313044Y-120623644D01*
X157274000Y-120819933D01*
X157274000Y-121020067D01*
X157313044Y-121216356D01*
X157389632Y-121401256D01*
X157464965Y-121514000D01*
X155092000Y-121514000D01*
X155092000Y-119626993D01*
X169222612Y-119626993D01*
X169288137Y-119865860D01*
X169535116Y-119981760D01*
X169799960Y-120047250D01*
X170072492Y-120059812D01*
X170342238Y-120018965D01*
X170598832Y-119926277D01*
X170711863Y-119865860D01*
X170777388Y-119626993D01*
X170000000Y-118849605D01*
X169222612Y-119626993D01*
X155092000Y-119626993D01*
X155092000Y-118670000D01*
X158601928Y-118670000D01*
X158614188Y-118794482D01*
X158650498Y-118914180D01*
X158709463Y-119024494D01*
X158788815Y-119121185D01*
X158885506Y-119200537D01*
X158995820Y-119259502D01*
X159115518Y-119295812D01*
X159240000Y-119308072D01*
X159964250Y-119305000D01*
X160123000Y-119146250D01*
X160123000Y-118047000D01*
X160377000Y-118047000D01*
X160377000Y-119146250D01*
X160535750Y-119305000D01*
X161260000Y-119308072D01*
X161384482Y-119295812D01*
X161504180Y-119259502D01*
X161614494Y-119200537D01*
X161711185Y-119121185D01*
X161790537Y-119024494D01*
X161849502Y-118914180D01*
X161885812Y-118794482D01*
X161890932Y-118742492D01*
X168610188Y-118742492D01*
X168651035Y-119012238D01*
X168743723Y-119268832D01*
X168804140Y-119381863D01*
X169043007Y-119447388D01*
X169820395Y-118670000D01*
X170179605Y-118670000D01*
X170956993Y-119447388D01*
X171195860Y-119381863D01*
X171311760Y-119134884D01*
X171377250Y-118870040D01*
X171389812Y-118597508D01*
X171348965Y-118327762D01*
X171291978Y-118170000D01*
X171867157Y-118170000D01*
X171867157Y-119170000D01*
X171879317Y-119293462D01*
X171915329Y-119412179D01*
X171973810Y-119521589D01*
X172052512Y-119617488D01*
X172148411Y-119696190D01*
X172257821Y-119754671D01*
X172376538Y-119790683D01*
X172500000Y-119802843D01*
X173500000Y-119802843D01*
X173623462Y-119790683D01*
X173742179Y-119754671D01*
X173851589Y-119696190D01*
X173947488Y-119617488D01*
X174026190Y-119521589D01*
X174084671Y-119412179D01*
X174120683Y-119293462D01*
X174132843Y-119170000D01*
X174132843Y-118170000D01*
X174120683Y-118046538D01*
X174084671Y-117927821D01*
X174026190Y-117818411D01*
X173947488Y-117722512D01*
X173851589Y-117643810D01*
X173742179Y-117585329D01*
X173623462Y-117549317D01*
X173500000Y-117537157D01*
X172500000Y-117537157D01*
X172376538Y-117549317D01*
X172257821Y-117585329D01*
X172148411Y-117643810D01*
X172052512Y-117722512D01*
X171973810Y-117818411D01*
X171915329Y-117927821D01*
X171879317Y-118046538D01*
X171867157Y-118170000D01*
X171291978Y-118170000D01*
X171256277Y-118071168D01*
X171195860Y-117958137D01*
X170956993Y-117892612D01*
X170179605Y-118670000D01*
X169820395Y-118670000D01*
X169043007Y-117892612D01*
X168804140Y-117958137D01*
X168688240Y-118205116D01*
X168622750Y-118469960D01*
X168610188Y-118742492D01*
X161890932Y-118742492D01*
X161898072Y-118670000D01*
X161895000Y-118205750D01*
X161736250Y-118047000D01*
X160377000Y-118047000D01*
X160123000Y-118047000D01*
X158763750Y-118047000D01*
X158605000Y-118205750D01*
X158601928Y-118670000D01*
X155092000Y-118670000D01*
X155092000Y-117170000D01*
X158601928Y-117170000D01*
X158605000Y-117634250D01*
X158763750Y-117793000D01*
X160123000Y-117793000D01*
X160123000Y-116693750D01*
X160377000Y-116693750D01*
X160377000Y-117793000D01*
X161736250Y-117793000D01*
X161816243Y-117713007D01*
X169222612Y-117713007D01*
X170000000Y-118490395D01*
X170777388Y-117713007D01*
X170711863Y-117474140D01*
X170464884Y-117358240D01*
X170200040Y-117292750D01*
X169927508Y-117280188D01*
X169657762Y-117321035D01*
X169401168Y-117413723D01*
X169288137Y-117474140D01*
X169222612Y-117713007D01*
X161816243Y-117713007D01*
X161895000Y-117634250D01*
X161898072Y-117170000D01*
X161885812Y-117045518D01*
X161849502Y-116925820D01*
X161790537Y-116815506D01*
X161711185Y-116718815D01*
X161614494Y-116639463D01*
X161504180Y-116580498D01*
X161384482Y-116544188D01*
X161260000Y-116531928D01*
X160535750Y-116535000D01*
X160377000Y-116693750D01*
X160123000Y-116693750D01*
X159964250Y-116535000D01*
X159240000Y-116531928D01*
X159115518Y-116544188D01*
X158995820Y-116580498D01*
X158885506Y-116639463D01*
X158788815Y-116718815D01*
X158709463Y-116815506D01*
X158650498Y-116925820D01*
X158614188Y-117045518D01*
X158601928Y-117170000D01*
X155092000Y-117170000D01*
X155092000Y-116859941D01*
X155093964Y-116840000D01*
X155086125Y-116760410D01*
X155062910Y-116683879D01*
X155025210Y-116613347D01*
X154974474Y-116551526D01*
X154912653Y-116500790D01*
X154842121Y-116463090D01*
X154765590Y-116439875D01*
X154705941Y-116434000D01*
X154705940Y-116434000D01*
X154686000Y-116432036D01*
X154666059Y-116434000D01*
X131337940Y-116434000D01*
X131318000Y-116432036D01*
X131298059Y-116434000D01*
X131238410Y-116439875D01*
X131161879Y-116463090D01*
X131091347Y-116500790D01*
X131029526Y-116551526D01*
X130978790Y-116613347D01*
X130941090Y-116683879D01*
X130917875Y-116760410D01*
X130910036Y-116840000D01*
X130912000Y-116859941D01*
X130912001Y-121514000D01*
X127406000Y-121514000D01*
X127406000Y-82038621D01*
X127636559Y-82595240D01*
X128028456Y-83181754D01*
X128527246Y-83680544D01*
X129113760Y-84072441D01*
X129765461Y-84342384D01*
X130457302Y-84480000D01*
X131162698Y-84480000D01*
X131854539Y-84342384D01*
X132506240Y-84072441D01*
X133092754Y-83680544D01*
X133591544Y-83181754D01*
X133944000Y-82654267D01*
X133944001Y-84939697D01*
X133519699Y-85364000D01*
X130027305Y-85364000D01*
X130000000Y-85361311D01*
X129972695Y-85364000D01*
X129972688Y-85364000D01*
X129891005Y-85372045D01*
X129786199Y-85403838D01*
X129689608Y-85455466D01*
X129659236Y-85480392D01*
X129626161Y-85507536D01*
X129626157Y-85507540D01*
X129604947Y-85524947D01*
X129587540Y-85546157D01*
X127876168Y-87257531D01*
X127854947Y-87274947D01*
X127785466Y-87359608D01*
X127733838Y-87456200D01*
X127702045Y-87561006D01*
X127694000Y-87642689D01*
X127694000Y-87642696D01*
X127691311Y-87670000D01*
X127694000Y-87697304D01*
X127694001Y-113142686D01*
X127691311Y-113170000D01*
X127702045Y-113278994D01*
X127733839Y-113383801D01*
X127785467Y-113480392D01*
X127854948Y-113565053D01*
X127876163Y-113582464D01*
X128967540Y-114673843D01*
X128984947Y-114695053D01*
X129006157Y-114712460D01*
X129006160Y-114712463D01*
X129006415Y-114712672D01*
X129069608Y-114764534D01*
X129166199Y-114816162D01*
X129239211Y-114838310D01*
X129271004Y-114847955D01*
X129282040Y-114849042D01*
X129352688Y-114856000D01*
X129352694Y-114856000D01*
X129379999Y-114858689D01*
X129407304Y-114856000D01*
X130339157Y-114856000D01*
X130339157Y-115150000D01*
X130346513Y-115224689D01*
X130368299Y-115296508D01*
X130403678Y-115362696D01*
X130451289Y-115420711D01*
X130509304Y-115468322D01*
X130575492Y-115503701D01*
X130647311Y-115525487D01*
X130722000Y-115532843D01*
X132422000Y-115532843D01*
X132496689Y-115525487D01*
X132568508Y-115503701D01*
X132634696Y-115468322D01*
X132692711Y-115420711D01*
X132740322Y-115362696D01*
X132775701Y-115296508D01*
X132797487Y-115224689D01*
X132804843Y-115150000D01*
X132804843Y-113450000D01*
X132879157Y-113450000D01*
X132879157Y-115150000D01*
X132886513Y-115224689D01*
X132908299Y-115296508D01*
X132943678Y-115362696D01*
X132991289Y-115420711D01*
X133049304Y-115468322D01*
X133115492Y-115503701D01*
X133187311Y-115525487D01*
X133262000Y-115532843D01*
X134962000Y-115532843D01*
X135036689Y-115525487D01*
X135108508Y-115503701D01*
X135174696Y-115468322D01*
X135232711Y-115420711D01*
X135280322Y-115362696D01*
X135315701Y-115296508D01*
X135337487Y-115224689D01*
X135344843Y-115150000D01*
X135344843Y-113450000D01*
X135337487Y-113375311D01*
X135315701Y-113303492D01*
X135280322Y-113237304D01*
X135232711Y-113179289D01*
X135174696Y-113131678D01*
X135108508Y-113096299D01*
X135036689Y-113074513D01*
X134962000Y-113067157D01*
X133262000Y-113067157D01*
X133187311Y-113074513D01*
X133115492Y-113096299D01*
X133049304Y-113131678D01*
X132991289Y-113179289D01*
X132943678Y-113237304D01*
X132908299Y-113303492D01*
X132886513Y-113375311D01*
X132879157Y-113450000D01*
X132804843Y-113450000D01*
X132797487Y-113375311D01*
X132775701Y-113303492D01*
X132740322Y-113237304D01*
X132692711Y-113179289D01*
X132634696Y-113131678D01*
X132568508Y-113096299D01*
X132496689Y-113074513D01*
X132422000Y-113067157D01*
X130722000Y-113067157D01*
X130647311Y-113074513D01*
X130575492Y-113096299D01*
X130509304Y-113131678D01*
X130451289Y-113179289D01*
X130403678Y-113237304D01*
X130368299Y-113303492D01*
X130346513Y-113375311D01*
X130339157Y-113450000D01*
X130339157Y-113744000D01*
X129610303Y-113744000D01*
X128806000Y-112939699D01*
X128806000Y-111691591D01*
X129214628Y-112100220D01*
X129230473Y-112119527D01*
X129307521Y-112182759D01*
X129395425Y-112229745D01*
X129490807Y-112258678D01*
X129565146Y-112266000D01*
X129565153Y-112266000D01*
X129589999Y-112268447D01*
X129614845Y-112266000D01*
X130449168Y-112266000D01*
X130481102Y-112343097D01*
X130615820Y-112544717D01*
X130787283Y-112716180D01*
X130988903Y-112850898D01*
X131212931Y-112943693D01*
X131450757Y-112991000D01*
X131693243Y-112991000D01*
X131931069Y-112943693D01*
X132155097Y-112850898D01*
X132356717Y-112716180D01*
X132528180Y-112544717D01*
X132662898Y-112343097D01*
X132755693Y-112119069D01*
X132803000Y-111881243D01*
X132803000Y-111638757D01*
X132881000Y-111638757D01*
X132881000Y-111881243D01*
X132928307Y-112119069D01*
X133021102Y-112343097D01*
X133155820Y-112544717D01*
X133327283Y-112716180D01*
X133528903Y-112850898D01*
X133752931Y-112943693D01*
X133990757Y-112991000D01*
X134233243Y-112991000D01*
X134471069Y-112943693D01*
X134695097Y-112850898D01*
X134896717Y-112716180D01*
X135068180Y-112544717D01*
X135202898Y-112343097D01*
X135295693Y-112119069D01*
X135343000Y-111881243D01*
X135343000Y-111638757D01*
X135295693Y-111400931D01*
X135202898Y-111176903D01*
X135068180Y-110975283D01*
X134896717Y-110803820D01*
X134695097Y-110669102D01*
X134471069Y-110576307D01*
X134233243Y-110529000D01*
X133990757Y-110529000D01*
X133752931Y-110576307D01*
X133528903Y-110669102D01*
X133327283Y-110803820D01*
X133155820Y-110975283D01*
X133021102Y-111176903D01*
X132928307Y-111400931D01*
X132881000Y-111638757D01*
X132803000Y-111638757D01*
X132755693Y-111400931D01*
X132662898Y-111176903D01*
X132528180Y-110975283D01*
X132356717Y-110803820D01*
X132155097Y-110669102D01*
X131931069Y-110576307D01*
X131693243Y-110529000D01*
X131450757Y-110529000D01*
X131212931Y-110576307D01*
X130988903Y-110669102D01*
X130787283Y-110803820D01*
X130615820Y-110975283D01*
X130481102Y-111176903D01*
X130449168Y-111254000D01*
X129799592Y-111254000D01*
X129506000Y-110960409D01*
X129506000Y-95215502D01*
X132666310Y-95215502D01*
X132669000Y-95242816D01*
X132668999Y-102117695D01*
X132666310Y-102144999D01*
X132668999Y-102172303D01*
X132668999Y-102172310D01*
X132677044Y-102253993D01*
X132708837Y-102358799D01*
X132760465Y-102455391D01*
X132829946Y-102540052D01*
X132851167Y-102557468D01*
X133219000Y-102925301D01*
X133219000Y-102996922D01*
X133249013Y-103147809D01*
X133307887Y-103289942D01*
X133393358Y-103417859D01*
X133502141Y-103526642D01*
X133630058Y-103612113D01*
X133772191Y-103670987D01*
X133923078Y-103701000D01*
X134076922Y-103701000D01*
X134227809Y-103670987D01*
X134369942Y-103612113D01*
X134497859Y-103526642D01*
X134543992Y-103480509D01*
X134543992Y-106378005D01*
X134411769Y-106510228D01*
X134392462Y-106526073D01*
X134329230Y-106603121D01*
X134282244Y-106691025D01*
X134253311Y-106786407D01*
X134245989Y-106860746D01*
X134245989Y-106860753D01*
X134243542Y-106885599D01*
X134245989Y-106910446D01*
X134245991Y-107929547D01*
X134243543Y-107954402D01*
X134253312Y-108053594D01*
X134282245Y-108148976D01*
X134304117Y-108189894D01*
X134329232Y-108236881D01*
X134392464Y-108313929D01*
X134411770Y-108329774D01*
X135919217Y-109837221D01*
X135935062Y-109856528D01*
X136012110Y-109919760D01*
X136100014Y-109966746D01*
X136173196Y-109988945D01*
X136195395Y-109995679D01*
X136205283Y-109996653D01*
X136269735Y-110003001D01*
X136269742Y-110003001D01*
X136294588Y-110005448D01*
X136319434Y-110003001D01*
X136867410Y-110003001D01*
X137321002Y-110456594D01*
X137321002Y-110726502D01*
X137235097Y-110669102D01*
X137011069Y-110576307D01*
X136773243Y-110529000D01*
X136530757Y-110529000D01*
X136292931Y-110576307D01*
X136068903Y-110669102D01*
X135867283Y-110803820D01*
X135695820Y-110975283D01*
X135561102Y-111176903D01*
X135468307Y-111400931D01*
X135421000Y-111638757D01*
X135421000Y-111881243D01*
X135468307Y-112119069D01*
X135561102Y-112343097D01*
X135695820Y-112544717D01*
X135867283Y-112716180D01*
X136068903Y-112850898D01*
X136292931Y-112943693D01*
X136530757Y-112991000D01*
X136773243Y-112991000D01*
X137011069Y-112943693D01*
X137235097Y-112850898D01*
X137321001Y-112793499D01*
X137321001Y-113266501D01*
X137235097Y-113209102D01*
X137011069Y-113116307D01*
X136773243Y-113069000D01*
X136530757Y-113069000D01*
X136292931Y-113116307D01*
X136068903Y-113209102D01*
X135867283Y-113343820D01*
X135695820Y-113515283D01*
X135561102Y-113716903D01*
X135468307Y-113940931D01*
X135421000Y-114178757D01*
X135421000Y-114421243D01*
X135468307Y-114659069D01*
X135561102Y-114883097D01*
X135695820Y-115084717D01*
X135867283Y-115256180D01*
X136068903Y-115390898D01*
X136292931Y-115483693D01*
X136530757Y-115531000D01*
X136773243Y-115531000D01*
X137011069Y-115483693D01*
X137235097Y-115390898D01*
X137436717Y-115256180D01*
X137565152Y-115127745D01*
X138252627Y-115815221D01*
X138268472Y-115834528D01*
X138345520Y-115897760D01*
X138433424Y-115944746D01*
X138528805Y-115973679D01*
X138538693Y-115974653D01*
X138603145Y-115981001D01*
X138603152Y-115981001D01*
X138627998Y-115983448D01*
X138652844Y-115981001D01*
X141632153Y-115981001D01*
X141656999Y-115983448D01*
X141681845Y-115981001D01*
X141681853Y-115981001D01*
X141756192Y-115973679D01*
X141851574Y-115944746D01*
X141939478Y-115897760D01*
X142016526Y-115834528D01*
X142032375Y-115815216D01*
X142072215Y-115775376D01*
X142091527Y-115759527D01*
X142154759Y-115682479D01*
X142201745Y-115594575D01*
X142220471Y-115532843D01*
X142582000Y-115532843D01*
X142656689Y-115525487D01*
X142728508Y-115503701D01*
X142794696Y-115468322D01*
X142852711Y-115420711D01*
X142900322Y-115362696D01*
X142935701Y-115296508D01*
X142957487Y-115224689D01*
X142964843Y-115150000D01*
X142964843Y-114178757D01*
X143041000Y-114178757D01*
X143041000Y-114421243D01*
X143088307Y-114659069D01*
X143181102Y-114883097D01*
X143315820Y-115084717D01*
X143487283Y-115256180D01*
X143688903Y-115390898D01*
X143912931Y-115483693D01*
X144150757Y-115531000D01*
X144393243Y-115531000D01*
X144631069Y-115483693D01*
X144855097Y-115390898D01*
X145056717Y-115256180D01*
X145228180Y-115084717D01*
X145362898Y-114883097D01*
X145455693Y-114659069D01*
X145503000Y-114421243D01*
X145503000Y-114178757D01*
X145581000Y-114178757D01*
X145581000Y-114421243D01*
X145628307Y-114659069D01*
X145721102Y-114883097D01*
X145855820Y-115084717D01*
X146027283Y-115256180D01*
X146228903Y-115390898D01*
X146452931Y-115483693D01*
X146690757Y-115531000D01*
X146933243Y-115531000D01*
X147171069Y-115483693D01*
X147395097Y-115390898D01*
X147596717Y-115256180D01*
X147768180Y-115084717D01*
X147902898Y-114883097D01*
X147995693Y-114659069D01*
X148043000Y-114421243D01*
X148043000Y-114178757D01*
X148121000Y-114178757D01*
X148121000Y-114421243D01*
X148168307Y-114659069D01*
X148261102Y-114883097D01*
X148395820Y-115084717D01*
X148567283Y-115256180D01*
X148768903Y-115390898D01*
X148992931Y-115483693D01*
X149230757Y-115531000D01*
X149473243Y-115531000D01*
X149711069Y-115483693D01*
X149935097Y-115390898D01*
X150136717Y-115256180D01*
X150308180Y-115084717D01*
X150442898Y-114883097D01*
X150535693Y-114659069D01*
X150583000Y-114421243D01*
X150583000Y-114178757D01*
X150535693Y-113940931D01*
X150442898Y-113716903D01*
X150308180Y-113515283D01*
X150136717Y-113343820D01*
X149935097Y-113209102D01*
X149711069Y-113116307D01*
X149473243Y-113069000D01*
X149230757Y-113069000D01*
X148992931Y-113116307D01*
X148768903Y-113209102D01*
X148567283Y-113343820D01*
X148395820Y-113515283D01*
X148261102Y-113716903D01*
X148168307Y-113940931D01*
X148121000Y-114178757D01*
X148043000Y-114178757D01*
X147995693Y-113940931D01*
X147902898Y-113716903D01*
X147768180Y-113515283D01*
X147596717Y-113343820D01*
X147395097Y-113209102D01*
X147171069Y-113116307D01*
X146933243Y-113069000D01*
X146690757Y-113069000D01*
X146452931Y-113116307D01*
X146228903Y-113209102D01*
X146027283Y-113343820D01*
X145855820Y-113515283D01*
X145721102Y-113716903D01*
X145628307Y-113940931D01*
X145581000Y-114178757D01*
X145503000Y-114178757D01*
X145455693Y-113940931D01*
X145362898Y-113716903D01*
X145228180Y-113515283D01*
X145056717Y-113343820D01*
X144855097Y-113209102D01*
X144631069Y-113116307D01*
X144393243Y-113069000D01*
X144150757Y-113069000D01*
X143912931Y-113116307D01*
X143688903Y-113209102D01*
X143487283Y-113343820D01*
X143315820Y-113515283D01*
X143181102Y-113716903D01*
X143088307Y-113940931D01*
X143041000Y-114178757D01*
X142964843Y-114178757D01*
X142964843Y-113450000D01*
X142957487Y-113375311D01*
X142935701Y-113303492D01*
X142900322Y-113237304D01*
X142852711Y-113179289D01*
X142794696Y-113131678D01*
X142728508Y-113096299D01*
X142656689Y-113074513D01*
X142582000Y-113067157D01*
X140882000Y-113067157D01*
X140807311Y-113074513D01*
X140735492Y-113096299D01*
X140669304Y-113131678D01*
X140611289Y-113179289D01*
X140563678Y-113237304D01*
X140528299Y-113303492D01*
X140506513Y-113375311D01*
X140499157Y-113450000D01*
X140499157Y-114969001D01*
X140225499Y-114969001D01*
X140282898Y-114883097D01*
X140375693Y-114659069D01*
X140423000Y-114421243D01*
X140423000Y-114178757D01*
X140375693Y-113940931D01*
X140282898Y-113716903D01*
X140148180Y-113515283D01*
X139976717Y-113343820D01*
X139775097Y-113209102D01*
X139668846Y-113165091D01*
X139696099Y-113156825D01*
X139958920Y-113031641D01*
X140192269Y-112857588D01*
X140387178Y-112641355D01*
X140536157Y-112391252D01*
X140593772Y-112228832D01*
X140641102Y-112343097D01*
X140775820Y-112544717D01*
X140947283Y-112716180D01*
X141148903Y-112850898D01*
X141372931Y-112943693D01*
X141610757Y-112991000D01*
X141853243Y-112991000D01*
X142091069Y-112943693D01*
X142315097Y-112850898D01*
X142516717Y-112716180D01*
X142688180Y-112544717D01*
X142822898Y-112343097D01*
X142915693Y-112119069D01*
X142963000Y-111881243D01*
X142963000Y-111638757D01*
X143041000Y-111638757D01*
X143041000Y-111881243D01*
X143088307Y-112119069D01*
X143181102Y-112343097D01*
X143315820Y-112544717D01*
X143487283Y-112716180D01*
X143688903Y-112850898D01*
X143912931Y-112943693D01*
X144150757Y-112991000D01*
X144393243Y-112991000D01*
X144631069Y-112943693D01*
X144855097Y-112850898D01*
X145056717Y-112716180D01*
X145228180Y-112544717D01*
X145362898Y-112343097D01*
X145455693Y-112119069D01*
X145503000Y-111881243D01*
X145503000Y-111638757D01*
X145581000Y-111638757D01*
X145581000Y-111881243D01*
X145628307Y-112119069D01*
X145721102Y-112343097D01*
X145855820Y-112544717D01*
X146027283Y-112716180D01*
X146228903Y-112850898D01*
X146452931Y-112943693D01*
X146690757Y-112991000D01*
X146933243Y-112991000D01*
X147171069Y-112943693D01*
X147395097Y-112850898D01*
X147596717Y-112716180D01*
X147768180Y-112544717D01*
X147902898Y-112343097D01*
X147995693Y-112119069D01*
X148043000Y-111881243D01*
X148043000Y-111638757D01*
X147995693Y-111400931D01*
X147902898Y-111176903D01*
X147768180Y-110975283D01*
X147596717Y-110803820D01*
X147395097Y-110669102D01*
X147171069Y-110576307D01*
X146933243Y-110529000D01*
X146690757Y-110529000D01*
X146452931Y-110576307D01*
X146228903Y-110669102D01*
X146027283Y-110803820D01*
X145855820Y-110975283D01*
X145721102Y-111176903D01*
X145628307Y-111400931D01*
X145581000Y-111638757D01*
X145503000Y-111638757D01*
X145455693Y-111400931D01*
X145362898Y-111176903D01*
X145228180Y-110975283D01*
X145056717Y-110803820D01*
X144855097Y-110669102D01*
X144631069Y-110576307D01*
X144393243Y-110529000D01*
X144150757Y-110529000D01*
X143912931Y-110576307D01*
X143688903Y-110669102D01*
X143487283Y-110803820D01*
X143315820Y-110975283D01*
X143181102Y-111176903D01*
X143088307Y-111400931D01*
X143041000Y-111638757D01*
X142963000Y-111638757D01*
X142915693Y-111400931D01*
X142822898Y-111176903D01*
X142688180Y-110975283D01*
X142516717Y-110803820D01*
X142315097Y-110669102D01*
X142091069Y-110576307D01*
X141853243Y-110529000D01*
X141610757Y-110529000D01*
X141372931Y-110576307D01*
X141295833Y-110608242D01*
X141113592Y-110426000D01*
X142151499Y-110426000D01*
X142252141Y-110526642D01*
X142380058Y-110612113D01*
X142522191Y-110670987D01*
X142673078Y-110701000D01*
X142826922Y-110701000D01*
X142977809Y-110670987D01*
X143119942Y-110612113D01*
X143247859Y-110526642D01*
X143356642Y-110417859D01*
X143442113Y-110289942D01*
X143500987Y-110147809D01*
X143531000Y-109996922D01*
X143531000Y-109843078D01*
X143520183Y-109788697D01*
X143630058Y-109862113D01*
X143772191Y-109920987D01*
X143923078Y-109951000D01*
X144076922Y-109951000D01*
X144227809Y-109920987D01*
X144369942Y-109862113D01*
X144497859Y-109776642D01*
X144606642Y-109667859D01*
X144692113Y-109539942D01*
X144750987Y-109397809D01*
X144781000Y-109246922D01*
X144781000Y-109093078D01*
X144750987Y-108942191D01*
X144692113Y-108800058D01*
X144606642Y-108672141D01*
X144497859Y-108563358D01*
X144369942Y-108477887D01*
X144227809Y-108419013D01*
X144076922Y-108389000D01*
X143923078Y-108389000D01*
X143772191Y-108419013D01*
X143630058Y-108477887D01*
X143502141Y-108563358D01*
X143401499Y-108664000D01*
X140704540Y-108664000D01*
X140166550Y-108126010D01*
X149490419Y-108126010D01*
X150021002Y-108656594D01*
X150021001Y-110726501D01*
X149935097Y-110669102D01*
X149711069Y-110576307D01*
X149473243Y-110529000D01*
X149230757Y-110529000D01*
X148992931Y-110576307D01*
X148768903Y-110669102D01*
X148567283Y-110803820D01*
X148395820Y-110975283D01*
X148261102Y-111176903D01*
X148168307Y-111400931D01*
X148121000Y-111638757D01*
X148121000Y-111881243D01*
X148168307Y-112119069D01*
X148261102Y-112343097D01*
X148395820Y-112544717D01*
X148567283Y-112716180D01*
X148768903Y-112850898D01*
X148992931Y-112943693D01*
X149230757Y-112991000D01*
X149473243Y-112991000D01*
X149711069Y-112943693D01*
X149935097Y-112850898D01*
X150021001Y-112793499D01*
X150021001Y-112910155D01*
X150018554Y-112935001D01*
X150021001Y-112959847D01*
X150021001Y-112959854D01*
X150028323Y-113034193D01*
X150057256Y-113129575D01*
X150104242Y-113217480D01*
X150167474Y-113294528D01*
X150186786Y-113310377D01*
X150740242Y-113863833D01*
X150708307Y-113940931D01*
X150661000Y-114178757D01*
X150661000Y-114421243D01*
X150708307Y-114659069D01*
X150801102Y-114883097D01*
X150935820Y-115084717D01*
X151107283Y-115256180D01*
X151308903Y-115390898D01*
X151532931Y-115483693D01*
X151770757Y-115531000D01*
X152013243Y-115531000D01*
X152251069Y-115483693D01*
X152475097Y-115390898D01*
X152676717Y-115256180D01*
X152848180Y-115084717D01*
X152982898Y-114883097D01*
X153030228Y-114768832D01*
X153087843Y-114931252D01*
X153236822Y-115181355D01*
X153431731Y-115397588D01*
X153665080Y-115571641D01*
X153927901Y-115696825D01*
X154075110Y-115741476D01*
X154305000Y-115620155D01*
X154305000Y-114427000D01*
X154559000Y-114427000D01*
X154559000Y-115620155D01*
X154788890Y-115741476D01*
X154936099Y-115696825D01*
X155198920Y-115571641D01*
X155432269Y-115397588D01*
X155627178Y-115181355D01*
X155776157Y-114931252D01*
X155780148Y-114920000D01*
X158853528Y-114920000D01*
X158875365Y-115141715D01*
X158940037Y-115354909D01*
X159045058Y-115551390D01*
X159186393Y-115723607D01*
X159358610Y-115864942D01*
X159555091Y-115969963D01*
X159768285Y-116034635D01*
X159934442Y-116051000D01*
X160565558Y-116051000D01*
X160731715Y-116034635D01*
X160944909Y-115969963D01*
X161141390Y-115864942D01*
X161313607Y-115723607D01*
X161454942Y-115551390D01*
X161559963Y-115354909D01*
X161624635Y-115141715D01*
X161646472Y-114920000D01*
X161624635Y-114698285D01*
X161607934Y-114643229D01*
X166119000Y-114643229D01*
X166119000Y-114816771D01*
X166152856Y-114986978D01*
X166219268Y-115147310D01*
X166315682Y-115291605D01*
X166438395Y-115414318D01*
X166582690Y-115510732D01*
X166743022Y-115577144D01*
X166913229Y-115611000D01*
X167086771Y-115611000D01*
X167256978Y-115577144D01*
X167301732Y-115558606D01*
X168869000Y-115558606D01*
X168869000Y-115781394D01*
X168912464Y-115999900D01*
X168997721Y-116205729D01*
X169121495Y-116390970D01*
X169279030Y-116548505D01*
X169464271Y-116672279D01*
X169670100Y-116757536D01*
X169888606Y-116801000D01*
X170111394Y-116801000D01*
X170329900Y-116757536D01*
X170535729Y-116672279D01*
X170720970Y-116548505D01*
X170878505Y-116390970D01*
X171002279Y-116205729D01*
X171087536Y-115999900D01*
X171131000Y-115781394D01*
X171131000Y-115558606D01*
X171869000Y-115558606D01*
X171869000Y-115781394D01*
X171912464Y-115999900D01*
X171997721Y-116205729D01*
X172121495Y-116390970D01*
X172279030Y-116548505D01*
X172464271Y-116672279D01*
X172670100Y-116757536D01*
X172888606Y-116801000D01*
X173111394Y-116801000D01*
X173329900Y-116757536D01*
X173535729Y-116672279D01*
X173720970Y-116548505D01*
X173878505Y-116390970D01*
X174002279Y-116205729D01*
X174087536Y-115999900D01*
X174131000Y-115781394D01*
X174131000Y-115558606D01*
X174087536Y-115340100D01*
X174002279Y-115134271D01*
X173878505Y-114949030D01*
X173720970Y-114791495D01*
X173535729Y-114667721D01*
X173476600Y-114643229D01*
X175119000Y-114643229D01*
X175119000Y-114816771D01*
X175152856Y-114986978D01*
X175219268Y-115147310D01*
X175315682Y-115291605D01*
X175438395Y-115414318D01*
X175582690Y-115510732D01*
X175743022Y-115577144D01*
X175913229Y-115611000D01*
X176086771Y-115611000D01*
X176256978Y-115577144D01*
X176417310Y-115510732D01*
X176561605Y-115414318D01*
X176684318Y-115291605D01*
X176780732Y-115147310D01*
X176847144Y-114986978D01*
X176881000Y-114816771D01*
X176881000Y-114643229D01*
X176847144Y-114473022D01*
X176780732Y-114312690D01*
X176684318Y-114168395D01*
X176561605Y-114045682D01*
X176417310Y-113949268D01*
X176256978Y-113882856D01*
X176086771Y-113849000D01*
X175913229Y-113849000D01*
X175743022Y-113882856D01*
X175582690Y-113949268D01*
X175438395Y-114045682D01*
X175315682Y-114168395D01*
X175219268Y-114312690D01*
X175152856Y-114473022D01*
X175119000Y-114643229D01*
X173476600Y-114643229D01*
X173329900Y-114582464D01*
X173111394Y-114539000D01*
X172888606Y-114539000D01*
X172670100Y-114582464D01*
X172464271Y-114667721D01*
X172279030Y-114791495D01*
X172121495Y-114949030D01*
X171997721Y-115134271D01*
X171912464Y-115340100D01*
X171869000Y-115558606D01*
X171131000Y-115558606D01*
X171087536Y-115340100D01*
X171002279Y-115134271D01*
X170878505Y-114949030D01*
X170720970Y-114791495D01*
X170535729Y-114667721D01*
X170329900Y-114582464D01*
X170111394Y-114539000D01*
X169888606Y-114539000D01*
X169670100Y-114582464D01*
X169464271Y-114667721D01*
X169279030Y-114791495D01*
X169121495Y-114949030D01*
X168997721Y-115134271D01*
X168912464Y-115340100D01*
X168869000Y-115558606D01*
X167301732Y-115558606D01*
X167417310Y-115510732D01*
X167561605Y-115414318D01*
X167684318Y-115291605D01*
X167780732Y-115147310D01*
X167847144Y-114986978D01*
X167881000Y-114816771D01*
X167881000Y-114643229D01*
X167847144Y-114473022D01*
X167780732Y-114312690D01*
X167684318Y-114168395D01*
X167561605Y-114045682D01*
X167417310Y-113949268D01*
X167256978Y-113882856D01*
X167086771Y-113849000D01*
X166913229Y-113849000D01*
X166743022Y-113882856D01*
X166582690Y-113949268D01*
X166438395Y-114045682D01*
X166315682Y-114168395D01*
X166219268Y-114312690D01*
X166152856Y-114473022D01*
X166119000Y-114643229D01*
X161607934Y-114643229D01*
X161559963Y-114485091D01*
X161454942Y-114288610D01*
X161313607Y-114116393D01*
X161141390Y-113975058D01*
X160944909Y-113870037D01*
X160731715Y-113805365D01*
X160565558Y-113789000D01*
X159934442Y-113789000D01*
X159768285Y-113805365D01*
X159555091Y-113870037D01*
X159358610Y-113975058D01*
X159186393Y-114116393D01*
X159045058Y-114288610D01*
X158940037Y-114485091D01*
X158875365Y-114698285D01*
X158853528Y-114920000D01*
X155780148Y-114920000D01*
X155873481Y-114656891D01*
X155752814Y-114427000D01*
X154559000Y-114427000D01*
X154305000Y-114427000D01*
X154285000Y-114427000D01*
X154285000Y-114173000D01*
X154305000Y-114173000D01*
X154305000Y-114153000D01*
X154559000Y-114153000D01*
X154559000Y-114173000D01*
X155752814Y-114173000D01*
X155873481Y-113943109D01*
X155776157Y-113668748D01*
X155627178Y-113418645D01*
X155432269Y-113202412D01*
X155198920Y-113028359D01*
X154936099Y-112903175D01*
X154908846Y-112894909D01*
X155015097Y-112850898D01*
X155216717Y-112716180D01*
X155388180Y-112544717D01*
X155522898Y-112343097D01*
X155554832Y-112266000D01*
X158129372Y-112266000D01*
X158140473Y-112279527D01*
X158217521Y-112342759D01*
X158305425Y-112389745D01*
X158353116Y-112404212D01*
X158400806Y-112418678D01*
X158410694Y-112419652D01*
X158475146Y-112426000D01*
X158475153Y-112426000D01*
X158499999Y-112428447D01*
X158524845Y-112426000D01*
X158978036Y-112426000D01*
X159045058Y-112551390D01*
X159186393Y-112723607D01*
X159358610Y-112864942D01*
X159555091Y-112969963D01*
X159768285Y-113034635D01*
X159934442Y-113051000D01*
X160565558Y-113051000D01*
X160731715Y-113034635D01*
X160944909Y-112969963D01*
X161141390Y-112864942D01*
X161313607Y-112723607D01*
X161454942Y-112551390D01*
X161521964Y-112426000D01*
X175969000Y-112426000D01*
X175969000Y-112496922D01*
X175999013Y-112647809D01*
X176057887Y-112789942D01*
X176143358Y-112917859D01*
X176252141Y-113026642D01*
X176380058Y-113112113D01*
X176522191Y-113170987D01*
X176673078Y-113201000D01*
X176826922Y-113201000D01*
X176977809Y-113170987D01*
X177119942Y-113112113D01*
X177247859Y-113026642D01*
X177356642Y-112917859D01*
X177442113Y-112789942D01*
X177500987Y-112647809D01*
X177531000Y-112496922D01*
X177531000Y-112343078D01*
X177500987Y-112192191D01*
X177442113Y-112050058D01*
X177356642Y-111922141D01*
X177247859Y-111813358D01*
X177119942Y-111727887D01*
X176977809Y-111669013D01*
X176826922Y-111639000D01*
X176684591Y-111639000D01*
X176625376Y-111579785D01*
X176609527Y-111560473D01*
X176532479Y-111497241D01*
X176444575Y-111450255D01*
X176349193Y-111421322D01*
X176274854Y-111414000D01*
X176274846Y-111414000D01*
X176250000Y-111411553D01*
X176225154Y-111414000D01*
X161521964Y-111414000D01*
X161454942Y-111288610D01*
X161313607Y-111116393D01*
X161141390Y-110975058D01*
X160944909Y-110870037D01*
X160731715Y-110805365D01*
X160565558Y-110789000D01*
X159934442Y-110789000D01*
X159768285Y-110805365D01*
X159555091Y-110870037D01*
X159358610Y-110975058D01*
X159186393Y-111116393D01*
X159045058Y-111288610D01*
X158978036Y-111414000D01*
X158710628Y-111414000D01*
X158699527Y-111400473D01*
X158622479Y-111337241D01*
X158534575Y-111290255D01*
X158439193Y-111261322D01*
X158364854Y-111254000D01*
X158364846Y-111254000D01*
X158340000Y-111251553D01*
X158315154Y-111254000D01*
X155554832Y-111254000D01*
X155522898Y-111176903D01*
X155388180Y-110975283D01*
X155216717Y-110803820D01*
X155015097Y-110669102D01*
X154938000Y-110637168D01*
X154938000Y-108876854D01*
X154940448Y-108852000D01*
X154937290Y-108819933D01*
X157274000Y-108819933D01*
X157274000Y-109020067D01*
X157313044Y-109216356D01*
X157389632Y-109401256D01*
X157500821Y-109567662D01*
X157642338Y-109709179D01*
X157808744Y-109820368D01*
X157993644Y-109896956D01*
X158189933Y-109936000D01*
X158390067Y-109936000D01*
X158586356Y-109896956D01*
X158771256Y-109820368D01*
X158937662Y-109709179D01*
X159079179Y-109567662D01*
X159190368Y-109401256D01*
X159266956Y-109216356D01*
X159306000Y-109020067D01*
X159306000Y-108819933D01*
X159266956Y-108623644D01*
X159190368Y-108438744D01*
X159079179Y-108272338D01*
X158937662Y-108130821D01*
X158771256Y-108019632D01*
X158586356Y-107943044D01*
X158390067Y-107904000D01*
X158189933Y-107904000D01*
X157993644Y-107943044D01*
X157808744Y-108019632D01*
X157642338Y-108130821D01*
X157500821Y-108272338D01*
X157389632Y-108438744D01*
X157313044Y-108623644D01*
X157274000Y-108819933D01*
X154937290Y-108819933D01*
X154930678Y-108752807D01*
X154901745Y-108657425D01*
X154884003Y-108624233D01*
X154854759Y-108569521D01*
X154791527Y-108492473D01*
X154772220Y-108476628D01*
X153781000Y-107485409D01*
X153781000Y-107343078D01*
X153750987Y-107192191D01*
X153692511Y-107051019D01*
X157850135Y-107051019D01*
X157874981Y-107053466D01*
X157899827Y-107051019D01*
X157899835Y-107051019D01*
X157974174Y-107043697D01*
X158069556Y-107014764D01*
X158157460Y-106967778D01*
X158234508Y-106904546D01*
X158250357Y-106885234D01*
X162434592Y-102701000D01*
X162576922Y-102701000D01*
X162727809Y-102670987D01*
X162869942Y-102612113D01*
X162997859Y-102526642D01*
X163106642Y-102417859D01*
X163192113Y-102289942D01*
X163250987Y-102147809D01*
X163281000Y-101996922D01*
X163281000Y-101843078D01*
X163250987Y-101692191D01*
X163192113Y-101550058D01*
X163106642Y-101422141D01*
X162997859Y-101313358D01*
X162869942Y-101227887D01*
X162818091Y-101206410D01*
X162856642Y-101167859D01*
X162942113Y-101039942D01*
X163000987Y-100897809D01*
X163031000Y-100746922D01*
X163031000Y-100593078D01*
X163000987Y-100442191D01*
X162942113Y-100300058D01*
X162856642Y-100172141D01*
X162747859Y-100063358D01*
X162619942Y-99977887D01*
X162477809Y-99919013D01*
X162326922Y-99889000D01*
X162173078Y-99889000D01*
X162022191Y-99919013D01*
X161927255Y-99958337D01*
X162184592Y-99701000D01*
X162326922Y-99701000D01*
X162477809Y-99670987D01*
X162619942Y-99612113D01*
X162747859Y-99526642D01*
X162856642Y-99417859D01*
X162942113Y-99289942D01*
X163000987Y-99147809D01*
X163031000Y-98996922D01*
X163031000Y-98843078D01*
X163000987Y-98692191D01*
X162942113Y-98550058D01*
X162856642Y-98422141D01*
X162747859Y-98313358D01*
X162720384Y-98295000D01*
X162747859Y-98276642D01*
X162856642Y-98167859D01*
X162942113Y-98039942D01*
X163000987Y-97897809D01*
X163031000Y-97746922D01*
X163031000Y-97593078D01*
X163002739Y-97450999D01*
X165815408Y-97450999D01*
X166744000Y-98379592D01*
X166744001Y-102071498D01*
X166643358Y-102172141D01*
X166557887Y-102300058D01*
X166499013Y-102442191D01*
X166469000Y-102593078D01*
X166469000Y-102746922D01*
X166499013Y-102897809D01*
X166557887Y-103039942D01*
X166643358Y-103167859D01*
X166752141Y-103276642D01*
X166880058Y-103362113D01*
X167022191Y-103420987D01*
X167173078Y-103451000D01*
X167326922Y-103451000D01*
X167477809Y-103420987D01*
X167619942Y-103362113D01*
X167747859Y-103276642D01*
X167856642Y-103167859D01*
X167942113Y-103039942D01*
X168000987Y-102897809D01*
X168031000Y-102746922D01*
X168031000Y-102593078D01*
X168000987Y-102442191D01*
X167942113Y-102300058D01*
X167856642Y-102172141D01*
X167756000Y-102071499D01*
X167756000Y-98755182D01*
X170194000Y-101193182D01*
X170194001Y-104621498D01*
X170143358Y-104672141D01*
X170057887Y-104800058D01*
X169999013Y-104942191D01*
X169969000Y-105093078D01*
X169969000Y-105246922D01*
X169999013Y-105397809D01*
X170057887Y-105539942D01*
X170143358Y-105667859D01*
X170252141Y-105776642D01*
X170380058Y-105862113D01*
X170522191Y-105920987D01*
X170673078Y-105951000D01*
X170826922Y-105951000D01*
X170977809Y-105920987D01*
X171109108Y-105866600D01*
X171143358Y-105917859D01*
X171252141Y-106026642D01*
X171380058Y-106112113D01*
X171522191Y-106170987D01*
X171673078Y-106201000D01*
X171826922Y-106201000D01*
X171977809Y-106170987D01*
X172026061Y-106151000D01*
X176151499Y-106151000D01*
X176252141Y-106251642D01*
X176380058Y-106337113D01*
X176522191Y-106395987D01*
X176673078Y-106426000D01*
X176826922Y-106426000D01*
X176977809Y-106395987D01*
X177119942Y-106337113D01*
X177247859Y-106251642D01*
X177356642Y-106142859D01*
X177442113Y-106014942D01*
X177500987Y-105872809D01*
X177531000Y-105721922D01*
X177531000Y-105568078D01*
X177500987Y-105417191D01*
X177442113Y-105275058D01*
X177356642Y-105147141D01*
X177247859Y-105038358D01*
X177119942Y-104952887D01*
X176977809Y-104894013D01*
X176826922Y-104864000D01*
X176673078Y-104864000D01*
X176522191Y-104894013D01*
X176380058Y-104952887D01*
X176252141Y-105038358D01*
X176151499Y-105139000D01*
X172478954Y-105139000D01*
X172442113Y-105050058D01*
X172356642Y-104922141D01*
X172247859Y-104813358D01*
X172119942Y-104727887D01*
X171977809Y-104669013D01*
X171826922Y-104639000D01*
X171673078Y-104639000D01*
X171522191Y-104669013D01*
X171390892Y-104723400D01*
X171356642Y-104672141D01*
X171306000Y-104621499D01*
X171306000Y-100990184D01*
X171308689Y-100962880D01*
X171306000Y-100935575D01*
X171306000Y-100935568D01*
X171297955Y-100853885D01*
X171266162Y-100749079D01*
X171214534Y-100652488D01*
X171145053Y-100567827D01*
X171123838Y-100550416D01*
X166524421Y-95951000D01*
X166576922Y-95951000D01*
X166727809Y-95920987D01*
X166869942Y-95862113D01*
X166997859Y-95776642D01*
X167106642Y-95667859D01*
X167192113Y-95539942D01*
X167250987Y-95397809D01*
X167281000Y-95246922D01*
X167281000Y-95093078D01*
X167250987Y-94942191D01*
X167192113Y-94800058D01*
X167106642Y-94672141D01*
X167050414Y-94615913D01*
X167119942Y-94587113D01*
X167247859Y-94501642D01*
X167348501Y-94401000D01*
X172000154Y-94401000D01*
X172025000Y-94403447D01*
X172049846Y-94401000D01*
X172049854Y-94401000D01*
X172124193Y-94393678D01*
X172219575Y-94364745D01*
X172307479Y-94317759D01*
X172384527Y-94254527D01*
X172400376Y-94235215D01*
X177288338Y-89347254D01*
X177249013Y-89442191D01*
X177219000Y-89593078D01*
X177219000Y-89746922D01*
X177249013Y-89897809D01*
X177307887Y-90039942D01*
X177393358Y-90167859D01*
X177502141Y-90276642D01*
X177630058Y-90362113D01*
X177772191Y-90420987D01*
X177923078Y-90451000D01*
X178065409Y-90451000D01*
X178624628Y-91010220D01*
X178640473Y-91029527D01*
X178717521Y-91092759D01*
X178798394Y-91135987D01*
X178805425Y-91139745D01*
X178900807Y-91168678D01*
X179000000Y-91178448D01*
X179024854Y-91176000D01*
X180249647Y-91176000D01*
X180346509Y-91357216D01*
X180500340Y-91544660D01*
X180687784Y-91698491D01*
X180901637Y-91812798D01*
X181133682Y-91883188D01*
X181314528Y-91901000D01*
X181685472Y-91901000D01*
X181866318Y-91883188D01*
X182098363Y-91812798D01*
X182312216Y-91698491D01*
X182499660Y-91544660D01*
X182653491Y-91357216D01*
X182767798Y-91143363D01*
X182838188Y-90911318D01*
X182861956Y-90670000D01*
X182838188Y-90428682D01*
X182767798Y-90196637D01*
X182653491Y-89982784D01*
X182499660Y-89795340D01*
X182312216Y-89641509D01*
X182098363Y-89527202D01*
X181866318Y-89456812D01*
X181685472Y-89439000D01*
X181314528Y-89439000D01*
X181133682Y-89456812D01*
X180901637Y-89527202D01*
X180687784Y-89641509D01*
X180500340Y-89795340D01*
X180346509Y-89982784D01*
X180249647Y-90164000D01*
X179209592Y-90164000D01*
X178781000Y-89735409D01*
X178781000Y-89593078D01*
X178750987Y-89442191D01*
X178692113Y-89300058D01*
X178606642Y-89172141D01*
X178497859Y-89063358D01*
X178369942Y-88977887D01*
X178227809Y-88919013D01*
X178076922Y-88889000D01*
X177923078Y-88889000D01*
X177772191Y-88919013D01*
X177677254Y-88958338D01*
X178465592Y-88170000D01*
X180138044Y-88170000D01*
X180161812Y-88411318D01*
X180232202Y-88643363D01*
X180346509Y-88857216D01*
X180500340Y-89044660D01*
X180687784Y-89198491D01*
X180901637Y-89312798D01*
X181133682Y-89383188D01*
X181314528Y-89401000D01*
X181685472Y-89401000D01*
X181866318Y-89383188D01*
X182098363Y-89312798D01*
X182312216Y-89198491D01*
X182499660Y-89044660D01*
X182653491Y-88857216D01*
X182767798Y-88643363D01*
X182838188Y-88411318D01*
X182861956Y-88170000D01*
X182838188Y-87928682D01*
X182767798Y-87696637D01*
X182653491Y-87482784D01*
X182499660Y-87295340D01*
X182312216Y-87141509D01*
X182098363Y-87027202D01*
X181866318Y-86956812D01*
X181685472Y-86939000D01*
X181314528Y-86939000D01*
X181133682Y-86956812D01*
X180901637Y-87027202D01*
X180687784Y-87141509D01*
X180500340Y-87295340D01*
X180346509Y-87482784D01*
X180232202Y-87696637D01*
X180161812Y-87928682D01*
X180138044Y-88170000D01*
X178465592Y-88170000D01*
X180322776Y-86312816D01*
X180346509Y-86357216D01*
X180500340Y-86544660D01*
X180687784Y-86698491D01*
X180901637Y-86812798D01*
X181133682Y-86883188D01*
X181314528Y-86901000D01*
X181685472Y-86901000D01*
X181866318Y-86883188D01*
X182098363Y-86812798D01*
X182312216Y-86698491D01*
X182499660Y-86544660D01*
X182653491Y-86357216D01*
X182767798Y-86143363D01*
X182838188Y-85911318D01*
X182861956Y-85670000D01*
X182838188Y-85428682D01*
X182767798Y-85196637D01*
X182653491Y-84982784D01*
X182499660Y-84795340D01*
X182312216Y-84641509D01*
X182153110Y-84556465D01*
X182402570Y-84435053D01*
X182634429Y-84259049D01*
X182827496Y-84041193D01*
X182974352Y-83789858D01*
X183066476Y-83526890D01*
X182945155Y-83297000D01*
X181627000Y-83297000D01*
X181627000Y-83317000D01*
X181373000Y-83317000D01*
X181373000Y-83297000D01*
X180054845Y-83297000D01*
X179933524Y-83526890D01*
X180025648Y-83789858D01*
X180172504Y-84041193D01*
X180365571Y-84259049D01*
X180597430Y-84435053D01*
X180846890Y-84556465D01*
X180687784Y-84641509D01*
X180500340Y-84795340D01*
X180346509Y-84982784D01*
X180250908Y-85161641D01*
X180250000Y-85161552D01*
X180225146Y-85164000D01*
X180150807Y-85171322D01*
X180055425Y-85200255D01*
X179967521Y-85247241D01*
X179890473Y-85310473D01*
X179874628Y-85329780D01*
X171815409Y-93389000D01*
X167348501Y-93389000D01*
X167247859Y-93288358D01*
X167119942Y-93202887D01*
X167095024Y-93192566D01*
X167361590Y-92926000D01*
X171225154Y-92926000D01*
X171250000Y-92928447D01*
X171274846Y-92926000D01*
X171274854Y-92926000D01*
X171349193Y-92918678D01*
X171444575Y-92889745D01*
X171532479Y-92842759D01*
X171609527Y-92779527D01*
X171625376Y-92760215D01*
X174090220Y-90295372D01*
X174109527Y-90279527D01*
X174172759Y-90202479D01*
X174219745Y-90114575D01*
X174248678Y-90019193D01*
X174256000Y-89944854D01*
X174256000Y-89944853D01*
X174258448Y-89920000D01*
X174256000Y-89895146D01*
X174256000Y-84379591D01*
X174934592Y-83701000D01*
X175076922Y-83701000D01*
X175227809Y-83670987D01*
X175369942Y-83612113D01*
X175497859Y-83526642D01*
X175606642Y-83417859D01*
X175692113Y-83289942D01*
X175750987Y-83147809D01*
X175781000Y-82996922D01*
X175781000Y-82843078D01*
X175775040Y-82813110D01*
X179933524Y-82813110D01*
X180054845Y-83043000D01*
X181373000Y-83043000D01*
X181373000Y-83023000D01*
X181627000Y-83023000D01*
X181627000Y-83043000D01*
X182945155Y-83043000D01*
X183066476Y-82813110D01*
X182974352Y-82550142D01*
X182827496Y-82298807D01*
X182634429Y-82080951D01*
X182402570Y-81904947D01*
X182363740Y-81886048D01*
X182467179Y-81854671D01*
X182576589Y-81796190D01*
X182672488Y-81717488D01*
X182751190Y-81621589D01*
X182809671Y-81512179D01*
X182845683Y-81393462D01*
X182857843Y-81270000D01*
X182857843Y-80070000D01*
X182845683Y-79946538D01*
X182809671Y-79827821D01*
X182751190Y-79718411D01*
X182672488Y-79622512D01*
X182576589Y-79543810D01*
X182467179Y-79485329D01*
X182348462Y-79449317D01*
X182225000Y-79437157D01*
X180775000Y-79437157D01*
X180651538Y-79449317D01*
X180532821Y-79485329D01*
X180423411Y-79543810D01*
X180327512Y-79622512D01*
X180248810Y-79718411D01*
X180190329Y-79827821D01*
X180154317Y-79946538D01*
X180142157Y-80070000D01*
X180142157Y-81270000D01*
X180154317Y-81393462D01*
X180190329Y-81512179D01*
X180248810Y-81621589D01*
X180327512Y-81717488D01*
X180423411Y-81796190D01*
X180532821Y-81854671D01*
X180636260Y-81886048D01*
X180597430Y-81904947D01*
X180365571Y-82080951D01*
X180172504Y-82298807D01*
X180025648Y-82550142D01*
X179933524Y-82813110D01*
X175775040Y-82813110D01*
X175750987Y-82692191D01*
X175692113Y-82550058D01*
X175606642Y-82422141D01*
X175497859Y-82313358D01*
X175369942Y-82227887D01*
X175227809Y-82169013D01*
X175076922Y-82139000D01*
X174923078Y-82139000D01*
X174772191Y-82169013D01*
X174630058Y-82227887D01*
X174502141Y-82313358D01*
X174393358Y-82422141D01*
X174307887Y-82550058D01*
X174249013Y-82692191D01*
X174219000Y-82843078D01*
X174219000Y-82985408D01*
X173409780Y-83794629D01*
X173390474Y-83810473D01*
X173327242Y-83887521D01*
X173317556Y-83905642D01*
X173280255Y-83975426D01*
X173251322Y-84070808D01*
X173241553Y-84170000D01*
X173244001Y-84194856D01*
X173244000Y-89710408D01*
X171040409Y-91914000D01*
X167176843Y-91914000D01*
X167151997Y-91911553D01*
X167127151Y-91914000D01*
X167127144Y-91914000D01*
X167062692Y-91920348D01*
X167052804Y-91921322D01*
X167030605Y-91928056D01*
X166957423Y-91950255D01*
X166869519Y-91997241D01*
X166792471Y-92060473D01*
X166776627Y-92079779D01*
X165684779Y-93171628D01*
X165665473Y-93187472D01*
X165602241Y-93264520D01*
X165599839Y-93269014D01*
X165555254Y-93352425D01*
X165526321Y-93447807D01*
X165516552Y-93546999D01*
X165519000Y-93571855D01*
X165518999Y-94670152D01*
X165516552Y-94694999D01*
X165518999Y-94719845D01*
X165518999Y-94719852D01*
X165526321Y-94794191D01*
X165555254Y-94889573D01*
X165602240Y-94977478D01*
X165665472Y-95054526D01*
X165684784Y-95070375D01*
X165719000Y-95104591D01*
X165719000Y-95145579D01*
X163831001Y-93257580D01*
X163831001Y-88325295D01*
X163833689Y-88297998D01*
X163831001Y-88270701D01*
X163831001Y-88270687D01*
X163822956Y-88189004D01*
X163791163Y-88084198D01*
X163739535Y-87987607D01*
X163706193Y-87946980D01*
X163687464Y-87924159D01*
X163687461Y-87924156D01*
X163670054Y-87902946D01*
X163648844Y-87885539D01*
X163034470Y-87271166D01*
X163017054Y-87249946D01*
X162932393Y-87180465D01*
X162835802Y-87128837D01*
X162730996Y-87097044D01*
X162649313Y-87088999D01*
X162649305Y-87088999D01*
X162622001Y-87086310D01*
X162594697Y-87088999D01*
X160202267Y-87088999D01*
X160174962Y-87086310D01*
X160147657Y-87088999D01*
X160147651Y-87088999D01*
X160077003Y-87095957D01*
X160065967Y-87097044D01*
X160034174Y-87106689D01*
X159961162Y-87128837D01*
X159864571Y-87180465D01*
X159834108Y-87205466D01*
X159801123Y-87232536D01*
X159801120Y-87232539D01*
X159779910Y-87249946D01*
X159762503Y-87271156D01*
X156344680Y-90688981D01*
X137222825Y-90688981D01*
X137195520Y-90686292D01*
X137168215Y-90688981D01*
X137168208Y-90688981D01*
X137086525Y-90697026D01*
X136981718Y-90728819D01*
X136885128Y-90780447D01*
X136821681Y-90832517D01*
X136821677Y-90832521D01*
X136800467Y-90849928D01*
X136783060Y-90871138D01*
X132851162Y-94803038D01*
X132829947Y-94820449D01*
X132760466Y-94905110D01*
X132740646Y-94942191D01*
X132708838Y-95001701D01*
X132677044Y-95106508D01*
X132666310Y-95215502D01*
X129506000Y-95215502D01*
X129506000Y-89093078D01*
X149219000Y-89093078D01*
X149219000Y-89246922D01*
X149249013Y-89397809D01*
X149307887Y-89539942D01*
X149393358Y-89667859D01*
X149502141Y-89776642D01*
X149630058Y-89862113D01*
X149772191Y-89920987D01*
X149923078Y-89951000D01*
X150076922Y-89951000D01*
X150227809Y-89920987D01*
X150369942Y-89862113D01*
X150497859Y-89776642D01*
X150598501Y-89676000D01*
X156225154Y-89676000D01*
X156250000Y-89678447D01*
X156274846Y-89676000D01*
X156274854Y-89676000D01*
X156289929Y-89674515D01*
X156423078Y-89701000D01*
X156576922Y-89701000D01*
X156727809Y-89670987D01*
X156869942Y-89612113D01*
X156997859Y-89526642D01*
X157106642Y-89417859D01*
X157192113Y-89289942D01*
X157250987Y-89147809D01*
X157281000Y-88996922D01*
X157281000Y-88843078D01*
X157250987Y-88692191D01*
X157192113Y-88550058D01*
X157106642Y-88422141D01*
X156997859Y-88313358D01*
X156869942Y-88227887D01*
X156727809Y-88169013D01*
X156576922Y-88139000D01*
X156423078Y-88139000D01*
X156272191Y-88169013D01*
X156130058Y-88227887D01*
X156002141Y-88313358D01*
X155893358Y-88422141D01*
X155807887Y-88550058D01*
X155760690Y-88664000D01*
X150598501Y-88664000D01*
X150497859Y-88563358D01*
X150369942Y-88477887D01*
X150227809Y-88419013D01*
X150076922Y-88389000D01*
X149923078Y-88389000D01*
X149772191Y-88419013D01*
X149630058Y-88477887D01*
X149502141Y-88563358D01*
X149393358Y-88672141D01*
X149307887Y-88800058D01*
X149249013Y-88942191D01*
X149219000Y-89093078D01*
X129506000Y-89093078D01*
X129506000Y-87879591D01*
X130459582Y-86926010D01*
X133975144Y-86926010D01*
X133999990Y-86928457D01*
X134024836Y-86926010D01*
X134024844Y-86926010D01*
X134099183Y-86918688D01*
X134194565Y-86889755D01*
X134282469Y-86842769D01*
X134359517Y-86779537D01*
X134375366Y-86760225D01*
X135340220Y-85795372D01*
X135359527Y-85779527D01*
X135422759Y-85702479D01*
X135469745Y-85614575D01*
X135498678Y-85519193D01*
X135506000Y-85444854D01*
X135506000Y-85444853D01*
X135508448Y-85420000D01*
X135506000Y-85395146D01*
X135506000Y-82586711D01*
X135916712Y-82176000D01*
X143225154Y-82176000D01*
X143250000Y-82178447D01*
X143274846Y-82176000D01*
X143274854Y-82176000D01*
X143349193Y-82168678D01*
X143444575Y-82139745D01*
X143532479Y-82092759D01*
X143609527Y-82029527D01*
X143625376Y-82010215D01*
X143840215Y-81795376D01*
X143859527Y-81779527D01*
X143922759Y-81702479D01*
X143969745Y-81614575D01*
X143992309Y-81540190D01*
X143998678Y-81519194D01*
X143998774Y-81518215D01*
X144187216Y-81417491D01*
X144374660Y-81263660D01*
X144528491Y-81076215D01*
X144613535Y-80917110D01*
X144734947Y-81166570D01*
X144910951Y-81398429D01*
X145128807Y-81591496D01*
X145380142Y-81738352D01*
X145643110Y-81830476D01*
X145873000Y-81709155D01*
X145873000Y-80391000D01*
X146127000Y-80391000D01*
X146127000Y-81709155D01*
X146356890Y-81830476D01*
X146619858Y-81738352D01*
X146871193Y-81591496D01*
X147089049Y-81398429D01*
X147265053Y-81166570D01*
X147392442Y-80904830D01*
X147466320Y-80623267D01*
X147326165Y-80391000D01*
X146127000Y-80391000D01*
X145873000Y-80391000D01*
X145853000Y-80391000D01*
X145853000Y-80137000D01*
X145873000Y-80137000D01*
X145873000Y-78818845D01*
X146127000Y-78818845D01*
X146127000Y-80137000D01*
X147326165Y-80137000D01*
X147466320Y-79904733D01*
X147392442Y-79623170D01*
X147339309Y-79514000D01*
X150767157Y-79514000D01*
X150767157Y-81014000D01*
X150779317Y-81137462D01*
X150815329Y-81256179D01*
X150873810Y-81365589D01*
X150952512Y-81461488D01*
X151048411Y-81540190D01*
X151157821Y-81598671D01*
X151276538Y-81634683D01*
X151400000Y-81646843D01*
X152600000Y-81646843D01*
X152723462Y-81634683D01*
X152842179Y-81598671D01*
X152951589Y-81540190D01*
X153047488Y-81461488D01*
X153126190Y-81365589D01*
X153184671Y-81256179D01*
X153214670Y-81157284D01*
X153220975Y-81170812D01*
X153393198Y-81405795D01*
X153607954Y-81602664D01*
X153856991Y-81753854D01*
X154130739Y-81853554D01*
X154143110Y-81855476D01*
X154373000Y-81734155D01*
X154373000Y-80391000D01*
X154627000Y-80391000D01*
X154627000Y-81734155D01*
X154856890Y-81855476D01*
X154869261Y-81853554D01*
X155143009Y-81753854D01*
X155392046Y-81602664D01*
X155606802Y-81405795D01*
X155779025Y-81170812D01*
X155902096Y-80906745D01*
X155971285Y-80623742D01*
X155968969Y-80620000D01*
X161367157Y-80620000D01*
X161367157Y-81170000D01*
X161374513Y-81244689D01*
X161389775Y-81295000D01*
X161374513Y-81345311D01*
X161367157Y-81420000D01*
X161367157Y-82420000D01*
X161374513Y-82494689D01*
X161389775Y-82545000D01*
X161374513Y-82595311D01*
X161367157Y-82670000D01*
X161367157Y-83220000D01*
X161369565Y-83244450D01*
X161369565Y-83269009D01*
X161376921Y-83343698D01*
X161396043Y-83439831D01*
X161417828Y-83511648D01*
X161455337Y-83602204D01*
X161490717Y-83668394D01*
X161545173Y-83749893D01*
X161592784Y-83807908D01*
X161662092Y-83877216D01*
X161720107Y-83924827D01*
X161801606Y-83979283D01*
X161867796Y-84014663D01*
X161958352Y-84052172D01*
X162030169Y-84073957D01*
X162126302Y-84093079D01*
X162200991Y-84100435D01*
X162225550Y-84100435D01*
X162250000Y-84102843D01*
X162750000Y-84102843D01*
X162774450Y-84100435D01*
X162799009Y-84100435D01*
X162873698Y-84093079D01*
X162969831Y-84073957D01*
X163041648Y-84052172D01*
X163132204Y-84014663D01*
X163198394Y-83979283D01*
X163279893Y-83924827D01*
X163337908Y-83877216D01*
X163407216Y-83807908D01*
X163454827Y-83749893D01*
X163509283Y-83668394D01*
X163544663Y-83602204D01*
X163582172Y-83511648D01*
X163603957Y-83439831D01*
X163623079Y-83343698D01*
X163630435Y-83269009D01*
X163630435Y-83244450D01*
X163632843Y-83220000D01*
X163632843Y-82670000D01*
X163625487Y-82595311D01*
X163610225Y-82545000D01*
X163625487Y-82494689D01*
X163632843Y-82420000D01*
X163632843Y-81420000D01*
X163625487Y-81345311D01*
X163610225Y-81295000D01*
X163625487Y-81244689D01*
X163632843Y-81170000D01*
X163632843Y-80620000D01*
X163630435Y-80595550D01*
X163630435Y-80570991D01*
X163623079Y-80496302D01*
X163603957Y-80400169D01*
X163582172Y-80328352D01*
X163544663Y-80237796D01*
X163509283Y-80171606D01*
X163454827Y-80090107D01*
X163407216Y-80032092D01*
X163337908Y-79962784D01*
X163279893Y-79915173D01*
X163198394Y-79860717D01*
X163132204Y-79825337D01*
X163041648Y-79787828D01*
X162969831Y-79766043D01*
X162873698Y-79746921D01*
X162799009Y-79739565D01*
X162774450Y-79739565D01*
X162750000Y-79737157D01*
X162250000Y-79737157D01*
X162225550Y-79739565D01*
X162200991Y-79739565D01*
X162126302Y-79746921D01*
X162030169Y-79766043D01*
X161958352Y-79787828D01*
X161867796Y-79825337D01*
X161801606Y-79860717D01*
X161720107Y-79915173D01*
X161662092Y-79962784D01*
X161592784Y-80032092D01*
X161545173Y-80090107D01*
X161490717Y-80171606D01*
X161455337Y-80237796D01*
X161417828Y-80328352D01*
X161396043Y-80400169D01*
X161376921Y-80496302D01*
X161369565Y-80570991D01*
X161369565Y-80595550D01*
X161367157Y-80620000D01*
X155968969Y-80620000D01*
X155827232Y-80391000D01*
X154627000Y-80391000D01*
X154373000Y-80391000D01*
X154353000Y-80391000D01*
X154353000Y-80137000D01*
X154373000Y-80137000D01*
X154373000Y-78793845D01*
X154627000Y-78793845D01*
X154627000Y-80137000D01*
X155827232Y-80137000D01*
X155971285Y-79904258D01*
X155902096Y-79621255D01*
X155779025Y-79357188D01*
X155606802Y-79122205D01*
X155392046Y-78925336D01*
X155143009Y-78774146D01*
X154869261Y-78674446D01*
X154856890Y-78672524D01*
X154627000Y-78793845D01*
X154373000Y-78793845D01*
X154143110Y-78672524D01*
X154130739Y-78674446D01*
X153856991Y-78774146D01*
X153607954Y-78925336D01*
X153393198Y-79122205D01*
X153220975Y-79357188D01*
X153214670Y-79370716D01*
X153184671Y-79271821D01*
X153126190Y-79162411D01*
X153047488Y-79066512D01*
X152951589Y-78987810D01*
X152842179Y-78929329D01*
X152723462Y-78893317D01*
X152600000Y-78881157D01*
X151400000Y-78881157D01*
X151276538Y-78893317D01*
X151157821Y-78929329D01*
X151048411Y-78987810D01*
X150952512Y-79066512D01*
X150873810Y-79162411D01*
X150815329Y-79271821D01*
X150779317Y-79390538D01*
X150767157Y-79514000D01*
X147339309Y-79514000D01*
X147265053Y-79361430D01*
X147089049Y-79129571D01*
X146871193Y-78936504D01*
X146619858Y-78789648D01*
X146356890Y-78697524D01*
X146127000Y-78818845D01*
X145873000Y-78818845D01*
X145643110Y-78697524D01*
X145380142Y-78789648D01*
X145128807Y-78936504D01*
X144910951Y-79129571D01*
X144734947Y-79361430D01*
X144613535Y-79610890D01*
X144528491Y-79451784D01*
X144374660Y-79264340D01*
X144187215Y-79110509D01*
X143973362Y-78996202D01*
X143741317Y-78925812D01*
X143500000Y-78902044D01*
X143258682Y-78925812D01*
X143026637Y-78996202D01*
X142812784Y-79110509D01*
X142625340Y-79264340D01*
X142471509Y-79451785D01*
X142386465Y-79610890D01*
X142265053Y-79361430D01*
X142089049Y-79129571D01*
X141871193Y-78936504D01*
X141619858Y-78789648D01*
X141356890Y-78697524D01*
X141127000Y-78818845D01*
X141127000Y-80137000D01*
X141147000Y-80137000D01*
X141147000Y-80391000D01*
X141127000Y-80391000D01*
X141127000Y-80411000D01*
X140873000Y-80411000D01*
X140873000Y-80391000D01*
X140853000Y-80391000D01*
X140853000Y-80137000D01*
X140873000Y-80137000D01*
X140873000Y-78818845D01*
X140643110Y-78697524D01*
X140380142Y-78789648D01*
X140128807Y-78936504D01*
X139910951Y-79129571D01*
X139734947Y-79361430D01*
X139716048Y-79400260D01*
X139684671Y-79296821D01*
X139626190Y-79187411D01*
X139547488Y-79091512D01*
X139451589Y-79012810D01*
X139342179Y-78954329D01*
X139223462Y-78918317D01*
X139100000Y-78906157D01*
X137900000Y-78906157D01*
X137776538Y-78918317D01*
X137657821Y-78954329D01*
X137548411Y-79012810D01*
X137452512Y-79091512D01*
X137373810Y-79187411D01*
X137315329Y-79296821D01*
X137279317Y-79415538D01*
X137267157Y-79539000D01*
X137267157Y-79708000D01*
X136433304Y-79708000D01*
X136405999Y-79705311D01*
X136378695Y-79708000D01*
X136378688Y-79708000D01*
X136297005Y-79716045D01*
X136192199Y-79747838D01*
X136095608Y-79799466D01*
X136010947Y-79868947D01*
X135993535Y-79890163D01*
X134331159Y-81552540D01*
X134391000Y-81251698D01*
X134391000Y-80546302D01*
X134253384Y-79854461D01*
X133983441Y-79202760D01*
X133591544Y-78616246D01*
X133092754Y-78117456D01*
X132506240Y-77725559D01*
X132256226Y-77622000D01*
X164873000Y-77622000D01*
X164873000Y-85420000D01*
G37*
%TD.AperFunction*%
D26*
X139586271Y-110329862D02*
X139548890Y-110318524D01*
X139319000Y-110439845D01*
X139319000Y-111633000D01*
X139339000Y-111633000D01*
X139339000Y-111887000D01*
X139319000Y-111887000D01*
X139319000Y-111907000D01*
X139065000Y-111907000D01*
X139065000Y-111887000D01*
X139045000Y-111887000D01*
X139045000Y-111633000D01*
X139065000Y-111633000D01*
X139065000Y-110439845D01*
X138835110Y-110318524D01*
X138687901Y-110363175D01*
X138425080Y-110488359D01*
X138333001Y-110557040D01*
X138333001Y-110271846D01*
X138335448Y-110247000D01*
X138333001Y-110222154D01*
X138333001Y-110222147D01*
X138325679Y-110147808D01*
X138296746Y-110052426D01*
X138249760Y-109964522D01*
X138186528Y-109887474D01*
X138167221Y-109871629D01*
X137848583Y-109552991D01*
X138809400Y-109552991D01*
X139586271Y-110329862D01*
%TA.AperFunction,Conductor*%
D27*
G36*
X139586271Y-110329862D02*
G01*
X139548890Y-110318524D01*
X139319000Y-110439845D01*
X139319000Y-111633000D01*
X139339000Y-111633000D01*
X139339000Y-111887000D01*
X139319000Y-111887000D01*
X139319000Y-111907000D01*
X139065000Y-111907000D01*
X139065000Y-111887000D01*
X139045000Y-111887000D01*
X139045000Y-111633000D01*
X139065000Y-111633000D01*
X139065000Y-110439845D01*
X138835110Y-110318524D01*
X138687901Y-110363175D01*
X138425080Y-110488359D01*
X138333001Y-110557040D01*
X138333001Y-110271846D01*
X138335448Y-110247000D01*
X138333001Y-110222154D01*
X138333001Y-110222147D01*
X138325679Y-110147808D01*
X138296746Y-110052426D01*
X138249760Y-109964522D01*
X138186528Y-109887474D01*
X138167221Y-109871629D01*
X137848583Y-109552991D01*
X138809400Y-109552991D01*
X139586271Y-110329862D01*
G37*
%TD.AperFunction*%
D26*
X149867848Y-97003440D02*
X149867848Y-97098074D01*
X149897861Y-97248961D01*
X149956735Y-97391094D01*
X150042206Y-97519011D01*
X150150989Y-97627794D01*
X150278906Y-97713265D01*
X150421039Y-97772139D01*
X150571926Y-97802152D01*
X150725770Y-97802152D01*
X150876657Y-97772139D01*
X151018790Y-97713265D01*
X151146707Y-97627794D01*
X151255490Y-97519011D01*
X151335972Y-97398561D01*
X152494000Y-98556590D01*
X152494000Y-98571499D01*
X152393358Y-98672141D01*
X152307887Y-98800058D01*
X152249013Y-98942191D01*
X152219000Y-99093078D01*
X152219000Y-99246922D01*
X152249013Y-99397809D01*
X152307887Y-99539942D01*
X152393358Y-99667859D01*
X152502141Y-99776642D01*
X152630058Y-99862113D01*
X152654976Y-99872434D01*
X151863411Y-100664000D01*
X148348501Y-100664000D01*
X148247859Y-100563358D01*
X148119942Y-100477887D01*
X147977809Y-100419013D01*
X147826922Y-100389000D01*
X147673078Y-100389000D01*
X147522191Y-100419013D01*
X147380058Y-100477887D01*
X147252141Y-100563358D01*
X147143358Y-100672141D01*
X147057887Y-100800058D01*
X146999013Y-100942191D01*
X146969000Y-101093078D01*
X146969000Y-101246922D01*
X146999013Y-101397809D01*
X147057887Y-101539942D01*
X147140780Y-101664000D01*
X146281000Y-101664000D01*
X146281000Y-101593078D01*
X146250987Y-101442191D01*
X146192113Y-101300058D01*
X146106642Y-101172141D01*
X145997859Y-101063358D01*
X145869942Y-100977887D01*
X145727809Y-100919013D01*
X145576922Y-100889000D01*
X145423078Y-100889000D01*
X145272191Y-100919013D01*
X145130058Y-100977887D01*
X145002141Y-101063358D01*
X144893358Y-101172141D01*
X144807887Y-101300058D01*
X144749013Y-101442191D01*
X144719000Y-101593078D01*
X144719000Y-101746922D01*
X144749013Y-101897809D01*
X144764007Y-101934007D01*
X144727809Y-101919013D01*
X144576922Y-101889000D01*
X144423078Y-101889000D01*
X144272191Y-101919013D01*
X144130058Y-101977887D01*
X144002141Y-102063358D01*
X143893358Y-102172141D01*
X143807887Y-102300058D01*
X143749013Y-102442191D01*
X143719000Y-102593078D01*
X143719000Y-102746922D01*
X143749013Y-102897809D01*
X143807887Y-103039942D01*
X143893358Y-103167859D01*
X144002141Y-103276642D01*
X144053400Y-103310892D01*
X143999013Y-103442191D01*
X143969000Y-103593078D01*
X143969000Y-103746922D01*
X143999013Y-103897809D01*
X144005720Y-103914000D01*
X142709592Y-103914000D01*
X141531000Y-102735409D01*
X141531000Y-102593078D01*
X141500987Y-102442191D01*
X141442113Y-102300058D01*
X141356642Y-102172141D01*
X141247859Y-102063358D01*
X141196600Y-102029108D01*
X141250987Y-101897809D01*
X141281000Y-101746922D01*
X141281000Y-101593078D01*
X141250987Y-101442191D01*
X141192113Y-101300058D01*
X141106642Y-101172141D01*
X140997859Y-101063358D01*
X140869942Y-100977887D01*
X140805032Y-100951000D01*
X140826922Y-100951000D01*
X140977809Y-100920987D01*
X141119942Y-100862113D01*
X141247859Y-100776642D01*
X141356642Y-100667859D01*
X141442113Y-100539942D01*
X141500987Y-100397809D01*
X141531000Y-100246922D01*
X141531000Y-100093078D01*
X141500987Y-99942191D01*
X141442113Y-99800058D01*
X141356642Y-99672141D01*
X141247859Y-99563358D01*
X141119942Y-99477887D01*
X140977809Y-99419013D01*
X140826922Y-99389000D01*
X140673078Y-99389000D01*
X140531000Y-99417261D01*
X140531000Y-99343078D01*
X140500987Y-99192191D01*
X140442113Y-99050058D01*
X140356642Y-98922141D01*
X140247859Y-98813358D01*
X140119942Y-98727887D01*
X140003743Y-98679755D01*
X142007499Y-96676000D01*
X143151499Y-96676000D01*
X143252141Y-96776642D01*
X143380058Y-96862113D01*
X143522191Y-96920987D01*
X143673078Y-96951000D01*
X143826922Y-96951000D01*
X143977809Y-96920987D01*
X144119942Y-96862113D01*
X144247859Y-96776642D01*
X144356642Y-96667859D01*
X144442113Y-96539942D01*
X144500987Y-96397809D01*
X144531000Y-96246922D01*
X144531000Y-96093078D01*
X144502739Y-95950999D01*
X148815408Y-95950999D01*
X149867848Y-97003440D01*
%TA.AperFunction,Conductor*%
D27*
G36*
X149867848Y-97003440D02*
G01*
X149867848Y-97098074D01*
X149897861Y-97248961D01*
X149956735Y-97391094D01*
X150042206Y-97519011D01*
X150150989Y-97627794D01*
X150278906Y-97713265D01*
X150421039Y-97772139D01*
X150571926Y-97802152D01*
X150725770Y-97802152D01*
X150876657Y-97772139D01*
X151018790Y-97713265D01*
X151146707Y-97627794D01*
X151255490Y-97519011D01*
X151335972Y-97398561D01*
X152494000Y-98556590D01*
X152494000Y-98571499D01*
X152393358Y-98672141D01*
X152307887Y-98800058D01*
X152249013Y-98942191D01*
X152219000Y-99093078D01*
X152219000Y-99246922D01*
X152249013Y-99397809D01*
X152307887Y-99539942D01*
X152393358Y-99667859D01*
X152502141Y-99776642D01*
X152630058Y-99862113D01*
X152654976Y-99872434D01*
X151863411Y-100664000D01*
X148348501Y-100664000D01*
X148247859Y-100563358D01*
X148119942Y-100477887D01*
X147977809Y-100419013D01*
X147826922Y-100389000D01*
X147673078Y-100389000D01*
X147522191Y-100419013D01*
X147380058Y-100477887D01*
X147252141Y-100563358D01*
X147143358Y-100672141D01*
X147057887Y-100800058D01*
X146999013Y-100942191D01*
X146969000Y-101093078D01*
X146969000Y-101246922D01*
X146999013Y-101397809D01*
X147057887Y-101539942D01*
X147140780Y-101664000D01*
X146281000Y-101664000D01*
X146281000Y-101593078D01*
X146250987Y-101442191D01*
X146192113Y-101300058D01*
X146106642Y-101172141D01*
X145997859Y-101063358D01*
X145869942Y-100977887D01*
X145727809Y-100919013D01*
X145576922Y-100889000D01*
X145423078Y-100889000D01*
X145272191Y-100919013D01*
X145130058Y-100977887D01*
X145002141Y-101063358D01*
X144893358Y-101172141D01*
X144807887Y-101300058D01*
X144749013Y-101442191D01*
X144719000Y-101593078D01*
X144719000Y-101746922D01*
X144749013Y-101897809D01*
X144764007Y-101934007D01*
X144727809Y-101919013D01*
X144576922Y-101889000D01*
X144423078Y-101889000D01*
X144272191Y-101919013D01*
X144130058Y-101977887D01*
X144002141Y-102063358D01*
X143893358Y-102172141D01*
X143807887Y-102300058D01*
X143749013Y-102442191D01*
X143719000Y-102593078D01*
X143719000Y-102746922D01*
X143749013Y-102897809D01*
X143807887Y-103039942D01*
X143893358Y-103167859D01*
X144002141Y-103276642D01*
X144053400Y-103310892D01*
X143999013Y-103442191D01*
X143969000Y-103593078D01*
X143969000Y-103746922D01*
X143999013Y-103897809D01*
X144005720Y-103914000D01*
X142709592Y-103914000D01*
X141531000Y-102735409D01*
X141531000Y-102593078D01*
X141500987Y-102442191D01*
X141442113Y-102300058D01*
X141356642Y-102172141D01*
X141247859Y-102063358D01*
X141196600Y-102029108D01*
X141250987Y-101897809D01*
X141281000Y-101746922D01*
X141281000Y-101593078D01*
X141250987Y-101442191D01*
X141192113Y-101300058D01*
X141106642Y-101172141D01*
X140997859Y-101063358D01*
X140869942Y-100977887D01*
X140805032Y-100951000D01*
X140826922Y-100951000D01*
X140977809Y-100920987D01*
X141119942Y-100862113D01*
X141247859Y-100776642D01*
X141356642Y-100667859D01*
X141442113Y-100539942D01*
X141500987Y-100397809D01*
X141531000Y-100246922D01*
X141531000Y-100093078D01*
X141500987Y-99942191D01*
X141442113Y-99800058D01*
X141356642Y-99672141D01*
X141247859Y-99563358D01*
X141119942Y-99477887D01*
X140977809Y-99419013D01*
X140826922Y-99389000D01*
X140673078Y-99389000D01*
X140531000Y-99417261D01*
X140531000Y-99343078D01*
X140500987Y-99192191D01*
X140442113Y-99050058D01*
X140356642Y-98922141D01*
X140247859Y-98813358D01*
X140119942Y-98727887D01*
X140003743Y-98679755D01*
X142007499Y-96676000D01*
X143151499Y-96676000D01*
X143252141Y-96776642D01*
X143380058Y-96862113D01*
X143522191Y-96920987D01*
X143673078Y-96951000D01*
X143826922Y-96951000D01*
X143977809Y-96920987D01*
X144119942Y-96862113D01*
X144247859Y-96776642D01*
X144356642Y-96667859D01*
X144442113Y-96539942D01*
X144500987Y-96397809D01*
X144531000Y-96246922D01*
X144531000Y-96093078D01*
X144502739Y-95950999D01*
X148815408Y-95950999D01*
X149867848Y-97003440D01*
G37*
%TD.AperFunction*%
D26*
X134709776Y-98358223D02*
X134690464Y-98374072D01*
X134627232Y-98451120D01*
X134580246Y-98539025D01*
X134551313Y-98634407D01*
X134543991Y-98708746D01*
X134543991Y-98708753D01*
X134541544Y-98733599D01*
X134543991Y-98758445D01*
X134543991Y-102359490D01*
X134497859Y-102313358D01*
X134369942Y-102227887D01*
X134227809Y-102169013D01*
X134076922Y-102139000D01*
X134005301Y-102139000D01*
X133780999Y-101914698D01*
X133780999Y-97795924D01*
X133880058Y-97862113D01*
X134022191Y-97920987D01*
X134173078Y-97951000D01*
X134326922Y-97951000D01*
X134477809Y-97920987D01*
X134619942Y-97862113D01*
X134747859Y-97776642D01*
X134856642Y-97667859D01*
X134942113Y-97539942D01*
X135000987Y-97397809D01*
X135031000Y-97246922D01*
X135031000Y-97175301D01*
X138129770Y-94076531D01*
X138150986Y-94059120D01*
X138220467Y-93974459D01*
X138272095Y-93877868D01*
X138303888Y-93773062D01*
X138311933Y-93691379D01*
X138311933Y-93691372D01*
X138314622Y-93664067D01*
X138311933Y-93636763D01*
X138311933Y-92710473D01*
X138362575Y-92659831D01*
X138448046Y-92531914D01*
X138506920Y-92389781D01*
X138536933Y-92238894D01*
X138536933Y-92085050D01*
X138506920Y-91934163D01*
X138451754Y-91800981D01*
X141267017Y-91800981D01*
X134709776Y-98358223D01*
%TA.AperFunction,Conductor*%
D27*
G36*
X134709776Y-98358223D02*
G01*
X134690464Y-98374072D01*
X134627232Y-98451120D01*
X134580246Y-98539025D01*
X134551313Y-98634407D01*
X134543991Y-98708746D01*
X134543991Y-98708753D01*
X134541544Y-98733599D01*
X134543991Y-98758445D01*
X134543991Y-102359490D01*
X134497859Y-102313358D01*
X134369942Y-102227887D01*
X134227809Y-102169013D01*
X134076922Y-102139000D01*
X134005301Y-102139000D01*
X133780999Y-101914698D01*
X133780999Y-97795924D01*
X133880058Y-97862113D01*
X134022191Y-97920987D01*
X134173078Y-97951000D01*
X134326922Y-97951000D01*
X134477809Y-97920987D01*
X134619942Y-97862113D01*
X134747859Y-97776642D01*
X134856642Y-97667859D01*
X134942113Y-97539942D01*
X135000987Y-97397809D01*
X135031000Y-97246922D01*
X135031000Y-97175301D01*
X138129770Y-94076531D01*
X138150986Y-94059120D01*
X138220467Y-93974459D01*
X138272095Y-93877868D01*
X138303888Y-93773062D01*
X138311933Y-93691379D01*
X138311933Y-93691372D01*
X138314622Y-93664067D01*
X138311933Y-93636763D01*
X138311933Y-92710473D01*
X138362575Y-92659831D01*
X138448046Y-92531914D01*
X138506920Y-92389781D01*
X138536933Y-92238894D01*
X138536933Y-92085050D01*
X138506920Y-91934163D01*
X138451754Y-91800981D01*
X141267017Y-91800981D01*
X134709776Y-98358223D01*
G37*
%TD.AperFunction*%
D26*
X161469000Y-88343078D02*
X161469000Y-88485408D01*
X160659785Y-89294624D01*
X160640473Y-89310473D01*
X160577241Y-89387521D01*
X160530255Y-89475426D01*
X160501322Y-89570808D01*
X160494000Y-89645147D01*
X160494000Y-89645154D01*
X160491553Y-89670000D01*
X160494000Y-89694846D01*
X160494001Y-95073997D01*
X160223382Y-95344617D01*
X160223377Y-95344621D01*
X155531632Y-100036367D01*
X155531632Y-99635613D01*
X155534079Y-99610767D01*
X155531632Y-99585921D01*
X155531632Y-99585914D01*
X155524310Y-99511575D01*
X155495377Y-99416193D01*
X155448391Y-99328289D01*
X155385159Y-99251241D01*
X155365847Y-99235392D01*
X155256641Y-99126186D01*
X155256641Y-94236083D01*
X155259089Y-94211229D01*
X155249319Y-94112036D01*
X155220386Y-94016654D01*
X155208380Y-93994193D01*
X155173400Y-93928750D01*
X155110168Y-93851702D01*
X155090861Y-93835857D01*
X153055984Y-91800981D01*
X156547677Y-91800981D01*
X156574981Y-91803670D01*
X156602285Y-91800981D01*
X156602293Y-91800981D01*
X156683976Y-91792936D01*
X156788782Y-91761143D01*
X156885373Y-91709515D01*
X156970034Y-91640034D01*
X156987450Y-91618813D01*
X160405266Y-88200999D01*
X161497261Y-88200999D01*
X161469000Y-88343078D01*
%TA.AperFunction,Conductor*%
D27*
G36*
X161469000Y-88343078D02*
G01*
X161469000Y-88485408D01*
X160659785Y-89294624D01*
X160640473Y-89310473D01*
X160577241Y-89387521D01*
X160530255Y-89475426D01*
X160501322Y-89570808D01*
X160494000Y-89645147D01*
X160494000Y-89645154D01*
X160491553Y-89670000D01*
X160494000Y-89694846D01*
X160494001Y-95073997D01*
X160223382Y-95344617D01*
X160223377Y-95344621D01*
X155531632Y-100036367D01*
X155531632Y-99635613D01*
X155534079Y-99610767D01*
X155531632Y-99585921D01*
X155531632Y-99585914D01*
X155524310Y-99511575D01*
X155495377Y-99416193D01*
X155448391Y-99328289D01*
X155385159Y-99251241D01*
X155365847Y-99235392D01*
X155256641Y-99126186D01*
X155256641Y-94236083D01*
X155259089Y-94211229D01*
X155249319Y-94112036D01*
X155220386Y-94016654D01*
X155208380Y-93994193D01*
X155173400Y-93928750D01*
X155110168Y-93851702D01*
X155090861Y-93835857D01*
X153055984Y-91800981D01*
X156547677Y-91800981D01*
X156574981Y-91803670D01*
X156602285Y-91800981D01*
X156602293Y-91800981D01*
X156683976Y-91792936D01*
X156788782Y-91761143D01*
X156885373Y-91709515D01*
X156970034Y-91640034D01*
X156987450Y-91618813D01*
X160405266Y-88200999D01*
X161497261Y-88200999D01*
X161469000Y-88343078D01*
G37*
%TD.AperFunction*%
D26*
X150969000Y-92843078D02*
X150969000Y-92996922D01*
X150999013Y-93147809D01*
X151057887Y-93289942D01*
X151143358Y-93417859D01*
X151244001Y-93518502D01*
X151244000Y-94145153D01*
X151241553Y-94170000D01*
X151244000Y-94194846D01*
X151244000Y-94194853D01*
X151251322Y-94269192D01*
X151280255Y-94364574D01*
X151327241Y-94452479D01*
X151390473Y-94529527D01*
X151409785Y-94545376D01*
X153219002Y-96354594D01*
X153219002Y-96639000D01*
X153173078Y-96639000D01*
X153022191Y-96669013D01*
X152880058Y-96727887D01*
X152752141Y-96813358D01*
X152643358Y-96922141D01*
X152557887Y-97050058D01*
X152517106Y-97148512D01*
X150098964Y-94730371D01*
X150159393Y-94639931D01*
X150218267Y-94497798D01*
X150248280Y-94346911D01*
X150248280Y-94193067D01*
X150218267Y-94042180D01*
X150159393Y-93900047D01*
X150073922Y-93772130D01*
X149965139Y-93663347D01*
X149837222Y-93577876D01*
X149695089Y-93519002D01*
X149544202Y-93488989D01*
X149481245Y-93488989D01*
X149481245Y-93468067D01*
X149451232Y-93317180D01*
X149392358Y-93175047D01*
X149306887Y-93047130D01*
X149198104Y-92938347D01*
X149070187Y-92852876D01*
X148928054Y-92794002D01*
X148777167Y-92763989D01*
X148623323Y-92763989D01*
X148472436Y-92794002D01*
X148330303Y-92852876D01*
X148202386Y-92938347D01*
X148101744Y-93038989D01*
X143848501Y-93038989D01*
X143747859Y-92938347D01*
X143619942Y-92852876D01*
X143477809Y-92794002D01*
X143326922Y-92763989D01*
X143173078Y-92763989D01*
X143022191Y-92794002D01*
X142880058Y-92852876D01*
X142752141Y-92938347D01*
X142643358Y-93047130D01*
X142557887Y-93175047D01*
X142499013Y-93317180D01*
X142469000Y-93468067D01*
X142469000Y-93621911D01*
X142497261Y-93763989D01*
X141813533Y-93763989D01*
X141788687Y-93761542D01*
X141763841Y-93763989D01*
X141763834Y-93763989D01*
X141699382Y-93770337D01*
X141689494Y-93771311D01*
X141667295Y-93778045D01*
X141594113Y-93800244D01*
X141506209Y-93847230D01*
X141429161Y-93910462D01*
X141413316Y-93929769D01*
X136006000Y-99337086D01*
X136006000Y-99129591D01*
X142434593Y-92700999D01*
X150997261Y-92700999D01*
X150969000Y-92843078D01*
%TA.AperFunction,Conductor*%
D27*
G36*
X150969000Y-92843078D02*
G01*
X150969000Y-92996922D01*
X150999013Y-93147809D01*
X151057887Y-93289942D01*
X151143358Y-93417859D01*
X151244001Y-93518502D01*
X151244000Y-94145153D01*
X151241553Y-94170000D01*
X151244000Y-94194846D01*
X151244000Y-94194853D01*
X151251322Y-94269192D01*
X151280255Y-94364574D01*
X151327241Y-94452479D01*
X151390473Y-94529527D01*
X151409785Y-94545376D01*
X153219002Y-96354594D01*
X153219002Y-96639000D01*
X153173078Y-96639000D01*
X153022191Y-96669013D01*
X152880058Y-96727887D01*
X152752141Y-96813358D01*
X152643358Y-96922141D01*
X152557887Y-97050058D01*
X152517106Y-97148512D01*
X150098964Y-94730371D01*
X150159393Y-94639931D01*
X150218267Y-94497798D01*
X150248280Y-94346911D01*
X150248280Y-94193067D01*
X150218267Y-94042180D01*
X150159393Y-93900047D01*
X150073922Y-93772130D01*
X149965139Y-93663347D01*
X149837222Y-93577876D01*
X149695089Y-93519002D01*
X149544202Y-93488989D01*
X149481245Y-93488989D01*
X149481245Y-93468067D01*
X149451232Y-93317180D01*
X149392358Y-93175047D01*
X149306887Y-93047130D01*
X149198104Y-92938347D01*
X149070187Y-92852876D01*
X148928054Y-92794002D01*
X148777167Y-92763989D01*
X148623323Y-92763989D01*
X148472436Y-92794002D01*
X148330303Y-92852876D01*
X148202386Y-92938347D01*
X148101744Y-93038989D01*
X143848501Y-93038989D01*
X143747859Y-92938347D01*
X143619942Y-92852876D01*
X143477809Y-92794002D01*
X143326922Y-92763989D01*
X143173078Y-92763989D01*
X143022191Y-92794002D01*
X142880058Y-92852876D01*
X142752141Y-92938347D01*
X142643358Y-93047130D01*
X142557887Y-93175047D01*
X142499013Y-93317180D01*
X142469000Y-93468067D01*
X142469000Y-93621911D01*
X142497261Y-93763989D01*
X141813533Y-93763989D01*
X141788687Y-93761542D01*
X141763841Y-93763989D01*
X141763834Y-93763989D01*
X141699382Y-93770337D01*
X141689494Y-93771311D01*
X141667295Y-93778045D01*
X141594113Y-93800244D01*
X141506209Y-93847230D01*
X141429161Y-93910462D01*
X141413316Y-93929769D01*
X136006000Y-99337086D01*
X136006000Y-99129591D01*
X142434593Y-92700999D01*
X150997261Y-92700999D01*
X150969000Y-92843078D01*
G37*
%TD.AperFunction*%
%TD*%
M02*
