M48
; DRILL file {KiCad (5.1.12-1-10_14)} date 2023 February 08, Wednesday 21:42:30
; FORMAT={3:3/ absolute / metric / suppress leading zeros}
; #@! TF.CreationDate,2023-02-08T21:42:30+01:00
; #@! TF.GenerationSoftware,Kicad,Pcbnew,(5.1.12-1-10_14)
FMAT,2
METRIC,TZ
T1C0.400
T2C0.500
T3C0.950
T4C1.000
T5C1.020
T6C3.200
T7C1.000
T8C1.270
%
G90
G05
T1
X134000Y-102920
X134250Y-97170
X134250Y-98420
X134750Y-89170
X135927Y-107420
X136500Y-82920
X137756Y-92162
X139033Y-103203
X139237Y-100657
X139750Y-92420
X139750Y-99420
X139775Y-103945
X140000Y-89670
X140250Y-82920
X140500Y-101670
X140750Y-100170
X140750Y-102670
X141155Y-104695
X142300Y-98020
X142750Y-109920
X143250Y-93545
X143750Y-96170
X144000Y-109170
X144500Y-102670
X144750Y-103670
X145500Y-101670
X146300Y-100020
X147750Y-101170
X148700Y-93545
X149467Y-94270
X150000Y-89170
X150649Y-97021
X151500Y-98170
X151750Y-92920
X152500Y-96670
X153000Y-99170
X153000Y-107420
X153250Y-97420
X153750Y-100920
X154301Y-99959
X155750Y-107420
X156500Y-88920
X160250Y-89170
X161750Y-86670
X161750Y-91420
X162250Y-88420
X162250Y-97670
X162250Y-98920
X162250Y-100670
X162500Y-81920
X162500Y-83220
X162500Y-89920
X162500Y-101920
X162625Y-80620
X166500Y-95170
X166750Y-93895
X167250Y-102670
X170750Y-105170
X171750Y-105420
X172500Y-113420
X174500Y-78420
X175000Y-82920
X175500Y-103420
X176750Y-105645
X176750Y-112420
X177500Y-108920
X178000Y-89670
T2
X128410Y-80899
X129113Y-79202
X129113Y-82596
X130810Y-78499
X130810Y-83299
X132507Y-79202
X132507Y-82596
X133210Y-80899
X178875Y-118156
X179578Y-116459
X179578Y-119853
X181275Y-115756
X181275Y-120556
X182972Y-116459
X182972Y-119853
X183675Y-118156
T3
X138500Y-80264
X141000Y-80264
X143500Y-80264
X146000Y-80264
X181500Y-80670
X181500Y-83170
X181500Y-85670
X181500Y-88170
X181500Y-90670
T4
X131572Y-111760
X131572Y-114300
X134112Y-111760
X134112Y-114300
X136652Y-111760
X136652Y-114300
X139192Y-111760
X139192Y-114300
X141732Y-111760
X141732Y-114300
X144272Y-111760
X144272Y-114300
X146812Y-111760
X146812Y-114300
X149352Y-111760
X149352Y-114300
X151892Y-111760
X151892Y-114300
X152000Y-80264
X154432Y-111760
X154432Y-114300
X154500Y-80264
X170000Y-115670
X170000Y-118670
X173000Y-115670
X173000Y-118670
T5
X160250Y-111920
X160250Y-114920
X160250Y-117920
T6
X130810Y-80899
X181275Y-118156
T7
X167000Y-114730
X176000Y-114730
T8
X158290Y-108920
X158290Y-120920
T0
M30
