%TF.GenerationSoftware,KiCad,Pcbnew,(5.1.12-1-10_14)*%
%TF.CreationDate,2023-02-08T21:42:28+01:00*%
%TF.ProjectId,SmartDisplay,536d6172-7444-4697-9370-6c61792e6b69,rev?*%
%TF.SameCoordinates,Original*%
%TF.FileFunction,Soldermask,Top*%
%TF.FilePolarity,Negative*%
%FSLAX46Y46*%
G04 Gerber Fmt 4.6, Leading zero omitted, Abs format (unit mm)*
G04 Created by KiCad (PCBNEW (5.1.12-1-10_14)) date 2023-02-08 21:42:28*
%MOMM*%
%LPD*%
G01*
G04 APERTURE LIST*
%ADD10C,0.900000*%
%ADD11C,6.500000*%
%ADD12O,2.120000X1.600000*%
%ADD13C,1.370000*%
%ADD14O,1.800000X2.050000*%
%ADD15O,1.800000X2.100000*%
%ADD16O,2.050000X1.800000*%
%ADD17C,1.000000*%
%ADD18O,1.800000X1.800000*%
%ADD19C,1.600000*%
%ADD20C,1.100000*%
%ADD21C,0.100000*%
G04 APERTURE END LIST*
%TO.C,D6*%
G36*
G01*
X138100000Y-86120000D02*
X136900000Y-86120000D01*
G75*
G02*
X136850000Y-86070000I0J50000D01*
G01*
X136850000Y-85170000D01*
G75*
G02*
X136900000Y-85120000I50000J0D01*
G01*
X138100000Y-85120000D01*
G75*
G02*
X138150000Y-85170000I0J-50000D01*
G01*
X138150000Y-86070000D01*
G75*
G02*
X138100000Y-86120000I-50000J0D01*
G01*
G37*
G36*
G01*
X138100000Y-89420000D02*
X136900000Y-89420000D01*
G75*
G02*
X136850000Y-89370000I0J50000D01*
G01*
X136850000Y-88470000D01*
G75*
G02*
X136900000Y-88420000I50000J0D01*
G01*
X138100000Y-88420000D01*
G75*
G02*
X138150000Y-88470000I0J-50000D01*
G01*
X138150000Y-89370000D01*
G75*
G02*
X138100000Y-89420000I-50000J0D01*
G01*
G37*
%TD*%
%TO.C,D5*%
G36*
G01*
X135900000Y-101570000D02*
X137100000Y-101570000D01*
G75*
G02*
X137150000Y-101620000I0J-50000D01*
G01*
X137150000Y-102520000D01*
G75*
G02*
X137100000Y-102570000I-50000J0D01*
G01*
X135900000Y-102570000D01*
G75*
G02*
X135850000Y-102520000I0J50000D01*
G01*
X135850000Y-101620000D01*
G75*
G02*
X135900000Y-101570000I50000J0D01*
G01*
G37*
G36*
G01*
X135900000Y-98270000D02*
X137100000Y-98270000D01*
G75*
G02*
X137150000Y-98320000I0J-50000D01*
G01*
X137150000Y-99220000D01*
G75*
G02*
X137100000Y-99270000I-50000J0D01*
G01*
X135900000Y-99270000D01*
G75*
G02*
X135850000Y-99220000I0J50000D01*
G01*
X135850000Y-98320000D01*
G75*
G02*
X135900000Y-98270000I50000J0D01*
G01*
G37*
%TD*%
%TO.C,C11*%
G36*
G01*
X152681136Y-86257500D02*
X151318864Y-86257500D01*
G75*
G02*
X151050000Y-85988636I0J268864D01*
G01*
X151050000Y-85101364D01*
G75*
G02*
X151318864Y-84832500I268864J0D01*
G01*
X152681136Y-84832500D01*
G75*
G02*
X152950000Y-85101364I0J-268864D01*
G01*
X152950000Y-85988636D01*
G75*
G02*
X152681136Y-86257500I-268864J0D01*
G01*
G37*
G36*
G01*
X152681136Y-89382500D02*
X151318864Y-89382500D01*
G75*
G02*
X151050000Y-89113636I0J268864D01*
G01*
X151050000Y-88226364D01*
G75*
G02*
X151318864Y-87957500I268864J0D01*
G01*
X152681136Y-87957500D01*
G75*
G02*
X152950000Y-88226364I0J-268864D01*
G01*
X152950000Y-89113636D01*
G75*
G02*
X152681136Y-89382500I-268864J0D01*
G01*
G37*
%TD*%
%TO.C,D3*%
G36*
G01*
X156850000Y-99670000D02*
X157650000Y-99670000D01*
G75*
G02*
X157700000Y-99720000I0J-50000D01*
G01*
X157700000Y-100620000D01*
G75*
G02*
X157650000Y-100670000I-50000J0D01*
G01*
X156850000Y-100670000D01*
G75*
G02*
X156800000Y-100620000I0J50000D01*
G01*
X156800000Y-99720000D01*
G75*
G02*
X156850000Y-99670000I50000J0D01*
G01*
G37*
G36*
G01*
X155900000Y-97670000D02*
X156700000Y-97670000D01*
G75*
G02*
X156750000Y-97720000I0J-50000D01*
G01*
X156750000Y-98620000D01*
G75*
G02*
X156700000Y-98670000I-50000J0D01*
G01*
X155900000Y-98670000D01*
G75*
G02*
X155850000Y-98620000I0J50000D01*
G01*
X155850000Y-97720000D01*
G75*
G02*
X155900000Y-97670000I50000J0D01*
G01*
G37*
G36*
G01*
X157800000Y-97670000D02*
X158600000Y-97670000D01*
G75*
G02*
X158650000Y-97720000I0J-50000D01*
G01*
X158650000Y-98620000D01*
G75*
G02*
X158600000Y-98670000I-50000J0D01*
G01*
X157800000Y-98670000D01*
G75*
G02*
X157750000Y-98620000I0J50000D01*
G01*
X157750000Y-97720000D01*
G75*
G02*
X157800000Y-97670000I50000J0D01*
G01*
G37*
%TD*%
%TO.C,X1*%
G36*
G01*
X159475000Y-81670000D02*
X159475000Y-80670000D01*
G75*
G02*
X159525000Y-80620000I50000J0D01*
G01*
X160525000Y-80620000D01*
G75*
G02*
X160575000Y-80670000I0J-50000D01*
G01*
X160575000Y-81670000D01*
G75*
G02*
X160525000Y-81720000I-50000J0D01*
G01*
X159525000Y-81720000D01*
G75*
G02*
X159475000Y-81670000I0J50000D01*
G01*
G37*
G36*
G01*
X159475000Y-78670000D02*
X159475000Y-77670000D01*
G75*
G02*
X159525000Y-77620000I50000J0D01*
G01*
X160525000Y-77620000D01*
G75*
G02*
X160575000Y-77670000I0J-50000D01*
G01*
X160575000Y-78670000D01*
G75*
G02*
X160525000Y-78720000I-50000J0D01*
G01*
X159525000Y-78720000D01*
G75*
G02*
X159475000Y-78670000I0J50000D01*
G01*
G37*
G36*
G01*
X160925000Y-80770000D02*
X160925000Y-78570000D01*
G75*
G02*
X160975000Y-78520000I50000J0D01*
G01*
X162025000Y-78520000D01*
G75*
G02*
X162075000Y-78570000I0J-50000D01*
G01*
X162075000Y-80770000D01*
G75*
G02*
X162025000Y-80820000I-50000J0D01*
G01*
X160975000Y-80820000D01*
G75*
G02*
X160925000Y-80770000I0J50000D01*
G01*
G37*
G36*
G01*
X157975000Y-80770000D02*
X157975000Y-78570000D01*
G75*
G02*
X158025000Y-78520000I50000J0D01*
G01*
X159075000Y-78520000D01*
G75*
G02*
X159125000Y-78570000I0J-50000D01*
G01*
X159125000Y-80770000D01*
G75*
G02*
X159075000Y-80820000I-50000J0D01*
G01*
X158025000Y-80820000D01*
G75*
G02*
X157975000Y-80770000I0J50000D01*
G01*
G37*
%TD*%
%TO.C,U5*%
G36*
G01*
X172203500Y-79025599D02*
X172203500Y-78314399D01*
G75*
G02*
X172253500Y-78264399I50000J0D01*
G01*
X173396500Y-78264399D01*
G75*
G02*
X173446500Y-78314399I0J-50000D01*
G01*
X173446500Y-79025599D01*
G75*
G02*
X173396500Y-79075599I-50000J0D01*
G01*
X172253500Y-79075599D01*
G75*
G02*
X172203500Y-79025599I0J50000D01*
G01*
G37*
G36*
G01*
X172203500Y-80025600D02*
X172203500Y-79314400D01*
G75*
G02*
X172253500Y-79264400I50000J0D01*
G01*
X173396500Y-79264400D01*
G75*
G02*
X173446500Y-79314400I0J-50000D01*
G01*
X173446500Y-80025600D01*
G75*
G02*
X173396500Y-80075600I-50000J0D01*
G01*
X172253500Y-80075600D01*
G75*
G02*
X172203500Y-80025600I0J50000D01*
G01*
G37*
G36*
G01*
X172203500Y-81025600D02*
X172203500Y-80314400D01*
G75*
G02*
X172253500Y-80264400I50000J0D01*
G01*
X173396500Y-80264400D01*
G75*
G02*
X173446500Y-80314400I0J-50000D01*
G01*
X173446500Y-81025600D01*
G75*
G02*
X173396500Y-81075600I-50000J0D01*
G01*
X172253500Y-81075600D01*
G75*
G02*
X172203500Y-81025600I0J50000D01*
G01*
G37*
G36*
G01*
X172203500Y-82025601D02*
X172203500Y-81314401D01*
G75*
G02*
X172253500Y-81264401I50000J0D01*
G01*
X173396500Y-81264401D01*
G75*
G02*
X173446500Y-81314401I0J-50000D01*
G01*
X173446500Y-82025601D01*
G75*
G02*
X173396500Y-82075601I-50000J0D01*
G01*
X172253500Y-82075601D01*
G75*
G02*
X172203500Y-82025601I0J50000D01*
G01*
G37*
G36*
G01*
X172203500Y-83025599D02*
X172203500Y-82314399D01*
G75*
G02*
X172253500Y-82264399I50000J0D01*
G01*
X173396500Y-82264399D01*
G75*
G02*
X173446500Y-82314399I0J-50000D01*
G01*
X173446500Y-83025599D01*
G75*
G02*
X173396500Y-83075599I-50000J0D01*
G01*
X172253500Y-83075599D01*
G75*
G02*
X172203500Y-83025599I0J50000D01*
G01*
G37*
G36*
G01*
X172203500Y-84025599D02*
X172203500Y-83314399D01*
G75*
G02*
X172253500Y-83264399I50000J0D01*
G01*
X173396500Y-83264399D01*
G75*
G02*
X173446500Y-83314399I0J-50000D01*
G01*
X173446500Y-84025599D01*
G75*
G02*
X173396500Y-84075599I-50000J0D01*
G01*
X172253500Y-84075599D01*
G75*
G02*
X172203500Y-84025599I0J50000D01*
G01*
G37*
G36*
G01*
X172203500Y-85025600D02*
X172203500Y-84314400D01*
G75*
G02*
X172253500Y-84264400I50000J0D01*
G01*
X173396500Y-84264400D01*
G75*
G02*
X173446500Y-84314400I0J-50000D01*
G01*
X173446500Y-85025600D01*
G75*
G02*
X173396500Y-85075600I-50000J0D01*
G01*
X172253500Y-85075600D01*
G75*
G02*
X172203500Y-85025600I0J50000D01*
G01*
G37*
G36*
G01*
X172203500Y-86025601D02*
X172203500Y-85314401D01*
G75*
G02*
X172253500Y-85264401I50000J0D01*
G01*
X173396500Y-85264401D01*
G75*
G02*
X173446500Y-85314401I0J-50000D01*
G01*
X173446500Y-86025601D01*
G75*
G02*
X173396500Y-86075601I-50000J0D01*
G01*
X172253500Y-86075601D01*
G75*
G02*
X172203500Y-86025601I0J50000D01*
G01*
G37*
G36*
G01*
X172203500Y-87025601D02*
X172203500Y-86314401D01*
G75*
G02*
X172253500Y-86264401I50000J0D01*
G01*
X173396500Y-86264401D01*
G75*
G02*
X173446500Y-86314401I0J-50000D01*
G01*
X173446500Y-87025601D01*
G75*
G02*
X173396500Y-87075601I-50000J0D01*
G01*
X172253500Y-87075601D01*
G75*
G02*
X172203500Y-87025601I0J50000D01*
G01*
G37*
G36*
G01*
X172203500Y-88025599D02*
X172203500Y-87314399D01*
G75*
G02*
X172253500Y-87264399I50000J0D01*
G01*
X173396500Y-87264399D01*
G75*
G02*
X173446500Y-87314399I0J-50000D01*
G01*
X173446500Y-88025599D01*
G75*
G02*
X173396500Y-88075599I-50000J0D01*
G01*
X172253500Y-88075599D01*
G75*
G02*
X172203500Y-88025599I0J50000D01*
G01*
G37*
G36*
G01*
X172203500Y-89025600D02*
X172203500Y-88314400D01*
G75*
G02*
X172253500Y-88264400I50000J0D01*
G01*
X173396500Y-88264400D01*
G75*
G02*
X173446500Y-88314400I0J-50000D01*
G01*
X173446500Y-89025600D01*
G75*
G02*
X173396500Y-89075600I-50000J0D01*
G01*
X172253500Y-89075600D01*
G75*
G02*
X172203500Y-89025600I0J50000D01*
G01*
G37*
G36*
G01*
X172203500Y-90025600D02*
X172203500Y-89314400D01*
G75*
G02*
X172253500Y-89264400I50000J0D01*
G01*
X173396500Y-89264400D01*
G75*
G02*
X173446500Y-89314400I0J-50000D01*
G01*
X173446500Y-90025600D01*
G75*
G02*
X173396500Y-90075600I-50000J0D01*
G01*
X172253500Y-90075600D01*
G75*
G02*
X172203500Y-90025600I0J50000D01*
G01*
G37*
G36*
G01*
X172203500Y-91025601D02*
X172203500Y-90314401D01*
G75*
G02*
X172253500Y-90264401I50000J0D01*
G01*
X173396500Y-90264401D01*
G75*
G02*
X173446500Y-90314401I0J-50000D01*
G01*
X173446500Y-91025601D01*
G75*
G02*
X173396500Y-91075601I-50000J0D01*
G01*
X172253500Y-91075601D01*
G75*
G02*
X172203500Y-91025601I0J50000D01*
G01*
G37*
G36*
G01*
X170855601Y-91891502D02*
X170144401Y-91891502D01*
G75*
G02*
X170094401Y-91841502I0J50000D01*
G01*
X170094401Y-90698502D01*
G75*
G02*
X170144401Y-90648502I50000J0D01*
G01*
X170855601Y-90648502D01*
G75*
G02*
X170905601Y-90698502I0J-50000D01*
G01*
X170905601Y-91841502D01*
G75*
G02*
X170855601Y-91891502I-50000J0D01*
G01*
G37*
G36*
G01*
X169855601Y-91891502D02*
X169144401Y-91891502D01*
G75*
G02*
X169094401Y-91841502I0J50000D01*
G01*
X169094401Y-90698502D01*
G75*
G02*
X169144401Y-90648502I50000J0D01*
G01*
X169855601Y-90648502D01*
G75*
G02*
X169905601Y-90698502I0J-50000D01*
G01*
X169905601Y-91841502D01*
G75*
G02*
X169855601Y-91891502I-50000J0D01*
G01*
G37*
G36*
G01*
X168855600Y-91891502D02*
X168144400Y-91891502D01*
G75*
G02*
X168094400Y-91841502I0J50000D01*
G01*
X168094400Y-90698502D01*
G75*
G02*
X168144400Y-90648502I50000J0D01*
G01*
X168855600Y-90648502D01*
G75*
G02*
X168905600Y-90698502I0J-50000D01*
G01*
X168905600Y-91841502D01*
G75*
G02*
X168855600Y-91891502I-50000J0D01*
G01*
G37*
G36*
G01*
X167855599Y-91891502D02*
X167144399Y-91891502D01*
G75*
G02*
X167094399Y-91841502I0J50000D01*
G01*
X167094399Y-90698502D01*
G75*
G02*
X167144399Y-90648502I50000J0D01*
G01*
X167855599Y-90648502D01*
G75*
G02*
X167905599Y-90698502I0J-50000D01*
G01*
X167905599Y-91841502D01*
G75*
G02*
X167855599Y-91891502I-50000J0D01*
G01*
G37*
G36*
G01*
X166855599Y-91891502D02*
X166144399Y-91891502D01*
G75*
G02*
X166094399Y-91841502I0J50000D01*
G01*
X166094399Y-90698502D01*
G75*
G02*
X166144399Y-90648502I50000J0D01*
G01*
X166855599Y-90648502D01*
G75*
G02*
X166905599Y-90698502I0J-50000D01*
G01*
X166905599Y-91841502D01*
G75*
G02*
X166855599Y-91891502I-50000J0D01*
G01*
G37*
G36*
G01*
X163553500Y-91025601D02*
X163553500Y-90314401D01*
G75*
G02*
X163603500Y-90264401I50000J0D01*
G01*
X164746500Y-90264401D01*
G75*
G02*
X164796500Y-90314401I0J-50000D01*
G01*
X164796500Y-91025601D01*
G75*
G02*
X164746500Y-91075601I-50000J0D01*
G01*
X163603500Y-91075601D01*
G75*
G02*
X163553500Y-91025601I0J50000D01*
G01*
G37*
G36*
G01*
X163553500Y-90025600D02*
X163553500Y-89314400D01*
G75*
G02*
X163603500Y-89264400I50000J0D01*
G01*
X164746500Y-89264400D01*
G75*
G02*
X164796500Y-89314400I0J-50000D01*
G01*
X164796500Y-90025600D01*
G75*
G02*
X164746500Y-90075600I-50000J0D01*
G01*
X163603500Y-90075600D01*
G75*
G02*
X163553500Y-90025600I0J50000D01*
G01*
G37*
G36*
G01*
X163553500Y-89025600D02*
X163553500Y-88314400D01*
G75*
G02*
X163603500Y-88264400I50000J0D01*
G01*
X164746500Y-88264400D01*
G75*
G02*
X164796500Y-88314400I0J-50000D01*
G01*
X164796500Y-89025600D01*
G75*
G02*
X164746500Y-89075600I-50000J0D01*
G01*
X163603500Y-89075600D01*
G75*
G02*
X163553500Y-89025600I0J50000D01*
G01*
G37*
G36*
G01*
X163553500Y-88025599D02*
X163553500Y-87314399D01*
G75*
G02*
X163603500Y-87264399I50000J0D01*
G01*
X164746500Y-87264399D01*
G75*
G02*
X164796500Y-87314399I0J-50000D01*
G01*
X164796500Y-88025599D01*
G75*
G02*
X164746500Y-88075599I-50000J0D01*
G01*
X163603500Y-88075599D01*
G75*
G02*
X163553500Y-88025599I0J50000D01*
G01*
G37*
G36*
G01*
X163553500Y-87025601D02*
X163553500Y-86314401D01*
G75*
G02*
X163603500Y-86264401I50000J0D01*
G01*
X164746500Y-86264401D01*
G75*
G02*
X164796500Y-86314401I0J-50000D01*
G01*
X164796500Y-87025601D01*
G75*
G02*
X164746500Y-87075601I-50000J0D01*
G01*
X163603500Y-87075601D01*
G75*
G02*
X163553500Y-87025601I0J50000D01*
G01*
G37*
G36*
G01*
X163553500Y-86025601D02*
X163553500Y-85314401D01*
G75*
G02*
X163603500Y-85264401I50000J0D01*
G01*
X164746500Y-85264401D01*
G75*
G02*
X164796500Y-85314401I0J-50000D01*
G01*
X164796500Y-86025601D01*
G75*
G02*
X164746500Y-86075601I-50000J0D01*
G01*
X163603500Y-86075601D01*
G75*
G02*
X163553500Y-86025601I0J50000D01*
G01*
G37*
G36*
G01*
X163553500Y-85025600D02*
X163553500Y-84314400D01*
G75*
G02*
X163603500Y-84264400I50000J0D01*
G01*
X164746500Y-84264400D01*
G75*
G02*
X164796500Y-84314400I0J-50000D01*
G01*
X164796500Y-85025600D01*
G75*
G02*
X164746500Y-85075600I-50000J0D01*
G01*
X163603500Y-85075600D01*
G75*
G02*
X163553500Y-85025600I0J50000D01*
G01*
G37*
G36*
G01*
X163553500Y-84025599D02*
X163553500Y-83314399D01*
G75*
G02*
X163603500Y-83264399I50000J0D01*
G01*
X164746500Y-83264399D01*
G75*
G02*
X164796500Y-83314399I0J-50000D01*
G01*
X164796500Y-84025599D01*
G75*
G02*
X164746500Y-84075599I-50000J0D01*
G01*
X163603500Y-84075599D01*
G75*
G02*
X163553500Y-84025599I0J50000D01*
G01*
G37*
G36*
G01*
X163553500Y-83025599D02*
X163553500Y-82314399D01*
G75*
G02*
X163603500Y-82264399I50000J0D01*
G01*
X164746500Y-82264399D01*
G75*
G02*
X164796500Y-82314399I0J-50000D01*
G01*
X164796500Y-83025599D01*
G75*
G02*
X164746500Y-83075599I-50000J0D01*
G01*
X163603500Y-83075599D01*
G75*
G02*
X163553500Y-83025599I0J50000D01*
G01*
G37*
G36*
G01*
X163553500Y-82025601D02*
X163553500Y-81314401D01*
G75*
G02*
X163603500Y-81264401I50000J0D01*
G01*
X164746500Y-81264401D01*
G75*
G02*
X164796500Y-81314401I0J-50000D01*
G01*
X164796500Y-82025601D01*
G75*
G02*
X164746500Y-82075601I-50000J0D01*
G01*
X163603500Y-82075601D01*
G75*
G02*
X163553500Y-82025601I0J50000D01*
G01*
G37*
G36*
G01*
X163553500Y-81025600D02*
X163553500Y-80314400D01*
G75*
G02*
X163603500Y-80264400I50000J0D01*
G01*
X164746500Y-80264400D01*
G75*
G02*
X164796500Y-80314400I0J-50000D01*
G01*
X164796500Y-81025600D01*
G75*
G02*
X164746500Y-81075600I-50000J0D01*
G01*
X163603500Y-81075600D01*
G75*
G02*
X163553500Y-81025600I0J50000D01*
G01*
G37*
G36*
G01*
X163553500Y-80025600D02*
X163553500Y-79314400D01*
G75*
G02*
X163603500Y-79264400I50000J0D01*
G01*
X164746500Y-79264400D01*
G75*
G02*
X164796500Y-79314400I0J-50000D01*
G01*
X164796500Y-80025600D01*
G75*
G02*
X164746500Y-80075600I-50000J0D01*
G01*
X163603500Y-80075600D01*
G75*
G02*
X163553500Y-80025600I0J50000D01*
G01*
G37*
G36*
G01*
X163553500Y-79025599D02*
X163553500Y-78314399D01*
G75*
G02*
X163603500Y-78264399I50000J0D01*
G01*
X164746500Y-78264399D01*
G75*
G02*
X164796500Y-78314399I0J-50000D01*
G01*
X164796500Y-79025599D01*
G75*
G02*
X164746500Y-79075599I-50000J0D01*
G01*
X163603500Y-79075599D01*
G75*
G02*
X163553500Y-79025599I0J50000D01*
G01*
G37*
%TD*%
D10*
%TO.C,H2*%
X182972112Y-116459000D03*
X181275056Y-115756056D03*
X179578000Y-116459000D03*
X178875056Y-118156056D03*
X179578000Y-119853112D03*
X181275056Y-120556056D03*
X182972112Y-119853112D03*
X183675056Y-118156056D03*
D11*
X181275056Y-118156056D03*
%TD*%
%TO.C,C15*%
G36*
G01*
X175503724Y-89057500D02*
X174496276Y-89057500D01*
G75*
G02*
X174225000Y-88786224I0J271276D01*
G01*
X174225000Y-88053776D01*
G75*
G02*
X174496276Y-87782500I271276J0D01*
G01*
X175503724Y-87782500D01*
G75*
G02*
X175775000Y-88053776I0J-271276D01*
G01*
X175775000Y-88786224D01*
G75*
G02*
X175503724Y-89057500I-271276J0D01*
G01*
G37*
G36*
G01*
X175503724Y-91132500D02*
X174496276Y-91132500D01*
G75*
G02*
X174225000Y-90861224I0J271276D01*
G01*
X174225000Y-90128776D01*
G75*
G02*
X174496276Y-89857500I271276J0D01*
G01*
X175503724Y-89857500D01*
G75*
G02*
X175775000Y-90128776I0J-271276D01*
G01*
X175775000Y-90861224D01*
G75*
G02*
X175503724Y-91132500I-271276J0D01*
G01*
G37*
%TD*%
%TO.C,U4*%
G36*
G01*
X131900000Y-94795000D02*
X131900000Y-94145000D01*
G75*
G02*
X131950000Y-94095000I50000J0D01*
G01*
X133170000Y-94095000D01*
G75*
G02*
X133220000Y-94145000I0J-50000D01*
G01*
X133220000Y-94795000D01*
G75*
G02*
X133170000Y-94845000I-50000J0D01*
G01*
X131950000Y-94845000D01*
G75*
G02*
X131900000Y-94795000I0J50000D01*
G01*
G37*
G36*
G01*
X131900000Y-95745000D02*
X131900000Y-95095000D01*
G75*
G02*
X131950000Y-95045000I50000J0D01*
G01*
X133170000Y-95045000D01*
G75*
G02*
X133220000Y-95095000I0J-50000D01*
G01*
X133220000Y-95745000D01*
G75*
G02*
X133170000Y-95795000I-50000J0D01*
G01*
X131950000Y-95795000D01*
G75*
G02*
X131900000Y-95745000I0J50000D01*
G01*
G37*
G36*
G01*
X131900000Y-96695000D02*
X131900000Y-96045000D01*
G75*
G02*
X131950000Y-95995000I50000J0D01*
G01*
X133170000Y-95995000D01*
G75*
G02*
X133220000Y-96045000I0J-50000D01*
G01*
X133220000Y-96695000D01*
G75*
G02*
X133170000Y-96745000I-50000J0D01*
G01*
X131950000Y-96745000D01*
G75*
G02*
X131900000Y-96695000I0J50000D01*
G01*
G37*
G36*
G01*
X129280000Y-96695000D02*
X129280000Y-96045000D01*
G75*
G02*
X129330000Y-95995000I50000J0D01*
G01*
X130550000Y-95995000D01*
G75*
G02*
X130600000Y-96045000I0J-50000D01*
G01*
X130600000Y-96695000D01*
G75*
G02*
X130550000Y-96745000I-50000J0D01*
G01*
X129330000Y-96745000D01*
G75*
G02*
X129280000Y-96695000I0J50000D01*
G01*
G37*
G36*
G01*
X129280000Y-95745000D02*
X129280000Y-95095000D01*
G75*
G02*
X129330000Y-95045000I50000J0D01*
G01*
X130550000Y-95045000D01*
G75*
G02*
X130600000Y-95095000I0J-50000D01*
G01*
X130600000Y-95745000D01*
G75*
G02*
X130550000Y-95795000I-50000J0D01*
G01*
X129330000Y-95795000D01*
G75*
G02*
X129280000Y-95745000I0J50000D01*
G01*
G37*
G36*
G01*
X129280000Y-94795000D02*
X129280000Y-94145000D01*
G75*
G02*
X129330000Y-94095000I50000J0D01*
G01*
X130550000Y-94095000D01*
G75*
G02*
X130600000Y-94145000I0J-50000D01*
G01*
X130600000Y-94795000D01*
G75*
G02*
X130550000Y-94845000I-50000J0D01*
G01*
X129330000Y-94845000D01*
G75*
G02*
X129280000Y-94795000I0J50000D01*
G01*
G37*
%TD*%
D12*
%TO.C,J8*%
X160250000Y-111920000D03*
X160250000Y-114920000D03*
G36*
G01*
X161043334Y-118720000D02*
X159456666Y-118720000D01*
G75*
G02*
X159190000Y-118453334I0J266666D01*
G01*
X159190000Y-117386666D01*
G75*
G02*
X159456666Y-117120000I266666J0D01*
G01*
X161043334Y-117120000D01*
G75*
G02*
X161310000Y-117386666I0J-266666D01*
G01*
X161310000Y-118453334D01*
G75*
G02*
X161043334Y-118720000I-266666J0D01*
G01*
G37*
D13*
X158290000Y-108920000D03*
X158290000Y-120920000D03*
%TD*%
%TO.C,L1*%
G36*
G01*
X138156250Y-94282500D02*
X137343750Y-94282500D01*
G75*
G02*
X137100000Y-94038750I0J243750D01*
G01*
X137100000Y-93551250D01*
G75*
G02*
X137343750Y-93307500I243750J0D01*
G01*
X138156250Y-93307500D01*
G75*
G02*
X138400000Y-93551250I0J-243750D01*
G01*
X138400000Y-94038750D01*
G75*
G02*
X138156250Y-94282500I-243750J0D01*
G01*
G37*
G36*
G01*
X138156250Y-96407500D02*
X137343750Y-96407500D01*
G75*
G02*
X137100000Y-96163750I0J243750D01*
G01*
X137100000Y-95676250D01*
G75*
G02*
X137343750Y-95432500I243750J0D01*
G01*
X138156250Y-95432500D01*
G75*
G02*
X138400000Y-95676250I0J-243750D01*
G01*
X138400000Y-96163750D01*
G75*
G02*
X138156250Y-96407500I-243750J0D01*
G01*
G37*
%TD*%
%TO.C,C14*%
G36*
G01*
X131650000Y-106004375D02*
X131650000Y-104835625D01*
G75*
G02*
X131915625Y-104570000I265625J0D01*
G01*
X134084375Y-104570000D01*
G75*
G02*
X134350000Y-104835625I0J-265625D01*
G01*
X134350000Y-106004375D01*
G75*
G02*
X134084375Y-106270000I-265625J0D01*
G01*
X131915625Y-106270000D01*
G75*
G02*
X131650000Y-106004375I0J265625D01*
G01*
G37*
G36*
G01*
X128050000Y-106004375D02*
X128050000Y-104835625D01*
G75*
G02*
X128315625Y-104570000I265625J0D01*
G01*
X130484375Y-104570000D01*
G75*
G02*
X130750000Y-104835625I0J-265625D01*
G01*
X130750000Y-106004375D01*
G75*
G02*
X130484375Y-106270000I-265625J0D01*
G01*
X128315625Y-106270000D01*
G75*
G02*
X128050000Y-106004375I0J265625D01*
G01*
G37*
%TD*%
%TO.C,C13*%
G36*
G01*
X131650000Y-100754375D02*
X131650000Y-99585625D01*
G75*
G02*
X131915625Y-99320000I265625J0D01*
G01*
X134084375Y-99320000D01*
G75*
G02*
X134350000Y-99585625I0J-265625D01*
G01*
X134350000Y-100754375D01*
G75*
G02*
X134084375Y-101020000I-265625J0D01*
G01*
X131915625Y-101020000D01*
G75*
G02*
X131650000Y-100754375I0J265625D01*
G01*
G37*
G36*
G01*
X128050000Y-100754375D02*
X128050000Y-99585625D01*
G75*
G02*
X128315625Y-99320000I265625J0D01*
G01*
X130484375Y-99320000D01*
G75*
G02*
X130750000Y-99585625I0J-265625D01*
G01*
X130750000Y-100754375D01*
G75*
G02*
X130484375Y-101020000I-265625J0D01*
G01*
X128315625Y-101020000D01*
G75*
G02*
X128050000Y-100754375I0J265625D01*
G01*
G37*
%TD*%
%TO.C,C4*%
G36*
G01*
X136003724Y-94307500D02*
X134996276Y-94307500D01*
G75*
G02*
X134725000Y-94036224I0J271276D01*
G01*
X134725000Y-93303776D01*
G75*
G02*
X134996276Y-93032500I271276J0D01*
G01*
X136003724Y-93032500D01*
G75*
G02*
X136275000Y-93303776I0J-271276D01*
G01*
X136275000Y-94036224D01*
G75*
G02*
X136003724Y-94307500I-271276J0D01*
G01*
G37*
G36*
G01*
X136003724Y-96382500D02*
X134996276Y-96382500D01*
G75*
G02*
X134725000Y-96111224I0J271276D01*
G01*
X134725000Y-95378776D01*
G75*
G02*
X134996276Y-95107500I271276J0D01*
G01*
X136003724Y-95107500D01*
G75*
G02*
X136275000Y-95378776I0J-271276D01*
G01*
X136275000Y-96111224D01*
G75*
G02*
X136003724Y-96382500I-271276J0D01*
G01*
G37*
%TD*%
%TO.C,C3*%
G36*
G01*
X132000000Y-91504375D02*
X132000000Y-90335625D01*
G75*
G02*
X132265625Y-90070000I265625J0D01*
G01*
X134434375Y-90070000D01*
G75*
G02*
X134700000Y-90335625I0J-265625D01*
G01*
X134700000Y-91504375D01*
G75*
G02*
X134434375Y-91770000I-265625J0D01*
G01*
X132265625Y-91770000D01*
G75*
G02*
X132000000Y-91504375I0J265625D01*
G01*
G37*
G36*
G01*
X128400000Y-91504375D02*
X128400000Y-90335625D01*
G75*
G02*
X128665625Y-90070000I265625J0D01*
G01*
X130834375Y-90070000D01*
G75*
G02*
X131100000Y-90335625I0J-265625D01*
G01*
X131100000Y-91504375D01*
G75*
G02*
X130834375Y-91770000I-265625J0D01*
G01*
X128665625Y-91770000D01*
G75*
G02*
X128400000Y-91504375I0J265625D01*
G01*
G37*
%TD*%
D14*
%TO.C,J4*%
X146000000Y-80264000D03*
X143500000Y-80264000D03*
X141000000Y-80264000D03*
G36*
G01*
X137600000Y-81024295D02*
X137600000Y-79503705D01*
G75*
G02*
X137864705Y-79239000I264705J0D01*
G01*
X139135295Y-79239000D01*
G75*
G02*
X139400000Y-79503705I0J-264705D01*
G01*
X139400000Y-81024295D01*
G75*
G02*
X139135295Y-81289000I-264705J0D01*
G01*
X137864705Y-81289000D01*
G75*
G02*
X137600000Y-81024295I0J264705D01*
G01*
G37*
%TD*%
D15*
%TO.C,J2*%
X154500000Y-80264000D03*
G36*
G01*
X151100000Y-81049295D02*
X151100000Y-79478705D01*
G75*
G02*
X151364705Y-79214000I264705J0D01*
G01*
X152635295Y-79214000D01*
G75*
G02*
X152900000Y-79478705I0J-264705D01*
G01*
X152900000Y-81049295D01*
G75*
G02*
X152635295Y-81314000I-264705J0D01*
G01*
X151364705Y-81314000D01*
G75*
G02*
X151100000Y-81049295I0J264705D01*
G01*
G37*
%TD*%
D16*
%TO.C,J6*%
X181500000Y-90670000D03*
X181500000Y-88170000D03*
X181500000Y-85670000D03*
X181500000Y-83170000D03*
G36*
G01*
X180739705Y-79770000D02*
X182260295Y-79770000D01*
G75*
G02*
X182525000Y-80034705I0J-264705D01*
G01*
X182525000Y-81305295D01*
G75*
G02*
X182260295Y-81570000I-264705J0D01*
G01*
X180739705Y-81570000D01*
G75*
G02*
X180475000Y-81305295I0J264705D01*
G01*
X180475000Y-80034705D01*
G75*
G02*
X180739705Y-79770000I264705J0D01*
G01*
G37*
%TD*%
D17*
%TO.C,FID3*%
X182000000Y-95920000D03*
%TD*%
%TO.C,FID2*%
X128750000Y-108920000D03*
%TD*%
%TO.C,FID1*%
X157500000Y-92670000D03*
%TD*%
%TO.C,F1*%
G36*
G01*
X132487500Y-87277457D02*
X132487500Y-85062543D01*
G75*
G02*
X132755043Y-84795000I267543J0D01*
G01*
X133744957Y-84795000D01*
G75*
G02*
X134012500Y-85062543I0J-267543D01*
G01*
X134012500Y-87277457D01*
G75*
G02*
X133744957Y-87545000I-267543J0D01*
G01*
X132755043Y-87545000D01*
G75*
G02*
X132487500Y-87277457I0J267543D01*
G01*
G37*
G36*
G01*
X129512500Y-87277457D02*
X129512500Y-85062543D01*
G75*
G02*
X129780043Y-84795000I267543J0D01*
G01*
X130769957Y-84795000D01*
G75*
G02*
X131037500Y-85062543I0J-267543D01*
G01*
X131037500Y-87277457D01*
G75*
G02*
X130769957Y-87545000I-267543J0D01*
G01*
X129780043Y-87545000D01*
G75*
G02*
X129512500Y-87277457I0J267543D01*
G01*
G37*
%TD*%
%TO.C,U3*%
G36*
G01*
X165425000Y-105305000D02*
X165425000Y-105655000D01*
G75*
G02*
X165250000Y-105830000I-175000J0D01*
G01*
X163450000Y-105830000D01*
G75*
G02*
X163275000Y-105655000I0J175000D01*
G01*
X163275000Y-105305000D01*
G75*
G02*
X163450000Y-105130000I175000J0D01*
G01*
X165250000Y-105130000D01*
G75*
G02*
X165425000Y-105305000I0J-175000D01*
G01*
G37*
G36*
G01*
X165425000Y-104035000D02*
X165425000Y-104385000D01*
G75*
G02*
X165250000Y-104560000I-175000J0D01*
G01*
X163450000Y-104560000D01*
G75*
G02*
X163275000Y-104385000I0J175000D01*
G01*
X163275000Y-104035000D01*
G75*
G02*
X163450000Y-103860000I175000J0D01*
G01*
X165250000Y-103860000D01*
G75*
G02*
X165425000Y-104035000I0J-175000D01*
G01*
G37*
G36*
G01*
X165425000Y-102765000D02*
X165425000Y-103115000D01*
G75*
G02*
X165250000Y-103290000I-175000J0D01*
G01*
X163450000Y-103290000D01*
G75*
G02*
X163275000Y-103115000I0J175000D01*
G01*
X163275000Y-102765000D01*
G75*
G02*
X163450000Y-102590000I175000J0D01*
G01*
X165250000Y-102590000D01*
G75*
G02*
X165425000Y-102765000I0J-175000D01*
G01*
G37*
G36*
G01*
X165425000Y-101495000D02*
X165425000Y-101845000D01*
G75*
G02*
X165250000Y-102020000I-175000J0D01*
G01*
X163450000Y-102020000D01*
G75*
G02*
X163275000Y-101845000I0J175000D01*
G01*
X163275000Y-101495000D01*
G75*
G02*
X163450000Y-101320000I175000J0D01*
G01*
X165250000Y-101320000D01*
G75*
G02*
X165425000Y-101495000I0J-175000D01*
G01*
G37*
G36*
G01*
X165425000Y-100225000D02*
X165425000Y-100575000D01*
G75*
G02*
X165250000Y-100750000I-175000J0D01*
G01*
X163450000Y-100750000D01*
G75*
G02*
X163275000Y-100575000I0J175000D01*
G01*
X163275000Y-100225000D01*
G75*
G02*
X163450000Y-100050000I175000J0D01*
G01*
X165250000Y-100050000D01*
G75*
G02*
X165425000Y-100225000I0J-175000D01*
G01*
G37*
G36*
G01*
X165425000Y-98955000D02*
X165425000Y-99305000D01*
G75*
G02*
X165250000Y-99480000I-175000J0D01*
G01*
X163450000Y-99480000D01*
G75*
G02*
X163275000Y-99305000I0J175000D01*
G01*
X163275000Y-98955000D01*
G75*
G02*
X163450000Y-98780000I175000J0D01*
G01*
X165250000Y-98780000D01*
G75*
G02*
X165425000Y-98955000I0J-175000D01*
G01*
G37*
G36*
G01*
X165425000Y-97685000D02*
X165425000Y-98035000D01*
G75*
G02*
X165250000Y-98210000I-175000J0D01*
G01*
X163450000Y-98210000D01*
G75*
G02*
X163275000Y-98035000I0J175000D01*
G01*
X163275000Y-97685000D01*
G75*
G02*
X163450000Y-97510000I175000J0D01*
G01*
X165250000Y-97510000D01*
G75*
G02*
X165425000Y-97685000I0J-175000D01*
G01*
G37*
G36*
G01*
X165425000Y-96415000D02*
X165425000Y-96765000D01*
G75*
G02*
X165250000Y-96940000I-175000J0D01*
G01*
X163450000Y-96940000D01*
G75*
G02*
X163275000Y-96765000I0J175000D01*
G01*
X163275000Y-96415000D01*
G75*
G02*
X163450000Y-96240000I175000J0D01*
G01*
X165250000Y-96240000D01*
G75*
G02*
X165425000Y-96415000I0J-175000D01*
G01*
G37*
G36*
G01*
X165425000Y-95145000D02*
X165425000Y-95495000D01*
G75*
G02*
X165250000Y-95670000I-175000J0D01*
G01*
X163450000Y-95670000D01*
G75*
G02*
X163275000Y-95495000I0J175000D01*
G01*
X163275000Y-95145000D01*
G75*
G02*
X163450000Y-94970000I175000J0D01*
G01*
X165250000Y-94970000D01*
G75*
G02*
X165425000Y-95145000I0J-175000D01*
G01*
G37*
G36*
G01*
X174725000Y-95145000D02*
X174725000Y-95495000D01*
G75*
G02*
X174550000Y-95670000I-175000J0D01*
G01*
X172750000Y-95670000D01*
G75*
G02*
X172575000Y-95495000I0J175000D01*
G01*
X172575000Y-95145000D01*
G75*
G02*
X172750000Y-94970000I175000J0D01*
G01*
X174550000Y-94970000D01*
G75*
G02*
X174725000Y-95145000I0J-175000D01*
G01*
G37*
G36*
G01*
X174725000Y-96415000D02*
X174725000Y-96765000D01*
G75*
G02*
X174550000Y-96940000I-175000J0D01*
G01*
X172750000Y-96940000D01*
G75*
G02*
X172575000Y-96765000I0J175000D01*
G01*
X172575000Y-96415000D01*
G75*
G02*
X172750000Y-96240000I175000J0D01*
G01*
X174550000Y-96240000D01*
G75*
G02*
X174725000Y-96415000I0J-175000D01*
G01*
G37*
G36*
G01*
X174725000Y-97685000D02*
X174725000Y-98035000D01*
G75*
G02*
X174550000Y-98210000I-175000J0D01*
G01*
X172750000Y-98210000D01*
G75*
G02*
X172575000Y-98035000I0J175000D01*
G01*
X172575000Y-97685000D01*
G75*
G02*
X172750000Y-97510000I175000J0D01*
G01*
X174550000Y-97510000D01*
G75*
G02*
X174725000Y-97685000I0J-175000D01*
G01*
G37*
G36*
G01*
X174725000Y-98955000D02*
X174725000Y-99305000D01*
G75*
G02*
X174550000Y-99480000I-175000J0D01*
G01*
X172750000Y-99480000D01*
G75*
G02*
X172575000Y-99305000I0J175000D01*
G01*
X172575000Y-98955000D01*
G75*
G02*
X172750000Y-98780000I175000J0D01*
G01*
X174550000Y-98780000D01*
G75*
G02*
X174725000Y-98955000I0J-175000D01*
G01*
G37*
G36*
G01*
X174725000Y-100225000D02*
X174725000Y-100575000D01*
G75*
G02*
X174550000Y-100750000I-175000J0D01*
G01*
X172750000Y-100750000D01*
G75*
G02*
X172575000Y-100575000I0J175000D01*
G01*
X172575000Y-100225000D01*
G75*
G02*
X172750000Y-100050000I175000J0D01*
G01*
X174550000Y-100050000D01*
G75*
G02*
X174725000Y-100225000I0J-175000D01*
G01*
G37*
G36*
G01*
X174725000Y-101495000D02*
X174725000Y-101845000D01*
G75*
G02*
X174550000Y-102020000I-175000J0D01*
G01*
X172750000Y-102020000D01*
G75*
G02*
X172575000Y-101845000I0J175000D01*
G01*
X172575000Y-101495000D01*
G75*
G02*
X172750000Y-101320000I175000J0D01*
G01*
X174550000Y-101320000D01*
G75*
G02*
X174725000Y-101495000I0J-175000D01*
G01*
G37*
G36*
G01*
X174725000Y-102765000D02*
X174725000Y-103115000D01*
G75*
G02*
X174550000Y-103290000I-175000J0D01*
G01*
X172750000Y-103290000D01*
G75*
G02*
X172575000Y-103115000I0J175000D01*
G01*
X172575000Y-102765000D01*
G75*
G02*
X172750000Y-102590000I175000J0D01*
G01*
X174550000Y-102590000D01*
G75*
G02*
X174725000Y-102765000I0J-175000D01*
G01*
G37*
G36*
G01*
X174725000Y-104035000D02*
X174725000Y-104385000D01*
G75*
G02*
X174550000Y-104560000I-175000J0D01*
G01*
X172750000Y-104560000D01*
G75*
G02*
X172575000Y-104385000I0J175000D01*
G01*
X172575000Y-104035000D01*
G75*
G02*
X172750000Y-103860000I175000J0D01*
G01*
X174550000Y-103860000D01*
G75*
G02*
X174725000Y-104035000I0J-175000D01*
G01*
G37*
G36*
G01*
X174725000Y-105305000D02*
X174725000Y-105655000D01*
G75*
G02*
X174550000Y-105830000I-175000J0D01*
G01*
X172750000Y-105830000D01*
G75*
G02*
X172575000Y-105655000I0J175000D01*
G01*
X172575000Y-105305000D01*
G75*
G02*
X172750000Y-105130000I175000J0D01*
G01*
X174550000Y-105130000D01*
G75*
G02*
X174725000Y-105305000I0J-175000D01*
G01*
G37*
%TD*%
%TO.C,R8*%
G36*
G01*
X160100000Y-107149168D02*
X160100000Y-106190832D01*
G75*
G02*
X160370832Y-105920000I270832J0D01*
G01*
X161129168Y-105920000D01*
G75*
G02*
X161400000Y-106190832I0J-270832D01*
G01*
X161400000Y-107149168D01*
G75*
G02*
X161129168Y-107420000I-270832J0D01*
G01*
X160370832Y-107420000D01*
G75*
G02*
X160100000Y-107149168I0J270832D01*
G01*
G37*
G36*
G01*
X158100000Y-107149168D02*
X158100000Y-106190832D01*
G75*
G02*
X158370832Y-105920000I270832J0D01*
G01*
X159129168Y-105920000D01*
G75*
G02*
X159400000Y-106190832I0J-270832D01*
G01*
X159400000Y-107149168D01*
G75*
G02*
X159129168Y-107420000I-270832J0D01*
G01*
X158370832Y-107420000D01*
G75*
G02*
X158100000Y-107149168I0J270832D01*
G01*
G37*
%TD*%
%TO.C,R7*%
G36*
G01*
X148729168Y-86070000D02*
X147770832Y-86070000D01*
G75*
G02*
X147500000Y-85799168I0J270832D01*
G01*
X147500000Y-85040832D01*
G75*
G02*
X147770832Y-84770000I270832J0D01*
G01*
X148729168Y-84770000D01*
G75*
G02*
X149000000Y-85040832I0J-270832D01*
G01*
X149000000Y-85799168D01*
G75*
G02*
X148729168Y-86070000I-270832J0D01*
G01*
G37*
G36*
G01*
X148729168Y-88070000D02*
X147770832Y-88070000D01*
G75*
G02*
X147500000Y-87799168I0J270832D01*
G01*
X147500000Y-87040832D01*
G75*
G02*
X147770832Y-86770000I270832J0D01*
G01*
X148729168Y-86770000D01*
G75*
G02*
X149000000Y-87040832I0J-270832D01*
G01*
X149000000Y-87799168D01*
G75*
G02*
X148729168Y-88070000I-270832J0D01*
G01*
G37*
%TD*%
%TO.C,R6*%
G36*
G01*
X141229168Y-86070000D02*
X140270832Y-86070000D01*
G75*
G02*
X140000000Y-85799168I0J270832D01*
G01*
X140000000Y-85040832D01*
G75*
G02*
X140270832Y-84770000I270832J0D01*
G01*
X141229168Y-84770000D01*
G75*
G02*
X141500000Y-85040832I0J-270832D01*
G01*
X141500000Y-85799168D01*
G75*
G02*
X141229168Y-86070000I-270832J0D01*
G01*
G37*
G36*
G01*
X141229168Y-88070000D02*
X140270832Y-88070000D01*
G75*
G02*
X140000000Y-87799168I0J270832D01*
G01*
X140000000Y-87040832D01*
G75*
G02*
X140270832Y-86770000I270832J0D01*
G01*
X141229168Y-86770000D01*
G75*
G02*
X141500000Y-87040832I0J-270832D01*
G01*
X141500000Y-87799168D01*
G75*
G02*
X141229168Y-88070000I-270832J0D01*
G01*
G37*
%TD*%
%TO.C,R5*%
G36*
G01*
X155520832Y-87020000D02*
X156479168Y-87020000D01*
G75*
G02*
X156750000Y-87290832I0J-270832D01*
G01*
X156750000Y-88049168D01*
G75*
G02*
X156479168Y-88320000I-270832J0D01*
G01*
X155520832Y-88320000D01*
G75*
G02*
X155250000Y-88049168I0J270832D01*
G01*
X155250000Y-87290832D01*
G75*
G02*
X155520832Y-87020000I270832J0D01*
G01*
G37*
G36*
G01*
X155520832Y-85020000D02*
X156479168Y-85020000D01*
G75*
G02*
X156750000Y-85290832I0J-270832D01*
G01*
X156750000Y-86049168D01*
G75*
G02*
X156479168Y-86320000I-270832J0D01*
G01*
X155520832Y-86320000D01*
G75*
G02*
X155250000Y-86049168I0J270832D01*
G01*
X155250000Y-85290832D01*
G75*
G02*
X155520832Y-85020000I270832J0D01*
G01*
G37*
%TD*%
%TO.C,R4*%
G36*
G01*
X157520832Y-87020000D02*
X158479168Y-87020000D01*
G75*
G02*
X158750000Y-87290832I0J-270832D01*
G01*
X158750000Y-88049168D01*
G75*
G02*
X158479168Y-88320000I-270832J0D01*
G01*
X157520832Y-88320000D01*
G75*
G02*
X157250000Y-88049168I0J270832D01*
G01*
X157250000Y-87290832D01*
G75*
G02*
X157520832Y-87020000I270832J0D01*
G01*
G37*
G36*
G01*
X157520832Y-85020000D02*
X158479168Y-85020000D01*
G75*
G02*
X158750000Y-85290832I0J-270832D01*
G01*
X158750000Y-86049168D01*
G75*
G02*
X158479168Y-86320000I-270832J0D01*
G01*
X157520832Y-86320000D01*
G75*
G02*
X157250000Y-86049168I0J270832D01*
G01*
X157250000Y-85290832D01*
G75*
G02*
X157520832Y-85020000I270832J0D01*
G01*
G37*
%TD*%
%TO.C,R3*%
G36*
G01*
X160100000Y-103149168D02*
X160100000Y-102190832D01*
G75*
G02*
X160370832Y-101920000I270832J0D01*
G01*
X161129168Y-101920000D01*
G75*
G02*
X161400000Y-102190832I0J-270832D01*
G01*
X161400000Y-103149168D01*
G75*
G02*
X161129168Y-103420000I-270832J0D01*
G01*
X160370832Y-103420000D01*
G75*
G02*
X160100000Y-103149168I0J270832D01*
G01*
G37*
G36*
G01*
X158100000Y-103149168D02*
X158100000Y-102190832D01*
G75*
G02*
X158370832Y-101920000I270832J0D01*
G01*
X159129168Y-101920000D01*
G75*
G02*
X159400000Y-102190832I0J-270832D01*
G01*
X159400000Y-103149168D01*
G75*
G02*
X159129168Y-103420000I-270832J0D01*
G01*
X158370832Y-103420000D01*
G75*
G02*
X158100000Y-103149168I0J270832D01*
G01*
G37*
%TD*%
%TO.C,R2*%
G36*
G01*
X182979168Y-100070000D02*
X182020832Y-100070000D01*
G75*
G02*
X181750000Y-99799168I0J270832D01*
G01*
X181750000Y-99040832D01*
G75*
G02*
X182020832Y-98770000I270832J0D01*
G01*
X182979168Y-98770000D01*
G75*
G02*
X183250000Y-99040832I0J-270832D01*
G01*
X183250000Y-99799168D01*
G75*
G02*
X182979168Y-100070000I-270832J0D01*
G01*
G37*
G36*
G01*
X182979168Y-102070000D02*
X182020832Y-102070000D01*
G75*
G02*
X181750000Y-101799168I0J270832D01*
G01*
X181750000Y-101040832D01*
G75*
G02*
X182020832Y-100770000I270832J0D01*
G01*
X182979168Y-100770000D01*
G75*
G02*
X183250000Y-101040832I0J-270832D01*
G01*
X183250000Y-101799168D01*
G75*
G02*
X182979168Y-102070000I-270832J0D01*
G01*
G37*
%TD*%
%TO.C,C12*%
G36*
G01*
X177003724Y-83307500D02*
X175996276Y-83307500D01*
G75*
G02*
X175725000Y-83036224I0J271276D01*
G01*
X175725000Y-82303776D01*
G75*
G02*
X175996276Y-82032500I271276J0D01*
G01*
X177003724Y-82032500D01*
G75*
G02*
X177275000Y-82303776I0J-271276D01*
G01*
X177275000Y-83036224D01*
G75*
G02*
X177003724Y-83307500I-271276J0D01*
G01*
G37*
G36*
G01*
X177003724Y-85382500D02*
X175996276Y-85382500D01*
G75*
G02*
X175725000Y-85111224I0J271276D01*
G01*
X175725000Y-84378776D01*
G75*
G02*
X175996276Y-84107500I271276J0D01*
G01*
X177003724Y-84107500D01*
G75*
G02*
X177275000Y-84378776I0J-271276D01*
G01*
X177275000Y-85111224D01*
G75*
G02*
X177003724Y-85382500I-271276J0D01*
G01*
G37*
%TD*%
%TO.C,C9*%
G36*
G01*
X160503724Y-86307500D02*
X159496276Y-86307500D01*
G75*
G02*
X159225000Y-86036224I0J271276D01*
G01*
X159225000Y-85303776D01*
G75*
G02*
X159496276Y-85032500I271276J0D01*
G01*
X160503724Y-85032500D01*
G75*
G02*
X160775000Y-85303776I0J-271276D01*
G01*
X160775000Y-86036224D01*
G75*
G02*
X160503724Y-86307500I-271276J0D01*
G01*
G37*
G36*
G01*
X160503724Y-88382500D02*
X159496276Y-88382500D01*
G75*
G02*
X159225000Y-88111224I0J271276D01*
G01*
X159225000Y-87378776D01*
G75*
G02*
X159496276Y-87107500I271276J0D01*
G01*
X160503724Y-87107500D01*
G75*
G02*
X160775000Y-87378776I0J-271276D01*
G01*
X160775000Y-88111224D01*
G75*
G02*
X160503724Y-88382500I-271276J0D01*
G01*
G37*
%TD*%
%TO.C,C8*%
G36*
G01*
X177062500Y-102916276D02*
X177062500Y-103923724D01*
G75*
G02*
X176791224Y-104195000I-271276J0D01*
G01*
X176058776Y-104195000D01*
G75*
G02*
X175787500Y-103923724I0J271276D01*
G01*
X175787500Y-102916276D01*
G75*
G02*
X176058776Y-102645000I271276J0D01*
G01*
X176791224Y-102645000D01*
G75*
G02*
X177062500Y-102916276I0J-271276D01*
G01*
G37*
G36*
G01*
X179137500Y-102916276D02*
X179137500Y-103923724D01*
G75*
G02*
X178866224Y-104195000I-271276J0D01*
G01*
X178133776Y-104195000D01*
G75*
G02*
X177862500Y-103923724I0J271276D01*
G01*
X177862500Y-102916276D01*
G75*
G02*
X178133776Y-102645000I271276J0D01*
G01*
X178866224Y-102645000D01*
G75*
G02*
X179137500Y-102916276I0J-271276D01*
G01*
G37*
%TD*%
%TO.C,C7*%
G36*
G01*
X177862500Y-95173724D02*
X177862500Y-94166276D01*
G75*
G02*
X178133776Y-93895000I271276J0D01*
G01*
X178866224Y-93895000D01*
G75*
G02*
X179137500Y-94166276I0J-271276D01*
G01*
X179137500Y-95173724D01*
G75*
G02*
X178866224Y-95445000I-271276J0D01*
G01*
X178133776Y-95445000D01*
G75*
G02*
X177862500Y-95173724I0J271276D01*
G01*
G37*
G36*
G01*
X175787500Y-95173724D02*
X175787500Y-94166276D01*
G75*
G02*
X176058776Y-93895000I271276J0D01*
G01*
X176791224Y-93895000D01*
G75*
G02*
X177062500Y-94166276I0J-271276D01*
G01*
X177062500Y-95173724D01*
G75*
G02*
X176791224Y-95445000I-271276J0D01*
G01*
X176058776Y-95445000D01*
G75*
G02*
X175787500Y-95173724I0J271276D01*
G01*
G37*
%TD*%
%TO.C,C6*%
G36*
G01*
X147753724Y-93982500D02*
X146746276Y-93982500D01*
G75*
G02*
X146475000Y-93711224I0J271276D01*
G01*
X146475000Y-92978776D01*
G75*
G02*
X146746276Y-92707500I271276J0D01*
G01*
X147753724Y-92707500D01*
G75*
G02*
X148025000Y-92978776I0J-271276D01*
G01*
X148025000Y-93711224D01*
G75*
G02*
X147753724Y-93982500I-271276J0D01*
G01*
G37*
G36*
G01*
X147753724Y-96057500D02*
X146746276Y-96057500D01*
G75*
G02*
X146475000Y-95786224I0J271276D01*
G01*
X146475000Y-95053776D01*
G75*
G02*
X146746276Y-94782500I271276J0D01*
G01*
X147753724Y-94782500D01*
G75*
G02*
X148025000Y-95053776I0J-271276D01*
G01*
X148025000Y-95786224D01*
G75*
G02*
X147753724Y-96057500I-271276J0D01*
G01*
G37*
%TD*%
%TO.C,C5*%
G36*
G01*
X175937500Y-110923724D02*
X175937500Y-109916276D01*
G75*
G02*
X176208776Y-109645000I271276J0D01*
G01*
X176941224Y-109645000D01*
G75*
G02*
X177212500Y-109916276I0J-271276D01*
G01*
X177212500Y-110923724D01*
G75*
G02*
X176941224Y-111195000I-271276J0D01*
G01*
X176208776Y-111195000D01*
G75*
G02*
X175937500Y-110923724I0J271276D01*
G01*
G37*
G36*
G01*
X173862500Y-110923724D02*
X173862500Y-109916276D01*
G75*
G02*
X174133776Y-109645000I271276J0D01*
G01*
X174866224Y-109645000D01*
G75*
G02*
X175137500Y-109916276I0J-271276D01*
G01*
X175137500Y-110923724D01*
G75*
G02*
X174866224Y-111195000I-271276J0D01*
G01*
X174133776Y-111195000D01*
G75*
G02*
X173862500Y-110923724I0J271276D01*
G01*
G37*
%TD*%
%TO.C,C2*%
G36*
G01*
X154937500Y-104673724D02*
X154937500Y-103666276D01*
G75*
G02*
X155208776Y-103395000I271276J0D01*
G01*
X155941224Y-103395000D01*
G75*
G02*
X156212500Y-103666276I0J-271276D01*
G01*
X156212500Y-104673724D01*
G75*
G02*
X155941224Y-104945000I-271276J0D01*
G01*
X155208776Y-104945000D01*
G75*
G02*
X154937500Y-104673724I0J271276D01*
G01*
G37*
G36*
G01*
X152862500Y-104673724D02*
X152862500Y-103666276D01*
G75*
G02*
X153133776Y-103395000I271276J0D01*
G01*
X153866224Y-103395000D01*
G75*
G02*
X154137500Y-103666276I0J-271276D01*
G01*
X154137500Y-104673724D01*
G75*
G02*
X153866224Y-104945000I-271276J0D01*
G01*
X153133776Y-104945000D01*
G75*
G02*
X152862500Y-104673724I0J271276D01*
G01*
G37*
%TD*%
%TO.C,C1*%
G36*
G01*
X160187500Y-105173724D02*
X160187500Y-104166276D01*
G75*
G02*
X160458776Y-103895000I271276J0D01*
G01*
X161191224Y-103895000D01*
G75*
G02*
X161462500Y-104166276I0J-271276D01*
G01*
X161462500Y-105173724D01*
G75*
G02*
X161191224Y-105445000I-271276J0D01*
G01*
X160458776Y-105445000D01*
G75*
G02*
X160187500Y-105173724I0J271276D01*
G01*
G37*
G36*
G01*
X158112500Y-105173724D02*
X158112500Y-104166276D01*
G75*
G02*
X158383776Y-103895000I271276J0D01*
G01*
X159116224Y-103895000D01*
G75*
G02*
X159387500Y-104166276I0J-271276D01*
G01*
X159387500Y-105173724D01*
G75*
G02*
X159116224Y-105445000I-271276J0D01*
G01*
X158383776Y-105445000D01*
G75*
G02*
X158112500Y-105173724I0J271276D01*
G01*
G37*
%TD*%
%TO.C,U1*%
G36*
G01*
X144225000Y-98770000D02*
X143675000Y-98770000D01*
G75*
G02*
X143625000Y-98720000I0J50000D01*
G01*
X143625000Y-97120000D01*
G75*
G02*
X143675000Y-97070000I50000J0D01*
G01*
X144225000Y-97070000D01*
G75*
G02*
X144275000Y-97120000I0J-50000D01*
G01*
X144275000Y-98720000D01*
G75*
G02*
X144225000Y-98770000I-50000J0D01*
G01*
G37*
G36*
G01*
X145025000Y-98770000D02*
X144475000Y-98770000D01*
G75*
G02*
X144425000Y-98720000I0J50000D01*
G01*
X144425000Y-97120000D01*
G75*
G02*
X144475000Y-97070000I50000J0D01*
G01*
X145025000Y-97070000D01*
G75*
G02*
X145075000Y-97120000I0J-50000D01*
G01*
X145075000Y-98720000D01*
G75*
G02*
X145025000Y-98770000I-50000J0D01*
G01*
G37*
G36*
G01*
X145825000Y-98770000D02*
X145275000Y-98770000D01*
G75*
G02*
X145225000Y-98720000I0J50000D01*
G01*
X145225000Y-97120000D01*
G75*
G02*
X145275000Y-97070000I50000J0D01*
G01*
X145825000Y-97070000D01*
G75*
G02*
X145875000Y-97120000I0J-50000D01*
G01*
X145875000Y-98720000D01*
G75*
G02*
X145825000Y-98770000I-50000J0D01*
G01*
G37*
G36*
G01*
X146625000Y-98770000D02*
X146075000Y-98770000D01*
G75*
G02*
X146025000Y-98720000I0J50000D01*
G01*
X146025000Y-97120000D01*
G75*
G02*
X146075000Y-97070000I50000J0D01*
G01*
X146625000Y-97070000D01*
G75*
G02*
X146675000Y-97120000I0J-50000D01*
G01*
X146675000Y-98720000D01*
G75*
G02*
X146625000Y-98770000I-50000J0D01*
G01*
G37*
G36*
G01*
X147425000Y-98770000D02*
X146875000Y-98770000D01*
G75*
G02*
X146825000Y-98720000I0J50000D01*
G01*
X146825000Y-97120000D01*
G75*
G02*
X146875000Y-97070000I50000J0D01*
G01*
X147425000Y-97070000D01*
G75*
G02*
X147475000Y-97120000I0J-50000D01*
G01*
X147475000Y-98720000D01*
G75*
G02*
X147425000Y-98770000I-50000J0D01*
G01*
G37*
G36*
G01*
X148225000Y-98770000D02*
X147675000Y-98770000D01*
G75*
G02*
X147625000Y-98720000I0J50000D01*
G01*
X147625000Y-97120000D01*
G75*
G02*
X147675000Y-97070000I50000J0D01*
G01*
X148225000Y-97070000D01*
G75*
G02*
X148275000Y-97120000I0J-50000D01*
G01*
X148275000Y-98720000D01*
G75*
G02*
X148225000Y-98770000I-50000J0D01*
G01*
G37*
G36*
G01*
X149025000Y-98770000D02*
X148475000Y-98770000D01*
G75*
G02*
X148425000Y-98720000I0J50000D01*
G01*
X148425000Y-97120000D01*
G75*
G02*
X148475000Y-97070000I50000J0D01*
G01*
X149025000Y-97070000D01*
G75*
G02*
X149075000Y-97120000I0J-50000D01*
G01*
X149075000Y-98720000D01*
G75*
G02*
X149025000Y-98770000I-50000J0D01*
G01*
G37*
G36*
G01*
X149825000Y-98770000D02*
X149275000Y-98770000D01*
G75*
G02*
X149225000Y-98720000I0J50000D01*
G01*
X149225000Y-97120000D01*
G75*
G02*
X149275000Y-97070000I50000J0D01*
G01*
X149825000Y-97070000D01*
G75*
G02*
X149875000Y-97120000I0J-50000D01*
G01*
X149875000Y-98720000D01*
G75*
G02*
X149825000Y-98770000I-50000J0D01*
G01*
G37*
G36*
G01*
X150150000Y-99645000D02*
X150150000Y-99095000D01*
G75*
G02*
X150200000Y-99045000I50000J0D01*
G01*
X151800000Y-99045000D01*
G75*
G02*
X151850000Y-99095000I0J-50000D01*
G01*
X151850000Y-99645000D01*
G75*
G02*
X151800000Y-99695000I-50000J0D01*
G01*
X150200000Y-99695000D01*
G75*
G02*
X150150000Y-99645000I0J50000D01*
G01*
G37*
G36*
G01*
X150150000Y-100445000D02*
X150150000Y-99895000D01*
G75*
G02*
X150200000Y-99845000I50000J0D01*
G01*
X151800000Y-99845000D01*
G75*
G02*
X151850000Y-99895000I0J-50000D01*
G01*
X151850000Y-100445000D01*
G75*
G02*
X151800000Y-100495000I-50000J0D01*
G01*
X150200000Y-100495000D01*
G75*
G02*
X150150000Y-100445000I0J50000D01*
G01*
G37*
G36*
G01*
X150150000Y-101245000D02*
X150150000Y-100695000D01*
G75*
G02*
X150200000Y-100645000I50000J0D01*
G01*
X151800000Y-100645000D01*
G75*
G02*
X151850000Y-100695000I0J-50000D01*
G01*
X151850000Y-101245000D01*
G75*
G02*
X151800000Y-101295000I-50000J0D01*
G01*
X150200000Y-101295000D01*
G75*
G02*
X150150000Y-101245000I0J50000D01*
G01*
G37*
G36*
G01*
X150150000Y-102045000D02*
X150150000Y-101495000D01*
G75*
G02*
X150200000Y-101445000I50000J0D01*
G01*
X151800000Y-101445000D01*
G75*
G02*
X151850000Y-101495000I0J-50000D01*
G01*
X151850000Y-102045000D01*
G75*
G02*
X151800000Y-102095000I-50000J0D01*
G01*
X150200000Y-102095000D01*
G75*
G02*
X150150000Y-102045000I0J50000D01*
G01*
G37*
G36*
G01*
X150150000Y-102845000D02*
X150150000Y-102295000D01*
G75*
G02*
X150200000Y-102245000I50000J0D01*
G01*
X151800000Y-102245000D01*
G75*
G02*
X151850000Y-102295000I0J-50000D01*
G01*
X151850000Y-102845000D01*
G75*
G02*
X151800000Y-102895000I-50000J0D01*
G01*
X150200000Y-102895000D01*
G75*
G02*
X150150000Y-102845000I0J50000D01*
G01*
G37*
G36*
G01*
X150150000Y-103645000D02*
X150150000Y-103095000D01*
G75*
G02*
X150200000Y-103045000I50000J0D01*
G01*
X151800000Y-103045000D01*
G75*
G02*
X151850000Y-103095000I0J-50000D01*
G01*
X151850000Y-103645000D01*
G75*
G02*
X151800000Y-103695000I-50000J0D01*
G01*
X150200000Y-103695000D01*
G75*
G02*
X150150000Y-103645000I0J50000D01*
G01*
G37*
G36*
G01*
X150150000Y-104445000D02*
X150150000Y-103895000D01*
G75*
G02*
X150200000Y-103845000I50000J0D01*
G01*
X151800000Y-103845000D01*
G75*
G02*
X151850000Y-103895000I0J-50000D01*
G01*
X151850000Y-104445000D01*
G75*
G02*
X151800000Y-104495000I-50000J0D01*
G01*
X150200000Y-104495000D01*
G75*
G02*
X150150000Y-104445000I0J50000D01*
G01*
G37*
G36*
G01*
X150150000Y-105245000D02*
X150150000Y-104695000D01*
G75*
G02*
X150200000Y-104645000I50000J0D01*
G01*
X151800000Y-104645000D01*
G75*
G02*
X151850000Y-104695000I0J-50000D01*
G01*
X151850000Y-105245000D01*
G75*
G02*
X151800000Y-105295000I-50000J0D01*
G01*
X150200000Y-105295000D01*
G75*
G02*
X150150000Y-105245000I0J50000D01*
G01*
G37*
G36*
G01*
X149825000Y-107270000D02*
X149275000Y-107270000D01*
G75*
G02*
X149225000Y-107220000I0J50000D01*
G01*
X149225000Y-105620000D01*
G75*
G02*
X149275000Y-105570000I50000J0D01*
G01*
X149825000Y-105570000D01*
G75*
G02*
X149875000Y-105620000I0J-50000D01*
G01*
X149875000Y-107220000D01*
G75*
G02*
X149825000Y-107270000I-50000J0D01*
G01*
G37*
G36*
G01*
X149025000Y-107270000D02*
X148475000Y-107270000D01*
G75*
G02*
X148425000Y-107220000I0J50000D01*
G01*
X148425000Y-105620000D01*
G75*
G02*
X148475000Y-105570000I50000J0D01*
G01*
X149025000Y-105570000D01*
G75*
G02*
X149075000Y-105620000I0J-50000D01*
G01*
X149075000Y-107220000D01*
G75*
G02*
X149025000Y-107270000I-50000J0D01*
G01*
G37*
G36*
G01*
X148225000Y-107270000D02*
X147675000Y-107270000D01*
G75*
G02*
X147625000Y-107220000I0J50000D01*
G01*
X147625000Y-105620000D01*
G75*
G02*
X147675000Y-105570000I50000J0D01*
G01*
X148225000Y-105570000D01*
G75*
G02*
X148275000Y-105620000I0J-50000D01*
G01*
X148275000Y-107220000D01*
G75*
G02*
X148225000Y-107270000I-50000J0D01*
G01*
G37*
G36*
G01*
X147425000Y-107270000D02*
X146875000Y-107270000D01*
G75*
G02*
X146825000Y-107220000I0J50000D01*
G01*
X146825000Y-105620000D01*
G75*
G02*
X146875000Y-105570000I50000J0D01*
G01*
X147425000Y-105570000D01*
G75*
G02*
X147475000Y-105620000I0J-50000D01*
G01*
X147475000Y-107220000D01*
G75*
G02*
X147425000Y-107270000I-50000J0D01*
G01*
G37*
G36*
G01*
X146625000Y-107270000D02*
X146075000Y-107270000D01*
G75*
G02*
X146025000Y-107220000I0J50000D01*
G01*
X146025000Y-105620000D01*
G75*
G02*
X146075000Y-105570000I50000J0D01*
G01*
X146625000Y-105570000D01*
G75*
G02*
X146675000Y-105620000I0J-50000D01*
G01*
X146675000Y-107220000D01*
G75*
G02*
X146625000Y-107270000I-50000J0D01*
G01*
G37*
G36*
G01*
X145825000Y-107270000D02*
X145275000Y-107270000D01*
G75*
G02*
X145225000Y-107220000I0J50000D01*
G01*
X145225000Y-105620000D01*
G75*
G02*
X145275000Y-105570000I50000J0D01*
G01*
X145825000Y-105570000D01*
G75*
G02*
X145875000Y-105620000I0J-50000D01*
G01*
X145875000Y-107220000D01*
G75*
G02*
X145825000Y-107270000I-50000J0D01*
G01*
G37*
G36*
G01*
X145025000Y-107270000D02*
X144475000Y-107270000D01*
G75*
G02*
X144425000Y-107220000I0J50000D01*
G01*
X144425000Y-105620000D01*
G75*
G02*
X144475000Y-105570000I50000J0D01*
G01*
X145025000Y-105570000D01*
G75*
G02*
X145075000Y-105620000I0J-50000D01*
G01*
X145075000Y-107220000D01*
G75*
G02*
X145025000Y-107270000I-50000J0D01*
G01*
G37*
G36*
G01*
X144225000Y-107270000D02*
X143675000Y-107270000D01*
G75*
G02*
X143625000Y-107220000I0J50000D01*
G01*
X143625000Y-105620000D01*
G75*
G02*
X143675000Y-105570000I50000J0D01*
G01*
X144225000Y-105570000D01*
G75*
G02*
X144275000Y-105620000I0J-50000D01*
G01*
X144275000Y-107220000D01*
G75*
G02*
X144225000Y-107270000I-50000J0D01*
G01*
G37*
G36*
G01*
X141650000Y-105245000D02*
X141650000Y-104695000D01*
G75*
G02*
X141700000Y-104645000I50000J0D01*
G01*
X143300000Y-104645000D01*
G75*
G02*
X143350000Y-104695000I0J-50000D01*
G01*
X143350000Y-105245000D01*
G75*
G02*
X143300000Y-105295000I-50000J0D01*
G01*
X141700000Y-105295000D01*
G75*
G02*
X141650000Y-105245000I0J50000D01*
G01*
G37*
G36*
G01*
X141650000Y-104445000D02*
X141650000Y-103895000D01*
G75*
G02*
X141700000Y-103845000I50000J0D01*
G01*
X143300000Y-103845000D01*
G75*
G02*
X143350000Y-103895000I0J-50000D01*
G01*
X143350000Y-104445000D01*
G75*
G02*
X143300000Y-104495000I-50000J0D01*
G01*
X141700000Y-104495000D01*
G75*
G02*
X141650000Y-104445000I0J50000D01*
G01*
G37*
G36*
G01*
X141650000Y-103645000D02*
X141650000Y-103095000D01*
G75*
G02*
X141700000Y-103045000I50000J0D01*
G01*
X143300000Y-103045000D01*
G75*
G02*
X143350000Y-103095000I0J-50000D01*
G01*
X143350000Y-103645000D01*
G75*
G02*
X143300000Y-103695000I-50000J0D01*
G01*
X141700000Y-103695000D01*
G75*
G02*
X141650000Y-103645000I0J50000D01*
G01*
G37*
G36*
G01*
X141650000Y-102845000D02*
X141650000Y-102295000D01*
G75*
G02*
X141700000Y-102245000I50000J0D01*
G01*
X143300000Y-102245000D01*
G75*
G02*
X143350000Y-102295000I0J-50000D01*
G01*
X143350000Y-102845000D01*
G75*
G02*
X143300000Y-102895000I-50000J0D01*
G01*
X141700000Y-102895000D01*
G75*
G02*
X141650000Y-102845000I0J50000D01*
G01*
G37*
G36*
G01*
X141650000Y-102045000D02*
X141650000Y-101495000D01*
G75*
G02*
X141700000Y-101445000I50000J0D01*
G01*
X143300000Y-101445000D01*
G75*
G02*
X143350000Y-101495000I0J-50000D01*
G01*
X143350000Y-102045000D01*
G75*
G02*
X143300000Y-102095000I-50000J0D01*
G01*
X141700000Y-102095000D01*
G75*
G02*
X141650000Y-102045000I0J50000D01*
G01*
G37*
G36*
G01*
X141650000Y-101245000D02*
X141650000Y-100695000D01*
G75*
G02*
X141700000Y-100645000I50000J0D01*
G01*
X143300000Y-100645000D01*
G75*
G02*
X143350000Y-100695000I0J-50000D01*
G01*
X143350000Y-101245000D01*
G75*
G02*
X143300000Y-101295000I-50000J0D01*
G01*
X141700000Y-101295000D01*
G75*
G02*
X141650000Y-101245000I0J50000D01*
G01*
G37*
G36*
G01*
X141650000Y-100445000D02*
X141650000Y-99895000D01*
G75*
G02*
X141700000Y-99845000I50000J0D01*
G01*
X143300000Y-99845000D01*
G75*
G02*
X143350000Y-99895000I0J-50000D01*
G01*
X143350000Y-100445000D01*
G75*
G02*
X143300000Y-100495000I-50000J0D01*
G01*
X141700000Y-100495000D01*
G75*
G02*
X141650000Y-100445000I0J50000D01*
G01*
G37*
G36*
G01*
X141650000Y-99645000D02*
X141650000Y-99095000D01*
G75*
G02*
X141700000Y-99045000I50000J0D01*
G01*
X143300000Y-99045000D01*
G75*
G02*
X143350000Y-99095000I0J-50000D01*
G01*
X143350000Y-99645000D01*
G75*
G02*
X143300000Y-99695000I-50000J0D01*
G01*
X141700000Y-99695000D01*
G75*
G02*
X141650000Y-99645000I0J50000D01*
G01*
G37*
%TD*%
D18*
%TO.C,J5*%
X139192000Y-111760000D03*
X139192000Y-114300000D03*
X136652000Y-111760000D03*
X136652000Y-114300000D03*
X134112000Y-111760000D03*
G36*
G01*
X134962000Y-115200000D02*
X133262000Y-115200000D01*
G75*
G02*
X133212000Y-115150000I0J50000D01*
G01*
X133212000Y-113450000D01*
G75*
G02*
X133262000Y-113400000I50000J0D01*
G01*
X134962000Y-113400000D01*
G75*
G02*
X135012000Y-113450000I0J-50000D01*
G01*
X135012000Y-115150000D01*
G75*
G02*
X134962000Y-115200000I-50000J0D01*
G01*
G37*
%TD*%
%TO.C,J3*%
X131572000Y-111760000D03*
G36*
G01*
X132422000Y-115200000D02*
X130722000Y-115200000D01*
G75*
G02*
X130672000Y-115150000I0J50000D01*
G01*
X130672000Y-113450000D01*
G75*
G02*
X130722000Y-113400000I50000J0D01*
G01*
X132422000Y-113400000D01*
G75*
G02*
X132472000Y-113450000I0J-50000D01*
G01*
X132472000Y-115150000D01*
G75*
G02*
X132422000Y-115200000I-50000J0D01*
G01*
G37*
%TD*%
%TO.C,J7*%
X154432000Y-111760000D03*
X154432000Y-114300000D03*
X151892000Y-111760000D03*
X151892000Y-114300000D03*
X149352000Y-111760000D03*
X149352000Y-114300000D03*
X146812000Y-111760000D03*
X146812000Y-114300000D03*
X144272000Y-111760000D03*
X144272000Y-114300000D03*
X141732000Y-111760000D03*
G36*
G01*
X142582000Y-115200000D02*
X140882000Y-115200000D01*
G75*
G02*
X140832000Y-115150000I0J50000D01*
G01*
X140832000Y-113450000D01*
G75*
G02*
X140882000Y-113400000I50000J0D01*
G01*
X142582000Y-113400000D01*
G75*
G02*
X142632000Y-113450000I0J-50000D01*
G01*
X142632000Y-115150000D01*
G75*
G02*
X142582000Y-115200000I-50000J0D01*
G01*
G37*
%TD*%
%TO.C,D2*%
G36*
G01*
X167942000Y-108070000D02*
X167942000Y-110370000D01*
G75*
G02*
X167892000Y-110420000I-50000J0D01*
G01*
X165392000Y-110420000D01*
G75*
G02*
X165342000Y-110370000I0J50000D01*
G01*
X165342000Y-108070000D01*
G75*
G02*
X165392000Y-108020000I50000J0D01*
G01*
X167892000Y-108020000D01*
G75*
G02*
X167942000Y-108070000I0J-50000D01*
G01*
G37*
G36*
G01*
X172242000Y-108070000D02*
X172242000Y-110370000D01*
G75*
G02*
X172192000Y-110420000I-50000J0D01*
G01*
X169692000Y-110420000D01*
G75*
G02*
X169642000Y-110370000I0J50000D01*
G01*
X169642000Y-108070000D01*
G75*
G02*
X169692000Y-108020000I50000J0D01*
G01*
X172192000Y-108020000D01*
G75*
G02*
X172242000Y-108070000I0J-50000D01*
G01*
G37*
%TD*%
%TO.C,D1*%
G36*
G01*
X176000000Y-80370000D02*
X177000000Y-80370000D01*
G75*
G02*
X177050000Y-80420000I0J-50000D01*
G01*
X177050000Y-81420000D01*
G75*
G02*
X177000000Y-81470000I-50000J0D01*
G01*
X176000000Y-81470000D01*
G75*
G02*
X175950000Y-81420000I0J50000D01*
G01*
X175950000Y-80420000D01*
G75*
G02*
X176000000Y-80370000I50000J0D01*
G01*
G37*
G36*
G01*
X176000000Y-77870000D02*
X177000000Y-77870000D01*
G75*
G02*
X177050000Y-77920000I0J-50000D01*
G01*
X177050000Y-78920000D01*
G75*
G02*
X177000000Y-78970000I-50000J0D01*
G01*
X176000000Y-78970000D01*
G75*
G02*
X175950000Y-78920000I0J50000D01*
G01*
X175950000Y-77920000D01*
G75*
G02*
X176000000Y-77870000I50000J0D01*
G01*
G37*
%TD*%
%TO.C,Y2*%
G36*
G01*
X178000000Y-96220000D02*
X179100000Y-96220000D01*
G75*
G02*
X179150000Y-96270000I0J-50000D01*
G01*
X179150000Y-98170000D01*
G75*
G02*
X179100000Y-98220000I-50000J0D01*
G01*
X178000000Y-98220000D01*
G75*
G02*
X177950000Y-98170000I0J50000D01*
G01*
X177950000Y-96270000D01*
G75*
G02*
X178000000Y-96220000I50000J0D01*
G01*
G37*
G36*
G01*
X178000000Y-99920000D02*
X179100000Y-99920000D01*
G75*
G02*
X179150000Y-99970000I0J-50000D01*
G01*
X179150000Y-101870000D01*
G75*
G02*
X179100000Y-101920000I-50000J0D01*
G01*
X178000000Y-101920000D01*
G75*
G02*
X177950000Y-101870000I0J50000D01*
G01*
X177950000Y-99970000D01*
G75*
G02*
X178000000Y-99920000I50000J0D01*
G01*
G37*
G36*
G01*
X175700000Y-99920000D02*
X176800000Y-99920000D01*
G75*
G02*
X176850000Y-99970000I0J-50000D01*
G01*
X176850000Y-101870000D01*
G75*
G02*
X176800000Y-101920000I-50000J0D01*
G01*
X175700000Y-101920000D01*
G75*
G02*
X175650000Y-101870000I0J50000D01*
G01*
X175650000Y-99970000D01*
G75*
G02*
X175700000Y-99920000I50000J0D01*
G01*
G37*
G36*
G01*
X175700000Y-96220000D02*
X176800000Y-96220000D01*
G75*
G02*
X176850000Y-96270000I0J-50000D01*
G01*
X176850000Y-98170000D01*
G75*
G02*
X176800000Y-98220000I-50000J0D01*
G01*
X175700000Y-98220000D01*
G75*
G02*
X175650000Y-98170000I0J50000D01*
G01*
X175650000Y-96270000D01*
G75*
G02*
X175700000Y-96220000I50000J0D01*
G01*
G37*
%TD*%
%TO.C,D4*%
G36*
G01*
X144100000Y-86120000D02*
X142400000Y-86120000D01*
G75*
G02*
X142350000Y-86070000I0J50000D01*
G01*
X142350000Y-84770000D01*
G75*
G02*
X142400000Y-84720000I50000J0D01*
G01*
X144100000Y-84720000D01*
G75*
G02*
X144150000Y-84770000I0J-50000D01*
G01*
X144150000Y-86070000D01*
G75*
G02*
X144100000Y-86120000I-50000J0D01*
G01*
G37*
G36*
G01*
X144100000Y-89620000D02*
X142400000Y-89620000D01*
G75*
G02*
X142350000Y-89570000I0J50000D01*
G01*
X142350000Y-88270000D01*
G75*
G02*
X142400000Y-88220000I50000J0D01*
G01*
X144100000Y-88220000D01*
G75*
G02*
X144150000Y-88270000I0J-50000D01*
G01*
X144150000Y-89570000D01*
G75*
G02*
X144100000Y-89620000I-50000J0D01*
G01*
G37*
%TD*%
%TO.C,C10*%
G36*
G01*
X146228262Y-86045000D02*
X145271738Y-86045000D01*
G75*
G02*
X145000000Y-85773262I0J271738D01*
G01*
X145000000Y-85066738D01*
G75*
G02*
X145271738Y-84795000I271738J0D01*
G01*
X146228262Y-84795000D01*
G75*
G02*
X146500000Y-85066738I0J-271738D01*
G01*
X146500000Y-85773262D01*
G75*
G02*
X146228262Y-86045000I-271738J0D01*
G01*
G37*
G36*
G01*
X146228262Y-88095000D02*
X145271738Y-88095000D01*
G75*
G02*
X145000000Y-87823262I0J271738D01*
G01*
X145000000Y-87116738D01*
G75*
G02*
X145271738Y-86845000I271738J0D01*
G01*
X146228262Y-86845000D01*
G75*
G02*
X146500000Y-87116738I0J-271738D01*
G01*
X146500000Y-87823262D01*
G75*
G02*
X146228262Y-88095000I-271738J0D01*
G01*
G37*
%TD*%
D10*
%TO.C,H1*%
X132507056Y-79201944D03*
X130810000Y-78499000D03*
X129112944Y-79201944D03*
X128410000Y-80899000D03*
X129112944Y-82596056D03*
X130810000Y-83299000D03*
X132507056Y-82596056D03*
X133210000Y-80899000D03*
D11*
X130810000Y-80899000D03*
%TD*%
%TO.C,U2*%
G36*
G01*
X182197000Y-111145000D02*
X182547000Y-111145000D01*
G75*
G02*
X182722000Y-111320000I0J-175000D01*
G01*
X182722000Y-113020000D01*
G75*
G02*
X182547000Y-113195000I-175000J0D01*
G01*
X182197000Y-113195000D01*
G75*
G02*
X182022000Y-113020000I0J175000D01*
G01*
X182022000Y-111320000D01*
G75*
G02*
X182197000Y-111145000I175000J0D01*
G01*
G37*
G36*
G01*
X180927000Y-111145000D02*
X181277000Y-111145000D01*
G75*
G02*
X181452000Y-111320000I0J-175000D01*
G01*
X181452000Y-113020000D01*
G75*
G02*
X181277000Y-113195000I-175000J0D01*
G01*
X180927000Y-113195000D01*
G75*
G02*
X180752000Y-113020000I0J175000D01*
G01*
X180752000Y-111320000D01*
G75*
G02*
X180927000Y-111145000I175000J0D01*
G01*
G37*
G36*
G01*
X179657000Y-111145000D02*
X180007000Y-111145000D01*
G75*
G02*
X180182000Y-111320000I0J-175000D01*
G01*
X180182000Y-113020000D01*
G75*
G02*
X180007000Y-113195000I-175000J0D01*
G01*
X179657000Y-113195000D01*
G75*
G02*
X179482000Y-113020000I0J175000D01*
G01*
X179482000Y-111320000D01*
G75*
G02*
X179657000Y-111145000I175000J0D01*
G01*
G37*
G36*
G01*
X178387000Y-111145000D02*
X178737000Y-111145000D01*
G75*
G02*
X178912000Y-111320000I0J-175000D01*
G01*
X178912000Y-113020000D01*
G75*
G02*
X178737000Y-113195000I-175000J0D01*
G01*
X178387000Y-113195000D01*
G75*
G02*
X178212000Y-113020000I0J175000D01*
G01*
X178212000Y-111320000D01*
G75*
G02*
X178387000Y-111145000I175000J0D01*
G01*
G37*
G36*
G01*
X178387000Y-106195000D02*
X178737000Y-106195000D01*
G75*
G02*
X178912000Y-106370000I0J-175000D01*
G01*
X178912000Y-108070000D01*
G75*
G02*
X178737000Y-108245000I-175000J0D01*
G01*
X178387000Y-108245000D01*
G75*
G02*
X178212000Y-108070000I0J175000D01*
G01*
X178212000Y-106370000D01*
G75*
G02*
X178387000Y-106195000I175000J0D01*
G01*
G37*
G36*
G01*
X179657000Y-106195000D02*
X180007000Y-106195000D01*
G75*
G02*
X180182000Y-106370000I0J-175000D01*
G01*
X180182000Y-108070000D01*
G75*
G02*
X180007000Y-108245000I-175000J0D01*
G01*
X179657000Y-108245000D01*
G75*
G02*
X179482000Y-108070000I0J175000D01*
G01*
X179482000Y-106370000D01*
G75*
G02*
X179657000Y-106195000I175000J0D01*
G01*
G37*
G36*
G01*
X180927000Y-106195000D02*
X181277000Y-106195000D01*
G75*
G02*
X181452000Y-106370000I0J-175000D01*
G01*
X181452000Y-108070000D01*
G75*
G02*
X181277000Y-108245000I-175000J0D01*
G01*
X180927000Y-108245000D01*
G75*
G02*
X180752000Y-108070000I0J175000D01*
G01*
X180752000Y-106370000D01*
G75*
G02*
X180927000Y-106195000I175000J0D01*
G01*
G37*
G36*
G01*
X182197000Y-106195000D02*
X182547000Y-106195000D01*
G75*
G02*
X182722000Y-106370000I0J-175000D01*
G01*
X182722000Y-108070000D01*
G75*
G02*
X182547000Y-108245000I-175000J0D01*
G01*
X182197000Y-108245000D01*
G75*
G02*
X182022000Y-108070000I0J175000D01*
G01*
X182022000Y-106370000D01*
G75*
G02*
X182197000Y-106195000I175000J0D01*
G01*
G37*
%TD*%
D19*
%TO.C,J1*%
X170000000Y-115670000D03*
X173000000Y-115670000D03*
X170000000Y-118670000D03*
G36*
G01*
X173800000Y-118136666D02*
X173800000Y-119203334D01*
G75*
G02*
X173533334Y-119470000I-266666J0D01*
G01*
X172466666Y-119470000D01*
G75*
G02*
X172200000Y-119203334I0J266666D01*
G01*
X172200000Y-118136666D01*
G75*
G02*
X172466666Y-117870000I266666J0D01*
G01*
X173533334Y-117870000D01*
G75*
G02*
X173800000Y-118136666I0J-266666D01*
G01*
G37*
D20*
X167000000Y-114730000D03*
X176000000Y-114730000D03*
%TD*%
D21*
%TO.C,JP2*%
G36*
X183299398Y-104676111D02*
G01*
X183299398Y-104694534D01*
X183299157Y-104699435D01*
X183294347Y-104748266D01*
X183293627Y-104753119D01*
X183284055Y-104801244D01*
X183282863Y-104806005D01*
X183268619Y-104852960D01*
X183266966Y-104857579D01*
X183248189Y-104902912D01*
X183246091Y-104907349D01*
X183222960Y-104950622D01*
X183220438Y-104954829D01*
X183193178Y-104995628D01*
X183190254Y-104999570D01*
X183159126Y-105037499D01*
X183155831Y-105041134D01*
X183121134Y-105075831D01*
X183117499Y-105079126D01*
X183079570Y-105110254D01*
X183075628Y-105113178D01*
X183034829Y-105140438D01*
X183030622Y-105142960D01*
X182987349Y-105166091D01*
X182982912Y-105168189D01*
X182937579Y-105186966D01*
X182932960Y-105188619D01*
X182886005Y-105202863D01*
X182881244Y-105204055D01*
X182833119Y-105213627D01*
X182828266Y-105214347D01*
X182779435Y-105219157D01*
X182774534Y-105219398D01*
X182756111Y-105219398D01*
X182750000Y-105220000D01*
X182250000Y-105220000D01*
X182243889Y-105219398D01*
X182225466Y-105219398D01*
X182220565Y-105219157D01*
X182171734Y-105214347D01*
X182166881Y-105213627D01*
X182118756Y-105204055D01*
X182113995Y-105202863D01*
X182067040Y-105188619D01*
X182062421Y-105186966D01*
X182017088Y-105168189D01*
X182012651Y-105166091D01*
X181969378Y-105142960D01*
X181965171Y-105140438D01*
X181924372Y-105113178D01*
X181920430Y-105110254D01*
X181882501Y-105079126D01*
X181878866Y-105075831D01*
X181844169Y-105041134D01*
X181840874Y-105037499D01*
X181809746Y-104999570D01*
X181806822Y-104995628D01*
X181779562Y-104954829D01*
X181777040Y-104950622D01*
X181753909Y-104907349D01*
X181751811Y-104902912D01*
X181733034Y-104857579D01*
X181731381Y-104852960D01*
X181717137Y-104806005D01*
X181715945Y-104801244D01*
X181706373Y-104753119D01*
X181705653Y-104748266D01*
X181700843Y-104699435D01*
X181700602Y-104694534D01*
X181700602Y-104676111D01*
X181700000Y-104670000D01*
X181700000Y-104170000D01*
X181700961Y-104160245D01*
X181703806Y-104150866D01*
X181708427Y-104142221D01*
X181714645Y-104134645D01*
X181722221Y-104128427D01*
X181730866Y-104123806D01*
X181740245Y-104120961D01*
X181750000Y-104120000D01*
X183250000Y-104120000D01*
X183259755Y-104120961D01*
X183269134Y-104123806D01*
X183277779Y-104128427D01*
X183285355Y-104134645D01*
X183291573Y-104142221D01*
X183296194Y-104150866D01*
X183299039Y-104160245D01*
X183300000Y-104170000D01*
X183300000Y-104670000D01*
X183299398Y-104676111D01*
G37*
G36*
X183299039Y-103879755D02*
G01*
X183296194Y-103889134D01*
X183291573Y-103897779D01*
X183285355Y-103905355D01*
X183277779Y-103911573D01*
X183269134Y-103916194D01*
X183259755Y-103919039D01*
X183250000Y-103920000D01*
X181750000Y-103920000D01*
X181740245Y-103919039D01*
X181730866Y-103916194D01*
X181722221Y-103911573D01*
X181714645Y-103905355D01*
X181708427Y-103897779D01*
X181703806Y-103889134D01*
X181700961Y-103879755D01*
X181700000Y-103870000D01*
X181700000Y-103370000D01*
X181700602Y-103363889D01*
X181700602Y-103345466D01*
X181700843Y-103340565D01*
X181705653Y-103291734D01*
X181706373Y-103286881D01*
X181715945Y-103238756D01*
X181717137Y-103233995D01*
X181731381Y-103187040D01*
X181733034Y-103182421D01*
X181751811Y-103137088D01*
X181753909Y-103132651D01*
X181777040Y-103089378D01*
X181779562Y-103085171D01*
X181806822Y-103044372D01*
X181809746Y-103040430D01*
X181840874Y-103002501D01*
X181844169Y-102998866D01*
X181878866Y-102964169D01*
X181882501Y-102960874D01*
X181920430Y-102929746D01*
X181924372Y-102926822D01*
X181965171Y-102899562D01*
X181969378Y-102897040D01*
X182012651Y-102873909D01*
X182017088Y-102871811D01*
X182062421Y-102853034D01*
X182067040Y-102851381D01*
X182113995Y-102837137D01*
X182118756Y-102835945D01*
X182166881Y-102826373D01*
X182171734Y-102825653D01*
X182220565Y-102820843D01*
X182225466Y-102820602D01*
X182243889Y-102820602D01*
X182250000Y-102820000D01*
X182750000Y-102820000D01*
X182756111Y-102820602D01*
X182774534Y-102820602D01*
X182779435Y-102820843D01*
X182828266Y-102825653D01*
X182833119Y-102826373D01*
X182881244Y-102835945D01*
X182886005Y-102837137D01*
X182932960Y-102851381D01*
X182937579Y-102853034D01*
X182982912Y-102871811D01*
X182987349Y-102873909D01*
X183030622Y-102897040D01*
X183034829Y-102899562D01*
X183075628Y-102926822D01*
X183079570Y-102929746D01*
X183117499Y-102960874D01*
X183121134Y-102964169D01*
X183155831Y-102998866D01*
X183159126Y-103002501D01*
X183190254Y-103040430D01*
X183193178Y-103044372D01*
X183220438Y-103085171D01*
X183222960Y-103089378D01*
X183246091Y-103132651D01*
X183248189Y-103137088D01*
X183266966Y-103182421D01*
X183268619Y-103187040D01*
X183282863Y-103233995D01*
X183284055Y-103238756D01*
X183293627Y-103286881D01*
X183294347Y-103291734D01*
X183299157Y-103340565D01*
X183299398Y-103345466D01*
X183299398Y-103363889D01*
X183300000Y-103370000D01*
X183300000Y-103870000D01*
X183299039Y-103879755D01*
G37*
%TD*%
M02*
