%TF.GenerationSoftware,KiCad,Pcbnew,(5.1.12-1-10_14)*%
%TF.CreationDate,2023-02-08T21:42:28+01:00*%
%TF.ProjectId,SmartDisplay,536d6172-7444-4697-9370-6c61792e6b69,rev?*%
%TF.SameCoordinates,Original*%
%TF.FileFunction,Legend,Bot*%
%TF.FilePolarity,Positive*%
%FSLAX46Y46*%
G04 Gerber Fmt 4.6, Leading zero omitted, Abs format (unit mm)*
G04 Created by KiCad (PCBNEW (5.1.12-1-10_14)) date 2023-02-08 21:42:28*
%MOMM*%
%LPD*%
G01*
G04 APERTURE LIST*
%ADD10C,0.120000*%
%ADD11C,0.150000*%
G04 APERTURE END LIST*
D10*
%TO.C,JP3*%
X161500000Y-80520000D02*
X161500000Y-83320000D01*
X162200000Y-83970000D02*
X162800000Y-83970000D01*
X163500000Y-83320000D02*
X163500000Y-80520000D01*
X162800000Y-79870000D02*
X162200000Y-79870000D01*
X163700000Y-80720000D02*
X164000000Y-80420000D01*
X164000000Y-80420000D02*
X164000000Y-81020000D01*
X163700000Y-80720000D02*
X164000000Y-81020000D01*
X162200000Y-79870000D02*
G75*
G03*
X161500000Y-80570000I0J-700000D01*
G01*
X163500000Y-80570000D02*
G75*
G03*
X162800000Y-79870000I-700000J0D01*
G01*
X162800000Y-83970000D02*
G75*
G03*
X163500000Y-83270000I0J700000D01*
G01*
X161500000Y-83270000D02*
G75*
G03*
X162200000Y-83970000I700000J0D01*
G01*
D11*
X160152380Y-81086666D02*
X160866666Y-81086666D01*
X161009523Y-81039047D01*
X161104761Y-80943809D01*
X161152380Y-80800952D01*
X161152380Y-80705714D01*
X161152380Y-81562857D02*
X160152380Y-81562857D01*
X160152380Y-81943809D01*
X160200000Y-82039047D01*
X160247619Y-82086666D01*
X160342857Y-82134285D01*
X160485714Y-82134285D01*
X160580952Y-82086666D01*
X160628571Y-82039047D01*
X160676190Y-81943809D01*
X160676190Y-81562857D01*
X160152380Y-82467619D02*
X160152380Y-83086666D01*
X160533333Y-82753333D01*
X160533333Y-82896190D01*
X160580952Y-82991428D01*
X160628571Y-83039047D01*
X160723809Y-83086666D01*
X160961904Y-83086666D01*
X161057142Y-83039047D01*
X161104761Y-82991428D01*
X161152380Y-82896190D01*
X161152380Y-82610476D01*
X161104761Y-82515238D01*
X161057142Y-82467619D01*
%TD*%
M02*
