G04 #@! TF.GenerationSoftware,KiCad,Pcbnew,7.0.8*
G04 #@! TF.CreationDate,2023-12-11T19:30:21+01:00*
G04 #@! TF.ProjectId,dogs102,646f6773-3130-4322-9e6b-696361645f70,rev?*
G04 #@! TF.SameCoordinates,Original*
G04 #@! TF.FileFunction,Copper,L2,Bot*
G04 #@! TF.FilePolarity,Positive*
%FSLAX46Y46*%
G04 Gerber Fmt 4.6, Leading zero omitted, Abs format (unit mm)*
G04 Created by KiCad (PCBNEW 7.0.8) date 2023-12-11 19:30:21*
%MOMM*%
%LPD*%
G01*
G04 APERTURE LIST*
G04 #@! TA.AperFunction,ComponentPad*
%ADD10C,0.800000*%
G04 #@! TD*
G04 #@! TA.AperFunction,ComponentPad*
%ADD11C,6.400000*%
G04 #@! TD*
G04 #@! TA.AperFunction,ComponentPad*
%ADD12C,1.280000*%
G04 #@! TD*
G04 #@! TA.AperFunction,ComponentPad*
%ADD13C,1.620000*%
G04 #@! TD*
G04 #@! TA.AperFunction,ViaPad*
%ADD14C,0.600000*%
G04 #@! TD*
G04 #@! TA.AperFunction,Conductor*
%ADD15C,0.350000*%
G04 #@! TD*
G04 APERTURE END LIST*
D10*
X119266000Y-123444000D03*
X119968944Y-121746944D03*
X119968944Y-125141056D03*
X121666000Y-121044000D03*
D11*
X121666000Y-123444000D03*
D10*
X121666000Y-125844000D03*
X123363056Y-121746944D03*
X123363056Y-125141056D03*
X124066000Y-123444000D03*
X170066000Y-85852000D03*
X170768944Y-84154944D03*
X170768944Y-87549056D03*
X172466000Y-83452000D03*
D11*
X172466000Y-85852000D03*
D10*
X172466000Y-88252000D03*
X174163056Y-84154944D03*
X174163056Y-87549056D03*
X174866000Y-85852000D03*
D12*
X130556000Y-124460000D03*
X133096000Y-124460000D03*
X161036000Y-124460000D03*
X163576000Y-124460000D03*
X163576000Y-86360000D03*
X161036000Y-86360000D03*
X158496000Y-86360000D03*
X155956000Y-86360000D03*
X153416000Y-86360000D03*
X150876000Y-86360000D03*
X148336000Y-86360000D03*
X145796000Y-86360000D03*
X143256000Y-86360000D03*
X140716000Y-86360000D03*
X138176000Y-86360000D03*
X135636000Y-86360000D03*
X133096000Y-86360000D03*
X130556000Y-86360000D03*
D13*
X173010000Y-120900000D03*
X168010000Y-123400000D03*
X173010000Y-125900000D03*
D12*
X192556000Y-124460000D03*
X195096000Y-124460000D03*
X223036000Y-124460000D03*
X225576000Y-124460000D03*
X225576000Y-86360000D03*
X223036000Y-86360000D03*
X220496000Y-86360000D03*
X217956000Y-86360000D03*
X215416000Y-86360000D03*
X212876000Y-86360000D03*
X210336000Y-86360000D03*
X207796000Y-86360000D03*
X205256000Y-86360000D03*
X202716000Y-86360000D03*
X200176000Y-86360000D03*
X197636000Y-86360000D03*
X195096000Y-86360000D03*
X192556000Y-86360000D03*
D10*
X232066000Y-85852000D03*
X232768944Y-84154944D03*
X232768944Y-87549056D03*
X234466000Y-83452000D03*
D11*
X234466000Y-85852000D03*
D10*
X234466000Y-88252000D03*
X236163056Y-84154944D03*
X236163056Y-87549056D03*
X236866000Y-85852000D03*
D13*
X235010000Y-120900000D03*
X230010000Y-123400000D03*
X235010000Y-125900000D03*
D10*
X181266000Y-123444000D03*
X181968944Y-121746944D03*
X181968944Y-125141056D03*
X183666000Y-121044000D03*
D11*
X183666000Y-123444000D03*
D10*
X183666000Y-125844000D03*
X185363056Y-121746944D03*
X185363056Y-125141056D03*
X186066000Y-123444000D03*
D14*
X214510000Y-106302000D03*
X152510000Y-106302000D03*
X215510000Y-106976500D03*
X153510000Y-106976500D03*
X154510000Y-107651000D03*
X216510000Y-107651000D03*
X217510000Y-108325500D03*
X155510000Y-108325500D03*
X156510000Y-109000000D03*
X218510000Y-109000000D03*
D15*
X214510000Y-106302000D02*
X213123272Y-106302000D01*
X151123272Y-106302000D02*
X140716000Y-95894728D01*
X213123272Y-106302000D02*
X202716000Y-95894728D01*
X202716000Y-95894728D02*
X202716000Y-86360000D01*
X140716000Y-95894728D02*
X140716000Y-86360000D01*
X152510000Y-106302000D02*
X151123272Y-106302000D01*
X138176000Y-94132546D02*
X138176000Y-86360000D01*
X153510000Y-106976500D02*
X151019954Y-106976500D01*
X213019954Y-106976500D02*
X200176000Y-94132546D01*
X151019954Y-106976500D02*
X138176000Y-94132546D01*
X200176000Y-94132546D02*
X200176000Y-86360000D01*
X215510000Y-106976500D02*
X213019954Y-106976500D01*
X197636000Y-92370364D02*
X197636000Y-86360000D01*
X154510000Y-107651000D02*
X150916636Y-107651000D01*
X150916636Y-107651000D02*
X135636000Y-92370364D01*
X212916636Y-107651000D02*
X197636000Y-92370364D01*
X135636000Y-92370364D02*
X135636000Y-86360000D01*
X216510000Y-107651000D02*
X212916636Y-107651000D01*
X195096000Y-90608182D02*
X195096000Y-86360000D01*
X217510000Y-108325500D02*
X212813318Y-108325500D01*
X212813318Y-108325500D02*
X195096000Y-90608182D01*
X155510000Y-108325500D02*
X150813318Y-108325500D01*
X150813318Y-108325500D02*
X133096000Y-90608182D01*
X133096000Y-90608182D02*
X133096000Y-86360000D01*
X130556000Y-88846000D02*
X130556000Y-86360000D01*
X212710000Y-109000000D02*
X192556000Y-88846000D01*
X192556000Y-88846000D02*
X192556000Y-86360000D01*
X218510000Y-109000000D02*
X212710000Y-109000000D01*
X150710000Y-109000000D02*
X130556000Y-88846000D01*
X156510000Y-109000000D02*
X150710000Y-109000000D01*
G04 #@! TA.AperFunction,Conductor*
G36*
X125735566Y-82375360D02*
G01*
X125802592Y-82395079D01*
X125848320Y-82447906D01*
X125859500Y-82499360D01*
X125859500Y-82621963D01*
X125900045Y-82760050D01*
X125900047Y-82760053D01*
X125977857Y-82881128D01*
X126086627Y-82975377D01*
X126217543Y-83035165D01*
X126324201Y-83050500D01*
X126324204Y-83050500D01*
X126395796Y-83050500D01*
X126395799Y-83050500D01*
X126502457Y-83035165D01*
X126569954Y-83004339D01*
X126639110Y-82994396D01*
X126702666Y-83023420D01*
X126725779Y-83050094D01*
X126777855Y-83131125D01*
X126777857Y-83131128D01*
X126886627Y-83225377D01*
X127017543Y-83285165D01*
X127124201Y-83300500D01*
X127124204Y-83300500D01*
X127195796Y-83300500D01*
X127195799Y-83300500D01*
X127302457Y-83285165D01*
X127433373Y-83225377D01*
X127433382Y-83225368D01*
X127440833Y-83220582D01*
X127442456Y-83223108D01*
X127492326Y-83200320D01*
X127561487Y-83210248D01*
X127578699Y-83221310D01*
X127579167Y-83220582D01*
X127586619Y-83225370D01*
X127586627Y-83225377D01*
X127717543Y-83285165D01*
X127824201Y-83300500D01*
X127824204Y-83300500D01*
X127895796Y-83300500D01*
X127895799Y-83300500D01*
X128002457Y-83285165D01*
X128133373Y-83225377D01*
X128242143Y-83131128D01*
X128294220Y-83050094D01*
X128347021Y-83004340D01*
X128416179Y-82994396D01*
X128450047Y-83004340D01*
X128517543Y-83035165D01*
X128624201Y-83050500D01*
X128624204Y-83050500D01*
X128695796Y-83050500D01*
X128695799Y-83050500D01*
X128802457Y-83035165D01*
X128933373Y-82975377D01*
X129042143Y-82881128D01*
X129119953Y-82760053D01*
X129160500Y-82621961D01*
X129160500Y-82499500D01*
X129180185Y-82432461D01*
X129232989Y-82386706D01*
X129284500Y-82375500D01*
X164735500Y-82375500D01*
X164802539Y-82395185D01*
X164848294Y-82447989D01*
X164859500Y-82499500D01*
X164859500Y-82621963D01*
X164900045Y-82760050D01*
X164900047Y-82760053D01*
X164977857Y-82881128D01*
X165086627Y-82975377D01*
X165217543Y-83035165D01*
X165324201Y-83050500D01*
X165324204Y-83050500D01*
X165395796Y-83050500D01*
X165395799Y-83050500D01*
X165502457Y-83035165D01*
X165569954Y-83004339D01*
X165639110Y-82994396D01*
X165702666Y-83023420D01*
X165725779Y-83050094D01*
X165777855Y-83131125D01*
X165777857Y-83131128D01*
X165886627Y-83225377D01*
X166017543Y-83285165D01*
X166124201Y-83300500D01*
X166124204Y-83300500D01*
X166195796Y-83300500D01*
X166195799Y-83300500D01*
X166302457Y-83285165D01*
X166433373Y-83225377D01*
X166433382Y-83225368D01*
X166440833Y-83220582D01*
X166442456Y-83223108D01*
X166492326Y-83200320D01*
X166561487Y-83210248D01*
X166578699Y-83221310D01*
X166579167Y-83220582D01*
X166586619Y-83225370D01*
X166586627Y-83225377D01*
X166717543Y-83285165D01*
X166824201Y-83300500D01*
X166824204Y-83300500D01*
X166895796Y-83300500D01*
X166895799Y-83300500D01*
X167002457Y-83285165D01*
X167133373Y-83225377D01*
X167242143Y-83131128D01*
X167294220Y-83050094D01*
X167347021Y-83004340D01*
X167416179Y-82994396D01*
X167450047Y-83004340D01*
X167517543Y-83035165D01*
X167624201Y-83050500D01*
X167624204Y-83050500D01*
X167695796Y-83050500D01*
X167695799Y-83050500D01*
X167802457Y-83035165D01*
X167933373Y-82975377D01*
X168042143Y-82881128D01*
X168119953Y-82760053D01*
X168160500Y-82621961D01*
X168160500Y-82499363D01*
X168180185Y-82432324D01*
X168232989Y-82386569D01*
X168284437Y-82375363D01*
X171213275Y-82373900D01*
X171280323Y-82393551D01*
X171326105Y-82446332D01*
X171336083Y-82515486D01*
X171307089Y-82579056D01*
X171252930Y-82615409D01*
X171185480Y-82638136D01*
X171185477Y-82638137D01*
X171185466Y-82638141D01*
X170845514Y-82795420D01*
X170845501Y-82795427D01*
X170578399Y-82956137D01*
X170524532Y-82988549D01*
X170496244Y-83010053D01*
X170226328Y-83215236D01*
X170226319Y-83215244D01*
X169954364Y-83472853D01*
X169711856Y-83758355D01*
X169501647Y-84068388D01*
X169326173Y-84399369D01*
X169326171Y-84399372D01*
X169187522Y-84747356D01*
X169187521Y-84747358D01*
X169087311Y-85108285D01*
X169087306Y-85108306D01*
X169026707Y-85477939D01*
X169026706Y-85477956D01*
X169006426Y-85851997D01*
X169006426Y-85852002D01*
X169026706Y-86226043D01*
X169026707Y-86226060D01*
X169087306Y-86595693D01*
X169087311Y-86595714D01*
X169187521Y-86956641D01*
X169187522Y-86956643D01*
X169326171Y-87304627D01*
X169326173Y-87304630D01*
X169326176Y-87304637D01*
X169501639Y-87635597D01*
X169501641Y-87635600D01*
X169501647Y-87635611D01*
X169711856Y-87945644D01*
X169711857Y-87945645D01*
X169954365Y-88231147D01*
X170226319Y-88488756D01*
X170524532Y-88715451D01*
X170845506Y-88908575D01*
X170845510Y-88908576D01*
X170845514Y-88908579D01*
X171002927Y-88981406D01*
X171185480Y-89065864D01*
X171540466Y-89185473D01*
X171906303Y-89265999D01*
X172278702Y-89306500D01*
X172278708Y-89306500D01*
X172653292Y-89306500D01*
X172653298Y-89306500D01*
X173025697Y-89265999D01*
X173391534Y-89185473D01*
X173746520Y-89065864D01*
X174086494Y-88908575D01*
X174407468Y-88715451D01*
X174705681Y-88488756D01*
X174977635Y-88231147D01*
X175220143Y-87945645D01*
X175430361Y-87635597D01*
X175605824Y-87304637D01*
X175707307Y-87049933D01*
X175750407Y-86994942D01*
X175816396Y-86971981D01*
X175884323Y-86988342D01*
X175932622Y-87038830D01*
X175946500Y-87095831D01*
X175946500Y-126800500D01*
X175926815Y-126867539D01*
X175874011Y-126913294D01*
X175822500Y-126924500D01*
X173786181Y-126924500D01*
X173719142Y-126904815D01*
X173673387Y-126852011D01*
X173663443Y-126782853D01*
X173692468Y-126719297D01*
X173707516Y-126704647D01*
X173766357Y-126656357D01*
X173899382Y-126494266D01*
X173998229Y-126309338D01*
X174059098Y-126108679D01*
X174079651Y-125900000D01*
X174059098Y-125691321D01*
X173998229Y-125490662D01*
X173899382Y-125305734D01*
X173835268Y-125227611D01*
X173766357Y-125143642D01*
X173604269Y-125010620D01*
X173604267Y-125010619D01*
X173604266Y-125010618D01*
X173419338Y-124911771D01*
X173319008Y-124881336D01*
X173218677Y-124850901D01*
X173010000Y-124830349D01*
X172801322Y-124850901D01*
X172600659Y-124911772D01*
X172415730Y-125010620D01*
X172253642Y-125143642D01*
X172120620Y-125305730D01*
X172021772Y-125490659D01*
X171960901Y-125691322D01*
X171940349Y-125900000D01*
X171960901Y-126108677D01*
X172021771Y-126309338D01*
X172120620Y-126494269D01*
X172253642Y-126656357D01*
X172312484Y-126704647D01*
X172351818Y-126762392D01*
X172353689Y-126832237D01*
X172317502Y-126892005D01*
X172254746Y-126922721D01*
X172233819Y-126924500D01*
X168284500Y-126924500D01*
X168217461Y-126904815D01*
X168171706Y-126852011D01*
X168160500Y-126800500D01*
X168160500Y-126678038D01*
X168160499Y-126678036D01*
X168119954Y-126539949D01*
X168119953Y-126539947D01*
X168042143Y-126418872D01*
X167933373Y-126324623D01*
X167895772Y-126307451D01*
X167802456Y-126264834D01*
X167722611Y-126253355D01*
X167695799Y-126249500D01*
X167624201Y-126249500D01*
X167610794Y-126251427D01*
X167517543Y-126264834D01*
X167450044Y-126295660D01*
X167380886Y-126305603D01*
X167317330Y-126276577D01*
X167294221Y-126249908D01*
X167242143Y-126168872D01*
X167133373Y-126074623D01*
X167133371Y-126074622D01*
X167002456Y-126014834D01*
X166922611Y-126003355D01*
X166895799Y-125999500D01*
X166824201Y-125999500D01*
X166810794Y-126001427D01*
X166717543Y-126014834D01*
X166586628Y-126074622D01*
X166579166Y-126079418D01*
X166577544Y-126076895D01*
X166527645Y-126099683D01*
X166458487Y-126089739D01*
X166441299Y-126078693D01*
X166440834Y-126079418D01*
X166433371Y-126074622D01*
X166302456Y-126014834D01*
X166222611Y-126003355D01*
X166195799Y-125999500D01*
X166124201Y-125999500D01*
X166110794Y-126001427D01*
X166017543Y-126014834D01*
X165886628Y-126074622D01*
X165886626Y-126074623D01*
X165777855Y-126168874D01*
X165725779Y-126249905D01*
X165672975Y-126295660D01*
X165603816Y-126305603D01*
X165569953Y-126295659D01*
X165502458Y-126264835D01*
X165466904Y-126259723D01*
X165395799Y-126249500D01*
X165324201Y-126249500D01*
X165310794Y-126251427D01*
X165217543Y-126264834D01*
X165086628Y-126324622D01*
X165086626Y-126324623D01*
X164977856Y-126418873D01*
X164900045Y-126539949D01*
X164859500Y-126678036D01*
X164859500Y-126800500D01*
X164839815Y-126867539D01*
X164787011Y-126913294D01*
X164735500Y-126924500D01*
X159309500Y-126924500D01*
X159242461Y-126904815D01*
X159196706Y-126852011D01*
X159185500Y-126800500D01*
X159185500Y-124460000D01*
X159891116Y-124460000D01*
X159910609Y-124670369D01*
X159968427Y-124873582D01*
X160062596Y-125062698D01*
X160062601Y-125062706D01*
X160069975Y-125072470D01*
X160646786Y-124495659D01*
X160660465Y-124582019D01*
X160716551Y-124692093D01*
X160803907Y-124779449D01*
X160913981Y-124835535D01*
X161000339Y-124849212D01*
X160426255Y-125423296D01*
X160426256Y-125423297D01*
X160525677Y-125484856D01*
X160525683Y-125484859D01*
X160722685Y-125561177D01*
X160930365Y-125600000D01*
X161141635Y-125600000D01*
X161349314Y-125561177D01*
X161546318Y-125484858D01*
X161546319Y-125484857D01*
X161645743Y-125423296D01*
X161071660Y-124849212D01*
X161158019Y-124835535D01*
X161268093Y-124779449D01*
X161355449Y-124692093D01*
X161411535Y-124582019D01*
X161425212Y-124495659D01*
X162002022Y-125072469D01*
X162002024Y-125072469D01*
X162009398Y-125062705D01*
X162009401Y-125062701D01*
X162103572Y-124873581D01*
X162161390Y-124670369D01*
X162180884Y-124460000D01*
X162676573Y-124460000D01*
X162696228Y-124647003D01*
X162696229Y-124647005D01*
X162754333Y-124825831D01*
X162754334Y-124825833D01*
X162803951Y-124911772D01*
X162848348Y-124988670D01*
X162868112Y-125010620D01*
X162974160Y-125128400D01*
X162974163Y-125128402D01*
X162974166Y-125128405D01*
X163088256Y-125211296D01*
X163126287Y-125238928D01*
X163192226Y-125268285D01*
X163298062Y-125315406D01*
X163481984Y-125354500D01*
X163670016Y-125354500D01*
X163853938Y-125315406D01*
X164025714Y-125238927D01*
X164177834Y-125128405D01*
X164303652Y-124988670D01*
X164397667Y-124825830D01*
X164455772Y-124647001D01*
X164475427Y-124460000D01*
X164455772Y-124272999D01*
X164397667Y-124094170D01*
X164303652Y-123931330D01*
X164236994Y-123857299D01*
X164177839Y-123791599D01*
X164177836Y-123791597D01*
X164177835Y-123791596D01*
X164177834Y-123791595D01*
X164101774Y-123736334D01*
X164025712Y-123681071D01*
X163863113Y-123608679D01*
X163853938Y-123604594D01*
X163853936Y-123604593D01*
X163670016Y-123565500D01*
X163481984Y-123565500D01*
X163298062Y-123604593D01*
X163298057Y-123604595D01*
X163126287Y-123681073D01*
X163126282Y-123681075D01*
X162974167Y-123791593D01*
X162974160Y-123791599D01*
X162848347Y-123931331D01*
X162754334Y-124094166D01*
X162754333Y-124094168D01*
X162696229Y-124272994D01*
X162696228Y-124272996D01*
X162676573Y-124460000D01*
X162180884Y-124460000D01*
X162180884Y-124459999D01*
X162161390Y-124249630D01*
X162103572Y-124046417D01*
X162009403Y-123857302D01*
X162009401Y-123857299D01*
X162002023Y-123847529D01*
X161425212Y-124424339D01*
X161411535Y-124337981D01*
X161355449Y-124227907D01*
X161268093Y-124140551D01*
X161158019Y-124084465D01*
X161071659Y-124070786D01*
X161645743Y-123496702D01*
X161645742Y-123496701D01*
X161546322Y-123435144D01*
X161546316Y-123435140D01*
X161455608Y-123400000D01*
X166940349Y-123400000D01*
X166960901Y-123608677D01*
X166960902Y-123608679D01*
X167016389Y-123791597D01*
X167021772Y-123809340D01*
X167120620Y-123994269D01*
X167253642Y-124156357D01*
X167395771Y-124272999D01*
X167415734Y-124289382D01*
X167600662Y-124388229D01*
X167801321Y-124449098D01*
X168010000Y-124469651D01*
X168218679Y-124449098D01*
X168419338Y-124388229D01*
X168604266Y-124289382D01*
X168766357Y-124156357D01*
X168899382Y-123994266D01*
X168998229Y-123809338D01*
X169059098Y-123608679D01*
X169079651Y-123400000D01*
X169059098Y-123191321D01*
X168998229Y-122990662D01*
X168899382Y-122805734D01*
X168899379Y-122805730D01*
X168766357Y-122643642D01*
X168604269Y-122510620D01*
X168604267Y-122510619D01*
X168604266Y-122510618D01*
X168419338Y-122411771D01*
X168319008Y-122381336D01*
X168218677Y-122350901D01*
X168010000Y-122330349D01*
X167801322Y-122350901D01*
X167600659Y-122411772D01*
X167415730Y-122510620D01*
X167253642Y-122643642D01*
X167120620Y-122805730D01*
X167021772Y-122990659D01*
X166960901Y-123191322D01*
X166940349Y-123400000D01*
X161455608Y-123400000D01*
X161349314Y-123358822D01*
X161141635Y-123320000D01*
X160930365Y-123320000D01*
X160722680Y-123358823D01*
X160525691Y-123435137D01*
X160525678Y-123435143D01*
X160426255Y-123496702D01*
X161000340Y-124070786D01*
X160913981Y-124084465D01*
X160803907Y-124140551D01*
X160716551Y-124227907D01*
X160660465Y-124337981D01*
X160646787Y-124424340D01*
X160069975Y-123847529D01*
X160062600Y-123857296D01*
X159968427Y-124046418D01*
X159910609Y-124249630D01*
X159891116Y-124459999D01*
X159891116Y-124460000D01*
X159185500Y-124460000D01*
X159185500Y-120900000D01*
X171940349Y-120900000D01*
X171960901Y-121108677D01*
X172021772Y-121309340D01*
X172120620Y-121494269D01*
X172253642Y-121656357D01*
X172415730Y-121789379D01*
X172415734Y-121789382D01*
X172600662Y-121888229D01*
X172801321Y-121949098D01*
X173010000Y-121969651D01*
X173218679Y-121949098D01*
X173419338Y-121888229D01*
X173604266Y-121789382D01*
X173766357Y-121656357D01*
X173899382Y-121494266D01*
X173998229Y-121309338D01*
X174059098Y-121108679D01*
X174079651Y-120900000D01*
X174059098Y-120691321D01*
X173998229Y-120490662D01*
X173899382Y-120305734D01*
X173899379Y-120305730D01*
X173766357Y-120143642D01*
X173604269Y-120010620D01*
X173604267Y-120010619D01*
X173604266Y-120010618D01*
X173419338Y-119911771D01*
X173319008Y-119881336D01*
X173218677Y-119850901D01*
X173010000Y-119830349D01*
X172801322Y-119850901D01*
X172600659Y-119911772D01*
X172415730Y-120010620D01*
X172253642Y-120143642D01*
X172120620Y-120305730D01*
X172021772Y-120490659D01*
X171960901Y-120691322D01*
X171940349Y-120900000D01*
X159185500Y-120900000D01*
X159185500Y-119045352D01*
X159187384Y-119023818D01*
X159189122Y-119013955D01*
X159189124Y-119013952D01*
X159187384Y-119004083D01*
X159186218Y-118990761D01*
X159184781Y-118982611D01*
X159181322Y-118969699D01*
X159179581Y-118959829D01*
X159179581Y-118959828D01*
X159179579Y-118959827D01*
X159176061Y-118953733D01*
X159171549Y-118948355D01*
X159162866Y-118943342D01*
X159145161Y-118930945D01*
X159137480Y-118924500D01*
X159130879Y-118922097D01*
X159123952Y-118920876D01*
X159123951Y-118920876D01*
X159120217Y-118921534D01*
X159114081Y-118922616D01*
X159092552Y-118924500D01*
X148555352Y-118924500D01*
X148533818Y-118922616D01*
X148523952Y-118920876D01*
X148523951Y-118920876D01*
X148520217Y-118921534D01*
X148514081Y-118922616D01*
X148500767Y-118923781D01*
X148492620Y-118925217D01*
X148479711Y-118928675D01*
X148469827Y-118930418D01*
X148463740Y-118933932D01*
X148458354Y-118938452D01*
X148453338Y-118947139D01*
X148440949Y-118964832D01*
X148434500Y-118972517D01*
X148432098Y-118979118D01*
X148430876Y-118986048D01*
X148432616Y-118995915D01*
X148434500Y-119017447D01*
X148434500Y-126800500D01*
X148414815Y-126867539D01*
X148362011Y-126913294D01*
X148310500Y-126924500D01*
X129284500Y-126924500D01*
X129217461Y-126904815D01*
X129171706Y-126852011D01*
X129160500Y-126800500D01*
X129160500Y-126678038D01*
X129160499Y-126678036D01*
X129119954Y-126539949D01*
X129119953Y-126539947D01*
X129042143Y-126418872D01*
X128933373Y-126324623D01*
X128895772Y-126307451D01*
X128802456Y-126264834D01*
X128722611Y-126253355D01*
X128695799Y-126249500D01*
X128624201Y-126249500D01*
X128610794Y-126251427D01*
X128517543Y-126264834D01*
X128450044Y-126295660D01*
X128380886Y-126305603D01*
X128317330Y-126276577D01*
X128294221Y-126249908D01*
X128242143Y-126168872D01*
X128133373Y-126074623D01*
X128133371Y-126074622D01*
X128002456Y-126014834D01*
X127922611Y-126003355D01*
X127895799Y-125999500D01*
X127824201Y-125999500D01*
X127810794Y-126001427D01*
X127717543Y-126014834D01*
X127586628Y-126074622D01*
X127579166Y-126079418D01*
X127577544Y-126076895D01*
X127527645Y-126099683D01*
X127458487Y-126089739D01*
X127441299Y-126078693D01*
X127440834Y-126079418D01*
X127433371Y-126074622D01*
X127302456Y-126014834D01*
X127222611Y-126003355D01*
X127195799Y-125999500D01*
X127124201Y-125999500D01*
X127110794Y-126001427D01*
X127017543Y-126014834D01*
X126886628Y-126074622D01*
X126886626Y-126074623D01*
X126777855Y-126168874D01*
X126725779Y-126249905D01*
X126672975Y-126295660D01*
X126603816Y-126305603D01*
X126569953Y-126295659D01*
X126502458Y-126264835D01*
X126466904Y-126259723D01*
X126395799Y-126249500D01*
X126324201Y-126249500D01*
X126310794Y-126251427D01*
X126217543Y-126264834D01*
X126086628Y-126324622D01*
X126086626Y-126324623D01*
X125977856Y-126418873D01*
X125900045Y-126539949D01*
X125859500Y-126678036D01*
X125859500Y-126800500D01*
X125839815Y-126867539D01*
X125787011Y-126913294D01*
X125735500Y-126924500D01*
X122911539Y-126924500D01*
X122844500Y-126904815D01*
X122798745Y-126852011D01*
X122788801Y-126782853D01*
X122817826Y-126719297D01*
X122871944Y-126682991D01*
X122946520Y-126657864D01*
X123286494Y-126500575D01*
X123607468Y-126307451D01*
X123905681Y-126080756D01*
X124177635Y-125823147D01*
X124420143Y-125537645D01*
X124577383Y-125305734D01*
X124630352Y-125227611D01*
X124630353Y-125227607D01*
X124630361Y-125227597D01*
X124805824Y-124896637D01*
X124944476Y-124548647D01*
X124966410Y-124469650D01*
X124969089Y-124460000D01*
X129656573Y-124460000D01*
X129676228Y-124647003D01*
X129676229Y-124647005D01*
X129734333Y-124825831D01*
X129734334Y-124825833D01*
X129783951Y-124911772D01*
X129828348Y-124988670D01*
X129848112Y-125010620D01*
X129954160Y-125128400D01*
X129954163Y-125128402D01*
X129954166Y-125128405D01*
X130068256Y-125211296D01*
X130106287Y-125238928D01*
X130172226Y-125268285D01*
X130278062Y-125315406D01*
X130461984Y-125354500D01*
X130650016Y-125354500D01*
X130833938Y-125315406D01*
X131005714Y-125238927D01*
X131157834Y-125128405D01*
X131283652Y-124988670D01*
X131377667Y-124825830D01*
X131435772Y-124647001D01*
X131455427Y-124460000D01*
X131951116Y-124460000D01*
X131970609Y-124670369D01*
X132028427Y-124873582D01*
X132122596Y-125062698D01*
X132122601Y-125062706D01*
X132129975Y-125072470D01*
X132706786Y-124495659D01*
X132720465Y-124582019D01*
X132776551Y-124692093D01*
X132863907Y-124779449D01*
X132973981Y-124835535D01*
X133060339Y-124849212D01*
X132486255Y-125423296D01*
X132486256Y-125423297D01*
X132585677Y-125484856D01*
X132585683Y-125484859D01*
X132782685Y-125561177D01*
X132990365Y-125600000D01*
X133201635Y-125600000D01*
X133409314Y-125561177D01*
X133606318Y-125484858D01*
X133606319Y-125484857D01*
X133705743Y-125423296D01*
X133131660Y-124849212D01*
X133218019Y-124835535D01*
X133328093Y-124779449D01*
X133415449Y-124692093D01*
X133471535Y-124582019D01*
X133485212Y-124495660D01*
X134062022Y-125072469D01*
X134062024Y-125072469D01*
X134069398Y-125062705D01*
X134069401Y-125062701D01*
X134163572Y-124873581D01*
X134221390Y-124670369D01*
X134240884Y-124460000D01*
X134240884Y-124459999D01*
X134221390Y-124249630D01*
X134163572Y-124046417D01*
X134069403Y-123857302D01*
X134069401Y-123857299D01*
X134062023Y-123847529D01*
X133485212Y-124424339D01*
X133471535Y-124337981D01*
X133415449Y-124227907D01*
X133328093Y-124140551D01*
X133218019Y-124084465D01*
X133131659Y-124070786D01*
X133705743Y-123496702D01*
X133705742Y-123496701D01*
X133606322Y-123435144D01*
X133606316Y-123435140D01*
X133409314Y-123358822D01*
X133201635Y-123320000D01*
X132990365Y-123320000D01*
X132782680Y-123358823D01*
X132585691Y-123435137D01*
X132585678Y-123435143D01*
X132486255Y-123496702D01*
X133060340Y-124070786D01*
X132973981Y-124084465D01*
X132863907Y-124140551D01*
X132776551Y-124227907D01*
X132720465Y-124337981D01*
X132706787Y-124424340D01*
X132129975Y-123847529D01*
X132122600Y-123857296D01*
X132028427Y-124046418D01*
X131970609Y-124249630D01*
X131951116Y-124459999D01*
X131951116Y-124460000D01*
X131455427Y-124460000D01*
X131435772Y-124272999D01*
X131377667Y-124094170D01*
X131283652Y-123931330D01*
X131216994Y-123857299D01*
X131157839Y-123791599D01*
X131157836Y-123791597D01*
X131157835Y-123791596D01*
X131157834Y-123791595D01*
X131081774Y-123736334D01*
X131005712Y-123681071D01*
X130843113Y-123608679D01*
X130833938Y-123604594D01*
X130833936Y-123604593D01*
X130650016Y-123565500D01*
X130461984Y-123565500D01*
X130278062Y-123604593D01*
X130278057Y-123604595D01*
X130106287Y-123681073D01*
X130106282Y-123681075D01*
X129954167Y-123791593D01*
X129954160Y-123791599D01*
X129828347Y-123931331D01*
X129734334Y-124094166D01*
X129734333Y-124094168D01*
X129676229Y-124272994D01*
X129676228Y-124272996D01*
X129656573Y-124460000D01*
X124969089Y-124460000D01*
X125002967Y-124337981D01*
X125044691Y-124187706D01*
X125086722Y-123931330D01*
X125105292Y-123818060D01*
X125105292Y-123818057D01*
X125105294Y-123818046D01*
X125125574Y-123444000D01*
X125125093Y-123435137D01*
X125111874Y-123191321D01*
X125105294Y-123069954D01*
X125092294Y-122990659D01*
X125044693Y-122700306D01*
X125044692Y-122700305D01*
X125044691Y-122700294D01*
X124947683Y-122350902D01*
X124944478Y-122339358D01*
X124944477Y-122339356D01*
X124805828Y-121991372D01*
X124805826Y-121991369D01*
X124805824Y-121991363D01*
X124630361Y-121660403D01*
X124630356Y-121660395D01*
X124630352Y-121660388D01*
X124420143Y-121350355D01*
X124177635Y-121064853D01*
X123905681Y-120807244D01*
X123905674Y-120807238D01*
X123905671Y-120807236D01*
X123834933Y-120753463D01*
X123607468Y-120580549D01*
X123394229Y-120452247D01*
X123286498Y-120387427D01*
X123286485Y-120387420D01*
X122946530Y-120230140D01*
X122946525Y-120230138D01*
X122946520Y-120230136D01*
X122689816Y-120143642D01*
X122591533Y-120110526D01*
X122225696Y-120030000D01*
X121853299Y-119989500D01*
X121853298Y-119989500D01*
X121478702Y-119989500D01*
X121478700Y-119989500D01*
X121106303Y-120030000D01*
X120740466Y-120110526D01*
X120466052Y-120202987D01*
X120385480Y-120230136D01*
X120385477Y-120230137D01*
X120385469Y-120230140D01*
X120045514Y-120387420D01*
X120045501Y-120387427D01*
X119778399Y-120548137D01*
X119724532Y-120580549D01*
X119632100Y-120650813D01*
X119426328Y-120807236D01*
X119426319Y-120807244D01*
X119154364Y-121064853D01*
X118911856Y-121350355D01*
X118701647Y-121660388D01*
X118701639Y-121660402D01*
X118701639Y-121660403D01*
X118537688Y-121969650D01*
X118526173Y-121991369D01*
X118526171Y-121991372D01*
X118424693Y-122246065D01*
X118381593Y-122301057D01*
X118315603Y-122324018D01*
X118247676Y-122307657D01*
X118199378Y-122257169D01*
X118185500Y-122200168D01*
X118185500Y-86360000D01*
X129656573Y-86360000D01*
X129676228Y-86547003D01*
X129676229Y-86547005D01*
X129734333Y-86725831D01*
X129734334Y-86725833D01*
X129761902Y-86773582D01*
X129828348Y-86888670D01*
X129872175Y-86937345D01*
X129954160Y-87028400D01*
X129954166Y-87028405D01*
X130075386Y-87116477D01*
X130118051Y-87171804D01*
X130126500Y-87216793D01*
X130126500Y-88818396D01*
X130126110Y-88825344D01*
X130121951Y-88862240D01*
X130132497Y-88917972D01*
X130140946Y-88974026D01*
X130143349Y-88981819D01*
X130146020Y-88989452D01*
X130172517Y-89039587D01*
X130197121Y-89090679D01*
X130201683Y-89097369D01*
X130206521Y-89103924D01*
X130206522Y-89103926D01*
X130246615Y-89144019D01*
X130285079Y-89185473D01*
X130285189Y-89185591D01*
X130292453Y-89191384D01*
X130291899Y-89192078D01*
X130303825Y-89201229D01*
X150386780Y-109284185D01*
X150391417Y-109289374D01*
X150414566Y-109318402D01*
X150461423Y-109350348D01*
X150507042Y-109384017D01*
X150514220Y-109387811D01*
X150521539Y-109391335D01*
X150521542Y-109391337D01*
X150575734Y-109408053D01*
X150629249Y-109426779D01*
X150629251Y-109426779D01*
X150637249Y-109428292D01*
X150645262Y-109429500D01*
X150645263Y-109429500D01*
X150701987Y-109429500D01*
X150758629Y-109431619D01*
X150758629Y-109431618D01*
X150758632Y-109431619D01*
X150758634Y-109431618D01*
X150767862Y-109430579D01*
X150767961Y-109431461D01*
X150782864Y-109429500D01*
X156116776Y-109429500D01*
X156183815Y-109449185D01*
X156192262Y-109455124D01*
X156218201Y-109475027D01*
X156230357Y-109484355D01*
X156230359Y-109484355D01*
X156230361Y-109484357D01*
X156297801Y-109512291D01*
X156365246Y-109540228D01*
X156437623Y-109549756D01*
X156509999Y-109559285D01*
X156510000Y-109559285D01*
X156510001Y-109559285D01*
X156558251Y-109552932D01*
X156654754Y-109540228D01*
X156789643Y-109484355D01*
X156905474Y-109395474D01*
X156994355Y-109279643D01*
X157050228Y-109144754D01*
X157069285Y-109000000D01*
X157050228Y-108855246D01*
X156994355Y-108720358D01*
X156905474Y-108604526D01*
X156789643Y-108515645D01*
X156789640Y-108515644D01*
X156789638Y-108515642D01*
X156654757Y-108459773D01*
X156654752Y-108459771D01*
X156510001Y-108440715D01*
X156509999Y-108440715D01*
X156365247Y-108459771D01*
X156365242Y-108459773D01*
X156231942Y-108514987D01*
X156162472Y-108522456D01*
X156099993Y-108491180D01*
X156064342Y-108431091D01*
X156061551Y-108384243D01*
X156069285Y-108325500D01*
X156050228Y-108180746D01*
X155994355Y-108045858D01*
X155905474Y-107930026D01*
X155789643Y-107841145D01*
X155789640Y-107841144D01*
X155789638Y-107841142D01*
X155654757Y-107785273D01*
X155654752Y-107785271D01*
X155510001Y-107766215D01*
X155509999Y-107766215D01*
X155365247Y-107785271D01*
X155365242Y-107785273D01*
X155231942Y-107840487D01*
X155162472Y-107847956D01*
X155099993Y-107816680D01*
X155064342Y-107756591D01*
X155061551Y-107709743D01*
X155069285Y-107651000D01*
X155050228Y-107506246D01*
X154994355Y-107371358D01*
X154905474Y-107255526D01*
X154789643Y-107166645D01*
X154789640Y-107166644D01*
X154789638Y-107166642D01*
X154654757Y-107110773D01*
X154654752Y-107110771D01*
X154510001Y-107091715D01*
X154509999Y-107091715D01*
X154365247Y-107110771D01*
X154365242Y-107110773D01*
X154231942Y-107165987D01*
X154162472Y-107173456D01*
X154099993Y-107142180D01*
X154064342Y-107082091D01*
X154061551Y-107035243D01*
X154069285Y-106976500D01*
X154050228Y-106831746D01*
X153994355Y-106696858D01*
X153905474Y-106581026D01*
X153789643Y-106492145D01*
X153789640Y-106492144D01*
X153789638Y-106492142D01*
X153654757Y-106436273D01*
X153654752Y-106436271D01*
X153510001Y-106417215D01*
X153509999Y-106417215D01*
X153365247Y-106436271D01*
X153365242Y-106436273D01*
X153231942Y-106491487D01*
X153162472Y-106498956D01*
X153099993Y-106467680D01*
X153064342Y-106407591D01*
X153061551Y-106360743D01*
X153069285Y-106302000D01*
X153050228Y-106157246D01*
X152994355Y-106022358D01*
X152905474Y-105906526D01*
X152789643Y-105817645D01*
X152789640Y-105817644D01*
X152789638Y-105817642D01*
X152654757Y-105761773D01*
X152654752Y-105761771D01*
X152510001Y-105742715D01*
X152509999Y-105742715D01*
X152365247Y-105761771D01*
X152365245Y-105761772D01*
X152230360Y-105817643D01*
X152230357Y-105817645D01*
X152192263Y-105846876D01*
X152127094Y-105872070D01*
X152116777Y-105872500D01*
X151352539Y-105872500D01*
X151285500Y-105852815D01*
X151264858Y-105836181D01*
X141181819Y-95753142D01*
X141148334Y-95691819D01*
X141145500Y-95665461D01*
X141145500Y-87216793D01*
X141165185Y-87149754D01*
X141196611Y-87116478D01*
X141317834Y-87028405D01*
X141443652Y-86888670D01*
X141537667Y-86725830D01*
X141595772Y-86547001D01*
X141615427Y-86360000D01*
X142356573Y-86360000D01*
X142376228Y-86547003D01*
X142376229Y-86547005D01*
X142434333Y-86725831D01*
X142434334Y-86725833D01*
X142461902Y-86773582D01*
X142528348Y-86888670D01*
X142572175Y-86937345D01*
X142654160Y-87028400D01*
X142654163Y-87028402D01*
X142654166Y-87028405D01*
X142746970Y-87095831D01*
X142806287Y-87138928D01*
X142872226Y-87168285D01*
X142978062Y-87215406D01*
X143161984Y-87254500D01*
X143350016Y-87254500D01*
X143533938Y-87215406D01*
X143705714Y-87138927D01*
X143857834Y-87028405D01*
X143983652Y-86888670D01*
X144077667Y-86725830D01*
X144135772Y-86547001D01*
X144155427Y-86360000D01*
X144896573Y-86360000D01*
X144916228Y-86547003D01*
X144916229Y-86547005D01*
X144974333Y-86725831D01*
X144974334Y-86725833D01*
X145001902Y-86773582D01*
X145068348Y-86888670D01*
X145112175Y-86937345D01*
X145194160Y-87028400D01*
X145194163Y-87028402D01*
X145194166Y-87028405D01*
X145286970Y-87095831D01*
X145346287Y-87138928D01*
X145412226Y-87168285D01*
X145518062Y-87215406D01*
X145701984Y-87254500D01*
X145890016Y-87254500D01*
X146073938Y-87215406D01*
X146245714Y-87138927D01*
X146397834Y-87028405D01*
X146523652Y-86888670D01*
X146617667Y-86725830D01*
X146675772Y-86547001D01*
X146695427Y-86360000D01*
X147191116Y-86360000D01*
X147210609Y-86570369D01*
X147268427Y-86773582D01*
X147362596Y-86962698D01*
X147362601Y-86962706D01*
X147369975Y-86972470D01*
X147946786Y-86395659D01*
X147960465Y-86482019D01*
X148016551Y-86592093D01*
X148103907Y-86679449D01*
X148213981Y-86735535D01*
X148300339Y-86749212D01*
X147726255Y-87323296D01*
X147726256Y-87323297D01*
X147825677Y-87384856D01*
X147825683Y-87384859D01*
X148022685Y-87461177D01*
X148230365Y-87500000D01*
X148441635Y-87500000D01*
X148649314Y-87461177D01*
X148846318Y-87384858D01*
X148846319Y-87384857D01*
X148945743Y-87323296D01*
X148371660Y-86749212D01*
X148458019Y-86735535D01*
X148568093Y-86679449D01*
X148655449Y-86592093D01*
X148711535Y-86482019D01*
X148725212Y-86395659D01*
X149302022Y-86972469D01*
X149302024Y-86972469D01*
X149309398Y-86962705D01*
X149309401Y-86962701D01*
X149403572Y-86773581D01*
X149461390Y-86570369D01*
X149480884Y-86360000D01*
X149731116Y-86360000D01*
X149750609Y-86570369D01*
X149808427Y-86773582D01*
X149902596Y-86962698D01*
X149902601Y-86962706D01*
X149909975Y-86972470D01*
X150486786Y-86395659D01*
X150500465Y-86482019D01*
X150556551Y-86592093D01*
X150643907Y-86679449D01*
X150753981Y-86735535D01*
X150840339Y-86749212D01*
X150266255Y-87323296D01*
X150266256Y-87323297D01*
X150365677Y-87384856D01*
X150365683Y-87384859D01*
X150562685Y-87461177D01*
X150770365Y-87500000D01*
X150981635Y-87500000D01*
X151189314Y-87461177D01*
X151386318Y-87384858D01*
X151386319Y-87384857D01*
X151485743Y-87323296D01*
X150911660Y-86749212D01*
X150998019Y-86735535D01*
X151108093Y-86679449D01*
X151195449Y-86592093D01*
X151251535Y-86482019D01*
X151265212Y-86395660D01*
X151842022Y-86972469D01*
X151842024Y-86972469D01*
X151849398Y-86962705D01*
X151849401Y-86962701D01*
X151943572Y-86773581D01*
X152001390Y-86570369D01*
X152020884Y-86360000D01*
X152516573Y-86360000D01*
X152536228Y-86547003D01*
X152536229Y-86547005D01*
X152594333Y-86725831D01*
X152594334Y-86725833D01*
X152621902Y-86773582D01*
X152688348Y-86888670D01*
X152732175Y-86937345D01*
X152814160Y-87028400D01*
X152814163Y-87028402D01*
X152814166Y-87028405D01*
X152906970Y-87095831D01*
X152966287Y-87138928D01*
X153032226Y-87168285D01*
X153138062Y-87215406D01*
X153321984Y-87254500D01*
X153510016Y-87254500D01*
X153693938Y-87215406D01*
X153865714Y-87138927D01*
X154017834Y-87028405D01*
X154143652Y-86888670D01*
X154237667Y-86725830D01*
X154295772Y-86547001D01*
X154315427Y-86360000D01*
X155056573Y-86360000D01*
X155076228Y-86547003D01*
X155076229Y-86547005D01*
X155134333Y-86725831D01*
X155134334Y-86725833D01*
X155161902Y-86773582D01*
X155228348Y-86888670D01*
X155272175Y-86937345D01*
X155354160Y-87028400D01*
X155354163Y-87028402D01*
X155354166Y-87028405D01*
X155446970Y-87095831D01*
X155506287Y-87138928D01*
X155572226Y-87168285D01*
X155678062Y-87215406D01*
X155861984Y-87254500D01*
X156050016Y-87254500D01*
X156233938Y-87215406D01*
X156405714Y-87138927D01*
X156557834Y-87028405D01*
X156683652Y-86888670D01*
X156777667Y-86725830D01*
X156835772Y-86547001D01*
X156855427Y-86360000D01*
X157596573Y-86360000D01*
X157616228Y-86547003D01*
X157616229Y-86547005D01*
X157674333Y-86725831D01*
X157674334Y-86725833D01*
X157701902Y-86773582D01*
X157768348Y-86888670D01*
X157812175Y-86937345D01*
X157894160Y-87028400D01*
X157894163Y-87028402D01*
X157894166Y-87028405D01*
X157986970Y-87095831D01*
X158046287Y-87138928D01*
X158112226Y-87168285D01*
X158218062Y-87215406D01*
X158401984Y-87254500D01*
X158590016Y-87254500D01*
X158773938Y-87215406D01*
X158945714Y-87138927D01*
X159097834Y-87028405D01*
X159223652Y-86888670D01*
X159317667Y-86725830D01*
X159375772Y-86547001D01*
X159395427Y-86360000D01*
X160136573Y-86360000D01*
X160156228Y-86547003D01*
X160156229Y-86547005D01*
X160214333Y-86725831D01*
X160214334Y-86725833D01*
X160241902Y-86773582D01*
X160308348Y-86888670D01*
X160352175Y-86937345D01*
X160434160Y-87028400D01*
X160434163Y-87028402D01*
X160434166Y-87028405D01*
X160526970Y-87095831D01*
X160586287Y-87138928D01*
X160652226Y-87168285D01*
X160758062Y-87215406D01*
X160941984Y-87254500D01*
X161130016Y-87254500D01*
X161313938Y-87215406D01*
X161485714Y-87138927D01*
X161637834Y-87028405D01*
X161763652Y-86888670D01*
X161857667Y-86725830D01*
X161915772Y-86547001D01*
X161935427Y-86360000D01*
X162676573Y-86360000D01*
X162696228Y-86547003D01*
X162696229Y-86547005D01*
X162754333Y-86725831D01*
X162754334Y-86725833D01*
X162781902Y-86773582D01*
X162848348Y-86888670D01*
X162892175Y-86937345D01*
X162974160Y-87028400D01*
X162974163Y-87028402D01*
X162974166Y-87028405D01*
X163066970Y-87095831D01*
X163126287Y-87138928D01*
X163192226Y-87168285D01*
X163298062Y-87215406D01*
X163481984Y-87254500D01*
X163670016Y-87254500D01*
X163853938Y-87215406D01*
X164025714Y-87138927D01*
X164177834Y-87028405D01*
X164303652Y-86888670D01*
X164397667Y-86725830D01*
X164455772Y-86547001D01*
X164475427Y-86360000D01*
X164455772Y-86172999D01*
X164397667Y-85994170D01*
X164303652Y-85831330D01*
X164236994Y-85757299D01*
X164177839Y-85691599D01*
X164177836Y-85691597D01*
X164177835Y-85691596D01*
X164177834Y-85691595D01*
X164101774Y-85636334D01*
X164025712Y-85581071D01*
X163893832Y-85522356D01*
X163853938Y-85504594D01*
X163853936Y-85504593D01*
X163670016Y-85465500D01*
X163481984Y-85465500D01*
X163298062Y-85504593D01*
X163298057Y-85504595D01*
X163126287Y-85581073D01*
X163126282Y-85581075D01*
X162974167Y-85691593D01*
X162974160Y-85691599D01*
X162848347Y-85831331D01*
X162754334Y-85994166D01*
X162754333Y-85994168D01*
X162696229Y-86172994D01*
X162696228Y-86172996D01*
X162676573Y-86360000D01*
X161935427Y-86360000D01*
X161915772Y-86172999D01*
X161857667Y-85994170D01*
X161763652Y-85831330D01*
X161696994Y-85757299D01*
X161637839Y-85691599D01*
X161637836Y-85691597D01*
X161637835Y-85691596D01*
X161637834Y-85691595D01*
X161561774Y-85636334D01*
X161485712Y-85581071D01*
X161353832Y-85522356D01*
X161313938Y-85504594D01*
X161313936Y-85504593D01*
X161130016Y-85465500D01*
X160941984Y-85465500D01*
X160758062Y-85504593D01*
X160758057Y-85504595D01*
X160586287Y-85581073D01*
X160586282Y-85581075D01*
X160434167Y-85691593D01*
X160434160Y-85691599D01*
X160308347Y-85831331D01*
X160214334Y-85994166D01*
X160214333Y-85994168D01*
X160156229Y-86172994D01*
X160156228Y-86172996D01*
X160136573Y-86360000D01*
X159395427Y-86360000D01*
X159375772Y-86172999D01*
X159317667Y-85994170D01*
X159223652Y-85831330D01*
X159156994Y-85757299D01*
X159097839Y-85691599D01*
X159097836Y-85691597D01*
X159097835Y-85691596D01*
X159097834Y-85691595D01*
X159021774Y-85636334D01*
X158945712Y-85581071D01*
X158813832Y-85522356D01*
X158773938Y-85504594D01*
X158773936Y-85504593D01*
X158590016Y-85465500D01*
X158401984Y-85465500D01*
X158218062Y-85504593D01*
X158218057Y-85504595D01*
X158046287Y-85581073D01*
X158046282Y-85581075D01*
X157894167Y-85691593D01*
X157894160Y-85691599D01*
X157768347Y-85831331D01*
X157674334Y-85994166D01*
X157674333Y-85994168D01*
X157616229Y-86172994D01*
X157616228Y-86172996D01*
X157596573Y-86360000D01*
X156855427Y-86360000D01*
X156835772Y-86172999D01*
X156777667Y-85994170D01*
X156683652Y-85831330D01*
X156616994Y-85757299D01*
X156557839Y-85691599D01*
X156557836Y-85691597D01*
X156557835Y-85691596D01*
X156557834Y-85691595D01*
X156481774Y-85636334D01*
X156405712Y-85581071D01*
X156273832Y-85522356D01*
X156233938Y-85504594D01*
X156233936Y-85504593D01*
X156050016Y-85465500D01*
X155861984Y-85465500D01*
X155678062Y-85504593D01*
X155678057Y-85504595D01*
X155506287Y-85581073D01*
X155506282Y-85581075D01*
X155354167Y-85691593D01*
X155354160Y-85691599D01*
X155228347Y-85831331D01*
X155134334Y-85994166D01*
X155134333Y-85994168D01*
X155076229Y-86172994D01*
X155076228Y-86172996D01*
X155056573Y-86360000D01*
X154315427Y-86360000D01*
X154295772Y-86172999D01*
X154237667Y-85994170D01*
X154143652Y-85831330D01*
X154076994Y-85757299D01*
X154017839Y-85691599D01*
X154017836Y-85691597D01*
X154017835Y-85691596D01*
X154017834Y-85691595D01*
X153941774Y-85636334D01*
X153865712Y-85581071D01*
X153733832Y-85522356D01*
X153693938Y-85504594D01*
X153693936Y-85504593D01*
X153510016Y-85465500D01*
X153321984Y-85465500D01*
X153138062Y-85504593D01*
X153138057Y-85504595D01*
X152966287Y-85581073D01*
X152966282Y-85581075D01*
X152814167Y-85691593D01*
X152814160Y-85691599D01*
X152688347Y-85831331D01*
X152594334Y-85994166D01*
X152594333Y-85994168D01*
X152536229Y-86172994D01*
X152536228Y-86172996D01*
X152516573Y-86360000D01*
X152020884Y-86360000D01*
X152020884Y-86359999D01*
X152001390Y-86149630D01*
X151943572Y-85946417D01*
X151849403Y-85757302D01*
X151849401Y-85757299D01*
X151842023Y-85747529D01*
X151265212Y-86324339D01*
X151251535Y-86237981D01*
X151195449Y-86127907D01*
X151108093Y-86040551D01*
X150998019Y-85984465D01*
X150911659Y-85970786D01*
X151485743Y-85396702D01*
X151485742Y-85396701D01*
X151386322Y-85335144D01*
X151386316Y-85335140D01*
X151189314Y-85258822D01*
X150981635Y-85220000D01*
X150770365Y-85220000D01*
X150562680Y-85258823D01*
X150365691Y-85335137D01*
X150365678Y-85335143D01*
X150266255Y-85396702D01*
X150840340Y-85970786D01*
X150753981Y-85984465D01*
X150643907Y-86040551D01*
X150556551Y-86127907D01*
X150500465Y-86237981D01*
X150486787Y-86324340D01*
X149909975Y-85747529D01*
X149902600Y-85757296D01*
X149808427Y-85946418D01*
X149750609Y-86149630D01*
X149731116Y-86359999D01*
X149731116Y-86360000D01*
X149480884Y-86360000D01*
X149480884Y-86359999D01*
X149461390Y-86149630D01*
X149403572Y-85946417D01*
X149309403Y-85757302D01*
X149309401Y-85757299D01*
X149302023Y-85747529D01*
X148725212Y-86324339D01*
X148711535Y-86237981D01*
X148655449Y-86127907D01*
X148568093Y-86040551D01*
X148458019Y-85984465D01*
X148371659Y-85970786D01*
X148945743Y-85396702D01*
X148945742Y-85396701D01*
X148846322Y-85335144D01*
X148846316Y-85335140D01*
X148649314Y-85258822D01*
X148441635Y-85220000D01*
X148230365Y-85220000D01*
X148022680Y-85258823D01*
X147825691Y-85335137D01*
X147825678Y-85335143D01*
X147726255Y-85396702D01*
X148300340Y-85970786D01*
X148213981Y-85984465D01*
X148103907Y-86040551D01*
X148016551Y-86127907D01*
X147960465Y-86237981D01*
X147946787Y-86324340D01*
X147369975Y-85747529D01*
X147362600Y-85757296D01*
X147268427Y-85946418D01*
X147210609Y-86149630D01*
X147191116Y-86359999D01*
X147191116Y-86360000D01*
X146695427Y-86360000D01*
X146675772Y-86172999D01*
X146617667Y-85994170D01*
X146523652Y-85831330D01*
X146456994Y-85757299D01*
X146397839Y-85691599D01*
X146397836Y-85691597D01*
X146397835Y-85691596D01*
X146397834Y-85691595D01*
X146321774Y-85636334D01*
X146245712Y-85581071D01*
X146113832Y-85522356D01*
X146073938Y-85504594D01*
X146073936Y-85504593D01*
X145890016Y-85465500D01*
X145701984Y-85465500D01*
X145518062Y-85504593D01*
X145518057Y-85504595D01*
X145346287Y-85581073D01*
X145346282Y-85581075D01*
X145194167Y-85691593D01*
X145194160Y-85691599D01*
X145068347Y-85831331D01*
X144974334Y-85994166D01*
X144974333Y-85994168D01*
X144916229Y-86172994D01*
X144916228Y-86172996D01*
X144896573Y-86360000D01*
X144155427Y-86360000D01*
X144135772Y-86172999D01*
X144077667Y-85994170D01*
X143983652Y-85831330D01*
X143916994Y-85757299D01*
X143857839Y-85691599D01*
X143857836Y-85691597D01*
X143857835Y-85691596D01*
X143857834Y-85691595D01*
X143781774Y-85636334D01*
X143705712Y-85581071D01*
X143573832Y-85522356D01*
X143533938Y-85504594D01*
X143533936Y-85504593D01*
X143350016Y-85465500D01*
X143161984Y-85465500D01*
X142978062Y-85504593D01*
X142978057Y-85504595D01*
X142806287Y-85581073D01*
X142806282Y-85581075D01*
X142654167Y-85691593D01*
X142654160Y-85691599D01*
X142528347Y-85831331D01*
X142434334Y-85994166D01*
X142434333Y-85994168D01*
X142376229Y-86172994D01*
X142376228Y-86172996D01*
X142356573Y-86360000D01*
X141615427Y-86360000D01*
X141595772Y-86172999D01*
X141537667Y-85994170D01*
X141443652Y-85831330D01*
X141376994Y-85757299D01*
X141317839Y-85691599D01*
X141317836Y-85691597D01*
X141317835Y-85691596D01*
X141317834Y-85691595D01*
X141241774Y-85636334D01*
X141165712Y-85581071D01*
X141033832Y-85522356D01*
X140993938Y-85504594D01*
X140993936Y-85504593D01*
X140810016Y-85465500D01*
X140621984Y-85465500D01*
X140438062Y-85504593D01*
X140438057Y-85504595D01*
X140266287Y-85581073D01*
X140266282Y-85581075D01*
X140114167Y-85691593D01*
X140114160Y-85691599D01*
X139988347Y-85831331D01*
X139894334Y-85994166D01*
X139894333Y-85994168D01*
X139836229Y-86172994D01*
X139836228Y-86172996D01*
X139816573Y-86360000D01*
X139836228Y-86547003D01*
X139836229Y-86547005D01*
X139894333Y-86725831D01*
X139894334Y-86725833D01*
X139921902Y-86773582D01*
X139988348Y-86888670D01*
X140032175Y-86937345D01*
X140114160Y-87028400D01*
X140114166Y-87028405D01*
X140235386Y-87116477D01*
X140278051Y-87171804D01*
X140286500Y-87216793D01*
X140286500Y-95336279D01*
X140266815Y-95403318D01*
X140214011Y-95449073D01*
X140144853Y-95459017D01*
X140081297Y-95429992D01*
X140074819Y-95423960D01*
X138641819Y-93990960D01*
X138608334Y-93929637D01*
X138605500Y-93903279D01*
X138605500Y-87216793D01*
X138625185Y-87149754D01*
X138656611Y-87116478D01*
X138777834Y-87028405D01*
X138903652Y-86888670D01*
X138997667Y-86725830D01*
X139055772Y-86547001D01*
X139075427Y-86360000D01*
X139055772Y-86172999D01*
X138997667Y-85994170D01*
X138903652Y-85831330D01*
X138836994Y-85757299D01*
X138777839Y-85691599D01*
X138777836Y-85691597D01*
X138777835Y-85691596D01*
X138777834Y-85691595D01*
X138701774Y-85636334D01*
X138625712Y-85581071D01*
X138493832Y-85522356D01*
X138453938Y-85504594D01*
X138453936Y-85504593D01*
X138270016Y-85465500D01*
X138081984Y-85465500D01*
X137898062Y-85504593D01*
X137898057Y-85504595D01*
X137726287Y-85581073D01*
X137726282Y-85581075D01*
X137574167Y-85691593D01*
X137574160Y-85691599D01*
X137448347Y-85831331D01*
X137354334Y-85994166D01*
X137354333Y-85994168D01*
X137296229Y-86172994D01*
X137296228Y-86172996D01*
X137276573Y-86360000D01*
X137296228Y-86547003D01*
X137296229Y-86547005D01*
X137354333Y-86725831D01*
X137354334Y-86725833D01*
X137381902Y-86773582D01*
X137448348Y-86888670D01*
X137492175Y-86937345D01*
X137574160Y-87028400D01*
X137574166Y-87028405D01*
X137695386Y-87116477D01*
X137738051Y-87171804D01*
X137746500Y-87216793D01*
X137746500Y-93574097D01*
X137726815Y-93641136D01*
X137674011Y-93686891D01*
X137604853Y-93696835D01*
X137541297Y-93667810D01*
X137534819Y-93661778D01*
X136101819Y-92228778D01*
X136068334Y-92167455D01*
X136065500Y-92141097D01*
X136065500Y-87216793D01*
X136085185Y-87149754D01*
X136116611Y-87116478D01*
X136237834Y-87028405D01*
X136363652Y-86888670D01*
X136457667Y-86725830D01*
X136515772Y-86547001D01*
X136535427Y-86360000D01*
X136515772Y-86172999D01*
X136457667Y-85994170D01*
X136363652Y-85831330D01*
X136296994Y-85757299D01*
X136237839Y-85691599D01*
X136237836Y-85691597D01*
X136237835Y-85691596D01*
X136237834Y-85691595D01*
X136161774Y-85636334D01*
X136085712Y-85581071D01*
X135953832Y-85522356D01*
X135913938Y-85504594D01*
X135913936Y-85504593D01*
X135730016Y-85465500D01*
X135541984Y-85465500D01*
X135358062Y-85504593D01*
X135358057Y-85504595D01*
X135186287Y-85581073D01*
X135186282Y-85581075D01*
X135034167Y-85691593D01*
X135034160Y-85691599D01*
X134908347Y-85831331D01*
X134814334Y-85994166D01*
X134814333Y-85994168D01*
X134756229Y-86172994D01*
X134756228Y-86172996D01*
X134736573Y-86360000D01*
X134756228Y-86547003D01*
X134756229Y-86547005D01*
X134814333Y-86725831D01*
X134814334Y-86725833D01*
X134841902Y-86773582D01*
X134908348Y-86888670D01*
X134952175Y-86937345D01*
X135034160Y-87028400D01*
X135034166Y-87028405D01*
X135155386Y-87116477D01*
X135198051Y-87171804D01*
X135206500Y-87216793D01*
X135206500Y-91811915D01*
X135186815Y-91878954D01*
X135134011Y-91924709D01*
X135064853Y-91934653D01*
X135001297Y-91905628D01*
X134994819Y-91899596D01*
X133561819Y-90466596D01*
X133528334Y-90405273D01*
X133525500Y-90378915D01*
X133525500Y-87216793D01*
X133545185Y-87149754D01*
X133576611Y-87116478D01*
X133697834Y-87028405D01*
X133823652Y-86888670D01*
X133917667Y-86725830D01*
X133975772Y-86547001D01*
X133995427Y-86360000D01*
X133975772Y-86172999D01*
X133917667Y-85994170D01*
X133823652Y-85831330D01*
X133756994Y-85757299D01*
X133697839Y-85691599D01*
X133697836Y-85691597D01*
X133697835Y-85691596D01*
X133697834Y-85691595D01*
X133621774Y-85636334D01*
X133545712Y-85581071D01*
X133413832Y-85522356D01*
X133373938Y-85504594D01*
X133373936Y-85504593D01*
X133190016Y-85465500D01*
X133001984Y-85465500D01*
X132818062Y-85504593D01*
X132818057Y-85504595D01*
X132646287Y-85581073D01*
X132646282Y-85581075D01*
X132494167Y-85691593D01*
X132494160Y-85691599D01*
X132368347Y-85831331D01*
X132274334Y-85994166D01*
X132274333Y-85994168D01*
X132216229Y-86172994D01*
X132216228Y-86172996D01*
X132196573Y-86360000D01*
X132216228Y-86547003D01*
X132216229Y-86547005D01*
X132274333Y-86725831D01*
X132274334Y-86725833D01*
X132301902Y-86773582D01*
X132368348Y-86888670D01*
X132412175Y-86937345D01*
X132494160Y-87028400D01*
X132494166Y-87028405D01*
X132615386Y-87116477D01*
X132658051Y-87171804D01*
X132666500Y-87216793D01*
X132666500Y-90049733D01*
X132646815Y-90116772D01*
X132594011Y-90162527D01*
X132524853Y-90172471D01*
X132461297Y-90143446D01*
X132454819Y-90137414D01*
X131021819Y-88704414D01*
X130988334Y-88643091D01*
X130985500Y-88616733D01*
X130985500Y-87216793D01*
X131005185Y-87149754D01*
X131036611Y-87116478D01*
X131157834Y-87028405D01*
X131283652Y-86888670D01*
X131377667Y-86725830D01*
X131435772Y-86547001D01*
X131455427Y-86360000D01*
X131435772Y-86172999D01*
X131377667Y-85994170D01*
X131283652Y-85831330D01*
X131216994Y-85757299D01*
X131157839Y-85691599D01*
X131157836Y-85691597D01*
X131157835Y-85691596D01*
X131157834Y-85691595D01*
X131081774Y-85636334D01*
X131005712Y-85581071D01*
X130873832Y-85522356D01*
X130833938Y-85504594D01*
X130833936Y-85504593D01*
X130650016Y-85465500D01*
X130461984Y-85465500D01*
X130278062Y-85504593D01*
X130278057Y-85504595D01*
X130106287Y-85581073D01*
X130106282Y-85581075D01*
X129954167Y-85691593D01*
X129954160Y-85691599D01*
X129828347Y-85831331D01*
X129734334Y-85994166D01*
X129734333Y-85994168D01*
X129676229Y-86172994D01*
X129676228Y-86172996D01*
X129656573Y-86360000D01*
X118185500Y-86360000D01*
X118185500Y-82495600D01*
X118205185Y-82428561D01*
X118257989Y-82382806D01*
X118309559Y-82371600D01*
X125735566Y-82375360D01*
G37*
G04 #@! TD.AperFunction*
G04 #@! TA.AperFunction,Conductor*
G36*
X187735566Y-82375360D02*
G01*
X187802592Y-82395079D01*
X187848320Y-82447906D01*
X187859500Y-82499360D01*
X187859500Y-82621963D01*
X187900045Y-82760050D01*
X187900047Y-82760053D01*
X187977857Y-82881128D01*
X188086627Y-82975377D01*
X188217543Y-83035165D01*
X188324201Y-83050500D01*
X188324204Y-83050500D01*
X188395796Y-83050500D01*
X188395799Y-83050500D01*
X188502457Y-83035165D01*
X188569954Y-83004339D01*
X188639110Y-82994396D01*
X188702666Y-83023420D01*
X188725779Y-83050094D01*
X188777855Y-83131125D01*
X188777857Y-83131128D01*
X188886627Y-83225377D01*
X189017543Y-83285165D01*
X189124201Y-83300500D01*
X189124204Y-83300500D01*
X189195796Y-83300500D01*
X189195799Y-83300500D01*
X189302457Y-83285165D01*
X189433373Y-83225377D01*
X189433382Y-83225368D01*
X189440833Y-83220582D01*
X189442456Y-83223108D01*
X189492326Y-83200320D01*
X189561487Y-83210248D01*
X189578699Y-83221310D01*
X189579167Y-83220582D01*
X189586619Y-83225370D01*
X189586627Y-83225377D01*
X189717543Y-83285165D01*
X189824201Y-83300500D01*
X189824204Y-83300500D01*
X189895796Y-83300500D01*
X189895799Y-83300500D01*
X190002457Y-83285165D01*
X190133373Y-83225377D01*
X190242143Y-83131128D01*
X190294220Y-83050094D01*
X190347021Y-83004340D01*
X190416179Y-82994396D01*
X190450047Y-83004340D01*
X190517543Y-83035165D01*
X190624201Y-83050500D01*
X190624204Y-83050500D01*
X190695796Y-83050500D01*
X190695799Y-83050500D01*
X190802457Y-83035165D01*
X190933373Y-82975377D01*
X191042143Y-82881128D01*
X191119953Y-82760053D01*
X191160500Y-82621961D01*
X191160500Y-82499500D01*
X191180185Y-82432461D01*
X191232989Y-82386706D01*
X191284500Y-82375500D01*
X226735500Y-82375500D01*
X226802539Y-82395185D01*
X226848294Y-82447989D01*
X226859500Y-82499500D01*
X226859500Y-82621963D01*
X226900045Y-82760050D01*
X226900047Y-82760053D01*
X226977857Y-82881128D01*
X227086627Y-82975377D01*
X227217543Y-83035165D01*
X227324201Y-83050500D01*
X227324204Y-83050500D01*
X227395796Y-83050500D01*
X227395799Y-83050500D01*
X227502457Y-83035165D01*
X227569954Y-83004339D01*
X227639110Y-82994396D01*
X227702666Y-83023420D01*
X227725779Y-83050094D01*
X227777855Y-83131125D01*
X227777857Y-83131128D01*
X227886627Y-83225377D01*
X228017543Y-83285165D01*
X228124201Y-83300500D01*
X228124204Y-83300500D01*
X228195796Y-83300500D01*
X228195799Y-83300500D01*
X228302457Y-83285165D01*
X228433373Y-83225377D01*
X228433382Y-83225368D01*
X228440833Y-83220582D01*
X228442456Y-83223108D01*
X228492326Y-83200320D01*
X228561487Y-83210248D01*
X228578699Y-83221310D01*
X228579167Y-83220582D01*
X228586619Y-83225370D01*
X228586627Y-83225377D01*
X228717543Y-83285165D01*
X228824201Y-83300500D01*
X228824204Y-83300500D01*
X228895796Y-83300500D01*
X228895799Y-83300500D01*
X229002457Y-83285165D01*
X229133373Y-83225377D01*
X229242143Y-83131128D01*
X229294220Y-83050094D01*
X229347021Y-83004340D01*
X229416179Y-82994396D01*
X229450047Y-83004340D01*
X229517543Y-83035165D01*
X229624201Y-83050500D01*
X229624204Y-83050500D01*
X229695796Y-83050500D01*
X229695799Y-83050500D01*
X229802457Y-83035165D01*
X229933373Y-82975377D01*
X230042143Y-82881128D01*
X230119953Y-82760053D01*
X230160500Y-82621961D01*
X230160500Y-82499363D01*
X230180185Y-82432324D01*
X230232989Y-82386569D01*
X230284437Y-82375363D01*
X233213275Y-82373900D01*
X233280323Y-82393551D01*
X233326105Y-82446332D01*
X233336083Y-82515486D01*
X233307089Y-82579056D01*
X233252930Y-82615409D01*
X233185480Y-82638136D01*
X233185477Y-82638137D01*
X233185466Y-82638141D01*
X232845514Y-82795420D01*
X232845501Y-82795427D01*
X232578399Y-82956137D01*
X232524532Y-82988549D01*
X232496244Y-83010053D01*
X232226328Y-83215236D01*
X232226319Y-83215244D01*
X231954364Y-83472853D01*
X231711856Y-83758355D01*
X231501647Y-84068388D01*
X231326173Y-84399369D01*
X231326171Y-84399372D01*
X231187522Y-84747356D01*
X231187521Y-84747358D01*
X231087311Y-85108285D01*
X231087306Y-85108306D01*
X231026707Y-85477939D01*
X231026706Y-85477956D01*
X231006426Y-85851997D01*
X231006426Y-85852002D01*
X231026706Y-86226043D01*
X231026707Y-86226060D01*
X231087306Y-86595693D01*
X231087311Y-86595714D01*
X231187521Y-86956641D01*
X231187522Y-86956643D01*
X231326171Y-87304627D01*
X231326173Y-87304630D01*
X231326176Y-87304637D01*
X231501639Y-87635597D01*
X231501641Y-87635600D01*
X231501647Y-87635611D01*
X231711856Y-87945644D01*
X231711857Y-87945645D01*
X231954365Y-88231147D01*
X232226319Y-88488756D01*
X232524532Y-88715451D01*
X232845506Y-88908575D01*
X232845510Y-88908576D01*
X232845514Y-88908579D01*
X233002927Y-88981406D01*
X233185480Y-89065864D01*
X233540466Y-89185473D01*
X233906303Y-89265999D01*
X234278702Y-89306500D01*
X234278708Y-89306500D01*
X234653292Y-89306500D01*
X234653298Y-89306500D01*
X235025697Y-89265999D01*
X235391534Y-89185473D01*
X235746520Y-89065864D01*
X236086494Y-88908575D01*
X236407468Y-88715451D01*
X236705681Y-88488756D01*
X236977635Y-88231147D01*
X237220143Y-87945645D01*
X237430361Y-87635597D01*
X237605824Y-87304637D01*
X237707307Y-87049933D01*
X237750407Y-86994942D01*
X237816396Y-86971981D01*
X237884323Y-86988342D01*
X237932622Y-87038830D01*
X237946500Y-87095831D01*
X237946500Y-126800500D01*
X237926815Y-126867539D01*
X237874011Y-126913294D01*
X237822500Y-126924500D01*
X235786181Y-126924500D01*
X235719142Y-126904815D01*
X235673387Y-126852011D01*
X235663443Y-126782853D01*
X235692468Y-126719297D01*
X235707516Y-126704647D01*
X235766357Y-126656357D01*
X235899382Y-126494266D01*
X235998229Y-126309338D01*
X236059098Y-126108679D01*
X236079651Y-125900000D01*
X236059098Y-125691321D01*
X235998229Y-125490662D01*
X235899382Y-125305734D01*
X235835268Y-125227611D01*
X235766357Y-125143642D01*
X235604269Y-125010620D01*
X235604267Y-125010619D01*
X235604266Y-125010618D01*
X235419338Y-124911771D01*
X235319008Y-124881336D01*
X235218677Y-124850901D01*
X235010000Y-124830349D01*
X234801322Y-124850901D01*
X234600659Y-124911772D01*
X234415730Y-125010620D01*
X234253642Y-125143642D01*
X234120620Y-125305730D01*
X234021772Y-125490659D01*
X233960901Y-125691322D01*
X233940349Y-125900000D01*
X233960901Y-126108677D01*
X234021771Y-126309338D01*
X234120620Y-126494269D01*
X234253642Y-126656357D01*
X234312484Y-126704647D01*
X234351818Y-126762392D01*
X234353689Y-126832237D01*
X234317502Y-126892005D01*
X234254746Y-126922721D01*
X234233819Y-126924500D01*
X230284500Y-126924500D01*
X230217461Y-126904815D01*
X230171706Y-126852011D01*
X230160500Y-126800500D01*
X230160500Y-126678038D01*
X230160499Y-126678036D01*
X230119954Y-126539949D01*
X230119953Y-126539947D01*
X230042143Y-126418872D01*
X229933373Y-126324623D01*
X229895772Y-126307451D01*
X229802456Y-126264834D01*
X229722611Y-126253355D01*
X229695799Y-126249500D01*
X229624201Y-126249500D01*
X229610794Y-126251427D01*
X229517543Y-126264834D01*
X229450044Y-126295660D01*
X229380886Y-126305603D01*
X229317330Y-126276577D01*
X229294221Y-126249908D01*
X229242143Y-126168872D01*
X229133373Y-126074623D01*
X229133371Y-126074622D01*
X229002456Y-126014834D01*
X228922611Y-126003355D01*
X228895799Y-125999500D01*
X228824201Y-125999500D01*
X228810794Y-126001427D01*
X228717543Y-126014834D01*
X228586628Y-126074622D01*
X228579166Y-126079418D01*
X228577544Y-126076895D01*
X228527645Y-126099683D01*
X228458487Y-126089739D01*
X228441299Y-126078693D01*
X228440834Y-126079418D01*
X228433371Y-126074622D01*
X228302456Y-126014834D01*
X228222611Y-126003355D01*
X228195799Y-125999500D01*
X228124201Y-125999500D01*
X228110794Y-126001427D01*
X228017543Y-126014834D01*
X227886628Y-126074622D01*
X227886626Y-126074623D01*
X227777855Y-126168874D01*
X227725779Y-126249905D01*
X227672975Y-126295660D01*
X227603816Y-126305603D01*
X227569953Y-126295659D01*
X227502458Y-126264835D01*
X227466904Y-126259723D01*
X227395799Y-126249500D01*
X227324201Y-126249500D01*
X227310794Y-126251427D01*
X227217543Y-126264834D01*
X227086628Y-126324622D01*
X227086626Y-126324623D01*
X226977856Y-126418873D01*
X226900045Y-126539949D01*
X226859500Y-126678036D01*
X226859500Y-126800500D01*
X226839815Y-126867539D01*
X226787011Y-126913294D01*
X226735500Y-126924500D01*
X221309500Y-126924500D01*
X221242461Y-126904815D01*
X221196706Y-126852011D01*
X221185500Y-126800500D01*
X221185500Y-124460000D01*
X221891116Y-124460000D01*
X221910609Y-124670369D01*
X221968427Y-124873582D01*
X222062596Y-125062698D01*
X222062601Y-125062706D01*
X222069975Y-125072470D01*
X222646786Y-124495659D01*
X222660465Y-124582019D01*
X222716551Y-124692093D01*
X222803907Y-124779449D01*
X222913981Y-124835535D01*
X223000339Y-124849212D01*
X222426255Y-125423296D01*
X222426256Y-125423297D01*
X222525677Y-125484856D01*
X222525683Y-125484859D01*
X222722685Y-125561177D01*
X222930365Y-125600000D01*
X223141635Y-125600000D01*
X223349314Y-125561177D01*
X223546318Y-125484858D01*
X223546319Y-125484857D01*
X223645743Y-125423296D01*
X223071660Y-124849212D01*
X223158019Y-124835535D01*
X223268093Y-124779449D01*
X223355449Y-124692093D01*
X223411535Y-124582019D01*
X223425212Y-124495659D01*
X224002022Y-125072469D01*
X224002024Y-125072469D01*
X224009398Y-125062705D01*
X224009401Y-125062701D01*
X224103572Y-124873581D01*
X224161390Y-124670369D01*
X224180884Y-124460000D01*
X224676573Y-124460000D01*
X224696228Y-124647003D01*
X224696229Y-124647005D01*
X224754333Y-124825831D01*
X224754334Y-124825833D01*
X224803951Y-124911772D01*
X224848348Y-124988670D01*
X224868112Y-125010620D01*
X224974160Y-125128400D01*
X224974163Y-125128402D01*
X224974166Y-125128405D01*
X225088256Y-125211296D01*
X225126287Y-125238928D01*
X225192226Y-125268285D01*
X225298062Y-125315406D01*
X225481984Y-125354500D01*
X225670016Y-125354500D01*
X225853938Y-125315406D01*
X226025714Y-125238927D01*
X226177834Y-125128405D01*
X226303652Y-124988670D01*
X226397667Y-124825830D01*
X226455772Y-124647001D01*
X226475427Y-124460000D01*
X226455772Y-124272999D01*
X226397667Y-124094170D01*
X226303652Y-123931330D01*
X226236994Y-123857299D01*
X226177839Y-123791599D01*
X226177836Y-123791597D01*
X226177835Y-123791596D01*
X226177834Y-123791595D01*
X226101774Y-123736334D01*
X226025712Y-123681071D01*
X225863113Y-123608679D01*
X225853938Y-123604594D01*
X225853936Y-123604593D01*
X225670016Y-123565500D01*
X225481984Y-123565500D01*
X225298062Y-123604593D01*
X225298057Y-123604595D01*
X225126287Y-123681073D01*
X225126282Y-123681075D01*
X224974167Y-123791593D01*
X224974160Y-123791599D01*
X224848347Y-123931331D01*
X224754334Y-124094166D01*
X224754333Y-124094168D01*
X224696229Y-124272994D01*
X224696228Y-124272996D01*
X224676573Y-124460000D01*
X224180884Y-124460000D01*
X224180884Y-124459999D01*
X224161390Y-124249630D01*
X224103572Y-124046417D01*
X224009403Y-123857302D01*
X224009401Y-123857299D01*
X224002023Y-123847529D01*
X223425212Y-124424339D01*
X223411535Y-124337981D01*
X223355449Y-124227907D01*
X223268093Y-124140551D01*
X223158019Y-124084465D01*
X223071659Y-124070786D01*
X223645743Y-123496702D01*
X223645742Y-123496701D01*
X223546322Y-123435144D01*
X223546316Y-123435140D01*
X223455608Y-123400000D01*
X228940349Y-123400000D01*
X228960901Y-123608677D01*
X228960902Y-123608679D01*
X229016389Y-123791597D01*
X229021772Y-123809340D01*
X229120620Y-123994269D01*
X229253642Y-124156357D01*
X229395771Y-124272999D01*
X229415734Y-124289382D01*
X229600662Y-124388229D01*
X229801321Y-124449098D01*
X230010000Y-124469651D01*
X230218679Y-124449098D01*
X230419338Y-124388229D01*
X230604266Y-124289382D01*
X230766357Y-124156357D01*
X230899382Y-123994266D01*
X230998229Y-123809338D01*
X231059098Y-123608679D01*
X231079651Y-123400000D01*
X231059098Y-123191321D01*
X230998229Y-122990662D01*
X230899382Y-122805734D01*
X230899379Y-122805730D01*
X230766357Y-122643642D01*
X230604269Y-122510620D01*
X230604267Y-122510619D01*
X230604266Y-122510618D01*
X230419338Y-122411771D01*
X230319008Y-122381336D01*
X230218677Y-122350901D01*
X230010000Y-122330349D01*
X229801322Y-122350901D01*
X229600659Y-122411772D01*
X229415730Y-122510620D01*
X229253642Y-122643642D01*
X229120620Y-122805730D01*
X229021772Y-122990659D01*
X228960901Y-123191322D01*
X228940349Y-123400000D01*
X223455608Y-123400000D01*
X223349314Y-123358822D01*
X223141635Y-123320000D01*
X222930365Y-123320000D01*
X222722680Y-123358823D01*
X222525691Y-123435137D01*
X222525678Y-123435143D01*
X222426255Y-123496702D01*
X223000340Y-124070786D01*
X222913981Y-124084465D01*
X222803907Y-124140551D01*
X222716551Y-124227907D01*
X222660465Y-124337981D01*
X222646787Y-124424340D01*
X222069975Y-123847529D01*
X222062600Y-123857296D01*
X221968427Y-124046418D01*
X221910609Y-124249630D01*
X221891116Y-124459999D01*
X221891116Y-124460000D01*
X221185500Y-124460000D01*
X221185500Y-120900000D01*
X233940349Y-120900000D01*
X233960901Y-121108677D01*
X234021772Y-121309340D01*
X234120620Y-121494269D01*
X234253642Y-121656357D01*
X234415730Y-121789379D01*
X234415734Y-121789382D01*
X234600662Y-121888229D01*
X234801321Y-121949098D01*
X235010000Y-121969651D01*
X235218679Y-121949098D01*
X235419338Y-121888229D01*
X235604266Y-121789382D01*
X235766357Y-121656357D01*
X235899382Y-121494266D01*
X235998229Y-121309338D01*
X236059098Y-121108679D01*
X236079651Y-120900000D01*
X236059098Y-120691321D01*
X235998229Y-120490662D01*
X235899382Y-120305734D01*
X235899379Y-120305730D01*
X235766357Y-120143642D01*
X235604269Y-120010620D01*
X235604267Y-120010619D01*
X235604266Y-120010618D01*
X235419338Y-119911771D01*
X235319008Y-119881336D01*
X235218677Y-119850901D01*
X235010000Y-119830349D01*
X234801322Y-119850901D01*
X234600659Y-119911772D01*
X234415730Y-120010620D01*
X234253642Y-120143642D01*
X234120620Y-120305730D01*
X234021772Y-120490659D01*
X233960901Y-120691322D01*
X233940349Y-120900000D01*
X221185500Y-120900000D01*
X221185500Y-119045352D01*
X221187384Y-119023818D01*
X221189122Y-119013955D01*
X221189124Y-119013952D01*
X221187384Y-119004083D01*
X221186218Y-118990761D01*
X221184781Y-118982611D01*
X221181322Y-118969699D01*
X221179581Y-118959829D01*
X221179581Y-118959828D01*
X221179579Y-118959827D01*
X221176061Y-118953733D01*
X221171549Y-118948355D01*
X221162866Y-118943342D01*
X221145161Y-118930945D01*
X221137480Y-118924500D01*
X221130879Y-118922097D01*
X221123952Y-118920876D01*
X221123951Y-118920876D01*
X221120217Y-118921534D01*
X221114081Y-118922616D01*
X221092552Y-118924500D01*
X210555352Y-118924500D01*
X210533818Y-118922616D01*
X210523952Y-118920876D01*
X210523951Y-118920876D01*
X210520217Y-118921534D01*
X210514081Y-118922616D01*
X210500767Y-118923781D01*
X210492620Y-118925217D01*
X210479711Y-118928675D01*
X210469827Y-118930418D01*
X210463740Y-118933932D01*
X210458354Y-118938452D01*
X210453338Y-118947139D01*
X210440949Y-118964832D01*
X210434500Y-118972517D01*
X210432098Y-118979118D01*
X210430876Y-118986048D01*
X210432616Y-118995915D01*
X210434500Y-119017447D01*
X210434500Y-126800500D01*
X210414815Y-126867539D01*
X210362011Y-126913294D01*
X210310500Y-126924500D01*
X191284500Y-126924500D01*
X191217461Y-126904815D01*
X191171706Y-126852011D01*
X191160500Y-126800500D01*
X191160500Y-126678038D01*
X191160499Y-126678036D01*
X191119954Y-126539949D01*
X191119953Y-126539947D01*
X191042143Y-126418872D01*
X190933373Y-126324623D01*
X190895772Y-126307451D01*
X190802456Y-126264834D01*
X190722611Y-126253355D01*
X190695799Y-126249500D01*
X190624201Y-126249500D01*
X190610794Y-126251427D01*
X190517543Y-126264834D01*
X190450044Y-126295660D01*
X190380886Y-126305603D01*
X190317330Y-126276577D01*
X190294221Y-126249908D01*
X190242143Y-126168872D01*
X190133373Y-126074623D01*
X190133371Y-126074622D01*
X190002456Y-126014834D01*
X189922611Y-126003355D01*
X189895799Y-125999500D01*
X189824201Y-125999500D01*
X189810794Y-126001427D01*
X189717543Y-126014834D01*
X189586628Y-126074622D01*
X189579166Y-126079418D01*
X189577544Y-126076895D01*
X189527645Y-126099683D01*
X189458487Y-126089739D01*
X189441299Y-126078693D01*
X189440834Y-126079418D01*
X189433371Y-126074622D01*
X189302456Y-126014834D01*
X189222611Y-126003355D01*
X189195799Y-125999500D01*
X189124201Y-125999500D01*
X189110794Y-126001427D01*
X189017543Y-126014834D01*
X188886628Y-126074622D01*
X188886626Y-126074623D01*
X188777855Y-126168874D01*
X188725779Y-126249905D01*
X188672975Y-126295660D01*
X188603816Y-126305603D01*
X188569953Y-126295659D01*
X188502458Y-126264835D01*
X188466904Y-126259723D01*
X188395799Y-126249500D01*
X188324201Y-126249500D01*
X188310794Y-126251427D01*
X188217543Y-126264834D01*
X188086628Y-126324622D01*
X188086626Y-126324623D01*
X187977856Y-126418873D01*
X187900045Y-126539949D01*
X187859500Y-126678036D01*
X187859500Y-126800500D01*
X187839815Y-126867539D01*
X187787011Y-126913294D01*
X187735500Y-126924500D01*
X184911539Y-126924500D01*
X184844500Y-126904815D01*
X184798745Y-126852011D01*
X184788801Y-126782853D01*
X184817826Y-126719297D01*
X184871944Y-126682991D01*
X184946520Y-126657864D01*
X185286494Y-126500575D01*
X185607468Y-126307451D01*
X185905681Y-126080756D01*
X186177635Y-125823147D01*
X186420143Y-125537645D01*
X186577383Y-125305734D01*
X186630352Y-125227611D01*
X186630353Y-125227607D01*
X186630361Y-125227597D01*
X186805824Y-124896637D01*
X186944476Y-124548647D01*
X186966410Y-124469650D01*
X186969089Y-124460000D01*
X191656573Y-124460000D01*
X191676228Y-124647003D01*
X191676229Y-124647005D01*
X191734333Y-124825831D01*
X191734334Y-124825833D01*
X191783951Y-124911772D01*
X191828348Y-124988670D01*
X191848112Y-125010620D01*
X191954160Y-125128400D01*
X191954163Y-125128402D01*
X191954166Y-125128405D01*
X192068256Y-125211296D01*
X192106287Y-125238928D01*
X192172226Y-125268285D01*
X192278062Y-125315406D01*
X192461984Y-125354500D01*
X192650016Y-125354500D01*
X192833938Y-125315406D01*
X193005714Y-125238927D01*
X193157834Y-125128405D01*
X193283652Y-124988670D01*
X193377667Y-124825830D01*
X193435772Y-124647001D01*
X193455427Y-124460000D01*
X193951116Y-124460000D01*
X193970609Y-124670369D01*
X194028427Y-124873582D01*
X194122596Y-125062698D01*
X194122601Y-125062706D01*
X194129975Y-125072470D01*
X194706786Y-124495659D01*
X194720465Y-124582019D01*
X194776551Y-124692093D01*
X194863907Y-124779449D01*
X194973981Y-124835535D01*
X195060339Y-124849212D01*
X194486255Y-125423296D01*
X194486256Y-125423297D01*
X194585677Y-125484856D01*
X194585683Y-125484859D01*
X194782685Y-125561177D01*
X194990365Y-125600000D01*
X195201635Y-125600000D01*
X195409314Y-125561177D01*
X195606318Y-125484858D01*
X195606319Y-125484857D01*
X195705743Y-125423296D01*
X195131660Y-124849212D01*
X195218019Y-124835535D01*
X195328093Y-124779449D01*
X195415449Y-124692093D01*
X195471535Y-124582019D01*
X195485212Y-124495660D01*
X196062022Y-125072469D01*
X196062024Y-125072469D01*
X196069398Y-125062705D01*
X196069401Y-125062701D01*
X196163572Y-124873581D01*
X196221390Y-124670369D01*
X196240884Y-124460000D01*
X196240884Y-124459999D01*
X196221390Y-124249630D01*
X196163572Y-124046417D01*
X196069403Y-123857302D01*
X196069401Y-123857299D01*
X196062023Y-123847529D01*
X195485212Y-124424339D01*
X195471535Y-124337981D01*
X195415449Y-124227907D01*
X195328093Y-124140551D01*
X195218019Y-124084465D01*
X195131659Y-124070786D01*
X195705743Y-123496702D01*
X195705742Y-123496701D01*
X195606322Y-123435144D01*
X195606316Y-123435140D01*
X195409314Y-123358822D01*
X195201635Y-123320000D01*
X194990365Y-123320000D01*
X194782680Y-123358823D01*
X194585691Y-123435137D01*
X194585678Y-123435143D01*
X194486255Y-123496702D01*
X195060340Y-124070786D01*
X194973981Y-124084465D01*
X194863907Y-124140551D01*
X194776551Y-124227907D01*
X194720465Y-124337981D01*
X194706787Y-124424340D01*
X194129975Y-123847529D01*
X194122600Y-123857296D01*
X194028427Y-124046418D01*
X193970609Y-124249630D01*
X193951116Y-124459999D01*
X193951116Y-124460000D01*
X193455427Y-124460000D01*
X193435772Y-124272999D01*
X193377667Y-124094170D01*
X193283652Y-123931330D01*
X193216994Y-123857299D01*
X193157839Y-123791599D01*
X193157836Y-123791597D01*
X193157835Y-123791596D01*
X193157834Y-123791595D01*
X193081774Y-123736334D01*
X193005712Y-123681071D01*
X192843113Y-123608679D01*
X192833938Y-123604594D01*
X192833936Y-123604593D01*
X192650016Y-123565500D01*
X192461984Y-123565500D01*
X192278062Y-123604593D01*
X192278057Y-123604595D01*
X192106287Y-123681073D01*
X192106282Y-123681075D01*
X191954167Y-123791593D01*
X191954160Y-123791599D01*
X191828347Y-123931331D01*
X191734334Y-124094166D01*
X191734333Y-124094168D01*
X191676229Y-124272994D01*
X191676228Y-124272996D01*
X191656573Y-124460000D01*
X186969089Y-124460000D01*
X187002967Y-124337981D01*
X187044691Y-124187706D01*
X187086722Y-123931330D01*
X187105292Y-123818060D01*
X187105292Y-123818057D01*
X187105294Y-123818046D01*
X187125574Y-123444000D01*
X187125093Y-123435137D01*
X187111874Y-123191321D01*
X187105294Y-123069954D01*
X187092294Y-122990659D01*
X187044693Y-122700306D01*
X187044692Y-122700305D01*
X187044691Y-122700294D01*
X186947683Y-122350902D01*
X186944478Y-122339358D01*
X186944477Y-122339356D01*
X186805828Y-121991372D01*
X186805826Y-121991369D01*
X186805824Y-121991363D01*
X186630361Y-121660403D01*
X186630356Y-121660395D01*
X186630352Y-121660388D01*
X186420143Y-121350355D01*
X186177635Y-121064853D01*
X185905681Y-120807244D01*
X185905674Y-120807238D01*
X185905671Y-120807236D01*
X185834933Y-120753463D01*
X185607468Y-120580549D01*
X185394229Y-120452247D01*
X185286498Y-120387427D01*
X185286485Y-120387420D01*
X184946530Y-120230140D01*
X184946525Y-120230138D01*
X184946520Y-120230136D01*
X184689816Y-120143642D01*
X184591533Y-120110526D01*
X184225696Y-120030000D01*
X183853299Y-119989500D01*
X183853298Y-119989500D01*
X183478702Y-119989500D01*
X183478700Y-119989500D01*
X183106303Y-120030000D01*
X182740466Y-120110526D01*
X182466052Y-120202987D01*
X182385480Y-120230136D01*
X182385477Y-120230137D01*
X182385469Y-120230140D01*
X182045514Y-120387420D01*
X182045501Y-120387427D01*
X181778399Y-120548137D01*
X181724532Y-120580549D01*
X181632100Y-120650813D01*
X181426328Y-120807236D01*
X181426319Y-120807244D01*
X181154364Y-121064853D01*
X180911856Y-121350355D01*
X180701647Y-121660388D01*
X180701639Y-121660402D01*
X180701639Y-121660403D01*
X180537688Y-121969650D01*
X180526173Y-121991369D01*
X180526171Y-121991372D01*
X180424693Y-122246065D01*
X180381593Y-122301057D01*
X180315603Y-122324018D01*
X180247676Y-122307657D01*
X180199378Y-122257169D01*
X180185500Y-122200168D01*
X180185500Y-86360000D01*
X191656573Y-86360000D01*
X191676228Y-86547003D01*
X191676229Y-86547005D01*
X191734333Y-86725831D01*
X191734334Y-86725833D01*
X191761902Y-86773582D01*
X191828348Y-86888670D01*
X191872175Y-86937345D01*
X191954160Y-87028400D01*
X191954166Y-87028405D01*
X192075386Y-87116477D01*
X192118051Y-87171804D01*
X192126500Y-87216793D01*
X192126500Y-88818396D01*
X192126110Y-88825344D01*
X192121951Y-88862240D01*
X192132497Y-88917972D01*
X192140946Y-88974026D01*
X192143349Y-88981819D01*
X192146020Y-88989452D01*
X192172517Y-89039587D01*
X192197121Y-89090679D01*
X192201683Y-89097369D01*
X192206521Y-89103924D01*
X192206522Y-89103926D01*
X192246615Y-89144019D01*
X192285079Y-89185473D01*
X192285189Y-89185591D01*
X192292453Y-89191384D01*
X192291899Y-89192078D01*
X192303825Y-89201229D01*
X212386780Y-109284185D01*
X212391417Y-109289374D01*
X212414566Y-109318402D01*
X212461423Y-109350348D01*
X212507042Y-109384017D01*
X212514220Y-109387811D01*
X212521539Y-109391335D01*
X212521542Y-109391337D01*
X212575734Y-109408053D01*
X212629249Y-109426779D01*
X212629251Y-109426779D01*
X212637249Y-109428292D01*
X212645262Y-109429500D01*
X212645263Y-109429500D01*
X212701987Y-109429500D01*
X212758629Y-109431619D01*
X212758629Y-109431618D01*
X212758632Y-109431619D01*
X212758634Y-109431618D01*
X212767862Y-109430579D01*
X212767961Y-109431461D01*
X212782864Y-109429500D01*
X218116776Y-109429500D01*
X218183815Y-109449185D01*
X218192262Y-109455124D01*
X218218201Y-109475027D01*
X218230357Y-109484355D01*
X218230359Y-109484355D01*
X218230361Y-109484357D01*
X218297801Y-109512291D01*
X218365246Y-109540228D01*
X218437623Y-109549756D01*
X218509999Y-109559285D01*
X218510000Y-109559285D01*
X218510001Y-109559285D01*
X218558251Y-109552932D01*
X218654754Y-109540228D01*
X218789643Y-109484355D01*
X218905474Y-109395474D01*
X218994355Y-109279643D01*
X219050228Y-109144754D01*
X219069285Y-109000000D01*
X219050228Y-108855246D01*
X218994355Y-108720358D01*
X218905474Y-108604526D01*
X218789643Y-108515645D01*
X218789640Y-108515644D01*
X218789638Y-108515642D01*
X218654757Y-108459773D01*
X218654752Y-108459771D01*
X218510001Y-108440715D01*
X218509999Y-108440715D01*
X218365247Y-108459771D01*
X218365242Y-108459773D01*
X218231942Y-108514987D01*
X218162472Y-108522456D01*
X218099993Y-108491180D01*
X218064342Y-108431091D01*
X218061551Y-108384243D01*
X218069285Y-108325500D01*
X218050228Y-108180746D01*
X217994355Y-108045858D01*
X217905474Y-107930026D01*
X217789643Y-107841145D01*
X217789640Y-107841144D01*
X217789638Y-107841142D01*
X217654757Y-107785273D01*
X217654752Y-107785271D01*
X217510001Y-107766215D01*
X217509999Y-107766215D01*
X217365247Y-107785271D01*
X217365242Y-107785273D01*
X217231942Y-107840487D01*
X217162472Y-107847956D01*
X217099993Y-107816680D01*
X217064342Y-107756591D01*
X217061551Y-107709743D01*
X217069285Y-107651000D01*
X217050228Y-107506246D01*
X216994355Y-107371358D01*
X216905474Y-107255526D01*
X216789643Y-107166645D01*
X216789640Y-107166644D01*
X216789638Y-107166642D01*
X216654757Y-107110773D01*
X216654752Y-107110771D01*
X216510001Y-107091715D01*
X216509999Y-107091715D01*
X216365247Y-107110771D01*
X216365242Y-107110773D01*
X216231942Y-107165987D01*
X216162472Y-107173456D01*
X216099993Y-107142180D01*
X216064342Y-107082091D01*
X216061551Y-107035243D01*
X216069285Y-106976500D01*
X216050228Y-106831746D01*
X215994355Y-106696858D01*
X215905474Y-106581026D01*
X215789643Y-106492145D01*
X215789640Y-106492144D01*
X215789638Y-106492142D01*
X215654757Y-106436273D01*
X215654752Y-106436271D01*
X215510001Y-106417215D01*
X215509999Y-106417215D01*
X215365247Y-106436271D01*
X215365242Y-106436273D01*
X215231942Y-106491487D01*
X215162472Y-106498956D01*
X215099993Y-106467680D01*
X215064342Y-106407591D01*
X215061551Y-106360743D01*
X215069285Y-106302000D01*
X215050228Y-106157246D01*
X214994355Y-106022358D01*
X214905474Y-105906526D01*
X214789643Y-105817645D01*
X214789640Y-105817644D01*
X214789638Y-105817642D01*
X214654757Y-105761773D01*
X214654752Y-105761771D01*
X214510001Y-105742715D01*
X214509999Y-105742715D01*
X214365247Y-105761771D01*
X214365245Y-105761772D01*
X214230360Y-105817643D01*
X214230357Y-105817645D01*
X214192263Y-105846876D01*
X214127094Y-105872070D01*
X214116777Y-105872500D01*
X213352539Y-105872500D01*
X213285500Y-105852815D01*
X213264858Y-105836181D01*
X203181819Y-95753142D01*
X203148334Y-95691819D01*
X203145500Y-95665461D01*
X203145500Y-87216793D01*
X203165185Y-87149754D01*
X203196611Y-87116478D01*
X203317834Y-87028405D01*
X203443652Y-86888670D01*
X203537667Y-86725830D01*
X203595772Y-86547001D01*
X203615427Y-86360000D01*
X204356573Y-86360000D01*
X204376228Y-86547003D01*
X204376229Y-86547005D01*
X204434333Y-86725831D01*
X204434334Y-86725833D01*
X204461902Y-86773582D01*
X204528348Y-86888670D01*
X204572175Y-86937345D01*
X204654160Y-87028400D01*
X204654163Y-87028402D01*
X204654166Y-87028405D01*
X204746970Y-87095831D01*
X204806287Y-87138928D01*
X204872226Y-87168285D01*
X204978062Y-87215406D01*
X205161984Y-87254500D01*
X205350016Y-87254500D01*
X205533938Y-87215406D01*
X205705714Y-87138927D01*
X205857834Y-87028405D01*
X205983652Y-86888670D01*
X206077667Y-86725830D01*
X206135772Y-86547001D01*
X206155427Y-86360000D01*
X206896573Y-86360000D01*
X206916228Y-86547003D01*
X206916229Y-86547005D01*
X206974333Y-86725831D01*
X206974334Y-86725833D01*
X207001902Y-86773582D01*
X207068348Y-86888670D01*
X207112175Y-86937345D01*
X207194160Y-87028400D01*
X207194163Y-87028402D01*
X207194166Y-87028405D01*
X207286970Y-87095831D01*
X207346287Y-87138928D01*
X207412226Y-87168285D01*
X207518062Y-87215406D01*
X207701984Y-87254500D01*
X207890016Y-87254500D01*
X208073938Y-87215406D01*
X208245714Y-87138927D01*
X208397834Y-87028405D01*
X208523652Y-86888670D01*
X208617667Y-86725830D01*
X208675772Y-86547001D01*
X208695427Y-86360000D01*
X209191116Y-86360000D01*
X209210609Y-86570369D01*
X209268427Y-86773582D01*
X209362596Y-86962698D01*
X209362601Y-86962706D01*
X209369975Y-86972470D01*
X209946786Y-86395659D01*
X209960465Y-86482019D01*
X210016551Y-86592093D01*
X210103907Y-86679449D01*
X210213981Y-86735535D01*
X210300339Y-86749212D01*
X209726255Y-87323296D01*
X209726256Y-87323297D01*
X209825677Y-87384856D01*
X209825683Y-87384859D01*
X210022685Y-87461177D01*
X210230365Y-87500000D01*
X210441635Y-87500000D01*
X210649314Y-87461177D01*
X210846318Y-87384858D01*
X210846319Y-87384857D01*
X210945743Y-87323296D01*
X210371660Y-86749212D01*
X210458019Y-86735535D01*
X210568093Y-86679449D01*
X210655449Y-86592093D01*
X210711535Y-86482019D01*
X210725212Y-86395660D01*
X211302022Y-86972469D01*
X211302024Y-86972469D01*
X211309398Y-86962705D01*
X211309401Y-86962701D01*
X211403572Y-86773581D01*
X211461390Y-86570369D01*
X211480884Y-86360000D01*
X211731116Y-86360000D01*
X211750609Y-86570369D01*
X211808427Y-86773582D01*
X211902596Y-86962698D01*
X211902601Y-86962706D01*
X211909975Y-86972470D01*
X212486786Y-86395659D01*
X212500465Y-86482019D01*
X212556551Y-86592093D01*
X212643907Y-86679449D01*
X212753981Y-86735535D01*
X212840339Y-86749212D01*
X212266255Y-87323296D01*
X212266256Y-87323297D01*
X212365677Y-87384856D01*
X212365683Y-87384859D01*
X212562685Y-87461177D01*
X212770365Y-87500000D01*
X212981635Y-87500000D01*
X213189314Y-87461177D01*
X213386318Y-87384858D01*
X213386319Y-87384857D01*
X213485743Y-87323296D01*
X212911660Y-86749212D01*
X212998019Y-86735535D01*
X213108093Y-86679449D01*
X213195449Y-86592093D01*
X213251535Y-86482019D01*
X213265212Y-86395660D01*
X213842022Y-86972469D01*
X213842024Y-86972469D01*
X213849398Y-86962705D01*
X213849401Y-86962701D01*
X213943572Y-86773581D01*
X214001390Y-86570369D01*
X214020884Y-86360000D01*
X214516573Y-86360000D01*
X214536228Y-86547003D01*
X214536229Y-86547005D01*
X214594333Y-86725831D01*
X214594334Y-86725833D01*
X214621902Y-86773582D01*
X214688348Y-86888670D01*
X214732175Y-86937345D01*
X214814160Y-87028400D01*
X214814163Y-87028402D01*
X214814166Y-87028405D01*
X214906970Y-87095831D01*
X214966287Y-87138928D01*
X215032226Y-87168285D01*
X215138062Y-87215406D01*
X215321984Y-87254500D01*
X215510016Y-87254500D01*
X215693938Y-87215406D01*
X215865714Y-87138927D01*
X216017834Y-87028405D01*
X216143652Y-86888670D01*
X216237667Y-86725830D01*
X216295772Y-86547001D01*
X216315427Y-86360000D01*
X217056573Y-86360000D01*
X217076228Y-86547003D01*
X217076229Y-86547005D01*
X217134333Y-86725831D01*
X217134334Y-86725833D01*
X217161902Y-86773582D01*
X217228348Y-86888670D01*
X217272175Y-86937345D01*
X217354160Y-87028400D01*
X217354163Y-87028402D01*
X217354166Y-87028405D01*
X217446970Y-87095831D01*
X217506287Y-87138928D01*
X217572226Y-87168285D01*
X217678062Y-87215406D01*
X217861984Y-87254500D01*
X218050016Y-87254500D01*
X218233938Y-87215406D01*
X218405714Y-87138927D01*
X218557834Y-87028405D01*
X218683652Y-86888670D01*
X218777667Y-86725830D01*
X218835772Y-86547001D01*
X218855427Y-86360000D01*
X219596573Y-86360000D01*
X219616228Y-86547003D01*
X219616229Y-86547005D01*
X219674333Y-86725831D01*
X219674334Y-86725833D01*
X219701902Y-86773582D01*
X219768348Y-86888670D01*
X219812175Y-86937345D01*
X219894160Y-87028400D01*
X219894163Y-87028402D01*
X219894166Y-87028405D01*
X219986970Y-87095831D01*
X220046287Y-87138928D01*
X220112226Y-87168285D01*
X220218062Y-87215406D01*
X220401984Y-87254500D01*
X220590016Y-87254500D01*
X220773938Y-87215406D01*
X220945714Y-87138927D01*
X221097834Y-87028405D01*
X221223652Y-86888670D01*
X221317667Y-86725830D01*
X221375772Y-86547001D01*
X221395427Y-86360000D01*
X222136573Y-86360000D01*
X222156228Y-86547003D01*
X222156229Y-86547005D01*
X222214333Y-86725831D01*
X222214334Y-86725833D01*
X222241902Y-86773582D01*
X222308348Y-86888670D01*
X222352175Y-86937345D01*
X222434160Y-87028400D01*
X222434163Y-87028402D01*
X222434166Y-87028405D01*
X222526970Y-87095831D01*
X222586287Y-87138928D01*
X222652226Y-87168285D01*
X222758062Y-87215406D01*
X222941984Y-87254500D01*
X223130016Y-87254500D01*
X223313938Y-87215406D01*
X223485714Y-87138927D01*
X223637834Y-87028405D01*
X223763652Y-86888670D01*
X223857667Y-86725830D01*
X223915772Y-86547001D01*
X223935427Y-86360000D01*
X224676573Y-86360000D01*
X224696228Y-86547003D01*
X224696229Y-86547005D01*
X224754333Y-86725831D01*
X224754334Y-86725833D01*
X224781902Y-86773582D01*
X224848348Y-86888670D01*
X224892175Y-86937345D01*
X224974160Y-87028400D01*
X224974163Y-87028402D01*
X224974166Y-87028405D01*
X225066970Y-87095831D01*
X225126287Y-87138928D01*
X225192226Y-87168285D01*
X225298062Y-87215406D01*
X225481984Y-87254500D01*
X225670016Y-87254500D01*
X225853938Y-87215406D01*
X226025714Y-87138927D01*
X226177834Y-87028405D01*
X226303652Y-86888670D01*
X226397667Y-86725830D01*
X226455772Y-86547001D01*
X226475427Y-86360000D01*
X226455772Y-86172999D01*
X226397667Y-85994170D01*
X226303652Y-85831330D01*
X226236994Y-85757299D01*
X226177839Y-85691599D01*
X226177836Y-85691597D01*
X226177835Y-85691596D01*
X226177834Y-85691595D01*
X226101774Y-85636334D01*
X226025712Y-85581071D01*
X225893832Y-85522356D01*
X225853938Y-85504594D01*
X225853936Y-85504593D01*
X225670016Y-85465500D01*
X225481984Y-85465500D01*
X225298062Y-85504593D01*
X225298057Y-85504595D01*
X225126287Y-85581073D01*
X225126282Y-85581075D01*
X224974167Y-85691593D01*
X224974160Y-85691599D01*
X224848347Y-85831331D01*
X224754334Y-85994166D01*
X224754333Y-85994168D01*
X224696229Y-86172994D01*
X224696228Y-86172996D01*
X224676573Y-86360000D01*
X223935427Y-86360000D01*
X223915772Y-86172999D01*
X223857667Y-85994170D01*
X223763652Y-85831330D01*
X223696994Y-85757299D01*
X223637839Y-85691599D01*
X223637836Y-85691597D01*
X223637835Y-85691596D01*
X223637834Y-85691595D01*
X223561774Y-85636334D01*
X223485712Y-85581071D01*
X223353832Y-85522356D01*
X223313938Y-85504594D01*
X223313936Y-85504593D01*
X223130016Y-85465500D01*
X222941984Y-85465500D01*
X222758062Y-85504593D01*
X222758057Y-85504595D01*
X222586287Y-85581073D01*
X222586282Y-85581075D01*
X222434167Y-85691593D01*
X222434160Y-85691599D01*
X222308347Y-85831331D01*
X222214334Y-85994166D01*
X222214333Y-85994168D01*
X222156229Y-86172994D01*
X222156228Y-86172996D01*
X222136573Y-86360000D01*
X221395427Y-86360000D01*
X221375772Y-86172999D01*
X221317667Y-85994170D01*
X221223652Y-85831330D01*
X221156994Y-85757299D01*
X221097839Y-85691599D01*
X221097836Y-85691597D01*
X221097835Y-85691596D01*
X221097834Y-85691595D01*
X221021774Y-85636334D01*
X220945712Y-85581071D01*
X220813832Y-85522356D01*
X220773938Y-85504594D01*
X220773936Y-85504593D01*
X220590016Y-85465500D01*
X220401984Y-85465500D01*
X220218062Y-85504593D01*
X220218057Y-85504595D01*
X220046287Y-85581073D01*
X220046282Y-85581075D01*
X219894167Y-85691593D01*
X219894160Y-85691599D01*
X219768347Y-85831331D01*
X219674334Y-85994166D01*
X219674333Y-85994168D01*
X219616229Y-86172994D01*
X219616228Y-86172996D01*
X219596573Y-86360000D01*
X218855427Y-86360000D01*
X218835772Y-86172999D01*
X218777667Y-85994170D01*
X218683652Y-85831330D01*
X218616994Y-85757299D01*
X218557839Y-85691599D01*
X218557836Y-85691597D01*
X218557835Y-85691596D01*
X218557834Y-85691595D01*
X218481774Y-85636334D01*
X218405712Y-85581071D01*
X218273832Y-85522356D01*
X218233938Y-85504594D01*
X218233936Y-85504593D01*
X218050016Y-85465500D01*
X217861984Y-85465500D01*
X217678062Y-85504593D01*
X217678057Y-85504595D01*
X217506287Y-85581073D01*
X217506282Y-85581075D01*
X217354167Y-85691593D01*
X217354160Y-85691599D01*
X217228347Y-85831331D01*
X217134334Y-85994166D01*
X217134333Y-85994168D01*
X217076229Y-86172994D01*
X217076228Y-86172996D01*
X217056573Y-86360000D01*
X216315427Y-86360000D01*
X216295772Y-86172999D01*
X216237667Y-85994170D01*
X216143652Y-85831330D01*
X216076994Y-85757299D01*
X216017839Y-85691599D01*
X216017836Y-85691597D01*
X216017835Y-85691596D01*
X216017834Y-85691595D01*
X215941774Y-85636334D01*
X215865712Y-85581071D01*
X215733832Y-85522356D01*
X215693938Y-85504594D01*
X215693936Y-85504593D01*
X215510016Y-85465500D01*
X215321984Y-85465500D01*
X215138062Y-85504593D01*
X215138057Y-85504595D01*
X214966287Y-85581073D01*
X214966282Y-85581075D01*
X214814167Y-85691593D01*
X214814160Y-85691599D01*
X214688347Y-85831331D01*
X214594334Y-85994166D01*
X214594333Y-85994168D01*
X214536229Y-86172994D01*
X214536228Y-86172996D01*
X214516573Y-86360000D01*
X214020884Y-86360000D01*
X214020884Y-86359999D01*
X214001390Y-86149630D01*
X213943572Y-85946417D01*
X213849403Y-85757302D01*
X213849401Y-85757299D01*
X213842023Y-85747529D01*
X213265212Y-86324339D01*
X213251535Y-86237981D01*
X213195449Y-86127907D01*
X213108093Y-86040551D01*
X212998019Y-85984465D01*
X212911659Y-85970786D01*
X213485743Y-85396702D01*
X213485742Y-85396701D01*
X213386322Y-85335144D01*
X213386316Y-85335140D01*
X213189314Y-85258822D01*
X212981635Y-85220000D01*
X212770365Y-85220000D01*
X212562680Y-85258823D01*
X212365691Y-85335137D01*
X212365678Y-85335143D01*
X212266255Y-85396702D01*
X212840340Y-85970786D01*
X212753981Y-85984465D01*
X212643907Y-86040551D01*
X212556551Y-86127907D01*
X212500465Y-86237981D01*
X212486787Y-86324340D01*
X211909976Y-85747529D01*
X211909975Y-85747529D01*
X211902600Y-85757296D01*
X211808427Y-85946418D01*
X211750609Y-86149630D01*
X211731116Y-86359999D01*
X211731116Y-86360000D01*
X211480884Y-86360000D01*
X211480884Y-86359999D01*
X211461390Y-86149630D01*
X211403572Y-85946417D01*
X211309403Y-85757302D01*
X211309401Y-85757299D01*
X211302023Y-85747529D01*
X210725212Y-86324339D01*
X210711535Y-86237981D01*
X210655449Y-86127907D01*
X210568093Y-86040551D01*
X210458019Y-85984465D01*
X210371659Y-85970786D01*
X210945743Y-85396702D01*
X210945742Y-85396701D01*
X210846322Y-85335144D01*
X210846316Y-85335140D01*
X210649314Y-85258822D01*
X210441635Y-85220000D01*
X210230365Y-85220000D01*
X210022680Y-85258823D01*
X209825691Y-85335137D01*
X209825678Y-85335143D01*
X209726255Y-85396702D01*
X210300340Y-85970786D01*
X210213981Y-85984465D01*
X210103907Y-86040551D01*
X210016551Y-86127907D01*
X209960465Y-86237981D01*
X209946787Y-86324340D01*
X209369975Y-85747529D01*
X209362600Y-85757296D01*
X209268427Y-85946418D01*
X209210609Y-86149630D01*
X209191116Y-86359999D01*
X209191116Y-86360000D01*
X208695427Y-86360000D01*
X208675772Y-86172999D01*
X208617667Y-85994170D01*
X208523652Y-85831330D01*
X208456994Y-85757299D01*
X208397839Y-85691599D01*
X208397836Y-85691597D01*
X208397835Y-85691596D01*
X208397834Y-85691595D01*
X208321774Y-85636334D01*
X208245712Y-85581071D01*
X208113832Y-85522356D01*
X208073938Y-85504594D01*
X208073936Y-85504593D01*
X207890016Y-85465500D01*
X207701984Y-85465500D01*
X207518062Y-85504593D01*
X207518057Y-85504595D01*
X207346287Y-85581073D01*
X207346282Y-85581075D01*
X207194167Y-85691593D01*
X207194160Y-85691599D01*
X207068347Y-85831331D01*
X206974334Y-85994166D01*
X206974333Y-85994168D01*
X206916229Y-86172994D01*
X206916228Y-86172996D01*
X206896573Y-86360000D01*
X206155427Y-86360000D01*
X206135772Y-86172999D01*
X206077667Y-85994170D01*
X205983652Y-85831330D01*
X205916994Y-85757299D01*
X205857839Y-85691599D01*
X205857836Y-85691597D01*
X205857835Y-85691596D01*
X205857834Y-85691595D01*
X205781774Y-85636334D01*
X205705712Y-85581071D01*
X205573832Y-85522356D01*
X205533938Y-85504594D01*
X205533936Y-85504593D01*
X205350016Y-85465500D01*
X205161984Y-85465500D01*
X204978062Y-85504593D01*
X204978057Y-85504595D01*
X204806287Y-85581073D01*
X204806282Y-85581075D01*
X204654167Y-85691593D01*
X204654160Y-85691599D01*
X204528347Y-85831331D01*
X204434334Y-85994166D01*
X204434333Y-85994168D01*
X204376229Y-86172994D01*
X204376228Y-86172996D01*
X204356573Y-86360000D01*
X203615427Y-86360000D01*
X203595772Y-86172999D01*
X203537667Y-85994170D01*
X203443652Y-85831330D01*
X203376994Y-85757299D01*
X203317839Y-85691599D01*
X203317836Y-85691597D01*
X203317835Y-85691596D01*
X203317834Y-85691595D01*
X203241774Y-85636334D01*
X203165712Y-85581071D01*
X203033832Y-85522356D01*
X202993938Y-85504594D01*
X202993936Y-85504593D01*
X202810016Y-85465500D01*
X202621984Y-85465500D01*
X202438062Y-85504593D01*
X202438057Y-85504595D01*
X202266287Y-85581073D01*
X202266282Y-85581075D01*
X202114167Y-85691593D01*
X202114160Y-85691599D01*
X201988347Y-85831331D01*
X201894334Y-85994166D01*
X201894333Y-85994168D01*
X201836229Y-86172994D01*
X201836228Y-86172996D01*
X201816573Y-86360000D01*
X201836228Y-86547003D01*
X201836229Y-86547005D01*
X201894333Y-86725831D01*
X201894334Y-86725833D01*
X201921902Y-86773582D01*
X201988348Y-86888670D01*
X202032175Y-86937345D01*
X202114160Y-87028400D01*
X202114166Y-87028405D01*
X202235386Y-87116477D01*
X202278051Y-87171804D01*
X202286500Y-87216793D01*
X202286500Y-95336279D01*
X202266815Y-95403318D01*
X202214011Y-95449073D01*
X202144853Y-95459017D01*
X202081297Y-95429992D01*
X202074819Y-95423960D01*
X200641819Y-93990960D01*
X200608334Y-93929637D01*
X200605500Y-93903279D01*
X200605500Y-87216793D01*
X200625185Y-87149754D01*
X200656611Y-87116478D01*
X200777834Y-87028405D01*
X200903652Y-86888670D01*
X200997667Y-86725830D01*
X201055772Y-86547001D01*
X201075427Y-86360000D01*
X201055772Y-86172999D01*
X200997667Y-85994170D01*
X200903652Y-85831330D01*
X200836994Y-85757299D01*
X200777839Y-85691599D01*
X200777836Y-85691597D01*
X200777835Y-85691596D01*
X200777834Y-85691595D01*
X200701774Y-85636334D01*
X200625712Y-85581071D01*
X200493832Y-85522356D01*
X200453938Y-85504594D01*
X200453936Y-85504593D01*
X200270016Y-85465500D01*
X200081984Y-85465500D01*
X199898062Y-85504593D01*
X199898057Y-85504595D01*
X199726287Y-85581073D01*
X199726282Y-85581075D01*
X199574167Y-85691593D01*
X199574160Y-85691599D01*
X199448347Y-85831331D01*
X199354334Y-85994166D01*
X199354333Y-85994168D01*
X199296229Y-86172994D01*
X199296228Y-86172996D01*
X199276573Y-86360000D01*
X199296228Y-86547003D01*
X199296229Y-86547005D01*
X199354333Y-86725831D01*
X199354334Y-86725833D01*
X199381902Y-86773582D01*
X199448348Y-86888670D01*
X199492175Y-86937345D01*
X199574160Y-87028400D01*
X199574166Y-87028405D01*
X199695386Y-87116477D01*
X199738051Y-87171804D01*
X199746500Y-87216793D01*
X199746500Y-93574097D01*
X199726815Y-93641136D01*
X199674011Y-93686891D01*
X199604853Y-93696835D01*
X199541297Y-93667810D01*
X199534819Y-93661778D01*
X198101819Y-92228778D01*
X198068334Y-92167455D01*
X198065500Y-92141097D01*
X198065500Y-87216793D01*
X198085185Y-87149754D01*
X198116611Y-87116478D01*
X198237834Y-87028405D01*
X198363652Y-86888670D01*
X198457667Y-86725830D01*
X198515772Y-86547001D01*
X198535427Y-86360000D01*
X198515772Y-86172999D01*
X198457667Y-85994170D01*
X198363652Y-85831330D01*
X198296994Y-85757299D01*
X198237839Y-85691599D01*
X198237836Y-85691597D01*
X198237835Y-85691596D01*
X198237834Y-85691595D01*
X198161774Y-85636334D01*
X198085712Y-85581071D01*
X197953832Y-85522356D01*
X197913938Y-85504594D01*
X197913936Y-85504593D01*
X197730016Y-85465500D01*
X197541984Y-85465500D01*
X197358062Y-85504593D01*
X197358057Y-85504595D01*
X197186287Y-85581073D01*
X197186282Y-85581075D01*
X197034167Y-85691593D01*
X197034160Y-85691599D01*
X196908347Y-85831331D01*
X196814334Y-85994166D01*
X196814333Y-85994168D01*
X196756229Y-86172994D01*
X196756228Y-86172996D01*
X196736573Y-86360000D01*
X196756228Y-86547003D01*
X196756229Y-86547005D01*
X196814333Y-86725831D01*
X196814334Y-86725833D01*
X196841902Y-86773582D01*
X196908348Y-86888670D01*
X196952175Y-86937345D01*
X197034160Y-87028400D01*
X197034166Y-87028405D01*
X197155386Y-87116477D01*
X197198051Y-87171804D01*
X197206500Y-87216793D01*
X197206500Y-91811915D01*
X197186815Y-91878954D01*
X197134011Y-91924709D01*
X197064853Y-91934653D01*
X197001297Y-91905628D01*
X196994819Y-91899596D01*
X195561819Y-90466596D01*
X195528334Y-90405273D01*
X195525500Y-90378915D01*
X195525500Y-87216793D01*
X195545185Y-87149754D01*
X195576611Y-87116478D01*
X195697834Y-87028405D01*
X195823652Y-86888670D01*
X195917667Y-86725830D01*
X195975772Y-86547001D01*
X195995427Y-86360000D01*
X195975772Y-86172999D01*
X195917667Y-85994170D01*
X195823652Y-85831330D01*
X195756994Y-85757299D01*
X195697839Y-85691599D01*
X195697836Y-85691597D01*
X195697835Y-85691596D01*
X195697834Y-85691595D01*
X195621774Y-85636334D01*
X195545712Y-85581071D01*
X195413832Y-85522356D01*
X195373938Y-85504594D01*
X195373936Y-85504593D01*
X195190016Y-85465500D01*
X195001984Y-85465500D01*
X194818062Y-85504593D01*
X194818057Y-85504595D01*
X194646287Y-85581073D01*
X194646282Y-85581075D01*
X194494167Y-85691593D01*
X194494160Y-85691599D01*
X194368347Y-85831331D01*
X194274334Y-85994166D01*
X194274333Y-85994168D01*
X194216229Y-86172994D01*
X194216228Y-86172996D01*
X194196573Y-86360000D01*
X194216228Y-86547003D01*
X194216229Y-86547005D01*
X194274333Y-86725831D01*
X194274334Y-86725833D01*
X194301902Y-86773582D01*
X194368348Y-86888670D01*
X194412175Y-86937345D01*
X194494160Y-87028400D01*
X194494166Y-87028405D01*
X194615386Y-87116477D01*
X194658051Y-87171804D01*
X194666500Y-87216793D01*
X194666500Y-90049733D01*
X194646815Y-90116772D01*
X194594011Y-90162527D01*
X194524853Y-90172471D01*
X194461297Y-90143446D01*
X194454819Y-90137414D01*
X193021819Y-88704414D01*
X192988334Y-88643091D01*
X192985500Y-88616733D01*
X192985500Y-87216793D01*
X193005185Y-87149754D01*
X193036611Y-87116478D01*
X193157834Y-87028405D01*
X193283652Y-86888670D01*
X193377667Y-86725830D01*
X193435772Y-86547001D01*
X193455427Y-86360000D01*
X193435772Y-86172999D01*
X193377667Y-85994170D01*
X193283652Y-85831330D01*
X193216994Y-85757299D01*
X193157839Y-85691599D01*
X193157836Y-85691597D01*
X193157835Y-85691596D01*
X193157834Y-85691595D01*
X193081774Y-85636334D01*
X193005712Y-85581071D01*
X192873832Y-85522356D01*
X192833938Y-85504594D01*
X192833936Y-85504593D01*
X192650016Y-85465500D01*
X192461984Y-85465500D01*
X192278062Y-85504593D01*
X192278057Y-85504595D01*
X192106287Y-85581073D01*
X192106282Y-85581075D01*
X191954167Y-85691593D01*
X191954160Y-85691599D01*
X191828347Y-85831331D01*
X191734334Y-85994166D01*
X191734333Y-85994168D01*
X191676229Y-86172994D01*
X191676228Y-86172996D01*
X191656573Y-86360000D01*
X180185500Y-86360000D01*
X180185500Y-82495600D01*
X180205185Y-82428561D01*
X180257989Y-82382806D01*
X180309559Y-82371600D01*
X187735566Y-82375360D01*
G37*
G04 #@! TD.AperFunction*
M02*
