M48
; DRILL file {KiCad 7.0.8} date 2023 December 11, Monday 19:30:24
; FORMAT={3:3/ absolute / metric / suppress leading zeros}
; #@! TF.CreationDate,2023-12-11T19:30:24+01:00
; #@! TF.GenerationSoftware,Kicad,Pcbnew,7.0.8
; #@! TF.FileFunction,MixedPlating,1,2
FMAT,2
METRIC,TZ
; #@! TA.AperFunction,Plated,PTH,ViaDrill
T1C0.400
; #@! TA.AperFunction,Plated,PTH,ComponentDrill
T2C0.500
; #@! TA.AperFunction,Plated,PTH,ComponentDrill
T3C0.780
; #@! TA.AperFunction,Plated,PTH,ComponentDrill
T4C0.900
; #@! TA.AperFunction,Plated,PTH,ComponentDrill
T5C3.200
; #@! TA.AperFunction,NonPlated,NPTH,ComponentDrill
T6C0.500
%
G90
G05
T1
X152510Y-106302
X153510Y-106977
X154510Y-107651
X155510Y-108326
X156510Y-109000
X214510Y-106302
X215510Y-106977
X216510Y-107651
X217510Y-108326
X218510Y-109000
T2
X119266Y-123444
X119969Y-121747
X119969Y-125141
X121666Y-121044
X121666Y-125844
X123363Y-121747
X123363Y-125141
X124066Y-123444
X170066Y-85852
X170769Y-84155
X170769Y-87549
X172466Y-83452
X172466Y-88252
X174163Y-84155
X174163Y-87549
X174866Y-85852
X181266Y-123444
X181969Y-121747
X181969Y-125141
X183666Y-121044
X183666Y-125844
X185363Y-121747
X185363Y-125141
X186066Y-123444
X232066Y-85852
X232769Y-84155
X232769Y-87549
X234466Y-83452
X234466Y-88252
X236163Y-84155
X236163Y-87549
X236866Y-85852
T3
X130556Y-86360
X130556Y-124460
X133096Y-86360
X133096Y-124460
X135636Y-86360
X138176Y-86360
X140716Y-86360
X143256Y-86360
X145796Y-86360
X148336Y-86360
X150876Y-86360
X153416Y-86360
X155956Y-86360
X158496Y-86360
X161036Y-86360
X161036Y-124460
X163576Y-86360
X163576Y-124460
X192556Y-86360
X192556Y-124460
X195096Y-86360
X195096Y-124460
X197636Y-86360
X200176Y-86360
X202716Y-86360
X205256Y-86360
X207796Y-86360
X210336Y-86360
X212876Y-86360
X215416Y-86360
X217956Y-86360
X220496Y-86360
X223036Y-86360
X223036Y-124460
X225576Y-86360
X225576Y-124460
T4
X168010Y-123400
X173010Y-120900
X173010Y-125900
X230010Y-123400
X235010Y-120900
X235010Y-125900
T5
X121666Y-123444
X172466Y-85852
X183666Y-123444
X234466Y-85852
T6
X126360Y-82550
X126360Y-126750
X127160Y-82800
X127160Y-126500
X127860Y-82800
X127860Y-126500
X128660Y-82550
X128660Y-126750
X165360Y-82550
X165360Y-126750
X166160Y-82800
X166160Y-126500
X166860Y-82800
X166860Y-126500
X167660Y-82550
X167660Y-126750
X188360Y-82550
X188360Y-126750
X189160Y-82800
X189160Y-126500
X189860Y-82800
X189860Y-126500
X190660Y-82550
X190660Y-126750
X227360Y-82550
X227360Y-126750
X228160Y-82800
X228160Y-126500
X228860Y-82800
X228860Y-126500
X229660Y-82550
X229660Y-126750
T0
M30
