  0
SECTION
  2
HEADER
  9
$ANGBASE
  50
0.0
  9
$ANGDIR
  70
1
  9
$MEASUREMENT
  70
1
  0
ENDSEC
  0
SECTION
  2
TABLES
  0
TABLE
  2
LTYPE
  70
4
  0
LTYPE
  5
40F
  2
CONTINUOUS
  70
0
  3
Solid line
  72
65
  73
0
  40
0.0
  0
LTYPE
  5
410
  2
DASHDOT
 70
0
  3
Dash Dot ____ _ ____ _
 72
65
 73
4
 40
2.0
 49
1.25
 49
-0.25
 49
0.25
 49
-0.25
  0
LTYPE
  5
411
  2
DASHED
 70
0
  3
Dashed __ __ __ __ __
 72
65
 73
2
 40
0.75
 49
0.5
 49
-0.25
  0
LTYPE
  5
43B
  2
DOTTED
 70
0
  3
Dotted .  .  .  .
 72
65
 73
2
 40
0.2
 49
0.0
 49
-0.2
  0
ENDTAB
  0
TABLE
  2
STYLE
  70
4
  0
STYLE
  2
KICAD
  70
0
  40
0
  41
1
  42
1
  50
0
  71
0
  3
isocp.shx
  0
STYLE
  2
KICADB
  70
0
  40
0
  41
1
  42
1
  50
0
  71
0
  3
isocp.shx
  0
STYLE
  2
KICADI
  70
0
  40
0
  41
1
  42
1
  50
15
  71
0
  3
isocp.shx
  0
STYLE
  2
KICADBI
  70
0
  40
0
  41
1
  42
1
  50
15
  71
0
  3
isocp.shx
  0
ENDTAB
  0
TABLE
  2
LAYER
  70
1
  0
LAYER
  2
BLACK
  70
0
  62
7
  6
CONTINUOUS
  0
ENDTAB
  0
ENDSEC
  0
SECTION
  2
ENTITIES
0
LINE
8
BLACK
6
CONTINUOUS
10
99.9381
20
-85.264
11
100.11
21
-85.3406
0
LINE
8
BLACK
6
CONTINUOUS
10
100.11
20
-85.3406
11
100.262
21
-85.4512
0
LINE
8
BLACK
6
CONTINUOUS
10
100.262
20
-85.4512
11
100.388
21
-85.591
0
LINE
8
BLACK
6
CONTINUOUS
10
100.388
20
-85.591
11
100.482
21
-85.7539
0
LINE
8
BLACK
6
CONTINUOUS
10
100.482
20
-85.7539
11
100.54
21
-85.9329
0
LINE
8
BLACK
6
CONTINUOUS
10
100.54
20
-85.9329
11
100.56
21
-86.12
0
LINE
8
BLACK
6
CONTINUOUS
10
100.56
20
-86.12
11
100.54
21
-86.3071
0
LINE
8
BLACK
6
CONTINUOUS
10
100.54
20
-86.3071
11
100.482
21
-86.4861
0
LINE
8
BLACK
6
CONTINUOUS
10
100.482
20
-86.4861
11
100.388
21
-86.649
0
LINE
8
BLACK
6
CONTINUOUS
10
100.388
20
-86.649
11
100.262
21
-86.7888
0
LINE
8
BLACK
6
CONTINUOUS
10
100.262
20
-86.7888
11
100.11
21
-86.8994
0
LINE
8
BLACK
6
CONTINUOUS
10
100.11
20
-86.8994
11
99.9381
21
-86.976
0
LINE
8
BLACK
6
CONTINUOUS
10
99.9381
20
-86.976
11
99.7541
21
-87.0151
0
LINE
8
BLACK
6
CONTINUOUS
10
99.7541
20
-87.0151
11
99.5659
21
-87.0151
0
LINE
8
BLACK
6
CONTINUOUS
10
99.5659
20
-87.0151
11
99.3819
21
-86.976
0
LINE
8
BLACK
6
CONTINUOUS
10
99.3819
20
-86.976
11
99.21
21
-86.8994
0
LINE
8
BLACK
6
CONTINUOUS
10
99.21
20
-86.8994
11
99.0578
21
-86.7888
0
LINE
8
BLACK
6
CONTINUOUS
10
99.0578
20
-86.7888
11
98.9319
21
-86.649
0
LINE
8
BLACK
6
CONTINUOUS
10
98.9319
20
-86.649
11
98.8378
21
-86.4861
0
LINE
8
BLACK
6
CONTINUOUS
10
98.8378
20
-86.4861
11
98.7797
21
-86.3071
0
LINE
8
BLACK
6
CONTINUOUS
10
98.7797
20
-86.3071
11
98.76
21
-86.12
0
LINE
8
BLACK
6
CONTINUOUS
10
98.76
20
-86.12
11
98.7797
21
-85.9329
0
LINE
8
BLACK
6
CONTINUOUS
10
98.7797
20
-85.9329
11
98.8378
21
-85.7539
0
LINE
8
BLACK
6
CONTINUOUS
10
98.8378
20
-85.7539
11
98.9319
21
-85.591
0
LINE
8
BLACK
6
CONTINUOUS
10
98.9319
20
-85.591
11
99.0578
21
-85.4512
0
LINE
8
BLACK
6
CONTINUOUS
10
99.0578
20
-85.4512
11
99.21
21
-85.3406
0
LINE
8
BLACK
6
CONTINUOUS
10
99.21
20
-85.3406
11
99.3819
21
-85.264
0
LINE
8
BLACK
6
CONTINUOUS
10
99.3819
20
-85.264
11
99.5659
21
-85.2249
0
LINE
8
BLACK
6
CONTINUOUS
10
99.5659
20
-85.2249
11
99.7541
21
-85.2249
0
LINE
8
BLACK
6
CONTINUOUS
10
99.7541
20
-85.2249
11
99.9381
21
-85.264
0
LINE
8
BLACK
6
CONTINUOUS
10
102.478
20
-85.264
11
102.65
21
-85.3406
0
LINE
8
BLACK
6
CONTINUOUS
10
102.65
20
-85.3406
11
102.802
21
-85.4512
0
LINE
8
BLACK
6
CONTINUOUS
10
102.802
20
-85.4512
11
102.928
21
-85.591
0
LINE
8
BLACK
6
CONTINUOUS
10
102.928
20
-85.591
11
103.022
21
-85.7539
0
LINE
8
BLACK
6
CONTINUOUS
10
103.022
20
-85.7539
11
103.08
21
-85.9329
0
LINE
8
BLACK
6
CONTINUOUS
10
103.08
20
-85.9329
11
103.1
21
-86.12
0
LINE
8
BLACK
6
CONTINUOUS
10
103.1
20
-86.12
11
103.08
21
-86.3071
0
LINE
8
BLACK
6
CONTINUOUS
10
103.08
20
-86.3071
11
103.022
21
-86.4861
0
LINE
8
BLACK
6
CONTINUOUS
10
103.022
20
-86.4861
11
102.928
21
-86.649
0
LINE
8
BLACK
6
CONTINUOUS
10
102.928
20
-86.649
11
102.802
21
-86.7888
0
LINE
8
BLACK
6
CONTINUOUS
10
102.802
20
-86.7888
11
102.65
21
-86.8994
0
LINE
8
BLACK
6
CONTINUOUS
10
102.65
20
-86.8994
11
102.478
21
-86.976
0
LINE
8
BLACK
6
CONTINUOUS
10
102.478
20
-86.976
11
102.294
21
-87.0151
0
LINE
8
BLACK
6
CONTINUOUS
10
102.294
20
-87.0151
11
102.106
21
-87.0151
0
LINE
8
BLACK
6
CONTINUOUS
10
102.106
20
-87.0151
11
101.922
21
-86.976
0
LINE
8
BLACK
6
CONTINUOUS
10
101.922
20
-86.976
11
101.75
21
-86.8994
0
LINE
8
BLACK
6
CONTINUOUS
10
101.75
20
-86.8994
11
101.598
21
-86.7888
0
LINE
8
BLACK
6
CONTINUOUS
10
101.598
20
-86.7888
11
101.472
21
-86.649
0
LINE
8
BLACK
6
CONTINUOUS
10
101.472
20
-86.649
11
101.378
21
-86.4861
0
LINE
8
BLACK
6
CONTINUOUS
10
101.378
20
-86.4861
11
101.32
21
-86.3071
0
LINE
8
BLACK
6
CONTINUOUS
10
101.32
20
-86.3071
11
101.3
21
-86.12
0
LINE
8
BLACK
6
CONTINUOUS
10
101.3
20
-86.12
11
101.32
21
-85.9329
0
LINE
8
BLACK
6
CONTINUOUS
10
101.32
20
-85.9329
11
101.378
21
-85.7539
0
LINE
8
BLACK
6
CONTINUOUS
10
101.378
20
-85.7539
11
101.472
21
-85.591
0
LINE
8
BLACK
6
CONTINUOUS
10
101.472
20
-85.591
11
101.598
21
-85.4512
0
LINE
8
BLACK
6
CONTINUOUS
10
101.598
20
-85.4512
11
101.75
21
-85.3406
0
LINE
8
BLACK
6
CONTINUOUS
10
101.75
20
-85.3406
11
101.922
21
-85.264
0
LINE
8
BLACK
6
CONTINUOUS
10
101.922
20
-85.264
11
102.106
21
-85.2249
0
LINE
8
BLACK
6
CONTINUOUS
10
102.106
20
-85.2249
11
102.294
21
-85.2249
0
LINE
8
BLACK
6
CONTINUOUS
10
102.294
20
-85.2249
11
102.478
21
-85.264
0
LINE
8
BLACK
6
CONTINUOUS
10
105.018
20
-85.264
11
105.19
21
-85.3406
0
LINE
8
BLACK
6
CONTINUOUS
10
105.19
20
-85.3406
11
105.342
21
-85.4512
0
LINE
8
BLACK
6
CONTINUOUS
10
105.342
20
-85.4512
11
105.468
21
-85.591
0
LINE
8
BLACK
6
CONTINUOUS
10
105.468
20
-85.591
11
105.562
21
-85.7539
0
LINE
8
BLACK
6
CONTINUOUS
10
105.562
20
-85.7539
11
105.62
21
-85.9329
0
LINE
8
BLACK
6
CONTINUOUS
10
105.62
20
-85.9329
11
105.64
21
-86.12
0
LINE
8
BLACK
6
CONTINUOUS
10
105.64
20
-86.12
11
105.62
21
-86.3071
0
LINE
8
BLACK
6
CONTINUOUS
10
105.62
20
-86.3071
11
105.562
21
-86.4861
0
LINE
8
BLACK
6
CONTINUOUS
10
105.562
20
-86.4861
11
105.468
21
-86.649
0
LINE
8
BLACK
6
CONTINUOUS
10
105.468
20
-86.649
11
105.342
21
-86.7888
0
LINE
8
BLACK
6
CONTINUOUS
10
105.342
20
-86.7888
11
105.19
21
-86.8994
0
LINE
8
BLACK
6
CONTINUOUS
10
105.19
20
-86.8994
11
105.018
21
-86.976
0
LINE
8
BLACK
6
CONTINUOUS
10
105.018
20
-86.976
11
104.834
21
-87.0151
0
LINE
8
BLACK
6
CONTINUOUS
10
104.834
20
-87.0151
11
104.646
21
-87.0151
0
LINE
8
BLACK
6
CONTINUOUS
10
104.646
20
-87.0151
11
104.462
21
-86.976
0
LINE
8
BLACK
6
CONTINUOUS
10
104.462
20
-86.976
11
104.29
21
-86.8994
0
LINE
8
BLACK
6
CONTINUOUS
10
104.29
20
-86.8994
11
104.138
21
-86.7888
0
LINE
8
BLACK
6
CONTINUOUS
10
104.138
20
-86.7888
11
104.012
21
-86.649
0
LINE
8
BLACK
6
CONTINUOUS
10
104.012
20
-86.649
11
103.918
21
-86.4861
0
LINE
8
BLACK
6
CONTINUOUS
10
103.918
20
-86.4861
11
103.86
21
-86.3071
0
LINE
8
BLACK
6
CONTINUOUS
10
103.86
20
-86.3071
11
103.84
21
-86.12
0
LINE
8
BLACK
6
CONTINUOUS
10
103.84
20
-86.12
11
103.86
21
-85.9329
0
LINE
8
BLACK
6
CONTINUOUS
10
103.86
20
-85.9329
11
103.918
21
-85.7539
0
LINE
8
BLACK
6
CONTINUOUS
10
103.918
20
-85.7539
11
104.012
21
-85.591
0
LINE
8
BLACK
6
CONTINUOUS
10
104.012
20
-85.591
11
104.138
21
-85.4512
0
LINE
8
BLACK
6
CONTINUOUS
10
104.138
20
-85.4512
11
104.29
21
-85.3406
0
LINE
8
BLACK
6
CONTINUOUS
10
104.29
20
-85.3406
11
104.462
21
-85.264
0
LINE
8
BLACK
6
CONTINUOUS
10
104.462
20
-85.264
11
104.646
21
-85.2249
0
LINE
8
BLACK
6
CONTINUOUS
10
104.646
20
-85.2249
11
104.834
21
-85.2249
0
LINE
8
BLACK
6
CONTINUOUS
10
104.834
20
-85.2249
11
105.018
21
-85.264
0
LINE
8
BLACK
6
CONTINUOUS
10
91.8687
20
-83.678
11
91.9695
21
-83.7225
0
LINE
8
BLACK
6
CONTINUOUS
10
91.9695
20
-83.7225
11
92.0475
21
-83.8005
0
LINE
8
BLACK
6
CONTINUOUS
10
92.0475
20
-83.8005
11
92.092
21
-83.9013
0
LINE
8
BLACK
6
CONTINUOUS
10
92.092
20
-83.9013
11
92.1
21
-83.97
0
LINE
8
BLACK
6
CONTINUOUS
10
92.1
20
-83.97
11
92.1
21
-85.47
0
LINE
8
BLACK
6
CONTINUOUS
10
92.1
20
-85.47
11
92.092
21
-85.5387
0
LINE
8
BLACK
6
CONTINUOUS
10
92.092
20
-85.5387
11
92.0475
21
-85.6395
0
LINE
8
BLACK
6
CONTINUOUS
10
92.0475
20
-85.6395
11
91.9695
21
-85.7175
0
LINE
8
BLACK
6
CONTINUOUS
10
91.9695
20
-85.7175
11
91.8687
21
-85.762
0
LINE
8
BLACK
6
CONTINUOUS
10
91.8687
20
-85.762
11
91.8
21
-85.77
0
LINE
8
BLACK
6
CONTINUOUS
10
91.8
20
-85.77
11
90.6
21
-85.77
0
LINE
8
BLACK
6
CONTINUOUS
10
90.6
20
-85.77
11
90.5313
21
-85.762
0
LINE
8
BLACK
6
CONTINUOUS
10
90.5313
20
-85.762
11
90.4305
21
-85.7175
0
LINE
8
BLACK
6
CONTINUOUS
10
90.4305
20
-85.7175
11
90.3525
21
-85.6395
0
LINE
8
BLACK
6
CONTINUOUS
10
90.3525
20
-85.6395
11
90.308
21
-85.5387
0
LINE
8
BLACK
6
CONTINUOUS
10
90.308
20
-85.5387
11
90.3
21
-85.47
0
LINE
8
BLACK
6
CONTINUOUS
10
90.3
20
-85.47
11
90.3
21
-83.97
0
LINE
8
BLACK
6
CONTINUOUS
10
90.3
20
-83.97
11
90.308
21
-83.9013
0
LINE
8
BLACK
6
CONTINUOUS
10
90.308
20
-83.9013
11
90.3525
21
-83.8005
0
LINE
8
BLACK
6
CONTINUOUS
10
90.3525
20
-83.8005
11
90.4305
21
-83.7225
0
LINE
8
BLACK
6
CONTINUOUS
10
90.4305
20
-83.7225
11
90.5313
21
-83.678
0
LINE
8
BLACK
6
CONTINUOUS
10
90.5313
20
-83.678
11
90.6
21
-83.67
0
LINE
8
BLACK
6
CONTINUOUS
10
90.6
20
-83.67
11
91.8
21
-83.67
0
LINE
8
BLACK
6
CONTINUOUS
10
91.8
20
-83.67
11
91.8687
21
-83.678
0
LINE
8
BLACK
6
CONTINUOUS
10
93.9781
20
-83.714
11
94.15
21
-83.7906
0
LINE
8
BLACK
6
CONTINUOUS
10
94.15
20
-83.7906
11
94.3022
21
-83.9012
0
LINE
8
BLACK
6
CONTINUOUS
10
94.3022
20
-83.9012
11
94.4281
21
-84.041
0
LINE
8
BLACK
6
CONTINUOUS
10
94.4281
20
-84.041
11
94.5222
21
-84.2039
0
LINE
8
BLACK
6
CONTINUOUS
10
94.5222
20
-84.2039
11
94.5803
21
-84.3829
0
LINE
8
BLACK
6
CONTINUOUS
10
94.5803
20
-84.3829
11
94.6
21
-84.57
0
LINE
8
BLACK
6
CONTINUOUS
10
94.6
20
-84.57
11
94.6
21
-84.87
0
LINE
8
BLACK
6
CONTINUOUS
10
94.6
20
-84.87
11
94.5803
21
-85.0571
0
LINE
8
BLACK
6
CONTINUOUS
10
94.5803
20
-85.0571
11
94.5222
21
-85.2361
0
LINE
8
BLACK
6
CONTINUOUS
10
94.5222
20
-85.2361
11
94.4281
21
-85.399
0
LINE
8
BLACK
6
CONTINUOUS
10
94.4281
20
-85.399
11
94.3022
21
-85.5388
0
LINE
8
BLACK
6
CONTINUOUS
10
94.3022
20
-85.5388
11
94.15
21
-85.6494
0
LINE
8
BLACK
6
CONTINUOUS
10
94.15
20
-85.6494
11
93.9781
21
-85.726
0
LINE
8
BLACK
6
CONTINUOUS
10
93.9781
20
-85.726
11
93.7941
21
-85.7651
0
LINE
8
BLACK
6
CONTINUOUS
10
93.7941
20
-85.7651
11
93.6059
21
-85.7651
0
LINE
8
BLACK
6
CONTINUOUS
10
93.6059
20
-85.7651
11
93.4219
21
-85.726
0
LINE
8
BLACK
6
CONTINUOUS
10
93.4219
20
-85.726
11
93.25
21
-85.6494
0
LINE
8
BLACK
6
CONTINUOUS
10
93.25
20
-85.6494
11
93.0978
21
-85.5388
0
LINE
8
BLACK
6
CONTINUOUS
10
93.0978
20
-85.5388
11
92.9719
21
-85.399
0
LINE
8
BLACK
6
CONTINUOUS
10
92.9719
20
-85.399
11
92.8778
21
-85.2361
0
LINE
8
BLACK
6
CONTINUOUS
10
92.8778
20
-85.2361
11
92.8197
21
-85.0571
0
LINE
8
BLACK
6
CONTINUOUS
10
92.8197
20
-85.0571
11
92.8
21
-84.87
0
LINE
8
BLACK
6
CONTINUOUS
10
92.8
20
-84.87
11
92.8
21
-84.57
0
LINE
8
BLACK
6
CONTINUOUS
10
92.8
20
-84.57
11
92.8197
21
-84.3829
0
LINE
8
BLACK
6
CONTINUOUS
10
92.8197
20
-84.3829
11
92.8778
21
-84.2039
0
LINE
8
BLACK
6
CONTINUOUS
10
92.8778
20
-84.2039
11
92.9719
21
-84.041
0
LINE
8
BLACK
6
CONTINUOUS
10
92.9719
20
-84.041
11
93.0978
21
-83.9012
0
LINE
8
BLACK
6
CONTINUOUS
10
93.0978
20
-83.9012
11
93.25
21
-83.7906
0
LINE
8
BLACK
6
CONTINUOUS
10
93.25
20
-83.7906
11
93.4219
21
-83.714
0
LINE
8
BLACK
6
CONTINUOUS
10
93.4219
20
-83.714
11
93.6059
21
-83.6749
0
LINE
8
BLACK
6
CONTINUOUS
10
93.6059
20
-83.6749
11
93.7941
21
-83.6749
0
LINE
8
BLACK
6
CONTINUOUS
10
93.7941
20
-83.6749
11
93.9781
21
-83.714
0
LINE
8
BLACK
6
CONTINUOUS
10
77.8687
20
-83.703
11
77.9695
21
-83.7475
0
LINE
8
BLACK
6
CONTINUOUS
10
77.9695
20
-83.7475
11
78.0475
21
-83.8255
0
LINE
8
BLACK
6
CONTINUOUS
10
78.0475
20
-83.8255
11
78.092
21
-83.9263
0
LINE
8
BLACK
6
CONTINUOUS
10
78.092
20
-83.9263
11
78.1
21
-83.995
0
LINE
8
BLACK
6
CONTINUOUS
10
78.1
20
-83.995
11
78.1
21
-85.445
0
LINE
8
BLACK
6
CONTINUOUS
10
78.1
20
-85.445
11
78.092
21
-85.5137
0
LINE
8
BLACK
6
CONTINUOUS
10
78.092
20
-85.5137
11
78.0475
21
-85.6145
0
LINE
8
BLACK
6
CONTINUOUS
10
78.0475
20
-85.6145
11
77.9695
21
-85.6925
0
LINE
8
BLACK
6
CONTINUOUS
10
77.9695
20
-85.6925
11
77.8687
21
-85.737
0
LINE
8
BLACK
6
CONTINUOUS
10
77.8687
20
-85.737
11
77.8
21
-85.745
0
LINE
8
BLACK
6
CONTINUOUS
10
77.8
20
-85.745
11
76.6
21
-85.745
0
LINE
8
BLACK
6
CONTINUOUS
10
76.6
20
-85.745
11
76.5313
21
-85.737
0
LINE
8
BLACK
6
CONTINUOUS
10
76.5313
20
-85.737
11
76.4305
21
-85.6925
0
LINE
8
BLACK
6
CONTINUOUS
10
76.4305
20
-85.6925
11
76.3525
21
-85.6145
0
LINE
8
BLACK
6
CONTINUOUS
10
76.3525
20
-85.6145
11
76.308
21
-85.5137
0
LINE
8
BLACK
6
CONTINUOUS
10
76.308
20
-85.5137
11
76.3
21
-85.445
0
LINE
8
BLACK
6
CONTINUOUS
10
76.3
20
-85.445
11
76.3
21
-83.995
0
LINE
8
BLACK
6
CONTINUOUS
10
76.3
20
-83.995
11
76.308
21
-83.9263
0
LINE
8
BLACK
6
CONTINUOUS
10
76.308
20
-83.9263
11
76.3525
21
-83.8255
0
LINE
8
BLACK
6
CONTINUOUS
10
76.3525
20
-83.8255
11
76.4305
21
-83.7475
0
LINE
8
BLACK
6
CONTINUOUS
10
76.4305
20
-83.7475
11
76.5313
21
-83.703
0
LINE
8
BLACK
6
CONTINUOUS
10
76.5313
20
-83.703
11
76.6
21
-83.695
0
LINE
8
BLACK
6
CONTINUOUS
10
76.6
20
-83.695
11
77.8
21
-83.695
0
LINE
8
BLACK
6
CONTINUOUS
10
77.8
20
-83.695
11
77.8687
21
-83.703
0
LINE
8
BLACK
6
CONTINUOUS
10
110.469
20
-83.703
11
110.57
21
-83.7475
0
LINE
8
BLACK
6
CONTINUOUS
10
110.57
20
-83.7475
11
110.647
21
-83.8255
0
LINE
8
BLACK
6
CONTINUOUS
10
110.647
20
-83.8255
11
110.692
21
-83.9263
0
LINE
8
BLACK
6
CONTINUOUS
10
110.692
20
-83.9263
11
110.7
21
-83.995
0
LINE
8
BLACK
6
CONTINUOUS
10
110.7
20
-83.995
11
110.7
21
-85.445
0
LINE
8
BLACK
6
CONTINUOUS
10
110.7
20
-85.445
11
110.692
21
-85.5137
0
LINE
8
BLACK
6
CONTINUOUS
10
110.692
20
-85.5137
11
110.647
21
-85.6145
0
LINE
8
BLACK
6
CONTINUOUS
10
110.647
20
-85.6145
11
110.57
21
-85.6925
0
LINE
8
BLACK
6
CONTINUOUS
10
110.57
20
-85.6925
11
110.469
21
-85.737
0
LINE
8
BLACK
6
CONTINUOUS
10
110.469
20
-85.737
11
110.4
21
-85.745
0
LINE
8
BLACK
6
CONTINUOUS
10
110.4
20
-85.745
11
109.2
21
-85.745
0
LINE
8
BLACK
6
CONTINUOUS
10
109.2
20
-85.745
11
109.131
21
-85.737
0
LINE
8
BLACK
6
CONTINUOUS
10
109.131
20
-85.737
11
109.03
21
-85.6925
0
LINE
8
BLACK
6
CONTINUOUS
10
109.03
20
-85.6925
11
108.953
21
-85.6145
0
LINE
8
BLACK
6
CONTINUOUS
10
108.953
20
-85.6145
11
108.908
21
-85.5137
0
LINE
8
BLACK
6
CONTINUOUS
10
108.908
20
-85.5137
11
108.9
21
-85.445
0
LINE
8
BLACK
6
CONTINUOUS
10
108.9
20
-85.445
11
108.9
21
-83.995
0
LINE
8
BLACK
6
CONTINUOUS
10
108.9
20
-83.995
11
108.908
21
-83.9263
0
LINE
8
BLACK
6
CONTINUOUS
10
108.908
20
-83.9263
11
108.953
21
-83.8255
0
LINE
8
BLACK
6
CONTINUOUS
10
108.953
20
-83.8255
11
109.03
21
-83.7475
0
LINE
8
BLACK
6
CONTINUOUS
10
109.03
20
-83.7475
11
109.131
21
-83.703
0
LINE
8
BLACK
6
CONTINUOUS
10
109.131
20
-83.703
11
109.2
21
-83.695
0
LINE
8
BLACK
6
CONTINUOUS
10
109.2
20
-83.695
11
110.4
21
-83.695
0
LINE
8
BLACK
6
CONTINUOUS
10
110.4
20
-83.695
11
110.469
21
-83.703
0
LINE
8
BLACK
6
CONTINUOUS
10
79.9781
20
-83.739
11
80.15
21
-83.8156
0
LINE
8
BLACK
6
CONTINUOUS
10
80.15
20
-83.8156
11
80.3022
21
-83.9262
0
LINE
8
BLACK
6
CONTINUOUS
10
80.3022
20
-83.9262
11
80.4281
21
-84.066
0
LINE
8
BLACK
6
CONTINUOUS
10
80.4281
20
-84.066
11
80.5222
21
-84.2289
0
LINE
8
BLACK
6
CONTINUOUS
10
80.5222
20
-84.2289
11
80.5803
21
-84.4079
0
LINE
8
BLACK
6
CONTINUOUS
10
80.5803
20
-84.4079
11
80.6
21
-84.595
0
LINE
8
BLACK
6
CONTINUOUS
10
80.6
20
-84.595
11
80.6
21
-84.845
0
LINE
8
BLACK
6
CONTINUOUS
10
80.6
20
-84.845
11
80.5803
21
-85.0321
0
LINE
8
BLACK
6
CONTINUOUS
10
80.5803
20
-85.0321
11
80.5222
21
-85.2111
0
LINE
8
BLACK
6
CONTINUOUS
10
80.5222
20
-85.2111
11
80.4281
21
-85.374
0
LINE
8
BLACK
6
CONTINUOUS
10
80.4281
20
-85.374
11
80.3022
21
-85.5138
0
LINE
8
BLACK
6
CONTINUOUS
10
80.3022
20
-85.5138
11
80.15
21
-85.6244
0
LINE
8
BLACK
6
CONTINUOUS
10
80.15
20
-85.6244
11
79.9781
21
-85.701
0
LINE
8
BLACK
6
CONTINUOUS
10
79.9781
20
-85.701
11
79.7941
21
-85.7401
0
LINE
8
BLACK
6
CONTINUOUS
10
79.7941
20
-85.7401
11
79.6059
21
-85.7401
0
LINE
8
BLACK
6
CONTINUOUS
10
79.6059
20
-85.7401
11
79.4219
21
-85.701
0
LINE
8
BLACK
6
CONTINUOUS
10
79.4219
20
-85.701
11
79.25
21
-85.6244
0
LINE
8
BLACK
6
CONTINUOUS
10
79.25
20
-85.6244
11
79.0978
21
-85.5138
0
LINE
8
BLACK
6
CONTINUOUS
10
79.0978
20
-85.5138
11
78.9719
21
-85.374
0
LINE
8
BLACK
6
CONTINUOUS
10
78.9719
20
-85.374
11
78.8778
21
-85.2111
0
LINE
8
BLACK
6
CONTINUOUS
10
78.8778
20
-85.2111
11
78.8197
21
-85.0321
0
LINE
8
BLACK
6
CONTINUOUS
10
78.8197
20
-85.0321
11
78.8
21
-84.845
0
LINE
8
BLACK
6
CONTINUOUS
10
78.8
20
-84.845
11
78.8
21
-84.595
0
LINE
8
BLACK
6
CONTINUOUS
10
78.8
20
-84.595
11
78.8197
21
-84.4079
0
LINE
8
BLACK
6
CONTINUOUS
10
78.8197
20
-84.4079
11
78.8778
21
-84.2289
0
LINE
8
BLACK
6
CONTINUOUS
10
78.8778
20
-84.2289
11
78.9719
21
-84.066
0
LINE
8
BLACK
6
CONTINUOUS
10
78.9719
20
-84.066
11
79.0978
21
-83.9262
0
LINE
8
BLACK
6
CONTINUOUS
10
79.0978
20
-83.9262
11
79.25
21
-83.8156
0
LINE
8
BLACK
6
CONTINUOUS
10
79.25
20
-83.8156
11
79.4219
21
-83.739
0
LINE
8
BLACK
6
CONTINUOUS
10
79.4219
20
-83.739
11
79.6059
21
-83.6999
0
LINE
8
BLACK
6
CONTINUOUS
10
79.6059
20
-83.6999
11
79.7941
21
-83.6999
0
LINE
8
BLACK
6
CONTINUOUS
10
79.7941
20
-83.6999
11
79.9781
21
-83.739
0
LINE
8
BLACK
6
CONTINUOUS
10
82.4781
20
-83.739
11
82.65
21
-83.8156
0
LINE
8
BLACK
6
CONTINUOUS
10
82.65
20
-83.8156
11
82.8022
21
-83.9262
0
LINE
8
BLACK
6
CONTINUOUS
10
82.8022
20
-83.9262
11
82.9281
21
-84.066
0
LINE
8
BLACK
6
CONTINUOUS
10
82.9281
20
-84.066
11
83.0222
21
-84.2289
0
LINE
8
BLACK
6
CONTINUOUS
10
83.0222
20
-84.2289
11
83.0803
21
-84.4079
0
LINE
8
BLACK
6
CONTINUOUS
10
83.0803
20
-84.4079
11
83.1
21
-84.595
0
LINE
8
BLACK
6
CONTINUOUS
10
83.1
20
-84.595
11
83.1
21
-84.845
0
LINE
8
BLACK
6
CONTINUOUS
10
83.1
20
-84.845
11
83.0803
21
-85.0321
0
LINE
8
BLACK
6
CONTINUOUS
10
83.0803
20
-85.0321
11
83.0222
21
-85.2111
0
LINE
8
BLACK
6
CONTINUOUS
10
83.0222
20
-85.2111
11
82.9281
21
-85.374
0
LINE
8
BLACK
6
CONTINUOUS
10
82.9281
20
-85.374
11
82.8022
21
-85.5138
0
LINE
8
BLACK
6
CONTINUOUS
10
82.8022
20
-85.5138
11
82.65
21
-85.6244
0
LINE
8
BLACK
6
CONTINUOUS
10
82.65
20
-85.6244
11
82.4781
21
-85.701
0
LINE
8
BLACK
6
CONTINUOUS
10
82.4781
20
-85.701
11
82.2941
21
-85.7401
0
LINE
8
BLACK
6
CONTINUOUS
10
82.2941
20
-85.7401
11
82.1059
21
-85.7401
0
LINE
8
BLACK
6
CONTINUOUS
10
82.1059
20
-85.7401
11
81.9219
21
-85.701
0
LINE
8
BLACK
6
CONTINUOUS
10
81.9219
20
-85.701
11
81.75
21
-85.6244
0
LINE
8
BLACK
6
CONTINUOUS
10
81.75
20
-85.6244
11
81.5978
21
-85.5138
0
LINE
8
BLACK
6
CONTINUOUS
10
81.5978
20
-85.5138
11
81.4719
21
-85.374
0
LINE
8
BLACK
6
CONTINUOUS
10
81.4719
20
-85.374
11
81.3778
21
-85.2111
0
LINE
8
BLACK
6
CONTINUOUS
10
81.3778
20
-85.2111
11
81.3197
21
-85.0321
0
LINE
8
BLACK
6
CONTINUOUS
10
81.3197
20
-85.0321
11
81.3
21
-84.845
0
LINE
8
BLACK
6
CONTINUOUS
10
81.3
20
-84.845
11
81.3
21
-84.595
0
LINE
8
BLACK
6
CONTINUOUS
10
81.3
20
-84.595
11
81.3197
21
-84.4079
0
LINE
8
BLACK
6
CONTINUOUS
10
81.3197
20
-84.4079
11
81.3778
21
-84.2289
0
LINE
8
BLACK
6
CONTINUOUS
10
81.3778
20
-84.2289
11
81.4719
21
-84.066
0
LINE
8
BLACK
6
CONTINUOUS
10
81.4719
20
-84.066
11
81.5978
21
-83.9262
0
LINE
8
BLACK
6
CONTINUOUS
10
81.5978
20
-83.9262
11
81.75
21
-83.8156
0
LINE
8
BLACK
6
CONTINUOUS
10
81.75
20
-83.8156
11
81.9219
21
-83.739
0
LINE
8
BLACK
6
CONTINUOUS
10
81.9219
20
-83.739
11
82.1059
21
-83.6999
0
LINE
8
BLACK
6
CONTINUOUS
10
82.1059
20
-83.6999
11
82.2941
21
-83.6999
0
LINE
8
BLACK
6
CONTINUOUS
10
82.2941
20
-83.6999
11
82.4781
21
-83.739
0
LINE
8
BLACK
6
CONTINUOUS
10
84.9781
20
-83.739
11
85.15
21
-83.8156
0
LINE
8
BLACK
6
CONTINUOUS
10
85.15
20
-83.8156
11
85.3022
21
-83.9262
0
LINE
8
BLACK
6
CONTINUOUS
10
85.3022
20
-83.9262
11
85.4281
21
-84.066
0
LINE
8
BLACK
6
CONTINUOUS
10
85.4281
20
-84.066
11
85.5222
21
-84.2289
0
LINE
8
BLACK
6
CONTINUOUS
10
85.5222
20
-84.2289
11
85.5803
21
-84.4079
0
LINE
8
BLACK
6
CONTINUOUS
10
85.5803
20
-84.4079
11
85.6
21
-84.595
0
LINE
8
BLACK
6
CONTINUOUS
10
85.6
20
-84.595
11
85.6
21
-84.845
0
LINE
8
BLACK
6
CONTINUOUS
10
85.6
20
-84.845
11
85.5803
21
-85.0321
0
LINE
8
BLACK
6
CONTINUOUS
10
85.5803
20
-85.0321
11
85.5222
21
-85.2111
0
LINE
8
BLACK
6
CONTINUOUS
10
85.5222
20
-85.2111
11
85.4281
21
-85.374
0
LINE
8
BLACK
6
CONTINUOUS
10
85.4281
20
-85.374
11
85.3022
21
-85.5138
0
LINE
8
BLACK
6
CONTINUOUS
10
85.3022
20
-85.5138
11
85.15
21
-85.6244
0
LINE
8
BLACK
6
CONTINUOUS
10
85.15
20
-85.6244
11
84.9781
21
-85.701
0
LINE
8
BLACK
6
CONTINUOUS
10
84.9781
20
-85.701
11
84.7941
21
-85.7401
0
LINE
8
BLACK
6
CONTINUOUS
10
84.7941
20
-85.7401
11
84.6059
21
-85.7401
0
LINE
8
BLACK
6
CONTINUOUS
10
84.6059
20
-85.7401
11
84.4219
21
-85.701
0
LINE
8
BLACK
6
CONTINUOUS
10
84.4219
20
-85.701
11
84.25
21
-85.6244
0
LINE
8
BLACK
6
CONTINUOUS
10
84.25
20
-85.6244
11
84.0978
21
-85.5138
0
LINE
8
BLACK
6
CONTINUOUS
10
84.0978
20
-85.5138
11
83.9719
21
-85.374
0
LINE
8
BLACK
6
CONTINUOUS
10
83.9719
20
-85.374
11
83.8778
21
-85.2111
0
LINE
8
BLACK
6
CONTINUOUS
10
83.8778
20
-85.2111
11
83.8197
21
-85.0321
0
LINE
8
BLACK
6
CONTINUOUS
10
83.8197
20
-85.0321
11
83.8
21
-84.845
0
LINE
8
BLACK
6
CONTINUOUS
10
83.8
20
-84.845
11
83.8
21
-84.595
0
LINE
8
BLACK
6
CONTINUOUS
10
83.8
20
-84.595
11
83.8197
21
-84.4079
0
LINE
8
BLACK
6
CONTINUOUS
10
83.8197
20
-84.4079
11
83.8778
21
-84.2289
0
LINE
8
BLACK
6
CONTINUOUS
10
83.8778
20
-84.2289
11
83.9719
21
-84.066
0
LINE
8
BLACK
6
CONTINUOUS
10
83.9719
20
-84.066
11
84.0978
21
-83.9262
0
LINE
8
BLACK
6
CONTINUOUS
10
84.0978
20
-83.9262
11
84.25
21
-83.8156
0
LINE
8
BLACK
6
CONTINUOUS
10
84.25
20
-83.8156
11
84.4219
21
-83.739
0
LINE
8
BLACK
6
CONTINUOUS
10
84.4219
20
-83.739
11
84.6059
21
-83.6999
0
LINE
8
BLACK
6
CONTINUOUS
10
84.6059
20
-83.6999
11
84.7941
21
-83.6999
0
LINE
8
BLACK
6
CONTINUOUS
10
84.7941
20
-83.6999
11
84.9781
21
-83.739
0
LINE
8
BLACK
6
CONTINUOUS
10
112.578
20
-83.739
11
112.75
21
-83.8156
0
LINE
8
BLACK
6
CONTINUOUS
10
112.75
20
-83.8156
11
112.902
21
-83.9262
0
LINE
8
BLACK
6
CONTINUOUS
10
112.902
20
-83.9262
11
113.028
21
-84.066
0
LINE
8
BLACK
6
CONTINUOUS
10
113.028
20
-84.066
11
113.122
21
-84.2289
0
LINE
8
BLACK
6
CONTINUOUS
10
113.122
20
-84.2289
11
113.18
21
-84.4079
0
LINE
8
BLACK
6
CONTINUOUS
10
113.18
20
-84.4079
11
113.2
21
-84.595
0
LINE
8
BLACK
6
CONTINUOUS
10
113.2
20
-84.595
11
113.2
21
-84.845
0
LINE
8
BLACK
6
CONTINUOUS
10
113.2
20
-84.845
11
113.18
21
-85.0321
0
LINE
8
BLACK
6
CONTINUOUS
10
113.18
20
-85.0321
11
113.122
21
-85.2111
0
LINE
8
BLACK
6
CONTINUOUS
10
113.122
20
-85.2111
11
113.028
21
-85.374
0
LINE
8
BLACK
6
CONTINUOUS
10
113.028
20
-85.374
11
112.902
21
-85.5138
0
LINE
8
BLACK
6
CONTINUOUS
10
112.902
20
-85.5138
11
112.75
21
-85.6244
0
LINE
8
BLACK
6
CONTINUOUS
10
112.75
20
-85.6244
11
112.578
21
-85.701
0
LINE
8
BLACK
6
CONTINUOUS
10
112.578
20
-85.701
11
112.394
21
-85.7401
0
LINE
8
BLACK
6
CONTINUOUS
10
112.394
20
-85.7401
11
112.206
21
-85.7401
0
LINE
8
BLACK
6
CONTINUOUS
10
112.206
20
-85.7401
11
112.022
21
-85.701
0
LINE
8
BLACK
6
CONTINUOUS
10
112.022
20
-85.701
11
111.85
21
-85.6244
0
LINE
8
BLACK
6
CONTINUOUS
10
111.85
20
-85.6244
11
111.698
21
-85.5138
0
LINE
8
BLACK
6
CONTINUOUS
10
111.698
20
-85.5138
11
111.572
21
-85.374
0
LINE
8
BLACK
6
CONTINUOUS
10
111.572
20
-85.374
11
111.478
21
-85.2111
0
LINE
8
BLACK
6
CONTINUOUS
10
111.478
20
-85.2111
11
111.42
21
-85.0321
0
LINE
8
BLACK
6
CONTINUOUS
10
111.42
20
-85.0321
11
111.4
21
-84.845
0
LINE
8
BLACK
6
CONTINUOUS
10
111.4
20
-84.845
11
111.4
21
-84.595
0
LINE
8
BLACK
6
CONTINUOUS
10
111.4
20
-84.595
11
111.42
21
-84.4079
0
LINE
8
BLACK
6
CONTINUOUS
10
111.42
20
-84.4079
11
111.478
21
-84.2289
0
LINE
8
BLACK
6
CONTINUOUS
10
111.478
20
-84.2289
11
111.572
21
-84.066
0
LINE
8
BLACK
6
CONTINUOUS
10
111.572
20
-84.066
11
111.698
21
-83.9262
0
LINE
8
BLACK
6
CONTINUOUS
10
111.698
20
-83.9262
11
111.85
21
-83.8156
0
LINE
8
BLACK
6
CONTINUOUS
10
111.85
20
-83.8156
11
112.022
21
-83.739
0
LINE
8
BLACK
6
CONTINUOUS
10
112.022
20
-83.739
11
112.206
21
-83.6999
0
LINE
8
BLACK
6
CONTINUOUS
10
112.206
20
-83.6999
11
112.394
21
-83.6999
0
LINE
8
BLACK
6
CONTINUOUS
10
112.394
20
-83.6999
11
112.578
21
-83.739
0
LINE
8
BLACK
6
CONTINUOUS
10
115.078
20
-83.739
11
115.25
21
-83.8156
0
LINE
8
BLACK
6
CONTINUOUS
10
115.25
20
-83.8156
11
115.402
21
-83.9262
0
LINE
8
BLACK
6
CONTINUOUS
10
115.402
20
-83.9262
11
115.528
21
-84.066
0
LINE
8
BLACK
6
CONTINUOUS
10
115.528
20
-84.066
11
115.622
21
-84.2289
0
LINE
8
BLACK
6
CONTINUOUS
10
115.622
20
-84.2289
11
115.68
21
-84.4079
0
LINE
8
BLACK
6
CONTINUOUS
10
115.68
20
-84.4079
11
115.7
21
-84.595
0
LINE
8
BLACK
6
CONTINUOUS
10
115.7
20
-84.595
11
115.7
21
-84.845
0
LINE
8
BLACK
6
CONTINUOUS
10
115.7
20
-84.845
11
115.68
21
-85.0321
0
LINE
8
BLACK
6
CONTINUOUS
10
115.68
20
-85.0321
11
115.622
21
-85.2111
0
LINE
8
BLACK
6
CONTINUOUS
10
115.622
20
-85.2111
11
115.528
21
-85.374
0
LINE
8
BLACK
6
CONTINUOUS
10
115.528
20
-85.374
11
115.402
21
-85.5138
0
LINE
8
BLACK
6
CONTINUOUS
10
115.402
20
-85.5138
11
115.25
21
-85.6244
0
LINE
8
BLACK
6
CONTINUOUS
10
115.25
20
-85.6244
11
115.078
21
-85.701
0
LINE
8
BLACK
6
CONTINUOUS
10
115.078
20
-85.701
11
114.894
21
-85.7401
0
LINE
8
BLACK
6
CONTINUOUS
10
114.894
20
-85.7401
11
114.706
21
-85.7401
0
LINE
8
BLACK
6
CONTINUOUS
10
114.706
20
-85.7401
11
114.522
21
-85.701
0
LINE
8
BLACK
6
CONTINUOUS
10
114.522
20
-85.701
11
114.35
21
-85.6244
0
LINE
8
BLACK
6
CONTINUOUS
10
114.35
20
-85.6244
11
114.198
21
-85.5138
0
LINE
8
BLACK
6
CONTINUOUS
10
114.198
20
-85.5138
11
114.072
21
-85.374
0
LINE
8
BLACK
6
CONTINUOUS
10
114.072
20
-85.374
11
113.978
21
-85.2111
0
LINE
8
BLACK
6
CONTINUOUS
10
113.978
20
-85.2111
11
113.92
21
-85.0321
0
LINE
8
BLACK
6
CONTINUOUS
10
113.92
20
-85.0321
11
113.9
21
-84.845
0
LINE
8
BLACK
6
CONTINUOUS
10
113.9
20
-84.845
11
113.9
21
-84.595
0
LINE
8
BLACK
6
CONTINUOUS
10
113.9
20
-84.595
11
113.92
21
-84.4079
0
LINE
8
BLACK
6
CONTINUOUS
10
113.92
20
-84.4079
11
113.978
21
-84.2289
0
LINE
8
BLACK
6
CONTINUOUS
10
113.978
20
-84.2289
11
114.072
21
-84.066
0
LINE
8
BLACK
6
CONTINUOUS
10
114.072
20
-84.066
11
114.198
21
-83.9262
0
LINE
8
BLACK
6
CONTINUOUS
10
114.198
20
-83.9262
11
114.35
21
-83.8156
0
LINE
8
BLACK
6
CONTINUOUS
10
114.35
20
-83.8156
11
114.522
21
-83.739
0
LINE
8
BLACK
6
CONTINUOUS
10
114.522
20
-83.739
11
114.706
21
-83.6999
0
LINE
8
BLACK
6
CONTINUOUS
10
114.706
20
-83.6999
11
114.894
21
-83.6999
0
LINE
8
BLACK
6
CONTINUOUS
10
114.894
20
-83.6999
11
115.078
21
-83.739
0
LINE
8
BLACK
6
CONTINUOUS
10
117.578
20
-83.739
11
117.75
21
-83.8156
0
LINE
8
BLACK
6
CONTINUOUS
10
117.75
20
-83.8156
11
117.902
21
-83.9262
0
LINE
8
BLACK
6
CONTINUOUS
10
117.902
20
-83.9262
11
118.028
21
-84.066
0
LINE
8
BLACK
6
CONTINUOUS
10
118.028
20
-84.066
11
118.122
21
-84.2289
0
LINE
8
BLACK
6
CONTINUOUS
10
118.122
20
-84.2289
11
118.18
21
-84.4079
0
LINE
8
BLACK
6
CONTINUOUS
10
118.18
20
-84.4079
11
118.2
21
-84.595
0
LINE
8
BLACK
6
CONTINUOUS
10
118.2
20
-84.595
11
118.2
21
-84.845
0
LINE
8
BLACK
6
CONTINUOUS
10
118.2
20
-84.845
11
118.18
21
-85.0321
0
LINE
8
BLACK
6
CONTINUOUS
10
118.18
20
-85.0321
11
118.122
21
-85.2111
0
LINE
8
BLACK
6
CONTINUOUS
10
118.122
20
-85.2111
11
118.028
21
-85.374
0
LINE
8
BLACK
6
CONTINUOUS
10
118.028
20
-85.374
11
117.902
21
-85.5138
0
LINE
8
BLACK
6
CONTINUOUS
10
117.902
20
-85.5138
11
117.75
21
-85.6244
0
LINE
8
BLACK
6
CONTINUOUS
10
117.75
20
-85.6244
11
117.578
21
-85.701
0
LINE
8
BLACK
6
CONTINUOUS
10
117.578
20
-85.701
11
117.394
21
-85.7401
0
LINE
8
BLACK
6
CONTINUOUS
10
117.394
20
-85.7401
11
117.206
21
-85.7401
0
LINE
8
BLACK
6
CONTINUOUS
10
117.206
20
-85.7401
11
117.022
21
-85.701
0
LINE
8
BLACK
6
CONTINUOUS
10
117.022
20
-85.701
11
116.85
21
-85.6244
0
LINE
8
BLACK
6
CONTINUOUS
10
116.85
20
-85.6244
11
116.698
21
-85.5138
0
LINE
8
BLACK
6
CONTINUOUS
10
116.698
20
-85.5138
11
116.572
21
-85.374
0
LINE
8
BLACK
6
CONTINUOUS
10
116.572
20
-85.374
11
116.478
21
-85.2111
0
LINE
8
BLACK
6
CONTINUOUS
10
116.478
20
-85.2111
11
116.42
21
-85.0321
0
LINE
8
BLACK
6
CONTINUOUS
10
116.42
20
-85.0321
11
116.4
21
-84.845
0
LINE
8
BLACK
6
CONTINUOUS
10
116.4
20
-84.845
11
116.4
21
-84.595
0
LINE
8
BLACK
6
CONTINUOUS
10
116.4
20
-84.595
11
116.42
21
-84.4079
0
LINE
8
BLACK
6
CONTINUOUS
10
116.42
20
-84.4079
11
116.478
21
-84.2289
0
LINE
8
BLACK
6
CONTINUOUS
10
116.478
20
-84.2289
11
116.572
21
-84.066
0
LINE
8
BLACK
6
CONTINUOUS
10
116.572
20
-84.066
11
116.698
21
-83.9262
0
LINE
8
BLACK
6
CONTINUOUS
10
116.698
20
-83.9262
11
116.85
21
-83.8156
0
LINE
8
BLACK
6
CONTINUOUS
10
116.85
20
-83.8156
11
117.022
21
-83.739
0
LINE
8
BLACK
6
CONTINUOUS
10
117.022
20
-83.739
11
117.206
21
-83.6999
0
LINE
8
BLACK
6
CONTINUOUS
10
117.206
20
-83.6999
11
117.394
21
-83.6999
0
LINE
8
BLACK
6
CONTINUOUS
10
117.394
20
-83.6999
11
117.578
21
-83.739
0
LINE
8
BLACK
6
CONTINUOUS
10
120.078
20
-83.739
11
120.25
21
-83.8156
0
LINE
8
BLACK
6
CONTINUOUS
10
120.25
20
-83.8156
11
120.402
21
-83.9262
0
LINE
8
BLACK
6
CONTINUOUS
10
120.402
20
-83.9262
11
120.528
21
-84.066
0
LINE
8
BLACK
6
CONTINUOUS
10
120.528
20
-84.066
11
120.622
21
-84.2289
0
LINE
8
BLACK
6
CONTINUOUS
10
120.622
20
-84.2289
11
120.68
21
-84.4079
0
LINE
8
BLACK
6
CONTINUOUS
10
120.68
20
-84.4079
11
120.7
21
-84.595
0
LINE
8
BLACK
6
CONTINUOUS
10
120.7
20
-84.595
11
120.7
21
-84.845
0
LINE
8
BLACK
6
CONTINUOUS
10
120.7
20
-84.845
11
120.68
21
-85.0321
0
LINE
8
BLACK
6
CONTINUOUS
10
120.68
20
-85.0321
11
120.622
21
-85.2111
0
LINE
8
BLACK
6
CONTINUOUS
10
120.622
20
-85.2111
11
120.528
21
-85.374
0
LINE
8
BLACK
6
CONTINUOUS
10
120.528
20
-85.374
11
120.402
21
-85.5138
0
LINE
8
BLACK
6
CONTINUOUS
10
120.402
20
-85.5138
11
120.25
21
-85.6244
0
LINE
8
BLACK
6
CONTINUOUS
10
120.25
20
-85.6244
11
120.078
21
-85.701
0
LINE
8
BLACK
6
CONTINUOUS
10
120.078
20
-85.701
11
119.894
21
-85.7401
0
LINE
8
BLACK
6
CONTINUOUS
10
119.894
20
-85.7401
11
119.706
21
-85.7401
0
LINE
8
BLACK
6
CONTINUOUS
10
119.706
20
-85.7401
11
119.522
21
-85.701
0
LINE
8
BLACK
6
CONTINUOUS
10
119.522
20
-85.701
11
119.35
21
-85.6244
0
LINE
8
BLACK
6
CONTINUOUS
10
119.35
20
-85.6244
11
119.198
21
-85.5138
0
LINE
8
BLACK
6
CONTINUOUS
10
119.198
20
-85.5138
11
119.072
21
-85.374
0
LINE
8
BLACK
6
CONTINUOUS
10
119.072
20
-85.374
11
118.978
21
-85.2111
0
LINE
8
BLACK
6
CONTINUOUS
10
118.978
20
-85.2111
11
118.92
21
-85.0321
0
LINE
8
BLACK
6
CONTINUOUS
10
118.92
20
-85.0321
11
118.9
21
-84.845
0
LINE
8
BLACK
6
CONTINUOUS
10
118.9
20
-84.845
11
118.9
21
-84.595
0
LINE
8
BLACK
6
CONTINUOUS
10
118.9
20
-84.595
11
118.92
21
-84.4079
0
LINE
8
BLACK
6
CONTINUOUS
10
118.92
20
-84.4079
11
118.978
21
-84.2289
0
LINE
8
BLACK
6
CONTINUOUS
10
118.978
20
-84.2289
11
119.072
21
-84.066
0
LINE
8
BLACK
6
CONTINUOUS
10
119.072
20
-84.066
11
119.198
21
-83.9262
0
LINE
8
BLACK
6
CONTINUOUS
10
119.198
20
-83.9262
11
119.35
21
-83.8156
0
LINE
8
BLACK
6
CONTINUOUS
10
119.35
20
-83.8156
11
119.522
21
-83.739
0
LINE
8
BLACK
6
CONTINUOUS
10
119.522
20
-83.739
11
119.706
21
-83.6999
0
LINE
8
BLACK
6
CONTINUOUS
10
119.706
20
-83.6999
11
119.894
21
-83.6999
0
LINE
8
BLACK
6
CONTINUOUS
10
119.894
20
-83.6999
11
120.078
21
-83.739
0
LINE
8
BLACK
6
CONTINUOUS
10
105.609
20
-82.6838
11
105.625
21
-82.6946
0
LINE
8
BLACK
6
CONTINUOUS
10
105.625
20
-82.6946
11
105.636
21
-82.7109
0
LINE
8
BLACK
6
CONTINUOUS
10
105.636
20
-82.7109
11
105.64
21
-82.73
0
LINE
8
BLACK
6
CONTINUOUS
10
105.64
20
-82.73
11
105.64
21
-84.43
0
LINE
8
BLACK
6
CONTINUOUS
10
105.64
20
-84.43
11
105.636
21
-84.4491
0
LINE
8
BLACK
6
CONTINUOUS
10
105.636
20
-84.4491
11
105.625
21
-84.4654
0
LINE
8
BLACK
6
CONTINUOUS
10
105.625
20
-84.4654
11
105.609
21
-84.4762
0
LINE
8
BLACK
6
CONTINUOUS
10
105.609
20
-84.4762
11
105.59
21
-84.48
0
LINE
8
BLACK
6
CONTINUOUS
10
105.59
20
-84.48
11
103.89
21
-84.48
0
LINE
8
BLACK
6
CONTINUOUS
10
103.89
20
-84.48
11
103.871
21
-84.4762
0
LINE
8
BLACK
6
CONTINUOUS
10
103.871
20
-84.4762
11
103.855
21
-84.4654
0
LINE
8
BLACK
6
CONTINUOUS
10
103.855
20
-84.4654
11
103.844
21
-84.4491
0
LINE
8
BLACK
6
CONTINUOUS
10
103.844
20
-84.4491
11
103.84
21
-84.43
0
LINE
8
BLACK
6
CONTINUOUS
10
103.84
20
-84.43
11
103.84
21
-82.73
0
LINE
8
BLACK
6
CONTINUOUS
10
103.84
20
-82.73
11
103.844
21
-82.7109
0
LINE
8
BLACK
6
CONTINUOUS
10
103.844
20
-82.7109
11
103.855
21
-82.6946
0
LINE
8
BLACK
6
CONTINUOUS
10
103.855
20
-82.6946
11
103.871
21
-82.6838
0
LINE
8
BLACK
6
CONTINUOUS
10
103.871
20
-82.6838
11
103.89
21
-82.68
0
LINE
8
BLACK
6
CONTINUOUS
10
103.89
20
-82.68
11
105.59
21
-82.68
0
LINE
8
BLACK
6
CONTINUOUS
10
105.59
20
-82.68
11
105.609
21
-82.6838
0
LINE
8
BLACK
6
CONTINUOUS
10
99.9381
20
-82.724
11
100.11
21
-82.8006
0
LINE
8
BLACK
6
CONTINUOUS
10
100.11
20
-82.8006
11
100.262
21
-82.9112
0
LINE
8
BLACK
6
CONTINUOUS
10
100.262
20
-82.9112
11
100.388
21
-83.051
0
LINE
8
BLACK
6
CONTINUOUS
10
100.388
20
-83.051
11
100.482
21
-83.2139
0
LINE
8
BLACK
6
CONTINUOUS
10
100.482
20
-83.2139
11
100.54
21
-83.3929
0
LINE
8
BLACK
6
CONTINUOUS
10
100.54
20
-83.3929
11
100.56
21
-83.58
0
LINE
8
BLACK
6
CONTINUOUS
10
100.56
20
-83.58
11
100.54
21
-83.7671
0
LINE
8
BLACK
6
CONTINUOUS
10
100.54
20
-83.7671
11
100.482
21
-83.9461
0
LINE
8
BLACK
6
CONTINUOUS
10
100.482
20
-83.9461
11
100.388
21
-84.109
0
LINE
8
BLACK
6
CONTINUOUS
10
100.388
20
-84.109
11
100.262
21
-84.2488
0
LINE
8
BLACK
6
CONTINUOUS
10
100.262
20
-84.2488
11
100.11
21
-84.3594
0
LINE
8
BLACK
6
CONTINUOUS
10
100.11
20
-84.3594
11
99.9381
21
-84.436
0
LINE
8
BLACK
6
CONTINUOUS
10
99.9381
20
-84.436
11
99.7541
21
-84.4751
0
LINE
8
BLACK
6
CONTINUOUS
10
99.7541
20
-84.4751
11
99.5659
21
-84.4751
0
LINE
8
BLACK
6
CONTINUOUS
10
99.5659
20
-84.4751
11
99.3819
21
-84.436
0
LINE
8
BLACK
6
CONTINUOUS
10
99.3819
20
-84.436
11
99.21
21
-84.3594
0
LINE
8
BLACK
6
CONTINUOUS
10
99.21
20
-84.3594
11
99.0578
21
-84.2488
0
LINE
8
BLACK
6
CONTINUOUS
10
99.0578
20
-84.2488
11
98.9319
21
-84.109
0
LINE
8
BLACK
6
CONTINUOUS
10
98.9319
20
-84.109
11
98.8378
21
-83.9461
0
LINE
8
BLACK
6
CONTINUOUS
10
98.8378
20
-83.9461
11
98.7797
21
-83.7671
0
LINE
8
BLACK
6
CONTINUOUS
10
98.7797
20
-83.7671
11
98.76
21
-83.58
0
LINE
8
BLACK
6
CONTINUOUS
10
98.76
20
-83.58
11
98.7797
21
-83.3929
0
LINE
8
BLACK
6
CONTINUOUS
10
98.7797
20
-83.3929
11
98.8378
21
-83.2139
0
LINE
8
BLACK
6
CONTINUOUS
10
98.8378
20
-83.2139
11
98.9319
21
-83.051
0
LINE
8
BLACK
6
CONTINUOUS
10
98.9319
20
-83.051
11
99.0578
21
-82.9112
0
LINE
8
BLACK
6
CONTINUOUS
10
99.0578
20
-82.9112
11
99.21
21
-82.8006
0
LINE
8
BLACK
6
CONTINUOUS
10
99.21
20
-82.8006
11
99.3819
21
-82.724
0
LINE
8
BLACK
6
CONTINUOUS
10
99.3819
20
-82.724
11
99.5659
21
-82.6849
0
LINE
8
BLACK
6
CONTINUOUS
10
99.5659
20
-82.6849
11
99.7541
21
-82.6849
0
LINE
8
BLACK
6
CONTINUOUS
10
99.7541
20
-82.6849
11
99.9381
21
-82.724
0
LINE
8
BLACK
6
CONTINUOUS
10
102.478
20
-82.724
11
102.65
21
-82.8006
0
LINE
8
BLACK
6
CONTINUOUS
10
102.65
20
-82.8006
11
102.802
21
-82.9112
0
LINE
8
BLACK
6
CONTINUOUS
10
102.802
20
-82.9112
11
102.928
21
-83.051
0
LINE
8
BLACK
6
CONTINUOUS
10
102.928
20
-83.051
11
103.022
21
-83.2139
0
LINE
8
BLACK
6
CONTINUOUS
10
103.022
20
-83.2139
11
103.08
21
-83.3929
0
LINE
8
BLACK
6
CONTINUOUS
10
103.08
20
-83.3929
11
103.1
21
-83.58
0
LINE
8
BLACK
6
CONTINUOUS
10
103.1
20
-83.58
11
103.08
21
-83.7671
0
LINE
8
BLACK
6
CONTINUOUS
10
103.08
20
-83.7671
11
103.022
21
-83.9461
0
LINE
8
BLACK
6
CONTINUOUS
10
103.022
20
-83.9461
11
102.928
21
-84.109
0
LINE
8
BLACK
6
CONTINUOUS
10
102.928
20
-84.109
11
102.802
21
-84.2488
0
LINE
8
BLACK
6
CONTINUOUS
10
102.802
20
-84.2488
11
102.65
21
-84.3594
0
LINE
8
BLACK
6
CONTINUOUS
10
102.65
20
-84.3594
11
102.478
21
-84.436
0
LINE
8
BLACK
6
CONTINUOUS
10
102.478
20
-84.436
11
102.294
21
-84.4751
0
LINE
8
BLACK
6
CONTINUOUS
10
102.294
20
-84.4751
11
102.106
21
-84.4751
0
LINE
8
BLACK
6
CONTINUOUS
10
102.106
20
-84.4751
11
101.922
21
-84.436
0
LINE
8
BLACK
6
CONTINUOUS
10
101.922
20
-84.436
11
101.75
21
-84.3594
0
LINE
8
BLACK
6
CONTINUOUS
10
101.75
20
-84.3594
11
101.598
21
-84.2488
0
LINE
8
BLACK
6
CONTINUOUS
10
101.598
20
-84.2488
11
101.472
21
-84.109
0
LINE
8
BLACK
6
CONTINUOUS
10
101.472
20
-84.109
11
101.378
21
-83.9461
0
LINE
8
BLACK
6
CONTINUOUS
10
101.378
20
-83.9461
11
101.32
21
-83.7671
0
LINE
8
BLACK
6
CONTINUOUS
10
101.32
20
-83.7671
11
101.3
21
-83.58
0
LINE
8
BLACK
6
CONTINUOUS
10
101.3
20
-83.58
11
101.32
21
-83.3929
0
LINE
8
BLACK
6
CONTINUOUS
10
101.32
20
-83.3929
11
101.378
21
-83.2139
0
LINE
8
BLACK
6
CONTINUOUS
10
101.378
20
-83.2139
11
101.472
21
-83.051
0
LINE
8
BLACK
6
CONTINUOUS
10
101.472
20
-83.051
11
101.598
21
-82.9112
0
LINE
8
BLACK
6
CONTINUOUS
10
101.598
20
-82.9112
11
101.75
21
-82.8006
0
LINE
8
BLACK
6
CONTINUOUS
10
101.75
20
-82.8006
11
101.922
21
-82.724
0
LINE
8
BLACK
6
CONTINUOUS
10
101.922
20
-82.724
11
102.106
21
-82.6849
0
LINE
8
BLACK
6
CONTINUOUS
10
102.106
20
-82.6849
11
102.294
21
-82.6849
0
LINE
8
BLACK
6
CONTINUOUS
10
102.294
20
-82.6849
11
102.478
21
-82.724
0
LINE
8
BLACK
6
CONTINUOUS
10
124.591
20
-73.6389
11
124.935
21
-73.7145
0
LINE
8
BLACK
6
CONTINUOUS
10
124.935
20
-73.7145
11
125.268
21
-73.8269
0
LINE
8
BLACK
6
CONTINUOUS
10
125.268
20
-73.8269
11
125.587
21
-73.9746
0
LINE
8
BLACK
6
CONTINUOUS
10
125.587
20
-73.9746
11
125.889
21
-74.1561
0
LINE
8
BLACK
6
CONTINUOUS
10
125.889
20
-74.1561
11
126.169
21
-74.369
0
LINE
8
BLACK
6
CONTINUOUS
10
126.169
20
-74.369
11
126.425
21
-74.611
0
LINE
8
BLACK
6
CONTINUOUS
10
126.425
20
-74.611
11
126.652
21
-74.8792
0
LINE
8
BLACK
6
CONTINUOUS
10
126.652
20
-74.8792
11
126.85
21
-75.1705
0
LINE
8
BLACK
6
CONTINUOUS
10
126.85
20
-75.1705
11
127.015
21
-75.4814
0
LINE
8
BLACK
6
CONTINUOUS
10
127.015
20
-75.4814
11
127.145
21
-75.8083
0
LINE
8
BLACK
6
CONTINUOUS
10
127.145
20
-75.8083
11
127.239
21
-76.1474
0
LINE
8
BLACK
6
CONTINUOUS
10
127.239
20
-76.1474
11
127.296
21
-76.4947
0
LINE
8
BLACK
6
CONTINUOUS
10
127.296
20
-76.4947
11
127.315
21
-76.8461
0
LINE
8
BLACK
6
CONTINUOUS
10
127.315
20
-76.8461
11
127.296
21
-77.1974
0
LINE
8
BLACK
6
CONTINUOUS
10
127.296
20
-77.1974
11
127.239
21
-77.5447
0
LINE
8
BLACK
6
CONTINUOUS
10
127.239
20
-77.5447
11
127.145
21
-77.8838
0
LINE
8
BLACK
6
CONTINUOUS
10
127.145
20
-77.8838
11
127.015
21
-78.2107
0
LINE
8
BLACK
6
CONTINUOUS
10
127.015
20
-78.2107
11
126.85
21
-78.5216
0
LINE
8
BLACK
6
CONTINUOUS
10
126.85
20
-78.5216
11
126.652
21
-78.8129
0
LINE
8
BLACK
6
CONTINUOUS
10
126.652
20
-78.8129
11
126.425
21
-79.0811
0
LINE
8
BLACK
6
CONTINUOUS
10
126.425
20
-79.0811
11
126.169
21
-79.3231
0
LINE
8
BLACK
6
CONTINUOUS
10
126.169
20
-79.3231
11
125.889
21
-79.536
0
LINE
8
BLACK
6
CONTINUOUS
10
125.889
20
-79.536
11
125.587
21
-79.7175
0
LINE
8
BLACK
6
CONTINUOUS
10
125.587
20
-79.7175
11
125.268
21
-79.8652
0
LINE
8
BLACK
6
CONTINUOUS
10
125.268
20
-79.8652
11
124.935
21
-79.9776
0
LINE
8
BLACK
6
CONTINUOUS
10
124.935
20
-79.9776
11
124.591
21
-80.0532
0
LINE
8
BLACK
6
CONTINUOUS
10
124.591
20
-80.0532
11
124.241
21
-80.0913
0
LINE
8
BLACK
6
CONTINUOUS
10
124.241
20
-80.0913
11
123.889
21
-80.0913
0
LINE
8
BLACK
6
CONTINUOUS
10
123.889
20
-80.0913
11
123.539
21
-80.0532
0
LINE
8
BLACK
6
CONTINUOUS
10
123.539
20
-80.0532
11
123.196
21
-79.9776
0
LINE
8
BLACK
6
CONTINUOUS
10
123.196
20
-79.9776
11
122.862
21
-79.8652
0
LINE
8
BLACK
6
CONTINUOUS
10
122.862
20
-79.8652
11
122.543
21
-79.7175
0
LINE
8
BLACK
6
CONTINUOUS
10
122.543
20
-79.7175
11
122.241
21
-79.536
0
LINE
8
BLACK
6
CONTINUOUS
10
122.241
20
-79.536
11
121.961
21
-79.3231
0
LINE
8
BLACK
6
CONTINUOUS
10
121.961
20
-79.3231
11
121.706
21
-79.0811
0
LINE
8
BLACK
6
CONTINUOUS
10
121.706
20
-79.0811
11
121.478
21
-78.8129
0
LINE
8
BLACK
6
CONTINUOUS
10
121.478
20
-78.8129
11
121.28
21
-78.5216
0
LINE
8
BLACK
6
CONTINUOUS
10
121.28
20
-78.5216
11
121.115
21
-78.2107
0
LINE
8
BLACK
6
CONTINUOUS
10
121.115
20
-78.2107
11
120.985
21
-77.8838
0
LINE
8
BLACK
6
CONTINUOUS
10
120.985
20
-77.8838
11
120.891
21
-77.5447
0
LINE
8
BLACK
6
CONTINUOUS
10
120.891
20
-77.5447
11
120.834
21
-77.1974
0
LINE
8
BLACK
6
CONTINUOUS
10
120.834
20
-77.1974
11
120.815
21
-76.8461
0
LINE
8
BLACK
6
CONTINUOUS
10
120.815
20
-76.8461
11
120.834
21
-76.4947
0
LINE
8
BLACK
6
CONTINUOUS
10
120.834
20
-76.4947
11
120.891
21
-76.1474
0
LINE
8
BLACK
6
CONTINUOUS
10
120.891
20
-76.1474
11
120.985
21
-75.8083
0
LINE
8
BLACK
6
CONTINUOUS
10
120.985
20
-75.8083
11
121.115
21
-75.4814
0
LINE
8
BLACK
6
CONTINUOUS
10
121.115
20
-75.4814
11
121.28
21
-75.1705
0
LINE
8
BLACK
6
CONTINUOUS
10
121.28
20
-75.1705
11
121.478
21
-74.8792
0
LINE
8
BLACK
6
CONTINUOUS
10
121.478
20
-74.8792
11
121.706
21
-74.611
0
LINE
8
BLACK
6
CONTINUOUS
10
121.706
20
-74.611
11
121.961
21
-74.369
0
LINE
8
BLACK
6
CONTINUOUS
10
121.961
20
-74.369
11
122.241
21
-74.1561
0
LINE
8
BLACK
6
CONTINUOUS
10
122.241
20
-74.1561
11
122.543
21
-73.9746
0
LINE
8
BLACK
6
CONTINUOUS
10
122.543
20
-73.9746
11
122.862
21
-73.8269
0
LINE
8
BLACK
6
CONTINUOUS
10
122.862
20
-73.8269
11
123.196
21
-73.7145
0
LINE
8
BLACK
6
CONTINUOUS
10
123.196
20
-73.7145
11
123.539
21
-73.6389
0
LINE
8
BLACK
6
CONTINUOUS
10
123.539
20
-73.6389
11
123.889
21
-73.6008
0
LINE
8
BLACK
6
CONTINUOUS
10
123.889
20
-73.6008
11
124.241
21
-73.6008
0
LINE
8
BLACK
6
CONTINUOUS
10
124.241
20
-73.6008
11
124.591
21
-73.6389
0
LINE
8
BLACK
6
CONTINUOUS
10
72.3781
20
-76.164
11
72.55
21
-76.2406
0
LINE
8
BLACK
6
CONTINUOUS
10
72.55
20
-76.2406
11
72.7022
21
-76.3512
0
LINE
8
BLACK
6
CONTINUOUS
10
72.7022
20
-76.3512
11
72.8281
21
-76.491
0
LINE
8
BLACK
6
CONTINUOUS
10
72.8281
20
-76.491
11
72.9222
21
-76.6539
0
LINE
8
BLACK
6
CONTINUOUS
10
72.9222
20
-76.6539
11
72.9803
21
-76.8329
0
LINE
8
BLACK
6
CONTINUOUS
10
72.9803
20
-76.8329
11
73
21
-77.02
0
LINE
8
BLACK
6
CONTINUOUS
10
73
20
-77.02
11
72.9803
21
-77.2071
0
LINE
8
BLACK
6
CONTINUOUS
10
72.9803
20
-77.2071
11
72.9222
21
-77.3861
0
LINE
8
BLACK
6
CONTINUOUS
10
72.9222
20
-77.3861
11
72.8281
21
-77.549
0
LINE
8
BLACK
6
CONTINUOUS
10
72.8281
20
-77.549
11
72.7022
21
-77.6888
0
LINE
8
BLACK
6
CONTINUOUS
10
72.7022
20
-77.6888
11
72.55
21
-77.7994
0
LINE
8
BLACK
6
CONTINUOUS
10
72.55
20
-77.7994
11
72.3781
21
-77.876
0
LINE
8
BLACK
6
CONTINUOUS
10
72.3781
20
-77.876
11
72.1941
21
-77.9151
0
LINE
8
BLACK
6
CONTINUOUS
10
72.1941
20
-77.9151
11
72.0059
21
-77.9151
0
LINE
8
BLACK
6
CONTINUOUS
10
72.0059
20
-77.9151
11
71.8219
21
-77.876
0
LINE
8
BLACK
6
CONTINUOUS
10
71.8219
20
-77.876
11
71.65
21
-77.7994
0
LINE
8
BLACK
6
CONTINUOUS
10
71.65
20
-77.7994
11
71.4978
21
-77.6888
0
LINE
8
BLACK
6
CONTINUOUS
10
71.4978
20
-77.6888
11
71.3719
21
-77.549
0
LINE
8
BLACK
6
CONTINUOUS
10
71.3719
20
-77.549
11
71.2778
21
-77.3861
0
LINE
8
BLACK
6
CONTINUOUS
10
71.2778
20
-77.3861
11
71.2197
21
-77.2071
0
LINE
8
BLACK
6
CONTINUOUS
10
71.2197
20
-77.2071
11
71.2
21
-77.02
0
LINE
8
BLACK
6
CONTINUOUS
10
71.2
20
-77.02
11
71.2197
21
-76.8329
0
LINE
8
BLACK
6
CONTINUOUS
10
71.2197
20
-76.8329
11
71.2778
21
-76.6539
0
LINE
8
BLACK
6
CONTINUOUS
10
71.2778
20
-76.6539
11
71.3719
21
-76.491
0
LINE
8
BLACK
6
CONTINUOUS
10
71.3719
20
-76.491
11
71.4978
21
-76.3512
0
LINE
8
BLACK
6
CONTINUOUS
10
71.4978
20
-76.3512
11
71.65
21
-76.2406
0
LINE
8
BLACK
6
CONTINUOUS
10
71.65
20
-76.2406
11
71.8219
21
-76.164
0
LINE
8
BLACK
6
CONTINUOUS
10
71.8219
20
-76.164
11
72.0059
21
-76.1249
0
LINE
8
BLACK
6
CONTINUOUS
10
72.0059
20
-76.1249
11
72.1941
21
-76.1249
0
LINE
8
BLACK
6
CONTINUOUS
10
72.1941
20
-76.1249
11
72.3781
21
-76.164
0
LINE
8
BLACK
6
CONTINUOUS
10
72.3781
20
-73.624
11
72.55
21
-73.7006
0
LINE
8
BLACK
6
CONTINUOUS
10
72.55
20
-73.7006
11
72.7022
21
-73.8112
0
LINE
8
BLACK
6
CONTINUOUS
10
72.7022
20
-73.8112
11
72.8281
21
-73.951
0
LINE
8
BLACK
6
CONTINUOUS
10
72.8281
20
-73.951
11
72.9222
21
-74.1139
0
LINE
8
BLACK
6
CONTINUOUS
10
72.9222
20
-74.1139
11
72.9803
21
-74.2929
0
LINE
8
BLACK
6
CONTINUOUS
10
72.9803
20
-74.2929
11
73
21
-74.48
0
LINE
8
BLACK
6
CONTINUOUS
10
73
20
-74.48
11
72.9803
21
-74.6671
0
LINE
8
BLACK
6
CONTINUOUS
10
72.9803
20
-74.6671
11
72.9222
21
-74.8461
0
LINE
8
BLACK
6
CONTINUOUS
10
72.9222
20
-74.8461
11
72.8281
21
-75.009
0
LINE
8
BLACK
6
CONTINUOUS
10
72.8281
20
-75.009
11
72.7022
21
-75.1488
0
LINE
8
BLACK
6
CONTINUOUS
10
72.7022
20
-75.1488
11
72.55
21
-75.2594
0
LINE
8
BLACK
6
CONTINUOUS
10
72.55
20
-75.2594
11
72.3781
21
-75.336
0
LINE
8
BLACK
6
CONTINUOUS
10
72.3781
20
-75.336
11
72.1941
21
-75.3751
0
LINE
8
BLACK
6
CONTINUOUS
10
72.1941
20
-75.3751
11
72.0059
21
-75.3751
0
LINE
8
BLACK
6
CONTINUOUS
10
72.0059
20
-75.3751
11
71.8219
21
-75.336
0
LINE
8
BLACK
6
CONTINUOUS
10
71.8219
20
-75.336
11
71.65
21
-75.2594
0
LINE
8
BLACK
6
CONTINUOUS
10
71.65
20
-75.2594
11
71.4978
21
-75.1488
0
LINE
8
BLACK
6
CONTINUOUS
10
71.4978
20
-75.1488
11
71.3719
21
-75.009
0
LINE
8
BLACK
6
CONTINUOUS
10
71.3719
20
-75.009
11
71.2778
21
-74.8461
0
LINE
8
BLACK
6
CONTINUOUS
10
71.2778
20
-74.8461
11
71.2197
21
-74.6671
0
LINE
8
BLACK
6
CONTINUOUS
10
71.2197
20
-74.6671
11
71.2
21
-74.48
0
LINE
8
BLACK
6
CONTINUOUS
10
71.2
20
-74.48
11
71.2197
21
-74.2929
0
LINE
8
BLACK
6
CONTINUOUS
10
71.2197
20
-74.2929
11
71.2778
21
-74.1139
0
LINE
8
BLACK
6
CONTINUOUS
10
71.2778
20
-74.1139
11
71.3719
21
-73.951
0
LINE
8
BLACK
6
CONTINUOUS
10
71.3719
20
-73.951
11
71.4978
21
-73.8112
0
LINE
8
BLACK
6
CONTINUOUS
10
71.4978
20
-73.8112
11
71.65
21
-73.7006
0
LINE
8
BLACK
6
CONTINUOUS
10
71.65
20
-73.7006
11
71.8219
21
-73.624
0
LINE
8
BLACK
6
CONTINUOUS
10
71.8219
20
-73.624
11
72.0059
21
-73.5849
0
LINE
8
BLACK
6
CONTINUOUS
10
72.0059
20
-73.5849
11
72.1941
21
-73.5849
0
LINE
8
BLACK
6
CONTINUOUS
10
72.1941
20
-73.5849
11
72.3781
21
-73.624
0
LINE
8
BLACK
6
CONTINUOUS
10
72.9691
20
-71.0438
11
72.9854
21
-71.0546
0
LINE
8
BLACK
6
CONTINUOUS
10
72.9854
20
-71.0546
11
72.9962
21
-71.0709
0
LINE
8
BLACK
6
CONTINUOUS
10
72.9962
20
-71.0709
11
73
21
-71.09
0
LINE
8
BLACK
6
CONTINUOUS
10
73
20
-71.09
11
73
21
-72.79
0
LINE
8
BLACK
6
CONTINUOUS
10
73
20
-72.79
11
72.9962
21
-72.8091
0
LINE
8
BLACK
6
CONTINUOUS
10
72.9962
20
-72.8091
11
72.9854
21
-72.8254
0
LINE
8
BLACK
6
CONTINUOUS
10
72.9854
20
-72.8254
11
72.9691
21
-72.8362
0
LINE
8
BLACK
6
CONTINUOUS
10
72.9691
20
-72.8362
11
72.95
21
-72.84
0
LINE
8
BLACK
6
CONTINUOUS
10
72.95
20
-72.84
11
71.25
21
-72.84
0
LINE
8
BLACK
6
CONTINUOUS
10
71.25
20
-72.84
11
71.2309
21
-72.8362
0
LINE
8
BLACK
6
CONTINUOUS
10
71.2309
20
-72.8362
11
71.2146
21
-72.8254
0
LINE
8
BLACK
6
CONTINUOUS
10
71.2146
20
-72.8254
11
71.2038
21
-72.8091
0
LINE
8
BLACK
6
CONTINUOUS
10
71.2038
20
-72.8091
11
71.2
21
-72.79
0
LINE
8
BLACK
6
CONTINUOUS
10
71.2
20
-72.79
11
71.2
21
-71.09
0
LINE
8
BLACK
6
CONTINUOUS
10
71.2
20
-71.09
11
71.2038
21
-71.0709
0
LINE
8
BLACK
6
CONTINUOUS
10
71.2038
20
-71.0709
11
71.2146
21
-71.0546
0
LINE
8
BLACK
6
CONTINUOUS
10
71.2146
20
-71.0546
11
71.2309
21
-71.0438
0
LINE
8
BLACK
6
CONTINUOUS
10
71.2309
20
-71.0438
11
71.25
21
-71.04
0
LINE
8
BLACK
6
CONTINUOUS
10
71.25
20
-71.04
11
72.95
21
-71.04
0
LINE
8
BLACK
6
CONTINUOUS
10
72.95
20
-71.04
11
72.9691
21
-71.0438
0
LINE
8
BLACK
6
CONTINUOUS
10
124.602
20
-48.4797
11
124.781
21
-48.5378
0
LINE
8
BLACK
6
CONTINUOUS
10
124.781
20
-48.5378
11
124.944
21
-48.6319
0
LINE
8
BLACK
6
CONTINUOUS
10
124.944
20
-48.6319
11
125.084
21
-48.7578
0
LINE
8
BLACK
6
CONTINUOUS
10
125.084
20
-48.7578
11
125.194
21
-48.91
0
LINE
8
BLACK
6
CONTINUOUS
10
125.194
20
-48.91
11
125.271
21
-49.0819
0
LINE
8
BLACK
6
CONTINUOUS
10
125.271
20
-49.0819
11
125.31
21
-49.2659
0
LINE
8
BLACK
6
CONTINUOUS
10
125.31
20
-49.2659
11
125.31
21
-49.4541
0
LINE
8
BLACK
6
CONTINUOUS
10
125.31
20
-49.4541
11
125.271
21
-49.6381
0
LINE
8
BLACK
6
CONTINUOUS
10
125.271
20
-49.6381
11
125.194
21
-49.81
0
LINE
8
BLACK
6
CONTINUOUS
10
125.194
20
-49.81
11
125.084
21
-49.9622
0
LINE
8
BLACK
6
CONTINUOUS
10
125.084
20
-49.9622
11
124.944
21
-50.0881
0
LINE
8
BLACK
6
CONTINUOUS
10
124.944
20
-50.0881
11
124.781
21
-50.1822
0
LINE
8
BLACK
6
CONTINUOUS
10
124.781
20
-50.1822
11
124.602
21
-50.2403
0
LINE
8
BLACK
6
CONTINUOUS
10
124.602
20
-50.2403
11
124.415
21
-50.26
0
LINE
8
BLACK
6
CONTINUOUS
10
124.415
20
-50.26
11
124.165
21
-50.26
0
LINE
8
BLACK
6
CONTINUOUS
10
124.165
20
-50.26
11
123.978
21
-50.2403
0
LINE
8
BLACK
6
CONTINUOUS
10
123.978
20
-50.2403
11
123.799
21
-50.1822
0
LINE
8
BLACK
6
CONTINUOUS
10
123.799
20
-50.1822
11
123.636
21
-50.0881
0
LINE
8
BLACK
6
CONTINUOUS
10
123.636
20
-50.0881
11
123.496
21
-49.9622
0
LINE
8
BLACK
6
CONTINUOUS
10
123.496
20
-49.9622
11
123.386
21
-49.81
0
LINE
8
BLACK
6
CONTINUOUS
10
123.386
20
-49.81
11
123.309
21
-49.6381
0
LINE
8
BLACK
6
CONTINUOUS
10
123.309
20
-49.6381
11
123.27
21
-49.4541
0
LINE
8
BLACK
6
CONTINUOUS
10
123.27
20
-49.4541
11
123.27
21
-49.2659
0
LINE
8
BLACK
6
CONTINUOUS
10
123.27
20
-49.2659
11
123.309
21
-49.0819
0
LINE
8
BLACK
6
CONTINUOUS
10
123.309
20
-49.0819
11
123.386
21
-48.91
0
LINE
8
BLACK
6
CONTINUOUS
10
123.386
20
-48.91
11
123.496
21
-48.7578
0
LINE
8
BLACK
6
CONTINUOUS
10
123.496
20
-48.7578
11
123.636
21
-48.6319
0
LINE
8
BLACK
6
CONTINUOUS
10
123.636
20
-48.6319
11
123.799
21
-48.5378
0
LINE
8
BLACK
6
CONTINUOUS
10
123.799
20
-48.5378
11
123.978
21
-48.4797
0
LINE
8
BLACK
6
CONTINUOUS
10
123.978
20
-48.4797
11
124.165
21
-48.46
0
LINE
8
BLACK
6
CONTINUOUS
10
124.165
20
-48.46
11
124.415
21
-48.46
0
LINE
8
BLACK
6
CONTINUOUS
10
124.415
20
-48.46
11
124.602
21
-48.4797
0
LINE
8
BLACK
6
CONTINUOUS
10
124.602
20
-45.9797
11
124.781
21
-46.0378
0
LINE
8
BLACK
6
CONTINUOUS
10
124.781
20
-46.0378
11
124.944
21
-46.1319
0
LINE
8
BLACK
6
CONTINUOUS
10
124.944
20
-46.1319
11
125.084
21
-46.2578
0
LINE
8
BLACK
6
CONTINUOUS
10
125.084
20
-46.2578
11
125.194
21
-46.41
0
LINE
8
BLACK
6
CONTINUOUS
10
125.194
20
-46.41
11
125.271
21
-46.5819
0
LINE
8
BLACK
6
CONTINUOUS
10
125.271
20
-46.5819
11
125.31
21
-46.7659
0
LINE
8
BLACK
6
CONTINUOUS
10
125.31
20
-46.7659
11
125.31
21
-46.9541
0
LINE
8
BLACK
6
CONTINUOUS
10
125.31
20
-46.9541
11
125.271
21
-47.1381
0
LINE
8
BLACK
6
CONTINUOUS
10
125.271
20
-47.1381
11
125.194
21
-47.31
0
LINE
8
BLACK
6
CONTINUOUS
10
125.194
20
-47.31
11
125.084
21
-47.4622
0
LINE
8
BLACK
6
CONTINUOUS
10
125.084
20
-47.4622
11
124.944
21
-47.5881
0
LINE
8
BLACK
6
CONTINUOUS
10
124.944
20
-47.5881
11
124.781
21
-47.6822
0
LINE
8
BLACK
6
CONTINUOUS
10
124.781
20
-47.6822
11
124.602
21
-47.7403
0
LINE
8
BLACK
6
CONTINUOUS
10
124.602
20
-47.7403
11
124.415
21
-47.76
0
LINE
8
BLACK
6
CONTINUOUS
10
124.415
20
-47.76
11
124.165
21
-47.76
0
LINE
8
BLACK
6
CONTINUOUS
10
124.165
20
-47.76
11
123.978
21
-47.7403
0
LINE
8
BLACK
6
CONTINUOUS
10
123.978
20
-47.7403
11
123.799
21
-47.6822
0
LINE
8
BLACK
6
CONTINUOUS
10
123.799
20
-47.6822
11
123.636
21
-47.5881
0
LINE
8
BLACK
6
CONTINUOUS
10
123.636
20
-47.5881
11
123.496
21
-47.4622
0
LINE
8
BLACK
6
CONTINUOUS
10
123.496
20
-47.4622
11
123.386
21
-47.31
0
LINE
8
BLACK
6
CONTINUOUS
10
123.386
20
-47.31
11
123.309
21
-47.1381
0
LINE
8
BLACK
6
CONTINUOUS
10
123.309
20
-47.1381
11
123.27
21
-46.9541
0
LINE
8
BLACK
6
CONTINUOUS
10
123.27
20
-46.9541
11
123.27
21
-46.7659
0
LINE
8
BLACK
6
CONTINUOUS
10
123.27
20
-46.7659
11
123.309
21
-46.5819
0
LINE
8
BLACK
6
CONTINUOUS
10
123.309
20
-46.5819
11
123.386
21
-46.41
0
LINE
8
BLACK
6
CONTINUOUS
10
123.386
20
-46.41
11
123.496
21
-46.2578
0
LINE
8
BLACK
6
CONTINUOUS
10
123.496
20
-46.2578
11
123.636
21
-46.1319
0
LINE
8
BLACK
6
CONTINUOUS
10
123.636
20
-46.1319
11
123.799
21
-46.0378
0
LINE
8
BLACK
6
CONTINUOUS
10
123.799
20
-46.0378
11
123.978
21
-45.9797
0
LINE
8
BLACK
6
CONTINUOUS
10
123.978
20
-45.9797
11
124.165
21
-45.96
0
LINE
8
BLACK
6
CONTINUOUS
10
124.165
20
-45.96
11
124.415
21
-45.96
0
LINE
8
BLACK
6
CONTINUOUS
10
124.415
20
-45.96
11
124.602
21
-45.9797
0
LINE
8
BLACK
6
CONTINUOUS
10
124.602
20
-43.4797
11
124.781
21
-43.5378
0
LINE
8
BLACK
6
CONTINUOUS
10
124.781
20
-43.5378
11
124.944
21
-43.6319
0
LINE
8
BLACK
6
CONTINUOUS
10
124.944
20
-43.6319
11
125.084
21
-43.7578
0
LINE
8
BLACK
6
CONTINUOUS
10
125.084
20
-43.7578
11
125.194
21
-43.91
0
LINE
8
BLACK
6
CONTINUOUS
10
125.194
20
-43.91
11
125.271
21
-44.0819
0
LINE
8
BLACK
6
CONTINUOUS
10
125.271
20
-44.0819
11
125.31
21
-44.2659
0
LINE
8
BLACK
6
CONTINUOUS
10
125.31
20
-44.2659
11
125.31
21
-44.4541
0
LINE
8
BLACK
6
CONTINUOUS
10
125.31
20
-44.4541
11
125.271
21
-44.6381
0
LINE
8
BLACK
6
CONTINUOUS
10
125.271
20
-44.6381
11
125.194
21
-44.81
0
LINE
8
BLACK
6
CONTINUOUS
10
125.194
20
-44.81
11
125.084
21
-44.9622
0
LINE
8
BLACK
6
CONTINUOUS
10
125.084
20
-44.9622
11
124.944
21
-45.0881
0
LINE
8
BLACK
6
CONTINUOUS
10
124.944
20
-45.0881
11
124.781
21
-45.1822
0
LINE
8
BLACK
6
CONTINUOUS
10
124.781
20
-45.1822
11
124.602
21
-45.2403
0
LINE
8
BLACK
6
CONTINUOUS
10
124.602
20
-45.2403
11
124.415
21
-45.26
0
LINE
8
BLACK
6
CONTINUOUS
10
124.415
20
-45.26
11
124.165
21
-45.26
0
LINE
8
BLACK
6
CONTINUOUS
10
124.165
20
-45.26
11
123.978
21
-45.2403
0
LINE
8
BLACK
6
CONTINUOUS
10
123.978
20
-45.2403
11
123.799
21
-45.1822
0
LINE
8
BLACK
6
CONTINUOUS
10
123.799
20
-45.1822
11
123.636
21
-45.0881
0
LINE
8
BLACK
6
CONTINUOUS
10
123.636
20
-45.0881
11
123.496
21
-44.9622
0
LINE
8
BLACK
6
CONTINUOUS
10
123.496
20
-44.9622
11
123.386
21
-44.81
0
LINE
8
BLACK
6
CONTINUOUS
10
123.386
20
-44.81
11
123.309
21
-44.6381
0
LINE
8
BLACK
6
CONTINUOUS
10
123.309
20
-44.6381
11
123.27
21
-44.4541
0
LINE
8
BLACK
6
CONTINUOUS
10
123.27
20
-44.4541
11
123.27
21
-44.2659
0
LINE
8
BLACK
6
CONTINUOUS
10
123.27
20
-44.2659
11
123.309
21
-44.0819
0
LINE
8
BLACK
6
CONTINUOUS
10
123.309
20
-44.0819
11
123.386
21
-43.91
0
LINE
8
BLACK
6
CONTINUOUS
10
123.386
20
-43.91
11
123.496
21
-43.7578
0
LINE
8
BLACK
6
CONTINUOUS
10
123.496
20
-43.7578
11
123.636
21
-43.6319
0
LINE
8
BLACK
6
CONTINUOUS
10
123.636
20
-43.6319
11
123.799
21
-43.5378
0
LINE
8
BLACK
6
CONTINUOUS
10
123.799
20
-43.5378
11
123.978
21
-43.4797
0
LINE
8
BLACK
6
CONTINUOUS
10
123.978
20
-43.4797
11
124.165
21
-43.46
0
LINE
8
BLACK
6
CONTINUOUS
10
124.165
20
-43.46
11
124.415
21
-43.46
0
LINE
8
BLACK
6
CONTINUOUS
10
124.415
20
-43.46
11
124.602
21
-43.4797
0
LINE
8
BLACK
6
CONTINUOUS
10
74.1258
20
-36.3818
11
74.4695
21
-36.4575
0
LINE
8
BLACK
6
CONTINUOUS
10
74.4695
20
-36.4575
11
74.8029
21
-36.5698
0
LINE
8
BLACK
6
CONTINUOUS
10
74.8029
20
-36.5698
11
75.1223
21
-36.7176
0
LINE
8
BLACK
6
CONTINUOUS
10
75.1223
20
-36.7176
11
75.4239
21
-36.899
0
LINE
8
BLACK
6
CONTINUOUS
10
75.4239
20
-36.899
11
75.704
21
-37.112
0
LINE
8
BLACK
6
CONTINUOUS
10
75.704
20
-37.112
11
75.9595
21
-37.354
0
LINE
8
BLACK
6
CONTINUOUS
10
75.9595
20
-37.354
11
76.1873
21
-37.6222
0
LINE
8
BLACK
6
CONTINUOUS
10
76.1873
20
-37.6222
11
76.3848
21
-37.9134
0
LINE
8
BLACK
6
CONTINUOUS
10
76.3848
20
-37.9134
11
76.5496
21
-38.2244
0
LINE
8
BLACK
6
CONTINUOUS
10
76.5496
20
-38.2244
11
76.6799
21
-38.5513
0
LINE
8
BLACK
6
CONTINUOUS
10
76.6799
20
-38.5513
11
76.774
21
-38.8903
0
LINE
8
BLACK
6
CONTINUOUS
10
76.774
20
-38.8903
11
76.8309
21
-39.2376
0
LINE
8
BLACK
6
CONTINUOUS
10
76.8309
20
-39.2376
11
76.85
21
-39.589
0
LINE
8
BLACK
6
CONTINUOUS
10
76.85
20
-39.589
11
76.8309
21
-39.9404
0
LINE
8
BLACK
6
CONTINUOUS
10
76.8309
20
-39.9404
11
76.774
21
-40.2877
0
LINE
8
BLACK
6
CONTINUOUS
10
76.774
20
-40.2877
11
76.6799
21
-40.6267
0
LINE
8
BLACK
6
CONTINUOUS
10
76.6799
20
-40.6267
11
76.5496
21
-40.9536
0
LINE
8
BLACK
6
CONTINUOUS
10
76.5496
20
-40.9536
11
76.3848
21
-41.2645
0
LINE
8
BLACK
6
CONTINUOUS
10
76.3848
20
-41.2645
11
76.1873
21
-41.5558
0
LINE
8
BLACK
6
CONTINUOUS
10
76.1873
20
-41.5558
11
75.9595
21
-41.824
0
LINE
8
BLACK
6
CONTINUOUS
10
75.9595
20
-41.824
11
75.704
21
-42.066
0
LINE
8
BLACK
6
CONTINUOUS
10
75.704
20
-42.066
11
75.4239
21
-42.279
0
LINE
8
BLACK
6
CONTINUOUS
10
75.4239
20
-42.279
11
75.1223
21
-42.4604
0
LINE
8
BLACK
6
CONTINUOUS
10
75.1223
20
-42.4604
11
74.8029
21
-42.6082
0
LINE
8
BLACK
6
CONTINUOUS
10
74.8029
20
-42.6082
11
74.4695
21
-42.7205
0
LINE
8
BLACK
6
CONTINUOUS
10
74.4695
20
-42.7205
11
74.1258
21
-42.7962
0
LINE
8
BLACK
6
CONTINUOUS
10
74.1258
20
-42.7962
11
73.776
21
-42.8342
0
LINE
8
BLACK
6
CONTINUOUS
10
73.776
20
-42.8342
11
73.424
21
-42.8342
0
LINE
8
BLACK
6
CONTINUOUS
10
73.424
20
-42.8342
11
73.0742
21
-42.7962
0
LINE
8
BLACK
6
CONTINUOUS
10
73.0742
20
-42.7962
11
72.7305
21
-42.7205
0
LINE
8
BLACK
6
CONTINUOUS
10
72.7305
20
-42.7205
11
72.3971
21
-42.6082
0
LINE
8
BLACK
6
CONTINUOUS
10
72.3971
20
-42.6082
11
72.0777
21
-42.4604
0
LINE
8
BLACK
6
CONTINUOUS
10
72.0777
20
-42.4604
11
71.7761
21
-42.279
0
LINE
8
BLACK
6
CONTINUOUS
10
71.7761
20
-42.279
11
71.496
21
-42.066
0
LINE
8
BLACK
6
CONTINUOUS
10
71.496
20
-42.066
11
71.2405
21
-41.824
0
LINE
8
BLACK
6
CONTINUOUS
10
71.2405
20
-41.824
11
71.0127
21
-41.5558
0
LINE
8
BLACK
6
CONTINUOUS
10
71.0127
20
-41.5558
11
70.8152
21
-41.2645
0
LINE
8
BLACK
6
CONTINUOUS
10
70.8152
20
-41.2645
11
70.6504
21
-40.9536
0
LINE
8
BLACK
6
CONTINUOUS
10
70.6504
20
-40.9536
11
70.5201
21
-40.6267
0
LINE
8
BLACK
6
CONTINUOUS
10
70.5201
20
-40.6267
11
70.426
21
-40.2877
0
LINE
8
BLACK
6
CONTINUOUS
10
70.426
20
-40.2877
11
70.3691
21
-39.9404
0
LINE
8
BLACK
6
CONTINUOUS
10
70.3691
20
-39.9404
11
70.35
21
-39.589
0
LINE
8
BLACK
6
CONTINUOUS
10
70.35
20
-39.589
11
70.3691
21
-39.2376
0
LINE
8
BLACK
6
CONTINUOUS
10
70.3691
20
-39.2376
11
70.426
21
-38.8903
0
LINE
8
BLACK
6
CONTINUOUS
10
70.426
20
-38.8903
11
70.5201
21
-38.5513
0
LINE
8
BLACK
6
CONTINUOUS
10
70.5201
20
-38.5513
11
70.6504
21
-38.2244
0
LINE
8
BLACK
6
CONTINUOUS
10
70.6504
20
-38.2244
11
70.8152
21
-37.9134
0
LINE
8
BLACK
6
CONTINUOUS
10
70.8152
20
-37.9134
11
71.0127
21
-37.6222
0
LINE
8
BLACK
6
CONTINUOUS
10
71.0127
20
-37.6222
11
71.2405
21
-37.354
0
LINE
8
BLACK
6
CONTINUOUS
10
71.2405
20
-37.354
11
71.496
21
-37.112
0
LINE
8
BLACK
6
CONTINUOUS
10
71.496
20
-37.112
11
71.7761
21
-36.899
0
LINE
8
BLACK
6
CONTINUOUS
10
71.7761
20
-36.899
11
72.0777
21
-36.7176
0
LINE
8
BLACK
6
CONTINUOUS
10
72.0777
20
-36.7176
11
72.3971
21
-36.5698
0
LINE
8
BLACK
6
CONTINUOUS
10
72.3971
20
-36.5698
11
72.7305
21
-36.4575
0
LINE
8
BLACK
6
CONTINUOUS
10
72.7305
20
-36.4575
11
73.0742
21
-36.3818
0
LINE
8
BLACK
6
CONTINUOUS
10
73.0742
20
-36.3818
11
73.424
21
-36.3438
0
LINE
8
BLACK
6
CONTINUOUS
10
73.424
20
-36.3438
11
73.776
21
-36.3438
0
LINE
8
BLACK
6
CONTINUOUS
10
73.776
20
-36.3438
11
74.1258
21
-36.3818
0
LINE
8
BLACK
6
CONTINUOUS
10
124.602
20
-40.9797
11
124.781
21
-41.0378
0
LINE
8
BLACK
6
CONTINUOUS
10
124.781
20
-41.0378
11
124.944
21
-41.1319
0
LINE
8
BLACK
6
CONTINUOUS
10
124.944
20
-41.1319
11
125.084
21
-41.2578
0
LINE
8
BLACK
6
CONTINUOUS
10
125.084
20
-41.2578
11
125.194
21
-41.41
0
LINE
8
BLACK
6
CONTINUOUS
10
125.194
20
-41.41
11
125.271
21
-41.5819
0
LINE
8
BLACK
6
CONTINUOUS
10
125.271
20
-41.5819
11
125.31
21
-41.7659
0
LINE
8
BLACK
6
CONTINUOUS
10
125.31
20
-41.7659
11
125.31
21
-41.9541
0
LINE
8
BLACK
6
CONTINUOUS
10
125.31
20
-41.9541
11
125.271
21
-42.1381
0
LINE
8
BLACK
6
CONTINUOUS
10
125.271
20
-42.1381
11
125.194
21
-42.31
0
LINE
8
BLACK
6
CONTINUOUS
10
125.194
20
-42.31
11
125.084
21
-42.4622
0
LINE
8
BLACK
6
CONTINUOUS
10
125.084
20
-42.4622
11
124.944
21
-42.5881
0
LINE
8
BLACK
6
CONTINUOUS
10
124.944
20
-42.5881
11
124.781
21
-42.6822
0
LINE
8
BLACK
6
CONTINUOUS
10
124.781
20
-42.6822
11
124.602
21
-42.7403
0
LINE
8
BLACK
6
CONTINUOUS
10
124.602
20
-42.7403
11
124.415
21
-42.76
0
LINE
8
BLACK
6
CONTINUOUS
10
124.415
20
-42.76
11
124.165
21
-42.76
0
LINE
8
BLACK
6
CONTINUOUS
10
124.165
20
-42.76
11
123.978
21
-42.7403
0
LINE
8
BLACK
6
CONTINUOUS
10
123.978
20
-42.7403
11
123.799
21
-42.6822
0
LINE
8
BLACK
6
CONTINUOUS
10
123.799
20
-42.6822
11
123.636
21
-42.5881
0
LINE
8
BLACK
6
CONTINUOUS
10
123.636
20
-42.5881
11
123.496
21
-42.4622
0
LINE
8
BLACK
6
CONTINUOUS
10
123.496
20
-42.4622
11
123.386
21
-42.31
0
LINE
8
BLACK
6
CONTINUOUS
10
123.386
20
-42.31
11
123.309
21
-42.1381
0
LINE
8
BLACK
6
CONTINUOUS
10
123.309
20
-42.1381
11
123.27
21
-41.9541
0
LINE
8
BLACK
6
CONTINUOUS
10
123.27
20
-41.9541
11
123.27
21
-41.7659
0
LINE
8
BLACK
6
CONTINUOUS
10
123.27
20
-41.7659
11
123.309
21
-41.5819
0
LINE
8
BLACK
6
CONTINUOUS
10
123.309
20
-41.5819
11
123.386
21
-41.41
0
LINE
8
BLACK
6
CONTINUOUS
10
123.386
20
-41.41
11
123.496
21
-41.2578
0
LINE
8
BLACK
6
CONTINUOUS
10
123.496
20
-41.2578
11
123.636
21
-41.1319
0
LINE
8
BLACK
6
CONTINUOUS
10
123.636
20
-41.1319
11
123.799
21
-41.0378
0
LINE
8
BLACK
6
CONTINUOUS
10
123.799
20
-41.0378
11
123.978
21
-40.9797
0
LINE
8
BLACK
6
CONTINUOUS
10
123.978
20
-40.9797
11
124.165
21
-40.96
0
LINE
8
BLACK
6
CONTINUOUS
10
124.165
20
-40.96
11
124.415
21
-40.96
0
LINE
8
BLACK
6
CONTINUOUS
10
124.415
20
-40.96
11
124.602
21
-40.9797
0
LINE
8
BLACK
6
CONTINUOUS
10
125.084
20
-38.468
11
125.185
21
-38.5125
0
LINE
8
BLACK
6
CONTINUOUS
10
125.185
20
-38.5125
11
125.262
21
-38.5905
0
LINE
8
BLACK
6
CONTINUOUS
10
125.262
20
-38.5905
11
125.307
21
-38.6913
0
LINE
8
BLACK
6
CONTINUOUS
10
125.307
20
-38.6913
11
125.315
21
-38.76
0
LINE
8
BLACK
6
CONTINUOUS
10
125.315
20
-38.76
11
125.315
21
-39.96
0
LINE
8
BLACK
6
CONTINUOUS
10
125.315
20
-39.96
11
125.307
21
-40.0287
0
LINE
8
BLACK
6
CONTINUOUS
10
125.307
20
-40.0287
11
125.262
21
-40.1295
0
LINE
8
BLACK
6
CONTINUOUS
10
125.262
20
-40.1295
11
125.185
21
-40.2075
0
LINE
8
BLACK
6
CONTINUOUS
10
125.185
20
-40.2075
11
125.084
21
-40.252
0
LINE
8
BLACK
6
CONTINUOUS
10
125.084
20
-40.252
11
125.015
21
-40.26
0
LINE
8
BLACK
6
CONTINUOUS
10
125.015
20
-40.26
11
123.565
21
-40.26
0
LINE
8
BLACK
6
CONTINUOUS
10
123.565
20
-40.26
11
123.496
21
-40.252
0
LINE
8
BLACK
6
CONTINUOUS
10
123.496
20
-40.252
11
123.395
21
-40.2075
0
LINE
8
BLACK
6
CONTINUOUS
10
123.395
20
-40.2075
11
123.318
21
-40.1295
0
LINE
8
BLACK
6
CONTINUOUS
10
123.318
20
-40.1295
11
123.273
21
-40.0287
0
LINE
8
BLACK
6
CONTINUOUS
10
123.273
20
-40.0287
11
123.265
21
-39.96
0
LINE
8
BLACK
6
CONTINUOUS
10
123.265
20
-39.96
11
123.265
21
-38.76
0
LINE
8
BLACK
6
CONTINUOUS
10
123.265
20
-38.76
11
123.273
21
-38.6913
0
LINE
8
BLACK
6
CONTINUOUS
10
123.273
20
-38.6913
11
123.318
21
-38.5905
0
LINE
8
BLACK
6
CONTINUOUS
10
123.318
20
-38.5905
11
123.395
21
-38.5125
0
LINE
8
BLACK
6
CONTINUOUS
10
123.395
20
-38.5125
11
123.496
21
-38.468
0
LINE
8
BLACK
6
CONTINUOUS
10
123.496
20
-38.468
11
123.565
21
-38.46
0
LINE
8
BLACK
6
CONTINUOUS
10
123.565
20
-38.46
11
125.015
21
-38.46
0
LINE
8
BLACK
6
CONTINUOUS
10
125.015
20
-38.46
11
125.084
21
-38.468
0
LINE
8
BLACK
6
CONTINUOUS
10
95.4587
20
-37.903
11
95.5595
21
-37.9475
0
LINE
8
BLACK
6
CONTINUOUS
10
95.5595
20
-37.9475
11
95.6375
21
-38.0255
0
LINE
8
BLACK
6
CONTINUOUS
10
95.6375
20
-38.0255
11
95.682
21
-38.1263
0
LINE
8
BLACK
6
CONTINUOUS
10
95.682
20
-38.1263
11
95.69
21
-38.195
0
LINE
8
BLACK
6
CONTINUOUS
10
95.69
20
-38.195
11
95.69
21
-39.695
0
LINE
8
BLACK
6
CONTINUOUS
10
95.69
20
-39.695
11
95.682
21
-39.7637
0
LINE
8
BLACK
6
CONTINUOUS
10
95.682
20
-39.7637
11
95.6375
21
-39.8645
0
LINE
8
BLACK
6
CONTINUOUS
10
95.6375
20
-39.8645
11
95.5595
21
-39.9425
0
LINE
8
BLACK
6
CONTINUOUS
10
95.5595
20
-39.9425
11
95.4587
21
-39.987
0
LINE
8
BLACK
6
CONTINUOUS
10
95.4587
20
-39.987
11
95.39
21
-39.995
0
LINE
8
BLACK
6
CONTINUOUS
10
95.39
20
-39.995
11
94.19
21
-39.995
0
LINE
8
BLACK
6
CONTINUOUS
10
94.19
20
-39.995
11
94.1213
21
-39.987
0
LINE
8
BLACK
6
CONTINUOUS
10
94.1213
20
-39.987
11
94.0205
21
-39.9425
0
LINE
8
BLACK
6
CONTINUOUS
10
94.0205
20
-39.9425
11
93.9425
21
-39.8645
0
LINE
8
BLACK
6
CONTINUOUS
10
93.9425
20
-39.8645
11
93.898
21
-39.7637
0
LINE
8
BLACK
6
CONTINUOUS
10
93.898
20
-39.7637
11
93.89
21
-39.695
0
LINE
8
BLACK
6
CONTINUOUS
10
93.89
20
-39.695
11
93.89
21
-38.195
0
LINE
8
BLACK
6
CONTINUOUS
10
93.89
20
-38.195
11
93.898
21
-38.1263
0
LINE
8
BLACK
6
CONTINUOUS
10
93.898
20
-38.1263
11
93.9425
21
-38.0255
0
LINE
8
BLACK
6
CONTINUOUS
10
93.9425
20
-38.0255
11
94.0205
21
-37.9475
0
LINE
8
BLACK
6
CONTINUOUS
10
94.0205
20
-37.9475
11
94.1213
21
-37.903
0
LINE
8
BLACK
6
CONTINUOUS
10
94.1213
20
-37.903
11
94.19
21
-37.895
0
LINE
8
BLACK
6
CONTINUOUS
10
94.19
20
-37.895
11
95.39
21
-37.895
0
LINE
8
BLACK
6
CONTINUOUS
10
95.39
20
-37.895
11
95.4587
21
-37.903
0
LINE
8
BLACK
6
CONTINUOUS
10
97.5681
20
-37.939
11
97.74
21
-38.0156
0
LINE
8
BLACK
6
CONTINUOUS
10
97.74
20
-38.0156
11
97.8922
21
-38.1262
0
LINE
8
BLACK
6
CONTINUOUS
10
97.8922
20
-38.1262
11
98.0181
21
-38.266
0
LINE
8
BLACK
6
CONTINUOUS
10
98.0181
20
-38.266
11
98.1122
21
-38.4289
0
LINE
8
BLACK
6
CONTINUOUS
10
98.1122
20
-38.4289
11
98.1703
21
-38.6079
0
LINE
8
BLACK
6
CONTINUOUS
10
98.1703
20
-38.6079
11
98.19
21
-38.795
0
LINE
8
BLACK
6
CONTINUOUS
10
98.19
20
-38.795
11
98.19
21
-39.095
0
LINE
8
BLACK
6
CONTINUOUS
10
98.19
20
-39.095
11
98.1703
21
-39.2821
0
LINE
8
BLACK
6
CONTINUOUS
10
98.1703
20
-39.2821
11
98.1122
21
-39.4611
0
LINE
8
BLACK
6
CONTINUOUS
10
98.1122
20
-39.4611
11
98.0181
21
-39.624
0
LINE
8
BLACK
6
CONTINUOUS
10
98.0181
20
-39.624
11
97.8922
21
-39.7638
0
LINE
8
BLACK
6
CONTINUOUS
10
97.8922
20
-39.7638
11
97.74
21
-39.8744
0
LINE
8
BLACK
6
CONTINUOUS
10
97.74
20
-39.8744
11
97.5681
21
-39.951
0
LINE
8
BLACK
6
CONTINUOUS
10
97.5681
20
-39.951
11
97.3841
21
-39.9901
0
LINE
8
BLACK
6
CONTINUOUS
10
97.3841
20
-39.9901
11
97.1959
21
-39.9901
0
LINE
8
BLACK
6
CONTINUOUS
10
97.1959
20
-39.9901
11
97.0119
21
-39.951
0
LINE
8
BLACK
6
CONTINUOUS
10
97.0119
20
-39.951
11
96.84
21
-39.8744
0
LINE
8
BLACK
6
CONTINUOUS
10
96.84
20
-39.8744
11
96.6878
21
-39.7638
0
LINE
8
BLACK
6
CONTINUOUS
10
96.6878
20
-39.7638
11
96.5619
21
-39.624
0
LINE
8
BLACK
6
CONTINUOUS
10
96.5619
20
-39.624
11
96.4678
21
-39.4611
0
LINE
8
BLACK
6
CONTINUOUS
10
96.4678
20
-39.4611
11
96.4097
21
-39.2821
0
LINE
8
BLACK
6
CONTINUOUS
10
96.4097
20
-39.2821
11
96.39
21
-39.095
0
LINE
8
BLACK
6
CONTINUOUS
10
96.39
20
-39.095
11
96.39
21
-38.795
0
LINE
8
BLACK
6
CONTINUOUS
10
96.39
20
-38.795
11
96.4097
21
-38.6079
0
LINE
8
BLACK
6
CONTINUOUS
10
96.4097
20
-38.6079
11
96.4678
21
-38.4289
0
LINE
8
BLACK
6
CONTINUOUS
10
96.4678
20
-38.4289
11
96.5619
21
-38.266
0
LINE
8
BLACK
6
CONTINUOUS
10
96.5619
20
-38.266
11
96.6878
21
-38.1262
0
LINE
8
BLACK
6
CONTINUOUS
10
96.6878
20
-38.1262
11
96.84
21
-38.0156
0
LINE
8
BLACK
6
CONTINUOUS
10
96.84
20
-38.0156
11
97.0119
21
-37.939
0
LINE
8
BLACK
6
CONTINUOUS
10
97.0119
20
-37.939
11
97.1959
21
-37.8999
0
LINE
8
BLACK
6
CONTINUOUS
10
97.1959
20
-37.8999
11
97.3841
21
-37.8999
0
LINE
8
BLACK
6
CONTINUOUS
10
97.3841
20
-37.8999
11
97.5681
21
-37.939
0
LINE
8
BLACK
6
CONTINUOUS
10
81.9587
20
-37.938
11
82.0595
21
-37.9825
0
LINE
8
BLACK
6
CONTINUOUS
10
82.0595
20
-37.9825
11
82.1375
21
-38.0605
0
LINE
8
BLACK
6
CONTINUOUS
10
82.1375
20
-38.0605
11
82.182
21
-38.1613
0
LINE
8
BLACK
6
CONTINUOUS
10
82.182
20
-38.1613
11
82.19
21
-38.23
0
LINE
8
BLACK
6
CONTINUOUS
10
82.19
20
-38.23
11
82.19
21
-39.68
0
LINE
8
BLACK
6
CONTINUOUS
10
82.19
20
-39.68
11
82.182
21
-39.7487
0
LINE
8
BLACK
6
CONTINUOUS
10
82.182
20
-39.7487
11
82.1375
21
-39.8495
0
LINE
8
BLACK
6
CONTINUOUS
10
82.1375
20
-39.8495
11
82.0595
21
-39.9275
0
LINE
8
BLACK
6
CONTINUOUS
10
82.0595
20
-39.9275
11
81.9587
21
-39.972
0
LINE
8
BLACK
6
CONTINUOUS
10
81.9587
20
-39.972
11
81.89
21
-39.98
0
LINE
8
BLACK
6
CONTINUOUS
10
81.89
20
-39.98
11
80.69
21
-39.98
0
LINE
8
BLACK
6
CONTINUOUS
10
80.69
20
-39.98
11
80.6213
21
-39.972
0
LINE
8
BLACK
6
CONTINUOUS
10
80.6213
20
-39.972
11
80.5205
21
-39.9275
0
LINE
8
BLACK
6
CONTINUOUS
10
80.5205
20
-39.9275
11
80.4425
21
-39.8495
0
LINE
8
BLACK
6
CONTINUOUS
10
80.4425
20
-39.8495
11
80.398
21
-39.7487
0
LINE
8
BLACK
6
CONTINUOUS
10
80.398
20
-39.7487
11
80.39
21
-39.68
0
LINE
8
BLACK
6
CONTINUOUS
10
80.39
20
-39.68
11
80.39
21
-38.23
0
LINE
8
BLACK
6
CONTINUOUS
10
80.39
20
-38.23
11
80.398
21
-38.1613
0
LINE
8
BLACK
6
CONTINUOUS
10
80.398
20
-38.1613
11
80.4425
21
-38.0605
0
LINE
8
BLACK
6
CONTINUOUS
10
80.4425
20
-38.0605
11
80.5205
21
-37.9825
0
LINE
8
BLACK
6
CONTINUOUS
10
80.5205
20
-37.9825
11
80.6213
21
-37.938
0
LINE
8
BLACK
6
CONTINUOUS
10
80.6213
20
-37.938
11
80.69
21
-37.93
0
LINE
8
BLACK
6
CONTINUOUS
10
80.69
20
-37.93
11
81.89
21
-37.93
0
LINE
8
BLACK
6
CONTINUOUS
10
81.89
20
-37.93
11
81.9587
21
-37.938
0
LINE
8
BLACK
6
CONTINUOUS
10
84.0681
20
-37.974
11
84.24
21
-38.0506
0
LINE
8
BLACK
6
CONTINUOUS
10
84.24
20
-38.0506
11
84.3922
21
-38.1612
0
LINE
8
BLACK
6
CONTINUOUS
10
84.3922
20
-38.1612
11
84.5181
21
-38.301
0
LINE
8
BLACK
6
CONTINUOUS
10
84.5181
20
-38.301
11
84.6122
21
-38.4639
0
LINE
8
BLACK
6
CONTINUOUS
10
84.6122
20
-38.4639
11
84.6703
21
-38.6429
0
LINE
8
BLACK
6
CONTINUOUS
10
84.6703
20
-38.6429
11
84.69
21
-38.83
0
LINE
8
BLACK
6
CONTINUOUS
10
84.69
20
-38.83
11
84.69
21
-39.08
0
LINE
8
BLACK
6
CONTINUOUS
10
84.69
20
-39.08
11
84.6703
21
-39.2671
0
LINE
8
BLACK
6
CONTINUOUS
10
84.6703
20
-39.2671
11
84.6122
21
-39.4461
0
LINE
8
BLACK
6
CONTINUOUS
10
84.6122
20
-39.4461
11
84.5181
21
-39.609
0
LINE
8
BLACK
6
CONTINUOUS
10
84.5181
20
-39.609
11
84.3922
21
-39.7488
0
LINE
8
BLACK
6
CONTINUOUS
10
84.3922
20
-39.7488
11
84.24
21
-39.8594
0
LINE
8
BLACK
6
CONTINUOUS
10
84.24
20
-39.8594
11
84.0681
21
-39.936
0
LINE
8
BLACK
6
CONTINUOUS
10
84.0681
20
-39.936
11
83.8841
21
-39.9751
0
LINE
8
BLACK
6
CONTINUOUS
10
83.8841
20
-39.9751
11
83.6959
21
-39.9751
0
LINE
8
BLACK
6
CONTINUOUS
10
83.6959
20
-39.9751
11
83.5119
21
-39.936
0
LINE
8
BLACK
6
CONTINUOUS
10
83.5119
20
-39.936
11
83.34
21
-39.8594
0
LINE
8
BLACK
6
CONTINUOUS
10
83.34
20
-39.8594
11
83.1878
21
-39.7488
0
LINE
8
BLACK
6
CONTINUOUS
10
83.1878
20
-39.7488
11
83.0619
21
-39.609
0
LINE
8
BLACK
6
CONTINUOUS
10
83.0619
20
-39.609
11
82.9678
21
-39.4461
0
LINE
8
BLACK
6
CONTINUOUS
10
82.9678
20
-39.4461
11
82.9097
21
-39.2671
0
LINE
8
BLACK
6
CONTINUOUS
10
82.9097
20
-39.2671
11
82.89
21
-39.08
0
LINE
8
BLACK
6
CONTINUOUS
10
82.89
20
-39.08
11
82.89
21
-38.83
0
LINE
8
BLACK
6
CONTINUOUS
10
82.89
20
-38.83
11
82.9097
21
-38.6429
0
LINE
8
BLACK
6
CONTINUOUS
10
82.9097
20
-38.6429
11
82.9678
21
-38.4639
0
LINE
8
BLACK
6
CONTINUOUS
10
82.9678
20
-38.4639
11
83.0619
21
-38.301
0
LINE
8
BLACK
6
CONTINUOUS
10
83.0619
20
-38.301
11
83.1878
21
-38.1612
0
LINE
8
BLACK
6
CONTINUOUS
10
83.1878
20
-38.1612
11
83.34
21
-38.0506
0
LINE
8
BLACK
6
CONTINUOUS
10
83.34
20
-38.0506
11
83.5119
21
-37.974
0
LINE
8
BLACK
6
CONTINUOUS
10
83.5119
20
-37.974
11
83.6959
21
-37.9349
0
LINE
8
BLACK
6
CONTINUOUS
10
83.6959
20
-37.9349
11
83.8841
21
-37.9349
0
LINE
8
BLACK
6
CONTINUOUS
10
83.8841
20
-37.9349
11
84.0681
21
-37.974
0
LINE
8
BLACK
6
CONTINUOUS
10
86.5681
20
-37.974
11
86.74
21
-38.0506
0
LINE
8
BLACK
6
CONTINUOUS
10
86.74
20
-38.0506
11
86.8922
21
-38.1612
0
LINE
8
BLACK
6
CONTINUOUS
10
86.8922
20
-38.1612
11
87.0181
21
-38.301
0
LINE
8
BLACK
6
CONTINUOUS
10
87.0181
20
-38.301
11
87.1122
21
-38.4639
0
LINE
8
BLACK
6
CONTINUOUS
10
87.1122
20
-38.4639
11
87.1703
21
-38.6429
0
LINE
8
BLACK
6
CONTINUOUS
10
87.1703
20
-38.6429
11
87.19
21
-38.83
0
LINE
8
BLACK
6
CONTINUOUS
10
87.19
20
-38.83
11
87.19
21
-39.08
0
LINE
8
BLACK
6
CONTINUOUS
10
87.19
20
-39.08
11
87.1703
21
-39.2671
0
LINE
8
BLACK
6
CONTINUOUS
10
87.1703
20
-39.2671
11
87.1122
21
-39.4461
0
LINE
8
BLACK
6
CONTINUOUS
10
87.1122
20
-39.4461
11
87.0181
21
-39.609
0
LINE
8
BLACK
6
CONTINUOUS
10
87.0181
20
-39.609
11
86.8922
21
-39.7488
0
LINE
8
BLACK
6
CONTINUOUS
10
86.8922
20
-39.7488
11
86.74
21
-39.8594
0
LINE
8
BLACK
6
CONTINUOUS
10
86.74
20
-39.8594
11
86.5681
21
-39.936
0
LINE
8
BLACK
6
CONTINUOUS
10
86.5681
20
-39.936
11
86.3841
21
-39.9751
0
LINE
8
BLACK
6
CONTINUOUS
10
86.3841
20
-39.9751
11
86.1959
21
-39.9751
0
LINE
8
BLACK
6
CONTINUOUS
10
86.1959
20
-39.9751
11
86.0119
21
-39.936
0
LINE
8
BLACK
6
CONTINUOUS
10
86.0119
20
-39.936
11
85.84
21
-39.8594
0
LINE
8
BLACK
6
CONTINUOUS
10
85.84
20
-39.8594
11
85.6878
21
-39.7488
0
LINE
8
BLACK
6
CONTINUOUS
10
85.6878
20
-39.7488
11
85.5619
21
-39.609
0
LINE
8
BLACK
6
CONTINUOUS
10
85.5619
20
-39.609
11
85.4678
21
-39.4461
0
LINE
8
BLACK
6
CONTINUOUS
10
85.4678
20
-39.4461
11
85.4097
21
-39.2671
0
LINE
8
BLACK
6
CONTINUOUS
10
85.4097
20
-39.2671
11
85.39
21
-39.08
0
LINE
8
BLACK
6
CONTINUOUS
10
85.39
20
-39.08
11
85.39
21
-38.83
0
LINE
8
BLACK
6
CONTINUOUS
10
85.39
20
-38.83
11
85.4097
21
-38.6429
0
LINE
8
BLACK
6
CONTINUOUS
10
85.4097
20
-38.6429
11
85.4678
21
-38.4639
0
LINE
8
BLACK
6
CONTINUOUS
10
85.4678
20
-38.4639
11
85.5619
21
-38.301
0
LINE
8
BLACK
6
CONTINUOUS
10
85.5619
20
-38.301
11
85.6878
21
-38.1612
0
LINE
8
BLACK
6
CONTINUOUS
10
85.6878
20
-38.1612
11
85.84
21
-38.0506
0
LINE
8
BLACK
6
CONTINUOUS
10
85.84
20
-38.0506
11
86.0119
21
-37.974
0
LINE
8
BLACK
6
CONTINUOUS
10
86.0119
20
-37.974
11
86.1959
21
-37.9349
0
LINE
8
BLACK
6
CONTINUOUS
10
86.1959
20
-37.9349
11
86.3841
21
-37.9349
0
LINE
8
BLACK
6
CONTINUOUS
10
86.3841
20
-37.9349
11
86.5681
21
-37.974
0
LINE
8
BLACK
6
CONTINUOUS
10
89.0681
20
-37.974
11
89.24
21
-38.0506
0
LINE
8
BLACK
6
CONTINUOUS
10
89.24
20
-38.0506
11
89.3922
21
-38.1612
0
LINE
8
BLACK
6
CONTINUOUS
10
89.3922
20
-38.1612
11
89.5181
21
-38.301
0
LINE
8
BLACK
6
CONTINUOUS
10
89.5181
20
-38.301
11
89.6122
21
-38.4639
0
LINE
8
BLACK
6
CONTINUOUS
10
89.6122
20
-38.4639
11
89.6703
21
-38.6429
0
LINE
8
BLACK
6
CONTINUOUS
10
89.6703
20
-38.6429
11
89.69
21
-38.83
0
LINE
8
BLACK
6
CONTINUOUS
10
89.69
20
-38.83
11
89.69
21
-39.08
0
LINE
8
BLACK
6
CONTINUOUS
10
89.69
20
-39.08
11
89.6703
21
-39.2671
0
LINE
8
BLACK
6
CONTINUOUS
10
89.6703
20
-39.2671
11
89.6122
21
-39.4461
0
LINE
8
BLACK
6
CONTINUOUS
10
89.6122
20
-39.4461
11
89.5181
21
-39.609
0
LINE
8
BLACK
6
CONTINUOUS
10
89.5181
20
-39.609
11
89.3922
21
-39.7488
0
LINE
8
BLACK
6
CONTINUOUS
10
89.3922
20
-39.7488
11
89.24
21
-39.8594
0
LINE
8
BLACK
6
CONTINUOUS
10
89.24
20
-39.8594
11
89.0681
21
-39.936
0
LINE
8
BLACK
6
CONTINUOUS
10
89.0681
20
-39.936
11
88.8841
21
-39.9751
0
LINE
8
BLACK
6
CONTINUOUS
10
88.8841
20
-39.9751
11
88.6959
21
-39.9751
0
LINE
8
BLACK
6
CONTINUOUS
10
88.6959
20
-39.9751
11
88.5119
21
-39.936
0
LINE
8
BLACK
6
CONTINUOUS
10
88.5119
20
-39.936
11
88.34
21
-39.8594
0
LINE
8
BLACK
6
CONTINUOUS
10
88.34
20
-39.8594
11
88.1878
21
-39.7488
0
LINE
8
BLACK
6
CONTINUOUS
10
88.1878
20
-39.7488
11
88.0619
21
-39.609
0
LINE
8
BLACK
6
CONTINUOUS
10
88.0619
20
-39.609
11
87.9678
21
-39.4461
0
LINE
8
BLACK
6
CONTINUOUS
10
87.9678
20
-39.4461
11
87.9097
21
-39.2671
0
LINE
8
BLACK
6
CONTINUOUS
10
87.9097
20
-39.2671
11
87.89
21
-39.08
0
LINE
8
BLACK
6
CONTINUOUS
10
87.89
20
-39.08
11
87.89
21
-38.83
0
LINE
8
BLACK
6
CONTINUOUS
10
87.89
20
-38.83
11
87.9097
21
-38.6429
0
LINE
8
BLACK
6
CONTINUOUS
10
87.9097
20
-38.6429
11
87.9678
21
-38.4639
0
LINE
8
BLACK
6
CONTINUOUS
10
87.9678
20
-38.4639
11
88.0619
21
-38.301
0
LINE
8
BLACK
6
CONTINUOUS
10
88.0619
20
-38.301
11
88.1878
21
-38.1612
0
LINE
8
BLACK
6
CONTINUOUS
10
88.1878
20
-38.1612
11
88.34
21
-38.0506
0
LINE
8
BLACK
6
CONTINUOUS
10
88.34
20
-38.0506
11
88.5119
21
-37.974
0
LINE
8
BLACK
6
CONTINUOUS
10
88.5119
20
-37.974
11
88.6959
21
-37.9349
0
LINE
8
BLACK
6
CONTINUOUS
10
88.6959
20
-37.9349
11
88.8841
21
-37.9349
0
LINE
8
BLACK
6
CONTINUOUS
10
88.8841
20
-37.9349
11
89.0681
21
-37.974
  0
ENDSEC
  0
EOF
