  0
SECTION
  2
HEADER
  9
$ANGBASE
  50
0.0
  9
$ANGDIR
  70
1
  9
$MEASUREMENT
  70
1
  0
ENDSEC
  0
SECTION
  2
TABLES
  0
TABLE
  2
LTYPE
  70
4
  0
LTYPE
  5
40F
  2
CONTINUOUS
  70
0
  3
Solid line
  72
65
  73
0
  40
0.0
  0
LTYPE
  5
410
  2
DASHDOT
 70
0
  3
Dash Dot ____ _ ____ _
 72
65
 73
4
 40
2.0
 49
1.25
 49
-0.25
 49
0.25
 49
-0.25
  0
LTYPE
  5
411
  2
DASHED
 70
0
  3
Dashed __ __ __ __ __
 72
65
 73
2
 40
0.75
 49
0.5
 49
-0.25
  0
LTYPE
  5
43B
  2
DOTTED
 70
0
  3
Dotted .  .  .  .
 72
65
 73
2
 40
0.2
 49
0.0
 49
-0.2
  0
ENDTAB
  0
TABLE
  2
STYLE
  70
4
  0
STYLE
  2
KICAD
  70
0
  40
0
  41
1
  42
1
  50
0
  71
0
  3
isocp.shx
  0
STYLE
  2
KICADB
  70
0
  40
0
  41
1
  42
1
  50
0
  71
0
  3
isocp.shx
  0
STYLE
  2
KICADI
  70
0
  40
0
  41
1
  42
1
  50
15
  71
0
  3
isocp.shx
  0
STYLE
  2
KICADBI
  70
0
  40
0
  41
1
  42
1
  50
15
  71
0
  3
isocp.shx
  0
ENDTAB
  0
TABLE
  2
LAYER
  70
1
  0
LAYER
  2
BLACK
  70
0
  62
7
  6
CONTINUOUS
  0
ENDTAB
  0
ENDSEC
  0
SECTION
  2
ENTITIES
0
LINE
8
BLACK
6
CONTINUOUS
10
105.162
20
-87.1205
11
105.18
21
-87.1629
0
LINE
8
BLACK
6
CONTINUOUS
10
105.18
20
-87.1629
11
105.18
21
-87.5
0
LINE
8
BLACK
6
CONTINUOUS
10
105.18
20
-87.5
11
106.07
21
-87.5
0
LINE
8
BLACK
6
CONTINUOUS
10
106.07
20
-87.5
11
106.112
21
-87.5176
0
LINE
8
BLACK
6
CONTINUOUS
10
106.112
20
-87.5176
11
106.13
21
-87.56
0
LINE
8
BLACK
6
CONTINUOUS
10
106.13
20
-87.56
11
106.13
21
-90.22
0
LINE
8
BLACK
6
CONTINUOUS
10
106.13
20
-90.22
11
106.112
21
-90.2624
0
LINE
8
BLACK
6
CONTINUOUS
10
106.112
20
-90.2624
11
106.07
21
-90.28
0
LINE
8
BLACK
6
CONTINUOUS
10
106.07
20
-90.28
11
105.18
21
-90.28
0
LINE
8
BLACK
6
CONTINUOUS
10
105.18
20
-90.28
11
105.18
21
-96.22
0
LINE
8
BLACK
6
CONTINUOUS
10
105.18
20
-96.22
11
105.162
21
-96.2624
0
LINE
8
BLACK
6
CONTINUOUS
10
105.162
20
-96.2624
11
105.12
21
-96.28
0
LINE
8
BLACK
6
CONTINUOUS
10
105.12
20
-96.28
11
105.06
21
-96.28
0
LINE
8
BLACK
6
CONTINUOUS
10
105.06
20
-96.28
11
104.94
21
-96.28
0
LINE
8
BLACK
6
CONTINUOUS
10
104.94
20
-96.28
11
104.82
21
-96.28
0
LINE
8
BLACK
6
CONTINUOUS
10
104.82
20
-96.28
11
104.7
21
-96.28
0
LINE
8
BLACK
6
CONTINUOUS
10
104.7
20
-96.28
11
104.58
21
-96.28
0
LINE
8
BLACK
6
CONTINUOUS
10
104.58
20
-96.28
11
104.46
21
-96.28
0
LINE
8
BLACK
6
CONTINUOUS
10
104.46
20
-96.28
11
104.36
21
-96.28
0
LINE
8
BLACK
6
CONTINUOUS
10
104.36
20
-96.28
11
104.318
21
-96.2624
0
LINE
8
BLACK
6
CONTINUOUS
10
104.318
20
-96.2624
11
104.3
21
-96.22
0
LINE
8
BLACK
6
CONTINUOUS
10
104.3
20
-96.22
11
104.3
21
-90.28
0
LINE
8
BLACK
6
CONTINUOUS
10
104.3
20
-90.28
11
103.47
21
-90.28
0
LINE
8
BLACK
6
CONTINUOUS
10
103.47
20
-90.28
11
102.64
21
-90.28
0
LINE
8
BLACK
6
CONTINUOUS
10
102.64
20
-90.28
11
102.64
21
-96.22
0
LINE
8
BLACK
6
CONTINUOUS
10
102.64
20
-96.22
11
102.622
21
-96.2624
0
LINE
8
BLACK
6
CONTINUOUS
10
102.622
20
-96.2624
11
102.58
21
-96.28
0
LINE
8
BLACK
6
CONTINUOUS
10
102.58
20
-96.28
11
101.82
21
-96.28
0
LINE
8
BLACK
6
CONTINUOUS
10
101.82
20
-96.28
11
101.778
21
-96.2624
0
LINE
8
BLACK
6
CONTINUOUS
10
101.778
20
-96.2624
11
101.76
21
-96.22
0
LINE
8
BLACK
6
CONTINUOUS
10
101.76
20
-96.22
11
101.76
21
-90.28
0
LINE
8
BLACK
6
CONTINUOUS
10
101.76
20
-90.28
11
100.93
21
-90.28
0
LINE
8
BLACK
6
CONTINUOUS
10
100.93
20
-90.28
11
100.1
21
-90.28
0
LINE
8
BLACK
6
CONTINUOUS
10
100.1
20
-90.28
11
100.1
21
-96.22
0
LINE
8
BLACK
6
CONTINUOUS
10
100.1
20
-96.22
11
100.082
21
-96.2624
0
LINE
8
BLACK
6
CONTINUOUS
10
100.082
20
-96.2624
11
100.04
21
-96.28
0
LINE
8
BLACK
6
CONTINUOUS
10
100.04
20
-96.28
11
99.28
21
-96.28
0
LINE
8
BLACK
6
CONTINUOUS
10
99.28
20
-96.28
11
99.2376
21
-96.2624
0
LINE
8
BLACK
6
CONTINUOUS
10
99.2376
20
-96.2624
11
99.22
21
-96.22
0
LINE
8
BLACK
6
CONTINUOUS
10
99.22
20
-96.22
11
99.22
21
-90.28
0
LINE
8
BLACK
6
CONTINUOUS
10
99.22
20
-90.28
11
98.33
21
-90.28
0
LINE
8
BLACK
6
CONTINUOUS
10
98.33
20
-90.28
11
98.2876
21
-90.2624
0
LINE
8
BLACK
6
CONTINUOUS
10
98.2876
20
-90.2624
11
98.27
21
-90.22
0
LINE
8
BLACK
6
CONTINUOUS
10
98.27
20
-90.22
11
98.27
21
-87.56
0
LINE
8
BLACK
6
CONTINUOUS
10
98.27
20
-87.56
11
98.2876
21
-87.5176
0
LINE
8
BLACK
6
CONTINUOUS
10
98.2876
20
-87.5176
11
98.33
21
-87.5
0
LINE
8
BLACK
6
CONTINUOUS
10
98.33
20
-87.5
11
99.22
21
-87.5
0
LINE
8
BLACK
6
CONTINUOUS
10
99.22
20
-87.5
11
99.22
21
-87.1629
0
LINE
8
BLACK
6
CONTINUOUS
10
99.22
20
-87.1629
11
99.2376
21
-87.1205
0
LINE
8
BLACK
6
CONTINUOUS
10
99.2376
20
-87.1205
11
99.28
21
-87.1029
0
LINE
8
BLACK
6
CONTINUOUS
10
99.28
20
-87.1029
11
99.3224
21
-87.1205
0
LINE
8
BLACK
6
CONTINUOUS
10
99.3224
20
-87.1205
11
99.34
21
-87.1629
0
LINE
8
BLACK
6
CONTINUOUS
10
99.34
20
-87.1629
11
99.34
21
-87.5
0
LINE
8
BLACK
6
CONTINUOUS
10
99.34
20
-87.5
11
99.98
21
-87.5
0
LINE
8
BLACK
6
CONTINUOUS
10
99.98
20
-87.5
11
99.98
21
-87.1629
0
LINE
8
BLACK
6
CONTINUOUS
10
99.98
20
-87.1629
11
99.9976
21
-87.1205
0
LINE
8
BLACK
6
CONTINUOUS
10
99.9976
20
-87.1205
11
100.04
21
-87.1029
0
LINE
8
BLACK
6
CONTINUOUS
10
100.04
20
-87.1029
11
100.082
21
-87.1205
0
LINE
8
BLACK
6
CONTINUOUS
10
100.082
20
-87.1205
11
100.1
21
-87.1629
0
LINE
8
BLACK
6
CONTINUOUS
10
100.1
20
-87.1629
11
100.1
21
-87.5
0
LINE
8
BLACK
6
CONTINUOUS
10
100.1
20
-87.5
11
101.76
21
-87.5
0
LINE
8
BLACK
6
CONTINUOUS
10
101.76
20
-87.5
11
101.76
21
-87.1629
0
LINE
8
BLACK
6
CONTINUOUS
10
101.76
20
-87.1629
11
101.778
21
-87.1205
0
LINE
8
BLACK
6
CONTINUOUS
10
101.778
20
-87.1205
11
101.82
21
-87.1029
0
LINE
8
BLACK
6
CONTINUOUS
10
101.82
20
-87.1029
11
101.862
21
-87.1205
0
LINE
8
BLACK
6
CONTINUOUS
10
101.862
20
-87.1205
11
101.88
21
-87.1629
0
LINE
8
BLACK
6
CONTINUOUS
10
101.88
20
-87.1629
11
101.88
21
-87.5
0
LINE
8
BLACK
6
CONTINUOUS
10
101.88
20
-87.5
11
102.52
21
-87.5
0
LINE
8
BLACK
6
CONTINUOUS
10
102.52
20
-87.5
11
102.52
21
-87.1629
0
LINE
8
BLACK
6
CONTINUOUS
10
102.52
20
-87.1629
11
102.538
21
-87.1205
0
LINE
8
BLACK
6
CONTINUOUS
10
102.538
20
-87.1205
11
102.58
21
-87.1029
0
LINE
8
BLACK
6
CONTINUOUS
10
102.58
20
-87.1029
11
102.622
21
-87.1205
0
LINE
8
BLACK
6
CONTINUOUS
10
102.622
20
-87.1205
11
102.64
21
-87.1629
0
LINE
8
BLACK
6
CONTINUOUS
10
102.64
20
-87.1629
11
102.64
21
-87.5
0
LINE
8
BLACK
6
CONTINUOUS
10
102.64
20
-87.5
11
104.3
21
-87.5
0
LINE
8
BLACK
6
CONTINUOUS
10
104.3
20
-87.5
11
104.3
21
-87.1629
0
LINE
8
BLACK
6
CONTINUOUS
10
104.3
20
-87.1629
11
104.318
21
-87.1205
0
LINE
8
BLACK
6
CONTINUOUS
10
104.318
20
-87.1205
11
104.36
21
-87.1029
0
LINE
8
BLACK
6
CONTINUOUS
10
104.36
20
-87.1029
11
104.402
21
-87.1205
0
LINE
8
BLACK
6
CONTINUOUS
10
104.402
20
-87.1205
11
104.42
21
-87.1629
0
LINE
8
BLACK
6
CONTINUOUS
10
104.42
20
-87.1629
11
104.42
21
-87.5
0
LINE
8
BLACK
6
CONTINUOUS
10
104.42
20
-87.5
11
105.06
21
-87.5
0
LINE
8
BLACK
6
CONTINUOUS
10
105.06
20
-87.5
11
105.06
21
-87.1629
0
LINE
8
BLACK
6
CONTINUOUS
10
105.06
20
-87.1629
11
105.078
21
-87.1205
0
LINE
8
BLACK
6
CONTINUOUS
10
105.078
20
-87.1205
11
105.12
21
-87.1029
0
LINE
8
BLACK
6
CONTINUOUS
10
105.12
20
-87.1029
11
105.162
21
-87.1205
0
LINE
8
BLACK
6
CONTINUOUS
10
101.88
20
-90.28
11
101.88
21
-96.16
0
LINE
8
BLACK
6
CONTINUOUS
10
101.88
20
-96.16
11
102.52
21
-96.16
0
LINE
8
BLACK
6
CONTINUOUS
10
102.52
20
-96.16
11
102.52
21
-90.28
0
LINE
8
BLACK
6
CONTINUOUS
10
102.52
20
-90.28
11
101.88
21
-90.28
0
LINE
8
BLACK
6
CONTINUOUS
10
99.34
20
-90.28
11
99.34
21
-96.16
0
LINE
8
BLACK
6
CONTINUOUS
10
99.34
20
-96.16
11
99.98
21
-96.16
0
LINE
8
BLACK
6
CONTINUOUS
10
99.98
20
-96.16
11
99.98
21
-90.28
0
LINE
8
BLACK
6
CONTINUOUS
10
99.98
20
-90.28
11
99.34
21
-90.28
0
LINE
8
BLACK
6
CONTINUOUS
10
100.04
20
-87.62
11
99.28
21
-87.62
0
LINE
8
BLACK
6
CONTINUOUS
10
99.28
20
-87.62
11
98.39
21
-87.62
0
LINE
8
BLACK
6
CONTINUOUS
10
98.39
20
-87.62
11
98.39
21
-90.16
0
LINE
8
BLACK
6
CONTINUOUS
10
98.39
20
-90.16
11
100.87
21
-90.16
0
LINE
8
BLACK
6
CONTINUOUS
10
100.87
20
-90.16
11
100.87
21
-87.62
0
LINE
8
BLACK
6
CONTINUOUS
10
100.87
20
-87.62
11
100.04
21
-87.62
0
LINE
8
BLACK
6
CONTINUOUS
10
102.58
20
-87.62
11
101.82
21
-87.62
0
LINE
8
BLACK
6
CONTINUOUS
10
101.82
20
-87.62
11
100.99
21
-87.62
0
LINE
8
BLACK
6
CONTINUOUS
10
100.99
20
-87.62
11
100.99
21
-90.16
0
LINE
8
BLACK
6
CONTINUOUS
10
100.99
20
-90.16
11
103.41
21
-90.16
0
LINE
8
BLACK
6
CONTINUOUS
10
103.41
20
-90.16
11
103.41
21
-87.62
0
LINE
8
BLACK
6
CONTINUOUS
10
103.41
20
-87.62
11
102.58
21
-87.62
0
LINE
8
BLACK
6
CONTINUOUS
10
105.12
20
-87.62
11
104.36
21
-87.62
0
LINE
8
BLACK
6
CONTINUOUS
10
104.36
20
-87.62
11
103.53
21
-87.62
0
LINE
8
BLACK
6
CONTINUOUS
10
103.53
20
-87.62
11
103.53
21
-90.16
0
LINE
8
BLACK
6
CONTINUOUS
10
103.53
20
-90.16
11
106.01
21
-90.16
0
LINE
8
BLACK
6
CONTINUOUS
10
106.01
20
-90.16
11
106.01
21
-87.62
0
LINE
8
BLACK
6
CONTINUOUS
10
106.01
20
-87.62
11
105.12
21
-87.62
0
LINE
8
BLACK
6
CONTINUOUS
10
77.45
20
-87.86
11
77.4924
21
-87.8776
0
LINE
8
BLACK
6
CONTINUOUS
10
77.4924
20
-87.8776
11
77.51
21
-87.92
0
LINE
8
BLACK
6
CONTINUOUS
10
77.51
20
-87.92
11
77.51
21
-93.42
0
LINE
8
BLACK
6
CONTINUOUS
10
77.51
20
-93.42
11
77.4924
21
-93.4624
0
LINE
8
BLACK
6
CONTINUOUS
10
77.4924
20
-93.4624
11
77.45
21
-93.48
0
LINE
8
BLACK
6
CONTINUOUS
10
77.45
20
-93.48
11
76.95
21
-93.48
0
LINE
8
BLACK
6
CONTINUOUS
10
76.95
20
-93.48
11
76.9076
21
-93.4624
0
LINE
8
BLACK
6
CONTINUOUS
10
76.9076
20
-93.4624
11
76.89
21
-93.42
0
LINE
8
BLACK
6
CONTINUOUS
10
76.89
20
-93.42
11
76.89
21
-87.92
0
LINE
8
BLACK
6
CONTINUOUS
10
76.89
20
-87.92
11
76.9076
21
-87.8776
0
LINE
8
BLACK
6
CONTINUOUS
10
76.9076
20
-87.8776
11
76.95
21
-87.86
0
LINE
8
BLACK
6
CONTINUOUS
10
76.95
20
-87.86
11
77.45
21
-87.86
0
LINE
8
BLACK
6
CONTINUOUS
10
77.01
20
-87.98
11
77.01
21
-93.36
0
LINE
8
BLACK
6
CONTINUOUS
10
77.01
20
-93.36
11
77.39
21
-93.36
0
LINE
8
BLACK
6
CONTINUOUS
10
77.39
20
-93.36
11
77.39
21
-87.98
0
LINE
8
BLACK
6
CONTINUOUS
10
77.39
20
-87.98
11
77.01
21
-87.98
0
LINE
8
BLACK
6
CONTINUOUS
10
79.95
20
-87.86
11
79.9924
21
-87.8776
0
LINE
8
BLACK
6
CONTINUOUS
10
79.9924
20
-87.8776
11
80.01
21
-87.92
0
LINE
8
BLACK
6
CONTINUOUS
10
80.01
20
-87.92
11
80.01
21
-93.42
0
LINE
8
BLACK
6
CONTINUOUS
10
80.01
20
-93.42
11
79.9924
21
-93.4624
0
LINE
8
BLACK
6
CONTINUOUS
10
79.9924
20
-93.4624
11
79.95
21
-93.48
0
LINE
8
BLACK
6
CONTINUOUS
10
79.95
20
-93.48
11
79.45
21
-93.48
0
LINE
8
BLACK
6
CONTINUOUS
10
79.45
20
-93.48
11
79.4076
21
-93.4624
0
LINE
8
BLACK
6
CONTINUOUS
10
79.4076
20
-93.4624
11
79.39
21
-93.42
0
LINE
8
BLACK
6
CONTINUOUS
10
79.39
20
-93.42
11
79.39
21
-87.92
0
LINE
8
BLACK
6
CONTINUOUS
10
79.39
20
-87.92
11
79.4076
21
-87.8776
0
LINE
8
BLACK
6
CONTINUOUS
10
79.4076
20
-87.8776
11
79.45
21
-87.86
0
LINE
8
BLACK
6
CONTINUOUS
10
79.45
20
-87.86
11
79.95
21
-87.86
0
LINE
8
BLACK
6
CONTINUOUS
10
79.51
20
-87.98
11
79.51
21
-93.36
0
LINE
8
BLACK
6
CONTINUOUS
10
79.51
20
-93.36
11
79.89
21
-93.36
0
LINE
8
BLACK
6
CONTINUOUS
10
79.89
20
-93.36
11
79.89
21
-87.98
0
LINE
8
BLACK
6
CONTINUOUS
10
79.89
20
-87.98
11
79.51
21
-87.98
0
LINE
8
BLACK
6
CONTINUOUS
10
82.45
20
-87.86
11
82.4924
21
-87.8776
0
LINE
8
BLACK
6
CONTINUOUS
10
82.4924
20
-87.8776
11
82.51
21
-87.92
0
LINE
8
BLACK
6
CONTINUOUS
10
82.51
20
-87.92
11
82.51
21
-93.42
0
LINE
8
BLACK
6
CONTINUOUS
10
82.51
20
-93.42
11
82.4924
21
-93.4624
0
LINE
8
BLACK
6
CONTINUOUS
10
82.4924
20
-93.4624
11
82.45
21
-93.48
0
LINE
8
BLACK
6
CONTINUOUS
10
82.45
20
-93.48
11
81.95
21
-93.48
0
LINE
8
BLACK
6
CONTINUOUS
10
81.95
20
-93.48
11
81.9076
21
-93.4624
0
LINE
8
BLACK
6
CONTINUOUS
10
81.9076
20
-93.4624
11
81.89
21
-93.42
0
LINE
8
BLACK
6
CONTINUOUS
10
81.89
20
-93.42
11
81.89
21
-87.92
0
LINE
8
BLACK
6
CONTINUOUS
10
81.89
20
-87.92
11
81.9076
21
-87.8776
0
LINE
8
BLACK
6
CONTINUOUS
10
81.9076
20
-87.8776
11
81.95
21
-87.86
0
LINE
8
BLACK
6
CONTINUOUS
10
81.95
20
-87.86
11
82.45
21
-87.86
0
LINE
8
BLACK
6
CONTINUOUS
10
82.01
20
-87.98
11
82.01
21
-93.36
0
LINE
8
BLACK
6
CONTINUOUS
10
82.01
20
-93.36
11
82.39
21
-93.36
0
LINE
8
BLACK
6
CONTINUOUS
10
82.39
20
-93.36
11
82.39
21
-87.98
0
LINE
8
BLACK
6
CONTINUOUS
10
82.39
20
-87.98
11
82.01
21
-87.98
0
LINE
8
BLACK
6
CONTINUOUS
10
84.95
20
-87.86
11
84.9924
21
-87.8776
0
LINE
8
BLACK
6
CONTINUOUS
10
84.9924
20
-87.8776
11
85.01
21
-87.92
0
LINE
8
BLACK
6
CONTINUOUS
10
85.01
20
-87.92
11
85.01
21
-93.42
0
LINE
8
BLACK
6
CONTINUOUS
10
85.01
20
-93.42
11
84.9924
21
-93.4624
0
LINE
8
BLACK
6
CONTINUOUS
10
84.9924
20
-93.4624
11
84.95
21
-93.48
0
LINE
8
BLACK
6
CONTINUOUS
10
84.95
20
-93.48
11
84.45
21
-93.48
0
LINE
8
BLACK
6
CONTINUOUS
10
84.45
20
-93.48
11
84.4076
21
-93.4624
0
LINE
8
BLACK
6
CONTINUOUS
10
84.4076
20
-93.4624
11
84.39
21
-93.42
0
LINE
8
BLACK
6
CONTINUOUS
10
84.39
20
-93.42
11
84.39
21
-87.92
0
LINE
8
BLACK
6
CONTINUOUS
10
84.39
20
-87.92
11
84.4076
21
-87.8776
0
LINE
8
BLACK
6
CONTINUOUS
10
84.4076
20
-87.8776
11
84.45
21
-87.86
0
LINE
8
BLACK
6
CONTINUOUS
10
84.45
20
-87.86
11
84.95
21
-87.86
0
LINE
8
BLACK
6
CONTINUOUS
10
84.51
20
-87.98
11
84.51
21
-93.36
0
LINE
8
BLACK
6
CONTINUOUS
10
84.51
20
-93.36
11
84.89
21
-93.36
0
LINE
8
BLACK
6
CONTINUOUS
10
84.89
20
-93.36
11
84.89
21
-87.98
0
LINE
8
BLACK
6
CONTINUOUS
10
84.89
20
-87.98
11
84.51
21
-87.98
0
LINE
8
BLACK
6
CONTINUOUS
10
76.06
20
-82.25
11
76.1024
21
-82.2676
0
LINE
8
BLACK
6
CONTINUOUS
10
76.1024
20
-82.2676
11
76.12
21
-82.31
0
LINE
8
BLACK
6
CONTINUOUS
10
76.12
20
-82.31
11
76.12
21
-86.75
0
LINE
8
BLACK
6
CONTINUOUS
10
76.12
20
-86.75
11
80.95
21
-86.75
0
LINE
8
BLACK
6
CONTINUOUS
10
80.95
20
-86.75
11
85.78
21
-86.75
0
LINE
8
BLACK
6
CONTINUOUS
10
85.78
20
-86.75
11
85.78
21
-82.31
0
LINE
8
BLACK
6
CONTINUOUS
10
85.78
20
-82.31
11
85.7976
21
-82.2676
0
LINE
8
BLACK
6
CONTINUOUS
10
85.7976
20
-82.2676
11
85.84
21
-82.25
0
LINE
8
BLACK
6
CONTINUOUS
10
85.84
20
-82.25
11
87.26
21
-82.25
0
LINE
8
BLACK
6
CONTINUOUS
10
87.26
20
-82.25
11
87.3024
21
-82.2676
0
LINE
8
BLACK
6
CONTINUOUS
10
87.3024
20
-82.2676
11
87.32
21
-82.31
0
LINE
8
BLACK
6
CONTINUOUS
10
87.32
20
-82.31
11
87.32
21
-94.03
0
LINE
8
BLACK
6
CONTINUOUS
10
87.32
20
-94.03
11
87.3024
21
-94.0724
0
LINE
8
BLACK
6
CONTINUOUS
10
87.3024
20
-94.0724
11
87.26
21
-94.09
0
LINE
8
BLACK
6
CONTINUOUS
10
87.26
20
-94.09
11
80.95
21
-94.09
0
LINE
8
BLACK
6
CONTINUOUS
10
80.95
20
-94.09
11
74.64
21
-94.09
0
LINE
8
BLACK
6
CONTINUOUS
10
74.64
20
-94.09
11
74.5976
21
-94.0724
0
LINE
8
BLACK
6
CONTINUOUS
10
74.5976
20
-94.0724
11
74.58
21
-94.03
0
LINE
8
BLACK
6
CONTINUOUS
10
74.58
20
-94.03
11
74.58
21
-82.31
0
LINE
8
BLACK
6
CONTINUOUS
10
74.58
20
-82.31
11
74.5976
21
-82.2676
0
LINE
8
BLACK
6
CONTINUOUS
10
74.5976
20
-82.2676
11
74.64
21
-82.25
0
LINE
8
BLACK
6
CONTINUOUS
10
74.64
20
-82.25
11
76.06
21
-82.25
0
LINE
8
BLACK
6
CONTINUOUS
10
74.7
20
-82.37
11
74.7
21
-93.97
0
LINE
8
BLACK
6
CONTINUOUS
10
74.7
20
-93.97
11
80.95
21
-93.97
0
LINE
8
BLACK
6
CONTINUOUS
10
80.95
20
-93.97
11
87.2
21
-93.97
0
LINE
8
BLACK
6
CONTINUOUS
10
87.2
20
-93.97
11
87.2
21
-82.37
0
LINE
8
BLACK
6
CONTINUOUS
10
87.2
20
-82.37
11
85.9
21
-82.37
0
LINE
8
BLACK
6
CONTINUOUS
10
85.9
20
-82.37
11
85.9
21
-86.81
0
LINE
8
BLACK
6
CONTINUOUS
10
85.9
20
-86.81
11
85.8824
21
-86.8524
0
LINE
8
BLACK
6
CONTINUOUS
10
85.8824
20
-86.8524
11
85.84
21
-86.87
0
LINE
8
BLACK
6
CONTINUOUS
10
85.84
20
-86.87
11
80.95
21
-86.87
0
LINE
8
BLACK
6
CONTINUOUS
10
80.95
20
-86.87
11
76.06
21
-86.87
0
LINE
8
BLACK
6
CONTINUOUS
10
76.06
20
-86.87
11
76.0176
21
-86.8524
0
LINE
8
BLACK
6
CONTINUOUS
10
76.0176
20
-86.8524
11
76
21
-86.81
0
LINE
8
BLACK
6
CONTINUOUS
10
76
20
-86.81
11
76
21
-82.37
0
LINE
8
BLACK
6
CONTINUOUS
10
76
20
-82.37
11
74.7
21
-82.37
0
LINE
8
BLACK
6
CONTINUOUS
10
91.45
20
-87.86
11
91.4924
21
-87.8776
0
LINE
8
BLACK
6
CONTINUOUS
10
91.4924
20
-87.8776
11
91.51
21
-87.92
0
LINE
8
BLACK
6
CONTINUOUS
10
91.51
20
-87.92
11
91.51
21
-93.42
0
LINE
8
BLACK
6
CONTINUOUS
10
91.51
20
-93.42
11
91.4924
21
-93.4624
0
LINE
8
BLACK
6
CONTINUOUS
10
91.4924
20
-93.4624
11
91.45
21
-93.48
0
LINE
8
BLACK
6
CONTINUOUS
10
91.45
20
-93.48
11
90.95
21
-93.48
0
LINE
8
BLACK
6
CONTINUOUS
10
90.95
20
-93.48
11
90.9076
21
-93.4624
0
LINE
8
BLACK
6
CONTINUOUS
10
90.9076
20
-93.4624
11
90.89
21
-93.42
0
LINE
8
BLACK
6
CONTINUOUS
10
90.89
20
-93.42
11
90.89
21
-87.92
0
LINE
8
BLACK
6
CONTINUOUS
10
90.89
20
-87.92
11
90.9076
21
-87.8776
0
LINE
8
BLACK
6
CONTINUOUS
10
90.9076
20
-87.8776
11
90.95
21
-87.86
0
LINE
8
BLACK
6
CONTINUOUS
10
90.95
20
-87.86
11
91.45
21
-87.86
0
LINE
8
BLACK
6
CONTINUOUS
10
91.01
20
-87.98
11
91.01
21
-93.36
0
LINE
8
BLACK
6
CONTINUOUS
10
91.01
20
-93.36
11
91.39
21
-93.36
0
LINE
8
BLACK
6
CONTINUOUS
10
91.39
20
-93.36
11
91.39
21
-87.98
0
LINE
8
BLACK
6
CONTINUOUS
10
91.39
20
-87.98
11
91.01
21
-87.98
0
LINE
8
BLACK
6
CONTINUOUS
10
93.95
20
-87.86
11
93.9924
21
-87.8776
0
LINE
8
BLACK
6
CONTINUOUS
10
93.9924
20
-87.8776
11
94.01
21
-87.92
0
LINE
8
BLACK
6
CONTINUOUS
10
94.01
20
-87.92
11
94.01
21
-93.42
0
LINE
8
BLACK
6
CONTINUOUS
10
94.01
20
-93.42
11
93.9924
21
-93.4624
0
LINE
8
BLACK
6
CONTINUOUS
10
93.9924
20
-93.4624
11
93.95
21
-93.48
0
LINE
8
BLACK
6
CONTINUOUS
10
93.95
20
-93.48
11
93.45
21
-93.48
0
LINE
8
BLACK
6
CONTINUOUS
10
93.45
20
-93.48
11
93.4076
21
-93.4624
0
LINE
8
BLACK
6
CONTINUOUS
10
93.4076
20
-93.4624
11
93.39
21
-93.42
0
LINE
8
BLACK
6
CONTINUOUS
10
93.39
20
-93.42
11
93.39
21
-87.92
0
LINE
8
BLACK
6
CONTINUOUS
10
93.39
20
-87.92
11
93.4076
21
-87.8776
0
LINE
8
BLACK
6
CONTINUOUS
10
93.4076
20
-87.8776
11
93.45
21
-87.86
0
LINE
8
BLACK
6
CONTINUOUS
10
93.45
20
-87.86
11
93.95
21
-87.86
0
LINE
8
BLACK
6
CONTINUOUS
10
93.51
20
-87.98
11
93.51
21
-93.36
0
LINE
8
BLACK
6
CONTINUOUS
10
93.51
20
-93.36
11
93.89
21
-93.36
0
LINE
8
BLACK
6
CONTINUOUS
10
93.89
20
-93.36
11
93.89
21
-87.98
0
LINE
8
BLACK
6
CONTINUOUS
10
93.89
20
-87.98
11
93.51
21
-87.98
0
LINE
8
BLACK
6
CONTINUOUS
10
90.06
20
-82.25
11
90.1024
21
-82.2676
0
LINE
8
BLACK
6
CONTINUOUS
10
90.1024
20
-82.2676
11
90.12
21
-82.31
0
LINE
8
BLACK
6
CONTINUOUS
10
90.12
20
-82.31
11
90.12
21
-86.75
0
LINE
8
BLACK
6
CONTINUOUS
10
90.12
20
-86.75
11
92.45
21
-86.75
0
LINE
8
BLACK
6
CONTINUOUS
10
92.45
20
-86.75
11
94.78
21
-86.75
0
LINE
8
BLACK
6
CONTINUOUS
10
94.78
20
-86.75
11
94.78
21
-82.31
0
LINE
8
BLACK
6
CONTINUOUS
10
94.78
20
-82.31
11
94.7976
21
-82.2676
0
LINE
8
BLACK
6
CONTINUOUS
10
94.7976
20
-82.2676
11
94.84
21
-82.25
0
LINE
8
BLACK
6
CONTINUOUS
10
94.84
20
-82.25
11
96.26
21
-82.25
0
LINE
8
BLACK
6
CONTINUOUS
10
96.26
20
-82.25
11
96.3024
21
-82.2676
0
LINE
8
BLACK
6
CONTINUOUS
10
96.3024
20
-82.2676
11
96.32
21
-82.31
0
LINE
8
BLACK
6
CONTINUOUS
10
96.32
20
-82.31
11
96.32
21
-94.03
0
LINE
8
BLACK
6
CONTINUOUS
10
96.32
20
-94.03
11
96.3024
21
-94.0724
0
LINE
8
BLACK
6
CONTINUOUS
10
96.3024
20
-94.0724
11
96.26
21
-94.09
0
LINE
8
BLACK
6
CONTINUOUS
10
96.26
20
-94.09
11
92.45
21
-94.09
0
LINE
8
BLACK
6
CONTINUOUS
10
92.45
20
-94.09
11
88.64
21
-94.09
0
LINE
8
BLACK
6
CONTINUOUS
10
88.64
20
-94.09
11
88.5976
21
-94.0724
0
LINE
8
BLACK
6
CONTINUOUS
10
88.5976
20
-94.0724
11
88.58
21
-94.03
0
LINE
8
BLACK
6
CONTINUOUS
10
88.58
20
-94.03
11
88.58
21
-82.31
0
LINE
8
BLACK
6
CONTINUOUS
10
88.58
20
-82.31
11
88.5976
21
-82.2676
0
LINE
8
BLACK
6
CONTINUOUS
10
88.5976
20
-82.2676
11
88.64
21
-82.25
0
LINE
8
BLACK
6
CONTINUOUS
10
88.64
20
-82.25
11
90.06
21
-82.25
0
LINE
8
BLACK
6
CONTINUOUS
10
88.7
20
-82.37
11
88.7
21
-93.97
0
LINE
8
BLACK
6
CONTINUOUS
10
88.7
20
-93.97
11
92.45
21
-93.97
0
LINE
8
BLACK
6
CONTINUOUS
10
92.45
20
-93.97
11
96.2
21
-93.97
0
LINE
8
BLACK
6
CONTINUOUS
10
96.2
20
-93.97
11
96.2
21
-82.37
0
LINE
8
BLACK
6
CONTINUOUS
10
96.2
20
-82.37
11
94.9
21
-82.37
0
LINE
8
BLACK
6
CONTINUOUS
10
94.9
20
-82.37
11
94.9
21
-86.81
0
LINE
8
BLACK
6
CONTINUOUS
10
94.9
20
-86.81
11
94.8824
21
-86.8524
0
LINE
8
BLACK
6
CONTINUOUS
10
94.8824
20
-86.8524
11
94.84
21
-86.87
0
LINE
8
BLACK
6
CONTINUOUS
10
94.84
20
-86.87
11
92.45
21
-86.87
0
LINE
8
BLACK
6
CONTINUOUS
10
92.45
20
-86.87
11
90.06
21
-86.87
0
LINE
8
BLACK
6
CONTINUOUS
10
90.06
20
-86.87
11
90.0176
21
-86.8524
0
LINE
8
BLACK
6
CONTINUOUS
10
90.0176
20
-86.8524
11
90
21
-86.81
0
LINE
8
BLACK
6
CONTINUOUS
10
90
20
-86.81
11
90
21
-82.37
0
LINE
8
BLACK
6
CONTINUOUS
10
90
20
-82.37
11
88.7
21
-82.37
0
LINE
8
BLACK
6
CONTINUOUS
10
110.05
20
-87.86
11
110.092
21
-87.8776
0
LINE
8
BLACK
6
CONTINUOUS
10
110.092
20
-87.8776
11
110.11
21
-87.92
0
LINE
8
BLACK
6
CONTINUOUS
10
110.11
20
-87.92
11
110.11
21
-93.42
0
LINE
8
BLACK
6
CONTINUOUS
10
110.11
20
-93.42
11
110.092
21
-93.4624
0
LINE
8
BLACK
6
CONTINUOUS
10
110.092
20
-93.4624
11
110.05
21
-93.48
0
LINE
8
BLACK
6
CONTINUOUS
10
110.05
20
-93.48
11
109.55
21
-93.48
0
LINE
8
BLACK
6
CONTINUOUS
10
109.55
20
-93.48
11
109.508
21
-93.4624
0
LINE
8
BLACK
6
CONTINUOUS
10
109.508
20
-93.4624
11
109.49
21
-93.42
0
LINE
8
BLACK
6
CONTINUOUS
10
109.49
20
-93.42
11
109.49
21
-87.92
0
LINE
8
BLACK
6
CONTINUOUS
10
109.49
20
-87.92
11
109.508
21
-87.8776
0
LINE
8
BLACK
6
CONTINUOUS
10
109.508
20
-87.8776
11
109.55
21
-87.86
0
LINE
8
BLACK
6
CONTINUOUS
10
109.55
20
-87.86
11
110.05
21
-87.86
0
LINE
8
BLACK
6
CONTINUOUS
10
109.61
20
-87.98
11
109.61
21
-93.36
0
LINE
8
BLACK
6
CONTINUOUS
10
109.61
20
-93.36
11
109.99
21
-93.36
0
LINE
8
BLACK
6
CONTINUOUS
10
109.99
20
-93.36
11
109.99
21
-87.98
0
LINE
8
BLACK
6
CONTINUOUS
10
109.99
20
-87.98
11
109.61
21
-87.98
0
LINE
8
BLACK
6
CONTINUOUS
10
112.55
20
-87.86
11
112.592
21
-87.8776
0
LINE
8
BLACK
6
CONTINUOUS
10
112.592
20
-87.8776
11
112.61
21
-87.92
0
LINE
8
BLACK
6
CONTINUOUS
10
112.61
20
-87.92
11
112.61
21
-93.42
0
LINE
8
BLACK
6
CONTINUOUS
10
112.61
20
-93.42
11
112.592
21
-93.4624
0
LINE
8
BLACK
6
CONTINUOUS
10
112.592
20
-93.4624
11
112.55
21
-93.48
0
LINE
8
BLACK
6
CONTINUOUS
10
112.55
20
-93.48
11
112.05
21
-93.48
0
LINE
8
BLACK
6
CONTINUOUS
10
112.05
20
-93.48
11
112.008
21
-93.4624
0
LINE
8
BLACK
6
CONTINUOUS
10
112.008
20
-93.4624
11
111.99
21
-93.42
0
LINE
8
BLACK
6
CONTINUOUS
10
111.99
20
-93.42
11
111.99
21
-87.92
0
LINE
8
BLACK
6
CONTINUOUS
10
111.99
20
-87.92
11
112.008
21
-87.8776
0
LINE
8
BLACK
6
CONTINUOUS
10
112.008
20
-87.8776
11
112.05
21
-87.86
0
LINE
8
BLACK
6
CONTINUOUS
10
112.05
20
-87.86
11
112.55
21
-87.86
0
LINE
8
BLACK
6
CONTINUOUS
10
112.11
20
-87.98
11
112.11
21
-93.36
0
LINE
8
BLACK
6
CONTINUOUS
10
112.11
20
-93.36
11
112.49
21
-93.36
0
LINE
8
BLACK
6
CONTINUOUS
10
112.49
20
-93.36
11
112.49
21
-87.98
0
LINE
8
BLACK
6
CONTINUOUS
10
112.49
20
-87.98
11
112.11
21
-87.98
0
LINE
8
BLACK
6
CONTINUOUS
10
115.05
20
-87.86
11
115.092
21
-87.8776
0
LINE
8
BLACK
6
CONTINUOUS
10
115.092
20
-87.8776
11
115.11
21
-87.92
0
LINE
8
BLACK
6
CONTINUOUS
10
115.11
20
-87.92
11
115.11
21
-93.42
0
LINE
8
BLACK
6
CONTINUOUS
10
115.11
20
-93.42
11
115.092
21
-93.4624
0
LINE
8
BLACK
6
CONTINUOUS
10
115.092
20
-93.4624
11
115.05
21
-93.48
0
LINE
8
BLACK
6
CONTINUOUS
10
115.05
20
-93.48
11
114.55
21
-93.48
0
LINE
8
BLACK
6
CONTINUOUS
10
114.55
20
-93.48
11
114.508
21
-93.4624
0
LINE
8
BLACK
6
CONTINUOUS
10
114.508
20
-93.4624
11
114.49
21
-93.42
0
LINE
8
BLACK
6
CONTINUOUS
10
114.49
20
-93.42
11
114.49
21
-87.92
0
LINE
8
BLACK
6
CONTINUOUS
10
114.49
20
-87.92
11
114.508
21
-87.8776
0
LINE
8
BLACK
6
CONTINUOUS
10
114.508
20
-87.8776
11
114.55
21
-87.86
0
LINE
8
BLACK
6
CONTINUOUS
10
114.55
20
-87.86
11
115.05
21
-87.86
0
LINE
8
BLACK
6
CONTINUOUS
10
114.61
20
-87.98
11
114.61
21
-93.36
0
LINE
8
BLACK
6
CONTINUOUS
10
114.61
20
-93.36
11
114.99
21
-93.36
0
LINE
8
BLACK
6
CONTINUOUS
10
114.99
20
-93.36
11
114.99
21
-87.98
0
LINE
8
BLACK
6
CONTINUOUS
10
114.99
20
-87.98
11
114.61
21
-87.98
0
LINE
8
BLACK
6
CONTINUOUS
10
117.55
20
-87.86
11
117.592
21
-87.8776
0
LINE
8
BLACK
6
CONTINUOUS
10
117.592
20
-87.8776
11
117.61
21
-87.92
0
LINE
8
BLACK
6
CONTINUOUS
10
117.61
20
-87.92
11
117.61
21
-93.42
0
LINE
8
BLACK
6
CONTINUOUS
10
117.61
20
-93.42
11
117.592
21
-93.4624
0
LINE
8
BLACK
6
CONTINUOUS
10
117.592
20
-93.4624
11
117.55
21
-93.48
0
LINE
8
BLACK
6
CONTINUOUS
10
117.55
20
-93.48
11
117.05
21
-93.48
0
LINE
8
BLACK
6
CONTINUOUS
10
117.05
20
-93.48
11
117.008
21
-93.4624
0
LINE
8
BLACK
6
CONTINUOUS
10
117.008
20
-93.4624
11
116.99
21
-93.42
0
LINE
8
BLACK
6
CONTINUOUS
10
116.99
20
-93.42
11
116.99
21
-87.92
0
LINE
8
BLACK
6
CONTINUOUS
10
116.99
20
-87.92
11
117.008
21
-87.8776
0
LINE
8
BLACK
6
CONTINUOUS
10
117.008
20
-87.8776
11
117.05
21
-87.86
0
LINE
8
BLACK
6
CONTINUOUS
10
117.05
20
-87.86
11
117.55
21
-87.86
0
LINE
8
BLACK
6
CONTINUOUS
10
117.11
20
-87.98
11
117.11
21
-93.36
0
LINE
8
BLACK
6
CONTINUOUS
10
117.11
20
-93.36
11
117.49
21
-93.36
0
LINE
8
BLACK
6
CONTINUOUS
10
117.49
20
-93.36
11
117.49
21
-87.98
0
LINE
8
BLACK
6
CONTINUOUS
10
117.49
20
-87.98
11
117.11
21
-87.98
0
LINE
8
BLACK
6
CONTINUOUS
10
120.05
20
-87.86
11
120.092
21
-87.8776
0
LINE
8
BLACK
6
CONTINUOUS
10
120.092
20
-87.8776
11
120.11
21
-87.92
0
LINE
8
BLACK
6
CONTINUOUS
10
120.11
20
-87.92
11
120.11
21
-93.42
0
LINE
8
BLACK
6
CONTINUOUS
10
120.11
20
-93.42
11
120.092
21
-93.4624
0
LINE
8
BLACK
6
CONTINUOUS
10
120.092
20
-93.4624
11
120.05
21
-93.48
0
LINE
8
BLACK
6
CONTINUOUS
10
120.05
20
-93.48
11
119.55
21
-93.48
0
LINE
8
BLACK
6
CONTINUOUS
10
119.55
20
-93.48
11
119.508
21
-93.4624
0
LINE
8
BLACK
6
CONTINUOUS
10
119.508
20
-93.4624
11
119.49
21
-93.42
0
LINE
8
BLACK
6
CONTINUOUS
10
119.49
20
-93.42
11
119.49
21
-87.92
0
LINE
8
BLACK
6
CONTINUOUS
10
119.49
20
-87.92
11
119.508
21
-87.8776
0
LINE
8
BLACK
6
CONTINUOUS
10
119.508
20
-87.8776
11
119.55
21
-87.86
0
LINE
8
BLACK
6
CONTINUOUS
10
119.55
20
-87.86
11
120.05
21
-87.86
0
LINE
8
BLACK
6
CONTINUOUS
10
119.61
20
-87.98
11
119.61
21
-93.36
0
LINE
8
BLACK
6
CONTINUOUS
10
119.61
20
-93.36
11
119.99
21
-93.36
0
LINE
8
BLACK
6
CONTINUOUS
10
119.99
20
-93.36
11
119.99
21
-87.98
0
LINE
8
BLACK
6
CONTINUOUS
10
119.99
20
-87.98
11
119.61
21
-87.98
0
LINE
8
BLACK
6
CONTINUOUS
10
108.66
20
-82.25
11
108.702
21
-82.2676
0
LINE
8
BLACK
6
CONTINUOUS
10
108.702
20
-82.2676
11
108.72
21
-82.31
0
LINE
8
BLACK
6
CONTINUOUS
10
108.72
20
-82.31
11
108.72
21
-86.75
0
LINE
8
BLACK
6
CONTINUOUS
10
108.72
20
-86.75
11
114.8
21
-86.75
0
LINE
8
BLACK
6
CONTINUOUS
10
114.8
20
-86.75
11
120.88
21
-86.75
0
LINE
8
BLACK
6
CONTINUOUS
10
120.88
20
-86.75
11
120.88
21
-82.31
0
LINE
8
BLACK
6
CONTINUOUS
10
120.88
20
-82.31
11
120.898
21
-82.2676
0
LINE
8
BLACK
6
CONTINUOUS
10
120.898
20
-82.2676
11
120.94
21
-82.25
0
LINE
8
BLACK
6
CONTINUOUS
10
120.94
20
-82.25
11
122.36
21
-82.25
0
LINE
8
BLACK
6
CONTINUOUS
10
122.36
20
-82.25
11
122.402
21
-82.2676
0
LINE
8
BLACK
6
CONTINUOUS
10
122.402
20
-82.2676
11
122.42
21
-82.31
0
LINE
8
BLACK
6
CONTINUOUS
10
122.42
20
-82.31
11
122.42
21
-94.03
0
LINE
8
BLACK
6
CONTINUOUS
10
122.42
20
-94.03
11
122.402
21
-94.0724
0
LINE
8
BLACK
6
CONTINUOUS
10
122.402
20
-94.0724
11
122.36
21
-94.09
0
LINE
8
BLACK
6
CONTINUOUS
10
122.36
20
-94.09
11
114.8
21
-94.09
0
LINE
8
BLACK
6
CONTINUOUS
10
114.8
20
-94.09
11
107.24
21
-94.09
0
LINE
8
BLACK
6
CONTINUOUS
10
107.24
20
-94.09
11
107.198
21
-94.0724
0
LINE
8
BLACK
6
CONTINUOUS
10
107.198
20
-94.0724
11
107.18
21
-94.03
0
LINE
8
BLACK
6
CONTINUOUS
10
107.18
20
-94.03
11
107.18
21
-89.6477
0
LINE
8
BLACK
6
CONTINUOUS
10
107.18
20
-89.6477
11
107.167
21
-89.6433
0
LINE
8
BLACK
6
CONTINUOUS
10
107.167
20
-89.6433
11
106.465
21
-89.6433
0
LINE
8
BLACK
6
CONTINUOUS
10
106.465
20
-89.6433
11
106.439
21
-89.6388
0
LINE
8
BLACK
6
CONTINUOUS
10
106.439
20
-89.6388
11
106.4
21
-89.6058
0
LINE
8
BLACK
6
CONTINUOUS
10
106.4
20
-89.6058
11
106.391
21
-89.5553
0
LINE
8
BLACK
6
CONTINUOUS
10
106.391
20
-89.5553
11
106.417
21
-89.5109
0
LINE
8
BLACK
6
CONTINUOUS
10
106.417
20
-89.5109
11
106.465
21
-89.4933
0
LINE
8
BLACK
6
CONTINUOUS
10
106.465
20
-89.4933
11
107.179
21
-89.4933
0
LINE
8
BLACK
6
CONTINUOUS
10
107.179
20
-89.4933
11
107.18
21
-89.4935
0
LINE
8
BLACK
6
CONTINUOUS
10
107.18
20
-89.4935
11
107.18
21
-88.929
0
LINE
8
BLACK
6
CONTINUOUS
10
107.18
20
-88.929
11
106.694
21
-88.929
0
LINE
8
BLACK
6
CONTINUOUS
10
106.694
20
-88.929
11
106.756
21
-88.9915
0
LINE
8
BLACK
6
CONTINUOUS
10
106.756
20
-88.9915
11
106.769
21
-89.0099
0
LINE
8
BLACK
6
CONTINUOUS
10
106.769
20
-89.0099
11
106.77
21
-89.011
0
LINE
8
BLACK
6
CONTINUOUS
10
106.77
20
-89.011
11
106.818
21
-89.1062
0
LINE
8
BLACK
6
CONTINUOUS
10
106.818
20
-89.1062
11
106.825
21
-89.1312
0
LINE
8
BLACK
6
CONTINUOUS
10
106.825
20
-89.1312
11
106.813
21
-89.1811
0
LINE
8
BLACK
6
CONTINUOUS
10
106.813
20
-89.1811
11
106.772
21
-89.2116
0
LINE
8
BLACK
6
CONTINUOUS
10
106.772
20
-89.2116
11
106.721
21
-89.2086
0
LINE
8
BLACK
6
CONTINUOUS
10
106.721
20
-89.2086
11
106.683
21
-89.1733
0
LINE
8
BLACK
6
CONTINUOUS
10
106.683
20
-89.1733
11
106.641
21
-89.0889
0
LINE
8
BLACK
6
CONTINUOUS
10
106.641
20
-89.0889
11
106.56
21
-89.0076
0
LINE
8
BLACK
6
CONTINUOUS
10
106.56
20
-89.0076
11
106.423
21
-88.9165
0
LINE
8
BLACK
6
CONTINUOUS
10
106.423
20
-88.9165
11
106.404
21
-88.8985
0
LINE
8
BLACK
6
CONTINUOUS
10
106.404
20
-88.8985
11
106.403
21
-88.8943
0
LINE
8
BLACK
6
CONTINUOUS
10
106.403
20
-88.8943
11
106.4
21
-88.8915
0
LINE
8
BLACK
6
CONTINUOUS
10
106.4
20
-88.8915
11
106.396
21
-88.8701
0
LINE
8
BLACK
6
CONTINUOUS
10
106.396
20
-88.8701
11
106.39
21
-88.8492
0
LINE
8
BLACK
6
CONTINUOUS
10
106.39
20
-88.8492
11
106.392
21
-88.8453
0
LINE
8
BLACK
6
CONTINUOUS
10
106.392
20
-88.8453
11
106.391
21
-88.841
0
LINE
8
BLACK
6
CONTINUOUS
10
106.391
20
-88.841
11
106.402
21
-88.8222
0
LINE
8
BLACK
6
CONTINUOUS
10
106.402
20
-88.8222
11
106.411
21
-88.8022
0
LINE
8
BLACK
6
CONTINUOUS
10
106.411
20
-88.8022
11
106.414
21
-88.8003
0
LINE
8
BLACK
6
CONTINUOUS
10
106.414
20
-88.8003
11
106.417
21
-88.7966
0
LINE
8
BLACK
6
CONTINUOUS
10
106.417
20
-88.7966
11
106.437
21
-88.7891
0
LINE
8
BLACK
6
CONTINUOUS
10
106.437
20
-88.7891
11
106.457
21
-88.7795
0
LINE
8
BLACK
6
CONTINUOUS
10
106.457
20
-88.7795
11
106.461
21
-88.7805
0
LINE
8
BLACK
6
CONTINUOUS
10
106.461
20
-88.7805
11
106.465
21
-88.779
0
LINE
8
BLACK
6
CONTINUOUS
10
106.465
20
-88.779
11
107.18
21
-88.779
0
LINE
8
BLACK
6
CONTINUOUS
10
107.18
20
-88.779
11
107.18
21
-82.31
0
LINE
8
BLACK
6
CONTINUOUS
10
107.18
20
-82.31
11
107.198
21
-82.2676
0
LINE
8
BLACK
6
CONTINUOUS
10
107.198
20
-82.2676
11
107.24
21
-82.25
0
LINE
8
BLACK
6
CONTINUOUS
10
107.24
20
-82.25
11
108.66
21
-82.25
0
LINE
8
BLACK
6
CONTINUOUS
10
107.3
20
-82.37
11
107.3
21
-88.779
0
LINE
8
BLACK
6
CONTINUOUS
10
107.3
20
-88.779
11
107.39
21
-88.779
0
LINE
8
BLACK
6
CONTINUOUS
10
107.39
20
-88.779
11
107.39
21
-88.5683
0
LINE
8
BLACK
6
CONTINUOUS
10
107.39
20
-88.5683
11
107.394
21
-88.5427
0
LINE
8
BLACK
6
CONTINUOUS
10
107.394
20
-88.5427
11
107.427
21
-88.5034
0
LINE
8
BLACK
6
CONTINUOUS
10
107.427
20
-88.5034
11
107.478
21
-88.4945
0
LINE
8
BLACK
6
CONTINUOUS
10
107.478
20
-88.4945
11
107.522
21
-88.5201
0
LINE
8
BLACK
6
CONTINUOUS
10
107.522
20
-88.5201
11
107.54
21
-88.5683
0
LINE
8
BLACK
6
CONTINUOUS
10
107.54
20
-88.5683
11
107.54
21
-89.1398
0
LINE
8
BLACK
6
CONTINUOUS
10
107.54
20
-89.1398
11
107.535
21
-89.1654
0
LINE
8
BLACK
6
CONTINUOUS
10
107.535
20
-89.1654
11
107.502
21
-89.2047
0
LINE
8
BLACK
6
CONTINUOUS
10
107.502
20
-89.2047
11
107.452
21
-89.2136
0
LINE
8
BLACK
6
CONTINUOUS
10
107.452
20
-89.2136
11
107.407
21
-89.188
0
LINE
8
BLACK
6
CONTINUOUS
10
107.407
20
-89.188
11
107.39
21
-89.1398
0
LINE
8
BLACK
6
CONTINUOUS
10
107.39
20
-89.1398
11
107.39
21
-88.929
0
LINE
8
BLACK
6
CONTINUOUS
10
107.39
20
-88.929
11
107.3
21
-88.929
0
LINE
8
BLACK
6
CONTINUOUS
10
107.3
20
-88.929
11
107.3
21
-89.5296
0
LINE
8
BLACK
6
CONTINUOUS
10
107.3
20
-89.5296
11
107.346
21
-89.5448
0
LINE
8
BLACK
6
CONTINUOUS
10
107.346
20
-89.5448
11
107.369
21
-89.5572
0
LINE
8
BLACK
6
CONTINUOUS
10
107.369
20
-89.5572
11
107.371
21
-89.561
0
LINE
8
BLACK
6
CONTINUOUS
10
107.371
20
-89.561
11
107.375
21
-89.5629
0
LINE
8
BLACK
6
CONTINUOUS
10
107.375
20
-89.5629
11
107.47
21
-89.6582
0
LINE
8
BLACK
6
CONTINUOUS
10
107.47
20
-89.6582
11
107.485
21
-89.6795
0
LINE
8
BLACK
6
CONTINUOUS
10
107.485
20
-89.6795
11
107.486
21
-89.684
0
LINE
8
BLACK
6
CONTINUOUS
10
107.486
20
-89.684
11
107.488
21
-89.6875
0
LINE
8
BLACK
6
CONTINUOUS
10
107.488
20
-89.6875
11
107.536
21
-89.8303
0
LINE
8
BLACK
6
CONTINUOUS
10
107.536
20
-89.8303
11
107.539
21
-89.8525
0
LINE
8
BLACK
6
CONTINUOUS
10
107.539
20
-89.8525
11
107.54
21
-89.854
0
LINE
8
BLACK
6
CONTINUOUS
10
107.54
20
-89.854
11
107.54
21
-89.9493
0
LINE
8
BLACK
6
CONTINUOUS
10
107.54
20
-89.9493
11
107.535
21
-89.9749
0
LINE
8
BLACK
6
CONTINUOUS
10
107.535
20
-89.9749
11
107.502
21
-90.0142
0
LINE
8
BLACK
6
CONTINUOUS
10
107.502
20
-90.0142
11
107.452
21
-90.0231
0
LINE
8
BLACK
6
CONTINUOUS
10
107.452
20
-90.0231
11
107.407
21
-89.9975
0
LINE
8
BLACK
6
CONTINUOUS
10
107.407
20
-89.9975
11
107.39
21
-89.9493
0
LINE
8
BLACK
6
CONTINUOUS
10
107.39
20
-89.9493
11
107.39
21
-89.8662
0
LINE
8
BLACK
6
CONTINUOUS
10
107.39
20
-89.8662
11
107.352
21
-89.7517
0
LINE
8
BLACK
6
CONTINUOUS
10
107.352
20
-89.7517
11
107.3
21
-89.7001
0
LINE
8
BLACK
6
CONTINUOUS
10
107.3
20
-89.7001
11
107.3
21
-93.97
0
LINE
8
BLACK
6
CONTINUOUS
10
107.3
20
-93.97
11
114.8
21
-93.97
0
LINE
8
BLACK
6
CONTINUOUS
10
114.8
20
-93.97
11
122.3
21
-93.97
0
LINE
8
BLACK
6
CONTINUOUS
10
122.3
20
-93.97
11
122.3
21
-82.37
0
LINE
8
BLACK
6
CONTINUOUS
10
122.3
20
-82.37
11
121
21
-82.37
0
LINE
8
BLACK
6
CONTINUOUS
10
121
20
-82.37
11
121
21
-86.81
0
LINE
8
BLACK
6
CONTINUOUS
10
121
20
-86.81
11
120.982
21
-86.8524
0
LINE
8
BLACK
6
CONTINUOUS
10
120.982
20
-86.8524
11
120.94
21
-86.87
0
LINE
8
BLACK
6
CONTINUOUS
10
120.94
20
-86.87
11
114.8
21
-86.87
0
LINE
8
BLACK
6
CONTINUOUS
10
114.8
20
-86.87
11
108.66
21
-86.87
0
LINE
8
BLACK
6
CONTINUOUS
10
108.66
20
-86.87
11
108.618
21
-86.8524
0
LINE
8
BLACK
6
CONTINUOUS
10
108.618
20
-86.8524
11
108.6
21
-86.81
0
LINE
8
BLACK
6
CONTINUOUS
10
108.6
20
-86.81
11
108.6
21
-82.37
0
LINE
8
BLACK
6
CONTINUOUS
10
108.6
20
-82.37
11
107.3
21
-82.37
0
LINE
8
BLACK
6
CONTINUOUS
10
99.3224
20
-84.5805
11
99.34
21
-84.6229
0
LINE
8
BLACK
6
CONTINUOUS
10
99.34
20
-84.6229
11
99.34
21
-85.0771
0
LINE
8
BLACK
6
CONTINUOUS
10
99.34
20
-85.0771
11
99.3224
21
-85.1195
0
LINE
8
BLACK
6
CONTINUOUS
10
99.3224
20
-85.1195
11
99.28
21
-85.1371
0
LINE
8
BLACK
6
CONTINUOUS
10
99.28
20
-85.1371
11
99.2376
21
-85.1195
0
LINE
8
BLACK
6
CONTINUOUS
10
99.2376
20
-85.1195
11
99.22
21
-85.0771
0
LINE
8
BLACK
6
CONTINUOUS
10
99.22
20
-85.0771
11
99.22
21
-84.6229
0
LINE
8
BLACK
6
CONTINUOUS
10
99.22
20
-84.6229
11
99.2376
21
-84.5805
0
LINE
8
BLACK
6
CONTINUOUS
10
99.2376
20
-84.5805
11
99.28
21
-84.5629
0
LINE
8
BLACK
6
CONTINUOUS
10
99.28
20
-84.5629
11
99.3224
21
-84.5805
0
LINE
8
BLACK
6
CONTINUOUS
10
100.082
20
-84.5805
11
100.1
21
-84.6229
0
LINE
8
BLACK
6
CONTINUOUS
10
100.1
20
-84.6229
11
100.1
21
-85.0771
0
LINE
8
BLACK
6
CONTINUOUS
10
100.1
20
-85.0771
11
100.082
21
-85.1195
0
LINE
8
BLACK
6
CONTINUOUS
10
100.082
20
-85.1195
11
100.04
21
-85.1371
0
LINE
8
BLACK
6
CONTINUOUS
10
100.04
20
-85.1371
11
99.9976
21
-85.1195
0
LINE
8
BLACK
6
CONTINUOUS
10
99.9976
20
-85.1195
11
99.98
21
-85.0771
0
LINE
8
BLACK
6
CONTINUOUS
10
99.98
20
-85.0771
11
99.98
21
-84.6229
0
LINE
8
BLACK
6
CONTINUOUS
10
99.98
20
-84.6229
11
99.9976
21
-84.5805
0
LINE
8
BLACK
6
CONTINUOUS
10
99.9976
20
-84.5805
11
100.04
21
-84.5629
0
LINE
8
BLACK
6
CONTINUOUS
10
100.04
20
-84.5629
11
100.082
21
-84.5805
0
LINE
8
BLACK
6
CONTINUOUS
10
101.862
20
-84.5805
11
101.88
21
-84.6229
0
LINE
8
BLACK
6
CONTINUOUS
10
101.88
20
-84.6229
11
101.88
21
-85.0771
0
LINE
8
BLACK
6
CONTINUOUS
10
101.88
20
-85.0771
11
101.862
21
-85.1195
0
LINE
8
BLACK
6
CONTINUOUS
10
101.862
20
-85.1195
11
101.82
21
-85.1371
0
LINE
8
BLACK
6
CONTINUOUS
10
101.82
20
-85.1371
11
101.778
21
-85.1195
0
LINE
8
BLACK
6
CONTINUOUS
10
101.778
20
-85.1195
11
101.76
21
-85.0771
0
LINE
8
BLACK
6
CONTINUOUS
10
101.76
20
-85.0771
11
101.76
21
-84.6229
0
LINE
8
BLACK
6
CONTINUOUS
10
101.76
20
-84.6229
11
101.778
21
-84.5805
0
LINE
8
BLACK
6
CONTINUOUS
10
101.778
20
-84.5805
11
101.82
21
-84.5629
0
LINE
8
BLACK
6
CONTINUOUS
10
101.82
20
-84.5629
11
101.862
21
-84.5805
0
LINE
8
BLACK
6
CONTINUOUS
10
102.622
20
-84.5805
11
102.64
21
-84.6229
0
LINE
8
BLACK
6
CONTINUOUS
10
102.64
20
-84.6229
11
102.64
21
-85.0771
0
LINE
8
BLACK
6
CONTINUOUS
10
102.64
20
-85.0771
11
102.622
21
-85.1195
0
LINE
8
BLACK
6
CONTINUOUS
10
102.622
20
-85.1195
11
102.58
21
-85.1371
0
LINE
8
BLACK
6
CONTINUOUS
10
102.58
20
-85.1371
11
102.538
21
-85.1195
0
LINE
8
BLACK
6
CONTINUOUS
10
102.538
20
-85.1195
11
102.52
21
-85.0771
0
LINE
8
BLACK
6
CONTINUOUS
10
102.52
20
-85.0771
11
102.52
21
-84.6229
0
LINE
8
BLACK
6
CONTINUOUS
10
102.52
20
-84.6229
11
102.538
21
-84.5805
0
LINE
8
BLACK
6
CONTINUOUS
10
102.538
20
-84.5805
11
102.58
21
-84.5629
0
LINE
8
BLACK
6
CONTINUOUS
10
102.58
20
-84.5629
11
102.622
21
-84.5805
0
LINE
8
BLACK
6
CONTINUOUS
10
104.402
20
-84.6476
11
104.42
21
-84.69
0
LINE
8
BLACK
6
CONTINUOUS
10
104.42
20
-84.69
11
104.42
21
-85.0771
0
LINE
8
BLACK
6
CONTINUOUS
10
104.42
20
-85.0771
11
104.402
21
-85.1195
0
LINE
8
BLACK
6
CONTINUOUS
10
104.402
20
-85.1195
11
104.36
21
-85.1371
0
LINE
8
BLACK
6
CONTINUOUS
10
104.36
20
-85.1371
11
104.318
21
-85.1195
0
LINE
8
BLACK
6
CONTINUOUS
10
104.318
20
-85.1195
11
104.3
21
-85.0771
0
LINE
8
BLACK
6
CONTINUOUS
10
104.3
20
-85.0771
11
104.3
21
-84.69
0
LINE
8
BLACK
6
CONTINUOUS
10
104.3
20
-84.69
11
104.318
21
-84.6476
0
LINE
8
BLACK
6
CONTINUOUS
10
104.318
20
-84.6476
11
104.36
21
-84.63
0
LINE
8
BLACK
6
CONTINUOUS
10
104.36
20
-84.63
11
104.402
21
-84.6476
0
LINE
8
BLACK
6
CONTINUOUS
10
105.162
20
-84.6476
11
105.18
21
-84.69
0
LINE
8
BLACK
6
CONTINUOUS
10
105.18
20
-84.69
11
105.18
21
-85.0771
0
LINE
8
BLACK
6
CONTINUOUS
10
105.18
20
-85.0771
11
105.162
21
-85.1195
0
LINE
8
BLACK
6
CONTINUOUS
10
105.162
20
-85.1195
11
105.12
21
-85.1371
0
LINE
8
BLACK
6
CONTINUOUS
10
105.12
20
-85.1371
11
105.078
21
-85.1195
0
LINE
8
BLACK
6
CONTINUOUS
10
105.078
20
-85.1195
11
105.06
21
-85.0771
0
LINE
8
BLACK
6
CONTINUOUS
10
105.06
20
-85.0771
11
105.06
21
-84.69
0
LINE
8
BLACK
6
CONTINUOUS
10
105.06
20
-84.69
11
105.078
21
-84.6476
0
LINE
8
BLACK
6
CONTINUOUS
10
105.078
20
-84.6476
11
105.12
21
-84.63
0
LINE
8
BLACK
6
CONTINUOUS
10
105.12
20
-84.63
11
105.162
21
-84.6476
0
LINE
8
BLACK
6
CONTINUOUS
10
106.01
20
-82.25
11
106.052
21
-82.2676
0
LINE
8
BLACK
6
CONTINUOUS
10
106.052
20
-82.2676
11
106.07
21
-82.31
0
LINE
8
BLACK
6
CONTINUOUS
10
106.07
20
-82.31
11
106.07
21
-83.58
0
LINE
8
BLACK
6
CONTINUOUS
10
106.07
20
-83.58
11
106.052
21
-83.6224
0
LINE
8
BLACK
6
CONTINUOUS
10
106.052
20
-83.6224
11
106.01
21
-83.64
0
LINE
8
BLACK
6
CONTINUOUS
10
106.01
20
-83.64
11
105.968
21
-83.6224
0
LINE
8
BLACK
6
CONTINUOUS
10
105.968
20
-83.6224
11
105.95
21
-83.58
0
LINE
8
BLACK
6
CONTINUOUS
10
105.95
20
-83.58
11
105.95
21
-82.37
0
LINE
8
BLACK
6
CONTINUOUS
10
105.95
20
-82.37
11
104.74
21
-82.37
0
LINE
8
BLACK
6
CONTINUOUS
10
104.74
20
-82.37
11
104.698
21
-82.3524
0
LINE
8
BLACK
6
CONTINUOUS
10
104.698
20
-82.3524
11
104.68
21
-82.31
0
LINE
8
BLACK
6
CONTINUOUS
10
104.68
20
-82.31
11
104.698
21
-82.2676
0
LINE
8
BLACK
6
CONTINUOUS
10
104.698
20
-82.2676
11
104.74
21
-82.25
0
LINE
8
BLACK
6
CONTINUOUS
10
104.74
20
-82.25
11
106.01
21
-82.25
0
LINE
8
BLACK
6
CONTINUOUS
10
77.5129
20
-82.5653
11
77.5268
21
-82.5663
0
LINE
8
BLACK
6
CONTINUOUS
10
77.5268
20
-82.5663
11
77.5333
21
-82.5738
0
LINE
8
BLACK
6
CONTINUOUS
10
77.5333
20
-82.5738
11
77.5424
21
-82.5776
0
LINE
8
BLACK
6
CONTINUOUS
10
77.5424
20
-82.5776
11
77.5478
21
-82.5905
0
LINE
8
BLACK
6
CONTINUOUS
10
77.5478
20
-82.5905
11
77.5569
21
-82.601
0
LINE
8
BLACK
6
CONTINUOUS
10
77.5569
20
-82.601
11
77.5562
21
-82.6109
0
LINE
8
BLACK
6
CONTINUOUS
10
77.5562
20
-82.6109
11
77.56
21
-82.62
0
LINE
8
BLACK
6
CONTINUOUS
10
77.56
20
-82.62
11
77.5547
21
-82.6329
0
LINE
8
BLACK
6
CONTINUOUS
10
77.5547
20
-82.6329
11
77.5537
21
-82.6468
0
LINE
8
BLACK
6
CONTINUOUS
10
77.5537
20
-82.6468
11
77.2537
21
-83.2468
0
LINE
8
BLACK
6
CONTINUOUS
10
77.2537
20
-83.2468
11
77.2393
21
-83.2593
0
LINE
8
BLACK
6
CONTINUOUS
10
77.2393
20
-83.2593
11
77.2268
21
-83.2737
0
LINE
8
BLACK
6
CONTINUOUS
10
77.2268
20
-83.2737
11
77.2224
21
-83.274
0
LINE
8
BLACK
6
CONTINUOUS
10
77.2224
20
-83.274
11
77.219
21
-83.2769
0
LINE
8
BLACK
6
CONTINUOUS
10
77.219
20
-83.2769
11
77.2
21
-83.2756
0
LINE
8
BLACK
6
CONTINUOUS
10
77.2
20
-83.2756
11
77.181
21
-83.2769
0
LINE
8
BLACK
6
CONTINUOUS
10
77.181
20
-83.2769
11
77.1776
21
-83.274
0
LINE
8
BLACK
6
CONTINUOUS
10
77.1776
20
-83.274
11
77.1732
21
-83.2737
0
LINE
8
BLACK
6
CONTINUOUS
10
77.1732
20
-83.2737
11
77.1607
21
-83.2593
0
LINE
8
BLACK
6
CONTINUOUS
10
77.1607
20
-83.2593
11
77.1463
21
-83.2468
0
LINE
8
BLACK
6
CONTINUOUS
10
77.1463
20
-83.2468
11
76.8463
21
-82.6468
0
LINE
8
BLACK
6
CONTINUOUS
10
76.8463
20
-82.6468
11
76.8453
21
-82.6329
0
LINE
8
BLACK
6
CONTINUOUS
10
76.8453
20
-82.6329
11
76.84
21
-82.62
0
LINE
8
BLACK
6
CONTINUOUS
10
76.84
20
-82.62
11
76.8438
21
-82.6109
0
LINE
8
BLACK
6
CONTINUOUS
10
76.8438
20
-82.6109
11
76.8431
21
-82.601
0
LINE
8
BLACK
6
CONTINUOUS
10
76.8431
20
-82.601
11
76.8522
21
-82.5905
0
LINE
8
BLACK
6
CONTINUOUS
10
76.8522
20
-82.5905
11
76.8576
21
-82.5776
0
LINE
8
BLACK
6
CONTINUOUS
10
76.8576
20
-82.5776
11
76.8667
21
-82.5738
0
LINE
8
BLACK
6
CONTINUOUS
10
76.8667
20
-82.5738
11
76.8732
21
-82.5663
0
LINE
8
BLACK
6
CONTINUOUS
10
76.8732
20
-82.5663
11
76.8871
21
-82.5653
0
LINE
8
BLACK
6
CONTINUOUS
10
76.8871
20
-82.5653
11
76.9
21
-82.56
0
LINE
8
BLACK
6
CONTINUOUS
10
76.9
20
-82.56
11
77.5
21
-82.56
0
LINE
8
BLACK
6
CONTINUOUS
10
77.5
20
-82.56
11
77.5129
21
-82.5653
0
LINE
8
BLACK
6
CONTINUOUS
10
76.9971
20
-82.68
11
77.2
21
-83.0858
0
LINE
8
BLACK
6
CONTINUOUS
10
77.2
20
-83.0858
11
77.4029
21
-82.68
0
LINE
8
BLACK
6
CONTINUOUS
10
77.4029
20
-82.68
11
76.9971
21
-82.68
0
LINE
8
BLACK
6
CONTINUOUS
10
91.5129
20
-82.5653
11
91.5268
21
-82.5663
0
LINE
8
BLACK
6
CONTINUOUS
10
91.5268
20
-82.5663
11
91.5333
21
-82.5738
0
LINE
8
BLACK
6
CONTINUOUS
10
91.5333
20
-82.5738
11
91.5424
21
-82.5776
0
LINE
8
BLACK
6
CONTINUOUS
10
91.5424
20
-82.5776
11
91.5478
21
-82.5905
0
LINE
8
BLACK
6
CONTINUOUS
10
91.5478
20
-82.5905
11
91.5569
21
-82.601
0
LINE
8
BLACK
6
CONTINUOUS
10
91.5569
20
-82.601
11
91.5562
21
-82.6109
0
LINE
8
BLACK
6
CONTINUOUS
10
91.5562
20
-82.6109
11
91.56
21
-82.62
0
LINE
8
BLACK
6
CONTINUOUS
10
91.56
20
-82.62
11
91.5547
21
-82.6329
0
LINE
8
BLACK
6
CONTINUOUS
10
91.5547
20
-82.6329
11
91.5537
21
-82.6468
0
LINE
8
BLACK
6
CONTINUOUS
10
91.5537
20
-82.6468
11
91.2537
21
-83.2468
0
LINE
8
BLACK
6
CONTINUOUS
10
91.2537
20
-83.2468
11
91.2393
21
-83.2593
0
LINE
8
BLACK
6
CONTINUOUS
10
91.2393
20
-83.2593
11
91.2268
21
-83.2737
0
LINE
8
BLACK
6
CONTINUOUS
10
91.2268
20
-83.2737
11
91.2224
21
-83.274
0
LINE
8
BLACK
6
CONTINUOUS
10
91.2224
20
-83.274
11
91.219
21
-83.2769
0
LINE
8
BLACK
6
CONTINUOUS
10
91.219
20
-83.2769
11
91.2
21
-83.2756
0
LINE
8
BLACK
6
CONTINUOUS
10
91.2
20
-83.2756
11
91.181
21
-83.2769
0
LINE
8
BLACK
6
CONTINUOUS
10
91.181
20
-83.2769
11
91.1776
21
-83.274
0
LINE
8
BLACK
6
CONTINUOUS
10
91.1776
20
-83.274
11
91.1732
21
-83.2737
0
LINE
8
BLACK
6
CONTINUOUS
10
91.1732
20
-83.2737
11
91.1607
21
-83.2593
0
LINE
8
BLACK
6
CONTINUOUS
10
91.1607
20
-83.2593
11
91.1463
21
-83.2468
0
LINE
8
BLACK
6
CONTINUOUS
10
91.1463
20
-83.2468
11
90.8463
21
-82.6468
0
LINE
8
BLACK
6
CONTINUOUS
10
90.8463
20
-82.6468
11
90.8453
21
-82.6329
0
LINE
8
BLACK
6
CONTINUOUS
10
90.8453
20
-82.6329
11
90.84
21
-82.62
0
LINE
8
BLACK
6
CONTINUOUS
10
90.84
20
-82.62
11
90.8438
21
-82.6109
0
LINE
8
BLACK
6
CONTINUOUS
10
90.8438
20
-82.6109
11
90.8431
21
-82.601
0
LINE
8
BLACK
6
CONTINUOUS
10
90.8431
20
-82.601
11
90.8522
21
-82.5905
0
LINE
8
BLACK
6
CONTINUOUS
10
90.8522
20
-82.5905
11
90.8576
21
-82.5776
0
LINE
8
BLACK
6
CONTINUOUS
10
90.8576
20
-82.5776
11
90.8667
21
-82.5738
0
LINE
8
BLACK
6
CONTINUOUS
10
90.8667
20
-82.5738
11
90.8732
21
-82.5663
0
LINE
8
BLACK
6
CONTINUOUS
10
90.8732
20
-82.5663
11
90.8871
21
-82.5653
0
LINE
8
BLACK
6
CONTINUOUS
10
90.8871
20
-82.5653
11
90.9
21
-82.56
0
LINE
8
BLACK
6
CONTINUOUS
10
90.9
20
-82.56
11
91.5
21
-82.56
0
LINE
8
BLACK
6
CONTINUOUS
10
91.5
20
-82.56
11
91.5129
21
-82.5653
0
LINE
8
BLACK
6
CONTINUOUS
10
90.9971
20
-82.68
11
91.2
21
-83.0858
0
LINE
8
BLACK
6
CONTINUOUS
10
91.2
20
-83.0858
11
91.4029
21
-82.68
0
LINE
8
BLACK
6
CONTINUOUS
10
91.4029
20
-82.68
11
90.9971
21
-82.68
0
LINE
8
BLACK
6
CONTINUOUS
10
110.113
20
-82.5653
11
110.127
21
-82.5663
0
LINE
8
BLACK
6
CONTINUOUS
10
110.127
20
-82.5663
11
110.133
21
-82.5738
0
LINE
8
BLACK
6
CONTINUOUS
10
110.133
20
-82.5738
11
110.142
21
-82.5776
0
LINE
8
BLACK
6
CONTINUOUS
10
110.142
20
-82.5776
11
110.148
21
-82.5905
0
LINE
8
BLACK
6
CONTINUOUS
10
110.148
20
-82.5905
11
110.157
21
-82.601
0
LINE
8
BLACK
6
CONTINUOUS
10
110.157
20
-82.601
11
110.156
21
-82.6109
0
LINE
8
BLACK
6
CONTINUOUS
10
110.156
20
-82.6109
11
110.16
21
-82.62
0
LINE
8
BLACK
6
CONTINUOUS
10
110.16
20
-82.62
11
110.155
21
-82.6329
0
LINE
8
BLACK
6
CONTINUOUS
10
110.155
20
-82.6329
11
110.154
21
-82.6468
0
LINE
8
BLACK
6
CONTINUOUS
10
110.154
20
-82.6468
11
109.854
21
-83.2468
0
LINE
8
BLACK
6
CONTINUOUS
10
109.854
20
-83.2468
11
109.839
21
-83.2593
0
LINE
8
BLACK
6
CONTINUOUS
10
109.839
20
-83.2593
11
109.827
21
-83.2737
0
LINE
8
BLACK
6
CONTINUOUS
10
109.827
20
-83.2737
11
109.822
21
-83.274
0
LINE
8
BLACK
6
CONTINUOUS
10
109.822
20
-83.274
11
109.819
21
-83.2769
0
LINE
8
BLACK
6
CONTINUOUS
10
109.819
20
-83.2769
11
109.8
21
-83.2756
0
LINE
8
BLACK
6
CONTINUOUS
10
109.8
20
-83.2756
11
109.781
21
-83.2769
0
LINE
8
BLACK
6
CONTINUOUS
10
109.781
20
-83.2769
11
109.778
21
-83.274
0
LINE
8
BLACK
6
CONTINUOUS
10
109.778
20
-83.274
11
109.773
21
-83.2737
0
LINE
8
BLACK
6
CONTINUOUS
10
109.773
20
-83.2737
11
109.761
21
-83.2593
0
LINE
8
BLACK
6
CONTINUOUS
10
109.761
20
-83.2593
11
109.746
21
-83.2468
0
LINE
8
BLACK
6
CONTINUOUS
10
109.746
20
-83.2468
11
109.446
21
-82.6468
0
LINE
8
BLACK
6
CONTINUOUS
10
109.446
20
-82.6468
11
109.445
21
-82.6329
0
LINE
8
BLACK
6
CONTINUOUS
10
109.445
20
-82.6329
11
109.44
21
-82.62
0
LINE
8
BLACK
6
CONTINUOUS
10
109.44
20
-82.62
11
109.444
21
-82.6109
0
LINE
8
BLACK
6
CONTINUOUS
10
109.444
20
-82.6109
11
109.443
21
-82.601
0
LINE
8
BLACK
6
CONTINUOUS
10
109.443
20
-82.601
11
109.452
21
-82.5905
0
LINE
8
BLACK
6
CONTINUOUS
10
109.452
20
-82.5905
11
109.458
21
-82.5776
0
LINE
8
BLACK
6
CONTINUOUS
10
109.458
20
-82.5776
11
109.467
21
-82.5738
0
LINE
8
BLACK
6
CONTINUOUS
10
109.467
20
-82.5738
11
109.473
21
-82.5663
0
LINE
8
BLACK
6
CONTINUOUS
10
109.473
20
-82.5663
11
109.487
21
-82.5653
0
LINE
8
BLACK
6
CONTINUOUS
10
109.487
20
-82.5653
11
109.5
21
-82.56
0
LINE
8
BLACK
6
CONTINUOUS
10
109.5
20
-82.56
11
110.1
21
-82.56
0
LINE
8
BLACK
6
CONTINUOUS
10
110.1
20
-82.56
11
110.113
21
-82.5653
0
LINE
8
BLACK
6
CONTINUOUS
10
109.597
20
-82.68
11
109.8
21
-83.0858
0
LINE
8
BLACK
6
CONTINUOUS
10
109.8
20
-83.0858
11
110.003
21
-82.68
0
LINE
8
BLACK
6
CONTINUOUS
10
110.003
20
-82.68
11
109.597
21
-82.68
0
LINE
8
BLACK
6
CONTINUOUS
10
80.6741
20
-80.6266
11
80.6917
21
-80.6748
0
LINE
8
BLACK
6
CONTINUOUS
10
80.6917
20
-80.6748
11
80.6917
21
-81.3891
0
LINE
8
BLACK
6
CONTINUOUS
10
80.6917
20
-81.3891
11
80.6878
21
-81.4112
0
LINE
8
BLACK
6
CONTINUOUS
10
80.6878
20
-81.4112
11
80.6878
21
-81.4128
0
LINE
8
BLACK
6
CONTINUOUS
10
80.6878
20
-81.4128
11
80.6402
21
-81.5557
0
LINE
8
BLACK
6
CONTINUOUS
10
80.6402
20
-81.5557
11
80.6278
21
-81.5786
0
LINE
8
BLACK
6
CONTINUOUS
10
80.6278
20
-81.5786
11
80.624
21
-81.5809
0
LINE
8
BLACK
6
CONTINUOUS
10
80.624
20
-81.5809
11
80.6221
21
-81.585
0
LINE
8
BLACK
6
CONTINUOUS
10
80.6221
20
-81.585
11
80.5268
21
-81.6802
0
LINE
8
BLACK
6
CONTINUOUS
10
80.5268
20
-81.6802
11
80.5055
21
-81.6952
0
LINE
8
BLACK
6
CONTINUOUS
10
80.5055
20
-81.6952
11
80.501
21
-81.6956
0
LINE
8
BLACK
6
CONTINUOUS
10
80.501
20
-81.6956
11
80.4975
21
-81.6984
0
LINE
8
BLACK
6
CONTINUOUS
10
80.4975
20
-81.6984
11
80.3547
21
-81.746
0
LINE
8
BLACK
6
CONTINUOUS
10
80.3547
20
-81.746
11
80.3325
21
-81.7493
0
LINE
8
BLACK
6
CONTINUOUS
10
80.3325
20
-81.7493
11
80.331
21
-81.7498
0
LINE
8
BLACK
6
CONTINUOUS
10
80.331
20
-81.7498
11
80.2357
21
-81.7498
0
LINE
8
BLACK
6
CONTINUOUS
10
80.2357
20
-81.7498
11
80.2101
21
-81.7453
0
LINE
8
BLACK
6
CONTINUOUS
10
80.2101
20
-81.7453
11
80.1708
21
-81.7123
0
LINE
8
BLACK
6
CONTINUOUS
10
80.1708
20
-81.7123
11
80.1619
21
-81.6618
0
LINE
8
BLACK
6
CONTINUOUS
10
80.1619
20
-81.6618
11
80.1875
21
-81.6174
0
LINE
8
BLACK
6
CONTINUOUS
10
80.1875
20
-81.6174
11
80.2357
21
-81.5998
0
LINE
8
BLACK
6
CONTINUOUS
10
80.2357
20
-81.5998
11
80.3188
21
-81.5998
0
LINE
8
BLACK
6
CONTINUOUS
10
80.3188
20
-81.5998
11
80.4333
21
-81.5616
0
LINE
8
BLACK
6
CONTINUOUS
10
80.4333
20
-81.5616
11
80.5035
21
-81.4914
0
LINE
8
BLACK
6
CONTINUOUS
10
80.5035
20
-81.4914
11
80.5417
21
-81.3769
0
LINE
8
BLACK
6
CONTINUOUS
10
80.5417
20
-81.3769
11
80.5417
21
-80.6748
0
LINE
8
BLACK
6
CONTINUOUS
10
80.5417
20
-80.6748
11
80.5462
21
-80.6492
0
LINE
8
BLACK
6
CONTINUOUS
10
80.5462
20
-80.6492
11
80.5792
21
-80.6099
0
LINE
8
BLACK
6
CONTINUOUS
10
80.5792
20
-80.6099
11
80.6297
21
-80.601
0
LINE
8
BLACK
6
CONTINUOUS
10
80.6297
20
-80.601
11
80.6741
21
-80.6266
0
LINE
8
BLACK
6
CONTINUOUS
10
92.1741
20
-80.6266
11
92.1917
21
-80.6748
0
LINE
8
BLACK
6
CONTINUOUS
10
92.1917
20
-80.6748
11
92.1917
21
-81.3891
0
LINE
8
BLACK
6
CONTINUOUS
10
92.1917
20
-81.3891
11
92.1878
21
-81.4112
0
LINE
8
BLACK
6
CONTINUOUS
10
92.1878
20
-81.4112
11
92.1878
21
-81.4128
0
LINE
8
BLACK
6
CONTINUOUS
10
92.1878
20
-81.4128
11
92.1402
21
-81.5557
0
LINE
8
BLACK
6
CONTINUOUS
10
92.1402
20
-81.5557
11
92.1278
21
-81.5786
0
LINE
8
BLACK
6
CONTINUOUS
10
92.1278
20
-81.5786
11
92.124
21
-81.5809
0
LINE
8
BLACK
6
CONTINUOUS
10
92.124
20
-81.5809
11
92.1221
21
-81.585
0
LINE
8
BLACK
6
CONTINUOUS
10
92.1221
20
-81.585
11
92.0268
21
-81.6802
0
LINE
8
BLACK
6
CONTINUOUS
10
92.0268
20
-81.6802
11
92.0055
21
-81.6952
0
LINE
8
BLACK
6
CONTINUOUS
10
92.0055
20
-81.6952
11
92.001
21
-81.6956
0
LINE
8
BLACK
6
CONTINUOUS
10
92.001
20
-81.6956
11
91.9975
21
-81.6984
0
LINE
8
BLACK
6
CONTINUOUS
10
91.9975
20
-81.6984
11
91.8547
21
-81.746
0
LINE
8
BLACK
6
CONTINUOUS
10
91.8547
20
-81.746
11
91.8325
21
-81.7493
0
LINE
8
BLACK
6
CONTINUOUS
10
91.8325
20
-81.7493
11
91.831
21
-81.7498
0
LINE
8
BLACK
6
CONTINUOUS
10
91.831
20
-81.7498
11
91.7357
21
-81.7498
0
LINE
8
BLACK
6
CONTINUOUS
10
91.7357
20
-81.7498
11
91.7101
21
-81.7453
0
LINE
8
BLACK
6
CONTINUOUS
10
91.7101
20
-81.7453
11
91.6708
21
-81.7123
0
LINE
8
BLACK
6
CONTINUOUS
10
91.6708
20
-81.7123
11
91.6619
21
-81.6618
0
LINE
8
BLACK
6
CONTINUOUS
10
91.6619
20
-81.6618
11
91.6875
21
-81.6174
0
LINE
8
BLACK
6
CONTINUOUS
10
91.6875
20
-81.6174
11
91.7357
21
-81.5998
0
LINE
8
BLACK
6
CONTINUOUS
10
91.7357
20
-81.5998
11
91.8188
21
-81.5998
0
LINE
8
BLACK
6
CONTINUOUS
10
91.8188
20
-81.5998
11
91.9333
21
-81.5616
0
LINE
8
BLACK
6
CONTINUOUS
10
91.9333
20
-81.5616
11
92.0035
21
-81.4914
0
LINE
8
BLACK
6
CONTINUOUS
10
92.0035
20
-81.4914
11
92.0417
21
-81.3769
0
LINE
8
BLACK
6
CONTINUOUS
10
92.0417
20
-81.3769
11
92.0417
21
-80.6748
0
LINE
8
BLACK
6
CONTINUOUS
10
92.0417
20
-80.6748
11
92.0462
21
-80.6492
0
LINE
8
BLACK
6
CONTINUOUS
10
92.0462
20
-80.6492
11
92.0792
21
-80.6099
0
LINE
8
BLACK
6
CONTINUOUS
10
92.0792
20
-80.6099
11
92.1297
21
-80.601
0
LINE
8
BLACK
6
CONTINUOUS
10
92.1297
20
-80.601
11
92.1741
21
-80.6266
0
LINE
8
BLACK
6
CONTINUOUS
10
92.9518
20
-80.6043
11
92.9553
21
-80.6072
0
LINE
8
BLACK
6
CONTINUOUS
10
92.9553
20
-80.6072
11
92.9597
21
-80.6077
0
LINE
8
BLACK
6
CONTINUOUS
10
92.9597
20
-80.6077
11
93.055
21
-80.6554
0
LINE
8
BLACK
6
CONTINUOUS
10
93.055
20
-80.6554
11
93.073
21
-80.6687
0
LINE
8
BLACK
6
CONTINUOUS
10
93.073
20
-80.6687
11
93.0745
21
-80.6694
0
LINE
8
BLACK
6
CONTINUOUS
10
93.0745
20
-80.6694
11
93.1221
21
-80.717
0
LINE
8
BLACK
6
CONTINUOUS
10
93.1221
20
-80.717
11
93.1349
21
-80.7354
0
LINE
8
BLACK
6
CONTINUOUS
10
93.1349
20
-80.7354
11
93.1361
21
-80.7365
0
LINE
8
BLACK
6
CONTINUOUS
10
93.1361
20
-80.7365
11
93.1837
21
-80.8318
0
LINE
8
BLACK
6
CONTINUOUS
10
93.1837
20
-80.8318
11
93.1912
21
-80.8567
0
LINE
8
BLACK
6
CONTINUOUS
10
93.1912
20
-80.8567
11
93.1901
21
-80.8611
0
LINE
8
BLACK
6
CONTINUOUS
10
93.1901
20
-80.8611
11
93.1917
21
-80.8653
0
LINE
8
BLACK
6
CONTINUOUS
10
93.1917
20
-80.8653
11
93.1917
21
-80.9129
0
LINE
8
BLACK
6
CONTINUOUS
10
93.1917
20
-80.9129
11
93.1871
21
-80.9386
0
LINE
8
BLACK
6
CONTINUOUS
10
93.1871
20
-80.9386
11
93.1843
21
-80.942
0
LINE
8
BLACK
6
CONTINUOUS
10
93.1843
20
-80.942
11
93.1837
21
-80.9465
0
LINE
8
BLACK
6
CONTINUOUS
10
93.1837
20
-80.9465
11
93.1361
21
-81.0417
0
LINE
8
BLACK
6
CONTINUOUS
10
93.1361
20
-81.0417
11
93.1228
21
-81.0597
0
LINE
8
BLACK
6
CONTINUOUS
10
93.1228
20
-81.0597
11
93.1221
21
-81.0612
0
LINE
8
BLACK
6
CONTINUOUS
10
93.1221
20
-81.0612
11
93.0799
21
-81.1034
0
LINE
8
BLACK
6
CONTINUOUS
10
93.0799
20
-81.1034
11
93.1221
21
-81.1456
0
LINE
8
BLACK
6
CONTINUOUS
10
93.1221
20
-81.1456
11
93.1349
21
-81.164
0
LINE
8
BLACK
6
CONTINUOUS
10
93.1349
20
-81.164
11
93.1361
21
-81.1651
0
LINE
8
BLACK
6
CONTINUOUS
10
93.1361
20
-81.1651
11
93.1837
21
-81.2603
0
LINE
8
BLACK
6
CONTINUOUS
10
93.1837
20
-81.2603
11
93.1912
21
-81.2853
0
LINE
8
BLACK
6
CONTINUOUS
10
93.1912
20
-81.2853
11
93.1901
21
-81.2897
0
LINE
8
BLACK
6
CONTINUOUS
10
93.1901
20
-81.2897
11
93.1917
21
-81.2939
0
LINE
8
BLACK
6
CONTINUOUS
10
93.1917
20
-81.2939
11
93.1917
21
-81.4843
0
LINE
8
BLACK
6
CONTINUOUS
10
93.1917
20
-81.4843
11
93.1871
21
-81.51
0
LINE
8
BLACK
6
CONTINUOUS
10
93.1871
20
-81.51
11
93.1843
21
-81.5134
0
LINE
8
BLACK
6
CONTINUOUS
10
93.1843
20
-81.5134
11
93.1837
21
-81.5179
0
LINE
8
BLACK
6
CONTINUOUS
10
93.1837
20
-81.5179
11
93.1361
21
-81.6131
0
LINE
8
BLACK
6
CONTINUOUS
10
93.1361
20
-81.6131
11
93.1228
21
-81.6311
0
LINE
8
BLACK
6
CONTINUOUS
10
93.1228
20
-81.6311
11
93.1221
21
-81.6326
0
LINE
8
BLACK
6
CONTINUOUS
10
93.1221
20
-81.6326
11
93.0745
21
-81.6802
0
LINE
8
BLACK
6
CONTINUOUS
10
93.0745
20
-81.6802
11
93.0561
21
-81.6931
0
LINE
8
BLACK
6
CONTINUOUS
10
93.0561
20
-81.6931
11
93.055
21
-81.6943
0
LINE
8
BLACK
6
CONTINUOUS
10
93.055
20
-81.6943
11
92.9597
21
-81.7419
0
LINE
8
BLACK
6
CONTINUOUS
10
92.9597
20
-81.7419
11
92.9348
21
-81.7493
0
LINE
8
BLACK
6
CONTINUOUS
10
92.9348
20
-81.7493
11
92.9304
21
-81.7483
0
LINE
8
BLACK
6
CONTINUOUS
10
92.9304
20
-81.7483
11
92.9262
21
-81.7498
0
LINE
8
BLACK
6
CONTINUOUS
10
92.9262
20
-81.7498
11
92.7357
21
-81.7498
0
LINE
8
BLACK
6
CONTINUOUS
10
92.7357
20
-81.7498
11
92.7101
21
-81.7453
0
LINE
8
BLACK
6
CONTINUOUS
10
92.7101
20
-81.7453
11
92.7066
21
-81.7424
0
LINE
8
BLACK
6
CONTINUOUS
10
92.7066
20
-81.7424
11
92.7022
21
-81.7419
0
LINE
8
BLACK
6
CONTINUOUS
10
92.7022
20
-81.7419
11
92.6069
21
-81.6943
0
LINE
8
BLACK
6
CONTINUOUS
10
92.6069
20
-81.6943
11
92.5889
21
-81.6809
0
LINE
8
BLACK
6
CONTINUOUS
10
92.5889
20
-81.6809
11
92.5874
21
-81.6802
0
LINE
8
BLACK
6
CONTINUOUS
10
92.5874
20
-81.6802
11
92.5398
21
-81.6326
0
LINE
8
BLACK
6
CONTINUOUS
10
92.5398
20
-81.6326
11
92.527
21
-81.6142
0
LINE
8
BLACK
6
CONTINUOUS
10
92.527
20
-81.6142
11
92.5258
21
-81.6131
0
LINE
8
BLACK
6
CONTINUOUS
10
92.5258
20
-81.6131
11
92.4782
21
-81.5179
0
LINE
8
BLACK
6
CONTINUOUS
10
92.4782
20
-81.5179
11
92.4707
21
-81.4929
0
LINE
8
BLACK
6
CONTINUOUS
10
92.4707
20
-81.4929
11
92.4718
21
-81.4886
0
LINE
8
BLACK
6
CONTINUOUS
10
92.4718
20
-81.4886
11
92.4702
21
-81.4843
0
LINE
8
BLACK
6
CONTINUOUS
10
92.4702
20
-81.4843
11
92.4702
21
-81.2939
0
LINE
8
BLACK
6
CONTINUOUS
10
92.4702
20
-81.2939
11
92.4748
21
-81.2682
0
LINE
8
BLACK
6
CONTINUOUS
10
92.4748
20
-81.2682
11
92.4776
21
-81.2648
0
LINE
8
BLACK
6
CONTINUOUS
10
92.4776
20
-81.2648
11
92.4782
21
-81.2603
0
LINE
8
BLACK
6
CONTINUOUS
10
92.4782
20
-81.2603
11
92.5258
21
-81.1651
0
LINE
8
BLACK
6
CONTINUOUS
10
92.5258
20
-81.1651
11
92.5391
21
-81.1471
0
LINE
8
BLACK
6
CONTINUOUS
10
92.5391
20
-81.1471
11
92.5398
21
-81.1456
0
LINE
8
BLACK
6
CONTINUOUS
10
92.5398
20
-81.1456
11
92.582
21
-81.1034
0
LINE
8
BLACK
6
CONTINUOUS
10
92.582
20
-81.1034
11
92.5398
21
-81.0612
0
LINE
8
BLACK
6
CONTINUOUS
10
92.5398
20
-81.0612
11
92.527
21
-81.0428
0
LINE
8
BLACK
6
CONTINUOUS
10
92.527
20
-81.0428
11
92.5258
21
-81.0417
0
LINE
8
BLACK
6
CONTINUOUS
10
92.5258
20
-81.0417
11
92.4782
21
-80.9465
0
LINE
8
BLACK
6
CONTINUOUS
10
92.4782
20
-80.9465
11
92.4707
21
-80.9215
0
LINE
8
BLACK
6
CONTINUOUS
10
92.4707
20
-80.9215
11
92.4718
21
-80.9171
0
LINE
8
BLACK
6
CONTINUOUS
10
92.4718
20
-80.9171
11
92.4702
21
-80.9129
0
LINE
8
BLACK
6
CONTINUOUS
10
92.4702
20
-80.9129
11
92.4702
21
-80.8653
0
LINE
8
BLACK
6
CONTINUOUS
10
92.4702
20
-80.8653
11
92.4748
21
-80.8396
0
LINE
8
BLACK
6
CONTINUOUS
10
92.4748
20
-80.8396
11
92.4776
21
-80.8362
0
LINE
8
BLACK
6
CONTINUOUS
10
92.4776
20
-80.8362
11
92.4782
21
-80.8318
0
LINE
8
BLACK
6
CONTINUOUS
10
92.4782
20
-80.8318
11
92.5258
21
-80.7365
0
LINE
8
BLACK
6
CONTINUOUS
10
92.5258
20
-80.7365
11
92.5391
21
-80.7185
0
LINE
8
BLACK
6
CONTINUOUS
10
92.5391
20
-80.7185
11
92.5398
21
-80.717
0
LINE
8
BLACK
6
CONTINUOUS
10
92.5398
20
-80.717
11
92.5874
21
-80.6694
0
LINE
8
BLACK
6
CONTINUOUS
10
92.5874
20
-80.6694
11
92.6058
21
-80.6565
0
LINE
8
BLACK
6
CONTINUOUS
10
92.6058
20
-80.6565
11
92.6069
21
-80.6554
0
LINE
8
BLACK
6
CONTINUOUS
10
92.6069
20
-80.6554
11
92.7022
21
-80.6077
0
LINE
8
BLACK
6
CONTINUOUS
10
92.7022
20
-80.6077
11
92.7271
21
-80.6003
0
LINE
8
BLACK
6
CONTINUOUS
10
92.7271
20
-80.6003
11
92.7315
21
-80.6014
0
LINE
8
BLACK
6
CONTINUOUS
10
92.7315
20
-80.6014
11
92.7357
21
-80.5998
0
LINE
8
BLACK
6
CONTINUOUS
10
92.7357
20
-80.5998
11
92.9262
21
-80.5998
0
LINE
8
BLACK
6
CONTINUOUS
10
92.9262
20
-80.5998
11
92.9518
21
-80.6043
0
LINE
8
BLACK
6
CONTINUOUS
10
92.6849
20
-81.2126
11
92.6545
21
-81.2431
0
LINE
8
BLACK
6
CONTINUOUS
10
92.6545
20
-81.2431
11
92.6202
21
-81.3116
0
LINE
8
BLACK
6
CONTINUOUS
10
92.6202
20
-81.3116
11
92.6202
21
-81.4666
0
LINE
8
BLACK
6
CONTINUOUS
10
92.6202
20
-81.4666
11
92.6545
21
-81.5352
0
LINE
8
BLACK
6
CONTINUOUS
10
92.6545
20
-81.5352
11
92.6849
21
-81.5656
0
LINE
8
BLACK
6
CONTINUOUS
10
92.6849
20
-81.5656
11
92.7534
21
-81.5998
0
LINE
8
BLACK
6
CONTINUOUS
10
92.7534
20
-81.5998
11
92.9085
21
-81.5998
0
LINE
8
BLACK
6
CONTINUOUS
10
92.9085
20
-81.5998
11
92.977
21
-81.5656
0
LINE
8
BLACK
6
CONTINUOUS
10
92.977
20
-81.5656
11
93.0074
21
-81.5352
0
LINE
8
BLACK
6
CONTINUOUS
10
93.0074
20
-81.5352
11
93.0417
21
-81.4666
0
LINE
8
BLACK
6
CONTINUOUS
10
93.0417
20
-81.4666
11
93.0417
21
-81.3116
0
LINE
8
BLACK
6
CONTINUOUS
10
93.0417
20
-81.3116
11
93.0074
21
-81.2431
0
LINE
8
BLACK
6
CONTINUOUS
10
93.0074
20
-81.2431
11
92.977
21
-81.2126
0
LINE
8
BLACK
6
CONTINUOUS
10
92.977
20
-81.2126
11
92.9085
21
-81.1784
0
LINE
8
BLACK
6
CONTINUOUS
10
92.9085
20
-81.1784
11
92.7534
21
-81.1784
0
LINE
8
BLACK
6
CONTINUOUS
10
92.7534
20
-81.1784
11
92.6849
21
-81.2126
0
LINE
8
BLACK
6
CONTINUOUS
10
92.6849
20
-80.7841
11
92.6545
21
-80.8145
0
LINE
8
BLACK
6
CONTINUOUS
10
92.6545
20
-80.8145
11
92.6202
21
-80.883
0
LINE
8
BLACK
6
CONTINUOUS
10
92.6202
20
-80.883
11
92.6202
21
-80.8952
0
LINE
8
BLACK
6
CONTINUOUS
10
92.6202
20
-80.8952
11
92.6545
21
-80.9637
0
LINE
8
BLACK
6
CONTINUOUS
10
92.6545
20
-80.9637
11
92.6849
21
-80.9941
0
LINE
8
BLACK
6
CONTINUOUS
10
92.6849
20
-80.9941
11
92.7534
21
-81.0284
0
LINE
8
BLACK
6
CONTINUOUS
10
92.7534
20
-81.0284
11
92.9085
21
-81.0284
0
LINE
8
BLACK
6
CONTINUOUS
10
92.9085
20
-81.0284
11
92.977
21
-80.9941
0
LINE
8
BLACK
6
CONTINUOUS
10
92.977
20
-80.9941
11
93.0074
21
-80.9637
0
LINE
8
BLACK
6
CONTINUOUS
10
93.0074
20
-80.9637
11
93.0417
21
-80.8952
0
LINE
8
BLACK
6
CONTINUOUS
10
93.0417
20
-80.8952
11
93.0417
21
-80.883
0
LINE
8
BLACK
6
CONTINUOUS
10
93.0417
20
-80.883
11
93.0074
21
-80.8145
0
LINE
8
BLACK
6
CONTINUOUS
10
93.0074
20
-80.8145
11
92.977
21
-80.7841
0
LINE
8
BLACK
6
CONTINUOUS
10
92.977
20
-80.7841
11
92.9085
21
-80.7498
0
LINE
8
BLACK
6
CONTINUOUS
10
92.9085
20
-80.7498
11
92.7534
21
-80.7498
0
LINE
8
BLACK
6
CONTINUOUS
10
92.7534
20
-80.7498
11
92.6849
21
-80.7841
0
LINE
8
BLACK
6
CONTINUOUS
10
114.524
20
-80.6266
11
114.542
21
-80.6748
0
LINE
8
BLACK
6
CONTINUOUS
10
114.542
20
-80.6748
11
114.542
21
-81.3891
0
LINE
8
BLACK
6
CONTINUOUS
10
114.542
20
-81.3891
11
114.538
21
-81.4112
0
LINE
8
BLACK
6
CONTINUOUS
10
114.538
20
-81.4112
11
114.538
21
-81.4128
0
LINE
8
BLACK
6
CONTINUOUS
10
114.538
20
-81.4128
11
114.49
21
-81.5557
0
LINE
8
BLACK
6
CONTINUOUS
10
114.49
20
-81.5557
11
114.478
21
-81.5786
0
LINE
8
BLACK
6
CONTINUOUS
10
114.478
20
-81.5786
11
114.474
21
-81.5809
0
LINE
8
BLACK
6
CONTINUOUS
10
114.474
20
-81.5809
11
114.472
21
-81.585
0
LINE
8
BLACK
6
CONTINUOUS
10
114.472
20
-81.585
11
114.377
21
-81.6802
0
LINE
8
BLACK
6
CONTINUOUS
10
114.377
20
-81.6802
11
114.356
21
-81.6952
0
LINE
8
BLACK
6
CONTINUOUS
10
114.356
20
-81.6952
11
114.351
21
-81.6956
0
LINE
8
BLACK
6
CONTINUOUS
10
114.351
20
-81.6956
11
114.348
21
-81.6984
0
LINE
8
BLACK
6
CONTINUOUS
10
114.348
20
-81.6984
11
114.205
21
-81.746
0
LINE
8
BLACK
6
CONTINUOUS
10
114.205
20
-81.746
11
114.182
21
-81.7493
0
LINE
8
BLACK
6
CONTINUOUS
10
114.182
20
-81.7493
11
114.181
21
-81.7498
0
LINE
8
BLACK
6
CONTINUOUS
10
114.181
20
-81.7498
11
114.086
21
-81.7498
0
LINE
8
BLACK
6
CONTINUOUS
10
114.086
20
-81.7498
11
114.06
21
-81.7453
0
LINE
8
BLACK
6
CONTINUOUS
10
114.06
20
-81.7453
11
114.021
21
-81.7123
0
LINE
8
BLACK
6
CONTINUOUS
10
114.021
20
-81.7123
11
114.012
21
-81.6618
0
LINE
8
BLACK
6
CONTINUOUS
10
114.012
20
-81.6618
11
114.038
21
-81.6174
0
LINE
8
BLACK
6
CONTINUOUS
10
114.038
20
-81.6174
11
114.086
21
-81.5998
0
LINE
8
BLACK
6
CONTINUOUS
10
114.086
20
-81.5998
11
114.169
21
-81.5998
0
LINE
8
BLACK
6
CONTINUOUS
10
114.169
20
-81.5998
11
114.283
21
-81.5616
0
LINE
8
BLACK
6
CONTINUOUS
10
114.283
20
-81.5616
11
114.353
21
-81.4914
0
LINE
8
BLACK
6
CONTINUOUS
10
114.353
20
-81.4914
11
114.392
21
-81.3769
0
LINE
8
BLACK
6
CONTINUOUS
10
114.392
20
-81.3769
11
114.392
21
-80.6748
0
LINE
8
BLACK
6
CONTINUOUS
10
114.392
20
-80.6748
11
114.396
21
-80.6492
0
LINE
8
BLACK
6
CONTINUOUS
10
114.396
20
-80.6492
11
114.429
21
-80.6099
0
LINE
8
BLACK
6
CONTINUOUS
10
114.429
20
-80.6099
11
114.48
21
-80.601
0
LINE
8
BLACK
6
CONTINUOUS
10
114.48
20
-80.601
11
114.524
21
-80.6266
0
LINE
8
BLACK
6
CONTINUOUS
10
115.478
20
-80.6018
11
115.481
21
-80.6012
0
LINE
8
BLACK
6
CONTINUOUS
10
115.481
20
-80.6012
11
115.484
21
-80.6029
0
LINE
8
BLACK
6
CONTINUOUS
10
115.484
20
-80.6029
11
115.492
21
-80.6043
0
LINE
8
BLACK
6
CONTINUOUS
10
115.492
20
-80.6043
11
115.508
21
-80.6173
0
LINE
8
BLACK
6
CONTINUOUS
10
115.508
20
-80.6173
11
115.525
21
-80.6278
0
LINE
8
BLACK
6
CONTINUOUS
10
115.525
20
-80.6278
11
115.527
21
-80.6335
0
LINE
8
BLACK
6
CONTINUOUS
10
115.527
20
-80.6335
11
115.532
21
-80.6373
0
LINE
8
BLACK
6
CONTINUOUS
10
115.532
20
-80.6373
11
115.535
21
-80.6572
0
LINE
8
BLACK
6
CONTINUOUS
10
115.535
20
-80.6572
11
115.542
21
-80.6764
0
LINE
8
BLACK
6
CONTINUOUS
10
115.542
20
-80.6764
11
115.539
21
-80.6819
0
LINE
8
BLACK
6
CONTINUOUS
10
115.539
20
-80.6819
11
115.541
21
-80.6878
0
LINE
8
BLACK
6
CONTINUOUS
10
115.541
20
-80.6878
11
115.53
21
-80.7054
0
LINE
8
BLACK
6
CONTINUOUS
10
115.53
20
-80.7054
11
115.523
21
-80.7242
0
LINE
8
BLACK
6
CONTINUOUS
10
115.523
20
-80.7242
11
115.296
21
-80.9842
0
LINE
8
BLACK
6
CONTINUOUS
10
115.296
20
-80.9842
11
115.302
21
-80.9853
0
LINE
8
BLACK
6
CONTINUOUS
10
115.302
20
-80.9853
11
115.305
21
-80.9882
0
LINE
8
BLACK
6
CONTINUOUS
10
115.305
20
-80.9882
11
115.31
21
-80.9887
0
LINE
8
BLACK
6
CONTINUOUS
10
115.31
20
-80.9887
11
115.405
21
-81.0363
0
LINE
8
BLACK
6
CONTINUOUS
10
115.405
20
-81.0363
11
115.423
21
-81.0497
0
LINE
8
BLACK
6
CONTINUOUS
10
115.423
20
-81.0497
11
115.424
21
-81.0504
0
LINE
8
BLACK
6
CONTINUOUS
10
115.424
20
-81.0504
11
115.472
21
-81.098
0
LINE
8
BLACK
6
CONTINUOUS
10
115.472
20
-81.098
11
115.485
21
-81.1163
0
LINE
8
BLACK
6
CONTINUOUS
10
115.485
20
-81.1163
11
115.486
21
-81.1175
0
LINE
8
BLACK
6
CONTINUOUS
10
115.486
20
-81.1175
11
115.534
21
-81.2127
0
LINE
8
BLACK
6
CONTINUOUS
10
115.534
20
-81.2127
11
115.541
21
-81.2377
0
LINE
8
BLACK
6
CONTINUOUS
10
115.541
20
-81.2377
11
115.54
21
-81.242
0
LINE
8
BLACK
6
CONTINUOUS
10
115.54
20
-81.242
11
115.542
21
-81.2462
0
LINE
8
BLACK
6
CONTINUOUS
10
115.542
20
-81.2462
11
115.542
21
-81.4843
0
LINE
8
BLACK
6
CONTINUOUS
10
115.542
20
-81.4843
11
115.537
21
-81.51
0
LINE
8
BLACK
6
CONTINUOUS
10
115.537
20
-81.51
11
115.534
21
-81.5134
0
LINE
8
BLACK
6
CONTINUOUS
10
115.534
20
-81.5134
11
115.534
21
-81.5179
0
LINE
8
BLACK
6
CONTINUOUS
10
115.534
20
-81.5179
11
115.486
21
-81.6131
0
LINE
8
BLACK
6
CONTINUOUS
10
115.486
20
-81.6131
11
115.473
21
-81.6311
0
LINE
8
BLACK
6
CONTINUOUS
10
115.473
20
-81.6311
11
115.472
21
-81.6326
0
LINE
8
BLACK
6
CONTINUOUS
10
115.472
20
-81.6326
11
115.424
21
-81.6802
0
LINE
8
BLACK
6
CONTINUOUS
10
115.424
20
-81.6802
11
115.406
21
-81.6931
0
LINE
8
BLACK
6
CONTINUOUS
10
115.406
20
-81.6931
11
115.405
21
-81.6943
0
LINE
8
BLACK
6
CONTINUOUS
10
115.405
20
-81.6943
11
115.31
21
-81.7419
0
LINE
8
BLACK
6
CONTINUOUS
10
115.31
20
-81.7419
11
115.285
21
-81.7493
0
LINE
8
BLACK
6
CONTINUOUS
10
115.285
20
-81.7493
11
115.28
21
-81.7483
0
LINE
8
BLACK
6
CONTINUOUS
10
115.28
20
-81.7483
11
115.276
21
-81.7498
0
LINE
8
BLACK
6
CONTINUOUS
10
115.276
20
-81.7498
11
114.99
21
-81.7498
0
LINE
8
BLACK
6
CONTINUOUS
10
114.99
20
-81.7498
11
114.965
21
-81.7453
0
LINE
8
BLACK
6
CONTINUOUS
10
114.965
20
-81.7453
11
114.961
21
-81.7424
0
LINE
8
BLACK
6
CONTINUOUS
10
114.961
20
-81.7424
11
114.957
21
-81.7419
0
LINE
8
BLACK
6
CONTINUOUS
10
114.957
20
-81.7419
11
114.862
21
-81.6943
0
LINE
8
BLACK
6
CONTINUOUS
10
114.862
20
-81.6943
11
114.844
21
-81.6809
0
LINE
8
BLACK
6
CONTINUOUS
10
114.844
20
-81.6809
11
114.842
21
-81.6802
0
LINE
8
BLACK
6
CONTINUOUS
10
114.842
20
-81.6802
11
114.795
21
-81.6326
0
LINE
8
BLACK
6
CONTINUOUS
10
114.795
20
-81.6326
11
114.78
21
-81.6113
0
LINE
8
BLACK
6
CONTINUOUS
10
114.78
20
-81.6113
11
114.775
21
-81.5602
0
LINE
8
BLACK
6
CONTINUOUS
10
114.775
20
-81.5602
11
114.805
21
-81.5181
0
LINE
8
BLACK
6
CONTINUOUS
10
114.805
20
-81.5181
11
114.854
21
-81.5049
0
LINE
8
BLACK
6
CONTINUOUS
10
114.854
20
-81.5049
11
114.901
21
-81.5265
0
LINE
8
BLACK
6
CONTINUOUS
10
114.901
20
-81.5265
11
114.94
21
-81.5656
0
LINE
8
BLACK
6
CONTINUOUS
10
114.94
20
-81.5656
11
115.008
21
-81.5998
0
LINE
8
BLACK
6
CONTINUOUS
10
115.008
20
-81.5998
11
115.258
21
-81.5998
0
LINE
8
BLACK
6
CONTINUOUS
10
115.258
20
-81.5998
11
115.327
21
-81.5656
0
LINE
8
BLACK
6
CONTINUOUS
10
115.327
20
-81.5656
11
115.357
21
-81.5352
0
LINE
8
BLACK
6
CONTINUOUS
10
115.357
20
-81.5352
11
115.392
21
-81.4666
0
LINE
8
BLACK
6
CONTINUOUS
10
115.392
20
-81.4666
11
115.392
21
-81.264
0
LINE
8
BLACK
6
CONTINUOUS
10
115.392
20
-81.264
11
115.357
21
-81.1954
0
LINE
8
BLACK
6
CONTINUOUS
10
115.357
20
-81.1954
11
115.327
21
-81.165
0
LINE
8
BLACK
6
CONTINUOUS
10
115.327
20
-81.165
11
115.258
21
-81.1308
0
LINE
8
BLACK
6
CONTINUOUS
10
115.258
20
-81.1308
11
115.133
21
-81.1308
0
LINE
8
BLACK
6
CONTINUOUS
10
115.133
20
-81.1308
11
115.122
21
-81.1288
0
LINE
8
BLACK
6
CONTINUOUS
10
115.122
20
-81.1288
11
115.119
21
-81.1293
0
LINE
8
BLACK
6
CONTINUOUS
10
115.119
20
-81.1293
11
115.116
21
-81.1277
0
LINE
8
BLACK
6
CONTINUOUS
10
115.116
20
-81.1277
11
115.108
21
-81.1262
0
LINE
8
BLACK
6
CONTINUOUS
10
115.108
20
-81.1262
11
115.092
21
-81.1133
0
LINE
8
BLACK
6
CONTINUOUS
10
115.092
20
-81.1133
11
115.075
21
-81.1028
0
LINE
8
BLACK
6
CONTINUOUS
10
115.075
20
-81.1028
11
115.073
21
-81.0971
0
LINE
8
BLACK
6
CONTINUOUS
10
115.073
20
-81.0971
11
115.068
21
-81.0933
0
LINE
8
BLACK
6
CONTINUOUS
10
115.068
20
-81.0933
11
115.065
21
-81.0734
0
LINE
8
BLACK
6
CONTINUOUS
10
115.065
20
-81.0734
11
115.058
21
-81.0542
0
LINE
8
BLACK
6
CONTINUOUS
10
115.058
20
-81.0542
11
115.061
21
-81.0486
0
LINE
8
BLACK
6
CONTINUOUS
10
115.061
20
-81.0486
11
115.059
21
-81.0427
0
LINE
8
BLACK
6
CONTINUOUS
10
115.059
20
-81.0427
11
115.07
21
-81.0252
0
LINE
8
BLACK
6
CONTINUOUS
10
115.07
20
-81.0252
11
115.077
21
-81.0064
0
LINE
8
BLACK
6
CONTINUOUS
10
115.077
20
-81.0064
11
115.301
21
-80.7498
0
LINE
8
BLACK
6
CONTINUOUS
10
115.301
20
-80.7498
11
114.848
21
-80.7498
0
LINE
8
BLACK
6
CONTINUOUS
10
114.848
20
-80.7498
11
114.822
21
-80.7453
0
LINE
8
BLACK
6
CONTINUOUS
10
114.822
20
-80.7453
11
114.783
21
-80.7123
0
LINE
8
BLACK
6
CONTINUOUS
10
114.783
20
-80.7123
11
114.774
21
-80.6618
0
LINE
8
BLACK
6
CONTINUOUS
10
114.774
20
-80.6618
11
114.799
21
-80.6174
0
LINE
8
BLACK
6
CONTINUOUS
10
114.799
20
-80.6174
11
114.848
21
-80.5998
0
LINE
8
BLACK
6
CONTINUOUS
10
114.848
20
-80.5998
11
115.467
21
-80.5998
0
LINE
8
BLACK
6
CONTINUOUS
10
115.467
20
-80.5998
11
115.478
21
-80.6018
0
LINE
8
BLACK
6
CONTINUOUS
10
81.6899
20
-80.6043
11
81.6967
21
-80.61
0
LINE
8
BLACK
6
CONTINUOUS
10
81.6967
20
-80.61
11
81.7054
21
-80.6121
0
LINE
8
BLACK
6
CONTINUOUS
10
81.7054
20
-80.6121
11
81.7158
21
-80.6261
0
LINE
8
BLACK
6
CONTINUOUS
10
81.7158
20
-80.6261
11
81.7292
21
-80.6373
0
LINE
8
BLACK
6
CONTINUOUS
10
81.7292
20
-80.6373
11
81.7308
21
-80.646
0
LINE
8
BLACK
6
CONTINUOUS
10
81.7308
20
-80.646
11
81.7361
21
-80.6531
0
LINE
8
BLACK
6
CONTINUOUS
10
81.7361
20
-80.6531
11
81.7351
21
-80.6706
0
LINE
8
BLACK
6
CONTINUOUS
10
81.7351
20
-80.6706
11
81.7381
21
-80.6878
0
LINE
8
BLACK
6
CONTINUOUS
10
81.7381
20
-80.6878
11
81.7337
21
-80.6955
0
LINE
8
BLACK
6
CONTINUOUS
10
81.7337
20
-80.6955
11
81.7332
21
-80.7044
0
LINE
8
BLACK
6
CONTINUOUS
10
81.7332
20
-80.7044
11
81.3046
21
-81.7044
0
LINE
8
BLACK
6
CONTINUOUS
10
81.3046
20
-81.7044
11
81.2904
21
-81.7262
0
LINE
8
BLACK
6
CONTINUOUS
10
81.2904
20
-81.7262
11
81.2446
21
-81.7493
0
LINE
8
BLACK
6
CONTINUOUS
10
81.2446
20
-81.7493
11
81.1946
21
-81.7376
0
LINE
8
BLACK
6
CONTINUOUS
10
81.1946
20
-81.7376
11
81.1639
21
-81.6965
0
LINE
8
BLACK
6
CONTINUOUS
10
81.1639
20
-81.6965
11
81.1668
21
-81.6453
0
LINE
8
BLACK
6
CONTINUOUS
10
81.1668
20
-81.6453
11
81.5505
21
-80.7498
0
LINE
8
BLACK
6
CONTINUOUS
10
81.5505
20
-80.7498
11
80.9976
21
-80.7498
0
LINE
8
BLACK
6
CONTINUOUS
10
80.9976
20
-80.7498
11
80.972
21
-80.7453
0
LINE
8
BLACK
6
CONTINUOUS
10
80.972
20
-80.7453
11
80.9327
21
-80.7123
0
LINE
8
BLACK
6
CONTINUOUS
10
80.9327
20
-80.7123
11
80.9238
21
-80.6618
0
LINE
8
BLACK
6
CONTINUOUS
10
80.9238
20
-80.6618
11
80.9494
21
-80.6174
0
LINE
8
BLACK
6
CONTINUOUS
10
80.9494
20
-80.6174
11
80.9976
21
-80.5998
0
LINE
8
BLACK
6
CONTINUOUS
10
80.9976
20
-80.5998
11
81.6643
21
-80.5998
0
LINE
8
BLACK
6
CONTINUOUS
10
81.6643
20
-80.5998
11
81.6899
21
-80.6043
0
LINE
8
BLACK
6
CONTINUOUS
10
73.43
20
-73.15
11
73.4724
21
-73.1676
0
LINE
8
BLACK
6
CONTINUOUS
10
73.4724
20
-73.1676
11
73.49
21
-73.21
0
LINE
8
BLACK
6
CONTINUOUS
10
73.49
20
-73.21
11
73.49
21
-78.35
0
LINE
8
BLACK
6
CONTINUOUS
10
73.49
20
-78.35
11
73.4724
21
-78.3924
0
LINE
8
BLACK
6
CONTINUOUS
10
73.4724
20
-78.3924
11
73.43
21
-78.41
0
LINE
8
BLACK
6
CONTINUOUS
10
73.43
20
-78.41
11
70.77
21
-78.41
0
LINE
8
BLACK
6
CONTINUOUS
10
70.77
20
-78.41
11
70.7276
21
-78.3924
0
LINE
8
BLACK
6
CONTINUOUS
10
70.7276
20
-78.3924
11
70.71
21
-78.35
0
LINE
8
BLACK
6
CONTINUOUS
10
70.71
20
-78.35
11
70.71
21
-73.21
0
LINE
8
BLACK
6
CONTINUOUS
10
70.71
20
-73.21
11
70.7276
21
-73.1676
0
LINE
8
BLACK
6
CONTINUOUS
10
70.7276
20
-73.1676
11
70.77
21
-73.15
0
LINE
8
BLACK
6
CONTINUOUS
10
70.77
20
-73.15
11
73.43
21
-73.15
0
LINE
8
BLACK
6
CONTINUOUS
10
70.83
20
-73.27
11
70.83
21
-78.29
0
LINE
8
BLACK
6
CONTINUOUS
10
70.83
20
-78.29
11
73.37
21
-78.29
0
LINE
8
BLACK
6
CONTINUOUS
10
73.37
20
-78.29
11
73.37
21
-73.27
0
LINE
8
BLACK
6
CONTINUOUS
10
73.37
20
-73.27
11
70.83
21
-73.27
0
LINE
8
BLACK
6
CONTINUOUS
10
72.1424
20
-70.5676
11
72.16
21
-70.61
0
LINE
8
BLACK
6
CONTINUOUS
10
72.16
20
-70.61
11
72.1424
21
-70.6524
0
LINE
8
BLACK
6
CONTINUOUS
10
72.1424
20
-70.6524
11
72.1
21
-70.67
0
LINE
8
BLACK
6
CONTINUOUS
10
72.1
20
-70.67
11
70.83
21
-70.67
0
LINE
8
BLACK
6
CONTINUOUS
10
70.83
20
-70.67
11
70.83
21
-71.94
0
LINE
8
BLACK
6
CONTINUOUS
10
70.83
20
-71.94
11
70.8124
21
-71.9824
0
LINE
8
BLACK
6
CONTINUOUS
10
70.8124
20
-71.9824
11
70.77
21
-72
0
LINE
8
BLACK
6
CONTINUOUS
10
70.77
20
-72
11
70.7276
21
-71.9824
0
LINE
8
BLACK
6
CONTINUOUS
10
70.7276
20
-71.9824
11
70.71
21
-71.94
0
LINE
8
BLACK
6
CONTINUOUS
10
70.71
20
-71.94
11
70.71
21
-70.61
0
LINE
8
BLACK
6
CONTINUOUS
10
70.71
20
-70.61
11
70.7276
21
-70.5676
0
LINE
8
BLACK
6
CONTINUOUS
10
70.7276
20
-70.5676
11
70.77
21
-70.55
0
LINE
8
BLACK
6
CONTINUOUS
10
70.77
20
-70.55
11
72.1
21
-70.55
0
LINE
8
BLACK
6
CONTINUOUS
10
72.1
20
-70.55
11
72.1424
21
-70.5676
0
LINE
8
BLACK
6
CONTINUOUS
10
126.75
20
-36.74
11
126.792
21
-36.7576
0
LINE
8
BLACK
6
CONTINUOUS
10
126.792
20
-36.7576
11
126.81
21
-36.8
0
LINE
8
BLACK
6
CONTINUOUS
10
126.81
20
-36.8
11
126.81
21
-51.92
0
LINE
8
BLACK
6
CONTINUOUS
10
126.81
20
-51.92
11
126.792
21
-51.9624
0
LINE
8
BLACK
6
CONTINUOUS
10
126.792
20
-51.9624
11
126.75
21
-51.98
0
LINE
8
BLACK
6
CONTINUOUS
10
126.75
20
-51.98
11
120.78
21
-51.98
0
LINE
8
BLACK
6
CONTINUOUS
10
120.78
20
-51.98
11
120.738
21
-51.9624
0
LINE
8
BLACK
6
CONTINUOUS
10
120.738
20
-51.9624
11
120.72
21
-51.92
0
LINE
8
BLACK
6
CONTINUOUS
10
120.72
20
-51.92
11
120.72
21
-36.8
0
LINE
8
BLACK
6
CONTINUOUS
10
120.72
20
-36.8
11
120.738
21
-36.7576
0
LINE
8
BLACK
6
CONTINUOUS
10
120.738
20
-36.7576
11
120.78
21
-36.74
0
LINE
8
BLACK
6
CONTINUOUS
10
120.78
20
-36.74
11
126.75
21
-36.74
0
LINE
8
BLACK
6
CONTINUOUS
10
120.84
20
-36.86
11
120.84
21
-51.86
0
LINE
8
BLACK
6
CONTINUOUS
10
120.84
20
-51.86
11
124.43
21
-51.86
0
LINE
8
BLACK
6
CONTINUOUS
10
124.43
20
-51.86
11
124.43
21
-51.22
0
LINE
8
BLACK
6
CONTINUOUS
10
124.43
20
-51.22
11
121.54
21
-51.22
0
LINE
8
BLACK
6
CONTINUOUS
10
121.54
20
-51.22
11
121.498
21
-51.2024
0
LINE
8
BLACK
6
CONTINUOUS
10
121.498
20
-51.2024
11
121.48
21
-51.16
0
LINE
8
BLACK
6
CONTINUOUS
10
121.48
20
-51.16
11
121.48
21
-44.36
0
LINE
8
BLACK
6
CONTINUOUS
10
121.48
20
-44.36
11
121.48
21
-37.56
0
LINE
8
BLACK
6
CONTINUOUS
10
121.48
20
-37.56
11
121.498
21
-37.5176
0
LINE
8
BLACK
6
CONTINUOUS
10
121.498
20
-37.5176
11
121.54
21
-37.5
0
LINE
8
BLACK
6
CONTINUOUS
10
121.54
20
-37.5
11
124.43
21
-37.5
0
LINE
8
BLACK
6
CONTINUOUS
10
124.43
20
-37.5
11
124.43
21
-36.86
0
LINE
8
BLACK
6
CONTINUOUS
10
124.43
20
-36.86
11
120.84
21
-36.86
0
LINE
8
BLACK
6
CONTINUOUS
10
124.55
20
-36.86
11
124.55
21
-37.56
0
LINE
8
BLACK
6
CONTINUOUS
10
124.55
20
-37.56
11
124.532
21
-37.6024
0
LINE
8
BLACK
6
CONTINUOUS
10
124.532
20
-37.6024
11
124.49
21
-37.62
0
LINE
8
BLACK
6
CONTINUOUS
10
124.49
20
-37.62
11
121.6
21
-37.62
0
LINE
8
BLACK
6
CONTINUOUS
10
121.6
20
-37.62
11
121.6
21
-44.36
0
LINE
8
BLACK
6
CONTINUOUS
10
121.6
20
-44.36
11
121.6
21
-51.1
0
LINE
8
BLACK
6
CONTINUOUS
10
121.6
20
-51.1
11
124.49
21
-51.1
0
LINE
8
BLACK
6
CONTINUOUS
10
124.49
20
-51.1
11
124.532
21
-51.1176
0
LINE
8
BLACK
6
CONTINUOUS
10
124.532
20
-51.1176
11
124.55
21
-51.16
0
LINE
8
BLACK
6
CONTINUOUS
10
124.55
20
-51.16
11
124.55
21
-51.86
0
LINE
8
BLACK
6
CONTINUOUS
10
124.55
20
-51.86
11
125.93
21
-51.86
0
LINE
8
BLACK
6
CONTINUOUS
10
125.93
20
-51.86
11
125.93
21
-50.11
0
LINE
8
BLACK
6
CONTINUOUS
10
125.93
20
-50.11
11
125.948
21
-50.0676
0
LINE
8
BLACK
6
CONTINUOUS
10
125.948
20
-50.0676
11
125.99
21
-50.05
0
LINE
8
BLACK
6
CONTINUOUS
10
125.99
20
-50.05
11
126.69
21
-50.05
0
LINE
8
BLACK
6
CONTINUOUS
10
126.69
20
-50.05
11
126.69
21
-48.67
0
LINE
8
BLACK
6
CONTINUOUS
10
126.69
20
-48.67
11
125.99
21
-48.67
0
LINE
8
BLACK
6
CONTINUOUS
10
125.99
20
-48.67
11
125.948
21
-48.6524
0
LINE
8
BLACK
6
CONTINUOUS
10
125.948
20
-48.6524
11
125.93
21
-48.61
0
LINE
8
BLACK
6
CONTINUOUS
10
125.93
20
-48.61
11
125.93
21
-40.11
0
LINE
8
BLACK
6
CONTINUOUS
10
125.93
20
-40.11
11
125.948
21
-40.0676
0
LINE
8
BLACK
6
CONTINUOUS
10
125.948
20
-40.0676
11
125.99
21
-40.05
0
LINE
8
BLACK
6
CONTINUOUS
10
125.99
20
-40.05
11
126.69
21
-40.05
0
LINE
8
BLACK
6
CONTINUOUS
10
126.69
20
-40.05
11
126.69
21
-38.67
0
LINE
8
BLACK
6
CONTINUOUS
10
126.69
20
-38.67
11
125.99
21
-38.67
0
LINE
8
BLACK
6
CONTINUOUS
10
125.99
20
-38.67
11
125.948
21
-38.6524
0
LINE
8
BLACK
6
CONTINUOUS
10
125.948
20
-38.6524
11
125.93
21
-38.61
0
LINE
8
BLACK
6
CONTINUOUS
10
125.93
20
-38.61
11
125.93
21
-36.86
0
LINE
8
BLACK
6
CONTINUOUS
10
125.93
20
-36.86
11
124.55
21
-36.86
0
LINE
8
BLACK
6
CONTINUOUS
10
126.05
20
-50.17
11
126.05
21
-51.85
0
LINE
8
BLACK
6
CONTINUOUS
10
126.05
20
-51.85
11
126.68
21
-51.85
0
LINE
8
BLACK
6
CONTINUOUS
10
126.68
20
-51.85
11
126.68
21
-50.17
0
LINE
8
BLACK
6
CONTINUOUS
10
126.68
20
-50.17
11
126.05
21
-50.17
0
LINE
8
BLACK
6
CONTINUOUS
10
126.05
20
-40.17
11
126.05
21
-48.55
0
LINE
8
BLACK
6
CONTINUOUS
10
126.05
20
-48.55
11
126.68
21
-48.55
0
LINE
8
BLACK
6
CONTINUOUS
10
126.68
20
-48.55
11
126.68
21
-40.17
0
LINE
8
BLACK
6
CONTINUOUS
10
126.68
20
-40.17
11
126.05
21
-40.17
0
LINE
8
BLACK
6
CONTINUOUS
10
126.05
20
-36.87
11
126.05
21
-38.55
0
LINE
8
BLACK
6
CONTINUOUS
10
126.05
20
-38.55
11
126.68
21
-38.55
0
LINE
8
BLACK
6
CONTINUOUS
10
126.68
20
-38.55
11
126.68
21
-36.87
0
LINE
8
BLACK
6
CONTINUOUS
10
126.68
20
-36.87
11
126.05
21
-36.87
0
LINE
8
BLACK
6
CONTINUOUS
10
128.031
20
-44.6222
11
128.033
21
-44.6222
0
LINE
8
BLACK
6
CONTINUOUS
10
128.033
20
-44.6222
11
128.176
21
-44.6698
0
LINE
8
BLACK
6
CONTINUOUS
10
128.176
20
-44.6698
11
128.199
21
-44.6822
0
LINE
8
BLACK
6
CONTINUOUS
10
128.199
20
-44.6822
11
128.201
21
-44.686
0
LINE
8
BLACK
6
CONTINUOUS
10
128.201
20
-44.686
11
128.205
21
-44.6879
0
LINE
8
BLACK
6
CONTINUOUS
10
128.205
20
-44.6879
11
128.3
21
-44.7832
0
LINE
8
BLACK
6
CONTINUOUS
10
128.3
20
-44.7832
11
128.315
21
-44.8045
0
LINE
8
BLACK
6
CONTINUOUS
10
128.315
20
-44.8045
11
128.316
21
-44.809
0
LINE
8
BLACK
6
CONTINUOUS
10
128.316
20
-44.809
11
128.318
21
-44.8125
0
LINE
8
BLACK
6
CONTINUOUS
10
128.318
20
-44.8125
11
128.366
21
-44.9553
0
LINE
8
BLACK
6
CONTINUOUS
10
128.366
20
-44.9553
11
128.369
21
-44.9775
0
LINE
8
BLACK
6
CONTINUOUS
10
128.369
20
-44.9775
11
128.37
21
-44.979
0
LINE
8
BLACK
6
CONTINUOUS
10
128.37
20
-44.979
11
128.37
21
-45.0743
0
LINE
8
BLACK
6
CONTINUOUS
10
128.37
20
-45.0743
11
128.365
21
-45.0999
0
LINE
8
BLACK
6
CONTINUOUS
10
128.365
20
-45.0999
11
128.332
21
-45.1392
0
LINE
8
BLACK
6
CONTINUOUS
10
128.332
20
-45.1392
11
128.282
21
-45.1481
0
LINE
8
BLACK
6
CONTINUOUS
10
128.282
20
-45.1481
11
128.237
21
-45.1225
0
LINE
8
BLACK
6
CONTINUOUS
10
128.237
20
-45.1225
11
128.22
21
-45.0743
0
LINE
8
BLACK
6
CONTINUOUS
10
128.22
20
-45.0743
11
128.22
21
-44.9912
0
LINE
8
BLACK
6
CONTINUOUS
10
128.22
20
-44.9912
11
128.182
21
-44.8767
0
LINE
8
BLACK
6
CONTINUOUS
10
128.182
20
-44.8767
11
128.111
21
-44.8065
0
LINE
8
BLACK
6
CONTINUOUS
10
128.111
20
-44.8065
11
127.997
21
-44.7683
0
LINE
8
BLACK
6
CONTINUOUS
10
127.997
20
-44.7683
11
127.295
21
-44.7683
0
LINE
8
BLACK
6
CONTINUOUS
10
127.295
20
-44.7683
11
127.269
21
-44.7638
0
LINE
8
BLACK
6
CONTINUOUS
10
127.269
20
-44.7638
11
127.23
21
-44.7308
0
LINE
8
BLACK
6
CONTINUOUS
10
127.23
20
-44.7308
11
127.221
21
-44.6803
0
LINE
8
BLACK
6
CONTINUOUS
10
127.221
20
-44.6803
11
127.247
21
-44.6359
0
LINE
8
BLACK
6
CONTINUOUS
10
127.247
20
-44.6359
11
127.295
21
-44.6183
0
LINE
8
BLACK
6
CONTINUOUS
10
127.295
20
-44.6183
11
128.009
21
-44.6183
0
LINE
8
BLACK
6
CONTINUOUS
10
128.009
20
-44.6183
11
128.031
21
-44.6222
0
LINE
8
BLACK
6
CONTINUOUS
10
128.13
20
-43.6229
11
128.133
21
-43.6257
0
LINE
8
BLACK
6
CONTINUOUS
10
128.133
20
-43.6257
11
128.138
21
-43.6263
0
LINE
8
BLACK
6
CONTINUOUS
10
128.138
20
-43.6263
11
128.233
21
-43.6739
0
LINE
8
BLACK
6
CONTINUOUS
10
128.233
20
-43.6739
11
128.251
21
-43.6872
0
LINE
8
BLACK
6
CONTINUOUS
10
128.251
20
-43.6872
11
128.253
21
-43.6879
0
LINE
8
BLACK
6
CONTINUOUS
10
128.253
20
-43.6879
11
128.3
21
-43.7355
0
LINE
8
BLACK
6
CONTINUOUS
10
128.3
20
-43.7355
11
128.313
21
-43.7539
0
LINE
8
BLACK
6
CONTINUOUS
10
128.313
20
-43.7539
11
128.314
21
-43.755
0
LINE
8
BLACK
6
CONTINUOUS
10
128.314
20
-43.755
11
128.362
21
-43.8503
0
LINE
8
BLACK
6
CONTINUOUS
10
128.362
20
-43.8503
11
128.369
21
-43.8752
0
LINE
8
BLACK
6
CONTINUOUS
10
128.369
20
-43.8752
11
128.368
21
-43.8796
0
LINE
8
BLACK
6
CONTINUOUS
10
128.368
20
-43.8796
11
128.37
21
-43.8838
0
LINE
8
BLACK
6
CONTINUOUS
10
128.37
20
-43.8838
11
128.37
21
-44.0743
0
LINE
8
BLACK
6
CONTINUOUS
10
128.37
20
-44.0743
11
128.365
21
-44.0999
0
LINE
8
BLACK
6
CONTINUOUS
10
128.365
20
-44.0999
11
128.362
21
-44.1034
0
LINE
8
BLACK
6
CONTINUOUS
10
128.362
20
-44.1034
11
128.362
21
-44.1078
0
LINE
8
BLACK
6
CONTINUOUS
10
128.362
20
-44.1078
11
128.314
21
-44.2031
0
LINE
8
BLACK
6
CONTINUOUS
10
128.314
20
-44.2031
11
128.301
21
-44.2211
0
LINE
8
BLACK
6
CONTINUOUS
10
128.301
20
-44.2211
11
128.3
21
-44.2226
0
LINE
8
BLACK
6
CONTINUOUS
10
128.3
20
-44.2226
11
128.253
21
-44.2702
0
LINE
8
BLACK
6
CONTINUOUS
10
128.253
20
-44.2702
11
128.234
21
-44.283
0
LINE
8
BLACK
6
CONTINUOUS
10
128.234
20
-44.283
11
128.233
21
-44.2842
0
LINE
8
BLACK
6
CONTINUOUS
10
128.233
20
-44.2842
11
128.138
21
-44.3318
0
LINE
8
BLACK
6
CONTINUOUS
10
128.138
20
-44.3318
11
128.113
21
-44.3393
0
LINE
8
BLACK
6
CONTINUOUS
10
128.113
20
-44.3393
11
128.109
21
-44.3382
0
LINE
8
BLACK
6
CONTINUOUS
10
128.109
20
-44.3382
11
128.104
21
-44.3398
0
LINE
8
BLACK
6
CONTINUOUS
10
128.104
20
-44.3398
11
127.723
21
-44.3398
0
LINE
8
BLACK
6
CONTINUOUS
10
127.723
20
-44.3398
11
127.709
21
-44.3372
0
LINE
8
BLACK
6
CONTINUOUS
10
127.709
20
-44.3372
11
127.705
21
-44.3375
0
LINE
8
BLACK
6
CONTINUOUS
10
127.705
20
-44.3375
11
127.515
21
-44.2899
0
LINE
8
BLACK
6
CONTINUOUS
10
127.515
20
-44.2899
11
127.492
21
-44.2796
0
LINE
8
BLACK
6
CONTINUOUS
10
127.492
20
-44.2796
11
127.491
21
-44.2795
0
LINE
8
BLACK
6
CONTINUOUS
10
127.491
20
-44.2795
11
127.348
21
-44.1843
0
LINE
8
BLACK
6
CONTINUOUS
10
127.348
20
-44.1843
11
127.34
21
-44.1764
0
LINE
8
BLACK
6
CONTINUOUS
10
127.34
20
-44.1764
11
127.337
21
-44.1749
0
LINE
8
BLACK
6
CONTINUOUS
10
127.337
20
-44.1749
11
127.289
21
-44.1273
0
LINE
8
BLACK
6
CONTINUOUS
10
127.289
20
-44.1273
11
127.277
21
-44.109
0
LINE
8
BLACK
6
CONTINUOUS
10
127.277
20
-44.109
11
127.275
21
-44.1078
0
LINE
8
BLACK
6
CONTINUOUS
10
127.275
20
-44.1078
11
127.228
21
-44.0126
0
LINE
8
BLACK
6
CONTINUOUS
10
127.228
20
-44.0126
11
127.22
21
-43.9876
0
LINE
8
BLACK
6
CONTINUOUS
10
127.22
20
-43.9876
11
127.221
21
-43.9833
0
LINE
8
BLACK
6
CONTINUOUS
10
127.221
20
-43.9833
11
127.22
21
-43.979
0
LINE
8
BLACK
6
CONTINUOUS
10
127.22
20
-43.979
11
127.22
21
-43.7886
0
LINE
8
BLACK
6
CONTINUOUS
10
127.22
20
-43.7886
11
127.224
21
-43.7629
0
LINE
8
BLACK
6
CONTINUOUS
10
127.224
20
-43.7629
11
127.257
21
-43.7236
0
LINE
8
BLACK
6
CONTINUOUS
10
127.257
20
-43.7236
11
127.308
21
-43.7147
0
LINE
8
BLACK
6
CONTINUOUS
10
127.308
20
-43.7147
11
127.352
21
-43.7404
0
LINE
8
BLACK
6
CONTINUOUS
10
127.352
20
-43.7404
11
127.37
21
-43.7886
0
LINE
8
BLACK
6
CONTINUOUS
10
127.37
20
-43.7886
11
127.37
21
-43.9613
0
LINE
8
BLACK
6
CONTINUOUS
10
127.37
20
-43.9613
11
127.404
21
-44.0299
0
LINE
8
BLACK
6
CONTINUOUS
10
127.404
20
-44.0299
11
127.438
21
-44.0636
0
LINE
8
BLACK
6
CONTINUOUS
10
127.438
20
-44.0636
11
127.564
21
-44.1475
0
LINE
8
BLACK
6
CONTINUOUS
10
127.564
20
-44.1475
11
127.638
21
-44.1661
0
LINE
8
BLACK
6
CONTINUOUS
10
127.638
20
-44.1661
11
127.609
21
-44.1078
0
LINE
8
BLACK
6
CONTINUOUS
10
127.609
20
-44.1078
11
127.601
21
-44.0829
0
LINE
8
BLACK
6
CONTINUOUS
10
127.601
20
-44.0829
11
127.602
21
-44.0785
0
LINE
8
BLACK
6
CONTINUOUS
10
127.602
20
-44.0785
11
127.601
21
-44.0743
0
LINE
8
BLACK
6
CONTINUOUS
10
127.601
20
-44.0743
11
127.601
21
-43.8838
0
LINE
8
BLACK
6
CONTINUOUS
10
127.601
20
-43.8838
11
127.605
21
-43.8582
0
LINE
8
BLACK
6
CONTINUOUS
10
127.605
20
-43.8582
11
127.608
21
-43.8547
0
LINE
8
BLACK
6
CONTINUOUS
10
127.608
20
-43.8547
11
127.609
21
-43.8503
0
LINE
8
BLACK
6
CONTINUOUS
10
127.609
20
-43.8503
11
127.656
21
-43.755
0
LINE
8
BLACK
6
CONTINUOUS
10
127.656
20
-43.755
11
127.67
21
-43.737
0
LINE
8
BLACK
6
CONTINUOUS
10
127.67
20
-43.737
11
127.67
21
-43.7355
0
LINE
8
BLACK
6
CONTINUOUS
10
127.67
20
-43.7355
11
127.718
21
-43.6879
0
LINE
8
BLACK
6
CONTINUOUS
10
127.718
20
-43.6879
11
127.736
21
-43.6751
0
LINE
8
BLACK
6
CONTINUOUS
10
127.736
20
-43.6751
11
127.737
21
-43.6739
0
LINE
8
BLACK
6
CONTINUOUS
10
127.737
20
-43.6739
11
127.833
21
-43.6263
0
LINE
8
BLACK
6
CONTINUOUS
10
127.833
20
-43.6263
11
127.858
21
-43.6188
0
LINE
8
BLACK
6
CONTINUOUS
10
127.858
20
-43.6188
11
127.862
21
-43.6199
0
LINE
8
BLACK
6
CONTINUOUS
10
127.862
20
-43.6199
11
127.866
21
-43.6183
0
LINE
8
BLACK
6
CONTINUOUS
10
127.866
20
-43.6183
11
128.104
21
-43.6183
0
LINE
8
BLACK
6
CONTINUOUS
10
128.104
20
-43.6183
11
128.13
21
-43.6229
0
LINE
8
BLACK
6
CONTINUOUS
10
127.815
20
-43.8026
11
127.785
21
-43.833
0
LINE
8
BLACK
6
CONTINUOUS
10
127.785
20
-43.833
11
127.751
21
-43.9015
0
LINE
8
BLACK
6
CONTINUOUS
10
127.751
20
-43.9015
11
127.751
21
-44.0566
0
LINE
8
BLACK
6
CONTINUOUS
10
127.751
20
-44.0566
11
127.785
21
-44.1251
0
LINE
8
BLACK
6
CONTINUOUS
10
127.785
20
-44.1251
11
127.815
21
-44.1555
0
LINE
8
BLACK
6
CONTINUOUS
10
127.815
20
-44.1555
11
127.884
21
-44.1898
0
LINE
8
BLACK
6
CONTINUOUS
10
127.884
20
-44.1898
11
128.087
21
-44.1898
0
LINE
8
BLACK
6
CONTINUOUS
10
128.087
20
-44.1898
11
128.155
21
-44.1555
0
LINE
8
BLACK
6
CONTINUOUS
10
128.155
20
-44.1555
11
128.186
21
-44.1251
0
LINE
8
BLACK
6
CONTINUOUS
10
128.186
20
-44.1251
11
128.22
21
-44.0566
0
LINE
8
BLACK
6
CONTINUOUS
10
128.22
20
-44.0566
11
128.22
21
-43.9015
0
LINE
8
BLACK
6
CONTINUOUS
10
128.22
20
-43.9015
11
128.186
21
-43.833
0
LINE
8
BLACK
6
CONTINUOUS
10
128.186
20
-43.833
11
128.155
21
-43.8026
0
LINE
8
BLACK
6
CONTINUOUS
10
128.155
20
-43.8026
11
128.087
21
-43.7683
0
LINE
8
BLACK
6
CONTINUOUS
10
128.087
20
-43.7683
11
127.884
21
-43.7683
0
LINE
8
BLACK
6
CONTINUOUS
10
127.884
20
-43.7683
11
127.815
21
-43.8026
0
LINE
8
BLACK
6
CONTINUOUS
10
91.35
20
-36.435
11
91.3924
21
-36.4526
0
LINE
8
BLACK
6
CONTINUOUS
10
91.3924
20
-36.4526
11
91.41
21
-36.495
0
LINE
8
BLACK
6
CONTINUOUS
10
91.41
20
-36.495
11
91.41
21
-42.465
0
LINE
8
BLACK
6
CONTINUOUS
10
91.41
20
-42.465
11
91.3924
21
-42.5074
0
LINE
8
BLACK
6
CONTINUOUS
10
91.3924
20
-42.5074
11
91.35
21
-42.525
0
LINE
8
BLACK
6
CONTINUOUS
10
91.35
20
-42.525
11
78.73
21
-42.525
0
LINE
8
BLACK
6
CONTINUOUS
10
78.73
20
-42.525
11
78.6876
21
-42.5074
0
LINE
8
BLACK
6
CONTINUOUS
10
78.6876
20
-42.5074
11
78.67
21
-42.465
0
LINE
8
BLACK
6
CONTINUOUS
10
78.67
20
-42.465
11
78.67
21
-36.495
0
LINE
8
BLACK
6
CONTINUOUS
10
78.67
20
-36.495
11
78.6876
21
-36.4526
0
LINE
8
BLACK
6
CONTINUOUS
10
78.6876
20
-36.4526
11
78.73
21
-36.435
0
LINE
8
BLACK
6
CONTINUOUS
10
78.73
20
-36.435
11
91.35
21
-36.435
0
LINE
8
BLACK
6
CONTINUOUS
10
78.79
20
-38.815
11
78.79
21
-42.405
0
LINE
8
BLACK
6
CONTINUOUS
10
78.79
20
-42.405
11
91.29
21
-42.405
0
LINE
8
BLACK
6
CONTINUOUS
10
91.29
20
-42.405
11
91.29
21
-38.815
0
LINE
8
BLACK
6
CONTINUOUS
10
91.29
20
-38.815
11
90.65
21
-38.815
0
LINE
8
BLACK
6
CONTINUOUS
10
90.65
20
-38.815
11
90.65
21
-41.705
0
LINE
8
BLACK
6
CONTINUOUS
10
90.65
20
-41.705
11
90.6324
21
-41.7474
0
LINE
8
BLACK
6
CONTINUOUS
10
90.6324
20
-41.7474
11
90.59
21
-41.765
0
LINE
8
BLACK
6
CONTINUOUS
10
90.59
20
-41.765
11
85.04
21
-41.765
0
LINE
8
BLACK
6
CONTINUOUS
10
85.04
20
-41.765
11
79.49
21
-41.765
0
LINE
8
BLACK
6
CONTINUOUS
10
79.49
20
-41.765
11
79.4476
21
-41.7474
0
LINE
8
BLACK
6
CONTINUOUS
10
79.4476
20
-41.7474
11
79.43
21
-41.705
0
LINE
8
BLACK
6
CONTINUOUS
10
79.43
20
-41.705
11
79.43
21
-38.815
0
LINE
8
BLACK
6
CONTINUOUS
10
79.43
20
-38.815
11
78.79
21
-38.815
0
LINE
8
BLACK
6
CONTINUOUS
10
88.1
20
-36.555
11
88.1
21
-37.255
0
LINE
8
BLACK
6
CONTINUOUS
10
88.1
20
-37.255
11
88.0824
21
-37.2974
0
LINE
8
BLACK
6
CONTINUOUS
10
88.0824
20
-37.2974
11
88.04
21
-37.315
0
LINE
8
BLACK
6
CONTINUOUS
10
88.04
20
-37.315
11
82.04
21
-37.315
0
LINE
8
BLACK
6
CONTINUOUS
10
82.04
20
-37.315
11
81.9976
21
-37.2974
0
LINE
8
BLACK
6
CONTINUOUS
10
81.9976
20
-37.2974
11
81.98
21
-37.255
0
LINE
8
BLACK
6
CONTINUOUS
10
81.98
20
-37.255
11
81.98
21
-36.555
0
LINE
8
BLACK
6
CONTINUOUS
10
81.98
20
-36.555
11
80.6
21
-36.555
0
LINE
8
BLACK
6
CONTINUOUS
10
80.6
20
-36.555
11
80.6
21
-37.255
0
LINE
8
BLACK
6
CONTINUOUS
10
80.6
20
-37.255
11
80.5824
21
-37.2974
0
LINE
8
BLACK
6
CONTINUOUS
10
80.5824
20
-37.2974
11
80.54
21
-37.315
0
LINE
8
BLACK
6
CONTINUOUS
10
80.54
20
-37.315
11
78.79
21
-37.315
0
LINE
8
BLACK
6
CONTINUOUS
10
78.79
20
-37.315
11
78.79
21
-38.695
0
LINE
8
BLACK
6
CONTINUOUS
10
78.79
20
-38.695
11
79.49
21
-38.695
0
LINE
8
BLACK
6
CONTINUOUS
10
79.49
20
-38.695
11
79.5324
21
-38.7126
0
LINE
8
BLACK
6
CONTINUOUS
10
79.5324
20
-38.7126
11
79.55
21
-38.755
0
LINE
8
BLACK
6
CONTINUOUS
10
79.55
20
-38.755
11
79.55
21
-41.645
0
LINE
8
BLACK
6
CONTINUOUS
10
79.55
20
-41.645
11
85.04
21
-41.645
0
LINE
8
BLACK
6
CONTINUOUS
10
85.04
20
-41.645
11
90.53
21
-41.645
0
LINE
8
BLACK
6
CONTINUOUS
10
90.53
20
-41.645
11
90.53
21
-38.755
0
LINE
8
BLACK
6
CONTINUOUS
10
90.53
20
-38.755
11
90.5476
21
-38.7126
0
LINE
8
BLACK
6
CONTINUOUS
10
90.5476
20
-38.7126
11
90.59
21
-38.695
0
LINE
8
BLACK
6
CONTINUOUS
10
90.59
20
-38.695
11
91.29
21
-38.695
0
LINE
8
BLACK
6
CONTINUOUS
10
91.29
20
-38.695
11
91.29
21
-37.315
0
LINE
8
BLACK
6
CONTINUOUS
10
91.29
20
-37.315
11
89.54
21
-37.315
0
LINE
8
BLACK
6
CONTINUOUS
10
89.54
20
-37.315
11
89.4976
21
-37.2974
0
LINE
8
BLACK
6
CONTINUOUS
10
89.4976
20
-37.2974
11
89.48
21
-37.255
0
LINE
8
BLACK
6
CONTINUOUS
10
89.48
20
-37.255
11
89.48
21
-36.555
0
LINE
8
BLACK
6
CONTINUOUS
10
89.48
20
-36.555
11
88.1
21
-36.555
0
LINE
8
BLACK
6
CONTINUOUS
10
89.6
20
-36.565
11
89.6
21
-37.195
0
LINE
8
BLACK
6
CONTINUOUS
10
89.6
20
-37.195
11
91.28
21
-37.195
0
LINE
8
BLACK
6
CONTINUOUS
10
91.28
20
-37.195
11
91.28
21
-36.565
0
LINE
8
BLACK
6
CONTINUOUS
10
91.28
20
-36.565
11
89.6
21
-36.565
0
LINE
8
BLACK
6
CONTINUOUS
10
82.1
20
-36.565
11
82.1
21
-37.195
0
LINE
8
BLACK
6
CONTINUOUS
10
82.1
20
-37.195
11
87.98
21
-37.195
0
LINE
8
BLACK
6
CONTINUOUS
10
87.98
20
-37.195
11
87.98
21
-36.565
0
LINE
8
BLACK
6
CONTINUOUS
10
87.98
20
-36.565
11
82.1
21
-36.565
0
LINE
8
BLACK
6
CONTINUOUS
10
78.8
20
-36.565
11
78.8
21
-37.195
0
LINE
8
BLACK
6
CONTINUOUS
10
78.8
20
-37.195
11
80.48
21
-37.195
0
LINE
8
BLACK
6
CONTINUOUS
10
80.48
20
-37.195
11
80.48
21
-36.565
0
LINE
8
BLACK
6
CONTINUOUS
10
80.48
20
-36.565
11
78.8
21
-36.565
0
LINE
8
BLACK
6
CONTINUOUS
10
99.85
20
-36.425
11
99.8924
21
-36.4426
0
LINE
8
BLACK
6
CONTINUOUS
10
99.8924
20
-36.4426
11
99.91
21
-36.485
0
LINE
8
BLACK
6
CONTINUOUS
10
99.91
20
-36.485
11
99.91
21
-42.455
0
LINE
8
BLACK
6
CONTINUOUS
10
99.91
20
-42.455
11
99.8924
21
-42.4974
0
LINE
8
BLACK
6
CONTINUOUS
10
99.8924
20
-42.4974
11
99.85
21
-42.515
0
LINE
8
BLACK
6
CONTINUOUS
10
99.85
20
-42.515
11
92.23
21
-42.515
0
LINE
8
BLACK
6
CONTINUOUS
10
92.23
20
-42.515
11
92.1876
21
-42.4974
0
LINE
8
BLACK
6
CONTINUOUS
10
92.1876
20
-42.4974
11
92.17
21
-42.455
0
LINE
8
BLACK
6
CONTINUOUS
10
92.17
20
-42.455
11
92.17
21
-36.485
0
LINE
8
BLACK
6
CONTINUOUS
10
92.17
20
-36.485
11
92.1876
21
-36.4426
0
LINE
8
BLACK
6
CONTINUOUS
10
92.1876
20
-36.4426
11
92.23
21
-36.425
0
LINE
8
BLACK
6
CONTINUOUS
10
92.23
20
-36.425
11
99.85
21
-36.425
0
LINE
8
BLACK
6
CONTINUOUS
10
92.29
20
-38.805
11
92.29
21
-42.395
0
LINE
8
BLACK
6
CONTINUOUS
10
92.29
20
-42.395
11
99.79
21
-42.395
0
LINE
8
BLACK
6
CONTINUOUS
10
99.79
20
-42.395
11
99.79
21
-38.805
0
LINE
8
BLACK
6
CONTINUOUS
10
99.79
20
-38.805
11
99.15
21
-38.805
0
LINE
8
BLACK
6
CONTINUOUS
10
99.15
20
-38.805
11
99.15
21
-41.695
0
LINE
8
BLACK
6
CONTINUOUS
10
99.15
20
-41.695
11
99.1324
21
-41.7374
0
LINE
8
BLACK
6
CONTINUOUS
10
99.1324
20
-41.7374
11
99.09
21
-41.755
0
LINE
8
BLACK
6
CONTINUOUS
10
99.09
20
-41.755
11
96.04
21
-41.755
0
LINE
8
BLACK
6
CONTINUOUS
10
96.04
20
-41.755
11
92.99
21
-41.755
0
LINE
8
BLACK
6
CONTINUOUS
10
92.99
20
-41.755
11
92.9476
21
-41.7374
0
LINE
8
BLACK
6
CONTINUOUS
10
92.9476
20
-41.7374
11
92.93
21
-41.695
0
LINE
8
BLACK
6
CONTINUOUS
10
92.93
20
-41.695
11
92.93
21
-38.805
0
LINE
8
BLACK
6
CONTINUOUS
10
92.93
20
-38.805
11
92.29
21
-38.805
0
LINE
8
BLACK
6
CONTINUOUS
10
96.6
20
-36.545
11
96.6
21
-37.245
0
LINE
8
BLACK
6
CONTINUOUS
10
96.6
20
-37.245
11
96.5824
21
-37.2874
0
LINE
8
BLACK
6
CONTINUOUS
10
96.5824
20
-37.2874
11
96.54
21
-37.305
0
LINE
8
BLACK
6
CONTINUOUS
10
96.54
20
-37.305
11
95.54
21
-37.305
0
LINE
8
BLACK
6
CONTINUOUS
10
95.54
20
-37.305
11
95.4976
21
-37.2874
0
LINE
8
BLACK
6
CONTINUOUS
10
95.4976
20
-37.2874
11
95.48
21
-37.245
0
LINE
8
BLACK
6
CONTINUOUS
10
95.48
20
-37.245
11
95.48
21
-36.545
0
LINE
8
BLACK
6
CONTINUOUS
10
95.48
20
-36.545
11
94.1
21
-36.545
0
LINE
8
BLACK
6
CONTINUOUS
10
94.1
20
-36.545
11
94.1
21
-37.245
0
LINE
8
BLACK
6
CONTINUOUS
10
94.1
20
-37.245
11
94.0824
21
-37.2874
0
LINE
8
BLACK
6
CONTINUOUS
10
94.0824
20
-37.2874
11
94.04
21
-37.305
0
LINE
8
BLACK
6
CONTINUOUS
10
94.04
20
-37.305
11
92.29
21
-37.305
0
LINE
8
BLACK
6
CONTINUOUS
10
92.29
20
-37.305
11
92.29
21
-38.685
0
LINE
8
BLACK
6
CONTINUOUS
10
92.29
20
-38.685
11
92.99
21
-38.685
0
LINE
8
BLACK
6
CONTINUOUS
10
92.99
20
-38.685
11
93.0324
21
-38.7026
0
LINE
8
BLACK
6
CONTINUOUS
10
93.0324
20
-38.7026
11
93.05
21
-38.745
0
LINE
8
BLACK
6
CONTINUOUS
10
93.05
20
-38.745
11
93.05
21
-41.635
0
LINE
8
BLACK
6
CONTINUOUS
10
93.05
20
-41.635
11
96.04
21
-41.635
0
LINE
8
BLACK
6
CONTINUOUS
10
96.04
20
-41.635
11
99.03
21
-41.635
0
LINE
8
BLACK
6
CONTINUOUS
10
99.03
20
-41.635
11
99.03
21
-38.745
0
LINE
8
BLACK
6
CONTINUOUS
10
99.03
20
-38.745
11
99.0476
21
-38.7026
0
LINE
8
BLACK
6
CONTINUOUS
10
99.0476
20
-38.7026
11
99.09
21
-38.685
0
LINE
8
BLACK
6
CONTINUOUS
10
99.09
20
-38.685
11
99.79
21
-38.685
0
LINE
8
BLACK
6
CONTINUOUS
10
99.79
20
-38.685
11
99.79
21
-37.305
0
LINE
8
BLACK
6
CONTINUOUS
10
99.79
20
-37.305
11
98.04
21
-37.305
0
LINE
8
BLACK
6
CONTINUOUS
10
98.04
20
-37.305
11
97.9976
21
-37.2874
0
LINE
8
BLACK
6
CONTINUOUS
10
97.9976
20
-37.2874
11
97.98
21
-37.245
0
LINE
8
BLACK
6
CONTINUOUS
10
97.98
20
-37.245
11
97.98
21
-36.545
0
LINE
8
BLACK
6
CONTINUOUS
10
97.98
20
-36.545
11
96.6
21
-36.545
0
LINE
8
BLACK
6
CONTINUOUS
10
98.1
20
-36.555
11
98.1
21
-37.185
0
LINE
8
BLACK
6
CONTINUOUS
10
98.1
20
-37.185
11
99.78
21
-37.185
0
LINE
8
BLACK
6
CONTINUOUS
10
99.78
20
-37.185
11
99.78
21
-36.555
0
LINE
8
BLACK
6
CONTINUOUS
10
99.78
20
-36.555
11
98.1
21
-36.555
0
LINE
8
BLACK
6
CONTINUOUS
10
95.6
20
-36.555
11
95.6
21
-37.185
0
LINE
8
BLACK
6
CONTINUOUS
10
95.6
20
-37.185
11
96.48
21
-37.185
0
LINE
8
BLACK
6
CONTINUOUS
10
96.48
20
-37.185
11
96.48
21
-36.555
0
LINE
8
BLACK
6
CONTINUOUS
10
96.48
20
-36.555
11
95.6
21
-36.555
0
LINE
8
BLACK
6
CONTINUOUS
10
92.3
20
-36.555
11
92.3
21
-37.185
0
LINE
8
BLACK
6
CONTINUOUS
10
92.3
20
-37.185
11
93.98
21
-37.185
0
LINE
8
BLACK
6
CONTINUOUS
10
93.98
20
-37.185
11
93.98
21
-36.555
0
LINE
8
BLACK
6
CONTINUOUS
10
93.98
20
-36.555
11
92.3
21
-36.555
0
LINE
8
BLACK
6
CONTINUOUS
10
127.04
20
-36.45
11
127.082
21
-36.4676
0
LINE
8
BLACK
6
CONTINUOUS
10
127.082
20
-36.4676
11
127.1
21
-36.51
0
LINE
8
BLACK
6
CONTINUOUS
10
127.1
20
-36.51
11
127.1
21
-37.76
0
LINE
8
BLACK
6
CONTINUOUS
10
127.1
20
-37.76
11
127.082
21
-37.8024
0
LINE
8
BLACK
6
CONTINUOUS
10
127.082
20
-37.8024
11
127.04
21
-37.82
0
LINE
8
BLACK
6
CONTINUOUS
10
127.04
20
-37.82
11
126.998
21
-37.8024
0
LINE
8
BLACK
6
CONTINUOUS
10
126.998
20
-37.8024
11
126.98
21
-37.76
0
LINE
8
BLACK
6
CONTINUOUS
10
126.98
20
-37.76
11
126.98
21
-36.57
0
LINE
8
BLACK
6
CONTINUOUS
10
126.98
20
-36.57
11
125.79
21
-36.57
0
LINE
8
BLACK
6
CONTINUOUS
10
125.79
20
-36.57
11
125.748
21
-36.5524
0
LINE
8
BLACK
6
CONTINUOUS
10
125.748
20
-36.5524
11
125.73
21
-36.51
0
LINE
8
BLACK
6
CONTINUOUS
10
125.73
20
-36.51
11
125.748
21
-36.4676
0
LINE
8
BLACK
6
CONTINUOUS
10
125.748
20
-36.4676
11
125.79
21
-36.45
0
LINE
8
BLACK
6
CONTINUOUS
10
125.79
20
-36.45
11
127.04
21
-36.45
0
LINE
8
BLACK
6
CONTINUOUS
10
79.7324
20
-36.1626
11
79.75
21
-36.205
0
LINE
8
BLACK
6
CONTINUOUS
10
79.75
20
-36.205
11
79.7324
21
-36.2474
0
LINE
8
BLACK
6
CONTINUOUS
10
79.7324
20
-36.2474
11
79.69
21
-36.265
0
LINE
8
BLACK
6
CONTINUOUS
10
79.69
20
-36.265
11
78.5
21
-36.265
0
LINE
8
BLACK
6
CONTINUOUS
10
78.5
20
-36.265
11
78.5
21
-37.455
0
LINE
8
BLACK
6
CONTINUOUS
10
78.5
20
-37.455
11
78.4824
21
-37.4974
0
LINE
8
BLACK
6
CONTINUOUS
10
78.4824
20
-37.4974
11
78.44
21
-37.515
0
LINE
8
BLACK
6
CONTINUOUS
10
78.44
20
-37.515
11
78.3976
21
-37.4974
0
LINE
8
BLACK
6
CONTINUOUS
10
78.3976
20
-37.4974
11
78.38
21
-37.455
0
LINE
8
BLACK
6
CONTINUOUS
10
78.38
20
-37.455
11
78.38
21
-36.205
0
LINE
8
BLACK
6
CONTINUOUS
10
78.38
20
-36.205
11
78.3976
21
-36.1626
0
LINE
8
BLACK
6
CONTINUOUS
10
78.3976
20
-36.1626
11
78.44
21
-36.145
0
LINE
8
BLACK
6
CONTINUOUS
10
78.44
20
-36.145
11
79.69
21
-36.145
0
LINE
8
BLACK
6
CONTINUOUS
10
79.69
20
-36.145
11
79.7324
21
-36.1626
0
LINE
8
BLACK
6
CONTINUOUS
10
93.2324
20
-36.1526
11
93.25
21
-36.195
0
LINE
8
BLACK
6
CONTINUOUS
10
93.25
20
-36.195
11
93.2324
21
-36.2374
0
LINE
8
BLACK
6
CONTINUOUS
10
93.2324
20
-36.2374
11
93.19
21
-36.255
0
LINE
8
BLACK
6
CONTINUOUS
10
93.19
20
-36.255
11
92
21
-36.255
0
LINE
8
BLACK
6
CONTINUOUS
10
92
20
-36.255
11
92
21
-37.445
0
LINE
8
BLACK
6
CONTINUOUS
10
92
20
-37.445
11
91.9824
21
-37.4874
0
LINE
8
BLACK
6
CONTINUOUS
10
91.9824
20
-37.4874
11
91.94
21
-37.505
0
LINE
8
BLACK
6
CONTINUOUS
10
91.94
20
-37.505
11
91.8976
21
-37.4874
0
LINE
8
BLACK
6
CONTINUOUS
10
91.8976
20
-37.4874
11
91.88
21
-37.445
0
LINE
8
BLACK
6
CONTINUOUS
10
91.88
20
-37.445
11
91.88
21
-36.195
0
LINE
8
BLACK
6
CONTINUOUS
10
91.88
20
-36.195
11
91.8976
21
-36.1526
0
LINE
8
BLACK
6
CONTINUOUS
10
91.8976
20
-36.1526
11
91.94
21
-36.135
0
LINE
8
BLACK
6
CONTINUOUS
10
91.94
20
-36.135
11
93.19
21
-36.135
0
LINE
8
BLACK
6
CONTINUOUS
10
93.19
20
-36.135
11
93.2324
21
-36.1526
0
LINE
8
BLACK
6
CONTINUOUS
10
84.7641
20
-34.8116
11
84.7817
21
-34.8598
0
LINE
8
BLACK
6
CONTINUOUS
10
84.7817
20
-34.8598
11
84.7817
21
-35.5741
0
LINE
8
BLACK
6
CONTINUOUS
10
84.7817
20
-35.5741
11
84.7778
21
-35.5962
0
LINE
8
BLACK
6
CONTINUOUS
10
84.7778
20
-35.5962
11
84.7778
21
-35.5978
0
LINE
8
BLACK
6
CONTINUOUS
10
84.7778
20
-35.5978
11
84.7302
21
-35.7407
0
LINE
8
BLACK
6
CONTINUOUS
10
84.7302
20
-35.7407
11
84.7178
21
-35.7636
0
LINE
8
BLACK
6
CONTINUOUS
10
84.7178
20
-35.7636
11
84.714
21
-35.7659
0
LINE
8
BLACK
6
CONTINUOUS
10
84.714
20
-35.7659
11
84.7121
21
-35.77
0
LINE
8
BLACK
6
CONTINUOUS
10
84.7121
20
-35.77
11
84.6168
21
-35.8652
0
LINE
8
BLACK
6
CONTINUOUS
10
84.6168
20
-35.8652
11
84.5955
21
-35.8802
0
LINE
8
BLACK
6
CONTINUOUS
10
84.5955
20
-35.8802
11
84.591
21
-35.8806
0
LINE
8
BLACK
6
CONTINUOUS
10
84.591
20
-35.8806
11
84.5875
21
-35.8834
0
LINE
8
BLACK
6
CONTINUOUS
10
84.5875
20
-35.8834
11
84.4447
21
-35.931
0
LINE
8
BLACK
6
CONTINUOUS
10
84.4447
20
-35.931
11
84.4225
21
-35.9343
0
LINE
8
BLACK
6
CONTINUOUS
10
84.4225
20
-35.9343
11
84.421
21
-35.9348
0
LINE
8
BLACK
6
CONTINUOUS
10
84.421
20
-35.9348
11
84.3257
21
-35.9348
0
LINE
8
BLACK
6
CONTINUOUS
10
84.3257
20
-35.9348
11
84.3001
21
-35.9303
0
LINE
8
BLACK
6
CONTINUOUS
10
84.3001
20
-35.9303
11
84.2608
21
-35.8973
0
LINE
8
BLACK
6
CONTINUOUS
10
84.2608
20
-35.8973
11
84.2519
21
-35.8468
0
LINE
8
BLACK
6
CONTINUOUS
10
84.2519
20
-35.8468
11
84.2775
21
-35.8024
0
LINE
8
BLACK
6
CONTINUOUS
10
84.2775
20
-35.8024
11
84.3257
21
-35.7848
0
LINE
8
BLACK
6
CONTINUOUS
10
84.3257
20
-35.7848
11
84.4088
21
-35.7848
0
LINE
8
BLACK
6
CONTINUOUS
10
84.4088
20
-35.7848
11
84.5233
21
-35.7466
0
LINE
8
BLACK
6
CONTINUOUS
10
84.5233
20
-35.7466
11
84.5935
21
-35.6764
0
LINE
8
BLACK
6
CONTINUOUS
10
84.5935
20
-35.6764
11
84.6317
21
-35.5619
0
LINE
8
BLACK
6
CONTINUOUS
10
84.6317
20
-35.5619
11
84.6317
21
-34.8598
0
LINE
8
BLACK
6
CONTINUOUS
10
84.6317
20
-34.8598
11
84.6362
21
-34.8342
0
LINE
8
BLACK
6
CONTINUOUS
10
84.6362
20
-34.8342
11
84.6692
21
-34.7949
0
LINE
8
BLACK
6
CONTINUOUS
10
84.6692
20
-34.7949
11
84.7197
21
-34.786
0
LINE
8
BLACK
6
CONTINUOUS
10
84.7197
20
-34.786
11
84.7641
21
-34.8116
0
LINE
8
BLACK
6
CONTINUOUS
10
85.409
20
-34.7462
11
85.4431
21
-34.7846
0
LINE
8
BLACK
6
CONTINUOUS
10
85.4431
20
-34.7846
11
85.4445
21
-34.8359
0
LINE
8
BLACK
6
CONTINUOUS
10
85.4445
20
-34.8359
11
85.2393
21
-35.4515
0
LINE
8
BLACK
6
CONTINUOUS
10
85.2393
20
-35.4515
11
85.5364
21
-35.4515
0
LINE
8
BLACK
6
CONTINUOUS
10
85.5364
20
-35.4515
11
85.5364
21
-35.1932
0
LINE
8
BLACK
6
CONTINUOUS
10
85.5364
20
-35.1932
11
85.541
21
-35.1675
0
LINE
8
BLACK
6
CONTINUOUS
10
85.541
20
-35.1675
11
85.5739
21
-35.1282
0
LINE
8
BLACK
6
CONTINUOUS
10
85.5739
20
-35.1282
11
85.6245
21
-35.1193
0
LINE
8
BLACK
6
CONTINUOUS
10
85.6245
20
-35.1193
11
85.6689
21
-35.1449
0
LINE
8
BLACK
6
CONTINUOUS
10
85.6689
20
-35.1449
11
85.6864
21
-35.1932
0
LINE
8
BLACK
6
CONTINUOUS
10
85.6864
20
-35.1932
11
85.6864
21
-35.4515
0
LINE
8
BLACK
6
CONTINUOUS
10
85.6864
20
-35.4515
11
85.7543
21
-35.4515
0
LINE
8
BLACK
6
CONTINUOUS
10
85.7543
20
-35.4515
11
85.7799
21
-35.456
0
LINE
8
BLACK
6
CONTINUOUS
10
85.7799
20
-35.456
11
85.8192
21
-35.489
0
LINE
8
BLACK
6
CONTINUOUS
10
85.8192
20
-35.489
11
85.8281
21
-35.5395
0
LINE
8
BLACK
6
CONTINUOUS
10
85.8281
20
-35.5395
11
85.8025
21
-35.5839
0
LINE
8
BLACK
6
CONTINUOUS
10
85.8025
20
-35.5839
11
85.7543
21
-35.6015
0
LINE
8
BLACK
6
CONTINUOUS
10
85.7543
20
-35.6015
11
85.6864
21
-35.6015
0
LINE
8
BLACK
6
CONTINUOUS
10
85.6864
20
-35.6015
11
85.6864
21
-35.8598
0
LINE
8
BLACK
6
CONTINUOUS
10
85.6864
20
-35.8598
11
85.6819
21
-35.8855
0
LINE
8
BLACK
6
CONTINUOUS
10
85.6819
20
-35.8855
11
85.6489
21
-35.9248
0
LINE
8
BLACK
6
CONTINUOUS
10
85.6489
20
-35.9248
11
85.5984
21
-35.9337
0
LINE
8
BLACK
6
CONTINUOUS
10
85.5984
20
-35.9337
11
85.554
21
-35.908
0
LINE
8
BLACK
6
CONTINUOUS
10
85.554
20
-35.908
11
85.5364
21
-35.8598
0
LINE
8
BLACK
6
CONTINUOUS
10
85.5364
20
-35.8598
11
85.5364
21
-35.6015
0
LINE
8
BLACK
6
CONTINUOUS
10
85.5364
20
-35.6015
11
85.1352
21
-35.6015
0
LINE
8
BLACK
6
CONTINUOUS
10
85.1352
20
-35.6015
11
85.1096
21
-35.597
0
LINE
8
BLACK
6
CONTINUOUS
10
85.1096
20
-35.597
11
85.1052
21
-35.5933
0
LINE
8
BLACK
6
CONTINUOUS
10
85.1052
20
-35.5933
11
85.0995
21
-35.5924
0
LINE
8
BLACK
6
CONTINUOUS
10
85.0995
20
-35.5924
11
85.086
21
-35.5771
0
LINE
8
BLACK
6
CONTINUOUS
10
85.086
20
-35.5771
11
85.0703
21
-35.564
0
LINE
8
BLACK
6
CONTINUOUS
10
85.0703
20
-35.564
11
85.0693
21
-35.5583
0
LINE
8
BLACK
6
CONTINUOUS
10
85.0693
20
-35.5583
11
85.0655
21
-35.5541
0
LINE
8
BLACK
6
CONTINUOUS
10
85.0655
20
-35.5541
11
85.0649
21
-35.5336
0
LINE
8
BLACK
6
CONTINUOUS
10
85.0649
20
-35.5336
11
85.0614
21
-35.5135
0
LINE
8
BLACK
6
CONTINUOUS
10
85.0614
20
-35.5135
11
85.0642
21
-35.5085
0
LINE
8
BLACK
6
CONTINUOUS
10
85.0642
20
-35.5085
11
85.0641
21
-35.5028
0
LINE
8
BLACK
6
CONTINUOUS
10
85.0641
20
-35.5028
11
85.3022
21
-34.7885
0
LINE
8
BLACK
6
CONTINUOUS
10
85.3022
20
-34.7885
11
85.3146
21
-34.7656
0
LINE
8
BLACK
6
CONTINUOUS
10
85.3146
20
-34.7656
11
85.3583
21
-34.7387
0
LINE
8
BLACK
6
CONTINUOUS
10
85.3583
20
-34.7387
11
85.409
21
-34.7462
0
LINE
8
BLACK
6
CONTINUOUS
10
95.7641
20
-34.8016
11
95.7817
21
-34.8498
0
LINE
8
BLACK
6
CONTINUOUS
10
95.7817
20
-34.8498
11
95.7817
21
-35.5641
0
LINE
8
BLACK
6
CONTINUOUS
10
95.7817
20
-35.5641
11
95.7778
21
-35.5862
0
LINE
8
BLACK
6
CONTINUOUS
10
95.7778
20
-35.5862
11
95.7778
21
-35.5878
0
LINE
8
BLACK
6
CONTINUOUS
10
95.7778
20
-35.5878
11
95.7302
21
-35.7307
0
LINE
8
BLACK
6
CONTINUOUS
10
95.7302
20
-35.7307
11
95.7178
21
-35.7536
0
LINE
8
BLACK
6
CONTINUOUS
10
95.7178
20
-35.7536
11
95.714
21
-35.7559
0
LINE
8
BLACK
6
CONTINUOUS
10
95.714
20
-35.7559
11
95.7121
21
-35.76
0
LINE
8
BLACK
6
CONTINUOUS
10
95.7121
20
-35.76
11
95.6168
21
-35.8552
0
LINE
8
BLACK
6
CONTINUOUS
10
95.6168
20
-35.8552
11
95.5955
21
-35.8702
0
LINE
8
BLACK
6
CONTINUOUS
10
95.5955
20
-35.8702
11
95.591
21
-35.8706
0
LINE
8
BLACK
6
CONTINUOUS
10
95.591
20
-35.8706
11
95.5875
21
-35.8734
0
LINE
8
BLACK
6
CONTINUOUS
10
95.5875
20
-35.8734
11
95.4447
21
-35.921
0
LINE
8
BLACK
6
CONTINUOUS
10
95.4447
20
-35.921
11
95.4225
21
-35.9243
0
LINE
8
BLACK
6
CONTINUOUS
10
95.4225
20
-35.9243
11
95.421
21
-35.9248
0
LINE
8
BLACK
6
CONTINUOUS
10
95.421
20
-35.9248
11
95.3257
21
-35.9248
0
LINE
8
BLACK
6
CONTINUOUS
10
95.3257
20
-35.9248
11
95.3001
21
-35.9203
0
LINE
8
BLACK
6
CONTINUOUS
10
95.3001
20
-35.9203
11
95.2608
21
-35.8873
0
LINE
8
BLACK
6
CONTINUOUS
10
95.2608
20
-35.8873
11
95.2519
21
-35.8368
0
LINE
8
BLACK
6
CONTINUOUS
10
95.2519
20
-35.8368
11
95.2775
21
-35.7924
0
LINE
8
BLACK
6
CONTINUOUS
10
95.2775
20
-35.7924
11
95.3257
21
-35.7748
0
LINE
8
BLACK
6
CONTINUOUS
10
95.3257
20
-35.7748
11
95.4088
21
-35.7748
0
LINE
8
BLACK
6
CONTINUOUS
10
95.4088
20
-35.7748
11
95.5233
21
-35.7366
0
LINE
8
BLACK
6
CONTINUOUS
10
95.5233
20
-35.7366
11
95.5935
21
-35.6664
0
LINE
8
BLACK
6
CONTINUOUS
10
95.5935
20
-35.6664
11
95.6317
21
-35.5519
0
LINE
8
BLACK
6
CONTINUOUS
10
95.6317
20
-35.5519
11
95.6317
21
-34.8498
0
LINE
8
BLACK
6
CONTINUOUS
10
95.6317
20
-34.8498
11
95.6362
21
-34.8242
0
LINE
8
BLACK
6
CONTINUOUS
10
95.6362
20
-34.8242
11
95.6692
21
-34.7849
0
LINE
8
BLACK
6
CONTINUOUS
10
95.6692
20
-34.7849
11
95.7197
21
-34.776
0
LINE
8
BLACK
6
CONTINUOUS
10
95.7197
20
-34.776
11
95.7641
21
-34.8016
0
LINE
8
BLACK
6
CONTINUOUS
10
96.5418
20
-34.7793
11
96.5453
21
-34.7822
0
LINE
8
BLACK
6
CONTINUOUS
10
96.5453
20
-34.7822
11
96.5497
21
-34.7827
0
LINE
8
BLACK
6
CONTINUOUS
10
96.5497
20
-34.7827
11
96.645
21
-34.8304
0
LINE
8
BLACK
6
CONTINUOUS
10
96.645
20
-34.8304
11
96.663
21
-34.8437
0
LINE
8
BLACK
6
CONTINUOUS
10
96.663
20
-34.8437
11
96.6645
21
-34.8444
0
LINE
8
BLACK
6
CONTINUOUS
10
96.6645
20
-34.8444
11
96.7121
21
-34.892
0
LINE
8
BLACK
6
CONTINUOUS
10
96.7121
20
-34.892
11
96.7249
21
-34.9104
0
LINE
8
BLACK
6
CONTINUOUS
10
96.7249
20
-34.9104
11
96.7261
21
-34.9115
0
LINE
8
BLACK
6
CONTINUOUS
10
96.7261
20
-34.9115
11
96.7737
21
-35.0068
0
LINE
8
BLACK
6
CONTINUOUS
10
96.7737
20
-35.0068
11
96.7812
21
-35.0317
0
LINE
8
BLACK
6
CONTINUOUS
10
96.7812
20
-35.0317
11
96.7801
21
-35.0361
0
LINE
8
BLACK
6
CONTINUOUS
10
96.7801
20
-35.0361
11
96.7817
21
-35.0403
0
LINE
8
BLACK
6
CONTINUOUS
10
96.7817
20
-35.0403
11
96.7817
21
-35.1355
0
LINE
8
BLACK
6
CONTINUOUS
10
96.7817
20
-35.1355
11
96.7778
21
-35.1576
0
LINE
8
BLACK
6
CONTINUOUS
10
96.7778
20
-35.1576
11
96.7778
21
-35.1593
0
LINE
8
BLACK
6
CONTINUOUS
10
96.7778
20
-35.1593
11
96.7302
21
-35.3021
0
LINE
8
BLACK
6
CONTINUOUS
10
96.7302
20
-35.3021
11
96.7178
21
-35.325
0
LINE
8
BLACK
6
CONTINUOUS
10
96.7178
20
-35.325
11
96.714
21
-35.3274
0
LINE
8
BLACK
6
CONTINUOUS
10
96.714
20
-35.3274
11
96.7121
21
-35.3314
0
LINE
8
BLACK
6
CONTINUOUS
10
96.7121
20
-35.3314
11
96.2687
21
-35.7748
0
LINE
8
BLACK
6
CONTINUOUS
10
96.2687
20
-35.7748
11
96.7067
21
-35.7748
0
LINE
8
BLACK
6
CONTINUOUS
10
96.7067
20
-35.7748
11
96.7323
21
-35.7793
0
LINE
8
BLACK
6
CONTINUOUS
10
96.7323
20
-35.7793
11
96.7716
21
-35.8123
0
LINE
8
BLACK
6
CONTINUOUS
10
96.7716
20
-35.8123
11
96.7805
21
-35.8628
0
LINE
8
BLACK
6
CONTINUOUS
10
96.7805
20
-35.8628
11
96.7549
21
-35.9073
0
LINE
8
BLACK
6
CONTINUOUS
10
96.7549
20
-35.9073
11
96.7067
21
-35.9248
0
LINE
8
BLACK
6
CONTINUOUS
10
96.7067
20
-35.9248
11
96.0876
21
-35.9248
0
LINE
8
BLACK
6
CONTINUOUS
10
96.0876
20
-35.9248
11
96.0715
21
-35.922
0
LINE
8
BLACK
6
CONTINUOUS
10
96.0715
20
-35.922
11
96.0682
21
-35.9223
0
LINE
8
BLACK
6
CONTINUOUS
10
96.0682
20
-35.9223
11
96.0666
21
-35.9211
0
LINE
8
BLACK
6
CONTINUOUS
10
96.0666
20
-35.9211
11
96.062
21
-35.9203
0
LINE
8
BLACK
6
CONTINUOUS
10
96.062
20
-35.9203
11
96.0447
21
-35.9058
0
LINE
8
BLACK
6
CONTINUOUS
10
96.0447
20
-35.9058
11
96.0262
21
-35.8928
0
LINE
8
BLACK
6
CONTINUOUS
10
96.0262
20
-35.8928
11
96.0253
21
-35.8895
0
LINE
8
BLACK
6
CONTINUOUS
10
96.0253
20
-35.8895
11
96.0227
21
-35.8873
0
LINE
8
BLACK
6
CONTINUOUS
10
96.0227
20
-35.8873
11
96.0187
21
-35.8651
0
LINE
8
BLACK
6
CONTINUOUS
10
96.0187
20
-35.8651
11
96.0129
21
-35.8433
0
LINE
8
BLACK
6
CONTINUOUS
10
96.0129
20
-35.8433
11
96.0144
21
-35.8402
0
LINE
8
BLACK
6
CONTINUOUS
10
96.0144
20
-35.8402
11
96.0138
21
-35.8368
0
LINE
8
BLACK
6
CONTINUOUS
10
96.0138
20
-35.8368
11
96.025
21
-35.8172
0
LINE
8
BLACK
6
CONTINUOUS
10
96.025
20
-35.8172
11
96.0346
21
-35.7968
0
LINE
8
BLACK
6
CONTINUOUS
10
96.0346
20
-35.7968
11
96.5935
21
-35.2379
0
LINE
8
BLACK
6
CONTINUOUS
10
96.5935
20
-35.2379
11
96.6317
21
-35.1234
0
LINE
8
BLACK
6
CONTINUOUS
10
96.6317
20
-35.1234
11
96.6317
21
-35.058
0
LINE
8
BLACK
6
CONTINUOUS
10
96.6317
20
-35.058
11
96.5974
21
-34.9895
0
LINE
8
BLACK
6
CONTINUOUS
10
96.5974
20
-34.9895
11
96.567
21
-34.9591
0
LINE
8
BLACK
6
CONTINUOUS
10
96.567
20
-34.9591
11
96.4985
21
-34.9248
0
LINE
8
BLACK
6
CONTINUOUS
10
96.4985
20
-34.9248
11
96.2958
21
-34.9248
0
LINE
8
BLACK
6
CONTINUOUS
10
96.2958
20
-34.9248
11
96.2273
21
-34.9591
0
LINE
8
BLACK
6
CONTINUOUS
10
96.2273
20
-34.9591
11
96.1883
21
-34.9981
0
LINE
8
BLACK
6
CONTINUOUS
10
96.1883
20
-34.9981
11
96.1669
21
-35.013
0
LINE
8
BLACK
6
CONTINUOUS
10
96.1669
20
-35.013
11
96.1158
21
-35.0175
0
LINE
8
BLACK
6
CONTINUOUS
10
96.1158
20
-35.0175
11
96.0738
21
-34.9881
0
LINE
8
BLACK
6
CONTINUOUS
10
96.0738
20
-34.9881
11
96.0605
21
-34.9385
0
LINE
8
BLACK
6
CONTINUOUS
10
96.0605
20
-34.9385
11
96.0822
21
-34.892
0
LINE
8
BLACK
6
CONTINUOUS
10
96.0822
20
-34.892
11
96.1298
21
-34.8444
0
LINE
8
BLACK
6
CONTINUOUS
10
96.1298
20
-34.8444
11
96.1482
21
-34.8315
0
LINE
8
BLACK
6
CONTINUOUS
10
96.1482
20
-34.8315
11
96.1493
21
-34.8304
0
LINE
8
BLACK
6
CONTINUOUS
10
96.1493
20
-34.8304
11
96.2446
21
-34.7827
0
LINE
8
BLACK
6
CONTINUOUS
10
96.2446
20
-34.7827
11
96.2695
21
-34.7753
0
LINE
8
BLACK
6
CONTINUOUS
10
96.2695
20
-34.7753
11
96.2739
21
-34.7764
0
LINE
8
BLACK
6
CONTINUOUS
10
96.2739
20
-34.7764
11
96.2781
21
-34.7748
0
LINE
8
BLACK
6
CONTINUOUS
10
96.2781
20
-34.7748
11
96.5162
21
-34.7748
0
LINE
8
BLACK
6
CONTINUOUS
10
96.5162
20
-34.7748
11
96.5418
21
-34.7793
0
LINE
8
BLACK
6
CONTINUOUS
10
74.1326
20
-34.7707
11
74.1368
21
-34.77
0
LINE
8
BLACK
6
CONTINUOUS
10
74.1368
20
-34.77
11
74.1557
21
-34.7808
0
LINE
8
BLACK
6
CONTINUOUS
10
74.1557
20
-34.7808
11
74.1756
21
-34.7896
0
LINE
8
BLACK
6
CONTINUOUS
10
74.1756
20
-34.7896
11
74.1775
21
-34.7935
0
LINE
8
BLACK
6
CONTINUOUS
10
74.1775
20
-34.7935
11
74.1813
21
-34.7956
0
LINE
8
BLACK
6
CONTINUOUS
10
74.1813
20
-34.7956
11
74.1887
21
-34.8161
0
LINE
8
BLACK
6
CONTINUOUS
10
74.1887
20
-34.8161
11
74.1984
21
-34.8356
0
LINE
8
BLACK
6
CONTINUOUS
10
74.1984
20
-34.8356
11
74.1973
21
-34.8398
0
LINE
8
BLACK
6
CONTINUOUS
10
74.1973
20
-34.8398
11
74.1988
21
-34.8438
0
LINE
8
BLACK
6
CONTINUOUS
10
74.1988
20
-34.8438
11
74.1988
21
-35.7688
0
LINE
8
BLACK
6
CONTINUOUS
10
74.1988
20
-35.7688
11
74.4095
21
-35.7688
0
LINE
8
BLACK
6
CONTINUOUS
10
74.4095
20
-35.7688
11
74.4352
21
-35.7733
0
LINE
8
BLACK
6
CONTINUOUS
10
74.4352
20
-35.7733
11
74.4745
21
-35.8063
0
LINE
8
BLACK
6
CONTINUOUS
10
74.4745
20
-35.8063
11
74.4834
21
-35.8568
0
LINE
8
BLACK
6
CONTINUOUS
10
74.4834
20
-35.8568
11
74.4577
21
-35.9013
0
LINE
8
BLACK
6
CONTINUOUS
10
74.4577
20
-35.9013
11
74.4095
21
-35.9188
0
LINE
8
BLACK
6
CONTINUOUS
10
74.4095
20
-35.9188
11
73.8381
21
-35.9188
0
LINE
8
BLACK
6
CONTINUOUS
10
73.8381
20
-35.9188
11
73.8124
21
-35.9143
0
LINE
8
BLACK
6
CONTINUOUS
10
73.8124
20
-35.9143
11
73.7731
21
-35.8813
0
LINE
8
BLACK
6
CONTINUOUS
10
73.7731
20
-35.8813
11
73.7642
21
-35.8308
0
LINE
8
BLACK
6
CONTINUOUS
10
73.7642
20
-35.8308
11
73.7899
21
-35.7864
0
LINE
8
BLACK
6
CONTINUOUS
10
73.7899
20
-35.7864
11
73.8381
21
-35.7688
0
LINE
8
BLACK
6
CONTINUOUS
10
73.8381
20
-35.7688
11
74.0488
21
-35.7688
0
LINE
8
BLACK
6
CONTINUOUS
10
74.0488
20
-35.7688
11
74.0488
21
-35.0725
0
LINE
8
BLACK
6
CONTINUOUS
10
74.0488
20
-35.0725
11
73.9864
21
-35.1349
0
LINE
8
BLACK
6
CONTINUOUS
10
73.9864
20
-35.1349
11
73.968
21
-35.1478
0
LINE
8
BLACK
6
CONTINUOUS
10
73.968
20
-35.1478
11
73.9669
21
-35.149
0
LINE
8
BLACK
6
CONTINUOUS
10
73.9669
20
-35.149
11
73.8716
21
-35.1966
0
LINE
8
BLACK
6
CONTINUOUS
10
73.8716
20
-35.1966
11
73.8467
21
-35.204
0
LINE
8
BLACK
6
CONTINUOUS
10
73.8467
20
-35.204
11
73.7968
21
-35.1921
0
LINE
8
BLACK
6
CONTINUOUS
10
73.7968
20
-35.1921
11
73.7662
21
-35.1509
0
LINE
8
BLACK
6
CONTINUOUS
10
73.7662
20
-35.1509
11
73.7693
21
-35.0997
0
LINE
8
BLACK
6
CONTINUOUS
10
73.7693
20
-35.0997
11
73.8046
21
-35.0625
0
LINE
8
BLACK
6
CONTINUOUS
10
73.8046
20
-35.0625
11
73.8889
21
-35.0203
0
LINE
8
BLACK
6
CONTINUOUS
10
73.8889
20
-35.0203
11
73.9703
21
-34.9389
0
LINE
8
BLACK
6
CONTINUOUS
10
73.9703
20
-34.9389
11
74.0614
21
-34.8022
0
LINE
8
BLACK
6
CONTINUOUS
10
74.0614
20
-34.8022
11
74.0794
21
-34.7834
0
LINE
8
BLACK
6
CONTINUOUS
10
74.0794
20
-34.7834
11
74.0835
21
-34.7822
0
LINE
8
BLACK
6
CONTINUOUS
10
74.0835
20
-34.7822
11
74.0863
21
-34.7789
0
LINE
8
BLACK
6
CONTINUOUS
10
74.0863
20
-34.7789
11
74.1077
21
-34.7751
0
LINE
8
BLACK
6
CONTINUOUS
10
74.1077
20
-34.7751
11
74.1286
21
-34.769
0
LINE
8
BLACK
6
CONTINUOUS
10
74.1286
20
-34.769
11
74.1326
21
-34.7707
0
LINE
8
BLACK
6
CONTINUOUS
10
73.467
20
-34.7956
11
73.4845
21
-34.8438
0
LINE
8
BLACK
6
CONTINUOUS
10
73.4845
20
-34.8438
11
73.4845
21
-35.8438
0
LINE
8
BLACK
6
CONTINUOUS
10
73.4845
20
-35.8438
11
73.48
21
-35.8695
0
LINE
8
BLACK
6
CONTINUOUS
10
73.48
20
-35.8695
11
73.447
21
-35.9088
0
LINE
8
BLACK
6
CONTINUOUS
10
73.447
20
-35.9088
11
73.3965
21
-35.9177
0
LINE
8
BLACK
6
CONTINUOUS
10
73.3965
20
-35.9177
11
73.3521
21
-35.892
0
LINE
8
BLACK
6
CONTINUOUS
10
73.3521
20
-35.892
11
73.3345
21
-35.8438
0
LINE
8
BLACK
6
CONTINUOUS
10
73.3345
20
-35.8438
11
73.3345
21
-35.395
0
LINE
8
BLACK
6
CONTINUOUS
10
73.3345
20
-35.395
11
72.9131
21
-35.395
0
LINE
8
BLACK
6
CONTINUOUS
10
72.9131
20
-35.395
11
72.9131
21
-35.8438
0
LINE
8
BLACK
6
CONTINUOUS
10
72.9131
20
-35.8438
11
72.9086
21
-35.8695
0
LINE
8
BLACK
6
CONTINUOUS
10
72.9086
20
-35.8695
11
72.8756
21
-35.9088
0
LINE
8
BLACK
6
CONTINUOUS
10
72.8756
20
-35.9088
11
72.8251
21
-35.9177
0
LINE
8
BLACK
6
CONTINUOUS
10
72.8251
20
-35.9177
11
72.7806
21
-35.892
0
LINE
8
BLACK
6
CONTINUOUS
10
72.7806
20
-35.892
11
72.7631
21
-35.8438
0
LINE
8
BLACK
6
CONTINUOUS
10
72.7631
20
-35.8438
11
72.7631
21
-34.8438
0
LINE
8
BLACK
6
CONTINUOUS
10
72.7631
20
-34.8438
11
72.7676
21
-34.8182
0
LINE
8
BLACK
6
CONTINUOUS
10
72.7676
20
-34.8182
11
72.8006
21
-34.7789
0
LINE
8
BLACK
6
CONTINUOUS
10
72.8006
20
-34.7789
11
72.8511
21
-34.77
0
LINE
8
BLACK
6
CONTINUOUS
10
72.8511
20
-34.77
11
72.8955
21
-34.7956
0
LINE
8
BLACK
6
CONTINUOUS
10
72.8955
20
-34.7956
11
72.9131
21
-34.8438
0
LINE
8
BLACK
6
CONTINUOUS
10
72.9131
20
-34.8438
11
72.9131
21
-35.245
0
LINE
8
BLACK
6
CONTINUOUS
10
72.9131
20
-35.245
11
73.3345
21
-35.245
0
LINE
8
BLACK
6
CONTINUOUS
10
73.3345
20
-35.245
11
73.3345
21
-34.8438
0
LINE
8
BLACK
6
CONTINUOUS
10
73.3345
20
-34.8438
11
73.339
21
-34.8182
0
LINE
8
BLACK
6
CONTINUOUS
10
73.339
20
-34.8182
11
73.372
21
-34.7789
0
LINE
8
BLACK
6
CONTINUOUS
10
73.372
20
-34.7789
11
73.4225
21
-34.77
0
LINE
8
BLACK
6
CONTINUOUS
10
73.4225
20
-34.77
11
73.467
21
-34.7956
0
CIRCLE
8
BLACK
10
71.2
20
-39.589
40
0.25
0
CIRCLE
8
BLACK
10
71.9029
20
-37.8919
40
0.25
0
CIRCLE
8
BLACK
10
71.9029
20
-41.2861
40
0.25
0
CIRCLE
8
BLACK
10
73.6
20
-37.189
40
0.25
0
CIRCLE
8
BLACK
10
73.6
20
-39.589
40
1.6
0
CIRCLE
8
BLACK
10
73.6
20
-41.989
40
0.25
0
CIRCLE
8
BLACK
10
75.2971
20
-37.8919
40
0.25
0
CIRCLE
8
BLACK
10
75.2971
20
-41.2861
40
0.25
0
CIRCLE
8
BLACK
10
76
20
-39.589
40
0.25
0
CIRCLE
8
BLACK
10
121.665
20
-76.8461
40
0.25
0
CIRCLE
8
BLACK
10
122.368
20
-75.149
40
0.25
0
CIRCLE
8
BLACK
10
122.368
20
-78.5431
40
0.25
0
CIRCLE
8
BLACK
10
124.065
20
-74.4461
40
0.25
0
CIRCLE
8
BLACK
10
124.065
20
-76.8461
40
1.6
0
CIRCLE
8
BLACK
10
124.065
20
-79.2461
40
0.25
0
CIRCLE
8
BLACK
10
125.762
20
-75.149
40
0.25
0
CIRCLE
8
BLACK
10
125.762
20
-78.5431
40
0.25
0
CIRCLE
8
BLACK
10
126.465
20
-76.8461
40
0.25
0
CIRCLE
8
BLACK
10
124.29
20
-39.36
40
0.475
0
CIRCLE
8
BLACK
10
124.29
20
-41.86
40
0.475
0
CIRCLE
8
BLACK
10
124.29
20
-44.36
40
0.475
0
CIRCLE
8
BLACK
10
124.29
20
-46.86
40
0.475
0
CIRCLE
8
BLACK
10
124.29
20
-49.36
40
0.475
0
CIRCLE
8
BLACK
10
104.74
20
-83.58
40
0.5
0
CIRCLE
8
BLACK
10
104.74
20
-86.12
40
0.5
0
CIRCLE
8
BLACK
10
102.2
20
-83.58
40
0.5
0
CIRCLE
8
BLACK
10
102.2
20
-86.12
40
0.5
0
CIRCLE
8
BLACK
10
99.66
20
-83.58
40
0.5
0
CIRCLE
8
BLACK
10
99.66
20
-86.12
40
0.5
0
CIRCLE
8
BLACK
10
94.79
20
-38.945
40
0.5
0
CIRCLE
8
BLACK
10
97.29
20
-38.945
40
0.5
0
CIRCLE
8
BLACK
10
109.8
20
-84.72
40
0.475
0
CIRCLE
8
BLACK
10
112.3
20
-84.72
40
0.475
0
CIRCLE
8
BLACK
10
114.8
20
-84.72
40
0.475
0
CIRCLE
8
BLACK
10
117.3
20
-84.72
40
0.475
0
CIRCLE
8
BLACK
10
119.8
20
-84.72
40
0.475
0
CIRCLE
8
BLACK
10
91.2
20
-84.72
40
0.5
0
CIRCLE
8
BLACK
10
93.7
20
-84.72
40
0.5
0
CIRCLE
8
BLACK
10
77.2
20
-84.72
40
0.475
0
CIRCLE
8
BLACK
10
79.7
20
-84.72
40
0.475
0
CIRCLE
8
BLACK
10
82.2
20
-84.72
40
0.475
0
CIRCLE
8
BLACK
10
84.7
20
-84.72
40
0.475
0
CIRCLE
8
BLACK
10
72.1
20
-71.94
40
0.5
0
CIRCLE
8
BLACK
10
72.1
20
-74.48
40
0.5
0
CIRCLE
8
BLACK
10
72.1
20
-77.02
40
0.5
0
CIRCLE
8
BLACK
10
81.29
20
-38.955
40
0.475
0
CIRCLE
8
BLACK
10
83.79
20
-38.955
40
0.475
0
CIRCLE
8
BLACK
10
86.29
20
-38.955
40
0.475
0
CIRCLE
8
BLACK
10
88.79
20
-38.955
40
0.475
  0
ENDSEC
  0
EOF
