%TF.GenerationSoftware,KiCad,Pcbnew,7.0.8*%
%TF.CreationDate,2023-12-29T15:21:52+01:00*%
%TF.ProjectId,Programmer,50726f67-7261-46d6-9d65-722e6b696361,rev?*%
%TF.SameCoordinates,Original*%
%TF.FileFunction,Copper,L2,Bot*%
%TF.FilePolarity,Positive*%
%FSLAX46Y46*%
G04 Gerber Fmt 4.6, Leading zero omitted, Abs format (unit mm)*
G04 Created by KiCad (PCBNEW 7.0.8) date 2023-12-29 15:21:52*
%MOMM*%
%LPD*%
G01*
G04 APERTURE LIST*
G04 Aperture macros list*
%AMRoundRect*
0 Rectangle with rounded corners*
0 $1 Rounding radius*
0 $2 $3 $4 $5 $6 $7 $8 $9 X,Y pos of 4 corners*
0 Add a 4 corners polygon primitive as box body*
4,1,4,$2,$3,$4,$5,$6,$7,$8,$9,$2,$3,0*
0 Add four circle primitives for the rounded corners*
1,1,$1+$1,$2,$3*
1,1,$1+$1,$4,$5*
1,1,$1+$1,$6,$7*
1,1,$1+$1,$8,$9*
0 Add four rect primitives between the rounded corners*
20,1,$1+$1,$2,$3,$4,$5,0*
20,1,$1+$1,$4,$5,$6,$7,0*
20,1,$1+$1,$6,$7,$8,$9,0*
20,1,$1+$1,$8,$9,$2,$3,0*%
G04 Aperture macros list end*
%ADD10C,0.300000*%
%TA.AperFunction,NonConductor*%
%ADD11C,0.300000*%
%TD*%
%TA.AperFunction,ComponentPad*%
%ADD12C,0.800000*%
%TD*%
%TA.AperFunction,ComponentPad*%
%ADD13C,6.400000*%
%TD*%
%TA.AperFunction,ComponentPad*%
%ADD14RoundRect,0.250000X-0.725000X0.600000X-0.725000X-0.600000X0.725000X-0.600000X0.725000X0.600000X0*%
%TD*%
%TA.AperFunction,ComponentPad*%
%ADD15O,1.950000X1.700000*%
%TD*%
%TA.AperFunction,ComponentPad*%
%ADD16R,1.700000X1.700000*%
%TD*%
%TA.AperFunction,ComponentPad*%
%ADD17O,1.700000X1.700000*%
%TD*%
%TA.AperFunction,ComponentPad*%
%ADD18RoundRect,0.250000X-0.600000X-0.750000X0.600000X-0.750000X0.600000X0.750000X-0.600000X0.750000X0*%
%TD*%
%TA.AperFunction,ComponentPad*%
%ADD19O,1.700000X2.000000*%
%TD*%
%TA.AperFunction,ComponentPad*%
%ADD20RoundRect,0.250000X-0.600000X-0.725000X0.600000X-0.725000X0.600000X0.725000X-0.600000X0.725000X0*%
%TD*%
%TA.AperFunction,ComponentPad*%
%ADD21O,1.700000X1.950000*%
%TD*%
%TA.AperFunction,Conductor*%
%ADD22C,0.250000*%
%TD*%
%TA.AperFunction,Conductor*%
%ADD23C,0.350000*%
%TD*%
G04 APERTURE END LIST*
D10*
D11*
X121960828Y-56795714D02*
X123460828Y-56795714D01*
X122032257Y-56795714D02*
X121960828Y-56938572D01*
X121960828Y-56938572D02*
X121960828Y-57224286D01*
X121960828Y-57224286D02*
X122032257Y-57367143D01*
X122032257Y-57367143D02*
X122103685Y-57438572D01*
X122103685Y-57438572D02*
X122246542Y-57510000D01*
X122246542Y-57510000D02*
X122675114Y-57510000D01*
X122675114Y-57510000D02*
X122817971Y-57438572D01*
X122817971Y-57438572D02*
X122889400Y-57367143D01*
X122889400Y-57367143D02*
X122960828Y-57224286D01*
X122960828Y-57224286D02*
X122960828Y-56938572D01*
X122960828Y-56938572D02*
X122889400Y-56795714D01*
X122960828Y-58152857D02*
X121960828Y-58152857D01*
X122246542Y-58152857D02*
X122103685Y-58224286D01*
X122103685Y-58224286D02*
X122032257Y-58295715D01*
X122032257Y-58295715D02*
X121960828Y-58438572D01*
X121960828Y-58438572D02*
X121960828Y-58581429D01*
X122960828Y-59295714D02*
X122889400Y-59152857D01*
X122889400Y-59152857D02*
X122817971Y-59081428D01*
X122817971Y-59081428D02*
X122675114Y-59010000D01*
X122675114Y-59010000D02*
X122246542Y-59010000D01*
X122246542Y-59010000D02*
X122103685Y-59081428D01*
X122103685Y-59081428D02*
X122032257Y-59152857D01*
X122032257Y-59152857D02*
X121960828Y-59295714D01*
X121960828Y-59295714D02*
X121960828Y-59510000D01*
X121960828Y-59510000D02*
X122032257Y-59652857D01*
X122032257Y-59652857D02*
X122103685Y-59724286D01*
X122103685Y-59724286D02*
X122246542Y-59795714D01*
X122246542Y-59795714D02*
X122675114Y-59795714D01*
X122675114Y-59795714D02*
X122817971Y-59724286D01*
X122817971Y-59724286D02*
X122889400Y-59652857D01*
X122889400Y-59652857D02*
X122960828Y-59510000D01*
X122960828Y-59510000D02*
X122960828Y-59295714D01*
X121960828Y-61081429D02*
X123175114Y-61081429D01*
X123175114Y-61081429D02*
X123317971Y-61010000D01*
X123317971Y-61010000D02*
X123389400Y-60938571D01*
X123389400Y-60938571D02*
X123460828Y-60795714D01*
X123460828Y-60795714D02*
X123460828Y-60581429D01*
X123460828Y-60581429D02*
X123389400Y-60438571D01*
X122889400Y-61081429D02*
X122960828Y-60938571D01*
X122960828Y-60938571D02*
X122960828Y-60652857D01*
X122960828Y-60652857D02*
X122889400Y-60510000D01*
X122889400Y-60510000D02*
X122817971Y-60438571D01*
X122817971Y-60438571D02*
X122675114Y-60367143D01*
X122675114Y-60367143D02*
X122246542Y-60367143D01*
X122246542Y-60367143D02*
X122103685Y-60438571D01*
X122103685Y-60438571D02*
X122032257Y-60510000D01*
X122032257Y-60510000D02*
X121960828Y-60652857D01*
X121960828Y-60652857D02*
X121960828Y-60938571D01*
X121960828Y-60938571D02*
X122032257Y-61081429D01*
X122960828Y-61795714D02*
X121960828Y-61795714D01*
X122246542Y-61795714D02*
X122103685Y-61867143D01*
X122103685Y-61867143D02*
X122032257Y-61938572D01*
X122032257Y-61938572D02*
X121960828Y-62081429D01*
X121960828Y-62081429D02*
X121960828Y-62224286D01*
X122960828Y-62724285D02*
X121960828Y-62724285D01*
X122103685Y-62724285D02*
X122032257Y-62795714D01*
X122032257Y-62795714D02*
X121960828Y-62938571D01*
X121960828Y-62938571D02*
X121960828Y-63152857D01*
X121960828Y-63152857D02*
X122032257Y-63295714D01*
X122032257Y-63295714D02*
X122175114Y-63367143D01*
X122175114Y-63367143D02*
X122960828Y-63367143D01*
X122175114Y-63367143D02*
X122032257Y-63438571D01*
X122032257Y-63438571D02*
X121960828Y-63581428D01*
X121960828Y-63581428D02*
X121960828Y-63795714D01*
X121960828Y-63795714D02*
X122032257Y-63938571D01*
X122032257Y-63938571D02*
X122175114Y-64010000D01*
X122175114Y-64010000D02*
X122960828Y-64010000D01*
X122960828Y-64724285D02*
X121960828Y-64724285D01*
X122103685Y-64724285D02*
X122032257Y-64795714D01*
X122032257Y-64795714D02*
X121960828Y-64938571D01*
X121960828Y-64938571D02*
X121960828Y-65152857D01*
X121960828Y-65152857D02*
X122032257Y-65295714D01*
X122032257Y-65295714D02*
X122175114Y-65367143D01*
X122175114Y-65367143D02*
X122960828Y-65367143D01*
X122175114Y-65367143D02*
X122032257Y-65438571D01*
X122032257Y-65438571D02*
X121960828Y-65581428D01*
X121960828Y-65581428D02*
X121960828Y-65795714D01*
X121960828Y-65795714D02*
X122032257Y-65938571D01*
X122032257Y-65938571D02*
X122175114Y-66010000D01*
X122175114Y-66010000D02*
X122960828Y-66010000D01*
X122889400Y-67295714D02*
X122960828Y-67152857D01*
X122960828Y-67152857D02*
X122960828Y-66867143D01*
X122960828Y-66867143D02*
X122889400Y-66724285D01*
X122889400Y-66724285D02*
X122746542Y-66652857D01*
X122746542Y-66652857D02*
X122175114Y-66652857D01*
X122175114Y-66652857D02*
X122032257Y-66724285D01*
X122032257Y-66724285D02*
X121960828Y-66867143D01*
X121960828Y-66867143D02*
X121960828Y-67152857D01*
X121960828Y-67152857D02*
X122032257Y-67295714D01*
X122032257Y-67295714D02*
X122175114Y-67367143D01*
X122175114Y-67367143D02*
X122317971Y-67367143D01*
X122317971Y-67367143D02*
X122460828Y-66652857D01*
X122960828Y-68009999D02*
X121960828Y-68009999D01*
X122246542Y-68009999D02*
X122103685Y-68081428D01*
X122103685Y-68081428D02*
X122032257Y-68152857D01*
X122032257Y-68152857D02*
X121960828Y-68295714D01*
X121960828Y-68295714D02*
X121960828Y-68438571D01*
X125304400Y-52545715D02*
X125375828Y-52760001D01*
X125375828Y-52760001D02*
X125375828Y-53117143D01*
X125375828Y-53117143D02*
X125304400Y-53260001D01*
X125304400Y-53260001D02*
X125232971Y-53331429D01*
X125232971Y-53331429D02*
X125090114Y-53402858D01*
X125090114Y-53402858D02*
X124947257Y-53402858D01*
X124947257Y-53402858D02*
X124804400Y-53331429D01*
X124804400Y-53331429D02*
X124732971Y-53260001D01*
X124732971Y-53260001D02*
X124661542Y-53117143D01*
X124661542Y-53117143D02*
X124590114Y-52831429D01*
X124590114Y-52831429D02*
X124518685Y-52688572D01*
X124518685Y-52688572D02*
X124447257Y-52617143D01*
X124447257Y-52617143D02*
X124304400Y-52545715D01*
X124304400Y-52545715D02*
X124161542Y-52545715D01*
X124161542Y-52545715D02*
X124018685Y-52617143D01*
X124018685Y-52617143D02*
X123947257Y-52688572D01*
X123947257Y-52688572D02*
X123875828Y-52831429D01*
X123875828Y-52831429D02*
X123875828Y-53188572D01*
X123875828Y-53188572D02*
X123947257Y-53402858D01*
X125375828Y-54045714D02*
X124375828Y-54045714D01*
X124518685Y-54045714D02*
X124447257Y-54117143D01*
X124447257Y-54117143D02*
X124375828Y-54260000D01*
X124375828Y-54260000D02*
X124375828Y-54474286D01*
X124375828Y-54474286D02*
X124447257Y-54617143D01*
X124447257Y-54617143D02*
X124590114Y-54688572D01*
X124590114Y-54688572D02*
X125375828Y-54688572D01*
X124590114Y-54688572D02*
X124447257Y-54760000D01*
X124447257Y-54760000D02*
X124375828Y-54902857D01*
X124375828Y-54902857D02*
X124375828Y-55117143D01*
X124375828Y-55117143D02*
X124447257Y-55260000D01*
X124447257Y-55260000D02*
X124590114Y-55331429D01*
X124590114Y-55331429D02*
X125375828Y-55331429D01*
X125375828Y-56688572D02*
X124590114Y-56688572D01*
X124590114Y-56688572D02*
X124447257Y-56617143D01*
X124447257Y-56617143D02*
X124375828Y-56474286D01*
X124375828Y-56474286D02*
X124375828Y-56188572D01*
X124375828Y-56188572D02*
X124447257Y-56045714D01*
X125304400Y-56688572D02*
X125375828Y-56545714D01*
X125375828Y-56545714D02*
X125375828Y-56188572D01*
X125375828Y-56188572D02*
X125304400Y-56045714D01*
X125304400Y-56045714D02*
X125161542Y-55974286D01*
X125161542Y-55974286D02*
X125018685Y-55974286D01*
X125018685Y-55974286D02*
X124875828Y-56045714D01*
X124875828Y-56045714D02*
X124804400Y-56188572D01*
X124804400Y-56188572D02*
X124804400Y-56545714D01*
X124804400Y-56545714D02*
X124732971Y-56688572D01*
X125375828Y-57402857D02*
X124375828Y-57402857D01*
X124661542Y-57402857D02*
X124518685Y-57474286D01*
X124518685Y-57474286D02*
X124447257Y-57545715D01*
X124447257Y-57545715D02*
X124375828Y-57688572D01*
X124375828Y-57688572D02*
X124375828Y-57831429D01*
X124375828Y-58117143D02*
X124375828Y-58688571D01*
X123875828Y-58331428D02*
X125161542Y-58331428D01*
X125161542Y-58331428D02*
X125304400Y-58402857D01*
X125304400Y-58402857D02*
X125375828Y-58545714D01*
X125375828Y-58545714D02*
X125375828Y-58688571D01*
X125375828Y-59188571D02*
X123875828Y-59188571D01*
X123875828Y-59188571D02*
X123875828Y-59545714D01*
X123875828Y-59545714D02*
X123947257Y-59760000D01*
X123947257Y-59760000D02*
X124090114Y-59902857D01*
X124090114Y-59902857D02*
X124232971Y-59974286D01*
X124232971Y-59974286D02*
X124518685Y-60045714D01*
X124518685Y-60045714D02*
X124732971Y-60045714D01*
X124732971Y-60045714D02*
X125018685Y-59974286D01*
X125018685Y-59974286D02*
X125161542Y-59902857D01*
X125161542Y-59902857D02*
X125304400Y-59760000D01*
X125304400Y-59760000D02*
X125375828Y-59545714D01*
X125375828Y-59545714D02*
X125375828Y-59188571D01*
X125375828Y-60688571D02*
X124375828Y-60688571D01*
X123875828Y-60688571D02*
X123947257Y-60617143D01*
X123947257Y-60617143D02*
X124018685Y-60688571D01*
X124018685Y-60688571D02*
X123947257Y-60760000D01*
X123947257Y-60760000D02*
X123875828Y-60688571D01*
X123875828Y-60688571D02*
X124018685Y-60688571D01*
X125304400Y-61331429D02*
X125375828Y-61474286D01*
X125375828Y-61474286D02*
X125375828Y-61760000D01*
X125375828Y-61760000D02*
X125304400Y-61902857D01*
X125304400Y-61902857D02*
X125161542Y-61974286D01*
X125161542Y-61974286D02*
X125090114Y-61974286D01*
X125090114Y-61974286D02*
X124947257Y-61902857D01*
X124947257Y-61902857D02*
X124875828Y-61760000D01*
X124875828Y-61760000D02*
X124875828Y-61545715D01*
X124875828Y-61545715D02*
X124804400Y-61402857D01*
X124804400Y-61402857D02*
X124661542Y-61331429D01*
X124661542Y-61331429D02*
X124590114Y-61331429D01*
X124590114Y-61331429D02*
X124447257Y-61402857D01*
X124447257Y-61402857D02*
X124375828Y-61545715D01*
X124375828Y-61545715D02*
X124375828Y-61760000D01*
X124375828Y-61760000D02*
X124447257Y-61902857D01*
X124375828Y-62617143D02*
X125875828Y-62617143D01*
X124447257Y-62617143D02*
X124375828Y-62760001D01*
X124375828Y-62760001D02*
X124375828Y-63045715D01*
X124375828Y-63045715D02*
X124447257Y-63188572D01*
X124447257Y-63188572D02*
X124518685Y-63260001D01*
X124518685Y-63260001D02*
X124661542Y-63331429D01*
X124661542Y-63331429D02*
X125090114Y-63331429D01*
X125090114Y-63331429D02*
X125232971Y-63260001D01*
X125232971Y-63260001D02*
X125304400Y-63188572D01*
X125304400Y-63188572D02*
X125375828Y-63045715D01*
X125375828Y-63045715D02*
X125375828Y-62760001D01*
X125375828Y-62760001D02*
X125304400Y-62617143D01*
X125375828Y-64188572D02*
X125304400Y-64045715D01*
X125304400Y-64045715D02*
X125161542Y-63974286D01*
X125161542Y-63974286D02*
X123875828Y-63974286D01*
X125375828Y-65402858D02*
X124590114Y-65402858D01*
X124590114Y-65402858D02*
X124447257Y-65331429D01*
X124447257Y-65331429D02*
X124375828Y-65188572D01*
X124375828Y-65188572D02*
X124375828Y-64902858D01*
X124375828Y-64902858D02*
X124447257Y-64760000D01*
X125304400Y-65402858D02*
X125375828Y-65260000D01*
X125375828Y-65260000D02*
X125375828Y-64902858D01*
X125375828Y-64902858D02*
X125304400Y-64760000D01*
X125304400Y-64760000D02*
X125161542Y-64688572D01*
X125161542Y-64688572D02*
X125018685Y-64688572D01*
X125018685Y-64688572D02*
X124875828Y-64760000D01*
X124875828Y-64760000D02*
X124804400Y-64902858D01*
X124804400Y-64902858D02*
X124804400Y-65260000D01*
X124804400Y-65260000D02*
X124732971Y-65402858D01*
X124375828Y-65974286D02*
X125375828Y-66331429D01*
X124375828Y-66688572D02*
X125375828Y-66331429D01*
X125375828Y-66331429D02*
X125732971Y-66188572D01*
X125732971Y-66188572D02*
X125804400Y-66117143D01*
X125804400Y-66117143D02*
X125875828Y-65974286D01*
X124375828Y-68260000D02*
X125375828Y-68617143D01*
X125375828Y-68617143D02*
X124375828Y-68974286D01*
X123875828Y-69831429D02*
X123875828Y-69974286D01*
X123875828Y-69974286D02*
X123947257Y-70117143D01*
X123947257Y-70117143D02*
X124018685Y-70188572D01*
X124018685Y-70188572D02*
X124161542Y-70260000D01*
X124161542Y-70260000D02*
X124447257Y-70331429D01*
X124447257Y-70331429D02*
X124804400Y-70331429D01*
X124804400Y-70331429D02*
X125090114Y-70260000D01*
X125090114Y-70260000D02*
X125232971Y-70188572D01*
X125232971Y-70188572D02*
X125304400Y-70117143D01*
X125304400Y-70117143D02*
X125375828Y-69974286D01*
X125375828Y-69974286D02*
X125375828Y-69831429D01*
X125375828Y-69831429D02*
X125304400Y-69688572D01*
X125304400Y-69688572D02*
X125232971Y-69617143D01*
X125232971Y-69617143D02*
X125090114Y-69545714D01*
X125090114Y-69545714D02*
X124804400Y-69474286D01*
X124804400Y-69474286D02*
X124447257Y-69474286D01*
X124447257Y-69474286D02*
X124161542Y-69545714D01*
X124161542Y-69545714D02*
X124018685Y-69617143D01*
X124018685Y-69617143D02*
X123947257Y-69688572D01*
X123947257Y-69688572D02*
X123875828Y-69831429D01*
X125232971Y-70974285D02*
X125304400Y-71045714D01*
X125304400Y-71045714D02*
X125375828Y-70974285D01*
X125375828Y-70974285D02*
X125304400Y-70902857D01*
X125304400Y-70902857D02*
X125232971Y-70974285D01*
X125232971Y-70974285D02*
X125375828Y-70974285D01*
X124518685Y-71902857D02*
X124447257Y-71760000D01*
X124447257Y-71760000D02*
X124375828Y-71688571D01*
X124375828Y-71688571D02*
X124232971Y-71617143D01*
X124232971Y-71617143D02*
X124161542Y-71617143D01*
X124161542Y-71617143D02*
X124018685Y-71688571D01*
X124018685Y-71688571D02*
X123947257Y-71760000D01*
X123947257Y-71760000D02*
X123875828Y-71902857D01*
X123875828Y-71902857D02*
X123875828Y-72188571D01*
X123875828Y-72188571D02*
X123947257Y-72331429D01*
X123947257Y-72331429D02*
X124018685Y-72402857D01*
X124018685Y-72402857D02*
X124161542Y-72474286D01*
X124161542Y-72474286D02*
X124232971Y-72474286D01*
X124232971Y-72474286D02*
X124375828Y-72402857D01*
X124375828Y-72402857D02*
X124447257Y-72331429D01*
X124447257Y-72331429D02*
X124518685Y-72188571D01*
X124518685Y-72188571D02*
X124518685Y-71902857D01*
X124518685Y-71902857D02*
X124590114Y-71760000D01*
X124590114Y-71760000D02*
X124661542Y-71688571D01*
X124661542Y-71688571D02*
X124804400Y-71617143D01*
X124804400Y-71617143D02*
X125090114Y-71617143D01*
X125090114Y-71617143D02*
X125232971Y-71688571D01*
X125232971Y-71688571D02*
X125304400Y-71760000D01*
X125304400Y-71760000D02*
X125375828Y-71902857D01*
X125375828Y-71902857D02*
X125375828Y-72188571D01*
X125375828Y-72188571D02*
X125304400Y-72331429D01*
X125304400Y-72331429D02*
X125232971Y-72402857D01*
X125232971Y-72402857D02*
X125090114Y-72474286D01*
X125090114Y-72474286D02*
X124804400Y-72474286D01*
X124804400Y-72474286D02*
X124661542Y-72402857D01*
X124661542Y-72402857D02*
X124590114Y-72331429D01*
X124590114Y-72331429D02*
X124518685Y-72188571D01*
D12*
%TO.P,H1,1,1*%
%TO.N,unconnected-(H1-Pad1)*%
X71200000Y-39589000D03*
X71902944Y-37891944D03*
X71902944Y-41286056D03*
X73600000Y-37189000D03*
D13*
X73600000Y-39589000D03*
D12*
X73600000Y-41989000D03*
X75297056Y-37891944D03*
X75297056Y-41286056D03*
X76000000Y-39589000D03*
%TD*%
%TO.P,H2,1,1*%
%TO.N,unconnected-(H2-Pad1)*%
X121665056Y-76846056D03*
X122368000Y-75149000D03*
X122368000Y-78543112D03*
X124065056Y-74446056D03*
D13*
X124065056Y-76846056D03*
D12*
X124065056Y-79246056D03*
X125762112Y-75149000D03*
X125762112Y-78543112D03*
X126465056Y-76846056D03*
%TD*%
D14*
%TO.P,J6,1,Pin_1*%
%TO.N,+3V3*%
X124290000Y-39360000D03*
D15*
%TO.P,J6,2,Pin_2*%
%TO.N,GND*%
X124290000Y-41860000D03*
%TO.P,J6,3,Pin_3*%
%TO.N,RXD*%
X124290000Y-44360000D03*
%TO.P,J6,4,Pin_4*%
%TO.N,TXD*%
X124290000Y-46860000D03*
%TO.P,J6,5,Pin_5*%
%TO.N,RESET*%
X124290000Y-49360000D03*
%TD*%
D16*
%TO.P,J1,1,Pin_1*%
%TO.N,UPDI*%
X104740000Y-83580000D03*
D17*
%TO.P,J1,2,Pin_2*%
%TO.N,+3V3*%
X104740000Y-86120000D03*
%TO.P,J1,3,Pin_3*%
%TO.N,unconnected-(J1-Pin_3-Pad3)*%
X102200000Y-83580000D03*
%TO.P,J1,4,Pin_4*%
%TO.N,unconnected-(J1-Pin_4-Pad4)*%
X102200000Y-86120000D03*
%TO.P,J1,5,Pin_5*%
%TO.N,unconnected-(J1-Pin_5-Pad5)*%
X99660000Y-83580000D03*
%TO.P,J1,6,Pin_6*%
%TO.N,GND*%
X99660000Y-86120000D03*
%TD*%
D18*
%TO.P,J2,1,Pin_1*%
%TO.N,KEY*%
X94790000Y-38945000D03*
D19*
%TO.P,J2,2,Pin_2*%
%TO.N,GND*%
X97290000Y-38945000D03*
%TD*%
D20*
%TO.P,J3,1,Pin_1*%
%TO.N,+3V3*%
X109800000Y-84720000D03*
D21*
%TO.P,J3,2,Pin_2*%
%TO.N,GND*%
X112300000Y-84720000D03*
%TO.P,J3,3,Pin_3*%
%TO.N,RXD*%
X114800000Y-84720000D03*
%TO.P,J3,4,Pin_4*%
%TO.N,TXD*%
X117300000Y-84720000D03*
%TO.P,J3,5,Pin_5*%
%TO.N,RESET*%
X119800000Y-84720000D03*
%TD*%
D18*
%TO.P,J8,1,Pin_1*%
%TO.N,KEY*%
X91200000Y-84720000D03*
D19*
%TO.P,J8,2,Pin_2*%
%TO.N,GND*%
X93700000Y-84720000D03*
%TD*%
D20*
%TO.P,J7,1,Pin_1*%
%TO.N,+12V*%
X77200000Y-84720000D03*
D21*
%TO.P,J7,2,Pin_2*%
%TO.N,GND*%
X79700000Y-84720000D03*
%TO.P,J7,3,Pin_3*%
%TO.N,INSTR.BEL*%
X82200000Y-84720000D03*
%TO.P,J7,4,Pin_4*%
%TO.N,GND*%
X84700000Y-84720000D03*
%TD*%
D16*
%TO.P,J5,1,Pin_1*%
%TO.N,+3V3*%
X72100000Y-71940000D03*
D17*
%TO.P,J5,2,Pin_2*%
%TO.N,UPDI*%
X72100000Y-74480000D03*
%TO.P,J5,3,Pin_3*%
%TO.N,GND*%
X72100000Y-77020000D03*
%TD*%
D20*
%TO.P,J4,1,Pin_1*%
%TO.N,+12V*%
X81290000Y-38955000D03*
D21*
%TO.P,J4,2,Pin_2*%
%TO.N,GND*%
X83790000Y-38955000D03*
%TO.P,J4,3,Pin_3*%
%TO.N,INSTR.BEL*%
X86290000Y-38955000D03*
%TO.P,J4,4,Pin_4*%
%TO.N,GND*%
X88790000Y-38955000D03*
%TD*%
D22*
%TO.N,GND*%
X89134000Y-39766000D02*
X89134000Y-38954000D01*
%TO.N,KEY*%
X91200000Y-84720000D02*
X91200000Y-52920000D01*
X91200000Y-52920000D02*
X94790000Y-49330000D01*
X94790000Y-49330000D02*
X94790000Y-38945000D01*
D23*
%TO.N,+12V*%
X81290000Y-48830000D02*
X81290000Y-38955000D01*
X77200000Y-52920000D02*
X81290000Y-48830000D01*
X77200000Y-84720000D02*
X77200000Y-52920000D01*
D22*
%TO.N,INSTR.BEL*%
X82200000Y-84720000D02*
X82200000Y-52920000D01*
X82200000Y-52920000D02*
X86290000Y-48830000D01*
X86290000Y-48830000D02*
X86290000Y-38955000D01*
%TD*%
%TA.AperFunction,Conductor*%
%TO.N,GND*%
G36*
X84044000Y-40414437D02*
G01*
X84189093Y-40383167D01*
X84403587Y-40296977D01*
X84600435Y-40175772D01*
X84773961Y-40023048D01*
X84773964Y-40023045D01*
X84919180Y-39843199D01*
X85031922Y-39641382D01*
X85058734Y-39565499D01*
X85100287Y-39507933D01*
X85166366Y-39481971D01*
X85235992Y-39495856D01*
X85287058Y-39545179D01*
X85289529Y-39549738D01*
X85356607Y-39679851D01*
X85356611Y-39679858D01*
X85486994Y-39845652D01*
X85487006Y-39845665D01*
X85608815Y-39951213D01*
X85646413Y-39983792D01*
X85829087Y-40089259D01*
X85829088Y-40089259D01*
X85829091Y-40089261D01*
X85834553Y-40091756D01*
X85833642Y-40093749D01*
X85883514Y-40129235D01*
X85909925Y-40195136D01*
X85910500Y-40207160D01*
X85910500Y-48620615D01*
X85890498Y-48688736D01*
X85873595Y-48709710D01*
X81968724Y-52614580D01*
X81948551Y-52630964D01*
X81939419Y-52636930D01*
X81939416Y-52636933D01*
X81917394Y-52665227D01*
X81912231Y-52671073D01*
X81911883Y-52671423D01*
X81909415Y-52673890D01*
X81895705Y-52693093D01*
X81861628Y-52736876D01*
X81857835Y-52743884D01*
X81854346Y-52751022D01*
X81838520Y-52804182D01*
X81820499Y-52856673D01*
X81819194Y-52864495D01*
X81818207Y-52872410D01*
X81820500Y-52927825D01*
X81820500Y-83473108D01*
X81800498Y-83541229D01*
X81746844Y-83587721D01*
X81645238Y-83634124D01*
X81473416Y-83756478D01*
X81473412Y-83756481D01*
X81327851Y-83909142D01*
X81213816Y-84086586D01*
X81213815Y-84086588D01*
X81204769Y-84109182D01*
X81160879Y-84164987D01*
X81093787Y-84188206D01*
X81024792Y-84171465D01*
X80975801Y-84120080D01*
X80972981Y-84114247D01*
X80889842Y-83930321D01*
X80889839Y-83930315D01*
X80760393Y-83738794D01*
X80760387Y-83738786D01*
X80600443Y-83571903D01*
X80600435Y-83571897D01*
X80414586Y-83434443D01*
X80208165Y-83330369D01*
X79987137Y-83262680D01*
X79954000Y-83258435D01*
X79954000Y-84313808D01*
X79835199Y-84259554D01*
X79733975Y-84245000D01*
X79666025Y-84245000D01*
X79564801Y-84259554D01*
X79446000Y-84313808D01*
X79446000Y-83260561D01*
X79300906Y-83291831D01*
X79086412Y-83378022D01*
X78889564Y-83499227D01*
X78716038Y-83651951D01*
X78716035Y-83651954D01*
X78570817Y-83831802D01*
X78527835Y-83908744D01*
X78477151Y-83958459D01*
X78407634Y-83972879D01*
X78341356Y-83947427D01*
X78299780Y-83891326D01*
X78298040Y-83886662D01*
X78298040Y-83886658D01*
X78247342Y-83750733D01*
X78160404Y-83634596D01*
X78044267Y-83547658D01*
X78044265Y-83547657D01*
X78044266Y-83547657D01*
X77908349Y-83496962D01*
X77908344Y-83496960D01*
X77908342Y-83496960D01*
X77900831Y-83496152D01*
X77848262Y-83490500D01*
X77848255Y-83490500D01*
X77755500Y-83490500D01*
X77687379Y-83470498D01*
X77640886Y-83416842D01*
X77629500Y-83364500D01*
X77629500Y-53150094D01*
X77649502Y-53081973D01*
X77666405Y-53060999D01*
X78591201Y-52136203D01*
X81574157Y-49153246D01*
X81579403Y-49148558D01*
X81608402Y-49125434D01*
X81640348Y-49078576D01*
X81674016Y-49032959D01*
X81674017Y-49032956D01*
X81677814Y-49025772D01*
X81681333Y-49018462D01*
X81681337Y-49018458D01*
X81687922Y-48997110D01*
X81698054Y-48964265D01*
X81709401Y-48931834D01*
X81716779Y-48910751D01*
X81716779Y-48910745D01*
X81718289Y-48902765D01*
X81719500Y-48894735D01*
X81719500Y-48838013D01*
X81721619Y-48781367D01*
X81720562Y-48771985D01*
X81721475Y-48771882D01*
X81719500Y-48756871D01*
X81719500Y-40310499D01*
X81739502Y-40242378D01*
X81793158Y-40195885D01*
X81845500Y-40184499D01*
X81938247Y-40184499D01*
X81938254Y-40184499D01*
X81998342Y-40178040D01*
X82134267Y-40127342D01*
X82250404Y-40040404D01*
X82337342Y-39924267D01*
X82388040Y-39788342D01*
X82388040Y-39788337D01*
X82388485Y-39787146D01*
X82431032Y-39730311D01*
X82497553Y-39705500D01*
X82566927Y-39720592D01*
X82610933Y-39760622D01*
X82729606Y-39936205D01*
X82729612Y-39936213D01*
X82889556Y-40103096D01*
X82889564Y-40103102D01*
X83075413Y-40240556D01*
X83281834Y-40344630D01*
X83281833Y-40344630D01*
X83502864Y-40412320D01*
X83536000Y-40416562D01*
X83536000Y-39361191D01*
X83654801Y-39415446D01*
X83756025Y-39430000D01*
X83823975Y-39430000D01*
X83925199Y-39415446D01*
X84044000Y-39361191D01*
X84044000Y-40414437D01*
G37*
%TD.AperFunction*%
%TA.AperFunction,Conductor*%
G36*
X73037936Y-35955502D02*
G01*
X73084429Y-36009158D01*
X73094533Y-36079432D01*
X73065039Y-36144012D01*
X73005313Y-36182396D01*
X72996901Y-36184554D01*
X72674473Y-36255525D01*
X72674456Y-36255530D01*
X72319480Y-36375135D01*
X72319468Y-36375140D01*
X71979511Y-36532422D01*
X71979504Y-36532426D01*
X71658533Y-36725548D01*
X71658527Y-36725552D01*
X71360319Y-36952243D01*
X71360304Y-36952256D01*
X71088364Y-37209852D01*
X70845859Y-37495352D01*
X70845857Y-37495355D01*
X70635639Y-37805403D01*
X70635636Y-37805408D01*
X70635635Y-37805410D01*
X70460175Y-38136365D01*
X70460171Y-38136374D01*
X70321524Y-38484352D01*
X70221307Y-38845298D01*
X70160706Y-39214953D01*
X70140426Y-39588996D01*
X70140426Y-39589003D01*
X70160706Y-39963046D01*
X70221307Y-40332701D01*
X70286514Y-40567553D01*
X70321524Y-40693647D01*
X70460176Y-41041637D01*
X70635639Y-41372597D01*
X70845857Y-41682645D01*
X70845859Y-41682647D01*
X71088364Y-41968147D01*
X71360304Y-42225743D01*
X71360319Y-42225756D01*
X71658532Y-42452451D01*
X71979506Y-42645575D01*
X72033240Y-42670435D01*
X72319468Y-42802859D01*
X72319480Y-42802864D01*
X72674466Y-42922473D01*
X73040303Y-43002999D01*
X73412702Y-43043500D01*
X73412710Y-43043500D01*
X73787290Y-43043500D01*
X73787298Y-43043500D01*
X74159697Y-43002999D01*
X74525534Y-42922473D01*
X74880520Y-42802864D01*
X75220494Y-42645575D01*
X75541468Y-42452451D01*
X75839681Y-42225756D01*
X76111635Y-41968147D01*
X76354143Y-41682645D01*
X76564361Y-41372597D01*
X76739824Y-41041637D01*
X76878476Y-40693647D01*
X76978691Y-40332706D01*
X77039294Y-39963046D01*
X77059574Y-39589000D01*
X77058042Y-39560752D01*
X77053771Y-39481971D01*
X77039294Y-39214954D01*
X76985480Y-38886705D01*
X76978692Y-38845298D01*
X76978691Y-38845294D01*
X76878476Y-38484353D01*
X76739824Y-38136363D01*
X76564361Y-37805403D01*
X76354143Y-37495355D01*
X76269941Y-37396225D01*
X76111635Y-37209852D01*
X75839695Y-36952256D01*
X75839680Y-36952243D01*
X75541472Y-36725552D01*
X75541466Y-36725548D01*
X75220494Y-36532425D01*
X75220488Y-36532422D01*
X74880531Y-36375140D01*
X74880519Y-36375135D01*
X74525543Y-36255530D01*
X74525542Y-36255529D01*
X74525534Y-36255527D01*
X74525529Y-36255525D01*
X74525526Y-36255525D01*
X74203099Y-36184554D01*
X74140871Y-36150376D01*
X74106999Y-36087980D01*
X74112238Y-36017177D01*
X74154925Y-35960446D01*
X74221506Y-35935799D01*
X74230185Y-35935500D01*
X75784928Y-35935500D01*
X78784928Y-35935500D01*
X122184928Y-35935500D01*
X125184928Y-35935500D01*
X127538500Y-35935500D01*
X127606621Y-35955502D01*
X127653114Y-36009158D01*
X127664500Y-36061500D01*
X127664500Y-75972642D01*
X127644498Y-76040763D01*
X127590842Y-76087256D01*
X127520568Y-76097360D01*
X127455988Y-76067866D01*
X127417604Y-76008140D01*
X127417093Y-76006351D01*
X127381798Y-75879231D01*
X127343532Y-75741409D01*
X127204880Y-75393419D01*
X127029417Y-75062459D01*
X126819199Y-74752411D01*
X126734997Y-74653281D01*
X126576691Y-74466908D01*
X126304751Y-74209312D01*
X126304736Y-74209299D01*
X126006528Y-73982608D01*
X126006522Y-73982604D01*
X125685550Y-73789481D01*
X125685544Y-73789478D01*
X125345587Y-73632196D01*
X125345575Y-73632191D01*
X124990599Y-73512586D01*
X124990598Y-73512585D01*
X124990590Y-73512583D01*
X124990585Y-73512581D01*
X124990582Y-73512581D01*
X124624770Y-73432060D01*
X124624741Y-73432055D01*
X124252361Y-73391556D01*
X124252354Y-73391556D01*
X123877758Y-73391556D01*
X123877750Y-73391556D01*
X123505370Y-73432055D01*
X123505341Y-73432060D01*
X123139529Y-73512581D01*
X123139512Y-73512586D01*
X122784536Y-73632191D01*
X122784524Y-73632196D01*
X122444567Y-73789478D01*
X122444560Y-73789482D01*
X122123589Y-73982604D01*
X122123583Y-73982608D01*
X121825375Y-74209299D01*
X121825360Y-74209312D01*
X121553420Y-74466908D01*
X121310915Y-74752408D01*
X121310913Y-74752411D01*
X121100695Y-75062459D01*
X121100692Y-75062464D01*
X121100691Y-75062466D01*
X120925231Y-75393421D01*
X120925227Y-75393430D01*
X120786580Y-75741408D01*
X120686363Y-76102354D01*
X120625762Y-76472009D01*
X120605482Y-76846052D01*
X120605482Y-76846059D01*
X120625762Y-77220102D01*
X120686363Y-77589757D01*
X120786580Y-77950703D01*
X120870277Y-78160768D01*
X120925232Y-78298693D01*
X121100695Y-78629653D01*
X121310913Y-78939701D01*
X121310915Y-78939703D01*
X121553420Y-79225203D01*
X121825360Y-79482799D01*
X121825375Y-79482812D01*
X122123588Y-79709507D01*
X122444562Y-79902631D01*
X122567671Y-79959587D01*
X122784524Y-80059915D01*
X122784536Y-80059920D01*
X123139522Y-80179529D01*
X123505359Y-80260055D01*
X123877758Y-80300556D01*
X123877766Y-80300556D01*
X124252346Y-80300556D01*
X124252354Y-80300556D01*
X124624753Y-80260055D01*
X124990590Y-80179529D01*
X125345576Y-80059920D01*
X125685550Y-79902631D01*
X126006524Y-79709507D01*
X126304737Y-79482812D01*
X126576691Y-79225203D01*
X126819199Y-78939701D01*
X127029417Y-78629653D01*
X127204880Y-78298693D01*
X127343532Y-77950703D01*
X127417093Y-77685759D01*
X127454590Y-77625474D01*
X127518728Y-77595030D01*
X127589144Y-77604095D01*
X127643480Y-77649790D01*
X127664486Y-77717608D01*
X127664500Y-77719469D01*
X127664500Y-88058500D01*
X127644498Y-88126621D01*
X127590842Y-88173114D01*
X127538500Y-88184500D01*
X69941500Y-88184500D01*
X69873379Y-88164498D01*
X69826886Y-88110842D01*
X69815500Y-88058500D01*
X69815500Y-86374000D01*
X98323455Y-86374000D01*
X98371176Y-86562449D01*
X98371179Y-86562456D01*
X98461580Y-86768548D01*
X98584674Y-86956958D01*
X98737097Y-87122534D01*
X98914698Y-87260767D01*
X98914699Y-87260768D01*
X99112628Y-87367882D01*
X99112630Y-87367883D01*
X99325483Y-87440955D01*
X99325492Y-87440957D01*
X99406000Y-87454391D01*
X99406000Y-86553674D01*
X99517685Y-86604680D01*
X99624237Y-86620000D01*
X99695763Y-86620000D01*
X99802315Y-86604680D01*
X99914000Y-86553674D01*
X99914000Y-87454390D01*
X99994507Y-87440957D01*
X99994516Y-87440955D01*
X100207369Y-87367883D01*
X100207371Y-87367882D01*
X100405300Y-87260768D01*
X100405301Y-87260767D01*
X100582902Y-87122534D01*
X100735325Y-86956958D01*
X100858419Y-86768548D01*
X100950916Y-86557680D01*
X100952538Y-86558391D01*
X100989051Y-86506816D01*
X101054889Y-86480248D01*
X101124640Y-86493492D01*
X101176157Y-86542343D01*
X101180002Y-86549481D01*
X101256908Y-86703930D01*
X101256912Y-86703935D01*
X101380266Y-86867284D01*
X101531536Y-87005185D01*
X101705566Y-87112940D01*
X101705568Y-87112940D01*
X101705573Y-87112944D01*
X101896444Y-87186888D01*
X102097653Y-87224500D01*
X102097655Y-87224500D01*
X102302345Y-87224500D01*
X102302347Y-87224500D01*
X102503556Y-87186888D01*
X102694427Y-87112944D01*
X102868462Y-87005186D01*
X103019732Y-86867285D01*
X103143088Y-86703935D01*
X103234328Y-86520701D01*
X103290345Y-86323821D01*
X103301604Y-86202320D01*
X103309232Y-86120004D01*
X103630768Y-86120004D01*
X103649654Y-86323819D01*
X103663932Y-86374000D01*
X103705672Y-86520701D01*
X103796912Y-86703935D01*
X103796913Y-86703936D01*
X103920266Y-86867284D01*
X104071536Y-87005185D01*
X104245566Y-87112940D01*
X104245568Y-87112940D01*
X104245573Y-87112944D01*
X104436444Y-87186888D01*
X104637653Y-87224500D01*
X104637655Y-87224500D01*
X104842345Y-87224500D01*
X104842347Y-87224500D01*
X105043556Y-87186888D01*
X105234427Y-87112944D01*
X105408462Y-87005186D01*
X105559732Y-86867285D01*
X105683088Y-86703935D01*
X105774328Y-86520701D01*
X105830345Y-86323821D01*
X105841604Y-86202320D01*
X105849232Y-86120004D01*
X105849232Y-86119995D01*
X105830345Y-85916180D01*
X105828631Y-85910156D01*
X105774328Y-85719299D01*
X105683088Y-85536065D01*
X105650753Y-85493246D01*
X108695500Y-85493246D01*
X108695502Y-85493270D01*
X108701959Y-85553339D01*
X108701959Y-85553341D01*
X108752657Y-85689266D01*
X108771373Y-85714268D01*
X108839596Y-85805404D01*
X108955733Y-85892342D01*
X109091658Y-85943040D01*
X109151745Y-85949500D01*
X110448254Y-85949499D01*
X110508342Y-85943040D01*
X110644267Y-85892342D01*
X110760404Y-85805404D01*
X110847342Y-85689267D01*
X110898040Y-85553342D01*
X110898040Y-85553337D01*
X110898485Y-85552146D01*
X110941032Y-85495311D01*
X111007553Y-85470500D01*
X111076927Y-85485592D01*
X111120933Y-85525622D01*
X111239606Y-85701205D01*
X111239612Y-85701213D01*
X111399556Y-85868096D01*
X111399564Y-85868102D01*
X111585413Y-86005556D01*
X111791834Y-86109630D01*
X111791833Y-86109630D01*
X112012864Y-86177320D01*
X112046000Y-86181562D01*
X112046000Y-85126191D01*
X112164801Y-85180446D01*
X112266025Y-85195000D01*
X112333975Y-85195000D01*
X112435199Y-85180446D01*
X112554000Y-85126191D01*
X112554000Y-86179437D01*
X112699093Y-86148167D01*
X112913587Y-86061977D01*
X113110435Y-85940772D01*
X113283961Y-85788048D01*
X113283964Y-85788045D01*
X113429180Y-85608199D01*
X113541922Y-85406382D01*
X113568734Y-85330499D01*
X113610287Y-85272933D01*
X113676366Y-85246971D01*
X113745992Y-85260856D01*
X113797058Y-85310179D01*
X113799529Y-85314738D01*
X113866607Y-85444851D01*
X113866611Y-85444858D01*
X113996994Y-85610652D01*
X113997006Y-85610665D01*
X114143963Y-85738004D01*
X114156413Y-85748792D01*
X114339087Y-85854259D01*
X114538420Y-85923248D01*
X114538423Y-85923248D01*
X114538425Y-85923249D01*
X114747205Y-85953267D01*
X114747206Y-85953266D01*
X114747207Y-85953267D01*
X114957902Y-85943231D01*
X115162890Y-85893501D01*
X115354762Y-85805876D01*
X115526584Y-85683522D01*
X115672145Y-85530862D01*
X115786184Y-85353413D01*
X115864580Y-85157589D01*
X115904500Y-84950467D01*
X115904500Y-84897630D01*
X116195500Y-84897630D01*
X116210525Y-85054969D01*
X116210528Y-85054984D01*
X116269953Y-85257370D01*
X116366607Y-85444851D01*
X116366611Y-85444858D01*
X116496994Y-85610652D01*
X116497006Y-85610665D01*
X116643963Y-85738004D01*
X116656413Y-85748792D01*
X116839087Y-85854259D01*
X117038420Y-85923248D01*
X117038423Y-85923248D01*
X117038425Y-85923249D01*
X117247205Y-85953267D01*
X117247206Y-85953266D01*
X117247207Y-85953267D01*
X117457902Y-85943231D01*
X117662890Y-85893501D01*
X117854762Y-85805876D01*
X118026584Y-85683522D01*
X118172145Y-85530862D01*
X118286184Y-85353413D01*
X118364580Y-85157589D01*
X118404500Y-84950467D01*
X118404500Y-84897630D01*
X118695500Y-84897630D01*
X118710525Y-85054969D01*
X118710528Y-85054984D01*
X118769953Y-85257370D01*
X118866607Y-85444851D01*
X118866611Y-85444858D01*
X118996994Y-85610652D01*
X118997006Y-85610665D01*
X119143963Y-85738004D01*
X119156413Y-85748792D01*
X119339087Y-85854259D01*
X119538420Y-85923248D01*
X119538423Y-85923248D01*
X119538425Y-85923249D01*
X119747205Y-85953267D01*
X119747206Y-85953266D01*
X119747207Y-85953267D01*
X119957902Y-85943231D01*
X120162890Y-85893501D01*
X120354762Y-85805876D01*
X120526584Y-85683522D01*
X120672145Y-85530862D01*
X120786184Y-85353413D01*
X120864580Y-85157589D01*
X120904500Y-84950467D01*
X120904500Y-84542387D01*
X120904499Y-84542369D01*
X120889474Y-84385030D01*
X120889473Y-84385028D01*
X120889473Y-84385021D01*
X120830047Y-84182632D01*
X120830046Y-84182631D01*
X120830046Y-84182629D01*
X120733392Y-83995148D01*
X120733388Y-83995141D01*
X120603005Y-83829347D01*
X120603003Y-83829344D01*
X120603000Y-83829341D01*
X120602997Y-83829338D01*
X120602993Y-83829334D01*
X120443592Y-83691212D01*
X120443584Y-83691206D01*
X120260916Y-83585743D01*
X120260918Y-83585743D01*
X120260913Y-83585741D01*
X120061580Y-83516752D01*
X120061578Y-83516751D01*
X120061574Y-83516750D01*
X119852794Y-83486732D01*
X119642106Y-83496768D01*
X119642095Y-83496769D01*
X119437113Y-83546498D01*
X119437111Y-83546498D01*
X119245236Y-83634125D01*
X119073416Y-83756478D01*
X119073412Y-83756481D01*
X118927851Y-83909142D01*
X118813816Y-84086586D01*
X118735419Y-84282414D01*
X118695500Y-84489528D01*
X118695500Y-84897630D01*
X118404500Y-84897630D01*
X118404500Y-84542387D01*
X118404499Y-84542369D01*
X118389474Y-84385030D01*
X118389473Y-84385028D01*
X118389473Y-84385021D01*
X118330047Y-84182632D01*
X118330046Y-84182631D01*
X118330046Y-84182629D01*
X118233392Y-83995148D01*
X118233388Y-83995141D01*
X118103005Y-83829347D01*
X118103003Y-83829344D01*
X118103000Y-83829341D01*
X118102997Y-83829338D01*
X118102993Y-83829334D01*
X117943592Y-83691212D01*
X117943584Y-83691206D01*
X117760916Y-83585743D01*
X117760918Y-83585743D01*
X117760913Y-83585741D01*
X117561580Y-83516752D01*
X117561578Y-83516751D01*
X117561574Y-83516750D01*
X117352794Y-83486732D01*
X117142106Y-83496768D01*
X117142095Y-83496769D01*
X116937113Y-83546498D01*
X116937111Y-83546498D01*
X116745236Y-83634125D01*
X116573416Y-83756478D01*
X116573412Y-83756481D01*
X116427851Y-83909142D01*
X116313816Y-84086586D01*
X116235419Y-84282414D01*
X116195500Y-84489528D01*
X116195500Y-84897630D01*
X115904500Y-84897630D01*
X115904500Y-84542387D01*
X115904499Y-84542369D01*
X115889474Y-84385030D01*
X115889473Y-84385028D01*
X115889473Y-84385021D01*
X115830047Y-84182632D01*
X115830046Y-84182631D01*
X115830046Y-84182629D01*
X115733392Y-83995148D01*
X115733388Y-83995141D01*
X115603005Y-83829347D01*
X115603003Y-83829344D01*
X115603000Y-83829341D01*
X115602997Y-83829338D01*
X115602993Y-83829334D01*
X115443592Y-83691212D01*
X115443584Y-83691206D01*
X115260916Y-83585743D01*
X115260918Y-83585743D01*
X115260913Y-83585741D01*
X115061580Y-83516752D01*
X115061578Y-83516751D01*
X115061574Y-83516750D01*
X114852794Y-83486732D01*
X114642106Y-83496768D01*
X114642095Y-83496769D01*
X114437113Y-83546498D01*
X114437111Y-83546498D01*
X114245236Y-83634125D01*
X114073416Y-83756478D01*
X114073412Y-83756481D01*
X113927851Y-83909142D01*
X113813816Y-84086586D01*
X113813815Y-84086588D01*
X113804769Y-84109182D01*
X113760879Y-84164987D01*
X113693787Y-84188206D01*
X113624792Y-84171465D01*
X113575801Y-84120080D01*
X113572981Y-84114247D01*
X113489842Y-83930321D01*
X113489839Y-83930315D01*
X113360393Y-83738794D01*
X113360387Y-83738786D01*
X113200443Y-83571903D01*
X113200435Y-83571897D01*
X113014586Y-83434443D01*
X112808165Y-83330369D01*
X112587137Y-83262680D01*
X112554000Y-83258435D01*
X112554000Y-84313808D01*
X112435199Y-84259554D01*
X112333975Y-84245000D01*
X112266025Y-84245000D01*
X112164801Y-84259554D01*
X112046000Y-84313808D01*
X112046000Y-83260561D01*
X111900906Y-83291831D01*
X111686412Y-83378022D01*
X111489564Y-83499227D01*
X111316038Y-83651951D01*
X111316035Y-83651954D01*
X111170817Y-83831802D01*
X111127835Y-83908744D01*
X111077151Y-83958459D01*
X111007634Y-83972879D01*
X110941356Y-83947427D01*
X110899780Y-83891326D01*
X110898040Y-83886662D01*
X110898040Y-83886658D01*
X110847342Y-83750733D01*
X110760404Y-83634596D01*
X110644267Y-83547658D01*
X110644265Y-83547657D01*
X110644266Y-83547657D01*
X110508349Y-83496962D01*
X110508344Y-83496960D01*
X110508342Y-83496960D01*
X110478298Y-83493730D01*
X110448256Y-83490500D01*
X109151753Y-83490500D01*
X109151729Y-83490502D01*
X109091660Y-83496959D01*
X109091658Y-83496959D01*
X108955733Y-83547657D01*
X108839596Y-83634596D01*
X108752657Y-83750734D01*
X108701962Y-83886650D01*
X108701960Y-83886658D01*
X108695500Y-83946737D01*
X108695500Y-85493246D01*
X105650753Y-85493246D01*
X105614209Y-85444854D01*
X105559733Y-85372715D01*
X105408463Y-85234814D01*
X105234433Y-85127059D01*
X105234428Y-85127057D01*
X105234427Y-85127056D01*
X105209670Y-85117465D01*
X105043559Y-85053113D01*
X105043560Y-85053113D01*
X105043557Y-85053112D01*
X105043556Y-85053112D01*
X104842347Y-85015500D01*
X104637653Y-85015500D01*
X104448823Y-85050798D01*
X104436439Y-85053113D01*
X104245577Y-85127054D01*
X104245566Y-85127059D01*
X104071536Y-85234814D01*
X103920266Y-85372715D01*
X103796913Y-85536063D01*
X103705671Y-85719301D01*
X103649654Y-85916180D01*
X103630768Y-86119995D01*
X103630768Y-86120004D01*
X103309232Y-86120004D01*
X103309232Y-86119995D01*
X103290345Y-85916180D01*
X103288631Y-85910156D01*
X103234328Y-85719299D01*
X103143088Y-85536065D01*
X103074209Y-85444854D01*
X103019733Y-85372715D01*
X102868463Y-85234814D01*
X102694433Y-85127059D01*
X102694428Y-85127057D01*
X102694427Y-85127056D01*
X102669670Y-85117465D01*
X102503559Y-85053113D01*
X102503560Y-85053113D01*
X102503557Y-85053112D01*
X102503556Y-85053112D01*
X102302347Y-85015500D01*
X102097653Y-85015500D01*
X101908823Y-85050798D01*
X101896439Y-85053113D01*
X101705577Y-85127054D01*
X101705566Y-85127059D01*
X101531536Y-85234814D01*
X101380266Y-85372715D01*
X101256912Y-85536064D01*
X101256908Y-85536069D01*
X101180002Y-85690518D01*
X101131733Y-85742582D01*
X101062979Y-85760284D01*
X100995568Y-85738004D01*
X100950905Y-85682817D01*
X100949432Y-85678938D01*
X100858419Y-85471451D01*
X100735325Y-85283041D01*
X100582902Y-85117465D01*
X100405301Y-84979232D01*
X100405300Y-84979231D01*
X100207371Y-84872117D01*
X100207369Y-84872116D01*
X100096195Y-84833951D01*
X100038260Y-84792914D01*
X100011708Y-84727069D01*
X100024969Y-84657322D01*
X100073834Y-84605817D01*
X100091581Y-84597290D01*
X100154427Y-84572944D01*
X100328462Y-84465186D01*
X100479732Y-84327285D01*
X100603088Y-84163935D01*
X100694328Y-83980701D01*
X100750345Y-83783821D01*
X100758927Y-83691206D01*
X100769232Y-83580004D01*
X101090768Y-83580004D01*
X101109654Y-83783819D01*
X101163446Y-83972879D01*
X101165672Y-83980701D01*
X101256912Y-84163935D01*
X101268397Y-84179143D01*
X101380266Y-84327284D01*
X101531536Y-84465185D01*
X101705566Y-84572940D01*
X101705568Y-84572940D01*
X101705573Y-84572944D01*
X101896444Y-84646888D01*
X102097653Y-84684500D01*
X102097655Y-84684500D01*
X102302345Y-84684500D01*
X102302347Y-84684500D01*
X102503556Y-84646888D01*
X102694427Y-84572944D01*
X102868462Y-84465186D01*
X102879566Y-84455063D01*
X103635500Y-84455063D01*
X103635501Y-84455073D01*
X103650265Y-84529300D01*
X103706516Y-84613484D01*
X103790697Y-84669733D01*
X103790699Y-84669734D01*
X103864933Y-84684500D01*
X105615066Y-84684499D01*
X105615069Y-84684498D01*
X105615073Y-84684498D01*
X105664326Y-84674701D01*
X105689301Y-84669734D01*
X105773484Y-84613484D01*
X105829734Y-84529301D01*
X105844500Y-84455067D01*
X105844499Y-82704934D01*
X105844498Y-82704930D01*
X105844498Y-82704926D01*
X105829734Y-82630699D01*
X105773483Y-82546515D01*
X105689302Y-82490266D01*
X105615067Y-82475500D01*
X103864936Y-82475500D01*
X103864926Y-82475501D01*
X103790699Y-82490265D01*
X103706515Y-82546516D01*
X103650266Y-82630697D01*
X103635500Y-82704930D01*
X103635500Y-84455063D01*
X102879566Y-84455063D01*
X103019732Y-84327285D01*
X103143088Y-84163935D01*
X103234328Y-83980701D01*
X103290345Y-83783821D01*
X103298927Y-83691206D01*
X103309232Y-83580004D01*
X103309232Y-83579995D01*
X103290345Y-83376180D01*
X103277311Y-83330369D01*
X103234328Y-83179299D01*
X103143088Y-82996065D01*
X103102538Y-82942368D01*
X103019733Y-82832715D01*
X102868463Y-82694814D01*
X102694433Y-82587059D01*
X102694428Y-82587057D01*
X102694427Y-82587056D01*
X102694422Y-82587054D01*
X102503559Y-82513113D01*
X102503560Y-82513113D01*
X102503557Y-82513112D01*
X102503556Y-82513112D01*
X102302347Y-82475500D01*
X102097653Y-82475500D01*
X101896444Y-82513112D01*
X101896439Y-82513113D01*
X101705577Y-82587054D01*
X101705566Y-82587059D01*
X101531536Y-82694814D01*
X101380266Y-82832715D01*
X101256913Y-82996063D01*
X101165671Y-83179301D01*
X101109654Y-83376180D01*
X101090768Y-83579995D01*
X101090768Y-83580004D01*
X100769232Y-83580004D01*
X100769232Y-83579995D01*
X100750345Y-83376180D01*
X100737311Y-83330369D01*
X100694328Y-83179299D01*
X100603088Y-82996065D01*
X100562538Y-82942368D01*
X100479733Y-82832715D01*
X100328463Y-82694814D01*
X100154433Y-82587059D01*
X100154428Y-82587057D01*
X100154427Y-82587056D01*
X100154422Y-82587054D01*
X99963559Y-82513113D01*
X99963560Y-82513113D01*
X99963557Y-82513112D01*
X99963556Y-82513112D01*
X99762347Y-82475500D01*
X99557653Y-82475500D01*
X99356444Y-82513112D01*
X99356439Y-82513113D01*
X99165577Y-82587054D01*
X99165566Y-82587059D01*
X98991536Y-82694814D01*
X98840266Y-82832715D01*
X98716913Y-82996063D01*
X98625671Y-83179301D01*
X98569654Y-83376180D01*
X98550768Y-83579995D01*
X98550768Y-83580004D01*
X98569654Y-83783819D01*
X98623446Y-83972879D01*
X98625672Y-83980701D01*
X98716912Y-84163935D01*
X98728397Y-84179143D01*
X98840266Y-84327284D01*
X98991536Y-84465185D01*
X99165566Y-84572940D01*
X99165568Y-84572940D01*
X99165573Y-84572944D01*
X99215333Y-84592221D01*
X99228409Y-84597287D01*
X99284704Y-84640546D01*
X99308674Y-84707374D01*
X99292710Y-84776552D01*
X99241879Y-84826118D01*
X99223804Y-84833951D01*
X99112631Y-84872116D01*
X99112628Y-84872117D01*
X98914699Y-84979231D01*
X98914698Y-84979232D01*
X98737097Y-85117465D01*
X98584674Y-85283041D01*
X98461580Y-85471451D01*
X98371179Y-85677543D01*
X98371176Y-85677550D01*
X98323455Y-85865999D01*
X98323456Y-85866000D01*
X99228884Y-85866000D01*
X99200507Y-85910156D01*
X99160000Y-86048111D01*
X99160000Y-86191889D01*
X99200507Y-86329844D01*
X99228884Y-86374000D01*
X98323455Y-86374000D01*
X69815500Y-86374000D01*
X69815500Y-85493246D01*
X76095500Y-85493246D01*
X76095502Y-85493270D01*
X76101959Y-85553339D01*
X76101959Y-85553341D01*
X76152657Y-85689266D01*
X76171373Y-85714268D01*
X76239596Y-85805404D01*
X76355733Y-85892342D01*
X76491658Y-85943040D01*
X76551745Y-85949500D01*
X77848254Y-85949499D01*
X77908342Y-85943040D01*
X78044267Y-85892342D01*
X78160404Y-85805404D01*
X78247342Y-85689267D01*
X78298040Y-85553342D01*
X78298040Y-85553337D01*
X78298485Y-85552146D01*
X78341032Y-85495311D01*
X78407553Y-85470500D01*
X78476927Y-85485592D01*
X78520933Y-85525622D01*
X78639606Y-85701205D01*
X78639612Y-85701213D01*
X78799556Y-85868096D01*
X78799564Y-85868102D01*
X78985413Y-86005556D01*
X79191834Y-86109630D01*
X79191833Y-86109630D01*
X79412864Y-86177320D01*
X79446000Y-86181562D01*
X79446000Y-85126191D01*
X79564801Y-85180446D01*
X79666025Y-85195000D01*
X79733975Y-85195000D01*
X79835199Y-85180446D01*
X79954000Y-85126191D01*
X79954000Y-86179437D01*
X80099093Y-86148167D01*
X80313587Y-86061977D01*
X80510435Y-85940772D01*
X80683961Y-85788048D01*
X80683964Y-85788045D01*
X80829180Y-85608199D01*
X80941922Y-85406382D01*
X80968734Y-85330499D01*
X81010287Y-85272933D01*
X81076366Y-85246971D01*
X81145992Y-85260856D01*
X81197058Y-85310179D01*
X81199529Y-85314738D01*
X81266607Y-85444851D01*
X81266611Y-85444858D01*
X81396994Y-85610652D01*
X81397006Y-85610665D01*
X81543963Y-85738004D01*
X81556413Y-85748792D01*
X81739087Y-85854259D01*
X81938420Y-85923248D01*
X81938423Y-85923248D01*
X81938425Y-85923249D01*
X82147205Y-85953267D01*
X82147206Y-85953266D01*
X82147207Y-85953267D01*
X82357902Y-85943231D01*
X82562890Y-85893501D01*
X82754762Y-85805876D01*
X82926584Y-85683522D01*
X83072145Y-85530862D01*
X83186184Y-85353413D01*
X83195228Y-85330821D01*
X83239115Y-85275015D01*
X83306207Y-85251794D01*
X83375202Y-85268531D01*
X83424196Y-85319914D01*
X83427018Y-85325752D01*
X83510157Y-85509678D01*
X83510160Y-85509684D01*
X83639606Y-85701205D01*
X83639612Y-85701213D01*
X83799556Y-85868096D01*
X83799564Y-85868102D01*
X83985413Y-86005556D01*
X84191834Y-86109630D01*
X84191833Y-86109630D01*
X84412864Y-86177320D01*
X84446000Y-86181562D01*
X84446000Y-85126191D01*
X84564801Y-85180446D01*
X84666025Y-85195000D01*
X84733975Y-85195000D01*
X84835199Y-85180446D01*
X84954000Y-85126191D01*
X84954000Y-86179437D01*
X85099093Y-86148167D01*
X85313587Y-86061977D01*
X85510435Y-85940772D01*
X85683961Y-85788048D01*
X85683964Y-85788045D01*
X85829180Y-85608199D01*
X85879431Y-85518246D01*
X90095500Y-85518246D01*
X90095502Y-85518270D01*
X90101959Y-85578339D01*
X90101959Y-85578341D01*
X90152657Y-85714266D01*
X90170427Y-85738004D01*
X90239596Y-85830404D01*
X90355733Y-85917342D01*
X90491658Y-85968040D01*
X90551745Y-85974500D01*
X91848254Y-85974499D01*
X91908342Y-85968040D01*
X92044267Y-85917342D01*
X92160404Y-85830404D01*
X92247342Y-85714267D01*
X92298040Y-85578342D01*
X92298040Y-85578337D01*
X92298485Y-85577146D01*
X92341032Y-85520311D01*
X92407553Y-85495500D01*
X92476927Y-85510592D01*
X92520933Y-85550622D01*
X92639606Y-85726205D01*
X92639612Y-85726213D01*
X92799556Y-85893096D01*
X92799564Y-85893102D01*
X92985413Y-86030556D01*
X93191834Y-86134630D01*
X93191833Y-86134630D01*
X93412864Y-86202320D01*
X93446000Y-86206562D01*
X93446000Y-85153674D01*
X93557685Y-85204680D01*
X93664237Y-85220000D01*
X93735763Y-85220000D01*
X93842315Y-85204680D01*
X93954000Y-85153674D01*
X93954000Y-86204437D01*
X94099093Y-86173167D01*
X94313587Y-86086977D01*
X94510435Y-85965772D01*
X94683961Y-85813048D01*
X94683964Y-85813045D01*
X94829180Y-85633199D01*
X94941922Y-85431382D01*
X95018931Y-85213429D01*
X95058000Y-84985580D01*
X95058000Y-84974000D01*
X94131116Y-84974000D01*
X94159493Y-84929844D01*
X94200000Y-84791889D01*
X94200000Y-84648111D01*
X94159493Y-84510156D01*
X94131116Y-84466000D01*
X95054058Y-84466000D01*
X95054057Y-84465999D01*
X95043306Y-84339668D01*
X95043304Y-84339661D01*
X94985059Y-84115966D01*
X94889842Y-83905321D01*
X94889839Y-83905315D01*
X94760393Y-83713794D01*
X94760387Y-83713786D01*
X94600443Y-83546903D01*
X94600435Y-83546897D01*
X94414586Y-83409443D01*
X94208165Y-83305369D01*
X93987137Y-83237680D01*
X93954000Y-83233435D01*
X93954000Y-84286325D01*
X93842315Y-84235320D01*
X93735763Y-84220000D01*
X93664237Y-84220000D01*
X93557685Y-84235320D01*
X93446000Y-84286325D01*
X93446000Y-83235561D01*
X93300906Y-83266831D01*
X93086412Y-83353022D01*
X92889564Y-83474227D01*
X92716038Y-83626951D01*
X92716035Y-83626954D01*
X92570817Y-83806802D01*
X92527835Y-83883744D01*
X92477151Y-83933459D01*
X92407634Y-83947879D01*
X92341356Y-83922427D01*
X92299780Y-83866326D01*
X92298040Y-83861662D01*
X92298040Y-83861658D01*
X92247342Y-83725733D01*
X92160404Y-83609596D01*
X92044267Y-83522658D01*
X92044265Y-83522657D01*
X92044266Y-83522657D01*
X91908349Y-83471962D01*
X91908344Y-83471960D01*
X91908342Y-83471960D01*
X91900831Y-83471152D01*
X91848262Y-83465500D01*
X91848255Y-83465500D01*
X91705500Y-83465500D01*
X91637379Y-83445498D01*
X91590886Y-83391842D01*
X91579500Y-83339500D01*
X91579500Y-53129383D01*
X91599502Y-53061262D01*
X91616400Y-53040293D01*
X92520490Y-52136203D01*
X121551037Y-52136203D01*
X121551037Y-72883798D01*
X126285619Y-72883798D01*
X126285619Y-52136203D01*
X121551037Y-52136203D01*
X92520490Y-52136203D01*
X95021276Y-49635416D01*
X95041453Y-49619031D01*
X95050582Y-49613068D01*
X95072611Y-49584762D01*
X95077770Y-49578923D01*
X95080581Y-49576113D01*
X95094294Y-49556906D01*
X95128375Y-49513119D01*
X95128375Y-49513116D01*
X95132158Y-49506127D01*
X95135654Y-49498977D01*
X95151479Y-49445817D01*
X95169499Y-49393331D01*
X95170803Y-49385516D01*
X95171790Y-49377595D01*
X95171792Y-49377590D01*
X95169500Y-49322164D01*
X95169500Y-49307205D01*
X123056732Y-49307205D01*
X123066768Y-49517893D01*
X123066769Y-49517904D01*
X123116498Y-49722886D01*
X123116498Y-49722888D01*
X123116499Y-49722890D01*
X123204124Y-49914762D01*
X123326478Y-50086584D01*
X123479138Y-50232145D01*
X123479140Y-50232146D01*
X123479142Y-50232148D01*
X123574434Y-50293388D01*
X123656587Y-50346184D01*
X123852411Y-50424580D01*
X124059533Y-50464500D01*
X124059537Y-50464500D01*
X124467613Y-50464500D01*
X124467630Y-50464499D01*
X124624969Y-50449474D01*
X124624969Y-50449473D01*
X124624979Y-50449473D01*
X124827368Y-50390047D01*
X125014854Y-50293391D01*
X125180659Y-50163000D01*
X125318792Y-50003587D01*
X125424259Y-49820913D01*
X125493248Y-49621580D01*
X125523267Y-49412793D01*
X125513231Y-49202098D01*
X125463501Y-48997110D01*
X125375876Y-48805238D01*
X125253522Y-48633416D01*
X125100862Y-48487855D01*
X125100859Y-48487853D01*
X125100857Y-48487851D01*
X124923413Y-48373816D01*
X124813848Y-48329953D01*
X124727589Y-48295420D01*
X124727586Y-48295419D01*
X124727585Y-48295419D01*
X124520471Y-48255500D01*
X124520467Y-48255500D01*
X124112387Y-48255500D01*
X124112369Y-48255500D01*
X123955030Y-48270525D01*
X123955015Y-48270528D01*
X123752629Y-48329953D01*
X123565148Y-48426607D01*
X123565141Y-48426611D01*
X123399347Y-48556994D01*
X123399334Y-48557006D01*
X123261212Y-48716407D01*
X123261206Y-48716415D01*
X123155743Y-48899083D01*
X123155739Y-48899092D01*
X123086753Y-49098417D01*
X123086750Y-49098425D01*
X123056732Y-49307205D01*
X95169500Y-49307205D01*
X95169500Y-46807205D01*
X123056732Y-46807205D01*
X123066768Y-47017893D01*
X123066769Y-47017904D01*
X123116498Y-47222886D01*
X123116498Y-47222888D01*
X123116499Y-47222890D01*
X123204124Y-47414762D01*
X123326478Y-47586584D01*
X123479138Y-47732145D01*
X123479140Y-47732146D01*
X123479142Y-47732148D01*
X123574434Y-47793388D01*
X123656587Y-47846184D01*
X123852411Y-47924580D01*
X124059533Y-47964500D01*
X124059537Y-47964500D01*
X124467613Y-47964500D01*
X124467630Y-47964499D01*
X124624969Y-47949474D01*
X124624969Y-47949473D01*
X124624979Y-47949473D01*
X124827368Y-47890047D01*
X125014854Y-47793391D01*
X125180659Y-47663000D01*
X125318792Y-47503587D01*
X125424259Y-47320913D01*
X125493248Y-47121580D01*
X125523267Y-46912793D01*
X125513231Y-46702098D01*
X125463501Y-46497110D01*
X125375876Y-46305238D01*
X125253522Y-46133416D01*
X125100862Y-45987855D01*
X125100859Y-45987853D01*
X125100857Y-45987851D01*
X124923413Y-45873816D01*
X124813848Y-45829953D01*
X124727589Y-45795420D01*
X124727586Y-45795419D01*
X124727585Y-45795419D01*
X124520471Y-45755500D01*
X124520467Y-45755500D01*
X124112387Y-45755500D01*
X124112369Y-45755500D01*
X123955030Y-45770525D01*
X123955015Y-45770528D01*
X123752629Y-45829953D01*
X123565148Y-45926607D01*
X123565141Y-45926611D01*
X123399347Y-46056994D01*
X123399334Y-46057006D01*
X123261212Y-46216407D01*
X123261206Y-46216415D01*
X123155743Y-46399083D01*
X123155739Y-46399092D01*
X123086753Y-46598417D01*
X123086750Y-46598425D01*
X123056732Y-46807205D01*
X95169500Y-46807205D01*
X95169500Y-41606000D01*
X122828437Y-41606000D01*
X123888602Y-41606000D01*
X123853481Y-41660649D01*
X123815000Y-41791705D01*
X123815000Y-41928295D01*
X123853481Y-42059351D01*
X123888602Y-42114000D01*
X122830561Y-42114000D01*
X122861831Y-42259093D01*
X122948022Y-42473587D01*
X123069227Y-42670435D01*
X123221951Y-42843961D01*
X123221954Y-42843964D01*
X123401800Y-42989180D01*
X123603617Y-43101922D01*
X123679500Y-43128734D01*
X123737066Y-43170287D01*
X123763028Y-43236367D01*
X123749143Y-43305992D01*
X123699820Y-43357059D01*
X123695261Y-43359529D01*
X123565148Y-43426607D01*
X123565141Y-43426611D01*
X123399347Y-43556994D01*
X123399334Y-43557006D01*
X123261212Y-43716407D01*
X123261206Y-43716415D01*
X123155743Y-43899083D01*
X123155739Y-43899092D01*
X123086753Y-44098417D01*
X123086750Y-44098425D01*
X123056732Y-44307205D01*
X123066768Y-44517893D01*
X123066769Y-44517904D01*
X123116498Y-44722886D01*
X123116498Y-44722888D01*
X123116499Y-44722890D01*
X123204124Y-44914762D01*
X123326478Y-45086584D01*
X123479138Y-45232145D01*
X123479140Y-45232146D01*
X123479142Y-45232148D01*
X123574434Y-45293388D01*
X123656587Y-45346184D01*
X123852411Y-45424580D01*
X124059533Y-45464500D01*
X124059537Y-45464500D01*
X124467613Y-45464500D01*
X124467630Y-45464499D01*
X124624969Y-45449474D01*
X124624969Y-45449473D01*
X124624979Y-45449473D01*
X124827368Y-45390047D01*
X125014854Y-45293391D01*
X125180659Y-45163000D01*
X125318792Y-45003587D01*
X125424259Y-44820913D01*
X125493248Y-44621580D01*
X125523267Y-44412793D01*
X125513231Y-44202098D01*
X125463501Y-43997110D01*
X125375876Y-43805238D01*
X125253522Y-43633416D01*
X125100862Y-43487855D01*
X125100859Y-43487853D01*
X125100857Y-43487851D01*
X124923413Y-43373816D01*
X124923405Y-43373811D01*
X124900819Y-43364769D01*
X124845013Y-43320881D01*
X124821794Y-43253788D01*
X124838533Y-43184793D01*
X124889917Y-43135801D01*
X124895752Y-43132981D01*
X125079679Y-43049842D01*
X125079684Y-43049839D01*
X125271205Y-42920393D01*
X125271213Y-42920387D01*
X125438096Y-42760443D01*
X125438102Y-42760435D01*
X125575556Y-42574586D01*
X125679630Y-42368165D01*
X125747320Y-42147135D01*
X125751563Y-42114000D01*
X124691398Y-42114000D01*
X124726519Y-42059351D01*
X124765000Y-41928295D01*
X124765000Y-41791705D01*
X124726519Y-41660649D01*
X124691398Y-41606000D01*
X125749439Y-41606000D01*
X125718168Y-41460906D01*
X125631977Y-41246412D01*
X125510772Y-41049564D01*
X125358048Y-40876038D01*
X125358045Y-40876035D01*
X125178199Y-40730819D01*
X125101256Y-40687836D01*
X125051541Y-40637151D01*
X125037120Y-40567635D01*
X125062571Y-40501357D01*
X125118673Y-40459780D01*
X125123336Y-40458040D01*
X125123342Y-40458040D01*
X125259267Y-40407342D01*
X125375404Y-40320404D01*
X125462342Y-40204267D01*
X125513040Y-40068342D01*
X125519500Y-40008255D01*
X125519499Y-38711746D01*
X125513040Y-38651658D01*
X125462342Y-38515733D01*
X125375404Y-38399596D01*
X125259267Y-38312658D01*
X125259265Y-38312657D01*
X125259266Y-38312657D01*
X125123349Y-38261962D01*
X125123344Y-38261960D01*
X125123342Y-38261960D01*
X125093298Y-38258730D01*
X125063256Y-38255500D01*
X123516753Y-38255500D01*
X123516729Y-38255502D01*
X123456660Y-38261959D01*
X123456658Y-38261959D01*
X123320733Y-38312657D01*
X123204596Y-38399596D01*
X123117657Y-38515734D01*
X123066962Y-38651650D01*
X123066960Y-38651658D01*
X123060500Y-38711737D01*
X123060500Y-40008246D01*
X123060502Y-40008270D01*
X123066959Y-40068339D01*
X123066959Y-40068341D01*
X123117657Y-40204266D01*
X123122612Y-40210885D01*
X123204596Y-40320404D01*
X123320733Y-40407342D01*
X123457853Y-40458486D01*
X123514689Y-40501033D01*
X123539499Y-40567553D01*
X123524407Y-40636927D01*
X123484377Y-40680933D01*
X123308794Y-40799606D01*
X123308786Y-40799612D01*
X123141903Y-40959556D01*
X123141897Y-40959564D01*
X123004443Y-41145413D01*
X122900369Y-41351834D01*
X122832679Y-41572864D01*
X122828437Y-41606000D01*
X95169500Y-41606000D01*
X95169500Y-40325499D01*
X95189502Y-40257378D01*
X95243158Y-40210885D01*
X95295500Y-40199499D01*
X95438247Y-40199499D01*
X95438254Y-40199499D01*
X95498342Y-40193040D01*
X95634267Y-40142342D01*
X95750404Y-40055404D01*
X95837342Y-39939267D01*
X95888040Y-39803342D01*
X95888040Y-39803337D01*
X95888485Y-39802146D01*
X95931032Y-39745311D01*
X95997553Y-39720500D01*
X96066927Y-39735592D01*
X96110933Y-39775622D01*
X96229606Y-39951205D01*
X96229612Y-39951213D01*
X96389556Y-40118096D01*
X96389564Y-40118102D01*
X96575413Y-40255556D01*
X96781834Y-40359630D01*
X96781833Y-40359630D01*
X97002864Y-40427320D01*
X97036000Y-40431562D01*
X97036000Y-39378674D01*
X97147685Y-39429680D01*
X97254237Y-39445000D01*
X97325763Y-39445000D01*
X97432315Y-39429680D01*
X97544000Y-39378674D01*
X97544000Y-40429437D01*
X97689093Y-40398167D01*
X97903587Y-40311977D01*
X98100435Y-40190772D01*
X98273961Y-40038048D01*
X98273964Y-40038045D01*
X98419180Y-39858199D01*
X98531922Y-39656382D01*
X98608931Y-39438429D01*
X98648000Y-39210580D01*
X98648000Y-39199000D01*
X97721116Y-39199000D01*
X97749493Y-39154844D01*
X97790000Y-39016889D01*
X97790000Y-38873111D01*
X97749493Y-38735156D01*
X97721116Y-38691000D01*
X98644058Y-38691000D01*
X98644057Y-38690999D01*
X98633306Y-38564668D01*
X98633304Y-38564661D01*
X98575059Y-38340966D01*
X98479842Y-38130321D01*
X98479839Y-38130315D01*
X98350393Y-37938794D01*
X98350387Y-37938786D01*
X98190443Y-37771903D01*
X98190435Y-37771897D01*
X98004586Y-37634443D01*
X97798165Y-37530369D01*
X97577137Y-37462680D01*
X97544000Y-37458435D01*
X97544000Y-38511325D01*
X97432315Y-38460320D01*
X97325763Y-38445000D01*
X97254237Y-38445000D01*
X97147685Y-38460320D01*
X97036000Y-38511325D01*
X97036000Y-37460561D01*
X96890906Y-37491831D01*
X96676412Y-37578022D01*
X96479564Y-37699227D01*
X96306038Y-37851951D01*
X96306035Y-37851954D01*
X96160817Y-38031802D01*
X96117835Y-38108744D01*
X96067151Y-38158459D01*
X95997634Y-38172879D01*
X95931356Y-38147427D01*
X95889780Y-38091326D01*
X95888040Y-38086662D01*
X95888040Y-38086658D01*
X95837342Y-37950733D01*
X95750404Y-37834596D01*
X95634267Y-37747658D01*
X95634265Y-37747657D01*
X95634266Y-37747657D01*
X95498349Y-37696962D01*
X95498344Y-37696960D01*
X95498342Y-37696960D01*
X95468298Y-37693730D01*
X95438256Y-37690500D01*
X94141753Y-37690500D01*
X94141729Y-37690502D01*
X94081660Y-37696959D01*
X94081658Y-37696959D01*
X93945733Y-37747657D01*
X93829596Y-37834596D01*
X93742657Y-37950734D01*
X93691962Y-38086650D01*
X93691960Y-38086658D01*
X93685500Y-38146737D01*
X93685500Y-39743246D01*
X93685502Y-39743270D01*
X93691959Y-39803339D01*
X93691959Y-39803341D01*
X93742657Y-39939266D01*
X93764515Y-39968465D01*
X93829596Y-40055404D01*
X93945733Y-40142342D01*
X94081658Y-40193040D01*
X94141745Y-40199500D01*
X94284500Y-40199499D01*
X94352620Y-40219501D01*
X94399113Y-40273156D01*
X94410500Y-40325499D01*
X94410500Y-49120615D01*
X94390498Y-49188736D01*
X94373595Y-49209710D01*
X90968724Y-52614580D01*
X90948551Y-52630964D01*
X90939419Y-52636930D01*
X90939416Y-52636933D01*
X90917394Y-52665227D01*
X90912231Y-52671073D01*
X90911883Y-52671423D01*
X90909415Y-52673890D01*
X90895705Y-52693093D01*
X90861628Y-52736876D01*
X90857835Y-52743884D01*
X90854346Y-52751022D01*
X90838520Y-52804182D01*
X90820499Y-52856673D01*
X90819194Y-52864495D01*
X90818207Y-52872410D01*
X90820500Y-52927825D01*
X90820500Y-83339500D01*
X90800498Y-83407621D01*
X90746842Y-83454114D01*
X90694501Y-83465500D01*
X90551753Y-83465500D01*
X90551729Y-83465502D01*
X90491660Y-83471959D01*
X90491658Y-83471959D01*
X90355733Y-83522657D01*
X90239596Y-83609596D01*
X90152657Y-83725734D01*
X90101962Y-83861650D01*
X90101960Y-83861658D01*
X90095500Y-83921737D01*
X90095500Y-85518246D01*
X85879431Y-85518246D01*
X85941922Y-85406382D01*
X86018931Y-85188430D01*
X86018931Y-85188429D01*
X86055699Y-84974000D01*
X85101398Y-84974000D01*
X85136519Y-84919351D01*
X85175000Y-84788295D01*
X85175000Y-84651705D01*
X85136519Y-84520649D01*
X85101398Y-84466000D01*
X86051930Y-84466000D01*
X86043305Y-84364666D01*
X86043304Y-84364660D01*
X85985059Y-84140966D01*
X85889842Y-83930321D01*
X85889839Y-83930315D01*
X85760393Y-83738794D01*
X85760387Y-83738786D01*
X85600443Y-83571903D01*
X85600435Y-83571897D01*
X85414586Y-83434443D01*
X85208165Y-83330369D01*
X84987137Y-83262680D01*
X84954000Y-83258435D01*
X84954000Y-84313808D01*
X84835199Y-84259554D01*
X84733975Y-84245000D01*
X84666025Y-84245000D01*
X84564801Y-84259554D01*
X84446000Y-84313808D01*
X84446000Y-83260561D01*
X84300906Y-83291831D01*
X84086412Y-83378022D01*
X83889564Y-83499227D01*
X83716038Y-83651951D01*
X83716035Y-83651954D01*
X83570819Y-83831800D01*
X83458079Y-84033614D01*
X83431265Y-84109502D01*
X83389711Y-84167067D01*
X83323631Y-84193028D01*
X83254005Y-84179143D01*
X83202940Y-84129819D01*
X83200470Y-84125260D01*
X83133395Y-83995152D01*
X83133388Y-83995141D01*
X83003005Y-83829347D01*
X83003003Y-83829344D01*
X83003000Y-83829341D01*
X83002997Y-83829338D01*
X83002993Y-83829334D01*
X82843592Y-83691212D01*
X82843584Y-83691206D01*
X82660916Y-83585743D01*
X82660913Y-83585741D01*
X82660907Y-83585739D01*
X82655453Y-83583248D01*
X82656356Y-83581269D01*
X82606436Y-83545700D01*
X82580067Y-83479782D01*
X82579500Y-83467839D01*
X82579500Y-53129383D01*
X82599502Y-53061262D01*
X82616400Y-53040293D01*
X86521276Y-49135416D01*
X86541453Y-49119031D01*
X86550582Y-49113068D01*
X86572607Y-49084769D01*
X86577775Y-49078917D01*
X86580580Y-49076114D01*
X86580584Y-49076109D01*
X86594294Y-49056906D01*
X86628372Y-49013123D01*
X86628372Y-49013122D01*
X86628375Y-49013119D01*
X86628376Y-49013114D01*
X86632156Y-49006131D01*
X86635649Y-48998984D01*
X86635653Y-48998980D01*
X86651478Y-48945820D01*
X86669500Y-48893327D01*
X86669500Y-48893323D01*
X86670805Y-48885504D01*
X86671791Y-48877591D01*
X86669500Y-48822189D01*
X86669500Y-40201890D01*
X86689502Y-40133769D01*
X86743156Y-40087277D01*
X86844762Y-40040876D01*
X87016584Y-39918522D01*
X87162145Y-39765862D01*
X87276184Y-39588413D01*
X87285228Y-39565821D01*
X87329115Y-39510015D01*
X87396207Y-39486794D01*
X87465202Y-39503531D01*
X87514196Y-39554914D01*
X87517018Y-39560752D01*
X87600157Y-39744678D01*
X87600160Y-39744684D01*
X87729606Y-39936205D01*
X87729612Y-39936213D01*
X87889556Y-40103096D01*
X87889564Y-40103102D01*
X88075413Y-40240556D01*
X88281834Y-40344630D01*
X88281833Y-40344630D01*
X88502864Y-40412320D01*
X88536000Y-40416562D01*
X88536000Y-39361191D01*
X88654801Y-39415446D01*
X88756025Y-39430000D01*
X88823975Y-39430000D01*
X88925199Y-39415446D01*
X89044000Y-39361191D01*
X89044000Y-40414437D01*
X89189093Y-40383167D01*
X89403587Y-40296977D01*
X89600435Y-40175772D01*
X89773961Y-40023048D01*
X89773964Y-40023045D01*
X89919180Y-39843199D01*
X90031922Y-39641382D01*
X90108931Y-39423430D01*
X90108931Y-39423429D01*
X90145699Y-39209000D01*
X89191398Y-39209000D01*
X89226519Y-39154351D01*
X89265000Y-39023295D01*
X89265000Y-38886705D01*
X89226519Y-38755649D01*
X89191398Y-38701000D01*
X90141930Y-38701000D01*
X90133305Y-38599666D01*
X90133304Y-38599660D01*
X90075059Y-38375966D01*
X89979842Y-38165321D01*
X89979839Y-38165315D01*
X89850393Y-37973794D01*
X89850387Y-37973786D01*
X89690443Y-37806903D01*
X89690435Y-37806897D01*
X89504586Y-37669443D01*
X89298165Y-37565369D01*
X89077137Y-37497680D01*
X89044000Y-37493435D01*
X89044000Y-38548808D01*
X88925199Y-38494554D01*
X88823975Y-38480000D01*
X88756025Y-38480000D01*
X88654801Y-38494554D01*
X88536000Y-38548808D01*
X88536000Y-37495561D01*
X88390906Y-37526831D01*
X88176412Y-37613022D01*
X87979564Y-37734227D01*
X87806038Y-37886951D01*
X87806035Y-37886954D01*
X87660819Y-38066800D01*
X87548079Y-38268614D01*
X87521265Y-38344502D01*
X87479711Y-38402067D01*
X87413631Y-38428028D01*
X87344005Y-38414143D01*
X87292940Y-38364819D01*
X87290470Y-38360260D01*
X87223395Y-38230152D01*
X87223388Y-38230141D01*
X87093005Y-38064347D01*
X87093003Y-38064344D01*
X87093000Y-38064341D01*
X87092997Y-38064338D01*
X87092993Y-38064334D01*
X86933592Y-37926212D01*
X86933584Y-37926206D01*
X86804970Y-37851951D01*
X86750913Y-37820741D01*
X86551580Y-37751752D01*
X86551578Y-37751751D01*
X86551574Y-37751750D01*
X86342794Y-37721732D01*
X86132106Y-37731768D01*
X86132095Y-37731769D01*
X85927113Y-37781498D01*
X85927111Y-37781498D01*
X85735236Y-37869125D01*
X85563416Y-37991478D01*
X85563412Y-37991481D01*
X85417851Y-38144142D01*
X85303816Y-38321586D01*
X85303815Y-38321588D01*
X85294769Y-38344182D01*
X85250879Y-38399987D01*
X85183787Y-38423206D01*
X85114792Y-38406465D01*
X85065801Y-38355080D01*
X85062981Y-38349247D01*
X84979842Y-38165321D01*
X84979839Y-38165315D01*
X84850393Y-37973794D01*
X84850387Y-37973786D01*
X84690443Y-37806903D01*
X84690435Y-37806897D01*
X84504586Y-37669443D01*
X84298165Y-37565369D01*
X84077137Y-37497680D01*
X84044000Y-37493435D01*
X84044000Y-38548808D01*
X83925199Y-38494554D01*
X83823975Y-38480000D01*
X83756025Y-38480000D01*
X83654801Y-38494554D01*
X83536000Y-38548808D01*
X83536000Y-37495561D01*
X83390906Y-37526831D01*
X83176412Y-37613022D01*
X82979564Y-37734227D01*
X82806038Y-37886951D01*
X82806035Y-37886954D01*
X82660817Y-38066802D01*
X82617835Y-38143744D01*
X82567151Y-38193459D01*
X82497634Y-38207879D01*
X82431356Y-38182427D01*
X82389780Y-38126326D01*
X82388040Y-38121662D01*
X82388040Y-38121658D01*
X82337342Y-37985733D01*
X82250404Y-37869596D01*
X82134267Y-37782658D01*
X82134265Y-37782657D01*
X82134266Y-37782657D01*
X81998349Y-37731962D01*
X81998344Y-37731960D01*
X81998342Y-37731960D01*
X81968298Y-37728730D01*
X81938256Y-37725500D01*
X80641753Y-37725500D01*
X80641729Y-37725502D01*
X80581660Y-37731959D01*
X80581658Y-37731959D01*
X80445733Y-37782657D01*
X80329596Y-37869596D01*
X80242657Y-37985734D01*
X80191962Y-38121650D01*
X80191960Y-38121658D01*
X80185500Y-38181737D01*
X80185500Y-39728246D01*
X80185502Y-39728270D01*
X80191959Y-39788339D01*
X80191959Y-39788341D01*
X80242657Y-39924266D01*
X80253886Y-39939266D01*
X80329596Y-40040404D01*
X80445733Y-40127342D01*
X80581658Y-40178040D01*
X80641745Y-40184500D01*
X80734500Y-40184499D01*
X80802620Y-40204500D01*
X80849113Y-40258156D01*
X80860500Y-40310499D01*
X80860500Y-48599904D01*
X80840498Y-48668025D01*
X80823595Y-48688999D01*
X76915859Y-52596735D01*
X76910589Y-52601445D01*
X76881599Y-52624564D01*
X76849651Y-52671423D01*
X76815984Y-52717040D01*
X76812188Y-52724220D01*
X76808662Y-52731544D01*
X76807016Y-52736881D01*
X76791946Y-52785734D01*
X76773221Y-52839249D01*
X76773220Y-52839252D01*
X76771710Y-52847232D01*
X76770500Y-52855262D01*
X76770500Y-52911986D01*
X76768380Y-52968632D01*
X76769438Y-52978011D01*
X76768521Y-52978114D01*
X76770500Y-52993126D01*
X76770500Y-83364500D01*
X76750498Y-83432621D01*
X76696842Y-83479114D01*
X76644501Y-83490500D01*
X76551753Y-83490500D01*
X76551729Y-83490502D01*
X76491660Y-83496959D01*
X76491658Y-83496959D01*
X76355733Y-83547657D01*
X76239596Y-83634596D01*
X76152657Y-83750734D01*
X76101962Y-83886650D01*
X76101960Y-83886658D01*
X76095500Y-83946737D01*
X76095500Y-85493246D01*
X69815500Y-85493246D01*
X69815500Y-77274000D01*
X70763455Y-77274000D01*
X70811176Y-77462449D01*
X70811179Y-77462456D01*
X70901580Y-77668548D01*
X71024674Y-77856958D01*
X71177097Y-78022534D01*
X71354698Y-78160767D01*
X71354699Y-78160768D01*
X71552628Y-78267882D01*
X71552630Y-78267883D01*
X71765483Y-78340955D01*
X71765492Y-78340957D01*
X71846000Y-78354391D01*
X71846000Y-77453674D01*
X71957685Y-77504680D01*
X72064237Y-77520000D01*
X72135763Y-77520000D01*
X72242315Y-77504680D01*
X72354000Y-77453674D01*
X72354000Y-78354390D01*
X72434507Y-78340957D01*
X72434516Y-78340955D01*
X72647369Y-78267883D01*
X72647371Y-78267882D01*
X72845300Y-78160768D01*
X72845301Y-78160767D01*
X73022902Y-78022534D01*
X73175325Y-77856958D01*
X73298419Y-77668548D01*
X73388820Y-77462456D01*
X73388823Y-77462449D01*
X73436544Y-77274000D01*
X72531116Y-77274000D01*
X72559493Y-77229844D01*
X72600000Y-77091889D01*
X72600000Y-76948111D01*
X72559493Y-76810156D01*
X72531116Y-76766000D01*
X73436544Y-76766000D01*
X73436544Y-76765999D01*
X73388823Y-76577550D01*
X73388820Y-76577543D01*
X73298419Y-76371451D01*
X73175325Y-76183041D01*
X73022902Y-76017465D01*
X72845301Y-75879232D01*
X72845300Y-75879231D01*
X72647371Y-75772117D01*
X72647369Y-75772116D01*
X72536195Y-75733951D01*
X72478260Y-75692914D01*
X72451708Y-75627069D01*
X72464969Y-75557322D01*
X72513834Y-75505817D01*
X72531581Y-75497290D01*
X72594427Y-75472944D01*
X72768462Y-75365186D01*
X72919732Y-75227285D01*
X73043088Y-75063935D01*
X73134328Y-74880701D01*
X73190345Y-74683821D01*
X73209232Y-74480000D01*
X73190345Y-74276179D01*
X73134328Y-74079299D01*
X73043088Y-73896065D01*
X73002538Y-73842368D01*
X72919733Y-73732715D01*
X72768463Y-73594814D01*
X72594433Y-73487059D01*
X72594428Y-73487057D01*
X72594427Y-73487056D01*
X72594422Y-73487054D01*
X72403559Y-73413113D01*
X72403560Y-73413113D01*
X72403557Y-73413112D01*
X72403556Y-73413112D01*
X72202347Y-73375500D01*
X71997653Y-73375500D01*
X71796444Y-73413112D01*
X71796439Y-73413113D01*
X71605577Y-73487054D01*
X71605566Y-73487059D01*
X71431536Y-73594814D01*
X71280266Y-73732715D01*
X71156913Y-73896063D01*
X71065671Y-74079301D01*
X71009654Y-74276180D01*
X70990768Y-74479995D01*
X70990768Y-74480004D01*
X71009654Y-74683819D01*
X71029170Y-74752411D01*
X71065672Y-74880701D01*
X71156912Y-75063935D01*
X71156913Y-75063936D01*
X71280266Y-75227284D01*
X71431536Y-75365185D01*
X71605566Y-75472940D01*
X71605568Y-75472940D01*
X71605573Y-75472944D01*
X71655333Y-75492221D01*
X71668409Y-75497287D01*
X71724704Y-75540546D01*
X71748674Y-75607374D01*
X71732710Y-75676552D01*
X71681879Y-75726118D01*
X71663804Y-75733951D01*
X71552631Y-75772116D01*
X71552628Y-75772117D01*
X71354699Y-75879231D01*
X71354698Y-75879232D01*
X71177097Y-76017465D01*
X71024674Y-76183041D01*
X70901580Y-76371451D01*
X70811179Y-76577543D01*
X70811176Y-76577550D01*
X70763455Y-76765999D01*
X70763456Y-76766000D01*
X71668884Y-76766000D01*
X71640507Y-76810156D01*
X71600000Y-76948111D01*
X71600000Y-77091889D01*
X71640507Y-77229844D01*
X71668884Y-77274000D01*
X70763455Y-77274000D01*
X69815500Y-77274000D01*
X69815500Y-72815063D01*
X70995500Y-72815063D01*
X70995501Y-72815073D01*
X71010265Y-72889300D01*
X71066516Y-72973484D01*
X71150697Y-73029733D01*
X71150699Y-73029734D01*
X71224933Y-73044500D01*
X72975066Y-73044499D01*
X72975069Y-73044498D01*
X72975073Y-73044498D01*
X73024326Y-73034701D01*
X73049301Y-73029734D01*
X73133484Y-72973484D01*
X73189734Y-72889301D01*
X73204500Y-72815067D01*
X73204499Y-71064934D01*
X73204498Y-71064930D01*
X73204498Y-71064926D01*
X73189734Y-70990699D01*
X73133483Y-70906515D01*
X73049302Y-70850266D01*
X72975067Y-70835500D01*
X71224936Y-70835500D01*
X71224926Y-70835501D01*
X71150699Y-70850265D01*
X71066515Y-70906516D01*
X71010266Y-70990697D01*
X70995500Y-71064930D01*
X70995500Y-72815063D01*
X69815500Y-72815063D01*
X69815500Y-36061500D01*
X69835502Y-35993379D01*
X69889158Y-35946886D01*
X69941500Y-35935500D01*
X72969815Y-35935500D01*
X73037936Y-35955502D01*
G37*
%TD.AperFunction*%
%TD*%
M02*
