M48
; DRILL file {KiCad 7.0.8} date 2023 December 11, Monday 19:23:57
; FORMAT={3:3/ absolute / metric / suppress leading zeros}
; #@! TF.CreationDate,2023-12-11T19:23:57+01:00
; #@! TF.GenerationSoftware,Kicad,Pcbnew,7.0.8
; #@! TF.FileFunction,MixedPlating,1,2
FMAT,2
METRIC,TZ
; #@! TA.AperFunction,Plated,PTH,ComponentDrill
T1C0.500
; #@! TA.AperFunction,Plated,PTH,ComponentDrill
T2C0.950
; #@! TA.AperFunction,Plated,PTH,ComponentDrill
T3C1.000
; #@! TA.AperFunction,Plated,PTH,ComponentDrill
T4C3.200
%
G90
G05
T1
X71200Y-39589
X71903Y-37892
X71903Y-41286
X73600Y-37189
X73600Y-41989
X75297Y-37892
X75297Y-41286
X76000Y-39589
X121665Y-76846
X122368Y-75149
X122368Y-78543
X124065Y-74446
X124065Y-79246
X125762Y-75149
X125762Y-78543
X126465Y-76846
T2
X77200Y-84720
X79700Y-84720
X81290Y-38955
X82200Y-84720
X83790Y-38955
X84700Y-84720
X86290Y-38955
X88790Y-38955
X109800Y-84720
X112300Y-84720
X114800Y-84720
X117300Y-84720
X119800Y-84720
X124290Y-39360
X124290Y-41860
X124290Y-44360
X124290Y-46860
X124290Y-49360
T3
X72100Y-71940
X72100Y-74480
X72100Y-77020
X91200Y-84720
X93700Y-84720
X94790Y-38945
X97290Y-38945
X99660Y-83580
X99660Y-86120
X102200Y-83580
X102200Y-86120
X104740Y-83580
X104740Y-86120
T4
X73600Y-39589
X124065Y-76846
T0
M30
