  0
SECTION
  2
HEADER
  9
$ANGBASE
  50
0.0
  9
$ANGDIR
  70
1
  9
$MEASUREMENT
  70
1
  0
ENDSEC
  0
SECTION
  2
TABLES
  0
TABLE
  2
LTYPE
  70
4
  0
LTYPE
  5
40F
  2
CONTINUOUS
  70
0
  3
Solid line
  72
65
  73
0
  40
0.0
  0
LTYPE
  5
410
  2
DASHDOT
 70
0
  3
Dash Dot ____ _ ____ _
 72
65
 73
4
 40
2.0
 49
1.25
 49
-0.25
 49
0.25
 49
-0.25
  0
LTYPE
  5
411
  2
DASHED
 70
0
  3
Dashed __ __ __ __ __
 72
65
 73
2
 40
0.75
 49
0.5
 49
-0.25
  0
LTYPE
  5
43B
  2
DOTTED
 70
0
  3
Dotted .  .  .  .
 72
65
 73
2
 40
0.2
 49
0.0
 49
-0.2
  0
ENDTAB
  0
TABLE
  2
STYLE
  70
4
  0
STYLE
  2
KICAD
  70
0
  40
0
  41
1
  42
1
  50
0
  71
0
  3
isocp.shx
  0
STYLE
  2
KICADB
  70
0
  40
0
  41
1
  42
1
  50
0
  71
0
  3
isocp.shx
  0
STYLE
  2
KICADI
  70
0
  40
0
  41
1
  42
1
  50
15
  71
0
  3
isocp.shx
  0
STYLE
  2
KICADBI
  70
0
  40
0
  41
1
  42
1
  50
15
  71
0
  3
isocp.shx
  0
ENDTAB
  0
TABLE
  2
LAYER
  70
1
  0
LAYER
  2
BLACK
  70
0
  62
7
  6
CONTINUOUS
  0
ENDTAB
  0
ENDSEC
  0
SECTION
  2
ENTITIES
0
LINE
8
BLACK
6
CONTINUOUS
10
102.463
20
-85.3116
11
102.625
21
-85.3839
0
LINE
8
BLACK
6
CONTINUOUS
10
102.625
20
-85.3839
11
102.769
21
-85.4883
0
LINE
8
BLACK
6
CONTINUOUS
10
102.769
20
-85.4883
11
102.888
21
-85.6204
0
LINE
8
BLACK
6
CONTINUOUS
10
102.888
20
-85.6204
11
102.977
21
-85.7743
0
LINE
8
BLACK
6
CONTINUOUS
10
102.977
20
-85.7743
11
103.031
21
-85.9433
0
LINE
8
BLACK
6
CONTINUOUS
10
103.031
20
-85.9433
11
103.05
21
-86.12
0
LINE
8
BLACK
6
CONTINUOUS
10
103.05
20
-86.12
11
103.031
21
-86.2967
0
LINE
8
BLACK
6
CONTINUOUS
10
103.031
20
-86.2967
11
102.977
21
-86.4657
0
LINE
8
BLACK
6
CONTINUOUS
10
102.977
20
-86.4657
11
102.888
21
-86.6196
0
LINE
8
BLACK
6
CONTINUOUS
10
102.888
20
-86.6196
11
102.769
21
-86.7517
0
LINE
8
BLACK
6
CONTINUOUS
10
102.769
20
-86.7517
11
102.625
21
-86.8561
0
LINE
8
BLACK
6
CONTINUOUS
10
102.625
20
-86.8561
11
102.463
21
-86.9284
0
LINE
8
BLACK
6
CONTINUOUS
10
102.463
20
-86.9284
11
102.289
21
-86.9653
0
LINE
8
BLACK
6
CONTINUOUS
10
102.289
20
-86.9653
11
102.111
21
-86.9653
0
LINE
8
BLACK
6
CONTINUOUS
10
102.111
20
-86.9653
11
101.937
21
-86.9284
0
LINE
8
BLACK
6
CONTINUOUS
10
101.937
20
-86.9284
11
101.775
21
-86.8561
0
LINE
8
BLACK
6
CONTINUOUS
10
101.775
20
-86.8561
11
101.631
21
-86.7517
0
LINE
8
BLACK
6
CONTINUOUS
10
101.631
20
-86.7517
11
101.512
21
-86.6196
0
LINE
8
BLACK
6
CONTINUOUS
10
101.512
20
-86.6196
11
101.423
21
-86.4657
0
LINE
8
BLACK
6
CONTINUOUS
10
101.423
20
-86.4657
11
101.369
21
-86.2967
0
LINE
8
BLACK
6
CONTINUOUS
10
101.369
20
-86.2967
11
101.35
21
-86.12
0
LINE
8
BLACK
6
CONTINUOUS
10
101.35
20
-86.12
11
101.369
21
-85.9433
0
LINE
8
BLACK
6
CONTINUOUS
10
101.369
20
-85.9433
11
101.423
21
-85.7743
0
LINE
8
BLACK
6
CONTINUOUS
10
101.423
20
-85.7743
11
101.512
21
-85.6204
0
LINE
8
BLACK
6
CONTINUOUS
10
101.512
20
-85.6204
11
101.631
21
-85.4883
0
LINE
8
BLACK
6
CONTINUOUS
10
101.631
20
-85.4883
11
101.775
21
-85.3839
0
LINE
8
BLACK
6
CONTINUOUS
10
101.775
20
-85.3839
11
101.937
21
-85.3116
0
LINE
8
BLACK
6
CONTINUOUS
10
101.937
20
-85.3116
11
102.111
21
-85.2747
0
LINE
8
BLACK
6
CONTINUOUS
10
102.111
20
-85.2747
11
102.289
21
-85.2747
0
LINE
8
BLACK
6
CONTINUOUS
10
102.289
20
-85.2747
11
102.463
21
-85.3116
0
LINE
8
BLACK
6
CONTINUOUS
10
125.111
20
-38.529
11
125.192
21
-38.5832
0
LINE
8
BLACK
6
CONTINUOUS
10
125.192
20
-38.5832
11
125.246
21
-38.6643
0
LINE
8
BLACK
6
CONTINUOUS
10
125.246
20
-38.6643
11
125.265
21
-38.76
0
LINE
8
BLACK
6
CONTINUOUS
10
125.265
20
-38.76
11
125.265
21
-39.96
0
LINE
8
BLACK
6
CONTINUOUS
10
125.265
20
-39.96
11
125.246
21
-40.0557
0
LINE
8
BLACK
6
CONTINUOUS
10
125.246
20
-40.0557
11
125.192
21
-40.1368
0
LINE
8
BLACK
6
CONTINUOUS
10
125.192
20
-40.1368
11
125.111
21
-40.191
0
LINE
8
BLACK
6
CONTINUOUS
10
125.111
20
-40.191
11
125.015
21
-40.21
0
LINE
8
BLACK
6
CONTINUOUS
10
125.015
20
-40.21
11
123.565
21
-40.21
0
LINE
8
BLACK
6
CONTINUOUS
10
123.565
20
-40.21
11
123.469
21
-40.191
0
LINE
8
BLACK
6
CONTINUOUS
10
123.469
20
-40.191
11
123.388
21
-40.1368
0
LINE
8
BLACK
6
CONTINUOUS
10
123.388
20
-40.1368
11
123.334
21
-40.0557
0
LINE
8
BLACK
6
CONTINUOUS
10
123.334
20
-40.0557
11
123.315
21
-39.96
0
LINE
8
BLACK
6
CONTINUOUS
10
123.315
20
-39.96
11
123.315
21
-39.485
0
LINE
8
BLACK
6
CONTINUOUS
10
123.315
20
-39.485
11
113.812
21
-39.485
0
LINE
8
BLACK
6
CONTINUOUS
10
113.812
20
-39.485
11
109.925
21
-43.3718
0
LINE
8
BLACK
6
CONTINUOUS
10
109.925
20
-43.3718
11
109.925
21
-71.92
0
LINE
8
BLACK
6
CONTINUOUS
10
109.925
20
-71.92
11
109.925
21
-83.745
0
LINE
8
BLACK
6
CONTINUOUS
10
109.925
20
-83.745
11
110.4
21
-83.745
0
LINE
8
BLACK
6
CONTINUOUS
10
110.4
20
-83.745
11
110.496
21
-83.764
0
LINE
8
BLACK
6
CONTINUOUS
10
110.496
20
-83.764
11
110.577
21
-83.8182
0
LINE
8
BLACK
6
CONTINUOUS
10
110.577
20
-83.8182
11
110.631
21
-83.8993
0
LINE
8
BLACK
6
CONTINUOUS
10
110.631
20
-83.8993
11
110.65
21
-83.995
0
LINE
8
BLACK
6
CONTINUOUS
10
110.65
20
-83.995
11
110.65
21
-85.445
0
LINE
8
BLACK
6
CONTINUOUS
10
110.65
20
-85.445
11
110.631
21
-85.5407
0
LINE
8
BLACK
6
CONTINUOUS
10
110.631
20
-85.5407
11
110.577
21
-85.6218
0
LINE
8
BLACK
6
CONTINUOUS
10
110.577
20
-85.6218
11
110.496
21
-85.676
0
LINE
8
BLACK
6
CONTINUOUS
10
110.496
20
-85.676
11
110.4
21
-85.695
0
LINE
8
BLACK
6
CONTINUOUS
10
110.4
20
-85.695
11
109.2
21
-85.695
0
LINE
8
BLACK
6
CONTINUOUS
10
109.2
20
-85.695
11
109.104
21
-85.676
0
LINE
8
BLACK
6
CONTINUOUS
10
109.104
20
-85.676
11
109.023
21
-85.6218
0
LINE
8
BLACK
6
CONTINUOUS
10
109.023
20
-85.6218
11
108.969
21
-85.5407
0
LINE
8
BLACK
6
CONTINUOUS
10
108.969
20
-85.5407
11
108.95
21
-85.445
0
LINE
8
BLACK
6
CONTINUOUS
10
108.95
20
-85.445
11
108.95
21
-84.845
0
LINE
8
BLACK
6
CONTINUOUS
10
108.95
20
-84.845
11
107.652
21
-84.845
0
LINE
8
BLACK
6
CONTINUOUS
10
107.652
20
-84.845
11
106.288
21
-86.2084
0
LINE
8
BLACK
6
CONTINUOUS
10
106.288
20
-86.2084
11
106.271
21
-86.2218
0
LINE
8
BLACK
6
CONTINUOUS
10
106.271
20
-86.2218
11
106.268
21
-86.2252
0
LINE
8
BLACK
6
CONTINUOUS
10
106.268
20
-86.2252
11
106.265
21
-86.2259
0
LINE
8
BLACK
6
CONTINUOUS
10
106.265
20
-86.2259
11
106.26
21
-86.2297
0
LINE
8
BLACK
6
CONTINUOUS
10
106.26
20
-86.2297
11
106.23
21
-86.2363
0
LINE
8
BLACK
6
CONTINUOUS
10
106.23
20
-86.2363
11
106.2
21
-86.245
0
LINE
8
BLACK
6
CONTINUOUS
10
106.2
20
-86.245
11
105.577
21
-86.245
0
LINE
8
BLACK
6
CONTINUOUS
10
105.577
20
-86.245
11
105.571
21
-86.2967
0
LINE
8
BLACK
6
CONTINUOUS
10
105.571
20
-86.2967
11
105.517
21
-86.4657
0
LINE
8
BLACK
6
CONTINUOUS
10
105.517
20
-86.4657
11
105.428
21
-86.6196
0
LINE
8
BLACK
6
CONTINUOUS
10
105.428
20
-86.6196
11
105.309
21
-86.7517
0
LINE
8
BLACK
6
CONTINUOUS
10
105.309
20
-86.7517
11
105.165
21
-86.8561
0
LINE
8
BLACK
6
CONTINUOUS
10
105.165
20
-86.8561
11
105.003
21
-86.9284
0
LINE
8
BLACK
6
CONTINUOUS
10
105.003
20
-86.9284
11
104.829
21
-86.9653
0
LINE
8
BLACK
6
CONTINUOUS
10
104.829
20
-86.9653
11
104.651
21
-86.9653
0
LINE
8
BLACK
6
CONTINUOUS
10
104.651
20
-86.9653
11
104.477
21
-86.9284
0
LINE
8
BLACK
6
CONTINUOUS
10
104.477
20
-86.9284
11
104.315
21
-86.8561
0
LINE
8
BLACK
6
CONTINUOUS
10
104.315
20
-86.8561
11
104.171
21
-86.7517
0
LINE
8
BLACK
6
CONTINUOUS
10
104.171
20
-86.7517
11
104.052
21
-86.6196
0
LINE
8
BLACK
6
CONTINUOUS
10
104.052
20
-86.6196
11
103.963
21
-86.4657
0
LINE
8
BLACK
6
CONTINUOUS
10
103.963
20
-86.4657
11
103.909
21
-86.2967
0
LINE
8
BLACK
6
CONTINUOUS
10
103.909
20
-86.2967
11
103.89
21
-86.12
0
LINE
8
BLACK
6
CONTINUOUS
10
103.89
20
-86.12
11
103.909
21
-85.9433
0
LINE
8
BLACK
6
CONTINUOUS
10
103.909
20
-85.9433
11
103.963
21
-85.7743
0
LINE
8
BLACK
6
CONTINUOUS
10
103.963
20
-85.7743
11
104.052
21
-85.6204
0
LINE
8
BLACK
6
CONTINUOUS
10
104.052
20
-85.6204
11
104.171
21
-85.4883
0
LINE
8
BLACK
6
CONTINUOUS
10
104.171
20
-85.4883
11
104.315
21
-85.3839
0
LINE
8
BLACK
6
CONTINUOUS
10
104.315
20
-85.3839
11
104.477
21
-85.3116
0
LINE
8
BLACK
6
CONTINUOUS
10
104.477
20
-85.3116
11
104.651
21
-85.2747
0
LINE
8
BLACK
6
CONTINUOUS
10
104.651
20
-85.2747
11
104.829
21
-85.2747
0
LINE
8
BLACK
6
CONTINUOUS
10
104.829
20
-85.2747
11
105.003
21
-85.3116
0
LINE
8
BLACK
6
CONTINUOUS
10
105.003
20
-85.3116
11
105.165
21
-85.3839
0
LINE
8
BLACK
6
CONTINUOUS
10
105.165
20
-85.3839
11
105.309
21
-85.4883
0
LINE
8
BLACK
6
CONTINUOUS
10
105.309
20
-85.4883
11
105.428
21
-85.6204
0
LINE
8
BLACK
6
CONTINUOUS
10
105.428
20
-85.6204
11
105.517
21
-85.7743
0
LINE
8
BLACK
6
CONTINUOUS
10
105.517
20
-85.7743
11
105.571
21
-85.9433
0
LINE
8
BLACK
6
CONTINUOUS
10
105.571
20
-85.9433
11
105.577
21
-85.995
0
LINE
8
BLACK
6
CONTINUOUS
10
105.577
20
-85.995
11
106.148
21
-85.995
0
LINE
8
BLACK
6
CONTINUOUS
10
106.148
20
-85.995
11
107.512
21
-84.6316
0
LINE
8
BLACK
6
CONTINUOUS
10
107.512
20
-84.6316
11
107.529
21
-84.6182
0
LINE
8
BLACK
6
CONTINUOUS
10
107.529
20
-84.6182
11
107.532
21
-84.6148
0
LINE
8
BLACK
6
CONTINUOUS
10
107.532
20
-84.6148
11
107.535
21
-84.6141
0
LINE
8
BLACK
6
CONTINUOUS
10
107.535
20
-84.6141
11
107.54
21
-84.6103
0
LINE
8
BLACK
6
CONTINUOUS
10
107.54
20
-84.6103
11
107.57
21
-84.6037
0
LINE
8
BLACK
6
CONTINUOUS
10
107.57
20
-84.6037
11
107.6
21
-84.595
0
LINE
8
BLACK
6
CONTINUOUS
10
107.6
20
-84.595
11
108.95
21
-84.595
0
LINE
8
BLACK
6
CONTINUOUS
10
108.95
20
-84.595
11
108.95
21
-83.995
0
LINE
8
BLACK
6
CONTINUOUS
10
108.95
20
-83.995
11
108.969
21
-83.8993
0
LINE
8
BLACK
6
CONTINUOUS
10
108.969
20
-83.8993
11
109.023
21
-83.8182
0
LINE
8
BLACK
6
CONTINUOUS
10
109.023
20
-83.8182
11
109.104
21
-83.764
0
LINE
8
BLACK
6
CONTINUOUS
10
109.104
20
-83.764
11
109.2
21
-83.745
0
LINE
8
BLACK
6
CONTINUOUS
10
109.2
20
-83.745
11
109.675
21
-83.745
0
LINE
8
BLACK
6
CONTINUOUS
10
109.675
20
-83.745
11
109.675
21
-72.065
0
LINE
8
BLACK
6
CONTINUOUS
10
109.675
20
-72.065
11
72.95
21
-72.065
0
LINE
8
BLACK
6
CONTINUOUS
10
72.95
20
-72.065
11
72.95
21
-72.79
0
LINE
8
BLACK
6
CONTINUOUS
10
72.95
20
-72.79
11
71.25
21
-72.79
0
LINE
8
BLACK
6
CONTINUOUS
10
71.25
20
-72.79
11
71.25
21
-71.09
0
LINE
8
BLACK
6
CONTINUOUS
10
71.25
20
-71.09
11
72.95
21
-71.09
0
LINE
8
BLACK
6
CONTINUOUS
10
72.95
20
-71.09
11
72.95
21
-71.815
0
LINE
8
BLACK
6
CONTINUOUS
10
72.95
20
-71.815
11
109.675
21
-71.815
0
LINE
8
BLACK
6
CONTINUOUS
10
109.675
20
-71.815
11
109.675
21
-43.32
0
LINE
8
BLACK
6
CONTINUOUS
10
109.675
20
-43.32
11
109.678
21
-43.2979
0
LINE
8
BLACK
6
CONTINUOUS
10
109.678
20
-43.2979
11
109.678
21
-43.2934
0
LINE
8
BLACK
6
CONTINUOUS
10
109.678
20
-43.2934
11
109.679
21
-43.291
0
LINE
8
BLACK
6
CONTINUOUS
10
109.679
20
-43.291
11
109.68
21
-43.2848
0
LINE
8
BLACK
6
CONTINUOUS
10
109.68
20
-43.2848
11
109.697
21
-43.2588
0
LINE
8
BLACK
6
CONTINUOUS
10
109.697
20
-43.2588
11
109.712
21
-43.2316
0
LINE
8
BLACK
6
CONTINUOUS
10
109.712
20
-43.2316
11
113.672
21
-39.2716
0
LINE
8
BLACK
6
CONTINUOUS
10
113.672
20
-39.2716
11
113.689
21
-39.2582
0
LINE
8
BLACK
6
CONTINUOUS
10
113.689
20
-39.2582
11
113.692
21
-39.2548
0
LINE
8
BLACK
6
CONTINUOUS
10
113.692
20
-39.2548
11
113.695
21
-39.2541
0
LINE
8
BLACK
6
CONTINUOUS
10
113.695
20
-39.2541
11
113.7
21
-39.2503
0
LINE
8
BLACK
6
CONTINUOUS
10
113.7
20
-39.2503
11
113.73
21
-39.2437
0
LINE
8
BLACK
6
CONTINUOUS
10
113.73
20
-39.2437
11
113.76
21
-39.235
0
LINE
8
BLACK
6
CONTINUOUS
10
113.76
20
-39.235
11
123.315
21
-39.235
0
LINE
8
BLACK
6
CONTINUOUS
10
123.315
20
-39.235
11
123.315
21
-38.76
0
LINE
8
BLACK
6
CONTINUOUS
10
123.315
20
-38.76
11
123.334
21
-38.6643
0
LINE
8
BLACK
6
CONTINUOUS
10
123.334
20
-38.6643
11
123.388
21
-38.5832
0
LINE
8
BLACK
6
CONTINUOUS
10
123.388
20
-38.5832
11
123.469
21
-38.529
0
LINE
8
BLACK
6
CONTINUOUS
10
123.469
20
-38.529
11
123.565
21
-38.51
0
LINE
8
BLACK
6
CONTINUOUS
10
123.565
20
-38.51
11
125.015
21
-38.51
0
LINE
8
BLACK
6
CONTINUOUS
10
125.015
20
-38.51
11
125.111
21
-38.529
0
LINE
8
BLACK
6
CONTINUOUS
10
91.8957
20
-83.739
11
91.9768
21
-83.7932
0
LINE
8
BLACK
6
CONTINUOUS
10
91.9768
20
-83.7932
11
92.031
21
-83.8743
0
LINE
8
BLACK
6
CONTINUOUS
10
92.031
20
-83.8743
11
92.05
21
-83.97
0
LINE
8
BLACK
6
CONTINUOUS
10
92.05
20
-83.97
11
92.05
21
-85.47
0
LINE
8
BLACK
6
CONTINUOUS
10
92.05
20
-85.47
11
92.031
21
-85.5657
0
LINE
8
BLACK
6
CONTINUOUS
10
92.031
20
-85.5657
11
91.9768
21
-85.6468
0
LINE
8
BLACK
6
CONTINUOUS
10
91.9768
20
-85.6468
11
91.8957
21
-85.701
0
LINE
8
BLACK
6
CONTINUOUS
10
91.8957
20
-85.701
11
91.8
21
-85.72
0
LINE
8
BLACK
6
CONTINUOUS
10
91.8
20
-85.72
11
90.6
21
-85.72
0
LINE
8
BLACK
6
CONTINUOUS
10
90.6
20
-85.72
11
90.5043
21
-85.701
0
LINE
8
BLACK
6
CONTINUOUS
10
90.5043
20
-85.701
11
90.4232
21
-85.6468
0
LINE
8
BLACK
6
CONTINUOUS
10
90.4232
20
-85.6468
11
90.369
21
-85.5657
0
LINE
8
BLACK
6
CONTINUOUS
10
90.369
20
-85.5657
11
90.35
21
-85.47
0
LINE
8
BLACK
6
CONTINUOUS
10
90.35
20
-85.47
11
90.35
21
-83.97
0
LINE
8
BLACK
6
CONTINUOUS
10
90.35
20
-83.97
11
90.369
21
-83.8743
0
LINE
8
BLACK
6
CONTINUOUS
10
90.369
20
-83.8743
11
90.4232
21
-83.7932
0
LINE
8
BLACK
6
CONTINUOUS
10
90.4232
20
-83.7932
11
90.5043
21
-83.739
0
LINE
8
BLACK
6
CONTINUOUS
10
90.5043
20
-83.739
11
90.6
21
-83.72
0
LINE
8
BLACK
6
CONTINUOUS
10
90.6
20
-83.72
11
91.8
21
-83.72
0
LINE
8
BLACK
6
CONTINUOUS
10
91.8
20
-83.72
11
91.8957
21
-83.739
0
LINE
8
BLACK
6
CONTINUOUS
10
82.4274
20
-83.776
11
82.5981
21
-83.844
0
LINE
8
BLACK
6
CONTINUOUS
10
82.5981
20
-83.844
11
82.7503
21
-83.9472
0
LINE
8
BLACK
6
CONTINUOUS
10
82.7503
20
-83.9472
11
82.8767
21
-84.0806
0
LINE
8
BLACK
6
CONTINUOUS
10
82.8767
20
-84.0806
11
82.9714
21
-84.2381
0
LINE
8
BLACK
6
CONTINUOUS
10
82.9714
20
-84.2381
11
83.0301
21
-84.4123
0
LINE
8
BLACK
6
CONTINUOUS
10
83.0301
20
-84.4123
11
83.05
21
-84.595
0
LINE
8
BLACK
6
CONTINUOUS
10
83.05
20
-84.595
11
83.05
21
-84.845
0
LINE
8
BLACK
6
CONTINUOUS
10
83.05
20
-84.845
11
83.045
21
-84.9369
0
LINE
8
BLACK
6
CONTINUOUS
10
83.045
20
-84.9369
11
83.0055
21
-85.1164
0
LINE
8
BLACK
6
CONTINUOUS
10
83.0055
20
-85.1164
11
82.9283
21
-85.2832
0
LINE
8
BLACK
6
CONTINUOUS
10
82.9283
20
-85.2832
11
82.8171
21
-85.4295
0
LINE
8
BLACK
6
CONTINUOUS
10
82.8171
20
-85.4295
11
82.677
21
-85.5485
0
LINE
8
BLACK
6
CONTINUOUS
10
82.677
20
-85.5485
11
82.5146
21
-85.6346
0
LINE
8
BLACK
6
CONTINUOUS
10
82.5146
20
-85.6346
11
82.3375
21
-85.6838
0
LINE
8
BLACK
6
CONTINUOUS
10
82.3375
20
-85.6838
11
82.154
21
-85.6938
0
LINE
8
BLACK
6
CONTINUOUS
10
82.154
20
-85.6938
11
81.9726
21
-85.664
0
LINE
8
BLACK
6
CONTINUOUS
10
81.9726
20
-85.664
11
81.8019
21
-85.596
0
LINE
8
BLACK
6
CONTINUOUS
10
81.8019
20
-85.596
11
81.6497
21
-85.4928
0
LINE
8
BLACK
6
CONTINUOUS
10
81.6497
20
-85.4928
11
81.5233
21
-85.3594
0
LINE
8
BLACK
6
CONTINUOUS
10
81.5233
20
-85.3594
11
81.4286
21
-85.2019
0
LINE
8
BLACK
6
CONTINUOUS
10
81.4286
20
-85.2019
11
81.3699
21
-85.0277
0
LINE
8
BLACK
6
CONTINUOUS
10
81.3699
20
-85.0277
11
81.35
21
-84.845
0
LINE
8
BLACK
6
CONTINUOUS
10
81.35
20
-84.845
11
81.35
21
-84.595
0
LINE
8
BLACK
6
CONTINUOUS
10
81.35
20
-84.595
11
81.355
21
-84.5031
0
LINE
8
BLACK
6
CONTINUOUS
10
81.355
20
-84.5031
11
81.3945
21
-84.3236
0
LINE
8
BLACK
6
CONTINUOUS
10
81.3945
20
-84.3236
11
81.4717
21
-84.1568
0
LINE
8
BLACK
6
CONTINUOUS
10
81.4717
20
-84.1568
11
81.5829
21
-84.0105
0
LINE
8
BLACK
6
CONTINUOUS
10
81.5829
20
-84.0105
11
81.723
21
-83.8915
0
LINE
8
BLACK
6
CONTINUOUS
10
81.723
20
-83.8915
11
81.8854
21
-83.8054
0
LINE
8
BLACK
6
CONTINUOUS
10
81.8854
20
-83.8054
11
82.0625
21
-83.7562
0
LINE
8
BLACK
6
CONTINUOUS
10
82.0625
20
-83.7562
11
82.246
21
-83.7462
0
LINE
8
BLACK
6
CONTINUOUS
10
82.246
20
-83.7462
11
82.4274
21
-83.776
0
LINE
8
BLACK
6
CONTINUOUS
10
124.507
20
-43.515
11
124.686
21
-43.5545
0
LINE
8
BLACK
6
CONTINUOUS
10
124.686
20
-43.5545
11
124.853
21
-43.6317
0
LINE
8
BLACK
6
CONTINUOUS
10
124.853
20
-43.6317
11
125
21
-43.7429
0
LINE
8
BLACK
6
CONTINUOUS
10
125
20
-43.7429
11
125.119
21
-43.883
0
LINE
8
BLACK
6
CONTINUOUS
10
125.119
20
-43.883
11
125.205
21
-44.0454
0
LINE
8
BLACK
6
CONTINUOUS
10
125.205
20
-44.0454
11
125.254
21
-44.2225
0
LINE
8
BLACK
6
CONTINUOUS
10
125.254
20
-44.2225
11
125.264
21
-44.406
0
LINE
8
BLACK
6
CONTINUOUS
10
125.264
20
-44.406
11
125.234
21
-44.5874
0
LINE
8
BLACK
6
CONTINUOUS
10
125.234
20
-44.5874
11
125.166
21
-44.7581
0
LINE
8
BLACK
6
CONTINUOUS
10
125.166
20
-44.7581
11
125.063
21
-44.9103
0
LINE
8
BLACK
6
CONTINUOUS
10
125.063
20
-44.9103
11
124.929
21
-45.0367
0
LINE
8
BLACK
6
CONTINUOUS
10
124.929
20
-45.0367
11
124.772
21
-45.1314
0
LINE
8
BLACK
6
CONTINUOUS
10
124.772
20
-45.1314
11
124.598
21
-45.1901
0
LINE
8
BLACK
6
CONTINUOUS
10
124.598
20
-45.1901
11
124.415
21
-45.21
0
LINE
8
BLACK
6
CONTINUOUS
10
124.415
20
-45.21
11
124.165
21
-45.21
0
LINE
8
BLACK
6
CONTINUOUS
10
124.165
20
-45.21
11
124.073
21
-45.205
0
LINE
8
BLACK
6
CONTINUOUS
10
124.073
20
-45.205
11
123.894
21
-45.1655
0
LINE
8
BLACK
6
CONTINUOUS
10
123.894
20
-45.1655
11
123.727
21
-45.0883
0
LINE
8
BLACK
6
CONTINUOUS
10
123.727
20
-45.0883
11
123.58
21
-44.9771
0
LINE
8
BLACK
6
CONTINUOUS
10
123.58
20
-44.9771
11
123.461
21
-44.837
0
LINE
8
BLACK
6
CONTINUOUS
10
123.461
20
-44.837
11
123.375
21
-44.6746
0
LINE
8
BLACK
6
CONTINUOUS
10
123.375
20
-44.6746
11
123.326
21
-44.4975
0
LINE
8
BLACK
6
CONTINUOUS
10
123.326
20
-44.4975
11
123.326
21
-44.485
0
LINE
8
BLACK
6
CONTINUOUS
10
123.326
20
-44.485
11
118.412
21
-44.485
0
LINE
8
BLACK
6
CONTINUOUS
10
118.412
20
-44.485
11
114.925
21
-47.9718
0
LINE
8
BLACK
6
CONTINUOUS
10
114.925
20
-47.9718
11
114.925
21
-83.7592
0
LINE
8
BLACK
6
CONTINUOUS
10
114.925
20
-83.7592
11
115.027
21
-83.776
0
LINE
8
BLACK
6
CONTINUOUS
10
115.027
20
-83.776
11
115.198
21
-83.844
0
LINE
8
BLACK
6
CONTINUOUS
10
115.198
20
-83.844
11
115.35
21
-83.9472
0
LINE
8
BLACK
6
CONTINUOUS
10
115.35
20
-83.9472
11
115.477
21
-84.0806
0
LINE
8
BLACK
6
CONTINUOUS
10
115.477
20
-84.0806
11
115.571
21
-84.2381
0
LINE
8
BLACK
6
CONTINUOUS
10
115.571
20
-84.2381
11
115.63
21
-84.4123
0
LINE
8
BLACK
6
CONTINUOUS
10
115.63
20
-84.4123
11
115.65
21
-84.595
0
LINE
8
BLACK
6
CONTINUOUS
10
115.65
20
-84.595
11
115.65
21
-84.845
0
LINE
8
BLACK
6
CONTINUOUS
10
115.65
20
-84.845
11
115.645
21
-84.9369
0
LINE
8
BLACK
6
CONTINUOUS
10
115.645
20
-84.9369
11
115.606
21
-85.1164
0
LINE
8
BLACK
6
CONTINUOUS
10
115.606
20
-85.1164
11
115.528
21
-85.2832
0
LINE
8
BLACK
6
CONTINUOUS
10
115.528
20
-85.2832
11
115.417
21
-85.4295
0
LINE
8
BLACK
6
CONTINUOUS
10
115.417
20
-85.4295
11
115.277
21
-85.5485
0
LINE
8
BLACK
6
CONTINUOUS
10
115.277
20
-85.5485
11
115.115
21
-85.6346
0
LINE
8
BLACK
6
CONTINUOUS
10
115.115
20
-85.6346
11
114.938
21
-85.6838
0
LINE
8
BLACK
6
CONTINUOUS
10
114.938
20
-85.6838
11
114.754
21
-85.6938
0
LINE
8
BLACK
6
CONTINUOUS
10
114.754
20
-85.6938
11
114.573
21
-85.664
0
LINE
8
BLACK
6
CONTINUOUS
10
114.573
20
-85.664
11
114.402
21
-85.596
0
LINE
8
BLACK
6
CONTINUOUS
10
114.402
20
-85.596
11
114.25
21
-85.4928
0
LINE
8
BLACK
6
CONTINUOUS
10
114.25
20
-85.4928
11
114.123
21
-85.3594
0
LINE
8
BLACK
6
CONTINUOUS
10
114.123
20
-85.3594
11
114.029
21
-85.2019
0
LINE
8
BLACK
6
CONTINUOUS
10
114.029
20
-85.2019
11
113.97
21
-85.0277
0
LINE
8
BLACK
6
CONTINUOUS
10
113.97
20
-85.0277
11
113.95
21
-84.845
0
LINE
8
BLACK
6
CONTINUOUS
10
113.95
20
-84.845
11
113.95
21
-84.595
0
LINE
8
BLACK
6
CONTINUOUS
10
113.95
20
-84.595
11
113.955
21
-84.5031
0
LINE
8
BLACK
6
CONTINUOUS
10
113.955
20
-84.5031
11
113.994
21
-84.3236
0
LINE
8
BLACK
6
CONTINUOUS
10
113.994
20
-84.3236
11
114.072
21
-84.1568
0
LINE
8
BLACK
6
CONTINUOUS
10
114.072
20
-84.1568
11
114.183
21
-84.0105
0
LINE
8
BLACK
6
CONTINUOUS
10
114.183
20
-84.0105
11
114.323
21
-83.8915
0
LINE
8
BLACK
6
CONTINUOUS
10
114.323
20
-83.8915
11
114.485
21
-83.8054
0
LINE
8
BLACK
6
CONTINUOUS
10
114.485
20
-83.8054
11
114.662
21
-83.7562
0
LINE
8
BLACK
6
CONTINUOUS
10
114.662
20
-83.7562
11
114.675
21
-83.7555
0
LINE
8
BLACK
6
CONTINUOUS
10
114.675
20
-83.7555
11
114.675
21
-47.92
0
LINE
8
BLACK
6
CONTINUOUS
10
114.675
20
-47.92
11
114.678
21
-47.8979
0
LINE
8
BLACK
6
CONTINUOUS
10
114.678
20
-47.8979
11
114.678
21
-47.8934
0
LINE
8
BLACK
6
CONTINUOUS
10
114.678
20
-47.8934
11
114.679
21
-47.891
0
LINE
8
BLACK
6
CONTINUOUS
10
114.679
20
-47.891
11
114.68
21
-47.8848
0
LINE
8
BLACK
6
CONTINUOUS
10
114.68
20
-47.8848
11
114.697
21
-47.8588
0
LINE
8
BLACK
6
CONTINUOUS
10
114.697
20
-47.8588
11
114.712
21
-47.8316
0
LINE
8
BLACK
6
CONTINUOUS
10
114.712
20
-47.8316
11
118.272
21
-44.2716
0
LINE
8
BLACK
6
CONTINUOUS
10
118.272
20
-44.2716
11
118.289
21
-44.2582
0
LINE
8
BLACK
6
CONTINUOUS
10
118.289
20
-44.2582
11
118.292
21
-44.2548
0
LINE
8
BLACK
6
CONTINUOUS
10
118.292
20
-44.2548
11
118.295
21
-44.2541
0
LINE
8
BLACK
6
CONTINUOUS
10
118.295
20
-44.2541
11
118.3
21
-44.2503
0
LINE
8
BLACK
6
CONTINUOUS
10
118.3
20
-44.2503
11
118.33
21
-44.2437
0
LINE
8
BLACK
6
CONTINUOUS
10
118.33
20
-44.2437
11
118.36
21
-44.235
0
LINE
8
BLACK
6
CONTINUOUS
10
118.36
20
-44.235
11
123.329
21
-44.235
0
LINE
8
BLACK
6
CONTINUOUS
10
123.329
20
-44.235
11
123.346
21
-44.1326
0
LINE
8
BLACK
6
CONTINUOUS
10
123.346
20
-44.1326
11
123.414
21
-43.9619
0
LINE
8
BLACK
6
CONTINUOUS
10
123.414
20
-43.9619
11
123.517
21
-43.8097
0
LINE
8
BLACK
6
CONTINUOUS
10
123.517
20
-43.8097
11
123.651
21
-43.6833
0
LINE
8
BLACK
6
CONTINUOUS
10
123.651
20
-43.6833
11
123.808
21
-43.5886
0
LINE
8
BLACK
6
CONTINUOUS
10
123.808
20
-43.5886
11
123.982
21
-43.5299
0
LINE
8
BLACK
6
CONTINUOUS
10
123.982
20
-43.5299
11
124.165
21
-43.51
0
LINE
8
BLACK
6
CONTINUOUS
10
124.165
20
-43.51
11
124.415
21
-43.51
0
LINE
8
BLACK
6
CONTINUOUS
10
124.415
20
-43.51
11
124.507
21
-43.515
0
LINE
8
BLACK
6
CONTINUOUS
10
77.8957
20
-83.764
11
77.9768
21
-83.8182
0
LINE
8
BLACK
6
CONTINUOUS
10
77.9768
20
-83.8182
11
78.031
21
-83.8993
0
LINE
8
BLACK
6
CONTINUOUS
10
78.031
20
-83.8993
11
78.05
21
-83.995
0
LINE
8
BLACK
6
CONTINUOUS
10
78.05
20
-83.995
11
78.05
21
-85.445
0
LINE
8
BLACK
6
CONTINUOUS
10
78.05
20
-85.445
11
78.031
21
-85.5407
0
LINE
8
BLACK
6
CONTINUOUS
10
78.031
20
-85.5407
11
77.9768
21
-85.6218
0
LINE
8
BLACK
6
CONTINUOUS
10
77.9768
20
-85.6218
11
77.8957
21
-85.676
0
LINE
8
BLACK
6
CONTINUOUS
10
77.8957
20
-85.676
11
77.8
21
-85.695
0
LINE
8
BLACK
6
CONTINUOUS
10
77.8
20
-85.695
11
76.6
21
-85.695
0
LINE
8
BLACK
6
CONTINUOUS
10
76.6
20
-85.695
11
76.5043
21
-85.676
0
LINE
8
BLACK
6
CONTINUOUS
10
76.5043
20
-85.676
11
76.4232
21
-85.6218
0
LINE
8
BLACK
6
CONTINUOUS
10
76.4232
20
-85.6218
11
76.369
21
-85.5407
0
LINE
8
BLACK
6
CONTINUOUS
10
76.369
20
-85.5407
11
76.35
21
-85.445
0
LINE
8
BLACK
6
CONTINUOUS
10
76.35
20
-85.445
11
76.35
21
-83.995
0
LINE
8
BLACK
6
CONTINUOUS
10
76.35
20
-83.995
11
76.369
21
-83.8993
0
LINE
8
BLACK
6
CONTINUOUS
10
76.369
20
-83.8993
11
76.4232
21
-83.8182
0
LINE
8
BLACK
6
CONTINUOUS
10
76.4232
20
-83.8182
11
76.5043
21
-83.764
0
LINE
8
BLACK
6
CONTINUOUS
10
76.5043
20
-83.764
11
76.6
21
-83.745
0
LINE
8
BLACK
6
CONTINUOUS
10
76.6
20
-83.745
11
77.8
21
-83.745
0
LINE
8
BLACK
6
CONTINUOUS
10
77.8
20
-83.745
11
77.8957
21
-83.764
0
LINE
8
BLACK
6
CONTINUOUS
10
124.507
20
-46.015
11
124.686
21
-46.0545
0
LINE
8
BLACK
6
CONTINUOUS
10
124.686
20
-46.0545
11
124.853
21
-46.1317
0
LINE
8
BLACK
6
CONTINUOUS
10
124.853
20
-46.1317
11
125
21
-46.2429
0
LINE
8
BLACK
6
CONTINUOUS
10
125
20
-46.2429
11
125.119
21
-46.383
0
LINE
8
BLACK
6
CONTINUOUS
10
125.119
20
-46.383
11
125.205
21
-46.5454
0
LINE
8
BLACK
6
CONTINUOUS
10
125.205
20
-46.5454
11
125.254
21
-46.7225
0
LINE
8
BLACK
6
CONTINUOUS
10
125.254
20
-46.7225
11
125.264
21
-46.906
0
LINE
8
BLACK
6
CONTINUOUS
10
125.264
20
-46.906
11
125.234
21
-47.0874
0
LINE
8
BLACK
6
CONTINUOUS
10
125.234
20
-47.0874
11
125.166
21
-47.2581
0
LINE
8
BLACK
6
CONTINUOUS
10
125.166
20
-47.2581
11
125.063
21
-47.4103
0
LINE
8
BLACK
6
CONTINUOUS
10
125.063
20
-47.4103
11
124.929
21
-47.5367
0
LINE
8
BLACK
6
CONTINUOUS
10
124.929
20
-47.5367
11
124.772
21
-47.6314
0
LINE
8
BLACK
6
CONTINUOUS
10
124.772
20
-47.6314
11
124.598
21
-47.6901
0
LINE
8
BLACK
6
CONTINUOUS
10
124.598
20
-47.6901
11
124.415
21
-47.71
0
LINE
8
BLACK
6
CONTINUOUS
10
124.415
20
-47.71
11
124.165
21
-47.71
0
LINE
8
BLACK
6
CONTINUOUS
10
124.165
20
-47.71
11
124.073
21
-47.705
0
LINE
8
BLACK
6
CONTINUOUS
10
124.073
20
-47.705
11
123.894
21
-47.6655
0
LINE
8
BLACK
6
CONTINUOUS
10
123.894
20
-47.6655
11
123.727
21
-47.5883
0
LINE
8
BLACK
6
CONTINUOUS
10
123.727
20
-47.5883
11
123.58
21
-47.4771
0
LINE
8
BLACK
6
CONTINUOUS
10
123.58
20
-47.4771
11
123.461
21
-47.337
0
LINE
8
BLACK
6
CONTINUOUS
10
123.461
20
-47.337
11
123.375
21
-47.1746
0
LINE
8
BLACK
6
CONTINUOUS
10
123.375
20
-47.1746
11
123.326
21
-46.9975
0
LINE
8
BLACK
6
CONTINUOUS
10
123.326
20
-46.9975
11
123.326
21
-46.985
0
LINE
8
BLACK
6
CONTINUOUS
10
123.326
20
-46.985
11
119.112
21
-46.985
0
LINE
8
BLACK
6
CONTINUOUS
10
119.112
20
-46.985
11
117.425
21
-48.6718
0
LINE
8
BLACK
6
CONTINUOUS
10
117.425
20
-48.6718
11
117.425
21
-83.7592
0
LINE
8
BLACK
6
CONTINUOUS
10
117.425
20
-83.7592
11
117.527
21
-83.776
0
LINE
8
BLACK
6
CONTINUOUS
10
117.527
20
-83.776
11
117.698
21
-83.844
0
LINE
8
BLACK
6
CONTINUOUS
10
117.698
20
-83.844
11
117.85
21
-83.9472
0
LINE
8
BLACK
6
CONTINUOUS
10
117.85
20
-83.9472
11
117.977
21
-84.0806
0
LINE
8
BLACK
6
CONTINUOUS
10
117.977
20
-84.0806
11
118.071
21
-84.2381
0
LINE
8
BLACK
6
CONTINUOUS
10
118.071
20
-84.2381
11
118.13
21
-84.4123
0
LINE
8
BLACK
6
CONTINUOUS
10
118.13
20
-84.4123
11
118.15
21
-84.595
0
LINE
8
BLACK
6
CONTINUOUS
10
118.15
20
-84.595
11
118.15
21
-84.845
0
LINE
8
BLACK
6
CONTINUOUS
10
118.15
20
-84.845
11
118.145
21
-84.9369
0
LINE
8
BLACK
6
CONTINUOUS
10
118.145
20
-84.9369
11
118.106
21
-85.1164
0
LINE
8
BLACK
6
CONTINUOUS
10
118.106
20
-85.1164
11
118.028
21
-85.2832
0
LINE
8
BLACK
6
CONTINUOUS
10
118.028
20
-85.2832
11
117.917
21
-85.4295
0
LINE
8
BLACK
6
CONTINUOUS
10
117.917
20
-85.4295
11
117.777
21
-85.5485
0
LINE
8
BLACK
6
CONTINUOUS
10
117.777
20
-85.5485
11
117.615
21
-85.6346
0
LINE
8
BLACK
6
CONTINUOUS
10
117.615
20
-85.6346
11
117.438
21
-85.6838
0
LINE
8
BLACK
6
CONTINUOUS
10
117.438
20
-85.6838
11
117.254
21
-85.6938
0
LINE
8
BLACK
6
CONTINUOUS
10
117.254
20
-85.6938
11
117.073
21
-85.664
0
LINE
8
BLACK
6
CONTINUOUS
10
117.073
20
-85.664
11
116.902
21
-85.596
0
LINE
8
BLACK
6
CONTINUOUS
10
116.902
20
-85.596
11
116.75
21
-85.4928
0
LINE
8
BLACK
6
CONTINUOUS
10
116.75
20
-85.4928
11
116.623
21
-85.3594
0
LINE
8
BLACK
6
CONTINUOUS
10
116.623
20
-85.3594
11
116.529
21
-85.2019
0
LINE
8
BLACK
6
CONTINUOUS
10
116.529
20
-85.2019
11
116.47
21
-85.0277
0
LINE
8
BLACK
6
CONTINUOUS
10
116.47
20
-85.0277
11
116.45
21
-84.845
0
LINE
8
BLACK
6
CONTINUOUS
10
116.45
20
-84.845
11
116.45
21
-84.595
0
LINE
8
BLACK
6
CONTINUOUS
10
116.45
20
-84.595
11
116.455
21
-84.5031
0
LINE
8
BLACK
6
CONTINUOUS
10
116.455
20
-84.5031
11
116.494
21
-84.3236
0
LINE
8
BLACK
6
CONTINUOUS
10
116.494
20
-84.3236
11
116.572
21
-84.1568
0
LINE
8
BLACK
6
CONTINUOUS
10
116.572
20
-84.1568
11
116.683
21
-84.0105
0
LINE
8
BLACK
6
CONTINUOUS
10
116.683
20
-84.0105
11
116.823
21
-83.8915
0
LINE
8
BLACK
6
CONTINUOUS
10
116.823
20
-83.8915
11
116.985
21
-83.8054
0
LINE
8
BLACK
6
CONTINUOUS
10
116.985
20
-83.8054
11
117.162
21
-83.7562
0
LINE
8
BLACK
6
CONTINUOUS
10
117.162
20
-83.7562
11
117.175
21
-83.7555
0
LINE
8
BLACK
6
CONTINUOUS
10
117.175
20
-83.7555
11
117.175
21
-48.62
0
LINE
8
BLACK
6
CONTINUOUS
10
117.175
20
-48.62
11
117.178
21
-48.5979
0
LINE
8
BLACK
6
CONTINUOUS
10
117.178
20
-48.5979
11
117.178
21
-48.5934
0
LINE
8
BLACK
6
CONTINUOUS
10
117.178
20
-48.5934
11
117.179
21
-48.591
0
LINE
8
BLACK
6
CONTINUOUS
10
117.179
20
-48.591
11
117.18
21
-48.5848
0
LINE
8
BLACK
6
CONTINUOUS
10
117.18
20
-48.5848
11
117.197
21
-48.5588
0
LINE
8
BLACK
6
CONTINUOUS
10
117.197
20
-48.5588
11
117.212
21
-48.5316
0
LINE
8
BLACK
6
CONTINUOUS
10
117.212
20
-48.5316
11
118.972
21
-46.7716
0
LINE
8
BLACK
6
CONTINUOUS
10
118.972
20
-46.7716
11
118.989
21
-46.7582
0
LINE
8
BLACK
6
CONTINUOUS
10
118.989
20
-46.7582
11
118.992
21
-46.7548
0
LINE
8
BLACK
6
CONTINUOUS
10
118.992
20
-46.7548
11
118.995
21
-46.7541
0
LINE
8
BLACK
6
CONTINUOUS
10
118.995
20
-46.7541
11
119
21
-46.7503
0
LINE
8
BLACK
6
CONTINUOUS
10
119
20
-46.7503
11
119.03
21
-46.7437
0
LINE
8
BLACK
6
CONTINUOUS
10
119.03
20
-46.7437
11
119.06
21
-46.735
0
LINE
8
BLACK
6
CONTINUOUS
10
119.06
20
-46.735
11
123.329
21
-46.735
0
LINE
8
BLACK
6
CONTINUOUS
10
123.329
20
-46.735
11
123.346
21
-46.6326
0
LINE
8
BLACK
6
CONTINUOUS
10
123.346
20
-46.6326
11
123.414
21
-46.4619
0
LINE
8
BLACK
6
CONTINUOUS
10
123.414
20
-46.4619
11
123.517
21
-46.3097
0
LINE
8
BLACK
6
CONTINUOUS
10
123.517
20
-46.3097
11
123.651
21
-46.1833
0
LINE
8
BLACK
6
CONTINUOUS
10
123.651
20
-46.1833
11
123.808
21
-46.0886
0
LINE
8
BLACK
6
CONTINUOUS
10
123.808
20
-46.0886
11
123.982
21
-46.0299
0
LINE
8
BLACK
6
CONTINUOUS
10
123.982
20
-46.0299
11
124.165
21
-46.01
0
LINE
8
BLACK
6
CONTINUOUS
10
124.165
20
-46.01
11
124.415
21
-46.01
0
LINE
8
BLACK
6
CONTINUOUS
10
124.415
20
-46.01
11
124.507
21
-46.015
0
LINE
8
BLACK
6
CONTINUOUS
10
124.507
20
-48.515
11
124.686
21
-48.5545
0
LINE
8
BLACK
6
CONTINUOUS
10
124.686
20
-48.5545
11
124.853
21
-48.6317
0
LINE
8
BLACK
6
CONTINUOUS
10
124.853
20
-48.6317
11
125
21
-48.7429
0
LINE
8
BLACK
6
CONTINUOUS
10
125
20
-48.7429
11
125.119
21
-48.883
0
LINE
8
BLACK
6
CONTINUOUS
10
125.119
20
-48.883
11
125.205
21
-49.0454
0
LINE
8
BLACK
6
CONTINUOUS
10
125.205
20
-49.0454
11
125.254
21
-49.2225
0
LINE
8
BLACK
6
CONTINUOUS
10
125.254
20
-49.2225
11
125.264
21
-49.406
0
LINE
8
BLACK
6
CONTINUOUS
10
125.264
20
-49.406
11
125.234
21
-49.5874
0
LINE
8
BLACK
6
CONTINUOUS
10
125.234
20
-49.5874
11
125.166
21
-49.7581
0
LINE
8
BLACK
6
CONTINUOUS
10
125.166
20
-49.7581
11
125.063
21
-49.9103
0
LINE
8
BLACK
6
CONTINUOUS
10
125.063
20
-49.9103
11
124.929
21
-50.0367
0
LINE
8
BLACK
6
CONTINUOUS
10
124.929
20
-50.0367
11
124.772
21
-50.1314
0
LINE
8
BLACK
6
CONTINUOUS
10
124.772
20
-50.1314
11
124.598
21
-50.1901
0
LINE
8
BLACK
6
CONTINUOUS
10
124.598
20
-50.1901
11
124.415
21
-50.21
0
LINE
8
BLACK
6
CONTINUOUS
10
124.415
20
-50.21
11
124.165
21
-50.21
0
LINE
8
BLACK
6
CONTINUOUS
10
124.165
20
-50.21
11
124.073
21
-50.205
0
LINE
8
BLACK
6
CONTINUOUS
10
124.073
20
-50.205
11
123.894
21
-50.1655
0
LINE
8
BLACK
6
CONTINUOUS
10
123.894
20
-50.1655
11
123.727
21
-50.0883
0
LINE
8
BLACK
6
CONTINUOUS
10
123.727
20
-50.0883
11
123.58
21
-49.9771
0
LINE
8
BLACK
6
CONTINUOUS
10
123.58
20
-49.9771
11
123.461
21
-49.837
0
LINE
8
BLACK
6
CONTINUOUS
10
123.461
20
-49.837
11
123.375
21
-49.6746
0
LINE
8
BLACK
6
CONTINUOUS
10
123.375
20
-49.6746
11
123.326
21
-49.4975
0
LINE
8
BLACK
6
CONTINUOUS
10
123.326
20
-49.4975
11
123.326
21
-49.485
0
LINE
8
BLACK
6
CONTINUOUS
10
123.326
20
-49.485
11
120.612
21
-49.485
0
LINE
8
BLACK
6
CONTINUOUS
10
120.612
20
-49.485
11
119.925
21
-50.1718
0
LINE
8
BLACK
6
CONTINUOUS
10
119.925
20
-50.1718
11
119.925
21
-83.7592
0
LINE
8
BLACK
6
CONTINUOUS
10
119.925
20
-83.7592
11
120.027
21
-83.776
0
LINE
8
BLACK
6
CONTINUOUS
10
120.027
20
-83.776
11
120.198
21
-83.844
0
LINE
8
BLACK
6
CONTINUOUS
10
120.198
20
-83.844
11
120.35
21
-83.9472
0
LINE
8
BLACK
6
CONTINUOUS
10
120.35
20
-83.9472
11
120.477
21
-84.0806
0
LINE
8
BLACK
6
CONTINUOUS
10
120.477
20
-84.0806
11
120.571
21
-84.2381
0
LINE
8
BLACK
6
CONTINUOUS
10
120.571
20
-84.2381
11
120.63
21
-84.4123
0
LINE
8
BLACK
6
CONTINUOUS
10
120.63
20
-84.4123
11
120.65
21
-84.595
0
LINE
8
BLACK
6
CONTINUOUS
10
120.65
20
-84.595
11
120.65
21
-84.845
0
LINE
8
BLACK
6
CONTINUOUS
10
120.65
20
-84.845
11
120.645
21
-84.9369
0
LINE
8
BLACK
6
CONTINUOUS
10
120.645
20
-84.9369
11
120.606
21
-85.1164
0
LINE
8
BLACK
6
CONTINUOUS
10
120.606
20
-85.1164
11
120.528
21
-85.2832
0
LINE
8
BLACK
6
CONTINUOUS
10
120.528
20
-85.2832
11
120.417
21
-85.4295
0
LINE
8
BLACK
6
CONTINUOUS
10
120.417
20
-85.4295
11
120.277
21
-85.5485
0
LINE
8
BLACK
6
CONTINUOUS
10
120.277
20
-85.5485
11
120.115
21
-85.6346
0
LINE
8
BLACK
6
CONTINUOUS
10
120.115
20
-85.6346
11
119.938
21
-85.6838
0
LINE
8
BLACK
6
CONTINUOUS
10
119.938
20
-85.6838
11
119.754
21
-85.6938
0
LINE
8
BLACK
6
CONTINUOUS
10
119.754
20
-85.6938
11
119.573
21
-85.664
0
LINE
8
BLACK
6
CONTINUOUS
10
119.573
20
-85.664
11
119.402
21
-85.596
0
LINE
8
BLACK
6
CONTINUOUS
10
119.402
20
-85.596
11
119.25
21
-85.4928
0
LINE
8
BLACK
6
CONTINUOUS
10
119.25
20
-85.4928
11
119.123
21
-85.3594
0
LINE
8
BLACK
6
CONTINUOUS
10
119.123
20
-85.3594
11
119.029
21
-85.2019
0
LINE
8
BLACK
6
CONTINUOUS
10
119.029
20
-85.2019
11
118.97
21
-85.0277
0
LINE
8
BLACK
6
CONTINUOUS
10
118.97
20
-85.0277
11
118.95
21
-84.845
0
LINE
8
BLACK
6
CONTINUOUS
10
118.95
20
-84.845
11
118.95
21
-84.595
0
LINE
8
BLACK
6
CONTINUOUS
10
118.95
20
-84.595
11
118.955
21
-84.5031
0
LINE
8
BLACK
6
CONTINUOUS
10
118.955
20
-84.5031
11
118.994
21
-84.3236
0
LINE
8
BLACK
6
CONTINUOUS
10
118.994
20
-84.3236
11
119.072
21
-84.1568
0
LINE
8
BLACK
6
CONTINUOUS
10
119.072
20
-84.1568
11
119.183
21
-84.0105
0
LINE
8
BLACK
6
CONTINUOUS
10
119.183
20
-84.0105
11
119.323
21
-83.8915
0
LINE
8
BLACK
6
CONTINUOUS
10
119.323
20
-83.8915
11
119.485
21
-83.8054
0
LINE
8
BLACK
6
CONTINUOUS
10
119.485
20
-83.8054
11
119.662
21
-83.7562
0
LINE
8
BLACK
6
CONTINUOUS
10
119.662
20
-83.7562
11
119.675
21
-83.7555
0
LINE
8
BLACK
6
CONTINUOUS
10
119.675
20
-83.7555
11
119.675
21
-50.12
0
LINE
8
BLACK
6
CONTINUOUS
10
119.675
20
-50.12
11
119.678
21
-50.0979
0
LINE
8
BLACK
6
CONTINUOUS
10
119.678
20
-50.0979
11
119.678
21
-50.0934
0
LINE
8
BLACK
6
CONTINUOUS
10
119.678
20
-50.0934
11
119.679
21
-50.091
0
LINE
8
BLACK
6
CONTINUOUS
10
119.679
20
-50.091
11
119.68
21
-50.0848
0
LINE
8
BLACK
6
CONTINUOUS
10
119.68
20
-50.0848
11
119.697
21
-50.0588
0
LINE
8
BLACK
6
CONTINUOUS
10
119.697
20
-50.0588
11
119.712
21
-50.0316
0
LINE
8
BLACK
6
CONTINUOUS
10
119.712
20
-50.0316
11
120.472
21
-49.2716
0
LINE
8
BLACK
6
CONTINUOUS
10
120.472
20
-49.2716
11
120.489
21
-49.2582
0
LINE
8
BLACK
6
CONTINUOUS
10
120.489
20
-49.2582
11
120.492
21
-49.2548
0
LINE
8
BLACK
6
CONTINUOUS
10
120.492
20
-49.2548
11
120.495
21
-49.2541
0
LINE
8
BLACK
6
CONTINUOUS
10
120.495
20
-49.2541
11
120.5
21
-49.2503
0
LINE
8
BLACK
6
CONTINUOUS
10
120.5
20
-49.2503
11
120.53
21
-49.2437
0
LINE
8
BLACK
6
CONTINUOUS
10
120.53
20
-49.2437
11
120.56
21
-49.235
0
LINE
8
BLACK
6
CONTINUOUS
10
120.56
20
-49.235
11
123.329
21
-49.235
0
LINE
8
BLACK
6
CONTINUOUS
10
123.329
20
-49.235
11
123.346
21
-49.1326
0
LINE
8
BLACK
6
CONTINUOUS
10
123.346
20
-49.1326
11
123.414
21
-48.9619
0
LINE
8
BLACK
6
CONTINUOUS
10
123.414
20
-48.9619
11
123.517
21
-48.8097
0
LINE
8
BLACK
6
CONTINUOUS
10
123.517
20
-48.8097
11
123.651
21
-48.6833
0
LINE
8
BLACK
6
CONTINUOUS
10
123.651
20
-48.6833
11
123.808
21
-48.5886
0
LINE
8
BLACK
6
CONTINUOUS
10
123.808
20
-48.5886
11
123.982
21
-48.5299
0
LINE
8
BLACK
6
CONTINUOUS
10
123.982
20
-48.5299
11
124.165
21
-48.51
0
LINE
8
BLACK
6
CONTINUOUS
10
124.165
20
-48.51
11
124.415
21
-48.51
0
LINE
8
BLACK
6
CONTINUOUS
10
124.415
20
-48.51
11
124.507
21
-48.515
0
LINE
8
BLACK
6
CONTINUOUS
10
72.3627
20
-73.6716
11
72.525
21
-73.7439
0
LINE
8
BLACK
6
CONTINUOUS
10
72.525
20
-73.7439
11
72.6688
21
-73.8483
0
LINE
8
BLACK
6
CONTINUOUS
10
72.6688
20
-73.8483
11
72.7877
21
-73.9804
0
LINE
8
BLACK
6
CONTINUOUS
10
72.7877
20
-73.9804
11
72.8765
21
-74.1343
0
LINE
8
BLACK
6
CONTINUOUS
10
72.8765
20
-74.1343
11
72.9314
21
-74.3033
0
LINE
8
BLACK
6
CONTINUOUS
10
72.9314
20
-74.3033
11
72.9369
21
-74.355
0
LINE
8
BLACK
6
CONTINUOUS
10
72.9369
20
-74.355
11
99.36
21
-74.355
0
LINE
8
BLACK
6
CONTINUOUS
10
99.36
20
-74.355
11
99.3821
21
-74.3582
0
LINE
8
BLACK
6
CONTINUOUS
10
99.3821
20
-74.3582
11
99.3866
21
-74.3579
0
LINE
8
BLACK
6
CONTINUOUS
10
99.3866
20
-74.3579
11
99.389
21
-74.3592
0
LINE
8
BLACK
6
CONTINUOUS
10
99.389
20
-74.3592
11
99.3952
21
-74.3601
0
LINE
8
BLACK
6
CONTINUOUS
10
99.3952
20
-74.3601
11
99.4212
21
-74.3768
0
LINE
8
BLACK
6
CONTINUOUS
10
99.4212
20
-74.3768
11
99.4484
21
-74.3916
0
LINE
8
BLACK
6
CONTINUOUS
10
99.4484
20
-74.3916
11
104.828
21
-79.7716
0
LINE
8
BLACK
6
CONTINUOUS
10
104.828
20
-79.7716
11
104.842
21
-79.7895
0
LINE
8
BLACK
6
CONTINUOUS
10
104.842
20
-79.7895
11
104.845
21
-79.7924
0
LINE
8
BLACK
6
CONTINUOUS
10
104.845
20
-79.7924
11
104.846
21
-79.795
0
LINE
8
BLACK
6
CONTINUOUS
10
104.846
20
-79.795
11
104.85
21
-79.8001
0
LINE
8
BLACK
6
CONTINUOUS
10
104.85
20
-79.8001
11
104.856
21
-79.8303
0
LINE
8
BLACK
6
CONTINUOUS
10
104.856
20
-79.8303
11
104.865
21
-79.86
0
LINE
8
BLACK
6
CONTINUOUS
10
104.865
20
-79.86
11
104.865
21
-82.73
0
LINE
8
BLACK
6
CONTINUOUS
10
104.865
20
-82.73
11
105.59
21
-82.73
0
LINE
8
BLACK
6
CONTINUOUS
10
105.59
20
-82.73
11
105.59
21
-84.43
0
LINE
8
BLACK
6
CONTINUOUS
10
105.59
20
-84.43
11
103.89
21
-84.43
0
LINE
8
BLACK
6
CONTINUOUS
10
103.89
20
-84.43
11
103.89
21
-82.73
0
LINE
8
BLACK
6
CONTINUOUS
10
103.89
20
-82.73
11
104.615
21
-82.73
0
LINE
8
BLACK
6
CONTINUOUS
10
104.615
20
-82.73
11
104.615
21
-79.9118
0
LINE
8
BLACK
6
CONTINUOUS
10
104.615
20
-79.9118
11
99.3082
21
-74.605
0
LINE
8
BLACK
6
CONTINUOUS
10
99.3082
20
-74.605
11
72.9369
21
-74.605
0
LINE
8
BLACK
6
CONTINUOUS
10
72.9369
20
-74.605
11
72.9314
21
-74.6567
0
LINE
8
BLACK
6
CONTINUOUS
10
72.9314
20
-74.6567
11
72.8765
21
-74.8257
0
LINE
8
BLACK
6
CONTINUOUS
10
72.8765
20
-74.8257
11
72.7877
21
-74.9796
0
LINE
8
BLACK
6
CONTINUOUS
10
72.7877
20
-74.9796
11
72.6688
21
-75.1117
0
LINE
8
BLACK
6
CONTINUOUS
10
72.6688
20
-75.1117
11
72.525
21
-75.2161
0
LINE
8
BLACK
6
CONTINUOUS
10
72.525
20
-75.2161
11
72.3627
21
-75.2884
0
LINE
8
BLACK
6
CONTINUOUS
10
72.3627
20
-75.2884
11
72.1888
21
-75.3253
0
LINE
8
BLACK
6
CONTINUOUS
10
72.1888
20
-75.3253
11
72.0112
21
-75.3253
0
LINE
8
BLACK
6
CONTINUOUS
10
72.0112
20
-75.3253
11
71.8373
21
-75.2884
0
LINE
8
BLACK
6
CONTINUOUS
10
71.8373
20
-75.2884
11
71.675
21
-75.2161
0
LINE
8
BLACK
6
CONTINUOUS
10
71.675
20
-75.2161
11
71.5312
21
-75.1117
0
LINE
8
BLACK
6
CONTINUOUS
10
71.5312
20
-75.1117
11
71.4123
21
-74.9796
0
LINE
8
BLACK
6
CONTINUOUS
10
71.4123
20
-74.9796
11
71.3235
21
-74.8257
0
LINE
8
BLACK
6
CONTINUOUS
10
71.3235
20
-74.8257
11
71.2686
21
-74.6567
0
LINE
8
BLACK
6
CONTINUOUS
10
71.2686
20
-74.6567
11
71.25
21
-74.48
0
LINE
8
BLACK
6
CONTINUOUS
10
71.25
20
-74.48
11
71.2686
21
-74.3033
0
LINE
8
BLACK
6
CONTINUOUS
10
71.2686
20
-74.3033
11
71.3235
21
-74.1343
0
LINE
8
BLACK
6
CONTINUOUS
10
71.3235
20
-74.1343
11
71.4123
21
-73.9804
0
LINE
8
BLACK
6
CONTINUOUS
10
71.4123
20
-73.9804
11
71.5312
21
-73.8483
0
LINE
8
BLACK
6
CONTINUOUS
10
71.5312
20
-73.8483
11
71.675
21
-73.7439
0
LINE
8
BLACK
6
CONTINUOUS
10
71.675
20
-73.7439
11
71.8373
21
-73.6716
0
LINE
8
BLACK
6
CONTINUOUS
10
71.8373
20
-73.6716
11
72.0112
21
-73.6347
0
LINE
8
BLACK
6
CONTINUOUS
10
72.0112
20
-73.6347
11
72.1888
21
-73.6347
0
LINE
8
BLACK
6
CONTINUOUS
10
72.1888
20
-73.6347
11
72.3627
21
-73.6716
0
LINE
8
BLACK
6
CONTINUOUS
10
99.9227
20
-82.7716
11
100.085
21
-82.8439
0
LINE
8
BLACK
6
CONTINUOUS
10
100.085
20
-82.8439
11
100.229
21
-82.9483
0
LINE
8
BLACK
6
CONTINUOUS
10
100.229
20
-82.9483
11
100.348
21
-83.0804
0
LINE
8
BLACK
6
CONTINUOUS
10
100.348
20
-83.0804
11
100.437
21
-83.2343
0
LINE
8
BLACK
6
CONTINUOUS
10
100.437
20
-83.2343
11
100.491
21
-83.4033
0
LINE
8
BLACK
6
CONTINUOUS
10
100.491
20
-83.4033
11
100.51
21
-83.58
0
LINE
8
BLACK
6
CONTINUOUS
10
100.51
20
-83.58
11
100.491
21
-83.7567
0
LINE
8
BLACK
6
CONTINUOUS
10
100.491
20
-83.7567
11
100.437
21
-83.9257
0
LINE
8
BLACK
6
CONTINUOUS
10
100.437
20
-83.9257
11
100.348
21
-84.0796
0
LINE
8
BLACK
6
CONTINUOUS
10
100.348
20
-84.0796
11
100.229
21
-84.2117
0
LINE
8
BLACK
6
CONTINUOUS
10
100.229
20
-84.2117
11
100.085
21
-84.3161
0
LINE
8
BLACK
6
CONTINUOUS
10
100.085
20
-84.3161
11
99.9227
21
-84.3884
0
LINE
8
BLACK
6
CONTINUOUS
10
99.9227
20
-84.3884
11
99.7488
21
-84.4253
0
LINE
8
BLACK
6
CONTINUOUS
10
99.7488
20
-84.4253
11
99.5712
21
-84.4253
0
LINE
8
BLACK
6
CONTINUOUS
10
99.5712
20
-84.4253
11
99.3973
21
-84.3884
0
LINE
8
BLACK
6
CONTINUOUS
10
99.3973
20
-84.3884
11
99.235
21
-84.3161
0
LINE
8
BLACK
6
CONTINUOUS
10
99.235
20
-84.3161
11
99.0912
21
-84.2117
0
LINE
8
BLACK
6
CONTINUOUS
10
99.0912
20
-84.2117
11
98.9723
21
-84.0796
0
LINE
8
BLACK
6
CONTINUOUS
10
98.9723
20
-84.0796
11
98.8835
21
-83.9257
0
LINE
8
BLACK
6
CONTINUOUS
10
98.8835
20
-83.9257
11
98.8286
21
-83.7567
0
LINE
8
BLACK
6
CONTINUOUS
10
98.8286
20
-83.7567
11
98.81
21
-83.58
0
LINE
8
BLACK
6
CONTINUOUS
10
98.81
20
-83.58
11
98.8286
21
-83.4033
0
LINE
8
BLACK
6
CONTINUOUS
10
98.8286
20
-83.4033
11
98.8835
21
-83.2343
0
LINE
8
BLACK
6
CONTINUOUS
10
98.8835
20
-83.2343
11
98.9723
21
-83.0804
0
LINE
8
BLACK
6
CONTINUOUS
10
98.9723
20
-83.0804
11
99.0912
21
-82.9483
0
LINE
8
BLACK
6
CONTINUOUS
10
99.0912
20
-82.9483
11
99.235
21
-82.8439
0
LINE
8
BLACK
6
CONTINUOUS
10
99.235
20
-82.8439
11
99.3973
21
-82.7716
0
LINE
8
BLACK
6
CONTINUOUS
10
99.3973
20
-82.7716
11
99.5712
21
-82.7347
0
LINE
8
BLACK
6
CONTINUOUS
10
99.5712
20
-82.7347
11
99.7488
21
-82.7347
0
LINE
8
BLACK
6
CONTINUOUS
10
99.7488
20
-82.7347
11
99.9227
21
-82.7716
0
LINE
8
BLACK
6
CONTINUOUS
10
102.463
20
-82.7716
11
102.625
21
-82.8439
0
LINE
8
BLACK
6
CONTINUOUS
10
102.625
20
-82.8439
11
102.769
21
-82.9483
0
LINE
8
BLACK
6
CONTINUOUS
10
102.769
20
-82.9483
11
102.888
21
-83.0804
0
LINE
8
BLACK
6
CONTINUOUS
10
102.888
20
-83.0804
11
102.977
21
-83.2343
0
LINE
8
BLACK
6
CONTINUOUS
10
102.977
20
-83.2343
11
103.031
21
-83.4033
0
LINE
8
BLACK
6
CONTINUOUS
10
103.031
20
-83.4033
11
103.05
21
-83.58
0
LINE
8
BLACK
6
CONTINUOUS
10
103.05
20
-83.58
11
103.031
21
-83.7567
0
LINE
8
BLACK
6
CONTINUOUS
10
103.031
20
-83.7567
11
102.977
21
-83.9257
0
LINE
8
BLACK
6
CONTINUOUS
10
102.977
20
-83.9257
11
102.888
21
-84.0796
0
LINE
8
BLACK
6
CONTINUOUS
10
102.888
20
-84.0796
11
102.769
21
-84.2117
0
LINE
8
BLACK
6
CONTINUOUS
10
102.769
20
-84.2117
11
102.625
21
-84.3161
0
LINE
8
BLACK
6
CONTINUOUS
10
102.625
20
-84.3161
11
102.463
21
-84.3884
0
LINE
8
BLACK
6
CONTINUOUS
10
102.463
20
-84.3884
11
102.289
21
-84.4253
0
LINE
8
BLACK
6
CONTINUOUS
10
102.289
20
-84.4253
11
102.111
21
-84.4253
0
LINE
8
BLACK
6
CONTINUOUS
10
102.111
20
-84.4253
11
101.937
21
-84.3884
0
LINE
8
BLACK
6
CONTINUOUS
10
101.937
20
-84.3884
11
101.775
21
-84.3161
0
LINE
8
BLACK
6
CONTINUOUS
10
101.775
20
-84.3161
11
101.631
21
-84.2117
0
LINE
8
BLACK
6
CONTINUOUS
10
101.631
20
-84.2117
11
101.512
21
-84.0796
0
LINE
8
BLACK
6
CONTINUOUS
10
101.512
20
-84.0796
11
101.423
21
-83.9257
0
LINE
8
BLACK
6
CONTINUOUS
10
101.423
20
-83.9257
11
101.369
21
-83.7567
0
LINE
8
BLACK
6
CONTINUOUS
10
101.369
20
-83.7567
11
101.35
21
-83.58
0
LINE
8
BLACK
6
CONTINUOUS
10
101.35
20
-83.58
11
101.369
21
-83.4033
0
LINE
8
BLACK
6
CONTINUOUS
10
101.369
20
-83.4033
11
101.423
21
-83.2343
0
LINE
8
BLACK
6
CONTINUOUS
10
101.423
20
-83.2343
11
101.512
21
-83.0804
0
LINE
8
BLACK
6
CONTINUOUS
10
101.512
20
-83.0804
11
101.631
21
-82.9483
0
LINE
8
BLACK
6
CONTINUOUS
10
101.631
20
-82.9483
11
101.775
21
-82.8439
0
LINE
8
BLACK
6
CONTINUOUS
10
101.775
20
-82.8439
11
101.937
21
-82.7716
0
LINE
8
BLACK
6
CONTINUOUS
10
101.937
20
-82.7716
11
102.111
21
-82.7347
0
LINE
8
BLACK
6
CONTINUOUS
10
102.111
20
-82.7347
11
102.289
21
-82.7347
0
LINE
8
BLACK
6
CONTINUOUS
10
102.289
20
-82.7347
11
102.463
21
-82.7716
0
LINE
8
BLACK
6
CONTINUOUS
10
95.4857
20
-37.964
11
95.5668
21
-38.0182
0
LINE
8
BLACK
6
CONTINUOUS
10
95.5668
20
-38.0182
11
95.621
21
-38.0993
0
LINE
8
BLACK
6
CONTINUOUS
10
95.621
20
-38.0993
11
95.64
21
-38.195
0
LINE
8
BLACK
6
CONTINUOUS
10
95.64
20
-38.195
11
95.64
21
-39.695
0
LINE
8
BLACK
6
CONTINUOUS
10
95.64
20
-39.695
11
95.621
21
-39.7907
0
LINE
8
BLACK
6
CONTINUOUS
10
95.621
20
-39.7907
11
95.5668
21
-39.8718
0
LINE
8
BLACK
6
CONTINUOUS
10
95.5668
20
-39.8718
11
95.4857
21
-39.926
0
LINE
8
BLACK
6
CONTINUOUS
10
95.4857
20
-39.926
11
95.39
21
-39.945
0
LINE
8
BLACK
6
CONTINUOUS
10
95.39
20
-39.945
11
94.19
21
-39.945
0
LINE
8
BLACK
6
CONTINUOUS
10
94.19
20
-39.945
11
94.0943
21
-39.926
0
LINE
8
BLACK
6
CONTINUOUS
10
94.0943
20
-39.926
11
94.0132
21
-39.8718
0
LINE
8
BLACK
6
CONTINUOUS
10
94.0132
20
-39.8718
11
93.959
21
-39.7907
0
LINE
8
BLACK
6
CONTINUOUS
10
93.959
20
-39.7907
11
93.94
21
-39.695
0
LINE
8
BLACK
6
CONTINUOUS
10
93.94
20
-39.695
11
93.94
21
-38.195
0
LINE
8
BLACK
6
CONTINUOUS
10
93.94
20
-38.195
11
93.959
21
-38.0993
0
LINE
8
BLACK
6
CONTINUOUS
10
93.959
20
-38.0993
11
94.0132
21
-38.0182
0
LINE
8
BLACK
6
CONTINUOUS
10
94.0132
20
-38.0182
11
94.0943
21
-37.964
0
LINE
8
BLACK
6
CONTINUOUS
10
94.0943
20
-37.964
11
94.19
21
-37.945
0
LINE
8
BLACK
6
CONTINUOUS
10
94.19
20
-37.945
11
95.39
21
-37.945
0
LINE
8
BLACK
6
CONTINUOUS
10
95.39
20
-37.945
11
95.4857
21
-37.964
0
LINE
8
BLACK
6
CONTINUOUS
10
86.5174
20
-38.011
11
86.6881
21
-38.079
0
LINE
8
BLACK
6
CONTINUOUS
10
86.6881
20
-38.079
11
86.8403
21
-38.1822
0
LINE
8
BLACK
6
CONTINUOUS
10
86.8403
20
-38.1822
11
86.9667
21
-38.3156
0
LINE
8
BLACK
6
CONTINUOUS
10
86.9667
20
-38.3156
11
87.0614
21
-38.4731
0
LINE
8
BLACK
6
CONTINUOUS
10
87.0614
20
-38.4731
11
87.1201
21
-38.6473
0
LINE
8
BLACK
6
CONTINUOUS
10
87.1201
20
-38.6473
11
87.14
21
-38.83
0
LINE
8
BLACK
6
CONTINUOUS
10
87.14
20
-38.83
11
87.14
21
-39.08
0
LINE
8
BLACK
6
CONTINUOUS
10
87.14
20
-39.08
11
87.135
21
-39.1719
0
LINE
8
BLACK
6
CONTINUOUS
10
87.135
20
-39.1719
11
87.0955
21
-39.3514
0
LINE
8
BLACK
6
CONTINUOUS
10
87.0955
20
-39.3514
11
87.0183
21
-39.5182
0
LINE
8
BLACK
6
CONTINUOUS
10
87.0183
20
-39.5182
11
86.9071
21
-39.6645
0
LINE
8
BLACK
6
CONTINUOUS
10
86.9071
20
-39.6645
11
86.767
21
-39.7835
0
LINE
8
BLACK
6
CONTINUOUS
10
86.767
20
-39.7835
11
86.6046
21
-39.8696
0
LINE
8
BLACK
6
CONTINUOUS
10
86.6046
20
-39.8696
11
86.4275
21
-39.9188
0
LINE
8
BLACK
6
CONTINUOUS
10
86.4275
20
-39.9188
11
86.244
21
-39.9288
0
LINE
8
BLACK
6
CONTINUOUS
10
86.244
20
-39.9288
11
86.0626
21
-39.899
0
LINE
8
BLACK
6
CONTINUOUS
10
86.0626
20
-39.899
11
85.8919
21
-39.831
0
LINE
8
BLACK
6
CONTINUOUS
10
85.8919
20
-39.831
11
85.7397
21
-39.7278
0
LINE
8
BLACK
6
CONTINUOUS
10
85.7397
20
-39.7278
11
85.6133
21
-39.5944
0
LINE
8
BLACK
6
CONTINUOUS
10
85.6133
20
-39.5944
11
85.5186
21
-39.4369
0
LINE
8
BLACK
6
CONTINUOUS
10
85.5186
20
-39.4369
11
85.4599
21
-39.2627
0
LINE
8
BLACK
6
CONTINUOUS
10
85.4599
20
-39.2627
11
85.44
21
-39.08
0
LINE
8
BLACK
6
CONTINUOUS
10
85.44
20
-39.08
11
85.44
21
-38.83
0
LINE
8
BLACK
6
CONTINUOUS
10
85.44
20
-38.83
11
85.445
21
-38.7381
0
LINE
8
BLACK
6
CONTINUOUS
10
85.445
20
-38.7381
11
85.4845
21
-38.5586
0
LINE
8
BLACK
6
CONTINUOUS
10
85.4845
20
-38.5586
11
85.5617
21
-38.3918
0
LINE
8
BLACK
6
CONTINUOUS
10
85.5617
20
-38.3918
11
85.6729
21
-38.2455
0
LINE
8
BLACK
6
CONTINUOUS
10
85.6729
20
-38.2455
11
85.813
21
-38.1265
0
LINE
8
BLACK
6
CONTINUOUS
10
85.813
20
-38.1265
11
85.9754
21
-38.0404
0
LINE
8
BLACK
6
CONTINUOUS
10
85.9754
20
-38.0404
11
86.1525
21
-37.9912
0
LINE
8
BLACK
6
CONTINUOUS
10
86.1525
20
-37.9912
11
86.336
21
-37.9812
0
LINE
8
BLACK
6
CONTINUOUS
10
86.336
20
-37.9812
11
86.5174
21
-38.011
0
LINE
8
BLACK
6
CONTINUOUS
10
81.9857
20
-37.999
11
82.0668
21
-38.0532
0
LINE
8
BLACK
6
CONTINUOUS
10
82.0668
20
-38.0532
11
82.121
21
-38.1343
0
LINE
8
BLACK
6
CONTINUOUS
10
82.121
20
-38.1343
11
82.14
21
-38.23
0
LINE
8
BLACK
6
CONTINUOUS
10
82.14
20
-38.23
11
82.14
21
-39.68
0
LINE
8
BLACK
6
CONTINUOUS
10
82.14
20
-39.68
11
82.121
21
-39.7757
0
LINE
8
BLACK
6
CONTINUOUS
10
82.121
20
-39.7757
11
82.0668
21
-39.8568
0
LINE
8
BLACK
6
CONTINUOUS
10
82.0668
20
-39.8568
11
81.9857
21
-39.911
0
LINE
8
BLACK
6
CONTINUOUS
10
81.9857
20
-39.911
11
81.89
21
-39.93
0
LINE
8
BLACK
6
CONTINUOUS
10
81.89
20
-39.93
11
80.69
21
-39.93
0
LINE
8
BLACK
6
CONTINUOUS
10
80.69
20
-39.93
11
80.5943
21
-39.911
0
LINE
8
BLACK
6
CONTINUOUS
10
80.5943
20
-39.911
11
80.5132
21
-39.8568
0
LINE
8
BLACK
6
CONTINUOUS
10
80.5132
20
-39.8568
11
80.459
21
-39.7757
0
LINE
8
BLACK
6
CONTINUOUS
10
80.459
20
-39.7757
11
80.44
21
-39.68
0
LINE
8
BLACK
6
CONTINUOUS
10
80.44
20
-39.68
11
80.44
21
-38.23
0
LINE
8
BLACK
6
CONTINUOUS
10
80.44
20
-38.23
11
80.459
21
-38.1343
0
LINE
8
BLACK
6
CONTINUOUS
10
80.459
20
-38.1343
11
80.5132
21
-38.0532
0
LINE
8
BLACK
6
CONTINUOUS
10
80.5132
20
-38.0532
11
80.5943
21
-37.999
0
LINE
8
BLACK
6
CONTINUOUS
10
80.5943
20
-37.999
11
80.69
21
-37.98
0
LINE
8
BLACK
6
CONTINUOUS
10
80.69
20
-37.98
11
81.89
21
-37.98
0
LINE
8
BLACK
6
CONTINUOUS
10
81.89
20
-37.98
11
81.9857
21
-37.999
0
LINE
8
BLACK
6
CONTINUOUS
10
73.0379
20
-35.9555
11
73.0844
21
-36.0092
0
LINE
8
BLACK
6
CONTINUOUS
10
73.0844
20
-36.0092
11
73.0945
21
-36.0794
0
LINE
8
BLACK
6
CONTINUOUS
10
73.0945
20
-36.0794
11
73.065
21
-36.144
0
LINE
8
BLACK
6
CONTINUOUS
10
73.065
20
-36.144
11
73.0053
21
-36.1824
0
LINE
8
BLACK
6
CONTINUOUS
10
73.0053
20
-36.1824
11
72.9969
21
-36.1846
0
LINE
8
BLACK
6
CONTINUOUS
10
72.9969
20
-36.1846
11
72.6745
21
-36.2555
0
LINE
8
BLACK
6
CONTINUOUS
10
72.6745
20
-36.2555
11
72.6745
21
-36.2555
0
LINE
8
BLACK
6
CONTINUOUS
10
72.6745
20
-36.2555
11
72.3195
21
-36.3751
0
LINE
8
BLACK
6
CONTINUOUS
10
72.3195
20
-36.3751
11
72.3195
21
-36.3751
0
LINE
8
BLACK
6
CONTINUOUS
10
72.3195
20
-36.3751
11
71.9795
21
-36.5324
0
LINE
8
BLACK
6
CONTINUOUS
10
71.9795
20
-36.5324
11
71.9795
21
-36.5324
0
LINE
8
BLACK
6
CONTINUOUS
10
71.9795
20
-36.5324
11
71.6585
21
-36.7255
0
LINE
8
BLACK
6
CONTINUOUS
10
71.6585
20
-36.7255
11
71.6585
21
-36.7256
0
LINE
8
BLACK
6
CONTINUOUS
10
71.6585
20
-36.7256
11
71.3603
21
-36.9522
0
LINE
8
BLACK
6
CONTINUOUS
10
71.3603
20
-36.9522
11
71.3603
21
-36.9523
0
LINE
8
BLACK
6
CONTINUOUS
10
71.3603
20
-36.9523
11
71.0884
21
-37.2099
0
LINE
8
BLACK
6
CONTINUOUS
10
71.0884
20
-37.2099
11
70.8459
21
-37.4954
0
LINE
8
BLACK
6
CONTINUOUS
10
70.8459
20
-37.4954
11
70.8459
21
-37.4954
0
LINE
8
BLACK
6
CONTINUOUS
10
70.8459
20
-37.4954
11
70.6356
21
-37.8054
0
LINE
8
BLACK
6
CONTINUOUS
10
70.6356
20
-37.8054
11
70.6356
21
-37.8054
0
LINE
8
BLACK
6
CONTINUOUS
10
70.6356
20
-37.8054
11
70.6356
21
-37.8054
0
LINE
8
BLACK
6
CONTINUOUS
10
70.6356
20
-37.8054
11
70.4602
21
-38.1364
0
LINE
8
BLACK
6
CONTINUOUS
10
70.4602
20
-38.1364
11
70.4602
21
-38.1364
0
LINE
8
BLACK
6
CONTINUOUS
10
70.4602
20
-38.1364
11
70.3215
21
-38.4844
0
LINE
8
BLACK
6
CONTINUOUS
10
70.3215
20
-38.4844
11
70.2213
21
-38.8453
0
LINE
8
BLACK
6
CONTINUOUS
10
70.2213
20
-38.8453
11
70.1607
21
-39.215
0
LINE
8
BLACK
6
CONTINUOUS
10
70.1607
20
-39.215
11
70.1404
21
-39.589
0
LINE
8
BLACK
6
CONTINUOUS
10
70.1404
20
-39.589
11
70.1404
21
-39.589
0
LINE
8
BLACK
6
CONTINUOUS
10
70.1404
20
-39.589
11
70.1607
21
-39.963
0
LINE
8
BLACK
6
CONTINUOUS
10
70.1607
20
-39.963
11
70.2213
21
-40.3327
0
LINE
8
BLACK
6
CONTINUOUS
10
70.2213
20
-40.3327
11
70.3215
21
-40.6936
0
LINE
8
BLACK
6
CONTINUOUS
10
70.3215
20
-40.6936
11
70.4602
21
-41.0416
0
LINE
8
BLACK
6
CONTINUOUS
10
70.4602
20
-41.0416
11
70.6356
21
-41.3726
0
LINE
8
BLACK
6
CONTINUOUS
10
70.6356
20
-41.3726
11
70.8459
21
-41.6826
0
LINE
8
BLACK
6
CONTINUOUS
10
70.8459
20
-41.6826
11
70.8459
21
-41.6826
0
LINE
8
BLACK
6
CONTINUOUS
10
70.8459
20
-41.6826
11
71.0884
21
-41.9681
0
LINE
8
BLACK
6
CONTINUOUS
10
71.0884
20
-41.9681
11
71.3603
21
-42.2257
0
LINE
8
BLACK
6
CONTINUOUS
10
71.3603
20
-42.2257
11
71.3603
21
-42.2258
0
LINE
8
BLACK
6
CONTINUOUS
10
71.3603
20
-42.2258
11
71.6585
21
-42.4525
0
LINE
8
BLACK
6
CONTINUOUS
10
71.6585
20
-42.4525
11
71.9795
21
-42.6456
0
LINE
8
BLACK
6
CONTINUOUS
10
71.9795
20
-42.6456
11
72.1026
21
-42.7025
0
LINE
8
BLACK
6
CONTINUOUS
10
72.1026
20
-42.7025
11
72.3195
21
-42.8029
0
LINE
8
BLACK
6
CONTINUOUS
10
72.3195
20
-42.8029
11
72.3195
21
-42.8029
0
LINE
8
BLACK
6
CONTINUOUS
10
72.3195
20
-42.8029
11
72.6745
21
-42.9225
0
LINE
8
BLACK
6
CONTINUOUS
10
72.6745
20
-42.9225
11
73.0403
21
-43.003
0
LINE
8
BLACK
6
CONTINUOUS
10
73.0403
20
-43.003
11
73.4127
21
-43.0435
0
LINE
8
BLACK
6
CONTINUOUS
10
73.4127
20
-43.0435
11
73.4127
21
-43.0435
0
LINE
8
BLACK
6
CONTINUOUS
10
73.4127
20
-43.0435
11
73.7873
21
-43.0435
0
LINE
8
BLACK
6
CONTINUOUS
10
73.7873
20
-43.0435
11
73.7873
21
-43.0435
0
LINE
8
BLACK
6
CONTINUOUS
10
73.7873
20
-43.0435
11
74.1597
21
-43.003
0
LINE
8
BLACK
6
CONTINUOUS
10
74.1597
20
-43.003
11
74.5255
21
-42.9225
0
LINE
8
BLACK
6
CONTINUOUS
10
74.5255
20
-42.9225
11
74.8805
21
-42.8029
0
LINE
8
BLACK
6
CONTINUOUS
10
74.8805
20
-42.8029
11
75.2205
21
-42.6456
0
LINE
8
BLACK
6
CONTINUOUS
10
75.2205
20
-42.6456
11
75.5415
21
-42.4525
0
LINE
8
BLACK
6
CONTINUOUS
10
75.5415
20
-42.4525
11
75.8397
21
-42.2258
0
LINE
8
BLACK
6
CONTINUOUS
10
75.8397
20
-42.2258
11
76.1116
21
-41.9681
0
LINE
8
BLACK
6
CONTINUOUS
10
76.1116
20
-41.9681
11
76.3541
21
-41.6826
0
LINE
8
BLACK
6
CONTINUOUS
10
76.3541
20
-41.6826
11
76.5644
21
-41.3726
0
LINE
8
BLACK
6
CONTINUOUS
10
76.5644
20
-41.3726
11
76.7398
21
-41.0416
0
LINE
8
BLACK
6
CONTINUOUS
10
76.7398
20
-41.0416
11
76.8785
21
-40.6936
0
LINE
8
BLACK
6
CONTINUOUS
10
76.8785
20
-40.6936
11
76.9787
21
-40.3327
0
LINE
8
BLACK
6
CONTINUOUS
10
76.9787
20
-40.3327
11
77.0393
21
-39.963
0
LINE
8
BLACK
6
CONTINUOUS
10
77.0393
20
-39.963
11
77.052
21
-39.7282
0
LINE
8
BLACK
6
CONTINUOUS
10
77.052
20
-39.7282
11
77.0596
21
-39.589
0
LINE
8
BLACK
6
CONTINUOUS
10
77.0596
20
-39.589
11
77.0393
21
-39.215
0
LINE
8
BLACK
6
CONTINUOUS
10
77.0393
20
-39.215
11
76.9914
21
-38.9226
0
LINE
8
BLACK
6
CONTINUOUS
10
76.9914
20
-38.9226
11
76.9787
21
-38.8453
0
LINE
8
BLACK
6
CONTINUOUS
10
76.9787
20
-38.8453
11
76.9787
21
-38.8453
0
LINE
8
BLACK
6
CONTINUOUS
10
76.9787
20
-38.8453
11
76.8785
21
-38.4844
0
LINE
8
BLACK
6
CONTINUOUS
10
76.8785
20
-38.4844
11
76.7398
21
-38.1364
0
LINE
8
BLACK
6
CONTINUOUS
10
76.7398
20
-38.1364
11
76.5644
21
-37.8054
0
LINE
8
BLACK
6
CONTINUOUS
10
76.5644
20
-37.8054
11
76.3541
21
-37.4954
0
LINE
8
BLACK
6
CONTINUOUS
10
76.3541
20
-37.4954
11
76.2699
21
-37.3962
0
LINE
8
BLACK
6
CONTINUOUS
10
76.2699
20
-37.3962
11
76.1116
21
-37.2099
0
LINE
8
BLACK
6
CONTINUOUS
10
76.1116
20
-37.2099
11
75.8397
21
-36.9523
0
LINE
8
BLACK
6
CONTINUOUS
10
75.8397
20
-36.9523
11
75.8397
21
-36.9522
0
LINE
8
BLACK
6
CONTINUOUS
10
75.8397
20
-36.9522
11
75.5415
21
-36.7256
0
LINE
8
BLACK
6
CONTINUOUS
10
75.5415
20
-36.7256
11
75.5415
21
-36.7255
0
LINE
8
BLACK
6
CONTINUOUS
10
75.5415
20
-36.7255
11
75.2205
21
-36.5324
0
LINE
8
BLACK
6
CONTINUOUS
10
75.2205
20
-36.5324
11
75.2205
21
-36.5324
0
LINE
8
BLACK
6
CONTINUOUS
10
75.2205
20
-36.5324
11
74.8805
21
-36.3751
0
LINE
8
BLACK
6
CONTINUOUS
10
74.8805
20
-36.3751
11
74.8805
21
-36.3751
0
LINE
8
BLACK
6
CONTINUOUS
10
74.8805
20
-36.3751
11
74.5255
21
-36.2555
0
LINE
8
BLACK
6
CONTINUOUS
10
74.5255
20
-36.2555
11
74.5255
21
-36.2555
0
LINE
8
BLACK
6
CONTINUOUS
10
74.5255
20
-36.2555
11
74.5255
21
-36.2555
0
LINE
8
BLACK
6
CONTINUOUS
10
74.5255
20
-36.2555
11
74.5255
21
-36.2555
0
LINE
8
BLACK
6
CONTINUOUS
10
74.5255
20
-36.2555
11
74.5255
21
-36.2555
0
LINE
8
BLACK
6
CONTINUOUS
10
74.5255
20
-36.2555
11
74.2031
21
-36.1846
0
LINE
8
BLACK
6
CONTINUOUS
10
74.2031
20
-36.1846
11
74.1409
21
-36.1504
0
LINE
8
BLACK
6
CONTINUOUS
10
74.1409
20
-36.1504
11
74.107
21
-36.088
0
LINE
8
BLACK
6
CONTINUOUS
10
74.107
20
-36.088
11
74.1122
21
-36.0172
0
LINE
8
BLACK
6
CONTINUOUS
10
74.1122
20
-36.0172
11
74.1549
21
-35.9604
0
LINE
8
BLACK
6
CONTINUOUS
10
74.1549
20
-35.9604
11
74.2215
21
-35.9358
0
LINE
8
BLACK
6
CONTINUOUS
10
74.2215
20
-35.9358
11
74.2302
21
-35.9355
0
LINE
8
BLACK
6
CONTINUOUS
10
74.2302
20
-35.9355
11
75.7849
21
-35.9355
0
LINE
8
BLACK
6
CONTINUOUS
10
75.7849
20
-35.9355
11
78.7849
21
-35.9355
0
LINE
8
BLACK
6
CONTINUOUS
10
78.7849
20
-35.9355
11
122.185
21
-35.9355
0
LINE
8
BLACK
6
CONTINUOUS
10
122.185
20
-35.9355
11
125.185
21
-35.9355
0
LINE
8
BLACK
6
CONTINUOUS
10
125.185
20
-35.9355
11
127.538
21
-35.9355
0
LINE
8
BLACK
6
CONTINUOUS
10
127.538
20
-35.9355
11
127.607
21
-35.9555
0
LINE
8
BLACK
6
CONTINUOUS
10
127.607
20
-35.9555
11
127.653
21
-36.0092
0
LINE
8
BLACK
6
CONTINUOUS
10
127.653
20
-36.0092
11
127.664
21
-36.0615
0
LINE
8
BLACK
6
CONTINUOUS
10
127.664
20
-36.0615
11
127.664
21
-75.9726
0
LINE
8
BLACK
6
CONTINUOUS
10
127.664
20
-75.9726
11
127.644
21
-76.0408
0
LINE
8
BLACK
6
CONTINUOUS
10
127.644
20
-76.0408
11
127.591
21
-76.0873
0
LINE
8
BLACK
6
CONTINUOUS
10
127.591
20
-76.0873
11
127.521
21
-76.0974
0
LINE
8
BLACK
6
CONTINUOUS
10
127.521
20
-76.0974
11
127.456
21
-76.0679
0
LINE
8
BLACK
6
CONTINUOUS
10
127.456
20
-76.0679
11
127.418
21
-76.0081
0
LINE
8
BLACK
6
CONTINUOUS
10
127.418
20
-76.0081
11
127.417
21
-76.0064
0
LINE
8
BLACK
6
CONTINUOUS
10
127.417
20
-76.0064
11
127.408
21
-75.9726
0
LINE
8
BLACK
6
CONTINUOUS
10
127.408
20
-75.9726
11
127.344
21
-75.7414
0
LINE
8
BLACK
6
CONTINUOUS
10
127.344
20
-75.7414
11
127.205
21
-75.3934
0
LINE
8
BLACK
6
CONTINUOUS
10
127.205
20
-75.3934
11
127.029
21
-75.0625
0
LINE
8
BLACK
6
CONTINUOUS
10
127.029
20
-75.0625
11
126.819
21
-74.7524
0
LINE
8
BLACK
6
CONTINUOUS
10
126.819
20
-74.7524
11
126.735
21
-74.6533
0
LINE
8
BLACK
6
CONTINUOUS
10
126.735
20
-74.6533
11
126.577
21
-74.4669
0
LINE
8
BLACK
6
CONTINUOUS
10
126.577
20
-74.4669
11
126.305
21
-74.2093
0
LINE
8
BLACK
6
CONTINUOUS
10
126.305
20
-74.2093
11
126.305
21
-74.2093
0
LINE
8
BLACK
6
CONTINUOUS
10
126.305
20
-74.2093
11
126.007
21
-73.9826
0
LINE
8
BLACK
6
CONTINUOUS
10
126.007
20
-73.9826
11
126.007
21
-73.9826
0
LINE
8
BLACK
6
CONTINUOUS
10
126.007
20
-73.9826
11
125.686
21
-73.7895
0
LINE
8
BLACK
6
CONTINUOUS
10
125.686
20
-73.7895
11
125.686
21
-73.7895
0
LINE
8
BLACK
6
CONTINUOUS
10
125.686
20
-73.7895
11
125.346
21
-73.6322
0
LINE
8
BLACK
6
CONTINUOUS
10
125.346
20
-73.6322
11
125.346
21
-73.6322
0
LINE
8
BLACK
6
CONTINUOUS
10
125.346
20
-73.6322
11
124.991
21
-73.5126
0
LINE
8
BLACK
6
CONTINUOUS
10
124.991
20
-73.5126
11
124.991
21
-73.5126
0
LINE
8
BLACK
6
CONTINUOUS
10
124.991
20
-73.5126
11
124.991
21
-73.5126
0
LINE
8
BLACK
6
CONTINUOUS
10
124.991
20
-73.5126
11
124.991
21
-73.5126
0
LINE
8
BLACK
6
CONTINUOUS
10
124.991
20
-73.5126
11
124.991
21
-73.5126
0
LINE
8
BLACK
6
CONTINUOUS
10
124.991
20
-73.5126
11
124.625
21
-73.4321
0
LINE
8
BLACK
6
CONTINUOUS
10
124.625
20
-73.4321
11
124.625
21
-73.4321
0
LINE
8
BLACK
6
CONTINUOUS
10
124.625
20
-73.4321
11
124.252
21
-73.3916
0
LINE
8
BLACK
6
CONTINUOUS
10
124.252
20
-73.3916
11
124.252
21
-73.3916
0
LINE
8
BLACK
6
CONTINUOUS
10
124.252
20
-73.3916
11
123.878
21
-73.3916
0
LINE
8
BLACK
6
CONTINUOUS
10
123.878
20
-73.3916
11
123.878
21
-73.3916
0
LINE
8
BLACK
6
CONTINUOUS
10
123.878
20
-73.3916
11
123.505
21
-73.4321
0
LINE
8
BLACK
6
CONTINUOUS
10
123.505
20
-73.4321
11
123.505
21
-73.4321
0
LINE
8
BLACK
6
CONTINUOUS
10
123.505
20
-73.4321
11
123.14
21
-73.5126
0
LINE
8
BLACK
6
CONTINUOUS
10
123.14
20
-73.5126
11
123.14
21
-73.5126
0
LINE
8
BLACK
6
CONTINUOUS
10
123.14
20
-73.5126
11
122.785
21
-73.6322
0
LINE
8
BLACK
6
CONTINUOUS
10
122.785
20
-73.6322
11
122.785
21
-73.6322
0
LINE
8
BLACK
6
CONTINUOUS
10
122.785
20
-73.6322
11
122.445
21
-73.7895
0
LINE
8
BLACK
6
CONTINUOUS
10
122.445
20
-73.7895
11
122.445
21
-73.7895
0
LINE
8
BLACK
6
CONTINUOUS
10
122.445
20
-73.7895
11
122.124
21
-73.9826
0
LINE
8
BLACK
6
CONTINUOUS
10
122.124
20
-73.9826
11
122.124
21
-73.9826
0
LINE
8
BLACK
6
CONTINUOUS
10
122.124
20
-73.9826
11
121.825
21
-74.2093
0
LINE
8
BLACK
6
CONTINUOUS
10
121.825
20
-74.2093
11
121.825
21
-74.2093
0
LINE
8
BLACK
6
CONTINUOUS
10
121.825
20
-74.2093
11
121.553
21
-74.4669
0
LINE
8
BLACK
6
CONTINUOUS
10
121.553
20
-74.4669
11
121.311
21
-74.7524
0
LINE
8
BLACK
6
CONTINUOUS
10
121.311
20
-74.7524
11
121.311
21
-74.7524
0
LINE
8
BLACK
6
CONTINUOUS
10
121.311
20
-74.7524
11
121.101
21
-75.0625
0
LINE
8
BLACK
6
CONTINUOUS
10
121.101
20
-75.0625
11
121.101
21
-75.0625
0
LINE
8
BLACK
6
CONTINUOUS
10
121.101
20
-75.0625
11
121.101
21
-75.0625
0
LINE
8
BLACK
6
CONTINUOUS
10
121.101
20
-75.0625
11
120.925
21
-75.3934
0
LINE
8
BLACK
6
CONTINUOUS
10
120.925
20
-75.3934
11
120.925
21
-75.3934
0
LINE
8
BLACK
6
CONTINUOUS
10
120.925
20
-75.3934
11
120.787
21
-75.7414
0
LINE
8
BLACK
6
CONTINUOUS
10
120.787
20
-75.7414
11
120.686
21
-76.1024
0
LINE
8
BLACK
6
CONTINUOUS
10
120.686
20
-76.1024
11
120.626
21
-76.472
0
LINE
8
BLACK
6
CONTINUOUS
10
120.626
20
-76.472
11
120.605
21
-76.8461
0
LINE
8
BLACK
6
CONTINUOUS
10
120.605
20
-76.8461
11
120.605
21
-76.8461
0
LINE
8
BLACK
6
CONTINUOUS
10
120.605
20
-76.8461
11
120.626
21
-77.2201
0
LINE
8
BLACK
6
CONTINUOUS
10
120.626
20
-77.2201
11
120.686
21
-77.5898
0
LINE
8
BLACK
6
CONTINUOUS
10
120.686
20
-77.5898
11
120.722
21
-77.7176
0
LINE
8
BLACK
6
CONTINUOUS
10
120.722
20
-77.7176
11
120.787
21
-77.9507
0
LINE
8
BLACK
6
CONTINUOUS
10
120.787
20
-77.9507
11
120.925
21
-78.2987
0
LINE
8
BLACK
6
CONTINUOUS
10
120.925
20
-78.2987
11
121.101
21
-78.6297
0
LINE
8
BLACK
6
CONTINUOUS
10
121.101
20
-78.6297
11
121.311
21
-78.9397
0
LINE
8
BLACK
6
CONTINUOUS
10
121.311
20
-78.9397
11
121.311
21
-78.9397
0
LINE
8
BLACK
6
CONTINUOUS
10
121.311
20
-78.9397
11
121.553
21
-79.2252
0
LINE
8
BLACK
6
CONTINUOUS
10
121.553
20
-79.2252
11
121.825
21
-79.4828
0
LINE
8
BLACK
6
CONTINUOUS
10
121.825
20
-79.4828
11
121.825
21
-79.4828
0
LINE
8
BLACK
6
CONTINUOUS
10
121.825
20
-79.4828
11
122.124
21
-79.7095
0
LINE
8
BLACK
6
CONTINUOUS
10
122.124
20
-79.7095
11
122.445
21
-79.9026
0
LINE
8
BLACK
6
CONTINUOUS
10
122.445
20
-79.9026
11
122.466
21
-79.9124
0
LINE
8
BLACK
6
CONTINUOUS
10
122.466
20
-79.9124
11
122.785
21
-80.0599
0
LINE
8
BLACK
6
CONTINUOUS
10
122.785
20
-80.0599
11
122.785
21
-80.0599
0
LINE
8
BLACK
6
CONTINUOUS
10
122.785
20
-80.0599
11
123.14
21
-80.1795
0
LINE
8
BLACK
6
CONTINUOUS
10
123.14
20
-80.1795
11
123.505
21
-80.2601
0
LINE
8
BLACK
6
CONTINUOUS
10
123.505
20
-80.2601
11
123.878
21
-80.3006
0
LINE
8
BLACK
6
CONTINUOUS
10
123.878
20
-80.3006
11
123.878
21
-80.3006
0
LINE
8
BLACK
6
CONTINUOUS
10
123.878
20
-80.3006
11
124.252
21
-80.3006
0
LINE
8
BLACK
6
CONTINUOUS
10
124.252
20
-80.3006
11
124.252
21
-80.3006
0
LINE
8
BLACK
6
CONTINUOUS
10
124.252
20
-80.3006
11
124.625
21
-80.2601
0
LINE
8
BLACK
6
CONTINUOUS
10
124.625
20
-80.2601
11
124.991
21
-80.1795
0
LINE
8
BLACK
6
CONTINUOUS
10
124.991
20
-80.1795
11
125.346
21
-80.0599
0
LINE
8
BLACK
6
CONTINUOUS
10
125.346
20
-80.0599
11
125.686
21
-79.9026
0
LINE
8
BLACK
6
CONTINUOUS
10
125.686
20
-79.9026
11
126.007
21
-79.7095
0
LINE
8
BLACK
6
CONTINUOUS
10
126.007
20
-79.7095
11
126.305
21
-79.4828
0
LINE
8
BLACK
6
CONTINUOUS
10
126.305
20
-79.4828
11
126.577
21
-79.2252
0
LINE
8
BLACK
6
CONTINUOUS
10
126.577
20
-79.2252
11
126.819
21
-78.9397
0
LINE
8
BLACK
6
CONTINUOUS
10
126.819
20
-78.9397
11
127.029
21
-78.6297
0
LINE
8
BLACK
6
CONTINUOUS
10
127.029
20
-78.6297
11
127.205
21
-78.2987
0
LINE
8
BLACK
6
CONTINUOUS
10
127.205
20
-78.2987
11
127.344
21
-77.9507
0
LINE
8
BLACK
6
CONTINUOUS
10
127.344
20
-77.9507
11
127.417
21
-77.6858
0
LINE
8
BLACK
6
CONTINUOUS
10
127.417
20
-77.6858
11
127.455
21
-77.6255
0
LINE
8
BLACK
6
CONTINUOUS
10
127.455
20
-77.6255
11
127.519
21
-77.595
0
LINE
8
BLACK
6
CONTINUOUS
10
127.519
20
-77.595
11
127.589
21
-77.6041
0
LINE
8
BLACK
6
CONTINUOUS
10
127.589
20
-77.6041
11
127.643
21
-77.6498
0
LINE
8
BLACK
6
CONTINUOUS
10
127.643
20
-77.6498
11
127.664
21
-77.7176
0
LINE
8
BLACK
6
CONTINUOUS
10
127.664
20
-77.7176
11
127.664
21
-77.7195
0
LINE
8
BLACK
6
CONTINUOUS
10
127.664
20
-77.7195
11
127.664
21
-88.0585
0
LINE
8
BLACK
6
CONTINUOUS
10
127.664
20
-88.0585
11
127.644
21
-88.1266
0
LINE
8
BLACK
6
CONTINUOUS
10
127.644
20
-88.1266
11
127.591
21
-88.1731
0
LINE
8
BLACK
6
CONTINUOUS
10
127.591
20
-88.1731
11
127.538
21
-88.1845
0
LINE
8
BLACK
6
CONTINUOUS
10
127.538
20
-88.1845
11
69.9415
21
-88.1845
0
LINE
8
BLACK
6
CONTINUOUS
10
69.9415
20
-88.1845
11
69.8734
21
-88.1645
0
LINE
8
BLACK
6
CONTINUOUS
10
69.8734
20
-88.1645
11
69.8269
21
-88.1108
0
LINE
8
BLACK
6
CONTINUOUS
10
69.8269
20
-88.1108
11
69.8155
21
-88.0585
0
LINE
8
BLACK
6
CONTINUOUS
10
69.8155
20
-88.0585
11
69.8155
21
-86.12
0
LINE
8
BLACK
6
CONTINUOUS
10
69.8155
20
-86.12
11
69.8155
21
-85.4932
0
LINE
8
BLACK
6
CONTINUOUS
10
69.8155
20
-85.4932
11
69.8155
21
-74.48
0
LINE
8
BLACK
6
CONTINUOUS
10
69.8155
20
-74.48
11
69.8155
21
-72.8151
0
LINE
8
BLACK
6
CONTINUOUS
10
69.8155
20
-72.8151
11
69.8155
21
-36.0615
0
LINE
8
BLACK
6
CONTINUOUS
10
69.8155
20
-36.0615
11
69.8355
21
-35.9934
0
LINE
8
BLACK
6
CONTINUOUS
10
69.8355
20
-35.9934
11
69.8892
21
-35.9469
0
LINE
8
BLACK
6
CONTINUOUS
10
69.8892
20
-35.9469
11
69.9415
21
-35.9355
0
LINE
8
BLACK
6
CONTINUOUS
10
69.9415
20
-35.9355
11
72.9698
21
-35.9355
0
LINE
8
BLACK
6
CONTINUOUS
10
72.9698
20
-35.9355
11
73.0379
21
-35.9555
0
LINE
8
BLACK
6
CONTINUOUS
10
101.896
20
-85.0531
11
101.896
21
-85.0531
0
LINE
8
BLACK
6
CONTINUOUS
10
101.896
20
-85.0531
11
101.706
21
-85.1271
0
LINE
8
BLACK
6
CONTINUOUS
10
101.706
20
-85.1271
11
101.706
21
-85.1271
0
LINE
8
BLACK
6
CONTINUOUS
10
101.706
20
-85.1271
11
101.532
21
-85.2348
0
LINE
8
BLACK
6
CONTINUOUS
10
101.532
20
-85.2348
11
101.38
21
-85.3727
0
LINE
8
BLACK
6
CONTINUOUS
10
101.38
20
-85.3727
11
101.257
21
-85.5361
0
LINE
8
BLACK
6
CONTINUOUS
10
101.257
20
-85.5361
11
101.166
21
-85.7193
0
LINE
8
BLACK
6
CONTINUOUS
10
101.166
20
-85.7193
11
101.11
21
-85.9162
0
LINE
8
BLACK
6
CONTINUOUS
10
101.11
20
-85.9162
11
101.091
21
-86.12
0
LINE
8
BLACK
6
CONTINUOUS
10
101.091
20
-86.12
11
101.091
21
-86.12
0
LINE
8
BLACK
6
CONTINUOUS
10
101.091
20
-86.12
11
101.11
21
-86.3238
0
LINE
8
BLACK
6
CONTINUOUS
10
101.11
20
-86.3238
11
101.16
21
-86.5022
0
LINE
8
BLACK
6
CONTINUOUS
10
101.16
20
-86.5022
11
101.166
21
-86.5207
0
LINE
8
BLACK
6
CONTINUOUS
10
101.166
20
-86.5207
11
101.257
21
-86.7039
0
LINE
8
BLACK
6
CONTINUOUS
10
101.257
20
-86.7039
11
101.257
21
-86.7039
0
LINE
8
BLACK
6
CONTINUOUS
10
101.257
20
-86.7039
11
101.38
21
-86.8673
0
LINE
8
BLACK
6
CONTINUOUS
10
101.38
20
-86.8673
11
101.532
21
-87.0052
0
LINE
8
BLACK
6
CONTINUOUS
10
101.532
20
-87.0052
11
101.706
21
-87.1129
0
LINE
8
BLACK
6
CONTINUOUS
10
101.706
20
-87.1129
11
101.706
21
-87.1129
0
LINE
8
BLACK
6
CONTINUOUS
10
101.706
20
-87.1129
11
101.706
21
-87.1129
0
LINE
8
BLACK
6
CONTINUOUS
10
101.706
20
-87.1129
11
101.896
21
-87.1869
0
LINE
8
BLACK
6
CONTINUOUS
10
101.896
20
-87.1869
11
102.098
21
-87.2245
0
LINE
8
BLACK
6
CONTINUOUS
10
102.098
20
-87.2245
11
102.098
21
-87.2245
0
LINE
8
BLACK
6
CONTINUOUS
10
102.098
20
-87.2245
11
102.302
21
-87.2245
0
LINE
8
BLACK
6
CONTINUOUS
10
102.302
20
-87.2245
11
102.302
21
-87.2245
0
LINE
8
BLACK
6
CONTINUOUS
10
102.302
20
-87.2245
11
102.504
21
-87.1869
0
LINE
8
BLACK
6
CONTINUOUS
10
102.504
20
-87.1869
11
102.694
21
-87.1129
0
LINE
8
BLACK
6
CONTINUOUS
10
102.694
20
-87.1129
11
102.868
21
-87.0052
0
LINE
8
BLACK
6
CONTINUOUS
10
102.868
20
-87.0052
11
103.02
21
-86.8673
0
LINE
8
BLACK
6
CONTINUOUS
10
103.02
20
-86.8673
11
103.143
21
-86.7039
0
LINE
8
BLACK
6
CONTINUOUS
10
103.143
20
-86.7039
11
103.234
21
-86.5207
0
LINE
8
BLACK
6
CONTINUOUS
10
103.234
20
-86.5207
11
103.29
21
-86.3238
0
LINE
8
BLACK
6
CONTINUOUS
10
103.29
20
-86.3238
11
103.309
21
-86.12
0
LINE
8
BLACK
6
CONTINUOUS
10
103.309
20
-86.12
11
103.29
21
-85.9162
0
LINE
8
BLACK
6
CONTINUOUS
10
103.29
20
-85.9162
11
103.234
21
-85.7193
0
LINE
8
BLACK
6
CONTINUOUS
10
103.234
20
-85.7193
11
103.143
21
-85.5361
0
LINE
8
BLACK
6
CONTINUOUS
10
103.143
20
-85.5361
11
103.074
21
-85.4449
0
LINE
8
BLACK
6
CONTINUOUS
10
103.074
20
-85.4449
11
103.02
21
-85.3727
0
LINE
8
BLACK
6
CONTINUOUS
10
103.02
20
-85.3727
11
102.868
21
-85.2348
0
LINE
8
BLACK
6
CONTINUOUS
10
102.868
20
-85.2348
11
102.694
21
-85.1271
0
LINE
8
BLACK
6
CONTINUOUS
10
102.694
20
-85.1271
11
102.694
21
-85.1271
0
LINE
8
BLACK
6
CONTINUOUS
10
102.694
20
-85.1271
11
102.694
21
-85.1271
0
LINE
8
BLACK
6
CONTINUOUS
10
102.694
20
-85.1271
11
102.675
21
-85.1195
0
LINE
8
BLACK
6
CONTINUOUS
10
102.675
20
-85.1195
11
102.504
21
-85.0531
0
LINE
8
BLACK
6
CONTINUOUS
10
102.504
20
-85.0531
11
102.504
21
-85.0531
0
LINE
8
BLACK
6
CONTINUOUS
10
102.504
20
-85.0531
11
102.504
21
-85.0531
0
LINE
8
BLACK
6
CONTINUOUS
10
102.504
20
-85.0531
11
102.504
21
-85.0531
0
LINE
8
BLACK
6
CONTINUOUS
10
102.504
20
-85.0531
11
102.302
21
-85.0155
0
LINE
8
BLACK
6
CONTINUOUS
10
102.302
20
-85.0155
11
102.098
21
-85.0155
0
LINE
8
BLACK
6
CONTINUOUS
10
102.098
20
-85.0155
11
101.896
21
-85.0531
0
LINE
8
BLACK
6
CONTINUOUS
10
70.9955
20
-72.8151
11
71.0103
21
-72.8893
0
LINE
8
BLACK
6
CONTINUOUS
10
71.0103
20
-72.8893
11
71.0665
21
-72.9735
0
LINE
8
BLACK
6
CONTINUOUS
10
71.0665
20
-72.9735
11
71.1507
21
-73.0297
0
LINE
8
BLACK
6
CONTINUOUS
10
71.1507
20
-73.0297
11
71.1507
21
-73.0297
0
LINE
8
BLACK
6
CONTINUOUS
10
71.1507
20
-73.0297
11
71.2249
21
-73.0445
0
LINE
8
BLACK
6
CONTINUOUS
10
71.2249
20
-73.0445
11
72.9751
21
-73.0445
0
LINE
8
BLACK
6
CONTINUOUS
10
72.9751
20
-73.0445
11
72.9751
21
-73.0445
0
LINE
8
BLACK
6
CONTINUOUS
10
72.9751
20
-73.0445
11
72.9751
21
-73.0445
0
LINE
8
BLACK
6
CONTINUOUS
10
72.9751
20
-73.0445
11
73.0243
21
-73.0347
0
LINE
8
BLACK
6
CONTINUOUS
10
73.0243
20
-73.0347
11
73.0493
21
-73.0297
0
LINE
8
BLACK
6
CONTINUOUS
10
73.0493
20
-73.0297
11
73.1335
21
-72.9735
0
LINE
8
BLACK
6
CONTINUOUS
10
73.1335
20
-72.9735
11
73.1897
21
-72.8893
0
LINE
8
BLACK
6
CONTINUOUS
10
73.1897
20
-72.8893
11
73.2045
21
-72.8151
0
LINE
8
BLACK
6
CONTINUOUS
10
73.2045
20
-72.8151
11
73.2045
21
-72.4455
0
LINE
8
BLACK
6
CONTINUOUS
10
73.2045
20
-72.4455
11
73.2245
21
-72.3774
0
LINE
8
BLACK
6
CONTINUOUS
10
73.2245
20
-72.3774
11
73.2782
21
-72.3309
0
LINE
8
BLACK
6
CONTINUOUS
10
73.2782
20
-72.3309
11
73.3305
21
-72.3195
0
LINE
8
BLACK
6
CONTINUOUS
10
73.3305
20
-72.3195
11
109.294
21
-72.3195
0
LINE
8
BLACK
6
CONTINUOUS
10
109.294
20
-72.3195
11
109.363
21
-72.3395
0
LINE
8
BLACK
6
CONTINUOUS
10
109.363
20
-72.3395
11
109.409
21
-72.3932
0
LINE
8
BLACK
6
CONTINUOUS
10
109.409
20
-72.3932
11
109.42
21
-72.4455
0
LINE
8
BLACK
6
CONTINUOUS
10
109.42
20
-72.4455
11
109.42
21
-83.3645
0
LINE
8
BLACK
6
CONTINUOUS
10
109.42
20
-83.3645
11
109.4
21
-83.4326
0
LINE
8
BLACK
6
CONTINUOUS
10
109.4
20
-83.4326
11
109.347
21
-83.4791
0
LINE
8
BLACK
6
CONTINUOUS
10
109.347
20
-83.4791
11
109.295
21
-83.4905
0
LINE
8
BLACK
6
CONTINUOUS
10
109.295
20
-83.4905
11
109.152
21
-83.4905
0
LINE
8
BLACK
6
CONTINUOUS
10
109.152
20
-83.4905
11
109.152
21
-83.4905
0
LINE
8
BLACK
6
CONTINUOUS
10
109.152
20
-83.4905
11
109.092
21
-83.497
0
LINE
8
BLACK
6
CONTINUOUS
10
109.092
20
-83.497
11
109.092
21
-83.497
0
LINE
8
BLACK
6
CONTINUOUS
10
109.092
20
-83.497
11
108.956
21
-83.5477
0
LINE
8
BLACK
6
CONTINUOUS
10
108.956
20
-83.5477
11
108.84
21
-83.6346
0
LINE
8
BLACK
6
CONTINUOUS
10
108.84
20
-83.6346
11
108.753
21
-83.7507
0
LINE
8
BLACK
6
CONTINUOUS
10
108.753
20
-83.7507
11
108.702
21
-83.8867
0
LINE
8
BLACK
6
CONTINUOUS
10
108.702
20
-83.8867
11
108.702
21
-83.8867
0
LINE
8
BLACK
6
CONTINUOUS
10
108.702
20
-83.8867
11
108.695
21
-83.9467
0
LINE
8
BLACK
6
CONTINUOUS
10
108.695
20
-83.9467
11
108.695
21
-84.2145
0
LINE
8
BLACK
6
CONTINUOUS
10
108.695
20
-84.2145
11
108.675
21
-84.2826
0
LINE
8
BLACK
6
CONTINUOUS
10
108.675
20
-84.2826
11
108.622
21
-84.3291
0
LINE
8
BLACK
6
CONTINUOUS
10
108.622
20
-84.3291
11
108.569
21
-84.3405
0
LINE
8
BLACK
6
CONTINUOUS
10
108.569
20
-84.3405
11
107.652
21
-84.3405
0
LINE
8
BLACK
6
CONTINUOUS
10
107.652
20
-84.3405
11
107.627
21
-84.3378
0
LINE
8
BLACK
6
CONTINUOUS
10
107.627
20
-84.3378
11
107.616
21
-84.3356
0
LINE
8
BLACK
6
CONTINUOUS
10
107.616
20
-84.3356
11
107.593
21
-84.3385
0
LINE
8
BLACK
6
CONTINUOUS
10
107.593
20
-84.3385
11
107.58
21
-84.34
0
LINE
8
BLACK
6
CONTINUOUS
10
107.58
20
-84.34
11
107.573
21
-84.3405
0
LINE
8
BLACK
6
CONTINUOUS
10
107.573
20
-84.3405
11
107.569
21
-84.3405
0
LINE
8
BLACK
6
CONTINUOUS
10
107.569
20
-84.3405
11
107.553
21
-84.3431
0
LINE
8
BLACK
6
CONTINUOUS
10
107.553
20
-84.3431
11
107.545
21
-84.3444
0
LINE
8
BLACK
6
CONTINUOUS
10
107.545
20
-84.3444
11
107.533
21
-84.3459
0
LINE
8
BLACK
6
CONTINUOUS
10
107.533
20
-84.3459
11
107.49
21
-84.3512
0
LINE
8
BLACK
6
CONTINUOUS
10
107.49
20
-84.3512
11
107.483
21
-84.3535
0
LINE
8
BLACK
6
CONTINUOUS
10
107.483
20
-84.3535
11
107.475
21
-84.3561
0
LINE
8
BLACK
6
CONTINUOUS
10
107.475
20
-84.3561
11
107.426
21
-84.3825
0
LINE
8
BLACK
6
CONTINUOUS
10
107.426
20
-84.3825
11
107.376
21
-84.4069
0
LINE
8
BLACK
6
CONTINUOUS
10
107.376
20
-84.4069
11
107.37
21
-84.4115
0
LINE
8
BLACK
6
CONTINUOUS
10
107.37
20
-84.4115
11
107.364
21
-84.4164
0
LINE
8
BLACK
6
CONTINUOUS
10
107.364
20
-84.4164
11
107.364
21
-84.4164
0
LINE
8
BLACK
6
CONTINUOUS
10
107.364
20
-84.4164
11
107.364
21
-84.4164
0
LINE
8
BLACK
6
CONTINUOUS
10
107.364
20
-84.4164
11
107.326
21
-84.4572
0
LINE
8
BLACK
6
CONTINUOUS
10
107.326
20
-84.4572
11
106.08
21
-85.7036
0
LINE
8
BLACK
6
CONTINUOUS
10
106.08
20
-85.7036
11
106.017
21
-85.7376
0
LINE
8
BLACK
6
CONTINUOUS
10
106.017
20
-85.7376
11
105.991
21
-85.7405
0
LINE
8
BLACK
6
CONTINUOUS
10
105.991
20
-85.7405
11
105.863
21
-85.7405
0
LINE
8
BLACK
6
CONTINUOUS
10
105.863
20
-85.7405
11
105.795
21
-85.7205
0
LINE
8
BLACK
6
CONTINUOUS
10
105.795
20
-85.7205
11
105.75
21
-85.6707
0
LINE
8
BLACK
6
CONTINUOUS
10
105.75
20
-85.6707
11
105.683
21
-85.5361
0
LINE
8
BLACK
6
CONTINUOUS
10
105.683
20
-85.5361
11
105.651
21
-85.4933
0
LINE
8
BLACK
6
CONTINUOUS
10
105.651
20
-85.4933
11
105.56
21
-85.3727
0
LINE
8
BLACK
6
CONTINUOUS
10
105.56
20
-85.3727
11
105.408
21
-85.2348
0
LINE
8
BLACK
6
CONTINUOUS
10
105.408
20
-85.2348
11
105.234
21
-85.1271
0
LINE
8
BLACK
6
CONTINUOUS
10
105.234
20
-85.1271
11
105.234
21
-85.1271
0
LINE
8
BLACK
6
CONTINUOUS
10
105.234
20
-85.1271
11
105.234
21
-85.1271
0
LINE
8
BLACK
6
CONTINUOUS
10
105.234
20
-85.1271
11
105.215
21
-85.1195
0
LINE
8
BLACK
6
CONTINUOUS
10
105.215
20
-85.1195
11
105.044
21
-85.0531
0
LINE
8
BLACK
6
CONTINUOUS
10
105.044
20
-85.0531
11
105.044
21
-85.0531
0
LINE
8
BLACK
6
CONTINUOUS
10
105.044
20
-85.0531
11
105.044
21
-85.0531
0
LINE
8
BLACK
6
CONTINUOUS
10
105.044
20
-85.0531
11
105.044
21
-85.0531
0
LINE
8
BLACK
6
CONTINUOUS
10
105.044
20
-85.0531
11
104.842
21
-85.0155
0
LINE
8
BLACK
6
CONTINUOUS
10
104.842
20
-85.0155
11
104.638
21
-85.0155
0
LINE
8
BLACK
6
CONTINUOUS
10
104.638
20
-85.0155
11
104.436
21
-85.0531
0
LINE
8
BLACK
6
CONTINUOUS
10
104.436
20
-85.0531
11
104.436
21
-85.0531
0
LINE
8
BLACK
6
CONTINUOUS
10
104.436
20
-85.0531
11
104.246
21
-85.1271
0
LINE
8
BLACK
6
CONTINUOUS
10
104.246
20
-85.1271
11
104.246
21
-85.1271
0
LINE
8
BLACK
6
CONTINUOUS
10
104.246
20
-85.1271
11
104.072
21
-85.2348
0
LINE
8
BLACK
6
CONTINUOUS
10
104.072
20
-85.2348
11
103.92
21
-85.3727
0
LINE
8
BLACK
6
CONTINUOUS
10
103.92
20
-85.3727
11
103.797
21
-85.5361
0
LINE
8
BLACK
6
CONTINUOUS
10
103.797
20
-85.5361
11
103.706
21
-85.7193
0
LINE
8
BLACK
6
CONTINUOUS
10
103.706
20
-85.7193
11
103.65
21
-85.9162
0
LINE
8
BLACK
6
CONTINUOUS
10
103.65
20
-85.9162
11
103.631
21
-86.12
0
LINE
8
BLACK
6
CONTINUOUS
10
103.631
20
-86.12
11
103.631
21
-86.12
0
LINE
8
BLACK
6
CONTINUOUS
10
103.631
20
-86.12
11
103.65
21
-86.3238
0
LINE
8
BLACK
6
CONTINUOUS
10
103.65
20
-86.3238
11
103.7
21
-86.5022
0
LINE
8
BLACK
6
CONTINUOUS
10
103.7
20
-86.5022
11
103.706
21
-86.5207
0
LINE
8
BLACK
6
CONTINUOUS
10
103.706
20
-86.5207
11
103.797
21
-86.7039
0
LINE
8
BLACK
6
CONTINUOUS
10
103.797
20
-86.7039
11
103.797
21
-86.7039
0
LINE
8
BLACK
6
CONTINUOUS
10
103.797
20
-86.7039
11
103.92
21
-86.8673
0
LINE
8
BLACK
6
CONTINUOUS
10
103.92
20
-86.8673
11
104.072
21
-87.0052
0
LINE
8
BLACK
6
CONTINUOUS
10
104.072
20
-87.0052
11
104.246
21
-87.1129
0
LINE
8
BLACK
6
CONTINUOUS
10
104.246
20
-87.1129
11
104.246
21
-87.1129
0
LINE
8
BLACK
6
CONTINUOUS
10
104.246
20
-87.1129
11
104.246
21
-87.1129
0
LINE
8
BLACK
6
CONTINUOUS
10
104.246
20
-87.1129
11
104.436
21
-87.1869
0
LINE
8
BLACK
6
CONTINUOUS
10
104.436
20
-87.1869
11
104.638
21
-87.2245
0
LINE
8
BLACK
6
CONTINUOUS
10
104.638
20
-87.2245
11
104.638
21
-87.2245
0
LINE
8
BLACK
6
CONTINUOUS
10
104.638
20
-87.2245
11
104.842
21
-87.2245
0
LINE
8
BLACK
6
CONTINUOUS
10
104.842
20
-87.2245
11
104.842
21
-87.2245
0
LINE
8
BLACK
6
CONTINUOUS
10
104.842
20
-87.2245
11
105.044
21
-87.1869
0
LINE
8
BLACK
6
CONTINUOUS
10
105.044
20
-87.1869
11
105.234
21
-87.1129
0
LINE
8
BLACK
6
CONTINUOUS
10
105.234
20
-87.1129
11
105.408
21
-87.0052
0
LINE
8
BLACK
6
CONTINUOUS
10
105.408
20
-87.0052
11
105.56
21
-86.8673
0
LINE
8
BLACK
6
CONTINUOUS
10
105.56
20
-86.8673
11
105.683
21
-86.7039
0
LINE
8
BLACK
6
CONTINUOUS
10
105.683
20
-86.7039
11
105.75
21
-86.5693
0
LINE
8
BLACK
6
CONTINUOUS
10
105.75
20
-86.5693
11
105.798
21
-86.5173
0
LINE
8
BLACK
6
CONTINUOUS
10
105.798
20
-86.5173
11
105.863
21
-86.4995
0
LINE
8
BLACK
6
CONTINUOUS
10
105.863
20
-86.4995
11
106.148
21
-86.4995
0
LINE
8
BLACK
6
CONTINUOUS
10
106.148
20
-86.4995
11
106.173
21
-86.5022
0
LINE
8
BLACK
6
CONTINUOUS
10
106.173
20
-86.5022
11
106.184
21
-86.5044
0
LINE
8
BLACK
6
CONTINUOUS
10
106.184
20
-86.5044
11
106.22
21
-86.5
0
LINE
8
BLACK
6
CONTINUOUS
10
106.22
20
-86.5
11
106.227
21
-86.4995
0
LINE
8
BLACK
6
CONTINUOUS
10
106.227
20
-86.4995
11
106.231
21
-86.4995
0
LINE
8
BLACK
6
CONTINUOUS
10
106.231
20
-86.4995
11
106.231
21
-86.4995
0
LINE
8
BLACK
6
CONTINUOUS
10
106.231
20
-86.4995
11
106.255
21
-86.4956
0
LINE
8
BLACK
6
CONTINUOUS
10
106.255
20
-86.4956
11
106.31
21
-86.4888
0
LINE
8
BLACK
6
CONTINUOUS
10
106.31
20
-86.4888
11
106.31
21
-86.4888
0
LINE
8
BLACK
6
CONTINUOUS
10
106.31
20
-86.4888
11
106.31
21
-86.4888
0
LINE
8
BLACK
6
CONTINUOUS
10
106.31
20
-86.4888
11
106.317
21
-86.4865
0
LINE
8
BLACK
6
CONTINUOUS
10
106.317
20
-86.4865
11
106.325
21
-86.4839
0
LINE
8
BLACK
6
CONTINUOUS
10
106.325
20
-86.4839
11
106.325
21
-86.4839
0
LINE
8
BLACK
6
CONTINUOUS
10
106.325
20
-86.4839
11
106.325
21
-86.4839
0
LINE
8
BLACK
6
CONTINUOUS
10
106.325
20
-86.4839
11
106.374
21
-86.4575
0
LINE
8
BLACK
6
CONTINUOUS
10
106.374
20
-86.4575
11
106.424
21
-86.4331
0
LINE
8
BLACK
6
CONTINUOUS
10
106.424
20
-86.4331
11
106.424
21
-86.4331
0
LINE
8
BLACK
6
CONTINUOUS
10
106.424
20
-86.4331
11
106.43
21
-86.4285
0
LINE
8
BLACK
6
CONTINUOUS
10
106.43
20
-86.4285
11
106.436
21
-86.4236
0
LINE
8
BLACK
6
CONTINUOUS
10
106.436
20
-86.4236
11
106.436
21
-86.4236
0
LINE
8
BLACK
6
CONTINUOUS
10
106.436
20
-86.4236
11
106.436
21
-86.4236
0
LINE
8
BLACK
6
CONTINUOUS
10
106.436
20
-86.4236
11
106.474
21
-86.3828
0
LINE
8
BLACK
6
CONTINUOUS
10
106.474
20
-86.3828
11
107.72
21
-85.1364
0
LINE
8
BLACK
6
CONTINUOUS
10
107.72
20
-85.1364
11
107.783
21
-85.1024
0
LINE
8
BLACK
6
CONTINUOUS
10
107.783
20
-85.1024
11
107.809
21
-85.0995
0
LINE
8
BLACK
6
CONTINUOUS
10
107.809
20
-85.0995
11
108.57
21
-85.0995
0
LINE
8
BLACK
6
CONTINUOUS
10
108.57
20
-85.0995
11
108.638
21
-85.1195
0
LINE
8
BLACK
6
CONTINUOUS
10
108.638
20
-85.1195
11
108.684
21
-85.1732
0
LINE
8
BLACK
6
CONTINUOUS
10
108.684
20
-85.1732
11
108.696
21
-85.2255
0
LINE
8
BLACK
6
CONTINUOUS
10
108.696
20
-85.2255
11
108.696
21
-85.4932
0
LINE
8
BLACK
6
CONTINUOUS
10
108.696
20
-85.4932
11
108.696
21
-85.4933
0
LINE
8
BLACK
6
CONTINUOUS
10
108.696
20
-85.4933
11
108.702
21
-85.5533
0
LINE
8
BLACK
6
CONTINUOUS
10
108.702
20
-85.5533
11
108.702
21
-85.5533
0
LINE
8
BLACK
6
CONTINUOUS
10
108.702
20
-85.5533
11
108.753
21
-85.6893
0
LINE
8
BLACK
6
CONTINUOUS
10
108.753
20
-85.6893
11
108.775
21
-85.7185
0
LINE
8
BLACK
6
CONTINUOUS
10
108.775
20
-85.7185
11
108.84
21
-85.8054
0
LINE
8
BLACK
6
CONTINUOUS
10
108.84
20
-85.8054
11
108.956
21
-85.8923
0
LINE
8
BLACK
6
CONTINUOUS
10
108.956
20
-85.8923
11
109.092
21
-85.943
0
LINE
8
BLACK
6
CONTINUOUS
10
109.092
20
-85.943
11
109.152
21
-85.9495
0
LINE
8
BLACK
6
CONTINUOUS
10
109.152
20
-85.9495
11
110.448
21
-85.9495
0
LINE
8
BLACK
6
CONTINUOUS
10
110.448
20
-85.9495
11
110.508
21
-85.943
0
LINE
8
BLACK
6
CONTINUOUS
10
110.508
20
-85.943
11
110.644
21
-85.8923
0
LINE
8
BLACK
6
CONTINUOUS
10
110.644
20
-85.8923
11
110.76
21
-85.8054
0
LINE
8
BLACK
6
CONTINUOUS
10
110.76
20
-85.8054
11
110.847
21
-85.6893
0
LINE
8
BLACK
6
CONTINUOUS
10
110.847
20
-85.6893
11
110.898
21
-85.5533
0
LINE
8
BLACK
6
CONTINUOUS
10
110.898
20
-85.5533
11
110.904
21
-85.4933
0
LINE
8
BLACK
6
CONTINUOUS
10
110.904
20
-85.4933
11
110.904
21
-84.8976
0
LINE
8
BLACK
6
CONTINUOUS
10
110.904
20
-84.8976
11
110.904
21
-83.9467
0
LINE
8
BLACK
6
CONTINUOUS
10
110.904
20
-83.9467
11
110.898
21
-83.8867
0
LINE
8
BLACK
6
CONTINUOUS
10
110.898
20
-83.8867
11
110.847
21
-83.7507
0
LINE
8
BLACK
6
CONTINUOUS
10
110.847
20
-83.7507
11
110.76
21
-83.6346
0
LINE
8
BLACK
6
CONTINUOUS
10
110.76
20
-83.6346
11
110.644
21
-83.5477
0
LINE
8
BLACK
6
CONTINUOUS
10
110.644
20
-83.5477
11
110.644
21
-83.5477
0
LINE
8
BLACK
6
CONTINUOUS
10
110.644
20
-83.5477
11
110.644
21
-83.5477
0
LINE
8
BLACK
6
CONTINUOUS
10
110.644
20
-83.5477
11
110.508
21
-83.497
0
LINE
8
BLACK
6
CONTINUOUS
10
110.508
20
-83.497
11
110.508
21
-83.497
0
LINE
8
BLACK
6
CONTINUOUS
10
110.508
20
-83.497
11
110.508
21
-83.497
0
LINE
8
BLACK
6
CONTINUOUS
10
110.508
20
-83.497
11
110.501
21
-83.4962
0
LINE
8
BLACK
6
CONTINUOUS
10
110.501
20
-83.4962
11
110.448
21
-83.4905
0
LINE
8
BLACK
6
CONTINUOUS
10
110.448
20
-83.4905
11
110.448
21
-83.4905
0
LINE
8
BLACK
6
CONTINUOUS
10
110.448
20
-83.4905
11
110.305
21
-83.4905
0
LINE
8
BLACK
6
CONTINUOUS
10
110.305
20
-83.4905
11
110.237
21
-83.4705
0
LINE
8
BLACK
6
CONTINUOUS
10
110.237
20
-83.4705
11
110.191
21
-83.4168
0
LINE
8
BLACK
6
CONTINUOUS
10
110.191
20
-83.4168
11
110.179
21
-83.3645
0
LINE
8
BLACK
6
CONTINUOUS
10
110.179
20
-83.3645
11
110.179
21
-71.9936
0
LINE
8
BLACK
6
CONTINUOUS
10
110.179
20
-71.9936
11
110.182
21
-71.9781
0
LINE
8
BLACK
6
CONTINUOUS
10
110.182
20
-71.9781
11
110.181
21
-71.978
0
LINE
8
BLACK
6
CONTINUOUS
10
110.181
20
-71.978
11
110.182
21
-71.9676
0
LINE
8
BLACK
6
CONTINUOUS
10
110.182
20
-71.9676
11
110.179
21
-71.9122
0
LINE
8
BLACK
6
CONTINUOUS
10
110.179
20
-71.9122
11
110.179
21
-43.5294
0
LINE
8
BLACK
6
CONTINUOUS
10
110.179
20
-43.5294
11
110.2
21
-43.4613
0
LINE
8
BLACK
6
CONTINUOUS
10
110.2
20
-43.4613
11
110.216
21
-43.4403
0
LINE
8
BLACK
6
CONTINUOUS
10
110.216
20
-43.4403
11
113.88
21
-39.7764
0
LINE
8
BLACK
6
CONTINUOUS
10
113.88
20
-39.7764
11
113.943
21
-39.7424
0
LINE
8
BLACK
6
CONTINUOUS
10
113.943
20
-39.7424
11
113.969
21
-39.7395
0
LINE
8
BLACK
6
CONTINUOUS
10
113.969
20
-39.7395
11
122.935
21
-39.7395
0
LINE
8
BLACK
6
CONTINUOUS
10
122.935
20
-39.7395
11
123.003
21
-39.7595
0
LINE
8
BLACK
6
CONTINUOUS
10
123.003
20
-39.7595
11
123.049
21
-39.8132
0
LINE
8
BLACK
6
CONTINUOUS
10
123.049
20
-39.8132
11
123.061
21
-39.8655
0
LINE
8
BLACK
6
CONTINUOUS
10
123.061
20
-39.8655
11
123.061
21
-40.0082
0
LINE
8
BLACK
6
CONTINUOUS
10
123.061
20
-40.0082
11
123.061
21
-40.0083
0
LINE
8
BLACK
6
CONTINUOUS
10
123.061
20
-40.0083
11
123.067
21
-40.0683
0
LINE
8
BLACK
6
CONTINUOUS
10
123.067
20
-40.0683
11
123.067
21
-40.0683
0
LINE
8
BLACK
6
CONTINUOUS
10
123.067
20
-40.0683
11
123.118
21
-40.2043
0
LINE
8
BLACK
6
CONTINUOUS
10
123.118
20
-40.2043
11
123.118
21
-40.2043
0
LINE
8
BLACK
6
CONTINUOUS
10
123.118
20
-40.2043
11
123.205
21
-40.3204
0
LINE
8
BLACK
6
CONTINUOUS
10
123.205
20
-40.3204
11
123.321
21
-40.4073
0
LINE
8
BLACK
6
CONTINUOUS
10
123.321
20
-40.4073
11
123.457
21
-40.458
0
LINE
8
BLACK
6
CONTINUOUS
10
123.457
20
-40.458
11
123.517
21
-40.4645
0
LINE
8
BLACK
6
CONTINUOUS
10
123.517
20
-40.4645
11
125.063
21
-40.4645
0
LINE
8
BLACK
6
CONTINUOUS
10
125.063
20
-40.4645
11
125.123
21
-40.458
0
LINE
8
BLACK
6
CONTINUOUS
10
125.123
20
-40.458
11
125.259
21
-40.4073
0
LINE
8
BLACK
6
CONTINUOUS
10
125.259
20
-40.4073
11
125.375
21
-40.3204
0
LINE
8
BLACK
6
CONTINUOUS
10
125.375
20
-40.3204
11
125.462
21
-40.2043
0
LINE
8
BLACK
6
CONTINUOUS
10
125.462
20
-40.2043
11
125.513
21
-40.0683
0
LINE
8
BLACK
6
CONTINUOUS
10
125.513
20
-40.0683
11
125.519
21
-40.0083
0
LINE
8
BLACK
6
CONTINUOUS
10
125.519
20
-40.0083
11
125.519
21
-38.7117
0
LINE
8
BLACK
6
CONTINUOUS
10
125.519
20
-38.7117
11
125.513
21
-38.6517
0
LINE
8
BLACK
6
CONTINUOUS
10
125.513
20
-38.6517
11
125.462
21
-38.5157
0
LINE
8
BLACK
6
CONTINUOUS
10
125.462
20
-38.5157
11
125.375
21
-38.3996
0
LINE
8
BLACK
6
CONTINUOUS
10
125.375
20
-38.3996
11
125.259
21
-38.3127
0
LINE
8
BLACK
6
CONTINUOUS
10
125.259
20
-38.3127
11
125.259
21
-38.3127
0
LINE
8
BLACK
6
CONTINUOUS
10
125.259
20
-38.3127
11
125.259
21
-38.3127
0
LINE
8
BLACK
6
CONTINUOUS
10
125.259
20
-38.3127
11
125.123
21
-38.262
0
LINE
8
BLACK
6
CONTINUOUS
10
125.123
20
-38.262
11
125.123
21
-38.262
0
LINE
8
BLACK
6
CONTINUOUS
10
125.123
20
-38.262
11
125.123
21
-38.262
0
LINE
8
BLACK
6
CONTINUOUS
10
125.123
20
-38.262
11
125.093
21
-38.2587
0
LINE
8
BLACK
6
CONTINUOUS
10
125.093
20
-38.2587
11
125.063
21
-38.2555
0
LINE
8
BLACK
6
CONTINUOUS
10
125.063
20
-38.2555
11
123.517
21
-38.2555
0
LINE
8
BLACK
6
CONTINUOUS
10
123.517
20
-38.2555
11
123.517
21
-38.2555
0
LINE
8
BLACK
6
CONTINUOUS
10
123.517
20
-38.2555
11
123.457
21
-38.262
0
LINE
8
BLACK
6
CONTINUOUS
10
123.457
20
-38.262
11
123.457
21
-38.262
0
LINE
8
BLACK
6
CONTINUOUS
10
123.457
20
-38.262
11
123.321
21
-38.3127
0
LINE
8
BLACK
6
CONTINUOUS
10
123.321
20
-38.3127
11
123.205
21
-38.3996
0
LINE
8
BLACK
6
CONTINUOUS
10
123.205
20
-38.3996
11
123.118
21
-38.5157
0
LINE
8
BLACK
6
CONTINUOUS
10
123.118
20
-38.5157
11
123.067
21
-38.6516
0
LINE
8
BLACK
6
CONTINUOUS
10
123.067
20
-38.6516
11
123.067
21
-38.6517
0
LINE
8
BLACK
6
CONTINUOUS
10
123.067
20
-38.6517
11
123.06
21
-38.7117
0
LINE
8
BLACK
6
CONTINUOUS
10
123.06
20
-38.7117
11
123.06
21
-38.8545
0
LINE
8
BLACK
6
CONTINUOUS
10
123.06
20
-38.8545
11
123.04
21
-38.9226
0
LINE
8
BLACK
6
CONTINUOUS
10
123.04
20
-38.9226
11
122.987
21
-38.9691
0
LINE
8
BLACK
6
CONTINUOUS
10
122.987
20
-38.9691
11
122.934
21
-38.9805
0
LINE
8
BLACK
6
CONTINUOUS
10
122.934
20
-38.9805
11
113.812
21
-38.9805
0
LINE
8
BLACK
6
CONTINUOUS
10
113.812
20
-38.9805
11
113.787
21
-38.9778
0
LINE
8
BLACK
6
CONTINUOUS
10
113.787
20
-38.9778
11
113.776
21
-38.9756
0
LINE
8
BLACK
6
CONTINUOUS
10
113.776
20
-38.9756
11
113.753
21
-38.9785
0
LINE
8
BLACK
6
CONTINUOUS
10
113.753
20
-38.9785
11
113.74
21
-38.98
0
LINE
8
BLACK
6
CONTINUOUS
10
113.74
20
-38.98
11
113.733
21
-38.9805
0
LINE
8
BLACK
6
CONTINUOUS
10
113.733
20
-38.9805
11
113.729
21
-38.9805
0
LINE
8
BLACK
6
CONTINUOUS
10
113.729
20
-38.9805
11
113.717
21
-38.9824
0
LINE
8
BLACK
6
CONTINUOUS
10
113.717
20
-38.9824
11
113.705
21
-38.9844
0
LINE
8
BLACK
6
CONTINUOUS
10
113.705
20
-38.9844
11
113.701
21
-38.985
0
LINE
8
BLACK
6
CONTINUOUS
10
113.701
20
-38.985
11
113.65
21
-38.9912
0
LINE
8
BLACK
6
CONTINUOUS
10
113.65
20
-38.9912
11
113.643
21
-38.9935
0
LINE
8
BLACK
6
CONTINUOUS
10
113.643
20
-38.9935
11
113.635
21
-38.9961
0
LINE
8
BLACK
6
CONTINUOUS
10
113.635
20
-38.9961
11
113.601
21
-39.0146
0
LINE
8
BLACK
6
CONTINUOUS
10
113.601
20
-39.0146
11
113.586
21
-39.0225
0
LINE
8
BLACK
6
CONTINUOUS
10
113.586
20
-39.0225
11
113.574
21
-39.0285
0
LINE
8
BLACK
6
CONTINUOUS
10
113.574
20
-39.0285
11
113.536
21
-39.0469
0
LINE
8
BLACK
6
CONTINUOUS
10
113.536
20
-39.0469
11
113.53
21
-39.0515
0
LINE
8
BLACK
6
CONTINUOUS
10
113.53
20
-39.0515
11
113.524
21
-39.0564
0
LINE
8
BLACK
6
CONTINUOUS
10
113.524
20
-39.0564
11
113.486
21
-39.0972
0
LINE
8
BLACK
6
CONTINUOUS
10
113.486
20
-39.0972
11
109.569
21
-43.0146
0
LINE
8
BLACK
6
CONTINUOUS
10
109.569
20
-43.0146
11
109.549
21
-43.031
0
LINE
8
BLACK
6
CONTINUOUS
10
109.549
20
-43.031
11
109.539
21
-43.0369
0
LINE
8
BLACK
6
CONTINUOUS
10
109.539
20
-43.0369
11
109.539
21
-43.0369
0
LINE
8
BLACK
6
CONTINUOUS
10
109.539
20
-43.0369
11
109.517
21
-43.0652
0
LINE
8
BLACK
6
CONTINUOUS
10
109.517
20
-43.0652
11
109.512
21
-43.0711
0
LINE
8
BLACK
6
CONTINUOUS
10
109.512
20
-43.0711
11
109.511
21
-43.072
0
LINE
8
BLACK
6
CONTINUOUS
10
109.511
20
-43.072
11
109.509
21
-43.0739
0
LINE
8
BLACK
6
CONTINUOUS
10
109.509
20
-43.0739
11
109.496
21
-43.0931
0
LINE
8
BLACK
6
CONTINUOUS
10
109.496
20
-43.0931
11
109.462
21
-43.1369
0
LINE
8
BLACK
6
CONTINUOUS
10
109.462
20
-43.1369
11
109.458
21
-43.1439
0
LINE
8
BLACK
6
CONTINUOUS
10
109.458
20
-43.1439
11
109.454
21
-43.151
0
LINE
8
BLACK
6
CONTINUOUS
10
109.454
20
-43.151
11
109.439
21
-43.2042
0
LINE
8
BLACK
6
CONTINUOUS
10
109.439
20
-43.2042
11
109.42
21
-43.2567
0
LINE
8
BLACK
6
CONTINUOUS
10
109.42
20
-43.2567
11
109.419
21
-43.2645
0
LINE
8
BLACK
6
CONTINUOUS
10
109.419
20
-43.2645
11
109.418
21
-43.2724
0
LINE
8
BLACK
6
CONTINUOUS
10
109.418
20
-43.2724
11
109.42
21
-43.3278
0
LINE
8
BLACK
6
CONTINUOUS
10
109.42
20
-43.3278
11
109.42
21
-71.4345
0
LINE
8
BLACK
6
CONTINUOUS
10
109.42
20
-71.4345
11
109.4
21
-71.5026
0
LINE
8
BLACK
6
CONTINUOUS
10
109.4
20
-71.5026
11
109.347
21
-71.5491
0
LINE
8
BLACK
6
CONTINUOUS
10
109.347
20
-71.5491
11
109.294
21
-71.5605
0
LINE
8
BLACK
6
CONTINUOUS
10
109.294
20
-71.5605
11
73.3305
21
-71.5605
0
LINE
8
BLACK
6
CONTINUOUS
10
73.3305
20
-71.5605
11
73.2624
21
-71.5405
0
LINE
8
BLACK
6
CONTINUOUS
10
73.2624
20
-71.5405
11
73.2159
21
-71.4868
0
LINE
8
BLACK
6
CONTINUOUS
10
73.2159
20
-71.4868
11
73.2045
21
-71.4345
0
LINE
8
BLACK
6
CONTINUOUS
10
73.2045
20
-71.4345
11
73.2045
21
-71.0649
0
LINE
8
BLACK
6
CONTINUOUS
10
73.2045
20
-71.0649
11
73.2045
21
-71.0649
0
LINE
8
BLACK
6
CONTINUOUS
10
73.2045
20
-71.0649
11
73.1897
21
-70.9907
0
LINE
8
BLACK
6
CONTINUOUS
10
73.1897
20
-70.9907
11
73.1335
21
-70.9065
0
LINE
8
BLACK
6
CONTINUOUS
10
73.1335
20
-70.9065
11
73.0493
21
-70.8503
0
LINE
8
BLACK
6
CONTINUOUS
10
73.0493
20
-70.8503
11
72.9751
21
-70.8355
0
LINE
8
BLACK
6
CONTINUOUS
10
72.9751
20
-70.8355
11
71.2249
21
-70.8355
0
LINE
8
BLACK
6
CONTINUOUS
10
71.2249
20
-70.8355
11
71.2249
21
-70.8355
0
LINE
8
BLACK
6
CONTINUOUS
10
71.2249
20
-70.8355
11
71.1507
21
-70.8503
0
LINE
8
BLACK
6
CONTINUOUS
10
71.1507
20
-70.8503
11
71.0665
21
-70.9065
0
LINE
8
BLACK
6
CONTINUOUS
10
71.0665
20
-70.9065
11
71.0103
21
-70.9907
0
LINE
8
BLACK
6
CONTINUOUS
10
71.0103
20
-70.9907
11
70.9955
21
-71.0649
0
LINE
8
BLACK
6
CONTINUOUS
10
70.9955
20
-71.0649
11
70.9955
21
-72.8151
0
LINE
8
BLACK
6
CONTINUOUS
10
70.9955
20
-72.8151
11
70.9955
21
-72.8151
0
LINE
8
BLACK
6
CONTINUOUS
10
92.0443
20
-83.5227
11
92.0443
21
-83.5227
0
LINE
8
BLACK
6
CONTINUOUS
10
92.0443
20
-83.5227
11
92.0443
21
-83.5227
0
LINE
8
BLACK
6
CONTINUOUS
10
92.0443
20
-83.5227
11
91.9083
21
-83.472
0
LINE
8
BLACK
6
CONTINUOUS
10
91.9083
20
-83.472
11
91.9083
21
-83.472
0
LINE
8
BLACK
6
CONTINUOUS
10
91.9083
20
-83.472
11
91.9083
21
-83.472
0
LINE
8
BLACK
6
CONTINUOUS
10
91.9083
20
-83.472
11
91.87
21
-83.4678
0
LINE
8
BLACK
6
CONTINUOUS
10
91.87
20
-83.4678
11
91.8483
21
-83.4655
0
LINE
8
BLACK
6
CONTINUOUS
10
91.8483
20
-83.4655
11
90.5518
21
-83.4655
0
LINE
8
BLACK
6
CONTINUOUS
10
90.5518
20
-83.4655
11
90.5517
21
-83.4655
0
LINE
8
BLACK
6
CONTINUOUS
10
90.5517
20
-83.4655
11
90.4917
21
-83.472
0
LINE
8
BLACK
6
CONTINUOUS
10
90.4917
20
-83.472
11
90.4917
21
-83.472
0
LINE
8
BLACK
6
CONTINUOUS
10
90.4917
20
-83.472
11
90.3557
21
-83.5227
0
LINE
8
BLACK
6
CONTINUOUS
10
90.3557
20
-83.5227
11
90.2396
21
-83.6096
0
LINE
8
BLACK
6
CONTINUOUS
10
90.2396
20
-83.6096
11
90.1527
21
-83.7257
0
LINE
8
BLACK
6
CONTINUOUS
10
90.1527
20
-83.7257
11
90.102
21
-83.8616
0
LINE
8
BLACK
6
CONTINUOUS
10
90.102
20
-83.8616
11
90.102
21
-83.8617
0
LINE
8
BLACK
6
CONTINUOUS
10
90.102
20
-83.8617
11
90.0955
21
-83.9217
0
LINE
8
BLACK
6
CONTINUOUS
10
90.0955
20
-83.9217
11
90.0955
21
-85.5182
0
LINE
8
BLACK
6
CONTINUOUS
10
90.0955
20
-85.5182
11
90.0955
21
-85.5183
0
LINE
8
BLACK
6
CONTINUOUS
10
90.0955
20
-85.5183
11
90.102
21
-85.5783
0
LINE
8
BLACK
6
CONTINUOUS
10
90.102
20
-85.5783
11
90.102
21
-85.5783
0
LINE
8
BLACK
6
CONTINUOUS
10
90.102
20
-85.5783
11
90.1527
21
-85.7143
0
LINE
8
BLACK
6
CONTINUOUS
10
90.1527
20
-85.7143
11
90.1527
21
-85.7143
0
LINE
8
BLACK
6
CONTINUOUS
10
90.1527
20
-85.7143
11
90.2396
21
-85.8304
0
LINE
8
BLACK
6
CONTINUOUS
10
90.2396
20
-85.8304
11
90.3557
21
-85.9173
0
LINE
8
BLACK
6
CONTINUOUS
10
90.3557
20
-85.9173
11
90.4917
21
-85.968
0
LINE
8
BLACK
6
CONTINUOUS
10
90.4917
20
-85.968
11
90.5517
21
-85.9745
0
LINE
8
BLACK
6
CONTINUOUS
10
90.5517
20
-85.9745
11
91.8483
21
-85.9745
0
LINE
8
BLACK
6
CONTINUOUS
10
91.8483
20
-85.9745
11
91.9083
21
-85.968
0
LINE
8
BLACK
6
CONTINUOUS
10
91.9083
20
-85.968
11
92.0443
21
-85.9173
0
LINE
8
BLACK
6
CONTINUOUS
10
92.0443
20
-85.9173
11
92.1604
21
-85.8304
0
LINE
8
BLACK
6
CONTINUOUS
10
92.1604
20
-85.8304
11
92.2473
21
-85.7143
0
LINE
8
BLACK
6
CONTINUOUS
10
92.2473
20
-85.7143
11
92.298
21
-85.5783
0
LINE
8
BLACK
6
CONTINUOUS
10
92.298
20
-85.5783
11
92.3045
21
-85.5183
0
LINE
8
BLACK
6
CONTINUOUS
10
92.3045
20
-85.5183
11
92.3045
21
-83.9217
0
LINE
8
BLACK
6
CONTINUOUS
10
92.3045
20
-83.9217
11
92.298
21
-83.8617
0
LINE
8
BLACK
6
CONTINUOUS
10
92.298
20
-83.8617
11
92.2473
21
-83.7257
0
LINE
8
BLACK
6
CONTINUOUS
10
92.2473
20
-83.7257
11
92.1604
21
-83.6096
0
LINE
8
BLACK
6
CONTINUOUS
10
92.1604
20
-83.6096
11
92.1209
21
-83.58
0
LINE
8
BLACK
6
CONTINUOUS
10
92.1209
20
-83.58
11
92.0443
21
-83.5227
0
LINE
8
BLACK
6
CONTINUOUS
10
82.0421
20
-83.4968
11
82.0421
21
-83.4968
0
LINE
8
BLACK
6
CONTINUOUS
10
82.0421
20
-83.4968
11
81.8371
21
-83.5465
0
LINE
8
BLACK
6
CONTINUOUS
10
81.8371
20
-83.5465
11
81.8371
21
-83.5465
0
LINE
8
BLACK
6
CONTINUOUS
10
81.8371
20
-83.5465
11
81.6452
21
-83.6341
0
LINE
8
BLACK
6
CONTINUOUS
10
81.6452
20
-83.6341
11
81.4734
21
-83.7565
0
LINE
8
BLACK
6
CONTINUOUS
10
81.4734
20
-83.7565
11
81.4734
21
-83.7565
0
LINE
8
BLACK
6
CONTINUOUS
10
81.4734
20
-83.7565
11
81.3279
21
-83.9091
0
LINE
8
BLACK
6
CONTINUOUS
10
81.3279
20
-83.9091
11
81.2138
21
-84.0866
0
LINE
8
BLACK
6
CONTINUOUS
10
81.2138
20
-84.0866
11
81.1354
21
-84.2824
0
LINE
8
BLACK
6
CONTINUOUS
10
81.1354
20
-84.2824
11
81.0955
21
-84.4895
0
LINE
8
BLACK
6
CONTINUOUS
10
81.0955
20
-84.4895
11
81.0955
21
-84.8976
0
LINE
8
BLACK
6
CONTINUOUS
10
81.0955
20
-84.8976
11
81.1105
21
-85.055
0
LINE
8
BLACK
6
CONTINUOUS
10
81.1105
20
-85.055
11
81.1105
21
-85.055
0
LINE
8
BLACK
6
CONTINUOUS
10
81.1105
20
-85.055
11
81.17
21
-85.2574
0
LINE
8
BLACK
6
CONTINUOUS
10
81.17
20
-85.2574
11
81.2666
21
-85.4449
0
LINE
8
BLACK
6
CONTINUOUS
10
81.2666
20
-85.4449
11
81.2666
21
-85.4449
0
LINE
8
BLACK
6
CONTINUOUS
10
81.2666
20
-85.4449
11
81.397
21
-85.6107
0
LINE
8
BLACK
6
CONTINUOUS
10
81.397
20
-85.6107
11
81.397
21
-85.6107
0
LINE
8
BLACK
6
CONTINUOUS
10
81.397
20
-85.6107
11
81.5564
21
-85.7488
0
LINE
8
BLACK
6
CONTINUOUS
10
81.5564
20
-85.7488
11
81.5564
21
-85.7488
0
LINE
8
BLACK
6
CONTINUOUS
10
81.5564
20
-85.7488
11
81.7391
21
-85.8543
0
LINE
8
BLACK
6
CONTINUOUS
10
81.7391
20
-85.8543
11
81.9384
21
-85.9232
0
LINE
8
BLACK
6
CONTINUOUS
10
81.9384
20
-85.9232
11
81.9384
21
-85.9232
0
LINE
8
BLACK
6
CONTINUOUS
10
81.9384
20
-85.9232
11
81.9384
21
-85.9232
0
LINE
8
BLACK
6
CONTINUOUS
10
81.9384
20
-85.9232
11
82.1472
21
-85.9533
0
LINE
8
BLACK
6
CONTINUOUS
10
82.1472
20
-85.9533
11
82.1472
21
-85.9533
0
LINE
8
BLACK
6
CONTINUOUS
10
82.1472
20
-85.9533
11
82.1472
21
-85.9533
0
LINE
8
BLACK
6
CONTINUOUS
10
82.1472
20
-85.9533
11
82.3579
21
-85.9432
0
LINE
8
BLACK
6
CONTINUOUS
10
82.3579
20
-85.9432
11
82.5629
21
-85.8935
0
LINE
8
BLACK
6
CONTINUOUS
10
82.5629
20
-85.8935
11
82.7548
21
-85.8059
0
LINE
8
BLACK
6
CONTINUOUS
10
82.7548
20
-85.8059
11
82.9266
21
-85.6835
0
LINE
8
BLACK
6
CONTINUOUS
10
82.9266
20
-85.6835
11
83.0721
21
-85.5309
0
LINE
8
BLACK
6
CONTINUOUS
10
83.0721
20
-85.5309
11
83.0803
21
-85.5182
0
LINE
8
BLACK
6
CONTINUOUS
10
83.0803
20
-85.5182
11
83.1862
21
-85.3534
0
LINE
8
BLACK
6
CONTINUOUS
10
83.1862
20
-85.3534
11
83.2646
21
-85.1576
0
LINE
8
BLACK
6
CONTINUOUS
10
83.2646
20
-85.1576
11
83.3045
21
-84.9505
0
LINE
8
BLACK
6
CONTINUOUS
10
83.3045
20
-84.9505
11
83.3045
21
-84.5424
0
LINE
8
BLACK
6
CONTINUOUS
10
83.3045
20
-84.5424
11
83.3045
21
-84.5424
0
LINE
8
BLACK
6
CONTINUOUS
10
83.3045
20
-84.5424
11
83.2895
21
-84.385
0
LINE
8
BLACK
6
CONTINUOUS
10
83.2895
20
-84.385
11
83.2895
21
-84.385
0
LINE
8
BLACK
6
CONTINUOUS
10
83.2895
20
-84.385
11
83.2895
21
-84.385
0
LINE
8
BLACK
6
CONTINUOUS
10
83.2895
20
-84.385
11
83.23
21
-84.1826
0
LINE
8
BLACK
6
CONTINUOUS
10
83.23
20
-84.1826
11
83.23
21
-84.1826
0
LINE
8
BLACK
6
CONTINUOUS
10
83.23
20
-84.1826
11
83.23
21
-84.1826
0
LINE
8
BLACK
6
CONTINUOUS
10
83.23
20
-84.1826
11
83.1334
21
-83.9951
0
LINE
8
BLACK
6
CONTINUOUS
10
83.1334
20
-83.9951
11
83.1334
21
-83.9951
0
LINE
8
BLACK
6
CONTINUOUS
10
83.1334
20
-83.9951
11
83.003
21
-83.8293
0
LINE
8
BLACK
6
CONTINUOUS
10
83.003
20
-83.8293
11
83.003
21
-83.8293
0
LINE
8
BLACK
6
CONTINUOUS
10
83.003
20
-83.8293
11
83.003
21
-83.8293
0
LINE
8
BLACK
6
CONTINUOUS
10
83.003
20
-83.8293
11
83.003
21
-83.8293
0
LINE
8
BLACK
6
CONTINUOUS
10
83.003
20
-83.8293
11
83.003
21
-83.8293
0
LINE
8
BLACK
6
CONTINUOUS
10
83.003
20
-83.8293
11
82.8436
21
-83.6912
0
LINE
8
BLACK
6
CONTINUOUS
10
82.8436
20
-83.6912
11
82.8436
21
-83.6912
0
LINE
8
BLACK
6
CONTINUOUS
10
82.8436
20
-83.6912
11
82.6609
21
-83.5857
0
LINE
8
BLACK
6
CONTINUOUS
10
82.6609
20
-83.5857
11
82.6609
21
-83.5857
0
LINE
8
BLACK
6
CONTINUOUS
10
82.6609
20
-83.5857
11
82.6609
21
-83.5857
0
LINE
8
BLACK
6
CONTINUOUS
10
82.6609
20
-83.5857
11
82.4616
21
-83.5168
0
LINE
8
BLACK
6
CONTINUOUS
10
82.4616
20
-83.5168
11
82.4616
21
-83.5168
0
LINE
8
BLACK
6
CONTINUOUS
10
82.4616
20
-83.5168
11
82.4616
21
-83.5168
0
LINE
8
BLACK
6
CONTINUOUS
10
82.4616
20
-83.5168
11
82.2528
21
-83.4867
0
LINE
8
BLACK
6
CONTINUOUS
10
82.2528
20
-83.4867
11
82.0421
21
-83.4968
0
LINE
8
BLACK
6
CONTINUOUS
10
123.955
20
-43.2705
11
123.955
21
-43.2705
0
LINE
8
BLACK
6
CONTINUOUS
10
123.955
20
-43.2705
11
123.753
21
-43.33
0
LINE
8
BLACK
6
CONTINUOUS
10
123.753
20
-43.33
11
123.565
21
-43.4266
0
LINE
8
BLACK
6
CONTINUOUS
10
123.565
20
-43.4266
11
123.565
21
-43.4266
0
LINE
8
BLACK
6
CONTINUOUS
10
123.565
20
-43.4266
11
123.399
21
-43.557
0
LINE
8
BLACK
6
CONTINUOUS
10
123.399
20
-43.557
11
123.399
21
-43.557
0
LINE
8
BLACK
6
CONTINUOUS
10
123.399
20
-43.557
11
123.261
21
-43.7164
0
LINE
8
BLACK
6
CONTINUOUS
10
123.261
20
-43.7164
11
123.261
21
-43.7164
0
LINE
8
BLACK
6
CONTINUOUS
10
123.261
20
-43.7164
11
123.156
21
-43.8991
0
LINE
8
BLACK
6
CONTINUOUS
10
123.156
20
-43.8991
11
123.153
21
-43.9045
0
LINE
8
BLACK
6
CONTINUOUS
10
123.153
20
-43.9045
11
123.151
21
-43.9036
0
LINE
8
BLACK
6
CONTINUOUS
10
123.151
20
-43.9036
11
123.116
21
-43.9535
0
LINE
8
BLACK
6
CONTINUOUS
10
123.116
20
-43.9535
11
123.05
21
-43.9799
0
LINE
8
BLACK
6
CONTINUOUS
10
123.05
20
-43.9799
11
123.038
21
-43.9805
0
LINE
8
BLACK
6
CONTINUOUS
10
123.038
20
-43.9805
11
118.412
21
-43.9805
0
LINE
8
BLACK
6
CONTINUOUS
10
118.412
20
-43.9805
11
118.387
21
-43.9778
0
LINE
8
BLACK
6
CONTINUOUS
10
118.387
20
-43.9778
11
118.384
21
-43.9772
0
LINE
8
BLACK
6
CONTINUOUS
10
118.384
20
-43.9772
11
118.376
21
-43.9756
0
LINE
8
BLACK
6
CONTINUOUS
10
118.376
20
-43.9756
11
118.354
21
-43.9783
0
LINE
8
BLACK
6
CONTINUOUS
10
118.354
20
-43.9783
11
118.34
21
-43.98
0
LINE
8
BLACK
6
CONTINUOUS
10
118.34
20
-43.98
11
118.333
21
-43.9805
0
LINE
8
BLACK
6
CONTINUOUS
10
118.333
20
-43.9805
11
118.329
21
-43.9805
0
LINE
8
BLACK
6
CONTINUOUS
10
118.329
20
-43.9805
11
118.305
21
-43.9844
0
LINE
8
BLACK
6
CONTINUOUS
10
118.305
20
-43.9844
11
118.25
21
-43.9912
0
LINE
8
BLACK
6
CONTINUOUS
10
118.25
20
-43.9912
11
118.243
21
-43.9935
0
LINE
8
BLACK
6
CONTINUOUS
10
118.243
20
-43.9935
11
118.235
21
-43.9961
0
LINE
8
BLACK
6
CONTINUOUS
10
118.235
20
-43.9961
11
118.186
21
-44.0225
0
LINE
8
BLACK
6
CONTINUOUS
10
118.186
20
-44.0225
11
118.136
21
-44.0469
0
LINE
8
BLACK
6
CONTINUOUS
10
118.136
20
-44.0469
11
118.13
21
-44.0515
0
LINE
8
BLACK
6
CONTINUOUS
10
118.13
20
-44.0515
11
118.124
21
-44.0564
0
LINE
8
BLACK
6
CONTINUOUS
10
118.124
20
-44.0564
11
118.086
21
-44.0972
0
LINE
8
BLACK
6
CONTINUOUS
10
118.086
20
-44.0972
11
114.569
21
-47.6146
0
LINE
8
BLACK
6
CONTINUOUS
10
114.569
20
-47.6146
11
114.549
21
-47.631
0
LINE
8
BLACK
6
CONTINUOUS
10
114.549
20
-47.631
11
114.539
21
-47.6369
0
LINE
8
BLACK
6
CONTINUOUS
10
114.539
20
-47.6369
11
114.539
21
-47.6369
0
LINE
8
BLACK
6
CONTINUOUS
10
114.539
20
-47.6369
11
114.517
21
-47.6652
0
LINE
8
BLACK
6
CONTINUOUS
10
114.517
20
-47.6652
11
114.512
21
-47.6711
0
LINE
8
BLACK
6
CONTINUOUS
10
114.512
20
-47.6711
11
114.511
21
-47.672
0
LINE
8
BLACK
6
CONTINUOUS
10
114.511
20
-47.672
11
114.509
21
-47.6739
0
LINE
8
BLACK
6
CONTINUOUS
10
114.509
20
-47.6739
11
114.496
21
-47.6931
0
LINE
8
BLACK
6
CONTINUOUS
10
114.496
20
-47.6931
11
114.462
21
-47.7369
0
LINE
8
BLACK
6
CONTINUOUS
10
114.462
20
-47.7369
11
114.458
21
-47.7439
0
LINE
8
BLACK
6
CONTINUOUS
10
114.458
20
-47.7439
11
114.454
21
-47.751
0
LINE
8
BLACK
6
CONTINUOUS
10
114.454
20
-47.751
11
114.439
21
-47.8042
0
LINE
8
BLACK
6
CONTINUOUS
10
114.439
20
-47.8042
11
114.42
21
-47.8567
0
LINE
8
BLACK
6
CONTINUOUS
10
114.42
20
-47.8567
11
114.419
21
-47.8645
0
LINE
8
BLACK
6
CONTINUOUS
10
114.419
20
-47.8645
11
114.418
21
-47.8724
0
LINE
8
BLACK
6
CONTINUOUS
10
114.418
20
-47.8724
11
114.42
21
-47.9278
0
LINE
8
BLACK
6
CONTINUOUS
10
114.42
20
-47.9278
11
114.42
21
-83.4731
0
LINE
8
BLACK
6
CONTINUOUS
10
114.42
20
-83.4731
11
114.4
21
-83.5412
0
LINE
8
BLACK
6
CONTINUOUS
10
114.4
20
-83.5412
11
114.347
21
-83.5877
0
LINE
8
BLACK
6
CONTINUOUS
10
114.347
20
-83.5877
11
114.245
21
-83.6341
0
LINE
8
BLACK
6
CONTINUOUS
10
114.245
20
-83.6341
11
114.073
21
-83.7565
0
LINE
8
BLACK
6
CONTINUOUS
10
114.073
20
-83.7565
11
114.073
21
-83.7565
0
LINE
8
BLACK
6
CONTINUOUS
10
114.073
20
-83.7565
11
113.928
21
-83.9091
0
LINE
8
BLACK
6
CONTINUOUS
10
113.928
20
-83.9091
11
113.814
21
-84.0866
0
LINE
8
BLACK
6
CONTINUOUS
10
113.814
20
-84.0866
11
113.735
21
-84.2824
0
LINE
8
BLACK
6
CONTINUOUS
10
113.735
20
-84.2824
11
113.695
21
-84.4895
0
LINE
8
BLACK
6
CONTINUOUS
10
113.695
20
-84.4895
11
113.695
21
-84.8976
0
LINE
8
BLACK
6
CONTINUOUS
10
113.695
20
-84.8976
11
113.711
21
-85.055
0
LINE
8
BLACK
6
CONTINUOUS
10
113.711
20
-85.055
11
113.711
21
-85.055
0
LINE
8
BLACK
6
CONTINUOUS
10
113.711
20
-85.055
11
113.77
21
-85.2574
0
LINE
8
BLACK
6
CONTINUOUS
10
113.77
20
-85.2574
11
113.867
21
-85.4449
0
LINE
8
BLACK
6
CONTINUOUS
10
113.867
20
-85.4449
11
113.867
21
-85.4449
0
LINE
8
BLACK
6
CONTINUOUS
10
113.867
20
-85.4449
11
113.997
21
-85.6107
0
LINE
8
BLACK
6
CONTINUOUS
10
113.997
20
-85.6107
11
113.997
21
-85.6107
0
LINE
8
BLACK
6
CONTINUOUS
10
113.997
20
-85.6107
11
114.156
21
-85.7488
0
LINE
8
BLACK
6
CONTINUOUS
10
114.156
20
-85.7488
11
114.156
21
-85.7488
0
LINE
8
BLACK
6
CONTINUOUS
10
114.156
20
-85.7488
11
114.339
21
-85.8543
0
LINE
8
BLACK
6
CONTINUOUS
10
114.339
20
-85.8543
11
114.538
21
-85.9232
0
LINE
8
BLACK
6
CONTINUOUS
10
114.538
20
-85.9232
11
114.538
21
-85.9232
0
LINE
8
BLACK
6
CONTINUOUS
10
114.538
20
-85.9232
11
114.538
21
-85.9232
0
LINE
8
BLACK
6
CONTINUOUS
10
114.538
20
-85.9232
11
114.747
21
-85.9533
0
LINE
8
BLACK
6
CONTINUOUS
10
114.747
20
-85.9533
11
114.747
21
-85.9533
0
LINE
8
BLACK
6
CONTINUOUS
10
114.747
20
-85.9533
11
114.747
21
-85.9533
0
LINE
8
BLACK
6
CONTINUOUS
10
114.747
20
-85.9533
11
114.958
21
-85.9432
0
LINE
8
BLACK
6
CONTINUOUS
10
114.958
20
-85.9432
11
115.163
21
-85.8935
0
LINE
8
BLACK
6
CONTINUOUS
10
115.163
20
-85.8935
11
115.355
21
-85.8059
0
LINE
8
BLACK
6
CONTINUOUS
10
115.355
20
-85.8059
11
115.527
21
-85.6835
0
LINE
8
BLACK
6
CONTINUOUS
10
115.527
20
-85.6835
11
115.672
21
-85.5309
0
LINE
8
BLACK
6
CONTINUOUS
10
115.672
20
-85.5309
11
115.786
21
-85.3534
0
LINE
8
BLACK
6
CONTINUOUS
10
115.786
20
-85.3534
11
115.865
21
-85.1576
0
LINE
8
BLACK
6
CONTINUOUS
10
115.865
20
-85.1576
11
115.904
21
-84.9505
0
LINE
8
BLACK
6
CONTINUOUS
10
115.904
20
-84.9505
11
115.904
21
-84.8976
0
LINE
8
BLACK
6
CONTINUOUS
10
115.904
20
-84.8976
11
115.904
21
-84.5424
0
LINE
8
BLACK
6
CONTINUOUS
10
115.904
20
-84.5424
11
115.904
21
-84.5424
0
LINE
8
BLACK
6
CONTINUOUS
10
115.904
20
-84.5424
11
115.889
21
-84.385
0
LINE
8
BLACK
6
CONTINUOUS
10
115.889
20
-84.385
11
115.889
21
-84.385
0
LINE
8
BLACK
6
CONTINUOUS
10
115.889
20
-84.385
11
115.889
21
-84.385
0
LINE
8
BLACK
6
CONTINUOUS
10
115.889
20
-84.385
11
115.83
21
-84.1826
0
LINE
8
BLACK
6
CONTINUOUS
10
115.83
20
-84.1826
11
115.83
21
-84.1826
0
LINE
8
BLACK
6
CONTINUOUS
10
115.83
20
-84.1826
11
115.83
21
-84.1826
0
LINE
8
BLACK
6
CONTINUOUS
10
115.83
20
-84.1826
11
115.733
21
-83.9951
0
LINE
8
BLACK
6
CONTINUOUS
10
115.733
20
-83.9951
11
115.733
21
-83.9951
0
LINE
8
BLACK
6
CONTINUOUS
10
115.733
20
-83.9951
11
115.603
21
-83.8293
0
LINE
8
BLACK
6
CONTINUOUS
10
115.603
20
-83.8293
11
115.603
21
-83.8293
0
LINE
8
BLACK
6
CONTINUOUS
10
115.603
20
-83.8293
11
115.603
21
-83.8293
0
LINE
8
BLACK
6
CONTINUOUS
10
115.603
20
-83.8293
11
115.603
21
-83.8293
0
LINE
8
BLACK
6
CONTINUOUS
10
115.603
20
-83.8293
11
115.603
21
-83.8293
0
LINE
8
BLACK
6
CONTINUOUS
10
115.603
20
-83.8293
11
115.444
21
-83.6912
0
LINE
8
BLACK
6
CONTINUOUS
10
115.444
20
-83.6912
11
115.444
21
-83.6912
0
LINE
8
BLACK
6
CONTINUOUS
10
115.444
20
-83.6912
11
115.261
21
-83.5857
0
LINE
8
BLACK
6
CONTINUOUS
10
115.261
20
-83.5857
11
115.261
21
-83.5857
0
LINE
8
BLACK
6
CONTINUOUS
10
115.261
20
-83.5857
11
115.261
21
-83.5857
0
LINE
8
BLACK
6
CONTINUOUS
10
115.261
20
-83.5857
11
115.255
21
-83.5832
0
LINE
8
BLACK
6
CONTINUOUS
10
115.255
20
-83.5832
11
115.256
21
-83.5813
0
LINE
8
BLACK
6
CONTINUOUS
10
115.256
20
-83.5813
11
115.206
21
-83.5457
0
LINE
8
BLACK
6
CONTINUOUS
10
115.206
20
-83.5457
11
115.18
21
-83.4798
0
LINE
8
BLACK
6
CONTINUOUS
10
115.18
20
-83.4798
11
115.179
21
-83.4678
0
LINE
8
BLACK
6
CONTINUOUS
10
115.179
20
-83.4678
11
115.179
21
-48.1294
0
LINE
8
BLACK
6
CONTINUOUS
10
115.179
20
-48.1294
11
115.2
21
-48.0613
0
LINE
8
BLACK
6
CONTINUOUS
10
115.2
20
-48.0613
11
115.216
21
-48.0403
0
LINE
8
BLACK
6
CONTINUOUS
10
115.216
20
-48.0403
11
118.48
21
-44.7764
0
LINE
8
BLACK
6
CONTINUOUS
10
118.48
20
-44.7764
11
118.543
21
-44.7424
0
LINE
8
BLACK
6
CONTINUOUS
10
118.543
20
-44.7424
11
118.569
21
-44.7395
0
LINE
8
BLACK
6
CONTINUOUS
10
118.569
20
-44.7395
11
123.043
21
-44.7395
0
LINE
8
BLACK
6
CONTINUOUS
10
123.043
20
-44.7395
11
123.111
21
-44.7595
0
LINE
8
BLACK
6
CONTINUOUS
10
123.111
20
-44.7595
11
123.158
21
-44.8132
0
LINE
8
BLACK
6
CONTINUOUS
10
123.158
20
-44.8132
11
123.192
21
-44.8888
0
LINE
8
BLACK
6
CONTINUOUS
10
123.192
20
-44.8888
11
123.204
21
-44.9148
0
LINE
8
BLACK
6
CONTINUOUS
10
123.204
20
-44.9148
11
123.326
21
-45.0866
0
LINE
8
BLACK
6
CONTINUOUS
10
123.326
20
-45.0866
11
123.479
21
-45.2321
0
LINE
8
BLACK
6
CONTINUOUS
10
123.479
20
-45.2321
11
123.479
21
-45.2321
0
LINE
8
BLACK
6
CONTINUOUS
10
123.479
20
-45.2321
11
123.479
21
-45.2321
0
LINE
8
BLACK
6
CONTINUOUS
10
123.479
20
-45.2321
11
123.574
21
-45.2934
0
LINE
8
BLACK
6
CONTINUOUS
10
123.574
20
-45.2934
11
123.657
21
-45.3462
0
LINE
8
BLACK
6
CONTINUOUS
10
123.657
20
-45.3462
11
123.852
21
-45.4246
0
LINE
8
BLACK
6
CONTINUOUS
10
123.852
20
-45.4246
11
124.06
21
-45.4645
0
LINE
8
BLACK
6
CONTINUOUS
10
124.06
20
-45.4645
11
124.06
21
-45.4645
0
LINE
8
BLACK
6
CONTINUOUS
10
124.06
20
-45.4645
11
124.468
21
-45.4645
0
LINE
8
BLACK
6
CONTINUOUS
10
124.468
20
-45.4645
11
124.468
21
-45.4645
0
LINE
8
BLACK
6
CONTINUOUS
10
124.468
20
-45.4645
11
124.625
21
-45.4495
0
LINE
8
BLACK
6
CONTINUOUS
10
124.625
20
-45.4495
11
124.625
21
-45.4495
0
LINE
8
BLACK
6
CONTINUOUS
10
124.625
20
-45.4495
11
124.625
21
-45.4495
0
LINE
8
BLACK
6
CONTINUOUS
10
124.625
20
-45.4495
11
124.827
21
-45.39
0
LINE
8
BLACK
6
CONTINUOUS
10
124.827
20
-45.39
11
125.015
21
-45.2934
0
LINE
8
BLACK
6
CONTINUOUS
10
125.015
20
-45.2934
11
125.181
21
-45.163
0
LINE
8
BLACK
6
CONTINUOUS
10
125.181
20
-45.163
11
125.319
21
-45.0036
0
LINE
8
BLACK
6
CONTINUOUS
10
125.319
20
-45.0036
11
125.424
21
-44.8209
0
LINE
8
BLACK
6
CONTINUOUS
10
125.424
20
-44.8209
11
125.493
21
-44.6216
0
LINE
8
BLACK
6
CONTINUOUS
10
125.493
20
-44.6216
11
125.523
21
-44.4128
0
LINE
8
BLACK
6
CONTINUOUS
10
125.523
20
-44.4128
11
125.513
21
-44.2021
0
LINE
8
BLACK
6
CONTINUOUS
10
125.513
20
-44.2021
11
125.464
21
-43.9971
0
LINE
8
BLACK
6
CONTINUOUS
10
125.464
20
-43.9971
11
125.376
21
-43.8052
0
LINE
8
BLACK
6
CONTINUOUS
10
125.376
20
-43.8052
11
125.254
21
-43.6334
0
LINE
8
BLACK
6
CONTINUOUS
10
125.254
20
-43.6334
11
125.101
21
-43.4879
0
LINE
8
BLACK
6
CONTINUOUS
10
125.101
20
-43.4879
11
125.101
21
-43.4879
0
LINE
8
BLACK
6
CONTINUOUS
10
125.101
20
-43.4879
11
125.101
21
-43.4879
0
LINE
8
BLACK
6
CONTINUOUS
10
125.101
20
-43.4879
11
124.923
21
-43.3738
0
LINE
8
BLACK
6
CONTINUOUS
10
124.923
20
-43.3738
11
124.814
21
-43.33
0
LINE
8
BLACK
6
CONTINUOUS
10
124.814
20
-43.33
11
124.728
21
-43.2954
0
LINE
8
BLACK
6
CONTINUOUS
10
124.728
20
-43.2954
11
124.728
21
-43.2954
0
LINE
8
BLACK
6
CONTINUOUS
10
124.728
20
-43.2954
11
124.728
21
-43.2954
0
LINE
8
BLACK
6
CONTINUOUS
10
124.728
20
-43.2954
11
124.52
21
-43.2555
0
LINE
8
BLACK
6
CONTINUOUS
10
124.52
20
-43.2555
11
124.52
21
-43.2555
0
LINE
8
BLACK
6
CONTINUOUS
10
124.52
20
-43.2555
11
124.112
21
-43.2555
0
LINE
8
BLACK
6
CONTINUOUS
10
124.112
20
-43.2555
11
124.112
21
-43.2555
0
LINE
8
BLACK
6
CONTINUOUS
10
124.112
20
-43.2555
11
123.955
21
-43.2705
0
LINE
8
BLACK
6
CONTINUOUS
10
76.0955
20
-85.4933
11
76.102
21
-85.5533
0
LINE
8
BLACK
6
CONTINUOUS
10
76.102
20
-85.5533
11
76.102
21
-85.5533
0
LINE
8
BLACK
6
CONTINUOUS
10
76.102
20
-85.5533
11
76.1527
21
-85.6893
0
LINE
8
BLACK
6
CONTINUOUS
10
76.1527
20
-85.6893
11
76.1745
21
-85.7185
0
LINE
8
BLACK
6
CONTINUOUS
10
76.1745
20
-85.7185
11
76.2396
21
-85.8054
0
LINE
8
BLACK
6
CONTINUOUS
10
76.2396
20
-85.8054
11
76.3557
21
-85.8923
0
LINE
8
BLACK
6
CONTINUOUS
10
76.3557
20
-85.8923
11
76.4917
21
-85.943
0
LINE
8
BLACK
6
CONTINUOUS
10
76.4917
20
-85.943
11
76.5517
21
-85.9495
0
LINE
8
BLACK
6
CONTINUOUS
10
76.5517
20
-85.9495
11
77.8483
21
-85.9495
0
LINE
8
BLACK
6
CONTINUOUS
10
77.8483
20
-85.9495
11
77.9083
21
-85.943
0
LINE
8
BLACK
6
CONTINUOUS
10
77.9083
20
-85.943
11
78.0443
21
-85.8923
0
LINE
8
BLACK
6
CONTINUOUS
10
78.0443
20
-85.8923
11
78.1604
21
-85.8054
0
LINE
8
BLACK
6
CONTINUOUS
10
78.1604
20
-85.8054
11
78.2473
21
-85.6893
0
LINE
8
BLACK
6
CONTINUOUS
10
78.2473
20
-85.6893
11
78.298
21
-85.5533
0
LINE
8
BLACK
6
CONTINUOUS
10
78.298
20
-85.5533
11
78.3045
21
-85.4933
0
LINE
8
BLACK
6
CONTINUOUS
10
78.3045
20
-85.4933
11
78.3045
21
-84.8976
0
LINE
8
BLACK
6
CONTINUOUS
10
78.3045
20
-84.8976
11
78.3045
21
-83.9467
0
LINE
8
BLACK
6
CONTINUOUS
10
78.3045
20
-83.9467
11
78.298
21
-83.8867
0
LINE
8
BLACK
6
CONTINUOUS
10
78.298
20
-83.8867
11
78.2473
21
-83.7507
0
LINE
8
BLACK
6
CONTINUOUS
10
78.2473
20
-83.7507
11
78.1604
21
-83.6346
0
LINE
8
BLACK
6
CONTINUOUS
10
78.1604
20
-83.6346
11
78.0443
21
-83.5477
0
LINE
8
BLACK
6
CONTINUOUS
10
78.0443
20
-83.5477
11
78.0443
21
-83.5477
0
LINE
8
BLACK
6
CONTINUOUS
10
78.0443
20
-83.5477
11
78.0443
21
-83.5477
0
LINE
8
BLACK
6
CONTINUOUS
10
78.0443
20
-83.5477
11
77.9083
21
-83.497
0
LINE
8
BLACK
6
CONTINUOUS
10
77.9083
20
-83.497
11
77.9083
21
-83.497
0
LINE
8
BLACK
6
CONTINUOUS
10
77.9083
20
-83.497
11
77.9083
21
-83.497
0
LINE
8
BLACK
6
CONTINUOUS
10
77.9083
20
-83.497
11
77.8783
21
-83.4937
0
LINE
8
BLACK
6
CONTINUOUS
10
77.8783
20
-83.4937
11
77.8483
21
-83.4905
0
LINE
8
BLACK
6
CONTINUOUS
10
77.8483
20
-83.4905
11
76.5518
21
-83.4905
0
LINE
8
BLACK
6
CONTINUOUS
10
76.5518
20
-83.4905
11
76.5517
21
-83.4905
0
LINE
8
BLACK
6
CONTINUOUS
10
76.5517
20
-83.4905
11
76.4917
21
-83.497
0
LINE
8
BLACK
6
CONTINUOUS
10
76.4917
20
-83.497
11
76.4917
21
-83.497
0
LINE
8
BLACK
6
CONTINUOUS
10
76.4917
20
-83.497
11
76.3557
21
-83.5477
0
LINE
8
BLACK
6
CONTINUOUS
10
76.3557
20
-83.5477
11
76.2396
21
-83.6346
0
LINE
8
BLACK
6
CONTINUOUS
10
76.2396
20
-83.6346
11
76.1527
21
-83.7507
0
LINE
8
BLACK
6
CONTINUOUS
10
76.1527
20
-83.7507
11
76.102
21
-83.8867
0
LINE
8
BLACK
6
CONTINUOUS
10
76.102
20
-83.8867
11
76.102
21
-83.8867
0
LINE
8
BLACK
6
CONTINUOUS
10
76.102
20
-83.8867
11
76.0955
21
-83.9467
0
LINE
8
BLACK
6
CONTINUOUS
10
76.0955
20
-83.9467
11
76.0955
21
-85.4932
0
LINE
8
BLACK
6
CONTINUOUS
10
76.0955
20
-85.4932
11
76.0955
21
-85.4933
0
LINE
8
BLACK
6
CONTINUOUS
10
116.211
20
-85.055
11
116.211
21
-85.055
0
LINE
8
BLACK
6
CONTINUOUS
10
116.211
20
-85.055
11
116.27
21
-85.2574
0
LINE
8
BLACK
6
CONTINUOUS
10
116.27
20
-85.2574
11
116.367
21
-85.4449
0
LINE
8
BLACK
6
CONTINUOUS
10
116.367
20
-85.4449
11
116.367
21
-85.4449
0
LINE
8
BLACK
6
CONTINUOUS
10
116.367
20
-85.4449
11
116.497
21
-85.6107
0
LINE
8
BLACK
6
CONTINUOUS
10
116.497
20
-85.6107
11
116.497
21
-85.6107
0
LINE
8
BLACK
6
CONTINUOUS
10
116.497
20
-85.6107
11
116.656
21
-85.7488
0
LINE
8
BLACK
6
CONTINUOUS
10
116.656
20
-85.7488
11
116.656
21
-85.7488
0
LINE
8
BLACK
6
CONTINUOUS
10
116.656
20
-85.7488
11
116.839
21
-85.8543
0
LINE
8
BLACK
6
CONTINUOUS
10
116.839
20
-85.8543
11
117.038
21
-85.9232
0
LINE
8
BLACK
6
CONTINUOUS
10
117.038
20
-85.9232
11
117.038
21
-85.9232
0
LINE
8
BLACK
6
CONTINUOUS
10
117.038
20
-85.9232
11
117.038
21
-85.9232
0
LINE
8
BLACK
6
CONTINUOUS
10
117.038
20
-85.9232
11
117.247
21
-85.9533
0
LINE
8
BLACK
6
CONTINUOUS
10
117.247
20
-85.9533
11
117.247
21
-85.9533
0
LINE
8
BLACK
6
CONTINUOUS
10
117.247
20
-85.9533
11
117.247
21
-85.9533
0
LINE
8
BLACK
6
CONTINUOUS
10
117.247
20
-85.9533
11
117.458
21
-85.9432
0
LINE
8
BLACK
6
CONTINUOUS
10
117.458
20
-85.9432
11
117.663
21
-85.8935
0
LINE
8
BLACK
6
CONTINUOUS
10
117.663
20
-85.8935
11
117.855
21
-85.8059
0
LINE
8
BLACK
6
CONTINUOUS
10
117.855
20
-85.8059
11
118.027
21
-85.6835
0
LINE
8
BLACK
6
CONTINUOUS
10
118.027
20
-85.6835
11
118.172
21
-85.5309
0
LINE
8
BLACK
6
CONTINUOUS
10
118.172
20
-85.5309
11
118.286
21
-85.3534
0
LINE
8
BLACK
6
CONTINUOUS
10
118.286
20
-85.3534
11
118.365
21
-85.1576
0
LINE
8
BLACK
6
CONTINUOUS
10
118.365
20
-85.1576
11
118.404
21
-84.9505
0
LINE
8
BLACK
6
CONTINUOUS
10
118.404
20
-84.9505
11
118.404
21
-84.8976
0
LINE
8
BLACK
6
CONTINUOUS
10
118.404
20
-84.8976
11
118.404
21
-84.5424
0
LINE
8
BLACK
6
CONTINUOUS
10
118.404
20
-84.5424
11
118.404
21
-84.5424
0
LINE
8
BLACK
6
CONTINUOUS
10
118.404
20
-84.5424
11
118.389
21
-84.385
0
LINE
8
BLACK
6
CONTINUOUS
10
118.389
20
-84.385
11
118.389
21
-84.385
0
LINE
8
BLACK
6
CONTINUOUS
10
118.389
20
-84.385
11
118.389
21
-84.385
0
LINE
8
BLACK
6
CONTINUOUS
10
118.389
20
-84.385
11
118.33
21
-84.1826
0
LINE
8
BLACK
6
CONTINUOUS
10
118.33
20
-84.1826
11
118.33
21
-84.1826
0
LINE
8
BLACK
6
CONTINUOUS
10
118.33
20
-84.1826
11
118.33
21
-84.1826
0
LINE
8
BLACK
6
CONTINUOUS
10
118.33
20
-84.1826
11
118.233
21
-83.9951
0
LINE
8
BLACK
6
CONTINUOUS
10
118.233
20
-83.9951
11
118.233
21
-83.9951
0
LINE
8
BLACK
6
CONTINUOUS
10
118.233
20
-83.9951
11
118.103
21
-83.8293
0
LINE
8
BLACK
6
CONTINUOUS
10
118.103
20
-83.8293
11
118.103
21
-83.8293
0
LINE
8
BLACK
6
CONTINUOUS
10
118.103
20
-83.8293
11
118.103
21
-83.8293
0
LINE
8
BLACK
6
CONTINUOUS
10
118.103
20
-83.8293
11
118.103
21
-83.8293
0
LINE
8
BLACK
6
CONTINUOUS
10
118.103
20
-83.8293
11
118.103
21
-83.8293
0
LINE
8
BLACK
6
CONTINUOUS
10
118.103
20
-83.8293
11
117.944
21
-83.6912
0
LINE
8
BLACK
6
CONTINUOUS
10
117.944
20
-83.6912
11
117.944
21
-83.6912
0
LINE
8
BLACK
6
CONTINUOUS
10
117.944
20
-83.6912
11
117.761
21
-83.5857
0
LINE
8
BLACK
6
CONTINUOUS
10
117.761
20
-83.5857
11
117.761
21
-83.5857
0
LINE
8
BLACK
6
CONTINUOUS
10
117.761
20
-83.5857
11
117.761
21
-83.5857
0
LINE
8
BLACK
6
CONTINUOUS
10
117.761
20
-83.5857
11
117.755
21
-83.5832
0
LINE
8
BLACK
6
CONTINUOUS
10
117.755
20
-83.5832
11
117.756
21
-83.5813
0
LINE
8
BLACK
6
CONTINUOUS
10
117.756
20
-83.5813
11
117.706
21
-83.5457
0
LINE
8
BLACK
6
CONTINUOUS
10
117.706
20
-83.5457
11
117.68
21
-83.4798
0
LINE
8
BLACK
6
CONTINUOUS
10
117.68
20
-83.4798
11
117.679
21
-83.4678
0
LINE
8
BLACK
6
CONTINUOUS
10
117.679
20
-83.4678
11
117.679
21
-48.8294
0
LINE
8
BLACK
6
CONTINUOUS
10
117.679
20
-48.8294
11
117.7
21
-48.7613
0
LINE
8
BLACK
6
CONTINUOUS
10
117.7
20
-48.7613
11
117.716
21
-48.7403
0
LINE
8
BLACK
6
CONTINUOUS
10
117.716
20
-48.7403
11
119.18
21
-47.2764
0
LINE
8
BLACK
6
CONTINUOUS
10
119.18
20
-47.2764
11
119.243
21
-47.2424
0
LINE
8
BLACK
6
CONTINUOUS
10
119.243
20
-47.2424
11
119.269
21
-47.2395
0
LINE
8
BLACK
6
CONTINUOUS
10
119.269
20
-47.2395
11
123.043
21
-47.2395
0
LINE
8
BLACK
6
CONTINUOUS
10
123.043
20
-47.2395
11
123.111
21
-47.2595
0
LINE
8
BLACK
6
CONTINUOUS
10
123.111
20
-47.2595
11
123.158
21
-47.3132
0
LINE
8
BLACK
6
CONTINUOUS
10
123.158
20
-47.3132
11
123.192
21
-47.3888
0
LINE
8
BLACK
6
CONTINUOUS
10
123.192
20
-47.3888
11
123.204
21
-47.4148
0
LINE
8
BLACK
6
CONTINUOUS
10
123.204
20
-47.4148
11
123.326
21
-47.5866
0
LINE
8
BLACK
6
CONTINUOUS
10
123.326
20
-47.5866
11
123.479
21
-47.7321
0
LINE
8
BLACK
6
CONTINUOUS
10
123.479
20
-47.7321
11
123.479
21
-47.7321
0
LINE
8
BLACK
6
CONTINUOUS
10
123.479
20
-47.7321
11
123.479
21
-47.7321
0
LINE
8
BLACK
6
CONTINUOUS
10
123.479
20
-47.7321
11
123.509
21
-47.751
0
LINE
8
BLACK
6
CONTINUOUS
10
123.509
20
-47.751
11
123.657
21
-47.8462
0
LINE
8
BLACK
6
CONTINUOUS
10
123.657
20
-47.8462
11
123.852
21
-47.9246
0
LINE
8
BLACK
6
CONTINUOUS
10
123.852
20
-47.9246
11
124.06
21
-47.9645
0
LINE
8
BLACK
6
CONTINUOUS
10
124.06
20
-47.9645
11
124.06
21
-47.9645
0
LINE
8
BLACK
6
CONTINUOUS
10
124.06
20
-47.9645
11
124.468
21
-47.9645
0
LINE
8
BLACK
6
CONTINUOUS
10
124.468
20
-47.9645
11
124.468
21
-47.9645
0
LINE
8
BLACK
6
CONTINUOUS
10
124.468
20
-47.9645
11
124.625
21
-47.9495
0
LINE
8
BLACK
6
CONTINUOUS
10
124.625
20
-47.9495
11
124.625
21
-47.9495
0
LINE
8
BLACK
6
CONTINUOUS
10
124.625
20
-47.9495
11
124.625
21
-47.9495
0
LINE
8
BLACK
6
CONTINUOUS
10
124.625
20
-47.9495
11
124.827
21
-47.89
0
LINE
8
BLACK
6
CONTINUOUS
10
124.827
20
-47.89
11
125.015
21
-47.7934
0
LINE
8
BLACK
6
CONTINUOUS
10
125.015
20
-47.7934
11
125.181
21
-47.663
0
LINE
8
BLACK
6
CONTINUOUS
10
125.181
20
-47.663
11
125.319
21
-47.5036
0
LINE
8
BLACK
6
CONTINUOUS
10
125.319
20
-47.5036
11
125.424
21
-47.3209
0
LINE
8
BLACK
6
CONTINUOUS
10
125.424
20
-47.3209
11
125.493
21
-47.1216
0
LINE
8
BLACK
6
CONTINUOUS
10
125.493
20
-47.1216
11
125.523
21
-46.9128
0
LINE
8
BLACK
6
CONTINUOUS
10
125.523
20
-46.9128
11
125.513
21
-46.7021
0
LINE
8
BLACK
6
CONTINUOUS
10
125.513
20
-46.7021
11
125.464
21
-46.4971
0
LINE
8
BLACK
6
CONTINUOUS
10
125.464
20
-46.4971
11
125.376
21
-46.3052
0
LINE
8
BLACK
6
CONTINUOUS
10
125.376
20
-46.3052
11
125.254
21
-46.1334
0
LINE
8
BLACK
6
CONTINUOUS
10
125.254
20
-46.1334
11
125.101
21
-45.9879
0
LINE
8
BLACK
6
CONTINUOUS
10
125.101
20
-45.9879
11
125.101
21
-45.9879
0
LINE
8
BLACK
6
CONTINUOUS
10
125.101
20
-45.9879
11
125.101
21
-45.9879
0
LINE
8
BLACK
6
CONTINUOUS
10
125.101
20
-45.9879
11
124.923
21
-45.8738
0
LINE
8
BLACK
6
CONTINUOUS
10
124.923
20
-45.8738
11
124.814
21
-45.83
0
LINE
8
BLACK
6
CONTINUOUS
10
124.814
20
-45.83
11
124.728
21
-45.7954
0
LINE
8
BLACK
6
CONTINUOUS
10
124.728
20
-45.7954
11
124.728
21
-45.7954
0
LINE
8
BLACK
6
CONTINUOUS
10
124.728
20
-45.7954
11
124.728
21
-45.7954
0
LINE
8
BLACK
6
CONTINUOUS
10
124.728
20
-45.7954
11
124.52
21
-45.7555
0
LINE
8
BLACK
6
CONTINUOUS
10
124.52
20
-45.7555
11
124.52
21
-45.7555
0
LINE
8
BLACK
6
CONTINUOUS
10
124.52
20
-45.7555
11
124.112
21
-45.7555
0
LINE
8
BLACK
6
CONTINUOUS
10
124.112
20
-45.7555
11
124.112
21
-45.7555
0
LINE
8
BLACK
6
CONTINUOUS
10
124.112
20
-45.7555
11
123.955
21
-45.7705
0
LINE
8
BLACK
6
CONTINUOUS
10
123.955
20
-45.7705
11
123.955
21
-45.7705
0
LINE
8
BLACK
6
CONTINUOUS
10
123.955
20
-45.7705
11
123.753
21
-45.83
0
LINE
8
BLACK
6
CONTINUOUS
10
123.753
20
-45.83
11
123.565
21
-45.9266
0
LINE
8
BLACK
6
CONTINUOUS
10
123.565
20
-45.9266
11
123.565
21
-45.9266
0
LINE
8
BLACK
6
CONTINUOUS
10
123.565
20
-45.9266
11
123.399
21
-46.057
0
LINE
8
BLACK
6
CONTINUOUS
10
123.399
20
-46.057
11
123.399
21
-46.057
0
LINE
8
BLACK
6
CONTINUOUS
10
123.399
20
-46.057
11
123.261
21
-46.2164
0
LINE
8
BLACK
6
CONTINUOUS
10
123.261
20
-46.2164
11
123.261
21
-46.2164
0
LINE
8
BLACK
6
CONTINUOUS
10
123.261
20
-46.2164
11
123.156
21
-46.3991
0
LINE
8
BLACK
6
CONTINUOUS
10
123.156
20
-46.3991
11
123.153
21
-46.4045
0
LINE
8
BLACK
6
CONTINUOUS
10
123.153
20
-46.4045
11
123.151
21
-46.4036
0
LINE
8
BLACK
6
CONTINUOUS
10
123.151
20
-46.4036
11
123.116
21
-46.4535
0
LINE
8
BLACK
6
CONTINUOUS
10
123.116
20
-46.4535
11
123.05
21
-46.4799
0
LINE
8
BLACK
6
CONTINUOUS
10
123.05
20
-46.4799
11
123.038
21
-46.4805
0
LINE
8
BLACK
6
CONTINUOUS
10
123.038
20
-46.4805
11
119.112
21
-46.4805
0
LINE
8
BLACK
6
CONTINUOUS
10
119.112
20
-46.4805
11
119.087
21
-46.4778
0
LINE
8
BLACK
6
CONTINUOUS
10
119.087
20
-46.4778
11
119.076
21
-46.4756
0
LINE
8
BLACK
6
CONTINUOUS
10
119.076
20
-46.4756
11
119.053
21
-46.4785
0
LINE
8
BLACK
6
CONTINUOUS
10
119.053
20
-46.4785
11
119.04
21
-46.48
0
LINE
8
BLACK
6
CONTINUOUS
10
119.04
20
-46.48
11
119.033
21
-46.4805
0
LINE
8
BLACK
6
CONTINUOUS
10
119.033
20
-46.4805
11
119.029
21
-46.4805
0
LINE
8
BLACK
6
CONTINUOUS
10
119.029
20
-46.4805
11
119.017
21
-46.4824
0
LINE
8
BLACK
6
CONTINUOUS
10
119.017
20
-46.4824
11
119.005
21
-46.4844
0
LINE
8
BLACK
6
CONTINUOUS
10
119.005
20
-46.4844
11
119.001
21
-46.485
0
LINE
8
BLACK
6
CONTINUOUS
10
119.001
20
-46.485
11
118.95
21
-46.4912
0
LINE
8
BLACK
6
CONTINUOUS
10
118.95
20
-46.4912
11
118.943
21
-46.4935
0
LINE
8
BLACK
6
CONTINUOUS
10
118.943
20
-46.4935
11
118.935
21
-46.4961
0
LINE
8
BLACK
6
CONTINUOUS
10
118.935
20
-46.4961
11
118.901
21
-46.5146
0
LINE
8
BLACK
6
CONTINUOUS
10
118.901
20
-46.5146
11
118.886
21
-46.5225
0
LINE
8
BLACK
6
CONTINUOUS
10
118.886
20
-46.5225
11
118.874
21
-46.5285
0
LINE
8
BLACK
6
CONTINUOUS
10
118.874
20
-46.5285
11
118.836
21
-46.5469
0
LINE
8
BLACK
6
CONTINUOUS
10
118.836
20
-46.5469
11
118.83
21
-46.5515
0
LINE
8
BLACK
6
CONTINUOUS
10
118.83
20
-46.5515
11
118.824
21
-46.5564
0
LINE
8
BLACK
6
CONTINUOUS
10
118.824
20
-46.5564
11
118.786
21
-46.5972
0
LINE
8
BLACK
6
CONTINUOUS
10
118.786
20
-46.5972
11
117.069
21
-48.3146
0
LINE
8
BLACK
6
CONTINUOUS
10
117.069
20
-48.3146
11
117.049
21
-48.331
0
LINE
8
BLACK
6
CONTINUOUS
10
117.049
20
-48.331
11
117.039
21
-48.3369
0
LINE
8
BLACK
6
CONTINUOUS
10
117.039
20
-48.3369
11
117.039
21
-48.3369
0
LINE
8
BLACK
6
CONTINUOUS
10
117.039
20
-48.3369
11
117.017
21
-48.3652
0
LINE
8
BLACK
6
CONTINUOUS
10
117.017
20
-48.3652
11
117.012
21
-48.3711
0
LINE
8
BLACK
6
CONTINUOUS
10
117.012
20
-48.3711
11
117.011
21
-48.372
0
LINE
8
BLACK
6
CONTINUOUS
10
117.011
20
-48.372
11
117.009
21
-48.3739
0
LINE
8
BLACK
6
CONTINUOUS
10
117.009
20
-48.3739
11
116.996
21
-48.3931
0
LINE
8
BLACK
6
CONTINUOUS
10
116.996
20
-48.3931
11
116.962
21
-48.4369
0
LINE
8
BLACK
6
CONTINUOUS
10
116.962
20
-48.4369
11
116.958
21
-48.4439
0
LINE
8
BLACK
6
CONTINUOUS
10
116.958
20
-48.4439
11
116.954
21
-48.451
0
LINE
8
BLACK
6
CONTINUOUS
10
116.954
20
-48.451
11
116.939
21
-48.5042
0
LINE
8
BLACK
6
CONTINUOUS
10
116.939
20
-48.5042
11
116.92
21
-48.5567
0
LINE
8
BLACK
6
CONTINUOUS
10
116.92
20
-48.5567
11
116.919
21
-48.5645
0
LINE
8
BLACK
6
CONTINUOUS
10
116.919
20
-48.5645
11
116.918
21
-48.5724
0
LINE
8
BLACK
6
CONTINUOUS
10
116.918
20
-48.5724
11
116.92
21
-48.6278
0
LINE
8
BLACK
6
CONTINUOUS
10
116.92
20
-48.6278
11
116.92
21
-83.4731
0
LINE
8
BLACK
6
CONTINUOUS
10
116.92
20
-83.4731
11
116.9
21
-83.5412
0
LINE
8
BLACK
6
CONTINUOUS
10
116.9
20
-83.5412
11
116.847
21
-83.5877
0
LINE
8
BLACK
6
CONTINUOUS
10
116.847
20
-83.5877
11
116.745
21
-83.6341
0
LINE
8
BLACK
6
CONTINUOUS
10
116.745
20
-83.6341
11
116.573
21
-83.7565
0
LINE
8
BLACK
6
CONTINUOUS
10
116.573
20
-83.7565
11
116.573
21
-83.7565
0
LINE
8
BLACK
6
CONTINUOUS
10
116.573
20
-83.7565
11
116.428
21
-83.9091
0
LINE
8
BLACK
6
CONTINUOUS
10
116.428
20
-83.9091
11
116.314
21
-84.0866
0
LINE
8
BLACK
6
CONTINUOUS
10
116.314
20
-84.0866
11
116.235
21
-84.2824
0
LINE
8
BLACK
6
CONTINUOUS
10
116.235
20
-84.2824
11
116.195
21
-84.4895
0
LINE
8
BLACK
6
CONTINUOUS
10
116.195
20
-84.4895
11
116.195
21
-84.8976
0
LINE
8
BLACK
6
CONTINUOUS
10
116.195
20
-84.8976
11
116.211
21
-85.055
0
LINE
8
BLACK
6
CONTINUOUS
10
118.711
20
-85.055
11
118.711
21
-85.055
0
LINE
8
BLACK
6
CONTINUOUS
10
118.711
20
-85.055
11
118.77
21
-85.2574
0
LINE
8
BLACK
6
CONTINUOUS
10
118.77
20
-85.2574
11
118.867
21
-85.4449
0
LINE
8
BLACK
6
CONTINUOUS
10
118.867
20
-85.4449
11
118.867
21
-85.4449
0
LINE
8
BLACK
6
CONTINUOUS
10
118.867
20
-85.4449
11
118.997
21
-85.6107
0
LINE
8
BLACK
6
CONTINUOUS
10
118.997
20
-85.6107
11
118.997
21
-85.6107
0
LINE
8
BLACK
6
CONTINUOUS
10
118.997
20
-85.6107
11
119.156
21
-85.7488
0
LINE
8
BLACK
6
CONTINUOUS
10
119.156
20
-85.7488
11
119.156
21
-85.7488
0
LINE
8
BLACK
6
CONTINUOUS
10
119.156
20
-85.7488
11
119.339
21
-85.8543
0
LINE
8
BLACK
6
CONTINUOUS
10
119.339
20
-85.8543
11
119.538
21
-85.9232
0
LINE
8
BLACK
6
CONTINUOUS
10
119.538
20
-85.9232
11
119.538
21
-85.9232
0
LINE
8
BLACK
6
CONTINUOUS
10
119.538
20
-85.9232
11
119.538
21
-85.9232
0
LINE
8
BLACK
6
CONTINUOUS
10
119.538
20
-85.9232
11
119.747
21
-85.9533
0
LINE
8
BLACK
6
CONTINUOUS
10
119.747
20
-85.9533
11
119.747
21
-85.9533
0
LINE
8
BLACK
6
CONTINUOUS
10
119.747
20
-85.9533
11
119.747
21
-85.9533
0
LINE
8
BLACK
6
CONTINUOUS
10
119.747
20
-85.9533
11
119.958
21
-85.9432
0
LINE
8
BLACK
6
CONTINUOUS
10
119.958
20
-85.9432
11
120.163
21
-85.8935
0
LINE
8
BLACK
6
CONTINUOUS
10
120.163
20
-85.8935
11
120.355
21
-85.8059
0
LINE
8
BLACK
6
CONTINUOUS
10
120.355
20
-85.8059
11
120.527
21
-85.6835
0
LINE
8
BLACK
6
CONTINUOUS
10
120.527
20
-85.6835
11
120.672
21
-85.5309
0
LINE
8
BLACK
6
CONTINUOUS
10
120.672
20
-85.5309
11
120.786
21
-85.3534
0
LINE
8
BLACK
6
CONTINUOUS
10
120.786
20
-85.3534
11
120.865
21
-85.1576
0
LINE
8
BLACK
6
CONTINUOUS
10
120.865
20
-85.1576
11
120.904
21
-84.9505
0
LINE
8
BLACK
6
CONTINUOUS
10
120.904
20
-84.9505
11
120.904
21
-84.5424
0
LINE
8
BLACK
6
CONTINUOUS
10
120.904
20
-84.5424
11
120.904
21
-84.5424
0
LINE
8
BLACK
6
CONTINUOUS
10
120.904
20
-84.5424
11
120.889
21
-84.385
0
LINE
8
BLACK
6
CONTINUOUS
10
120.889
20
-84.385
11
120.889
21
-84.385
0
LINE
8
BLACK
6
CONTINUOUS
10
120.889
20
-84.385
11
120.889
21
-84.385
0
LINE
8
BLACK
6
CONTINUOUS
10
120.889
20
-84.385
11
120.83
21
-84.1826
0
LINE
8
BLACK
6
CONTINUOUS
10
120.83
20
-84.1826
11
120.83
21
-84.1826
0
LINE
8
BLACK
6
CONTINUOUS
10
120.83
20
-84.1826
11
120.83
21
-84.1826
0
LINE
8
BLACK
6
CONTINUOUS
10
120.83
20
-84.1826
11
120.733
21
-83.9951
0
LINE
8
BLACK
6
CONTINUOUS
10
120.733
20
-83.9951
11
120.733
21
-83.9951
0
LINE
8
BLACK
6
CONTINUOUS
10
120.733
20
-83.9951
11
120.603
21
-83.8293
0
LINE
8
BLACK
6
CONTINUOUS
10
120.603
20
-83.8293
11
120.603
21
-83.8293
0
LINE
8
BLACK
6
CONTINUOUS
10
120.603
20
-83.8293
11
120.603
21
-83.8293
0
LINE
8
BLACK
6
CONTINUOUS
10
120.603
20
-83.8293
11
120.603
21
-83.8293
0
LINE
8
BLACK
6
CONTINUOUS
10
120.603
20
-83.8293
11
120.603
21
-83.8293
0
LINE
8
BLACK
6
CONTINUOUS
10
120.603
20
-83.8293
11
120.444
21
-83.6912
0
LINE
8
BLACK
6
CONTINUOUS
10
120.444
20
-83.6912
11
120.444
21
-83.6912
0
LINE
8
BLACK
6
CONTINUOUS
10
120.444
20
-83.6912
11
120.261
21
-83.5857
0
LINE
8
BLACK
6
CONTINUOUS
10
120.261
20
-83.5857
11
120.261
21
-83.5857
0
LINE
8
BLACK
6
CONTINUOUS
10
120.261
20
-83.5857
11
120.261
21
-83.5857
0
LINE
8
BLACK
6
CONTINUOUS
10
120.261
20
-83.5857
11
120.255
21
-83.5832
0
LINE
8
BLACK
6
CONTINUOUS
10
120.255
20
-83.5832
11
120.256
21
-83.5813
0
LINE
8
BLACK
6
CONTINUOUS
10
120.256
20
-83.5813
11
120.206
21
-83.5457
0
LINE
8
BLACK
6
CONTINUOUS
10
120.206
20
-83.5457
11
120.18
21
-83.4798
0
LINE
8
BLACK
6
CONTINUOUS
10
120.18
20
-83.4798
11
120.179
21
-83.4678
0
LINE
8
BLACK
6
CONTINUOUS
10
120.179
20
-83.4678
11
120.179
21
-50.3294
0
LINE
8
BLACK
6
CONTINUOUS
10
120.179
20
-50.3294
11
120.2
21
-50.2613
0
LINE
8
BLACK
6
CONTINUOUS
10
120.2
20
-50.2613
11
120.216
21
-50.2403
0
LINE
8
BLACK
6
CONTINUOUS
10
120.216
20
-50.2403
11
120.68
21
-49.7764
0
LINE
8
BLACK
6
CONTINUOUS
10
120.68
20
-49.7764
11
120.743
21
-49.7424
0
LINE
8
BLACK
6
CONTINUOUS
10
120.743
20
-49.7424
11
120.769
21
-49.7395
0
LINE
8
BLACK
6
CONTINUOUS
10
120.769
20
-49.7395
11
123.043
21
-49.7395
0
LINE
8
BLACK
6
CONTINUOUS
10
123.043
20
-49.7395
11
123.111
21
-49.7595
0
LINE
8
BLACK
6
CONTINUOUS
10
123.111
20
-49.7595
11
123.158
21
-49.8132
0
LINE
8
BLACK
6
CONTINUOUS
10
123.158
20
-49.8132
11
123.184
21
-49.8711
0
LINE
8
BLACK
6
CONTINUOUS
10
123.184
20
-49.8711
11
123.204
21
-49.9148
0
LINE
8
BLACK
6
CONTINUOUS
10
123.204
20
-49.9148
11
123.326
21
-50.0866
0
LINE
8
BLACK
6
CONTINUOUS
10
123.326
20
-50.0866
11
123.479
21
-50.2321
0
LINE
8
BLACK
6
CONTINUOUS
10
123.479
20
-50.2321
11
123.479
21
-50.2321
0
LINE
8
BLACK
6
CONTINUOUS
10
123.479
20
-50.2321
11
123.479
21
-50.2321
0
LINE
8
BLACK
6
CONTINUOUS
10
123.479
20
-50.2321
11
123.549
21
-50.2772
0
LINE
8
BLACK
6
CONTINUOUS
10
123.549
20
-50.2772
11
123.657
21
-50.3462
0
LINE
8
BLACK
6
CONTINUOUS
10
123.657
20
-50.3462
11
123.852
21
-50.4246
0
LINE
8
BLACK
6
CONTINUOUS
10
123.852
20
-50.4246
11
124.06
21
-50.4645
0
LINE
8
BLACK
6
CONTINUOUS
10
124.06
20
-50.4645
11
124.06
21
-50.4645
0
LINE
8
BLACK
6
CONTINUOUS
10
124.06
20
-50.4645
11
124.468
21
-50.4645
0
LINE
8
BLACK
6
CONTINUOUS
10
124.468
20
-50.4645
11
124.468
21
-50.4645
0
LINE
8
BLACK
6
CONTINUOUS
10
124.468
20
-50.4645
11
124.625
21
-50.4495
0
LINE
8
BLACK
6
CONTINUOUS
10
124.625
20
-50.4495
11
124.625
21
-50.4495
0
LINE
8
BLACK
6
CONTINUOUS
10
124.625
20
-50.4495
11
124.625
21
-50.4495
0
LINE
8
BLACK
6
CONTINUOUS
10
124.625
20
-50.4495
11
124.827
21
-50.39
0
LINE
8
BLACK
6
CONTINUOUS
10
124.827
20
-50.39
11
125.015
21
-50.2934
0
LINE
8
BLACK
6
CONTINUOUS
10
125.015
20
-50.2934
11
125.181
21
-50.163
0
LINE
8
BLACK
6
CONTINUOUS
10
125.181
20
-50.163
11
125.319
21
-50.0036
0
LINE
8
BLACK
6
CONTINUOUS
10
125.319
20
-50.0036
11
125.424
21
-49.8209
0
LINE
8
BLACK
6
CONTINUOUS
10
125.424
20
-49.8209
11
125.493
21
-49.6216
0
LINE
8
BLACK
6
CONTINUOUS
10
125.493
20
-49.6216
11
125.523
21
-49.4128
0
LINE
8
BLACK
6
CONTINUOUS
10
125.523
20
-49.4128
11
125.513
21
-49.2021
0
LINE
8
BLACK
6
CONTINUOUS
10
125.513
20
-49.2021
11
125.464
21
-48.9971
0
LINE
8
BLACK
6
CONTINUOUS
10
125.464
20
-48.9971
11
125.376
21
-48.8052
0
LINE
8
BLACK
6
CONTINUOUS
10
125.376
20
-48.8052
11
125.254
21
-48.6334
0
LINE
8
BLACK
6
CONTINUOUS
10
125.254
20
-48.6334
11
125.101
21
-48.4879
0
LINE
8
BLACK
6
CONTINUOUS
10
125.101
20
-48.4879
11
125.101
21
-48.4879
0
LINE
8
BLACK
6
CONTINUOUS
10
125.101
20
-48.4879
11
125.101
21
-48.4879
0
LINE
8
BLACK
6
CONTINUOUS
10
125.101
20
-48.4879
11
124.923
21
-48.3738
0
LINE
8
BLACK
6
CONTINUOUS
10
124.923
20
-48.3738
11
124.902
21
-48.3652
0
LINE
8
BLACK
6
CONTINUOUS
10
124.902
20
-48.3652
11
124.728
21
-48.2954
0
LINE
8
BLACK
6
CONTINUOUS
10
124.728
20
-48.2954
11
124.728
21
-48.2954
0
LINE
8
BLACK
6
CONTINUOUS
10
124.728
20
-48.2954
11
124.728
21
-48.2954
0
LINE
8
BLACK
6
CONTINUOUS
10
124.728
20
-48.2954
11
124.52
21
-48.2555
0
LINE
8
BLACK
6
CONTINUOUS
10
124.52
20
-48.2555
11
124.52
21
-48.2555
0
LINE
8
BLACK
6
CONTINUOUS
10
124.52
20
-48.2555
11
124.112
21
-48.2555
0
LINE
8
BLACK
6
CONTINUOUS
10
124.112
20
-48.2555
11
124.112
21
-48.2555
0
LINE
8
BLACK
6
CONTINUOUS
10
124.112
20
-48.2555
11
123.955
21
-48.2705
0
LINE
8
BLACK
6
CONTINUOUS
10
123.955
20
-48.2705
11
123.955
21
-48.2705
0
LINE
8
BLACK
6
CONTINUOUS
10
123.955
20
-48.2705
11
123.753
21
-48.33
0
LINE
8
BLACK
6
CONTINUOUS
10
123.753
20
-48.33
11
123.565
21
-48.4266
0
LINE
8
BLACK
6
CONTINUOUS
10
123.565
20
-48.4266
11
123.565
21
-48.4266
0
LINE
8
BLACK
6
CONTINUOUS
10
123.565
20
-48.4266
11
123.399
21
-48.557
0
LINE
8
BLACK
6
CONTINUOUS
10
123.399
20
-48.557
11
123.399
21
-48.557
0
LINE
8
BLACK
6
CONTINUOUS
10
123.399
20
-48.557
11
123.261
21
-48.7164
0
LINE
8
BLACK
6
CONTINUOUS
10
123.261
20
-48.7164
11
123.261
21
-48.7164
0
LINE
8
BLACK
6
CONTINUOUS
10
123.261
20
-48.7164
11
123.156
21
-48.8991
0
LINE
8
BLACK
6
CONTINUOUS
10
123.156
20
-48.8991
11
123.153
21
-48.9045
0
LINE
8
BLACK
6
CONTINUOUS
10
123.153
20
-48.9045
11
123.151
21
-48.9036
0
LINE
8
BLACK
6
CONTINUOUS
10
123.151
20
-48.9036
11
123.116
21
-48.9535
0
LINE
8
BLACK
6
CONTINUOUS
10
123.116
20
-48.9535
11
123.05
21
-48.9799
0
LINE
8
BLACK
6
CONTINUOUS
10
123.05
20
-48.9799
11
123.038
21
-48.9805
0
LINE
8
BLACK
6
CONTINUOUS
10
123.038
20
-48.9805
11
120.612
21
-48.9805
0
LINE
8
BLACK
6
CONTINUOUS
10
120.612
20
-48.9805
11
120.587
21
-48.9778
0
LINE
8
BLACK
6
CONTINUOUS
10
120.587
20
-48.9778
11
120.584
21
-48.9772
0
LINE
8
BLACK
6
CONTINUOUS
10
120.584
20
-48.9772
11
120.576
21
-48.9756
0
LINE
8
BLACK
6
CONTINUOUS
10
120.576
20
-48.9756
11
120.554
21
-48.9783
0
LINE
8
BLACK
6
CONTINUOUS
10
120.554
20
-48.9783
11
120.54
21
-48.98
0
LINE
8
BLACK
6
CONTINUOUS
10
120.54
20
-48.98
11
120.533
21
-48.9805
0
LINE
8
BLACK
6
CONTINUOUS
10
120.533
20
-48.9805
11
120.529
21
-48.9805
0
LINE
8
BLACK
6
CONTINUOUS
10
120.529
20
-48.9805
11
120.505
21
-48.9844
0
LINE
8
BLACK
6
CONTINUOUS
10
120.505
20
-48.9844
11
120.45
21
-48.9912
0
LINE
8
BLACK
6
CONTINUOUS
10
120.45
20
-48.9912
11
120.443
21
-48.9935
0
LINE
8
BLACK
6
CONTINUOUS
10
120.443
20
-48.9935
11
120.435
21
-48.9961
0
LINE
8
BLACK
6
CONTINUOUS
10
120.435
20
-48.9961
11
120.386
21
-49.0225
0
LINE
8
BLACK
6
CONTINUOUS
10
120.386
20
-49.0225
11
120.336
21
-49.0469
0
LINE
8
BLACK
6
CONTINUOUS
10
120.336
20
-49.0469
11
120.33
21
-49.0515
0
LINE
8
BLACK
6
CONTINUOUS
10
120.33
20
-49.0515
11
120.324
21
-49.0564
0
LINE
8
BLACK
6
CONTINUOUS
10
120.324
20
-49.0564
11
120.286
21
-49.0972
0
LINE
8
BLACK
6
CONTINUOUS
10
120.286
20
-49.0972
11
119.569
21
-49.8146
0
LINE
8
BLACK
6
CONTINUOUS
10
119.569
20
-49.8146
11
119.549
21
-49.831
0
LINE
8
BLACK
6
CONTINUOUS
10
119.549
20
-49.831
11
119.539
21
-49.8369
0
LINE
8
BLACK
6
CONTINUOUS
10
119.539
20
-49.8369
11
119.539
21
-49.8369
0
LINE
8
BLACK
6
CONTINUOUS
10
119.539
20
-49.8369
11
119.517
21
-49.8652
0
LINE
8
BLACK
6
CONTINUOUS
10
119.517
20
-49.8652
11
119.512
21
-49.8711
0
LINE
8
BLACK
6
CONTINUOUS
10
119.512
20
-49.8711
11
119.511
21
-49.872
0
LINE
8
BLACK
6
CONTINUOUS
10
119.511
20
-49.872
11
119.509
21
-49.8739
0
LINE
8
BLACK
6
CONTINUOUS
10
119.509
20
-49.8739
11
119.496
21
-49.8931
0
LINE
8
BLACK
6
CONTINUOUS
10
119.496
20
-49.8931
11
119.462
21
-49.9369
0
LINE
8
BLACK
6
CONTINUOUS
10
119.462
20
-49.9369
11
119.458
21
-49.9439
0
LINE
8
BLACK
6
CONTINUOUS
10
119.458
20
-49.9439
11
119.454
21
-49.951
0
LINE
8
BLACK
6
CONTINUOUS
10
119.454
20
-49.951
11
119.439
21
-50.0042
0
LINE
8
BLACK
6
CONTINUOUS
10
119.439
20
-50.0042
11
119.42
21
-50.0567
0
LINE
8
BLACK
6
CONTINUOUS
10
119.42
20
-50.0567
11
119.419
21
-50.0645
0
LINE
8
BLACK
6
CONTINUOUS
10
119.419
20
-50.0645
11
119.418
21
-50.0724
0
LINE
8
BLACK
6
CONTINUOUS
10
119.418
20
-50.0724
11
119.42
21
-50.1278
0
LINE
8
BLACK
6
CONTINUOUS
10
119.42
20
-50.1278
11
119.42
21
-83.4731
0
LINE
8
BLACK
6
CONTINUOUS
10
119.42
20
-83.4731
11
119.4
21
-83.5412
0
LINE
8
BLACK
6
CONTINUOUS
10
119.4
20
-83.5412
11
119.347
21
-83.5877
0
LINE
8
BLACK
6
CONTINUOUS
10
119.347
20
-83.5877
11
119.245
21
-83.6341
0
LINE
8
BLACK
6
CONTINUOUS
10
119.245
20
-83.6341
11
119.073
21
-83.7565
0
LINE
8
BLACK
6
CONTINUOUS
10
119.073
20
-83.7565
11
119.073
21
-83.7565
0
LINE
8
BLACK
6
CONTINUOUS
10
119.073
20
-83.7565
11
118.928
21
-83.9091
0
LINE
8
BLACK
6
CONTINUOUS
10
118.928
20
-83.9091
11
118.814
21
-84.0866
0
LINE
8
BLACK
6
CONTINUOUS
10
118.814
20
-84.0866
11
118.735
21
-84.2824
0
LINE
8
BLACK
6
CONTINUOUS
10
118.735
20
-84.2824
11
118.695
21
-84.4895
0
LINE
8
BLACK
6
CONTINUOUS
10
118.695
20
-84.4895
11
118.695
21
-84.8976
0
LINE
8
BLACK
6
CONTINUOUS
10
118.695
20
-84.8976
11
118.711
21
-85.055
0
LINE
8
BLACK
6
CONTINUOUS
10
71.0097
20
-74.6838
11
71.0292
21
-74.7524
0
LINE
8
BLACK
6
CONTINUOUS
10
71.0292
20
-74.7524
11
71.0657
21
-74.8807
0
LINE
8
BLACK
6
CONTINUOUS
10
71.0657
20
-74.8807
11
71.1569
21
-75.0639
0
LINE
8
BLACK
6
CONTINUOUS
10
71.1569
20
-75.0639
11
71.1569
21
-75.0639
0
LINE
8
BLACK
6
CONTINUOUS
10
71.1569
20
-75.0639
11
71.2803
21
-75.2273
0
LINE
8
BLACK
6
CONTINUOUS
10
71.2803
20
-75.2273
11
71.4315
21
-75.3652
0
LINE
8
BLACK
6
CONTINUOUS
10
71.4315
20
-75.3652
11
71.6056
21
-75.4729
0
LINE
8
BLACK
6
CONTINUOUS
10
71.6056
20
-75.4729
11
71.6056
21
-75.4729
0
LINE
8
BLACK
6
CONTINUOUS
10
71.6056
20
-75.4729
11
71.6056
21
-75.4729
0
LINE
8
BLACK
6
CONTINUOUS
10
71.6056
20
-75.4729
11
71.7964
21
-75.5469
0
LINE
8
BLACK
6
CONTINUOUS
10
71.7964
20
-75.5469
11
71.9977
21
-75.5845
0
LINE
8
BLACK
6
CONTINUOUS
10
71.9977
20
-75.5845
11
71.9977
21
-75.5845
0
LINE
8
BLACK
6
CONTINUOUS
10
71.9977
20
-75.5845
11
72.2023
21
-75.5845
0
LINE
8
BLACK
6
CONTINUOUS
10
72.2023
20
-75.5845
11
72.2023
21
-75.5845
0
LINE
8
BLACK
6
CONTINUOUS
10
72.2023
20
-75.5845
11
72.4036
21
-75.5469
0
LINE
8
BLACK
6
CONTINUOUS
10
72.4036
20
-75.5469
11
72.5944
21
-75.4729
0
LINE
8
BLACK
6
CONTINUOUS
10
72.5944
20
-75.4729
11
72.7685
21
-75.3652
0
LINE
8
BLACK
6
CONTINUOUS
10
72.7685
20
-75.3652
11
72.9197
21
-75.2273
0
LINE
8
BLACK
6
CONTINUOUS
10
72.9197
20
-75.2273
11
73.0431
21
-75.0639
0
LINE
8
BLACK
6
CONTINUOUS
10
73.0431
20
-75.0639
11
73.1101
21
-74.9293
0
LINE
8
BLACK
6
CONTINUOUS
10
73.1101
20
-74.9293
11
73.1584
21
-74.8773
0
LINE
8
BLACK
6
CONTINUOUS
10
73.1584
20
-74.8773
11
73.2229
21
-74.8595
0
LINE
8
BLACK
6
CONTINUOUS
10
73.2229
20
-74.8595
11
99.1506
21
-74.8595
0
LINE
8
BLACK
6
CONTINUOUS
10
99.1506
20
-74.8595
11
99.2187
21
-74.8795
0
LINE
8
BLACK
6
CONTINUOUS
10
99.2187
20
-74.8795
11
99.2397
21
-74.8964
0
LINE
8
BLACK
6
CONTINUOUS
10
99.2397
20
-74.8964
11
104.324
21
-79.9803
0
LINE
8
BLACK
6
CONTINUOUS
10
104.324
20
-79.9803
11
104.358
21
-80.0426
0
LINE
8
BLACK
6
CONTINUOUS
10
104.358
20
-80.0426
11
104.361
21
-80.0694
0
LINE
8
BLACK
6
CONTINUOUS
10
104.361
20
-80.0694
11
104.361
21
-82.3495
0
LINE
8
BLACK
6
CONTINUOUS
10
104.361
20
-82.3495
11
104.34
21
-82.4176
0
LINE
8
BLACK
6
CONTINUOUS
10
104.34
20
-82.4176
11
104.287
21
-82.4641
0
LINE
8
BLACK
6
CONTINUOUS
10
104.287
20
-82.4641
11
104.234
21
-82.4755
0
LINE
8
BLACK
6
CONTINUOUS
10
104.234
20
-82.4755
11
103.865
21
-82.4755
0
LINE
8
BLACK
6
CONTINUOUS
10
103.865
20
-82.4755
11
103.865
21
-82.4755
0
LINE
8
BLACK
6
CONTINUOUS
10
103.865
20
-82.4755
11
103.791
21
-82.4903
0
LINE
8
BLACK
6
CONTINUOUS
10
103.791
20
-82.4903
11
103.707
21
-82.5465
0
LINE
8
BLACK
6
CONTINUOUS
10
103.707
20
-82.5465
11
103.65
21
-82.6307
0
LINE
8
BLACK
6
CONTINUOUS
10
103.65
20
-82.6307
11
103.635
21
-82.7049
0
LINE
8
BLACK
6
CONTINUOUS
10
103.635
20
-82.7049
11
103.635
21
-84.4551
0
LINE
8
BLACK
6
CONTINUOUS
10
103.635
20
-84.4551
11
103.636
21
-84.4551
0
LINE
8
BLACK
6
CONTINUOUS
10
103.636
20
-84.4551
11
103.65
21
-84.5293
0
LINE
8
BLACK
6
CONTINUOUS
10
103.65
20
-84.5293
11
103.707
21
-84.6135
0
LINE
8
BLACK
6
CONTINUOUS
10
103.707
20
-84.6135
11
103.791
21
-84.6697
0
LINE
8
BLACK
6
CONTINUOUS
10
103.791
20
-84.6697
11
103.791
21
-84.6697
0
LINE
8
BLACK
6
CONTINUOUS
10
103.791
20
-84.6697
11
103.865
21
-84.6845
0
LINE
8
BLACK
6
CONTINUOUS
10
103.865
20
-84.6845
11
105.615
21
-84.6845
0
LINE
8
BLACK
6
CONTINUOUS
10
105.615
20
-84.6845
11
105.615
21
-84.6845
0
LINE
8
BLACK
6
CONTINUOUS
10
105.615
20
-84.6845
11
105.615
21
-84.6845
0
LINE
8
BLACK
6
CONTINUOUS
10
105.615
20
-84.6845
11
105.664
21
-84.6747
0
LINE
8
BLACK
6
CONTINUOUS
10
105.664
20
-84.6747
11
105.689
21
-84.6697
0
LINE
8
BLACK
6
CONTINUOUS
10
105.689
20
-84.6697
11
105.773
21
-84.6135
0
LINE
8
BLACK
6
CONTINUOUS
10
105.773
20
-84.6135
11
105.83
21
-84.5293
0
LINE
8
BLACK
6
CONTINUOUS
10
105.83
20
-84.5293
11
105.844
21
-84.4551
0
LINE
8
BLACK
6
CONTINUOUS
10
105.844
20
-84.4551
11
105.844
21
-82.7049
0
LINE
8
BLACK
6
CONTINUOUS
10
105.844
20
-82.7049
11
105.844
21
-82.7049
0
LINE
8
BLACK
6
CONTINUOUS
10
105.844
20
-82.7049
11
105.844
21
-82.7049
0
LINE
8
BLACK
6
CONTINUOUS
10
105.844
20
-82.7049
11
105.83
21
-82.6307
0
LINE
8
BLACK
6
CONTINUOUS
10
105.83
20
-82.6307
11
105.773
21
-82.5465
0
LINE
8
BLACK
6
CONTINUOUS
10
105.773
20
-82.5465
11
105.689
21
-82.4903
0
LINE
8
BLACK
6
CONTINUOUS
10
105.689
20
-82.4903
11
105.615
21
-82.4755
0
LINE
8
BLACK
6
CONTINUOUS
10
105.615
20
-82.4755
11
105.615
21
-82.4755
0
LINE
8
BLACK
6
CONTINUOUS
10
105.615
20
-82.4755
11
105.245
21
-82.4755
0
LINE
8
BLACK
6
CONTINUOUS
10
105.245
20
-82.4755
11
105.177
21
-82.4555
0
LINE
8
BLACK
6
CONTINUOUS
10
105.177
20
-82.4555
11
105.131
21
-82.4018
0
LINE
8
BLACK
6
CONTINUOUS
10
105.131
20
-82.4018
11
105.12
21
-82.3495
0
LINE
8
BLACK
6
CONTINUOUS
10
105.12
20
-82.3495
11
105.12
21
-79.9124
0
LINE
8
BLACK
6
CONTINUOUS
10
105.12
20
-79.9124
11
105.122
21
-79.8866
0
LINE
8
BLACK
6
CONTINUOUS
10
105.122
20
-79.8866
11
105.124
21
-79.8759
0
LINE
8
BLACK
6
CONTINUOUS
10
105.124
20
-79.8759
11
105.12
21
-79.8403
0
LINE
8
BLACK
6
CONTINUOUS
10
105.12
20
-79.8403
11
105.12
21
-79.8325
0
LINE
8
BLACK
6
CONTINUOUS
10
105.12
20
-79.8325
11
105.12
21
-79.8286
0
LINE
8
BLACK
6
CONTINUOUS
10
105.12
20
-79.8286
11
105.116
21
-79.8053
0
LINE
8
BLACK
6
CONTINUOUS
10
105.116
20
-79.8053
11
105.109
21
-79.7502
0
LINE
8
BLACK
6
CONTINUOUS
10
105.109
20
-79.7502
11
105.109
21
-79.7502
0
LINE
8
BLACK
6
CONTINUOUS
10
105.109
20
-79.7502
11
105.109
21
-79.7502
0
LINE
8
BLACK
6
CONTINUOUS
10
105.109
20
-79.7502
11
105.106
21
-79.7426
0
LINE
8
BLACK
6
CONTINUOUS
10
105.106
20
-79.7426
11
105.104
21
-79.7351
0
LINE
8
BLACK
6
CONTINUOUS
10
105.104
20
-79.7351
11
105.104
21
-79.7351
0
LINE
8
BLACK
6
CONTINUOUS
10
105.104
20
-79.7351
11
105.09
21
-79.7095
0
LINE
8
BLACK
6
CONTINUOUS
10
105.09
20
-79.7095
11
105.078
21
-79.6863
0
LINE
8
BLACK
6
CONTINUOUS
10
105.078
20
-79.6863
11
105.053
21
-79.6364
0
LINE
8
BLACK
6
CONTINUOUS
10
105.053
20
-79.6364
11
105.049
21
-79.63
0
LINE
8
BLACK
6
CONTINUOUS
10
105.049
20
-79.63
11
105.044
21
-79.6237
0
LINE
8
BLACK
6
CONTINUOUS
10
105.044
20
-79.6237
11
105.003
21
-79.5861
0
LINE
8
BLACK
6
CONTINUOUS
10
105.003
20
-79.5861
11
99.6654
21
-74.2487
0
LINE
8
BLACK
6
CONTINUOUS
10
99.6654
20
-74.2487
11
99.649
21
-74.2285
0
LINE
8
BLACK
6
CONTINUOUS
10
99.649
20
-74.2285
11
99.6431
21
-74.2194
0
LINE
8
BLACK
6
CONTINUOUS
10
99.6431
20
-74.2194
11
99.6431
21
-74.2194
0
LINE
8
BLACK
6
CONTINUOUS
10
99.6431
20
-74.2194
11
99.6148
21
-74.1974
0
LINE
8
BLACK
6
CONTINUOUS
10
99.6148
20
-74.1974
11
99.6089
21
-74.1922
0
LINE
8
BLACK
6
CONTINUOUS
10
99.6089
20
-74.1922
11
99.6061
21
-74.1894
0
LINE
8
BLACK
6
CONTINUOUS
10
99.6061
20
-74.1894
11
99.6061
21
-74.1894
0
LINE
8
BLACK
6
CONTINUOUS
10
99.6061
20
-74.1894
11
99.6061
21
-74.1894
0
LINE
8
BLACK
6
CONTINUOUS
10
99.6061
20
-74.1894
11
99.6061
21
-74.1894
0
LINE
8
BLACK
6
CONTINUOUS
10
99.6061
20
-74.1894
11
99.5869
21
-74.1757
0
LINE
8
BLACK
6
CONTINUOUS
10
99.5869
20
-74.1757
11
99.5431
21
-74.1416
0
LINE
8
BLACK
6
CONTINUOUS
10
99.5431
20
-74.1416
11
99.5361
21
-74.1378
0
LINE
8
BLACK
6
CONTINUOUS
10
99.5361
20
-74.1378
11
99.529
21
-74.1343
0
LINE
8
BLACK
6
CONTINUOUS
10
99.529
20
-74.1343
11
99.4758
21
-74.1185
0
LINE
8
BLACK
6
CONTINUOUS
10
99.4758
20
-74.1185
11
99.4233
21
-74.1005
0
LINE
8
BLACK
6
CONTINUOUS
10
99.4233
20
-74.1005
11
99.4155
21
-74.0992
0
LINE
8
BLACK
6
CONTINUOUS
10
99.4155
20
-74.0992
11
99.4076
21
-74.0982
0
LINE
8
BLACK
6
CONTINUOUS
10
99.4076
20
-74.0982
11
99.3522
21
-74.1005
0
LINE
8
BLACK
6
CONTINUOUS
10
99.3522
20
-74.1005
11
73.2229
21
-74.1005
0
LINE
8
BLACK
6
CONTINUOUS
10
73.2229
20
-74.1005
11
73.1548
21
-74.0805
0
LINE
8
BLACK
6
CONTINUOUS
10
73.1548
20
-74.0805
11
73.1101
21
-74.0307
0
LINE
8
BLACK
6
CONTINUOUS
10
73.1101
20
-74.0307
11
73.0431
21
-73.8961
0
LINE
8
BLACK
6
CONTINUOUS
10
73.0431
20
-73.8961
11
73.0431
21
-73.8961
0
LINE
8
BLACK
6
CONTINUOUS
10
73.0431
20
-73.8961
11
72.9197
21
-73.7327
0
LINE
8
BLACK
6
CONTINUOUS
10
72.9197
20
-73.7327
11
72.7685
21
-73.5948
0
LINE
8
BLACK
6
CONTINUOUS
10
72.7685
20
-73.5948
11
72.5944
21
-73.4871
0
LINE
8
BLACK
6
CONTINUOUS
10
72.5944
20
-73.4871
11
72.5944
21
-73.4871
0
LINE
8
BLACK
6
CONTINUOUS
10
72.5944
20
-73.4871
11
72.5944
21
-73.4871
0
LINE
8
BLACK
6
CONTINUOUS
10
72.5944
20
-73.4871
11
72.5944
21
-73.4871
0
LINE
8
BLACK
6
CONTINUOUS
10
72.5944
20
-73.4871
11
72.4036
21
-73.4131
0
LINE
8
BLACK
6
CONTINUOUS
10
72.4036
20
-73.4131
11
72.4036
21
-73.4131
0
LINE
8
BLACK
6
CONTINUOUS
10
72.4036
20
-73.4131
11
72.4036
21
-73.4131
0
LINE
8
BLACK
6
CONTINUOUS
10
72.4036
20
-73.4131
11
72.4036
21
-73.4131
0
LINE
8
BLACK
6
CONTINUOUS
10
72.4036
20
-73.4131
11
72.2023
21
-73.3755
0
LINE
8
BLACK
6
CONTINUOUS
10
72.2023
20
-73.3755
11
71.9977
21
-73.3755
0
LINE
8
BLACK
6
CONTINUOUS
10
71.9977
20
-73.3755
11
71.7964
21
-73.4131
0
LINE
8
BLACK
6
CONTINUOUS
10
71.7964
20
-73.4131
11
71.7964
21
-73.4131
0
LINE
8
BLACK
6
CONTINUOUS
10
71.7964
20
-73.4131
11
71.6056
21
-73.4871
0
LINE
8
BLACK
6
CONTINUOUS
10
71.6056
20
-73.4871
11
71.6056
21
-73.4871
0
LINE
8
BLACK
6
CONTINUOUS
10
71.6056
20
-73.4871
11
71.4315
21
-73.5948
0
LINE
8
BLACK
6
CONTINUOUS
10
71.4315
20
-73.5948
11
71.2803
21
-73.7327
0
LINE
8
BLACK
6
CONTINUOUS
10
71.2803
20
-73.7327
11
71.1569
21
-73.8961
0
LINE
8
BLACK
6
CONTINUOUS
10
71.1569
20
-73.8961
11
71.0657
21
-74.0793
0
LINE
8
BLACK
6
CONTINUOUS
10
71.0657
20
-74.0793
11
71.0097
21
-74.2762
0
LINE
8
BLACK
6
CONTINUOUS
10
71.0097
20
-74.2762
11
70.9908
21
-74.48
0
LINE
8
BLACK
6
CONTINUOUS
10
70.9908
20
-74.48
11
70.9908
21
-74.48
0
LINE
8
BLACK
6
CONTINUOUS
10
70.9908
20
-74.48
11
71.0097
21
-74.6838
0
LINE
8
BLACK
6
CONTINUOUS
10
98.5697
20
-83.7838
11
98.6089
21
-83.9217
0
LINE
8
BLACK
6
CONTINUOUS
10
98.6089
20
-83.9217
11
98.6257
21
-83.9807
0
LINE
8
BLACK
6
CONTINUOUS
10
98.6257
20
-83.9807
11
98.7169
21
-84.1639
0
LINE
8
BLACK
6
CONTINUOUS
10
98.7169
20
-84.1639
11
98.7169
21
-84.1639
0
LINE
8
BLACK
6
CONTINUOUS
10
98.7169
20
-84.1639
11
98.8403
21
-84.3273
0
LINE
8
BLACK
6
CONTINUOUS
10
98.8403
20
-84.3273
11
98.9915
21
-84.4652
0
LINE
8
BLACK
6
CONTINUOUS
10
98.9915
20
-84.4652
11
99.1656
21
-84.5729
0
LINE
8
BLACK
6
CONTINUOUS
10
99.1656
20
-84.5729
11
99.1656
21
-84.5729
0
LINE
8
BLACK
6
CONTINUOUS
10
99.1656
20
-84.5729
11
99.1656
21
-84.5729
0
LINE
8
BLACK
6
CONTINUOUS
10
99.1656
20
-84.5729
11
99.3564
21
-84.6469
0
LINE
8
BLACK
6
CONTINUOUS
10
99.3564
20
-84.6469
11
99.5577
21
-84.6845
0
LINE
8
BLACK
6
CONTINUOUS
10
99.5577
20
-84.6845
11
99.5577
21
-84.6845
0
LINE
8
BLACK
6
CONTINUOUS
10
99.5577
20
-84.6845
11
99.7623
21
-84.6845
0
LINE
8
BLACK
6
CONTINUOUS
10
99.7623
20
-84.6845
11
99.7623
21
-84.6845
0
LINE
8
BLACK
6
CONTINUOUS
10
99.7623
20
-84.6845
11
99.9636
21
-84.6469
0
LINE
8
BLACK
6
CONTINUOUS
10
99.9636
20
-84.6469
11
100.154
21
-84.5729
0
LINE
8
BLACK
6
CONTINUOUS
10
100.154
20
-84.5729
11
100.328
21
-84.4652
0
LINE
8
BLACK
6
CONTINUOUS
10
100.328
20
-84.4652
11
100.48
21
-84.3273
0
LINE
8
BLACK
6
CONTINUOUS
10
100.48
20
-84.3273
11
100.603
21
-84.1639
0
LINE
8
BLACK
6
CONTINUOUS
10
100.603
20
-84.1639
11
100.694
21
-83.9807
0
LINE
8
BLACK
6
CONTINUOUS
10
100.694
20
-83.9807
11
100.75
21
-83.7838
0
LINE
8
BLACK
6
CONTINUOUS
10
100.75
20
-83.7838
11
100.764
21
-83.6341
0
LINE
8
BLACK
6
CONTINUOUS
10
100.764
20
-83.6341
11
100.769
21
-83.58
0
LINE
8
BLACK
6
CONTINUOUS
10
100.769
20
-83.58
11
100.769
21
-83.58
0
LINE
8
BLACK
6
CONTINUOUS
10
100.769
20
-83.58
11
100.75
21
-83.3762
0
LINE
8
BLACK
6
CONTINUOUS
10
100.75
20
-83.3762
11
100.747
21
-83.3645
0
LINE
8
BLACK
6
CONTINUOUS
10
100.747
20
-83.3645
11
100.694
21
-83.1793
0
LINE
8
BLACK
6
CONTINUOUS
10
100.694
20
-83.1793
11
100.603
21
-82.9961
0
LINE
8
BLACK
6
CONTINUOUS
10
100.603
20
-82.9961
11
100.563
21
-82.9424
0
LINE
8
BLACK
6
CONTINUOUS
10
100.563
20
-82.9424
11
100.48
21
-82.8327
0
LINE
8
BLACK
6
CONTINUOUS
10
100.48
20
-82.8327
11
100.328
21
-82.6948
0
LINE
8
BLACK
6
CONTINUOUS
10
100.328
20
-82.6948
11
100.154
21
-82.5871
0
LINE
8
BLACK
6
CONTINUOUS
10
100.154
20
-82.5871
11
100.154
21
-82.5871
0
LINE
8
BLACK
6
CONTINUOUS
10
100.154
20
-82.5871
11
100.154
21
-82.5871
0
LINE
8
BLACK
6
CONTINUOUS
10
100.154
20
-82.5871
11
100.154
21
-82.5871
0
LINE
8
BLACK
6
CONTINUOUS
10
100.154
20
-82.5871
11
99.9636
21
-82.5131
0
LINE
8
BLACK
6
CONTINUOUS
10
99.9636
20
-82.5131
11
99.9636
21
-82.5131
0
LINE
8
BLACK
6
CONTINUOUS
10
99.9636
20
-82.5131
11
99.9636
21
-82.5131
0
LINE
8
BLACK
6
CONTINUOUS
10
99.9636
20
-82.5131
11
99.9636
21
-82.5131
0
LINE
8
BLACK
6
CONTINUOUS
10
99.9636
20
-82.5131
11
99.7623
21
-82.4755
0
LINE
8
BLACK
6
CONTINUOUS
10
99.7623
20
-82.4755
11
99.5577
21
-82.4755
0
LINE
8
BLACK
6
CONTINUOUS
10
99.5577
20
-82.4755
11
99.3564
21
-82.5131
0
LINE
8
BLACK
6
CONTINUOUS
10
99.3564
20
-82.5131
11
99.3564
21
-82.5131
0
LINE
8
BLACK
6
CONTINUOUS
10
99.3564
20
-82.5131
11
99.1656
21
-82.5871
0
LINE
8
BLACK
6
CONTINUOUS
10
99.1656
20
-82.5871
11
99.1656
21
-82.5871
0
LINE
8
BLACK
6
CONTINUOUS
10
99.1656
20
-82.5871
11
98.9915
21
-82.6948
0
LINE
8
BLACK
6
CONTINUOUS
10
98.9915
20
-82.6948
11
98.8403
21
-82.8327
0
LINE
8
BLACK
6
CONTINUOUS
10
98.8403
20
-82.8327
11
98.7169
21
-82.9961
0
LINE
8
BLACK
6
CONTINUOUS
10
98.7169
20
-82.9961
11
98.6257
21
-83.1793
0
LINE
8
BLACK
6
CONTINUOUS
10
98.6257
20
-83.1793
11
98.5697
21
-83.3762
0
LINE
8
BLACK
6
CONTINUOUS
10
98.5697
20
-83.3762
11
98.5508
21
-83.58
0
LINE
8
BLACK
6
CONTINUOUS
10
98.5508
20
-83.58
11
98.5508
21
-83.58
0
LINE
8
BLACK
6
CONTINUOUS
10
98.5508
20
-83.58
11
98.5697
21
-83.7838
0
LINE
8
BLACK
6
CONTINUOUS
10
101.11
20
-83.7838
11
101.149
21
-83.9217
0
LINE
8
BLACK
6
CONTINUOUS
10
101.149
20
-83.9217
11
101.166
21
-83.9807
0
LINE
8
BLACK
6
CONTINUOUS
10
101.166
20
-83.9807
11
101.257
21
-84.1639
0
LINE
8
BLACK
6
CONTINUOUS
10
101.257
20
-84.1639
11
101.257
21
-84.1639
0
LINE
8
BLACK
6
CONTINUOUS
10
101.257
20
-84.1639
11
101.38
21
-84.3273
0
LINE
8
BLACK
6
CONTINUOUS
10
101.38
20
-84.3273
11
101.532
21
-84.4652
0
LINE
8
BLACK
6
CONTINUOUS
10
101.532
20
-84.4652
11
101.706
21
-84.5729
0
LINE
8
BLACK
6
CONTINUOUS
10
101.706
20
-84.5729
11
101.706
21
-84.5729
0
LINE
8
BLACK
6
CONTINUOUS
10
101.706
20
-84.5729
11
101.706
21
-84.5729
0
LINE
8
BLACK
6
CONTINUOUS
10
101.706
20
-84.5729
11
101.896
21
-84.6469
0
LINE
8
BLACK
6
CONTINUOUS
10
101.896
20
-84.6469
11
102.098
21
-84.6845
0
LINE
8
BLACK
6
CONTINUOUS
10
102.098
20
-84.6845
11
102.098
21
-84.6845
0
LINE
8
BLACK
6
CONTINUOUS
10
102.098
20
-84.6845
11
102.302
21
-84.6845
0
LINE
8
BLACK
6
CONTINUOUS
10
102.302
20
-84.6845
11
102.302
21
-84.6845
0
LINE
8
BLACK
6
CONTINUOUS
10
102.302
20
-84.6845
11
102.504
21
-84.6469
0
LINE
8
BLACK
6
CONTINUOUS
10
102.504
20
-84.6469
11
102.694
21
-84.5729
0
LINE
8
BLACK
6
CONTINUOUS
10
102.694
20
-84.5729
11
102.868
21
-84.4652
0
LINE
8
BLACK
6
CONTINUOUS
10
102.868
20
-84.4652
11
103.02
21
-84.3273
0
LINE
8
BLACK
6
CONTINUOUS
10
103.02
20
-84.3273
11
103.143
21
-84.1639
0
LINE
8
BLACK
6
CONTINUOUS
10
103.143
20
-84.1639
11
103.234
21
-83.9807
0
LINE
8
BLACK
6
CONTINUOUS
10
103.234
20
-83.9807
11
103.29
21
-83.7838
0
LINE
8
BLACK
6
CONTINUOUS
10
103.29
20
-83.7838
11
103.304
21
-83.6341
0
LINE
8
BLACK
6
CONTINUOUS
10
103.304
20
-83.6341
11
103.309
21
-83.58
0
LINE
8
BLACK
6
CONTINUOUS
10
103.309
20
-83.58
11
103.309
21
-83.58
0
LINE
8
BLACK
6
CONTINUOUS
10
103.309
20
-83.58
11
103.29
21
-83.3762
0
LINE
8
BLACK
6
CONTINUOUS
10
103.29
20
-83.3762
11
103.287
21
-83.3645
0
LINE
8
BLACK
6
CONTINUOUS
10
103.287
20
-83.3645
11
103.234
21
-83.1793
0
LINE
8
BLACK
6
CONTINUOUS
10
103.234
20
-83.1793
11
103.143
21
-82.9961
0
LINE
8
BLACK
6
CONTINUOUS
10
103.143
20
-82.9961
11
103.103
21
-82.9424
0
LINE
8
BLACK
6
CONTINUOUS
10
103.103
20
-82.9424
11
103.02
21
-82.8327
0
LINE
8
BLACK
6
CONTINUOUS
10
103.02
20
-82.8327
11
102.868
21
-82.6948
0
LINE
8
BLACK
6
CONTINUOUS
10
102.868
20
-82.6948
11
102.694
21
-82.5871
0
LINE
8
BLACK
6
CONTINUOUS
10
102.694
20
-82.5871
11
102.694
21
-82.5871
0
LINE
8
BLACK
6
CONTINUOUS
10
102.694
20
-82.5871
11
102.694
21
-82.5871
0
LINE
8
BLACK
6
CONTINUOUS
10
102.694
20
-82.5871
11
102.694
21
-82.5871
0
LINE
8
BLACK
6
CONTINUOUS
10
102.694
20
-82.5871
11
102.504
21
-82.5131
0
LINE
8
BLACK
6
CONTINUOUS
10
102.504
20
-82.5131
11
102.504
21
-82.5131
0
LINE
8
BLACK
6
CONTINUOUS
10
102.504
20
-82.5131
11
102.504
21
-82.5131
0
LINE
8
BLACK
6
CONTINUOUS
10
102.504
20
-82.5131
11
102.504
21
-82.5131
0
LINE
8
BLACK
6
CONTINUOUS
10
102.504
20
-82.5131
11
102.302
21
-82.4755
0
LINE
8
BLACK
6
CONTINUOUS
10
102.302
20
-82.4755
11
102.098
21
-82.4755
0
LINE
8
BLACK
6
CONTINUOUS
10
102.098
20
-82.4755
11
101.896
21
-82.5131
0
LINE
8
BLACK
6
CONTINUOUS
10
101.896
20
-82.5131
11
101.896
21
-82.5131
0
LINE
8
BLACK
6
CONTINUOUS
10
101.896
20
-82.5131
11
101.706
21
-82.5871
0
LINE
8
BLACK
6
CONTINUOUS
10
101.706
20
-82.5871
11
101.706
21
-82.5871
0
LINE
8
BLACK
6
CONTINUOUS
10
101.706
20
-82.5871
11
101.532
21
-82.6948
0
LINE
8
BLACK
6
CONTINUOUS
10
101.532
20
-82.6948
11
101.38
21
-82.8327
0
LINE
8
BLACK
6
CONTINUOUS
10
101.38
20
-82.8327
11
101.257
21
-82.9961
0
LINE
8
BLACK
6
CONTINUOUS
10
101.257
20
-82.9961
11
101.166
21
-83.1793
0
LINE
8
BLACK
6
CONTINUOUS
10
101.166
20
-83.1793
11
101.11
21
-83.3762
0
LINE
8
BLACK
6
CONTINUOUS
10
101.11
20
-83.3762
11
101.091
21
-83.58
0
LINE
8
BLACK
6
CONTINUOUS
10
101.091
20
-83.58
11
101.091
21
-83.58
0
LINE
8
BLACK
6
CONTINUOUS
10
101.091
20
-83.58
11
101.11
21
-83.7838
0
LINE
8
BLACK
6
CONTINUOUS
10
94.1417
20
-37.6905
11
94.0817
21
-37.697
0
LINE
8
BLACK
6
CONTINUOUS
10
94.0817
20
-37.697
11
94.0817
21
-37.697
0
LINE
8
BLACK
6
CONTINUOUS
10
94.0817
20
-37.697
11
93.9457
21
-37.7477
0
LINE
8
BLACK
6
CONTINUOUS
10
93.9457
20
-37.7477
11
93.8296
21
-37.8346
0
LINE
8
BLACK
6
CONTINUOUS
10
93.8296
20
-37.8346
11
93.7427
21
-37.9507
0
LINE
8
BLACK
6
CONTINUOUS
10
93.7427
20
-37.9507
11
93.692
21
-38.0866
0
LINE
8
BLACK
6
CONTINUOUS
10
93.692
20
-38.0866
11
93.692
21
-38.0867
0
LINE
8
BLACK
6
CONTINUOUS
10
93.692
20
-38.0867
11
93.6855
21
-38.1467
0
LINE
8
BLACK
6
CONTINUOUS
10
93.6855
20
-38.1467
11
93.6855
21
-39.7432
0
LINE
8
BLACK
6
CONTINUOUS
10
93.6855
20
-39.7432
11
93.6855
21
-39.7433
0
LINE
8
BLACK
6
CONTINUOUS
10
93.6855
20
-39.7433
11
93.692
21
-39.8033
0
LINE
8
BLACK
6
CONTINUOUS
10
93.692
20
-39.8033
11
93.692
21
-39.8033
0
LINE
8
BLACK
6
CONTINUOUS
10
93.692
20
-39.8033
11
93.7427
21
-39.9393
0
LINE
8
BLACK
6
CONTINUOUS
10
93.7427
20
-39.9393
11
93.7645
21
-39.9685
0
LINE
8
BLACK
6
CONTINUOUS
10
93.7645
20
-39.9685
11
93.8296
21
-40.0554
0
LINE
8
BLACK
6
CONTINUOUS
10
93.8296
20
-40.0554
11
93.9457
21
-40.1423
0
LINE
8
BLACK
6
CONTINUOUS
10
93.9457
20
-40.1423
11
94.0817
21
-40.193
0
LINE
8
BLACK
6
CONTINUOUS
10
94.0817
20
-40.193
11
94.1417
21
-40.1995
0
LINE
8
BLACK
6
CONTINUOUS
10
94.1417
20
-40.1995
11
95.4383
21
-40.1995
0
LINE
8
BLACK
6
CONTINUOUS
10
95.4383
20
-40.1995
11
95.4983
21
-40.193
0
LINE
8
BLACK
6
CONTINUOUS
10
95.4983
20
-40.193
11
95.6343
21
-40.1423
0
LINE
8
BLACK
6
CONTINUOUS
10
95.6343
20
-40.1423
11
95.7504
21
-40.0554
0
LINE
8
BLACK
6
CONTINUOUS
10
95.7504
20
-40.0554
11
95.8373
21
-39.9393
0
LINE
8
BLACK
6
CONTINUOUS
10
95.8373
20
-39.9393
11
95.888
21
-39.8033
0
LINE
8
BLACK
6
CONTINUOUS
10
95.888
20
-39.8033
11
95.8945
21
-39.7433
0
LINE
8
BLACK
6
CONTINUOUS
10
95.8945
20
-39.7433
11
95.8945
21
-38.1467
0
LINE
8
BLACK
6
CONTINUOUS
10
95.8945
20
-38.1467
11
95.888
21
-38.0867
0
LINE
8
BLACK
6
CONTINUOUS
10
95.888
20
-38.0867
11
95.8373
21
-37.9507
0
LINE
8
BLACK
6
CONTINUOUS
10
95.8373
20
-37.9507
11
95.7504
21
-37.8346
0
LINE
8
BLACK
6
CONTINUOUS
10
95.7504
20
-37.8346
11
95.6343
21
-37.7477
0
LINE
8
BLACK
6
CONTINUOUS
10
95.6343
20
-37.7477
11
95.6343
21
-37.7477
0
LINE
8
BLACK
6
CONTINUOUS
10
95.6343
20
-37.7477
11
95.6343
21
-37.7477
0
LINE
8
BLACK
6
CONTINUOUS
10
95.6343
20
-37.7477
11
95.4983
21
-37.697
0
LINE
8
BLACK
6
CONTINUOUS
10
95.4983
20
-37.697
11
95.4983
21
-37.697
0
LINE
8
BLACK
6
CONTINUOUS
10
95.4983
20
-37.697
11
95.4983
21
-37.697
0
LINE
8
BLACK
6
CONTINUOUS
10
95.4983
20
-37.697
11
95.4683
21
-37.6937
0
LINE
8
BLACK
6
CONTINUOUS
10
95.4683
20
-37.6937
11
95.4383
21
-37.6905
0
LINE
8
BLACK
6
CONTINUOUS
10
95.4383
20
-37.6905
11
94.1418
21
-37.6905
0
LINE
8
BLACK
6
CONTINUOUS
10
94.1418
20
-37.6905
11
94.1417
21
-37.6905
0
LINE
8
BLACK
6
CONTINUOUS
10
86.1321
20
-37.7318
11
86.1321
21
-37.7318
0
LINE
8
BLACK
6
CONTINUOUS
10
86.1321
20
-37.7318
11
85.9271
21
-37.7815
0
LINE
8
BLACK
6
CONTINUOUS
10
85.9271
20
-37.7815
11
85.9271
21
-37.7815
0
LINE
8
BLACK
6
CONTINUOUS
10
85.9271
20
-37.7815
11
85.7352
21
-37.8691
0
LINE
8
BLACK
6
CONTINUOUS
10
85.7352
20
-37.8691
11
85.5634
21
-37.9915
0
LINE
8
BLACK
6
CONTINUOUS
10
85.5634
20
-37.9915
11
85.5634
21
-37.9915
0
LINE
8
BLACK
6
CONTINUOUS
10
85.5634
20
-37.9915
11
85.4179
21
-38.1441
0
LINE
8
BLACK
6
CONTINUOUS
10
85.4179
20
-38.1441
11
85.3038
21
-38.3216
0
LINE
8
BLACK
6
CONTINUOUS
10
85.3038
20
-38.3216
11
85.3038
21
-38.3216
0
LINE
8
BLACK
6
CONTINUOUS
10
85.3038
20
-38.3216
11
85.2261
21
-38.5157
0
LINE
8
BLACK
6
CONTINUOUS
10
85.2261
20
-38.5157
11
85.2254
21
-38.5174
0
LINE
8
BLACK
6
CONTINUOUS
10
85.2254
20
-38.5174
11
85.1855
21
-38.7245
0
LINE
8
BLACK
6
CONTINUOUS
10
85.1855
20
-38.7245
11
85.1855
21
-39.1326
0
LINE
8
BLACK
6
CONTINUOUS
10
85.1855
20
-39.1326
11
85.2005
21
-39.29
0
LINE
8
BLACK
6
CONTINUOUS
10
85.2005
20
-39.29
11
85.2005
21
-39.29
0
LINE
8
BLACK
6
CONTINUOUS
10
85.2005
20
-39.29
11
85.26
21
-39.4924
0
LINE
8
BLACK
6
CONTINUOUS
10
85.26
20
-39.4924
11
85.3566
21
-39.6799
0
LINE
8
BLACK
6
CONTINUOUS
10
85.3566
20
-39.6799
11
85.3566
21
-39.6799
0
LINE
8
BLACK
6
CONTINUOUS
10
85.3566
20
-39.6799
11
85.487
21
-39.8457
0
LINE
8
BLACK
6
CONTINUOUS
10
85.487
20
-39.8457
11
85.487
21
-39.8457
0
LINE
8
BLACK
6
CONTINUOUS
10
85.487
20
-39.8457
11
85.6225
21
-39.963
0
LINE
8
BLACK
6
CONTINUOUS
10
85.6225
20
-39.963
11
85.6464
21
-39.9838
0
LINE
8
BLACK
6
CONTINUOUS
10
85.6464
20
-39.9838
11
85.8291
21
-40.0893
0
LINE
8
BLACK
6
CONTINUOUS
10
85.8291
20
-40.0893
11
86.0284
21
-40.1582
0
LINE
8
BLACK
6
CONTINUOUS
10
86.0284
20
-40.1582
11
86.0284
21
-40.1582
0
LINE
8
BLACK
6
CONTINUOUS
10
86.0284
20
-40.1582
11
86.0284
21
-40.1582
0
LINE
8
BLACK
6
CONTINUOUS
10
86.0284
20
-40.1582
11
86.2372
21
-40.1883
0
LINE
8
BLACK
6
CONTINUOUS
10
86.2372
20
-40.1883
11
86.2372
21
-40.1883
0
LINE
8
BLACK
6
CONTINUOUS
10
86.2372
20
-40.1883
11
86.2372
21
-40.1883
0
LINE
8
BLACK
6
CONTINUOUS
10
86.2372
20
-40.1883
11
86.4479
21
-40.1782
0
LINE
8
BLACK
6
CONTINUOUS
10
86.4479
20
-40.1782
11
86.6529
21
-40.1285
0
LINE
8
BLACK
6
CONTINUOUS
10
86.6529
20
-40.1285
11
86.8448
21
-40.0409
0
LINE
8
BLACK
6
CONTINUOUS
10
86.8448
20
-40.0409
11
87.0166
21
-39.9185
0
LINE
8
BLACK
6
CONTINUOUS
10
87.0166
20
-39.9185
11
87.1621
21
-39.7659
0
LINE
8
BLACK
6
CONTINUOUS
10
87.1621
20
-39.7659
11
87.1767
21
-39.7432
0
LINE
8
BLACK
6
CONTINUOUS
10
87.1767
20
-39.7432
11
87.2762
21
-39.5884
0
LINE
8
BLACK
6
CONTINUOUS
10
87.2762
20
-39.5884
11
87.3546
21
-39.3926
0
LINE
8
BLACK
6
CONTINUOUS
10
87.3546
20
-39.3926
11
87.3945
21
-39.1855
0
LINE
8
BLACK
6
CONTINUOUS
10
87.3945
20
-39.1855
11
87.3945
21
-38.7774
0
LINE
8
BLACK
6
CONTINUOUS
10
87.3945
20
-38.7774
11
87.3945
21
-38.7774
0
LINE
8
BLACK
6
CONTINUOUS
10
87.3945
20
-38.7774
11
87.3795
21
-38.62
0
LINE
8
BLACK
6
CONTINUOUS
10
87.3795
20
-38.62
11
87.3795
21
-38.62
0
LINE
8
BLACK
6
CONTINUOUS
10
87.3795
20
-38.62
11
87.3795
21
-38.62
0
LINE
8
BLACK
6
CONTINUOUS
10
87.3795
20
-38.62
11
87.32
21
-38.4176
0
LINE
8
BLACK
6
CONTINUOUS
10
87.32
20
-38.4176
11
87.32
21
-38.4176
0
LINE
8
BLACK
6
CONTINUOUS
10
87.32
20
-38.4176
11
87.32
21
-38.4176
0
LINE
8
BLACK
6
CONTINUOUS
10
87.32
20
-38.4176
11
87.2234
21
-38.2301
0
LINE
8
BLACK
6
CONTINUOUS
10
87.2234
20
-38.2301
11
87.2234
21
-38.2301
0
LINE
8
BLACK
6
CONTINUOUS
10
87.2234
20
-38.2301
11
87.093
21
-38.0643
0
LINE
8
BLACK
6
CONTINUOUS
10
87.093
20
-38.0643
11
87.093
21
-38.0643
0
LINE
8
BLACK
6
CONTINUOUS
10
87.093
20
-38.0643
11
87.093
21
-38.0643
0
LINE
8
BLACK
6
CONTINUOUS
10
87.093
20
-38.0643
11
87.093
21
-38.0643
0
LINE
8
BLACK
6
CONTINUOUS
10
87.093
20
-38.0643
11
87.093
21
-38.0643
0
LINE
8
BLACK
6
CONTINUOUS
10
87.093
20
-38.0643
11
86.9336
21
-37.9262
0
LINE
8
BLACK
6
CONTINUOUS
10
86.9336
20
-37.9262
11
86.9336
21
-37.9262
0
LINE
8
BLACK
6
CONTINUOUS
10
86.9336
20
-37.9262
11
86.8347
21
-37.8691
0
LINE
8
BLACK
6
CONTINUOUS
10
86.8347
20
-37.8691
11
86.7509
21
-37.8207
0
LINE
8
BLACK
6
CONTINUOUS
10
86.7509
20
-37.8207
11
86.5516
21
-37.7518
0
LINE
8
BLACK
6
CONTINUOUS
10
86.5516
20
-37.7518
11
86.5516
21
-37.7518
0
LINE
8
BLACK
6
CONTINUOUS
10
86.5516
20
-37.7518
11
86.5516
21
-37.7518
0
LINE
8
BLACK
6
CONTINUOUS
10
86.5516
20
-37.7518
11
86.3428
21
-37.7217
0
LINE
8
BLACK
6
CONTINUOUS
10
86.3428
20
-37.7217
11
86.1321
21
-37.7318
0
LINE
8
BLACK
6
CONTINUOUS
10
80.1855
20
-39.7283
11
80.192
21
-39.7883
0
LINE
8
BLACK
6
CONTINUOUS
10
80.192
20
-39.7883
11
80.192
21
-39.7883
0
LINE
8
BLACK
6
CONTINUOUS
10
80.192
20
-39.7883
11
80.2427
21
-39.9243
0
LINE
8
BLACK
6
CONTINUOUS
10
80.2427
20
-39.9243
11
80.2427
21
-39.9243
0
LINE
8
BLACK
6
CONTINUOUS
10
80.2427
20
-39.9243
11
80.3296
21
-40.0404
0
LINE
8
BLACK
6
CONTINUOUS
10
80.3296
20
-40.0404
11
80.4457
21
-40.1273
0
LINE
8
BLACK
6
CONTINUOUS
10
80.4457
20
-40.1273
11
80.5817
21
-40.178
0
LINE
8
BLACK
6
CONTINUOUS
10
80.5817
20
-40.178
11
80.6417
21
-40.1845
0
LINE
8
BLACK
6
CONTINUOUS
10
80.6417
20
-40.1845
11
81.9383
21
-40.1845
0
LINE
8
BLACK
6
CONTINUOUS
10
81.9383
20
-40.1845
11
81.9983
21
-40.178
0
LINE
8
BLACK
6
CONTINUOUS
10
81.9983
20
-40.178
11
82.1343
21
-40.1273
0
LINE
8
BLACK
6
CONTINUOUS
10
82.1343
20
-40.1273
11
82.2504
21
-40.0404
0
LINE
8
BLACK
6
CONTINUOUS
10
82.2504
20
-40.0404
11
82.3373
21
-39.9243
0
LINE
8
BLACK
6
CONTINUOUS
10
82.3373
20
-39.9243
11
82.388
21
-39.7883
0
LINE
8
BLACK
6
CONTINUOUS
10
82.388
20
-39.7883
11
82.3945
21
-39.7283
0
LINE
8
BLACK
6
CONTINUOUS
10
82.3945
20
-39.7283
11
82.3945
21
-39.1326
0
LINE
8
BLACK
6
CONTINUOUS
10
82.3945
20
-39.1326
11
82.3945
21
-38.1817
0
LINE
8
BLACK
6
CONTINUOUS
10
82.3945
20
-38.1817
11
82.388
21
-38.1217
0
LINE
8
BLACK
6
CONTINUOUS
10
82.388
20
-38.1217
11
82.3373
21
-37.9857
0
LINE
8
BLACK
6
CONTINUOUS
10
82.3373
20
-37.9857
11
82.2504
21
-37.8696
0
LINE
8
BLACK
6
CONTINUOUS
10
82.2504
20
-37.8696
11
82.1343
21
-37.7827
0
LINE
8
BLACK
6
CONTINUOUS
10
82.1343
20
-37.7827
11
82.1343
21
-37.7827
0
LINE
8
BLACK
6
CONTINUOUS
10
82.1343
20
-37.7827
11
82.1343
21
-37.7827
0
LINE
8
BLACK
6
CONTINUOUS
10
82.1343
20
-37.7827
11
81.9983
21
-37.732
0
LINE
8
BLACK
6
CONTINUOUS
10
81.9983
20
-37.732
11
81.9983
21
-37.732
0
LINE
8
BLACK
6
CONTINUOUS
10
81.9983
20
-37.732
11
81.9983
21
-37.732
0
LINE
8
BLACK
6
CONTINUOUS
10
81.9983
20
-37.732
11
81.9683
21
-37.7287
0
LINE
8
BLACK
6
CONTINUOUS
10
81.9683
20
-37.7287
11
81.9383
21
-37.7255
0
LINE
8
BLACK
6
CONTINUOUS
10
81.9383
20
-37.7255
11
80.6418
21
-37.7255
0
LINE
8
BLACK
6
CONTINUOUS
10
80.6418
20
-37.7255
11
80.6417
21
-37.7255
0
LINE
8
BLACK
6
CONTINUOUS
10
80.6417
20
-37.7255
11
80.5817
21
-37.732
0
LINE
8
BLACK
6
CONTINUOUS
10
80.5817
20
-37.732
11
80.5817
21
-37.732
0
LINE
8
BLACK
6
CONTINUOUS
10
80.5817
20
-37.732
11
80.4457
21
-37.7827
0
LINE
8
BLACK
6
CONTINUOUS
10
80.4457
20
-37.7827
11
80.3296
21
-37.8696
0
LINE
8
BLACK
6
CONTINUOUS
10
80.3296
20
-37.8696
11
80.2427
21
-37.9857
0
LINE
8
BLACK
6
CONTINUOUS
10
80.2427
20
-37.9857
11
80.192
21
-38.1216
0
LINE
8
BLACK
6
CONTINUOUS
10
80.192
20
-38.1216
11
80.192
21
-38.1217
0
LINE
8
BLACK
6
CONTINUOUS
10
80.192
20
-38.1217
11
80.1855
21
-38.1817
0
LINE
8
BLACK
6
CONTINUOUS
10
80.1855
20
-38.1817
11
80.1855
21
-39.7282
0
LINE
8
BLACK
6
CONTINUOUS
10
80.1855
20
-39.7282
11
80.1855
21
-39.7283
0
LINE
8
BLACK
6
CONTINUOUS
10
124.423
20
-73.6662
11
124.777
21
-73.7263
0
LINE
8
BLACK
6
CONTINUOUS
10
124.777
20
-73.7263
11
125.122
21
-73.8256
0
LINE
8
BLACK
6
CONTINUOUS
10
125.122
20
-73.8256
11
125.453
21
-73.963
0
LINE
8
BLACK
6
CONTINUOUS
10
125.453
20
-73.963
11
125.768
21
-74.1365
0
LINE
8
BLACK
6
CONTINUOUS
10
125.768
20
-74.1365
11
126.06
21
-74.3442
0
LINE
8
BLACK
6
CONTINUOUS
10
126.06
20
-74.3442
11
126.328
21
-74.5833
0
LINE
8
BLACK
6
CONTINUOUS
10
126.328
20
-74.5833
11
126.567
21
-74.8509
0
LINE
8
BLACK
6
CONTINUOUS
10
126.567
20
-74.8509
11
126.775
21
-75.1436
0
LINE
8
BLACK
6
CONTINUOUS
10
126.775
20
-75.1436
11
126.948
21
-75.4576
0
LINE
8
BLACK
6
CONTINUOUS
10
126.948
20
-75.4576
11
127.085
21
-75.7892
0
LINE
8
BLACK
6
CONTINUOUS
10
127.085
20
-75.7892
11
127.185
21
-76.134
0
LINE
8
BLACK
6
CONTINUOUS
10
127.185
20
-76.134
11
127.245
21
-76.4878
0
LINE
8
BLACK
6
CONTINUOUS
10
127.245
20
-76.4878
11
127.265
21
-76.8461
0
LINE
8
BLACK
6
CONTINUOUS
10
127.265
20
-76.8461
11
127.245
21
-77.2043
0
LINE
8
BLACK
6
CONTINUOUS
10
127.245
20
-77.2043
11
127.185
21
-77.5581
0
LINE
8
BLACK
6
CONTINUOUS
10
127.185
20
-77.5581
11
127.085
21
-77.9029
0
LINE
8
BLACK
6
CONTINUOUS
10
127.085
20
-77.9029
11
126.948
21
-78.2345
0
LINE
8
BLACK
6
CONTINUOUS
10
126.948
20
-78.2345
11
126.775
21
-78.5486
0
LINE
8
BLACK
6
CONTINUOUS
10
126.775
20
-78.5486
11
126.567
21
-78.8412
0
LINE
8
BLACK
6
CONTINUOUS
10
126.567
20
-78.8412
11
126.328
21
-79.1088
0
LINE
8
BLACK
6
CONTINUOUS
10
126.328
20
-79.1088
11
126.06
21
-79.3479
0
LINE
8
BLACK
6
CONTINUOUS
10
126.06
20
-79.3479
11
125.768
21
-79.5556
0
LINE
8
BLACK
6
CONTINUOUS
10
125.768
20
-79.5556
11
125.453
21
-79.7292
0
LINE
8
BLACK
6
CONTINUOUS
10
125.453
20
-79.7292
11
125.122
21
-79.8665
0
LINE
8
BLACK
6
CONTINUOUS
10
125.122
20
-79.8665
11
124.777
21
-79.9658
0
LINE
8
BLACK
6
CONTINUOUS
10
124.777
20
-79.9658
11
124.423
21
-80.0259
0
LINE
8
BLACK
6
CONTINUOUS
10
124.423
20
-80.0259
11
124.065
21
-80.0461
0
LINE
8
BLACK
6
CONTINUOUS
10
124.065
20
-80.0461
11
123.707
21
-80.0259
0
LINE
8
BLACK
6
CONTINUOUS
10
123.707
20
-80.0259
11
123.353
21
-79.9658
0
LINE
8
BLACK
6
CONTINUOUS
10
123.353
20
-79.9658
11
123.008
21
-79.8665
0
LINE
8
BLACK
6
CONTINUOUS
10
123.008
20
-79.8665
11
122.677
21
-79.7292
0
LINE
8
BLACK
6
CONTINUOUS
10
122.677
20
-79.7292
11
122.363
21
-79.5556
0
LINE
8
BLACK
6
CONTINUOUS
10
122.363
20
-79.5556
11
122.07
21
-79.3479
0
LINE
8
BLACK
6
CONTINUOUS
10
122.07
20
-79.3479
11
121.802
21
-79.1088
0
LINE
8
BLACK
6
CONTINUOUS
10
121.802
20
-79.1088
11
121.563
21
-78.8412
0
LINE
8
BLACK
6
CONTINUOUS
10
121.563
20
-78.8412
11
121.356
21
-78.5486
0
LINE
8
BLACK
6
CONTINUOUS
10
121.356
20
-78.5486
11
121.182
21
-78.2345
0
LINE
8
BLACK
6
CONTINUOUS
10
121.182
20
-78.2345
11
121.045
21
-77.9029
0
LINE
8
BLACK
6
CONTINUOUS
10
121.045
20
-77.9029
11
120.945
21
-77.5581
0
LINE
8
BLACK
6
CONTINUOUS
10
120.945
20
-77.5581
11
120.885
21
-77.2043
0
LINE
8
BLACK
6
CONTINUOUS
10
120.885
20
-77.2043
11
120.865
21
-76.8461
0
LINE
8
BLACK
6
CONTINUOUS
10
120.865
20
-76.8461
11
120.885
21
-76.4878
0
LINE
8
BLACK
6
CONTINUOUS
10
120.885
20
-76.4878
11
120.945
21
-76.134
0
LINE
8
BLACK
6
CONTINUOUS
10
120.945
20
-76.134
11
121.045
21
-75.7892
0
LINE
8
BLACK
6
CONTINUOUS
10
121.045
20
-75.7892
11
121.182
21
-75.4576
0
LINE
8
BLACK
6
CONTINUOUS
10
121.182
20
-75.4576
11
121.356
21
-75.1436
0
LINE
8
BLACK
6
CONTINUOUS
10
121.356
20
-75.1436
11
121.563
21
-74.8509
0
LINE
8
BLACK
6
CONTINUOUS
10
121.563
20
-74.8509
11
121.802
21
-74.5833
0
LINE
8
BLACK
6
CONTINUOUS
10
121.802
20
-74.5833
11
122.07
21
-74.3442
0
LINE
8
BLACK
6
CONTINUOUS
10
122.07
20
-74.3442
11
122.363
21
-74.1365
0
LINE
8
BLACK
6
CONTINUOUS
10
122.363
20
-74.1365
11
122.677
21
-73.963
0
LINE
8
BLACK
6
CONTINUOUS
10
122.677
20
-73.963
11
123.008
21
-73.8256
0
LINE
8
BLACK
6
CONTINUOUS
10
123.008
20
-73.8256
11
123.353
21
-73.7263
0
LINE
8
BLACK
6
CONTINUOUS
10
123.353
20
-73.7263
11
123.707
21
-73.6662
0
LINE
8
BLACK
6
CONTINUOUS
10
123.707
20
-73.6662
11
124.065
21
-73.6461
0
LINE
8
BLACK
6
CONTINUOUS
10
124.065
20
-73.6461
11
124.423
21
-73.6662
0
LINE
8
BLACK
6
CONTINUOUS
10
73.9583
20
-36.4091
11
74.3121
21
-36.4692
0
LINE
8
BLACK
6
CONTINUOUS
10
74.3121
20
-36.4692
11
74.6569
21
-36.5686
0
LINE
8
BLACK
6
CONTINUOUS
10
74.6569
20
-36.5686
11
74.9884
21
-36.7059
0
LINE
8
BLACK
6
CONTINUOUS
10
74.9884
20
-36.7059
11
75.3025
21
-36.8795
0
LINE
8
BLACK
6
CONTINUOUS
10
75.3025
20
-36.8795
11
75.5952
21
-37.0871
0
LINE
8
BLACK
6
CONTINUOUS
10
75.5952
20
-37.0871
11
75.8627
21
-37.3263
0
LINE
8
BLACK
6
CONTINUOUS
10
75.8627
20
-37.3263
11
76.1019
21
-37.5938
0
LINE
8
BLACK
6
CONTINUOUS
10
76.1019
20
-37.5938
11
76.3095
21
-37.8865
0
LINE
8
BLACK
6
CONTINUOUS
10
76.3095
20
-37.8865
11
76.4831
21
-38.2006
0
LINE
8
BLACK
6
CONTINUOUS
10
76.4831
20
-38.2006
11
76.6204
21
-38.5321
0
LINE
8
BLACK
6
CONTINUOUS
10
76.6204
20
-38.5321
11
76.7198
21
-38.8769
0
LINE
8
BLACK
6
CONTINUOUS
10
76.7198
20
-38.8769
11
76.7799
21
-39.2307
0
LINE
8
BLACK
6
CONTINUOUS
10
76.7799
20
-39.2307
11
76.8
21
-39.589
0
LINE
8
BLACK
6
CONTINUOUS
10
76.8
20
-39.589
11
76.7799
21
-39.9473
0
LINE
8
BLACK
6
CONTINUOUS
10
76.7799
20
-39.9473
11
76.7198
21
-40.3011
0
LINE
8
BLACK
6
CONTINUOUS
10
76.7198
20
-40.3011
11
76.6204
21
-40.6459
0
LINE
8
BLACK
6
CONTINUOUS
10
76.6204
20
-40.6459
11
76.4831
21
-40.9774
0
LINE
8
BLACK
6
CONTINUOUS
10
76.4831
20
-40.9774
11
76.3095
21
-41.2915
0
LINE
8
BLACK
6
CONTINUOUS
10
76.3095
20
-41.2915
11
76.1019
21
-41.5842
0
LINE
8
BLACK
6
CONTINUOUS
10
76.1019
20
-41.5842
11
75.8627
21
-41.8517
0
LINE
8
BLACK
6
CONTINUOUS
10
75.8627
20
-41.8517
11
75.5952
21
-42.0909
0
LINE
8
BLACK
6
CONTINUOUS
10
75.5952
20
-42.0909
11
75.3025
21
-42.2985
0
LINE
8
BLACK
6
CONTINUOUS
10
75.3025
20
-42.2985
11
74.9884
21
-42.4721
0
LINE
8
BLACK
6
CONTINUOUS
10
74.9884
20
-42.4721
11
74.6569
21
-42.6094
0
LINE
8
BLACK
6
CONTINUOUS
10
74.6569
20
-42.6094
11
74.3121
21
-42.7088
0
LINE
8
BLACK
6
CONTINUOUS
10
74.3121
20
-42.7088
11
73.9583
21
-42.7689
0
LINE
8
BLACK
6
CONTINUOUS
10
73.9583
20
-42.7689
11
73.6
21
-42.789
0
LINE
8
BLACK
6
CONTINUOUS
10
73.6
20
-42.789
11
73.2417
21
-42.7689
0
LINE
8
BLACK
6
CONTINUOUS
10
73.2417
20
-42.7689
11
72.8879
21
-42.7088
0
LINE
8
BLACK
6
CONTINUOUS
10
72.8879
20
-42.7088
11
72.5431
21
-42.6094
0
LINE
8
BLACK
6
CONTINUOUS
10
72.5431
20
-42.6094
11
72.2116
21
-42.4721
0
LINE
8
BLACK
6
CONTINUOUS
10
72.2116
20
-42.4721
11
71.8975
21
-42.2985
0
LINE
8
BLACK
6
CONTINUOUS
10
71.8975
20
-42.2985
11
71.6048
21
-42.0909
0
LINE
8
BLACK
6
CONTINUOUS
10
71.6048
20
-42.0909
11
71.3373
21
-41.8517
0
LINE
8
BLACK
6
CONTINUOUS
10
71.3373
20
-41.8517
11
71.0981
21
-41.5842
0
LINE
8
BLACK
6
CONTINUOUS
10
71.0981
20
-41.5842
11
70.8905
21
-41.2915
0
LINE
8
BLACK
6
CONTINUOUS
10
70.8905
20
-41.2915
11
70.7169
21
-40.9774
0
LINE
8
BLACK
6
CONTINUOUS
10
70.7169
20
-40.9774
11
70.5796
21
-40.6459
0
LINE
8
BLACK
6
CONTINUOUS
10
70.5796
20
-40.6459
11
70.4802
21
-40.3011
0
LINE
8
BLACK
6
CONTINUOUS
10
70.4802
20
-40.3011
11
70.4201
21
-39.9473
0
LINE
8
BLACK
6
CONTINUOUS
10
70.4201
20
-39.9473
11
70.4
21
-39.589
0
LINE
8
BLACK
6
CONTINUOUS
10
70.4
20
-39.589
11
70.4201
21
-39.2307
0
LINE
8
BLACK
6
CONTINUOUS
10
70.4201
20
-39.2307
11
70.4802
21
-38.8769
0
LINE
8
BLACK
6
CONTINUOUS
10
70.4802
20
-38.8769
11
70.5796
21
-38.5321
0
LINE
8
BLACK
6
CONTINUOUS
10
70.5796
20
-38.5321
11
70.7169
21
-38.2006
0
LINE
8
BLACK
6
CONTINUOUS
10
70.7169
20
-38.2006
11
70.8905
21
-37.8865
0
LINE
8
BLACK
6
CONTINUOUS
10
70.8905
20
-37.8865
11
71.0981
21
-37.5938
0
LINE
8
BLACK
6
CONTINUOUS
10
71.0981
20
-37.5938
11
71.3373
21
-37.3263
0
LINE
8
BLACK
6
CONTINUOUS
10
71.3373
20
-37.3263
11
71.6048
21
-37.0871
0
LINE
8
BLACK
6
CONTINUOUS
10
71.6048
20
-37.0871
11
71.8975
21
-36.8795
0
LINE
8
BLACK
6
CONTINUOUS
10
71.8975
20
-36.8795
11
72.2116
21
-36.7059
0
LINE
8
BLACK
6
CONTINUOUS
10
72.2116
20
-36.7059
11
72.5431
21
-36.5686
0
LINE
8
BLACK
6
CONTINUOUS
10
72.5431
20
-36.5686
11
72.8879
21
-36.4692
0
LINE
8
BLACK
6
CONTINUOUS
10
72.8879
20
-36.4692
11
73.2417
21
-36.4091
0
LINE
8
BLACK
6
CONTINUOUS
10
73.2417
20
-36.4091
11
73.6
21
-36.389
0
LINE
8
BLACK
6
CONTINUOUS
10
73.6
20
-36.389
11
73.9583
21
-36.4091
0
CIRCLE
8
BLACK
10
71.2
20
-39.589
40
0.25
0
CIRCLE
8
BLACK
10
71.9029
20
-37.8919
40
0.25
0
CIRCLE
8
BLACK
10
71.9029
20
-41.2861
40
0.25
0
CIRCLE
8
BLACK
10
73.6
20
-37.189
40
0.25
0
CIRCLE
8
BLACK
10
73.6
20
-39.589
40
1.6
0
CIRCLE
8
BLACK
10
73.6
20
-41.989
40
0.25
0
CIRCLE
8
BLACK
10
75.2971
20
-37.8919
40
0.25
0
CIRCLE
8
BLACK
10
75.2971
20
-41.2861
40
0.25
0
CIRCLE
8
BLACK
10
76
20
-39.589
40
0.25
0
CIRCLE
8
BLACK
10
121.665
20
-76.8461
40
0.25
0
CIRCLE
8
BLACK
10
122.368
20
-75.149
40
0.25
0
CIRCLE
8
BLACK
10
122.368
20
-78.5431
40
0.25
0
CIRCLE
8
BLACK
10
124.065
20
-74.4461
40
0.25
0
CIRCLE
8
BLACK
10
124.065
20
-76.8461
40
1.6
0
CIRCLE
8
BLACK
10
124.065
20
-79.2461
40
0.25
0
CIRCLE
8
BLACK
10
125.762
20
-75.149
40
0.25
0
CIRCLE
8
BLACK
10
125.762
20
-78.5431
40
0.25
0
CIRCLE
8
BLACK
10
126.465
20
-76.8461
40
0.25
0
CIRCLE
8
BLACK
10
124.29
20
-39.36
40
0.475
0
CIRCLE
8
BLACK
10
124.29
20
-41.86
40
0.475
0
CIRCLE
8
BLACK
10
124.29
20
-44.36
40
0.475
0
CIRCLE
8
BLACK
10
124.29
20
-46.86
40
0.475
0
CIRCLE
8
BLACK
10
124.29
20
-49.36
40
0.475
0
CIRCLE
8
BLACK
10
104.74
20
-83.58
40
0.5
0
CIRCLE
8
BLACK
10
104.74
20
-86.12
40
0.5
0
CIRCLE
8
BLACK
10
102.2
20
-83.58
40
0.5
0
CIRCLE
8
BLACK
10
102.2
20
-86.12
40
0.5
0
CIRCLE
8
BLACK
10
99.66
20
-83.58
40
0.5
0
CIRCLE
8
BLACK
10
99.66
20
-86.12
40
0.5
0
CIRCLE
8
BLACK
10
94.79
20
-38.945
40
0.5
0
CIRCLE
8
BLACK
10
97.29
20
-38.945
40
0.5
0
CIRCLE
8
BLACK
10
109.8
20
-84.72
40
0.475
0
CIRCLE
8
BLACK
10
112.3
20
-84.72
40
0.475
0
CIRCLE
8
BLACK
10
114.8
20
-84.72
40
0.475
0
CIRCLE
8
BLACK
10
117.3
20
-84.72
40
0.475
0
CIRCLE
8
BLACK
10
119.8
20
-84.72
40
0.475
0
CIRCLE
8
BLACK
10
91.2
20
-84.72
40
0.5
0
CIRCLE
8
BLACK
10
93.7
20
-84.72
40
0.5
0
CIRCLE
8
BLACK
10
77.2
20
-84.72
40
0.475
0
CIRCLE
8
BLACK
10
79.7
20
-84.72
40
0.475
0
CIRCLE
8
BLACK
10
82.2
20
-84.72
40
0.475
0
CIRCLE
8
BLACK
10
84.7
20
-84.72
40
0.475
0
CIRCLE
8
BLACK
10
72.1
20
-71.94
40
0.5
0
CIRCLE
8
BLACK
10
72.1
20
-74.48
40
0.5
0
CIRCLE
8
BLACK
10
72.1
20
-77.02
40
0.5
0
CIRCLE
8
BLACK
10
81.29
20
-38.955
40
0.475
0
CIRCLE
8
BLACK
10
83.79
20
-38.955
40
0.475
0
CIRCLE
8
BLACK
10
86.29
20
-38.955
40
0.475
0
CIRCLE
8
BLACK
10
88.79
20
-38.955
40
0.475
  0
ENDSEC
  0
EOF
