  0
SECTION
  2
HEADER
  9
$ANGBASE
  50
0.0
  9
$ANGDIR
  70
1
  9
$MEASUREMENT
  70
1
  0
ENDSEC
  0
SECTION
  2
TABLES
  0
TABLE
  2
LTYPE
  70
4
  0
LTYPE
  5
40F
  2
CONTINUOUS
  70
0
  3
Solid line
  72
65
  73
0
  40
0.0
  0
LTYPE
  5
410
  2
DASHDOT
 70
0
  3
Dash Dot ____ _ ____ _
 72
65
 73
4
 40
2.0
 49
1.25
 49
-0.25
 49
0.25
 49
-0.25
  0
LTYPE
  5
411
  2
DASHED
 70
0
  3
Dashed __ __ __ __ __
 72
65
 73
2
 40
0.75
 49
0.5
 49
-0.25
  0
LTYPE
  5
43B
  2
DOTTED
 70
0
  3
Dotted .  .  .  .
 72
65
 73
2
 40
0.2
 49
0.0
 49
-0.2
  0
ENDTAB
  0
TABLE
  2
STYLE
  70
4
  0
STYLE
  2
KICAD
  70
0
  40
0
  41
1
  42
1
  50
0
  71
0
  3
isocp.shx
  0
STYLE
  2
KICADB
  70
0
  40
0
  41
1
  42
1
  50
0
  71
0
  3
isocp.shx
  0
STYLE
  2
KICADI
  70
0
  40
0
  41
1
  42
1
  50
15
  71
0
  3
isocp.shx
  0
STYLE
  2
KICADBI
  70
0
  40
0
  41
1
  42
1
  50
15
  71
0
  3
isocp.shx
  0
ENDTAB
  0
TABLE
  2
LAYER
  70
1
  0
LAYER
  2
BLACK
  70
0
  62
7
  6
CONTINUOUS
  0
ENDTAB
  0
ENDSEC
  0
SECTION
  2
ENTITIES
0
CIRCLE
8
BLACK
10
71.2
20
-39.589
40
0.25
0
CIRCLE
8
BLACK
10
71.9029
20
-37.8919
40
0.25
0
CIRCLE
8
BLACK
10
71.9029
20
-41.2861
40
0.25
0
CIRCLE
8
BLACK
10
73.6
20
-37.189
40
0.25
0
CIRCLE
8
BLACK
10
73.6
20
-39.589
40
1.6
0
CIRCLE
8
BLACK
10
73.6
20
-41.989
40
0.25
0
CIRCLE
8
BLACK
10
75.2971
20
-37.8919
40
0.25
0
CIRCLE
8
BLACK
10
75.2971
20
-41.2861
40
0.25
0
CIRCLE
8
BLACK
10
76
20
-39.589
40
0.25
0
CIRCLE
8
BLACK
10
121.665
20
-76.8461
40
0.25
0
CIRCLE
8
BLACK
10
122.368
20
-75.149
40
0.25
0
CIRCLE
8
BLACK
10
122.368
20
-78.5431
40
0.25
0
CIRCLE
8
BLACK
10
124.065
20
-74.4461
40
0.25
0
CIRCLE
8
BLACK
10
124.065
20
-76.8461
40
1.6
0
CIRCLE
8
BLACK
10
124.065
20
-79.2461
40
0.25
0
CIRCLE
8
BLACK
10
125.762
20
-75.149
40
0.25
0
CIRCLE
8
BLACK
10
125.762
20
-78.5431
40
0.25
0
CIRCLE
8
BLACK
10
126.465
20
-76.8461
40
0.25
0
CIRCLE
8
BLACK
10
124.29
20
-39.36
40
0.475
0
CIRCLE
8
BLACK
10
124.29
20
-41.86
40
0.475
0
CIRCLE
8
BLACK
10
124.29
20
-44.36
40
0.475
0
CIRCLE
8
BLACK
10
124.29
20
-46.86
40
0.475
0
CIRCLE
8
BLACK
10
124.29
20
-49.36
40
0.475
0
CIRCLE
8
BLACK
10
104.74
20
-83.58
40
0.5
0
CIRCLE
8
BLACK
10
104.74
20
-86.12
40
0.5
0
CIRCLE
8
BLACK
10
102.2
20
-83.58
40
0.5
0
CIRCLE
8
BLACK
10
102.2
20
-86.12
40
0.5
0
CIRCLE
8
BLACK
10
99.66
20
-83.58
40
0.5
0
CIRCLE
8
BLACK
10
99.66
20
-86.12
40
0.5
0
CIRCLE
8
BLACK
10
94.79
20
-38.945
40
0.5
0
CIRCLE
8
BLACK
10
97.29
20
-38.945
40
0.5
0
CIRCLE
8
BLACK
10
109.8
20
-84.72
40
0.475
0
CIRCLE
8
BLACK
10
112.3
20
-84.72
40
0.475
0
CIRCLE
8
BLACK
10
114.8
20
-84.72
40
0.475
0
CIRCLE
8
BLACK
10
117.3
20
-84.72
40
0.475
0
CIRCLE
8
BLACK
10
119.8
20
-84.72
40
0.475
0
CIRCLE
8
BLACK
10
91.2
20
-84.72
40
0.5
0
CIRCLE
8
BLACK
10
93.7
20
-84.72
40
0.5
0
CIRCLE
8
BLACK
10
77.2
20
-84.72
40
0.475
0
CIRCLE
8
BLACK
10
79.7
20
-84.72
40
0.475
0
CIRCLE
8
BLACK
10
82.2
20
-84.72
40
0.475
0
CIRCLE
8
BLACK
10
84.7
20
-84.72
40
0.475
0
CIRCLE
8
BLACK
10
72.1
20
-71.94
40
0.5
0
CIRCLE
8
BLACK
10
72.1
20
-74.48
40
0.5
0
CIRCLE
8
BLACK
10
72.1
20
-77.02
40
0.5
0
CIRCLE
8
BLACK
10
81.29
20
-38.955
40
0.475
0
CIRCLE
8
BLACK
10
83.79
20
-38.955
40
0.475
0
CIRCLE
8
BLACK
10
86.29
20
-38.955
40
0.475
0
CIRCLE
8
BLACK
10
88.79
20
-38.955
40
0.475
  0
ENDSEC
  0
EOF
