%TF.GenerationSoftware,KiCad,Pcbnew,7.0.8*%
%TF.CreationDate,2023-12-29T15:21:52+01:00*%
%TF.ProjectId,Programmer,50726f67-7261-46d6-9d65-722e6b696361,rev?*%
%TF.SameCoordinates,Original*%
%TF.FileFunction,Legend,Top*%
%TF.FilePolarity,Positive*%
%FSLAX46Y46*%
G04 Gerber Fmt 4.6, Leading zero omitted, Abs format (unit mm)*
G04 Created by KiCad (PCBNEW 7.0.8) date 2023-12-29 15:21:52*
%MOMM*%
%LPD*%
G01*
G04 APERTURE LIST*
%ADD10C,0.150000*%
%ADD11C,0.120000*%
G04 APERTURE END LIST*
D10*
X72838095Y-35843819D02*
X72838095Y-34843819D01*
X72838095Y-35320009D02*
X73409523Y-35320009D01*
X73409523Y-35843819D02*
X73409523Y-34843819D01*
X74409523Y-35843819D02*
X73838095Y-35843819D01*
X74123809Y-35843819D02*
X74123809Y-34843819D01*
X74123809Y-34843819D02*
X74028571Y-34986676D01*
X74028571Y-34986676D02*
X73933333Y-35081914D01*
X73933333Y-35081914D02*
X73838095Y-35129533D01*
X127294819Y-44693333D02*
X128009104Y-44693333D01*
X128009104Y-44693333D02*
X128151961Y-44740952D01*
X128151961Y-44740952D02*
X128247200Y-44836190D01*
X128247200Y-44836190D02*
X128294819Y-44979047D01*
X128294819Y-44979047D02*
X128294819Y-45074285D01*
X127294819Y-43788571D02*
X127294819Y-43979047D01*
X127294819Y-43979047D02*
X127342438Y-44074285D01*
X127342438Y-44074285D02*
X127390057Y-44121904D01*
X127390057Y-44121904D02*
X127532914Y-44217142D01*
X127532914Y-44217142D02*
X127723390Y-44264761D01*
X127723390Y-44264761D02*
X128104342Y-44264761D01*
X128104342Y-44264761D02*
X128199580Y-44217142D01*
X128199580Y-44217142D02*
X128247200Y-44169523D01*
X128247200Y-44169523D02*
X128294819Y-44074285D01*
X128294819Y-44074285D02*
X128294819Y-43883809D01*
X128294819Y-43883809D02*
X128247200Y-43788571D01*
X128247200Y-43788571D02*
X128199580Y-43740952D01*
X128199580Y-43740952D02*
X128104342Y-43693333D01*
X128104342Y-43693333D02*
X127866247Y-43693333D01*
X127866247Y-43693333D02*
X127771009Y-43740952D01*
X127771009Y-43740952D02*
X127723390Y-43788571D01*
X127723390Y-43788571D02*
X127675771Y-43883809D01*
X127675771Y-43883809D02*
X127675771Y-44074285D01*
X127675771Y-44074285D02*
X127723390Y-44169523D01*
X127723390Y-44169523D02*
X127771009Y-44217142D01*
X127771009Y-44217142D02*
X127866247Y-44264761D01*
X106464819Y-89568333D02*
X107179104Y-89568333D01*
X107179104Y-89568333D02*
X107321961Y-89615952D01*
X107321961Y-89615952D02*
X107417200Y-89711190D01*
X107417200Y-89711190D02*
X107464819Y-89854047D01*
X107464819Y-89854047D02*
X107464819Y-89949285D01*
X107464819Y-88568333D02*
X107464819Y-89139761D01*
X107464819Y-88854047D02*
X106464819Y-88854047D01*
X106464819Y-88854047D02*
X106607676Y-88949285D01*
X106607676Y-88949285D02*
X106702914Y-89044523D01*
X106702914Y-89044523D02*
X106750533Y-89139761D01*
X95706666Y-34849819D02*
X95706666Y-35564104D01*
X95706666Y-35564104D02*
X95659047Y-35706961D01*
X95659047Y-35706961D02*
X95563809Y-35802200D01*
X95563809Y-35802200D02*
X95420952Y-35849819D01*
X95420952Y-35849819D02*
X95325714Y-35849819D01*
X96135238Y-34945057D02*
X96182857Y-34897438D01*
X96182857Y-34897438D02*
X96278095Y-34849819D01*
X96278095Y-34849819D02*
X96516190Y-34849819D01*
X96516190Y-34849819D02*
X96611428Y-34897438D01*
X96611428Y-34897438D02*
X96659047Y-34945057D01*
X96659047Y-34945057D02*
X96706666Y-35040295D01*
X96706666Y-35040295D02*
X96706666Y-35135533D01*
X96706666Y-35135533D02*
X96659047Y-35278390D01*
X96659047Y-35278390D02*
X96087619Y-35849819D01*
X96087619Y-35849819D02*
X96706666Y-35849819D01*
X114466666Y-80674819D02*
X114466666Y-81389104D01*
X114466666Y-81389104D02*
X114419047Y-81531961D01*
X114419047Y-81531961D02*
X114323809Y-81627200D01*
X114323809Y-81627200D02*
X114180952Y-81674819D01*
X114180952Y-81674819D02*
X114085714Y-81674819D01*
X114847619Y-80674819D02*
X115466666Y-80674819D01*
X115466666Y-80674819D02*
X115133333Y-81055771D01*
X115133333Y-81055771D02*
X115276190Y-81055771D01*
X115276190Y-81055771D02*
X115371428Y-81103390D01*
X115371428Y-81103390D02*
X115419047Y-81151009D01*
X115419047Y-81151009D02*
X115466666Y-81246247D01*
X115466666Y-81246247D02*
X115466666Y-81484342D01*
X115466666Y-81484342D02*
X115419047Y-81579580D01*
X115419047Y-81579580D02*
X115371428Y-81627200D01*
X115371428Y-81627200D02*
X115276190Y-81674819D01*
X115276190Y-81674819D02*
X114990476Y-81674819D01*
X114990476Y-81674819D02*
X114895238Y-81627200D01*
X114895238Y-81627200D02*
X114847619Y-81579580D01*
X92116666Y-80674819D02*
X92116666Y-81389104D01*
X92116666Y-81389104D02*
X92069047Y-81531961D01*
X92069047Y-81531961D02*
X91973809Y-81627200D01*
X91973809Y-81627200D02*
X91830952Y-81674819D01*
X91830952Y-81674819D02*
X91735714Y-81674819D01*
X92735714Y-81103390D02*
X92640476Y-81055771D01*
X92640476Y-81055771D02*
X92592857Y-81008152D01*
X92592857Y-81008152D02*
X92545238Y-80912914D01*
X92545238Y-80912914D02*
X92545238Y-80865295D01*
X92545238Y-80865295D02*
X92592857Y-80770057D01*
X92592857Y-80770057D02*
X92640476Y-80722438D01*
X92640476Y-80722438D02*
X92735714Y-80674819D01*
X92735714Y-80674819D02*
X92926190Y-80674819D01*
X92926190Y-80674819D02*
X93021428Y-80722438D01*
X93021428Y-80722438D02*
X93069047Y-80770057D01*
X93069047Y-80770057D02*
X93116666Y-80865295D01*
X93116666Y-80865295D02*
X93116666Y-80912914D01*
X93116666Y-80912914D02*
X93069047Y-81008152D01*
X93069047Y-81008152D02*
X93021428Y-81055771D01*
X93021428Y-81055771D02*
X92926190Y-81103390D01*
X92926190Y-81103390D02*
X92735714Y-81103390D01*
X92735714Y-81103390D02*
X92640476Y-81151009D01*
X92640476Y-81151009D02*
X92592857Y-81198628D01*
X92592857Y-81198628D02*
X92545238Y-81293866D01*
X92545238Y-81293866D02*
X92545238Y-81484342D01*
X92545238Y-81484342D02*
X92592857Y-81579580D01*
X92592857Y-81579580D02*
X92640476Y-81627200D01*
X92640476Y-81627200D02*
X92735714Y-81674819D01*
X92735714Y-81674819D02*
X92926190Y-81674819D01*
X92926190Y-81674819D02*
X93021428Y-81627200D01*
X93021428Y-81627200D02*
X93069047Y-81579580D01*
X93069047Y-81579580D02*
X93116666Y-81484342D01*
X93116666Y-81484342D02*
X93116666Y-81293866D01*
X93116666Y-81293866D02*
X93069047Y-81198628D01*
X93069047Y-81198628D02*
X93021428Y-81151009D01*
X93021428Y-81151009D02*
X92926190Y-81103390D01*
X80616666Y-80674819D02*
X80616666Y-81389104D01*
X80616666Y-81389104D02*
X80569047Y-81531961D01*
X80569047Y-81531961D02*
X80473809Y-81627200D01*
X80473809Y-81627200D02*
X80330952Y-81674819D01*
X80330952Y-81674819D02*
X80235714Y-81674819D01*
X80997619Y-80674819D02*
X81664285Y-80674819D01*
X81664285Y-80674819D02*
X81235714Y-81674819D01*
X84706666Y-34859819D02*
X84706666Y-35574104D01*
X84706666Y-35574104D02*
X84659047Y-35716961D01*
X84659047Y-35716961D02*
X84563809Y-35812200D01*
X84563809Y-35812200D02*
X84420952Y-35859819D01*
X84420952Y-35859819D02*
X84325714Y-35859819D01*
X85611428Y-35193152D02*
X85611428Y-35859819D01*
X85373333Y-34812200D02*
X85135238Y-35526485D01*
X85135238Y-35526485D02*
X85754285Y-35526485D01*
D11*
%TO.C,J6*%
X127040000Y-36510000D02*
X125790000Y-36510000D01*
X126750000Y-36800000D02*
X120780000Y-36800000D01*
X120780000Y-36800000D02*
X120780000Y-51920000D01*
X126740000Y-36810000D02*
X125990000Y-36810000D01*
X125990000Y-36810000D02*
X125990000Y-38610000D01*
X124490000Y-36810000D02*
X124490000Y-37560000D01*
X124490000Y-37560000D02*
X121540000Y-37560000D01*
X121540000Y-37560000D02*
X121540000Y-44360000D01*
X127040000Y-37760000D02*
X127040000Y-36510000D01*
X126740000Y-38610000D02*
X126740000Y-36810000D01*
X125990000Y-38610000D02*
X126740000Y-38610000D01*
X126740000Y-40110000D02*
X125990000Y-40110000D01*
X125990000Y-40110000D02*
X125990000Y-48610000D01*
X126740000Y-48610000D02*
X126740000Y-40110000D01*
X125990000Y-48610000D02*
X126740000Y-48610000D01*
X126740000Y-50110000D02*
X125990000Y-50110000D01*
X125990000Y-50110000D02*
X125990000Y-51910000D01*
X124490000Y-51160000D02*
X121540000Y-51160000D01*
X121540000Y-51160000D02*
X121540000Y-44360000D01*
X126740000Y-51910000D02*
X126740000Y-50110000D01*
X125990000Y-51910000D02*
X126740000Y-51910000D01*
X124490000Y-51910000D02*
X124490000Y-51160000D01*
X126750000Y-51920000D02*
X126750000Y-36800000D01*
X120780000Y-51920000D02*
X126750000Y-51920000D01*
%TO.C,J1*%
X106010000Y-82310000D02*
X106010000Y-83580000D01*
X104740000Y-82310000D02*
X106010000Y-82310000D01*
X102580000Y-84622929D02*
X102580000Y-85077071D01*
X101820000Y-84622929D02*
X101820000Y-85077071D01*
X100040000Y-84622929D02*
X100040000Y-85077071D01*
X99280000Y-84622929D02*
X99280000Y-85077071D01*
X105120000Y-84690000D02*
X105120000Y-85077071D01*
X104360000Y-84690000D02*
X104360000Y-85077071D01*
X105120000Y-87162929D02*
X105120000Y-87560000D01*
X104360000Y-87162929D02*
X104360000Y-87560000D01*
X102580000Y-87162929D02*
X102580000Y-87560000D01*
X101820000Y-87162929D02*
X101820000Y-87560000D01*
X100040000Y-87162929D02*
X100040000Y-87560000D01*
X99280000Y-87162929D02*
X99280000Y-87560000D01*
X106070000Y-87560000D02*
X98330000Y-87560000D01*
X103470000Y-87560000D02*
X103470000Y-90220000D01*
X100930000Y-87560000D02*
X100930000Y-90220000D01*
X98330000Y-87560000D02*
X98330000Y-90220000D01*
X106070000Y-90220000D02*
X106070000Y-87560000D01*
X105120000Y-90220000D02*
X105120000Y-96220000D01*
X105060000Y-90220000D02*
X105060000Y-96220000D01*
X104940000Y-90220000D02*
X104940000Y-96220000D01*
X104820000Y-90220000D02*
X104820000Y-96220000D01*
X104700000Y-90220000D02*
X104700000Y-96220000D01*
X104580000Y-90220000D02*
X104580000Y-96220000D01*
X104460000Y-90220000D02*
X104460000Y-96220000D01*
X102580000Y-90220000D02*
X102580000Y-96220000D01*
X100040000Y-90220000D02*
X100040000Y-96220000D01*
X98330000Y-90220000D02*
X106070000Y-90220000D01*
X105120000Y-96220000D02*
X104360000Y-96220000D01*
X104360000Y-96220000D02*
X104360000Y-90220000D01*
X102580000Y-96220000D02*
X101820000Y-96220000D01*
X101820000Y-96220000D02*
X101820000Y-90220000D01*
X100040000Y-96220000D02*
X99280000Y-96220000D01*
X99280000Y-96220000D02*
X99280000Y-90220000D01*
%TO.C,J2*%
X91940000Y-36195000D02*
X91940000Y-37445000D01*
X92230000Y-36485000D02*
X92230000Y-42455000D01*
X92230000Y-42455000D02*
X99850000Y-42455000D01*
X92240000Y-36495000D02*
X92240000Y-37245000D01*
X92240000Y-37245000D02*
X94040000Y-37245000D01*
X92240000Y-38745000D02*
X92990000Y-38745000D01*
X92990000Y-38745000D02*
X92990000Y-41695000D01*
X92990000Y-41695000D02*
X96040000Y-41695000D01*
X93190000Y-36195000D02*
X91940000Y-36195000D01*
X94040000Y-36495000D02*
X92240000Y-36495000D01*
X94040000Y-37245000D02*
X94040000Y-36495000D01*
X95540000Y-36495000D02*
X95540000Y-37245000D01*
X95540000Y-37245000D02*
X96540000Y-37245000D01*
X96540000Y-36495000D02*
X95540000Y-36495000D01*
X96540000Y-37245000D02*
X96540000Y-36495000D01*
X98040000Y-36495000D02*
X98040000Y-37245000D01*
X98040000Y-37245000D02*
X99840000Y-37245000D01*
X99090000Y-38745000D02*
X99090000Y-41695000D01*
X99090000Y-41695000D02*
X96040000Y-41695000D01*
X99840000Y-36495000D02*
X98040000Y-36495000D01*
X99840000Y-37245000D02*
X99840000Y-36495000D01*
X99840000Y-38745000D02*
X99090000Y-38745000D01*
X99850000Y-36485000D02*
X92230000Y-36485000D01*
X99850000Y-42455000D02*
X99850000Y-36485000D01*
%TO.C,J3*%
X107240000Y-82310000D02*
X108660000Y-82310000D01*
X107240000Y-94030000D02*
X107240000Y-82310000D01*
X108660000Y-82310000D02*
X108660000Y-86810000D01*
X108660000Y-86810000D02*
X114800000Y-86810000D01*
X109500000Y-82620000D02*
X110100000Y-82620000D01*
X109550000Y-87920000D02*
X109550000Y-93420000D01*
X109550000Y-93420000D02*
X110050000Y-93420000D01*
X109800000Y-83220000D02*
X109500000Y-82620000D01*
X110050000Y-87920000D02*
X109550000Y-87920000D01*
X110050000Y-93420000D02*
X110050000Y-87920000D01*
X110100000Y-82620000D02*
X109800000Y-83220000D01*
X112050000Y-87920000D02*
X112050000Y-93420000D01*
X112050000Y-93420000D02*
X112550000Y-93420000D01*
X112550000Y-87920000D02*
X112050000Y-87920000D01*
X112550000Y-93420000D02*
X112550000Y-87920000D01*
X114550000Y-87920000D02*
X114550000Y-93420000D01*
X114550000Y-93420000D02*
X115050000Y-93420000D01*
X114800000Y-94030000D02*
X107240000Y-94030000D01*
X114800000Y-94030000D02*
X122360000Y-94030000D01*
X115050000Y-87920000D02*
X114550000Y-87920000D01*
X115050000Y-93420000D02*
X115050000Y-87920000D01*
X117050000Y-87920000D02*
X117050000Y-93420000D01*
X117050000Y-93420000D02*
X117550000Y-93420000D01*
X117550000Y-87920000D02*
X117050000Y-87920000D01*
X117550000Y-93420000D02*
X117550000Y-87920000D01*
X119550000Y-87920000D02*
X119550000Y-93420000D01*
X119550000Y-93420000D02*
X120050000Y-93420000D01*
X120050000Y-87920000D02*
X119550000Y-87920000D01*
X120050000Y-93420000D02*
X120050000Y-87920000D01*
X120940000Y-82310000D02*
X120940000Y-86810000D01*
X120940000Y-86810000D02*
X114800000Y-86810000D01*
X122360000Y-82310000D02*
X120940000Y-82310000D01*
X122360000Y-94030000D02*
X122360000Y-82310000D01*
%TO.C,J8*%
X88640000Y-82310000D02*
X90060000Y-82310000D01*
X88640000Y-94030000D02*
X88640000Y-82310000D01*
X90060000Y-82310000D02*
X90060000Y-86810000D01*
X90060000Y-86810000D02*
X92450000Y-86810000D01*
X90900000Y-82620000D02*
X91500000Y-82620000D01*
X90950000Y-87920000D02*
X90950000Y-93420000D01*
X90950000Y-93420000D02*
X91450000Y-93420000D01*
X91200000Y-83220000D02*
X90900000Y-82620000D01*
X91450000Y-87920000D02*
X90950000Y-87920000D01*
X91450000Y-93420000D02*
X91450000Y-87920000D01*
X91500000Y-82620000D02*
X91200000Y-83220000D01*
X92450000Y-94030000D02*
X88640000Y-94030000D01*
X92450000Y-94030000D02*
X96260000Y-94030000D01*
X93450000Y-87920000D02*
X93450000Y-93420000D01*
X93450000Y-93420000D02*
X93950000Y-93420000D01*
X93950000Y-87920000D02*
X93450000Y-87920000D01*
X93950000Y-93420000D02*
X93950000Y-87920000D01*
X94840000Y-82310000D02*
X94840000Y-86810000D01*
X94840000Y-86810000D02*
X92450000Y-86810000D01*
X96260000Y-82310000D02*
X94840000Y-82310000D01*
X96260000Y-94030000D02*
X96260000Y-82310000D01*
%TO.C,J7*%
X74640000Y-82310000D02*
X76060000Y-82310000D01*
X74640000Y-94030000D02*
X74640000Y-82310000D01*
X76060000Y-82310000D02*
X76060000Y-86810000D01*
X76060000Y-86810000D02*
X80950000Y-86810000D01*
X76900000Y-82620000D02*
X77500000Y-82620000D01*
X76950000Y-87920000D02*
X76950000Y-93420000D01*
X76950000Y-93420000D02*
X77450000Y-93420000D01*
X77200000Y-83220000D02*
X76900000Y-82620000D01*
X77450000Y-87920000D02*
X76950000Y-87920000D01*
X77450000Y-93420000D02*
X77450000Y-87920000D01*
X77500000Y-82620000D02*
X77200000Y-83220000D01*
X79450000Y-87920000D02*
X79450000Y-93420000D01*
X79450000Y-93420000D02*
X79950000Y-93420000D01*
X79950000Y-87920000D02*
X79450000Y-87920000D01*
X79950000Y-93420000D02*
X79950000Y-87920000D01*
X80950000Y-94030000D02*
X74640000Y-94030000D01*
X80950000Y-94030000D02*
X87260000Y-94030000D01*
X81950000Y-87920000D02*
X81950000Y-93420000D01*
X81950000Y-93420000D02*
X82450000Y-93420000D01*
X82450000Y-87920000D02*
X81950000Y-87920000D01*
X82450000Y-93420000D02*
X82450000Y-87920000D01*
X84450000Y-87920000D02*
X84450000Y-93420000D01*
X84450000Y-93420000D02*
X84950000Y-93420000D01*
X84950000Y-87920000D02*
X84450000Y-87920000D01*
X84950000Y-93420000D02*
X84950000Y-87920000D01*
X85840000Y-82310000D02*
X85840000Y-86810000D01*
X85840000Y-86810000D02*
X80950000Y-86810000D01*
X87260000Y-82310000D02*
X85840000Y-82310000D01*
X87260000Y-94030000D02*
X87260000Y-82310000D01*
%TO.C,J5*%
X70770000Y-70610000D02*
X72100000Y-70610000D01*
X70770000Y-71940000D02*
X70770000Y-70610000D01*
X70770000Y-73210000D02*
X70770000Y-78350000D01*
X70770000Y-73210000D02*
X73430000Y-73210000D01*
X70770000Y-78350000D02*
X73430000Y-78350000D01*
X73430000Y-73210000D02*
X73430000Y-78350000D01*
%TO.C,J4*%
X78440000Y-36205000D02*
X78440000Y-37455000D01*
X78730000Y-36495000D02*
X78730000Y-42465000D01*
X78730000Y-42465000D02*
X91350000Y-42465000D01*
X78740000Y-36505000D02*
X78740000Y-37255000D01*
X78740000Y-37255000D02*
X80540000Y-37255000D01*
X78740000Y-38755000D02*
X79490000Y-38755000D01*
X79490000Y-38755000D02*
X79490000Y-41705000D01*
X79490000Y-41705000D02*
X85040000Y-41705000D01*
X79690000Y-36205000D02*
X78440000Y-36205000D01*
X80540000Y-36505000D02*
X78740000Y-36505000D01*
X80540000Y-37255000D02*
X80540000Y-36505000D01*
X82040000Y-36505000D02*
X82040000Y-37255000D01*
X82040000Y-37255000D02*
X88040000Y-37255000D01*
X88040000Y-36505000D02*
X82040000Y-36505000D01*
X88040000Y-37255000D02*
X88040000Y-36505000D01*
X89540000Y-36505000D02*
X89540000Y-37255000D01*
X89540000Y-37255000D02*
X91340000Y-37255000D01*
X90590000Y-38755000D02*
X90590000Y-41705000D01*
X90590000Y-41705000D02*
X85040000Y-41705000D01*
X91340000Y-36505000D02*
X89540000Y-36505000D01*
X91340000Y-37255000D02*
X91340000Y-36505000D01*
X91340000Y-38755000D02*
X90590000Y-38755000D01*
X91350000Y-36495000D02*
X78730000Y-36495000D01*
X91350000Y-42465000D02*
X91350000Y-36495000D01*
%TD*%
M02*
