%TF.GenerationSoftware,KiCad,Pcbnew,7.0.8*%
%TF.CreationDate,2023-12-29T15:21:52+01:00*%
%TF.ProjectId,Programmer,50726f67-7261-46d6-9d65-722e6b696361,rev?*%
%TF.SameCoordinates,Original*%
%TF.FileFunction,Copper,L1,Top*%
%TF.FilePolarity,Positive*%
%FSLAX46Y46*%
G04 Gerber Fmt 4.6, Leading zero omitted, Abs format (unit mm)*
G04 Created by KiCad (PCBNEW 7.0.8) date 2023-12-29 15:21:52*
%MOMM*%
%LPD*%
G01*
G04 APERTURE LIST*
G04 Aperture macros list*
%AMRoundRect*
0 Rectangle with rounded corners*
0 $1 Rounding radius*
0 $2 $3 $4 $5 $6 $7 $8 $9 X,Y pos of 4 corners*
0 Add a 4 corners polygon primitive as box body*
4,1,4,$2,$3,$4,$5,$6,$7,$8,$9,$2,$3,0*
0 Add four circle primitives for the rounded corners*
1,1,$1+$1,$2,$3*
1,1,$1+$1,$4,$5*
1,1,$1+$1,$6,$7*
1,1,$1+$1,$8,$9*
0 Add four rect primitives between the rounded corners*
20,1,$1+$1,$2,$3,$4,$5,0*
20,1,$1+$1,$4,$5,$6,$7,0*
20,1,$1+$1,$6,$7,$8,$9,0*
20,1,$1+$1,$8,$9,$2,$3,0*%
G04 Aperture macros list end*
%TA.AperFunction,ComponentPad*%
%ADD10C,0.800000*%
%TD*%
%TA.AperFunction,ComponentPad*%
%ADD11C,6.400000*%
%TD*%
%TA.AperFunction,ComponentPad*%
%ADD12RoundRect,0.250000X-0.725000X0.600000X-0.725000X-0.600000X0.725000X-0.600000X0.725000X0.600000X0*%
%TD*%
%TA.AperFunction,ComponentPad*%
%ADD13O,1.950000X1.700000*%
%TD*%
%TA.AperFunction,ComponentPad*%
%ADD14R,1.700000X1.700000*%
%TD*%
%TA.AperFunction,ComponentPad*%
%ADD15O,1.700000X1.700000*%
%TD*%
%TA.AperFunction,ComponentPad*%
%ADD16RoundRect,0.250000X-0.600000X-0.750000X0.600000X-0.750000X0.600000X0.750000X-0.600000X0.750000X0*%
%TD*%
%TA.AperFunction,ComponentPad*%
%ADD17O,1.700000X2.000000*%
%TD*%
%TA.AperFunction,ComponentPad*%
%ADD18RoundRect,0.250000X-0.600000X-0.725000X0.600000X-0.725000X0.600000X0.725000X-0.600000X0.725000X0*%
%TD*%
%TA.AperFunction,ComponentPad*%
%ADD19O,1.700000X1.950000*%
%TD*%
%TA.AperFunction,Conductor*%
%ADD20C,0.250000*%
%TD*%
G04 APERTURE END LIST*
D10*
%TO.P,H1,1,1*%
%TO.N,unconnected-(H1-Pad1)*%
X71200000Y-39589000D03*
X71902944Y-37891944D03*
X71902944Y-41286056D03*
X73600000Y-37189000D03*
D11*
X73600000Y-39589000D03*
D10*
X73600000Y-41989000D03*
X75297056Y-37891944D03*
X75297056Y-41286056D03*
X76000000Y-39589000D03*
%TD*%
%TO.P,H2,1,1*%
%TO.N,unconnected-(H2-Pad1)*%
X121665056Y-76846056D03*
X122368000Y-75149000D03*
X122368000Y-78543112D03*
X124065056Y-74446056D03*
D11*
X124065056Y-76846056D03*
D10*
X124065056Y-79246056D03*
X125762112Y-75149000D03*
X125762112Y-78543112D03*
X126465056Y-76846056D03*
%TD*%
D12*
%TO.P,J6,1,Pin_1*%
%TO.N,+3V3*%
X124290000Y-39360000D03*
D13*
%TO.P,J6,2,Pin_2*%
%TO.N,GND*%
X124290000Y-41860000D03*
%TO.P,J6,3,Pin_3*%
%TO.N,RXD*%
X124290000Y-44360000D03*
%TO.P,J6,4,Pin_4*%
%TO.N,TXD*%
X124290000Y-46860000D03*
%TO.P,J6,5,Pin_5*%
%TO.N,RESET*%
X124290000Y-49360000D03*
%TD*%
D14*
%TO.P,J1,1,Pin_1*%
%TO.N,UPDI*%
X104740000Y-83580000D03*
D15*
%TO.P,J1,2,Pin_2*%
%TO.N,+3V3*%
X104740000Y-86120000D03*
%TO.P,J1,3,Pin_3*%
%TO.N,unconnected-(J1-Pin_3-Pad3)*%
X102200000Y-83580000D03*
%TO.P,J1,4,Pin_4*%
%TO.N,unconnected-(J1-Pin_4-Pad4)*%
X102200000Y-86120000D03*
%TO.P,J1,5,Pin_5*%
%TO.N,unconnected-(J1-Pin_5-Pad5)*%
X99660000Y-83580000D03*
%TO.P,J1,6,Pin_6*%
%TO.N,GND*%
X99660000Y-86120000D03*
%TD*%
D16*
%TO.P,J2,1,Pin_1*%
%TO.N,KEY*%
X94790000Y-38945000D03*
D17*
%TO.P,J2,2,Pin_2*%
%TO.N,GND*%
X97290000Y-38945000D03*
%TD*%
D18*
%TO.P,J3,1,Pin_1*%
%TO.N,+3V3*%
X109800000Y-84720000D03*
D19*
%TO.P,J3,2,Pin_2*%
%TO.N,GND*%
X112300000Y-84720000D03*
%TO.P,J3,3,Pin_3*%
%TO.N,RXD*%
X114800000Y-84720000D03*
%TO.P,J3,4,Pin_4*%
%TO.N,TXD*%
X117300000Y-84720000D03*
%TO.P,J3,5,Pin_5*%
%TO.N,RESET*%
X119800000Y-84720000D03*
%TD*%
D16*
%TO.P,J8,1,Pin_1*%
%TO.N,KEY*%
X91200000Y-84720000D03*
D17*
%TO.P,J8,2,Pin_2*%
%TO.N,GND*%
X93700000Y-84720000D03*
%TD*%
D18*
%TO.P,J7,1,Pin_1*%
%TO.N,+12V*%
X77200000Y-84720000D03*
D19*
%TO.P,J7,2,Pin_2*%
%TO.N,GND*%
X79700000Y-84720000D03*
%TO.P,J7,3,Pin_3*%
%TO.N,INSTR.BEL*%
X82200000Y-84720000D03*
%TO.P,J7,4,Pin_4*%
%TO.N,GND*%
X84700000Y-84720000D03*
%TD*%
D14*
%TO.P,J5,1,Pin_1*%
%TO.N,+3V3*%
X72100000Y-71940000D03*
D15*
%TO.P,J5,2,Pin_2*%
%TO.N,UPDI*%
X72100000Y-74480000D03*
%TO.P,J5,3,Pin_3*%
%TO.N,GND*%
X72100000Y-77020000D03*
%TD*%
D18*
%TO.P,J4,1,Pin_1*%
%TO.N,+12V*%
X81290000Y-38955000D03*
D19*
%TO.P,J4,2,Pin_2*%
%TO.N,GND*%
X83790000Y-38955000D03*
%TO.P,J4,3,Pin_3*%
%TO.N,INSTR.BEL*%
X86290000Y-38955000D03*
%TO.P,J4,4,Pin_4*%
%TO.N,GND*%
X88790000Y-38955000D03*
%TD*%
D20*
%TO.N,RESET*%
X119800000Y-84720000D02*
X119800000Y-50120000D01*
X120560000Y-49360000D02*
X124290000Y-49360000D01*
X119800000Y-50120000D02*
X120560000Y-49360000D01*
%TO.N,TXD*%
X119060000Y-46860000D02*
X124290000Y-46860000D01*
X117300000Y-84720000D02*
X117300000Y-48620000D01*
X117300000Y-48620000D02*
X119060000Y-46860000D01*
%TO.N,RXD*%
X114800000Y-84720000D02*
X114800000Y-47920000D01*
X114800000Y-47920000D02*
X118360000Y-44360000D01*
X118360000Y-44360000D02*
X124290000Y-44360000D01*
%TO.N,UPDI*%
X104740000Y-79860000D02*
X104740000Y-83580000D01*
X72100000Y-74480000D02*
X99360000Y-74480000D01*
X99360000Y-74480000D02*
X104740000Y-79860000D01*
%TO.N,+3V3*%
X107600000Y-84720000D02*
X109800000Y-84720000D01*
X72100000Y-71940000D02*
X109780000Y-71940000D01*
X109780000Y-71940000D02*
X109800000Y-71920000D01*
X109800000Y-84720000D02*
X109800000Y-71920000D01*
X113760000Y-39360000D02*
X124290000Y-39360000D01*
X109800000Y-71920000D02*
X109800000Y-43320000D01*
X106200000Y-86120000D02*
X107600000Y-84720000D01*
X109800000Y-43320000D02*
X113760000Y-39360000D01*
X104740000Y-86120000D02*
X106200000Y-86120000D01*
%TD*%
%TA.AperFunction,Conductor*%
%TO.N,GND*%
G36*
X73037936Y-35955502D02*
G01*
X73084429Y-36009158D01*
X73094533Y-36079432D01*
X73065039Y-36144012D01*
X73005313Y-36182396D01*
X72996901Y-36184554D01*
X72674473Y-36255525D01*
X72674456Y-36255530D01*
X72319480Y-36375135D01*
X72319468Y-36375140D01*
X71979511Y-36532422D01*
X71979504Y-36532426D01*
X71658533Y-36725548D01*
X71658527Y-36725552D01*
X71360319Y-36952243D01*
X71360304Y-36952256D01*
X71088364Y-37209852D01*
X70845859Y-37495352D01*
X70845857Y-37495355D01*
X70635639Y-37805403D01*
X70635636Y-37805408D01*
X70635635Y-37805410D01*
X70460175Y-38136365D01*
X70460171Y-38136374D01*
X70321524Y-38484352D01*
X70221307Y-38845298D01*
X70160706Y-39214953D01*
X70140426Y-39588996D01*
X70140426Y-39589003D01*
X70160706Y-39963046D01*
X70221307Y-40332701D01*
X70321524Y-40693647D01*
X70460176Y-41041637D01*
X70635639Y-41372597D01*
X70845857Y-41682645D01*
X70845859Y-41682647D01*
X71088364Y-41968147D01*
X71360304Y-42225743D01*
X71360319Y-42225756D01*
X71658532Y-42452451D01*
X71979506Y-42645575D01*
X72102615Y-42702531D01*
X72319468Y-42802859D01*
X72319480Y-42802864D01*
X72674466Y-42922473D01*
X73040303Y-43002999D01*
X73412702Y-43043500D01*
X73412710Y-43043500D01*
X73787290Y-43043500D01*
X73787298Y-43043500D01*
X74159697Y-43002999D01*
X74525534Y-42922473D01*
X74880520Y-42802864D01*
X75220494Y-42645575D01*
X75541468Y-42452451D01*
X75839681Y-42225756D01*
X76111635Y-41968147D01*
X76354143Y-41682645D01*
X76564361Y-41372597D01*
X76739824Y-41041637D01*
X76878476Y-40693647D01*
X76978691Y-40332706D01*
X77039294Y-39963046D01*
X77052024Y-39728246D01*
X80185500Y-39728246D01*
X80185502Y-39728270D01*
X80191959Y-39788339D01*
X80191959Y-39788341D01*
X80242657Y-39924266D01*
X80242658Y-39924267D01*
X80329596Y-40040404D01*
X80445733Y-40127342D01*
X80581658Y-40178040D01*
X80641745Y-40184500D01*
X81938254Y-40184499D01*
X81998342Y-40178040D01*
X82134267Y-40127342D01*
X82250404Y-40040404D01*
X82337342Y-39924267D01*
X82388040Y-39788342D01*
X82394500Y-39728255D01*
X82394500Y-39132630D01*
X85185500Y-39132630D01*
X85200525Y-39289969D01*
X85200528Y-39289984D01*
X85259953Y-39492370D01*
X85356607Y-39679851D01*
X85356611Y-39679858D01*
X85486994Y-39845652D01*
X85487006Y-39845665D01*
X85622471Y-39963046D01*
X85646413Y-39983792D01*
X85829087Y-40089259D01*
X86028420Y-40158248D01*
X86028423Y-40158248D01*
X86028425Y-40158249D01*
X86237205Y-40188267D01*
X86237206Y-40188266D01*
X86237207Y-40188267D01*
X86447902Y-40178231D01*
X86652890Y-40128501D01*
X86844762Y-40040876D01*
X87016584Y-39918522D01*
X87162145Y-39765862D01*
X87176679Y-39743246D01*
X93685500Y-39743246D01*
X93685502Y-39743270D01*
X93691959Y-39803339D01*
X93691959Y-39803341D01*
X93742657Y-39939266D01*
X93764515Y-39968465D01*
X93829596Y-40055404D01*
X93945733Y-40142342D01*
X94081658Y-40193040D01*
X94141745Y-40199500D01*
X95438254Y-40199499D01*
X95498342Y-40193040D01*
X95634267Y-40142342D01*
X95750404Y-40055404D01*
X95837342Y-39939267D01*
X95888040Y-39803342D01*
X95894500Y-39743255D01*
X95894499Y-38146746D01*
X95888040Y-38086658D01*
X95837342Y-37950733D01*
X95750404Y-37834596D01*
X95634267Y-37747658D01*
X95634265Y-37747657D01*
X95634266Y-37747657D01*
X95498349Y-37696962D01*
X95498344Y-37696960D01*
X95498342Y-37696960D01*
X95468298Y-37693730D01*
X95438256Y-37690500D01*
X94141753Y-37690500D01*
X94141729Y-37690502D01*
X94081660Y-37696959D01*
X94081658Y-37696959D01*
X93945733Y-37747657D01*
X93829596Y-37834596D01*
X93742657Y-37950734D01*
X93691962Y-38086650D01*
X93691960Y-38086658D01*
X93685500Y-38146737D01*
X93685500Y-39743246D01*
X87176679Y-39743246D01*
X87276184Y-39588413D01*
X87354580Y-39392589D01*
X87394500Y-39185467D01*
X87394500Y-38777387D01*
X87394499Y-38777369D01*
X87379474Y-38620030D01*
X87379473Y-38620028D01*
X87379473Y-38620021D01*
X87320047Y-38417632D01*
X87320046Y-38417631D01*
X87320046Y-38417629D01*
X87223392Y-38230148D01*
X87223388Y-38230141D01*
X87093005Y-38064347D01*
X87093003Y-38064344D01*
X87093000Y-38064341D01*
X87092997Y-38064338D01*
X87092993Y-38064334D01*
X86933592Y-37926212D01*
X86933584Y-37926206D01*
X86834715Y-37869124D01*
X86750913Y-37820741D01*
X86551580Y-37751752D01*
X86551578Y-37751751D01*
X86551574Y-37751750D01*
X86342794Y-37721732D01*
X86132106Y-37731768D01*
X86132095Y-37731769D01*
X85927113Y-37781498D01*
X85927111Y-37781498D01*
X85735236Y-37869125D01*
X85563416Y-37991478D01*
X85563412Y-37991481D01*
X85417851Y-38144142D01*
X85303816Y-38321586D01*
X85303816Y-38321587D01*
X85226092Y-38515734D01*
X85225419Y-38517414D01*
X85185500Y-38724528D01*
X85185500Y-39132630D01*
X82394500Y-39132630D01*
X82394499Y-38181746D01*
X82388040Y-38121658D01*
X82337342Y-37985733D01*
X82250404Y-37869596D01*
X82134267Y-37782658D01*
X82134265Y-37782657D01*
X82134266Y-37782657D01*
X81998349Y-37731962D01*
X81998344Y-37731960D01*
X81998342Y-37731960D01*
X81968298Y-37728730D01*
X81938256Y-37725500D01*
X80641753Y-37725500D01*
X80641729Y-37725502D01*
X80581660Y-37731959D01*
X80581658Y-37731959D01*
X80445733Y-37782657D01*
X80329596Y-37869596D01*
X80242657Y-37985734D01*
X80191962Y-38121650D01*
X80191960Y-38121658D01*
X80185500Y-38181737D01*
X80185500Y-39728246D01*
X77052024Y-39728246D01*
X77059574Y-39589000D01*
X77039294Y-39214954D01*
X76991368Y-38922621D01*
X76978692Y-38845298D01*
X76978691Y-38845294D01*
X76878476Y-38484353D01*
X76739824Y-38136363D01*
X76564361Y-37805403D01*
X76354143Y-37495355D01*
X76269941Y-37396225D01*
X76111635Y-37209852D01*
X75839695Y-36952256D01*
X75839680Y-36952243D01*
X75541472Y-36725552D01*
X75541466Y-36725548D01*
X75220494Y-36532425D01*
X75220488Y-36532422D01*
X74880531Y-36375140D01*
X74880519Y-36375135D01*
X74525543Y-36255530D01*
X74525542Y-36255529D01*
X74525534Y-36255527D01*
X74525529Y-36255525D01*
X74525526Y-36255525D01*
X74203099Y-36184554D01*
X74140871Y-36150376D01*
X74106999Y-36087980D01*
X74112238Y-36017177D01*
X74154925Y-35960446D01*
X74221506Y-35935799D01*
X74230185Y-35935500D01*
X75784928Y-35935500D01*
X78784928Y-35935500D01*
X122184928Y-35935500D01*
X125184928Y-35935500D01*
X127538500Y-35935500D01*
X127606621Y-35955502D01*
X127653114Y-36009158D01*
X127664500Y-36061500D01*
X127664500Y-75972642D01*
X127644498Y-76040763D01*
X127590842Y-76087256D01*
X127520568Y-76097360D01*
X127455988Y-76067866D01*
X127417604Y-76008140D01*
X127417093Y-76006351D01*
X127407734Y-75972642D01*
X127343532Y-75741409D01*
X127204880Y-75393419D01*
X127029417Y-75062459D01*
X126819199Y-74752411D01*
X126734997Y-74653281D01*
X126576691Y-74466908D01*
X126304751Y-74209312D01*
X126304736Y-74209299D01*
X126006528Y-73982608D01*
X126006522Y-73982604D01*
X125685550Y-73789481D01*
X125685544Y-73789478D01*
X125345587Y-73632196D01*
X125345575Y-73632191D01*
X124990599Y-73512586D01*
X124990598Y-73512585D01*
X124990590Y-73512583D01*
X124990585Y-73512581D01*
X124990582Y-73512581D01*
X124624770Y-73432060D01*
X124624741Y-73432055D01*
X124252361Y-73391556D01*
X124252354Y-73391556D01*
X123877758Y-73391556D01*
X123877750Y-73391556D01*
X123505370Y-73432055D01*
X123505341Y-73432060D01*
X123139529Y-73512581D01*
X123139512Y-73512586D01*
X122784536Y-73632191D01*
X122784524Y-73632196D01*
X122444567Y-73789478D01*
X122444560Y-73789482D01*
X122123589Y-73982604D01*
X122123583Y-73982608D01*
X121825375Y-74209299D01*
X121825360Y-74209312D01*
X121553420Y-74466908D01*
X121310915Y-74752408D01*
X121310913Y-74752411D01*
X121100695Y-75062459D01*
X121100692Y-75062464D01*
X121100691Y-75062466D01*
X120925231Y-75393421D01*
X120925227Y-75393430D01*
X120786580Y-75741408D01*
X120686363Y-76102354D01*
X120625762Y-76472009D01*
X120605482Y-76846052D01*
X120605482Y-76846059D01*
X120625762Y-77220102D01*
X120686363Y-77589757D01*
X120721861Y-77717608D01*
X120786580Y-77950703D01*
X120925232Y-78298693D01*
X121100695Y-78629653D01*
X121310913Y-78939701D01*
X121310915Y-78939703D01*
X121553420Y-79225203D01*
X121825360Y-79482799D01*
X121825375Y-79482812D01*
X122123588Y-79709507D01*
X122444562Y-79902631D01*
X122465734Y-79912426D01*
X122784524Y-80059915D01*
X122784536Y-80059920D01*
X123139522Y-80179529D01*
X123505359Y-80260055D01*
X123877758Y-80300556D01*
X123877766Y-80300556D01*
X124252346Y-80300556D01*
X124252354Y-80300556D01*
X124624753Y-80260055D01*
X124990590Y-80179529D01*
X125345576Y-80059920D01*
X125685550Y-79902631D01*
X126006524Y-79709507D01*
X126304737Y-79482812D01*
X126576691Y-79225203D01*
X126819199Y-78939701D01*
X127029417Y-78629653D01*
X127204880Y-78298693D01*
X127343532Y-77950703D01*
X127417093Y-77685759D01*
X127454590Y-77625474D01*
X127518728Y-77595030D01*
X127589144Y-77604095D01*
X127643480Y-77649790D01*
X127664486Y-77717608D01*
X127664500Y-77719469D01*
X127664500Y-88058500D01*
X127644498Y-88126621D01*
X127590842Y-88173114D01*
X127538500Y-88184500D01*
X69941500Y-88184500D01*
X69873379Y-88164498D01*
X69826886Y-88110842D01*
X69815500Y-88058500D01*
X69815500Y-86120004D01*
X101090768Y-86120004D01*
X101109654Y-86323819D01*
X101160403Y-86502182D01*
X101165672Y-86520701D01*
X101256912Y-86703935D01*
X101256913Y-86703936D01*
X101380266Y-86867284D01*
X101531536Y-87005185D01*
X101705566Y-87112940D01*
X101705568Y-87112940D01*
X101705573Y-87112944D01*
X101896444Y-87186888D01*
X102097653Y-87224500D01*
X102097655Y-87224500D01*
X102302345Y-87224500D01*
X102302347Y-87224500D01*
X102503556Y-87186888D01*
X102694427Y-87112944D01*
X102868462Y-87005186D01*
X103019732Y-86867285D01*
X103143088Y-86703935D01*
X103234328Y-86520701D01*
X103290345Y-86323821D01*
X103309232Y-86120000D01*
X103290345Y-85916179D01*
X103234328Y-85719299D01*
X103143088Y-85536065D01*
X103074209Y-85444854D01*
X103019733Y-85372715D01*
X102868463Y-85234814D01*
X102694433Y-85127059D01*
X102694428Y-85127057D01*
X102694427Y-85127056D01*
X102674928Y-85119502D01*
X102503559Y-85053113D01*
X102503560Y-85053113D01*
X102503557Y-85053112D01*
X102503556Y-85053112D01*
X102302347Y-85015500D01*
X102097653Y-85015500D01*
X101896444Y-85053112D01*
X101896439Y-85053113D01*
X101705577Y-85127054D01*
X101705566Y-85127059D01*
X101531536Y-85234814D01*
X101380266Y-85372715D01*
X101256913Y-85536063D01*
X101165671Y-85719301D01*
X101109654Y-85916180D01*
X101090768Y-86119995D01*
X101090768Y-86120004D01*
X69815500Y-86120004D01*
X69815500Y-85493246D01*
X76095500Y-85493246D01*
X76095502Y-85493270D01*
X76101959Y-85553339D01*
X76101959Y-85553341D01*
X76152657Y-85689266D01*
X76174515Y-85718465D01*
X76239596Y-85805404D01*
X76355733Y-85892342D01*
X76491658Y-85943040D01*
X76551745Y-85949500D01*
X77848254Y-85949499D01*
X77908342Y-85943040D01*
X78044267Y-85892342D01*
X78160404Y-85805404D01*
X78247342Y-85689267D01*
X78298040Y-85553342D01*
X78304500Y-85493255D01*
X78304500Y-84897630D01*
X81095500Y-84897630D01*
X81110525Y-85054969D01*
X81110528Y-85054984D01*
X81169953Y-85257370D01*
X81266607Y-85444851D01*
X81266611Y-85444858D01*
X81396994Y-85610652D01*
X81397006Y-85610665D01*
X81556407Y-85748787D01*
X81556413Y-85748792D01*
X81739087Y-85854259D01*
X81938420Y-85923248D01*
X81938423Y-85923248D01*
X81938425Y-85923249D01*
X82147205Y-85953267D01*
X82147206Y-85953266D01*
X82147207Y-85953267D01*
X82357902Y-85943231D01*
X82562890Y-85893501D01*
X82754762Y-85805876D01*
X82926584Y-85683522D01*
X83072145Y-85530862D01*
X83080253Y-85518246D01*
X90095500Y-85518246D01*
X90095502Y-85518270D01*
X90101959Y-85578339D01*
X90101959Y-85578341D01*
X90152657Y-85714266D01*
X90152658Y-85714267D01*
X90239596Y-85830404D01*
X90355733Y-85917342D01*
X90491658Y-85968040D01*
X90551745Y-85974500D01*
X91848254Y-85974499D01*
X91908342Y-85968040D01*
X92044267Y-85917342D01*
X92160404Y-85830404D01*
X92247342Y-85714267D01*
X92298040Y-85578342D01*
X92304500Y-85518255D01*
X92304499Y-83921746D01*
X92298040Y-83861658D01*
X92247342Y-83725733D01*
X92160404Y-83609596D01*
X92120873Y-83580004D01*
X98550768Y-83580004D01*
X98569654Y-83783819D01*
X98608898Y-83921746D01*
X98625672Y-83980701D01*
X98716912Y-84163935D01*
X98716913Y-84163936D01*
X98840266Y-84327284D01*
X98991536Y-84465185D01*
X99165566Y-84572940D01*
X99165568Y-84572940D01*
X99165573Y-84572944D01*
X99356444Y-84646888D01*
X99557653Y-84684500D01*
X99557655Y-84684500D01*
X99762345Y-84684500D01*
X99762347Y-84684500D01*
X99963556Y-84646888D01*
X100154427Y-84572944D01*
X100328462Y-84465186D01*
X100479732Y-84327285D01*
X100603088Y-84163935D01*
X100694328Y-83980701D01*
X100750345Y-83783821D01*
X100764217Y-83634124D01*
X100769232Y-83580004D01*
X101090768Y-83580004D01*
X101109654Y-83783819D01*
X101148898Y-83921746D01*
X101165672Y-83980701D01*
X101256912Y-84163935D01*
X101256913Y-84163936D01*
X101380266Y-84327284D01*
X101531536Y-84465185D01*
X101705566Y-84572940D01*
X101705568Y-84572940D01*
X101705573Y-84572944D01*
X101896444Y-84646888D01*
X102097653Y-84684500D01*
X102097655Y-84684500D01*
X102302345Y-84684500D01*
X102302347Y-84684500D01*
X102503556Y-84646888D01*
X102694427Y-84572944D01*
X102868462Y-84465186D01*
X103019732Y-84327285D01*
X103143088Y-84163935D01*
X103234328Y-83980701D01*
X103290345Y-83783821D01*
X103304217Y-83634124D01*
X103309232Y-83580004D01*
X103309232Y-83579995D01*
X103290345Y-83376180D01*
X103287022Y-83364500D01*
X103234328Y-83179299D01*
X103143088Y-82996065D01*
X103102538Y-82942368D01*
X103019733Y-82832715D01*
X102868463Y-82694814D01*
X102694433Y-82587059D01*
X102694428Y-82587057D01*
X102694427Y-82587056D01*
X102694422Y-82587054D01*
X102503559Y-82513113D01*
X102503560Y-82513113D01*
X102503557Y-82513112D01*
X102503556Y-82513112D01*
X102302347Y-82475500D01*
X102097653Y-82475500D01*
X101896444Y-82513112D01*
X101896439Y-82513113D01*
X101705577Y-82587054D01*
X101705566Y-82587059D01*
X101531536Y-82694814D01*
X101380266Y-82832715D01*
X101256913Y-82996063D01*
X101165671Y-83179301D01*
X101109654Y-83376180D01*
X101090768Y-83579995D01*
X101090768Y-83580004D01*
X100769232Y-83580004D01*
X100769232Y-83579995D01*
X100750345Y-83376180D01*
X100747022Y-83364500D01*
X100694328Y-83179299D01*
X100603088Y-82996065D01*
X100562538Y-82942368D01*
X100479733Y-82832715D01*
X100328463Y-82694814D01*
X100154433Y-82587059D01*
X100154428Y-82587057D01*
X100154427Y-82587056D01*
X100154422Y-82587054D01*
X99963559Y-82513113D01*
X99963560Y-82513113D01*
X99963557Y-82513112D01*
X99963556Y-82513112D01*
X99762347Y-82475500D01*
X99557653Y-82475500D01*
X99356444Y-82513112D01*
X99356439Y-82513113D01*
X99165577Y-82587054D01*
X99165566Y-82587059D01*
X98991536Y-82694814D01*
X98840266Y-82832715D01*
X98716913Y-82996063D01*
X98625671Y-83179301D01*
X98569654Y-83376180D01*
X98550768Y-83579995D01*
X98550768Y-83580004D01*
X92120873Y-83580004D01*
X92044267Y-83522658D01*
X92044265Y-83522657D01*
X92044266Y-83522657D01*
X91908349Y-83471962D01*
X91908344Y-83471960D01*
X91908342Y-83471960D01*
X91870011Y-83467839D01*
X91848256Y-83465500D01*
X90551753Y-83465500D01*
X90551729Y-83465502D01*
X90491660Y-83471959D01*
X90491658Y-83471959D01*
X90355733Y-83522657D01*
X90239596Y-83609596D01*
X90152657Y-83725734D01*
X90101962Y-83861650D01*
X90101960Y-83861658D01*
X90095500Y-83921737D01*
X90095500Y-85518246D01*
X83080253Y-85518246D01*
X83186184Y-85353413D01*
X83264580Y-85157589D01*
X83304500Y-84950467D01*
X83304500Y-84542387D01*
X83304499Y-84542369D01*
X83289474Y-84385030D01*
X83289473Y-84385028D01*
X83289473Y-84385021D01*
X83230047Y-84182632D01*
X83230046Y-84182631D01*
X83230046Y-84182629D01*
X83133392Y-83995148D01*
X83133388Y-83995141D01*
X83003005Y-83829347D01*
X83003003Y-83829344D01*
X83003000Y-83829341D01*
X83002997Y-83829338D01*
X83002993Y-83829334D01*
X82843592Y-83691212D01*
X82843584Y-83691206D01*
X82660916Y-83585743D01*
X82660918Y-83585743D01*
X82660913Y-83585741D01*
X82461580Y-83516752D01*
X82461578Y-83516751D01*
X82461574Y-83516750D01*
X82252794Y-83486732D01*
X82042106Y-83496768D01*
X82042095Y-83496769D01*
X81837113Y-83546498D01*
X81837111Y-83546498D01*
X81645236Y-83634125D01*
X81473416Y-83756478D01*
X81473412Y-83756481D01*
X81327851Y-83909142D01*
X81213816Y-84086586D01*
X81135419Y-84282414D01*
X81095500Y-84489528D01*
X81095500Y-84897630D01*
X78304500Y-84897630D01*
X78304499Y-83946746D01*
X78298040Y-83886658D01*
X78247342Y-83750733D01*
X78160404Y-83634596D01*
X78044267Y-83547658D01*
X78044265Y-83547657D01*
X78044266Y-83547657D01*
X77908349Y-83496962D01*
X77908344Y-83496960D01*
X77908342Y-83496960D01*
X77878298Y-83493730D01*
X77848256Y-83490500D01*
X76551753Y-83490500D01*
X76551729Y-83490502D01*
X76491660Y-83496959D01*
X76491658Y-83496959D01*
X76355733Y-83547657D01*
X76239596Y-83634596D01*
X76152657Y-83750734D01*
X76101962Y-83886650D01*
X76101960Y-83886658D01*
X76095500Y-83946737D01*
X76095500Y-85493246D01*
X69815500Y-85493246D01*
X69815500Y-74480004D01*
X70990768Y-74480004D01*
X71009654Y-74683819D01*
X71029170Y-74752411D01*
X71065672Y-74880701D01*
X71156912Y-75063935D01*
X71156913Y-75063936D01*
X71280266Y-75227284D01*
X71431536Y-75365185D01*
X71605566Y-75472940D01*
X71605568Y-75472940D01*
X71605573Y-75472944D01*
X71796444Y-75546888D01*
X71997653Y-75584500D01*
X71997655Y-75584500D01*
X72202345Y-75584500D01*
X72202347Y-75584500D01*
X72403556Y-75546888D01*
X72594427Y-75472944D01*
X72768462Y-75365186D01*
X72919732Y-75227285D01*
X73043088Y-75063935D01*
X73110111Y-74929334D01*
X73158378Y-74877274D01*
X73222900Y-74859500D01*
X99150616Y-74859500D01*
X99218737Y-74879502D01*
X99239711Y-74896405D01*
X104323595Y-79980289D01*
X104357621Y-80042601D01*
X104360500Y-80069384D01*
X104360500Y-82349500D01*
X104340498Y-82417621D01*
X104286842Y-82464114D01*
X104234500Y-82475500D01*
X103864936Y-82475500D01*
X103864926Y-82475501D01*
X103790699Y-82490265D01*
X103706515Y-82546516D01*
X103650266Y-82630697D01*
X103635500Y-82704930D01*
X103635500Y-84455063D01*
X103635501Y-84455073D01*
X103650265Y-84529300D01*
X103706516Y-84613484D01*
X103790697Y-84669733D01*
X103790699Y-84669734D01*
X103864933Y-84684500D01*
X105615066Y-84684499D01*
X105615069Y-84684498D01*
X105615073Y-84684498D01*
X105664326Y-84674701D01*
X105689301Y-84669734D01*
X105773484Y-84613484D01*
X105829734Y-84529301D01*
X105844500Y-84455067D01*
X105844499Y-82704934D01*
X105844498Y-82704930D01*
X105844498Y-82704926D01*
X105829734Y-82630699D01*
X105773483Y-82546515D01*
X105689302Y-82490266D01*
X105615069Y-82475500D01*
X105615067Y-82475500D01*
X105245500Y-82475500D01*
X105177379Y-82455498D01*
X105130886Y-82401842D01*
X105119500Y-82349500D01*
X105119500Y-79912426D01*
X105122182Y-79886566D01*
X105124419Y-79875900D01*
X105119983Y-79840317D01*
X105119500Y-79832525D01*
X105119500Y-79828556D01*
X105115616Y-79805284D01*
X105108752Y-79750219D01*
X105108752Y-79750217D01*
X105108750Y-79750213D01*
X105106487Y-79742611D01*
X105103900Y-79735078D01*
X105103900Y-79735073D01*
X105090062Y-79709503D01*
X105077502Y-79686293D01*
X105053125Y-79636430D01*
X105048521Y-79629982D01*
X105043621Y-79623686D01*
X105002813Y-79586119D01*
X99665419Y-74248725D01*
X99649029Y-74228542D01*
X99643068Y-74219418D01*
X99643067Y-74219417D01*
X99614770Y-74197393D01*
X99608923Y-74192229D01*
X99606113Y-74189419D01*
X99606112Y-74189418D01*
X99606111Y-74189417D01*
X99606109Y-74189416D01*
X99586906Y-74175705D01*
X99543120Y-74141625D01*
X99536140Y-74137848D01*
X99528977Y-74134346D01*
X99475818Y-74118520D01*
X99423326Y-74100499D01*
X99415504Y-74099194D01*
X99407589Y-74098207D01*
X99352175Y-74100500D01*
X73222900Y-74100500D01*
X73154779Y-74080498D01*
X73110111Y-74030665D01*
X73043088Y-73896065D01*
X73043086Y-73896062D01*
X72919733Y-73732715D01*
X72768463Y-73594814D01*
X72594433Y-73487059D01*
X72594428Y-73487057D01*
X72594427Y-73487056D01*
X72594422Y-73487054D01*
X72403559Y-73413113D01*
X72403560Y-73413113D01*
X72403557Y-73413112D01*
X72403556Y-73413112D01*
X72202347Y-73375500D01*
X71997653Y-73375500D01*
X71796444Y-73413112D01*
X71796439Y-73413113D01*
X71605577Y-73487054D01*
X71605566Y-73487059D01*
X71431536Y-73594814D01*
X71280266Y-73732715D01*
X71156913Y-73896063D01*
X71065671Y-74079301D01*
X71009654Y-74276180D01*
X70990768Y-74479995D01*
X70990768Y-74480004D01*
X69815500Y-74480004D01*
X69815500Y-72815063D01*
X70995500Y-72815063D01*
X70995501Y-72815073D01*
X71010265Y-72889300D01*
X71066516Y-72973484D01*
X71150697Y-73029733D01*
X71150699Y-73029734D01*
X71224933Y-73044500D01*
X72975066Y-73044499D01*
X72975069Y-73044498D01*
X72975073Y-73044498D01*
X73024326Y-73034701D01*
X73049301Y-73029734D01*
X73133484Y-72973484D01*
X73189734Y-72889301D01*
X73204500Y-72815067D01*
X73204500Y-72445500D01*
X73224502Y-72377379D01*
X73278158Y-72330886D01*
X73330500Y-72319500D01*
X109294500Y-72319500D01*
X109362621Y-72339502D01*
X109409114Y-72393158D01*
X109420500Y-72445500D01*
X109420500Y-83364500D01*
X109400498Y-83432621D01*
X109346842Y-83479114D01*
X109294501Y-83490500D01*
X109151753Y-83490500D01*
X109151729Y-83490502D01*
X109091660Y-83496959D01*
X109091658Y-83496959D01*
X108955733Y-83547657D01*
X108839596Y-83634596D01*
X108752657Y-83750734D01*
X108701962Y-83886650D01*
X108701960Y-83886658D01*
X108695500Y-83946737D01*
X108695500Y-84214500D01*
X108675498Y-84282621D01*
X108621842Y-84329114D01*
X108569500Y-84340500D01*
X107652427Y-84340500D01*
X107626568Y-84337818D01*
X107615898Y-84335580D01*
X107592593Y-84338486D01*
X107580316Y-84340016D01*
X107572526Y-84340500D01*
X107568553Y-84340500D01*
X107553041Y-84343088D01*
X107545284Y-84344383D01*
X107533077Y-84345904D01*
X107490218Y-84351247D01*
X107482610Y-84353512D01*
X107475072Y-84356100D01*
X107426294Y-84382497D01*
X107376432Y-84406873D01*
X107369978Y-84411481D01*
X107363685Y-84416380D01*
X107363684Y-84416380D01*
X107363684Y-84416381D01*
X107326119Y-84457186D01*
X106079709Y-85703596D01*
X106017399Y-85737620D01*
X105990616Y-85740500D01*
X105862900Y-85740500D01*
X105794779Y-85720498D01*
X105750111Y-85670665D01*
X105683088Y-85536065D01*
X105650765Y-85493262D01*
X105559733Y-85372715D01*
X105408463Y-85234814D01*
X105234433Y-85127059D01*
X105234428Y-85127057D01*
X105234427Y-85127056D01*
X105214928Y-85119502D01*
X105043559Y-85053113D01*
X105043560Y-85053113D01*
X105043557Y-85053112D01*
X105043556Y-85053112D01*
X104842347Y-85015500D01*
X104637653Y-85015500D01*
X104436444Y-85053112D01*
X104436439Y-85053113D01*
X104245577Y-85127054D01*
X104245566Y-85127059D01*
X104071536Y-85234814D01*
X103920266Y-85372715D01*
X103796913Y-85536063D01*
X103705671Y-85719301D01*
X103649654Y-85916180D01*
X103630768Y-86119995D01*
X103630768Y-86120004D01*
X103649654Y-86323819D01*
X103700403Y-86502182D01*
X103705672Y-86520701D01*
X103796912Y-86703935D01*
X103796913Y-86703936D01*
X103920266Y-86867284D01*
X104071536Y-87005185D01*
X104245566Y-87112940D01*
X104245568Y-87112940D01*
X104245573Y-87112944D01*
X104436444Y-87186888D01*
X104637653Y-87224500D01*
X104637655Y-87224500D01*
X104842345Y-87224500D01*
X104842347Y-87224500D01*
X105043556Y-87186888D01*
X105234427Y-87112944D01*
X105408462Y-87005186D01*
X105559732Y-86867285D01*
X105683088Y-86703935D01*
X105750111Y-86569334D01*
X105798378Y-86517274D01*
X105862900Y-86499500D01*
X106147573Y-86499500D01*
X106173431Y-86502181D01*
X106184100Y-86504419D01*
X106219683Y-86499983D01*
X106227474Y-86499500D01*
X106231436Y-86499500D01*
X106231443Y-86499500D01*
X106254715Y-86495616D01*
X106309783Y-86488752D01*
X106309784Y-86488751D01*
X106309788Y-86488751D01*
X106317386Y-86486488D01*
X106324924Y-86483901D01*
X106324925Y-86483900D01*
X106324927Y-86483900D01*
X106373705Y-86457502D01*
X106423568Y-86433126D01*
X106423571Y-86433123D01*
X106430018Y-86428520D01*
X106436312Y-86423622D01*
X106436313Y-86423620D01*
X106436316Y-86423619D01*
X106473880Y-86382813D01*
X107720289Y-85136405D01*
X107782601Y-85102379D01*
X107809384Y-85099500D01*
X108569501Y-85099500D01*
X108637622Y-85119502D01*
X108684115Y-85173158D01*
X108695501Y-85225500D01*
X108695501Y-85493246D01*
X108695502Y-85493270D01*
X108701959Y-85553339D01*
X108701959Y-85553341D01*
X108752657Y-85689266D01*
X108774515Y-85718465D01*
X108839596Y-85805404D01*
X108955733Y-85892342D01*
X109091658Y-85943040D01*
X109151745Y-85949500D01*
X110448254Y-85949499D01*
X110508342Y-85943040D01*
X110644267Y-85892342D01*
X110760404Y-85805404D01*
X110847342Y-85689267D01*
X110898040Y-85553342D01*
X110904500Y-85493255D01*
X110904500Y-84897630D01*
X113695500Y-84897630D01*
X113710525Y-85054969D01*
X113710528Y-85054984D01*
X113769953Y-85257370D01*
X113866607Y-85444851D01*
X113866611Y-85444858D01*
X113996994Y-85610652D01*
X113997006Y-85610665D01*
X114156407Y-85748787D01*
X114156413Y-85748792D01*
X114339087Y-85854259D01*
X114538420Y-85923248D01*
X114538423Y-85923248D01*
X114538425Y-85923249D01*
X114747205Y-85953267D01*
X114747206Y-85953266D01*
X114747207Y-85953267D01*
X114957902Y-85943231D01*
X115162890Y-85893501D01*
X115354762Y-85805876D01*
X115526584Y-85683522D01*
X115672145Y-85530862D01*
X115786184Y-85353413D01*
X115864580Y-85157589D01*
X115904500Y-84950467D01*
X115904500Y-84897630D01*
X116195500Y-84897630D01*
X116210525Y-85054969D01*
X116210528Y-85054984D01*
X116269953Y-85257370D01*
X116366607Y-85444851D01*
X116366611Y-85444858D01*
X116496994Y-85610652D01*
X116497006Y-85610665D01*
X116656407Y-85748787D01*
X116656413Y-85748792D01*
X116839087Y-85854259D01*
X117038420Y-85923248D01*
X117038423Y-85923248D01*
X117038425Y-85923249D01*
X117247205Y-85953267D01*
X117247206Y-85953266D01*
X117247207Y-85953267D01*
X117457902Y-85943231D01*
X117662890Y-85893501D01*
X117854762Y-85805876D01*
X118026584Y-85683522D01*
X118172145Y-85530862D01*
X118286184Y-85353413D01*
X118364580Y-85157589D01*
X118404500Y-84950467D01*
X118404500Y-84897630D01*
X118695500Y-84897630D01*
X118710525Y-85054969D01*
X118710528Y-85054984D01*
X118769953Y-85257370D01*
X118866607Y-85444851D01*
X118866611Y-85444858D01*
X118996994Y-85610652D01*
X118997006Y-85610665D01*
X119156407Y-85748787D01*
X119156413Y-85748792D01*
X119339087Y-85854259D01*
X119538420Y-85923248D01*
X119538423Y-85923248D01*
X119538425Y-85923249D01*
X119747205Y-85953267D01*
X119747206Y-85953266D01*
X119747207Y-85953267D01*
X119957902Y-85943231D01*
X120162890Y-85893501D01*
X120354762Y-85805876D01*
X120526584Y-85683522D01*
X120672145Y-85530862D01*
X120786184Y-85353413D01*
X120864580Y-85157589D01*
X120904500Y-84950467D01*
X120904500Y-84542387D01*
X120904499Y-84542369D01*
X120889474Y-84385030D01*
X120889473Y-84385028D01*
X120889473Y-84385021D01*
X120830047Y-84182632D01*
X120830046Y-84182631D01*
X120830046Y-84182629D01*
X120733392Y-83995148D01*
X120733388Y-83995141D01*
X120603005Y-83829347D01*
X120603003Y-83829344D01*
X120603000Y-83829341D01*
X120602997Y-83829338D01*
X120602993Y-83829334D01*
X120443592Y-83691212D01*
X120443584Y-83691206D01*
X120260916Y-83585743D01*
X120260913Y-83585741D01*
X120260907Y-83585739D01*
X120255453Y-83583248D01*
X120256356Y-83581269D01*
X120206436Y-83545700D01*
X120180067Y-83479782D01*
X120179500Y-83467839D01*
X120179500Y-50329384D01*
X120199502Y-50261263D01*
X120216405Y-50240289D01*
X120680289Y-49776405D01*
X120742601Y-49742379D01*
X120769384Y-49739500D01*
X123043109Y-49739500D01*
X123111230Y-49759502D01*
X123157722Y-49813157D01*
X123184174Y-49871078D01*
X123204124Y-49914762D01*
X123326478Y-50086584D01*
X123479138Y-50232145D01*
X123479140Y-50232146D01*
X123479142Y-50232148D01*
X123549236Y-50277194D01*
X123656587Y-50346184D01*
X123852411Y-50424580D01*
X124059533Y-50464500D01*
X124059537Y-50464500D01*
X124467613Y-50464500D01*
X124467630Y-50464499D01*
X124624969Y-50449474D01*
X124624969Y-50449473D01*
X124624979Y-50449473D01*
X124827368Y-50390047D01*
X125014854Y-50293391D01*
X125180659Y-50163000D01*
X125318792Y-50003587D01*
X125424259Y-49820913D01*
X125493248Y-49621580D01*
X125523267Y-49412793D01*
X125513231Y-49202098D01*
X125463501Y-48997110D01*
X125375876Y-48805238D01*
X125253522Y-48633416D01*
X125100862Y-48487855D01*
X125100859Y-48487853D01*
X125100857Y-48487851D01*
X124923413Y-48373816D01*
X124901959Y-48365227D01*
X124727589Y-48295420D01*
X124727586Y-48295419D01*
X124727585Y-48295419D01*
X124520471Y-48255500D01*
X124520467Y-48255500D01*
X124112387Y-48255500D01*
X124112369Y-48255500D01*
X123955030Y-48270525D01*
X123955015Y-48270528D01*
X123752629Y-48329953D01*
X123565148Y-48426607D01*
X123565141Y-48426611D01*
X123399347Y-48556994D01*
X123399334Y-48557006D01*
X123261212Y-48716407D01*
X123261206Y-48716415D01*
X123155743Y-48899083D01*
X123153248Y-48904547D01*
X123151260Y-48903639D01*
X123115740Y-48953533D01*
X123049832Y-48979928D01*
X123037840Y-48980500D01*
X120612422Y-48980500D01*
X120586564Y-48977818D01*
X120583806Y-48977239D01*
X120575898Y-48975581D01*
X120553756Y-48978342D01*
X120540321Y-48980016D01*
X120532533Y-48980500D01*
X120528557Y-48980500D01*
X120505274Y-48984385D01*
X120450215Y-48991248D01*
X120442622Y-48993508D01*
X120435072Y-48996100D01*
X120386294Y-49022497D01*
X120336432Y-49046873D01*
X120329978Y-49051481D01*
X120323685Y-49056380D01*
X120286119Y-49097186D01*
X119568724Y-49814580D01*
X119548551Y-49830964D01*
X119539419Y-49836930D01*
X119539416Y-49836933D01*
X119517394Y-49865227D01*
X119512231Y-49871073D01*
X119511285Y-49872019D01*
X119509415Y-49873890D01*
X119495705Y-49893093D01*
X119461628Y-49936876D01*
X119457835Y-49943884D01*
X119454346Y-49951022D01*
X119438520Y-50004182D01*
X119420499Y-50056673D01*
X119419194Y-50064495D01*
X119418207Y-50072410D01*
X119420500Y-50127825D01*
X119420500Y-83473108D01*
X119400498Y-83541229D01*
X119346844Y-83587721D01*
X119245238Y-83634124D01*
X119073416Y-83756478D01*
X119073412Y-83756481D01*
X118927851Y-83909142D01*
X118813816Y-84086586D01*
X118735419Y-84282414D01*
X118695500Y-84489528D01*
X118695500Y-84897630D01*
X118404500Y-84897630D01*
X118404500Y-84542387D01*
X118404499Y-84542369D01*
X118389474Y-84385030D01*
X118389473Y-84385028D01*
X118389473Y-84385021D01*
X118330047Y-84182632D01*
X118330046Y-84182631D01*
X118330046Y-84182629D01*
X118233392Y-83995148D01*
X118233388Y-83995141D01*
X118103005Y-83829347D01*
X118103003Y-83829344D01*
X118103000Y-83829341D01*
X118102997Y-83829338D01*
X118102993Y-83829334D01*
X117943592Y-83691212D01*
X117943584Y-83691206D01*
X117760916Y-83585743D01*
X117760913Y-83585741D01*
X117760907Y-83585739D01*
X117755453Y-83583248D01*
X117756356Y-83581269D01*
X117706436Y-83545700D01*
X117680067Y-83479782D01*
X117679500Y-83467839D01*
X117679500Y-48829384D01*
X117699502Y-48761263D01*
X117716405Y-48740289D01*
X119180289Y-47276405D01*
X119242601Y-47242379D01*
X119269384Y-47239500D01*
X123043109Y-47239500D01*
X123111230Y-47259502D01*
X123157722Y-47313157D01*
X123192266Y-47388797D01*
X123204124Y-47414762D01*
X123326478Y-47586584D01*
X123479138Y-47732145D01*
X123479140Y-47732146D01*
X123479142Y-47732148D01*
X123508511Y-47751022D01*
X123656587Y-47846184D01*
X123852411Y-47924580D01*
X124059533Y-47964500D01*
X124059537Y-47964500D01*
X124467613Y-47964500D01*
X124467630Y-47964499D01*
X124624969Y-47949474D01*
X124624969Y-47949473D01*
X124624979Y-47949473D01*
X124827368Y-47890047D01*
X125014854Y-47793391D01*
X125180659Y-47663000D01*
X125318792Y-47503587D01*
X125424259Y-47320913D01*
X125493248Y-47121580D01*
X125523267Y-46912793D01*
X125513231Y-46702098D01*
X125463501Y-46497110D01*
X125375876Y-46305238D01*
X125253522Y-46133416D01*
X125100862Y-45987855D01*
X125100859Y-45987853D01*
X125100857Y-45987851D01*
X124923413Y-45873816D01*
X124813848Y-45829953D01*
X124727589Y-45795420D01*
X124727586Y-45795419D01*
X124727585Y-45795419D01*
X124520471Y-45755500D01*
X124520467Y-45755500D01*
X124112387Y-45755500D01*
X124112369Y-45755500D01*
X123955030Y-45770525D01*
X123955015Y-45770528D01*
X123752629Y-45829953D01*
X123565148Y-45926607D01*
X123565141Y-45926611D01*
X123399347Y-46056994D01*
X123399334Y-46057006D01*
X123261212Y-46216407D01*
X123261206Y-46216415D01*
X123155743Y-46399083D01*
X123153248Y-46404547D01*
X123151260Y-46403639D01*
X123115740Y-46453533D01*
X123049832Y-46479928D01*
X123037840Y-46480500D01*
X119112427Y-46480500D01*
X119086568Y-46477818D01*
X119075898Y-46475580D01*
X119052593Y-46478486D01*
X119040316Y-46480016D01*
X119032526Y-46480500D01*
X119028556Y-46480500D01*
X119016919Y-46482441D01*
X119005282Y-46484383D01*
X119000702Y-46484954D01*
X118950215Y-46491247D01*
X118942624Y-46493507D01*
X118935071Y-46496100D01*
X118900811Y-46514640D01*
X118886289Y-46522500D01*
X118873959Y-46528527D01*
X118836437Y-46546870D01*
X118829970Y-46551487D01*
X118823685Y-46556380D01*
X118786119Y-46597186D01*
X117068724Y-48314580D01*
X117048551Y-48330964D01*
X117039419Y-48336930D01*
X117039416Y-48336933D01*
X117017394Y-48365227D01*
X117012231Y-48371073D01*
X117011285Y-48372019D01*
X117009415Y-48373890D01*
X116995705Y-48393093D01*
X116961628Y-48436876D01*
X116957835Y-48443884D01*
X116954346Y-48451022D01*
X116938520Y-48504182D01*
X116920499Y-48556673D01*
X116919194Y-48564495D01*
X116918207Y-48572410D01*
X116920500Y-48627825D01*
X116920500Y-83473108D01*
X116900498Y-83541229D01*
X116846844Y-83587721D01*
X116745238Y-83634124D01*
X116573416Y-83756478D01*
X116573412Y-83756481D01*
X116427851Y-83909142D01*
X116313816Y-84086586D01*
X116235419Y-84282414D01*
X116195500Y-84489528D01*
X116195500Y-84897630D01*
X115904500Y-84897630D01*
X115904500Y-84542387D01*
X115904499Y-84542369D01*
X115889474Y-84385030D01*
X115889473Y-84385028D01*
X115889473Y-84385021D01*
X115830047Y-84182632D01*
X115830046Y-84182631D01*
X115830046Y-84182629D01*
X115733392Y-83995148D01*
X115733388Y-83995141D01*
X115603005Y-83829347D01*
X115603003Y-83829344D01*
X115603000Y-83829341D01*
X115602997Y-83829338D01*
X115602993Y-83829334D01*
X115443592Y-83691212D01*
X115443584Y-83691206D01*
X115260916Y-83585743D01*
X115260913Y-83585741D01*
X115260907Y-83585739D01*
X115255453Y-83583248D01*
X115256356Y-83581269D01*
X115206436Y-83545700D01*
X115180067Y-83479782D01*
X115179500Y-83467839D01*
X115179500Y-48129384D01*
X115199502Y-48061263D01*
X115216405Y-48040289D01*
X118480289Y-44776405D01*
X118542601Y-44742379D01*
X118569384Y-44739500D01*
X123043109Y-44739500D01*
X123111230Y-44759502D01*
X123157722Y-44813157D01*
X123192266Y-44888797D01*
X123204124Y-44914762D01*
X123326478Y-45086584D01*
X123479138Y-45232145D01*
X123479140Y-45232146D01*
X123479142Y-45232148D01*
X123574434Y-45293388D01*
X123656587Y-45346184D01*
X123852411Y-45424580D01*
X124059533Y-45464500D01*
X124059537Y-45464500D01*
X124467613Y-45464500D01*
X124467630Y-45464499D01*
X124624969Y-45449474D01*
X124624969Y-45449473D01*
X124624979Y-45449473D01*
X124827368Y-45390047D01*
X125014854Y-45293391D01*
X125180659Y-45163000D01*
X125318792Y-45003587D01*
X125424259Y-44820913D01*
X125493248Y-44621580D01*
X125523267Y-44412793D01*
X125513231Y-44202098D01*
X125463501Y-43997110D01*
X125375876Y-43805238D01*
X125253522Y-43633416D01*
X125100862Y-43487855D01*
X125100859Y-43487853D01*
X125100857Y-43487851D01*
X124923413Y-43373816D01*
X124813848Y-43329953D01*
X124727589Y-43295420D01*
X124727586Y-43295419D01*
X124727585Y-43295419D01*
X124520471Y-43255500D01*
X124520467Y-43255500D01*
X124112387Y-43255500D01*
X124112369Y-43255500D01*
X123955030Y-43270525D01*
X123955015Y-43270528D01*
X123752629Y-43329953D01*
X123565148Y-43426607D01*
X123565141Y-43426611D01*
X123399347Y-43556994D01*
X123399334Y-43557006D01*
X123261212Y-43716407D01*
X123261206Y-43716415D01*
X123155743Y-43899083D01*
X123153248Y-43904547D01*
X123151260Y-43903639D01*
X123115740Y-43953533D01*
X123049832Y-43979928D01*
X123037840Y-43980500D01*
X118412422Y-43980500D01*
X118386564Y-43977818D01*
X118383806Y-43977239D01*
X118375898Y-43975581D01*
X118353756Y-43978342D01*
X118340321Y-43980016D01*
X118332533Y-43980500D01*
X118328557Y-43980500D01*
X118305274Y-43984385D01*
X118250215Y-43991248D01*
X118242622Y-43993508D01*
X118235072Y-43996100D01*
X118186294Y-44022497D01*
X118136432Y-44046873D01*
X118129978Y-44051481D01*
X118123685Y-44056380D01*
X118086119Y-44097186D01*
X114568724Y-47614580D01*
X114548551Y-47630964D01*
X114539419Y-47636930D01*
X114539416Y-47636933D01*
X114517394Y-47665227D01*
X114512231Y-47671073D01*
X114511285Y-47672019D01*
X114509415Y-47673890D01*
X114495705Y-47693093D01*
X114461628Y-47736876D01*
X114457835Y-47743884D01*
X114454346Y-47751022D01*
X114438520Y-47804182D01*
X114420499Y-47856673D01*
X114419194Y-47864495D01*
X114418207Y-47872410D01*
X114420500Y-47927825D01*
X114420500Y-83473108D01*
X114400498Y-83541229D01*
X114346844Y-83587721D01*
X114245238Y-83634124D01*
X114073416Y-83756478D01*
X114073412Y-83756481D01*
X113927851Y-83909142D01*
X113813816Y-84086586D01*
X113735419Y-84282414D01*
X113695500Y-84489528D01*
X113695500Y-84897630D01*
X110904500Y-84897630D01*
X110904499Y-83946746D01*
X110898040Y-83886658D01*
X110847342Y-83750733D01*
X110760404Y-83634596D01*
X110644267Y-83547658D01*
X110644265Y-83547657D01*
X110644266Y-83547657D01*
X110508349Y-83496962D01*
X110508344Y-83496960D01*
X110508342Y-83496960D01*
X110500831Y-83496152D01*
X110448262Y-83490500D01*
X110448255Y-83490500D01*
X110305500Y-83490500D01*
X110237379Y-83470498D01*
X110190886Y-83416842D01*
X110179500Y-83364500D01*
X110179500Y-71993649D01*
X110181780Y-71978113D01*
X110180501Y-71977954D01*
X110181792Y-71967593D01*
X110179500Y-71912175D01*
X110179500Y-43529384D01*
X110199502Y-43461263D01*
X110216405Y-43440289D01*
X113880289Y-39776405D01*
X113942601Y-39742379D01*
X113969384Y-39739500D01*
X122934501Y-39739500D01*
X123002622Y-39759502D01*
X123049115Y-39813158D01*
X123060501Y-39865500D01*
X123060501Y-40008246D01*
X123060502Y-40008270D01*
X123066959Y-40068339D01*
X123066959Y-40068341D01*
X123117657Y-40204266D01*
X123117658Y-40204267D01*
X123204596Y-40320404D01*
X123320733Y-40407342D01*
X123456658Y-40458040D01*
X123516745Y-40464500D01*
X125063254Y-40464499D01*
X125123342Y-40458040D01*
X125259267Y-40407342D01*
X125375404Y-40320404D01*
X125462342Y-40204267D01*
X125513040Y-40068342D01*
X125519500Y-40008255D01*
X125519499Y-38711746D01*
X125513040Y-38651658D01*
X125462342Y-38515733D01*
X125375404Y-38399596D01*
X125259267Y-38312658D01*
X125259265Y-38312657D01*
X125259266Y-38312657D01*
X125123349Y-38261962D01*
X125123344Y-38261960D01*
X125123342Y-38261960D01*
X125093298Y-38258730D01*
X125063256Y-38255500D01*
X123516753Y-38255500D01*
X123516729Y-38255502D01*
X123456660Y-38261959D01*
X123456658Y-38261959D01*
X123320733Y-38312657D01*
X123204596Y-38399596D01*
X123117657Y-38515734D01*
X123066962Y-38651650D01*
X123066960Y-38651658D01*
X123060500Y-38711737D01*
X123060500Y-38854500D01*
X123040498Y-38922621D01*
X122986842Y-38969114D01*
X122934500Y-38980500D01*
X113812427Y-38980500D01*
X113786568Y-38977818D01*
X113775898Y-38975580D01*
X113752593Y-38978486D01*
X113740316Y-38980016D01*
X113732526Y-38980500D01*
X113728556Y-38980500D01*
X113716919Y-38982441D01*
X113705282Y-38984383D01*
X113700702Y-38984954D01*
X113650215Y-38991247D01*
X113642624Y-38993507D01*
X113635071Y-38996100D01*
X113600811Y-39014640D01*
X113586289Y-39022500D01*
X113573959Y-39028527D01*
X113536437Y-39046870D01*
X113529970Y-39051487D01*
X113523685Y-39056380D01*
X113486119Y-39097186D01*
X109568724Y-43014580D01*
X109548551Y-43030964D01*
X109539419Y-43036930D01*
X109539416Y-43036933D01*
X109517394Y-43065227D01*
X109512231Y-43071073D01*
X109511285Y-43072019D01*
X109509415Y-43073890D01*
X109495705Y-43093093D01*
X109461628Y-43136876D01*
X109457835Y-43143884D01*
X109454346Y-43151022D01*
X109438520Y-43204182D01*
X109420499Y-43256673D01*
X109419194Y-43264495D01*
X109418207Y-43272410D01*
X109420500Y-43327825D01*
X109420500Y-71434500D01*
X109400498Y-71502621D01*
X109346842Y-71549114D01*
X109294500Y-71560500D01*
X73330499Y-71560500D01*
X73262378Y-71540498D01*
X73215885Y-71486842D01*
X73204499Y-71434500D01*
X73204499Y-71064936D01*
X73204498Y-71064927D01*
X73189734Y-70990699D01*
X73133483Y-70906515D01*
X73049302Y-70850266D01*
X72975067Y-70835500D01*
X71224936Y-70835500D01*
X71224926Y-70835501D01*
X71150699Y-70850265D01*
X71066515Y-70906516D01*
X71010266Y-70990697D01*
X70995500Y-71064930D01*
X70995500Y-72815063D01*
X69815500Y-72815063D01*
X69815500Y-36061500D01*
X69835502Y-35993379D01*
X69889158Y-35946886D01*
X69941500Y-35935500D01*
X72969815Y-35935500D01*
X73037936Y-35955502D01*
G37*
%TD.AperFunction*%
%TD*%
M02*
