G04 #@! TF.GenerationSoftware,KiCad,Pcbnew,(5.1.12-1-10_14)*
G04 #@! TF.CreationDate,2023-01-20T22:26:28+01:00*
G04 #@! TF.ProjectId,dogs102,646f6773-3130-4322-9e6b-696361645f70,rev?*
G04 #@! TF.SameCoordinates,Original*
G04 #@! TF.FileFunction,Legend,Top*
G04 #@! TF.FilePolarity,Positive*
%FSLAX46Y46*%
G04 Gerber Fmt 4.6, Leading zero omitted, Abs format (unit mm)*
G04 Created by KiCad (PCBNEW (5.1.12-1-10_14)) date 2023-01-20 22:26:28*
%MOMM*%
%LPD*%
G01*
G04 APERTURE LIST*
%ADD10C,0.254000*%
%ADD11C,0.120000*%
%ADD12C,0.150000*%
G04 APERTURE END LIST*
D10*
X134066000Y-124460000D02*
X160066000Y-124460000D01*
X166566000Y-86360000D02*
X166566000Y-124460000D01*
X127566000Y-86360000D02*
X127566000Y-124460000D01*
D11*
X126230075Y-110243137D02*
G75*
G02*
X125874000Y-111785000I-3270075J-56863D01*
G01*
X124445202Y-113213387D02*
G75*
G02*
X121476000Y-113214000I-1485202J2913387D01*
G01*
X120046171Y-111783968D02*
G75*
G02*
X121896000Y-107208000I2913829J1483968D01*
G01*
X124024608Y-107208154D02*
G75*
G02*
X126230000Y-110300000I-1064608J-3091846D01*
G01*
X130660000Y-113300000D02*
G75*
G02*
X129960000Y-114000000I-700000J0D01*
G01*
X129960000Y-112000000D02*
G75*
G02*
X130660000Y-112700000I0J-700000D01*
G01*
X127860000Y-112700000D02*
G75*
G02*
X128560000Y-112000000I700000J0D01*
G01*
X128560000Y-114000000D02*
G75*
G02*
X127860000Y-113300000I0J700000D01*
G01*
X130660000Y-112700000D02*
X130660000Y-113300000D01*
X128560000Y-112000000D02*
X129960000Y-112000000D01*
X127860000Y-113300000D02*
X127860000Y-112700000D01*
X129960000Y-114000000D02*
X128560000Y-114000000D01*
X164682000Y-91519252D02*
X164682000Y-90096748D01*
X161962000Y-91519252D02*
X161962000Y-90096748D01*
X160070000Y-91748752D02*
X160070000Y-90326248D01*
X157350000Y-91748752D02*
X157350000Y-90326248D01*
X154670000Y-91748752D02*
X154670000Y-90326248D01*
X151950000Y-91748752D02*
X151950000Y-90326248D01*
X134320000Y-121196078D02*
X134320000Y-120678922D01*
X132900000Y-121196078D02*
X132900000Y-120678922D01*
X131266000Y-121196078D02*
X131266000Y-120678922D01*
X129846000Y-121196078D02*
X129846000Y-120678922D01*
X168018000Y-97672000D02*
X173718000Y-97672000D01*
X168018000Y-101972000D02*
X173718000Y-101972000D01*
X168018000Y-97672000D02*
X168018000Y-101972000D01*
X170096922Y-104850000D02*
X170614078Y-104850000D01*
X170096922Y-103430000D02*
X170614078Y-103430000D01*
X168305500Y-92236500D02*
X168305500Y-92861500D01*
X167993000Y-92549000D02*
X168618000Y-92549000D01*
X168858000Y-95929563D02*
X169922437Y-96994000D01*
X168858000Y-92538437D02*
X169922437Y-91474000D01*
X168858000Y-92538437D02*
X168858000Y-93174000D01*
X168858000Y-95929563D02*
X168858000Y-95294000D01*
X169922437Y-96994000D02*
X174378000Y-96994000D01*
X169922437Y-91474000D02*
X174378000Y-91474000D01*
X174378000Y-91474000D02*
X174378000Y-93174000D01*
X174378000Y-96994000D02*
X174378000Y-95294000D01*
X146868578Y-88290000D02*
X146351422Y-88290000D01*
X146868578Y-89710000D02*
X146351422Y-89710000D01*
D10*
X145070207Y-105999483D02*
X145070207Y-104729483D01*
X145372588Y-104729483D01*
X145554016Y-104789960D01*
X145674969Y-104910912D01*
X145735445Y-105031864D01*
X145795921Y-105273769D01*
X145795921Y-105455198D01*
X145735445Y-105697102D01*
X145674969Y-105818055D01*
X145554016Y-105939007D01*
X145372588Y-105999483D01*
X145070207Y-105999483D01*
X146279730Y-105939007D02*
X146461159Y-105999483D01*
X146763540Y-105999483D01*
X146884492Y-105939007D01*
X146944969Y-105878531D01*
X147005445Y-105757579D01*
X147005445Y-105636626D01*
X146944969Y-105515674D01*
X146884492Y-105455198D01*
X146763540Y-105394721D01*
X146521635Y-105334245D01*
X146400683Y-105273769D01*
X146340207Y-105213293D01*
X146279730Y-105092340D01*
X146279730Y-104971388D01*
X146340207Y-104850436D01*
X146400683Y-104789960D01*
X146521635Y-104729483D01*
X146824016Y-104729483D01*
X147005445Y-104789960D01*
X148214969Y-105999483D02*
X147489254Y-105999483D01*
X147852111Y-105999483D02*
X147852111Y-104729483D01*
X147731159Y-104910912D01*
X147610207Y-105031864D01*
X147489254Y-105092340D01*
D12*
X118852380Y-110895238D02*
X118376190Y-111228571D01*
X118852380Y-111466666D02*
X117852380Y-111466666D01*
X117852380Y-111085714D01*
X117900000Y-110990476D01*
X117947619Y-110942857D01*
X118042857Y-110895238D01*
X118185714Y-110895238D01*
X118280952Y-110942857D01*
X118328571Y-110990476D01*
X118376190Y-111085714D01*
X118376190Y-111466666D01*
X117852380Y-110609523D02*
X118852380Y-110276190D01*
X117852380Y-109942857D01*
X118852380Y-109085714D02*
X118852380Y-109657142D01*
X118852380Y-109371428D02*
X117852380Y-109371428D01*
X117995238Y-109466666D01*
X118090476Y-109561904D01*
X118138095Y-109657142D01*
X128426666Y-114252380D02*
X128426666Y-114966666D01*
X128379047Y-115109523D01*
X128283809Y-115204761D01*
X128140952Y-115252380D01*
X128045714Y-115252380D01*
X128902857Y-115252380D02*
X128902857Y-114252380D01*
X129283809Y-114252380D01*
X129379047Y-114300000D01*
X129426666Y-114347619D01*
X129474285Y-114442857D01*
X129474285Y-114585714D01*
X129426666Y-114680952D01*
X129379047Y-114728571D01*
X129283809Y-114776190D01*
X128902857Y-114776190D01*
X130426666Y-115252380D02*
X129855238Y-115252380D01*
X130140952Y-115252380D02*
X130140952Y-114252380D01*
X130045714Y-114395238D01*
X129950476Y-114490476D01*
X129855238Y-114538095D01*
X163867142Y-94766666D02*
X163914761Y-94814285D01*
X163962380Y-94957142D01*
X163962380Y-95052380D01*
X163914761Y-95195238D01*
X163819523Y-95290476D01*
X163724285Y-95338095D01*
X163533809Y-95385714D01*
X163390952Y-95385714D01*
X163200476Y-95338095D01*
X163105238Y-95290476D01*
X163010000Y-95195238D01*
X162962380Y-95052380D01*
X162962380Y-94957142D01*
X163010000Y-94814285D01*
X163057619Y-94766666D01*
X162962380Y-94433333D02*
X162962380Y-93814285D01*
X163343333Y-94147619D01*
X163343333Y-94004761D01*
X163390952Y-93909523D01*
X163438571Y-93861904D01*
X163533809Y-93814285D01*
X163771904Y-93814285D01*
X163867142Y-93861904D01*
X163914761Y-93909523D01*
X163962380Y-94004761D01*
X163962380Y-94290476D01*
X163914761Y-94385714D01*
X163867142Y-94433333D01*
X159467142Y-94796166D02*
X159514761Y-94843785D01*
X159562380Y-94986642D01*
X159562380Y-95081880D01*
X159514761Y-95224738D01*
X159419523Y-95319976D01*
X159324285Y-95367595D01*
X159133809Y-95415214D01*
X158990952Y-95415214D01*
X158800476Y-95367595D01*
X158705238Y-95319976D01*
X158610000Y-95224738D01*
X158562380Y-95081880D01*
X158562380Y-94986642D01*
X158610000Y-94843785D01*
X158657619Y-94796166D01*
X158657619Y-94415214D02*
X158610000Y-94367595D01*
X158562380Y-94272357D01*
X158562380Y-94034261D01*
X158610000Y-93939023D01*
X158657619Y-93891404D01*
X158752857Y-93843785D01*
X158848095Y-93843785D01*
X158990952Y-93891404D01*
X159562380Y-94462833D01*
X159562380Y-93843785D01*
X155667142Y-94766666D02*
X155714761Y-94814285D01*
X155762380Y-94957142D01*
X155762380Y-95052380D01*
X155714761Y-95195238D01*
X155619523Y-95290476D01*
X155524285Y-95338095D01*
X155333809Y-95385714D01*
X155190952Y-95385714D01*
X155000476Y-95338095D01*
X154905238Y-95290476D01*
X154810000Y-95195238D01*
X154762380Y-95052380D01*
X154762380Y-94957142D01*
X154810000Y-94814285D01*
X154857619Y-94766666D01*
X155762380Y-93814285D02*
X155762380Y-94385714D01*
X155762380Y-94100000D02*
X154762380Y-94100000D01*
X154905238Y-94195238D01*
X155000476Y-94290476D01*
X155048095Y-94385714D01*
X171704095Y-82104380D02*
X171704095Y-81104380D01*
X171704095Y-81580571D02*
X172275523Y-81580571D01*
X172275523Y-82104380D02*
X172275523Y-81104380D01*
X172704095Y-81199619D02*
X172751714Y-81152000D01*
X172846952Y-81104380D01*
X173085047Y-81104380D01*
X173180285Y-81152000D01*
X173227904Y-81199619D01*
X173275523Y-81294857D01*
X173275523Y-81390095D01*
X173227904Y-81532952D01*
X172656476Y-82104380D01*
X173275523Y-82104380D01*
X120904095Y-119696380D02*
X120904095Y-118696380D01*
X120904095Y-119172571D02*
X121475523Y-119172571D01*
X121475523Y-119696380D02*
X121475523Y-118696380D01*
X122475523Y-119696380D02*
X121904095Y-119696380D01*
X122189809Y-119696380D02*
X122189809Y-118696380D01*
X122094571Y-118839238D01*
X121999333Y-118934476D01*
X121904095Y-118982095D01*
X132412380Y-121104166D02*
X131936190Y-121437500D01*
X132412380Y-121675595D02*
X131412380Y-121675595D01*
X131412380Y-121294642D01*
X131460000Y-121199404D01*
X131507619Y-121151785D01*
X131602857Y-121104166D01*
X131745714Y-121104166D01*
X131840952Y-121151785D01*
X131888571Y-121199404D01*
X131936190Y-121294642D01*
X131936190Y-121675595D01*
X131507619Y-120723214D02*
X131460000Y-120675595D01*
X131412380Y-120580357D01*
X131412380Y-120342261D01*
X131460000Y-120247023D01*
X131507619Y-120199404D01*
X131602857Y-120151785D01*
X131698095Y-120151785D01*
X131840952Y-120199404D01*
X132412380Y-120770833D01*
X132412380Y-120151785D01*
X129358380Y-121104166D02*
X128882190Y-121437500D01*
X129358380Y-121675595D02*
X128358380Y-121675595D01*
X128358380Y-121294642D01*
X128406000Y-121199404D01*
X128453619Y-121151785D01*
X128548857Y-121104166D01*
X128691714Y-121104166D01*
X128786952Y-121151785D01*
X128834571Y-121199404D01*
X128882190Y-121294642D01*
X128882190Y-121675595D01*
X129358380Y-120151785D02*
X129358380Y-120723214D01*
X129358380Y-120437500D02*
X128358380Y-120437500D01*
X128501238Y-120532738D01*
X128596476Y-120627976D01*
X128644095Y-120723214D01*
X170829904Y-97274380D02*
X170829904Y-96274380D01*
X171068000Y-96274380D01*
X171210857Y-96322000D01*
X171306095Y-96417238D01*
X171353714Y-96512476D01*
X171401333Y-96702952D01*
X171401333Y-96845809D01*
X171353714Y-97036285D01*
X171306095Y-97131523D01*
X171210857Y-97226761D01*
X171068000Y-97274380D01*
X170829904Y-97274380D01*
X172353714Y-97274380D02*
X171782285Y-97274380D01*
X172068000Y-97274380D02*
X172068000Y-96274380D01*
X171972761Y-96417238D01*
X171877523Y-96512476D01*
X171782285Y-96560095D01*
X170188833Y-102847142D02*
X170141214Y-102894761D01*
X169998357Y-102942380D01*
X169903119Y-102942380D01*
X169760261Y-102894761D01*
X169665023Y-102799523D01*
X169617404Y-102704285D01*
X169569785Y-102513809D01*
X169569785Y-102370952D01*
X169617404Y-102180476D01*
X169665023Y-102085238D01*
X169760261Y-101990000D01*
X169903119Y-101942380D01*
X169998357Y-101942380D01*
X170141214Y-101990000D01*
X170188833Y-102037619D01*
X170665023Y-102942380D02*
X170855500Y-102942380D01*
X170950738Y-102894761D01*
X170998357Y-102847142D01*
X171093595Y-102704285D01*
X171141214Y-102513809D01*
X171141214Y-102132857D01*
X171093595Y-102037619D01*
X171045976Y-101990000D01*
X170950738Y-101942380D01*
X170760261Y-101942380D01*
X170665023Y-101990000D01*
X170617404Y-102037619D01*
X170569785Y-102132857D01*
X170569785Y-102370952D01*
X170617404Y-102466190D01*
X170665023Y-102513809D01*
X170760261Y-102561428D01*
X170950738Y-102561428D01*
X171045976Y-102513809D01*
X171093595Y-102466190D01*
X171141214Y-102370952D01*
X171451333Y-90891142D02*
X171403714Y-90938761D01*
X171260857Y-90986380D01*
X171165619Y-90986380D01*
X171022761Y-90938761D01*
X170927523Y-90843523D01*
X170879904Y-90748285D01*
X170832285Y-90557809D01*
X170832285Y-90414952D01*
X170879904Y-90224476D01*
X170927523Y-90129238D01*
X171022761Y-90034000D01*
X171165619Y-89986380D01*
X171260857Y-89986380D01*
X171403714Y-90034000D01*
X171451333Y-90081619D01*
X172022761Y-90414952D02*
X171927523Y-90367333D01*
X171879904Y-90319714D01*
X171832285Y-90224476D01*
X171832285Y-90176857D01*
X171879904Y-90081619D01*
X171927523Y-90034000D01*
X172022761Y-89986380D01*
X172213238Y-89986380D01*
X172308476Y-90034000D01*
X172356095Y-90081619D01*
X172403714Y-90176857D01*
X172403714Y-90224476D01*
X172356095Y-90319714D01*
X172308476Y-90367333D01*
X172213238Y-90414952D01*
X172022761Y-90414952D01*
X171927523Y-90462571D01*
X171879904Y-90510190D01*
X171832285Y-90605428D01*
X171832285Y-90795904D01*
X171879904Y-90891142D01*
X171927523Y-90938761D01*
X172022761Y-90986380D01*
X172213238Y-90986380D01*
X172308476Y-90938761D01*
X172356095Y-90891142D01*
X172403714Y-90795904D01*
X172403714Y-90605428D01*
X172356095Y-90510190D01*
X172308476Y-90462571D01*
X172213238Y-90414952D01*
X146443333Y-91007142D02*
X146395714Y-91054761D01*
X146252857Y-91102380D01*
X146157619Y-91102380D01*
X146014761Y-91054761D01*
X145919523Y-90959523D01*
X145871904Y-90864285D01*
X145824285Y-90673809D01*
X145824285Y-90530952D01*
X145871904Y-90340476D01*
X145919523Y-90245238D01*
X146014761Y-90150000D01*
X146157619Y-90102380D01*
X146252857Y-90102380D01*
X146395714Y-90150000D01*
X146443333Y-90197619D01*
X147300476Y-90435714D02*
X147300476Y-91102380D01*
X147062380Y-90054761D02*
X146824285Y-90769047D01*
X147443333Y-90769047D01*
M02*
